%TF.GenerationSoftware,KiCad,Pcbnew,9.0.5*%
%TF.CreationDate,2025-12-09T19:47:16-08:00*%
%TF.ProjectId,servo-dev-board,73657276-6f2d-4646-9576-2d626f617264,rev?*%
%TF.SameCoordinates,Original*%
%TF.FileFunction,Copper,L1,Top*%
%TF.FilePolarity,Positive*%
%FSLAX46Y46*%
G04 Gerber Fmt 4.6, Leading zero omitted, Abs format (unit mm)*
G04 Created by KiCad (PCBNEW 9.0.5) date 2025-12-09 19:47:16*
%MOMM*%
%LPD*%
G01*
G04 APERTURE LIST*
G04 Aperture macros list*
%AMRoundRect*
0 Rectangle with rounded corners*
0 $1 Rounding radius*
0 $2 $3 $4 $5 $6 $7 $8 $9 X,Y pos of 4 corners*
0 Add a 4 corners polygon primitive as box body*
4,1,4,$2,$3,$4,$5,$6,$7,$8,$9,$2,$3,0*
0 Add four circle primitives for the rounded corners*
1,1,$1+$1,$2,$3*
1,1,$1+$1,$4,$5*
1,1,$1+$1,$6,$7*
1,1,$1+$1,$8,$9*
0 Add four rect primitives between the rounded corners*
20,1,$1+$1,$2,$3,$4,$5,0*
20,1,$1+$1,$4,$5,$6,$7,0*
20,1,$1+$1,$6,$7,$8,$9,0*
20,1,$1+$1,$8,$9,$2,$3,0*%
%AMRotRect*
0 Rectangle, with rotation*
0 The origin of the aperture is its center*
0 $1 length*
0 $2 width*
0 $3 Rotation angle, in degrees counterclockwise*
0 Add horizontal line*
21,1,$1,$2,0,0,$3*%
%AMFreePoly0*
4,1,5,0.110000,-0.125000,-0.110000,-0.125000,-0.110000,0.125000,0.360000,0.125000,0.110000,-0.125000,0.110000,-0.125000,$1*%
%AMFreePoly1*
4,1,6,0.290000,-0.055000,0.290000,-0.125000,-0.110000,-0.125000,-0.110000,0.125000,0.110000,0.125000,0.290000,-0.055000,0.290000,-0.055000,$1*%
%AMFreePoly2*
4,1,7,0.110000,-0.125000,-0.110000,-0.125000,-0.290000,-0.125000,-0.290000,-0.055000,-0.110000,0.125000,0.110000,0.125000,0.110000,-0.125000,0.110000,-0.125000,$1*%
%AMFreePoly3*
4,1,6,0.110000,-0.125000,-0.110000,-0.125000,-0.290000,0.055000,-0.290000,0.125000,0.110000,0.125000,0.110000,-0.125000,0.110000,-0.125000,$1*%
G04 Aperture macros list end*
%TA.AperFunction,ComponentPad*%
%ADD10C,0.700000*%
%TD*%
%TA.AperFunction,ComponentPad*%
%ADD11C,4.400000*%
%TD*%
%TA.AperFunction,HeatsinkPad*%
%ADD12O,1.550000X0.890000*%
%TD*%
%TA.AperFunction,SMDPad,CuDef*%
%ADD13RoundRect,0.250000X-0.525000X0.475000X-0.525000X-0.475000X0.525000X-0.475000X0.525000X0.475000X0*%
%TD*%
%TA.AperFunction,HeatsinkPad*%
%ADD14O,0.950000X1.250000*%
%TD*%
%TA.AperFunction,SMDPad,CuDef*%
%ADD15RoundRect,0.250000X-0.525000X0.500000X-0.525000X-0.500000X0.525000X-0.500000X0.525000X0.500000X0*%
%TD*%
%TA.AperFunction,SMDPad,CuDef*%
%ADD16RoundRect,0.100000X-0.575000X0.100000X-0.575000X-0.100000X0.575000X-0.100000X0.575000X0.100000X0*%
%TD*%
%TA.AperFunction,SMDPad,CuDef*%
%ADD17RoundRect,0.225000X0.225000X0.250000X-0.225000X0.250000X-0.225000X-0.250000X0.225000X-0.250000X0*%
%TD*%
%TA.AperFunction,SMDPad,CuDef*%
%ADD18RoundRect,0.062500X-0.375000X-0.062500X0.375000X-0.062500X0.375000X0.062500X-0.375000X0.062500X0*%
%TD*%
%TA.AperFunction,SMDPad,CuDef*%
%ADD19RoundRect,0.062500X-0.062500X-0.375000X0.062500X-0.375000X0.062500X0.375000X-0.062500X0.375000X0*%
%TD*%
%TA.AperFunction,HeatsinkPad*%
%ADD20R,3.450000X3.450000*%
%TD*%
%TA.AperFunction,SMDPad,CuDef*%
%ADD21RoundRect,0.140000X0.170000X-0.140000X0.170000X0.140000X-0.170000X0.140000X-0.170000X-0.140000X0*%
%TD*%
%TA.AperFunction,SMDPad,CuDef*%
%ADD22RoundRect,0.135000X-0.135000X-0.185000X0.135000X-0.185000X0.135000X0.185000X-0.135000X0.185000X0*%
%TD*%
%TA.AperFunction,SMDPad,CuDef*%
%ADD23R,1.050000X0.650000*%
%TD*%
%TA.AperFunction,SMDPad,CuDef*%
%ADD24RoundRect,0.140000X0.140000X0.170000X-0.140000X0.170000X-0.140000X-0.170000X0.140000X-0.170000X0*%
%TD*%
%TA.AperFunction,SMDPad,CuDef*%
%ADD25RoundRect,0.250000X0.350000X-0.450000X0.350000X0.450000X-0.350000X0.450000X-0.350000X-0.450000X0*%
%TD*%
%TA.AperFunction,SMDPad,CuDef*%
%ADD26RoundRect,0.175000X1.675000X-0.175000X1.675000X0.175000X-1.675000X0.175000X-1.675000X-0.175000X0*%
%TD*%
%TA.AperFunction,SMDPad,CuDef*%
%ADD27RoundRect,0.250001X0.899999X-0.499999X0.899999X0.499999X-0.899999X0.499999X-0.899999X-0.499999X0*%
%TD*%
%TA.AperFunction,SMDPad,CuDef*%
%ADD28RoundRect,0.225000X0.250000X-0.225000X0.250000X0.225000X-0.250000X0.225000X-0.250000X-0.225000X0*%
%TD*%
%TA.AperFunction,SMDPad,CuDef*%
%ADD29RoundRect,0.135000X0.135000X0.185000X-0.135000X0.185000X-0.135000X-0.185000X0.135000X-0.185000X0*%
%TD*%
%TA.AperFunction,SMDPad,CuDef*%
%ADD30RoundRect,0.135000X0.185000X-0.135000X0.185000X0.135000X-0.185000X0.135000X-0.185000X-0.135000X0*%
%TD*%
%TA.AperFunction,SMDPad,CuDef*%
%ADD31RoundRect,0.218750X-0.218750X-0.256250X0.218750X-0.256250X0.218750X0.256250X-0.218750X0.256250X0*%
%TD*%
%TA.AperFunction,SMDPad,CuDef*%
%ADD32FreePoly0,90.000000*%
%TD*%
%TA.AperFunction,SMDPad,CuDef*%
%ADD33FreePoly1,90.000000*%
%TD*%
%TA.AperFunction,SMDPad,CuDef*%
%ADD34FreePoly2,90.000000*%
%TD*%
%TA.AperFunction,SMDPad,CuDef*%
%ADD35FreePoly3,90.000000*%
%TD*%
%TA.AperFunction,SMDPad,CuDef*%
%ADD36RotRect,0.480000X0.480000X135.000000*%
%TD*%
%TA.AperFunction,ComponentPad*%
%ADD37R,1.000000X1.000000*%
%TD*%
%TA.AperFunction,ComponentPad*%
%ADD38C,1.000000*%
%TD*%
%TA.AperFunction,SMDPad,CuDef*%
%ADD39RoundRect,0.147500X-0.172500X0.147500X-0.172500X-0.147500X0.172500X-0.147500X0.172500X0.147500X0*%
%TD*%
%TA.AperFunction,SMDPad,CuDef*%
%ADD40RoundRect,0.062500X-0.062500X0.187500X-0.062500X-0.187500X0.062500X-0.187500X0.062500X0.187500X0*%
%TD*%
%TA.AperFunction,SMDPad,CuDef*%
%ADD41R,1.600000X0.900000*%
%TD*%
%TA.AperFunction,SMDPad,CuDef*%
%ADD42RoundRect,0.150000X0.150000X0.625000X-0.150000X0.625000X-0.150000X-0.625000X0.150000X-0.625000X0*%
%TD*%
%TA.AperFunction,SMDPad,CuDef*%
%ADD43RoundRect,0.250000X0.350000X0.650000X-0.350000X0.650000X-0.350000X-0.650000X0.350000X-0.650000X0*%
%TD*%
%TA.AperFunction,SMDPad,CuDef*%
%ADD44RoundRect,0.150000X-0.150000X-0.625000X0.150000X-0.625000X0.150000X0.625000X-0.150000X0.625000X0*%
%TD*%
%TA.AperFunction,SMDPad,CuDef*%
%ADD45RoundRect,0.250000X-0.350000X-0.650000X0.350000X-0.650000X0.350000X0.650000X-0.350000X0.650000X0*%
%TD*%
%TA.AperFunction,SMDPad,CuDef*%
%ADD46RoundRect,0.140000X-0.140000X-0.170000X0.140000X-0.170000X0.140000X0.170000X-0.140000X0.170000X0*%
%TD*%
%TA.AperFunction,ComponentPad*%
%ADD47R,1.700000X1.700000*%
%TD*%
%TA.AperFunction,ComponentPad*%
%ADD48C,1.700000*%
%TD*%
%TA.AperFunction,ViaPad*%
%ADD49C,0.450000*%
%TD*%
%TA.AperFunction,ViaPad*%
%ADD50C,0.600000*%
%TD*%
%TA.AperFunction,Conductor*%
%ADD51C,0.200000*%
%TD*%
%TA.AperFunction,Conductor*%
%ADD52C,0.400000*%
%TD*%
G04 APERTURE END LIST*
D10*
%TO.P,MH2,1,1*%
%TO.N,GND*%
X119650000Y-110500000D03*
X119166726Y-111666726D03*
X119166726Y-109333274D03*
X118000000Y-112150000D03*
D11*
X118000000Y-110500000D03*
D10*
X118000000Y-108850000D03*
X116833274Y-111666726D03*
X116833274Y-109333274D03*
X116350000Y-110500000D03*
%TD*%
D12*
%TO.P,J1,6,Shield*%
%TO.N,GND*%
X117365000Y-104500000D03*
D13*
X117365000Y-104025000D03*
D14*
X120065000Y-103500000D03*
D15*
X117365000Y-102000000D03*
X117365000Y-100000000D03*
D14*
X120065000Y-98500000D03*
D13*
X117365000Y-97975000D03*
D12*
X117365000Y-97500000D03*
D16*
%TO.P,J1,5,GND*%
X120065000Y-102300000D03*
%TO.P,J1,4,ID*%
%TO.N,unconnected-(J1-ID-Pad4)*%
X120065000Y-101650000D03*
%TO.P,J1,3,D+*%
%TO.N,unconnected-(J1-D+-Pad3)*%
X120065000Y-101000000D03*
%TO.P,J1,2,D-*%
%TO.N,unconnected-(J1-D--Pad2)*%
X120065000Y-100350000D03*
%TO.P,J1,1,VBUS*%
%TO.N,+5V*%
X120065000Y-99700000D03*
%TD*%
D17*
%TO.P,C8,1*%
%TO.N,GND*%
X147075000Y-95700000D03*
%TO.P,C8,2*%
%TO.N,+3V3*%
X145525000Y-95700000D03*
%TD*%
D18*
%TO.P,U3,1,VDD*%
%TO.N,+3V3*%
X145512500Y-98987500D03*
%TO.P,U3,2,PF0*%
%TO.N,/OSC-*%
X145512500Y-99487500D03*
%TO.P,U3,3,PF1*%
%TO.N,/OSC+*%
X145512500Y-99987500D03*
%TO.P,U3,4,NRST*%
%TO.N,/NRST*%
X145512500Y-100487500D03*
%TO.P,U3,5,VDDA*%
%TO.N,/VREF*%
X145512500Y-100987500D03*
%TO.P,U3,6,VSSA*%
%TO.N,GND*%
X145512500Y-101487500D03*
%TO.P,U3,7,PA0*%
%TO.N,/POT*%
X145512500Y-101987500D03*
%TO.P,U3,8,PA1*%
%TO.N,/ISNS*%
X145512500Y-102487500D03*
D19*
%TO.P,U3,9,PA2*%
%TO.N,/PA2*%
X146200000Y-103175000D03*
%TO.P,U3,10,PA3*%
%TO.N,/PA3*%
X146700000Y-103175000D03*
%TO.P,U3,11,PA4*%
%TO.N,/PA4*%
X147200000Y-103175000D03*
%TO.P,U3,12,PA5*%
%TO.N,/PA5*%
X147700000Y-103175000D03*
%TO.P,U3,13,PA6*%
%TO.N,/PA6*%
X148200000Y-103175000D03*
%TO.P,U3,14,PA7*%
%TO.N,/PA7*%
X148700000Y-103175000D03*
%TO.P,U3,15,PB0*%
%TO.N,/PB0*%
X149200000Y-103175000D03*
%TO.P,U3,16,VSS*%
%TO.N,GND*%
X149700000Y-103175000D03*
D18*
%TO.P,U3,17,VDD*%
%TO.N,+3V3*%
X150387500Y-102487500D03*
%TO.P,U3,18,PA8*%
%TO.N,/PWM1*%
X150387500Y-101987500D03*
%TO.P,U3,19,PA9*%
%TO.N,/UART1_TX*%
X150387500Y-101487500D03*
%TO.P,U3,20,PA10*%
%TO.N,/UART1_RX*%
X150387500Y-100987500D03*
%TO.P,U3,21,PA11*%
%TO.N,/PWM2*%
X150387500Y-100487500D03*
%TO.P,U3,22,PA12*%
%TO.N,/PA12*%
X150387500Y-99987500D03*
%TO.P,U3,23,PA13*%
%TO.N,/JTMS_SWDIO*%
X150387500Y-99487500D03*
%TO.P,U3,24,PA14*%
%TO.N,/JTCK_SWCLK*%
X150387500Y-98987500D03*
D19*
%TO.P,U3,25,PA15*%
%TO.N,/JTDI*%
X149700000Y-98300000D03*
%TO.P,U3,26,PB3*%
%TO.N,/JTDO_SWO*%
X149200000Y-98300000D03*
%TO.P,U3,27,PB4*%
%TO.N,/NJTRST*%
X148700000Y-98300000D03*
%TO.P,U3,28,PB5*%
%TO.N,/PB5*%
X148200000Y-98300000D03*
%TO.P,U3,29,PB6*%
%TO.N,/I2C1_SCL*%
X147700000Y-98300000D03*
%TO.P,U3,30,PB7*%
%TO.N,/I2C1_SDA*%
X147200000Y-98300000D03*
%TO.P,U3,31,BOOT0*%
%TO.N,/BOOT0*%
X146700000Y-98300000D03*
%TO.P,U3,32,VSS*%
%TO.N,GND*%
X146200000Y-98300000D03*
D20*
%TO.P,U3,33,VSS*%
X147950000Y-100737500D03*
%TD*%
D21*
%TO.P,C1,1*%
%TO.N,GND*%
X125010000Y-99885000D03*
%TO.P,C1,2*%
%TO.N,+5V*%
X125010000Y-98925000D03*
%TD*%
D22*
%TO.P,R7,1*%
%TO.N,/ISNS*%
X130555000Y-94100000D03*
%TO.P,R7,2*%
%TO.N,GND*%
X131575000Y-94100000D03*
%TD*%
D23*
%TO.P,SW1,1,1*%
%TO.N,/NRST*%
X123625000Y-89050000D03*
X127775000Y-89050000D03*
%TO.P,SW1,2,2*%
%TO.N,GND*%
X123625000Y-91200000D03*
X127775000Y-91200000D03*
%TD*%
D24*
%TO.P,C4,1*%
%TO.N,GND*%
X123700000Y-104625000D03*
%TO.P,C4,2*%
%TO.N,+3V3*%
X122740000Y-104625000D03*
%TD*%
D21*
%TO.P,C10,1*%
%TO.N,GND*%
X142900000Y-102272500D03*
%TO.P,C10,2*%
%TO.N,/VREF*%
X142900000Y-101312500D03*
%TD*%
D10*
%TO.P,MH3,1,1*%
%TO.N,GND*%
X160350000Y-110500000D03*
X160833274Y-109333274D03*
X160833274Y-111666726D03*
X162000000Y-108850000D03*
D11*
X162000000Y-110500000D03*
D10*
X162000000Y-112150000D03*
X163166726Y-109333274D03*
X163166726Y-111666726D03*
X163650000Y-110500000D03*
%TD*%
D24*
%TO.P,C6,1*%
%TO.N,GND*%
X146210000Y-97000000D03*
%TO.P,C6,2*%
%TO.N,+3V3*%
X145250000Y-97000000D03*
%TD*%
D21*
%TO.P,C5,1*%
%TO.N,GND*%
X124400000Y-103630000D03*
%TO.P,C5,2*%
%TO.N,+5V*%
X124400000Y-102670000D03*
%TD*%
D25*
%TO.P,Y1,1,1*%
%TO.N,/OSC+*%
X143500000Y-99200000D03*
%TO.P,Y1,2,2*%
%TO.N,GND*%
X143500000Y-97000000D03*
%TO.P,Y1,3,3*%
%TO.N,/OSC-*%
X141800000Y-97000000D03*
%TO.P,Y1,4,4*%
%TO.N,GND*%
X141800000Y-99200000D03*
%TD*%
D26*
%TO.P,J2,1,Pin_1*%
%TO.N,/POT*%
X133700000Y-104000000D03*
%TO.P,J2,2,Pin_2*%
%TO.N,/VREF*%
X133700000Y-102500000D03*
%TO.P,J2,3,Pin_3*%
%TO.N,GND*%
X133700000Y-101000000D03*
%TO.P,J2,4,Pin_4*%
%TO.N,/M1*%
X133700000Y-99500000D03*
%TO.P,J2,5,Pin_5*%
%TO.N,/M2*%
X133700000Y-98000000D03*
D27*
%TO.P,J2,MP,MountPin*%
%TO.N,GND*%
X131600000Y-106050000D03*
X131600000Y-95950000D03*
%TD*%
D23*
%TO.P,SW2,1,1*%
%TO.N,+3V3*%
X123625000Y-110800000D03*
X127775000Y-110800000D03*
%TO.P,SW2,2,2*%
%TO.N,/BOOT0*%
X123625000Y-112950000D03*
X127775000Y-112950000D03*
%TD*%
D28*
%TO.P,C11,1*%
%TO.N,GND*%
X123750000Y-99610000D03*
%TO.P,C11,2*%
%TO.N,+5V*%
X123750000Y-98060000D03*
%TD*%
D29*
%TO.P,R4,1*%
%TO.N,/UART1_TX*%
X156400000Y-107900000D03*
%TO.P,R4,2*%
%TO.N,+3V3*%
X155380000Y-107900000D03*
%TD*%
D30*
%TO.P,R6,1*%
%TO.N,/BOOT0*%
X122300000Y-113305000D03*
%TO.P,R6,2*%
%TO.N,GND*%
X122300000Y-112285000D03*
%TD*%
D31*
%TO.P,LED1,1,K*%
%TO.N,GND*%
X125950000Y-106400000D03*
%TO.P,LED1,2,A*%
%TO.N,Net-(LED1-A)*%
X127525000Y-106400000D03*
%TD*%
D32*
%TO.P,U2,1,VOUT*%
%TO.N,+3V3*%
X122750000Y-103680000D03*
D33*
%TO.P,U2,2,GND*%
%TO.N,GND*%
X123400000Y-103680000D03*
D34*
%TO.P,U2,3,EN*%
%TO.N,+5V*%
X123400000Y-102600000D03*
D35*
%TO.P,U2,4,VIN*%
X122750000Y-102600000D03*
D36*
%TO.P,U2,5,EP*%
%TO.N,GND*%
X123075000Y-103140000D03*
%TD*%
D10*
%TO.P,MH1,1,1*%
%TO.N,GND*%
X116350000Y-91500000D03*
X116833274Y-90333274D03*
X116833274Y-92666726D03*
X118000000Y-89850000D03*
D11*
X118000000Y-91500000D03*
D10*
X118000000Y-93150000D03*
X119166726Y-90333274D03*
X119166726Y-92666726D03*
X119650000Y-91500000D03*
%TD*%
D22*
%TO.P,R5,1*%
%TO.N,+3V3*%
X126777500Y-107700000D03*
%TO.P,R5,2*%
%TO.N,Net-(LED1-A)*%
X127797500Y-107700000D03*
%TD*%
D37*
%TO.P,J5,1,Pin_1*%
%TO.N,+3V3*%
X163370000Y-103540000D03*
D38*
%TO.P,J5,2,Pin_2*%
%TO.N,/JTMS_SWDIO*%
X162100000Y-103540000D03*
%TO.P,J5,3,Pin_3*%
%TO.N,GND*%
X163370000Y-102270000D03*
%TO.P,J5,4,Pin_4*%
%TO.N,/JTCK_SWCLK*%
X162100000Y-102270000D03*
%TO.P,J5,5,Pin_5*%
%TO.N,GND*%
X163370000Y-101000000D03*
%TO.P,J5,6,Pin_6*%
%TO.N,/JTDO_SWO*%
X162100000Y-101000000D03*
%TO.P,J5,7,Pin_7*%
%TO.N,unconnected-(J5-Pin_7-Pad7)*%
X163370000Y-99730000D03*
%TO.P,J5,8,Pin_8*%
%TO.N,/JTDI*%
X162100000Y-99730000D03*
%TO.P,J5,9,Pin_9*%
%TO.N,GND*%
X163370000Y-98460000D03*
%TO.P,J5,10,Pin_10*%
%TO.N,/NJTRST*%
X162100000Y-98460000D03*
%TD*%
D22*
%TO.P,R3,1*%
%TO.N,+3V3*%
X155380000Y-94050000D03*
%TO.P,R3,2*%
%TO.N,/I2C1_SCL*%
X156400000Y-94050000D03*
%TD*%
D21*
%TO.P,CL2,1*%
%TO.N,GND*%
X140250000Y-97390000D03*
%TO.P,CL2,2*%
%TO.N,/OSC-*%
X140250000Y-96430000D03*
%TD*%
D29*
%TO.P,R2,1*%
%TO.N,+3V3*%
X158355000Y-94050000D03*
%TO.P,R2,2*%
%TO.N,/I2C1_SDA*%
X157335000Y-94050000D03*
%TD*%
D39*
%TO.P,L1,1*%
%TO.N,/VREF*%
X141900000Y-101312500D03*
%TO.P,L1,2*%
%TO.N,+3V3*%
X141900000Y-102282500D03*
%TD*%
D40*
%TO.P,U1,1,IPROPI*%
%TO.N,/ISNS*%
X126550000Y-95875000D03*
%TO.P,U1,2,IN2*%
%TO.N,/PWM2*%
X126050000Y-95875000D03*
%TO.P,U1,3,IN1*%
%TO.N,/PWM1*%
X125550000Y-95875000D03*
%TO.P,U1,4,VREF*%
%TO.N,+3V3*%
X125050000Y-95875000D03*
%TO.P,U1,5,VM*%
%TO.N,+5V*%
X125050000Y-97775000D03*
%TO.P,U1,6,OUT1*%
%TO.N,/M1*%
X125550000Y-97775000D03*
%TO.P,U1,7,GND*%
%TO.N,GND*%
X126050000Y-97775000D03*
%TO.P,U1,8,OUT2*%
%TO.N,/M2*%
X126550000Y-97775000D03*
D41*
%TO.P,U1,9,EP*%
%TO.N,GND*%
X125800000Y-96825000D03*
%TD*%
D42*
%TO.P,J4,1,Pin_1*%
%TO.N,/UART1_RX*%
X156375000Y-109775000D03*
%TO.P,J4,2,Pin_2*%
%TO.N,GND*%
X155375000Y-109775000D03*
%TO.P,J4,3,Pin_3*%
%TO.N,/UART1_TX*%
X154375000Y-109775000D03*
%TO.P,J4,4,Pin_4*%
%TO.N,+3V3*%
X153375000Y-109775000D03*
D43*
%TO.P,J4,MP,MountPin*%
%TO.N,GND*%
X157675000Y-112300000D03*
X152075000Y-112300000D03*
%TD*%
D44*
%TO.P,J3,1,Pin_1*%
%TO.N,GND*%
X153375000Y-92175000D03*
%TO.P,J3,2,Pin_2*%
%TO.N,+3V3*%
X154375000Y-92175000D03*
%TO.P,J3,3,Pin_3*%
%TO.N,/I2C1_SDA*%
X155375000Y-92175000D03*
%TO.P,J3,4,Pin_4*%
%TO.N,/I2C1_SCL*%
X156375000Y-92175000D03*
D45*
%TO.P,J3,MP,MountPin*%
%TO.N,GND*%
X152075000Y-89650000D03*
X157675000Y-89650000D03*
%TD*%
D10*
%TO.P,MH4,1,1*%
%TO.N,GND*%
X160348350Y-91501650D03*
X160831624Y-90334924D03*
X160831624Y-92668376D03*
X161998350Y-89851650D03*
D11*
X161998350Y-91501650D03*
D10*
X161998350Y-93151650D03*
X163165076Y-90334924D03*
X163165076Y-92668376D03*
X163648350Y-91501650D03*
%TD*%
D46*
%TO.P,C7,1*%
%TO.N,GND*%
X149690000Y-104400000D03*
%TO.P,C7,2*%
%TO.N,+3V3*%
X150650000Y-104400000D03*
%TD*%
D21*
%TO.P,CL1,1*%
%TO.N,/OSC+*%
X140250000Y-99770000D03*
%TO.P,CL1,2*%
%TO.N,GND*%
X140250000Y-98810000D03*
%TD*%
%TO.P,C3,1*%
%TO.N,/BOOT0*%
X121300000Y-113295000D03*
%TO.P,C3,2*%
%TO.N,GND*%
X121300000Y-112335000D03*
%TD*%
%TO.P,C2,1*%
%TO.N,GND*%
X122300000Y-89665000D03*
%TO.P,C2,2*%
%TO.N,/NRST*%
X122300000Y-88705000D03*
%TD*%
%TO.P,C9,1*%
%TO.N,GND*%
X143900000Y-102272500D03*
%TO.P,C9,2*%
%TO.N,/VREF*%
X143900000Y-101312500D03*
%TD*%
D22*
%TO.P,R1,1*%
%TO.N,/UART1_RX*%
X157335000Y-107900000D03*
%TO.P,R1,2*%
%TO.N,+3V3*%
X158355000Y-107900000D03*
%TD*%
D47*
%TO.P,H2,1,Pin_1*%
%TO.N,+5V*%
X131125000Y-90850000D03*
D48*
%TO.P,H2,2,Pin_2*%
%TO.N,+3V3*%
X133665000Y-90850000D03*
%TO.P,H2,3,Pin_3*%
%TO.N,GND*%
X136205000Y-90850000D03*
%TO.P,H2,4,Pin_4*%
%TO.N,/VREF*%
X138745000Y-90850000D03*
%TO.P,H2,5,Pin_5*%
%TO.N,GND*%
X141285000Y-90850000D03*
%TO.P,H2,6,Pin_6*%
%TO.N,/PB5*%
X143825000Y-90850000D03*
%TO.P,H2,7,Pin_7*%
%TO.N,/PA12*%
X146365000Y-90850000D03*
%TO.P,H2,8,Pin_8*%
%TO.N,GND*%
X148905000Y-90850000D03*
%TD*%
D47*
%TO.P,H1,1,Pin_1*%
%TO.N,/PA2*%
X131125000Y-111130000D03*
D48*
%TO.P,H1,2,Pin_2*%
%TO.N,/PA3*%
X133665000Y-111130000D03*
%TO.P,H1,3,Pin_3*%
%TO.N,/PA4*%
X136205000Y-111130000D03*
%TO.P,H1,4,Pin_4*%
%TO.N,/PA5*%
X138745000Y-111130000D03*
%TO.P,H1,5,Pin_5*%
%TO.N,/PA6*%
X141285000Y-111130000D03*
%TO.P,H1,6,Pin_6*%
%TO.N,/PA7*%
X143825000Y-111130000D03*
%TO.P,H1,7,Pin_7*%
%TO.N,/PB0*%
X146365000Y-111130000D03*
%TO.P,H1,8,Pin_8*%
%TO.N,GND*%
X148905000Y-111130000D03*
%TD*%
D49*
%TO.N,+3V3*%
X122350000Y-105700000D03*
X122350000Y-106883332D03*
X158355000Y-93600000D03*
X122725000Y-105050000D03*
X122350000Y-107475000D03*
X123125000Y-106291666D03*
X123125000Y-107475000D03*
X155375000Y-93600000D03*
D50*
X125550000Y-94350000D03*
X126325000Y-107700000D03*
D49*
X123575000Y-110825000D03*
D50*
X150650000Y-104875000D03*
D49*
X127800000Y-110825000D03*
X123125000Y-105700000D03*
X123125000Y-106883332D03*
X122350000Y-106291666D03*
X158750000Y-107900000D03*
D50*
X153375000Y-110725000D03*
X141400000Y-102312500D03*
D49*
X154975000Y-107950000D03*
D50*
X154350000Y-91225000D03*
X145500000Y-95050000D03*
%TO.N,GND*%
X152850000Y-89625000D03*
D49*
X123259744Y-95749891D03*
X123265256Y-94449783D03*
X123625000Y-91200000D03*
D50*
X147100000Y-99900000D03*
D49*
X129059744Y-95125217D03*
X125334675Y-97123499D03*
X126286308Y-96519240D03*
X132050000Y-94100000D03*
D50*
X124900000Y-103625000D03*
D49*
X124025000Y-95100000D03*
D50*
X147075000Y-95050000D03*
X130275000Y-95950000D03*
D49*
X123265256Y-96399945D03*
X129069488Y-95766883D03*
D50*
X123750000Y-100250000D03*
D49*
X123250000Y-95099837D03*
D50*
X147100000Y-101700000D03*
X142900000Y-102725000D03*
D49*
X127540256Y-96408549D03*
D50*
X156900000Y-112275000D03*
X155350000Y-110725000D03*
D49*
X128309744Y-95766883D03*
D50*
X143500000Y-95450000D03*
D49*
X128260000Y-98750000D03*
D50*
X125000000Y-100350000D03*
D49*
X128315256Y-96408549D03*
X127550000Y-97050217D03*
X129075000Y-96408549D03*
X128300000Y-95125217D03*
D50*
X124150000Y-104625000D03*
X117280000Y-100015000D03*
D49*
X124034744Y-95750000D03*
X129084744Y-97050217D03*
D50*
X130275000Y-106050000D03*
X139100000Y-98800000D03*
X145900000Y-98325000D03*
X143900000Y-102725000D03*
D49*
X124040256Y-96400000D03*
X128325000Y-97050217D03*
X126296855Y-97137496D03*
D50*
X123100000Y-99600000D03*
D49*
X127470000Y-98750000D03*
X122300000Y-90075000D03*
D50*
X148900000Y-99900000D03*
X149700000Y-104875000D03*
D49*
X127534744Y-95766883D03*
D50*
X117280000Y-101935000D03*
X131650000Y-101000000D03*
X135725000Y-101000000D03*
D49*
X123275000Y-97050000D03*
D50*
X147950000Y-100737500D03*
X153375000Y-91200000D03*
X133700000Y-101525000D03*
D49*
X124025000Y-94450000D03*
X124050000Y-97050000D03*
D50*
X156900000Y-89650000D03*
X148900000Y-101700000D03*
X123450000Y-104000000D03*
X150000000Y-103175000D03*
D49*
X122300000Y-111925000D03*
D50*
X125325000Y-106400000D03*
X152850000Y-112325000D03*
D49*
X127775000Y-91200000D03*
X121300000Y-111975000D03*
X125324931Y-96523282D03*
%TO.N,/NRST*%
X138825000Y-100300000D03*
X139925000Y-89075000D03*
D50*
%TO.N,/BOOT0*%
X145150000Y-112900000D03*
D49*
X147098067Y-97048067D03*
%TO.N,/VREF*%
X138325000Y-101312500D03*
%TO.N,/JTDI*%
X157650000Y-99450000D03*
%TO.N,/PA12*%
X152600000Y-100250000D03*
%TO.N,/PB5*%
X149400000Y-96200000D03*
%TO.N,/ISNS*%
X137625000Y-104975000D03*
X136175000Y-94900000D03*
%TO.N,/PWM1*%
X151500000Y-102625000D03*
X146575000Y-92350000D03*
%TO.N,/PWM2*%
X149675000Y-92975000D03*
X153275000Y-101650000D03*
%TD*%
D51*
%TO.N,+3V3*%
X145500000Y-95675000D02*
X145525000Y-95700000D01*
X145525000Y-96725000D02*
X145250000Y-97000000D01*
X145525000Y-95700000D02*
X145525000Y-96725000D01*
X145250000Y-98725000D02*
X145512500Y-98987500D01*
X145250000Y-97000000D02*
X145250000Y-98100000D01*
X145250000Y-98100000D02*
X145250000Y-98725000D01*
X125050000Y-94850000D02*
X125050000Y-95875000D01*
X150387500Y-102487500D02*
X150650000Y-102750000D01*
X150650000Y-102750000D02*
X150650000Y-104400000D01*
X125550000Y-94350000D02*
X125050000Y-94850000D01*
%TO.N,GND*%
X145060614Y-101487500D02*
X144275614Y-102272500D01*
X139100000Y-98800000D02*
X139110000Y-98810000D01*
X140240000Y-98800000D02*
X140250000Y-98810000D01*
X123400000Y-103680000D02*
X123400000Y-103950000D01*
X117620000Y-102275000D02*
X117280000Y-101935000D01*
X146887500Y-101487500D02*
X147100000Y-101700000D01*
X140240000Y-97400000D02*
X140250000Y-97390000D01*
X123400000Y-103950000D02*
X123450000Y-104000000D01*
X146210000Y-98290000D02*
X146200000Y-98300000D01*
X123400000Y-103465000D02*
X123400000Y-103680000D01*
X146250000Y-99037500D02*
X147950000Y-100737500D01*
X145512500Y-101487500D02*
X146887500Y-101487500D01*
X139110000Y-98810000D02*
X140250000Y-98810000D01*
X141410000Y-98810000D02*
X141800000Y-99200000D01*
X143500000Y-95450000D02*
X143500000Y-97000000D01*
X140250000Y-98810000D02*
X141410000Y-98810000D01*
X126050000Y-97075000D02*
X126050000Y-97775000D01*
X147075000Y-95700000D02*
X146210000Y-96565000D01*
X146250000Y-98350000D02*
X146250000Y-99037500D01*
X123450000Y-104375000D02*
X123700000Y-104625000D01*
X144275614Y-102272500D02*
X142900000Y-102272500D01*
X140250000Y-97390000D02*
X140250000Y-98810000D01*
D52*
X123075000Y-103140000D02*
X123400000Y-103465000D01*
D51*
X147075000Y-95050000D02*
X147075000Y-94875000D01*
X146200000Y-98300000D02*
X146250000Y-98350000D01*
X145512500Y-101487500D02*
X145060614Y-101487500D01*
D52*
X120430000Y-102275000D02*
X117620000Y-102275000D01*
D51*
X123450000Y-104000000D02*
X123450000Y-104375000D01*
X146210000Y-97000000D02*
X146210000Y-98290000D01*
X146210000Y-96565000D02*
X146210000Y-97000000D01*
D52*
%TO.N,+5V*%
X125875000Y-90475000D02*
X125762500Y-90587500D01*
X130500000Y-90200000D02*
X126150000Y-90200000D01*
X124400000Y-102670000D02*
X123510096Y-102670000D01*
X130750000Y-90475000D02*
X126225000Y-90475000D01*
X123510096Y-102670000D02*
X123420048Y-102579952D01*
X126225000Y-90475000D02*
X122225000Y-94475000D01*
X131125000Y-90850000D02*
X130987500Y-90712500D01*
X130987500Y-90687500D02*
X130500000Y-90200000D01*
X131125000Y-90850000D02*
X130750000Y-90475000D01*
X130987500Y-90712500D02*
X130987500Y-90687500D01*
X125762500Y-90587500D02*
X122000000Y-94350000D01*
X126150000Y-90200000D02*
X125762500Y-90587500D01*
X130750000Y-90475000D02*
X125875000Y-90475000D01*
D51*
%TO.N,/NRST*%
X139125000Y-100600000D02*
X144948114Y-100600000D01*
X139925000Y-89075000D02*
X139900000Y-89050000D01*
X145060614Y-100487500D02*
X145512500Y-100487500D01*
X139900000Y-89050000D02*
X127775000Y-89050000D01*
X123280000Y-88705000D02*
X123625000Y-89050000D01*
X138825000Y-100300000D02*
X139125000Y-100600000D01*
X123625000Y-89050000D02*
X127775000Y-89050000D01*
X122300000Y-88705000D02*
X123280000Y-88705000D01*
X144948114Y-100600000D02*
X145060614Y-100487500D01*
%TO.N,/BOOT0*%
X147098067Y-97048067D02*
X146700000Y-97446134D01*
X122300000Y-113305000D02*
X123270000Y-113305000D01*
X146700000Y-97446134D02*
X146700000Y-98300000D01*
X145150000Y-112900000D02*
X145100000Y-112950000D01*
X121300000Y-113295000D02*
X122290000Y-113295000D01*
X123270000Y-113305000D02*
X123625000Y-112950000D01*
X145100000Y-112950000D02*
X123625000Y-112950000D01*
X122290000Y-113295000D02*
X122300000Y-113305000D01*
%TO.N,/VREF*%
X144648114Y-101400000D02*
X143987500Y-101400000D01*
X138325000Y-101312500D02*
X136737500Y-101312500D01*
X138325000Y-101312500D02*
X141900000Y-101312500D01*
X145060614Y-100987500D02*
X144648114Y-101400000D01*
X145512500Y-100987500D02*
X145060614Y-100987500D01*
X136737500Y-101312500D02*
X135550000Y-102500000D01*
X143987500Y-101400000D02*
X143900000Y-101312500D01*
X135550000Y-102500000D02*
X133700000Y-102500000D01*
X141900000Y-101312500D02*
X143900000Y-101312500D01*
%TO.N,Net-(LED1-A)*%
X127525000Y-106400000D02*
X127797500Y-106672500D01*
X127797500Y-106672500D02*
X127797500Y-107700000D01*
%TO.N,/JTDI*%
X156500000Y-98300000D02*
X157650000Y-99450000D01*
X149700000Y-98300000D02*
X156500000Y-98300000D01*
%TO.N,/JTDO_SWO*%
X149485614Y-97562500D02*
X156662500Y-97562500D01*
X149200000Y-97848114D02*
X149485614Y-97562500D01*
X149200000Y-98300000D02*
X149200000Y-97848114D01*
X160100000Y-101000000D02*
X162100000Y-101000000D01*
X156662500Y-97562500D02*
X160100000Y-101000000D01*
%TO.N,/NJTRST*%
X148700000Y-97848114D02*
X149448114Y-97100000D01*
X158260000Y-98460000D02*
X162100000Y-98460000D01*
X149448114Y-97100000D02*
X156900000Y-97100000D01*
X156900000Y-97100000D02*
X158260000Y-98460000D01*
X148700000Y-98300000D02*
X148700000Y-97848114D01*
%TO.N,/JTCK_SWCLK*%
X154587500Y-98987500D02*
X157900000Y-102300000D01*
X150387500Y-98987500D02*
X154587500Y-98987500D01*
X162070000Y-102300000D02*
X162100000Y-102270000D01*
X157900000Y-102300000D02*
X162070000Y-102300000D01*
%TO.N,/JTMS_SWDIO*%
X153997500Y-99487500D02*
X158050000Y-103540000D01*
X150387500Y-99487500D02*
X153997500Y-99487500D01*
X158050000Y-103540000D02*
X162100000Y-103540000D01*
%TO.N,/I2C1_SCL*%
X147700000Y-98300000D02*
X147700000Y-97762448D01*
X156375000Y-92949999D02*
X156375000Y-92175000D01*
X149224057Y-94800000D02*
X155650000Y-94800000D01*
X156375000Y-92175000D02*
X156375000Y-94025000D01*
X147700000Y-97762448D02*
X148700000Y-96762448D01*
X148700000Y-96762448D02*
X148700000Y-95324057D01*
X148700000Y-95324057D02*
X149224057Y-94800000D01*
X155650000Y-94800000D02*
X156400000Y-94050000D01*
X156375000Y-94025000D02*
X156400000Y-94050000D01*
%TO.N,/I2C1_SDA*%
X155375000Y-92175000D02*
X155375000Y-91400001D01*
X148100000Y-95409744D02*
X153059744Y-90450000D01*
X147200000Y-97800000D02*
X148100000Y-96900000D01*
X147200000Y-98300000D02*
X147200000Y-97800000D01*
X155375000Y-91400001D02*
X155725001Y-91050000D01*
X156065552Y-90450000D02*
X156665552Y-91050000D01*
X157335000Y-91719448D02*
X157335000Y-94050000D01*
X155725001Y-91050000D02*
X156665552Y-91050000D01*
X156665552Y-91050000D02*
X157335000Y-91719448D01*
X153059744Y-90450000D02*
X154250000Y-90450000D01*
X148100000Y-96900000D02*
X148100000Y-95409744D01*
X154151471Y-90450000D02*
X156065552Y-90450000D01*
%TO.N,/PA4*%
X143276886Y-107550000D02*
X139785000Y-107550000D01*
X147200000Y-103626886D02*
X143276886Y-107550000D01*
X147200000Y-103175000D02*
X147200000Y-103626886D01*
X139785000Y-107550000D02*
X136205000Y-111130000D01*
%TO.N,/PA7*%
X148700000Y-103991418D02*
X148700000Y-103175000D01*
X143825000Y-111130000D02*
X145400000Y-109555000D01*
X145400000Y-107291418D02*
X148700000Y-103991418D01*
X145400000Y-109555000D02*
X145400000Y-107291418D01*
%TO.N,/PA6*%
X148200000Y-104028970D02*
X148200000Y-103175000D01*
X141285000Y-110943970D02*
X148200000Y-104028970D01*
X141285000Y-111130000D02*
X141285000Y-110943970D01*
%TO.N,/PA5*%
X141675000Y-108200000D02*
X138745000Y-111130000D01*
X143300000Y-108200000D02*
X141675000Y-108200000D01*
X147700000Y-103800000D02*
X143300000Y-108200000D01*
X147700000Y-103175000D02*
X147700000Y-103800000D01*
%TO.N,/PA3*%
X136200000Y-107000000D02*
X133665000Y-109535000D01*
X146700000Y-103175000D02*
X146700000Y-103626886D01*
X143326886Y-107000000D02*
X136200000Y-107000000D01*
X133665000Y-109535000D02*
X133665000Y-111130000D01*
X146700000Y-103626886D02*
X143326886Y-107000000D01*
%TO.N,/PB0*%
X149200000Y-103953866D02*
X149200000Y-103175000D01*
X148400000Y-104753866D02*
X149200000Y-103953866D01*
X146365000Y-107135000D02*
X148400000Y-105100000D01*
X146365000Y-111130000D02*
X146365000Y-107135000D01*
X148400000Y-105100000D02*
X148400000Y-104753866D01*
%TO.N,/PA2*%
X146200000Y-103664438D02*
X143364438Y-106500000D01*
X146200000Y-103175000D02*
X146200000Y-103664438D01*
X134505000Y-106500000D02*
X131125000Y-109880000D01*
X143364438Y-106500000D02*
X134505000Y-106500000D01*
X131125000Y-109880000D02*
X131125000Y-111130000D01*
%TO.N,/PA12*%
X152337500Y-99987500D02*
X150387500Y-99987500D01*
X152600000Y-100250000D02*
X152337500Y-99987500D01*
%TO.N,/PB5*%
X148200000Y-98300000D02*
X148200000Y-97724896D01*
X148200000Y-97724896D02*
X149400000Y-96524896D01*
X149400000Y-96524896D02*
X149400000Y-96200000D01*
%TO.N,/UART1_TX*%
X154375000Y-109359448D02*
X154375000Y-109775000D01*
X156400000Y-106481076D02*
X156400000Y-107900000D01*
X155700000Y-108600000D02*
X155134448Y-108600000D01*
X155134448Y-108600000D02*
X154375000Y-109359448D01*
X150387500Y-101487500D02*
X151406424Y-101487500D01*
X151406424Y-101487500D02*
X156400000Y-106481076D01*
X156400000Y-107900000D02*
X155700000Y-108600000D01*
X156318924Y-107900000D02*
X156400000Y-107900000D01*
%TO.N,/UART1_RX*%
X157335000Y-106735000D02*
X157335000Y-107900000D01*
X157335000Y-107896076D02*
X157335000Y-107900000D01*
X151587500Y-100987500D02*
X157335000Y-106735000D01*
X157335000Y-107900000D02*
X157335000Y-108815000D01*
X150387500Y-100987500D02*
X151587500Y-100987500D01*
X157335000Y-108815000D02*
X156375000Y-109775000D01*
%TO.N,/ISNS*%
X137625000Y-104975000D02*
X137900000Y-105250000D01*
X143012448Y-105250000D02*
X145512500Y-102749948D01*
X128500000Y-93925000D02*
X130730000Y-93925000D01*
X137900000Y-105250000D02*
X143012448Y-105250000D01*
X134300000Y-93025000D02*
X136175000Y-94900000D01*
X130730000Y-93925000D02*
X131630000Y-93025000D01*
X145512500Y-102749948D02*
X145512500Y-102487500D01*
X126550000Y-95875000D02*
X128500000Y-93925000D01*
X131630000Y-93025000D02*
X134300000Y-93025000D01*
%TO.N,/POT*%
X143800000Y-104000000D02*
X133700000Y-104000000D01*
X145512500Y-101987500D02*
X145060614Y-101987500D01*
X145060614Y-101987500D02*
X144775000Y-102273114D01*
X144775000Y-102273114D02*
X144775000Y-103025000D01*
X144775000Y-103025000D02*
X143800000Y-104000000D01*
%TO.N,/PWM1*%
X128800000Y-92025000D02*
X125550000Y-95275000D01*
X146250000Y-92025000D02*
X128800000Y-92025000D01*
X125550000Y-95275000D02*
X125550000Y-95875000D01*
X151476886Y-102625000D02*
X150839386Y-101987500D01*
X151500000Y-102625000D02*
X151476886Y-102625000D01*
X150839386Y-101987500D02*
X150387500Y-101987500D01*
X146575000Y-92350000D02*
X146250000Y-92025000D01*
%TO.N,/PWM2*%
X126050000Y-95610614D02*
X126050000Y-95875000D01*
X153275000Y-101650000D02*
X153070250Y-101650000D01*
X129185614Y-92475000D02*
X126050000Y-95610614D01*
X149675000Y-92975000D02*
X135050000Y-92975000D01*
X134550000Y-92475000D02*
X129185614Y-92475000D01*
X135050000Y-92975000D02*
X134550000Y-92475000D01*
X153070250Y-101650000D02*
X151942503Y-100522253D01*
X150422253Y-100522253D02*
X150387500Y-100487500D01*
X151942503Y-100522253D02*
X150422253Y-100522253D01*
%TO.N,/OSC+*%
X140680000Y-100200000D02*
X140250000Y-99770000D01*
X144287500Y-99987500D02*
X145512500Y-99987500D01*
X143500000Y-99200000D02*
X143500000Y-99400000D01*
X143500000Y-99400000D02*
X142700000Y-100200000D01*
X142700000Y-100200000D02*
X140680000Y-100200000D01*
X143500000Y-99200000D02*
X144287500Y-99987500D01*
%TO.N,/OSC-*%
X141800000Y-97000000D02*
X141800000Y-97200000D01*
X145060614Y-99487500D02*
X145512500Y-99487500D01*
X144775000Y-98550000D02*
X144775000Y-99201886D01*
X144225000Y-98000000D02*
X144775000Y-98550000D01*
X141230000Y-96430000D02*
X141800000Y-97000000D01*
X141800000Y-97200000D02*
X142600000Y-98000000D01*
X140250000Y-96430000D02*
X141230000Y-96430000D01*
X142600000Y-98000000D02*
X144225000Y-98000000D01*
X144775000Y-99201886D02*
X145060614Y-99487500D01*
%TD*%
%TA.AperFunction,Conductor*%
%TO.N,/M2*%
G36*
X126566332Y-97530913D02*
G01*
X126666283Y-97567100D01*
X126695959Y-97584133D01*
X126774999Y-97650000D01*
X126775000Y-97650000D01*
X135274242Y-97650000D01*
X135312128Y-97657536D01*
X135437114Y-97709307D01*
X135483639Y-97749044D01*
X135490692Y-97762885D01*
X135542464Y-97887872D01*
X135550000Y-97925758D01*
X135550000Y-98074241D01*
X135542464Y-98112127D01*
X135490692Y-98237114D01*
X135485504Y-98243187D01*
X135483640Y-98250955D01*
X135466011Y-98266011D01*
X135450955Y-98283640D01*
X135437114Y-98290692D01*
X135355496Y-98324500D01*
X135316119Y-98340811D01*
X135312128Y-98342464D01*
X135274242Y-98350000D01*
X128424220Y-98350000D01*
X128398598Y-98346627D01*
X128316018Y-98324500D01*
X128203982Y-98324500D01*
X128121401Y-98346627D01*
X128095780Y-98350000D01*
X127634220Y-98350000D01*
X127608598Y-98346627D01*
X127526018Y-98324500D01*
X127413982Y-98324500D01*
X127331401Y-98346627D01*
X127305780Y-98350000D01*
X127134709Y-98350000D01*
X127093055Y-98340811D01*
X126807562Y-98208399D01*
X126779212Y-98188592D01*
X126679497Y-98088877D01*
X126673922Y-98082817D01*
X126672135Y-98080705D01*
X126625000Y-98025000D01*
X126624999Y-98025000D01*
X126558561Y-98025000D01*
X126542047Y-98023613D01*
X126539278Y-98023144D01*
X126525496Y-98019999D01*
X126520685Y-98019999D01*
X126512486Y-98018612D01*
X126492384Y-98008102D01*
X126470809Y-98001092D01*
X126465805Y-97994205D01*
X126458265Y-97990263D01*
X126448181Y-97969947D01*
X126434845Y-97951592D01*
X126432865Y-97939090D01*
X126431062Y-97935458D01*
X126431696Y-97931709D01*
X126430000Y-97920999D01*
X126430000Y-97624433D01*
X126448907Y-97566242D01*
X126491193Y-97532937D01*
X126492244Y-97532502D01*
X126530048Y-97525000D01*
X126532630Y-97525000D01*
X126566332Y-97530913D01*
G37*
%TD.AperFunction*%
%TD*%
%TA.AperFunction,Conductor*%
%TO.N,+3V3*%
G36*
X122828383Y-103519486D02*
G01*
X122839282Y-103528568D01*
X122842915Y-103531596D01*
X122849204Y-103537339D01*
X122849748Y-103537732D01*
X122850454Y-103538415D01*
X122947189Y-103635150D01*
X122957719Y-103642186D01*
X122965751Y-103649956D01*
X123000246Y-103710717D01*
X122996416Y-103780481D01*
X122986921Y-103801076D01*
X122983608Y-103806813D01*
X122983608Y-103806814D01*
X122949500Y-103934108D01*
X122949500Y-104065892D01*
X122971914Y-104149544D01*
X122985712Y-104201037D01*
X122983690Y-104201578D01*
X122990000Y-104233282D01*
X122990000Y-105429503D01*
X123136195Y-105387031D01*
X123275374Y-105304721D01*
X123275383Y-105304714D01*
X123288319Y-105291779D01*
X123349642Y-105258294D01*
X123419334Y-105263278D01*
X123475267Y-105305150D01*
X123499684Y-105370614D01*
X123500000Y-105379460D01*
X123500000Y-107601000D01*
X123480315Y-107668039D01*
X123427511Y-107713794D01*
X123376000Y-107725000D01*
X122124000Y-107725000D01*
X122056961Y-107705315D01*
X122011206Y-107652511D01*
X122000000Y-107601000D01*
X122000000Y-105399113D01*
X122019685Y-105332074D01*
X122072489Y-105286319D01*
X122141647Y-105276375D01*
X122200003Y-105301136D01*
X122204622Y-105304719D01*
X122343804Y-105387031D01*
X122490000Y-105429504D01*
X122490000Y-103975000D01*
X122625000Y-103975000D01*
X122625000Y-103614744D01*
X122644685Y-103547705D01*
X122697489Y-103501950D01*
X122766647Y-103492006D01*
X122828383Y-103519486D01*
G37*
%TD.AperFunction*%
%TD*%
%TA.AperFunction,Conductor*%
%TO.N,/M1*%
G36*
X125598650Y-97528730D02*
G01*
X125631248Y-97542233D01*
X125657766Y-97568750D01*
X125671270Y-97601349D01*
X125675000Y-97620102D01*
X125675000Y-97975000D01*
X125722952Y-98022952D01*
X125736362Y-98048039D01*
X125739759Y-98065115D01*
X125797887Y-98152112D01*
X125856015Y-98190951D01*
X125884883Y-98210240D01*
X125901959Y-98213636D01*
X125927047Y-98227047D01*
X126850000Y-99150000D01*
X127312364Y-99150000D01*
X127325046Y-99151670D01*
X127413978Y-99175499D01*
X127413979Y-99175500D01*
X127413982Y-99175500D01*
X127526021Y-99175500D01*
X127526021Y-99175499D01*
X127573634Y-99162741D01*
X127614954Y-99151670D01*
X127627636Y-99150000D01*
X128102364Y-99150000D01*
X128115046Y-99151670D01*
X128203978Y-99175499D01*
X128203979Y-99175500D01*
X128203982Y-99175500D01*
X128316021Y-99175500D01*
X128316021Y-99175499D01*
X128363634Y-99162741D01*
X128404954Y-99151670D01*
X128417636Y-99150000D01*
X135326865Y-99150000D01*
X135345617Y-99153730D01*
X135468748Y-99204733D01*
X135495266Y-99231251D01*
X135546270Y-99354383D01*
X135550000Y-99373135D01*
X135550000Y-99626864D01*
X135546270Y-99645616D01*
X135495266Y-99768748D01*
X135468748Y-99795266D01*
X135345617Y-99846270D01*
X135326865Y-99850000D01*
X125876168Y-99850000D01*
X125857416Y-99846270D01*
X125643751Y-99757766D01*
X125617233Y-99731248D01*
X125528730Y-99517584D01*
X125525000Y-99498832D01*
X125525000Y-98125000D01*
X125481892Y-98081892D01*
X125471270Y-98065995D01*
X125470905Y-98065115D01*
X125428730Y-97963294D01*
X125425000Y-97944543D01*
X125425000Y-97620102D01*
X125428730Y-97601350D01*
X125442233Y-97568751D01*
X125468751Y-97542233D01*
X125501350Y-97528730D01*
X125520102Y-97525000D01*
X125579898Y-97525000D01*
X125598650Y-97528730D01*
G37*
%TD.AperFunction*%
%TD*%
%TA.AperFunction,Conductor*%
%TO.N,+5V*%
G36*
X122294381Y-93783699D02*
G01*
X122683700Y-94173905D01*
X122685688Y-94175897D01*
X122700000Y-94210506D01*
X122700000Y-97525000D01*
X125147576Y-97525000D01*
X125166315Y-97528725D01*
X125168737Y-97529728D01*
X125195261Y-97556237D01*
X125196269Y-97558672D01*
X125200000Y-97577423D01*
X125200000Y-98625000D01*
X125243107Y-98668107D01*
X125253729Y-98684003D01*
X125296270Y-98786707D01*
X125300000Y-98805456D01*
X125300000Y-99062221D01*
X125296270Y-99080971D01*
X125270267Y-99143749D01*
X125243749Y-99170266D01*
X125180971Y-99196270D01*
X125162221Y-99200000D01*
X124986523Y-99200000D01*
X124967772Y-99196270D01*
X124684003Y-99078729D01*
X124668107Y-99068107D01*
X124550000Y-98950000D01*
X124373223Y-98950000D01*
X123937500Y-98950000D01*
X123325000Y-98950000D01*
X123325000Y-98966589D01*
X123310648Y-99001237D01*
X123298246Y-99010248D01*
X123246783Y-99036470D01*
X123246780Y-99036472D01*
X123198101Y-99085149D01*
X123163455Y-99099500D01*
X123034105Y-99099500D01*
X122906815Y-99133607D01*
X122906811Y-99133608D01*
X122792685Y-99199500D01*
X122792685Y-99199501D01*
X122699501Y-99292685D01*
X122699500Y-99292685D01*
X122633608Y-99406811D01*
X122633607Y-99406815D01*
X122599500Y-99534104D01*
X122599500Y-99665895D01*
X122633607Y-99793184D01*
X122633608Y-99793188D01*
X122680843Y-99875000D01*
X122699500Y-99907314D01*
X122792686Y-100000500D01*
X122834457Y-100024617D01*
X122906811Y-100066391D01*
X122906813Y-100066391D01*
X122906814Y-100066392D01*
X122988278Y-100088220D01*
X123034104Y-100100499D01*
X123034105Y-100100500D01*
X123034108Y-100100500D01*
X123143456Y-100100500D01*
X123178104Y-100114852D01*
X123235148Y-100171896D01*
X123249500Y-100206544D01*
X123249500Y-100315895D01*
X123283607Y-100443184D01*
X123283608Y-100443186D01*
X123318435Y-100503509D01*
X123325000Y-100528007D01*
X123325000Y-102025000D01*
X123532491Y-102232491D01*
X123543113Y-102248387D01*
X123663717Y-102539551D01*
X123721270Y-102678494D01*
X123725000Y-102697246D01*
X123725000Y-102904897D01*
X123721270Y-102923650D01*
X123707766Y-102956249D01*
X123681249Y-102982765D01*
X123681247Y-102982765D01*
X123681246Y-102982767D01*
X123681244Y-102982766D01*
X123648651Y-102996269D01*
X123629898Y-103000000D01*
X123578257Y-103000000D01*
X123543609Y-102985648D01*
X123202811Y-102644850D01*
X123153231Y-102611722D01*
X123075000Y-102596161D01*
X122996768Y-102611722D01*
X122947188Y-102644850D01*
X122711087Y-102880950D01*
X122702082Y-102884679D01*
X122695190Y-102891572D01*
X122685444Y-102891572D01*
X122676439Y-102895302D01*
X122657687Y-102891572D01*
X122606251Y-102870266D01*
X122579733Y-102843748D01*
X122453730Y-102539551D01*
X122450000Y-102520799D01*
X122450000Y-101125000D01*
X121902545Y-100554735D01*
X121902545Y-100554734D01*
X121821339Y-100470145D01*
X121250000Y-99875000D01*
X120425000Y-99875000D01*
X119820296Y-99875000D01*
X119785648Y-99860648D01*
X119634648Y-99709648D01*
X119620296Y-99675000D01*
X119634648Y-99640352D01*
X119785648Y-99489352D01*
X119820296Y-99475000D01*
X121249999Y-99475000D01*
X121250000Y-99475000D01*
X121859352Y-98709352D01*
X121849849Y-97525000D01*
X121823241Y-94208666D01*
X121837314Y-94173905D01*
X121837408Y-94173808D01*
X122225085Y-93783897D01*
X122259691Y-93769447D01*
X122294381Y-93783699D01*
G37*
%TD.AperFunction*%
%TD*%
%TA.AperFunction,Conductor*%
%TO.N,GND*%
G36*
X126224500Y-97624500D02*
G01*
X126224500Y-97988396D01*
X126239760Y-98065117D01*
X126297887Y-98152112D01*
X126339871Y-98180164D01*
X126384883Y-98210240D01*
X126461599Y-98225500D01*
X126525499Y-98225499D01*
X127125000Y-98825000D01*
X127125000Y-98944500D01*
X126955416Y-98944500D01*
X126920768Y-98930148D01*
X126072358Y-98081738D01*
X126072351Y-98081732D01*
X126023925Y-98045814D01*
X126006155Y-98036316D01*
X125998838Y-98032405D01*
X125982540Y-98026573D01*
X125971826Y-98021180D01*
X125969879Y-98019879D01*
X125930117Y-97980117D01*
X125928818Y-97978172D01*
X125925000Y-97970587D01*
X125925000Y-97550000D01*
X125962500Y-97512500D01*
X126112500Y-97512500D01*
X126224500Y-97624500D01*
G37*
%TD.AperFunction*%
%TD*%
%TA.AperFunction,Conductor*%
%TO.N,GND*%
G36*
X141106509Y-97743235D02*
G01*
X141127850Y-97772151D01*
X141237114Y-97852791D01*
X141237117Y-97852792D01*
X141237118Y-97852793D01*
X141237120Y-97852793D01*
X141237123Y-97852795D01*
X141329469Y-97885108D01*
X141365301Y-97897646D01*
X141395734Y-97900500D01*
X142055233Y-97900500D01*
X142089881Y-97914852D01*
X142091381Y-97916352D01*
X142105733Y-97951000D01*
X142091381Y-97985648D01*
X142056733Y-98000000D01*
X142050000Y-98000000D01*
X142050000Y-99151000D01*
X142035648Y-99185648D01*
X142001000Y-99200000D01*
X141599000Y-99200000D01*
X141564352Y-99185648D01*
X141550000Y-99151000D01*
X141550000Y-98000000D01*
X141400019Y-98000000D01*
X141297306Y-98010493D01*
X141130877Y-98065642D01*
X140981656Y-98157682D01*
X140931866Y-98207473D01*
X140897218Y-98221825D01*
X140862570Y-98207473D01*
X140815380Y-98160283D01*
X140815377Y-98160281D01*
X140784764Y-98142177D01*
X140762246Y-98112186D01*
X140767529Y-98075058D01*
X140784764Y-98057823D01*
X140815377Y-98039718D01*
X140815380Y-98039716D01*
X140929718Y-97925378D01*
X140929722Y-97925373D01*
X141012030Y-97786198D01*
X141020029Y-97758664D01*
X141043477Y-97729395D01*
X141080753Y-97725278D01*
X141106509Y-97743235D01*
G37*
%TD.AperFunction*%
%TA.AperFunction,Conductor*%
G36*
X154033038Y-90764852D02*
G01*
X154047390Y-90799500D01*
X154033038Y-90834148D01*
X153951580Y-90915605D01*
X153951578Y-90915607D01*
X153949500Y-90917686D01*
X153918994Y-90970522D01*
X153918785Y-90970876D01*
X153904016Y-90981931D01*
X153889326Y-90993203D01*
X153889013Y-90993161D01*
X153888762Y-90993350D01*
X153870510Y-90990725D01*
X153852144Y-90988307D01*
X153851702Y-90988048D01*
X153785198Y-90948718D01*
X153785200Y-90948718D01*
X153627500Y-90902901D01*
X153627489Y-90902899D01*
X153625000Y-90902703D01*
X153625000Y-93447296D01*
X153627488Y-93447100D01*
X153627491Y-93447100D01*
X153785201Y-93401280D01*
X153926551Y-93317686D01*
X153926556Y-93317682D01*
X154042680Y-93201558D01*
X154065989Y-93162145D01*
X154095980Y-93139628D01*
X154119816Y-93140202D01*
X154119842Y-93140024D01*
X154121313Y-93140238D01*
X154122625Y-93140270D01*
X154123602Y-93140572D01*
X154123606Y-93140572D01*
X154123607Y-93140573D01*
X154148501Y-93144200D01*
X154191738Y-93150500D01*
X154191740Y-93150500D01*
X154558262Y-93150500D01*
X154575590Y-93147974D01*
X154626393Y-93140573D01*
X154731483Y-93089198D01*
X154814198Y-93006483D01*
X154830979Y-92972157D01*
X154859089Y-92947332D01*
X154896520Y-92949656D01*
X154919021Y-92972157D01*
X154935799Y-93006478D01*
X154935801Y-93006481D01*
X154935802Y-93006483D01*
X155018517Y-93089198D01*
X155123607Y-93140573D01*
X155140555Y-93143042D01*
X155172772Y-93162239D01*
X155181978Y-93198595D01*
X155162781Y-93230812D01*
X155157991Y-93233965D01*
X155113734Y-93259517D01*
X155034516Y-93338736D01*
X155034515Y-93338736D01*
X154978497Y-93435760D01*
X154978496Y-93435764D01*
X154949500Y-93543978D01*
X154949500Y-93656018D01*
X154953192Y-93669798D01*
X154950270Y-93703187D01*
X154915933Y-93776823D01*
X154915932Y-93776825D01*
X154915932Y-93776826D01*
X154915932Y-93776827D01*
X154912167Y-93805430D01*
X154909500Y-93825687D01*
X154909500Y-94274312D01*
X154909499Y-94274312D01*
X154912500Y-94297103D01*
X154915932Y-94323173D01*
X154965650Y-94429793D01*
X154967286Y-94467259D01*
X154941950Y-94494909D01*
X154921241Y-94499500D01*
X149553511Y-94499500D01*
X149518863Y-94485148D01*
X149504511Y-94450500D01*
X149518863Y-94415852D01*
X150534215Y-93400500D01*
X151069071Y-92865644D01*
X152575000Y-92865644D01*
X152577899Y-92902489D01*
X152577899Y-92902491D01*
X152623719Y-93060201D01*
X152707313Y-93201551D01*
X152707317Y-93201556D01*
X152823443Y-93317682D01*
X152823448Y-93317686D01*
X152964798Y-93401280D01*
X153122510Y-93447100D01*
X153124999Y-93447296D01*
X153125000Y-93447295D01*
X153125000Y-92425000D01*
X152575000Y-92425000D01*
X152575000Y-92865644D01*
X151069071Y-92865644D01*
X152491733Y-91442981D01*
X152526378Y-91428631D01*
X152561026Y-91442983D01*
X152575378Y-91477631D01*
X152575227Y-91481471D01*
X152575000Y-91484348D01*
X152575000Y-91925000D01*
X153125000Y-91925000D01*
X153125000Y-90902702D01*
X153114107Y-90892637D01*
X153113672Y-90891694D01*
X153112712Y-90891297D01*
X153105873Y-90874787D01*
X153098399Y-90858582D01*
X153098758Y-90857607D01*
X153098361Y-90856649D01*
X153105195Y-90840147D01*
X153111373Y-90823395D01*
X153112664Y-90822050D01*
X153169864Y-90764850D01*
X153204511Y-90750500D01*
X153998390Y-90750500D01*
X154033038Y-90764852D01*
G37*
%TD.AperFunction*%
%TA.AperFunction,Conductor*%
G36*
X121879311Y-88264852D02*
G01*
X121893663Y-88299500D01*
X121879311Y-88334148D01*
X121846777Y-88366681D01*
X121846776Y-88366683D01*
X121796029Y-88475510D01*
X121796028Y-88475511D01*
X121789500Y-88525102D01*
X121789500Y-88884896D01*
X121789501Y-88884901D01*
X121796028Y-88934492D01*
X121796441Y-88935909D01*
X121796338Y-88936846D01*
X121796517Y-88938205D01*
X121796184Y-88938248D01*
X121792353Y-88973188D01*
X121774341Y-88991790D01*
X121734623Y-89015280D01*
X121734621Y-89015281D01*
X121620281Y-89129621D01*
X121620277Y-89129626D01*
X121537968Y-89268802D01*
X121495494Y-89414999D01*
X121495495Y-89415000D01*
X122863315Y-89415000D01*
X122897963Y-89429352D01*
X122908514Y-89449091D01*
X122909286Y-89448772D01*
X122911133Y-89453231D01*
X122955447Y-89519552D01*
X122975936Y-89533242D01*
X123021769Y-89563867D01*
X123080252Y-89575500D01*
X123080255Y-89575500D01*
X124169745Y-89575500D01*
X124169748Y-89575500D01*
X124228231Y-89563867D01*
X124294552Y-89519552D01*
X124338867Y-89453231D01*
X124350500Y-89394748D01*
X124350500Y-89394744D01*
X124350505Y-89394695D01*
X124350512Y-89394680D01*
X124350969Y-89392387D01*
X124351664Y-89392525D01*
X124368185Y-89361621D01*
X124399269Y-89350500D01*
X127000731Y-89350500D01*
X127035379Y-89364852D01*
X127048457Y-89392501D01*
X127049031Y-89392387D01*
X127049486Y-89394677D01*
X127049495Y-89394695D01*
X127049499Y-89394744D01*
X127049500Y-89394748D01*
X127061133Y-89453231D01*
X127073342Y-89471503D01*
X127105447Y-89519552D01*
X127125936Y-89533242D01*
X127171769Y-89563867D01*
X127230252Y-89575500D01*
X127230255Y-89575500D01*
X128319745Y-89575500D01*
X128319748Y-89575500D01*
X128378231Y-89563867D01*
X128444552Y-89519552D01*
X128488867Y-89453231D01*
X128500500Y-89394748D01*
X128500500Y-89394744D01*
X128500505Y-89394695D01*
X128500512Y-89394680D01*
X128500969Y-89392387D01*
X128501664Y-89392525D01*
X128518185Y-89361621D01*
X128549269Y-89350500D01*
X139578456Y-89350500D01*
X139613104Y-89364852D01*
X139663737Y-89415485D01*
X139687974Y-89429478D01*
X139760760Y-89471502D01*
X139760762Y-89471502D01*
X139760763Y-89471503D01*
X139846111Y-89494371D01*
X139868978Y-89500499D01*
X139868979Y-89500500D01*
X139868982Y-89500500D01*
X139981021Y-89500500D01*
X139981021Y-89500499D01*
X140089237Y-89471503D01*
X140186263Y-89415485D01*
X140265485Y-89336263D01*
X140321503Y-89239237D01*
X140350499Y-89131021D01*
X140350500Y-89131021D01*
X140350500Y-89018979D01*
X140350499Y-89018978D01*
X140338230Y-88973188D01*
X140321503Y-88910763D01*
X140321502Y-88910762D01*
X140321502Y-88910760D01*
X140265484Y-88813736D01*
X140186263Y-88734515D01*
X140089239Y-88678497D01*
X140089235Y-88678496D01*
X139981021Y-88649500D01*
X139981018Y-88649500D01*
X139868982Y-88649500D01*
X139868979Y-88649500D01*
X139760764Y-88678496D01*
X139760760Y-88678497D01*
X139663736Y-88734515D01*
X139663736Y-88734516D01*
X139663104Y-88735148D01*
X139662687Y-88735320D01*
X139661188Y-88736471D01*
X139660879Y-88736069D01*
X139628456Y-88749500D01*
X128549269Y-88749500D01*
X128514621Y-88735148D01*
X128501542Y-88707498D01*
X128500969Y-88707613D01*
X128500513Y-88705322D01*
X128500505Y-88705305D01*
X128500500Y-88705255D01*
X128500500Y-88705252D01*
X128488867Y-88646769D01*
X128462301Y-88607012D01*
X128444552Y-88580447D01*
X128404795Y-88553882D01*
X128378231Y-88536133D01*
X128319748Y-88524500D01*
X127230252Y-88524500D01*
X127171769Y-88536133D01*
X127105447Y-88580447D01*
X127061133Y-88646769D01*
X127049499Y-88705255D01*
X127049495Y-88705305D01*
X127049487Y-88705319D01*
X127049031Y-88707613D01*
X127048335Y-88707474D01*
X127031815Y-88738379D01*
X127000731Y-88749500D01*
X124399269Y-88749500D01*
X124364621Y-88735148D01*
X124351542Y-88707498D01*
X124350969Y-88707613D01*
X124350513Y-88705322D01*
X124350505Y-88705305D01*
X124350500Y-88705255D01*
X124350500Y-88705252D01*
X124338867Y-88646769D01*
X124312301Y-88607012D01*
X124294552Y-88580447D01*
X124254795Y-88553882D01*
X124228231Y-88536133D01*
X124169748Y-88524500D01*
X124169745Y-88524500D01*
X123544767Y-88524500D01*
X123510119Y-88510148D01*
X123464511Y-88464540D01*
X123395990Y-88424979D01*
X123319564Y-88404500D01*
X123319562Y-88404500D01*
X122802074Y-88404500D01*
X122767426Y-88390148D01*
X122764454Y-88386897D01*
X122760364Y-88381997D01*
X122753224Y-88366684D01*
X122719129Y-88332589D01*
X122717717Y-88330897D01*
X122712732Y-88314938D01*
X122706337Y-88299500D01*
X122707233Y-88297335D01*
X122706535Y-88295100D01*
X122714293Y-88280291D01*
X122720689Y-88264852D01*
X122722852Y-88263955D01*
X122723940Y-88261880D01*
X122739898Y-88256895D01*
X122755337Y-88250500D01*
X151338710Y-88250500D01*
X151373358Y-88264852D01*
X151387710Y-88299500D01*
X151373358Y-88334148D01*
X151364434Y-88341205D01*
X151256656Y-88407682D01*
X151132682Y-88531656D01*
X151040642Y-88680877D01*
X150985493Y-88847306D01*
X150975000Y-88950018D01*
X150975000Y-89400000D01*
X153174999Y-89400000D01*
X153174999Y-88950019D01*
X153164506Y-88847306D01*
X153109357Y-88680877D01*
X153017317Y-88531656D01*
X152893343Y-88407682D01*
X152785566Y-88341205D01*
X152763611Y-88310800D01*
X152769585Y-88273776D01*
X152799990Y-88251821D01*
X152811290Y-88250500D01*
X156938710Y-88250500D01*
X156973358Y-88264852D01*
X156987710Y-88299500D01*
X156973358Y-88334148D01*
X156964434Y-88341205D01*
X156856656Y-88407682D01*
X156732682Y-88531656D01*
X156640642Y-88680877D01*
X156585493Y-88847306D01*
X156575000Y-88950018D01*
X156575000Y-89400000D01*
X158774999Y-89400000D01*
X158774999Y-88950019D01*
X158764506Y-88847306D01*
X158709357Y-88680877D01*
X158617317Y-88531656D01*
X158493343Y-88407682D01*
X158385566Y-88341205D01*
X158363611Y-88310800D01*
X158369585Y-88273776D01*
X158399990Y-88251821D01*
X158411290Y-88250500D01*
X161934108Y-88250500D01*
X161998714Y-88250500D01*
X162001278Y-88250567D01*
X162337108Y-88268167D01*
X162342190Y-88268701D01*
X162673080Y-88321108D01*
X162678092Y-88322174D01*
X163001673Y-88408878D01*
X163006545Y-88410461D01*
X163319295Y-88530514D01*
X163323971Y-88532596D01*
X163553409Y-88649500D01*
X163622462Y-88684684D01*
X163626900Y-88687246D01*
X163907859Y-88869703D01*
X163911996Y-88872709D01*
X164092628Y-89018982D01*
X164172347Y-89083537D01*
X164176158Y-89086969D01*
X164413030Y-89323841D01*
X164416462Y-89327652D01*
X164607745Y-89563867D01*
X164627285Y-89587996D01*
X164630300Y-89592146D01*
X164812751Y-89873096D01*
X164815315Y-89877537D01*
X164967401Y-90176023D01*
X164969487Y-90180709D01*
X165089537Y-90493451D01*
X165091122Y-90498329D01*
X165177824Y-90821904D01*
X165178891Y-90826921D01*
X165231297Y-91157799D01*
X165231833Y-91162899D01*
X165249433Y-91498720D01*
X165249500Y-91501285D01*
X165249500Y-110498714D01*
X165249433Y-110501279D01*
X165231833Y-110837100D01*
X165231297Y-110842200D01*
X165178891Y-111173078D01*
X165177824Y-111178095D01*
X165091122Y-111501670D01*
X165089537Y-111506548D01*
X164969487Y-111819290D01*
X164967401Y-111823976D01*
X164815315Y-112122462D01*
X164812751Y-112126903D01*
X164630300Y-112407853D01*
X164627285Y-112412003D01*
X164416462Y-112672347D01*
X164413030Y-112676158D01*
X164176158Y-112913030D01*
X164172347Y-112916462D01*
X163912003Y-113127285D01*
X163907853Y-113130300D01*
X163626903Y-113312751D01*
X163622462Y-113315315D01*
X163323976Y-113467401D01*
X163319290Y-113469487D01*
X163006548Y-113589537D01*
X163001670Y-113591122D01*
X162678095Y-113677824D01*
X162673078Y-113678891D01*
X162342200Y-113731297D01*
X162337100Y-113731833D01*
X162022866Y-113748301D01*
X162001277Y-113749433D01*
X161998714Y-113749500D01*
X158300297Y-113749500D01*
X158265649Y-113735148D01*
X158251297Y-113700500D01*
X158265649Y-113665852D01*
X158284884Y-113653987D01*
X158344122Y-113634357D01*
X158493343Y-113542317D01*
X158617317Y-113418343D01*
X158709357Y-113269122D01*
X158764506Y-113102693D01*
X158775000Y-112999981D01*
X158775000Y-112550000D01*
X156575001Y-112550000D01*
X156575001Y-112999980D01*
X156585493Y-113102693D01*
X156640642Y-113269122D01*
X156732682Y-113418343D01*
X156856656Y-113542317D01*
X157005877Y-113634357D01*
X157065116Y-113653987D01*
X157093491Y-113678509D01*
X157096216Y-113715913D01*
X157071694Y-113744288D01*
X157049703Y-113749500D01*
X152700297Y-113749500D01*
X152665649Y-113735148D01*
X152651297Y-113700500D01*
X152665649Y-113665852D01*
X152684884Y-113653987D01*
X152744122Y-113634357D01*
X152893343Y-113542317D01*
X153017317Y-113418343D01*
X153109357Y-113269122D01*
X153164506Y-113102693D01*
X153175000Y-112999981D01*
X153175000Y-112550000D01*
X150975001Y-112550000D01*
X150975001Y-112999980D01*
X150985493Y-113102693D01*
X151040642Y-113269122D01*
X151132682Y-113418343D01*
X151256656Y-113542317D01*
X151405877Y-113634357D01*
X151465116Y-113653987D01*
X151493491Y-113678509D01*
X151496216Y-113715913D01*
X151471694Y-113744288D01*
X151449703Y-113749500D01*
X122768265Y-113749500D01*
X122752157Y-113742827D01*
X122735679Y-113737095D01*
X122735017Y-113735728D01*
X122733617Y-113735148D01*
X122726945Y-113719041D01*
X122719347Y-113703335D01*
X122719870Y-113701960D01*
X122719265Y-113700500D01*
X122731670Y-113667914D01*
X122732604Y-113666864D01*
X122764065Y-113635404D01*
X122767854Y-113627278D01*
X122772631Y-113621914D01*
X122783537Y-113616637D01*
X122792469Y-113608454D01*
X122805032Y-113606239D01*
X122806391Y-113605582D01*
X122807187Y-113605859D01*
X122809226Y-113605500D01*
X123309564Y-113605500D01*
X123336230Y-113598354D01*
X123385989Y-113585021D01*
X123454511Y-113545460D01*
X123510119Y-113489852D01*
X123544767Y-113475500D01*
X124169745Y-113475500D01*
X124169748Y-113475500D01*
X124228231Y-113463867D01*
X124294552Y-113419552D01*
X124338867Y-113353231D01*
X124350500Y-113294748D01*
X124350500Y-113294744D01*
X124350505Y-113294695D01*
X124350512Y-113294680D01*
X124350969Y-113292387D01*
X124351664Y-113292525D01*
X124368185Y-113261621D01*
X124399269Y-113250500D01*
X127000731Y-113250500D01*
X127035379Y-113264852D01*
X127048457Y-113292501D01*
X127049031Y-113292387D01*
X127049486Y-113294677D01*
X127049495Y-113294695D01*
X127049499Y-113294744D01*
X127049500Y-113294748D01*
X127061133Y-113353231D01*
X127069927Y-113366392D01*
X127105447Y-113419552D01*
X127132012Y-113437301D01*
X127171769Y-113463867D01*
X127230252Y-113475500D01*
X127230255Y-113475500D01*
X128319745Y-113475500D01*
X128319748Y-113475500D01*
X128378231Y-113463867D01*
X128444552Y-113419552D01*
X128488867Y-113353231D01*
X128500500Y-113294748D01*
X128500500Y-113294744D01*
X128500505Y-113294695D01*
X128500512Y-113294680D01*
X128500969Y-113292387D01*
X128501664Y-113292525D01*
X128518185Y-113261621D01*
X128549269Y-113250500D01*
X144772390Y-113250500D01*
X144807038Y-113264852D01*
X144842686Y-113300500D01*
X144884457Y-113324617D01*
X144956811Y-113366391D01*
X144956813Y-113366391D01*
X144956814Y-113366392D01*
X145057207Y-113393292D01*
X145084104Y-113400499D01*
X145084105Y-113400500D01*
X145084108Y-113400500D01*
X145215895Y-113400500D01*
X145215895Y-113400499D01*
X145343186Y-113366392D01*
X145457314Y-113300500D01*
X145550500Y-113207314D01*
X145616392Y-113093186D01*
X145650499Y-112965895D01*
X145650500Y-112965895D01*
X145650500Y-112834105D01*
X145650499Y-112834104D01*
X145616392Y-112706815D01*
X145616391Y-112706811D01*
X145574617Y-112634457D01*
X145550500Y-112592686D01*
X145457314Y-112499500D01*
X145343188Y-112433608D01*
X145343184Y-112433607D01*
X145215895Y-112399500D01*
X145215892Y-112399500D01*
X145084108Y-112399500D01*
X145084105Y-112399500D01*
X144956815Y-112433607D01*
X144956811Y-112433608D01*
X144842685Y-112499500D01*
X144842685Y-112499501D01*
X144749503Y-112592682D01*
X144749496Y-112592691D01*
X144730843Y-112625000D01*
X144701090Y-112647830D01*
X144688408Y-112649500D01*
X128549269Y-112649500D01*
X128514621Y-112635148D01*
X128501542Y-112607498D01*
X128500969Y-112607613D01*
X128500513Y-112605322D01*
X128500505Y-112605305D01*
X128500500Y-112605255D01*
X128500500Y-112605252D01*
X128488867Y-112546769D01*
X128457283Y-112499501D01*
X128444552Y-112480447D01*
X128394132Y-112446758D01*
X128378231Y-112436133D01*
X128319748Y-112424500D01*
X127230252Y-112424500D01*
X127171769Y-112436133D01*
X127105447Y-112480447D01*
X127061133Y-112546769D01*
X127049499Y-112605255D01*
X127049495Y-112605305D01*
X127049487Y-112605319D01*
X127049031Y-112607613D01*
X127048335Y-112607474D01*
X127031815Y-112638379D01*
X127000731Y-112649500D01*
X124399269Y-112649500D01*
X124364621Y-112635148D01*
X124351542Y-112607498D01*
X124350969Y-112607613D01*
X124350513Y-112605322D01*
X124350505Y-112605305D01*
X124350500Y-112605255D01*
X124350500Y-112605252D01*
X124338867Y-112546769D01*
X124307283Y-112499501D01*
X124294552Y-112480447D01*
X124244132Y-112446758D01*
X124228231Y-112436133D01*
X124169748Y-112424500D01*
X123080252Y-112424500D01*
X123021769Y-112436133D01*
X122955447Y-112480447D01*
X122933548Y-112513223D01*
X122902365Y-112534058D01*
X122892806Y-112535000D01*
X122165000Y-112535000D01*
X122165000Y-112536000D01*
X122150648Y-112570648D01*
X122116000Y-112585000D01*
X120495495Y-112585000D01*
X120537968Y-112731197D01*
X120620277Y-112870373D01*
X120620281Y-112870378D01*
X120734621Y-112984718D01*
X120734626Y-112984722D01*
X120774340Y-113008209D01*
X120796858Y-113038199D01*
X120796478Y-113061790D01*
X120796517Y-113061796D01*
X120796473Y-113062126D01*
X120796442Y-113064088D01*
X120796028Y-113065508D01*
X120789500Y-113115100D01*
X120789500Y-113474896D01*
X120789501Y-113474901D01*
X120796027Y-113524487D01*
X120846776Y-113633316D01*
X120846777Y-113633318D01*
X120879311Y-113665852D01*
X120893663Y-113700500D01*
X120879311Y-113735148D01*
X120844663Y-113749500D01*
X118001286Y-113749500D01*
X117998722Y-113749433D01*
X117974319Y-113748154D01*
X117662899Y-113731833D01*
X117657799Y-113731297D01*
X117326921Y-113678891D01*
X117321904Y-113677824D01*
X116998329Y-113591122D01*
X116993451Y-113589537D01*
X116680709Y-113469487D01*
X116676023Y-113467401D01*
X116377537Y-113315315D01*
X116373096Y-113312751D01*
X116092146Y-113130300D01*
X116087996Y-113127285D01*
X116057627Y-113102693D01*
X115827652Y-112916462D01*
X115823841Y-112913030D01*
X115586969Y-112676158D01*
X115583537Y-112672347D01*
X115565036Y-112649500D01*
X115372709Y-112411996D01*
X115369703Y-112407859D01*
X115187246Y-112126900D01*
X115184685Y-112122463D01*
X115181946Y-112117088D01*
X115165596Y-112084999D01*
X120495494Y-112084999D01*
X120495495Y-112085000D01*
X121050000Y-112085000D01*
X121050000Y-111556209D01*
X121049999Y-111556208D01*
X121550000Y-111556208D01*
X121550000Y-112035000D01*
X122050000Y-112035000D01*
X122550000Y-112035000D01*
X123112845Y-112035000D01*
X123112845Y-112034999D01*
X123072404Y-111895803D01*
X122990739Y-111757715D01*
X122990735Y-111757710D01*
X122877289Y-111644264D01*
X122877284Y-111644260D01*
X122739196Y-111562595D01*
X122585132Y-111517834D01*
X122585128Y-111517833D01*
X122550000Y-111515068D01*
X122550000Y-112035000D01*
X122050000Y-112035000D01*
X122050000Y-111515068D01*
X122014871Y-111517833D01*
X122014867Y-111517834D01*
X121860806Y-111562594D01*
X121784307Y-111607834D01*
X121747178Y-111613117D01*
X121734422Y-111607833D01*
X121726195Y-111602968D01*
X121726197Y-111602968D01*
X121570913Y-111557854D01*
X121550000Y-111556208D01*
X121049999Y-111556208D01*
X121029086Y-111557854D01*
X121029085Y-111557854D01*
X120873801Y-111602969D01*
X120734626Y-111685277D01*
X120734621Y-111685281D01*
X120620281Y-111799621D01*
X120620277Y-111799626D01*
X120537968Y-111938802D01*
X120495494Y-112084999D01*
X115165596Y-112084999D01*
X115140120Y-112034999D01*
X115032598Y-111823975D01*
X115030512Y-111819290D01*
X115022974Y-111799654D01*
X114910461Y-111506545D01*
X114908877Y-111501670D01*
X114891392Y-111436417D01*
X114822174Y-111178092D01*
X114821108Y-111173078D01*
X114768701Y-110842190D01*
X114768167Y-110837108D01*
X114750567Y-110501278D01*
X114750500Y-110498714D01*
X114750500Y-110455252D01*
X122899500Y-110455252D01*
X122899500Y-111144748D01*
X122911133Y-111203231D01*
X122918661Y-111214497D01*
X122955447Y-111269552D01*
X122982012Y-111287301D01*
X123021769Y-111313867D01*
X123080252Y-111325500D01*
X123080255Y-111325500D01*
X124169745Y-111325500D01*
X124169748Y-111325500D01*
X124228231Y-111313867D01*
X124294552Y-111269552D01*
X124338867Y-111203231D01*
X124350500Y-111144748D01*
X124350500Y-110455252D01*
X127049500Y-110455252D01*
X127049500Y-111144748D01*
X127061133Y-111203231D01*
X127068661Y-111214497D01*
X127105447Y-111269552D01*
X127132012Y-111287301D01*
X127171769Y-111313867D01*
X127230252Y-111325500D01*
X127230255Y-111325500D01*
X128319745Y-111325500D01*
X128319748Y-111325500D01*
X128378231Y-111313867D01*
X128444552Y-111269552D01*
X128488867Y-111203231D01*
X128500500Y-111144748D01*
X128500500Y-110455252D01*
X128488867Y-110396769D01*
X128462301Y-110357012D01*
X128444552Y-110330447D01*
X128404795Y-110303882D01*
X128378231Y-110286133D01*
X128319748Y-110274500D01*
X127230252Y-110274500D01*
X127171769Y-110286133D01*
X127105447Y-110330447D01*
X127061133Y-110396769D01*
X127049500Y-110455252D01*
X124350500Y-110455252D01*
X124338867Y-110396769D01*
X124312301Y-110357012D01*
X124294552Y-110330447D01*
X124254795Y-110303882D01*
X124228231Y-110286133D01*
X124169748Y-110274500D01*
X123080252Y-110274500D01*
X123021769Y-110286133D01*
X122955447Y-110330447D01*
X122911133Y-110396769D01*
X122899500Y-110455252D01*
X114750500Y-110455252D01*
X114750500Y-104750000D01*
X116121215Y-104750000D01*
X116126316Y-104775646D01*
X116126316Y-104775647D01*
X116197550Y-104947621D01*
X116300968Y-105102399D01*
X116432600Y-105234031D01*
X116587378Y-105337449D01*
X116759346Y-105408681D01*
X116759365Y-105408686D01*
X116941920Y-105444999D01*
X116941927Y-105445000D01*
X117115000Y-105445000D01*
X117115000Y-104750000D01*
X117615000Y-104750000D01*
X117615000Y-105445000D01*
X117788073Y-105445000D01*
X117788079Y-105444999D01*
X117970634Y-105408686D01*
X117970653Y-105408681D01*
X118142621Y-105337449D01*
X118297399Y-105234031D01*
X118429031Y-105102399D01*
X118532449Y-104947621D01*
X118603683Y-104775647D01*
X118603683Y-104775646D01*
X118608785Y-104750000D01*
X117739728Y-104750000D01*
X117831614Y-104711940D01*
X117901940Y-104641614D01*
X117940000Y-104549728D01*
X117940000Y-104450272D01*
X117901940Y-104358386D01*
X117831614Y-104288060D01*
X117739728Y-104250000D01*
X116990272Y-104250000D01*
X116898386Y-104288060D01*
X116828060Y-104358386D01*
X116790000Y-104450272D01*
X116790000Y-104549728D01*
X116828060Y-104641614D01*
X116898386Y-104711940D01*
X116990272Y-104750000D01*
X116121215Y-104750000D01*
X114750500Y-104750000D01*
X114750500Y-103500018D01*
X116090000Y-103500018D01*
X116090000Y-103775000D01*
X117115000Y-103775000D01*
X117615000Y-103775000D01*
X118639999Y-103775000D01*
X118639999Y-103500019D01*
X118629506Y-103397306D01*
X118574357Y-103230877D01*
X118482317Y-103081656D01*
X118460309Y-103059648D01*
X118445957Y-103025000D01*
X118460309Y-102990352D01*
X118482317Y-102968343D01*
X118574357Y-102819122D01*
X118629506Y-102652693D01*
X118640000Y-102549981D01*
X118640000Y-102500001D01*
X118897988Y-102500001D01*
X118905443Y-102556626D01*
X118905445Y-102556634D01*
X118965898Y-102702584D01*
X118965901Y-102702589D01*
X119062074Y-102827924D01*
X119062075Y-102827925D01*
X119156571Y-102900435D01*
X119175323Y-102932913D01*
X119172012Y-102958060D01*
X119127468Y-103065601D01*
X119127468Y-103065602D01*
X119090790Y-103250000D01*
X119808763Y-103250000D01*
X119790000Y-103295299D01*
X119790000Y-103704701D01*
X119808763Y-103750000D01*
X119090790Y-103750000D01*
X119127467Y-103934394D01*
X119127470Y-103934404D01*
X119200963Y-104111830D01*
X119307667Y-104271526D01*
X119443473Y-104407332D01*
X119603169Y-104514036D01*
X119780596Y-104587529D01*
X119780607Y-104587532D01*
X119815000Y-104594372D01*
X119815000Y-103765056D01*
X119831866Y-103805775D01*
X119909225Y-103883134D01*
X120010299Y-103925000D01*
X120119701Y-103925000D01*
X120220775Y-103883134D01*
X120298134Y-103805775D01*
X120315000Y-103765056D01*
X120315000Y-104594372D01*
X120349392Y-104587532D01*
X120349403Y-104587529D01*
X120526830Y-104514036D01*
X120686526Y-104407332D01*
X120822332Y-104271526D01*
X120929036Y-104111830D01*
X121002529Y-103934404D01*
X121002532Y-103934394D01*
X121039210Y-103750000D01*
X120321237Y-103750000D01*
X120340000Y-103704701D01*
X120340000Y-103295299D01*
X120321237Y-103250000D01*
X121039209Y-103250000D01*
X121002531Y-103065602D01*
X121002531Y-103065601D01*
X120957986Y-102958060D01*
X120957986Y-102920558D01*
X120973427Y-102900434D01*
X121067927Y-102827922D01*
X121164098Y-102702589D01*
X121164101Y-102702584D01*
X121224556Y-102556630D01*
X121232012Y-102500000D01*
X120315000Y-102500000D01*
X120315000Y-103234943D01*
X120298134Y-103194225D01*
X120220775Y-103116866D01*
X120119701Y-103075000D01*
X120010299Y-103075000D01*
X119909225Y-103116866D01*
X119831866Y-103194225D01*
X119815000Y-103234943D01*
X119815000Y-102500000D01*
X118897990Y-102500000D01*
X118897988Y-102500001D01*
X118640000Y-102500001D01*
X118640000Y-102250000D01*
X117615000Y-102250000D01*
X117615000Y-103775000D01*
X117115000Y-103775000D01*
X117115000Y-102250000D01*
X116090001Y-102250000D01*
X116090001Y-102549980D01*
X116100493Y-102652693D01*
X116155642Y-102819122D01*
X116247682Y-102968343D01*
X116269691Y-102990352D01*
X116284043Y-103025000D01*
X116269691Y-103059648D01*
X116247682Y-103081656D01*
X116155642Y-103230877D01*
X116100493Y-103397306D01*
X116090000Y-103500018D01*
X114750500Y-103500018D01*
X114750500Y-102100000D01*
X118897987Y-102100000D01*
X121232010Y-102100000D01*
X121232011Y-102099998D01*
X121224556Y-102043373D01*
X121224554Y-102043365D01*
X121164101Y-101897415D01*
X121164098Y-101897410D01*
X121067926Y-101772076D01*
X120959669Y-101689006D01*
X120940918Y-101656527D01*
X120940499Y-101650139D01*
X120940499Y-101505136D01*
X120937585Y-101480009D01*
X120892206Y-101377235D01*
X120892205Y-101377234D01*
X120892205Y-101377233D01*
X120874620Y-101359649D01*
X120860267Y-101325001D01*
X120874618Y-101290353D01*
X120892205Y-101272766D01*
X120892206Y-101272765D01*
X120937585Y-101169991D01*
X120940500Y-101144865D01*
X120940499Y-100855136D01*
X120937585Y-100830009D01*
X120892206Y-100727235D01*
X120892205Y-100727234D01*
X120892205Y-100727233D01*
X120874620Y-100709649D01*
X120860267Y-100675001D01*
X120874618Y-100640353D01*
X120892205Y-100622766D01*
X120892206Y-100622765D01*
X120937585Y-100519991D01*
X120940500Y-100494865D01*
X120940499Y-100205136D01*
X120937585Y-100180009D01*
X120924021Y-100149291D01*
X120923156Y-100111799D01*
X120949055Y-100084675D01*
X120968847Y-100080500D01*
X121141528Y-100080500D01*
X121176176Y-100094852D01*
X121176876Y-100095566D01*
X121726594Y-100668189D01*
X122184202Y-101144864D01*
X122230848Y-101193453D01*
X122244500Y-101227387D01*
X122244500Y-102520798D01*
X122248448Y-102560886D01*
X122252179Y-102579642D01*
X122252181Y-102579650D01*
X122263868Y-102618180D01*
X122263873Y-102618194D01*
X122336666Y-102793932D01*
X122336666Y-102831435D01*
X122329550Y-102843428D01*
X122310637Y-102866897D01*
X122310632Y-102866905D01*
X122250907Y-102997684D01*
X122250907Y-102997686D01*
X122230447Y-103139998D01*
X122230447Y-103140001D01*
X122250907Y-103282313D01*
X122250907Y-103282315D01*
X122310632Y-103413094D01*
X122310634Y-103413097D01*
X122348218Y-103459736D01*
X122405148Y-103516666D01*
X122419500Y-103551314D01*
X122419500Y-103755792D01*
X122405148Y-103790440D01*
X122391762Y-103799939D01*
X122361873Y-103814333D01*
X122304851Y-103885835D01*
X122304849Y-103885839D01*
X122284500Y-103974997D01*
X122284500Y-104315036D01*
X122279910Y-104335741D01*
X122267653Y-104362030D01*
X122266027Y-104365516D01*
X122259500Y-104415100D01*
X122259500Y-104834896D01*
X122259501Y-104834901D01*
X122266027Y-104884484D01*
X122266027Y-104884485D01*
X122266028Y-104884487D01*
X122279909Y-104914256D01*
X122284500Y-104934962D01*
X122284500Y-105039982D01*
X122270148Y-105074630D01*
X122235500Y-105088982D01*
X122218533Y-105085951D01*
X122203550Y-105080420D01*
X122131616Y-105074538D01*
X122112400Y-105072967D01*
X122112398Y-105072967D01*
X122112397Y-105072967D01*
X122043267Y-105082906D01*
X122043239Y-105082911D01*
X122018623Y-105088003D01*
X121937913Y-105131014D01*
X121885115Y-105176764D01*
X121867158Y-105194356D01*
X121867156Y-105194360D01*
X121822511Y-105274172D01*
X121822508Y-105274180D01*
X121802824Y-105341215D01*
X121794500Y-105399110D01*
X121794500Y-105399113D01*
X121794500Y-107601000D01*
X121795416Y-107609515D01*
X121799195Y-107644671D01*
X121799198Y-107644693D01*
X121810404Y-107696201D01*
X121812888Y-107706368D01*
X121812890Y-107706373D01*
X121855901Y-107787087D01*
X121887320Y-107823345D01*
X121901655Y-107839889D01*
X121909805Y-107848207D01*
X121919243Y-107857841D01*
X121919245Y-107857842D01*
X121919246Y-107857843D01*
X121939371Y-107869100D01*
X121993717Y-107899500D01*
X121999063Y-107902490D01*
X122066102Y-107922175D01*
X122124000Y-107930500D01*
X122124003Y-107930500D01*
X123375997Y-107930500D01*
X123376000Y-107930500D01*
X123419684Y-107925803D01*
X123471195Y-107914597D01*
X123481373Y-107912110D01*
X123562085Y-107869100D01*
X123614889Y-107823345D01*
X123632843Y-107805754D01*
X123677490Y-107725937D01*
X123697175Y-107658898D01*
X123705500Y-107601000D01*
X123705500Y-106650000D01*
X125012501Y-106650000D01*
X125012501Y-106704144D01*
X125022556Y-106802580D01*
X125075407Y-106962075D01*
X125163614Y-107105080D01*
X125282419Y-107223885D01*
X125425424Y-107312092D01*
X125584919Y-107364943D01*
X125683354Y-107374999D01*
X125849840Y-107374999D01*
X125884488Y-107389351D01*
X125898840Y-107423999D01*
X125892275Y-107448499D01*
X125858608Y-107506811D01*
X125858607Y-107506815D01*
X125824500Y-107634104D01*
X125824500Y-107765895D01*
X125858607Y-107893184D01*
X125858608Y-107893188D01*
X125923752Y-108006018D01*
X125924500Y-108007314D01*
X126017686Y-108100500D01*
X126041476Y-108114235D01*
X126131811Y-108166391D01*
X126131813Y-108166391D01*
X126131814Y-108166392D01*
X126232207Y-108193292D01*
X126259104Y-108200499D01*
X126259105Y-108200500D01*
X126259108Y-108200500D01*
X126390894Y-108200500D01*
X126448078Y-108185177D01*
X126458979Y-108182256D01*
X126492370Y-108185177D01*
X126554327Y-108214068D01*
X126603184Y-108220500D01*
X126603188Y-108220500D01*
X126951812Y-108220500D01*
X126951816Y-108220500D01*
X127000673Y-108214068D01*
X127107904Y-108164065D01*
X127191565Y-108080404D01*
X127241568Y-107973173D01*
X127241568Y-107973171D01*
X127243091Y-107969906D01*
X127270741Y-107944569D01*
X127308208Y-107946205D01*
X127331909Y-107969906D01*
X127333431Y-107973171D01*
X127333432Y-107973173D01*
X127357380Y-108024529D01*
X127383435Y-108080404D01*
X127383436Y-108080406D01*
X127467093Y-108164063D01*
X127467095Y-108164064D01*
X127467096Y-108164065D01*
X127574327Y-108214068D01*
X127623184Y-108220500D01*
X127623187Y-108220500D01*
X127971812Y-108220500D01*
X127971816Y-108220500D01*
X128020673Y-108214068D01*
X128127904Y-108164065D01*
X128211565Y-108080404D01*
X128261568Y-107973173D01*
X128268000Y-107924316D01*
X128268000Y-107475684D01*
X128261568Y-107426827D01*
X128211565Y-107319596D01*
X128211564Y-107319595D01*
X128211563Y-107319593D01*
X128127904Y-107235935D01*
X128127902Y-107235933D01*
X128126290Y-107235182D01*
X128125325Y-107234129D01*
X128124391Y-107233475D01*
X128124536Y-107233267D01*
X128100954Y-107207531D01*
X128098000Y-107190774D01*
X128098000Y-106896235D01*
X128103341Y-106873989D01*
X128147451Y-106787420D01*
X128163000Y-106689246D01*
X128163000Y-106599980D01*
X129950000Y-106599980D01*
X129960493Y-106702692D01*
X130015642Y-106869121D01*
X130107682Y-107018342D01*
X130231657Y-107142317D01*
X130380878Y-107234357D01*
X130547307Y-107289506D01*
X130650020Y-107300000D01*
X131350000Y-107300000D01*
X131850000Y-107300000D01*
X132549980Y-107300000D01*
X132652692Y-107289506D01*
X132819121Y-107234357D01*
X132968342Y-107142317D01*
X133092317Y-107018342D01*
X133184357Y-106869121D01*
X133239506Y-106702692D01*
X133250000Y-106599980D01*
X133250000Y-106300000D01*
X131850000Y-106300000D01*
X131850000Y-107300000D01*
X131350000Y-107300000D01*
X131350000Y-106300000D01*
X129950000Y-106300000D01*
X129950000Y-106599980D01*
X128163000Y-106599980D01*
X128163000Y-106110754D01*
X128147451Y-106012580D01*
X128117263Y-105953333D01*
X128087161Y-105894253D01*
X128087157Y-105894248D01*
X127993251Y-105800342D01*
X127993246Y-105800338D01*
X127874922Y-105740050D01*
X127874921Y-105740049D01*
X127874920Y-105740049D01*
X127776746Y-105724500D01*
X127273254Y-105724500D01*
X127175080Y-105740049D01*
X127175078Y-105740049D01*
X127175077Y-105740050D01*
X127056753Y-105800338D01*
X127056748Y-105800342D01*
X126962842Y-105894248D01*
X126962838Y-105894253D01*
X126943646Y-105931920D01*
X126915128Y-105956276D01*
X126877741Y-105953333D01*
X126853474Y-105925086D01*
X126824593Y-105837926D01*
X126824592Y-105837924D01*
X126736385Y-105694919D01*
X126617581Y-105576115D01*
X126559808Y-105540480D01*
X126494211Y-105500019D01*
X129950000Y-105500019D01*
X129950000Y-105800000D01*
X131350000Y-105800000D01*
X131850000Y-105800000D01*
X133250000Y-105800000D01*
X133250000Y-105500019D01*
X133239506Y-105397307D01*
X133184357Y-105230878D01*
X133092317Y-105081657D01*
X132968342Y-104957682D01*
X132819121Y-104865642D01*
X132652692Y-104810493D01*
X132549980Y-104800000D01*
X131850000Y-104800000D01*
X131850000Y-105800000D01*
X131350000Y-105800000D01*
X131350000Y-104800000D01*
X130650020Y-104800000D01*
X130547307Y-104810493D01*
X130380878Y-104865642D01*
X130231657Y-104957682D01*
X130107682Y-105081657D01*
X130015642Y-105230878D01*
X129960493Y-105397307D01*
X129950000Y-105500019D01*
X126494211Y-105500019D01*
X126474575Y-105487907D01*
X126315080Y-105435056D01*
X126216645Y-105425000D01*
X126200000Y-105425000D01*
X126200000Y-106351000D01*
X126185648Y-106385648D01*
X126151000Y-106400000D01*
X125950000Y-106400000D01*
X125950000Y-106601000D01*
X125935648Y-106635648D01*
X125901000Y-106650000D01*
X125012501Y-106650000D01*
X123705500Y-106650000D01*
X123705500Y-106095854D01*
X125012500Y-106095854D01*
X125012500Y-106150000D01*
X125700000Y-106150000D01*
X125700000Y-105425000D01*
X125683356Y-105425000D01*
X125584919Y-105435056D01*
X125425424Y-105487907D01*
X125282419Y-105576114D01*
X125163614Y-105694919D01*
X125075407Y-105837924D01*
X125022556Y-105997419D01*
X125012500Y-106095854D01*
X123705500Y-106095854D01*
X123705500Y-105483999D01*
X123719852Y-105449351D01*
X123754500Y-105434999D01*
X123904635Y-105434999D01*
X123904650Y-105434998D01*
X123940913Y-105432145D01*
X124096198Y-105387030D01*
X124235373Y-105304722D01*
X124235378Y-105304718D01*
X124349718Y-105190378D01*
X124349722Y-105190373D01*
X124432030Y-105051198D01*
X124477145Y-104895914D01*
X124477145Y-104895913D01*
X124478791Y-104875000D01*
X123749000Y-104875000D01*
X123714352Y-104860648D01*
X123700000Y-104826000D01*
X123700000Y-104424000D01*
X123714352Y-104389352D01*
X123749000Y-104375000D01*
X124486000Y-104375000D01*
X124520648Y-104389352D01*
X124525099Y-104400098D01*
X124535000Y-104409999D01*
X124634635Y-104409999D01*
X124634650Y-104409998D01*
X124670913Y-104407145D01*
X124826198Y-104362030D01*
X124965373Y-104279722D01*
X124965378Y-104279718D01*
X125079718Y-104165378D01*
X125079722Y-104165373D01*
X125162031Y-104026197D01*
X125204505Y-103880000D01*
X123584000Y-103880000D01*
X123549352Y-103865648D01*
X123535000Y-103831000D01*
X123535000Y-103815000D01*
X123524297Y-103815000D01*
X123502091Y-103837207D01*
X123467443Y-103851559D01*
X123432795Y-103837207D01*
X123147931Y-103552343D01*
X123146241Y-103550567D01*
X123144609Y-103548763D01*
X123144460Y-103548500D01*
X123108633Y-103502257D01*
X123100601Y-103494487D01*
X123082708Y-103480049D01*
X123052159Y-103449500D01*
X123001210Y-103398550D01*
X123000699Y-103397390D01*
X122981493Y-103379851D01*
X122974457Y-103373713D01*
X122959953Y-103361626D01*
X122959946Y-103361621D01*
X122959941Y-103361617D01*
X122957545Y-103360125D01*
X122948799Y-103353179D01*
X122939957Y-103344337D01*
X122925605Y-103309689D01*
X122939957Y-103275041D01*
X123206522Y-103008477D01*
X123241170Y-102994125D01*
X123275818Y-103008477D01*
X123398299Y-103130958D01*
X123404513Y-103135110D01*
X123415602Y-103142520D01*
X123423025Y-103148613D01*
X123654411Y-103379999D01*
X123654413Y-103380000D01*
X125204505Y-103380000D01*
X125204505Y-103379999D01*
X125162031Y-103233802D01*
X125079722Y-103094626D01*
X125079718Y-103094621D01*
X124965378Y-102980281D01*
X124965373Y-102980277D01*
X124925658Y-102956790D01*
X124903140Y-102926800D01*
X124903522Y-102903209D01*
X124903482Y-102903204D01*
X124903528Y-102902852D01*
X124903560Y-102900898D01*
X124903969Y-102899492D01*
X124903972Y-102899487D01*
X124910500Y-102849901D01*
X124910499Y-102490100D01*
X124903972Y-102440513D01*
X124853224Y-102331684D01*
X124853223Y-102331683D01*
X124853222Y-102331681D01*
X124768318Y-102246777D01*
X124768316Y-102246776D01*
X124703117Y-102216373D01*
X124659488Y-102196028D01*
X124649569Y-102194722D01*
X124609901Y-102189500D01*
X124609897Y-102189500D01*
X124190103Y-102189500D01*
X124190098Y-102189501D01*
X124140512Y-102196027D01*
X124031683Y-102246776D01*
X124031681Y-102246777D01*
X124023311Y-102255148D01*
X123988663Y-102269500D01*
X123807031Y-102269500D01*
X123772383Y-102255148D01*
X123761761Y-102239252D01*
X123732971Y-102169747D01*
X123723814Y-102152617D01*
X123713977Y-102134213D01*
X123703355Y-102118317D01*
X123677801Y-102087181D01*
X123677800Y-102087180D01*
X123677794Y-102087173D01*
X123544852Y-101954231D01*
X123530500Y-101919583D01*
X123530500Y-101250000D01*
X131351858Y-101250000D01*
X131356180Y-101297566D01*
X131356181Y-101297572D01*
X131404945Y-101454062D01*
X131489747Y-101594342D01*
X131605657Y-101710252D01*
X131745938Y-101795054D01*
X131745937Y-101795054D01*
X131902430Y-101843819D01*
X131970445Y-101849999D01*
X133450000Y-101849999D01*
X133450000Y-101250000D01*
X131351858Y-101250000D01*
X123530500Y-101250000D01*
X123530500Y-100528010D01*
X123530278Y-100526324D01*
X123523496Y-100474814D01*
X123516931Y-100450316D01*
X123516930Y-100450312D01*
X123503730Y-100418444D01*
X123500000Y-100399693D01*
X123500000Y-99659000D01*
X123514352Y-99624352D01*
X123549000Y-99610000D01*
X123951000Y-99610000D01*
X123985648Y-99624352D01*
X124000000Y-99659000D01*
X124000000Y-100559999D01*
X124048316Y-100559999D01*
X124147603Y-100549856D01*
X124308484Y-100496546D01*
X124308486Y-100496545D01*
X124336099Y-100479513D01*
X124373123Y-100473538D01*
X124396472Y-100486569D01*
X124444621Y-100534718D01*
X124444626Y-100534722D01*
X124583801Y-100617030D01*
X124739088Y-100662145D01*
X124739084Y-100662145D01*
X124759999Y-100663790D01*
X124760000Y-100663790D01*
X124760000Y-99934000D01*
X124774352Y-99899352D01*
X124809000Y-99885000D01*
X125211000Y-99885000D01*
X125245648Y-99899352D01*
X125260000Y-99934000D01*
X125260000Y-100663790D01*
X125280913Y-100662145D01*
X125436198Y-100617030D01*
X125575373Y-100534722D01*
X125575378Y-100534718D01*
X125689718Y-100420378D01*
X125689722Y-100420373D01*
X125772030Y-100281198D01*
X125817145Y-100125914D01*
X125817145Y-100125912D01*
X125819177Y-100100092D01*
X125836202Y-100066676D01*
X125871869Y-100055086D01*
X125872801Y-100055168D01*
X125876168Y-100055500D01*
X125876170Y-100055500D01*
X131929714Y-100055500D01*
X131964362Y-100069852D01*
X131978714Y-100104500D01*
X131964362Y-100139148D01*
X131934148Y-100153299D01*
X131902433Y-100156180D01*
X131902427Y-100156181D01*
X131745937Y-100204945D01*
X131605657Y-100289747D01*
X131489747Y-100405657D01*
X131404945Y-100545937D01*
X131356181Y-100702427D01*
X131356180Y-100702433D01*
X131351858Y-100749999D01*
X131351859Y-100750000D01*
X136048141Y-100750000D01*
X136048141Y-100749999D01*
X136043819Y-100702433D01*
X136043818Y-100702427D01*
X135995054Y-100545937D01*
X135910252Y-100405657D01*
X135794342Y-100289747D01*
X135654061Y-100204945D01*
X135654062Y-100204945D01*
X135497569Y-100156180D01*
X135429554Y-100150000D01*
X135364803Y-100150000D01*
X135350027Y-100143879D01*
X135334618Y-100139599D01*
X135333066Y-100136854D01*
X135330155Y-100135648D01*
X135324035Y-100120873D01*
X135316166Y-100106950D01*
X135317009Y-100103913D01*
X135315803Y-100101000D01*
X135321923Y-100086224D01*
X135326204Y-100070815D01*
X135328926Y-100069318D01*
X135330155Y-100066352D01*
X135358853Y-100052363D01*
X135359434Y-100052291D01*
X135366956Y-100051551D01*
X135369296Y-100051085D01*
X135371115Y-100050863D01*
X135371707Y-100051027D01*
X135377065Y-100050500D01*
X135410638Y-100050500D01*
X135429201Y-100047795D01*
X135483625Y-100039866D01*
X135596211Y-99984826D01*
X135684826Y-99896211D01*
X135739866Y-99783625D01*
X135750500Y-99710636D01*
X135750500Y-99677064D01*
X135751378Y-99668147D01*
X135751374Y-99668147D01*
X135751388Y-99668047D01*
X135751443Y-99667497D01*
X135751551Y-99666955D01*
X135755500Y-99626864D01*
X135755500Y-99373135D01*
X135751551Y-99333044D01*
X135751440Y-99332485D01*
X135751384Y-99331920D01*
X135751375Y-99331857D01*
X135751378Y-99331856D01*
X135750500Y-99322934D01*
X135750500Y-99289362D01*
X135745515Y-99255148D01*
X135739866Y-99216375D01*
X135684826Y-99103789D01*
X135596211Y-99015174D01*
X135596210Y-99015173D01*
X135596208Y-99015172D01*
X135483628Y-98960135D01*
X135483626Y-98960134D01*
X135410638Y-98949500D01*
X135410636Y-98949500D01*
X135377065Y-98949500D01*
X135368143Y-98948621D01*
X135368143Y-98948625D01*
X135368071Y-98948614D01*
X135367509Y-98948559D01*
X135366957Y-98948449D01*
X135326865Y-98944500D01*
X128417636Y-98944500D01*
X128412631Y-98944828D01*
X128390831Y-98946256D01*
X128390814Y-98946258D01*
X128378112Y-98947930D01*
X128351766Y-98953171D01*
X128351762Y-98953172D01*
X128295196Y-98968330D01*
X128282514Y-98970000D01*
X128237482Y-98970000D01*
X128224800Y-98968330D01*
X128213027Y-98965175D01*
X128168240Y-98953174D01*
X128168226Y-98953171D01*
X128141887Y-98947930D01*
X128129185Y-98946258D01*
X128129168Y-98946256D01*
X128107563Y-98944840D01*
X128102364Y-98944500D01*
X127627636Y-98944500D01*
X127622631Y-98944828D01*
X127600831Y-98946256D01*
X127600814Y-98946258D01*
X127588112Y-98947930D01*
X127561766Y-98953171D01*
X127561762Y-98953172D01*
X127505196Y-98968330D01*
X127492514Y-98970000D01*
X127447482Y-98970000D01*
X127434800Y-98968330D01*
X127423027Y-98965175D01*
X127378240Y-98953174D01*
X127378226Y-98953171D01*
X127351887Y-98947930D01*
X127339185Y-98946258D01*
X127339168Y-98946256D01*
X127317563Y-98944840D01*
X127312364Y-98944500D01*
X127312359Y-98944500D01*
X127125000Y-98944500D01*
X127125000Y-98825000D01*
X126859999Y-98559999D01*
X139445494Y-98559999D01*
X139445495Y-98560000D01*
X140000000Y-98560000D01*
X140000000Y-97640000D01*
X139445495Y-97640000D01*
X139487968Y-97786197D01*
X139570277Y-97925373D01*
X139570281Y-97925378D01*
X139684621Y-98039718D01*
X139684626Y-98039722D01*
X139715235Y-98057824D01*
X139737753Y-98087814D01*
X139732468Y-98124943D01*
X139715235Y-98142176D01*
X139684626Y-98160277D01*
X139684621Y-98160281D01*
X139570281Y-98274621D01*
X139570277Y-98274626D01*
X139487968Y-98413802D01*
X139445494Y-98559999D01*
X126859999Y-98559999D01*
X126633903Y-98333903D01*
X126661514Y-98357048D01*
X126661522Y-98357054D01*
X126689858Y-98376851D01*
X126689867Y-98376857D01*
X126721098Y-98394824D01*
X127006591Y-98527236D01*
X127048785Y-98541486D01*
X127090439Y-98550675D01*
X127134701Y-98555499D01*
X127134703Y-98555500D01*
X127134709Y-98555500D01*
X127305789Y-98555500D01*
X127332578Y-98553744D01*
X127332588Y-98553742D01*
X127332603Y-98553742D01*
X127358224Y-98550369D01*
X127372341Y-98547561D01*
X127384573Y-98545128D01*
X127384576Y-98545127D01*
X127384587Y-98545125D01*
X127434803Y-98531669D01*
X127447485Y-98530000D01*
X127492513Y-98530000D01*
X127505195Y-98531670D01*
X127525528Y-98537118D01*
X127555411Y-98545125D01*
X127581776Y-98550369D01*
X127607398Y-98553742D01*
X127607409Y-98553742D01*
X127607422Y-98553744D01*
X127634211Y-98555500D01*
X127634220Y-98555500D01*
X128095789Y-98555500D01*
X128122578Y-98553744D01*
X128122588Y-98553742D01*
X128122603Y-98553742D01*
X128148224Y-98550369D01*
X128162341Y-98547561D01*
X128174573Y-98545128D01*
X128174576Y-98545127D01*
X128174587Y-98545125D01*
X128224803Y-98531669D01*
X128237485Y-98530000D01*
X128282513Y-98530000D01*
X128295195Y-98531670D01*
X128315528Y-98537118D01*
X128345411Y-98545125D01*
X128371776Y-98550369D01*
X128397398Y-98553742D01*
X128397409Y-98553742D01*
X128397422Y-98553744D01*
X128424211Y-98555500D01*
X128424220Y-98555500D01*
X135274242Y-98555500D01*
X135314333Y-98551551D01*
X135314886Y-98551440D01*
X135315448Y-98551385D01*
X135315520Y-98551375D01*
X135315520Y-98551378D01*
X135324442Y-98550500D01*
X135410638Y-98550500D01*
X135429201Y-98547795D01*
X135483625Y-98539866D01*
X135596211Y-98484826D01*
X135684826Y-98396211D01*
X135739866Y-98283625D01*
X135750500Y-98210636D01*
X135750500Y-98124441D01*
X135751378Y-98115524D01*
X135751374Y-98115524D01*
X135751388Y-98115424D01*
X135751443Y-98114874D01*
X135751551Y-98114332D01*
X135755500Y-98074241D01*
X135755500Y-97925758D01*
X135751551Y-97885667D01*
X135751440Y-97885108D01*
X135751384Y-97884543D01*
X135751375Y-97884480D01*
X135751378Y-97884479D01*
X135750500Y-97875557D01*
X135750500Y-97789362D01*
X135743779Y-97743235D01*
X135739866Y-97716375D01*
X135702528Y-97640000D01*
X135684827Y-97603791D01*
X135684826Y-97603790D01*
X135684826Y-97603789D01*
X135596211Y-97515174D01*
X135596210Y-97515173D01*
X135596208Y-97515172D01*
X135483628Y-97460135D01*
X135483626Y-97460134D01*
X135410638Y-97449500D01*
X135410636Y-97449500D01*
X135324442Y-97449500D01*
X135315520Y-97448621D01*
X135315520Y-97448625D01*
X135315448Y-97448614D01*
X135314886Y-97448559D01*
X135314334Y-97448449D01*
X135274242Y-97444500D01*
X127140847Y-97444500D01*
X127106199Y-97430148D01*
X127091847Y-97395500D01*
X127093160Y-97384234D01*
X127093598Y-97382378D01*
X127100000Y-97322834D01*
X127100000Y-97075000D01*
X124500000Y-97075000D01*
X124500000Y-97270500D01*
X124485648Y-97305148D01*
X124451000Y-97319500D01*
X122954500Y-97319500D01*
X122919852Y-97305148D01*
X122905500Y-97270500D01*
X122905500Y-94381189D01*
X122919852Y-94346541D01*
X125693559Y-91572834D01*
X126750000Y-91572834D01*
X126756401Y-91632372D01*
X126756401Y-91632373D01*
X126806648Y-91767091D01*
X126892811Y-91882188D01*
X127007908Y-91968351D01*
X127142626Y-92018598D01*
X127202166Y-92025000D01*
X127525000Y-92025000D01*
X127525000Y-91450000D01*
X126750000Y-91450000D01*
X126750000Y-91572834D01*
X125693559Y-91572834D01*
X126376541Y-90889852D01*
X126411189Y-90875500D01*
X126701000Y-90875500D01*
X126735648Y-90889852D01*
X126750000Y-90924500D01*
X126750000Y-90950000D01*
X128800000Y-90950000D01*
X128800000Y-90924500D01*
X128814352Y-90889852D01*
X128849000Y-90875500D01*
X130025500Y-90875500D01*
X130060148Y-90889852D01*
X130074500Y-90924500D01*
X130074500Y-91675500D01*
X130060148Y-91710148D01*
X130025500Y-91724500D01*
X128829811Y-91724500D01*
X128795163Y-91710148D01*
X128780811Y-91675500D01*
X128783901Y-91658376D01*
X128793598Y-91632376D01*
X128800000Y-91572834D01*
X128800000Y-91450000D01*
X128025000Y-91450000D01*
X128025000Y-92025000D01*
X128256732Y-92025000D01*
X128291380Y-92039352D01*
X128305732Y-92074000D01*
X128291380Y-92108648D01*
X126124337Y-94275691D01*
X126089689Y-94290043D01*
X126055041Y-94275691D01*
X126042359Y-94253725D01*
X126016392Y-94156814D01*
X126016391Y-94156811D01*
X125950499Y-94042685D01*
X125857314Y-93949500D01*
X125743188Y-93883608D01*
X125743184Y-93883607D01*
X125615895Y-93849500D01*
X125615892Y-93849500D01*
X125484108Y-93849500D01*
X125484105Y-93849500D01*
X125356815Y-93883607D01*
X125356811Y-93883608D01*
X125242685Y-93949500D01*
X125242685Y-93949501D01*
X125149501Y-94042685D01*
X125149500Y-94042685D01*
X125083608Y-94156811D01*
X125083607Y-94156815D01*
X125049500Y-94284104D01*
X125049500Y-94405232D01*
X125035148Y-94439880D01*
X124865489Y-94609540D01*
X124809541Y-94665488D01*
X124809540Y-94665488D01*
X124769979Y-94734008D01*
X124769979Y-94734010D01*
X124749500Y-94810436D01*
X124749500Y-95555442D01*
X124741243Y-95582663D01*
X124739759Y-95584883D01*
X124724500Y-95661595D01*
X124724500Y-95932130D01*
X124710148Y-95966778D01*
X124704865Y-95971356D01*
X124642815Y-96017807D01*
X124642810Y-96017812D01*
X124556648Y-96132908D01*
X124506401Y-96267626D01*
X124506401Y-96267627D01*
X124500000Y-96327165D01*
X124500000Y-96575000D01*
X127100000Y-96575000D01*
X127100000Y-96499980D01*
X129950000Y-96499980D01*
X129960493Y-96602692D01*
X130015642Y-96769121D01*
X130107682Y-96918342D01*
X130231657Y-97042317D01*
X130380878Y-97134357D01*
X130547307Y-97189506D01*
X130650020Y-97200000D01*
X131350000Y-97200000D01*
X131850000Y-97200000D01*
X132549980Y-97200000D01*
X132652692Y-97189506D01*
X132819121Y-97134357D01*
X132968342Y-97042317D01*
X133092317Y-96918342D01*
X133184357Y-96769121D01*
X133239506Y-96602692D01*
X133250000Y-96499980D01*
X133250000Y-96200000D01*
X131850000Y-96200000D01*
X131850000Y-97200000D01*
X131350000Y-97200000D01*
X131350000Y-96200000D01*
X129950000Y-96200000D01*
X129950000Y-96499980D01*
X127100000Y-96499980D01*
X127100000Y-96327165D01*
X127093598Y-96267627D01*
X127093596Y-96267619D01*
X127067194Y-96196831D01*
X127067192Y-96196828D01*
X127043351Y-96132908D01*
X126957188Y-96017810D01*
X126930954Y-95998171D01*
X126911818Y-95965917D01*
X126921093Y-95929580D01*
X126925657Y-95924312D01*
X128610119Y-94239852D01*
X128644767Y-94225500D01*
X130035500Y-94225500D01*
X130070148Y-94239852D01*
X130084500Y-94274500D01*
X130084500Y-94324312D01*
X130084499Y-94324312D01*
X130084500Y-94324316D01*
X130090932Y-94373173D01*
X130108593Y-94411047D01*
X130140935Y-94480404D01*
X130140936Y-94480406D01*
X130224593Y-94564063D01*
X130224595Y-94564064D01*
X130224596Y-94564065D01*
X130331827Y-94614068D01*
X130380684Y-94620500D01*
X130380687Y-94620500D01*
X130515239Y-94620500D01*
X130549887Y-94634852D01*
X130564239Y-94669500D01*
X130549887Y-94704148D01*
X130530652Y-94716013D01*
X130380878Y-94765642D01*
X130231657Y-94857682D01*
X130107682Y-94981657D01*
X130015642Y-95130878D01*
X129960493Y-95297307D01*
X129950000Y-95400019D01*
X129950000Y-95700000D01*
X131350000Y-95700000D01*
X131350000Y-94975000D01*
X131339352Y-94964352D01*
X131325000Y-94929704D01*
X131325000Y-94645000D01*
X131825000Y-94645000D01*
X131835648Y-94655648D01*
X131850000Y-94690296D01*
X131850000Y-95700000D01*
X133250000Y-95700000D01*
X133250000Y-95400019D01*
X133239506Y-95297307D01*
X133184357Y-95130878D01*
X133092317Y-94981657D01*
X132968342Y-94857682D01*
X132819121Y-94765642D01*
X132652692Y-94710493D01*
X132549980Y-94700000D01*
X132288211Y-94700000D01*
X132253563Y-94685648D01*
X132239211Y-94651000D01*
X132246035Y-94626057D01*
X132297404Y-94539196D01*
X132342167Y-94385125D01*
X132342167Y-94385123D01*
X132344931Y-94350000D01*
X131825000Y-94350000D01*
X131825000Y-94645000D01*
X131325000Y-94645000D01*
X131325000Y-94149000D01*
X131339352Y-94114352D01*
X131374000Y-94100000D01*
X131575000Y-94100000D01*
X131575000Y-93899000D01*
X131589352Y-93864352D01*
X131624000Y-93850000D01*
X132344931Y-93850000D01*
X132344930Y-93849999D01*
X132342167Y-93814876D01*
X132342167Y-93814874D01*
X132297404Y-93660803D01*
X132215739Y-93522715D01*
X132215735Y-93522710D01*
X132102173Y-93409148D01*
X132087821Y-93374500D01*
X132102173Y-93339852D01*
X132136821Y-93325500D01*
X134155233Y-93325500D01*
X134189881Y-93339852D01*
X135735148Y-94885119D01*
X135749500Y-94919767D01*
X135749500Y-94956021D01*
X135778496Y-95064235D01*
X135778497Y-95064239D01*
X135834515Y-95161263D01*
X135913737Y-95240485D01*
X135949249Y-95260988D01*
X136010760Y-95296502D01*
X136010762Y-95296502D01*
X136010763Y-95296503D01*
X136086774Y-95316870D01*
X136118978Y-95325499D01*
X136118979Y-95325500D01*
X136118982Y-95325500D01*
X136231021Y-95325500D01*
X136231021Y-95325499D01*
X136339237Y-95296503D01*
X136436263Y-95240485D01*
X136515485Y-95161263D01*
X136571503Y-95064237D01*
X136600499Y-94956021D01*
X136600500Y-94956021D01*
X136600500Y-94843979D01*
X136600499Y-94843978D01*
X136573358Y-94742686D01*
X136571503Y-94735763D01*
X136571502Y-94735762D01*
X136571502Y-94735760D01*
X136530930Y-94665488D01*
X136515485Y-94638737D01*
X136436263Y-94559515D01*
X136418917Y-94549500D01*
X136339239Y-94503497D01*
X136339235Y-94503496D01*
X136231021Y-94474500D01*
X136231018Y-94474500D01*
X136194767Y-94474500D01*
X136160119Y-94460148D01*
X135059119Y-93359148D01*
X135044767Y-93324500D01*
X135059119Y-93289852D01*
X135093767Y-93275500D01*
X149353456Y-93275500D01*
X149388104Y-93289852D01*
X149413737Y-93315485D01*
X149449249Y-93335988D01*
X149510760Y-93371502D01*
X149510762Y-93371502D01*
X149510763Y-93371503D01*
X149533589Y-93377619D01*
X149588496Y-93392332D01*
X149618249Y-93415162D01*
X149623144Y-93452344D01*
X149610462Y-93474310D01*
X147998388Y-95086383D01*
X147963740Y-95100735D01*
X147929092Y-95086383D01*
X147922035Y-95077459D01*
X147872571Y-94997266D01*
X147752733Y-94877428D01*
X147608484Y-94788453D01*
X147447603Y-94735143D01*
X147348317Y-94725000D01*
X147325000Y-94725000D01*
X147325000Y-95651000D01*
X147310648Y-95685648D01*
X147276000Y-95700000D01*
X146874000Y-95700000D01*
X146839352Y-95685648D01*
X146825000Y-95651000D01*
X146825000Y-94725000D01*
X146824999Y-94724999D01*
X146801684Y-94725000D01*
X146702396Y-94735143D01*
X146541515Y-94788453D01*
X146397266Y-94877428D01*
X146277428Y-94997266D01*
X146188454Y-95141514D01*
X146177304Y-95175161D01*
X146152781Y-95203536D01*
X146115377Y-95206260D01*
X146096143Y-95194395D01*
X146014852Y-95113103D01*
X146000500Y-95078455D01*
X146000500Y-94984105D01*
X146000499Y-94984104D01*
X145971915Y-94877428D01*
X145966392Y-94856814D01*
X145966391Y-94856813D01*
X145966391Y-94856811D01*
X145924617Y-94784457D01*
X145900500Y-94742686D01*
X145807314Y-94649500D01*
X145788672Y-94638737D01*
X145693188Y-94583608D01*
X145693184Y-94583607D01*
X145565895Y-94549500D01*
X145565892Y-94549500D01*
X145434108Y-94549500D01*
X145434105Y-94549500D01*
X145306815Y-94583607D01*
X145306811Y-94583608D01*
X145192685Y-94649500D01*
X145192685Y-94649501D01*
X145099501Y-94742685D01*
X145099500Y-94742685D01*
X145033608Y-94856811D01*
X145033607Y-94856815D01*
X144999500Y-94984104D01*
X144999500Y-95115895D01*
X144999919Y-95119079D01*
X144998492Y-95119266D01*
X144994225Y-95151665D01*
X144986440Y-95161810D01*
X144951473Y-95196778D01*
X144951467Y-95196786D01*
X144890282Y-95316870D01*
X144890281Y-95316872D01*
X144890281Y-95316874D01*
X144874500Y-95416512D01*
X144874500Y-95983488D01*
X144890281Y-96083126D01*
X144890281Y-96083127D01*
X144890282Y-96083129D01*
X144951467Y-96203213D01*
X144951472Y-96203220D01*
X145046779Y-96298527D01*
X145046786Y-96298532D01*
X145099715Y-96325500D01*
X145166874Y-96359719D01*
X145166872Y-96359719D01*
X145183164Y-96362299D01*
X145196115Y-96370235D01*
X145210148Y-96376048D01*
X145211694Y-96379782D01*
X145215141Y-96381894D01*
X145224500Y-96410696D01*
X145224500Y-96440500D01*
X145210148Y-96475148D01*
X145175500Y-96489500D01*
X145070103Y-96489500D01*
X145070098Y-96489501D01*
X145020512Y-96496027D01*
X144911683Y-96546776D01*
X144911681Y-96546777D01*
X144826777Y-96631681D01*
X144826776Y-96631683D01*
X144776029Y-96740510D01*
X144776028Y-96740511D01*
X144769500Y-96790102D01*
X144769500Y-97209896D01*
X144769501Y-97209901D01*
X144776027Y-97259487D01*
X144826776Y-97368316D01*
X144826777Y-97368318D01*
X144911682Y-97453223D01*
X144921206Y-97457664D01*
X144946544Y-97485313D01*
X144949500Y-97502074D01*
X144949500Y-98181233D01*
X144935148Y-98215881D01*
X144900500Y-98230233D01*
X144865852Y-98215881D01*
X144517780Y-97867809D01*
X144503428Y-97833161D01*
X144510724Y-97807436D01*
X144534356Y-97769124D01*
X144534357Y-97769122D01*
X144589506Y-97602693D01*
X144600000Y-97499981D01*
X144600000Y-97250000D01*
X143549000Y-97250000D01*
X143514352Y-97235648D01*
X143500000Y-97201000D01*
X143500000Y-97000000D01*
X143299000Y-97000000D01*
X143264352Y-96985648D01*
X143250000Y-96951000D01*
X143250000Y-96750000D01*
X143750000Y-96750000D01*
X144599999Y-96750000D01*
X144599999Y-96500019D01*
X144589506Y-96397306D01*
X144534357Y-96230877D01*
X144442317Y-96081656D01*
X144318343Y-95957682D01*
X144169122Y-95865642D01*
X144002693Y-95810493D01*
X143899981Y-95800000D01*
X143750000Y-95800000D01*
X143750000Y-96750000D01*
X143250000Y-96750000D01*
X143250000Y-95800000D01*
X143100019Y-95800000D01*
X142997306Y-95810493D01*
X142830877Y-95865642D01*
X142681656Y-95957682D01*
X142557684Y-96081654D01*
X142557680Y-96081659D01*
X142496915Y-96180173D01*
X142466511Y-96202128D01*
X142429487Y-96196153D01*
X142426114Y-96193874D01*
X142417304Y-96187372D01*
X142362882Y-96147207D01*
X142362880Y-96147206D01*
X142362877Y-96147204D01*
X142234698Y-96102353D01*
X142204275Y-96099500D01*
X142204266Y-96099500D01*
X141395734Y-96099500D01*
X141395724Y-96099500D01*
X141365304Y-96102353D01*
X141365301Y-96102353D01*
X141365301Y-96102354D01*
X141293766Y-96127384D01*
X141271194Y-96129714D01*
X141269567Y-96129500D01*
X141269562Y-96129500D01*
X140752074Y-96129500D01*
X140717426Y-96115148D01*
X140707665Y-96101208D01*
X140703224Y-96091684D01*
X140703223Y-96091683D01*
X140703222Y-96091681D01*
X140618318Y-96006777D01*
X140618316Y-96006776D01*
X140509489Y-95956029D01*
X140509488Y-95956028D01*
X140499569Y-95954722D01*
X140459901Y-95949500D01*
X140459897Y-95949500D01*
X140040103Y-95949500D01*
X140040098Y-95949501D01*
X139990512Y-95956027D01*
X139881683Y-96006776D01*
X139881681Y-96006777D01*
X139796777Y-96091681D01*
X139796776Y-96091683D01*
X139746029Y-96200510D01*
X139746028Y-96200511D01*
X139739500Y-96250102D01*
X139739500Y-96609896D01*
X139739501Y-96609901D01*
X139746028Y-96659492D01*
X139746441Y-96660909D01*
X139746338Y-96661846D01*
X139746517Y-96663205D01*
X139746184Y-96663248D01*
X139742353Y-96698188D01*
X139724341Y-96716790D01*
X139684623Y-96740280D01*
X139684621Y-96740281D01*
X139570281Y-96854621D01*
X139570277Y-96854626D01*
X139487968Y-96993802D01*
X139445494Y-97139999D01*
X139445495Y-97140000D01*
X140201000Y-97140000D01*
X140235648Y-97154352D01*
X140250000Y-97189000D01*
X140250000Y-97390000D01*
X140451000Y-97390000D01*
X140485648Y-97404352D01*
X140500000Y-97439000D01*
X140500000Y-98761000D01*
X140485648Y-98795648D01*
X140451000Y-98810000D01*
X140250000Y-98810000D01*
X140250000Y-99011000D01*
X140235648Y-99045648D01*
X140201000Y-99060000D01*
X139445495Y-99060000D01*
X139487968Y-99206197D01*
X139570277Y-99345373D01*
X139570281Y-99345378D01*
X139684621Y-99459718D01*
X139684626Y-99459722D01*
X139724340Y-99483209D01*
X139746858Y-99513199D01*
X139746478Y-99536790D01*
X139746517Y-99536796D01*
X139746473Y-99537126D01*
X139746442Y-99539088D01*
X139746028Y-99540508D01*
X139739500Y-99590100D01*
X139739500Y-99949896D01*
X139739501Y-99949901D01*
X139746027Y-99999487D01*
X139796776Y-100108316D01*
X139796777Y-100108318D01*
X139881681Y-100193222D01*
X139881683Y-100193223D01*
X139881684Y-100193224D01*
X139904173Y-100203711D01*
X139909277Y-100206091D01*
X139934614Y-100233741D01*
X139932978Y-100271208D01*
X139905328Y-100296545D01*
X139888569Y-100299500D01*
X139299500Y-100299500D01*
X139264852Y-100285148D01*
X139250500Y-100250500D01*
X139250500Y-100243979D01*
X139250499Y-100243978D01*
X139237102Y-100193979D01*
X139221503Y-100135763D01*
X139221502Y-100135762D01*
X139221502Y-100135760D01*
X139181616Y-100066676D01*
X139165485Y-100038737D01*
X139086263Y-99959515D01*
X139069611Y-99949901D01*
X138989239Y-99903497D01*
X138989235Y-99903496D01*
X138881021Y-99874500D01*
X138881018Y-99874500D01*
X138768982Y-99874500D01*
X138768979Y-99874500D01*
X138660764Y-99903496D01*
X138660760Y-99903497D01*
X138563736Y-99959515D01*
X138563736Y-99959516D01*
X138484516Y-100038736D01*
X138484515Y-100038736D01*
X138428497Y-100135760D01*
X138428496Y-100135764D01*
X138399500Y-100243978D01*
X138399500Y-100356021D01*
X138428496Y-100464235D01*
X138428497Y-100464239D01*
X138477929Y-100549856D01*
X138484515Y-100561263D01*
X138563737Y-100640485D01*
X138584882Y-100652693D01*
X138660760Y-100696502D01*
X138660762Y-100696502D01*
X138660763Y-100696503D01*
X138746111Y-100719371D01*
X138768978Y-100725499D01*
X138768979Y-100725500D01*
X138768982Y-100725500D01*
X138805233Y-100725500D01*
X138839881Y-100739852D01*
X138884540Y-100784511D01*
X138940489Y-100840460D01*
X139009011Y-100880021D01*
X139044478Y-100889524D01*
X139085436Y-100900500D01*
X139085438Y-100900500D01*
X139164562Y-100900500D01*
X141390949Y-100900500D01*
X141401293Y-100904784D01*
X141412468Y-100905478D01*
X141417948Y-100911683D01*
X141425597Y-100914852D01*
X141429881Y-100925196D01*
X141437293Y-100933588D01*
X141436780Y-100941850D01*
X141439949Y-100949500D01*
X141434971Y-100971019D01*
X141428372Y-100984519D01*
X141400262Y-101009344D01*
X141384350Y-101012000D01*
X138646544Y-101012000D01*
X138611896Y-100997648D01*
X138586263Y-100972015D01*
X138489239Y-100915997D01*
X138489235Y-100915996D01*
X138381021Y-100887000D01*
X138381018Y-100887000D01*
X138268982Y-100887000D01*
X138268979Y-100887000D01*
X138160764Y-100915996D01*
X138160760Y-100915997D01*
X138063736Y-100972015D01*
X138063736Y-100972016D01*
X138038104Y-100997648D01*
X138003456Y-101012000D01*
X136697935Y-101012000D01*
X136621513Y-101032477D01*
X136621510Y-101032478D01*
X136552988Y-101072040D01*
X136011512Y-101613516D01*
X135976864Y-101627868D01*
X135942216Y-101613516D01*
X135927864Y-101578868D01*
X135934931Y-101553518D01*
X135995054Y-101454062D01*
X136043818Y-101297572D01*
X136043819Y-101297566D01*
X136048141Y-101250000D01*
X133950000Y-101250000D01*
X133950000Y-101849999D01*
X135429553Y-101849999D01*
X135497566Y-101843819D01*
X135497572Y-101843818D01*
X135654062Y-101795054D01*
X135753518Y-101734931D01*
X135790594Y-101729288D01*
X135820801Y-101751514D01*
X135826444Y-101788590D01*
X135813516Y-101811512D01*
X135630113Y-101994915D01*
X135595465Y-102009267D01*
X135573944Y-102004288D01*
X135483628Y-101960135D01*
X135483626Y-101960134D01*
X135410638Y-101949500D01*
X135410636Y-101949500D01*
X131989364Y-101949500D01*
X131989362Y-101949500D01*
X131916373Y-101960134D01*
X131916371Y-101960135D01*
X131803791Y-102015172D01*
X131803787Y-102015175D01*
X131715175Y-102103787D01*
X131715172Y-102103791D01*
X131660135Y-102216371D01*
X131660134Y-102216373D01*
X131649500Y-102289362D01*
X131649500Y-102710637D01*
X131660134Y-102783626D01*
X131660135Y-102783628D01*
X131715172Y-102896208D01*
X131715173Y-102896210D01*
X131715174Y-102896211D01*
X131803789Y-102984826D01*
X131916375Y-103039866D01*
X131968094Y-103047401D01*
X131989362Y-103050500D01*
X131989364Y-103050500D01*
X135410638Y-103050500D01*
X135429201Y-103047795D01*
X135483625Y-103039866D01*
X135596211Y-102984826D01*
X135684826Y-102896211D01*
X135739866Y-102783625D01*
X135745796Y-102742918D01*
X135759634Y-102715335D01*
X135790460Y-102684511D01*
X136847619Y-101627352D01*
X136882267Y-101613000D01*
X138003456Y-101613000D01*
X138038104Y-101627352D01*
X138063737Y-101652985D01*
X138089113Y-101667636D01*
X138160760Y-101709002D01*
X138160762Y-101709002D01*
X138160763Y-101709003D01*
X138223772Y-101725886D01*
X138268978Y-101737999D01*
X138268979Y-101738000D01*
X138268982Y-101738000D01*
X138381021Y-101738000D01*
X138381021Y-101737999D01*
X138489237Y-101709003D01*
X138586263Y-101652985D01*
X138611896Y-101627352D01*
X138646544Y-101613000D01*
X141384350Y-101613000D01*
X141418998Y-101627352D01*
X141428371Y-101640480D01*
X141440360Y-101665005D01*
X141440365Y-101665012D01*
X141503705Y-101728352D01*
X141518057Y-101763000D01*
X141503705Y-101797648D01*
X141469057Y-101812000D01*
X141334105Y-101812000D01*
X141206815Y-101846107D01*
X141206811Y-101846108D01*
X141092685Y-101912000D01*
X141092685Y-101912001D01*
X140999501Y-102005185D01*
X140999500Y-102005185D01*
X140933608Y-102119311D01*
X140933607Y-102119315D01*
X140899500Y-102246604D01*
X140899500Y-102378395D01*
X140933607Y-102505684D01*
X140933608Y-102505688D01*
X140988349Y-102600500D01*
X140999500Y-102619814D01*
X141092686Y-102713000D01*
X141134457Y-102737117D01*
X141206811Y-102778891D01*
X141206813Y-102778891D01*
X141206814Y-102778892D01*
X141307207Y-102805792D01*
X141334104Y-102812999D01*
X141334105Y-102813000D01*
X141334108Y-102813000D01*
X141465895Y-102813000D01*
X141465895Y-102812999D01*
X141593186Y-102778892D01*
X141600095Y-102774902D01*
X141631659Y-102768848D01*
X141680198Y-102775920D01*
X141694470Y-102778000D01*
X141694472Y-102778000D01*
X142105530Y-102778000D01*
X142118428Y-102776120D01*
X142162396Y-102769714D01*
X142198749Y-102778920D01*
X142211636Y-102793259D01*
X142220282Y-102807879D01*
X142334621Y-102922218D01*
X142334626Y-102922222D01*
X142473801Y-103004530D01*
X142629088Y-103049645D01*
X142629084Y-103049645D01*
X142649999Y-103051290D01*
X142650000Y-103051290D01*
X143150000Y-103051290D01*
X143170913Y-103049645D01*
X143326196Y-103004531D01*
X143375056Y-102975634D01*
X143412184Y-102970349D01*
X143424944Y-102975634D01*
X143473803Y-103004531D01*
X143629088Y-103049645D01*
X143629084Y-103049645D01*
X143649999Y-103051290D01*
X143650000Y-103051290D01*
X143650000Y-102522500D01*
X143150000Y-102522500D01*
X143150000Y-103051290D01*
X142650000Y-103051290D01*
X142650000Y-102321500D01*
X142664352Y-102286852D01*
X142699000Y-102272500D01*
X142900000Y-102272500D01*
X142900000Y-102071500D01*
X142914352Y-102036852D01*
X142949000Y-102022500D01*
X143851000Y-102022500D01*
X143885648Y-102036852D01*
X143900000Y-102071500D01*
X143900000Y-102272500D01*
X144101000Y-102272500D01*
X144135648Y-102286852D01*
X144150000Y-102321500D01*
X144150000Y-103051290D01*
X144170911Y-103049645D01*
X144205372Y-103039633D01*
X144242649Y-103043747D01*
X144266098Y-103073015D01*
X144261984Y-103110292D01*
X144253692Y-103121335D01*
X143689881Y-103685148D01*
X143655233Y-103699500D01*
X135762203Y-103699500D01*
X135727555Y-103685148D01*
X135718182Y-103672020D01*
X135684828Y-103603793D01*
X135684827Y-103603791D01*
X135684826Y-103603789D01*
X135596211Y-103515174D01*
X135596210Y-103515173D01*
X135596208Y-103515172D01*
X135483628Y-103460135D01*
X135483626Y-103460134D01*
X135410638Y-103449500D01*
X135410636Y-103449500D01*
X131989364Y-103449500D01*
X131989362Y-103449500D01*
X131916373Y-103460134D01*
X131916371Y-103460135D01*
X131803791Y-103515172D01*
X131803787Y-103515175D01*
X131715175Y-103603787D01*
X131715172Y-103603791D01*
X131660135Y-103716371D01*
X131660134Y-103716373D01*
X131649501Y-103789352D01*
X131649500Y-103789359D01*
X131649500Y-104210637D01*
X131660134Y-104283626D01*
X131660135Y-104283628D01*
X131715172Y-104396208D01*
X131715173Y-104396210D01*
X131715174Y-104396211D01*
X131803789Y-104484826D01*
X131916375Y-104539866D01*
X131968094Y-104547401D01*
X131989362Y-104550500D01*
X131989364Y-104550500D01*
X135410638Y-104550500D01*
X135429201Y-104547795D01*
X135483625Y-104539866D01*
X135596211Y-104484826D01*
X135684826Y-104396211D01*
X135718182Y-104327980D01*
X135746292Y-104303155D01*
X135762203Y-104300500D01*
X143418681Y-104300500D01*
X143453329Y-104314852D01*
X143467681Y-104349500D01*
X143453329Y-104384148D01*
X142902329Y-104935148D01*
X142867681Y-104949500D01*
X138096277Y-104949500D01*
X138061629Y-104935148D01*
X138048947Y-104913182D01*
X138021503Y-104810764D01*
X138021502Y-104810760D01*
X137965484Y-104713736D01*
X137886263Y-104634515D01*
X137789239Y-104578497D01*
X137789235Y-104578496D01*
X137681021Y-104549500D01*
X137681018Y-104549500D01*
X137568982Y-104549500D01*
X137568979Y-104549500D01*
X137460764Y-104578496D01*
X137460760Y-104578497D01*
X137363736Y-104634515D01*
X137363736Y-104634516D01*
X137284516Y-104713736D01*
X137284515Y-104713736D01*
X137228497Y-104810760D01*
X137228496Y-104810764D01*
X137199500Y-104918978D01*
X137199500Y-105031021D01*
X137228496Y-105139235D01*
X137228497Y-105139239D01*
X137283226Y-105234031D01*
X137284515Y-105236263D01*
X137363737Y-105315485D01*
X137399249Y-105335988D01*
X137460760Y-105371502D01*
X137460762Y-105371502D01*
X137460763Y-105371503D01*
X137518711Y-105387030D01*
X137568978Y-105400499D01*
X137568979Y-105400500D01*
X137568982Y-105400500D01*
X137605233Y-105400500D01*
X137639881Y-105414852D01*
X137715489Y-105490460D01*
X137732046Y-105500019D01*
X137784008Y-105530020D01*
X137784012Y-105530022D01*
X137844286Y-105546172D01*
X137860434Y-105550499D01*
X137860435Y-105550500D01*
X137860438Y-105550500D01*
X143052012Y-105550500D01*
X143089404Y-105540480D01*
X143128437Y-105530021D01*
X143196959Y-105490460D01*
X143252908Y-105434511D01*
X145752960Y-102934459D01*
X145769956Y-102905021D01*
X145783065Y-102882314D01*
X145812817Y-102859485D01*
X145850000Y-102864380D01*
X145872830Y-102894132D01*
X145874500Y-102906815D01*
X145874500Y-103544670D01*
X145860148Y-103579318D01*
X143254319Y-106185148D01*
X143219671Y-106199500D01*
X134465436Y-106199500D01*
X134389010Y-106219979D01*
X134389008Y-106219979D01*
X134344769Y-106245522D01*
X134320488Y-106259540D01*
X134320488Y-106259541D01*
X130884541Y-109695488D01*
X130884540Y-109695488D01*
X130844979Y-109764008D01*
X130844979Y-109764010D01*
X130824500Y-109840436D01*
X130824500Y-110030500D01*
X130810148Y-110065148D01*
X130775500Y-110079500D01*
X130255252Y-110079500D01*
X130196769Y-110091133D01*
X130130447Y-110135447D01*
X130092185Y-110192711D01*
X130086133Y-110201769D01*
X130074500Y-110260252D01*
X130074500Y-111999748D01*
X130086133Y-112058231D01*
X130087944Y-112060941D01*
X130130447Y-112124552D01*
X130133966Y-112126903D01*
X130196769Y-112168867D01*
X130255252Y-112180500D01*
X130255255Y-112180500D01*
X131994745Y-112180500D01*
X131994748Y-112180500D01*
X132053231Y-112168867D01*
X132119552Y-112124552D01*
X132163867Y-112058231D01*
X132175500Y-111999748D01*
X132175500Y-110260252D01*
X132163867Y-110201769D01*
X132137301Y-110162012D01*
X132119552Y-110135447D01*
X132071631Y-110103428D01*
X132053231Y-110091133D01*
X131994748Y-110079500D01*
X131994745Y-110079500D01*
X131474500Y-110079500D01*
X131439852Y-110065148D01*
X131425500Y-110030500D01*
X131425500Y-110024767D01*
X131439852Y-109990119D01*
X134615119Y-106814852D01*
X134649767Y-106800500D01*
X135856233Y-106800500D01*
X135890881Y-106814852D01*
X135905233Y-106849500D01*
X135890881Y-106884148D01*
X133424541Y-109350488D01*
X133424540Y-109350488D01*
X133384979Y-109419008D01*
X133384979Y-109419010D01*
X133364500Y-109495436D01*
X133364500Y-110084677D01*
X133350148Y-110119325D01*
X133334252Y-110129947D01*
X133167403Y-110199058D01*
X132995345Y-110314022D01*
X132849022Y-110460345D01*
X132734058Y-110632403D01*
X132654871Y-110823576D01*
X132654869Y-110823582D01*
X132651166Y-110842200D01*
X132614500Y-111026535D01*
X132614500Y-111233465D01*
X132641290Y-111368150D01*
X132654869Y-111436417D01*
X132654871Y-111436423D01*
X132734058Y-111627596D01*
X132849003Y-111799626D01*
X132849023Y-111799655D01*
X132995345Y-111945977D01*
X133167402Y-112060941D01*
X133358580Y-112140130D01*
X133561535Y-112180500D01*
X133561538Y-112180500D01*
X133768462Y-112180500D01*
X133768465Y-112180500D01*
X133971420Y-112140130D01*
X134162598Y-112060941D01*
X134334655Y-111945977D01*
X134480977Y-111799655D01*
X134595941Y-111627598D01*
X134675130Y-111436420D01*
X134715500Y-111233465D01*
X134715500Y-111026535D01*
X134675130Y-110823580D01*
X134595941Y-110632402D01*
X134480977Y-110460345D01*
X134334655Y-110314023D01*
X134292914Y-110286133D01*
X134167616Y-110202412D01*
X134162598Y-110199059D01*
X134009028Y-110135448D01*
X133995748Y-110129947D01*
X133969230Y-110103428D01*
X133965500Y-110084677D01*
X133965500Y-109679767D01*
X133979852Y-109645119D01*
X136310119Y-107314852D01*
X136344767Y-107300500D01*
X139491233Y-107300500D01*
X139525881Y-107314852D01*
X139540233Y-107349500D01*
X139525881Y-107384148D01*
X136731668Y-110178359D01*
X136697020Y-110192711D01*
X136678268Y-110188981D01*
X136511423Y-110119871D01*
X136511417Y-110119869D01*
X136428760Y-110103428D01*
X136308465Y-110079500D01*
X136101535Y-110079500D01*
X136000520Y-110099592D01*
X135898582Y-110119869D01*
X135898576Y-110119871D01*
X135707403Y-110199058D01*
X135535345Y-110314022D01*
X135389022Y-110460345D01*
X135274058Y-110632403D01*
X135194871Y-110823576D01*
X135194869Y-110823582D01*
X135191166Y-110842200D01*
X135154500Y-111026535D01*
X135154500Y-111233465D01*
X135181290Y-111368150D01*
X135194869Y-111436417D01*
X135194871Y-111436423D01*
X135274058Y-111627596D01*
X135389003Y-111799626D01*
X135389023Y-111799655D01*
X135535345Y-111945977D01*
X135707402Y-112060941D01*
X135898580Y-112140130D01*
X136101535Y-112180500D01*
X136101538Y-112180500D01*
X136308462Y-112180500D01*
X136308465Y-112180500D01*
X136511420Y-112140130D01*
X136702598Y-112060941D01*
X136874655Y-111945977D01*
X137020977Y-111799655D01*
X137135941Y-111627598D01*
X137215130Y-111436420D01*
X137255500Y-111233465D01*
X137255500Y-111026535D01*
X137215130Y-110823580D01*
X137214887Y-110822993D01*
X137146018Y-110656728D01*
X137146018Y-110619225D01*
X137156637Y-110603332D01*
X139895119Y-107864852D01*
X139929767Y-107850500D01*
X141496482Y-107850500D01*
X141531130Y-107864852D01*
X141545482Y-107899500D01*
X141531130Y-107934148D01*
X141520983Y-107941934D01*
X141514757Y-107945529D01*
X141490488Y-107959540D01*
X141490487Y-107959541D01*
X139271668Y-110178359D01*
X139237020Y-110192711D01*
X139218268Y-110188981D01*
X139051423Y-110119871D01*
X139051417Y-110119869D01*
X138968760Y-110103428D01*
X138848465Y-110079500D01*
X138641535Y-110079500D01*
X138540520Y-110099592D01*
X138438582Y-110119869D01*
X138438576Y-110119871D01*
X138247403Y-110199058D01*
X138075345Y-110314022D01*
X137929022Y-110460345D01*
X137814058Y-110632403D01*
X137734871Y-110823576D01*
X137734869Y-110823582D01*
X137731166Y-110842200D01*
X137694500Y-111026535D01*
X137694500Y-111233465D01*
X137721290Y-111368150D01*
X137734869Y-111436417D01*
X137734871Y-111436423D01*
X137814058Y-111627596D01*
X137929003Y-111799626D01*
X137929023Y-111799655D01*
X138075345Y-111945977D01*
X138247402Y-112060941D01*
X138438580Y-112140130D01*
X138641535Y-112180500D01*
X138641538Y-112180500D01*
X138848462Y-112180500D01*
X138848465Y-112180500D01*
X139051420Y-112140130D01*
X139242598Y-112060941D01*
X139414655Y-111945977D01*
X139560977Y-111799655D01*
X139675941Y-111627598D01*
X139755130Y-111436420D01*
X139795500Y-111233465D01*
X139795500Y-111026535D01*
X139755130Y-110823580D01*
X139754887Y-110822993D01*
X139686018Y-110656728D01*
X139686018Y-110619225D01*
X139696637Y-110603332D01*
X141785119Y-108514852D01*
X141819767Y-108500500D01*
X143185203Y-108500500D01*
X143219851Y-108514852D01*
X143234203Y-108549500D01*
X143219851Y-108584148D01*
X141680125Y-110123872D01*
X141645477Y-110138224D01*
X141626726Y-110134494D01*
X141615748Y-110129947D01*
X141591420Y-110119870D01*
X141388465Y-110079500D01*
X141181535Y-110079500D01*
X141080520Y-110099592D01*
X140978582Y-110119869D01*
X140978576Y-110119871D01*
X140787403Y-110199058D01*
X140615345Y-110314022D01*
X140469022Y-110460345D01*
X140354058Y-110632403D01*
X140274871Y-110823576D01*
X140274869Y-110823582D01*
X140271166Y-110842200D01*
X140234500Y-111026535D01*
X140234500Y-111233465D01*
X140261290Y-111368150D01*
X140274869Y-111436417D01*
X140274871Y-111436423D01*
X140354058Y-111627596D01*
X140469003Y-111799626D01*
X140469023Y-111799655D01*
X140615345Y-111945977D01*
X140787402Y-112060941D01*
X140978580Y-112140130D01*
X141181535Y-112180500D01*
X141181538Y-112180500D01*
X141388462Y-112180500D01*
X141388465Y-112180500D01*
X141591420Y-112140130D01*
X141782598Y-112060941D01*
X141954655Y-111945977D01*
X142100977Y-111799655D01*
X142215941Y-111627598D01*
X142295130Y-111436420D01*
X142335500Y-111233465D01*
X142335500Y-111026535D01*
X142295130Y-110823580D01*
X142291110Y-110813876D01*
X142215943Y-110632407D01*
X142215943Y-110632406D01*
X142215941Y-110632403D01*
X142215941Y-110632402D01*
X142160415Y-110549301D01*
X142153099Y-110512518D01*
X142166507Y-110487432D01*
X145015853Y-107638087D01*
X145050500Y-107623736D01*
X145085148Y-107638088D01*
X145099500Y-107672736D01*
X145099500Y-109410232D01*
X145085148Y-109444880D01*
X144351668Y-110178359D01*
X144317020Y-110192711D01*
X144298268Y-110188981D01*
X144131423Y-110119871D01*
X144131417Y-110119869D01*
X144048760Y-110103428D01*
X143928465Y-110079500D01*
X143721535Y-110079500D01*
X143620520Y-110099592D01*
X143518582Y-110119869D01*
X143518576Y-110119871D01*
X143327403Y-110199058D01*
X143155345Y-110314022D01*
X143009022Y-110460345D01*
X142894058Y-110632403D01*
X142814871Y-110823576D01*
X142814869Y-110823582D01*
X142811166Y-110842200D01*
X142774500Y-111026535D01*
X142774500Y-111233465D01*
X142801290Y-111368150D01*
X142814869Y-111436417D01*
X142814871Y-111436423D01*
X142894058Y-111627596D01*
X143009003Y-111799626D01*
X143009023Y-111799655D01*
X143155345Y-111945977D01*
X143327402Y-112060941D01*
X143518580Y-112140130D01*
X143721535Y-112180500D01*
X143721538Y-112180500D01*
X143928462Y-112180500D01*
X143928465Y-112180500D01*
X144131420Y-112140130D01*
X144322598Y-112060941D01*
X144494655Y-111945977D01*
X144640977Y-111799655D01*
X144755941Y-111627598D01*
X144835130Y-111436420D01*
X144875500Y-111233465D01*
X144875500Y-111026535D01*
X144835130Y-110823580D01*
X144834887Y-110822993D01*
X144766018Y-110656728D01*
X144766018Y-110619225D01*
X144776637Y-110603332D01*
X145640460Y-109739511D01*
X145665876Y-109695489D01*
X145680021Y-109670989D01*
X145700500Y-109594562D01*
X145700500Y-107436184D01*
X145714851Y-107401537D01*
X145980852Y-107135535D01*
X146015500Y-107121184D01*
X146050148Y-107135536D01*
X146064500Y-107170184D01*
X146064500Y-110084677D01*
X146050148Y-110119325D01*
X146034252Y-110129947D01*
X145867403Y-110199058D01*
X145695345Y-110314022D01*
X145549022Y-110460345D01*
X145434058Y-110632403D01*
X145354871Y-110823576D01*
X145354869Y-110823582D01*
X145351166Y-110842200D01*
X145314500Y-111026535D01*
X145314500Y-111233465D01*
X145341290Y-111368150D01*
X145354869Y-111436417D01*
X145354871Y-111436423D01*
X145434058Y-111627596D01*
X145549003Y-111799626D01*
X145549023Y-111799655D01*
X145695345Y-111945977D01*
X145867402Y-112060941D01*
X146058580Y-112140130D01*
X146261535Y-112180500D01*
X146261538Y-112180500D01*
X146468462Y-112180500D01*
X146468465Y-112180500D01*
X146478337Y-112178536D01*
X146478340Y-112178536D01*
X146553565Y-112163572D01*
X146671420Y-112140130D01*
X146862598Y-112060941D01*
X147034655Y-111945977D01*
X147180977Y-111799655D01*
X147295941Y-111627598D01*
X147375130Y-111436420D01*
X147415500Y-111233465D01*
X147415500Y-111026535D01*
X147414947Y-111023753D01*
X147555000Y-111023753D01*
X147555000Y-111236246D01*
X147588241Y-111446123D01*
X147588242Y-111446126D01*
X147653905Y-111648218D01*
X147750378Y-111837556D01*
X147750380Y-111837560D01*
X147789727Y-111891716D01*
X147789728Y-111891716D01*
X148422036Y-111259407D01*
X148439075Y-111322993D01*
X148504901Y-111437007D01*
X148597993Y-111530099D01*
X148712007Y-111595925D01*
X148775591Y-111612962D01*
X148143281Y-112245271D01*
X148197440Y-112284619D01*
X148197443Y-112284621D01*
X148386781Y-112381094D01*
X148588873Y-112446757D01*
X148588876Y-112446758D01*
X148798754Y-112480000D01*
X149011246Y-112480000D01*
X149221123Y-112446758D01*
X149221126Y-112446757D01*
X149423218Y-112381094D01*
X149612553Y-112284622D01*
X149666717Y-112245271D01*
X149034408Y-111612962D01*
X149097993Y-111595925D01*
X149212007Y-111530099D01*
X149305099Y-111437007D01*
X149370925Y-111322993D01*
X149387962Y-111259408D01*
X150020271Y-111891717D01*
X150059622Y-111837553D01*
X150156094Y-111648218D01*
X150171756Y-111600018D01*
X150975000Y-111600018D01*
X150975000Y-112050000D01*
X151825000Y-112050000D01*
X151825000Y-110900000D01*
X151675019Y-110900000D01*
X151572306Y-110910493D01*
X151405877Y-110965642D01*
X151256656Y-111057682D01*
X151132682Y-111181656D01*
X151040642Y-111330877D01*
X150985493Y-111497306D01*
X150975000Y-111600018D01*
X150171756Y-111600018D01*
X150177080Y-111583632D01*
X150221757Y-111446126D01*
X150221758Y-111446123D01*
X150255000Y-111236246D01*
X150255000Y-111023753D01*
X150221758Y-110813876D01*
X150221757Y-110813873D01*
X150156094Y-110611781D01*
X150059621Y-110422443D01*
X150059619Y-110422440D01*
X150020271Y-110368281D01*
X149387962Y-111000590D01*
X149370925Y-110937007D01*
X149305099Y-110822993D01*
X149212007Y-110729901D01*
X149097993Y-110664075D01*
X149034407Y-110647036D01*
X149666716Y-110014728D01*
X149666716Y-110014727D01*
X149612560Y-109975380D01*
X149612556Y-109975378D01*
X149423218Y-109878905D01*
X149221126Y-109813242D01*
X149221123Y-109813241D01*
X149011246Y-109780000D01*
X148798754Y-109780000D01*
X148588876Y-109813241D01*
X148588873Y-109813242D01*
X148386781Y-109878905D01*
X148197447Y-109975376D01*
X148197442Y-109975379D01*
X148143282Y-110014727D01*
X148143282Y-110014728D01*
X148775591Y-110647037D01*
X148712007Y-110664075D01*
X148597993Y-110729901D01*
X148504901Y-110822993D01*
X148439075Y-110937007D01*
X148422037Y-111000591D01*
X147789728Y-110368282D01*
X147789727Y-110368282D01*
X147750379Y-110422442D01*
X147750376Y-110422447D01*
X147653905Y-110611781D01*
X147588242Y-110813873D01*
X147588241Y-110813876D01*
X147555000Y-111023753D01*
X147414947Y-111023753D01*
X147375130Y-110823580D01*
X147295941Y-110632402D01*
X147180977Y-110460345D01*
X147034655Y-110314023D01*
X146992914Y-110286133D01*
X146867616Y-110202412D01*
X146862598Y-110199059D01*
X146709028Y-110135448D01*
X146695748Y-110129947D01*
X146688855Y-110123054D01*
X146679852Y-110119325D01*
X146676122Y-110110320D01*
X146669230Y-110103428D01*
X146665500Y-110084677D01*
X146665500Y-107279767D01*
X146679852Y-107245119D01*
X148640459Y-105284512D01*
X148640460Y-105284511D01*
X148680022Y-105215988D01*
X148700499Y-105139565D01*
X148700500Y-105139565D01*
X148700500Y-104898632D01*
X148714851Y-104863985D01*
X148853160Y-104725676D01*
X148887805Y-104711326D01*
X148922453Y-104725678D01*
X148934859Y-104746655D01*
X148957969Y-104826198D01*
X149040277Y-104965373D01*
X149040281Y-104965378D01*
X149154621Y-105079718D01*
X149154626Y-105079722D01*
X149293802Y-105162031D01*
X149439999Y-105204505D01*
X149440000Y-105204504D01*
X149440000Y-104152303D01*
X149446563Y-104127806D01*
X149452091Y-104118231D01*
X149480021Y-104069855D01*
X149500500Y-103993428D01*
X149500500Y-103682057D01*
X149508761Y-103654830D01*
X149510240Y-103652617D01*
X149523889Y-103584000D01*
X149525791Y-103574440D01*
X149546626Y-103543258D01*
X149573849Y-103535000D01*
X149575000Y-103535000D01*
X149575000Y-102240873D01*
X149490658Y-102251977D01*
X149353827Y-102308654D01*
X149353822Y-102308657D01*
X149236321Y-102398818D01*
X149144749Y-102518157D01*
X149113854Y-102535994D01*
X149113961Y-102536532D01*
X149112376Y-102536847D01*
X149112271Y-102536908D01*
X149111794Y-102536962D01*
X149034882Y-102552260D01*
X149034879Y-102552261D01*
X148977222Y-102590786D01*
X148940440Y-102598102D01*
X148922778Y-102590786D01*
X148865116Y-102552259D01*
X148788402Y-102537000D01*
X148611603Y-102537000D01*
X148534882Y-102552260D01*
X148534879Y-102552261D01*
X148477222Y-102590786D01*
X148440440Y-102598102D01*
X148422778Y-102590786D01*
X148365116Y-102552259D01*
X148288402Y-102537000D01*
X148111603Y-102537000D01*
X148034882Y-102552260D01*
X148034879Y-102552261D01*
X147977222Y-102590786D01*
X147940440Y-102598102D01*
X147922778Y-102590786D01*
X147865116Y-102552259D01*
X147788402Y-102537000D01*
X147611603Y-102537000D01*
X147534882Y-102552260D01*
X147534879Y-102552261D01*
X147477222Y-102590786D01*
X147440440Y-102598102D01*
X147422778Y-102590786D01*
X147365116Y-102552259D01*
X147288402Y-102537000D01*
X147111603Y-102537000D01*
X147034882Y-102552260D01*
X147034879Y-102552261D01*
X146977222Y-102590786D01*
X146940440Y-102598102D01*
X146922778Y-102590786D01*
X146865116Y-102552259D01*
X146788402Y-102537000D01*
X146611603Y-102537000D01*
X146534882Y-102552260D01*
X146534879Y-102552261D01*
X146477222Y-102590786D01*
X146440440Y-102598102D01*
X146422778Y-102590786D01*
X146365116Y-102552259D01*
X146288404Y-102537000D01*
X146288401Y-102537000D01*
X146199499Y-102537000D01*
X146164851Y-102522648D01*
X146150499Y-102488000D01*
X146150499Y-102399103D01*
X146150499Y-102399100D01*
X146135240Y-102322383D01*
X146096711Y-102264721D01*
X146089395Y-102227941D01*
X146096712Y-102210278D01*
X146135240Y-102152617D01*
X146141865Y-102119315D01*
X146150970Y-102073540D01*
X146152050Y-102073755D01*
X146168081Y-102043752D01*
X146169344Y-102042750D01*
X146288679Y-101951180D01*
X146288680Y-101951179D01*
X146378842Y-101833677D01*
X146378845Y-101833672D01*
X146435522Y-101696841D01*
X146446626Y-101612500D01*
X145561500Y-101612500D01*
X145526852Y-101598148D01*
X145512500Y-101563500D01*
X145512500Y-101411500D01*
X145526852Y-101376852D01*
X145561500Y-101362500D01*
X146446626Y-101362500D01*
X146435522Y-101278158D01*
X146378845Y-101141327D01*
X146378842Y-101141322D01*
X146288680Y-101023820D01*
X146288679Y-101023819D01*
X146169343Y-100932249D01*
X146151505Y-100901354D01*
X146150968Y-100901461D01*
X146150653Y-100899878D01*
X146150591Y-100899771D01*
X146150535Y-100899285D01*
X146150499Y-100899104D01*
X146150499Y-100899100D01*
X146135240Y-100822383D01*
X146096711Y-100764721D01*
X146089395Y-100727941D01*
X146096712Y-100710278D01*
X146135240Y-100652617D01*
X146150500Y-100575901D01*
X146150499Y-100399100D01*
X146135240Y-100322383D01*
X146096711Y-100264721D01*
X146089395Y-100227941D01*
X146096712Y-100210278D01*
X146135240Y-100152617D01*
X146150500Y-100075901D01*
X146150499Y-99899100D01*
X146135240Y-99822383D01*
X146096711Y-99764721D01*
X146089395Y-99727941D01*
X146096712Y-99710278D01*
X146135240Y-99652617D01*
X146150500Y-99575901D01*
X146150499Y-99399100D01*
X146135240Y-99322383D01*
X146096711Y-99264721D01*
X146089395Y-99227941D01*
X146096712Y-99210278D01*
X146135240Y-99152617D01*
X146150500Y-99075901D01*
X146150499Y-98899100D01*
X146135240Y-98822383D01*
X146124143Y-98805775D01*
X146083258Y-98744584D01*
X146075000Y-98717362D01*
X146075000Y-97865000D01*
X146009000Y-97865000D01*
X145974352Y-97850648D01*
X145960000Y-97816000D01*
X145960000Y-97049000D01*
X145974352Y-97014352D01*
X146009000Y-97000000D01*
X146411000Y-97000000D01*
X146445648Y-97014352D01*
X146460000Y-97049000D01*
X146460000Y-97247697D01*
X146453435Y-97272197D01*
X146419979Y-97330142D01*
X146419979Y-97330144D01*
X146399500Y-97406570D01*
X146399500Y-97792942D01*
X146395854Y-97811490D01*
X146393985Y-97816059D01*
X146389760Y-97822383D01*
X146388207Y-97830186D01*
X146386424Y-97834548D01*
X146376291Y-97844771D01*
X146368295Y-97856741D01*
X146362767Y-97858417D01*
X146360024Y-97861186D01*
X146353546Y-97861215D01*
X146341070Y-97865000D01*
X146325000Y-97865000D01*
X146325000Y-99234124D01*
X146325001Y-99234125D01*
X146409341Y-99223022D01*
X146546172Y-99166345D01*
X146546177Y-99166342D01*
X146663677Y-99076181D01*
X146755248Y-98956843D01*
X146786145Y-98939004D01*
X146786039Y-98938468D01*
X146787617Y-98938153D01*
X146787727Y-98938091D01*
X146788217Y-98938034D01*
X146788392Y-98937999D01*
X146788400Y-98937999D01*
X146865117Y-98922740D01*
X146922778Y-98884211D01*
X146959559Y-98876895D01*
X146977219Y-98884210D01*
X147034883Y-98922740D01*
X147111599Y-98938000D01*
X147288400Y-98937999D01*
X147365117Y-98922740D01*
X147422778Y-98884211D01*
X147459559Y-98876895D01*
X147477219Y-98884210D01*
X147534883Y-98922740D01*
X147611599Y-98938000D01*
X147788400Y-98937999D01*
X147865117Y-98922740D01*
X147922778Y-98884211D01*
X147959559Y-98876895D01*
X147977219Y-98884210D01*
X148034883Y-98922740D01*
X148111599Y-98938000D01*
X148288400Y-98937999D01*
X148365117Y-98922740D01*
X148422778Y-98884211D01*
X148459559Y-98876895D01*
X148477219Y-98884210D01*
X148534883Y-98922740D01*
X148611599Y-98938000D01*
X148788400Y-98937999D01*
X148865117Y-98922740D01*
X148922778Y-98884211D01*
X148959559Y-98876895D01*
X148977219Y-98884210D01*
X149034883Y-98922740D01*
X149111599Y-98938000D01*
X149288400Y-98937999D01*
X149365117Y-98922740D01*
X149422778Y-98884211D01*
X149459559Y-98876895D01*
X149477219Y-98884210D01*
X149534883Y-98922740D01*
X149534885Y-98922741D01*
X149572125Y-98930148D01*
X149611599Y-98938000D01*
X149700499Y-98937999D01*
X149735148Y-98952350D01*
X149749500Y-98986998D01*
X149749500Y-99075896D01*
X149764760Y-99152617D01*
X149764761Y-99152620D01*
X149803286Y-99210278D01*
X149810602Y-99247060D01*
X149803286Y-99264722D01*
X149764759Y-99322383D01*
X149749500Y-99399095D01*
X149749500Y-99575896D01*
X149764760Y-99652617D01*
X149764761Y-99652620D01*
X149803286Y-99710278D01*
X149810602Y-99747060D01*
X149803286Y-99764722D01*
X149764759Y-99822383D01*
X149749500Y-99899095D01*
X149749500Y-100075896D01*
X149764760Y-100152617D01*
X149764761Y-100152620D01*
X149803286Y-100210278D01*
X149810602Y-100247060D01*
X149803286Y-100264722D01*
X149764759Y-100322383D01*
X149749500Y-100399095D01*
X149749500Y-100575896D01*
X149764760Y-100652617D01*
X149764761Y-100652620D01*
X149803286Y-100710278D01*
X149810602Y-100747060D01*
X149803286Y-100764722D01*
X149764759Y-100822383D01*
X149749500Y-100899095D01*
X149749500Y-101075896D01*
X149764760Y-101152617D01*
X149764761Y-101152620D01*
X149803286Y-101210278D01*
X149810602Y-101247060D01*
X149803286Y-101264722D01*
X149764759Y-101322383D01*
X149749500Y-101399095D01*
X149749500Y-101575896D01*
X149764760Y-101652617D01*
X149764761Y-101652620D01*
X149803286Y-101710278D01*
X149810602Y-101747060D01*
X149803286Y-101764722D01*
X149764759Y-101822383D01*
X149749500Y-101899095D01*
X149749500Y-102075896D01*
X149764760Y-102152617D01*
X149764761Y-102152620D01*
X149803286Y-102210278D01*
X149810602Y-102247060D01*
X149803286Y-102264722D01*
X149764759Y-102322383D01*
X149749500Y-102399095D01*
X149749500Y-102575896D01*
X149757910Y-102618180D01*
X149764760Y-102652617D01*
X149816743Y-102730415D01*
X149825000Y-102757635D01*
X149825000Y-103535000D01*
X149891000Y-103535000D01*
X149925648Y-103549352D01*
X149940000Y-103584000D01*
X149940000Y-105204505D01*
X150086195Y-105162032D01*
X150156582Y-105120404D01*
X150193711Y-105115119D01*
X150223702Y-105137636D01*
X150223948Y-105138057D01*
X150249500Y-105182314D01*
X150342686Y-105275500D01*
X150383041Y-105298799D01*
X150456811Y-105341391D01*
X150456813Y-105341391D01*
X150456814Y-105341392D01*
X150557207Y-105368292D01*
X150584104Y-105375499D01*
X150584105Y-105375500D01*
X150584108Y-105375500D01*
X150715895Y-105375500D01*
X150715895Y-105375499D01*
X150843186Y-105341392D01*
X150850016Y-105337449D01*
X150888058Y-105315485D01*
X150957314Y-105275500D01*
X151050500Y-105182314D01*
X151107563Y-105083478D01*
X151116391Y-105068188D01*
X151116391Y-105068187D01*
X151116392Y-105068186D01*
X151150499Y-104940895D01*
X151150500Y-104940895D01*
X151150500Y-104809105D01*
X151150499Y-104809104D01*
X151119975Y-104695184D01*
X151122898Y-104661790D01*
X151122903Y-104661778D01*
X151123972Y-104659487D01*
X151130500Y-104609901D01*
X151130499Y-104190100D01*
X151123972Y-104140513D01*
X151073224Y-104031684D01*
X151073223Y-104031683D01*
X151073222Y-104031681D01*
X150988317Y-103946776D01*
X150978789Y-103942333D01*
X150953454Y-103914682D01*
X150950500Y-103897925D01*
X150950500Y-102756888D01*
X150958758Y-102729665D01*
X150990593Y-102682019D01*
X151021774Y-102661186D01*
X151058557Y-102668502D01*
X151078664Y-102696562D01*
X151103496Y-102789235D01*
X151103497Y-102789239D01*
X151152707Y-102874471D01*
X151159515Y-102886263D01*
X151238737Y-102965485D01*
X151272233Y-102984824D01*
X151335760Y-103021502D01*
X151335762Y-103021502D01*
X151335763Y-103021503D01*
X151404295Y-103039866D01*
X151443978Y-103050499D01*
X151443979Y-103050500D01*
X151443982Y-103050500D01*
X151556021Y-103050500D01*
X151556021Y-103050499D01*
X151664237Y-103021503D01*
X151670085Y-103018127D01*
X151677237Y-103013997D01*
X151761263Y-102965485D01*
X151840485Y-102886263D01*
X151896503Y-102789237D01*
X151925499Y-102681021D01*
X151925500Y-102681021D01*
X151925500Y-102568980D01*
X151922526Y-102557882D01*
X151927420Y-102520700D01*
X151957173Y-102497869D01*
X151994355Y-102502763D01*
X152004504Y-102510551D01*
X156085148Y-106591195D01*
X156099500Y-106625843D01*
X156099500Y-107390774D01*
X156085148Y-107425422D01*
X156071210Y-107435182D01*
X156069597Y-107435933D01*
X156069595Y-107435935D01*
X155985936Y-107519593D01*
X155985935Y-107519595D01*
X155934409Y-107630093D01*
X155906759Y-107655430D01*
X155869292Y-107653794D01*
X155845591Y-107630093D01*
X155835995Y-107609515D01*
X155794065Y-107519596D01*
X155794064Y-107519595D01*
X155794063Y-107519593D01*
X155710406Y-107435936D01*
X155710404Y-107435935D01*
X155680499Y-107421990D01*
X155603174Y-107385932D01*
X155593401Y-107384645D01*
X155554316Y-107379500D01*
X155205684Y-107379500D01*
X155173112Y-107383788D01*
X155156825Y-107385932D01*
X155156824Y-107385933D01*
X155049595Y-107435935D01*
X155049593Y-107435936D01*
X154975383Y-107510148D01*
X154940735Y-107524500D01*
X154918979Y-107524500D01*
X154810764Y-107553496D01*
X154810760Y-107553497D01*
X154713736Y-107609515D01*
X154713736Y-107609516D01*
X154634516Y-107688736D01*
X154634515Y-107688736D01*
X154578497Y-107785760D01*
X154578496Y-107785764D01*
X154549500Y-107893978D01*
X154549500Y-108006021D01*
X154578496Y-108114235D01*
X154578497Y-108114239D01*
X154619454Y-108185177D01*
X154634515Y-108211263D01*
X154713737Y-108290485D01*
X154749249Y-108310988D01*
X154810760Y-108346502D01*
X154810762Y-108346502D01*
X154810763Y-108346503D01*
X154828285Y-108351198D01*
X154848829Y-108356703D01*
X154878582Y-108379533D01*
X154883477Y-108416715D01*
X154870795Y-108438681D01*
X154524329Y-108785148D01*
X154489681Y-108799500D01*
X154191738Y-108799500D01*
X154123605Y-108809427D01*
X154123603Y-108809428D01*
X154018519Y-108860801D01*
X154018515Y-108860803D01*
X153935803Y-108943515D01*
X153935801Y-108943519D01*
X153919021Y-108977843D01*
X153890910Y-109002667D01*
X153853479Y-109000343D01*
X153830979Y-108977843D01*
X153828591Y-108972960D01*
X153814198Y-108943517D01*
X153731483Y-108860802D01*
X153628754Y-108810581D01*
X153626396Y-108809428D01*
X153626394Y-108809427D01*
X153558262Y-108799500D01*
X153558260Y-108799500D01*
X153191740Y-108799500D01*
X153191738Y-108799500D01*
X153123605Y-108809427D01*
X153123603Y-108809428D01*
X153018519Y-108860801D01*
X153018515Y-108860803D01*
X152935803Y-108943515D01*
X152935801Y-108943519D01*
X152884428Y-109048603D01*
X152884427Y-109048605D01*
X152874500Y-109116738D01*
X152874500Y-110433261D01*
X152875000Y-110436691D01*
X152884427Y-110501393D01*
X152897255Y-110527633D01*
X152900563Y-110561835D01*
X152874500Y-110659104D01*
X152874500Y-110790895D01*
X152908607Y-110918184D01*
X152908608Y-110918188D01*
X152945071Y-110981342D01*
X152949966Y-111018524D01*
X152927136Y-111048277D01*
X152889954Y-111053172D01*
X152876912Y-111047547D01*
X152744122Y-110965642D01*
X152577693Y-110910493D01*
X152474981Y-110900000D01*
X152325000Y-110900000D01*
X152325000Y-112050000D01*
X153174999Y-112050000D01*
X153174999Y-111600019D01*
X153174999Y-111600018D01*
X156575000Y-111600018D01*
X156575000Y-112050000D01*
X157425000Y-112050000D01*
X157925000Y-112050000D01*
X158774999Y-112050000D01*
X158774999Y-111600019D01*
X158764506Y-111497306D01*
X158709357Y-111330877D01*
X158617317Y-111181656D01*
X158493343Y-111057682D01*
X158344122Y-110965642D01*
X158177693Y-110910493D01*
X158074981Y-110900000D01*
X157925000Y-110900000D01*
X157925000Y-112050000D01*
X157425000Y-112050000D01*
X157425000Y-110900000D01*
X157275019Y-110900000D01*
X157172306Y-110910493D01*
X157005877Y-110965642D01*
X156856656Y-111057682D01*
X156732682Y-111181656D01*
X156640642Y-111330877D01*
X156585493Y-111497306D01*
X156575000Y-111600018D01*
X153174999Y-111600018D01*
X153164506Y-111497306D01*
X153109357Y-111330877D01*
X153037573Y-111214497D01*
X153031599Y-111177473D01*
X153053554Y-111147068D01*
X153090578Y-111141094D01*
X153103778Y-111146338D01*
X153181811Y-111191391D01*
X153181813Y-111191391D01*
X153181814Y-111191392D01*
X153268044Y-111214497D01*
X153309104Y-111225499D01*
X153309105Y-111225500D01*
X153309108Y-111225500D01*
X153440895Y-111225500D01*
X153440895Y-111225499D01*
X153568186Y-111191392D01*
X153682314Y-111125500D01*
X153775500Y-111032314D01*
X153841392Y-110918186D01*
X153875499Y-110790895D01*
X153875500Y-110790895D01*
X153875500Y-110664477D01*
X153889852Y-110629829D01*
X153924500Y-110615477D01*
X153959148Y-110629829D01*
X154018517Y-110689198D01*
X154123607Y-110740573D01*
X154171884Y-110747606D01*
X154191738Y-110750500D01*
X154191740Y-110750500D01*
X154558262Y-110750500D01*
X154571886Y-110748514D01*
X154626393Y-110740573D01*
X154626406Y-110740566D01*
X154627358Y-110740273D01*
X154628023Y-110740334D01*
X154630158Y-110740024D01*
X154630233Y-110740540D01*
X154664700Y-110743750D01*
X154684008Y-110762144D01*
X154707313Y-110801551D01*
X154707317Y-110801556D01*
X154823443Y-110917682D01*
X154823448Y-110917686D01*
X154964798Y-111001280D01*
X155122510Y-111047100D01*
X155124999Y-111047296D01*
X155125000Y-111047295D01*
X155125000Y-109824000D01*
X155139352Y-109789352D01*
X155174000Y-109775000D01*
X155576000Y-109775000D01*
X155610648Y-109789352D01*
X155625000Y-109824000D01*
X155625000Y-111047296D01*
X155627488Y-111047100D01*
X155627491Y-111047100D01*
X155785201Y-111001280D01*
X155926551Y-110917686D01*
X155926556Y-110917682D01*
X156042680Y-110801558D01*
X156065989Y-110762145D01*
X156095980Y-110739628D01*
X156119816Y-110740202D01*
X156119842Y-110740024D01*
X156121313Y-110740238D01*
X156122625Y-110740270D01*
X156123602Y-110740572D01*
X156123606Y-110740572D01*
X156123607Y-110740573D01*
X156156465Y-110745360D01*
X156191738Y-110750500D01*
X156191740Y-110750500D01*
X156558262Y-110750500D01*
X156575590Y-110747974D01*
X156626393Y-110740573D01*
X156731483Y-110689198D01*
X156814198Y-110606483D01*
X156865573Y-110501393D01*
X156875000Y-110436691D01*
X156875500Y-110433261D01*
X156875500Y-109719767D01*
X156889852Y-109685119D01*
X157575459Y-108999512D01*
X157575460Y-108999511D01*
X157607788Y-108943517D01*
X157615021Y-108930989D01*
X157635500Y-108854562D01*
X157635500Y-108409226D01*
X157649852Y-108374578D01*
X157663794Y-108364816D01*
X157664334Y-108364563D01*
X157665404Y-108364065D01*
X157749065Y-108280404D01*
X157799068Y-108173173D01*
X157799068Y-108173171D01*
X157800591Y-108169906D01*
X157828241Y-108144569D01*
X157865708Y-108146205D01*
X157889409Y-108169906D01*
X157890931Y-108173171D01*
X157890932Y-108173173D01*
X157910002Y-108214068D01*
X157940935Y-108280404D01*
X157940936Y-108280406D01*
X158024593Y-108364063D01*
X158024595Y-108364064D01*
X158024596Y-108364065D01*
X158131827Y-108414068D01*
X158180684Y-108420500D01*
X158180687Y-108420500D01*
X158529312Y-108420500D01*
X158529316Y-108420500D01*
X158578173Y-108414068D01*
X158685404Y-108364065D01*
X158709617Y-108339851D01*
X158744264Y-108325500D01*
X158806021Y-108325500D01*
X158806021Y-108325499D01*
X158914237Y-108296503D01*
X158924661Y-108290485D01*
X158942118Y-108280406D01*
X159011263Y-108240485D01*
X159090485Y-108161263D01*
X159146503Y-108064237D01*
X159175499Y-107956021D01*
X159175500Y-107956021D01*
X159175500Y-107843979D01*
X159175499Y-107843978D01*
X159160255Y-107787087D01*
X159146503Y-107735763D01*
X159146502Y-107735762D01*
X159146502Y-107735760D01*
X159102124Y-107658897D01*
X159090485Y-107638737D01*
X159011263Y-107559515D01*
X159000838Y-107553496D01*
X158914239Y-107503497D01*
X158914235Y-107503496D01*
X158806021Y-107474500D01*
X158806018Y-107474500D01*
X158744265Y-107474500D01*
X158709617Y-107460148D01*
X158685404Y-107435935D01*
X158685403Y-107435934D01*
X158578175Y-107385933D01*
X158578174Y-107385932D01*
X158568401Y-107384645D01*
X158529316Y-107379500D01*
X158180684Y-107379500D01*
X158148112Y-107383788D01*
X158131825Y-107385932D01*
X158131824Y-107385933D01*
X158024595Y-107435935D01*
X158024593Y-107435936D01*
X157940936Y-107519593D01*
X157940935Y-107519595D01*
X157889409Y-107630093D01*
X157861759Y-107655430D01*
X157824292Y-107653794D01*
X157800591Y-107630093D01*
X157790995Y-107609515D01*
X157749065Y-107519596D01*
X157749064Y-107519595D01*
X157749063Y-107519593D01*
X157665404Y-107435935D01*
X157665402Y-107435933D01*
X157663790Y-107435182D01*
X157662825Y-107434129D01*
X157661891Y-107433475D01*
X157662036Y-107433267D01*
X157638454Y-107407531D01*
X157635500Y-107390774D01*
X157635500Y-106695436D01*
X157626843Y-106663134D01*
X157615021Y-106619011D01*
X157615020Y-106619009D01*
X157615020Y-106619008D01*
X157575459Y-106550488D01*
X153184119Y-102159148D01*
X153169767Y-102124500D01*
X153184119Y-102089852D01*
X153218767Y-102075500D01*
X153331021Y-102075500D01*
X153331021Y-102075499D01*
X153439237Y-102046503D01*
X153445738Y-102042750D01*
X153481684Y-102021996D01*
X153536263Y-101990485D01*
X153615485Y-101911263D01*
X153671503Y-101814237D01*
X153700499Y-101706021D01*
X153700500Y-101706021D01*
X153700500Y-101593979D01*
X153700499Y-101593978D01*
X153689658Y-101553518D01*
X153671503Y-101485763D01*
X153671502Y-101485762D01*
X153671502Y-101485760D01*
X153628627Y-101411500D01*
X153615485Y-101388737D01*
X153536263Y-101309515D01*
X153520649Y-101300500D01*
X153439239Y-101253497D01*
X153439235Y-101253496D01*
X153331021Y-101224500D01*
X153331018Y-101224500D01*
X153218982Y-101224500D01*
X153197073Y-101230370D01*
X153128588Y-101248720D01*
X153091406Y-101243824D01*
X153081258Y-101236037D01*
X152604369Y-100759148D01*
X152590017Y-100724500D01*
X152604369Y-100689852D01*
X152639017Y-100675500D01*
X152656021Y-100675500D01*
X152656021Y-100675499D01*
X152764237Y-100646503D01*
X152774661Y-100640485D01*
X152777237Y-100638997D01*
X152861263Y-100590485D01*
X152940485Y-100511263D01*
X152988997Y-100427237D01*
X152996502Y-100414239D01*
X152996502Y-100414238D01*
X152996503Y-100414237D01*
X153025499Y-100306021D01*
X153025500Y-100306021D01*
X153025500Y-100193979D01*
X153025499Y-100193978D01*
X153009900Y-100135763D01*
X152996503Y-100085763D01*
X152996502Y-100085762D01*
X152996502Y-100085760D01*
X152960988Y-100024249D01*
X152940485Y-99988737D01*
X152861263Y-99909515D01*
X152809163Y-99879435D01*
X152786333Y-99849682D01*
X152791228Y-99812500D01*
X152820981Y-99789670D01*
X152833663Y-99788000D01*
X153852733Y-99788000D01*
X153887381Y-99802352D01*
X157809540Y-103724511D01*
X157865489Y-103780460D01*
X157934011Y-103820021D01*
X157969478Y-103829524D01*
X158010436Y-103840500D01*
X158010438Y-103840500D01*
X161433515Y-103840500D01*
X161468163Y-103854852D01*
X161478077Y-103869689D01*
X161478088Y-103869684D01*
X161478145Y-103869791D01*
X161478784Y-103870748D01*
X161479225Y-103871811D01*
X161496674Y-103897925D01*
X161555883Y-103986539D01*
X161653460Y-104084116D01*
X161694938Y-104111830D01*
X161768189Y-104160775D01*
X161895672Y-104213580D01*
X161895678Y-104213581D01*
X161895681Y-104213582D01*
X162031001Y-104240499D01*
X162031007Y-104240500D01*
X162168993Y-104240500D01*
X162304328Y-104213580D01*
X162431811Y-104160775D01*
X162546542Y-104084114D01*
X162588322Y-104042333D01*
X162622967Y-104027983D01*
X162657616Y-104042334D01*
X162671026Y-104067423D01*
X162681132Y-104118229D01*
X162681132Y-104118230D01*
X162681133Y-104118231D01*
X162687531Y-104127806D01*
X162725447Y-104184552D01*
X162752012Y-104202301D01*
X162791769Y-104228867D01*
X162850252Y-104240500D01*
X162850255Y-104240500D01*
X163889745Y-104240500D01*
X163889748Y-104240500D01*
X163948231Y-104228867D01*
X164014552Y-104184552D01*
X164058867Y-104118231D01*
X164070500Y-104059748D01*
X164070500Y-103020252D01*
X164058867Y-102961769D01*
X164030440Y-102919225D01*
X164014552Y-102895447D01*
X163968056Y-102864380D01*
X163948231Y-102851133D01*
X163889748Y-102839500D01*
X163606243Y-102839500D01*
X163571595Y-102825148D01*
X163366458Y-102620012D01*
X163416080Y-102620012D01*
X163505099Y-102596159D01*
X163584912Y-102550079D01*
X163650079Y-102484912D01*
X163696159Y-102405099D01*
X163720012Y-102316080D01*
X163720012Y-102269999D01*
X163723553Y-102269999D01*
X163723553Y-102270000D01*
X164232572Y-102779019D01*
X164256191Y-102743672D01*
X164331570Y-102561690D01*
X164331570Y-102561689D01*
X164370000Y-102368487D01*
X164370000Y-102171512D01*
X164331570Y-101978310D01*
X164331570Y-101978309D01*
X164256190Y-101796324D01*
X164232572Y-101760978D01*
X163723553Y-102269999D01*
X163720012Y-102269999D01*
X163720012Y-102223920D01*
X163696159Y-102134901D01*
X163650079Y-102055088D01*
X163584912Y-101989921D01*
X163505099Y-101943841D01*
X163416080Y-101919988D01*
X163323920Y-101919988D01*
X163234901Y-101943841D01*
X163155088Y-101989921D01*
X163089921Y-102055088D01*
X163043841Y-102134901D01*
X163019988Y-102223920D01*
X163019988Y-102273541D01*
X162753221Y-102006774D01*
X162742599Y-101990877D01*
X162726156Y-101951180D01*
X162720775Y-101938189D01*
X162660422Y-101847864D01*
X162644116Y-101823460D01*
X162546539Y-101725883D01*
X162471496Y-101675742D01*
X162466080Y-101667636D01*
X162457977Y-101662222D01*
X162456075Y-101652664D01*
X162450661Y-101644560D01*
X162452562Y-101635000D01*
X163088553Y-101635000D01*
X163369999Y-101916446D01*
X163651446Y-101635000D01*
X163651446Y-101634999D01*
X163370001Y-101353553D01*
X163370000Y-101353553D01*
X163088553Y-101635000D01*
X162452562Y-101635000D01*
X162452562Y-101634999D01*
X162450661Y-101625440D01*
X162456075Y-101617336D01*
X162457977Y-101607777D01*
X162471497Y-101594258D01*
X162501867Y-101573965D01*
X162501872Y-101573962D01*
X162546539Y-101544116D01*
X162546538Y-101544116D01*
X162546542Y-101544114D01*
X162644114Y-101446542D01*
X162720775Y-101331811D01*
X162742601Y-101279117D01*
X162753221Y-101263224D01*
X163019988Y-100996457D01*
X163019988Y-101046080D01*
X163043841Y-101135099D01*
X163089921Y-101214912D01*
X163155088Y-101280079D01*
X163234901Y-101326159D01*
X163323920Y-101350012D01*
X163416080Y-101350012D01*
X163505099Y-101326159D01*
X163584912Y-101280079D01*
X163650079Y-101214912D01*
X163696159Y-101135099D01*
X163720012Y-101046080D01*
X163720012Y-100999999D01*
X163723553Y-100999999D01*
X163723553Y-101000000D01*
X164232572Y-101509019D01*
X164256191Y-101473672D01*
X164331570Y-101291690D01*
X164331570Y-101291689D01*
X164370000Y-101098487D01*
X164370000Y-100901512D01*
X164331570Y-100708310D01*
X164331570Y-100708309D01*
X164256190Y-100526324D01*
X164232572Y-100490978D01*
X163723553Y-100999999D01*
X163720012Y-100999999D01*
X163720012Y-100953920D01*
X163696159Y-100864901D01*
X163650079Y-100785088D01*
X163584912Y-100719921D01*
X163505099Y-100673841D01*
X163416080Y-100649988D01*
X163366458Y-100649988D01*
X163633224Y-100383221D01*
X163649117Y-100372601D01*
X163701811Y-100350775D01*
X163816542Y-100274114D01*
X163914114Y-100176542D01*
X163990775Y-100061811D01*
X164043580Y-99934328D01*
X164070500Y-99798993D01*
X164070500Y-99661007D01*
X164068831Y-99652615D01*
X164043582Y-99525681D01*
X164043579Y-99525670D01*
X163990775Y-99398189D01*
X163937111Y-99317875D01*
X163914116Y-99283460D01*
X163816539Y-99185883D01*
X163701810Y-99109224D01*
X163649120Y-99087399D01*
X163633224Y-99076777D01*
X163366458Y-98810012D01*
X163416080Y-98810012D01*
X163505099Y-98786159D01*
X163584912Y-98740079D01*
X163650079Y-98674912D01*
X163696159Y-98595099D01*
X163720012Y-98506080D01*
X163720012Y-98459999D01*
X163723553Y-98459999D01*
X163723553Y-98460000D01*
X164232572Y-98969019D01*
X164256191Y-98933672D01*
X164331570Y-98751690D01*
X164331570Y-98751689D01*
X164370000Y-98558487D01*
X164370000Y-98361512D01*
X164331570Y-98168310D01*
X164331570Y-98168309D01*
X164256190Y-97986324D01*
X164232572Y-97950978D01*
X163723553Y-98459999D01*
X163720012Y-98459999D01*
X163720012Y-98413920D01*
X163696159Y-98324901D01*
X163650079Y-98245088D01*
X163584912Y-98179921D01*
X163505099Y-98133841D01*
X163416080Y-98109988D01*
X163323920Y-98109988D01*
X163234901Y-98133841D01*
X163155088Y-98179921D01*
X163089921Y-98245088D01*
X163043841Y-98324901D01*
X163019988Y-98413920D01*
X163019988Y-98463541D01*
X162753221Y-98196774D01*
X162742599Y-98180877D01*
X162730684Y-98152112D01*
X162720775Y-98128189D01*
X162674613Y-98059102D01*
X162644116Y-98013460D01*
X162546539Y-97915883D01*
X162470386Y-97865000D01*
X162431811Y-97839225D01*
X162431808Y-97839223D01*
X162431807Y-97839223D01*
X162304329Y-97786420D01*
X162304318Y-97786417D01*
X162168998Y-97759500D01*
X162168993Y-97759500D01*
X162031007Y-97759500D01*
X162031001Y-97759500D01*
X161895681Y-97786417D01*
X161895670Y-97786420D01*
X161768192Y-97839223D01*
X161653460Y-97915883D01*
X161555883Y-98013460D01*
X161479225Y-98128189D01*
X161478786Y-98129250D01*
X161478510Y-98129525D01*
X161478088Y-98130316D01*
X161477848Y-98130187D01*
X161452268Y-98155770D01*
X161433515Y-98159500D01*
X158404767Y-98159500D01*
X158370119Y-98145148D01*
X157822396Y-97597425D01*
X162860979Y-97597425D01*
X162860979Y-97597426D01*
X163369999Y-98106446D01*
X163879020Y-97597426D01*
X163843677Y-97573810D01*
X163661689Y-97498429D01*
X163468488Y-97460000D01*
X163271512Y-97460000D01*
X163078310Y-97498429D01*
X163078309Y-97498429D01*
X162896321Y-97573810D01*
X162860979Y-97597425D01*
X157822396Y-97597425D01*
X157084513Y-96859542D01*
X157084507Y-96859537D01*
X157073571Y-96853224D01*
X157073571Y-96853223D01*
X157073569Y-96853223D01*
X157015991Y-96819979D01*
X157015987Y-96819978D01*
X156939564Y-96799500D01*
X156939562Y-96799500D01*
X149668663Y-96799500D01*
X149634015Y-96785148D01*
X149619663Y-96750500D01*
X149628370Y-96722617D01*
X149630886Y-96718980D01*
X149640460Y-96709407D01*
X149654298Y-96685438D01*
X149680021Y-96640885D01*
X149700500Y-96564458D01*
X149700500Y-96521544D01*
X149714852Y-96486896D01*
X149740484Y-96461264D01*
X149740485Y-96461263D01*
X149796503Y-96364237D01*
X149825499Y-96256021D01*
X149825500Y-96256021D01*
X149825500Y-96143979D01*
X149825499Y-96143978D01*
X149810607Y-96088400D01*
X149796503Y-96035763D01*
X149796502Y-96035762D01*
X149796502Y-96035760D01*
X149751423Y-95957682D01*
X149740485Y-95938737D01*
X149661263Y-95859515D01*
X149564239Y-95803497D01*
X149564235Y-95803496D01*
X149456021Y-95774500D01*
X149456018Y-95774500D01*
X149343982Y-95774500D01*
X149343979Y-95774500D01*
X149235764Y-95803496D01*
X149235760Y-95803497D01*
X149138736Y-95859515D01*
X149138736Y-95859516D01*
X149084148Y-95914104D01*
X149049500Y-95928456D01*
X149014852Y-95914104D01*
X149000500Y-95879456D01*
X149000500Y-95468824D01*
X149014852Y-95434176D01*
X149334176Y-95114852D01*
X149368824Y-95100500D01*
X155689564Y-95100500D01*
X155716230Y-95093354D01*
X155765989Y-95080021D01*
X155768702Y-95078455D01*
X155793324Y-95064239D01*
X155834511Y-95040460D01*
X155890460Y-94984511D01*
X156290119Y-94584852D01*
X156324767Y-94570500D01*
X156574312Y-94570500D01*
X156574316Y-94570500D01*
X156623173Y-94564068D01*
X156730404Y-94514065D01*
X156814065Y-94430404D01*
X156823091Y-94411046D01*
X156850740Y-94385710D01*
X156888208Y-94387346D01*
X156911909Y-94411047D01*
X156920935Y-94430405D01*
X157004593Y-94514063D01*
X157004595Y-94514064D01*
X157004596Y-94514065D01*
X157111827Y-94564068D01*
X157160684Y-94570500D01*
X157160687Y-94570500D01*
X157509312Y-94570500D01*
X157509316Y-94570500D01*
X157558173Y-94564068D01*
X157665404Y-94514065D01*
X157749065Y-94430404D01*
X157799068Y-94323173D01*
X157799068Y-94323171D01*
X157800591Y-94319906D01*
X157828241Y-94294569D01*
X157865708Y-94296205D01*
X157889409Y-94319906D01*
X157890931Y-94323171D01*
X157890932Y-94323173D01*
X157928029Y-94402727D01*
X157940935Y-94430404D01*
X157940936Y-94430406D01*
X158024593Y-94514063D01*
X158024595Y-94514064D01*
X158024596Y-94514065D01*
X158131827Y-94564068D01*
X158180684Y-94570500D01*
X158180687Y-94570500D01*
X158529312Y-94570500D01*
X158529316Y-94570500D01*
X158578173Y-94564068D01*
X158685404Y-94514065D01*
X158769065Y-94430404D01*
X158819068Y-94323173D01*
X158825500Y-94274316D01*
X158825500Y-93825684D01*
X158819068Y-93776827D01*
X158781552Y-93696376D01*
X158778633Y-93662984D01*
X158780500Y-93656018D01*
X158780500Y-93543979D01*
X158780499Y-93543978D01*
X158774371Y-93521111D01*
X158751503Y-93435763D01*
X158751502Y-93435762D01*
X158751502Y-93435760D01*
X158707269Y-93359148D01*
X158695485Y-93338737D01*
X158616263Y-93259515D01*
X158519239Y-93203497D01*
X158519235Y-93203496D01*
X158411021Y-93174500D01*
X158411018Y-93174500D01*
X158298982Y-93174500D01*
X158298979Y-93174500D01*
X158190764Y-93203496D01*
X158190760Y-93203497D01*
X158093736Y-93259515D01*
X158093736Y-93259516D01*
X158014516Y-93338736D01*
X158014515Y-93338736D01*
X157958497Y-93435760D01*
X157958496Y-93435764D01*
X157929500Y-93543978D01*
X157929500Y-93656021D01*
X157931367Y-93662991D01*
X157928445Y-93696378D01*
X157889408Y-93780093D01*
X157861758Y-93805430D01*
X157824291Y-93803794D01*
X157800590Y-93780093D01*
X157799068Y-93776829D01*
X157799068Y-93776827D01*
X157749065Y-93669596D01*
X157749064Y-93669595D01*
X157749063Y-93669593D01*
X157665404Y-93585935D01*
X157665402Y-93585933D01*
X157663790Y-93585182D01*
X157662825Y-93584129D01*
X157661891Y-93583475D01*
X157662036Y-93583267D01*
X157638454Y-93557531D01*
X157635500Y-93540774D01*
X157635500Y-91679884D01*
X157622769Y-91632376D01*
X157615021Y-91603459D01*
X157615020Y-91603457D01*
X157615020Y-91603456D01*
X157575459Y-91534936D01*
X157166921Y-91126398D01*
X157152569Y-91091750D01*
X157166921Y-91057102D01*
X157201569Y-91042750D01*
X157206550Y-91043004D01*
X157275019Y-91049999D01*
X157424999Y-91049999D01*
X157925000Y-91049999D01*
X158074980Y-91049999D01*
X158177693Y-91039506D01*
X158344122Y-90984357D01*
X158493343Y-90892317D01*
X158617317Y-90768343D01*
X158709357Y-90619122D01*
X158764506Y-90452693D01*
X158775000Y-90349981D01*
X158775000Y-89900000D01*
X157925000Y-89900000D01*
X157925000Y-91049999D01*
X157424999Y-91049999D01*
X157425000Y-91049998D01*
X157425000Y-89900000D01*
X156575001Y-89900000D01*
X156575001Y-90349981D01*
X156581995Y-90418451D01*
X156571239Y-90454378D01*
X156538228Y-90472176D01*
X156502301Y-90461420D01*
X156498601Y-90458078D01*
X156250063Y-90209540D01*
X156181542Y-90169979D01*
X156105116Y-90149500D01*
X156105114Y-90149500D01*
X154289562Y-90149500D01*
X153224000Y-90149500D01*
X153189352Y-90135148D01*
X153175000Y-90100500D01*
X153175000Y-89900000D01*
X150975001Y-89900000D01*
X150975001Y-90349980D01*
X150985493Y-90452693D01*
X151040642Y-90619122D01*
X151132682Y-90768343D01*
X151256656Y-90892317D01*
X151405877Y-90984357D01*
X151572306Y-91039506D01*
X151675018Y-91049999D01*
X151916476Y-91049999D01*
X151951124Y-91064351D01*
X151965476Y-91098999D01*
X151951124Y-91133647D01*
X150174310Y-92910462D01*
X150139662Y-92924814D01*
X150105014Y-92910462D01*
X150092332Y-92888496D01*
X150071503Y-92810764D01*
X150071502Y-92810760D01*
X150015484Y-92713736D01*
X149936263Y-92634515D01*
X149839239Y-92578497D01*
X149839235Y-92578496D01*
X149731021Y-92549500D01*
X149731018Y-92549500D01*
X149618982Y-92549500D01*
X149618979Y-92549500D01*
X149510764Y-92578496D01*
X149510760Y-92578497D01*
X149413736Y-92634515D01*
X149413736Y-92634516D01*
X149388104Y-92660148D01*
X149353456Y-92674500D01*
X146963845Y-92674500D01*
X146929197Y-92660148D01*
X146914845Y-92625500D01*
X146921410Y-92601000D01*
X146971502Y-92514239D01*
X146971502Y-92514238D01*
X146971503Y-92514237D01*
X147000499Y-92406021D01*
X147000500Y-92406021D01*
X147000500Y-92293979D01*
X147000499Y-92293978D01*
X146971503Y-92185764D01*
X146971502Y-92185760D01*
X146935988Y-92124249D01*
X146915485Y-92088737D01*
X146836263Y-92009515D01*
X146800784Y-91989031D01*
X146739239Y-91953497D01*
X146739235Y-91953496D01*
X146700619Y-91943149D01*
X146670866Y-91920319D01*
X146665971Y-91883137D01*
X146688801Y-91853384D01*
X146694550Y-91850549D01*
X146862598Y-91780941D01*
X147034655Y-91665977D01*
X147180977Y-91519655D01*
X147295941Y-91347598D01*
X147375130Y-91156420D01*
X147415500Y-90953465D01*
X147415500Y-90746535D01*
X147414947Y-90743753D01*
X147555000Y-90743753D01*
X147555000Y-90956246D01*
X147588241Y-91166123D01*
X147588242Y-91166126D01*
X147653905Y-91368218D01*
X147750378Y-91557556D01*
X147750380Y-91557560D01*
X147789727Y-91611716D01*
X147789728Y-91611716D01*
X148422036Y-90979407D01*
X148439075Y-91042993D01*
X148504901Y-91157007D01*
X148597993Y-91250099D01*
X148712007Y-91315925D01*
X148775591Y-91332962D01*
X148143281Y-91965271D01*
X148197440Y-92004619D01*
X148197443Y-92004621D01*
X148386781Y-92101094D01*
X148588873Y-92166757D01*
X148588876Y-92166758D01*
X148798754Y-92200000D01*
X149011246Y-92200000D01*
X149221123Y-92166758D01*
X149221126Y-92166757D01*
X149423218Y-92101094D01*
X149612553Y-92004622D01*
X149666717Y-91965271D01*
X149034408Y-91332962D01*
X149097993Y-91315925D01*
X149212007Y-91250099D01*
X149305099Y-91157007D01*
X149370925Y-91042993D01*
X149387962Y-90979408D01*
X150020271Y-91611717D01*
X150059622Y-91557553D01*
X150156094Y-91368218D01*
X150221757Y-91166126D01*
X150221758Y-91166123D01*
X150255000Y-90956246D01*
X150255000Y-90743753D01*
X150221758Y-90533876D01*
X150221757Y-90533873D01*
X150156094Y-90331781D01*
X150059621Y-90142443D01*
X150059619Y-90142440D01*
X150020271Y-90088281D01*
X149387962Y-90720590D01*
X149370925Y-90657007D01*
X149305099Y-90542993D01*
X149212007Y-90449901D01*
X149097993Y-90384075D01*
X149034407Y-90367036D01*
X149666716Y-89734728D01*
X149666716Y-89734727D01*
X149612560Y-89695380D01*
X149612556Y-89695378D01*
X149423218Y-89598905D01*
X149221126Y-89533242D01*
X149221123Y-89533241D01*
X149011246Y-89500000D01*
X148798754Y-89500000D01*
X148588876Y-89533241D01*
X148588873Y-89533242D01*
X148386781Y-89598905D01*
X148197447Y-89695376D01*
X148197442Y-89695379D01*
X148143282Y-89734727D01*
X148143282Y-89734728D01*
X148775591Y-90367037D01*
X148712007Y-90384075D01*
X148597993Y-90449901D01*
X148504901Y-90542993D01*
X148439075Y-90657007D01*
X148422037Y-90720591D01*
X147789728Y-90088282D01*
X147789727Y-90088282D01*
X147750379Y-90142442D01*
X147750376Y-90142447D01*
X147653905Y-90331781D01*
X147588242Y-90533873D01*
X147588241Y-90533876D01*
X147555000Y-90743753D01*
X147414947Y-90743753D01*
X147375130Y-90543580D01*
X147295941Y-90352402D01*
X147180977Y-90180345D01*
X147034655Y-90034023D01*
X146862598Y-89919059D01*
X146816586Y-89900000D01*
X146671423Y-89839871D01*
X146671421Y-89839870D01*
X146671420Y-89839870D01*
X146671417Y-89839869D01*
X146671408Y-89839867D01*
X146478335Y-89801462D01*
X146478329Y-89801462D01*
X146468465Y-89799500D01*
X146261535Y-89799500D01*
X146160520Y-89819592D01*
X146058582Y-89839869D01*
X146058576Y-89839871D01*
X145867403Y-89919058D01*
X145695345Y-90034022D01*
X145549022Y-90180345D01*
X145434058Y-90352403D01*
X145354871Y-90543576D01*
X145354869Y-90543582D01*
X145339844Y-90619122D01*
X145314500Y-90746535D01*
X145314500Y-90953465D01*
X145341290Y-91088150D01*
X145354869Y-91156417D01*
X145354871Y-91156423D01*
X145433453Y-91346136D01*
X145434059Y-91347598D01*
X145447837Y-91368218D01*
X145549022Y-91519654D01*
X145670220Y-91640852D01*
X145684572Y-91675500D01*
X145670220Y-91710148D01*
X145635572Y-91724500D01*
X144554428Y-91724500D01*
X144519780Y-91710148D01*
X144505428Y-91675500D01*
X144519780Y-91640852D01*
X144557176Y-91603456D01*
X144640977Y-91519655D01*
X144755941Y-91347598D01*
X144835130Y-91156420D01*
X144875500Y-90953465D01*
X144875500Y-90746535D01*
X144835130Y-90543580D01*
X144755941Y-90352402D01*
X144640977Y-90180345D01*
X144494655Y-90034023D01*
X144322598Y-89919059D01*
X144276586Y-89900000D01*
X144131423Y-89839871D01*
X144131417Y-89839869D01*
X144049572Y-89823589D01*
X143928465Y-89799500D01*
X143721535Y-89799500D01*
X143620520Y-89819592D01*
X143518582Y-89839869D01*
X143518576Y-89839871D01*
X143327403Y-89919058D01*
X143155345Y-90034022D01*
X143009022Y-90180345D01*
X142894058Y-90352403D01*
X142814871Y-90543576D01*
X142814869Y-90543582D01*
X142799844Y-90619122D01*
X142774500Y-90746535D01*
X142774500Y-90953465D01*
X142801290Y-91088150D01*
X142814869Y-91156417D01*
X142814871Y-91156423D01*
X142893453Y-91346136D01*
X142894059Y-91347598D01*
X142907837Y-91368218D01*
X143009022Y-91519654D01*
X143130220Y-91640852D01*
X143144572Y-91675500D01*
X143130220Y-91710148D01*
X143095572Y-91724500D01*
X142414497Y-91724500D01*
X142379849Y-91710148D01*
X142365497Y-91675500D01*
X142374855Y-91646698D01*
X142439624Y-91557550D01*
X142536094Y-91368218D01*
X142601757Y-91166126D01*
X142601758Y-91166123D01*
X142635000Y-90956246D01*
X142635000Y-90743753D01*
X142601758Y-90533876D01*
X142601757Y-90533873D01*
X142536094Y-90331781D01*
X142439621Y-90142443D01*
X142439619Y-90142440D01*
X142400271Y-90088281D01*
X141767962Y-90720589D01*
X141750925Y-90657007D01*
X141685099Y-90542993D01*
X141592007Y-90449901D01*
X141477993Y-90384075D01*
X141414407Y-90367036D01*
X142046716Y-89734728D01*
X142046716Y-89734727D01*
X141992560Y-89695380D01*
X141992556Y-89695378D01*
X141803218Y-89598905D01*
X141601126Y-89533242D01*
X141601123Y-89533241D01*
X141391246Y-89500000D01*
X141178754Y-89500000D01*
X140968876Y-89533241D01*
X140968873Y-89533242D01*
X140766781Y-89598905D01*
X140577447Y-89695376D01*
X140577442Y-89695379D01*
X140523282Y-89734727D01*
X140523282Y-89734728D01*
X141155591Y-90367037D01*
X141092007Y-90384075D01*
X140977993Y-90449901D01*
X140884901Y-90542993D01*
X140819075Y-90657007D01*
X140802037Y-90720591D01*
X140169728Y-90088282D01*
X140169727Y-90088282D01*
X140130379Y-90142442D01*
X140130376Y-90142447D01*
X140033905Y-90331781D01*
X139968242Y-90533873D01*
X139968241Y-90533876D01*
X139935000Y-90743753D01*
X139935000Y-90956246D01*
X139968241Y-91166123D01*
X139968242Y-91166126D01*
X140033905Y-91368218D01*
X140130375Y-91557550D01*
X140195145Y-91646698D01*
X140203900Y-91683165D01*
X140184305Y-91715142D01*
X140155503Y-91724500D01*
X139474428Y-91724500D01*
X139439780Y-91710148D01*
X139425428Y-91675500D01*
X139439780Y-91640852D01*
X139477176Y-91603456D01*
X139560977Y-91519655D01*
X139675941Y-91347598D01*
X139755130Y-91156420D01*
X139795500Y-90953465D01*
X139795500Y-90746535D01*
X139755130Y-90543580D01*
X139675941Y-90352402D01*
X139560977Y-90180345D01*
X139414655Y-90034023D01*
X139242598Y-89919059D01*
X139196586Y-89900000D01*
X139051423Y-89839871D01*
X139051421Y-89839870D01*
X139051420Y-89839870D01*
X139051417Y-89839869D01*
X139051408Y-89839867D01*
X138858335Y-89801462D01*
X138858329Y-89801462D01*
X138848465Y-89799500D01*
X138641535Y-89799500D01*
X138540520Y-89819592D01*
X138438582Y-89839869D01*
X138438576Y-89839871D01*
X138247403Y-89919058D01*
X138075345Y-90034022D01*
X137929022Y-90180345D01*
X137814058Y-90352403D01*
X137734871Y-90543576D01*
X137734869Y-90543582D01*
X137719844Y-90619122D01*
X137694500Y-90746535D01*
X137694500Y-90953465D01*
X137721290Y-91088150D01*
X137734869Y-91156417D01*
X137734871Y-91156423D01*
X137813453Y-91346136D01*
X137814059Y-91347598D01*
X137827837Y-91368218D01*
X137929022Y-91519654D01*
X138050220Y-91640852D01*
X138064572Y-91675500D01*
X138050220Y-91710148D01*
X138015572Y-91724500D01*
X137334497Y-91724500D01*
X137299849Y-91710148D01*
X137285497Y-91675500D01*
X137294855Y-91646698D01*
X137359624Y-91557550D01*
X137456094Y-91368218D01*
X137521757Y-91166126D01*
X137521758Y-91166123D01*
X137555000Y-90956246D01*
X137555000Y-90743753D01*
X137521758Y-90533876D01*
X137521757Y-90533873D01*
X137456094Y-90331781D01*
X137359621Y-90142443D01*
X137359619Y-90142440D01*
X137320271Y-90088281D01*
X136687962Y-90720589D01*
X136670925Y-90657007D01*
X136605099Y-90542993D01*
X136512007Y-90449901D01*
X136397993Y-90384075D01*
X136334407Y-90367036D01*
X136966716Y-89734728D01*
X136966716Y-89734727D01*
X136912560Y-89695380D01*
X136912556Y-89695378D01*
X136723218Y-89598905D01*
X136521126Y-89533242D01*
X136521123Y-89533241D01*
X136311246Y-89500000D01*
X136098754Y-89500000D01*
X135888876Y-89533241D01*
X135888873Y-89533242D01*
X135686781Y-89598905D01*
X135497447Y-89695376D01*
X135497442Y-89695379D01*
X135443282Y-89734727D01*
X135443282Y-89734728D01*
X136075591Y-90367037D01*
X136012007Y-90384075D01*
X135897993Y-90449901D01*
X135804901Y-90542993D01*
X135739075Y-90657007D01*
X135722037Y-90720591D01*
X135089728Y-90088282D01*
X135089727Y-90088282D01*
X135050379Y-90142442D01*
X135050376Y-90142447D01*
X134953905Y-90331781D01*
X134888242Y-90533873D01*
X134888241Y-90533876D01*
X134855000Y-90743753D01*
X134855000Y-90956246D01*
X134888241Y-91166123D01*
X134888242Y-91166126D01*
X134953905Y-91368218D01*
X135050375Y-91557550D01*
X135115145Y-91646698D01*
X135123900Y-91683165D01*
X135104305Y-91715142D01*
X135075503Y-91724500D01*
X134394428Y-91724500D01*
X134359780Y-91710148D01*
X134345428Y-91675500D01*
X134359780Y-91640852D01*
X134397176Y-91603456D01*
X134480977Y-91519655D01*
X134595941Y-91347598D01*
X134675130Y-91156420D01*
X134715500Y-90953465D01*
X134715500Y-90746535D01*
X134675130Y-90543580D01*
X134595941Y-90352402D01*
X134480977Y-90180345D01*
X134334655Y-90034023D01*
X134162598Y-89919059D01*
X134116586Y-89900000D01*
X133971423Y-89839871D01*
X133971421Y-89839870D01*
X133971420Y-89839870D01*
X133971417Y-89839869D01*
X133971408Y-89839867D01*
X133778335Y-89801462D01*
X133778329Y-89801462D01*
X133768465Y-89799500D01*
X133561535Y-89799500D01*
X133460520Y-89819592D01*
X133358582Y-89839869D01*
X133358576Y-89839871D01*
X133167403Y-89919058D01*
X132995345Y-90034022D01*
X132849022Y-90180345D01*
X132734058Y-90352403D01*
X132654871Y-90543576D01*
X132654869Y-90543582D01*
X132639844Y-90619122D01*
X132614500Y-90746535D01*
X132614500Y-90953465D01*
X132641290Y-91088150D01*
X132654869Y-91156417D01*
X132654871Y-91156423D01*
X132733453Y-91346136D01*
X132734059Y-91347598D01*
X132747837Y-91368218D01*
X132849022Y-91519654D01*
X132970220Y-91640852D01*
X132984572Y-91675500D01*
X132970220Y-91710148D01*
X132935572Y-91724500D01*
X132224500Y-91724500D01*
X132189852Y-91710148D01*
X132175500Y-91675500D01*
X132175500Y-89980255D01*
X132175500Y-89980252D01*
X132163867Y-89921769D01*
X132134312Y-89877537D01*
X132119552Y-89855447D01*
X132076667Y-89826793D01*
X132053231Y-89811133D01*
X131994748Y-89799500D01*
X131994745Y-89799500D01*
X126205740Y-89799500D01*
X126205724Y-89799499D01*
X126202727Y-89799499D01*
X126097273Y-89799499D01*
X126097271Y-89799499D01*
X125995411Y-89826793D01*
X125995409Y-89826793D01*
X125949750Y-89853156D01*
X125904092Y-89879516D01*
X125904082Y-89879524D01*
X125832311Y-89951295D01*
X125829518Y-89954087D01*
X125829518Y-89954088D01*
X125634107Y-90149500D01*
X125442020Y-90341587D01*
X125442018Y-90341589D01*
X124733648Y-91049958D01*
X124699000Y-91064310D01*
X124664352Y-91049958D01*
X124650000Y-91015310D01*
X124650000Y-90827165D01*
X124643598Y-90767627D01*
X124643598Y-90767626D01*
X124593351Y-90632908D01*
X124507188Y-90517811D01*
X124392091Y-90431648D01*
X124257373Y-90381401D01*
X124197834Y-90375000D01*
X123875000Y-90375000D01*
X123875000Y-91888310D01*
X123860648Y-91922958D01*
X122219645Y-93563960D01*
X122193346Y-93577595D01*
X122180509Y-93579815D01*
X122180507Y-93579815D01*
X122180506Y-93579816D01*
X122180500Y-93579817D01*
X122145906Y-93594263D01*
X122145900Y-93594266D01*
X122079361Y-93639002D01*
X122079358Y-93639004D01*
X122079358Y-93639005D01*
X121691681Y-94028916D01*
X121691072Y-94029535D01*
X121689771Y-94030859D01*
X121689742Y-94030890D01*
X121689739Y-94030893D01*
X121646835Y-94096783D01*
X121646832Y-94096788D01*
X121632758Y-94131550D01*
X121617747Y-94210321D01*
X121617840Y-94221969D01*
X121616173Y-94235039D01*
X121599500Y-94297272D01*
X121599500Y-94297273D01*
X121599500Y-94402727D01*
X121605064Y-94423492D01*
X121618285Y-94472838D01*
X121619952Y-94485126D01*
X121653135Y-98620942D01*
X121642477Y-98651848D01*
X121165625Y-99251013D01*
X121132819Y-99269186D01*
X121127285Y-99269500D01*
X120915358Y-99269500D01*
X120880710Y-99255148D01*
X120866358Y-99220500D01*
X120874616Y-99193277D01*
X120929036Y-99111830D01*
X121002529Y-98934404D01*
X121002532Y-98934394D01*
X121039210Y-98750000D01*
X120321237Y-98750000D01*
X120340000Y-98704701D01*
X120340000Y-98295299D01*
X120321237Y-98250000D01*
X121039209Y-98250000D01*
X121002532Y-98065605D01*
X121002529Y-98065595D01*
X120929036Y-97888169D01*
X120822332Y-97728473D01*
X120686526Y-97592667D01*
X120526830Y-97485963D01*
X120349404Y-97412470D01*
X120349387Y-97412465D01*
X120315000Y-97405625D01*
X120315000Y-98234943D01*
X120298134Y-98194225D01*
X120220775Y-98116866D01*
X120119701Y-98075000D01*
X120010299Y-98075000D01*
X119909225Y-98116866D01*
X119831866Y-98194225D01*
X119815000Y-98234943D01*
X119815000Y-97405625D01*
X119814999Y-97405625D01*
X119780612Y-97412465D01*
X119780595Y-97412470D01*
X119603169Y-97485963D01*
X119443473Y-97592667D01*
X119307667Y-97728473D01*
X119200963Y-97888169D01*
X119127470Y-98065595D01*
X119127467Y-98065605D01*
X119090790Y-98250000D01*
X119808763Y-98250000D01*
X119790000Y-98295299D01*
X119790000Y-98704701D01*
X119808763Y-98750000D01*
X119090790Y-98750000D01*
X119127467Y-98934394D01*
X119127470Y-98934404D01*
X119200963Y-99111830D01*
X119307667Y-99271526D01*
X119315936Y-99279795D01*
X119330288Y-99314443D01*
X119315936Y-99349091D01*
X119237794Y-99427233D01*
X119192415Y-99530006D01*
X119189500Y-99555134D01*
X119189500Y-99844858D01*
X119189501Y-99844868D01*
X119192415Y-99869992D01*
X119237794Y-99972766D01*
X119255380Y-99990352D01*
X119269732Y-100025000D01*
X119255380Y-100059648D01*
X119237794Y-100077233D01*
X119192415Y-100180006D01*
X119189500Y-100205134D01*
X119189500Y-100494858D01*
X119189501Y-100494868D01*
X119192415Y-100519992D01*
X119237794Y-100622766D01*
X119255380Y-100640352D01*
X119269732Y-100675000D01*
X119255380Y-100709648D01*
X119237794Y-100727233D01*
X119192415Y-100830006D01*
X119189500Y-100855134D01*
X119189500Y-101144858D01*
X119189501Y-101144868D01*
X119192415Y-101169992D01*
X119237794Y-101272766D01*
X119255380Y-101290352D01*
X119269732Y-101325000D01*
X119255380Y-101359648D01*
X119237794Y-101377233D01*
X119192415Y-101480006D01*
X119189500Y-101505134D01*
X119189500Y-101650134D01*
X119175148Y-101684782D01*
X119170329Y-101689008D01*
X119062075Y-101772074D01*
X119062074Y-101772075D01*
X118965901Y-101897410D01*
X118965898Y-101897415D01*
X118905443Y-102043369D01*
X118897987Y-102100000D01*
X114750500Y-102100000D01*
X114750500Y-101450018D01*
X116090000Y-101450018D01*
X116090000Y-101750000D01*
X117115000Y-101750000D01*
X117615000Y-101750000D01*
X118639999Y-101750000D01*
X118639999Y-101450019D01*
X118629506Y-101347306D01*
X118574357Y-101180877D01*
X118482319Y-101031659D01*
X118481323Y-101030400D01*
X118481135Y-101029740D01*
X118480819Y-101029227D01*
X118480964Y-101029137D01*
X118471083Y-100994322D01*
X118480833Y-100970781D01*
X118480819Y-100970773D01*
X118480874Y-100970683D01*
X118481323Y-100969600D01*
X118482319Y-100968340D01*
X118574357Y-100819122D01*
X118629506Y-100652693D01*
X118640000Y-100549981D01*
X118640000Y-100250000D01*
X117615000Y-100250000D01*
X117615000Y-101750000D01*
X117115000Y-101750000D01*
X117115000Y-100250000D01*
X116090001Y-100250000D01*
X116090001Y-100549980D01*
X116100493Y-100652693D01*
X116155642Y-100819122D01*
X116247684Y-100968346D01*
X116248681Y-100969607D01*
X116248867Y-100970264D01*
X116249181Y-100970773D01*
X116249036Y-100970861D01*
X116258915Y-101005687D01*
X116249167Y-101029218D01*
X116249181Y-101029227D01*
X116249129Y-101029310D01*
X116248681Y-101030393D01*
X116247684Y-101031653D01*
X116155642Y-101180877D01*
X116100493Y-101347306D01*
X116090000Y-101450018D01*
X114750500Y-101450018D01*
X114750500Y-99450018D01*
X116090000Y-99450018D01*
X116090000Y-99750000D01*
X117115000Y-99750000D01*
X117615000Y-99750000D01*
X118639999Y-99750000D01*
X118639999Y-99450019D01*
X118629506Y-99347306D01*
X118574357Y-99180877D01*
X118482317Y-99031656D01*
X118460309Y-99009648D01*
X118445957Y-98975000D01*
X118460309Y-98940352D01*
X118482317Y-98918343D01*
X118574357Y-98769122D01*
X118629506Y-98602693D01*
X118640000Y-98499981D01*
X118640000Y-98225000D01*
X117615000Y-98225000D01*
X117615000Y-99750000D01*
X117115000Y-99750000D01*
X117115000Y-98225000D01*
X116090001Y-98225000D01*
X116090001Y-98499980D01*
X116100493Y-98602693D01*
X116155642Y-98769122D01*
X116247682Y-98918343D01*
X116269691Y-98940352D01*
X116284043Y-98975000D01*
X116269691Y-99009648D01*
X116247682Y-99031656D01*
X116155642Y-99180877D01*
X116100493Y-99347306D01*
X116090000Y-99450018D01*
X114750500Y-99450018D01*
X114750500Y-97250000D01*
X116121215Y-97250000D01*
X116990272Y-97250000D01*
X116898386Y-97288060D01*
X116828060Y-97358386D01*
X116790000Y-97450272D01*
X116790000Y-97549728D01*
X116828060Y-97641614D01*
X116898386Y-97711940D01*
X116990272Y-97750000D01*
X117739728Y-97750000D01*
X117831614Y-97711940D01*
X117901940Y-97641614D01*
X117940000Y-97549728D01*
X117940000Y-97450272D01*
X117901940Y-97358386D01*
X117831614Y-97288060D01*
X117739728Y-97250000D01*
X118608784Y-97250000D01*
X118603683Y-97224353D01*
X118603683Y-97224352D01*
X118532449Y-97052378D01*
X118429031Y-96897600D01*
X118297399Y-96765968D01*
X118142621Y-96662550D01*
X117970653Y-96591318D01*
X117970634Y-96591313D01*
X117788079Y-96555000D01*
X117615000Y-96555000D01*
X117615000Y-97250000D01*
X117115000Y-97250000D01*
X117115000Y-96555000D01*
X116941920Y-96555000D01*
X116759365Y-96591313D01*
X116759346Y-96591318D01*
X116587378Y-96662550D01*
X116432600Y-96765968D01*
X116300968Y-96897600D01*
X116197550Y-97052378D01*
X116126316Y-97224352D01*
X116126316Y-97224353D01*
X116121215Y-97250000D01*
X114750500Y-97250000D01*
X114750500Y-91572834D01*
X122600000Y-91572834D01*
X122606401Y-91632372D01*
X122606401Y-91632373D01*
X122656648Y-91767091D01*
X122742811Y-91882188D01*
X122857908Y-91968351D01*
X122992626Y-92018598D01*
X123052166Y-92025000D01*
X123375000Y-92025000D01*
X123375000Y-91450000D01*
X122600000Y-91450000D01*
X122600000Y-91572834D01*
X114750500Y-91572834D01*
X114750500Y-91501285D01*
X114750567Y-91498721D01*
X114754318Y-91427140D01*
X114768167Y-91162889D01*
X114768700Y-91157811D01*
X114821069Y-90827165D01*
X122600000Y-90827165D01*
X122600000Y-90950000D01*
X123375000Y-90950000D01*
X123375000Y-90375000D01*
X123052166Y-90375000D01*
X122992627Y-90381401D01*
X122992623Y-90381402D01*
X122864060Y-90429352D01*
X122849362Y-90438045D01*
X122742811Y-90517811D01*
X122656648Y-90632908D01*
X122606401Y-90767626D01*
X122606401Y-90767627D01*
X122600000Y-90827165D01*
X114821069Y-90827165D01*
X114821109Y-90826915D01*
X114822175Y-90821904D01*
X114825488Y-90809540D01*
X114908879Y-90498320D01*
X114910459Y-90493459D01*
X115030517Y-90180697D01*
X115032592Y-90176035D01*
X115165595Y-89915000D01*
X121495495Y-89915000D01*
X121537968Y-90061197D01*
X121620277Y-90200373D01*
X121620281Y-90200378D01*
X121734621Y-90314718D01*
X121734626Y-90314722D01*
X121873801Y-90397030D01*
X122029088Y-90442145D01*
X122029084Y-90442145D01*
X122049999Y-90443790D01*
X122050000Y-90443790D01*
X122550000Y-90443790D01*
X122570913Y-90442145D01*
X122726196Y-90397031D01*
X122797183Y-90355049D01*
X122797184Y-90355049D01*
X122817919Y-90342786D01*
X122817921Y-90342784D01*
X122865379Y-90314717D01*
X122979718Y-90200378D01*
X122979722Y-90200373D01*
X123062031Y-90061197D01*
X123104505Y-89915000D01*
X122550000Y-89915000D01*
X122550000Y-90443790D01*
X122050000Y-90443790D01*
X122050000Y-89915000D01*
X121495495Y-89915000D01*
X115165595Y-89915000D01*
X115184688Y-89877528D01*
X115187241Y-89873107D01*
X115369710Y-89592130D01*
X115372702Y-89588011D01*
X115583546Y-89327641D01*
X115586959Y-89323851D01*
X115823851Y-89086959D01*
X115827641Y-89083546D01*
X116088011Y-88872702D01*
X116092130Y-88869710D01*
X116373107Y-88687241D01*
X116377526Y-88684690D01*
X116676035Y-88532592D01*
X116680697Y-88530517D01*
X116993459Y-88410459D01*
X116998320Y-88408879D01*
X117321911Y-88322173D01*
X117326915Y-88321109D01*
X117657811Y-88268700D01*
X117662889Y-88268167D01*
X117998722Y-88250567D01*
X118001286Y-88250500D01*
X118065892Y-88250500D01*
X121844663Y-88250500D01*
X121879311Y-88264852D01*
G37*
%TD.AperFunction*%
%TD*%
M02*
