%TF.GenerationSoftware,KiCad,Pcbnew,9.0.5*%
%TF.CreationDate,2025-12-09T19:47:16-08:00*%
%TF.ProjectId,servo-dev-board,73657276-6f2d-4646-9576-2d626f617264,rev?*%
%TF.SameCoordinates,Original*%
%TF.FileFunction,Soldermask,Top*%
%TF.FilePolarity,Negative*%
%FSLAX46Y46*%
G04 Gerber Fmt 4.6, Leading zero omitted, Abs format (unit mm)*
G04 Created by KiCad (PCBNEW 9.0.5) date 2025-12-09 19:47:16*
%MOMM*%
%LPD*%
G01*
G04 APERTURE LIST*
G04 Aperture macros list*
%AMRoundRect*
0 Rectangle with rounded corners*
0 $1 Rounding radius*
0 $2 $3 $4 $5 $6 $7 $8 $9 X,Y pos of 4 corners*
0 Add a 4 corners polygon primitive as box body*
4,1,4,$2,$3,$4,$5,$6,$7,$8,$9,$2,$3,0*
0 Add four circle primitives for the rounded corners*
1,1,$1+$1,$2,$3*
1,1,$1+$1,$4,$5*
1,1,$1+$1,$6,$7*
1,1,$1+$1,$8,$9*
0 Add four rect primitives between the rounded corners*
20,1,$1+$1,$2,$3,$4,$5,0*
20,1,$1+$1,$4,$5,$6,$7,0*
20,1,$1+$1,$6,$7,$8,$9,0*
20,1,$1+$1,$8,$9,$2,$3,0*%
%AMRotRect*
0 Rectangle, with rotation*
0 The origin of the aperture is its center*
0 $1 length*
0 $2 width*
0 $3 Rotation angle, in degrees counterclockwise*
0 Add horizontal line*
21,1,$1,$2,0,0,$3*%
%AMFreePoly0*
4,1,5,0.110000,-0.125000,-0.110000,-0.125000,-0.110000,0.125000,0.360000,0.125000,0.110000,-0.125000,0.110000,-0.125000,$1*%
%AMFreePoly1*
4,1,6,0.290000,-0.055000,0.290000,-0.125000,-0.110000,-0.125000,-0.110000,0.125000,0.110000,0.125000,0.290000,-0.055000,0.290000,-0.055000,$1*%
%AMFreePoly2*
4,1,7,0.110000,-0.125000,-0.110000,-0.125000,-0.290000,-0.125000,-0.290000,-0.055000,-0.110000,0.125000,0.110000,0.125000,0.110000,-0.125000,0.110000,-0.125000,$1*%
%AMFreePoly3*
4,1,6,0.110000,-0.125000,-0.110000,-0.125000,-0.290000,0.055000,-0.290000,0.125000,0.110000,0.125000,0.110000,-0.125000,0.110000,-0.125000,$1*%
G04 Aperture macros list end*
%ADD10C,0.700000*%
%ADD11C,4.400000*%
%ADD12O,1.550000X0.890000*%
%ADD13RoundRect,0.250000X-0.525000X0.475000X-0.525000X-0.475000X0.525000X-0.475000X0.525000X0.475000X0*%
%ADD14O,0.950000X1.250000*%
%ADD15RoundRect,0.250000X-0.525000X0.500000X-0.525000X-0.500000X0.525000X-0.500000X0.525000X0.500000X0*%
%ADD16RoundRect,0.100000X-0.575000X0.100000X-0.575000X-0.100000X0.575000X-0.100000X0.575000X0.100000X0*%
%ADD17RoundRect,0.225000X0.225000X0.250000X-0.225000X0.250000X-0.225000X-0.250000X0.225000X-0.250000X0*%
%ADD18RoundRect,0.062500X-0.375000X-0.062500X0.375000X-0.062500X0.375000X0.062500X-0.375000X0.062500X0*%
%ADD19RoundRect,0.062500X-0.062500X-0.375000X0.062500X-0.375000X0.062500X0.375000X-0.062500X0.375000X0*%
%ADD20R,3.450000X3.450000*%
%ADD21RoundRect,0.140000X0.170000X-0.140000X0.170000X0.140000X-0.170000X0.140000X-0.170000X-0.140000X0*%
%ADD22RoundRect,0.135000X-0.135000X-0.185000X0.135000X-0.185000X0.135000X0.185000X-0.135000X0.185000X0*%
%ADD23R,1.050000X0.650000*%
%ADD24RoundRect,0.140000X0.140000X0.170000X-0.140000X0.170000X-0.140000X-0.170000X0.140000X-0.170000X0*%
%ADD25RoundRect,0.250000X0.350000X-0.450000X0.350000X0.450000X-0.350000X0.450000X-0.350000X-0.450000X0*%
%ADD26RoundRect,0.175000X1.675000X-0.175000X1.675000X0.175000X-1.675000X0.175000X-1.675000X-0.175000X0*%
%ADD27RoundRect,0.250001X0.899999X-0.499999X0.899999X0.499999X-0.899999X0.499999X-0.899999X-0.499999X0*%
%ADD28RoundRect,0.225000X0.250000X-0.225000X0.250000X0.225000X-0.250000X0.225000X-0.250000X-0.225000X0*%
%ADD29RoundRect,0.135000X0.135000X0.185000X-0.135000X0.185000X-0.135000X-0.185000X0.135000X-0.185000X0*%
%ADD30RoundRect,0.135000X0.185000X-0.135000X0.185000X0.135000X-0.185000X0.135000X-0.185000X-0.135000X0*%
%ADD31RoundRect,0.218750X-0.218750X-0.256250X0.218750X-0.256250X0.218750X0.256250X-0.218750X0.256250X0*%
%ADD32FreePoly0,90.000000*%
%ADD33FreePoly1,90.000000*%
%ADD34FreePoly2,90.000000*%
%ADD35FreePoly3,90.000000*%
%ADD36RotRect,0.480000X0.480000X135.000000*%
%ADD37R,1.000000X1.000000*%
%ADD38C,1.000000*%
%ADD39RoundRect,0.147500X-0.172500X0.147500X-0.172500X-0.147500X0.172500X-0.147500X0.172500X0.147500X0*%
%ADD40RoundRect,0.062500X-0.062500X0.187500X-0.062500X-0.187500X0.062500X-0.187500X0.062500X0.187500X0*%
%ADD41R,1.600000X0.900000*%
%ADD42RoundRect,0.150000X0.150000X0.625000X-0.150000X0.625000X-0.150000X-0.625000X0.150000X-0.625000X0*%
%ADD43RoundRect,0.250000X0.350000X0.650000X-0.350000X0.650000X-0.350000X-0.650000X0.350000X-0.650000X0*%
%ADD44RoundRect,0.150000X-0.150000X-0.625000X0.150000X-0.625000X0.150000X0.625000X-0.150000X0.625000X0*%
%ADD45RoundRect,0.250000X-0.350000X-0.650000X0.350000X-0.650000X0.350000X0.650000X-0.350000X0.650000X0*%
%ADD46RoundRect,0.140000X-0.140000X-0.170000X0.140000X-0.170000X0.140000X0.170000X-0.140000X0.170000X0*%
%ADD47R,1.700000X1.700000*%
%ADD48C,1.700000*%
G04 APERTURE END LIST*
D10*
%TO.C,MH2*%
X119650000Y-110500000D03*
X119166726Y-111666726D03*
X119166726Y-109333274D03*
X118000000Y-112150000D03*
D11*
X118000000Y-110500000D03*
D10*
X118000000Y-108850000D03*
X116833274Y-111666726D03*
X116833274Y-109333274D03*
X116350000Y-110500000D03*
%TD*%
D12*
%TO.C,J1*%
X117365000Y-104500000D03*
D13*
X117365000Y-104025000D03*
D14*
X120065000Y-103500000D03*
D15*
X117365000Y-102000000D03*
X117365000Y-100000000D03*
D14*
X120065000Y-98500000D03*
D13*
X117365000Y-97975000D03*
D12*
X117365000Y-97500000D03*
D16*
X120065000Y-102300000D03*
X120065000Y-101650000D03*
X120065000Y-101000000D03*
X120065000Y-100350000D03*
X120065000Y-99700000D03*
%TD*%
D17*
%TO.C,C8*%
X147075000Y-95700000D03*
X145525000Y-95700000D03*
%TD*%
D18*
%TO.C,U3*%
X145512500Y-98987500D03*
X145512500Y-99487500D03*
X145512500Y-99987500D03*
X145512500Y-100487500D03*
X145512500Y-100987500D03*
X145512500Y-101487500D03*
X145512500Y-101987500D03*
X145512500Y-102487500D03*
D19*
X146200000Y-103175000D03*
X146700000Y-103175000D03*
X147200000Y-103175000D03*
X147700000Y-103175000D03*
X148200000Y-103175000D03*
X148700000Y-103175000D03*
X149200000Y-103175000D03*
X149700000Y-103175000D03*
D18*
X150387500Y-102487500D03*
X150387500Y-101987500D03*
X150387500Y-101487500D03*
X150387500Y-100987500D03*
X150387500Y-100487500D03*
X150387500Y-99987500D03*
X150387500Y-99487500D03*
X150387500Y-98987500D03*
D19*
X149700000Y-98300000D03*
X149200000Y-98300000D03*
X148700000Y-98300000D03*
X148200000Y-98300000D03*
X147700000Y-98300000D03*
X147200000Y-98300000D03*
X146700000Y-98300000D03*
X146200000Y-98300000D03*
D20*
X147950000Y-100737500D03*
%TD*%
D21*
%TO.C,C1*%
X125010000Y-99885000D03*
X125010000Y-98925000D03*
%TD*%
D22*
%TO.C,R7*%
X130555000Y-94100000D03*
X131575000Y-94100000D03*
%TD*%
D23*
%TO.C,SW1*%
X123625000Y-89050000D03*
X127775000Y-89050000D03*
X123625000Y-91200000D03*
X127775000Y-91200000D03*
%TD*%
D24*
%TO.C,C4*%
X123700000Y-104625000D03*
X122740000Y-104625000D03*
%TD*%
D21*
%TO.C,C10*%
X142900000Y-102272500D03*
X142900000Y-101312500D03*
%TD*%
D10*
%TO.C,MH3*%
X160350000Y-110500000D03*
X160833274Y-109333274D03*
X160833274Y-111666726D03*
X162000000Y-108850000D03*
D11*
X162000000Y-110500000D03*
D10*
X162000000Y-112150000D03*
X163166726Y-109333274D03*
X163166726Y-111666726D03*
X163650000Y-110500000D03*
%TD*%
D24*
%TO.C,C6*%
X146210000Y-97000000D03*
X145250000Y-97000000D03*
%TD*%
D21*
%TO.C,C5*%
X124400000Y-103630000D03*
X124400000Y-102670000D03*
%TD*%
D25*
%TO.C,Y1*%
X143500000Y-99200000D03*
X143500000Y-97000000D03*
X141800000Y-97000000D03*
X141800000Y-99200000D03*
%TD*%
D26*
%TO.C,J2*%
X133700000Y-104000000D03*
X133700000Y-102500000D03*
X133700000Y-101000000D03*
X133700000Y-99500000D03*
X133700000Y-98000000D03*
D27*
X131600000Y-106050000D03*
X131600000Y-95950000D03*
%TD*%
D23*
%TO.C,SW2*%
X123625000Y-110800000D03*
X127775000Y-110800000D03*
X123625000Y-112950000D03*
X127775000Y-112950000D03*
%TD*%
D28*
%TO.C,C11*%
X123750000Y-99610000D03*
X123750000Y-98060000D03*
%TD*%
D29*
%TO.C,R4*%
X156400000Y-107900000D03*
X155380000Y-107900000D03*
%TD*%
D30*
%TO.C,R6*%
X122300000Y-113305000D03*
X122300000Y-112285000D03*
%TD*%
D31*
%TO.C,LED1*%
X125950000Y-106400000D03*
X127525000Y-106400000D03*
%TD*%
D32*
%TO.C,U2*%
X122750000Y-103680000D03*
D33*
X123400000Y-103680000D03*
D34*
X123400000Y-102600000D03*
D35*
X122750000Y-102600000D03*
D36*
X123075000Y-103140000D03*
%TD*%
D10*
%TO.C,MH1*%
X116350000Y-91500000D03*
X116833274Y-90333274D03*
X116833274Y-92666726D03*
X118000000Y-89850000D03*
D11*
X118000000Y-91500000D03*
D10*
X118000000Y-93150000D03*
X119166726Y-90333274D03*
X119166726Y-92666726D03*
X119650000Y-91500000D03*
%TD*%
D22*
%TO.C,R5*%
X126777500Y-107700000D03*
X127797500Y-107700000D03*
%TD*%
D37*
%TO.C,J5*%
X163370000Y-103540000D03*
D38*
X162100000Y-103540000D03*
X163370000Y-102270000D03*
X162100000Y-102270000D03*
X163370000Y-101000000D03*
X162100000Y-101000000D03*
X163370000Y-99730000D03*
X162100000Y-99730000D03*
X163370000Y-98460000D03*
X162100000Y-98460000D03*
%TD*%
D22*
%TO.C,R3*%
X155380000Y-94050000D03*
X156400000Y-94050000D03*
%TD*%
D21*
%TO.C,CL2*%
X140250000Y-97390000D03*
X140250000Y-96430000D03*
%TD*%
D29*
%TO.C,R2*%
X158355000Y-94050000D03*
X157335000Y-94050000D03*
%TD*%
D39*
%TO.C,L1*%
X141900000Y-101312500D03*
X141900000Y-102282500D03*
%TD*%
D40*
%TO.C,U1*%
X126550000Y-95875000D03*
X126050000Y-95875000D03*
X125550000Y-95875000D03*
X125050000Y-95875000D03*
X125050000Y-97775000D03*
X125550000Y-97775000D03*
X126050000Y-97775000D03*
X126550000Y-97775000D03*
D41*
X125800000Y-96825000D03*
%TD*%
D42*
%TO.C,J4*%
X156375000Y-109775000D03*
X155375000Y-109775000D03*
X154375000Y-109775000D03*
X153375000Y-109775000D03*
D43*
X157675000Y-112300000D03*
X152075000Y-112300000D03*
%TD*%
D44*
%TO.C,J3*%
X153375000Y-92175000D03*
X154375000Y-92175000D03*
X155375000Y-92175000D03*
X156375000Y-92175000D03*
D45*
X152075000Y-89650000D03*
X157675000Y-89650000D03*
%TD*%
D10*
%TO.C,MH4*%
X160348350Y-91501650D03*
X160831624Y-90334924D03*
X160831624Y-92668376D03*
X161998350Y-89851650D03*
D11*
X161998350Y-91501650D03*
D10*
X161998350Y-93151650D03*
X163165076Y-90334924D03*
X163165076Y-92668376D03*
X163648350Y-91501650D03*
%TD*%
D46*
%TO.C,C7*%
X149690000Y-104400000D03*
X150650000Y-104400000D03*
%TD*%
D21*
%TO.C,CL1*%
X140250000Y-99770000D03*
X140250000Y-98810000D03*
%TD*%
%TO.C,C3*%
X121300000Y-113295000D03*
X121300000Y-112335000D03*
%TD*%
%TO.C,C2*%
X122300000Y-89665000D03*
X122300000Y-88705000D03*
%TD*%
%TO.C,C9*%
X143900000Y-102272500D03*
X143900000Y-101312500D03*
%TD*%
D22*
%TO.C,R1*%
X157335000Y-107900000D03*
X158355000Y-107900000D03*
%TD*%
D47*
%TO.C,H2*%
X131125000Y-90850000D03*
D48*
X133665000Y-90850000D03*
X136205000Y-90850000D03*
X138745000Y-90850000D03*
X141285000Y-90850000D03*
X143825000Y-90850000D03*
X146365000Y-90850000D03*
X148905000Y-90850000D03*
%TD*%
D47*
%TO.C,H1*%
X131125000Y-111130000D03*
D48*
X133665000Y-111130000D03*
X136205000Y-111130000D03*
X138745000Y-111130000D03*
X141285000Y-111130000D03*
X143825000Y-111130000D03*
X146365000Y-111130000D03*
X148905000Y-111130000D03*
%TD*%
M02*
