%TF.GenerationSoftware,KiCad,Pcbnew,9.0.6*%
%TF.CreationDate,2025-12-20T03:33:15-08:00*%
%TF.ProjectId,sg90-prod-ch32f006,73673930-2d70-4726-9f64-2d6368333266,rev?*%
%TF.SameCoordinates,Original*%
%TF.FileFunction,Copper,L2,Inr*%
%TF.FilePolarity,Positive*%
%FSLAX46Y46*%
G04 Gerber Fmt 4.6, Leading zero omitted, Abs format (unit mm)*
G04 Created by KiCad (PCBNEW 9.0.6) date 2025-12-20 03:33:15*
%MOMM*%
%LPD*%
G01*
G04 APERTURE LIST*
G04 Aperture macros list*
%AMRoundRect*
0 Rectangle with rounded corners*
0 $1 Rounding radius*
0 $2 $3 $4 $5 $6 $7 $8 $9 X,Y pos of 4 corners*
0 Add a 4 corners polygon primitive as box body*
4,1,4,$2,$3,$4,$5,$6,$7,$8,$9,$2,$3,0*
0 Add four circle primitives for the rounded corners*
1,1,$1+$1,$2,$3*
1,1,$1+$1,$4,$5*
1,1,$1+$1,$6,$7*
1,1,$1+$1,$8,$9*
0 Add four rect primitives between the rounded corners*
20,1,$1+$1,$2,$3,$4,$5,0*
20,1,$1+$1,$4,$5,$6,$7,0*
20,1,$1+$1,$6,$7,$8,$9,0*
20,1,$1+$1,$8,$9,$2,$3,0*%
G04 Aperture macros list end*
%TA.AperFunction,ComponentPad*%
%ADD10RoundRect,0.250000X-0.650000X0.650000X-0.650000X-0.650000X0.650000X-0.650000X0.650000X0.650000X0*%
%TD*%
%TA.AperFunction,ComponentPad*%
%ADD11C,1.600000*%
%TD*%
%TA.AperFunction,ComponentPad*%
%ADD12C,1.800000*%
%TD*%
%TA.AperFunction,ViaPad*%
%ADD13C,0.450000*%
%TD*%
%TA.AperFunction,ViaPad*%
%ADD14C,0.800000*%
%TD*%
G04 APERTURE END LIST*
D10*
%TO.N,/OUTA*%
%TO.C,J2*%
X101200000Y-91200000D03*
%TO.N,/OUTB*%
X101200000Y-98800000D03*
%TD*%
D11*
%TO.N,GND*%
%TO.C,J1*%
X111370000Y-93000000D03*
%TO.N,VIN*%
X111370000Y-95000000D03*
%TO.N,/DATA*%
X111370000Y-97000000D03*
%TD*%
D12*
%TO.N,GND*%
%TO.C,J4*%
X104300000Y-97530000D03*
%TD*%
D13*
%TO.N,GND*%
X108750000Y-94025000D03*
X102475000Y-91375000D03*
D14*
X109585000Y-90780000D03*
D13*
X107520000Y-93425000D03*
X102470000Y-98620000D03*
X108150000Y-93425000D03*
X108150000Y-94025000D03*
X110690000Y-95950000D03*
X110092165Y-98903166D03*
D14*
X104890000Y-90740000D03*
X102010000Y-97235000D03*
D13*
X107950000Y-98450000D03*
X107510000Y-92825000D03*
X104725000Y-93800000D03*
X108710000Y-98450000D03*
X108140000Y-92825000D03*
X105960000Y-96840000D03*
X108750000Y-93425000D03*
X107520000Y-94025000D03*
X111209642Y-91749696D03*
%TO.N,/nRST*%
X110050000Y-95360000D03*
%TO.N,/VPOS*%
X105220000Y-99380000D03*
X106750000Y-95390000D03*
%TO.N,PGND*%
X102590000Y-95440000D03*
X101630000Y-93820000D03*
X102070000Y-95950000D03*
X102360000Y-93080000D03*
X102080000Y-95440000D03*
X110260000Y-94600000D03*
X102080000Y-94880000D03*
X102370000Y-93820000D03*
X102600000Y-95950000D03*
X102590000Y-94860000D03*
%TO.N,/POT*%
X104200000Y-99380000D03*
D14*
%TO.N,/OUTB*%
X100700000Y-95900000D03*
%TO.N,/OUTA*%
X100700000Y-95000000D03*
D13*
%TO.N,/SWDIO*%
X106190000Y-94620000D03*
%TO.N,+3.3V*%
X110450000Y-91550000D03*
X109426752Y-98143589D03*
D14*
X109271901Y-99085193D03*
D13*
X103330000Y-93820000D03*
X107020000Y-96520000D03*
X110050000Y-96380000D03*
D14*
%TO.N,/VSYS*%
X108035000Y-90780000D03*
X106995000Y-90780000D03*
X101361326Y-93028506D03*
X107450000Y-99290000D03*
%TD*%
%TA.AperFunction,Conductor*%
%TO.N,GND*%
G36*
X106640360Y-90322174D02*
G01*
X106662034Y-90374500D01*
X106640360Y-90426826D01*
X106594500Y-90472685D01*
X106528610Y-90586809D01*
X106528606Y-90586818D01*
X106494500Y-90714105D01*
X106494500Y-90845894D01*
X106528606Y-90973181D01*
X106528607Y-90973184D01*
X106528608Y-90973186D01*
X106594500Y-91087314D01*
X106687686Y-91180500D01*
X106801814Y-91246392D01*
X106929105Y-91280499D01*
X106929106Y-91280500D01*
X106929108Y-91280500D01*
X107060894Y-91280500D01*
X107060894Y-91280499D01*
X107188186Y-91246392D01*
X107302314Y-91180500D01*
X107395500Y-91087314D01*
X107450914Y-90991333D01*
X107495847Y-90956855D01*
X107552000Y-90964248D01*
X107579085Y-90991333D01*
X107634500Y-91087314D01*
X107727686Y-91180500D01*
X107841814Y-91246392D01*
X107969105Y-91280499D01*
X107969106Y-91280500D01*
X107969108Y-91280500D01*
X108100894Y-91280500D01*
X108100894Y-91280499D01*
X108228186Y-91246392D01*
X108342314Y-91180500D01*
X108435500Y-91087314D01*
X108501392Y-90973186D01*
X108535499Y-90845894D01*
X108535500Y-90845894D01*
X108535500Y-90714106D01*
X108535499Y-90714105D01*
X108505767Y-90603144D01*
X108501392Y-90586814D01*
X108435500Y-90472686D01*
X108389640Y-90426826D01*
X108367966Y-90374500D01*
X108389640Y-90322174D01*
X108441966Y-90300500D01*
X109868633Y-90300500D01*
X109914860Y-90316716D01*
X112171727Y-92122209D01*
X112199047Y-92171820D01*
X112199500Y-92179992D01*
X112199500Y-94377598D01*
X112177826Y-94429924D01*
X112125500Y-94451598D01*
X112073174Y-94429924D01*
X112070763Y-94427265D01*
X112069466Y-94425968D01*
X112069464Y-94425965D01*
X111944035Y-94300536D01*
X111921532Y-94285500D01*
X111796544Y-94201985D01*
X111632670Y-94134107D01*
X111632660Y-94134104D01*
X111516156Y-94110930D01*
X111458691Y-94099500D01*
X111281309Y-94099500D01*
X111231989Y-94109310D01*
X111107339Y-94134104D01*
X111107329Y-94134107D01*
X110943455Y-94201985D01*
X110795968Y-94300533D01*
X110674270Y-94422231D01*
X110621944Y-94443905D01*
X110569618Y-94422231D01*
X110557858Y-94406905D01*
X110543670Y-94382331D01*
X110477667Y-94316328D01*
X110396830Y-94269658D01*
X110396832Y-94269658D01*
X110306673Y-94245500D01*
X110306671Y-94245500D01*
X110213329Y-94245500D01*
X110213327Y-94245500D01*
X110123168Y-94269658D01*
X110042332Y-94316328D01*
X109976328Y-94382332D01*
X109929658Y-94463168D01*
X109905500Y-94553326D01*
X109905500Y-94646673D01*
X109929658Y-94736831D01*
X109976328Y-94817667D01*
X110039541Y-94880880D01*
X110061215Y-94933206D01*
X110039541Y-94985532D01*
X110006369Y-95004684D01*
X109913167Y-95029658D01*
X109832332Y-95076328D01*
X109766328Y-95142332D01*
X109719658Y-95223168D01*
X109695500Y-95313326D01*
X109695500Y-95406673D01*
X109719658Y-95496831D01*
X109765846Y-95576831D01*
X109766329Y-95577668D01*
X109832332Y-95643671D01*
X109913168Y-95690341D01*
X109913167Y-95690341D01*
X109947222Y-95699466D01*
X110003326Y-95714499D01*
X110003327Y-95714500D01*
X110003329Y-95714500D01*
X110096673Y-95714500D01*
X110096673Y-95714499D01*
X110186832Y-95690341D01*
X110267668Y-95643671D01*
X110333671Y-95577668D01*
X110380341Y-95496832D01*
X110404499Y-95406673D01*
X110404500Y-95406673D01*
X110404500Y-95394219D01*
X110426174Y-95341893D01*
X110478500Y-95320219D01*
X110530826Y-95341893D01*
X110546867Y-95365901D01*
X110571985Y-95426544D01*
X110664632Y-95565200D01*
X110670536Y-95574035D01*
X110795965Y-95699464D01*
X110943453Y-95798013D01*
X110943454Y-95798013D01*
X110943455Y-95798014D01*
X111030590Y-95834106D01*
X111107334Y-95865894D01*
X111281309Y-95900500D01*
X111281311Y-95900500D01*
X111458689Y-95900500D01*
X111458691Y-95900500D01*
X111632666Y-95865894D01*
X111796547Y-95798013D01*
X111944035Y-95699464D01*
X112069464Y-95574035D01*
X112069466Y-95574031D01*
X112072034Y-95571464D01*
X112073333Y-95572763D01*
X112118249Y-95548757D01*
X112172447Y-95565200D01*
X112199144Y-95615150D01*
X112199500Y-95622401D01*
X112199500Y-96377598D01*
X112177826Y-96429924D01*
X112125500Y-96451598D01*
X112073174Y-96429924D01*
X112070763Y-96427265D01*
X112069466Y-96425968D01*
X112069464Y-96425965D01*
X111944035Y-96300536D01*
X111943981Y-96300500D01*
X111796544Y-96201985D01*
X111632670Y-96134107D01*
X111632660Y-96134104D01*
X111516156Y-96110930D01*
X111458691Y-96099500D01*
X111281309Y-96099500D01*
X111231989Y-96109310D01*
X111107339Y-96134104D01*
X111107329Y-96134107D01*
X110943455Y-96201985D01*
X110795968Y-96300533D01*
X110670533Y-96425968D01*
X110571985Y-96573455D01*
X110504107Y-96737329D01*
X110504104Y-96737339D01*
X110469500Y-96911310D01*
X110469500Y-97088689D01*
X110504104Y-97262660D01*
X110504107Y-97262670D01*
X110571985Y-97426544D01*
X110664632Y-97565200D01*
X110670536Y-97574035D01*
X110795965Y-97699464D01*
X110943453Y-97798013D01*
X110943454Y-97798013D01*
X110943455Y-97798014D01*
X111095038Y-97860801D01*
X111107334Y-97865894D01*
X111281309Y-97900500D01*
X111281311Y-97900500D01*
X111458689Y-97900500D01*
X111458691Y-97900500D01*
X111632666Y-97865894D01*
X111796547Y-97798013D01*
X111944035Y-97699464D01*
X112069464Y-97574035D01*
X112069466Y-97574031D01*
X112072034Y-97571464D01*
X112073333Y-97572763D01*
X112118249Y-97548757D01*
X112172447Y-97565200D01*
X112199144Y-97615150D01*
X112199500Y-97622401D01*
X112199500Y-97820006D01*
X112177826Y-97872332D01*
X112171727Y-97877790D01*
X109914860Y-99683284D01*
X109868633Y-99699500D01*
X109475145Y-99699500D01*
X109422819Y-99677826D01*
X109401145Y-99625500D01*
X109422819Y-99573174D01*
X109455990Y-99554022D01*
X109465087Y-99551585D01*
X109579215Y-99485693D01*
X109672401Y-99392507D01*
X109738293Y-99278379D01*
X109772400Y-99151087D01*
X109772401Y-99151087D01*
X109772401Y-99019299D01*
X109772400Y-99019298D01*
X109738294Y-98892011D01*
X109738293Y-98892007D01*
X109672401Y-98777879D01*
X109579215Y-98684693D01*
X109479642Y-98627204D01*
X109445163Y-98582270D01*
X109452556Y-98526118D01*
X109497487Y-98491640D01*
X109563584Y-98473930D01*
X109644420Y-98427260D01*
X109710423Y-98361257D01*
X109757093Y-98280421D01*
X109781251Y-98190262D01*
X109781252Y-98190262D01*
X109781252Y-98096916D01*
X109781251Y-98096915D01*
X109757093Y-98006757D01*
X109710423Y-97925921D01*
X109644419Y-97859917D01*
X109563582Y-97813247D01*
X109563584Y-97813247D01*
X109473425Y-97789089D01*
X109473423Y-97789089D01*
X109380081Y-97789089D01*
X109380079Y-97789089D01*
X109289920Y-97813247D01*
X109209084Y-97859917D01*
X109143080Y-97925921D01*
X109096410Y-98006757D01*
X109072252Y-98096915D01*
X109072252Y-98190262D01*
X109096410Y-98280420D01*
X109143080Y-98361256D01*
X109209084Y-98427260D01*
X109242594Y-98446607D01*
X109277073Y-98491540D01*
X109269681Y-98547692D01*
X109224748Y-98582171D01*
X109210808Y-98584006D01*
X109210816Y-98584060D01*
X109206006Y-98584693D01*
X109078719Y-98618799D01*
X109078710Y-98618803D01*
X108964586Y-98684693D01*
X108871401Y-98777878D01*
X108805511Y-98892002D01*
X108805507Y-98892011D01*
X108771401Y-99019298D01*
X108771401Y-99151087D01*
X108805507Y-99278374D01*
X108805508Y-99278377D01*
X108805509Y-99278379D01*
X108871401Y-99392507D01*
X108964587Y-99485693D01*
X109078715Y-99551585D01*
X109087810Y-99554022D01*
X109132743Y-99588500D01*
X109140136Y-99644652D01*
X109105657Y-99689586D01*
X109068657Y-99699500D01*
X107919675Y-99699500D01*
X107867349Y-99677826D01*
X107845675Y-99625500D01*
X107855589Y-99588500D01*
X107877012Y-99551394D01*
X107916392Y-99483186D01*
X107950499Y-99355894D01*
X107950500Y-99355894D01*
X107950500Y-99224106D01*
X107950499Y-99224105D01*
X107916393Y-99096818D01*
X107916392Y-99096814D01*
X107850500Y-98982686D01*
X107757314Y-98889500D01*
X107643190Y-98823610D01*
X107643181Y-98823606D01*
X107515894Y-98789500D01*
X107515892Y-98789500D01*
X107384108Y-98789500D01*
X107384106Y-98789500D01*
X107256818Y-98823606D01*
X107256809Y-98823610D01*
X107142685Y-98889500D01*
X107049500Y-98982685D01*
X106983610Y-99096809D01*
X106983606Y-99096818D01*
X106949500Y-99224105D01*
X106949500Y-99355894D01*
X106983606Y-99483181D01*
X106983610Y-99483190D01*
X107044411Y-99588500D01*
X107051804Y-99644653D01*
X107017325Y-99689586D01*
X106980325Y-99699500D01*
X105573050Y-99699500D01*
X105520724Y-99677826D01*
X105499050Y-99625500D01*
X105508964Y-99588501D01*
X105530387Y-99551393D01*
X105550341Y-99516832D01*
X105574499Y-99426673D01*
X105574500Y-99426673D01*
X105574500Y-99333327D01*
X105574499Y-99333326D01*
X105550341Y-99243168D01*
X105503671Y-99162332D01*
X105437667Y-99096328D01*
X105356830Y-99049658D01*
X105356832Y-99049658D01*
X105266673Y-99025500D01*
X105266671Y-99025500D01*
X105173329Y-99025500D01*
X105173327Y-99025500D01*
X105083168Y-99049658D01*
X105002332Y-99096328D01*
X104936328Y-99162332D01*
X104889658Y-99243168D01*
X104865500Y-99333326D01*
X104865500Y-99426673D01*
X104889658Y-99516831D01*
X104931036Y-99588501D01*
X104938428Y-99644653D01*
X104903949Y-99689586D01*
X104866950Y-99699500D01*
X104553050Y-99699500D01*
X104500724Y-99677826D01*
X104479050Y-99625500D01*
X104488964Y-99588501D01*
X104510387Y-99551393D01*
X104530341Y-99516832D01*
X104554499Y-99426673D01*
X104554500Y-99426673D01*
X104554500Y-99333327D01*
X104554499Y-99333326D01*
X104530341Y-99243168D01*
X104483671Y-99162332D01*
X104417667Y-99096328D01*
X104336830Y-99049658D01*
X104336832Y-99049658D01*
X104246673Y-99025500D01*
X104246671Y-99025500D01*
X104153329Y-99025500D01*
X104153327Y-99025500D01*
X104063168Y-99049658D01*
X103982332Y-99096328D01*
X103916328Y-99162332D01*
X103869658Y-99243168D01*
X103845500Y-99333326D01*
X103845500Y-99426673D01*
X103869658Y-99516831D01*
X103911036Y-99588501D01*
X103918428Y-99644653D01*
X103883949Y-99689586D01*
X103846950Y-99699500D01*
X102236714Y-99699500D01*
X102184388Y-99677826D01*
X102162714Y-99625500D01*
X102170233Y-99593000D01*
X102190479Y-99551585D01*
X102190573Y-99551393D01*
X102200500Y-99483260D01*
X102200500Y-98116740D01*
X102190573Y-98048607D01*
X102139198Y-97943517D01*
X102056483Y-97860802D01*
X102056482Y-97860801D01*
X101951394Y-97809427D01*
X101883264Y-97799500D01*
X101883260Y-97799500D01*
X100516740Y-97799500D01*
X100516735Y-97799500D01*
X100448606Y-97809427D01*
X100448605Y-97809427D01*
X100407000Y-97829767D01*
X100350472Y-97833276D01*
X100308019Y-97795786D01*
X100300500Y-97763286D01*
X100300500Y-96473326D01*
X106665500Y-96473326D01*
X106665500Y-96566673D01*
X106689658Y-96656831D01*
X106689659Y-96656832D01*
X106736329Y-96737668D01*
X106802332Y-96803671D01*
X106883168Y-96850341D01*
X106883167Y-96850341D01*
X106935222Y-96864289D01*
X106973326Y-96874499D01*
X106973327Y-96874500D01*
X106973329Y-96874500D01*
X107066673Y-96874500D01*
X107066673Y-96874499D01*
X107156832Y-96850341D01*
X107237668Y-96803671D01*
X107303671Y-96737668D01*
X107350341Y-96656832D01*
X107374499Y-96566673D01*
X107374500Y-96566673D01*
X107374500Y-96473327D01*
X107374499Y-96473326D01*
X107350342Y-96383170D01*
X107340656Y-96366393D01*
X107321565Y-96333326D01*
X109695500Y-96333326D01*
X109695500Y-96426673D01*
X109719658Y-96516831D01*
X109752350Y-96573455D01*
X109766329Y-96597668D01*
X109832332Y-96663671D01*
X109913168Y-96710341D01*
X109913167Y-96710341D01*
X109965222Y-96724289D01*
X110003326Y-96734499D01*
X110003327Y-96734500D01*
X110003329Y-96734500D01*
X110096673Y-96734500D01*
X110096673Y-96734499D01*
X110186832Y-96710341D01*
X110267668Y-96663671D01*
X110333671Y-96597668D01*
X110380341Y-96516832D01*
X110404499Y-96426673D01*
X110404500Y-96426673D01*
X110404500Y-96333327D01*
X110404499Y-96333326D01*
X110380341Y-96243168D01*
X110333671Y-96162332D01*
X110267667Y-96096328D01*
X110186830Y-96049658D01*
X110186832Y-96049658D01*
X110096673Y-96025500D01*
X110096671Y-96025500D01*
X110003329Y-96025500D01*
X110003327Y-96025500D01*
X109913168Y-96049658D01*
X109832332Y-96096328D01*
X109766328Y-96162332D01*
X109719658Y-96243168D01*
X109695500Y-96333326D01*
X107321565Y-96333326D01*
X107303671Y-96302332D01*
X107237668Y-96236329D01*
X107237667Y-96236328D01*
X107156830Y-96189658D01*
X107156832Y-96189658D01*
X107066673Y-96165500D01*
X107066671Y-96165500D01*
X106973329Y-96165500D01*
X106973327Y-96165500D01*
X106883168Y-96189658D01*
X106802332Y-96236328D01*
X106736328Y-96302332D01*
X106689658Y-96383168D01*
X106665500Y-96473326D01*
X100300500Y-96473326D01*
X100300500Y-96375448D01*
X100322174Y-96323122D01*
X100374500Y-96301448D01*
X100411499Y-96311361D01*
X100506814Y-96366392D01*
X100634105Y-96400499D01*
X100634106Y-96400500D01*
X100634108Y-96400500D01*
X100765891Y-96400500D01*
X100765892Y-96400500D01*
X100778955Y-96396999D01*
X100778960Y-96396999D01*
X100859388Y-96375448D01*
X100893186Y-96366392D01*
X101007314Y-96300500D01*
X101100500Y-96207314D01*
X101166392Y-96093186D01*
X101200499Y-95965894D01*
X101200500Y-95965894D01*
X101200500Y-95903326D01*
X101715500Y-95903326D01*
X101715500Y-95996673D01*
X101739658Y-96086831D01*
X101766953Y-96134107D01*
X101786329Y-96167668D01*
X101852332Y-96233671D01*
X101933168Y-96280341D01*
X101933167Y-96280341D01*
X101985222Y-96294289D01*
X102023326Y-96304499D01*
X102023327Y-96304500D01*
X102023329Y-96304500D01*
X102116673Y-96304500D01*
X102116673Y-96304499D01*
X102206832Y-96280341D01*
X102287668Y-96233671D01*
X102287671Y-96233667D01*
X102289953Y-96231918D01*
X102291356Y-96231542D01*
X102291869Y-96231246D01*
X102291948Y-96231383D01*
X102344661Y-96217260D01*
X102380047Y-96231918D01*
X102382332Y-96233671D01*
X102463168Y-96280341D01*
X102463167Y-96280341D01*
X102515222Y-96294289D01*
X102553326Y-96304499D01*
X102553327Y-96304500D01*
X102553329Y-96304500D01*
X102646673Y-96304500D01*
X102646673Y-96304499D01*
X102736832Y-96280341D01*
X102817668Y-96233671D01*
X102883671Y-96167668D01*
X102930341Y-96086832D01*
X102954499Y-95996673D01*
X102954500Y-95996673D01*
X102954500Y-95903327D01*
X102954499Y-95903326D01*
X102944468Y-95865892D01*
X102930341Y-95813168D01*
X102883671Y-95732332D01*
X102883670Y-95732331D01*
X102883669Y-95732329D01*
X102883464Y-95732061D01*
X102883419Y-95731896D01*
X102881246Y-95728131D01*
X102882255Y-95727548D01*
X102868808Y-95677353D01*
X102878088Y-95650017D01*
X102920341Y-95576832D01*
X102921091Y-95574035D01*
X102941777Y-95496832D01*
X102944499Y-95486673D01*
X102944500Y-95486673D01*
X102944500Y-95393327D01*
X102944499Y-95393326D01*
X102937150Y-95365901D01*
X102920341Y-95303168D01*
X102873671Y-95222332D01*
X102853665Y-95202326D01*
X102831991Y-95150000D01*
X102853665Y-95097674D01*
X102862648Y-95088691D01*
X102873671Y-95077668D01*
X102920341Y-94996832D01*
X102940764Y-94920613D01*
X103595500Y-94920613D01*
X103595500Y-95059386D01*
X103622571Y-95195488D01*
X103622573Y-95195495D01*
X103674235Y-95320219D01*
X103675680Y-95323706D01*
X103688792Y-95343329D01*
X103751160Y-95436671D01*
X103752779Y-95439093D01*
X103850907Y-95537221D01*
X103966294Y-95614320D01*
X104094505Y-95667427D01*
X104230613Y-95694500D01*
X104369387Y-95694500D01*
X104505495Y-95667427D01*
X104633706Y-95614320D01*
X104749093Y-95537221D01*
X104847221Y-95439093D01*
X104911210Y-95343326D01*
X106395500Y-95343326D01*
X106395500Y-95436673D01*
X106419658Y-95526831D01*
X106457679Y-95592685D01*
X106466329Y-95607668D01*
X106532332Y-95673671D01*
X106613168Y-95720341D01*
X106613167Y-95720341D01*
X106642240Y-95728131D01*
X106703326Y-95744499D01*
X106703327Y-95744500D01*
X106703329Y-95744500D01*
X106796673Y-95744500D01*
X106796673Y-95744499D01*
X106886832Y-95720341D01*
X106967668Y-95673671D01*
X107033671Y-95607668D01*
X107080341Y-95526832D01*
X107104499Y-95436673D01*
X107104500Y-95436673D01*
X107104500Y-95343327D01*
X107104499Y-95343326D01*
X107098307Y-95320219D01*
X107080341Y-95253168D01*
X107033671Y-95172332D01*
X106967668Y-95106329D01*
X106967667Y-95106328D01*
X106886830Y-95059658D01*
X106886832Y-95059658D01*
X106796673Y-95035500D01*
X106796671Y-95035500D01*
X106703329Y-95035500D01*
X106703327Y-95035500D01*
X106613168Y-95059658D01*
X106532332Y-95106328D01*
X106466328Y-95172332D01*
X106419658Y-95253168D01*
X106395500Y-95343326D01*
X104911210Y-95343326D01*
X104924320Y-95323706D01*
X104977427Y-95195495D01*
X105004500Y-95059387D01*
X105004500Y-94920613D01*
X104977427Y-94784505D01*
X104924320Y-94656294D01*
X104868883Y-94573326D01*
X105835500Y-94573326D01*
X105835500Y-94666673D01*
X105859658Y-94756831D01*
X105903824Y-94833329D01*
X105906329Y-94837668D01*
X105972332Y-94903671D01*
X106053168Y-94950341D01*
X106053167Y-94950341D01*
X106068689Y-94954500D01*
X106143326Y-94974499D01*
X106143327Y-94974500D01*
X106143329Y-94974500D01*
X106236673Y-94974500D01*
X106236673Y-94974499D01*
X106326832Y-94950341D01*
X106407668Y-94903671D01*
X106473671Y-94837668D01*
X106520341Y-94756832D01*
X106544499Y-94666673D01*
X106544500Y-94666673D01*
X106544500Y-94573327D01*
X106544499Y-94573326D01*
X106538157Y-94549659D01*
X106520341Y-94483168D01*
X106473671Y-94402332D01*
X106407668Y-94336329D01*
X106407667Y-94336328D01*
X106326830Y-94289658D01*
X106326832Y-94289658D01*
X106236673Y-94265500D01*
X106236671Y-94265500D01*
X106143329Y-94265500D01*
X106143327Y-94265500D01*
X106053168Y-94289658D01*
X105972332Y-94336328D01*
X105906328Y-94402332D01*
X105859658Y-94483168D01*
X105835500Y-94573326D01*
X104868883Y-94573326D01*
X104847221Y-94540907D01*
X104749093Y-94442779D01*
X104633706Y-94365680D01*
X104633703Y-94365678D01*
X104633702Y-94365678D01*
X104505495Y-94312573D01*
X104505488Y-94312571D01*
X104369387Y-94285500D01*
X104230613Y-94285500D01*
X104094511Y-94312571D01*
X104094504Y-94312573D01*
X103966297Y-94365678D01*
X103850907Y-94442778D01*
X103850906Y-94442780D01*
X103752780Y-94540906D01*
X103752778Y-94540907D01*
X103675678Y-94656297D01*
X103622573Y-94784504D01*
X103622571Y-94784511D01*
X103595500Y-94920613D01*
X102940764Y-94920613D01*
X102944500Y-94906671D01*
X102944500Y-94813329D01*
X102944500Y-94813327D01*
X102944499Y-94813326D01*
X102920341Y-94723168D01*
X102873671Y-94642332D01*
X102807667Y-94576328D01*
X102733672Y-94533608D01*
X102726832Y-94529659D01*
X102726831Y-94529658D01*
X102726832Y-94529658D01*
X102636673Y-94505500D01*
X102636671Y-94505500D01*
X102543329Y-94505500D01*
X102543327Y-94505500D01*
X102453168Y-94529658D01*
X102372332Y-94576328D01*
X102368483Y-94579282D01*
X102367645Y-94578190D01*
X102320137Y-94597860D01*
X102283149Y-94587946D01*
X102223189Y-94553329D01*
X102216832Y-94549659D01*
X102216831Y-94549658D01*
X102216832Y-94549658D01*
X102126673Y-94525500D01*
X102126671Y-94525500D01*
X102033329Y-94525500D01*
X102033327Y-94525500D01*
X101943168Y-94549658D01*
X101862332Y-94596328D01*
X101796328Y-94662332D01*
X101749658Y-94743168D01*
X101725500Y-94833326D01*
X101725500Y-94926673D01*
X101749658Y-95016831D01*
X101796328Y-95097667D01*
X101806335Y-95107674D01*
X101828009Y-95160000D01*
X101806335Y-95212326D01*
X101796328Y-95222332D01*
X101749658Y-95303168D01*
X101725500Y-95393326D01*
X101725500Y-95486673D01*
X101749658Y-95576831D01*
X101791911Y-95650017D01*
X101799303Y-95706169D01*
X101788537Y-95728005D01*
X101788754Y-95728131D01*
X101786847Y-95731432D01*
X101786542Y-95732053D01*
X101786330Y-95732328D01*
X101739658Y-95813168D01*
X101715500Y-95903326D01*
X101200500Y-95903326D01*
X101200500Y-95834106D01*
X101200499Y-95834105D01*
X101176489Y-95744499D01*
X101166392Y-95706814D01*
X101100500Y-95592686D01*
X101010140Y-95502326D01*
X100988466Y-95450000D01*
X101010140Y-95397674D01*
X101041913Y-95365901D01*
X101100500Y-95307314D01*
X101166392Y-95193186D01*
X101200499Y-95065894D01*
X101200500Y-95065894D01*
X101200500Y-94934106D01*
X101200499Y-94934105D01*
X101199490Y-94930341D01*
X101166392Y-94806814D01*
X101100500Y-94692686D01*
X101007314Y-94599500D01*
X100987302Y-94587946D01*
X100893190Y-94533610D01*
X100893181Y-94533606D01*
X100765894Y-94499500D01*
X100765892Y-94499500D01*
X100634108Y-94499500D01*
X100634106Y-94499500D01*
X100506818Y-94533606D01*
X100506809Y-94533610D01*
X100411500Y-94588637D01*
X100355347Y-94596029D01*
X100310414Y-94561551D01*
X100300500Y-94524551D01*
X100300500Y-92962611D01*
X100860826Y-92962611D01*
X100860826Y-93094400D01*
X100894932Y-93221687D01*
X100894933Y-93221690D01*
X100894934Y-93221692D01*
X100960826Y-93335820D01*
X101054012Y-93429006D01*
X101168140Y-93494898D01*
X101283021Y-93525680D01*
X101327954Y-93560158D01*
X101335347Y-93616310D01*
X101327955Y-93634157D01*
X101299657Y-93683171D01*
X101275500Y-93773326D01*
X101275500Y-93866673D01*
X101299658Y-93956831D01*
X101324086Y-93999141D01*
X101346329Y-94037668D01*
X101412332Y-94103671D01*
X101493168Y-94150341D01*
X101493167Y-94150341D01*
X101545222Y-94164289D01*
X101583326Y-94174499D01*
X101583327Y-94174500D01*
X101583329Y-94174500D01*
X101676673Y-94174500D01*
X101676673Y-94174499D01*
X101766832Y-94150341D01*
X101847668Y-94103671D01*
X101913671Y-94037668D01*
X101935915Y-93999139D01*
X101980846Y-93964662D01*
X102036999Y-93972053D01*
X102064084Y-93999138D01*
X102086329Y-94037668D01*
X102152332Y-94103671D01*
X102233168Y-94150341D01*
X102233167Y-94150341D01*
X102285222Y-94164289D01*
X102323326Y-94174499D01*
X102323327Y-94174500D01*
X102323329Y-94174500D01*
X102416673Y-94174500D01*
X102416673Y-94174499D01*
X102506832Y-94150341D01*
X102587668Y-94103671D01*
X102653671Y-94037668D01*
X102700341Y-93956832D01*
X102724499Y-93866673D01*
X102724500Y-93866673D01*
X102724500Y-93773327D01*
X102724499Y-93773326D01*
X102975500Y-93773326D01*
X102975500Y-93866673D01*
X102999658Y-93956831D01*
X103024086Y-93999141D01*
X103046329Y-94037668D01*
X103112332Y-94103671D01*
X103193168Y-94150341D01*
X103193167Y-94150341D01*
X103245222Y-94164289D01*
X103283326Y-94174499D01*
X103283327Y-94174500D01*
X103283329Y-94174500D01*
X103376673Y-94174500D01*
X103376673Y-94174499D01*
X103466832Y-94150341D01*
X103547668Y-94103671D01*
X103613671Y-94037668D01*
X103660341Y-93956832D01*
X103684499Y-93866673D01*
X103684500Y-93866673D01*
X103684500Y-93773327D01*
X103684499Y-93773326D01*
X103660341Y-93683168D01*
X103613671Y-93602332D01*
X103547667Y-93536328D01*
X103475906Y-93494898D01*
X103466832Y-93489659D01*
X103466831Y-93489658D01*
X103466832Y-93489658D01*
X103376673Y-93465500D01*
X103376671Y-93465500D01*
X103283329Y-93465500D01*
X103283327Y-93465500D01*
X103193168Y-93489658D01*
X103112332Y-93536328D01*
X103046328Y-93602332D01*
X102999658Y-93683168D01*
X102975500Y-93773326D01*
X102724499Y-93773326D01*
X102700341Y-93683168D01*
X102653671Y-93602332D01*
X102587667Y-93536328D01*
X102544141Y-93511199D01*
X102509662Y-93466266D01*
X102517054Y-93410114D01*
X102544139Y-93383028D01*
X102577668Y-93363671D01*
X102643671Y-93297668D01*
X102690341Y-93216832D01*
X102714499Y-93126673D01*
X102714500Y-93126673D01*
X102714500Y-93033327D01*
X102714499Y-93033326D01*
X102690341Y-92943168D01*
X102643671Y-92862332D01*
X102577667Y-92796328D01*
X102496830Y-92749658D01*
X102496832Y-92749658D01*
X102406673Y-92725500D01*
X102406671Y-92725500D01*
X102313329Y-92725500D01*
X102313327Y-92725500D01*
X102223168Y-92749658D01*
X102142332Y-92796328D01*
X102076328Y-92862332D01*
X102029658Y-92943168D01*
X102007304Y-93026594D01*
X101975582Y-93067935D01*
X101995586Y-93083285D01*
X102005500Y-93120285D01*
X102005500Y-93126673D01*
X102029658Y-93216831D01*
X102032465Y-93221692D01*
X102076329Y-93297668D01*
X102142332Y-93363671D01*
X102185859Y-93388801D01*
X102220337Y-93433732D01*
X102212946Y-93489885D01*
X102185859Y-93516972D01*
X102152331Y-93536329D01*
X102086328Y-93602332D01*
X102064086Y-93640858D01*
X102019153Y-93675337D01*
X101963001Y-93667945D01*
X101935914Y-93640858D01*
X101913671Y-93602332D01*
X101847667Y-93536328D01*
X101775906Y-93494898D01*
X101766832Y-93489659D01*
X101766831Y-93489658D01*
X101766830Y-93489658D01*
X101766827Y-93489656D01*
X101765351Y-93489261D01*
X101764739Y-93488791D01*
X101762350Y-93487802D01*
X101762615Y-93487161D01*
X101720421Y-93454778D01*
X101713035Y-93398625D01*
X101732185Y-93365460D01*
X101761826Y-93335820D01*
X101827718Y-93221692D01*
X101860021Y-93101130D01*
X101891744Y-93059790D01*
X101871740Y-93044441D01*
X101861826Y-93007441D01*
X101861826Y-92962612D01*
X101861825Y-92962611D01*
X101856615Y-92943168D01*
X101827718Y-92835320D01*
X101761826Y-92721192D01*
X101668640Y-92628006D01*
X101554516Y-92562116D01*
X101554507Y-92562112D01*
X101427220Y-92528006D01*
X101427218Y-92528006D01*
X101295434Y-92528006D01*
X101295432Y-92528006D01*
X101168144Y-92562112D01*
X101168135Y-92562116D01*
X101054011Y-92628006D01*
X100960826Y-92721191D01*
X100894936Y-92835315D01*
X100894932Y-92835324D01*
X100860826Y-92962611D01*
X100300500Y-92962611D01*
X100300500Y-92380613D01*
X103595500Y-92380613D01*
X103595500Y-92519387D01*
X103602176Y-92552950D01*
X103622571Y-92655488D01*
X103622573Y-92655495D01*
X103675680Y-92783706D01*
X103752779Y-92899093D01*
X103850907Y-92997221D01*
X103966294Y-93074320D01*
X104094505Y-93127427D01*
X104230613Y-93154500D01*
X104369387Y-93154500D01*
X104505495Y-93127427D01*
X104633706Y-93074320D01*
X104749093Y-92997221D01*
X104847221Y-92899093D01*
X104924320Y-92783706D01*
X104977427Y-92655495D01*
X105004500Y-92519387D01*
X105004500Y-92380613D01*
X104977427Y-92244505D01*
X104924320Y-92116294D01*
X104847221Y-92000907D01*
X104749093Y-91902779D01*
X104633706Y-91825680D01*
X104633703Y-91825678D01*
X104633702Y-91825678D01*
X104505495Y-91772573D01*
X104505488Y-91772571D01*
X104369387Y-91745500D01*
X104230613Y-91745500D01*
X104094511Y-91772571D01*
X104094504Y-91772573D01*
X103966297Y-91825678D01*
X103850907Y-91902778D01*
X103850906Y-91902780D01*
X103752780Y-92000906D01*
X103752778Y-92000907D01*
X103675678Y-92116297D01*
X103622573Y-92244504D01*
X103622571Y-92244511D01*
X103595500Y-92380613D01*
X100300500Y-92380613D01*
X100300500Y-92236713D01*
X100322174Y-92184387D01*
X100374500Y-92162713D01*
X100406996Y-92170230D01*
X100448607Y-92190573D01*
X100516740Y-92200500D01*
X100516746Y-92200500D01*
X101883254Y-92200500D01*
X101883260Y-92200500D01*
X101951393Y-92190573D01*
X102056483Y-92139198D01*
X102139198Y-92056483D01*
X102190573Y-91951393D01*
X102200500Y-91883260D01*
X102200500Y-91503326D01*
X110095500Y-91503326D01*
X110095500Y-91596673D01*
X110119658Y-91686831D01*
X110119659Y-91686832D01*
X110166329Y-91767668D01*
X110232332Y-91833671D01*
X110313168Y-91880341D01*
X110313167Y-91880341D01*
X110326864Y-91884011D01*
X110403326Y-91904499D01*
X110403327Y-91904500D01*
X110403329Y-91904500D01*
X110496673Y-91904500D01*
X110496673Y-91904499D01*
X110586832Y-91880341D01*
X110667668Y-91833671D01*
X110733671Y-91767668D01*
X110780341Y-91686832D01*
X110804499Y-91596673D01*
X110804500Y-91596673D01*
X110804500Y-91503327D01*
X110804499Y-91503326D01*
X110780341Y-91413168D01*
X110733671Y-91332332D01*
X110667667Y-91266328D01*
X110586830Y-91219658D01*
X110586832Y-91219658D01*
X110496673Y-91195500D01*
X110496671Y-91195500D01*
X110403329Y-91195500D01*
X110403327Y-91195500D01*
X110313168Y-91219658D01*
X110232332Y-91266328D01*
X110166328Y-91332332D01*
X110119658Y-91413168D01*
X110095500Y-91503326D01*
X102200500Y-91503326D01*
X102200500Y-90516740D01*
X102190573Y-90448607D01*
X102170233Y-90407000D01*
X102166724Y-90350472D01*
X102204214Y-90308019D01*
X102236714Y-90300500D01*
X106588034Y-90300500D01*
X106640360Y-90322174D01*
G37*
%TD.AperFunction*%
%TD*%
M02*
