%TF.GenerationSoftware,KiCad,Pcbnew,9.0.6*%
%TF.CreationDate,2025-12-20T03:33:15-08:00*%
%TF.ProjectId,sg90-prod-ch32f006,73673930-2d70-4726-9f64-2d6368333266,rev?*%
%TF.SameCoordinates,Original*%
%TF.FileFunction,Copper,L1,Top*%
%TF.FilePolarity,Positive*%
%FSLAX46Y46*%
G04 Gerber Fmt 4.6, Leading zero omitted, Abs format (unit mm)*
G04 Created by KiCad (PCBNEW 9.0.6) date 2025-12-20 03:33:15*
%MOMM*%
%LPD*%
G01*
G04 APERTURE LIST*
G04 Aperture macros list*
%AMRoundRect*
0 Rectangle with rounded corners*
0 $1 Rounding radius*
0 $2 $3 $4 $5 $6 $7 $8 $9 X,Y pos of 4 corners*
0 Add a 4 corners polygon primitive as box body*
4,1,4,$2,$3,$4,$5,$6,$7,$8,$9,$2,$3,0*
0 Add four circle primitives for the rounded corners*
1,1,$1+$1,$2,$3*
1,1,$1+$1,$4,$5*
1,1,$1+$1,$6,$7*
1,1,$1+$1,$8,$9*
0 Add four rect primitives between the rounded corners*
20,1,$1+$1,$2,$3,$4,$5,0*
20,1,$1+$1,$4,$5,$6,$7,0*
20,1,$1+$1,$6,$7,$8,$9,0*
20,1,$1+$1,$8,$9,$2,$3,0*%
%AMFreePoly0*
4,1,14,0.885355,0.885355,0.900000,0.850000,0.900000,-0.850000,0.885355,-0.885355,0.850000,-0.900000,-0.550000,-0.900000,-0.585355,-0.885355,-0.885355,-0.585355,-0.900000,-0.550000,-0.900000,0.850000,-0.885355,0.885355,-0.850000,0.900000,0.850000,0.900000,0.885355,0.885355,0.885355,0.885355,$1*%
G04 Aperture macros list end*
%TA.AperFunction,EtchedComponent*%
%ADD10C,0.100000*%
%TD*%
%TA.AperFunction,SMDPad,CuDef*%
%ADD11RoundRect,0.135000X0.135000X0.185000X-0.135000X0.185000X-0.135000X-0.185000X0.135000X-0.185000X0*%
%TD*%
%TA.AperFunction,SMDPad,CuDef*%
%ADD12R,0.280000X0.580000*%
%TD*%
%TA.AperFunction,SMDPad,CuDef*%
%ADD13RoundRect,0.140000X-0.170000X0.140000X-0.170000X-0.140000X0.170000X-0.140000X0.170000X0.140000X0*%
%TD*%
%TA.AperFunction,SMDPad,CuDef*%
%ADD14RoundRect,0.135000X-0.185000X0.135000X-0.185000X-0.135000X0.185000X-0.135000X0.185000X0.135000X0*%
%TD*%
%TA.AperFunction,SMDPad,CuDef*%
%ADD15RoundRect,0.135000X-0.135000X-0.185000X0.135000X-0.185000X0.135000X0.185000X-0.135000X0.185000X0*%
%TD*%
%TA.AperFunction,ComponentPad*%
%ADD16RoundRect,0.250000X-0.650000X0.650000X-0.650000X-0.650000X0.650000X-0.650000X0.650000X0.650000X0*%
%TD*%
%TA.AperFunction,SMDPad,CuDef*%
%ADD17RoundRect,0.135000X0.185000X-0.135000X0.185000X0.135000X-0.185000X0.135000X-0.185000X-0.135000X0*%
%TD*%
%TA.AperFunction,SMDPad,CuDef*%
%ADD18RoundRect,0.140000X0.140000X0.170000X-0.140000X0.170000X-0.140000X-0.170000X0.140000X-0.170000X0*%
%TD*%
%TA.AperFunction,SMDPad,CuDef*%
%ADD19RoundRect,0.050000X-0.070274X0.327966X-0.304537X0.140561X0.070274X-0.327966X0.304537X-0.140561X0*%
%TD*%
%TA.AperFunction,SMDPad,CuDef*%
%ADD20C,0.100000*%
%TD*%
%TA.AperFunction,SMDPad,CuDef*%
%ADD21R,0.800000X0.200000*%
%TD*%
%TA.AperFunction,SMDPad,CuDef*%
%ADD22R,0.200000X0.800000*%
%TD*%
%TA.AperFunction,SMDPad,CuDef*%
%ADD23FreePoly0,90.000000*%
%TD*%
%TA.AperFunction,SMDPad,CuDef*%
%ADD24RoundRect,0.225000X-0.225000X-0.250000X0.225000X-0.250000X0.225000X0.250000X-0.225000X0.250000X0*%
%TD*%
%TA.AperFunction,SMDPad,CuDef*%
%ADD25RoundRect,0.135000X0.010148X-0.228795X0.220985X-0.060130X-0.010148X0.228795X-0.220985X0.060130X0*%
%TD*%
%TA.AperFunction,SMDPad,CuDef*%
%ADD26RoundRect,0.225000X0.225000X0.250000X-0.225000X0.250000X-0.225000X-0.250000X0.225000X-0.250000X0*%
%TD*%
%TA.AperFunction,SMDPad,CuDef*%
%ADD27RoundRect,0.062500X-0.187500X-0.062500X0.187500X-0.062500X0.187500X0.062500X-0.187500X0.062500X0*%
%TD*%
%TA.AperFunction,SMDPad,CuDef*%
%ADD28R,0.900000X1.600000*%
%TD*%
%TA.AperFunction,SMDPad,CuDef*%
%ADD29RoundRect,0.140000X-0.215519X-0.045293X0.003127X-0.220205X0.215519X0.045293X-0.003127X0.220205X0*%
%TD*%
%TA.AperFunction,SMDPad,CuDef*%
%ADD30RoundRect,0.140000X0.170000X-0.140000X0.170000X0.140000X-0.170000X0.140000X-0.170000X-0.140000X0*%
%TD*%
%TA.AperFunction,SMDPad,CuDef*%
%ADD31RoundRect,0.140000X-0.140000X-0.170000X0.140000X-0.170000X0.140000X0.170000X-0.140000X0.170000X0*%
%TD*%
%TA.AperFunction,ComponentPad*%
%ADD32C,1.600000*%
%TD*%
%TA.AperFunction,ComponentPad*%
%ADD33C,1.800000*%
%TD*%
%TA.AperFunction,ViaPad*%
%ADD34C,0.450000*%
%TD*%
%TA.AperFunction,ViaPad*%
%ADD35C,0.800000*%
%TD*%
%TA.AperFunction,Conductor*%
%ADD36C,0.100000*%
%TD*%
%TA.AperFunction,Conductor*%
%ADD37C,0.300000*%
%TD*%
%TA.AperFunction,Conductor*%
%ADD38C,0.500000*%
%TD*%
%TA.AperFunction,Conductor*%
%ADD39C,0.800000*%
%TD*%
G04 APERTURE END LIST*
D10*
%TO.C,NT1*%
X109040000Y-95680000D02*
X109040000Y-95480000D01*
%TO.C,NT2*%
X110450000Y-93960000D02*
X110450000Y-93760000D01*
%TD*%
D11*
%TO.P,R3,1*%
%TO.N,/nSLEEP*%
X103380000Y-93080000D03*
%TO.P,R3,2*%
%TO.N,PGND*%
X102360000Y-93080000D03*
%TD*%
D12*
%TO.P,U2,1,NC*%
%TO.N,unconnected-(U2-NC-Pad1)*%
X108040000Y-97440000D03*
%TO.P,U2,2,A*%
%TO.N,/TX*%
X108540000Y-97440000D03*
%TO.P,U2,3,GND*%
%TO.N,GND*%
X109040000Y-97440000D03*
%TO.P,U2,4,Y*%
%TO.N,/DATA*%
X109040000Y-96000000D03*
%TO.P,U2,5,VCC*%
%TO.N,+3.3V*%
X108040000Y-96000000D03*
%TD*%
D13*
%TO.P,C4,1*%
%TO.N,+3.3V*%
X107020000Y-96520000D03*
%TO.P,C4,2*%
%TO.N,GND*%
X107020000Y-97480000D03*
%TD*%
D14*
%TO.P,R8,1*%
%TO.N,/VINS*%
X106040000Y-98380000D03*
%TO.P,R8,2*%
%TO.N,GND*%
X106040000Y-99400000D03*
%TD*%
D15*
%TO.P,R2,1*%
%TO.N,/POT*%
X104200000Y-99380000D03*
%TO.P,R2,2*%
%TO.N,/VPOS*%
X105220000Y-99380000D03*
%TD*%
D16*
%TO.P,J2,1,Pin_1*%
%TO.N,/OUTA*%
X101200000Y-91200000D03*
%TO.P,J2,2,Pin_2*%
%TO.N,/OUTB*%
X101200000Y-98800000D03*
%TD*%
D17*
%TO.P,R7,1*%
%TO.N,/VSYS*%
X106800000Y-99400000D03*
%TO.P,R7,2*%
%TO.N,/VINS*%
X106800000Y-98380000D03*
%TD*%
D15*
%TO.P,R11,1*%
%TO.N,/OUTB*%
X102470000Y-99380000D03*
%TO.P,R11,2*%
%TO.N,/VSNB*%
X103490000Y-99380000D03*
%TD*%
D18*
%TO.P,C6,1*%
%TO.N,+3.3V*%
X103330000Y-93820000D03*
%TO.P,C6,2*%
%TO.N,PGND*%
X102370000Y-93820000D03*
%TD*%
D19*
%TO.P,D1,1,K*%
%TO.N,/DATA*%
X110638779Y-98465890D03*
%TO.P,D1,2,A*%
%TO.N,GND*%
X110092165Y-98903166D03*
%TD*%
D20*
%TO.P,NT1,1,1*%
%TO.N,/RX*%
X109040000Y-95480000D03*
%TO.P,NT1,2,2*%
%TO.N,/DATA*%
X109040000Y-95680000D03*
%TD*%
D21*
%TO.P,U4,1,PD7/RST/T2C4/OPP1/PA4/U2TX_/OPN2*%
%TO.N,/nRST*%
X109640000Y-94220000D03*
%TO.P,U4,2,PA1/T1/T2/OPN0/XI/A1*%
%TO.N,/ISNS*%
X109640000Y-93820000D03*
%TO.P,U4,3,PA2/T1/T2/U2TX_/OPP0/XO/A0*%
X109640000Y-93420000D03*
%TO.P,U4,4,VSS*%
%TO.N,GND*%
X109640000Y-93020000D03*
%TO.P,U4,5,PD0/T1/TX_/SDA_/OPN1*%
%TO.N,unconnected-(U4-PD0{slash}T1{slash}TX_{slash}SDA_{slash}OPN1-Pad5)*%
X109640000Y-92620000D03*
D22*
%TO.P,U4,6,VDD*%
%TO.N,+3.3V*%
X108940000Y-91920000D03*
%TO.P,U4,7,PC0/T1C1N_/T1/T2/TX_/MOSI_*%
%TO.N,unconnected-(U4-PC0{slash}T1C1N_{slash}T1{slash}T2{slash}TX_{slash}MOSI_-Pad7)*%
X108540000Y-91920000D03*
%TO.P,U4,8,PC1/T1C2N_/T2/RX_/SDA/NSS*%
%TO.N,unconnected-(U4-PC1{slash}T1C2N_{slash}T2{slash}RX_{slash}SDA{slash}NSS-Pad8)*%
X108140000Y-91920000D03*
%TO.P,U4,9,PC2/T1C3N_/T2/SCL*%
%TO.N,unconnected-(U4-PC2{slash}T1C3N_{slash}T2{slash}SCL-Pad9)*%
X107740000Y-91920000D03*
%TO.P,U4,10,PC3/T1/T2*%
%TO.N,unconnected-(U4-PC3{slash}T1{slash}T2-Pad10)*%
X107340000Y-91920000D03*
D21*
%TO.P,U4,11,PC4/T1C1_/T1/MCO/A2*%
%TO.N,/VSNA*%
X106640000Y-92620000D03*
%TO.P,U4,12,PC5/T1C2_/T1/T2/TX_/SCK*%
%TO.N,/EN*%
X106640000Y-93020000D03*
%TO.P,U4,13,PC6/T1C3_/T1/RX_/MOSI*%
%TO.N,/IN1*%
X106640000Y-93420000D03*
%TO.P,U4,14,PC7/T1C4_/T1/T2/MISO*%
%TO.N,/IN2*%
X106640000Y-93820000D03*
%TO.P,U4,15,PD1/SWIO/T1/SCL_/RX_/OPP3*%
%TO.N,/SWDIO*%
X106640000Y-94220000D03*
D22*
%TO.P,U4,16,PD2/T1/T2/U2TX_/A3*%
%TO.N,/VPOS*%
X107340000Y-94920000D03*
%TO.P,U4,17,PD3/T1/T2/U2RX_/NSS_/OPP2/A4*%
%TO.N,/VSNB*%
X107740000Y-94920000D03*
%TO.P,U4,18,PD4/T1/T2/SCK_/OPO0/A7*%
%TO.N,/VINS*%
X108140000Y-94920000D03*
%TO.P,U4,19,PD5/T2/TX/RX_/MISO_/A5*%
%TO.N,/TX*%
X108540000Y-94920000D03*
%TO.P,U4,20,PD6/T2/RX/TX_/MOSI_/A6*%
%TO.N,/RX*%
X108940000Y-94920000D03*
D23*
%TO.P,U4,21,VSS*%
%TO.N,GND*%
X108140000Y-93420000D03*
%TD*%
D11*
%TO.P,R10,1*%
%TO.N,/VSNA*%
X103490000Y-91360000D03*
%TO.P,R10,2*%
%TO.N,GND*%
X102470000Y-91360000D03*
%TD*%
D24*
%TO.P,C1,1*%
%TO.N,/VSYS*%
X108035000Y-90780000D03*
%TO.P,C1,2*%
%TO.N,GND*%
X109585000Y-90780000D03*
%TD*%
D25*
%TO.P,R1,1*%
%TO.N,+3.3V*%
X109426752Y-98143589D03*
%TO.P,R1,2*%
%TO.N,/DATA*%
X110223248Y-97506411D03*
%TD*%
D26*
%TO.P,C9,1*%
%TO.N,/VSYS*%
X106995000Y-90780000D03*
%TO.P,C9,2*%
%TO.N,GND*%
X105445000Y-90780000D03*
%TD*%
D27*
%TO.P,U3,1,VM*%
%TO.N,/VSYS*%
X101400000Y-94710000D03*
%TO.P,U3,2,OUT1*%
%TO.N,/OUTA*%
X101400000Y-95210000D03*
%TO.P,U3,3,OUT2*%
%TO.N,/OUTB*%
X101400000Y-95710000D03*
%TO.P,U3,4,GND*%
%TO.N,PGND*%
X101400000Y-96210000D03*
%TO.P,U3,5,IN2*%
%TO.N,/IN2*%
X103300000Y-96210000D03*
%TO.P,U3,6,IN1*%
%TO.N,/IN1*%
X103300000Y-95710000D03*
%TO.P,U3,7,~{SLEEP}*%
%TO.N,/nSLEEP*%
X103300000Y-95210000D03*
%TO.P,U3,8,VCC*%
%TO.N,+3.3V*%
X103300000Y-94710000D03*
D28*
%TO.P,U3,9,GND*%
%TO.N,PGND*%
X102350000Y-95460000D03*
%TD*%
D20*
%TO.P,NT2,1,1*%
%TO.N,/ISNS*%
X110450000Y-93760000D03*
%TO.P,NT2,2,2*%
%TO.N,PGND*%
X110450000Y-93960000D03*
%TD*%
D17*
%TO.P,R6,1*%
%TO.N,+3.3V*%
X110050000Y-96380000D03*
%TO.P,R6,2*%
%TO.N,/nRST*%
X110050000Y-95360000D03*
%TD*%
D13*
%TO.P,C5,1*%
%TO.N,/VPOS*%
X106010000Y-95520000D03*
%TO.P,C5,2*%
%TO.N,GND*%
X106010000Y-96480000D03*
%TD*%
D15*
%TO.P,R9,1*%
%TO.N,/OUTA*%
X102470000Y-90620000D03*
%TO.P,R9,2*%
%TO.N,/VSNA*%
X103490000Y-90620000D03*
%TD*%
D29*
%TO.P,C8,1*%
%TO.N,+3.3V*%
X110460000Y-91150000D03*
%TO.P,C8,2*%
%TO.N,GND*%
X111209642Y-91749696D03*
%TD*%
D11*
%TO.P,R12,1*%
%TO.N,/VSNB*%
X103490000Y-98620000D03*
%TO.P,R12,2*%
%TO.N,GND*%
X102470000Y-98620000D03*
%TD*%
D30*
%TO.P,C2,1*%
%TO.N,/VSYS*%
X107950000Y-99410000D03*
%TO.P,C2,2*%
%TO.N,GND*%
X107950000Y-98450000D03*
%TD*%
D31*
%TO.P,C7,1*%
%TO.N,/VSYS*%
X100670000Y-93820000D03*
%TO.P,C7,2*%
%TO.N,PGND*%
X101630000Y-93820000D03*
%TD*%
D30*
%TO.P,C3,1*%
%TO.N,+3.3V*%
X108710000Y-99410000D03*
%TO.P,C3,2*%
%TO.N,GND*%
X108710000Y-98450000D03*
%TD*%
D17*
%TO.P,R5,1*%
%TO.N,/nSLEEP*%
X105625000Y-93360000D03*
%TO.P,R5,2*%
%TO.N,/EN*%
X105625000Y-92340000D03*
%TD*%
D32*
%TO.P,J1,1,Pin_1*%
%TO.N,GND*%
X111370000Y-93000000D03*
%TO.P,J1,2,Pin_2*%
%TO.N,VIN*%
X111370000Y-95000000D03*
%TO.P,J1,3,Pin_3*%
%TO.N,/DATA*%
X111370000Y-97000000D03*
%TD*%
D33*
%TO.P,J4,3,Pin_3*%
%TO.N,GND*%
X104300000Y-97530000D03*
%TD*%
D34*
%TO.N,GND*%
X108750000Y-94025000D03*
X102475000Y-91375000D03*
D35*
X109585000Y-90780000D03*
D34*
X107520000Y-93425000D03*
X102470000Y-98620000D03*
X108150000Y-93425000D03*
X108150000Y-94025000D03*
X110690000Y-95950000D03*
X110092165Y-98903166D03*
D35*
X104890000Y-90740000D03*
X102010000Y-97235000D03*
D34*
X107950000Y-98450000D03*
X107510000Y-92825000D03*
X104725000Y-93800000D03*
X108710000Y-98450000D03*
X108140000Y-92825000D03*
X105960000Y-96840000D03*
X108750000Y-93425000D03*
X107520000Y-94025000D03*
X111209642Y-91749696D03*
%TO.N,/nRST*%
X110050000Y-95360000D03*
%TO.N,/VPOS*%
X105220000Y-99380000D03*
X106750000Y-95390000D03*
%TO.N,PGND*%
X102590000Y-95440000D03*
X101630000Y-93820000D03*
X102070000Y-95950000D03*
X102360000Y-93080000D03*
X102080000Y-95440000D03*
X110260000Y-94600000D03*
X102080000Y-94880000D03*
X102370000Y-93820000D03*
X102600000Y-95950000D03*
X102590000Y-94860000D03*
%TO.N,/POT*%
X104200000Y-99380000D03*
D35*
%TO.N,/OUTB*%
X100700000Y-95900000D03*
%TO.N,/OUTA*%
X100700000Y-95000000D03*
D34*
%TO.N,/SWDIO*%
X106190000Y-94620000D03*
%TO.N,+3.3V*%
X110450000Y-91550000D03*
X109426752Y-98143589D03*
D35*
X109271901Y-99085193D03*
D34*
X103330000Y-93820000D03*
X107020000Y-96520000D03*
X110050000Y-96380000D03*
D35*
%TO.N,/VSYS*%
X108035000Y-90780000D03*
X106995000Y-90780000D03*
X101361326Y-93028506D03*
X107450000Y-99290000D03*
%TD*%
D36*
%TO.N,/nRST*%
X109640000Y-94220000D02*
X109640000Y-94950000D01*
X109640000Y-94950000D02*
X110050000Y-95360000D01*
%TO.N,/VPOS*%
X107220000Y-94920000D02*
X106750000Y-95390000D01*
X106010000Y-95520000D02*
X106620000Y-95520000D01*
X107340000Y-94920000D02*
X107220000Y-94920000D01*
X106620000Y-95520000D02*
X106750000Y-95390000D01*
%TO.N,PGND*%
X110260000Y-94600000D02*
X110450000Y-94410000D01*
X110450000Y-94410000D02*
X110450000Y-93960000D01*
%TO.N,/OUTB*%
X101780000Y-99380000D02*
X101200000Y-98800000D01*
D37*
X100900000Y-95700000D02*
X100700000Y-95900000D01*
X101425000Y-95700000D02*
X100900000Y-95700000D01*
D36*
X102470000Y-99380000D02*
X101780000Y-99380000D01*
D37*
%TO.N,/OUTA*%
X100700000Y-95000000D02*
X100900000Y-95200000D01*
D36*
X102470000Y-90620000D02*
X101780000Y-90620000D01*
X101780000Y-90620000D02*
X101200000Y-91200000D01*
D37*
X100900000Y-95200000D02*
X101425000Y-95200000D01*
D36*
%TO.N,/RX*%
X108940000Y-94920000D02*
X108940000Y-95380000D01*
X108940000Y-95380000D02*
X109040000Y-95480000D01*
%TO.N,/ISNS*%
X110220000Y-93420000D02*
X110450000Y-93650000D01*
X110450000Y-93650000D02*
X110450000Y-93760000D01*
X109640000Y-93420000D02*
X110220000Y-93420000D01*
X109800000Y-93660000D02*
X109640000Y-93820000D01*
X110450000Y-93760000D02*
X110350000Y-93660000D01*
X110350000Y-93660000D02*
X109800000Y-93660000D01*
%TO.N,/TX*%
X108540000Y-94920000D02*
X108540000Y-97440000D01*
%TO.N,/DATA*%
X110863589Y-97506411D02*
X111370000Y-97000000D01*
X109040000Y-96323163D02*
X110223248Y-97506411D01*
X109040000Y-96000000D02*
X109040000Y-95680000D01*
X109040000Y-96000000D02*
X109040000Y-96323163D01*
X111370000Y-97000000D02*
X110638779Y-97731221D01*
X110223248Y-97506411D02*
X110863589Y-97506411D01*
X110638779Y-97731221D02*
X110638779Y-98465890D01*
%TO.N,/SWDIO*%
X106640000Y-94220000D02*
X106590000Y-94220000D01*
X106590000Y-94220000D02*
X106190000Y-94620000D01*
%TO.N,/IN2*%
X105513000Y-94517114D02*
X106210114Y-93820000D01*
X105513000Y-95688114D02*
X105513000Y-94517114D01*
X103300000Y-96210000D02*
X104991114Y-96210000D01*
X104991114Y-96210000D02*
X105513000Y-95688114D01*
X106210114Y-93820000D02*
X106640000Y-93820000D01*
%TO.N,/IN1*%
X103574675Y-95710000D02*
X103876675Y-96012000D01*
X104919000Y-96012000D02*
X105322000Y-95609000D01*
X105322000Y-95609000D02*
X105322000Y-94438000D01*
X103300000Y-95710000D02*
X103574675Y-95710000D01*
X106340000Y-93420000D02*
X106640000Y-93420000D01*
X103876675Y-96012000D02*
X104919000Y-96012000D01*
X105322000Y-94438000D02*
X106340000Y-93420000D01*
%TO.N,/VINS*%
X106779000Y-96011000D02*
X107259115Y-96011000D01*
X106461000Y-96329000D02*
X106779000Y-96011000D01*
X107981000Y-95461000D02*
X108140000Y-95302000D01*
X108140000Y-95302000D02*
X108140000Y-94920000D01*
X107259115Y-96011000D02*
X107809114Y-95461000D01*
X107809114Y-95461000D02*
X107981000Y-95461000D01*
X106040000Y-98380000D02*
X106461000Y-97959000D01*
X106461000Y-97959000D02*
X106461000Y-96329000D01*
X106040000Y-98380000D02*
X106800000Y-98380000D01*
%TO.N,/EN*%
X105625000Y-92340000D02*
X106305000Y-93020000D01*
X106305000Y-93020000D02*
X106640000Y-93020000D01*
%TO.N,/VSNA*%
X103590000Y-91460000D02*
X105480000Y-91460000D01*
X103490000Y-91360000D02*
X103590000Y-91460000D01*
X103490000Y-91370000D02*
X103490000Y-90620000D01*
X105480000Y-91460000D02*
X106640000Y-92620000D01*
%TO.N,+3.3V*%
X109160000Y-99197094D02*
X109160000Y-99300000D01*
X110291178Y-91550000D02*
X109921178Y-91920000D01*
X103330000Y-93820000D02*
X103300000Y-93850000D01*
X109271901Y-99085193D02*
X109160000Y-99197094D01*
D38*
X109100000Y-99257094D02*
X109100000Y-99360000D01*
D36*
X110450000Y-91550000D02*
X110291178Y-91550000D01*
D38*
X109271901Y-99085193D02*
X109100000Y-99257094D01*
D36*
X103300000Y-93850000D02*
X103300000Y-94710000D01*
X109921178Y-91920000D02*
X108940000Y-91920000D01*
X107520000Y-96520000D02*
X108040000Y-96000000D01*
D38*
X109100000Y-99360000D02*
X109050000Y-99410000D01*
X109050000Y-99410000D02*
X108710000Y-99410000D01*
D36*
X107020000Y-96520000D02*
X107520000Y-96520000D01*
%TO.N,/VSNB*%
X105568726Y-96000000D02*
X106350000Y-96000000D01*
X107740000Y-95260000D02*
X107740000Y-94920000D01*
X103490000Y-99380000D02*
X103490000Y-98620000D01*
X105320000Y-96248726D02*
X105568726Y-96000000D01*
X107180000Y-95820000D02*
X107740000Y-95260000D01*
X106530000Y-95820000D02*
X107180000Y-95820000D01*
X104776760Y-98681000D02*
X105451000Y-98006760D01*
X105320000Y-96922240D02*
X105320000Y-96248726D01*
X105451000Y-97053240D02*
X105320000Y-96922240D01*
X106350000Y-96000000D02*
X106530000Y-95820000D01*
X103490000Y-98620000D02*
X103551000Y-98681000D01*
X105451000Y-98006760D02*
X105451000Y-97053240D01*
X103551000Y-98681000D02*
X104776760Y-98681000D01*
%TO.N,/nSLEEP*%
X103344789Y-95210000D02*
X103955789Y-95821000D01*
X105131000Y-95334211D02*
X105131000Y-94358886D01*
X105485000Y-93275000D02*
X105550000Y-93340000D01*
X104644211Y-95821000D02*
X105131000Y-95334211D01*
X105550000Y-93939886D02*
X105550000Y-93340000D01*
X103660000Y-93360000D02*
X105625000Y-93360000D01*
X103300000Y-95210000D02*
X103344789Y-95210000D01*
X103380000Y-93080000D02*
X103660000Y-93360000D01*
X105131000Y-94358886D02*
X105550000Y-93939886D01*
X103955789Y-95821000D02*
X104644211Y-95821000D01*
D38*
%TO.N,/VSYS*%
X107450000Y-99290000D02*
X107450000Y-99320000D01*
X100670000Y-93907925D02*
X101436038Y-94673963D01*
X100670000Y-93820000D02*
X100670000Y-93907925D01*
X107450000Y-99320000D02*
X107540000Y-99410000D01*
D36*
X101361326Y-92809489D02*
X101459093Y-92711722D01*
D39*
X101361326Y-93028506D02*
X100942494Y-93028506D01*
X100701000Y-93270000D02*
X100701000Y-93820000D01*
D38*
X107540000Y-99410000D02*
X107950000Y-99410000D01*
D36*
X107340000Y-99400000D02*
X107450000Y-99290000D01*
D39*
X100942494Y-93028506D02*
X100701000Y-93270000D01*
D36*
X101459093Y-92711722D02*
X101488278Y-92711722D01*
X106800000Y-99400000D02*
X107340000Y-99400000D01*
X100670000Y-93980000D02*
X100670000Y-93820000D01*
X101361326Y-93028506D02*
X101361326Y-92809489D01*
%TD*%
%TA.AperFunction,Conductor*%
%TO.N,PGND*%
G36*
X102779008Y-92771674D02*
G01*
X102800679Y-92823315D01*
X102825000Y-95450032D01*
X102848001Y-96324053D01*
X102827711Y-96376931D01*
X102775974Y-96399974D01*
X102774027Y-96400000D01*
X101174000Y-96400000D01*
X101121674Y-96378326D01*
X101100000Y-96326000D01*
X101100000Y-96228008D01*
X101109914Y-96191008D01*
X101166391Y-96093187D01*
X101166392Y-96093186D01*
X101176664Y-96054846D01*
X101211143Y-96009914D01*
X101248143Y-96000000D01*
X101800000Y-96000000D01*
X101800000Y-94300000D01*
X101588408Y-94300000D01*
X101536082Y-94278326D01*
X101221674Y-93963918D01*
X101200000Y-93911592D01*
X101200000Y-93901231D01*
X101201378Y-93890765D01*
X101200867Y-93890698D01*
X101201500Y-93885892D01*
X101201500Y-93603006D01*
X101223174Y-93550680D01*
X101275500Y-93529006D01*
X101427220Y-93529006D01*
X101427220Y-93529005D01*
X101554512Y-93494898D01*
X101668640Y-93429006D01*
X101675972Y-93421674D01*
X101728298Y-93400000D01*
X101979999Y-93400000D01*
X101980000Y-93400000D01*
X101997793Y-92821723D01*
X102021066Y-92770090D01*
X102071758Y-92750000D01*
X102726682Y-92750000D01*
X102779008Y-92771674D01*
G37*
%TD.AperFunction*%
%TD*%
%TA.AperFunction,Conductor*%
%TO.N,GND*%
G36*
X100411499Y-96311361D02*
G01*
X100506814Y-96366392D01*
X100634105Y-96400499D01*
X100634106Y-96400500D01*
X100634108Y-96400500D01*
X100765894Y-96400500D01*
X100765894Y-96400499D01*
X100893186Y-96366392D01*
X100908357Y-96357633D01*
X100964509Y-96350239D01*
X101009443Y-96384717D01*
X101013725Y-96393398D01*
X101024205Y-96418699D01*
X101024206Y-96418700D01*
X101024206Y-96418701D01*
X101031720Y-96433450D01*
X101068671Y-96465008D01*
X101081301Y-96475795D01*
X101133627Y-96497469D01*
X101174000Y-96505500D01*
X102773955Y-96505500D01*
X102774027Y-96505500D01*
X102775436Y-96505491D01*
X102777383Y-96505465D01*
X102818897Y-96496347D01*
X102870634Y-96473304D01*
X102885182Y-96465403D01*
X102920850Y-96421344D01*
X102970619Y-96394315D01*
X103019474Y-96406379D01*
X103048901Y-96426042D01*
X103096448Y-96435500D01*
X103096450Y-96435500D01*
X103503550Y-96435500D01*
X103503552Y-96435500D01*
X103551099Y-96426042D01*
X103605016Y-96390016D01*
X103605017Y-96390015D01*
X103610167Y-96384865D01*
X103612310Y-96387008D01*
X103649853Y-96361922D01*
X103664291Y-96360500D01*
X105021049Y-96360500D01*
X105021050Y-96360500D01*
X105032506Y-96355754D01*
X105043963Y-96351009D01*
X105043964Y-96351008D01*
X105067186Y-96341390D01*
X105123823Y-96341394D01*
X105163869Y-96381445D01*
X105169500Y-96409759D01*
X105169500Y-96952176D01*
X105176048Y-96967983D01*
X105176049Y-96967988D01*
X105176050Y-96967988D01*
X105192411Y-97007491D01*
X105278826Y-97093906D01*
X105300500Y-97146232D01*
X105300500Y-97913768D01*
X105278826Y-97966094D01*
X104736094Y-98508826D01*
X104683768Y-98530500D01*
X103934500Y-98530500D01*
X103882174Y-98508826D01*
X103860500Y-98456500D01*
X103860500Y-98411805D01*
X103851793Y-98368034D01*
X103846836Y-98343112D01*
X103794786Y-98265214D01*
X103773974Y-98251308D01*
X103716888Y-98213164D01*
X103700665Y-98209937D01*
X103648196Y-98199500D01*
X103331804Y-98199500D01*
X103286009Y-98208609D01*
X103263111Y-98213164D01*
X103185214Y-98265213D01*
X103185213Y-98265214D01*
X103133164Y-98343111D01*
X103133164Y-98343112D01*
X103119500Y-98411804D01*
X103119500Y-98828196D01*
X103132193Y-98892007D01*
X103133164Y-98896888D01*
X103174591Y-98958888D01*
X103185640Y-99014437D01*
X103174591Y-99041112D01*
X103133164Y-99103111D01*
X103119500Y-99171805D01*
X103119500Y-99588194D01*
X103124049Y-99611063D01*
X103122570Y-99618497D01*
X103125471Y-99625500D01*
X103117210Y-99645441D01*
X103113000Y-99666612D01*
X103106697Y-99670823D01*
X103103797Y-99677826D01*
X103083854Y-99686086D01*
X103065908Y-99698078D01*
X103051471Y-99699500D01*
X102908529Y-99699500D01*
X102856203Y-99677826D01*
X102834529Y-99625500D01*
X102835951Y-99611063D01*
X102840500Y-99588194D01*
X102840500Y-99171805D01*
X102836379Y-99151087D01*
X102826836Y-99103112D01*
X102774786Y-99025214D01*
X102766363Y-99019586D01*
X102696888Y-98973164D01*
X102628196Y-98959500D01*
X102311804Y-98959500D01*
X102295289Y-98962785D01*
X102288934Y-98964049D01*
X102233386Y-98952997D01*
X102201921Y-98905904D01*
X102200500Y-98891470D01*
X102200500Y-98116746D01*
X102200500Y-98116740D01*
X102190573Y-98048607D01*
X102139198Y-97943517D01*
X102056483Y-97860802D01*
X102056482Y-97860801D01*
X101951394Y-97809427D01*
X101883264Y-97799500D01*
X101883260Y-97799500D01*
X100516740Y-97799500D01*
X100516735Y-97799500D01*
X100448606Y-97809427D01*
X100448605Y-97809427D01*
X100407000Y-97829767D01*
X100350472Y-97833276D01*
X100308019Y-97795786D01*
X100300500Y-97763286D01*
X100300500Y-96375448D01*
X100322174Y-96323122D01*
X100374500Y-96301448D01*
X100411499Y-96311361D01*
G37*
%TD.AperFunction*%
%TA.AperFunction,Conductor*%
G36*
X108803404Y-96338355D02*
G01*
X108817091Y-96346814D01*
X108827543Y-96362457D01*
X108860787Y-96384669D01*
X108886674Y-96389818D01*
X108898039Y-96396842D01*
X108902081Y-96402450D01*
X108911461Y-96407464D01*
X108912411Y-96408414D01*
X108912412Y-96408415D01*
X109358327Y-96854330D01*
X109770359Y-97266361D01*
X109792033Y-97318687D01*
X109788573Y-97341051D01*
X109763618Y-97419760D01*
X109771635Y-97513105D01*
X109803874Y-97575279D01*
X109803876Y-97575281D01*
X110063990Y-97900432D01*
X110085256Y-97918334D01*
X110117567Y-97945534D01*
X110117568Y-97945534D01*
X110117570Y-97945536D01*
X110206877Y-97973850D01*
X110300220Y-97965833D01*
X110322508Y-97954275D01*
X110378935Y-97949429D01*
X110422264Y-97985904D01*
X110427111Y-98042333D01*
X110402798Y-98077754D01*
X110228655Y-98217065D01*
X110199828Y-98251308D01*
X110199828Y-98251309D01*
X110181733Y-98308382D01*
X110186857Y-98368034D01*
X110206752Y-98406403D01*
X110207463Y-98407774D01*
X110600787Y-98899442D01*
X110635030Y-98928268D01*
X110635031Y-98928268D01*
X110635033Y-98928270D01*
X110663198Y-98937199D01*
X110706526Y-98973674D01*
X110711373Y-99030103D01*
X110687060Y-99065523D01*
X109914860Y-99683284D01*
X109868633Y-99699500D01*
X109475145Y-99699500D01*
X109422819Y-99677826D01*
X109401145Y-99625500D01*
X109422819Y-99573174D01*
X109455990Y-99554022D01*
X109465087Y-99551585D01*
X109579215Y-99485693D01*
X109672401Y-99392507D01*
X109738293Y-99278379D01*
X109772400Y-99151087D01*
X109772401Y-99151087D01*
X109772401Y-99019299D01*
X109772400Y-99019298D01*
X109756377Y-98959500D01*
X109738293Y-98892007D01*
X109672401Y-98777879D01*
X109579215Y-98684693D01*
X109579213Y-98684691D01*
X109575368Y-98681741D01*
X109577106Y-98679474D01*
X109548136Y-98641733D01*
X109555519Y-98585579D01*
X109573381Y-98564786D01*
X109812963Y-98373126D01*
X109858068Y-98319545D01*
X109886382Y-98230239D01*
X109878365Y-98136895D01*
X109846381Y-98075214D01*
X109846125Y-98074720D01*
X109781442Y-97993865D01*
X109586010Y-97749568D01*
X109562724Y-97729966D01*
X109532432Y-97704465D01*
X109532428Y-97704463D01*
X109443123Y-97676150D01*
X109349780Y-97684167D01*
X109349779Y-97684167D01*
X109287605Y-97716405D01*
X109040896Y-97913768D01*
X109040541Y-97914052D01*
X109024091Y-97933593D01*
X108995435Y-97967634D01*
X108967122Y-98056938D01*
X108967122Y-98056939D01*
X108974859Y-98147019D01*
X108975139Y-98150283D01*
X109007378Y-98212457D01*
X109029780Y-98240460D01*
X109216936Y-98474411D01*
X109232698Y-98528810D01*
X109205378Y-98578422D01*
X109178304Y-98592115D01*
X109078719Y-98618799D01*
X109078710Y-98618803D01*
X108964586Y-98684693D01*
X108871401Y-98777878D01*
X108805511Y-98892002D01*
X108805510Y-98892004D01*
X108805509Y-98892006D01*
X108805509Y-98892007D01*
X108783363Y-98974654D01*
X108748886Y-99019586D01*
X108711886Y-99029500D01*
X108516312Y-99029500D01*
X108469544Y-99038802D01*
X108446160Y-99043454D01*
X108371112Y-99093600D01*
X108315563Y-99104649D01*
X108288888Y-99093600D01*
X108213839Y-99043454D01*
X108202065Y-99041112D01*
X108143688Y-99029500D01*
X108143686Y-99029500D01*
X107920252Y-99029500D01*
X107867926Y-99007826D01*
X107856166Y-98992500D01*
X107850500Y-98982686D01*
X107757314Y-98889500D01*
X107666612Y-98837133D01*
X107643190Y-98823610D01*
X107643181Y-98823606D01*
X107515894Y-98789500D01*
X107515892Y-98789500D01*
X107384108Y-98789500D01*
X107384106Y-98789500D01*
X107256818Y-98823606D01*
X107256809Y-98823610D01*
X107142685Y-98889500D01*
X107049496Y-98982690D01*
X107049495Y-98982691D01*
X107043832Y-98992501D01*
X106998898Y-99026979D01*
X106979747Y-99029500D01*
X106591804Y-99029500D01*
X106546009Y-99038609D01*
X106523111Y-99043164D01*
X106445214Y-99095213D01*
X106445213Y-99095214D01*
X106393164Y-99173111D01*
X106379500Y-99241805D01*
X106379500Y-99558195D01*
X106390016Y-99611064D01*
X106378967Y-99666612D01*
X106331874Y-99698078D01*
X106317438Y-99699500D01*
X105658529Y-99699500D01*
X105606203Y-99677826D01*
X105584529Y-99625500D01*
X105585951Y-99611063D01*
X105590500Y-99588194D01*
X105590500Y-99171805D01*
X105586379Y-99151087D01*
X105576836Y-99103112D01*
X105524786Y-99025214D01*
X105516363Y-99019586D01*
X105446888Y-98973164D01*
X105378196Y-98959500D01*
X105061804Y-98959500D01*
X105016009Y-98968609D01*
X104993111Y-98973164D01*
X104915214Y-99025213D01*
X104915213Y-99025214D01*
X104863164Y-99103111D01*
X104849500Y-99171805D01*
X104849500Y-99588194D01*
X104854049Y-99611063D01*
X104852570Y-99618497D01*
X104855471Y-99625500D01*
X104847210Y-99645441D01*
X104843000Y-99666612D01*
X104836697Y-99670823D01*
X104833797Y-99677826D01*
X104813854Y-99686086D01*
X104795908Y-99698078D01*
X104781471Y-99699500D01*
X104638529Y-99699500D01*
X104586203Y-99677826D01*
X104564529Y-99625500D01*
X104565951Y-99611063D01*
X104570500Y-99588194D01*
X104570500Y-99171805D01*
X104566379Y-99151087D01*
X104556836Y-99103112D01*
X104504786Y-99025214D01*
X104496363Y-99019586D01*
X104420828Y-98969115D01*
X104422031Y-98967313D01*
X104388537Y-98933818D01*
X104388537Y-98877181D01*
X104428586Y-98837133D01*
X104456904Y-98831500D01*
X104806695Y-98831500D01*
X104806696Y-98831500D01*
X104829608Y-98822009D01*
X104862012Y-98808588D01*
X105493174Y-98177424D01*
X105545500Y-98155751D01*
X105597826Y-98177425D01*
X105619500Y-98229751D01*
X105619500Y-98538196D01*
X105628749Y-98584693D01*
X105633164Y-98606888D01*
X105685150Y-98684691D01*
X105685214Y-98684786D01*
X105763112Y-98736836D01*
X105831804Y-98750500D01*
X105831806Y-98750500D01*
X106248194Y-98750500D01*
X106248196Y-98750500D01*
X106316888Y-98736836D01*
X106378887Y-98695408D01*
X106434436Y-98684359D01*
X106461111Y-98695408D01*
X106523112Y-98736836D01*
X106591804Y-98750500D01*
X106591806Y-98750500D01*
X107008194Y-98750500D01*
X107008196Y-98750500D01*
X107076888Y-98736836D01*
X107154786Y-98684786D01*
X107206836Y-98606888D01*
X107220500Y-98538196D01*
X107220500Y-98221804D01*
X107206836Y-98153112D01*
X107154786Y-98075214D01*
X107154045Y-98074719D01*
X107076888Y-98023164D01*
X107044105Y-98016643D01*
X107008196Y-98009500D01*
X107008194Y-98009500D01*
X106685500Y-98009500D01*
X106633174Y-97987826D01*
X106611500Y-97935500D01*
X106611500Y-96928330D01*
X106633174Y-96876004D01*
X106685500Y-96854330D01*
X106726611Y-96866801D01*
X106756161Y-96886546D01*
X106826312Y-96900500D01*
X106826314Y-96900500D01*
X107213686Y-96900500D01*
X107213688Y-96900500D01*
X107283839Y-96886546D01*
X107363391Y-96833391D01*
X107416546Y-96753839D01*
X107421275Y-96730063D01*
X107430558Y-96716170D01*
X107434736Y-96699989D01*
X107444685Y-96695025D01*
X107452740Y-96682971D01*
X107483525Y-96671224D01*
X107488662Y-96670500D01*
X107549936Y-96670500D01*
X107572848Y-96661009D01*
X107605252Y-96647588D01*
X107840666Y-96412172D01*
X107892988Y-96390499D01*
X108189898Y-96390499D01*
X108219213Y-96384669D01*
X108219214Y-96384668D01*
X108219215Y-96384668D01*
X108252454Y-96362459D01*
X108252453Y-96362459D01*
X108252457Y-96362457D01*
X108253968Y-96360194D01*
X108256232Y-96358681D01*
X108257611Y-96357303D01*
X108257885Y-96357577D01*
X108301058Y-96328725D01*
X108356607Y-96339770D01*
X108388077Y-96386860D01*
X108389500Y-96401302D01*
X108389500Y-96996591D01*
X108386599Y-97003594D01*
X108388078Y-97011030D01*
X108376085Y-97028976D01*
X108367826Y-97048917D01*
X108356610Y-97058121D01*
X108331109Y-97075159D01*
X108275560Y-97086207D01*
X108248890Y-97075160D01*
X108219213Y-97055331D01*
X108219210Y-97055330D01*
X108219211Y-97055330D01*
X108201559Y-97051819D01*
X108189899Y-97049500D01*
X108189897Y-97049500D01*
X107890102Y-97049500D01*
X107860784Y-97055331D01*
X107827545Y-97077540D01*
X107827542Y-97077543D01*
X107805331Y-97110786D01*
X107805330Y-97110788D01*
X107799500Y-97140102D01*
X107799500Y-97739897D01*
X107805331Y-97769215D01*
X107827540Y-97802454D01*
X107827542Y-97802456D01*
X107827543Y-97802457D01*
X107860787Y-97824669D01*
X107890101Y-97830500D01*
X108189898Y-97830499D01*
X108219213Y-97824669D01*
X108248889Y-97804840D01*
X108304437Y-97793792D01*
X108331107Y-97804838D01*
X108360787Y-97824669D01*
X108390101Y-97830500D01*
X108689898Y-97830499D01*
X108719213Y-97824669D01*
X108719214Y-97824668D01*
X108719215Y-97824668D01*
X108752454Y-97802459D01*
X108752453Y-97802459D01*
X108752457Y-97802457D01*
X108774669Y-97769213D01*
X108780500Y-97739899D01*
X108780499Y-97140102D01*
X108774669Y-97110787D01*
X108774668Y-97110786D01*
X108774668Y-97110784D01*
X108752459Y-97077545D01*
X108752456Y-97077542D01*
X108723388Y-97058120D01*
X108691922Y-97011028D01*
X108690500Y-96996591D01*
X108690500Y-96401303D01*
X108712174Y-96348977D01*
X108764500Y-96327303D01*
X108803404Y-96338355D01*
G37*
%TD.AperFunction*%
%TA.AperFunction,Conductor*%
G36*
X106313614Y-96172174D02*
G01*
X106335288Y-96224500D01*
X106329656Y-96252817D01*
X106325153Y-96263689D01*
X106325152Y-96263690D01*
X106310500Y-96299062D01*
X106310500Y-97866008D01*
X106288826Y-97918334D01*
X106219334Y-97987826D01*
X106167008Y-98009500D01*
X105831804Y-98009500D01*
X105795895Y-98016643D01*
X105763111Y-98023164D01*
X105716612Y-98054234D01*
X105661063Y-98065283D01*
X105613971Y-98033817D01*
X105601500Y-97992705D01*
X105601500Y-97023304D01*
X105601499Y-97023302D01*
X105592009Y-97000390D01*
X105592008Y-97000389D01*
X105578588Y-96967988D01*
X105492174Y-96881574D01*
X105470500Y-96829248D01*
X105470500Y-96341717D01*
X105492174Y-96289391D01*
X105609391Y-96172174D01*
X105661717Y-96150500D01*
X106261288Y-96150500D01*
X106313614Y-96172174D01*
G37*
%TD.AperFunction*%
%TA.AperFunction,Conductor*%
G36*
X109226873Y-94419857D02*
G01*
X109230101Y-94420500D01*
X109415500Y-94420499D01*
X109467826Y-94442173D01*
X109489500Y-94494499D01*
X109489500Y-94979936D01*
X109495308Y-94993958D01*
X109496497Y-94996827D01*
X109496498Y-94996832D01*
X109496499Y-94996832D01*
X109512411Y-95035251D01*
X109609738Y-95132578D01*
X109631412Y-95184904D01*
X109629991Y-95199334D01*
X109629500Y-95201804D01*
X109629500Y-95518196D01*
X109638850Y-95565200D01*
X109643164Y-95586888D01*
X109661493Y-95614320D01*
X109695214Y-95664786D01*
X109773112Y-95716836D01*
X109841804Y-95730500D01*
X109841806Y-95730500D01*
X110258194Y-95730500D01*
X110258196Y-95730500D01*
X110326888Y-95716836D01*
X110404786Y-95664786D01*
X110456836Y-95586888D01*
X110470500Y-95518196D01*
X110470500Y-95518190D01*
X110470857Y-95514575D01*
X110472117Y-95514699D01*
X110492174Y-95466279D01*
X110544500Y-95444605D01*
X110596826Y-95466279D01*
X110606025Y-95477488D01*
X110636407Y-95522957D01*
X110668526Y-95571028D01*
X110670536Y-95574035D01*
X110795965Y-95699464D01*
X110943453Y-95798013D01*
X110943454Y-95798013D01*
X110943455Y-95798014D01*
X111067755Y-95849500D01*
X111107334Y-95865894D01*
X111281309Y-95900500D01*
X111281311Y-95900500D01*
X111458689Y-95900500D01*
X111458691Y-95900500D01*
X111632666Y-95865894D01*
X111796547Y-95798013D01*
X111944035Y-95699464D01*
X112069464Y-95574035D01*
X112069466Y-95574031D01*
X112072034Y-95571464D01*
X112073333Y-95572763D01*
X112118249Y-95548757D01*
X112172447Y-95565200D01*
X112199144Y-95615150D01*
X112199500Y-95622401D01*
X112199500Y-96377598D01*
X112177826Y-96429924D01*
X112125500Y-96451598D01*
X112073174Y-96429924D01*
X112070763Y-96427265D01*
X112069466Y-96425968D01*
X112069464Y-96425965D01*
X111944035Y-96300536D01*
X111943981Y-96300500D01*
X111796544Y-96201985D01*
X111632670Y-96134107D01*
X111632660Y-96134104D01*
X111516156Y-96110930D01*
X111458691Y-96099500D01*
X111281309Y-96099500D01*
X111231989Y-96109310D01*
X111107339Y-96134104D01*
X111107329Y-96134107D01*
X110943455Y-96201985D01*
X110795968Y-96300533D01*
X110670533Y-96425968D01*
X110606029Y-96522506D01*
X110558936Y-96553972D01*
X110503388Y-96542923D01*
X110471922Y-96495830D01*
X110470500Y-96481394D01*
X110470500Y-96221805D01*
X110470500Y-96221804D01*
X110456836Y-96153112D01*
X110404786Y-96075214D01*
X110381268Y-96059500D01*
X110326888Y-96023164D01*
X110258196Y-96009500D01*
X109841804Y-96009500D01*
X109796009Y-96018609D01*
X109773111Y-96023164D01*
X109695214Y-96075213D01*
X109695213Y-96075214D01*
X109643164Y-96153111D01*
X109643164Y-96153112D01*
X109632184Y-96208314D01*
X109629500Y-96221805D01*
X109629500Y-96521172D01*
X109607826Y-96573498D01*
X109555500Y-96595172D01*
X109503174Y-96573498D01*
X109300019Y-96370343D01*
X109278345Y-96318017D01*
X109279767Y-96303581D01*
X109280500Y-96299899D01*
X109280499Y-95700102D01*
X109274669Y-95670787D01*
X109274668Y-95670786D01*
X109274668Y-95670784D01*
X109252459Y-95637545D01*
X109252456Y-95637542D01*
X109223388Y-95618120D01*
X109191922Y-95571028D01*
X109190500Y-95556591D01*
X109190500Y-95450064D01*
X109190473Y-95450000D01*
X109174297Y-95410950D01*
X109167587Y-95394748D01*
X109155804Y-95382965D01*
X109151292Y-95375686D01*
X109147996Y-95355546D01*
X109140188Y-95336694D01*
X109140499Y-95330348D01*
X109140499Y-95329904D01*
X109140500Y-95329899D01*
X109140499Y-94510102D01*
X109139856Y-94506869D01*
X109142728Y-94492430D01*
X109139858Y-94477994D01*
X109148034Y-94465757D01*
X109150907Y-94451321D01*
X109163147Y-94443142D01*
X109171326Y-94430904D01*
X109185760Y-94428033D01*
X109198000Y-94419856D01*
X109226873Y-94419857D01*
G37*
%TD.AperFunction*%
%TA.AperFunction,Conductor*%
G36*
X105162178Y-93518759D02*
G01*
X105183350Y-93522970D01*
X105187561Y-93529273D01*
X105194565Y-93532174D01*
X105214817Y-93570062D01*
X105218164Y-93586888D01*
X105267757Y-93661110D01*
X105270214Y-93664786D01*
X105348112Y-93716836D01*
X105348120Y-93716837D01*
X105353815Y-93719197D01*
X105364225Y-93729606D01*
X105377826Y-93735240D01*
X105383458Y-93748838D01*
X105393865Y-93759244D01*
X105399500Y-93787566D01*
X105399500Y-93846894D01*
X105377826Y-93899220D01*
X105003411Y-94273634D01*
X104996776Y-94289656D01*
X104996775Y-94289658D01*
X104980500Y-94328948D01*
X104980500Y-94496491D01*
X104958826Y-94548817D01*
X104906500Y-94570491D01*
X104854174Y-94548817D01*
X104849299Y-94543439D01*
X104847220Y-94540906D01*
X104749092Y-94442778D01*
X104693301Y-94405500D01*
X104633706Y-94365680D01*
X104633703Y-94365678D01*
X104633702Y-94365678D01*
X104505495Y-94312573D01*
X104505488Y-94312571D01*
X104369387Y-94285500D01*
X104230613Y-94285500D01*
X104094511Y-94312571D01*
X104094504Y-94312573D01*
X103966297Y-94365678D01*
X103850907Y-94442778D01*
X103850906Y-94442780D01*
X103752780Y-94540906D01*
X103752777Y-94540908D01*
X103744073Y-94553935D01*
X103696979Y-94585399D01*
X103641431Y-94574347D01*
X103621017Y-94553931D01*
X103605018Y-94529986D01*
X103605015Y-94529983D01*
X103551099Y-94493958D01*
X103510062Y-94485795D01*
X103492116Y-94473803D01*
X103472174Y-94465543D01*
X103469272Y-94458539D01*
X103462971Y-94454328D01*
X103450500Y-94413217D01*
X103450500Y-94299820D01*
X103472174Y-94247494D01*
X103510062Y-94227242D01*
X103563839Y-94216546D01*
X103643391Y-94163391D01*
X103696546Y-94083839D01*
X103710500Y-94013688D01*
X103710500Y-93626312D01*
X103705054Y-93598935D01*
X103716103Y-93543389D01*
X103763194Y-93511922D01*
X103777632Y-93510500D01*
X105142239Y-93510500D01*
X105162178Y-93518759D01*
G37*
%TD.AperFunction*%
%TA.AperFunction,Conductor*%
G36*
X110991020Y-91179464D02*
G01*
X111003178Y-91187370D01*
X112171727Y-92122209D01*
X112199047Y-92171820D01*
X112199500Y-92179992D01*
X112199500Y-94377598D01*
X112177826Y-94429924D01*
X112125500Y-94451598D01*
X112073174Y-94429924D01*
X112070763Y-94427265D01*
X112069466Y-94425968D01*
X112069464Y-94425965D01*
X111944035Y-94300536D01*
X111942963Y-94299820D01*
X111796544Y-94201985D01*
X111632670Y-94134107D01*
X111632660Y-94134104D01*
X111516156Y-94110930D01*
X111458691Y-94099500D01*
X111281309Y-94099500D01*
X111231989Y-94109310D01*
X111107339Y-94134104D01*
X111107329Y-94134107D01*
X110943455Y-94201985D01*
X110795968Y-94300533D01*
X110795967Y-94300534D01*
X110795965Y-94300535D01*
X110795965Y-94300536D01*
X110726824Y-94369676D01*
X110674500Y-94391350D01*
X110622174Y-94369676D01*
X110600500Y-94317350D01*
X110600500Y-93620063D01*
X110577587Y-93564749D01*
X110577586Y-93564747D01*
X110577585Y-93564746D01*
X110305252Y-93292412D01*
X110305249Y-93292410D01*
X110272849Y-93278990D01*
X110272848Y-93278990D01*
X110249936Y-93269500D01*
X110249934Y-93269500D01*
X110165066Y-93269500D01*
X110119237Y-93250517D01*
X110118519Y-93251593D01*
X110113110Y-93247979D01*
X110112740Y-93247826D01*
X110112456Y-93247542D01*
X110079213Y-93225331D01*
X110079211Y-93225330D01*
X110060919Y-93221692D01*
X110049899Y-93219500D01*
X110049897Y-93219500D01*
X109230102Y-93219500D01*
X109200784Y-93225331D01*
X109167545Y-93247540D01*
X109167542Y-93247543D01*
X109145331Y-93280786D01*
X109145330Y-93280788D01*
X109139500Y-93310102D01*
X109139500Y-93529897D01*
X109145331Y-93559215D01*
X109158477Y-93578890D01*
X109169525Y-93634439D01*
X109158478Y-93661108D01*
X109145332Y-93680783D01*
X109145330Y-93680788D01*
X109139500Y-93710102D01*
X109139500Y-93929897D01*
X109145331Y-93959215D01*
X109158477Y-93978890D01*
X109169525Y-94034439D01*
X109158478Y-94061108D01*
X109145332Y-94080783D01*
X109145330Y-94080788D01*
X109139500Y-94110102D01*
X109139500Y-94329901D01*
X109139501Y-94329904D01*
X109140144Y-94333138D01*
X109129087Y-94388685D01*
X109081990Y-94420144D01*
X109053132Y-94420143D01*
X109051689Y-94419856D01*
X109049899Y-94419500D01*
X109049898Y-94419500D01*
X108830102Y-94419500D01*
X108800785Y-94425331D01*
X108781108Y-94438478D01*
X108725559Y-94449524D01*
X108698889Y-94438477D01*
X108679214Y-94425331D01*
X108679211Y-94425330D01*
X108661559Y-94421819D01*
X108649899Y-94419500D01*
X108649897Y-94419500D01*
X108430102Y-94419500D01*
X108400785Y-94425331D01*
X108381108Y-94438478D01*
X108325559Y-94449524D01*
X108298889Y-94438477D01*
X108279214Y-94425331D01*
X108279211Y-94425330D01*
X108261559Y-94421819D01*
X108249899Y-94419500D01*
X108249897Y-94419500D01*
X108030102Y-94419500D01*
X108000785Y-94425331D01*
X107981108Y-94438478D01*
X107925559Y-94449524D01*
X107898889Y-94438477D01*
X107879214Y-94425331D01*
X107879211Y-94425330D01*
X107861559Y-94421819D01*
X107849899Y-94419500D01*
X107849897Y-94419500D01*
X107630102Y-94419500D01*
X107600785Y-94425331D01*
X107581108Y-94438478D01*
X107525559Y-94449524D01*
X107498889Y-94438477D01*
X107479214Y-94425331D01*
X107479211Y-94425330D01*
X107461559Y-94421819D01*
X107449899Y-94419500D01*
X107449897Y-94419500D01*
X107230099Y-94419500D01*
X107226859Y-94420145D01*
X107171312Y-94409086D01*
X107139854Y-94361988D01*
X107139857Y-94333126D01*
X107140500Y-94329899D01*
X107140499Y-94110102D01*
X107134669Y-94080787D01*
X107121522Y-94061110D01*
X107110474Y-94005561D01*
X107121523Y-93978888D01*
X107134669Y-93959213D01*
X107140500Y-93929899D01*
X107140499Y-93710102D01*
X107134669Y-93680787D01*
X107121522Y-93661110D01*
X107110474Y-93605561D01*
X107121523Y-93578888D01*
X107127420Y-93570062D01*
X107134669Y-93559213D01*
X107140500Y-93529899D01*
X107140499Y-93310102D01*
X107134669Y-93280787D01*
X107121522Y-93261110D01*
X107110474Y-93205561D01*
X107121523Y-93178888D01*
X107134669Y-93159213D01*
X107140500Y-93129899D01*
X107140499Y-92910102D01*
X107134669Y-92880787D01*
X107121522Y-92861110D01*
X107110474Y-92805561D01*
X107121523Y-92778888D01*
X107121869Y-92778370D01*
X107134669Y-92759213D01*
X107140500Y-92729899D01*
X107140499Y-92510102D01*
X107139856Y-92506869D01*
X107150907Y-92451321D01*
X107198000Y-92419856D01*
X107226873Y-92419857D01*
X107230101Y-92420500D01*
X107449898Y-92420499D01*
X107479213Y-92414669D01*
X107498888Y-92401522D01*
X107554437Y-92390474D01*
X107581110Y-92401522D01*
X107588514Y-92406468D01*
X107600787Y-92414669D01*
X107630101Y-92420500D01*
X107849898Y-92420499D01*
X107879213Y-92414669D01*
X107898888Y-92401522D01*
X107954437Y-92390474D01*
X107981110Y-92401522D01*
X107988514Y-92406468D01*
X108000787Y-92414669D01*
X108030101Y-92420500D01*
X108249898Y-92420499D01*
X108279213Y-92414669D01*
X108298888Y-92401522D01*
X108354437Y-92390474D01*
X108381110Y-92401522D01*
X108388514Y-92406468D01*
X108400787Y-92414669D01*
X108430101Y-92420500D01*
X108649898Y-92420499D01*
X108679213Y-92414669D01*
X108698888Y-92401522D01*
X108754437Y-92390474D01*
X108781110Y-92401522D01*
X108788514Y-92406468D01*
X108800787Y-92414669D01*
X108830101Y-92420500D01*
X109049898Y-92420499D01*
X109049899Y-92420499D01*
X109053127Y-92419857D01*
X109108676Y-92430906D01*
X109140142Y-92477998D01*
X109140143Y-92506865D01*
X109139500Y-92510098D01*
X109139500Y-92729897D01*
X109145331Y-92759215D01*
X109167540Y-92792454D01*
X109167542Y-92792456D01*
X109167543Y-92792457D01*
X109200787Y-92814669D01*
X109230101Y-92820500D01*
X110049898Y-92820499D01*
X110079213Y-92814669D01*
X110079214Y-92814668D01*
X110079215Y-92814668D01*
X110112454Y-92792459D01*
X110112453Y-92792459D01*
X110112457Y-92792457D01*
X110134669Y-92759213D01*
X110140500Y-92729899D01*
X110140499Y-92510102D01*
X110134669Y-92480787D01*
X110134668Y-92480786D01*
X110134668Y-92480784D01*
X110112459Y-92447545D01*
X110112456Y-92447542D01*
X110079213Y-92425331D01*
X110079211Y-92425330D01*
X110061559Y-92421819D01*
X110049899Y-92419500D01*
X110049897Y-92419500D01*
X109230099Y-92419500D01*
X109226859Y-92420145D01*
X109171312Y-92409086D01*
X109139854Y-92361988D01*
X109139857Y-92333126D01*
X109140500Y-92329899D01*
X109140500Y-92144500D01*
X109162174Y-92092174D01*
X109214500Y-92070500D01*
X109951113Y-92070500D01*
X109951114Y-92070500D01*
X109974026Y-92061009D01*
X110006430Y-92047588D01*
X110184584Y-91869433D01*
X110236908Y-91847760D01*
X110273906Y-91857673D01*
X110294311Y-91869454D01*
X110313170Y-91880342D01*
X110369741Y-91895500D01*
X110403326Y-91904499D01*
X110403327Y-91904500D01*
X110403329Y-91904500D01*
X110496673Y-91904500D01*
X110496673Y-91904499D01*
X110586832Y-91880341D01*
X110667668Y-91833671D01*
X110733671Y-91767668D01*
X110780341Y-91686832D01*
X110804499Y-91596673D01*
X110804500Y-91596673D01*
X110804500Y-91503327D01*
X110789552Y-91447543D01*
X110780341Y-91413168D01*
X110780339Y-91413166D01*
X110779089Y-91408498D01*
X110786481Y-91352345D01*
X110792776Y-91343125D01*
X110878118Y-91236446D01*
X110891264Y-91211094D01*
X110934590Y-91174619D01*
X110991020Y-91179464D01*
G37*
%TD.AperFunction*%
%TA.AperFunction,Conductor*%
G36*
X103103797Y-90322174D02*
G01*
X103125471Y-90374500D01*
X103124049Y-90388933D01*
X103119500Y-90411804D01*
X103119500Y-90411805D01*
X103119500Y-90828194D01*
X103133164Y-90896888D01*
X103167909Y-90948888D01*
X103178958Y-91004437D01*
X103167909Y-91031112D01*
X103133164Y-91083111D01*
X103119500Y-91151805D01*
X103119500Y-91568194D01*
X103133164Y-91636888D01*
X103166535Y-91686832D01*
X103185214Y-91714786D01*
X103263112Y-91766836D01*
X103331804Y-91780500D01*
X103331806Y-91780500D01*
X103648194Y-91780500D01*
X103648196Y-91780500D01*
X103716888Y-91766836D01*
X103794786Y-91714786D01*
X103842493Y-91643388D01*
X103889585Y-91611922D01*
X103904022Y-91610500D01*
X104157969Y-91610500D01*
X104210295Y-91632174D01*
X104231969Y-91684500D01*
X104210295Y-91736826D01*
X104172405Y-91757078D01*
X104094511Y-91772571D01*
X104094504Y-91772573D01*
X103966297Y-91825678D01*
X103850907Y-91902778D01*
X103850906Y-91902780D01*
X103752780Y-92000906D01*
X103752778Y-92000907D01*
X103675678Y-92116297D01*
X103622573Y-92244504D01*
X103622571Y-92244511D01*
X103604943Y-92333138D01*
X103595500Y-92380613D01*
X103595500Y-92519387D01*
X103599491Y-92539453D01*
X103605779Y-92571064D01*
X103594730Y-92626613D01*
X103547637Y-92658078D01*
X103533201Y-92659500D01*
X103221804Y-92659500D01*
X103176009Y-92668609D01*
X103153111Y-92673164D01*
X103075214Y-92725213D01*
X103075213Y-92725214D01*
X103028064Y-92795778D01*
X102980971Y-92827244D01*
X102925423Y-92816195D01*
X102898300Y-92783300D01*
X102876294Y-92730860D01*
X102876290Y-92730852D01*
X102873400Y-92725213D01*
X102868961Y-92716550D01*
X102819381Y-92674205D01*
X102767055Y-92652531D01*
X102767053Y-92652530D01*
X102767048Y-92652529D01*
X102726682Y-92644500D01*
X102071758Y-92644500D01*
X102054385Y-92647817D01*
X102032892Y-92651921D01*
X102032890Y-92651921D01*
X102032888Y-92651922D01*
X102013767Y-92659500D01*
X101982195Y-92672012D01*
X101968736Y-92678483D01*
X101968732Y-92678485D01*
X101924887Y-92726733D01*
X101924886Y-92726733D01*
X101914142Y-92750571D01*
X101872880Y-92789367D01*
X101816269Y-92787624D01*
X101782593Y-92757161D01*
X101764148Y-92725214D01*
X101761826Y-92721192D01*
X101668640Y-92628006D01*
X101562781Y-92566888D01*
X101554516Y-92562116D01*
X101554507Y-92562112D01*
X101427220Y-92528006D01*
X101427218Y-92528006D01*
X101008386Y-92528006D01*
X100876601Y-92528006D01*
X100876599Y-92528006D01*
X100749311Y-92562112D01*
X100749306Y-92562114D01*
X100635179Y-92628006D01*
X100426826Y-92836360D01*
X100374500Y-92858034D01*
X100322174Y-92836360D01*
X100300500Y-92784034D01*
X100300500Y-92236713D01*
X100322174Y-92184387D01*
X100374500Y-92162713D01*
X100406996Y-92170230D01*
X100448607Y-92190573D01*
X100516740Y-92200500D01*
X100516746Y-92200500D01*
X101883254Y-92200500D01*
X101883260Y-92200500D01*
X101951393Y-92190573D01*
X102056483Y-92139198D01*
X102139198Y-92056483D01*
X102190573Y-91951393D01*
X102200500Y-91883260D01*
X102200500Y-91108529D01*
X102222174Y-91056203D01*
X102274500Y-91034529D01*
X102288933Y-91035950D01*
X102311804Y-91040500D01*
X102311806Y-91040500D01*
X102628194Y-91040500D01*
X102628196Y-91040500D01*
X102696888Y-91026836D01*
X102774786Y-90974786D01*
X102826836Y-90896888D01*
X102840500Y-90828196D01*
X102840500Y-90411804D01*
X102835951Y-90388936D01*
X102837429Y-90381502D01*
X102834529Y-90374500D01*
X102842789Y-90354558D01*
X102847000Y-90333388D01*
X102853302Y-90329176D01*
X102856203Y-90322174D01*
X102876145Y-90313913D01*
X102894092Y-90301922D01*
X102908529Y-90300500D01*
X103051471Y-90300500D01*
X103103797Y-90322174D01*
G37*
%TD.AperFunction*%
%TA.AperFunction,Conductor*%
G36*
X106454038Y-90322174D02*
G01*
X106475712Y-90374500D01*
X106468779Y-90405771D01*
X106465966Y-90411805D01*
X106450740Y-90444456D01*
X106444500Y-90491862D01*
X106444500Y-91068137D01*
X106450740Y-91115543D01*
X106450741Y-91115545D01*
X106499253Y-91219579D01*
X106580421Y-91300747D01*
X106684455Y-91349259D01*
X106731861Y-91355500D01*
X107090601Y-91355499D01*
X107142927Y-91377173D01*
X107164601Y-91429499D01*
X107152132Y-91470608D01*
X107145331Y-91480786D01*
X107145330Y-91480788D01*
X107140847Y-91503327D01*
X107140000Y-91507590D01*
X107139500Y-91510102D01*
X107139500Y-92329901D01*
X107139501Y-92329904D01*
X107140144Y-92333138D01*
X107129087Y-92388685D01*
X107081990Y-92420144D01*
X107053132Y-92420143D01*
X107051689Y-92419856D01*
X107049899Y-92419500D01*
X107049898Y-92419500D01*
X106682991Y-92419500D01*
X106630665Y-92397826D01*
X106102293Y-91869454D01*
X105565252Y-91332412D01*
X105565249Y-91332410D01*
X105532849Y-91318990D01*
X105532848Y-91318990D01*
X105509936Y-91309500D01*
X105509934Y-91309500D01*
X103934500Y-91309500D01*
X103882174Y-91287826D01*
X103860500Y-91235500D01*
X103860500Y-91151805D01*
X103853287Y-91115543D01*
X103846836Y-91083112D01*
X103812090Y-91031112D01*
X103801041Y-90975564D01*
X103812091Y-90948887D01*
X103846836Y-90896888D01*
X103860500Y-90828196D01*
X103860500Y-90411804D01*
X103855951Y-90388936D01*
X103867000Y-90333388D01*
X103914092Y-90301922D01*
X103928529Y-90300500D01*
X106401712Y-90300500D01*
X106454038Y-90322174D01*
G37*
%TD.AperFunction*%
%TA.AperFunction,Conductor*%
G36*
X109914860Y-90316716D02*
G01*
X110304297Y-90628265D01*
X110331617Y-90677877D01*
X110315854Y-90732276D01*
X110305728Y-90742659D01*
X110283873Y-90761057D01*
X110041880Y-91063555D01*
X110008956Y-91127050D01*
X110000769Y-91222376D01*
X110025615Y-91300746D01*
X110029684Y-91313578D01*
X110075747Y-91368297D01*
X110075750Y-91368299D01*
X110084036Y-91374928D01*
X110090249Y-91386211D01*
X110100710Y-91393731D01*
X110103023Y-91409406D01*
X110111357Y-91424539D01*
X110109851Y-91449626D01*
X110109575Y-91450799D01*
X110095500Y-91503329D01*
X110095500Y-91510754D01*
X110093541Y-91519099D01*
X110081633Y-91535663D01*
X110073826Y-91554512D01*
X109880512Y-91747826D01*
X109828186Y-91769500D01*
X109214499Y-91769500D01*
X109162173Y-91747826D01*
X109140499Y-91695500D01*
X109140499Y-91510102D01*
X109134668Y-91480784D01*
X109112459Y-91447545D01*
X109112456Y-91447542D01*
X109079213Y-91425331D01*
X109079211Y-91425330D01*
X109061559Y-91421819D01*
X109049899Y-91419500D01*
X109049897Y-91419500D01*
X108830102Y-91419500D01*
X108800785Y-91425331D01*
X108781108Y-91438478D01*
X108725559Y-91449524D01*
X108698889Y-91438477D01*
X108679214Y-91425331D01*
X108679211Y-91425330D01*
X108661559Y-91421819D01*
X108649899Y-91419500D01*
X108649897Y-91419500D01*
X108509477Y-91419500D01*
X108457151Y-91397826D01*
X108435477Y-91345500D01*
X108457150Y-91293175D01*
X108530747Y-91219579D01*
X108579259Y-91115545D01*
X108585500Y-91068139D01*
X108585499Y-90491862D01*
X108579259Y-90444455D01*
X108576565Y-90438678D01*
X108561222Y-90405773D01*
X108558752Y-90349190D01*
X108597016Y-90307433D01*
X108628289Y-90300500D01*
X109868633Y-90300500D01*
X109914860Y-90316716D01*
G37*
%TD.AperFunction*%
%TD*%
M02*
