%TF.GenerationSoftware,KiCad,Pcbnew,9.0.6*%
%TF.CreationDate,2025-12-20T03:33:15-08:00*%
%TF.ProjectId,sg90-prod-ch32f006,73673930-2d70-4726-9f64-2d6368333266,rev?*%
%TF.SameCoordinates,Original*%
%TF.FileFunction,Copper,L4,Inr*%
%TF.FilePolarity,Positive*%
%FSLAX46Y46*%
G04 Gerber Fmt 4.6, Leading zero omitted, Abs format (unit mm)*
G04 Created by KiCad (PCBNEW 9.0.6) date 2025-12-20 03:33:15*
%MOMM*%
%LPD*%
G01*
G04 APERTURE LIST*
G04 Aperture macros list*
%AMRoundRect*
0 Rectangle with rounded corners*
0 $1 Rounding radius*
0 $2 $3 $4 $5 $6 $7 $8 $9 X,Y pos of 4 corners*
0 Add a 4 corners polygon primitive as box body*
4,1,4,$2,$3,$4,$5,$6,$7,$8,$9,$2,$3,0*
0 Add four circle primitives for the rounded corners*
1,1,$1+$1,$2,$3*
1,1,$1+$1,$4,$5*
1,1,$1+$1,$6,$7*
1,1,$1+$1,$8,$9*
0 Add four rect primitives between the rounded corners*
20,1,$1+$1,$2,$3,$4,$5,0*
20,1,$1+$1,$4,$5,$6,$7,0*
20,1,$1+$1,$6,$7,$8,$9,0*
20,1,$1+$1,$8,$9,$2,$3,0*%
G04 Aperture macros list end*
%TA.AperFunction,ComponentPad*%
%ADD10RoundRect,0.250000X-0.650000X0.650000X-0.650000X-0.650000X0.650000X-0.650000X0.650000X0.650000X0*%
%TD*%
%TA.AperFunction,ComponentPad*%
%ADD11C,1.600000*%
%TD*%
%TA.AperFunction,ViaPad*%
%ADD12C,0.450000*%
%TD*%
%TA.AperFunction,ViaPad*%
%ADD13C,0.800000*%
%TD*%
G04 APERTURE END LIST*
D10*
%TO.N,/OUTA*%
%TO.C,J2*%
X101200000Y-91200000D03*
%TO.N,/OUTB*%
X101200000Y-98800000D03*
%TD*%
D11*
%TO.N,GND*%
%TO.C,J1*%
X111370000Y-93000000D03*
%TO.N,VIN*%
X111370000Y-95000000D03*
%TO.N,/DATA*%
X111370000Y-97000000D03*
%TD*%
D12*
%TO.N,GND*%
X108750000Y-94025000D03*
X102475000Y-91375000D03*
D13*
X109585000Y-90780000D03*
D12*
X107520000Y-93425000D03*
X102470000Y-98620000D03*
X108150000Y-93425000D03*
X108150000Y-94025000D03*
X110690000Y-95950000D03*
X110092165Y-98903166D03*
D13*
X104890000Y-90740000D03*
X102010000Y-97235000D03*
D12*
X107950000Y-98450000D03*
X107510000Y-92825000D03*
X104725000Y-93800000D03*
X108710000Y-98450000D03*
X108140000Y-92825000D03*
X105960000Y-96840000D03*
X108750000Y-93425000D03*
X107520000Y-94025000D03*
X111209642Y-91749696D03*
%TO.N,/nRST*%
X110050000Y-95360000D03*
%TO.N,/VPOS*%
X105220000Y-99380000D03*
X106750000Y-95390000D03*
%TO.N,PGND*%
X102590000Y-95440000D03*
X101630000Y-93820000D03*
X102070000Y-95950000D03*
X102360000Y-93080000D03*
X102080000Y-95440000D03*
X110260000Y-94600000D03*
X102080000Y-94880000D03*
X102370000Y-93820000D03*
X102600000Y-95950000D03*
X102590000Y-94860000D03*
%TO.N,/POT*%
X104200000Y-99380000D03*
D13*
%TO.N,/OUTB*%
X100700000Y-95900000D03*
%TO.N,/OUTA*%
X100700000Y-95000000D03*
D12*
%TO.N,/SWDIO*%
X106190000Y-94620000D03*
%TO.N,+3.3V*%
X110450000Y-91550000D03*
X109426752Y-98143589D03*
D13*
X109271901Y-99085193D03*
D12*
X103330000Y-93820000D03*
X107020000Y-96520000D03*
X110050000Y-96380000D03*
D13*
%TO.N,/VSYS*%
X108035000Y-90780000D03*
X106995000Y-90780000D03*
X101361326Y-93028506D03*
X107450000Y-99290000D03*
%TD*%
%TA.AperFunction,Conductor*%
%TO.N,PGND*%
G36*
X104495360Y-90322174D02*
G01*
X104517034Y-90374500D01*
X104495360Y-90426826D01*
X104489500Y-90432685D01*
X104423610Y-90546809D01*
X104423606Y-90546818D01*
X104389500Y-90674105D01*
X104389500Y-90805894D01*
X104423606Y-90933181D01*
X104423610Y-90933190D01*
X104446699Y-90973181D01*
X104489500Y-91047314D01*
X104582686Y-91140500D01*
X104696814Y-91206392D01*
X104824105Y-91240499D01*
X104824106Y-91240500D01*
X104824108Y-91240500D01*
X104955894Y-91240500D01*
X104955894Y-91240499D01*
X105083186Y-91206392D01*
X105197314Y-91140500D01*
X105290500Y-91047314D01*
X105356392Y-90933186D01*
X105390499Y-90805894D01*
X105390500Y-90805894D01*
X105390500Y-90674106D01*
X105390499Y-90674105D01*
X105369504Y-90595751D01*
X105356392Y-90546814D01*
X105290500Y-90432686D01*
X105284640Y-90426826D01*
X105262966Y-90374500D01*
X105284640Y-90322174D01*
X105336966Y-90300500D01*
X106588034Y-90300500D01*
X106640360Y-90322174D01*
X106662034Y-90374500D01*
X106640360Y-90426826D01*
X106594500Y-90472685D01*
X106528610Y-90586809D01*
X106528606Y-90586818D01*
X106494500Y-90714105D01*
X106494500Y-90845894D01*
X106528606Y-90973181D01*
X106528610Y-90973190D01*
X106583030Y-91067447D01*
X106594500Y-91087314D01*
X106687686Y-91180500D01*
X106801814Y-91246392D01*
X106929105Y-91280499D01*
X106929106Y-91280500D01*
X106929108Y-91280500D01*
X107060894Y-91280500D01*
X107060894Y-91280499D01*
X107188186Y-91246392D01*
X107302314Y-91180500D01*
X107395500Y-91087314D01*
X107450914Y-90991333D01*
X107495847Y-90956855D01*
X107552000Y-90964248D01*
X107579085Y-90991333D01*
X107634500Y-91087314D01*
X107727686Y-91180500D01*
X107841814Y-91246392D01*
X107969105Y-91280499D01*
X107969106Y-91280500D01*
X107969108Y-91280500D01*
X108100894Y-91280500D01*
X108100894Y-91280499D01*
X108228186Y-91246392D01*
X108342314Y-91180500D01*
X108435500Y-91087314D01*
X108501392Y-90973186D01*
X108535499Y-90845894D01*
X108535500Y-90845894D01*
X108535500Y-90714106D01*
X108535499Y-90714105D01*
X108524781Y-90674106D01*
X108501392Y-90586814D01*
X108435500Y-90472686D01*
X108389640Y-90426826D01*
X108367966Y-90374500D01*
X108389640Y-90322174D01*
X108441966Y-90300500D01*
X109178034Y-90300500D01*
X109230360Y-90322174D01*
X109252034Y-90374500D01*
X109230360Y-90426826D01*
X109184500Y-90472685D01*
X109118610Y-90586809D01*
X109118606Y-90586818D01*
X109084500Y-90714105D01*
X109084500Y-90845894D01*
X109118606Y-90973181D01*
X109118610Y-90973190D01*
X109173030Y-91067447D01*
X109184500Y-91087314D01*
X109277686Y-91180500D01*
X109391814Y-91246392D01*
X109519105Y-91280499D01*
X109519106Y-91280500D01*
X109519108Y-91280500D01*
X109650894Y-91280500D01*
X109650894Y-91280499D01*
X109778186Y-91246392D01*
X109892314Y-91180500D01*
X109985500Y-91087314D01*
X110051392Y-90973186D01*
X110085499Y-90845894D01*
X110085500Y-90845894D01*
X110085500Y-90714106D01*
X110085499Y-90714105D01*
X110074782Y-90674108D01*
X110054880Y-90599832D01*
X110062272Y-90543680D01*
X110107205Y-90509202D01*
X110163358Y-90516594D01*
X110172585Y-90522896D01*
X111123628Y-91283730D01*
X111150948Y-91333342D01*
X111135185Y-91387741D01*
X111096555Y-91412992D01*
X111072809Y-91419354D01*
X110991974Y-91466024D01*
X110926865Y-91531133D01*
X110874538Y-91552807D01*
X110822213Y-91531133D01*
X110803062Y-91497962D01*
X110780341Y-91413168D01*
X110780239Y-91412992D01*
X110733671Y-91332332D01*
X110667667Y-91266328D01*
X110586830Y-91219658D01*
X110586832Y-91219658D01*
X110496673Y-91195500D01*
X110496671Y-91195500D01*
X110403329Y-91195500D01*
X110403327Y-91195500D01*
X110313168Y-91219658D01*
X110232332Y-91266328D01*
X110166328Y-91332332D01*
X110119658Y-91413168D01*
X110095500Y-91503326D01*
X110095500Y-91596673D01*
X110119658Y-91686831D01*
X110154332Y-91746888D01*
X110166329Y-91767668D01*
X110232332Y-91833671D01*
X110313168Y-91880341D01*
X110313167Y-91880341D01*
X110365222Y-91894289D01*
X110403326Y-91904499D01*
X110403327Y-91904500D01*
X110403329Y-91904500D01*
X110496673Y-91904500D01*
X110496673Y-91904499D01*
X110586832Y-91880341D01*
X110667668Y-91833671D01*
X110732777Y-91768561D01*
X110785101Y-91746888D01*
X110837428Y-91768562D01*
X110856580Y-91801735D01*
X110879300Y-91886527D01*
X110925970Y-91967362D01*
X110925971Y-91967364D01*
X110991974Y-92033367D01*
X111006413Y-92041703D01*
X111011806Y-92044817D01*
X111046285Y-92089751D01*
X111038892Y-92145903D01*
X111003125Y-92177270D01*
X110943453Y-92201986D01*
X110795968Y-92300533D01*
X110670533Y-92425968D01*
X110571985Y-92573455D01*
X110504107Y-92737329D01*
X110504104Y-92737339D01*
X110477384Y-92871673D01*
X110469500Y-92911309D01*
X110469500Y-93088691D01*
X110477621Y-93129519D01*
X110504104Y-93262660D01*
X110504107Y-93262670D01*
X110571985Y-93426544D01*
X110664632Y-93565200D01*
X110670536Y-93574035D01*
X110795965Y-93699464D01*
X110943453Y-93798013D01*
X110943454Y-93798013D01*
X110943455Y-93798014D01*
X111107329Y-93865892D01*
X111107334Y-93865894D01*
X111281309Y-93900500D01*
X111281311Y-93900500D01*
X111458689Y-93900500D01*
X111458691Y-93900500D01*
X111632666Y-93865894D01*
X111796547Y-93798013D01*
X111944035Y-93699464D01*
X112069464Y-93574035D01*
X112069466Y-93574031D01*
X112072034Y-93571464D01*
X112073333Y-93572763D01*
X112118249Y-93548757D01*
X112172447Y-93565200D01*
X112199144Y-93615150D01*
X112199500Y-93622401D01*
X112199500Y-94377598D01*
X112177826Y-94429924D01*
X112125500Y-94451598D01*
X112073174Y-94429924D01*
X112070763Y-94427265D01*
X112069466Y-94425968D01*
X112069464Y-94425965D01*
X111944035Y-94300536D01*
X111921532Y-94285500D01*
X111796544Y-94201985D01*
X111632670Y-94134107D01*
X111632660Y-94134104D01*
X111516156Y-94110930D01*
X111458691Y-94099500D01*
X111281309Y-94099500D01*
X111231989Y-94109310D01*
X111107339Y-94134104D01*
X111107329Y-94134107D01*
X110943455Y-94201985D01*
X110795968Y-94300533D01*
X110670533Y-94425968D01*
X110571985Y-94573455D01*
X110504107Y-94737329D01*
X110504104Y-94737339D01*
X110469500Y-94911310D01*
X110469500Y-95088693D01*
X110469731Y-95089855D01*
X110469653Y-95090246D01*
X110469856Y-95092306D01*
X110469230Y-95092367D01*
X110458677Y-95145403D01*
X110411582Y-95176864D01*
X110356034Y-95165810D01*
X110337221Y-95145719D01*
X110336623Y-95146179D01*
X110333672Y-95142333D01*
X110267667Y-95076328D01*
X110186830Y-95029658D01*
X110186832Y-95029658D01*
X110096673Y-95005500D01*
X110096671Y-95005500D01*
X110003329Y-95005500D01*
X110003327Y-95005500D01*
X109913168Y-95029658D01*
X109832332Y-95076328D01*
X109766328Y-95142332D01*
X109719658Y-95223168D01*
X109695500Y-95313326D01*
X109695500Y-95406673D01*
X109719658Y-95496831D01*
X109764232Y-95574035D01*
X109766329Y-95577668D01*
X109832332Y-95643671D01*
X109913168Y-95690341D01*
X109913167Y-95690341D01*
X109947222Y-95699466D01*
X110003326Y-95714499D01*
X110003327Y-95714500D01*
X110003329Y-95714500D01*
X110096673Y-95714500D01*
X110096673Y-95714499D01*
X110186832Y-95690341D01*
X110267668Y-95643671D01*
X110333671Y-95577668D01*
X110380341Y-95496832D01*
X110404499Y-95406673D01*
X110404500Y-95406673D01*
X110404500Y-95394219D01*
X110426174Y-95341893D01*
X110478500Y-95320219D01*
X110530826Y-95341893D01*
X110546867Y-95365901D01*
X110571985Y-95426544D01*
X110571986Y-95426546D01*
X110571987Y-95426547D01*
X110618950Y-95496832D01*
X110621197Y-95500194D01*
X110632246Y-95555742D01*
X110600780Y-95602835D01*
X110578823Y-95612784D01*
X110553167Y-95619659D01*
X110472332Y-95666328D01*
X110406328Y-95732332D01*
X110359658Y-95813168D01*
X110335500Y-95903326D01*
X110335500Y-95996674D01*
X110335693Y-95998141D01*
X110335500Y-95998861D01*
X110335500Y-96001521D01*
X110334787Y-96001521D01*
X110321032Y-96052848D01*
X110271982Y-96081164D01*
X110225327Y-96071884D01*
X110186832Y-96049659D01*
X110186831Y-96049658D01*
X110186828Y-96049657D01*
X110096673Y-96025500D01*
X110096671Y-96025500D01*
X110003329Y-96025500D01*
X110003327Y-96025500D01*
X109913168Y-96049658D01*
X109832332Y-96096328D01*
X109766328Y-96162332D01*
X109719658Y-96243168D01*
X109695500Y-96333326D01*
X109695500Y-96426673D01*
X109719658Y-96516831D01*
X109752350Y-96573455D01*
X109766329Y-96597668D01*
X109832332Y-96663671D01*
X109913168Y-96710341D01*
X109913167Y-96710341D01*
X109965222Y-96724289D01*
X110003326Y-96734499D01*
X110003327Y-96734500D01*
X110003329Y-96734500D01*
X110096673Y-96734500D01*
X110096673Y-96734499D01*
X110186832Y-96710341D01*
X110267668Y-96663671D01*
X110333671Y-96597668D01*
X110380341Y-96516832D01*
X110404499Y-96426673D01*
X110404500Y-96426673D01*
X110404500Y-96333332D01*
X110404307Y-96331868D01*
X110404500Y-96331147D01*
X110404500Y-96328479D01*
X110405215Y-96328479D01*
X110418960Y-96277159D01*
X110468007Y-96248836D01*
X110503456Y-96252839D01*
X110509285Y-96255005D01*
X110553168Y-96280341D01*
X110640145Y-96303647D01*
X110643409Y-96304860D01*
X110661798Y-96321942D01*
X110681712Y-96337223D01*
X110682194Y-96340890D01*
X110684904Y-96343407D01*
X110685828Y-96368490D01*
X110689104Y-96393376D01*
X110686886Y-96397218D01*
X110686989Y-96400006D01*
X110682469Y-96404871D01*
X110672211Y-96422644D01*
X110672839Y-96423160D01*
X110670533Y-96425968D01*
X110571985Y-96573455D01*
X110504107Y-96737329D01*
X110504104Y-96737339D01*
X110469500Y-96911310D01*
X110469500Y-97088689D01*
X110504104Y-97262660D01*
X110504107Y-97262670D01*
X110571985Y-97426544D01*
X110664632Y-97565200D01*
X110670536Y-97574035D01*
X110795965Y-97699464D01*
X110943453Y-97798013D01*
X110943454Y-97798013D01*
X110943455Y-97798014D01*
X111107329Y-97865892D01*
X111107334Y-97865894D01*
X111281309Y-97900500D01*
X111281311Y-97900500D01*
X111458689Y-97900500D01*
X111458691Y-97900500D01*
X111632666Y-97865894D01*
X111796547Y-97798013D01*
X111944035Y-97699464D01*
X112069464Y-97574035D01*
X112069466Y-97574031D01*
X112072034Y-97571464D01*
X112073333Y-97572763D01*
X112118249Y-97548757D01*
X112172447Y-97565200D01*
X112199144Y-97615150D01*
X112199500Y-97622401D01*
X112199500Y-97820006D01*
X112177826Y-97872332D01*
X112171727Y-97877790D01*
X110450805Y-99254528D01*
X110357208Y-99329405D01*
X109914860Y-99683284D01*
X109868633Y-99699500D01*
X109475145Y-99699500D01*
X109422819Y-99677826D01*
X109401145Y-99625500D01*
X109422819Y-99573174D01*
X109455990Y-99554022D01*
X109465087Y-99551585D01*
X109579215Y-99485693D01*
X109672401Y-99392507D01*
X109738293Y-99278379D01*
X109753248Y-99222564D01*
X109765007Y-99207239D01*
X109772400Y-99189392D01*
X109781638Y-99185565D01*
X109787726Y-99177632D01*
X109806879Y-99175110D01*
X109824726Y-99167718D01*
X109833963Y-99171544D01*
X109843878Y-99170239D01*
X109869685Y-99185138D01*
X109870648Y-99183884D01*
X109874497Y-99186837D01*
X109955333Y-99233507D01*
X109955332Y-99233507D01*
X110007387Y-99247455D01*
X110045491Y-99257665D01*
X110045492Y-99257666D01*
X110045494Y-99257666D01*
X110138838Y-99257666D01*
X110138838Y-99257665D01*
X110202210Y-99240684D01*
X110228994Y-99233508D01*
X110228994Y-99233507D01*
X110228997Y-99233507D01*
X110309833Y-99186837D01*
X110375836Y-99120834D01*
X110422506Y-99039998D01*
X110446664Y-98949839D01*
X110446665Y-98949839D01*
X110446665Y-98856493D01*
X110446664Y-98856492D01*
X110436939Y-98820200D01*
X110422506Y-98766334D01*
X110375836Y-98685498D01*
X110309833Y-98619495D01*
X110309832Y-98619494D01*
X110229870Y-98573329D01*
X110228997Y-98572825D01*
X110228996Y-98572824D01*
X110228997Y-98572824D01*
X110138838Y-98548666D01*
X110138836Y-98548666D01*
X110045494Y-98548666D01*
X110045492Y-98548666D01*
X109955333Y-98572824D01*
X109874497Y-98619494D01*
X109808494Y-98685497D01*
X109773086Y-98746827D01*
X109728153Y-98781305D01*
X109672000Y-98773913D01*
X109656678Y-98762156D01*
X109579215Y-98684693D01*
X109548000Y-98666671D01*
X109479642Y-98627204D01*
X109445163Y-98582270D01*
X109452556Y-98526118D01*
X109497487Y-98491640D01*
X109563584Y-98473930D01*
X109644420Y-98427260D01*
X109710423Y-98361257D01*
X109757093Y-98280421D01*
X109781251Y-98190262D01*
X109781252Y-98190262D01*
X109781252Y-98096916D01*
X109781251Y-98096915D01*
X109757093Y-98006757D01*
X109710423Y-97925921D01*
X109644419Y-97859917D01*
X109563582Y-97813247D01*
X109563584Y-97813247D01*
X109473425Y-97789089D01*
X109473423Y-97789089D01*
X109380081Y-97789089D01*
X109380079Y-97789089D01*
X109289920Y-97813247D01*
X109209084Y-97859917D01*
X109143080Y-97925921D01*
X109096410Y-98006757D01*
X109072252Y-98096915D01*
X109072252Y-98132261D01*
X109050578Y-98184587D01*
X108998252Y-98206261D01*
X108945926Y-98184587D01*
X108927667Y-98166328D01*
X108846830Y-98119658D01*
X108846832Y-98119658D01*
X108756673Y-98095500D01*
X108756671Y-98095500D01*
X108663329Y-98095500D01*
X108663327Y-98095500D01*
X108573168Y-98119658D01*
X108492332Y-98166328D01*
X108426329Y-98232331D01*
X108394086Y-98288179D01*
X108349153Y-98322657D01*
X108293000Y-98315265D01*
X108265914Y-98288179D01*
X108243215Y-98248863D01*
X108233671Y-98232332D01*
X108167668Y-98166329D01*
X108167667Y-98166328D01*
X108086830Y-98119658D01*
X108086832Y-98119658D01*
X107996673Y-98095500D01*
X107996671Y-98095500D01*
X107903329Y-98095500D01*
X107903327Y-98095500D01*
X107813168Y-98119658D01*
X107732332Y-98166328D01*
X107666328Y-98232332D01*
X107619658Y-98313168D01*
X107595500Y-98403326D01*
X107595500Y-98496673D01*
X107619658Y-98586831D01*
X107666328Y-98667667D01*
X107692535Y-98693874D01*
X107714209Y-98746200D01*
X107692535Y-98798526D01*
X107640209Y-98820200D01*
X107621060Y-98817679D01*
X107515892Y-98789500D01*
X107384108Y-98789500D01*
X107384106Y-98789500D01*
X107256818Y-98823606D01*
X107256809Y-98823610D01*
X107142685Y-98889500D01*
X107049500Y-98982685D01*
X106983610Y-99096809D01*
X106983606Y-99096818D01*
X106949500Y-99224105D01*
X106949500Y-99355894D01*
X106983606Y-99483181D01*
X106983610Y-99483190D01*
X107044411Y-99588500D01*
X107051804Y-99644653D01*
X107017325Y-99689586D01*
X106980325Y-99699500D01*
X105573050Y-99699500D01*
X105520724Y-99677826D01*
X105499050Y-99625500D01*
X105508964Y-99588501D01*
X105530387Y-99551393D01*
X105550341Y-99516832D01*
X105574499Y-99426673D01*
X105574500Y-99426673D01*
X105574500Y-99333327D01*
X105574499Y-99333326D01*
X105573448Y-99329405D01*
X105550341Y-99243168D01*
X105503671Y-99162332D01*
X105437668Y-99096329D01*
X105437667Y-99096328D01*
X105356830Y-99049658D01*
X105356832Y-99049658D01*
X105266673Y-99025500D01*
X105266671Y-99025500D01*
X105173329Y-99025500D01*
X105173327Y-99025500D01*
X105083168Y-99049658D01*
X105002332Y-99096328D01*
X104936328Y-99162332D01*
X104889658Y-99243168D01*
X104865500Y-99333326D01*
X104865500Y-99426673D01*
X104889658Y-99516831D01*
X104931036Y-99588501D01*
X104938428Y-99644653D01*
X104903949Y-99689586D01*
X104866950Y-99699500D01*
X104553050Y-99699500D01*
X104500724Y-99677826D01*
X104479050Y-99625500D01*
X104488964Y-99588501D01*
X104510387Y-99551393D01*
X104530341Y-99516832D01*
X104554499Y-99426673D01*
X104554500Y-99426673D01*
X104554500Y-99333327D01*
X104554499Y-99333326D01*
X104553448Y-99329405D01*
X104530341Y-99243168D01*
X104483671Y-99162332D01*
X104417668Y-99096329D01*
X104417667Y-99096328D01*
X104336830Y-99049658D01*
X104336832Y-99049658D01*
X104246673Y-99025500D01*
X104246671Y-99025500D01*
X104153329Y-99025500D01*
X104153327Y-99025500D01*
X104063168Y-99049658D01*
X103982332Y-99096328D01*
X103916328Y-99162332D01*
X103869658Y-99243168D01*
X103845500Y-99333326D01*
X103845500Y-99426673D01*
X103869658Y-99516831D01*
X103911036Y-99588501D01*
X103918428Y-99644653D01*
X103883949Y-99689586D01*
X103846950Y-99699500D01*
X102236714Y-99699500D01*
X102184388Y-99677826D01*
X102162714Y-99625500D01*
X102170233Y-99593000D01*
X102190479Y-99551585D01*
X102190573Y-99551393D01*
X102200500Y-99483260D01*
X102200500Y-99001916D01*
X102222174Y-98949590D01*
X102274500Y-98927916D01*
X102311498Y-98937830D01*
X102333168Y-98950341D01*
X102423326Y-98974499D01*
X102423327Y-98974500D01*
X102423329Y-98974500D01*
X102516673Y-98974500D01*
X102516673Y-98974499D01*
X102606832Y-98950341D01*
X102687668Y-98903671D01*
X102753671Y-98837668D01*
X102800341Y-98756832D01*
X102824499Y-98666673D01*
X102824500Y-98666673D01*
X102824500Y-98573327D01*
X102824499Y-98573326D01*
X102824364Y-98572824D01*
X102800341Y-98483168D01*
X102753671Y-98402332D01*
X102687668Y-98336329D01*
X102687667Y-98336328D01*
X102606830Y-98289658D01*
X102606832Y-98289658D01*
X102516673Y-98265500D01*
X102516671Y-98265500D01*
X102423329Y-98265500D01*
X102423327Y-98265500D01*
X102333168Y-98289658D01*
X102311499Y-98302169D01*
X102255346Y-98309561D01*
X102210414Y-98275082D01*
X102200500Y-98238083D01*
X102200500Y-98116746D01*
X102200500Y-98116740D01*
X102190573Y-98048607D01*
X102139198Y-97943517D01*
X102056483Y-97860802D01*
X102052393Y-97856712D01*
X102030719Y-97804386D01*
X102052393Y-97752060D01*
X102085565Y-97732908D01*
X102203186Y-97701392D01*
X102317314Y-97635500D01*
X102410500Y-97542314D01*
X102457670Y-97460613D01*
X103595500Y-97460613D01*
X103595500Y-97599386D01*
X103622571Y-97735488D01*
X103622573Y-97735495D01*
X103674110Y-97859917D01*
X103675680Y-97863706D01*
X103752779Y-97979093D01*
X103850907Y-98077221D01*
X103966294Y-98154320D01*
X104094505Y-98207427D01*
X104230613Y-98234500D01*
X104369387Y-98234500D01*
X104505495Y-98207427D01*
X104633706Y-98154320D01*
X104749093Y-98077221D01*
X104847221Y-97979093D01*
X104924320Y-97863706D01*
X104977427Y-97735495D01*
X105004500Y-97599387D01*
X105004500Y-97460613D01*
X104977427Y-97324505D01*
X104924320Y-97196294D01*
X104847221Y-97080907D01*
X104749093Y-96982779D01*
X104740191Y-96976831D01*
X104666640Y-96927686D01*
X104633706Y-96905680D01*
X104633703Y-96905678D01*
X104633702Y-96905678D01*
X104558429Y-96874499D01*
X104505495Y-96852573D01*
X104505488Y-96852571D01*
X104369387Y-96825500D01*
X104230613Y-96825500D01*
X104094511Y-96852571D01*
X104094504Y-96852573D01*
X103966297Y-96905678D01*
X103850907Y-96982778D01*
X103850906Y-96982780D01*
X103752780Y-97080906D01*
X103752778Y-97080907D01*
X103675678Y-97196297D01*
X103622573Y-97324504D01*
X103622571Y-97324511D01*
X103595500Y-97460613D01*
X102457670Y-97460613D01*
X102476392Y-97428186D01*
X102510499Y-97300894D01*
X102510500Y-97300894D01*
X102510500Y-97169106D01*
X102510499Y-97169105D01*
X102488952Y-97088691D01*
X102476392Y-97041814D01*
X102410500Y-96927686D01*
X102317314Y-96834500D01*
X102246004Y-96793329D01*
X102245999Y-96793326D01*
X105605500Y-96793326D01*
X105605500Y-96886673D01*
X105629658Y-96976831D01*
X105667176Y-97041814D01*
X105676329Y-97057668D01*
X105742332Y-97123671D01*
X105823168Y-97170341D01*
X105823167Y-97170341D01*
X105875222Y-97184289D01*
X105913326Y-97194499D01*
X105913327Y-97194500D01*
X105913329Y-97194500D01*
X106006673Y-97194500D01*
X106006673Y-97194499D01*
X106096832Y-97170341D01*
X106177668Y-97123671D01*
X106243671Y-97057668D01*
X106290341Y-96976832D01*
X106314499Y-96886673D01*
X106314500Y-96886673D01*
X106314500Y-96793327D01*
X106314499Y-96793326D01*
X106298736Y-96734500D01*
X106290341Y-96703168D01*
X106243671Y-96622332D01*
X106177668Y-96556329D01*
X106177667Y-96556328D01*
X106136507Y-96532565D01*
X106096832Y-96509659D01*
X106096829Y-96509657D01*
X106006673Y-96485500D01*
X106006671Y-96485500D01*
X105913329Y-96485500D01*
X105913327Y-96485500D01*
X105823168Y-96509658D01*
X105742332Y-96556328D01*
X105676328Y-96622332D01*
X105629658Y-96703168D01*
X105605500Y-96793326D01*
X102245999Y-96793326D01*
X102203190Y-96768610D01*
X102203181Y-96768606D01*
X102075894Y-96734500D01*
X102075892Y-96734500D01*
X101944108Y-96734500D01*
X101944106Y-96734500D01*
X101816818Y-96768606D01*
X101816809Y-96768610D01*
X101702685Y-96834500D01*
X101609500Y-96927685D01*
X101543610Y-97041809D01*
X101543606Y-97041818D01*
X101509500Y-97169105D01*
X101509500Y-97300894D01*
X101543606Y-97428181D01*
X101543607Y-97428184D01*
X101543608Y-97428186D01*
X101609500Y-97542314D01*
X101702686Y-97635500D01*
X101736148Y-97654819D01*
X101747570Y-97661414D01*
X101782049Y-97706348D01*
X101774656Y-97762500D01*
X101729722Y-97796979D01*
X101710570Y-97799500D01*
X100516735Y-97799500D01*
X100448606Y-97809427D01*
X100448605Y-97809427D01*
X100407000Y-97829767D01*
X100350472Y-97833276D01*
X100308019Y-97795786D01*
X100300500Y-97763286D01*
X100300500Y-96473326D01*
X106665500Y-96473326D01*
X106665500Y-96566673D01*
X106689658Y-96656831D01*
X106716411Y-96703168D01*
X106736329Y-96737668D01*
X106802332Y-96803671D01*
X106883168Y-96850341D01*
X106883167Y-96850341D01*
X106935222Y-96864289D01*
X106973326Y-96874499D01*
X106973327Y-96874500D01*
X106973329Y-96874500D01*
X107066673Y-96874500D01*
X107066673Y-96874499D01*
X107156832Y-96850341D01*
X107237668Y-96803671D01*
X107303671Y-96737668D01*
X107350341Y-96656832D01*
X107374499Y-96566673D01*
X107374500Y-96566673D01*
X107374500Y-96473327D01*
X107374499Y-96473326D01*
X107350341Y-96383168D01*
X107303671Y-96302332D01*
X107237667Y-96236328D01*
X107156830Y-96189658D01*
X107156832Y-96189658D01*
X107066673Y-96165500D01*
X107066671Y-96165500D01*
X106973329Y-96165500D01*
X106973327Y-96165500D01*
X106883168Y-96189658D01*
X106802332Y-96236328D01*
X106736328Y-96302332D01*
X106689658Y-96383168D01*
X106665500Y-96473326D01*
X100300500Y-96473326D01*
X100300500Y-96375448D01*
X100322174Y-96323122D01*
X100374500Y-96301448D01*
X100411499Y-96311361D01*
X100506814Y-96366392D01*
X100634105Y-96400499D01*
X100634106Y-96400500D01*
X100634108Y-96400500D01*
X100765894Y-96400500D01*
X100765894Y-96400499D01*
X100893186Y-96366392D01*
X101007314Y-96300500D01*
X101100500Y-96207314D01*
X101166392Y-96093186D01*
X101200499Y-95965894D01*
X101200500Y-95965894D01*
X101200500Y-95834106D01*
X101200499Y-95834105D01*
X101176489Y-95744499D01*
X101166392Y-95706814D01*
X101100500Y-95592686D01*
X101010140Y-95502326D01*
X100988466Y-95450000D01*
X101010140Y-95397674D01*
X101041913Y-95365901D01*
X101100500Y-95307314D01*
X101166392Y-95193186D01*
X101200499Y-95065894D01*
X101200500Y-95065894D01*
X101200500Y-94934106D01*
X101200499Y-94934103D01*
X101196884Y-94920613D01*
X103595500Y-94920613D01*
X103595500Y-95059386D01*
X103622571Y-95195488D01*
X103622573Y-95195495D01*
X103674235Y-95320219D01*
X103675680Y-95323706D01*
X103688792Y-95343329D01*
X103751160Y-95436671D01*
X103752779Y-95439093D01*
X103850907Y-95537221D01*
X103966294Y-95614320D01*
X104094505Y-95667427D01*
X104230613Y-95694500D01*
X104369387Y-95694500D01*
X104505495Y-95667427D01*
X104633706Y-95614320D01*
X104749093Y-95537221D01*
X104847221Y-95439093D01*
X104911210Y-95343326D01*
X106395500Y-95343326D01*
X106395500Y-95436673D01*
X106419658Y-95526831D01*
X106463539Y-95602835D01*
X106466329Y-95607668D01*
X106532332Y-95673671D01*
X106613168Y-95720341D01*
X106613167Y-95720341D01*
X106657918Y-95732332D01*
X106703326Y-95744499D01*
X106703327Y-95744500D01*
X106703329Y-95744500D01*
X106796673Y-95744500D01*
X106796673Y-95744499D01*
X106886832Y-95720341D01*
X106967668Y-95673671D01*
X107033671Y-95607668D01*
X107080341Y-95526832D01*
X107104499Y-95436673D01*
X107104500Y-95436673D01*
X107104500Y-95343327D01*
X107104499Y-95343326D01*
X107098307Y-95320219D01*
X107080341Y-95253168D01*
X107033671Y-95172332D01*
X106967668Y-95106329D01*
X106967667Y-95106328D01*
X106886830Y-95059658D01*
X106886832Y-95059658D01*
X106796673Y-95035500D01*
X106796671Y-95035500D01*
X106703329Y-95035500D01*
X106703327Y-95035500D01*
X106613168Y-95059658D01*
X106532332Y-95106328D01*
X106466328Y-95172332D01*
X106419658Y-95253168D01*
X106395500Y-95343326D01*
X104911210Y-95343326D01*
X104924320Y-95323706D01*
X104977427Y-95195495D01*
X105004500Y-95059387D01*
X105004500Y-94920613D01*
X104977427Y-94784505D01*
X104924320Y-94656294D01*
X104868883Y-94573326D01*
X105835500Y-94573326D01*
X105835500Y-94666673D01*
X105859658Y-94756831D01*
X105888516Y-94806814D01*
X105906329Y-94837668D01*
X105972332Y-94903671D01*
X106053168Y-94950341D01*
X106053167Y-94950341D01*
X106105222Y-94964289D01*
X106143326Y-94974499D01*
X106143327Y-94974500D01*
X106143329Y-94974500D01*
X106236673Y-94974500D01*
X106236673Y-94974499D01*
X106326832Y-94950341D01*
X106407668Y-94903671D01*
X106473671Y-94837668D01*
X106520341Y-94756832D01*
X106544499Y-94666673D01*
X106544500Y-94666673D01*
X106544500Y-94573327D01*
X106544499Y-94573326D01*
X106533856Y-94533608D01*
X106520341Y-94483168D01*
X106473671Y-94402332D01*
X106407668Y-94336329D01*
X106407667Y-94336328D01*
X106326830Y-94289658D01*
X106326832Y-94289658D01*
X106236673Y-94265500D01*
X106236671Y-94265500D01*
X106143329Y-94265500D01*
X106143327Y-94265500D01*
X106053168Y-94289658D01*
X105972332Y-94336328D01*
X105906328Y-94402332D01*
X105859658Y-94483168D01*
X105835500Y-94573326D01*
X104868883Y-94573326D01*
X104847221Y-94540907D01*
X104749093Y-94442779D01*
X104633706Y-94365680D01*
X104633703Y-94365678D01*
X104633702Y-94365678D01*
X104505495Y-94312573D01*
X104505488Y-94312571D01*
X104369387Y-94285500D01*
X104230613Y-94285500D01*
X104094511Y-94312571D01*
X104094504Y-94312573D01*
X103966297Y-94365678D01*
X103850907Y-94442778D01*
X103850906Y-94442780D01*
X103752780Y-94540906D01*
X103752778Y-94540907D01*
X103675678Y-94656297D01*
X103622573Y-94784504D01*
X103622571Y-94784511D01*
X103595500Y-94920613D01*
X101196884Y-94920613D01*
X101166393Y-94806818D01*
X101166392Y-94806814D01*
X101100500Y-94692686D01*
X101007314Y-94599500D01*
X100962203Y-94573455D01*
X100893190Y-94533610D01*
X100893181Y-94533606D01*
X100765894Y-94499500D01*
X100765892Y-94499500D01*
X100634108Y-94499500D01*
X100634106Y-94499500D01*
X100506818Y-94533606D01*
X100506809Y-94533610D01*
X100411500Y-94588637D01*
X100355347Y-94596029D01*
X100310414Y-94561551D01*
X100300500Y-94524551D01*
X100300500Y-93773326D01*
X102975500Y-93773326D01*
X102975500Y-93866673D01*
X102999658Y-93956831D01*
X103034782Y-94017667D01*
X103046329Y-94037668D01*
X103112332Y-94103671D01*
X103193168Y-94150341D01*
X103193167Y-94150341D01*
X103208689Y-94154500D01*
X103283326Y-94174499D01*
X103283327Y-94174500D01*
X103283329Y-94174500D01*
X103376673Y-94174500D01*
X103376673Y-94174499D01*
X103466832Y-94150341D01*
X103547668Y-94103671D01*
X103613671Y-94037668D01*
X103660341Y-93956832D01*
X103684499Y-93866673D01*
X103684500Y-93866673D01*
X103684500Y-93773327D01*
X103682974Y-93767633D01*
X103682974Y-93767632D01*
X103679141Y-93753326D01*
X104370500Y-93753326D01*
X104370500Y-93846673D01*
X104394658Y-93936831D01*
X104418616Y-93978327D01*
X104441329Y-94017668D01*
X104507332Y-94083671D01*
X104588168Y-94130341D01*
X104588167Y-94130341D01*
X104640222Y-94144289D01*
X104678326Y-94154499D01*
X104678327Y-94154500D01*
X104678329Y-94154500D01*
X104771673Y-94154500D01*
X104771673Y-94154499D01*
X104861832Y-94130341D01*
X104942668Y-94083671D01*
X105008671Y-94017668D01*
X105055341Y-93936832D01*
X105079499Y-93846673D01*
X105079500Y-93846673D01*
X105079500Y-93753327D01*
X105079499Y-93753326D01*
X105076284Y-93741329D01*
X105055341Y-93663168D01*
X105008671Y-93582332D01*
X104942668Y-93516329D01*
X104942667Y-93516328D01*
X104861830Y-93469658D01*
X104861832Y-93469658D01*
X104771673Y-93445500D01*
X104771671Y-93445500D01*
X104678329Y-93445500D01*
X104678327Y-93445500D01*
X104588168Y-93469658D01*
X104507332Y-93516328D01*
X104441328Y-93582332D01*
X104394658Y-93663168D01*
X104370500Y-93753326D01*
X103679141Y-93753326D01*
X103660341Y-93683168D01*
X103613671Y-93602332D01*
X103547667Y-93536328D01*
X103466830Y-93489658D01*
X103466832Y-93489658D01*
X103376673Y-93465500D01*
X103376671Y-93465500D01*
X103283329Y-93465500D01*
X103283327Y-93465500D01*
X103193168Y-93489658D01*
X103112332Y-93536328D01*
X103046328Y-93602332D01*
X102999658Y-93683168D01*
X102975500Y-93773326D01*
X100300500Y-93773326D01*
X100300500Y-92962611D01*
X100860826Y-92962611D01*
X100860826Y-93094400D01*
X100894932Y-93221687D01*
X100894936Y-93221696D01*
X100918587Y-93262660D01*
X100960826Y-93335820D01*
X101054012Y-93429006D01*
X101168140Y-93494898D01*
X101295431Y-93529005D01*
X101295432Y-93529006D01*
X101295434Y-93529006D01*
X101427220Y-93529006D01*
X101427220Y-93529005D01*
X101554512Y-93494898D01*
X101668640Y-93429006D01*
X101761826Y-93335820D01*
X101827718Y-93221692D01*
X101861825Y-93094400D01*
X101861826Y-93094400D01*
X101861826Y-92962612D01*
X101861825Y-92962611D01*
X101827719Y-92835324D01*
X101827718Y-92835320D01*
X101761826Y-92721192D01*
X101668640Y-92628006D01*
X101596464Y-92586335D01*
X101554516Y-92562116D01*
X101554507Y-92562112D01*
X101427220Y-92528006D01*
X101427218Y-92528006D01*
X101295434Y-92528006D01*
X101295432Y-92528006D01*
X101168144Y-92562112D01*
X101168135Y-92562116D01*
X101054011Y-92628006D01*
X100960826Y-92721191D01*
X100894936Y-92835315D01*
X100894932Y-92835324D01*
X100860826Y-92962611D01*
X100300500Y-92962611D01*
X100300500Y-92380613D01*
X103595500Y-92380613D01*
X103595500Y-92519387D01*
X103602176Y-92552950D01*
X103622571Y-92655488D01*
X103622573Y-92655495D01*
X103673452Y-92778329D01*
X103675680Y-92783706D01*
X103710170Y-92835324D01*
X103734457Y-92871673D01*
X103752779Y-92899093D01*
X103850907Y-92997221D01*
X103966294Y-93074320D01*
X104094505Y-93127427D01*
X104230613Y-93154500D01*
X104369387Y-93154500D01*
X104505495Y-93127427D01*
X104633706Y-93074320D01*
X104749093Y-92997221D01*
X104847221Y-92899093D01*
X104924320Y-92783706D01*
X104926548Y-92778326D01*
X107155500Y-92778326D01*
X107155500Y-92871673D01*
X107179658Y-92961831D01*
X107226328Y-93042667D01*
X107261335Y-93077674D01*
X107283009Y-93130000D01*
X107261335Y-93182326D01*
X107236328Y-93207332D01*
X107189658Y-93288168D01*
X107165500Y-93378326D01*
X107165500Y-93471673D01*
X107189658Y-93561831D01*
X107236328Y-93642667D01*
X107266335Y-93672674D01*
X107288009Y-93725000D01*
X107266335Y-93777326D01*
X107236328Y-93807332D01*
X107189658Y-93888168D01*
X107165500Y-93978326D01*
X107165500Y-94071673D01*
X107189658Y-94161831D01*
X107205000Y-94188403D01*
X107236329Y-94242668D01*
X107302332Y-94308671D01*
X107383168Y-94355341D01*
X107383167Y-94355341D01*
X107421753Y-94365680D01*
X107473326Y-94379499D01*
X107473327Y-94379500D01*
X107473329Y-94379500D01*
X107566673Y-94379500D01*
X107566673Y-94379499D01*
X107656832Y-94355341D01*
X107737668Y-94308671D01*
X107782674Y-94263665D01*
X107835000Y-94241991D01*
X107887326Y-94263665D01*
X107932332Y-94308671D01*
X108013168Y-94355341D01*
X108013167Y-94355341D01*
X108051753Y-94365680D01*
X108103326Y-94379499D01*
X108103327Y-94379500D01*
X108103329Y-94379500D01*
X108196673Y-94379500D01*
X108196673Y-94379499D01*
X108286832Y-94355341D01*
X108367668Y-94308671D01*
X108397674Y-94278665D01*
X108450000Y-94256991D01*
X108502326Y-94278665D01*
X108532332Y-94308671D01*
X108613168Y-94355341D01*
X108613167Y-94355341D01*
X108651753Y-94365680D01*
X108703326Y-94379499D01*
X108703327Y-94379500D01*
X108703329Y-94379500D01*
X108796673Y-94379500D01*
X108796673Y-94379499D01*
X108886832Y-94355341D01*
X108967668Y-94308671D01*
X109033671Y-94242668D01*
X109080341Y-94161832D01*
X109104499Y-94071673D01*
X109104500Y-94071673D01*
X109104500Y-93978327D01*
X109104499Y-93978326D01*
X109098739Y-93956831D01*
X109080341Y-93888168D01*
X109033671Y-93807332D01*
X109003665Y-93777326D01*
X108981991Y-93725000D01*
X109003665Y-93672674D01*
X109013171Y-93663168D01*
X109033671Y-93642668D01*
X109080341Y-93561832D01*
X109104499Y-93471673D01*
X109104500Y-93471673D01*
X109104500Y-93378327D01*
X109104499Y-93378326D01*
X109093109Y-93335820D01*
X109080341Y-93288168D01*
X109033671Y-93207332D01*
X108967668Y-93141329D01*
X108967667Y-93141328D01*
X108886830Y-93094658D01*
X108886832Y-93094658D01*
X108796673Y-93070500D01*
X108796671Y-93070500D01*
X108703329Y-93070500D01*
X108703327Y-93070500D01*
X108613168Y-93094658D01*
X108532330Y-93141329D01*
X108529908Y-93143188D01*
X108528421Y-93143586D01*
X108528131Y-93143754D01*
X108528085Y-93143676D01*
X108475200Y-93157842D01*
X108426153Y-93129519D01*
X108411499Y-93074811D01*
X108422727Y-93047724D01*
X108421246Y-93046869D01*
X108455000Y-92988403D01*
X108470341Y-92961832D01*
X108494499Y-92871673D01*
X108494500Y-92871673D01*
X108494500Y-92778327D01*
X108494499Y-92778326D01*
X108485612Y-92745161D01*
X108470341Y-92688168D01*
X108423671Y-92607332D01*
X108357668Y-92541329D01*
X108357667Y-92541328D01*
X108276830Y-92494658D01*
X108276832Y-92494658D01*
X108186673Y-92470500D01*
X108186671Y-92470500D01*
X108093329Y-92470500D01*
X108093327Y-92470500D01*
X108003168Y-92494658D01*
X107922332Y-92541328D01*
X107877326Y-92586335D01*
X107825000Y-92608009D01*
X107772674Y-92586335D01*
X107727667Y-92541328D01*
X107646830Y-92494658D01*
X107646832Y-92494658D01*
X107556673Y-92470500D01*
X107556671Y-92470500D01*
X107463329Y-92470500D01*
X107463327Y-92470500D01*
X107373168Y-92494658D01*
X107292332Y-92541328D01*
X107226328Y-92607332D01*
X107179658Y-92688168D01*
X107155500Y-92778326D01*
X104926548Y-92778326D01*
X104977427Y-92655495D01*
X105004500Y-92519387D01*
X105004500Y-92380613D01*
X104977427Y-92244505D01*
X104924320Y-92116294D01*
X104847221Y-92000907D01*
X104749093Y-91902779D01*
X104633706Y-91825680D01*
X104633703Y-91825678D01*
X104633702Y-91825678D01*
X104505495Y-91772573D01*
X104505488Y-91772571D01*
X104369387Y-91745500D01*
X104230613Y-91745500D01*
X104094511Y-91772571D01*
X104094504Y-91772573D01*
X103966297Y-91825678D01*
X103850907Y-91902778D01*
X103850906Y-91902780D01*
X103752780Y-92000906D01*
X103752778Y-92000907D01*
X103675678Y-92116297D01*
X103622573Y-92244504D01*
X103622571Y-92244511D01*
X103596100Y-92377598D01*
X103595500Y-92380613D01*
X100300500Y-92380613D01*
X100300500Y-92236713D01*
X100322174Y-92184387D01*
X100374500Y-92162713D01*
X100406996Y-92170230D01*
X100448607Y-92190573D01*
X100516740Y-92200500D01*
X100516746Y-92200500D01*
X101883254Y-92200500D01*
X101883260Y-92200500D01*
X101951393Y-92190573D01*
X102056483Y-92139198D01*
X102139198Y-92056483D01*
X102190573Y-91951393D01*
X102200500Y-91883260D01*
X102200500Y-91754030D01*
X102222174Y-91701704D01*
X102274500Y-91680030D01*
X102311498Y-91689943D01*
X102334157Y-91703025D01*
X102338170Y-91705342D01*
X102401542Y-91722322D01*
X102428326Y-91729499D01*
X102428327Y-91729500D01*
X102428329Y-91729500D01*
X102521673Y-91729500D01*
X102521673Y-91729499D01*
X102611832Y-91705341D01*
X102692668Y-91658671D01*
X102758671Y-91592668D01*
X102805341Y-91511832D01*
X102829499Y-91421673D01*
X102829500Y-91421673D01*
X102829500Y-91328327D01*
X102829499Y-91328326D01*
X102817549Y-91283730D01*
X102805341Y-91238168D01*
X102758671Y-91157332D01*
X102692668Y-91091329D01*
X102692667Y-91091328D01*
X102633488Y-91057162D01*
X102611832Y-91044659D01*
X102611831Y-91044658D01*
X102611832Y-91044658D01*
X102521673Y-91020500D01*
X102521671Y-91020500D01*
X102428329Y-91020500D01*
X102428327Y-91020500D01*
X102338169Y-91044658D01*
X102311498Y-91060056D01*
X102255345Y-91067447D01*
X102210413Y-91032967D01*
X102200500Y-90995969D01*
X102200500Y-90516746D01*
X102200500Y-90516740D01*
X102190573Y-90448607D01*
X102170233Y-90407000D01*
X102166724Y-90350472D01*
X102204214Y-90308019D01*
X102236714Y-90300500D01*
X104443034Y-90300500D01*
X104495360Y-90322174D01*
G37*
%TD.AperFunction*%
%TD*%
M02*
