%TF.GenerationSoftware,KiCad,Pcbnew,9.0.6*%
%TF.CreationDate,2025-12-20T03:33:15-08:00*%
%TF.ProjectId,sg90-prod-ch32f006,73673930-2d70-4726-9f64-2d6368333266,rev?*%
%TF.SameCoordinates,Original*%
%TF.FileFunction,Soldermask,Top*%
%TF.FilePolarity,Negative*%
%FSLAX46Y46*%
G04 Gerber Fmt 4.6, Leading zero omitted, Abs format (unit mm)*
G04 Created by KiCad (PCBNEW 9.0.6) date 2025-12-20 03:33:15*
%MOMM*%
%LPD*%
G01*
G04 APERTURE LIST*
G04 Aperture macros list*
%AMRoundRect*
0 Rectangle with rounded corners*
0 $1 Rounding radius*
0 $2 $3 $4 $5 $6 $7 $8 $9 X,Y pos of 4 corners*
0 Add a 4 corners polygon primitive as box body*
4,1,4,$2,$3,$4,$5,$6,$7,$8,$9,$2,$3,0*
0 Add four circle primitives for the rounded corners*
1,1,$1+$1,$2,$3*
1,1,$1+$1,$4,$5*
1,1,$1+$1,$6,$7*
1,1,$1+$1,$8,$9*
0 Add four rect primitives between the rounded corners*
20,1,$1+$1,$2,$3,$4,$5,0*
20,1,$1+$1,$4,$5,$6,$7,0*
20,1,$1+$1,$6,$7,$8,$9,0*
20,1,$1+$1,$8,$9,$2,$3,0*%
%AMFreePoly0*
4,1,14,0.885355,0.885355,0.900000,0.850000,0.900000,-0.850000,0.885355,-0.885355,0.850000,-0.900000,-0.550000,-0.900000,-0.585355,-0.885355,-0.885355,-0.585355,-0.900000,-0.550000,-0.900000,0.850000,-0.885355,0.885355,-0.850000,0.900000,0.850000,0.900000,0.885355,0.885355,0.885355,0.885355,$1*%
G04 Aperture macros list end*
%ADD10RoundRect,0.135000X0.135000X0.185000X-0.135000X0.185000X-0.135000X-0.185000X0.135000X-0.185000X0*%
%ADD11R,0.280000X0.580000*%
%ADD12RoundRect,0.140000X-0.170000X0.140000X-0.170000X-0.140000X0.170000X-0.140000X0.170000X0.140000X0*%
%ADD13RoundRect,0.135000X-0.185000X0.135000X-0.185000X-0.135000X0.185000X-0.135000X0.185000X0.135000X0*%
%ADD14RoundRect,0.135000X-0.135000X-0.185000X0.135000X-0.185000X0.135000X0.185000X-0.135000X0.185000X0*%
%ADD15RoundRect,0.250000X-0.650000X0.650000X-0.650000X-0.650000X0.650000X-0.650000X0.650000X0.650000X0*%
%ADD16RoundRect,0.135000X0.185000X-0.135000X0.185000X0.135000X-0.185000X0.135000X-0.185000X-0.135000X0*%
%ADD17RoundRect,0.140000X0.140000X0.170000X-0.140000X0.170000X-0.140000X-0.170000X0.140000X-0.170000X0*%
%ADD18RoundRect,0.050000X-0.070274X0.327966X-0.304537X0.140561X0.070274X-0.327966X0.304537X-0.140561X0*%
%ADD19R,0.800000X0.200000*%
%ADD20R,0.200000X0.800000*%
%ADD21FreePoly0,90.000000*%
%ADD22RoundRect,0.225000X-0.225000X-0.250000X0.225000X-0.250000X0.225000X0.250000X-0.225000X0.250000X0*%
%ADD23RoundRect,0.135000X0.010148X-0.228795X0.220985X-0.060130X-0.010148X0.228795X-0.220985X0.060130X0*%
%ADD24RoundRect,0.225000X0.225000X0.250000X-0.225000X0.250000X-0.225000X-0.250000X0.225000X-0.250000X0*%
%ADD25RoundRect,0.062500X-0.187500X-0.062500X0.187500X-0.062500X0.187500X0.062500X-0.187500X0.062500X0*%
%ADD26R,0.900000X1.600000*%
%ADD27RoundRect,0.140000X-0.215519X-0.045293X0.003127X-0.220205X0.215519X0.045293X-0.003127X0.220205X0*%
%ADD28RoundRect,0.140000X0.170000X-0.140000X0.170000X0.140000X-0.170000X0.140000X-0.170000X-0.140000X0*%
%ADD29RoundRect,0.140000X-0.140000X-0.170000X0.140000X-0.170000X0.140000X0.170000X-0.140000X0.170000X0*%
%ADD30C,1.600000*%
%ADD31C,1.800000*%
G04 APERTURE END LIST*
D10*
%TO.C,R3*%
X103380000Y-93080000D03*
X102360000Y-93080000D03*
%TD*%
D11*
%TO.C,U2*%
X108040000Y-97440000D03*
X108540000Y-97440000D03*
X109040000Y-97440000D03*
X109040000Y-96000000D03*
X108040000Y-96000000D03*
%TD*%
D12*
%TO.C,C4*%
X107020000Y-96520000D03*
X107020000Y-97480000D03*
%TD*%
D13*
%TO.C,R8*%
X106040000Y-98380000D03*
X106040000Y-99400000D03*
%TD*%
D14*
%TO.C,R2*%
X104200000Y-99380000D03*
X105220000Y-99380000D03*
%TD*%
D15*
%TO.C,J2*%
X101200000Y-91200000D03*
X101200000Y-98800000D03*
%TD*%
D16*
%TO.C,R7*%
X106800000Y-99400000D03*
X106800000Y-98380000D03*
%TD*%
D14*
%TO.C,R11*%
X102470000Y-99380000D03*
X103490000Y-99380000D03*
%TD*%
D17*
%TO.C,C6*%
X103330000Y-93820000D03*
X102370000Y-93820000D03*
%TD*%
D18*
%TO.C,D1*%
X110638779Y-98465890D03*
X110092165Y-98903166D03*
%TD*%
D19*
%TO.C,U4*%
X109640000Y-94220000D03*
X109640000Y-93820000D03*
X109640000Y-93420000D03*
X109640000Y-93020000D03*
X109640000Y-92620000D03*
D20*
X108940000Y-91920000D03*
X108540000Y-91920000D03*
X108140000Y-91920000D03*
X107740000Y-91920000D03*
X107340000Y-91920000D03*
D19*
X106640000Y-92620000D03*
X106640000Y-93020000D03*
X106640000Y-93420000D03*
X106640000Y-93820000D03*
X106640000Y-94220000D03*
D20*
X107340000Y-94920000D03*
X107740000Y-94920000D03*
X108140000Y-94920000D03*
X108540000Y-94920000D03*
X108940000Y-94920000D03*
D21*
X108140000Y-93420000D03*
%TD*%
D10*
%TO.C,R10*%
X103490000Y-91360000D03*
X102470000Y-91360000D03*
%TD*%
D22*
%TO.C,C1*%
X108035000Y-90780000D03*
X109585000Y-90780000D03*
%TD*%
D23*
%TO.C,R1*%
X109426752Y-98143589D03*
X110223248Y-97506411D03*
%TD*%
D24*
%TO.C,C9*%
X106995000Y-90780000D03*
X105445000Y-90780000D03*
%TD*%
D25*
%TO.C,U3*%
X101400000Y-94710000D03*
X101400000Y-95210000D03*
X101400000Y-95710000D03*
X101400000Y-96210000D03*
X103300000Y-96210000D03*
X103300000Y-95710000D03*
X103300000Y-95210000D03*
X103300000Y-94710000D03*
D26*
X102350000Y-95460000D03*
%TD*%
D16*
%TO.C,R6*%
X110050000Y-96380000D03*
X110050000Y-95360000D03*
%TD*%
D12*
%TO.C,C5*%
X106010000Y-95520000D03*
X106010000Y-96480000D03*
%TD*%
D14*
%TO.C,R9*%
X102470000Y-90620000D03*
X103490000Y-90620000D03*
%TD*%
D27*
%TO.C,C8*%
X110460000Y-91150000D03*
X111209642Y-91749696D03*
%TD*%
D10*
%TO.C,R12*%
X103490000Y-98620000D03*
X102470000Y-98620000D03*
%TD*%
D28*
%TO.C,C2*%
X107950000Y-99410000D03*
X107950000Y-98450000D03*
%TD*%
D29*
%TO.C,C7*%
X100670000Y-93820000D03*
X101630000Y-93820000D03*
%TD*%
D28*
%TO.C,C3*%
X108710000Y-99410000D03*
X108710000Y-98450000D03*
%TD*%
D16*
%TO.C,R5*%
X105625000Y-93360000D03*
X105625000Y-92340000D03*
%TD*%
D30*
%TO.C,J1*%
X111370000Y-93000000D03*
X111370000Y-95000000D03*
X111370000Y-97000000D03*
%TD*%
D31*
%TO.C,J4*%
X104300000Y-94990000D03*
%TD*%
M02*
