M48
; DRILL file {KiCad 9.0.6} date 2025-12-20T03:33:15-0800
; FORMAT={-:-/ absolute / inch / decimal}
; #@! TF.CreationDate,2025-12-20T03:33:15-08:00
; #@! TF.GenerationSoftware,Kicad,Pcbnew,9.0.6
; #@! TF.FileFunction,Plated,1,6,PTH
FMAT,2
INCH
; #@! TA.AperFunction,Plated,PTH,ViaDrill
T1C0.0079
; #@! TA.AperFunction,Plated,PTH,ViaDrill
T2C0.0157
; #@! TA.AperFunction,Plated,PTH,ComponentDrill
T3C0.0315
; #@! TA.AperFunction,Plated,PTH,ComponentDrill
T4C0.0354
%
G90
G05
T1
X4.0012Y-3.6937
X4.0185Y-3.7776
X4.0189Y-3.7354
X4.0189Y-3.7575
X4.0299Y-3.6646
X4.0303Y-3.6937
X4.0343Y-3.8827
X4.0344Y-3.5974
X4.039Y-3.7346
X4.039Y-3.7575
X4.0394Y-3.7776
X4.0681Y-3.6937
X4.1024Y-3.9126
X4.123Y-3.6929
X4.1425Y-3.9126
X4.1717Y-3.8126
X4.1807Y-3.7252
X4.2028Y-3.7555
X4.2134Y-3.8
X4.2327Y-3.6545
X4.2331Y-3.6781
X4.2331Y-3.7018
X4.25Y-3.876
X4.2575Y-3.6545
X4.2579Y-3.6781
X4.2579Y-3.7018
X4.2799Y-3.876
X4.2815Y-3.6781
X4.2815Y-3.7018
X4.3081Y-3.8639
X4.3327Y-3.7543
X4.3327Y-3.7945
X4.3343Y-3.8938
X4.3409Y-3.7244
X4.3484Y-3.6043
X4.3579Y-3.7776
X4.3783Y-3.6122
T2
X3.9646Y-3.7402
X3.9646Y-3.7756
X3.9906Y-3.6625
X4.0161Y-3.8281
X4.1295Y-3.5724
X4.2124Y-3.574
X4.2303Y-3.9091
X4.2533Y-3.574
X4.302Y-3.901
X4.3144Y-3.574
T3
X4.3846Y-3.6614
X4.3846Y-3.7402
X4.3846Y-3.8189
T4
X3.9843Y-3.5906
X3.9843Y-3.8898
X4.1063Y-3.6398
X4.1063Y-3.7398
X4.1063Y-3.8398
M30
