%TF.GenerationSoftware,KiCad,Pcbnew,9.0.6*%
%TF.CreationDate,2025-12-22T03:31:33-08:00*%
%TF.ProjectId,sg90-prod-ch32f006,73673930-2d70-4726-9f64-2d6368333266,rev?*%
%TF.SameCoordinates,Original*%
%TF.FileFunction,Copper,L5,Inr*%
%TF.FilePolarity,Positive*%
%FSLAX46Y46*%
G04 Gerber Fmt 4.6, Leading zero omitted, Abs format (unit mm)*
G04 Created by KiCad (PCBNEW 9.0.6) date 2025-12-22 03:31:33*
%MOMM*%
%LPD*%
G01*
G04 APERTURE LIST*
G04 Aperture macros list*
%AMRoundRect*
0 Rectangle with rounded corners*
0 $1 Rounding radius*
0 $2 $3 $4 $5 $6 $7 $8 $9 X,Y pos of 4 corners*
0 Add a 4 corners polygon primitive as box body*
4,1,4,$2,$3,$4,$5,$6,$7,$8,$9,$2,$3,0*
0 Add four circle primitives for the rounded corners*
1,1,$1+$1,$2,$3*
1,1,$1+$1,$4,$5*
1,1,$1+$1,$6,$7*
1,1,$1+$1,$8,$9*
0 Add four rect primitives between the rounded corners*
20,1,$1+$1,$2,$3,$4,$5,0*
20,1,$1+$1,$4,$5,$6,$7,0*
20,1,$1+$1,$6,$7,$8,$9,0*
20,1,$1+$1,$8,$9,$2,$3,0*%
G04 Aperture macros list end*
%TA.AperFunction,ComponentPad*%
%ADD10RoundRect,0.250000X-0.650000X0.650000X-0.650000X-0.650000X0.650000X-0.650000X0.650000X0.650000X0*%
%TD*%
%TA.AperFunction,ComponentPad*%
%ADD11C,1.600000*%
%TD*%
%TA.AperFunction,ComponentPad*%
%ADD12C,1.800000*%
%TD*%
%TA.AperFunction,ViaPad*%
%ADD13C,0.450000*%
%TD*%
%TA.AperFunction,ViaPad*%
%ADD14C,0.800000*%
%TD*%
G04 APERTURE END LIST*
D10*
%TO.N,/OUTA*%
%TO.C,J2*%
X101200000Y-91200000D03*
%TO.N,/OUTB*%
X101200000Y-98800000D03*
%TD*%
D11*
%TO.N,GND*%
%TO.C,J1*%
X111370000Y-97000000D03*
%TO.N,VIN*%
X111370000Y-95000000D03*
%TO.N,/DATA*%
X111370000Y-93000000D03*
%TD*%
D12*
%TO.N,GND*%
%TO.C,J4*%
X104300000Y-97530000D03*
%TD*%
D13*
%TO.N,GND*%
X102480000Y-98640000D03*
X107500000Y-94330000D03*
X105160000Y-90620000D03*
X110826044Y-91382431D03*
X106830000Y-94990000D03*
X108570000Y-99190000D03*
X107500000Y-95670000D03*
X106830000Y-94330000D03*
X107500000Y-94990000D03*
X105160000Y-99380000D03*
X108170000Y-94990000D03*
X105840000Y-90610000D03*
X108170000Y-94330000D03*
X108170000Y-95670000D03*
X106830000Y-95670000D03*
%TO.N,/nRST*%
X110310000Y-97930000D03*
%TO.N,PGND*%
X102520000Y-92340000D03*
X101980000Y-95600000D03*
X102470000Y-95010000D03*
X101980000Y-95010000D03*
X101980000Y-94410000D03*
X102740000Y-93400000D03*
X102470000Y-95600000D03*
X102470000Y-94410000D03*
%TO.N,/POT*%
X103090000Y-96280000D03*
%TO.N,/OUTB*%
X100780000Y-95400000D03*
X100525000Y-96443965D03*
X100525000Y-95865620D03*
%TO.N,/OUTA*%
X100540000Y-93850000D03*
X100870000Y-94680000D03*
X100525000Y-94376649D03*
%TO.N,/ISNS+*%
X108480000Y-96740000D03*
X109790000Y-94730000D03*
%TO.N,/SWDIO*%
X106000000Y-96135000D03*
%TO.N,/ISNS-*%
X109760000Y-95530000D03*
%TO.N,+3.3V*%
X106078515Y-91288515D03*
X109630000Y-93600000D03*
X109340000Y-91590000D03*
X109520000Y-97160000D03*
%TO.N,/3V3_DRV*%
X103120000Y-91940000D03*
D14*
%TO.N,/VSYS*%
X106699000Y-91970000D03*
D13*
X108570000Y-98300000D03*
D14*
X101386394Y-92935886D03*
D13*
X106920000Y-99380000D03*
%TD*%
%TA.AperFunction,Conductor*%
%TO.N,GND*%
G36*
X109914860Y-90316716D02*
G01*
X111815033Y-91836854D01*
X111842353Y-91886465D01*
X111826590Y-91940864D01*
X111776978Y-91968184D01*
X111745939Y-91965015D01*
X111627711Y-91926600D01*
X111627698Y-91926597D01*
X111456612Y-91899500D01*
X111456611Y-91899500D01*
X111283389Y-91899500D01*
X111283388Y-91899500D01*
X111112301Y-91926597D01*
X111112288Y-91926600D01*
X110947557Y-91980125D01*
X110947553Y-91980127D01*
X110793212Y-92058767D01*
X110653076Y-92160582D01*
X110530582Y-92283076D01*
X110428767Y-92423212D01*
X110350127Y-92577553D01*
X110350125Y-92577557D01*
X110296600Y-92742288D01*
X110296597Y-92742301D01*
X110269500Y-92913388D01*
X110269500Y-93086611D01*
X110296597Y-93257698D01*
X110296600Y-93257711D01*
X110350125Y-93422442D01*
X110350127Y-93422446D01*
X110428767Y-93576787D01*
X110495898Y-93669185D01*
X110530586Y-93716928D01*
X110653072Y-93839414D01*
X110653075Y-93839416D01*
X110653076Y-93839417D01*
X110791699Y-93940133D01*
X110821292Y-93988424D01*
X110808070Y-94043496D01*
X110791699Y-94059867D01*
X110653076Y-94160582D01*
X110530582Y-94283076D01*
X110428767Y-94423212D01*
X110428764Y-94423216D01*
X110392617Y-94494159D01*
X110349549Y-94530941D01*
X110293087Y-94526497D01*
X110262597Y-94497562D01*
X110260632Y-94494159D01*
X110210505Y-94407335D01*
X110112665Y-94309495D01*
X109992836Y-94240312D01*
X109992831Y-94240310D01*
X109877927Y-94209522D01*
X109832994Y-94175044D01*
X109825602Y-94118891D01*
X109860078Y-94073959D01*
X109952665Y-94020505D01*
X110050505Y-93922665D01*
X110119688Y-93802836D01*
X110155499Y-93669185D01*
X110155500Y-93669185D01*
X110155500Y-93530815D01*
X110155499Y-93530814D01*
X110119689Y-93397168D01*
X110119688Y-93397164D01*
X110050505Y-93277335D01*
X109952665Y-93179495D01*
X109832836Y-93110312D01*
X109832831Y-93110310D01*
X109699185Y-93074500D01*
X109699183Y-93074500D01*
X109560817Y-93074500D01*
X109560815Y-93074500D01*
X109427168Y-93110310D01*
X109427163Y-93110312D01*
X109307334Y-93179495D01*
X109209495Y-93277334D01*
X109140312Y-93397163D01*
X109140310Y-93397168D01*
X109104500Y-93530814D01*
X109104500Y-93669185D01*
X109140310Y-93802831D01*
X109140312Y-93802836D01*
X109209495Y-93922665D01*
X109307335Y-94020505D01*
X109427164Y-94089688D01*
X109542073Y-94120477D01*
X109587005Y-94154955D01*
X109594398Y-94211107D01*
X109559919Y-94256041D01*
X109467334Y-94309495D01*
X109369495Y-94407334D01*
X109300312Y-94527163D01*
X109300310Y-94527168D01*
X109264500Y-94660814D01*
X109264500Y-94799185D01*
X109300310Y-94932831D01*
X109300312Y-94932836D01*
X109369495Y-95052665D01*
X109379504Y-95062674D01*
X109401178Y-95115000D01*
X109379504Y-95167326D01*
X109339495Y-95207334D01*
X109270312Y-95327163D01*
X109270310Y-95327168D01*
X109234500Y-95460814D01*
X109234500Y-95599185D01*
X109270310Y-95732831D01*
X109270312Y-95732836D01*
X109339495Y-95852665D01*
X109437335Y-95950505D01*
X109557164Y-96019688D01*
X109690814Y-96055499D01*
X109690815Y-96055500D01*
X109690817Y-96055500D01*
X109829185Y-96055500D01*
X109829185Y-96055499D01*
X109962836Y-96019688D01*
X110082665Y-95950505D01*
X110180505Y-95852665D01*
X110249688Y-95732836D01*
X110285500Y-95599183D01*
X110285500Y-95599177D01*
X110286133Y-95594376D01*
X110289250Y-95594786D01*
X110307174Y-95551515D01*
X110359500Y-95529841D01*
X110411826Y-95551515D01*
X110425436Y-95570249D01*
X110428765Y-95576784D01*
X110428767Y-95576787D01*
X110526757Y-95711658D01*
X110530586Y-95716928D01*
X110653072Y-95839414D01*
X110653075Y-95839416D01*
X110653076Y-95839417D01*
X110793212Y-95941232D01*
X110947553Y-96019872D01*
X110947557Y-96019874D01*
X111112288Y-96073399D01*
X111112294Y-96073400D01*
X111112299Y-96073402D01*
X111215125Y-96089688D01*
X111283388Y-96100500D01*
X111283389Y-96100500D01*
X111456612Y-96100500D01*
X111524875Y-96089688D01*
X111627701Y-96073402D01*
X111627708Y-96073399D01*
X111627711Y-96073399D01*
X111792442Y-96019874D01*
X111792442Y-96019873D01*
X111792445Y-96019873D01*
X111946788Y-95941232D01*
X112082005Y-95842990D01*
X112137076Y-95829769D01*
X112185367Y-95859362D01*
X112199500Y-95902858D01*
X112199500Y-97820006D01*
X112177826Y-97872332D01*
X112171727Y-97877790D01*
X110420227Y-99278990D01*
X110365828Y-99294753D01*
X110316216Y-99267433D01*
X110300000Y-99221206D01*
X110300000Y-98899999D01*
X109250000Y-97800000D01*
X108744094Y-97800000D01*
X108724943Y-97797479D01*
X108639183Y-97774500D01*
X108500817Y-97774500D01*
X108415056Y-97797479D01*
X108395906Y-97800000D01*
X107150000Y-97800000D01*
X106140945Y-98809054D01*
X106088619Y-98830728D01*
X106050410Y-98820100D01*
X103832225Y-97482665D01*
X102908238Y-96925555D01*
X102874619Y-96879976D01*
X102883076Y-96823973D01*
X102928655Y-96790354D01*
X102965600Y-96790704D01*
X103020814Y-96805499D01*
X103020815Y-96805500D01*
X103020817Y-96805500D01*
X103159185Y-96805500D01*
X103159185Y-96805499D01*
X103292836Y-96769688D01*
X103412665Y-96700505D01*
X103442356Y-96670814D01*
X107954500Y-96670814D01*
X107954500Y-96809185D01*
X107990310Y-96942831D01*
X107990312Y-96942836D01*
X108059495Y-97062665D01*
X108157335Y-97160505D01*
X108277164Y-97229688D01*
X108410814Y-97265499D01*
X108410815Y-97265500D01*
X108410817Y-97265500D01*
X108549185Y-97265500D01*
X108549185Y-97265499D01*
X108682836Y-97229688D01*
X108802665Y-97160505D01*
X108868174Y-97094996D01*
X108920500Y-97073322D01*
X108972826Y-97094996D01*
X108994500Y-97147322D01*
X108994500Y-97229185D01*
X109030310Y-97362831D01*
X109030312Y-97362836D01*
X109099495Y-97482665D01*
X109197335Y-97580505D01*
X109317164Y-97649688D01*
X109450814Y-97685499D01*
X109450815Y-97685500D01*
X109450817Y-97685500D01*
X109589185Y-97685500D01*
X109589185Y-97685499D01*
X109722836Y-97649688D01*
X109722838Y-97649686D01*
X109726412Y-97648729D01*
X109782564Y-97656121D01*
X109817043Y-97701054D01*
X109817044Y-97739359D01*
X109784500Y-97860817D01*
X109784500Y-97999185D01*
X109820310Y-98132831D01*
X109820312Y-98132836D01*
X109889495Y-98252665D01*
X109987335Y-98350505D01*
X110107164Y-98419688D01*
X110240814Y-98455499D01*
X110240815Y-98455500D01*
X110240817Y-98455500D01*
X110379185Y-98455500D01*
X110379185Y-98455499D01*
X110512836Y-98419688D01*
X110632665Y-98350505D01*
X110730505Y-98252665D01*
X110799688Y-98132836D01*
X110835499Y-97999185D01*
X110835500Y-97999185D01*
X110835500Y-97860815D01*
X110835499Y-97860814D01*
X110834094Y-97855572D01*
X110799688Y-97727164D01*
X110730505Y-97607335D01*
X110632665Y-97509495D01*
X110512836Y-97440312D01*
X110512831Y-97440310D01*
X110379185Y-97404500D01*
X110379183Y-97404500D01*
X110240817Y-97404500D01*
X110107164Y-97440312D01*
X110107162Y-97440313D01*
X110103587Y-97441271D01*
X110047434Y-97433878D01*
X110012955Y-97388945D01*
X110012956Y-97350639D01*
X110045364Y-97229689D01*
X110045499Y-97229185D01*
X110045500Y-97229185D01*
X110045500Y-97090815D01*
X110045499Y-97090814D01*
X110009689Y-96957168D01*
X110009688Y-96957164D01*
X109940505Y-96837335D01*
X109842665Y-96739495D01*
X109722836Y-96670312D01*
X109722831Y-96670310D01*
X109589185Y-96634500D01*
X109589183Y-96634500D01*
X109450817Y-96634500D01*
X109450815Y-96634500D01*
X109317168Y-96670310D01*
X109317163Y-96670312D01*
X109197334Y-96739495D01*
X109131826Y-96805004D01*
X109079500Y-96826678D01*
X109027174Y-96805004D01*
X109005500Y-96752678D01*
X109005500Y-96670815D01*
X109005499Y-96670814D01*
X109005364Y-96670312D01*
X108969688Y-96537164D01*
X108900505Y-96417335D01*
X108802665Y-96319495D01*
X108682836Y-96250312D01*
X108682831Y-96250310D01*
X108549185Y-96214500D01*
X108549183Y-96214500D01*
X108410817Y-96214500D01*
X108410815Y-96214500D01*
X108277168Y-96250310D01*
X108277163Y-96250312D01*
X108157334Y-96319495D01*
X108059495Y-96417334D01*
X107990312Y-96537163D01*
X107990310Y-96537168D01*
X107954500Y-96670814D01*
X103442356Y-96670814D01*
X103510505Y-96602665D01*
X103579688Y-96482836D01*
X103615499Y-96349185D01*
X103615500Y-96349185D01*
X103615500Y-96210815D01*
X103615499Y-96210814D01*
X103592639Y-96125500D01*
X103579688Y-96077164D01*
X103573135Y-96065814D01*
X105474500Y-96065814D01*
X105474500Y-96204185D01*
X105510310Y-96337831D01*
X105510312Y-96337836D01*
X105579495Y-96457665D01*
X105677335Y-96555505D01*
X105797164Y-96624688D01*
X105930814Y-96660499D01*
X105930815Y-96660500D01*
X105930817Y-96660500D01*
X106069185Y-96660500D01*
X106069185Y-96660499D01*
X106202836Y-96624688D01*
X106322665Y-96555505D01*
X106420505Y-96457665D01*
X106489688Y-96337836D01*
X106525499Y-96204185D01*
X106525500Y-96204185D01*
X106525500Y-96065815D01*
X106525499Y-96065814D01*
X106522735Y-96055500D01*
X106489688Y-95932164D01*
X106420505Y-95812335D01*
X106322665Y-95714495D01*
X106202836Y-95645312D01*
X106202831Y-95645310D01*
X106069185Y-95609500D01*
X106069183Y-95609500D01*
X105930817Y-95609500D01*
X105930815Y-95609500D01*
X105797168Y-95645310D01*
X105797163Y-95645312D01*
X105677334Y-95714495D01*
X105579495Y-95812334D01*
X105510312Y-95932163D01*
X105510310Y-95932168D01*
X105474500Y-96065814D01*
X103573135Y-96065814D01*
X103510505Y-95957335D01*
X103412665Y-95859495D01*
X103292836Y-95790312D01*
X103292831Y-95790310D01*
X103154847Y-95753337D01*
X103109914Y-95718859D01*
X103100000Y-95681859D01*
X103100000Y-94974000D01*
X103121674Y-94921674D01*
X103135174Y-94916082D01*
X103549500Y-94916082D01*
X103549500Y-95063918D01*
X103554014Y-95086611D01*
X103578340Y-95208907D01*
X103578343Y-95208917D01*
X103634915Y-95345494D01*
X103711972Y-95460817D01*
X103717049Y-95468416D01*
X103821584Y-95572951D01*
X103944505Y-95655084D01*
X104081087Y-95711658D01*
X104226082Y-95740500D01*
X104226084Y-95740500D01*
X104373916Y-95740500D01*
X104373918Y-95740500D01*
X104518913Y-95711658D01*
X104655495Y-95655084D01*
X104778416Y-95572951D01*
X104882951Y-95468416D01*
X104965084Y-95345495D01*
X105021658Y-95208913D01*
X105050500Y-95063918D01*
X105050500Y-94916082D01*
X105021658Y-94771087D01*
X104965084Y-94634505D01*
X104882951Y-94511584D01*
X104778416Y-94407049D01*
X104655495Y-94324916D01*
X104655496Y-94324916D01*
X104655494Y-94324915D01*
X104518917Y-94268343D01*
X104518907Y-94268340D01*
X104421811Y-94249026D01*
X104373918Y-94239500D01*
X104226082Y-94239500D01*
X104184977Y-94247676D01*
X104081092Y-94268340D01*
X104081082Y-94268343D01*
X103944505Y-94324915D01*
X103821584Y-94407048D01*
X103821583Y-94407050D01*
X103717050Y-94511583D01*
X103717048Y-94511584D01*
X103634915Y-94634505D01*
X103578343Y-94771082D01*
X103578340Y-94771092D01*
X103554263Y-94892135D01*
X103549500Y-94916082D01*
X103135174Y-94916082D01*
X103174000Y-94900000D01*
X103250000Y-94900000D01*
X103250000Y-93944400D01*
X103271674Y-93892074D01*
X103289176Y-93879106D01*
X103593251Y-93716933D01*
X105483676Y-92708705D01*
X105518500Y-92700000D01*
X108400000Y-92700000D01*
X108400000Y-91520814D01*
X108814500Y-91520814D01*
X108814500Y-91659185D01*
X108850310Y-91792831D01*
X108850312Y-91792836D01*
X108919495Y-91912665D01*
X109017335Y-92010505D01*
X109137164Y-92079688D01*
X109270814Y-92115499D01*
X109270815Y-92115500D01*
X109270817Y-92115500D01*
X109409185Y-92115500D01*
X109409185Y-92115499D01*
X109542836Y-92079688D01*
X109662665Y-92010505D01*
X109760505Y-91912665D01*
X109829688Y-91792836D01*
X109865499Y-91659185D01*
X109865500Y-91659185D01*
X109865500Y-91520815D01*
X109865499Y-91520814D01*
X109857604Y-91491351D01*
X109829688Y-91387164D01*
X109760505Y-91267335D01*
X109662665Y-91169495D01*
X109542836Y-91100312D01*
X109542831Y-91100310D01*
X109409185Y-91064500D01*
X109409183Y-91064500D01*
X109270817Y-91064500D01*
X109270815Y-91064500D01*
X109137168Y-91100310D01*
X109137163Y-91100312D01*
X109017334Y-91169495D01*
X108919495Y-91267334D01*
X108850312Y-91387163D01*
X108850310Y-91387168D01*
X108814500Y-91520814D01*
X108400000Y-91520814D01*
X108400000Y-90374500D01*
X108421674Y-90322174D01*
X108474000Y-90300500D01*
X109868633Y-90300500D01*
X109914860Y-90316716D01*
G37*
%TD.AperFunction*%
%TD*%
%TA.AperFunction,Conductor*%
%TO.N,/VSYS*%
G36*
X104859276Y-90322174D02*
G01*
X104880950Y-90374500D01*
X104871036Y-90411499D01*
X104829658Y-90483168D01*
X104805500Y-90573326D01*
X104805500Y-90666673D01*
X104829658Y-90756831D01*
X104874460Y-90834430D01*
X104876329Y-90837668D01*
X104942332Y-90903671D01*
X105023168Y-90950341D01*
X105023167Y-90950341D01*
X105075222Y-90964289D01*
X105113326Y-90974499D01*
X105113327Y-90974500D01*
X105113329Y-90974500D01*
X105206673Y-90974500D01*
X105206673Y-90974499D01*
X105296832Y-90950341D01*
X105377668Y-90903671D01*
X105443671Y-90837668D01*
X105443674Y-90837661D01*
X105445555Y-90835212D01*
X105446908Y-90834430D01*
X105447101Y-90834238D01*
X105447152Y-90834289D01*
X105494603Y-90806891D01*
X105549311Y-90821546D01*
X105556592Y-90827931D01*
X105622332Y-90893671D01*
X105703168Y-90940341D01*
X105755297Y-90954309D01*
X105800230Y-90988787D01*
X105807623Y-91044939D01*
X105796997Y-91066489D01*
X105797269Y-91066646D01*
X105794881Y-91070781D01*
X105794859Y-91070827D01*
X105794843Y-91070847D01*
X105748173Y-91151683D01*
X105724015Y-91241841D01*
X105724015Y-91335188D01*
X105748173Y-91425346D01*
X105748174Y-91425347D01*
X105794844Y-91506183D01*
X105860847Y-91572186D01*
X105941683Y-91618856D01*
X105941682Y-91618856D01*
X105993737Y-91632804D01*
X106031841Y-91643014D01*
X106031842Y-91643015D01*
X106031844Y-91643015D01*
X106125188Y-91643015D01*
X106125188Y-91643014D01*
X106215347Y-91618856D01*
X106296183Y-91572186D01*
X106362186Y-91506183D01*
X106408856Y-91425347D01*
X106433014Y-91335188D01*
X106433015Y-91335188D01*
X106433015Y-91241842D01*
X106433014Y-91241841D01*
X106408856Y-91151683D01*
X106362186Y-91070847D01*
X106296182Y-91004843D01*
X106215345Y-90958173D01*
X106215346Y-90958173D01*
X106163217Y-90944205D01*
X106118284Y-90909727D01*
X106110892Y-90853574D01*
X106121519Y-90832026D01*
X106121246Y-90831869D01*
X106123654Y-90827696D01*
X106123666Y-90827672D01*
X106123671Y-90827668D01*
X106127206Y-90821546D01*
X106136829Y-90804877D01*
X106170341Y-90746832D01*
X106194499Y-90656673D01*
X106194500Y-90656673D01*
X106194500Y-90563327D01*
X106194499Y-90563326D01*
X106170342Y-90473170D01*
X106156160Y-90448606D01*
X106134736Y-90411498D01*
X106127345Y-90355347D01*
X106161823Y-90310414D01*
X106198823Y-90300500D01*
X108020500Y-90300500D01*
X108072826Y-90322174D01*
X108094500Y-90374500D01*
X108094500Y-92320500D01*
X108072826Y-92372826D01*
X108020500Y-92394500D01*
X105518496Y-92394500D01*
X105444412Y-92403619D01*
X105409585Y-92412325D01*
X105339922Y-92439140D01*
X105339907Y-92439147D01*
X105113323Y-92559992D01*
X105056954Y-92565492D01*
X105013206Y-92529521D01*
X105004500Y-92494698D01*
X105004500Y-92380613D01*
X104987138Y-92293326D01*
X104977427Y-92244505D01*
X104924320Y-92116294D01*
X104847221Y-92000907D01*
X104749093Y-91902779D01*
X104633706Y-91825680D01*
X104633703Y-91825678D01*
X104633702Y-91825678D01*
X104505495Y-91772573D01*
X104505488Y-91772571D01*
X104369387Y-91745500D01*
X104230613Y-91745500D01*
X104094511Y-91772571D01*
X104094504Y-91772573D01*
X103966297Y-91825678D01*
X103850907Y-91902778D01*
X103850906Y-91902780D01*
X103752780Y-92000906D01*
X103752778Y-92000907D01*
X103675678Y-92116297D01*
X103622573Y-92244504D01*
X103622571Y-92244511D01*
X103595500Y-92380613D01*
X103595500Y-92519386D01*
X103622571Y-92655488D01*
X103622573Y-92655495D01*
X103675680Y-92783706D01*
X103695808Y-92813829D01*
X103752778Y-92899092D01*
X103850907Y-92997221D01*
X103944614Y-93059834D01*
X103976080Y-93106926D01*
X103965031Y-93162475D01*
X103938326Y-93186657D01*
X103426154Y-93459816D01*
X103423728Y-93461053D01*
X103186532Y-93576557D01*
X103129998Y-93579979D01*
X103087603Y-93542424D01*
X103082656Y-93490872D01*
X103094500Y-93446672D01*
X103094500Y-93353327D01*
X103094499Y-93353326D01*
X103070341Y-93263168D01*
X103023671Y-93182332D01*
X102957667Y-93116328D01*
X102876830Y-93069658D01*
X102876832Y-93069658D01*
X102786673Y-93045500D01*
X102786671Y-93045500D01*
X102693329Y-93045500D01*
X102693327Y-93045500D01*
X102603168Y-93069658D01*
X102522332Y-93116328D01*
X102456328Y-93182332D01*
X102409658Y-93263168D01*
X102385500Y-93353326D01*
X102385500Y-93446673D01*
X102409658Y-93536831D01*
X102443724Y-93595835D01*
X102456329Y-93617668D01*
X102522332Y-93683671D01*
X102603168Y-93730341D01*
X102603169Y-93730341D01*
X102604965Y-93731378D01*
X102639444Y-93776310D01*
X102632052Y-93832463D01*
X102600364Y-93861995D01*
X102165257Y-94073874D01*
X102113706Y-94078821D01*
X102026673Y-94055500D01*
X102026671Y-94055500D01*
X101933329Y-94055500D01*
X101933327Y-94055500D01*
X101843168Y-94079658D01*
X101762332Y-94126328D01*
X101696328Y-94192332D01*
X101649658Y-94273168D01*
X101625500Y-94363326D01*
X101625500Y-94456673D01*
X101649658Y-94546831D01*
X101696328Y-94627667D01*
X101726335Y-94657674D01*
X101748009Y-94710000D01*
X101726335Y-94762326D01*
X101696328Y-94792332D01*
X101649658Y-94873168D01*
X101625500Y-94963326D01*
X101625500Y-95056673D01*
X101649658Y-95146831D01*
X101696328Y-95227667D01*
X101721335Y-95252674D01*
X101743009Y-95305000D01*
X101721335Y-95357326D01*
X101696328Y-95382332D01*
X101649658Y-95463168D01*
X101625500Y-95553326D01*
X101625500Y-95646673D01*
X101649658Y-95736831D01*
X101695211Y-95815731D01*
X101696329Y-95817668D01*
X101762332Y-95883671D01*
X101843168Y-95930341D01*
X101843167Y-95930341D01*
X101895222Y-95944289D01*
X101933326Y-95954499D01*
X101933327Y-95954500D01*
X102013654Y-95954500D01*
X102065980Y-95976174D01*
X102087639Y-96027032D01*
X102099999Y-96649998D01*
X102100000Y-96650000D01*
X102545649Y-96914088D01*
X102576318Y-96954354D01*
X102576870Y-96954088D01*
X102578183Y-96956803D01*
X102579321Y-96958296D01*
X102579855Y-96960256D01*
X102628762Y-97061317D01*
X102631304Y-97064765D01*
X102640430Y-97077137D01*
X102662382Y-97106898D01*
X102666637Y-97112528D01*
X102750494Y-97187179D01*
X102750496Y-97187180D01*
X102750497Y-97187181D01*
X102750502Y-97187185D01*
X103263709Y-97496617D01*
X103297329Y-97542196D01*
X103299500Y-97559989D01*
X103299500Y-97628539D01*
X103337947Y-97821829D01*
X103337950Y-97821839D01*
X103413367Y-98003913D01*
X103508442Y-98146202D01*
X103522861Y-98167782D01*
X103662218Y-98307139D01*
X103826086Y-98416632D01*
X104008165Y-98492051D01*
X104201459Y-98530500D01*
X104201461Y-98530500D01*
X104398539Y-98530500D01*
X104398541Y-98530500D01*
X104591835Y-98492051D01*
X104748680Y-98427084D01*
X104805316Y-98427084D01*
X104815206Y-98432078D01*
X105892666Y-99081724D01*
X105949382Y-99106168D01*
X105968541Y-99114426D01*
X105984431Y-99118845D01*
X106006751Y-99125054D01*
X106006753Y-99125054D01*
X106006756Y-99125055D01*
X106031066Y-99128087D01*
X106095675Y-99136147D01*
X106205528Y-99112973D01*
X106257854Y-99091299D01*
X106264343Y-99088524D01*
X106356966Y-99025075D01*
X107254868Y-98127174D01*
X107307194Y-98105500D01*
X108395898Y-98105500D01*
X108395906Y-98105500D01*
X108435779Y-98102887D01*
X108454929Y-98100366D01*
X108494123Y-98092570D01*
X108531627Y-98082520D01*
X108550779Y-98080000D01*
X108589219Y-98080000D01*
X108608370Y-98082521D01*
X108645879Y-98092571D01*
X108685040Y-98100360D01*
X108685052Y-98100362D01*
X108685072Y-98100366D01*
X108704223Y-98102887D01*
X108744094Y-98105500D01*
X109087612Y-98105500D01*
X109139938Y-98127174D01*
X109141140Y-98128405D01*
X109974028Y-99000952D01*
X109994500Y-99052047D01*
X109994500Y-99221204D01*
X109998950Y-99247336D01*
X110000000Y-99259759D01*
X110000000Y-99579604D01*
X109978326Y-99631930D01*
X109972228Y-99637388D01*
X109914860Y-99683284D01*
X109868632Y-99699500D01*
X105513050Y-99699500D01*
X105460724Y-99677826D01*
X105439050Y-99625500D01*
X105448964Y-99588501D01*
X105488315Y-99520341D01*
X105490341Y-99516832D01*
X105514499Y-99426673D01*
X105514500Y-99426673D01*
X105514500Y-99333327D01*
X105514499Y-99333326D01*
X105490341Y-99243168D01*
X105443671Y-99162332D01*
X105424665Y-99143326D01*
X108215500Y-99143326D01*
X108215500Y-99236673D01*
X108239658Y-99326831D01*
X108243409Y-99333327D01*
X108286329Y-99407668D01*
X108352332Y-99473671D01*
X108433168Y-99520341D01*
X108433167Y-99520341D01*
X108485222Y-99534289D01*
X108523326Y-99544499D01*
X108523327Y-99544500D01*
X108523329Y-99544500D01*
X108616673Y-99544500D01*
X108616673Y-99544499D01*
X108706832Y-99520341D01*
X108787668Y-99473671D01*
X108853671Y-99407668D01*
X108900341Y-99326832D01*
X108924499Y-99236673D01*
X108924500Y-99236673D01*
X108924500Y-99143327D01*
X108924499Y-99143326D01*
X108922575Y-99136147D01*
X108900341Y-99053168D01*
X108853671Y-98972332D01*
X108787668Y-98906329D01*
X108787667Y-98906328D01*
X108706830Y-98859658D01*
X108706832Y-98859658D01*
X108616673Y-98835500D01*
X108616671Y-98835500D01*
X108523329Y-98835500D01*
X108523327Y-98835500D01*
X108433168Y-98859658D01*
X108352332Y-98906328D01*
X108286328Y-98972332D01*
X108239658Y-99053168D01*
X108215500Y-99143326D01*
X105424665Y-99143326D01*
X105377667Y-99096328D01*
X105296830Y-99049658D01*
X105296832Y-99049658D01*
X105206673Y-99025500D01*
X105206671Y-99025500D01*
X105113329Y-99025500D01*
X105113327Y-99025500D01*
X105023168Y-99049658D01*
X104942332Y-99096328D01*
X104876328Y-99162332D01*
X104829658Y-99243168D01*
X104805500Y-99333326D01*
X104805500Y-99426673D01*
X104829658Y-99516831D01*
X104871036Y-99588501D01*
X104878428Y-99644653D01*
X104843949Y-99689586D01*
X104806950Y-99699500D01*
X102236714Y-99699500D01*
X102184388Y-99677826D01*
X102162714Y-99625500D01*
X102170233Y-99593000D01*
X102177367Y-99578404D01*
X102190573Y-99551393D01*
X102200500Y-99483260D01*
X102200500Y-99016143D01*
X102222174Y-98963817D01*
X102274500Y-98942143D01*
X102311497Y-98952056D01*
X102343168Y-98970341D01*
X102343170Y-98970342D01*
X102406542Y-98987322D01*
X102433326Y-98994499D01*
X102433327Y-98994500D01*
X102433329Y-98994500D01*
X102526673Y-98994500D01*
X102526673Y-98994499D01*
X102616832Y-98970341D01*
X102697668Y-98923671D01*
X102763671Y-98857668D01*
X102810341Y-98776832D01*
X102834499Y-98686673D01*
X102834500Y-98686673D01*
X102834500Y-98593327D01*
X102834499Y-98593326D01*
X102810341Y-98503168D01*
X102763671Y-98422332D01*
X102697667Y-98356328D01*
X102616830Y-98309658D01*
X102616832Y-98309658D01*
X102526673Y-98285500D01*
X102526671Y-98285500D01*
X102433329Y-98285500D01*
X102433327Y-98285500D01*
X102343171Y-98309657D01*
X102311499Y-98327943D01*
X102255346Y-98335334D01*
X102210413Y-98300855D01*
X102200500Y-98263856D01*
X102200500Y-98116746D01*
X102200500Y-98116740D01*
X102190573Y-98048607D01*
X102139198Y-97943517D01*
X102056483Y-97860802D01*
X102056482Y-97860801D01*
X101951394Y-97809427D01*
X101883264Y-97799500D01*
X101883260Y-97799500D01*
X100516740Y-97799500D01*
X100516735Y-97799500D01*
X100448606Y-97809427D01*
X100448605Y-97809427D01*
X100407000Y-97829767D01*
X100350472Y-97833276D01*
X100308019Y-97795786D01*
X100300500Y-97763286D01*
X100300500Y-96847254D01*
X100322174Y-96794928D01*
X100374500Y-96773254D01*
X100393653Y-96775776D01*
X100442876Y-96788965D01*
X100478326Y-96798464D01*
X100478327Y-96798465D01*
X100478329Y-96798465D01*
X100571673Y-96798465D01*
X100571673Y-96798464D01*
X100661832Y-96774306D01*
X100742668Y-96727636D01*
X100808671Y-96661633D01*
X100855341Y-96580797D01*
X100879499Y-96490638D01*
X100879500Y-96490638D01*
X100879500Y-96397292D01*
X100879499Y-96397291D01*
X100855341Y-96307133D01*
X100808671Y-96226297D01*
X100789492Y-96207118D01*
X100767818Y-96154792D01*
X100789491Y-96102467D01*
X100808671Y-96083288D01*
X100855341Y-96002452D01*
X100879499Y-95912293D01*
X100879500Y-95912293D01*
X100879500Y-95818950D01*
X100879500Y-95818949D01*
X100878637Y-95815729D01*
X100886025Y-95759578D01*
X100913115Y-95732485D01*
X100916825Y-95730342D01*
X100916832Y-95730341D01*
X100997668Y-95683671D01*
X101063671Y-95617668D01*
X101110341Y-95536832D01*
X101134499Y-95446673D01*
X101134500Y-95446673D01*
X101134500Y-95353327D01*
X101134499Y-95353326D01*
X101126061Y-95321837D01*
X101110341Y-95263168D01*
X101063671Y-95182332D01*
X101002020Y-95120681D01*
X100980346Y-95068355D01*
X101002020Y-95016029D01*
X101017335Y-95004277D01*
X101087668Y-94963671D01*
X101153671Y-94897668D01*
X101200341Y-94816832D01*
X101224499Y-94726673D01*
X101224500Y-94726673D01*
X101224500Y-94633327D01*
X101224499Y-94633326D01*
X101200341Y-94543168D01*
X101153671Y-94462332D01*
X101087667Y-94396328D01*
X101028488Y-94362162D01*
X101006832Y-94349659D01*
X101006831Y-94349658D01*
X100916599Y-94325480D01*
X100871666Y-94291001D01*
X100868950Y-94285837D01*
X100866030Y-94279711D01*
X100855341Y-94239817D01*
X100808671Y-94158981D01*
X100808336Y-94158646D01*
X100806413Y-94154610D01*
X100805080Y-94129022D01*
X100801737Y-94103622D01*
X100803590Y-94100411D01*
X100803468Y-94098049D01*
X100807607Y-94093455D01*
X100820891Y-94070447D01*
X100823671Y-94067668D01*
X100870341Y-93986832D01*
X100894499Y-93896673D01*
X100894500Y-93896673D01*
X100894500Y-93803327D01*
X100894499Y-93803326D01*
X100870341Y-93713168D01*
X100823671Y-93632332D01*
X100757667Y-93566328D01*
X100679006Y-93520914D01*
X100676832Y-93519659D01*
X100676831Y-93519658D01*
X100676832Y-93519658D01*
X100586673Y-93495500D01*
X100586671Y-93495500D01*
X100493329Y-93495500D01*
X100493327Y-93495500D01*
X100403164Y-93519659D01*
X100402811Y-93519806D01*
X100402618Y-93519805D01*
X100398483Y-93520914D01*
X100398185Y-93519805D01*
X100346174Y-93519800D01*
X100306130Y-93479747D01*
X100300500Y-93451436D01*
X100300500Y-92236713D01*
X100322174Y-92184387D01*
X100374500Y-92162713D01*
X100406996Y-92170230D01*
X100448607Y-92190573D01*
X100516740Y-92200500D01*
X100516746Y-92200500D01*
X101883254Y-92200500D01*
X101883260Y-92200500D01*
X101951393Y-92190573D01*
X102056483Y-92139198D01*
X102066535Y-92129145D01*
X102118859Y-92107470D01*
X102171186Y-92129142D01*
X102192862Y-92181467D01*
X102190340Y-92200623D01*
X102165500Y-92293326D01*
X102165500Y-92386673D01*
X102189658Y-92476831D01*
X102220079Y-92529521D01*
X102236329Y-92557668D01*
X102302332Y-92623671D01*
X102383168Y-92670341D01*
X102383167Y-92670341D01*
X102435222Y-92684289D01*
X102473326Y-92694499D01*
X102473327Y-92694500D01*
X102473329Y-92694500D01*
X102566673Y-92694500D01*
X102566673Y-92694499D01*
X102656832Y-92670341D01*
X102737668Y-92623671D01*
X102803671Y-92557668D01*
X102850341Y-92476832D01*
X102874499Y-92386673D01*
X102874500Y-92386673D01*
X102874500Y-92335772D01*
X102896174Y-92283446D01*
X102948500Y-92261772D01*
X102978174Y-92269729D01*
X102978689Y-92268486D01*
X102983167Y-92270341D01*
X102989747Y-92272104D01*
X103073326Y-92294499D01*
X103073327Y-92294500D01*
X103073329Y-92294500D01*
X103166673Y-92294500D01*
X103166673Y-92294499D01*
X103256832Y-92270341D01*
X103337668Y-92223671D01*
X103403671Y-92157668D01*
X103450341Y-92076832D01*
X103474499Y-91986673D01*
X103474500Y-91986673D01*
X103474500Y-91893327D01*
X103474499Y-91893326D01*
X103463907Y-91853798D01*
X103450341Y-91803168D01*
X103403671Y-91722332D01*
X103337668Y-91656329D01*
X103337667Y-91656328D01*
X103256830Y-91609658D01*
X103256832Y-91609658D01*
X103166673Y-91585500D01*
X103166671Y-91585500D01*
X103073329Y-91585500D01*
X103073327Y-91585500D01*
X102983168Y-91609658D01*
X102902332Y-91656328D01*
X102836328Y-91722332D01*
X102789658Y-91803168D01*
X102765500Y-91893326D01*
X102765500Y-91944227D01*
X102743826Y-91996553D01*
X102691500Y-92018227D01*
X102661823Y-92010275D01*
X102661311Y-92011514D01*
X102656832Y-92009658D01*
X102566673Y-91985500D01*
X102566671Y-91985500D01*
X102473329Y-91985500D01*
X102473327Y-91985500D01*
X102383168Y-92009658D01*
X102302332Y-92056328D01*
X102296884Y-92061776D01*
X102244557Y-92083447D01*
X102192232Y-92061770D01*
X102170561Y-92009443D01*
X102178079Y-91976949D01*
X102190573Y-91951393D01*
X102200500Y-91883260D01*
X102200500Y-90516740D01*
X102190573Y-90448607D01*
X102170233Y-90407000D01*
X102166724Y-90350472D01*
X102204214Y-90308019D01*
X102236714Y-90300500D01*
X104806950Y-90300500D01*
X104859276Y-90322174D01*
G37*
%TD.AperFunction*%
%TD*%
M02*
