%TF.GenerationSoftware,KiCad,Pcbnew,9.0.6*%
%TF.CreationDate,2025-12-22T03:31:33-08:00*%
%TF.ProjectId,sg90-prod-ch32f006,73673930-2d70-4726-9f64-2d6368333266,rev?*%
%TF.SameCoordinates,Original*%
%TF.FileFunction,Copper,L3,Inr*%
%TF.FilePolarity,Positive*%
%FSLAX46Y46*%
G04 Gerber Fmt 4.6, Leading zero omitted, Abs format (unit mm)*
G04 Created by KiCad (PCBNEW 9.0.6) date 2025-12-22 03:31:33*
%MOMM*%
%LPD*%
G01*
G04 APERTURE LIST*
G04 Aperture macros list*
%AMRoundRect*
0 Rectangle with rounded corners*
0 $1 Rounding radius*
0 $2 $3 $4 $5 $6 $7 $8 $9 X,Y pos of 4 corners*
0 Add a 4 corners polygon primitive as box body*
4,1,4,$2,$3,$4,$5,$6,$7,$8,$9,$2,$3,0*
0 Add four circle primitives for the rounded corners*
1,1,$1+$1,$2,$3*
1,1,$1+$1,$4,$5*
1,1,$1+$1,$6,$7*
1,1,$1+$1,$8,$9*
0 Add four rect primitives between the rounded corners*
20,1,$1+$1,$2,$3,$4,$5,0*
20,1,$1+$1,$4,$5,$6,$7,0*
20,1,$1+$1,$6,$7,$8,$9,0*
20,1,$1+$1,$8,$9,$2,$3,0*%
G04 Aperture macros list end*
%TA.AperFunction,ComponentPad*%
%ADD10RoundRect,0.250000X-0.650000X0.650000X-0.650000X-0.650000X0.650000X-0.650000X0.650000X0.650000X0*%
%TD*%
%TA.AperFunction,ComponentPad*%
%ADD11C,1.600000*%
%TD*%
%TA.AperFunction,ComponentPad*%
%ADD12C,1.800000*%
%TD*%
%TA.AperFunction,ViaPad*%
%ADD13C,0.450000*%
%TD*%
%TA.AperFunction,ViaPad*%
%ADD14C,0.800000*%
%TD*%
G04 APERTURE END LIST*
D10*
%TO.N,/OUTA*%
%TO.C,J2*%
X101200000Y-91200000D03*
%TO.N,/OUTB*%
X101200000Y-98800000D03*
%TD*%
D11*
%TO.N,GND*%
%TO.C,J1*%
X111370000Y-97000000D03*
%TO.N,VIN*%
X111370000Y-95000000D03*
%TO.N,/DATA*%
X111370000Y-93000000D03*
%TD*%
D12*
%TO.N,+3.3V*%
%TO.C,J4*%
X104300000Y-92450000D03*
%TD*%
D13*
%TO.N,GND*%
X102480000Y-98640000D03*
X107500000Y-94330000D03*
X105160000Y-90620000D03*
X110826044Y-91382431D03*
X106830000Y-94990000D03*
X108570000Y-99190000D03*
X107500000Y-95670000D03*
X106830000Y-94330000D03*
X107500000Y-94990000D03*
X105160000Y-99380000D03*
X108170000Y-94990000D03*
X105840000Y-90610000D03*
X108170000Y-94330000D03*
X108170000Y-95670000D03*
X106830000Y-95670000D03*
%TO.N,/nRST*%
X110310000Y-97930000D03*
%TO.N,PGND*%
X102520000Y-92340000D03*
X101980000Y-95600000D03*
X102470000Y-95010000D03*
X101980000Y-95010000D03*
X101980000Y-94410000D03*
X102740000Y-93400000D03*
X102470000Y-95600000D03*
X102470000Y-94410000D03*
%TO.N,/POT*%
X103090000Y-96280000D03*
%TO.N,/OUTB*%
X100780000Y-95400000D03*
X100525000Y-96443965D03*
X100525000Y-95865620D03*
%TO.N,/OUTA*%
X100540000Y-93850000D03*
X100870000Y-94680000D03*
X100525000Y-94376649D03*
%TO.N,/ISNS+*%
X108480000Y-96740000D03*
X109790000Y-94730000D03*
%TO.N,/SWDIO*%
X106000000Y-96135000D03*
%TO.N,/ISNS-*%
X109760000Y-95530000D03*
%TO.N,+3.3V*%
X106078515Y-91288515D03*
X109630000Y-93600000D03*
X109340000Y-91590000D03*
X109520000Y-97160000D03*
%TO.N,/3V3_DRV*%
X103120000Y-91940000D03*
D14*
%TO.N,/VSYS*%
X106699000Y-91970000D03*
D13*
X108570000Y-98300000D03*
D14*
X101386394Y-92935886D03*
D13*
X106920000Y-99380000D03*
%TD*%
%TA.AperFunction,Conductor*%
%TO.N,+3.3V*%
G36*
X104859276Y-90322174D02*
G01*
X104880950Y-90374500D01*
X104871036Y-90411499D01*
X104829658Y-90483168D01*
X104805500Y-90573326D01*
X104805500Y-90666673D01*
X104829658Y-90756831D01*
X104874460Y-90834430D01*
X104876329Y-90837668D01*
X104942332Y-90903671D01*
X105023168Y-90950341D01*
X105023167Y-90950341D01*
X105075222Y-90964289D01*
X105113326Y-90974499D01*
X105113327Y-90974500D01*
X105113329Y-90974500D01*
X105206673Y-90974500D01*
X105206673Y-90974499D01*
X105296832Y-90950341D01*
X105377668Y-90903671D01*
X105443671Y-90837668D01*
X105443674Y-90837661D01*
X105445555Y-90835212D01*
X105446908Y-90834430D01*
X105447101Y-90834238D01*
X105447152Y-90834289D01*
X105494603Y-90806891D01*
X105549311Y-90821546D01*
X105556592Y-90827931D01*
X105622332Y-90893671D01*
X105703168Y-90940341D01*
X105703167Y-90940341D01*
X105740488Y-90950341D01*
X105793326Y-90964499D01*
X105793327Y-90964500D01*
X105793329Y-90964500D01*
X105886673Y-90964500D01*
X105886673Y-90964499D01*
X105976832Y-90940341D01*
X106057668Y-90893671D01*
X106123671Y-90827668D01*
X106170341Y-90746832D01*
X106194499Y-90656673D01*
X106194500Y-90656673D01*
X106194500Y-90563327D01*
X106194499Y-90563326D01*
X106170342Y-90473170D01*
X106156160Y-90448606D01*
X106134736Y-90411498D01*
X106127345Y-90355347D01*
X106161823Y-90310414D01*
X106198823Y-90300500D01*
X109868633Y-90300500D01*
X109914860Y-90316716D01*
X110688740Y-90935820D01*
X110716060Y-90985431D01*
X110700297Y-91039830D01*
X110679513Y-91057689D01*
X110608375Y-91098760D01*
X110542372Y-91164763D01*
X110495702Y-91245599D01*
X110471544Y-91335757D01*
X110471544Y-91429104D01*
X110495702Y-91519262D01*
X110524707Y-91569500D01*
X110542373Y-91600099D01*
X110608376Y-91666102D01*
X110689212Y-91712772D01*
X110689211Y-91712772D01*
X110741266Y-91726720D01*
X110779370Y-91736930D01*
X110779371Y-91736931D01*
X110779373Y-91736931D01*
X110872717Y-91736931D01*
X110872717Y-91736930D01*
X110962876Y-91712772D01*
X111043712Y-91666102D01*
X111109715Y-91600099D01*
X111156385Y-91519263D01*
X111173272Y-91456239D01*
X111207750Y-91411307D01*
X111263902Y-91403914D01*
X111290976Y-91417608D01*
X112171727Y-92122209D01*
X112199047Y-92171820D01*
X112199500Y-92179992D01*
X112199500Y-92377598D01*
X112177826Y-92429924D01*
X112125500Y-92451598D01*
X112073174Y-92429924D01*
X112070763Y-92427265D01*
X112069466Y-92425968D01*
X112069464Y-92425965D01*
X111944035Y-92300536D01*
X111907772Y-92276306D01*
X111796544Y-92201985D01*
X111632670Y-92134107D01*
X111632660Y-92134104D01*
X111516156Y-92110930D01*
X111458691Y-92099500D01*
X111281309Y-92099500D01*
X111231989Y-92109310D01*
X111107339Y-92134104D01*
X111107329Y-92134107D01*
X110943455Y-92201985D01*
X110795968Y-92300533D01*
X110670533Y-92425968D01*
X110571985Y-92573455D01*
X110504107Y-92737329D01*
X110504104Y-92737339D01*
X110469500Y-92911310D01*
X110469500Y-93088689D01*
X110504104Y-93262660D01*
X110504107Y-93262670D01*
X110571985Y-93426544D01*
X110664632Y-93565200D01*
X110670536Y-93574035D01*
X110795965Y-93699464D01*
X110943453Y-93798013D01*
X110943454Y-93798013D01*
X110943455Y-93798014D01*
X111068962Y-93850000D01*
X111107334Y-93865894D01*
X111281309Y-93900500D01*
X111281311Y-93900500D01*
X111458689Y-93900500D01*
X111458691Y-93900500D01*
X111632666Y-93865894D01*
X111796547Y-93798013D01*
X111944035Y-93699464D01*
X112069464Y-93574035D01*
X112069466Y-93574031D01*
X112072034Y-93571464D01*
X112073333Y-93572763D01*
X112118249Y-93548757D01*
X112172447Y-93565200D01*
X112199144Y-93615150D01*
X112199500Y-93622401D01*
X112199500Y-94377598D01*
X112177826Y-94429924D01*
X112125500Y-94451598D01*
X112073174Y-94429924D01*
X112070763Y-94427265D01*
X112069466Y-94425968D01*
X112069464Y-94425965D01*
X111944035Y-94300536D01*
X111921532Y-94285500D01*
X111796544Y-94201985D01*
X111632670Y-94134107D01*
X111632660Y-94134104D01*
X111516156Y-94110930D01*
X111458691Y-94099500D01*
X111281309Y-94099500D01*
X111231989Y-94109310D01*
X111107339Y-94134104D01*
X111107329Y-94134107D01*
X110943455Y-94201985D01*
X110795968Y-94300533D01*
X110670533Y-94425968D01*
X110571985Y-94573455D01*
X110504107Y-94737329D01*
X110504104Y-94737339D01*
X110469500Y-94911310D01*
X110469500Y-95088689D01*
X110504104Y-95262660D01*
X110504107Y-95262670D01*
X110571985Y-95426544D01*
X110664632Y-95565200D01*
X110670536Y-95574035D01*
X110795965Y-95699464D01*
X110943453Y-95798013D01*
X110943454Y-95798013D01*
X110943455Y-95798014D01*
X111093928Y-95860341D01*
X111107334Y-95865894D01*
X111281309Y-95900500D01*
X111281311Y-95900500D01*
X111458689Y-95900500D01*
X111458691Y-95900500D01*
X111632666Y-95865894D01*
X111796547Y-95798013D01*
X111944035Y-95699464D01*
X112069464Y-95574035D01*
X112069466Y-95574031D01*
X112072034Y-95571464D01*
X112073333Y-95572763D01*
X112118249Y-95548757D01*
X112172447Y-95565200D01*
X112199144Y-95615150D01*
X112199500Y-95622401D01*
X112199500Y-96377598D01*
X112177826Y-96429924D01*
X112125500Y-96451598D01*
X112073174Y-96429924D01*
X112070763Y-96427265D01*
X112069466Y-96425968D01*
X112069464Y-96425965D01*
X111944035Y-96300536D01*
X111910279Y-96277981D01*
X111796544Y-96201985D01*
X111632670Y-96134107D01*
X111632660Y-96134104D01*
X111516156Y-96110930D01*
X111458691Y-96099500D01*
X111281309Y-96099500D01*
X111231989Y-96109310D01*
X111107339Y-96134104D01*
X111107329Y-96134107D01*
X110943455Y-96201985D01*
X110795968Y-96300533D01*
X110670533Y-96425968D01*
X110571985Y-96573455D01*
X110504107Y-96737329D01*
X110504104Y-96737339D01*
X110481184Y-96852571D01*
X110469500Y-96911309D01*
X110469500Y-97088691D01*
X110480930Y-97146156D01*
X110504104Y-97262660D01*
X110504107Y-97262670D01*
X110571985Y-97426544D01*
X110664632Y-97565200D01*
X110670536Y-97574035D01*
X110795965Y-97699464D01*
X110943453Y-97798013D01*
X110943454Y-97798013D01*
X110943455Y-97798014D01*
X111107329Y-97865892D01*
X111107334Y-97865894D01*
X111281309Y-97900500D01*
X111281311Y-97900500D01*
X111458689Y-97900500D01*
X111458691Y-97900500D01*
X111632666Y-97865894D01*
X111796547Y-97798013D01*
X111944035Y-97699464D01*
X112069464Y-97574035D01*
X112069466Y-97574031D01*
X112072034Y-97571464D01*
X112073333Y-97572763D01*
X112118249Y-97548757D01*
X112172447Y-97565200D01*
X112199144Y-97615150D01*
X112199500Y-97622401D01*
X112199500Y-97820006D01*
X112177826Y-97872332D01*
X112171727Y-97877790D01*
X109914860Y-99683284D01*
X109868633Y-99699500D01*
X107273050Y-99699500D01*
X107220724Y-99677826D01*
X107199050Y-99625500D01*
X107208964Y-99588501D01*
X107248315Y-99520341D01*
X107250341Y-99516832D01*
X107274499Y-99426673D01*
X107274500Y-99426673D01*
X107274500Y-99333327D01*
X107274499Y-99333326D01*
X107250342Y-99243170D01*
X107211261Y-99175479D01*
X107211260Y-99175477D01*
X107203671Y-99162332D01*
X107184665Y-99143326D01*
X108215500Y-99143326D01*
X108215500Y-99236673D01*
X108239658Y-99326831D01*
X108243409Y-99333327D01*
X108286329Y-99407668D01*
X108352332Y-99473671D01*
X108433168Y-99520341D01*
X108433167Y-99520341D01*
X108485222Y-99534289D01*
X108523326Y-99544499D01*
X108523327Y-99544500D01*
X108523329Y-99544500D01*
X108616673Y-99544500D01*
X108616673Y-99544499D01*
X108706832Y-99520341D01*
X108787668Y-99473671D01*
X108853671Y-99407668D01*
X108900341Y-99326832D01*
X108924499Y-99236673D01*
X108924500Y-99236673D01*
X108924500Y-99143327D01*
X108924499Y-99143326D01*
X108900341Y-99053168D01*
X108853671Y-98972332D01*
X108787667Y-98906328D01*
X108706830Y-98859658D01*
X108706832Y-98859658D01*
X108616673Y-98835500D01*
X108616671Y-98835500D01*
X108523329Y-98835500D01*
X108523327Y-98835500D01*
X108433168Y-98859658D01*
X108352332Y-98906328D01*
X108286328Y-98972332D01*
X108239658Y-99053168D01*
X108215500Y-99143326D01*
X107184665Y-99143326D01*
X107137667Y-99096328D01*
X107056830Y-99049658D01*
X107056832Y-99049658D01*
X106966673Y-99025500D01*
X106966671Y-99025500D01*
X106873329Y-99025500D01*
X106873327Y-99025500D01*
X106783168Y-99049658D01*
X106702332Y-99096328D01*
X106636328Y-99162332D01*
X106589658Y-99243168D01*
X106565500Y-99333326D01*
X106565500Y-99426673D01*
X106589658Y-99516831D01*
X106631036Y-99588501D01*
X106638428Y-99644653D01*
X106603949Y-99689586D01*
X106566950Y-99699500D01*
X105513050Y-99699500D01*
X105460724Y-99677826D01*
X105439050Y-99625500D01*
X105448964Y-99588501D01*
X105488315Y-99520341D01*
X105490341Y-99516832D01*
X105514499Y-99426673D01*
X105514500Y-99426673D01*
X105514500Y-99333327D01*
X105514499Y-99333326D01*
X105490341Y-99243168D01*
X105443671Y-99162332D01*
X105377667Y-99096328D01*
X105296830Y-99049658D01*
X105296832Y-99049658D01*
X105206673Y-99025500D01*
X105206671Y-99025500D01*
X105113329Y-99025500D01*
X105113327Y-99025500D01*
X105023168Y-99049658D01*
X104942332Y-99096328D01*
X104876328Y-99162332D01*
X104829658Y-99243168D01*
X104805500Y-99333326D01*
X104805500Y-99426673D01*
X104829658Y-99516831D01*
X104871036Y-99588501D01*
X104878428Y-99644653D01*
X104843949Y-99689586D01*
X104806950Y-99699500D01*
X102236714Y-99699500D01*
X102184388Y-99677826D01*
X102162714Y-99625500D01*
X102170233Y-99593000D01*
X102177367Y-99578404D01*
X102190573Y-99551393D01*
X102200500Y-99483260D01*
X102200500Y-99016143D01*
X102222174Y-98963817D01*
X102274500Y-98942143D01*
X102311497Y-98952056D01*
X102343168Y-98970341D01*
X102343170Y-98970342D01*
X102406542Y-98987322D01*
X102433326Y-98994499D01*
X102433327Y-98994500D01*
X102433329Y-98994500D01*
X102526673Y-98994500D01*
X102526673Y-98994499D01*
X102616832Y-98970341D01*
X102697668Y-98923671D01*
X102763671Y-98857668D01*
X102810341Y-98776832D01*
X102834499Y-98686673D01*
X102834500Y-98686673D01*
X102834500Y-98593327D01*
X102834499Y-98593326D01*
X102810341Y-98503168D01*
X102763671Y-98422332D01*
X102697667Y-98356328D01*
X102616830Y-98309658D01*
X102616832Y-98309658D01*
X102526673Y-98285500D01*
X102526671Y-98285500D01*
X102433329Y-98285500D01*
X102433327Y-98285500D01*
X102343171Y-98309657D01*
X102311499Y-98327943D01*
X102255346Y-98335334D01*
X102210413Y-98300855D01*
X102200500Y-98263856D01*
X102200500Y-98253326D01*
X108215500Y-98253326D01*
X108215500Y-98346673D01*
X108239658Y-98436831D01*
X108277958Y-98503168D01*
X108286329Y-98517668D01*
X108352332Y-98583671D01*
X108433168Y-98630341D01*
X108433167Y-98630341D01*
X108485222Y-98644289D01*
X108523326Y-98654499D01*
X108523327Y-98654500D01*
X108523329Y-98654500D01*
X108616673Y-98654500D01*
X108616673Y-98654499D01*
X108706832Y-98630341D01*
X108787668Y-98583671D01*
X108853671Y-98517668D01*
X108900341Y-98436832D01*
X108924499Y-98346673D01*
X108924500Y-98346673D01*
X108924500Y-98253327D01*
X108924499Y-98253326D01*
X108900341Y-98163168D01*
X108853671Y-98082332D01*
X108787667Y-98016328D01*
X108706830Y-97969658D01*
X108706831Y-97969658D01*
X108633307Y-97949957D01*
X108616673Y-97945500D01*
X108616671Y-97945500D01*
X108523329Y-97945500D01*
X108523327Y-97945500D01*
X108433168Y-97969658D01*
X108352332Y-98016328D01*
X108286328Y-98082332D01*
X108239658Y-98163168D01*
X108215500Y-98253326D01*
X102200500Y-98253326D01*
X102200500Y-98116746D01*
X102200500Y-98116740D01*
X102190573Y-98048607D01*
X102139198Y-97943517D01*
X102094367Y-97898686D01*
X102072695Y-97846953D01*
X102069604Y-97460613D01*
X103595500Y-97460613D01*
X103595500Y-97599386D01*
X103622571Y-97735488D01*
X103622573Y-97735495D01*
X103672310Y-97855572D01*
X103675680Y-97863706D01*
X103688792Y-97883329D01*
X103751160Y-97976671D01*
X103752779Y-97979093D01*
X103850907Y-98077221D01*
X103966294Y-98154320D01*
X104094505Y-98207427D01*
X104230613Y-98234500D01*
X104369387Y-98234500D01*
X104505495Y-98207427D01*
X104633706Y-98154320D01*
X104749093Y-98077221D01*
X104847221Y-97979093D01*
X104911210Y-97883326D01*
X109955500Y-97883326D01*
X109955500Y-97976673D01*
X109979658Y-98066831D01*
X110025483Y-98146202D01*
X110026329Y-98147668D01*
X110092332Y-98213671D01*
X110173168Y-98260341D01*
X110173167Y-98260341D01*
X110225222Y-98274289D01*
X110263326Y-98284499D01*
X110263327Y-98284500D01*
X110263329Y-98284500D01*
X110356673Y-98284500D01*
X110356673Y-98284499D01*
X110446832Y-98260341D01*
X110527668Y-98213671D01*
X110593671Y-98147668D01*
X110640341Y-98066832D01*
X110664499Y-97976673D01*
X110664500Y-97976673D01*
X110664500Y-97883327D01*
X110664499Y-97883326D01*
X110641639Y-97798014D01*
X110640341Y-97793168D01*
X110593671Y-97712332D01*
X110527668Y-97646329D01*
X110527667Y-97646328D01*
X110446830Y-97599658D01*
X110446832Y-97599658D01*
X110356673Y-97575500D01*
X110356671Y-97575500D01*
X110263329Y-97575500D01*
X110263327Y-97575500D01*
X110173168Y-97599658D01*
X110092332Y-97646328D01*
X110026328Y-97712332D01*
X109979658Y-97793168D01*
X109955500Y-97883326D01*
X104911210Y-97883326D01*
X104924320Y-97863706D01*
X104977427Y-97735495D01*
X105004500Y-97599387D01*
X105004500Y-97460613D01*
X104977427Y-97324505D01*
X104924320Y-97196294D01*
X104847221Y-97080907D01*
X104749093Y-96982779D01*
X104633706Y-96905680D01*
X104633703Y-96905678D01*
X104633702Y-96905678D01*
X104505495Y-96852573D01*
X104505488Y-96852571D01*
X104369387Y-96825500D01*
X104230613Y-96825500D01*
X104094511Y-96852571D01*
X104094504Y-96852573D01*
X103966297Y-96905678D01*
X103850907Y-96982778D01*
X103850906Y-96982780D01*
X103752780Y-97080906D01*
X103752778Y-97080907D01*
X103675678Y-97196297D01*
X103622573Y-97324504D01*
X103622571Y-97324511D01*
X103595500Y-97460613D01*
X102069604Y-97460613D01*
X102063466Y-96693326D01*
X108125500Y-96693326D01*
X108125500Y-96786673D01*
X108149658Y-96876831D01*
X108169565Y-96911310D01*
X108196329Y-96957668D01*
X108262332Y-97023671D01*
X108343168Y-97070341D01*
X108343167Y-97070341D01*
X108382596Y-97080906D01*
X108433326Y-97094499D01*
X108433327Y-97094500D01*
X108433329Y-97094500D01*
X108526673Y-97094500D01*
X108526673Y-97094499D01*
X108616832Y-97070341D01*
X108697668Y-97023671D01*
X108763671Y-96957668D01*
X108810341Y-96876832D01*
X108834499Y-96786673D01*
X108834500Y-96786673D01*
X108834500Y-96693327D01*
X108834499Y-96693326D01*
X108818736Y-96634500D01*
X108810341Y-96603168D01*
X108763671Y-96522332D01*
X108697668Y-96456329D01*
X108697667Y-96456328D01*
X108616830Y-96409658D01*
X108616832Y-96409658D01*
X108526673Y-96385500D01*
X108526671Y-96385500D01*
X108433329Y-96385500D01*
X108433327Y-96385500D01*
X108343168Y-96409658D01*
X108262332Y-96456328D01*
X108196328Y-96522332D01*
X108149658Y-96603168D01*
X108125500Y-96693326D01*
X102063466Y-96693326D01*
X102060593Y-96334170D01*
X102081848Y-96281673D01*
X102133996Y-96259581D01*
X102661083Y-96256603D01*
X102713529Y-96277981D01*
X102732148Y-96322221D01*
X102734867Y-96321864D01*
X102735500Y-96326673D01*
X102759658Y-96416831D01*
X102801613Y-96489499D01*
X102806329Y-96497668D01*
X102872332Y-96563671D01*
X102953168Y-96610341D01*
X102953167Y-96610341D01*
X103005222Y-96624289D01*
X103043326Y-96634499D01*
X103043327Y-96634500D01*
X103043329Y-96634500D01*
X103136673Y-96634500D01*
X103136673Y-96634499D01*
X103166875Y-96626406D01*
X103201979Y-96617001D01*
X103218582Y-96612551D01*
X103226832Y-96610341D01*
X103307668Y-96563671D01*
X103373671Y-96497668D01*
X103420341Y-96416832D01*
X103444499Y-96326673D01*
X103444500Y-96326673D01*
X103444500Y-96325760D01*
X103444676Y-96325334D01*
X103445133Y-96321864D01*
X103446063Y-96321986D01*
X103466174Y-96273434D01*
X103518080Y-96251761D01*
X103830000Y-96250000D01*
X103829320Y-96088326D01*
X105645500Y-96088326D01*
X105645500Y-96181673D01*
X105669658Y-96271831D01*
X105705650Y-96334171D01*
X105716329Y-96352668D01*
X105782332Y-96418671D01*
X105863168Y-96465341D01*
X105863167Y-96465341D01*
X105915222Y-96479289D01*
X105953326Y-96489499D01*
X105953327Y-96489500D01*
X105953329Y-96489500D01*
X106046673Y-96489500D01*
X106046673Y-96489499D01*
X106136832Y-96465341D01*
X106217668Y-96418671D01*
X106283671Y-96352668D01*
X106330341Y-96271832D01*
X106354499Y-96181673D01*
X106354500Y-96181673D01*
X106354500Y-96088327D01*
X106354499Y-96088326D01*
X106330341Y-95998168D01*
X106283671Y-95917332D01*
X106217667Y-95851328D01*
X106136830Y-95804658D01*
X106136832Y-95804658D01*
X106046673Y-95780500D01*
X106046671Y-95780500D01*
X105953329Y-95780500D01*
X105953327Y-95780500D01*
X105863168Y-95804658D01*
X105782332Y-95851328D01*
X105716328Y-95917332D01*
X105669658Y-95998168D01*
X105645500Y-96088326D01*
X103829320Y-96088326D01*
X103829052Y-96024500D01*
X103827759Y-95716671D01*
X103827522Y-95660348D01*
X103848976Y-95607933D01*
X103901210Y-95586039D01*
X103942631Y-95598509D01*
X103966294Y-95614320D01*
X104094505Y-95667427D01*
X104230613Y-95694500D01*
X104369387Y-95694500D01*
X104505495Y-95667427D01*
X104633706Y-95614320D01*
X104749093Y-95537221D01*
X104847221Y-95439093D01*
X104924320Y-95323706D01*
X104977427Y-95195495D01*
X105004500Y-95059387D01*
X105004500Y-94920613D01*
X104977427Y-94784505D01*
X104924320Y-94656294D01*
X104847221Y-94540907D01*
X104749093Y-94442779D01*
X104633706Y-94365680D01*
X104633703Y-94365678D01*
X104633702Y-94365678D01*
X104588237Y-94346846D01*
X104588236Y-94346845D01*
X104505499Y-94312574D01*
X104505488Y-94312571D01*
X104369387Y-94285500D01*
X104230613Y-94285500D01*
X104094511Y-94312571D01*
X104094504Y-94312573D01*
X103966298Y-94365678D01*
X103966296Y-94365678D01*
X103966294Y-94365680D01*
X103937016Y-94385243D01*
X103881466Y-94396291D01*
X103834375Y-94364824D01*
X103821907Y-94324027D01*
X103821736Y-94283326D01*
X106475500Y-94283326D01*
X106475500Y-94376673D01*
X106499658Y-94466831D01*
X106546328Y-94547667D01*
X106606335Y-94607674D01*
X106628009Y-94660000D01*
X106606335Y-94712326D01*
X106546328Y-94772332D01*
X106499658Y-94853168D01*
X106475500Y-94943326D01*
X106475500Y-95036673D01*
X106499658Y-95126831D01*
X106546328Y-95207667D01*
X106615762Y-95277101D01*
X106613754Y-95279108D01*
X106637554Y-95320377D01*
X106622868Y-95375077D01*
X106615404Y-95382541D01*
X106615762Y-95382899D01*
X106546328Y-95452332D01*
X106499658Y-95533168D01*
X106475500Y-95623326D01*
X106475500Y-95716673D01*
X106499658Y-95806831D01*
X106533759Y-95865895D01*
X106546329Y-95887668D01*
X106612332Y-95953671D01*
X106693168Y-96000341D01*
X106693167Y-96000341D01*
X106745222Y-96014289D01*
X106783326Y-96024499D01*
X106783327Y-96024500D01*
X106783329Y-96024500D01*
X106876673Y-96024500D01*
X106876673Y-96024499D01*
X106966832Y-96000341D01*
X107047668Y-95953671D01*
X107112674Y-95888665D01*
X107165000Y-95866991D01*
X107217326Y-95888665D01*
X107282332Y-95953671D01*
X107363168Y-96000341D01*
X107363167Y-96000341D01*
X107415222Y-96014289D01*
X107453326Y-96024499D01*
X107453327Y-96024500D01*
X107453329Y-96024500D01*
X107546673Y-96024500D01*
X107546673Y-96024499D01*
X107636832Y-96000341D01*
X107717668Y-95953671D01*
X107782674Y-95888665D01*
X107835000Y-95866991D01*
X107887326Y-95888665D01*
X107952332Y-95953671D01*
X108033168Y-96000341D01*
X108033167Y-96000341D01*
X108085222Y-96014289D01*
X108123326Y-96024499D01*
X108123327Y-96024500D01*
X108123329Y-96024500D01*
X108216673Y-96024500D01*
X108216673Y-96024499D01*
X108306832Y-96000341D01*
X108387668Y-95953671D01*
X108453671Y-95887668D01*
X108500341Y-95806832D01*
X108524499Y-95716673D01*
X108524500Y-95716673D01*
X108524500Y-95623327D01*
X108524499Y-95623326D01*
X108520374Y-95607933D01*
X108511998Y-95576671D01*
X108500342Y-95533170D01*
X108490128Y-95515479D01*
X108490127Y-95515477D01*
X108471565Y-95483326D01*
X109405500Y-95483326D01*
X109405500Y-95576673D01*
X109429658Y-95666831D01*
X109448499Y-95699464D01*
X109476329Y-95747668D01*
X109542332Y-95813671D01*
X109623168Y-95860341D01*
X109623167Y-95860341D01*
X109675222Y-95874289D01*
X109713326Y-95884499D01*
X109713327Y-95884500D01*
X109713329Y-95884500D01*
X109806673Y-95884500D01*
X109806673Y-95884499D01*
X109896832Y-95860341D01*
X109977668Y-95813671D01*
X110043671Y-95747668D01*
X110090341Y-95666832D01*
X110114499Y-95576673D01*
X110114500Y-95576673D01*
X110114500Y-95483327D01*
X110114499Y-95483326D01*
X110102646Y-95439092D01*
X110090341Y-95393168D01*
X110043671Y-95312332D01*
X109977668Y-95246329D01*
X109896832Y-95199659D01*
X109896831Y-95199658D01*
X109896243Y-95199319D01*
X109861765Y-95154386D01*
X109869157Y-95098233D01*
X109914089Y-95063755D01*
X109926832Y-95060341D01*
X110007668Y-95013671D01*
X110073671Y-94947668D01*
X110120341Y-94866832D01*
X110144499Y-94776673D01*
X110144500Y-94776673D01*
X110144500Y-94683327D01*
X110144499Y-94683326D01*
X110120341Y-94593168D01*
X110073671Y-94512332D01*
X110007667Y-94446328D01*
X109926830Y-94399658D01*
X109926832Y-94399658D01*
X109836673Y-94375500D01*
X109836671Y-94375500D01*
X109743329Y-94375500D01*
X109743327Y-94375500D01*
X109653168Y-94399658D01*
X109572332Y-94446328D01*
X109506328Y-94512332D01*
X109459658Y-94593168D01*
X109435500Y-94683326D01*
X109435500Y-94776673D01*
X109459658Y-94866831D01*
X109506328Y-94947667D01*
X109572332Y-95013671D01*
X109653755Y-95060680D01*
X109688234Y-95105613D01*
X109680842Y-95161765D01*
X109635911Y-95196244D01*
X109623167Y-95199659D01*
X109542332Y-95246328D01*
X109476328Y-95312332D01*
X109429658Y-95393168D01*
X109405500Y-95483326D01*
X108471565Y-95483326D01*
X108453671Y-95452332D01*
X108384238Y-95382899D01*
X108386254Y-95380882D01*
X108362452Y-95339671D01*
X108377102Y-95284961D01*
X108384600Y-95277463D01*
X108384238Y-95277101D01*
X108415011Y-95246328D01*
X108453671Y-95207668D01*
X108500341Y-95126832D01*
X108524499Y-95036673D01*
X108524500Y-95036673D01*
X108524500Y-94943327D01*
X108524499Y-94943326D01*
X108500341Y-94853168D01*
X108453671Y-94772332D01*
X108393665Y-94712326D01*
X108371991Y-94660000D01*
X108393665Y-94607674D01*
X108408171Y-94593168D01*
X108453671Y-94547668D01*
X108500341Y-94466832D01*
X108524499Y-94376673D01*
X108524500Y-94376673D01*
X108524500Y-94283327D01*
X108524499Y-94283326D01*
X108500341Y-94193168D01*
X108453671Y-94112332D01*
X108387667Y-94046328D01*
X108306830Y-93999658D01*
X108306832Y-93999658D01*
X108216673Y-93975500D01*
X108216671Y-93975500D01*
X108123329Y-93975500D01*
X108123327Y-93975500D01*
X108033168Y-93999658D01*
X107952332Y-94046328D01*
X107887326Y-94111335D01*
X107835000Y-94133009D01*
X107782674Y-94111335D01*
X107717667Y-94046328D01*
X107636830Y-93999658D01*
X107636832Y-93999658D01*
X107546673Y-93975500D01*
X107546671Y-93975500D01*
X107453329Y-93975500D01*
X107453327Y-93975500D01*
X107363168Y-93999658D01*
X107282332Y-94046328D01*
X107217326Y-94111335D01*
X107165000Y-94133009D01*
X107112674Y-94111335D01*
X107047667Y-94046328D01*
X106966830Y-93999658D01*
X106966832Y-93999658D01*
X106876673Y-93975500D01*
X106876671Y-93975500D01*
X106783329Y-93975500D01*
X106783327Y-93975500D01*
X106693168Y-93999658D01*
X106612332Y-94046328D01*
X106546328Y-94112332D01*
X106499658Y-94193168D01*
X106475500Y-94283326D01*
X103821736Y-94283326D01*
X103820312Y-93944310D01*
X103841766Y-93891894D01*
X103894000Y-93870001D01*
X103894311Y-93870000D01*
X104059999Y-93870000D01*
X104060000Y-93870000D01*
X104059999Y-93869999D01*
X104067651Y-93862183D01*
X104119743Y-93839952D01*
X104132109Y-93840859D01*
X104189818Y-93850000D01*
X104410184Y-93850000D01*
X104627831Y-93815527D01*
X104627844Y-93815524D01*
X104837410Y-93747432D01*
X104837414Y-93747430D01*
X105033756Y-93647388D01*
X105097512Y-93601067D01*
X104388584Y-92892138D01*
X104473694Y-92869333D01*
X104576306Y-92810090D01*
X104660090Y-92726306D01*
X104719333Y-92623694D01*
X104742138Y-92538583D01*
X105451067Y-93247512D01*
X105497388Y-93183756D01*
X105597430Y-92987414D01*
X105597432Y-92987410D01*
X105665524Y-92777844D01*
X105665527Y-92777831D01*
X105700000Y-92560183D01*
X105700000Y-92339816D01*
X105665527Y-92122168D01*
X105665524Y-92122155D01*
X105600530Y-91922125D01*
X105600530Y-91922124D01*
X105600529Y-91922123D01*
X105597430Y-91912584D01*
X105593110Y-91904105D01*
X106198500Y-91904105D01*
X106198500Y-92035894D01*
X106232606Y-92163181D01*
X106232610Y-92163190D01*
X106255010Y-92201987D01*
X106298500Y-92277314D01*
X106391686Y-92370500D01*
X106505814Y-92436392D01*
X106633105Y-92470499D01*
X106633106Y-92470500D01*
X106633108Y-92470500D01*
X106764894Y-92470500D01*
X106764894Y-92470499D01*
X106892186Y-92436392D01*
X107006314Y-92370500D01*
X107099500Y-92277314D01*
X107165392Y-92163186D01*
X107199499Y-92035894D01*
X107199500Y-92035894D01*
X107199500Y-91904106D01*
X107199499Y-91904105D01*
X107190214Y-91869454D01*
X107165392Y-91776814D01*
X107099500Y-91662686D01*
X107006314Y-91569500D01*
X106919303Y-91519264D01*
X106892190Y-91503610D01*
X106892181Y-91503606D01*
X106764894Y-91469500D01*
X106764892Y-91469500D01*
X106633108Y-91469500D01*
X106633106Y-91469500D01*
X106505818Y-91503606D01*
X106505809Y-91503610D01*
X106391685Y-91569500D01*
X106298500Y-91662685D01*
X106232610Y-91776809D01*
X106232606Y-91776818D01*
X106198500Y-91904105D01*
X105593110Y-91904105D01*
X105497388Y-91716243D01*
X105497385Y-91716237D01*
X105451067Y-91652486D01*
X104742138Y-92361414D01*
X104719333Y-92276306D01*
X104660090Y-92173694D01*
X104576306Y-92089910D01*
X104473694Y-92030667D01*
X104388582Y-92007861D01*
X105097512Y-91298932D01*
X105033759Y-91252612D01*
X104837407Y-91152566D01*
X104627844Y-91084475D01*
X104627831Y-91084472D01*
X104410184Y-91050000D01*
X104189816Y-91050000D01*
X103972168Y-91084472D01*
X103972155Y-91084475D01*
X103762592Y-91152566D01*
X103566243Y-91252611D01*
X103502486Y-91298932D01*
X104211415Y-92007861D01*
X104126306Y-92030667D01*
X104023694Y-92089910D01*
X103939910Y-92173694D01*
X103880667Y-92276306D01*
X103857861Y-92361415D01*
X103496174Y-91999728D01*
X103474500Y-91947402D01*
X103474500Y-91893327D01*
X103474499Y-91893326D01*
X103468102Y-91869454D01*
X103450341Y-91803168D01*
X103403671Y-91722332D01*
X103337668Y-91656329D01*
X103337667Y-91656328D01*
X103256830Y-91609658D01*
X103256832Y-91609658D01*
X103166673Y-91585500D01*
X103166671Y-91585500D01*
X103073329Y-91585500D01*
X103073327Y-91585500D01*
X102983168Y-91609658D01*
X102902332Y-91656328D01*
X102850335Y-91708326D01*
X102798009Y-91730000D01*
X102274500Y-91730000D01*
X102222174Y-91708326D01*
X102200500Y-91656000D01*
X102200500Y-90516746D01*
X102200500Y-90516740D01*
X102190573Y-90448607D01*
X102170233Y-90407000D01*
X102166724Y-90350472D01*
X102204214Y-90308019D01*
X102236714Y-90300500D01*
X104806950Y-90300500D01*
X104859276Y-90322174D01*
G37*
%TD.AperFunction*%
%TD*%
M02*
