%TF.GenerationSoftware,KiCad,Pcbnew,9.0.5*%
%TF.CreationDate,2025-12-09T19:06:53-08:00*%
%TF.ProjectId,servo-dev-board,73657276-6f2d-4646-9576-2d626f617264,rev?*%
%TF.SameCoordinates,Original*%
%TF.FileFunction,Copper,L4,Bot*%
%TF.FilePolarity,Positive*%
%FSLAX46Y46*%
G04 Gerber Fmt 4.6, Leading zero omitted, Abs format (unit mm)*
G04 Created by KiCad (PCBNEW 9.0.5) date 2025-12-09 19:06:53*
%MOMM*%
%LPD*%
G01*
G04 APERTURE LIST*
%TA.AperFunction,ComponentPad*%
%ADD10C,0.700000*%
%TD*%
%TA.AperFunction,ComponentPad*%
%ADD11C,4.400000*%
%TD*%
%TA.AperFunction,HeatsinkPad*%
%ADD12O,1.700000X1.350000*%
%TD*%
%TA.AperFunction,HeatsinkPad*%
%ADD13O,1.500000X1.100000*%
%TD*%
%TA.AperFunction,ComponentPad*%
%ADD14R,1.000000X1.000000*%
%TD*%
%TA.AperFunction,ComponentPad*%
%ADD15C,1.000000*%
%TD*%
%TA.AperFunction,ComponentPad*%
%ADD16R,1.700000X1.700000*%
%TD*%
%TA.AperFunction,ComponentPad*%
%ADD17C,1.700000*%
%TD*%
%TA.AperFunction,ViaPad*%
%ADD18C,0.450000*%
%TD*%
%TA.AperFunction,ViaPad*%
%ADD19C,0.600000*%
%TD*%
%TA.AperFunction,Conductor*%
%ADD20C,0.200000*%
%TD*%
G04 APERTURE END LIST*
D10*
%TO.P,MH3,1,1*%
%TO.N,GND*%
X160350000Y-110500000D03*
X160833274Y-109333274D03*
X160833274Y-111666726D03*
X162000000Y-108850000D03*
D11*
X162000000Y-110500000D03*
D10*
X162000000Y-112150000D03*
X163166726Y-109333274D03*
X163166726Y-111666726D03*
X163650000Y-110500000D03*
%TD*%
D12*
%TO.P,J1,6,Shield*%
%TO.N,GND*%
X117550000Y-98245000D03*
D13*
X120550000Y-98555000D03*
X120550000Y-103395000D03*
D12*
X117550000Y-103705000D03*
%TD*%
D10*
%TO.P,MH1,1,1*%
%TO.N,GND*%
X116350000Y-91500000D03*
X116833274Y-90333274D03*
X116833274Y-92666726D03*
X118000000Y-89850000D03*
D11*
X118000000Y-91500000D03*
D10*
X118000000Y-93150000D03*
X119166726Y-90333274D03*
X119166726Y-92666726D03*
X119650000Y-91500000D03*
%TD*%
D14*
%TO.P,J5,1,Pin_1*%
%TO.N,+3V3*%
X163370000Y-103540000D03*
D15*
%TO.P,J5,2,Pin_2*%
%TO.N,/JTMS_SWDIO*%
X162100000Y-103540000D03*
%TO.P,J5,3,Pin_3*%
%TO.N,GND*%
X163370000Y-102270000D03*
%TO.P,J5,4,Pin_4*%
%TO.N,/JTCK_SWCLK*%
X162100000Y-102270000D03*
%TO.P,J5,5,Pin_5*%
%TO.N,GND*%
X163370000Y-101000000D03*
%TO.P,J5,6,Pin_6*%
%TO.N,/JTDO_SWO*%
X162100000Y-101000000D03*
%TO.P,J5,7,Pin_7*%
%TO.N,unconnected-(J5-Pin_7-Pad7)*%
X163370000Y-99730000D03*
%TO.P,J5,8,Pin_8*%
%TO.N,/JTDI*%
X162100000Y-99730000D03*
%TO.P,J5,9,Pin_9*%
%TO.N,GND*%
X163370000Y-98460000D03*
%TO.P,J5,10,Pin_10*%
%TO.N,/NJTRST*%
X162100000Y-98460000D03*
%TD*%
D10*
%TO.P,MH4,1,1*%
%TO.N,GND*%
X160348350Y-91501650D03*
X160831624Y-90334924D03*
X160831624Y-92668376D03*
X161998350Y-89851650D03*
D11*
X161998350Y-91501650D03*
D10*
X161998350Y-93151650D03*
X163165076Y-90334924D03*
X163165076Y-92668376D03*
X163648350Y-91501650D03*
%TD*%
%TO.P,MH2,1,1*%
%TO.N,GND*%
X116350000Y-110500000D03*
X116833274Y-109333274D03*
X116833274Y-111666726D03*
X118000000Y-108850000D03*
D11*
X118000000Y-110500000D03*
D10*
X118000000Y-112150000D03*
X119166726Y-109333274D03*
X119166726Y-111666726D03*
X119650000Y-110500000D03*
%TD*%
D16*
%TO.P,H2,1,Pin_1*%
%TO.N,+5V*%
X131125000Y-90850000D03*
D17*
%TO.P,H2,2,Pin_2*%
%TO.N,+3V3*%
X133665000Y-90850000D03*
%TO.P,H2,3,Pin_3*%
%TO.N,GND*%
X136205000Y-90850000D03*
%TO.P,H2,4,Pin_4*%
%TO.N,/VREF*%
X138745000Y-90850000D03*
%TO.P,H2,5,Pin_5*%
%TO.N,GND*%
X141285000Y-90850000D03*
%TO.P,H2,6,Pin_6*%
%TO.N,/PB5*%
X143825000Y-90850000D03*
%TO.P,H2,7,Pin_7*%
%TO.N,/PA12*%
X146365000Y-90850000D03*
%TO.P,H2,8,Pin_8*%
%TO.N,GND*%
X148905000Y-90850000D03*
%TD*%
D16*
%TO.P,H1,1,Pin_1*%
%TO.N,/PA2*%
X131125000Y-111130000D03*
D17*
%TO.P,H1,2,Pin_2*%
%TO.N,/PA3*%
X133665000Y-111130000D03*
%TO.P,H1,3,Pin_3*%
%TO.N,/PA4*%
X136205000Y-111130000D03*
%TO.P,H1,4,Pin_4*%
%TO.N,/PA5*%
X138745000Y-111130000D03*
%TO.P,H1,5,Pin_5*%
%TO.N,/PA6*%
X141285000Y-111130000D03*
%TO.P,H1,6,Pin_6*%
%TO.N,/PA7*%
X143825000Y-111130000D03*
%TO.P,H1,7,Pin_7*%
%TO.N,/PB0*%
X146365000Y-111130000D03*
%TO.P,H1,8,Pin_8*%
%TO.N,GND*%
X148905000Y-111130000D03*
%TD*%
D18*
%TO.N,+3V3*%
X122350000Y-105700000D03*
X122350000Y-106883332D03*
X158355000Y-93600000D03*
X122725000Y-105050000D03*
X122350000Y-107475000D03*
X123125000Y-106291666D03*
X123125000Y-107475000D03*
X155375000Y-93600000D03*
D19*
X125550000Y-94350000D03*
X126325000Y-107700000D03*
D18*
X123575000Y-110825000D03*
D19*
X150650000Y-104875000D03*
D18*
X127800000Y-110825000D03*
X123125000Y-105700000D03*
X123125000Y-106883332D03*
X122350000Y-106291666D03*
X158750000Y-107900000D03*
D19*
X153375000Y-110725000D03*
X141400000Y-102312500D03*
D18*
X154975000Y-107950000D03*
D19*
X154350000Y-91225000D03*
X145500000Y-95050000D03*
%TO.N,GND*%
X152850000Y-89625000D03*
D18*
X123259744Y-95749891D03*
X123265256Y-94449783D03*
X164690000Y-93070000D03*
X123625000Y-91200000D03*
X121510000Y-108310000D03*
D19*
X147100000Y-99900000D03*
D18*
X146910000Y-108310000D03*
X129059744Y-95125217D03*
X125334675Y-97123499D03*
X121510000Y-95610000D03*
X126286308Y-96519240D03*
X116430000Y-95610000D03*
X132050000Y-94100000D03*
X136750000Y-105770000D03*
D19*
X124900000Y-103625000D03*
D18*
X124025000Y-95100000D03*
D19*
X147075000Y-95050000D03*
D18*
X129070000Y-98760000D03*
X126590000Y-100690000D03*
X136750000Y-108310000D03*
D19*
X130275000Y-95950000D03*
D18*
X124050000Y-108310000D03*
X123265256Y-96399945D03*
X129069488Y-95766883D03*
X118970000Y-100690000D03*
D19*
X123750000Y-100250000D03*
D18*
X124050000Y-105770000D03*
X123250000Y-95099837D03*
D19*
X147100000Y-101700000D03*
X142900000Y-102725000D03*
D18*
X159610000Y-95610000D03*
X127540256Y-96408549D03*
D19*
X156900000Y-112275000D03*
D18*
X162150000Y-95610000D03*
X118970000Y-105770000D03*
X159610000Y-93070000D03*
D19*
X155350000Y-110725000D03*
D18*
X128309744Y-95766883D03*
D19*
X143500000Y-95450000D03*
D18*
X128260000Y-98750000D03*
X121510000Y-93070000D03*
X151990000Y-110850000D03*
D19*
X125000000Y-100350000D03*
D18*
X157070000Y-95610000D03*
X128315256Y-96408549D03*
X134210000Y-95610000D03*
X127550000Y-97050217D03*
X129075000Y-96408549D03*
X128300000Y-95125217D03*
X134210000Y-105770000D03*
D19*
X124150000Y-104625000D03*
X119100000Y-102300000D03*
D18*
X164690000Y-95610000D03*
X164690000Y-105770000D03*
X164690000Y-108310000D03*
X151990000Y-108310000D03*
X129130000Y-103230000D03*
D19*
X117280000Y-100015000D03*
D18*
X124034744Y-95750000D03*
X129084744Y-97050217D03*
X126590000Y-93070000D03*
X164690000Y-110850000D03*
X129130000Y-100690000D03*
D19*
X130275000Y-106050000D03*
D18*
X118970000Y-95610000D03*
D19*
X139100000Y-98800000D03*
X145900000Y-98325000D03*
D18*
X121510000Y-110850000D03*
X154530000Y-105770000D03*
D19*
X143900000Y-102725000D03*
D18*
X124040256Y-96400000D03*
X128325000Y-97050217D03*
X126296855Y-97137496D03*
D19*
X123100000Y-99600000D03*
D18*
X127470000Y-98750000D03*
X122300000Y-90075000D03*
D19*
X148900000Y-99900000D03*
D18*
X154530000Y-95610000D03*
D19*
X149700000Y-104875000D03*
D18*
X129130000Y-105770000D03*
X151990000Y-105770000D03*
X126590000Y-103230000D03*
X155875000Y-103175000D03*
X159610000Y-105770000D03*
X127534744Y-95766883D03*
D19*
X117280000Y-101935000D03*
D18*
X126590000Y-110850000D03*
D19*
X131650000Y-101000000D03*
D18*
X136750000Y-103230000D03*
D19*
X135725000Y-101000000D03*
D18*
X123275000Y-97050000D03*
X151990000Y-93070000D03*
X149450000Y-108310000D03*
D19*
X147950000Y-100737500D03*
X153375000Y-91200000D03*
D18*
X164690000Y-98150000D03*
D19*
X133700000Y-101525000D03*
D18*
X124025000Y-94450000D03*
X164690000Y-100690000D03*
X124050000Y-97050000D03*
D19*
X156900000Y-89650000D03*
X148900000Y-101700000D03*
D18*
X129130000Y-108310000D03*
X139290000Y-103230000D03*
D19*
X123450000Y-104000000D03*
X150000000Y-103175000D03*
D18*
X122300000Y-111925000D03*
X116430000Y-105770000D03*
D19*
X125325000Y-106400000D03*
X152850000Y-112325000D03*
D18*
X127775000Y-91200000D03*
X129130000Y-110850000D03*
X136750000Y-98150000D03*
X162150000Y-105770000D03*
X121300000Y-111975000D03*
X125324931Y-96523282D03*
%TO.N,/NRST*%
X138825000Y-100300000D03*
X139925000Y-89075000D03*
D19*
%TO.N,/BOOT0*%
X145150000Y-112900000D03*
D18*
X147098067Y-97048067D03*
%TO.N,/VREF*%
X138325000Y-101312500D03*
%TO.N,/JTDI*%
X157650000Y-99450000D03*
%TO.N,/PA12*%
X152600000Y-100250000D03*
%TO.N,/PB5*%
X149400000Y-96200000D03*
%TO.N,/ISNS*%
X137625000Y-104975000D03*
X136175000Y-94900000D03*
%TO.N,/PWM1*%
X151500000Y-102625000D03*
X146575000Y-92350000D03*
%TO.N,/PWM2*%
X149675000Y-92975000D03*
X153275000Y-101650000D03*
%TD*%
D20*
%TO.N,/NRST*%
X139925000Y-91296346D02*
X139925000Y-89075000D01*
X138325000Y-92896346D02*
X139925000Y-91296346D01*
X138325000Y-99800000D02*
X138325000Y-92896346D01*
X138825000Y-100300000D02*
X138325000Y-99800000D01*
%TO.N,/BOOT0*%
X147098067Y-97048067D02*
X147098067Y-97301933D01*
X145150000Y-99923529D02*
X145150000Y-112900000D01*
X147098067Y-97301933D02*
X146500000Y-97900000D01*
X146500000Y-97900000D02*
X146500000Y-98573529D01*
X146500000Y-98573529D02*
X145150000Y-99923529D01*
%TO.N,/VREF*%
X137875000Y-91720000D02*
X138745000Y-90850000D01*
X137875000Y-100862500D02*
X137875000Y-91720000D01*
X138325000Y-101312500D02*
X137875000Y-100862500D01*
%TO.N,/JTDI*%
X157650000Y-99450000D02*
X157930000Y-99730000D01*
X157930000Y-99730000D02*
X162100000Y-99730000D01*
%TO.N,/PA12*%
X152600000Y-100250000D02*
X152570247Y-100220247D01*
X152570247Y-97055247D02*
X146365000Y-90850000D01*
X146365000Y-90585000D02*
X146365000Y-90850000D01*
X152570247Y-100220247D02*
X152570247Y-97055247D01*
%TO.N,/PB5*%
X149375000Y-96200000D02*
X144025000Y-90850000D01*
X149400000Y-96200000D02*
X149375000Y-96200000D01*
X144025000Y-90850000D02*
X143825000Y-90850000D01*
%TO.N,/ISNS*%
X136175000Y-94900000D02*
X137400000Y-96125000D01*
X137400000Y-96125000D02*
X137400000Y-104750000D01*
X137400000Y-104750000D02*
X137625000Y-104975000D01*
%TO.N,/PWM1*%
X146575000Y-92350000D02*
X147001470Y-92350000D01*
X147001470Y-92350000D02*
X151500000Y-96848530D01*
X151500000Y-96848530D02*
X151500000Y-102625000D01*
%TO.N,/PWM2*%
X153200000Y-101575000D02*
X153275000Y-101650000D01*
X149675000Y-93326470D02*
X153200000Y-96851470D01*
X153200000Y-96851470D02*
X153200000Y-101575000D01*
X149675000Y-92975000D02*
X149675000Y-93326470D01*
%TD*%
%TA.AperFunction,Conductor*%
%TO.N,GND*%
G36*
X162001278Y-88250567D02*
G01*
X162337108Y-88268167D01*
X162342190Y-88268701D01*
X162673080Y-88321108D01*
X162678092Y-88322174D01*
X163001673Y-88408878D01*
X163006545Y-88410461D01*
X163319295Y-88530514D01*
X163323971Y-88532596D01*
X163553409Y-88649500D01*
X163622462Y-88684684D01*
X163626900Y-88687246D01*
X163907859Y-88869703D01*
X163911996Y-88872709D01*
X164092628Y-89018982D01*
X164172347Y-89083537D01*
X164176158Y-89086969D01*
X164413030Y-89323841D01*
X164416462Y-89327652D01*
X164627285Y-89587996D01*
X164630300Y-89592146D01*
X164812751Y-89873096D01*
X164815315Y-89877537D01*
X164967401Y-90176023D01*
X164969487Y-90180709D01*
X165089537Y-90493451D01*
X165091122Y-90498329D01*
X165177824Y-90821904D01*
X165178891Y-90826921D01*
X165231297Y-91157799D01*
X165231833Y-91162899D01*
X165249433Y-91498720D01*
X165249500Y-91501285D01*
X165249500Y-110498714D01*
X165249433Y-110501279D01*
X165231833Y-110837100D01*
X165231297Y-110842200D01*
X165178891Y-111173078D01*
X165177824Y-111178095D01*
X165091122Y-111501670D01*
X165089537Y-111506548D01*
X164969487Y-111819290D01*
X164967401Y-111823976D01*
X164815315Y-112122462D01*
X164812751Y-112126903D01*
X164630300Y-112407853D01*
X164627285Y-112412003D01*
X164416462Y-112672347D01*
X164413030Y-112676158D01*
X164176158Y-112913030D01*
X164172347Y-112916462D01*
X163912003Y-113127285D01*
X163907853Y-113130300D01*
X163626903Y-113312751D01*
X163622462Y-113315315D01*
X163323976Y-113467401D01*
X163319290Y-113469487D01*
X163006548Y-113589537D01*
X163001670Y-113591122D01*
X162678095Y-113677824D01*
X162673078Y-113678891D01*
X162342200Y-113731297D01*
X162337100Y-113731833D01*
X162022866Y-113748301D01*
X162001277Y-113749433D01*
X161998714Y-113749500D01*
X118001286Y-113749500D01*
X117998722Y-113749433D01*
X117974319Y-113748154D01*
X117662899Y-113731833D01*
X117657799Y-113731297D01*
X117326921Y-113678891D01*
X117321904Y-113677824D01*
X116998329Y-113591122D01*
X116993451Y-113589537D01*
X116680709Y-113469487D01*
X116676023Y-113467401D01*
X116377537Y-113315315D01*
X116373096Y-113312751D01*
X116092146Y-113130300D01*
X116087996Y-113127285D01*
X116045887Y-113093186D01*
X115827652Y-112916462D01*
X115823841Y-112913030D01*
X115586969Y-112676158D01*
X115583537Y-112672347D01*
X115443568Y-112499500D01*
X115372709Y-112411996D01*
X115369703Y-112407859D01*
X115187246Y-112126900D01*
X115184684Y-112122462D01*
X115067113Y-111891716D01*
X115032596Y-111823971D01*
X115030512Y-111819290D01*
X115022974Y-111799654D01*
X114910461Y-111506545D01*
X114908877Y-111501670D01*
X114891392Y-111436417D01*
X114822174Y-111178092D01*
X114821108Y-111173078D01*
X114768701Y-110842190D01*
X114768167Y-110837110D01*
X114764596Y-110768978D01*
X123149500Y-110768978D01*
X123149500Y-110881021D01*
X123178496Y-110989235D01*
X123178497Y-110989239D01*
X123221762Y-111064174D01*
X123234515Y-111086263D01*
X123313737Y-111165485D01*
X123335578Y-111178095D01*
X123410760Y-111221502D01*
X123410762Y-111221502D01*
X123410763Y-111221503D01*
X123465785Y-111236246D01*
X123518978Y-111250499D01*
X123518979Y-111250500D01*
X123518982Y-111250500D01*
X123631021Y-111250500D01*
X123631021Y-111250499D01*
X123739237Y-111221503D01*
X123836263Y-111165485D01*
X123915485Y-111086263D01*
X123971503Y-110989237D01*
X124000499Y-110881021D01*
X124000500Y-110881021D01*
X124000500Y-110768979D01*
X124000499Y-110768978D01*
X127374500Y-110768978D01*
X127374500Y-110881021D01*
X127403496Y-110989235D01*
X127403497Y-110989239D01*
X127446762Y-111064174D01*
X127459515Y-111086263D01*
X127538737Y-111165485D01*
X127560578Y-111178095D01*
X127635760Y-111221502D01*
X127635762Y-111221502D01*
X127635763Y-111221503D01*
X127690785Y-111236246D01*
X127743978Y-111250499D01*
X127743979Y-111250500D01*
X127743982Y-111250500D01*
X127856021Y-111250500D01*
X127856021Y-111250499D01*
X127964237Y-111221503D01*
X128061263Y-111165485D01*
X128140485Y-111086263D01*
X128196503Y-110989237D01*
X128225499Y-110881021D01*
X128225500Y-110881021D01*
X128225500Y-110768979D01*
X128225499Y-110768978D01*
X128197390Y-110664075D01*
X128196503Y-110660763D01*
X128196502Y-110660762D01*
X128196502Y-110660760D01*
X128140484Y-110563736D01*
X128061263Y-110484515D01*
X127964239Y-110428497D01*
X127964235Y-110428496D01*
X127856021Y-110399500D01*
X127856018Y-110399500D01*
X127743982Y-110399500D01*
X127743979Y-110399500D01*
X127635764Y-110428496D01*
X127635760Y-110428497D01*
X127538736Y-110484515D01*
X127538736Y-110484516D01*
X127459516Y-110563736D01*
X127459515Y-110563736D01*
X127403497Y-110660760D01*
X127403496Y-110660764D01*
X127374500Y-110768978D01*
X124000499Y-110768978D01*
X123972390Y-110664075D01*
X123971503Y-110660763D01*
X123971502Y-110660762D01*
X123971502Y-110660760D01*
X123915484Y-110563736D01*
X123836263Y-110484515D01*
X123739239Y-110428497D01*
X123739235Y-110428496D01*
X123631021Y-110399500D01*
X123631018Y-110399500D01*
X123518982Y-110399500D01*
X123518979Y-110399500D01*
X123410764Y-110428496D01*
X123410760Y-110428497D01*
X123313736Y-110484515D01*
X123313736Y-110484516D01*
X123234516Y-110563736D01*
X123234515Y-110563736D01*
X123178497Y-110660760D01*
X123178496Y-110660764D01*
X123149500Y-110768978D01*
X114764596Y-110768978D01*
X114750567Y-110501278D01*
X114750500Y-110498714D01*
X114750500Y-110260252D01*
X130074500Y-110260252D01*
X130074500Y-111999748D01*
X130086133Y-112058231D01*
X130087944Y-112060941D01*
X130130447Y-112124552D01*
X130133966Y-112126903D01*
X130196769Y-112168867D01*
X130255252Y-112180500D01*
X130255255Y-112180500D01*
X131994745Y-112180500D01*
X131994748Y-112180500D01*
X132053231Y-112168867D01*
X132119552Y-112124552D01*
X132163867Y-112058231D01*
X132175500Y-111999748D01*
X132175500Y-111026535D01*
X132614500Y-111026535D01*
X132614500Y-111233465D01*
X132632308Y-111322993D01*
X132654869Y-111436417D01*
X132654871Y-111436423D01*
X132733178Y-111625471D01*
X132734059Y-111627598D01*
X132791929Y-111714207D01*
X132835280Y-111779088D01*
X132849023Y-111799655D01*
X132995345Y-111945977D01*
X133167402Y-112060941D01*
X133358580Y-112140130D01*
X133561535Y-112180500D01*
X133561538Y-112180500D01*
X133768462Y-112180500D01*
X133768465Y-112180500D01*
X133971420Y-112140130D01*
X134162598Y-112060941D01*
X134334655Y-111945977D01*
X134480977Y-111799655D01*
X134595941Y-111627598D01*
X134675130Y-111436420D01*
X134715500Y-111233465D01*
X134715500Y-111026535D01*
X135154500Y-111026535D01*
X135154500Y-111233465D01*
X135172308Y-111322993D01*
X135194869Y-111436417D01*
X135194871Y-111436423D01*
X135273178Y-111625471D01*
X135274059Y-111627598D01*
X135331929Y-111714207D01*
X135375280Y-111779088D01*
X135389023Y-111799655D01*
X135535345Y-111945977D01*
X135707402Y-112060941D01*
X135898580Y-112140130D01*
X136101535Y-112180500D01*
X136101538Y-112180500D01*
X136308462Y-112180500D01*
X136308465Y-112180500D01*
X136511420Y-112140130D01*
X136702598Y-112060941D01*
X136874655Y-111945977D01*
X137020977Y-111799655D01*
X137135941Y-111627598D01*
X137215130Y-111436420D01*
X137255500Y-111233465D01*
X137255500Y-111026535D01*
X137694500Y-111026535D01*
X137694500Y-111233465D01*
X137712308Y-111322993D01*
X137734869Y-111436417D01*
X137734871Y-111436423D01*
X137813178Y-111625471D01*
X137814059Y-111627598D01*
X137871929Y-111714207D01*
X137915280Y-111779088D01*
X137929023Y-111799655D01*
X138075345Y-111945977D01*
X138247402Y-112060941D01*
X138438580Y-112140130D01*
X138641535Y-112180500D01*
X138641538Y-112180500D01*
X138848462Y-112180500D01*
X138848465Y-112180500D01*
X139051420Y-112140130D01*
X139242598Y-112060941D01*
X139414655Y-111945977D01*
X139560977Y-111799655D01*
X139675941Y-111627598D01*
X139755130Y-111436420D01*
X139795500Y-111233465D01*
X139795500Y-111026535D01*
X140234500Y-111026535D01*
X140234500Y-111233465D01*
X140252308Y-111322993D01*
X140274869Y-111436417D01*
X140274871Y-111436423D01*
X140353178Y-111625471D01*
X140354059Y-111627598D01*
X140411929Y-111714207D01*
X140455280Y-111779088D01*
X140469023Y-111799655D01*
X140615345Y-111945977D01*
X140787402Y-112060941D01*
X140978580Y-112140130D01*
X141181535Y-112180500D01*
X141181538Y-112180500D01*
X141388462Y-112180500D01*
X141388465Y-112180500D01*
X141591420Y-112140130D01*
X141782598Y-112060941D01*
X141954655Y-111945977D01*
X142100977Y-111799655D01*
X142215941Y-111627598D01*
X142295130Y-111436420D01*
X142335500Y-111233465D01*
X142335500Y-111026535D01*
X142774500Y-111026535D01*
X142774500Y-111233465D01*
X142792308Y-111322993D01*
X142814869Y-111436417D01*
X142814871Y-111436423D01*
X142893178Y-111625471D01*
X142894059Y-111627598D01*
X142951929Y-111714207D01*
X142995280Y-111779088D01*
X143009023Y-111799655D01*
X143155345Y-111945977D01*
X143327402Y-112060941D01*
X143518580Y-112140130D01*
X143721535Y-112180500D01*
X143721538Y-112180500D01*
X143928462Y-112180500D01*
X143928465Y-112180500D01*
X144131420Y-112140130D01*
X144322598Y-112060941D01*
X144494655Y-111945977D01*
X144640977Y-111799655D01*
X144755941Y-111627598D01*
X144755943Y-111627592D01*
X144757078Y-111625471D01*
X144758378Y-111626166D01*
X144781748Y-111602796D01*
X144819251Y-111602796D01*
X144845770Y-111629314D01*
X144849500Y-111648066D01*
X144849500Y-112472390D01*
X144835148Y-112507038D01*
X144749501Y-112592685D01*
X144749500Y-112592685D01*
X144683608Y-112706811D01*
X144683607Y-112706815D01*
X144649500Y-112834104D01*
X144649500Y-112965895D01*
X144683607Y-113093184D01*
X144683608Y-113093188D01*
X144749500Y-113207314D01*
X144842686Y-113300500D01*
X144884457Y-113324617D01*
X144956811Y-113366391D01*
X144956813Y-113366391D01*
X144956814Y-113366392D01*
X145057207Y-113393292D01*
X145084104Y-113400499D01*
X145084105Y-113400500D01*
X145084108Y-113400500D01*
X145215895Y-113400500D01*
X145215895Y-113400499D01*
X145343186Y-113366392D01*
X145457314Y-113300500D01*
X145550500Y-113207314D01*
X145616392Y-113093186D01*
X145650499Y-112965895D01*
X145650500Y-112965895D01*
X145650500Y-112834105D01*
X145650499Y-112834104D01*
X145616392Y-112706815D01*
X145616391Y-112706811D01*
X145550499Y-112592685D01*
X145464852Y-112507038D01*
X145450500Y-112472390D01*
X145450500Y-111813736D01*
X145464852Y-111779088D01*
X145499500Y-111764736D01*
X145534148Y-111779088D01*
X145540241Y-111786512D01*
X145549023Y-111799655D01*
X145695345Y-111945977D01*
X145867402Y-112060941D01*
X146058580Y-112140130D01*
X146261535Y-112180500D01*
X146261538Y-112180500D01*
X146468462Y-112180500D01*
X146468465Y-112180500D01*
X146478337Y-112178536D01*
X146478340Y-112178536D01*
X146553565Y-112163572D01*
X146671420Y-112140130D01*
X146862598Y-112060941D01*
X147034655Y-111945977D01*
X147180977Y-111799655D01*
X147295941Y-111627598D01*
X147375130Y-111436420D01*
X147415500Y-111233465D01*
X147415500Y-111026535D01*
X147414947Y-111023753D01*
X147555000Y-111023753D01*
X147555000Y-111236246D01*
X147588241Y-111446123D01*
X147588242Y-111446126D01*
X147653905Y-111648218D01*
X147750378Y-111837556D01*
X147750380Y-111837560D01*
X147789727Y-111891716D01*
X147789728Y-111891716D01*
X148422036Y-111259407D01*
X148439075Y-111322993D01*
X148504901Y-111437007D01*
X148597993Y-111530099D01*
X148712007Y-111595925D01*
X148775591Y-111612962D01*
X148143281Y-112245271D01*
X148197440Y-112284619D01*
X148197443Y-112284621D01*
X148386781Y-112381094D01*
X148588873Y-112446757D01*
X148588876Y-112446758D01*
X148798754Y-112480000D01*
X149011246Y-112480000D01*
X149221123Y-112446758D01*
X149221126Y-112446757D01*
X149423218Y-112381094D01*
X149612553Y-112284622D01*
X149666717Y-112245271D01*
X149034408Y-111612962D01*
X149097993Y-111595925D01*
X149212007Y-111530099D01*
X149305099Y-111437007D01*
X149370925Y-111322993D01*
X149387962Y-111259408D01*
X150020271Y-111891717D01*
X150059622Y-111837553D01*
X150156094Y-111648218D01*
X150221757Y-111446126D01*
X150221758Y-111446123D01*
X150255000Y-111236246D01*
X150255000Y-111023753D01*
X150221758Y-110813876D01*
X150221757Y-110813873D01*
X150175348Y-110671038D01*
X150171470Y-110659104D01*
X152874500Y-110659104D01*
X152874500Y-110790895D01*
X152908607Y-110918184D01*
X152908608Y-110918188D01*
X152974500Y-111032314D01*
X153067686Y-111125500D01*
X153109457Y-111149617D01*
X153181811Y-111191391D01*
X153181813Y-111191391D01*
X153181814Y-111191392D01*
X153282207Y-111218292D01*
X153309104Y-111225499D01*
X153309105Y-111225500D01*
X153309108Y-111225500D01*
X153440895Y-111225500D01*
X153440895Y-111225499D01*
X153568186Y-111191392D01*
X153682314Y-111125500D01*
X153775500Y-111032314D01*
X153841392Y-110918186D01*
X153875499Y-110790895D01*
X153875500Y-110790895D01*
X153875500Y-110659105D01*
X153875499Y-110659104D01*
X153861751Y-110607796D01*
X153841392Y-110531814D01*
X153841391Y-110531813D01*
X153841391Y-110531811D01*
X153784981Y-110434108D01*
X153775500Y-110417686D01*
X153682314Y-110324500D01*
X153568188Y-110258608D01*
X153568184Y-110258607D01*
X153440895Y-110224500D01*
X153440892Y-110224500D01*
X153309108Y-110224500D01*
X153309105Y-110224500D01*
X153181815Y-110258607D01*
X153181811Y-110258608D01*
X153067685Y-110324500D01*
X153067685Y-110324501D01*
X152974501Y-110417685D01*
X152974500Y-110417685D01*
X152908608Y-110531811D01*
X152908607Y-110531815D01*
X152874500Y-110659104D01*
X150171470Y-110659104D01*
X150156094Y-110611781D01*
X150059621Y-110422443D01*
X150059619Y-110422440D01*
X150020271Y-110368281D01*
X149387962Y-111000590D01*
X149370925Y-110937007D01*
X149305099Y-110822993D01*
X149212007Y-110729901D01*
X149097993Y-110664075D01*
X149034407Y-110647036D01*
X149666716Y-110014728D01*
X149666716Y-110014727D01*
X149612560Y-109975380D01*
X149612556Y-109975378D01*
X149423218Y-109878905D01*
X149221126Y-109813242D01*
X149221123Y-109813241D01*
X149011246Y-109780000D01*
X148798754Y-109780000D01*
X148588876Y-109813241D01*
X148588873Y-109813242D01*
X148386781Y-109878905D01*
X148197447Y-109975376D01*
X148197442Y-109975379D01*
X148143282Y-110014727D01*
X148143282Y-110014728D01*
X148775591Y-110647037D01*
X148712007Y-110664075D01*
X148597993Y-110729901D01*
X148504901Y-110822993D01*
X148439075Y-110937007D01*
X148422037Y-111000591D01*
X147789728Y-110368282D01*
X147789727Y-110368282D01*
X147750379Y-110422442D01*
X147750376Y-110422447D01*
X147653905Y-110611781D01*
X147588242Y-110813873D01*
X147588241Y-110813876D01*
X147555000Y-111023753D01*
X147414947Y-111023753D01*
X147375130Y-110823580D01*
X147295941Y-110632402D01*
X147180977Y-110460345D01*
X147034655Y-110314023D01*
X146862598Y-110199059D01*
X146862596Y-110199058D01*
X146671423Y-110119871D01*
X146671421Y-110119870D01*
X146671420Y-110119870D01*
X146671417Y-110119869D01*
X146671408Y-110119867D01*
X146478335Y-110081462D01*
X146478329Y-110081462D01*
X146468465Y-110079500D01*
X146261535Y-110079500D01*
X146160520Y-110099592D01*
X146058582Y-110119869D01*
X146058576Y-110119871D01*
X145867403Y-110199058D01*
X145695345Y-110314022D01*
X145549020Y-110460347D01*
X145540241Y-110473487D01*
X145509058Y-110494322D01*
X145472276Y-110487004D01*
X145451441Y-110455821D01*
X145450500Y-110446263D01*
X145450500Y-107893978D01*
X154549500Y-107893978D01*
X154549500Y-108006021D01*
X154578496Y-108114235D01*
X154578497Y-108114239D01*
X154628300Y-108200499D01*
X154634515Y-108211263D01*
X154713737Y-108290485D01*
X154749249Y-108310988D01*
X154810760Y-108346502D01*
X154810762Y-108346502D01*
X154810763Y-108346503D01*
X154896111Y-108369371D01*
X154918978Y-108375499D01*
X154918979Y-108375500D01*
X154918982Y-108375500D01*
X155031021Y-108375500D01*
X155031021Y-108375499D01*
X155139237Y-108346503D01*
X155236263Y-108290485D01*
X155315485Y-108211263D01*
X155371503Y-108114237D01*
X155400499Y-108006021D01*
X155400500Y-108006021D01*
X155400500Y-107893979D01*
X155400499Y-107893978D01*
X155389641Y-107853452D01*
X155387102Y-107843978D01*
X158324500Y-107843978D01*
X158324500Y-107956021D01*
X158353496Y-108064235D01*
X158353497Y-108064239D01*
X158409515Y-108161263D01*
X158488737Y-108240485D01*
X158524249Y-108260988D01*
X158585760Y-108296502D01*
X158585762Y-108296502D01*
X158585763Y-108296503D01*
X158671111Y-108319371D01*
X158693978Y-108325499D01*
X158693979Y-108325500D01*
X158693982Y-108325500D01*
X158806021Y-108325500D01*
X158806021Y-108325499D01*
X158914237Y-108296503D01*
X158924661Y-108290485D01*
X158927237Y-108288997D01*
X159011263Y-108240485D01*
X159090485Y-108161263D01*
X159146503Y-108064237D01*
X159175499Y-107956021D01*
X159175500Y-107956021D01*
X159175500Y-107843979D01*
X159175499Y-107843978D01*
X159159900Y-107785762D01*
X159146503Y-107735763D01*
X159146502Y-107735762D01*
X159146502Y-107735760D01*
X159090775Y-107639240D01*
X159090485Y-107638737D01*
X159011263Y-107559515D01*
X159000838Y-107553496D01*
X158914239Y-107503497D01*
X158914235Y-107503496D01*
X158806021Y-107474500D01*
X158806018Y-107474500D01*
X158693982Y-107474500D01*
X158693979Y-107474500D01*
X158585764Y-107503496D01*
X158585760Y-107503497D01*
X158488736Y-107559515D01*
X158488736Y-107559516D01*
X158409516Y-107638736D01*
X158409515Y-107638736D01*
X158353497Y-107735760D01*
X158353496Y-107735764D01*
X158324500Y-107843978D01*
X155387102Y-107843978D01*
X155371503Y-107785764D01*
X155371503Y-107785763D01*
X155371502Y-107785761D01*
X155371502Y-107785760D01*
X155327989Y-107710395D01*
X155315485Y-107688737D01*
X155236263Y-107609515D01*
X155139239Y-107553497D01*
X155139235Y-107553496D01*
X155031021Y-107524500D01*
X155031018Y-107524500D01*
X154918982Y-107524500D01*
X154918979Y-107524500D01*
X154810764Y-107553496D01*
X154810760Y-107553497D01*
X154713736Y-107609515D01*
X154713736Y-107609516D01*
X154634516Y-107688736D01*
X154634515Y-107688736D01*
X154578497Y-107785760D01*
X154578496Y-107785764D01*
X154549500Y-107893978D01*
X145450500Y-107893978D01*
X145450500Y-104809104D01*
X150149500Y-104809104D01*
X150149500Y-104940895D01*
X150183607Y-105068184D01*
X150183608Y-105068188D01*
X150249500Y-105182314D01*
X150342686Y-105275500D01*
X150384457Y-105299617D01*
X150456811Y-105341391D01*
X150456813Y-105341391D01*
X150456814Y-105341392D01*
X150557207Y-105368292D01*
X150584104Y-105375499D01*
X150584105Y-105375500D01*
X150584108Y-105375500D01*
X150715895Y-105375500D01*
X150715895Y-105375499D01*
X150843186Y-105341392D01*
X150957314Y-105275500D01*
X151050500Y-105182314D01*
X151116392Y-105068186D01*
X151150499Y-104940895D01*
X151150500Y-104940895D01*
X151150500Y-104809105D01*
X151150499Y-104809104D01*
X151143292Y-104782207D01*
X151116392Y-104681814D01*
X151116391Y-104681813D01*
X151116391Y-104681811D01*
X151069871Y-104601238D01*
X151050500Y-104567686D01*
X150957314Y-104474500D01*
X150950320Y-104470462D01*
X150843188Y-104408608D01*
X150843184Y-104408607D01*
X150715895Y-104374500D01*
X150715892Y-104374500D01*
X150584108Y-104374500D01*
X150584105Y-104374500D01*
X150456815Y-104408607D01*
X150456811Y-104408608D01*
X150342685Y-104474500D01*
X150342685Y-104474501D01*
X150249501Y-104567685D01*
X150249500Y-104567685D01*
X150183608Y-104681811D01*
X150183607Y-104681815D01*
X150149500Y-104809104D01*
X145450500Y-104809104D01*
X145450500Y-100068296D01*
X145464852Y-100033648D01*
X146740459Y-98758041D01*
X146740460Y-98758040D01*
X146780021Y-98689518D01*
X146800500Y-98613091D01*
X146800500Y-98044767D01*
X146814852Y-98010119D01*
X147338526Y-97486445D01*
X147338527Y-97486444D01*
X147378088Y-97417922D01*
X147392306Y-97364856D01*
X147404988Y-97342893D01*
X147438552Y-97309330D01*
X147490235Y-97219811D01*
X147494569Y-97212306D01*
X147494569Y-97212305D01*
X147494570Y-97212304D01*
X147523566Y-97104088D01*
X147523567Y-97104088D01*
X147523567Y-96992046D01*
X147523566Y-96992045D01*
X147494570Y-96883831D01*
X147494569Y-96883827D01*
X147438551Y-96786803D01*
X147359330Y-96707582D01*
X147262306Y-96651564D01*
X147262302Y-96651563D01*
X147154088Y-96622567D01*
X147154085Y-96622567D01*
X147042049Y-96622567D01*
X147042046Y-96622567D01*
X146933831Y-96651563D01*
X146933827Y-96651564D01*
X146836803Y-96707582D01*
X146836803Y-96707583D01*
X146757583Y-96786803D01*
X146757582Y-96786803D01*
X146701564Y-96883827D01*
X146701563Y-96883831D01*
X146672567Y-96992045D01*
X146672567Y-97104088D01*
X146701563Y-97212302D01*
X146701564Y-97212306D01*
X146705150Y-97218516D01*
X146710045Y-97255699D01*
X146697363Y-97277664D01*
X146315489Y-97659540D01*
X146259541Y-97715488D01*
X146259540Y-97715488D01*
X146219979Y-97784008D01*
X146219979Y-97784010D01*
X146199500Y-97860436D01*
X146199500Y-98428762D01*
X146185148Y-98463410D01*
X144909541Y-99739017D01*
X144909540Y-99739017D01*
X144869979Y-99807537D01*
X144869979Y-99807539D01*
X144849500Y-99883965D01*
X144849500Y-110611933D01*
X144835148Y-110646581D01*
X144800500Y-110660933D01*
X144765852Y-110646581D01*
X144757604Y-110634247D01*
X144757078Y-110634529D01*
X144755943Y-110632406D01*
X144755941Y-110632403D01*
X144755941Y-110632402D01*
X144640977Y-110460345D01*
X144494655Y-110314023D01*
X144322598Y-110199059D01*
X144322596Y-110199058D01*
X144131423Y-110119871D01*
X144131417Y-110119869D01*
X144049572Y-110103589D01*
X143928465Y-110079500D01*
X143721535Y-110079500D01*
X143620520Y-110099592D01*
X143518582Y-110119869D01*
X143518576Y-110119871D01*
X143327403Y-110199058D01*
X143155345Y-110314022D01*
X143009022Y-110460345D01*
X142894058Y-110632403D01*
X142814871Y-110823576D01*
X142814869Y-110823582D01*
X142811166Y-110842200D01*
X142774500Y-111026535D01*
X142335500Y-111026535D01*
X142295130Y-110823580D01*
X142215941Y-110632402D01*
X142100977Y-110460345D01*
X141954655Y-110314023D01*
X141782598Y-110199059D01*
X141782596Y-110199058D01*
X141591423Y-110119871D01*
X141591417Y-110119869D01*
X141509572Y-110103589D01*
X141388465Y-110079500D01*
X141181535Y-110079500D01*
X141080520Y-110099592D01*
X140978582Y-110119869D01*
X140978576Y-110119871D01*
X140787403Y-110199058D01*
X140615345Y-110314022D01*
X140469022Y-110460345D01*
X140354058Y-110632403D01*
X140274871Y-110823576D01*
X140274869Y-110823582D01*
X140271166Y-110842200D01*
X140234500Y-111026535D01*
X139795500Y-111026535D01*
X139755130Y-110823580D01*
X139675941Y-110632402D01*
X139560977Y-110460345D01*
X139414655Y-110314023D01*
X139242598Y-110199059D01*
X139242596Y-110199058D01*
X139051423Y-110119871D01*
X139051417Y-110119869D01*
X138969572Y-110103589D01*
X138848465Y-110079500D01*
X138641535Y-110079500D01*
X138540520Y-110099592D01*
X138438582Y-110119869D01*
X138438576Y-110119871D01*
X138247403Y-110199058D01*
X138075345Y-110314022D01*
X137929022Y-110460345D01*
X137814058Y-110632403D01*
X137734871Y-110823576D01*
X137734869Y-110823582D01*
X137731166Y-110842200D01*
X137694500Y-111026535D01*
X137255500Y-111026535D01*
X137215130Y-110823580D01*
X137135941Y-110632402D01*
X137020977Y-110460345D01*
X136874655Y-110314023D01*
X136702598Y-110199059D01*
X136702596Y-110199058D01*
X136511423Y-110119871D01*
X136511417Y-110119869D01*
X136429572Y-110103589D01*
X136308465Y-110079500D01*
X136101535Y-110079500D01*
X136000520Y-110099592D01*
X135898582Y-110119869D01*
X135898576Y-110119871D01*
X135707403Y-110199058D01*
X135535345Y-110314022D01*
X135389022Y-110460345D01*
X135274058Y-110632403D01*
X135194871Y-110823576D01*
X135194869Y-110823582D01*
X135191166Y-110842200D01*
X135154500Y-111026535D01*
X134715500Y-111026535D01*
X134675130Y-110823580D01*
X134595941Y-110632402D01*
X134480977Y-110460345D01*
X134334655Y-110314023D01*
X134162598Y-110199059D01*
X134162596Y-110199058D01*
X133971423Y-110119871D01*
X133971417Y-110119869D01*
X133889572Y-110103589D01*
X133768465Y-110079500D01*
X133561535Y-110079500D01*
X133460520Y-110099592D01*
X133358582Y-110119869D01*
X133358576Y-110119871D01*
X133167403Y-110199058D01*
X132995345Y-110314022D01*
X132849022Y-110460345D01*
X132734058Y-110632403D01*
X132654871Y-110823576D01*
X132654869Y-110823582D01*
X132651166Y-110842200D01*
X132614500Y-111026535D01*
X132175500Y-111026535D01*
X132175500Y-110260252D01*
X132163867Y-110201769D01*
X132137301Y-110162012D01*
X132119552Y-110135447D01*
X132079795Y-110108882D01*
X132053231Y-110091133D01*
X131994748Y-110079500D01*
X130255252Y-110079500D01*
X130196769Y-110091133D01*
X130130447Y-110135447D01*
X130087944Y-110199058D01*
X130086133Y-110201769D01*
X130074500Y-110260252D01*
X114750500Y-110260252D01*
X114750500Y-105643978D01*
X121924500Y-105643978D01*
X121924500Y-105756021D01*
X121953496Y-105864235D01*
X121953497Y-105864239D01*
X122009515Y-105961263D01*
X122011471Y-105963812D01*
X122010753Y-105964362D01*
X122023789Y-105995833D01*
X122010753Y-106027303D01*
X122011471Y-106027854D01*
X122009515Y-106030402D01*
X121953497Y-106127426D01*
X121953496Y-106127430D01*
X121924500Y-106235644D01*
X121924500Y-106347687D01*
X121953496Y-106455901D01*
X121953497Y-106455905D01*
X122009515Y-106552929D01*
X122011471Y-106555478D01*
X122010753Y-106556028D01*
X122023789Y-106587499D01*
X122010753Y-106618969D01*
X122011471Y-106619520D01*
X122009515Y-106622068D01*
X121953497Y-106719092D01*
X121953496Y-106719096D01*
X121924500Y-106827310D01*
X121924500Y-106939353D01*
X121953496Y-107047567D01*
X121953497Y-107047571D01*
X122009515Y-107144595D01*
X122011471Y-107147144D01*
X122010753Y-107147694D01*
X122023790Y-107179166D01*
X122010753Y-107210637D01*
X122011471Y-107211188D01*
X122009515Y-107213736D01*
X121953497Y-107310760D01*
X121953496Y-107310764D01*
X121924500Y-107418978D01*
X121924500Y-107531021D01*
X121953496Y-107639235D01*
X121953497Y-107639239D01*
X121994580Y-107710395D01*
X122009515Y-107736263D01*
X122088737Y-107815485D01*
X122124249Y-107835988D01*
X122185760Y-107871502D01*
X122185762Y-107871502D01*
X122185763Y-107871503D01*
X122266678Y-107893184D01*
X122293978Y-107900499D01*
X122293979Y-107900500D01*
X122293982Y-107900500D01*
X122406021Y-107900500D01*
X122406021Y-107900499D01*
X122514237Y-107871503D01*
X122611263Y-107815485D01*
X122690485Y-107736263D01*
X122695064Y-107728330D01*
X122724817Y-107705501D01*
X122762000Y-107710395D01*
X122779934Y-107728329D01*
X122784515Y-107736263D01*
X122863737Y-107815485D01*
X122899249Y-107835988D01*
X122960760Y-107871502D01*
X122960762Y-107871502D01*
X122960763Y-107871503D01*
X123041678Y-107893184D01*
X123068978Y-107900499D01*
X123068979Y-107900500D01*
X123068982Y-107900500D01*
X123181021Y-107900500D01*
X123181021Y-107900499D01*
X123289237Y-107871503D01*
X123386263Y-107815485D01*
X123465485Y-107736263D01*
X123521503Y-107639237D01*
X123522878Y-107634104D01*
X125824500Y-107634104D01*
X125824500Y-107765895D01*
X125858607Y-107893184D01*
X125858608Y-107893188D01*
X125923752Y-108006018D01*
X125924500Y-108007314D01*
X126017686Y-108100500D01*
X126041476Y-108114235D01*
X126131811Y-108166391D01*
X126131813Y-108166391D01*
X126131814Y-108166392D01*
X126232207Y-108193292D01*
X126259104Y-108200499D01*
X126259105Y-108200500D01*
X126259108Y-108200500D01*
X126390895Y-108200500D01*
X126390895Y-108200499D01*
X126518186Y-108166392D01*
X126632314Y-108100500D01*
X126725500Y-108007314D01*
X126787170Y-107900499D01*
X126791391Y-107893188D01*
X126791391Y-107893187D01*
X126791392Y-107893186D01*
X126825499Y-107765895D01*
X126825500Y-107765895D01*
X126825500Y-107634105D01*
X126825499Y-107634104D01*
X126805513Y-107559515D01*
X126791392Y-107506814D01*
X126791391Y-107506813D01*
X126791391Y-107506811D01*
X126725499Y-107392685D01*
X126632314Y-107299500D01*
X126518188Y-107233608D01*
X126518184Y-107233607D01*
X126390895Y-107199500D01*
X126390892Y-107199500D01*
X126259108Y-107199500D01*
X126259105Y-107199500D01*
X126131815Y-107233607D01*
X126131811Y-107233608D01*
X126017685Y-107299500D01*
X126017685Y-107299501D01*
X125924501Y-107392685D01*
X125924500Y-107392685D01*
X125858608Y-107506811D01*
X125858607Y-107506815D01*
X125824500Y-107634104D01*
X123522878Y-107634104D01*
X123544477Y-107553496D01*
X123550500Y-107531020D01*
X123550500Y-107418979D01*
X123550499Y-107418978D01*
X123521503Y-107310764D01*
X123521502Y-107310760D01*
X123485988Y-107249249D01*
X123465485Y-107213737D01*
X123465484Y-107213736D01*
X123463529Y-107211188D01*
X123464246Y-107210637D01*
X123451210Y-107179166D01*
X123464246Y-107147694D01*
X123463529Y-107147144D01*
X123465480Y-107144599D01*
X123465485Y-107144595D01*
X123521503Y-107047569D01*
X123550499Y-106939353D01*
X123550500Y-106939353D01*
X123550500Y-106827311D01*
X123550499Y-106827310D01*
X123521503Y-106719096D01*
X123521502Y-106719092D01*
X123465484Y-106622068D01*
X123463529Y-106619520D01*
X123464246Y-106618969D01*
X123451211Y-106587499D01*
X123464246Y-106556028D01*
X123463529Y-106555478D01*
X123465480Y-106552933D01*
X123465485Y-106552929D01*
X123521503Y-106455903D01*
X123550499Y-106347687D01*
X123550500Y-106347687D01*
X123550500Y-106235645D01*
X123550499Y-106235644D01*
X123521503Y-106127430D01*
X123521502Y-106127426D01*
X123465484Y-106030402D01*
X123463529Y-106027854D01*
X123464246Y-106027303D01*
X123451211Y-105995833D01*
X123464246Y-105964362D01*
X123463529Y-105963812D01*
X123465480Y-105961267D01*
X123465485Y-105961263D01*
X123521503Y-105864237D01*
X123550499Y-105756021D01*
X123550500Y-105756021D01*
X123550500Y-105643979D01*
X123550499Y-105643978D01*
X123521503Y-105535764D01*
X123521502Y-105535760D01*
X123465484Y-105438736D01*
X123386263Y-105359515D01*
X123289239Y-105303497D01*
X123289235Y-105303496D01*
X123181021Y-105274500D01*
X123181018Y-105274500D01*
X123169213Y-105274500D01*
X123134565Y-105260148D01*
X123120213Y-105225500D01*
X123121883Y-105212818D01*
X123150500Y-105106020D01*
X123150500Y-104993979D01*
X123150499Y-104993978D01*
X123121503Y-104885764D01*
X123121502Y-104885760D01*
X123068474Y-104793914D01*
X123065485Y-104788737D01*
X122986263Y-104709515D01*
X122889239Y-104653497D01*
X122889235Y-104653496D01*
X122781021Y-104624500D01*
X122781018Y-104624500D01*
X122668982Y-104624500D01*
X122668979Y-104624500D01*
X122560764Y-104653496D01*
X122560760Y-104653497D01*
X122463736Y-104709515D01*
X122463736Y-104709516D01*
X122384516Y-104788736D01*
X122384515Y-104788736D01*
X122328497Y-104885760D01*
X122328496Y-104885764D01*
X122299500Y-104993978D01*
X122299500Y-105106021D01*
X122328568Y-105214503D01*
X122323673Y-105251685D01*
X122293921Y-105274515D01*
X122185762Y-105303497D01*
X122185760Y-105303497D01*
X122088736Y-105359515D01*
X122088736Y-105359516D01*
X122009516Y-105438736D01*
X122009515Y-105438736D01*
X121953497Y-105535760D01*
X121953496Y-105535764D01*
X121924500Y-105643978D01*
X114750500Y-105643978D01*
X114750500Y-103455000D01*
X116224951Y-103455000D01*
X117055025Y-103455000D01*
X117019930Y-103490095D01*
X116973852Y-103569905D01*
X116950000Y-103658922D01*
X116950000Y-103751078D01*
X116973852Y-103840095D01*
X117019930Y-103919905D01*
X117055025Y-103955000D01*
X116224951Y-103955000D01*
X116228934Y-103980151D01*
X116228935Y-103980153D01*
X116286085Y-104156044D01*
X116370048Y-104320831D01*
X116478761Y-104470462D01*
X116478765Y-104470467D01*
X116609533Y-104601235D01*
X116609537Y-104601238D01*
X116759168Y-104709951D01*
X116923955Y-104793914D01*
X117099853Y-104851066D01*
X117099856Y-104851067D01*
X117282527Y-104880000D01*
X117300000Y-104880000D01*
X117300000Y-104055000D01*
X117800000Y-104055000D01*
X117800000Y-104880000D01*
X117817473Y-104880000D01*
X118000143Y-104851067D01*
X118000146Y-104851066D01*
X118176044Y-104793914D01*
X118340831Y-104709951D01*
X118490462Y-104601238D01*
X118490467Y-104601235D01*
X118621235Y-104470467D01*
X118621238Y-104470462D01*
X118729951Y-104320831D01*
X118813914Y-104156044D01*
X118871064Y-103980153D01*
X118871065Y-103980151D01*
X118875049Y-103955000D01*
X118044975Y-103955000D01*
X118080070Y-103919905D01*
X118126148Y-103840095D01*
X118150000Y-103751078D01*
X118150000Y-103658922D01*
X118126148Y-103569905D01*
X118080070Y-103490095D01*
X118044975Y-103455000D01*
X118875049Y-103455000D01*
X118871065Y-103429848D01*
X118871064Y-103429846D01*
X118813915Y-103253958D01*
X118776444Y-103180417D01*
X118776443Y-103180415D01*
X118758398Y-103145000D01*
X119329157Y-103145000D01*
X120140382Y-103145000D01*
X120089936Y-103195446D01*
X120047149Y-103269555D01*
X120025000Y-103352213D01*
X120025000Y-103437787D01*
X120047149Y-103520445D01*
X120089936Y-103594554D01*
X120140382Y-103645000D01*
X119329157Y-103645000D01*
X119340349Y-103701271D01*
X119340351Y-103701277D01*
X119419500Y-103892358D01*
X119534410Y-104064335D01*
X119680664Y-104210589D01*
X119852641Y-104325499D01*
X120043722Y-104404648D01*
X120043728Y-104404650D01*
X120246587Y-104445000D01*
X120300000Y-104445000D01*
X120300000Y-103718067D01*
X120307213Y-103720000D01*
X120792787Y-103720000D01*
X120800000Y-103718067D01*
X120800000Y-104445000D01*
X120853413Y-104445000D01*
X121056271Y-104404650D01*
X121056277Y-104404648D01*
X121247358Y-104325499D01*
X121419335Y-104210589D01*
X121565589Y-104064335D01*
X121680499Y-103892358D01*
X121759648Y-103701277D01*
X121759650Y-103701271D01*
X121770843Y-103645000D01*
X120959618Y-103645000D01*
X121010064Y-103594554D01*
X121052851Y-103520445D01*
X121075000Y-103437787D01*
X121075000Y-103352213D01*
X121052851Y-103269555D01*
X121010064Y-103195446D01*
X120959618Y-103145000D01*
X121770842Y-103145000D01*
X121759650Y-103088728D01*
X121759648Y-103088722D01*
X121680499Y-102897641D01*
X121565589Y-102725664D01*
X121419335Y-102579410D01*
X121247358Y-102464500D01*
X121056277Y-102385351D01*
X121056271Y-102385349D01*
X120853413Y-102345000D01*
X120800000Y-102345000D01*
X120800000Y-103071932D01*
X120792787Y-103070000D01*
X120307213Y-103070000D01*
X120300000Y-103071932D01*
X120300000Y-102345000D01*
X120246587Y-102345000D01*
X120043728Y-102385349D01*
X120043722Y-102385351D01*
X119852641Y-102464500D01*
X119680664Y-102579410D01*
X119534410Y-102725664D01*
X119419500Y-102897641D01*
X119340351Y-103088722D01*
X119340349Y-103088728D01*
X119329157Y-103145000D01*
X118758398Y-103145000D01*
X118729951Y-103089168D01*
X118621238Y-102939537D01*
X118621235Y-102939533D01*
X118490467Y-102808765D01*
X118490462Y-102808761D01*
X118340831Y-102700048D01*
X118176044Y-102616085D01*
X118000146Y-102558933D01*
X118000143Y-102558932D01*
X117817473Y-102530000D01*
X117800000Y-102530000D01*
X117800000Y-103355000D01*
X117300000Y-103355000D01*
X117300000Y-102530000D01*
X117282527Y-102530000D01*
X117099856Y-102558932D01*
X117099853Y-102558933D01*
X116923955Y-102616085D01*
X116759168Y-102700048D01*
X116609537Y-102808761D01*
X116478761Y-102939537D01*
X116370048Y-103089168D01*
X116286085Y-103253955D01*
X116228935Y-103429846D01*
X116228934Y-103429848D01*
X116224951Y-103455000D01*
X114750500Y-103455000D01*
X114750500Y-97995000D01*
X116224951Y-97995000D01*
X117055025Y-97995000D01*
X117019930Y-98030095D01*
X116973852Y-98109905D01*
X116950000Y-98198922D01*
X116950000Y-98291078D01*
X116973852Y-98380095D01*
X117019930Y-98459905D01*
X117055025Y-98495000D01*
X116224951Y-98495000D01*
X116228934Y-98520151D01*
X116228935Y-98520153D01*
X116286085Y-98696044D01*
X116370048Y-98860831D01*
X116478761Y-99010462D01*
X116478765Y-99010467D01*
X116609533Y-99141235D01*
X116609537Y-99141238D01*
X116759168Y-99249951D01*
X116923955Y-99333914D01*
X117099853Y-99391066D01*
X117099856Y-99391067D01*
X117282527Y-99420000D01*
X117300000Y-99420000D01*
X117300000Y-98595000D01*
X117800000Y-98595000D01*
X117800000Y-99420000D01*
X117817473Y-99420000D01*
X118000143Y-99391067D01*
X118000146Y-99391066D01*
X118176044Y-99333914D01*
X118340831Y-99249951D01*
X118490462Y-99141238D01*
X118490467Y-99141235D01*
X118621235Y-99010467D01*
X118621238Y-99010462D01*
X118729951Y-98860831D01*
X118776444Y-98769584D01*
X118776444Y-98769583D01*
X118813915Y-98696041D01*
X118871064Y-98520153D01*
X118871065Y-98520151D01*
X118875049Y-98495000D01*
X118044975Y-98495000D01*
X118080070Y-98459905D01*
X118126148Y-98380095D01*
X118146270Y-98305000D01*
X119329157Y-98305000D01*
X120140382Y-98305000D01*
X120089936Y-98355446D01*
X120047149Y-98429555D01*
X120025000Y-98512213D01*
X120025000Y-98597787D01*
X120047149Y-98680445D01*
X120089936Y-98754554D01*
X120140382Y-98805000D01*
X119329157Y-98805000D01*
X119340349Y-98861271D01*
X119340351Y-98861277D01*
X119419500Y-99052358D01*
X119534410Y-99224335D01*
X119680664Y-99370589D01*
X119852641Y-99485499D01*
X120043722Y-99564648D01*
X120043728Y-99564650D01*
X120246587Y-99605000D01*
X120300000Y-99605000D01*
X120300000Y-98878067D01*
X120307213Y-98880000D01*
X120792787Y-98880000D01*
X120800000Y-98878067D01*
X120800000Y-99605000D01*
X120853413Y-99605000D01*
X121056271Y-99564650D01*
X121056277Y-99564648D01*
X121247358Y-99485499D01*
X121419335Y-99370589D01*
X121565589Y-99224335D01*
X121680499Y-99052358D01*
X121759648Y-98861277D01*
X121759650Y-98861271D01*
X121770843Y-98805000D01*
X120959618Y-98805000D01*
X121010064Y-98754554D01*
X121052851Y-98680445D01*
X121075000Y-98597787D01*
X121075000Y-98512213D01*
X121052851Y-98429555D01*
X121010064Y-98355446D01*
X120959618Y-98305000D01*
X121770842Y-98305000D01*
X121759650Y-98248728D01*
X121759648Y-98248722D01*
X121680499Y-98057641D01*
X121565589Y-97885664D01*
X121419335Y-97739410D01*
X121247358Y-97624500D01*
X121056277Y-97545351D01*
X121056271Y-97545349D01*
X120853413Y-97505000D01*
X120800000Y-97505000D01*
X120800000Y-98231932D01*
X120792787Y-98230000D01*
X120307213Y-98230000D01*
X120300000Y-98231932D01*
X120300000Y-97505000D01*
X120246587Y-97505000D01*
X120043728Y-97545349D01*
X120043722Y-97545351D01*
X119852641Y-97624500D01*
X119680664Y-97739410D01*
X119534410Y-97885664D01*
X119419500Y-98057641D01*
X119340351Y-98248722D01*
X119340349Y-98248728D01*
X119329157Y-98305000D01*
X118146270Y-98305000D01*
X118150000Y-98291078D01*
X118150000Y-98198922D01*
X118126148Y-98109905D01*
X118080070Y-98030095D01*
X118044975Y-97995000D01*
X118875049Y-97995000D01*
X118871065Y-97969848D01*
X118871064Y-97969846D01*
X118813914Y-97793955D01*
X118729951Y-97629168D01*
X118621238Y-97479537D01*
X118621235Y-97479533D01*
X118490467Y-97348765D01*
X118490462Y-97348761D01*
X118340831Y-97240048D01*
X118176044Y-97156085D01*
X118000146Y-97098933D01*
X118000143Y-97098932D01*
X117817473Y-97070000D01*
X117800000Y-97070000D01*
X117800000Y-97895000D01*
X117300000Y-97895000D01*
X117300000Y-97070000D01*
X117282527Y-97070000D01*
X117099856Y-97098932D01*
X117099853Y-97098933D01*
X116923955Y-97156085D01*
X116759168Y-97240048D01*
X116609537Y-97348761D01*
X116478761Y-97479537D01*
X116370048Y-97629168D01*
X116286085Y-97793955D01*
X116228935Y-97969846D01*
X116228934Y-97969848D01*
X116224951Y-97995000D01*
X114750500Y-97995000D01*
X114750500Y-94284104D01*
X125049500Y-94284104D01*
X125049500Y-94415895D01*
X125083607Y-94543184D01*
X125083608Y-94543188D01*
X125144989Y-94649501D01*
X125149500Y-94657314D01*
X125242686Y-94750500D01*
X125284457Y-94774617D01*
X125356811Y-94816391D01*
X125356813Y-94816391D01*
X125356814Y-94816392D01*
X125457207Y-94843292D01*
X125484104Y-94850499D01*
X125484105Y-94850500D01*
X125484108Y-94850500D01*
X125615895Y-94850500D01*
X125615895Y-94850499D01*
X125640232Y-94843978D01*
X135749500Y-94843978D01*
X135749500Y-94956021D01*
X135778496Y-95064235D01*
X135778497Y-95064239D01*
X135834515Y-95161263D01*
X135913737Y-95240485D01*
X135918419Y-95243188D01*
X136010760Y-95296502D01*
X136010762Y-95296502D01*
X136010763Y-95296503D01*
X136096111Y-95319371D01*
X136118978Y-95325499D01*
X136118979Y-95325500D01*
X136118982Y-95325500D01*
X136155233Y-95325500D01*
X136189881Y-95339852D01*
X137085148Y-96235119D01*
X137099500Y-96269767D01*
X137099500Y-104789563D01*
X137119979Y-104865989D01*
X137119979Y-104865991D01*
X137150572Y-104918978D01*
X137155623Y-104927727D01*
X137159540Y-104934511D01*
X137185148Y-104960119D01*
X137199500Y-104994766D01*
X137199500Y-105031021D01*
X137228496Y-105139235D01*
X137228497Y-105139239D01*
X137270979Y-105212818D01*
X137284515Y-105236263D01*
X137363737Y-105315485D01*
X137399249Y-105335988D01*
X137460760Y-105371502D01*
X137460762Y-105371502D01*
X137460763Y-105371503D01*
X137546111Y-105394371D01*
X137568978Y-105400499D01*
X137568979Y-105400500D01*
X137568982Y-105400500D01*
X137681021Y-105400500D01*
X137681021Y-105400499D01*
X137789237Y-105371503D01*
X137886263Y-105315485D01*
X137965485Y-105236263D01*
X138021503Y-105139237D01*
X138050499Y-105031021D01*
X138050500Y-105031021D01*
X138050500Y-104918979D01*
X138050499Y-104918978D01*
X138021503Y-104810764D01*
X138021502Y-104810760D01*
X137965484Y-104713736D01*
X137886263Y-104634515D01*
X137789239Y-104578497D01*
X137789235Y-104578496D01*
X137736818Y-104564451D01*
X137707065Y-104541621D01*
X137700500Y-104517121D01*
X137700500Y-102246604D01*
X140899500Y-102246604D01*
X140899500Y-102378395D01*
X140933607Y-102505684D01*
X140933608Y-102505688D01*
X140989106Y-102601811D01*
X140999500Y-102619814D01*
X141092686Y-102713000D01*
X141114621Y-102725664D01*
X141206811Y-102778891D01*
X141206813Y-102778891D01*
X141206814Y-102778892D01*
X141307207Y-102805792D01*
X141334104Y-102812999D01*
X141334105Y-102813000D01*
X141334108Y-102813000D01*
X141465895Y-102813000D01*
X141465895Y-102812999D01*
X141593186Y-102778892D01*
X141707314Y-102713000D01*
X141800500Y-102619814D01*
X141866392Y-102505686D01*
X141900499Y-102378395D01*
X141900500Y-102378395D01*
X141900500Y-102246605D01*
X141900499Y-102246604D01*
X141866392Y-102119315D01*
X141866391Y-102119311D01*
X141824354Y-102046502D01*
X141800500Y-102005186D01*
X141707314Y-101912000D01*
X141706039Y-101911264D01*
X141593188Y-101846108D01*
X141593184Y-101846107D01*
X141465895Y-101812000D01*
X141465892Y-101812000D01*
X141334108Y-101812000D01*
X141334105Y-101812000D01*
X141206815Y-101846107D01*
X141206811Y-101846108D01*
X141092685Y-101912000D01*
X141092685Y-101912001D01*
X140999501Y-102005185D01*
X140999500Y-102005185D01*
X140933608Y-102119311D01*
X140933607Y-102119315D01*
X140899500Y-102246604D01*
X137700500Y-102246604D01*
X137700500Y-101231267D01*
X137714852Y-101196619D01*
X137749500Y-101182267D01*
X137784148Y-101196619D01*
X137885148Y-101297619D01*
X137899500Y-101332267D01*
X137899500Y-101368521D01*
X137928496Y-101476735D01*
X137928497Y-101476739D01*
X137967397Y-101544114D01*
X137984515Y-101573763D01*
X138063737Y-101652985D01*
X138079736Y-101662222D01*
X138160760Y-101709002D01*
X138160762Y-101709002D01*
X138160763Y-101709003D01*
X138223772Y-101725886D01*
X138268978Y-101737999D01*
X138268979Y-101738000D01*
X138268982Y-101738000D01*
X138381021Y-101738000D01*
X138381021Y-101737999D01*
X138489237Y-101709003D01*
X138586263Y-101652985D01*
X138665485Y-101573763D01*
X138721503Y-101476737D01*
X138750499Y-101368521D01*
X138750500Y-101368521D01*
X138750500Y-101256479D01*
X138750499Y-101256478D01*
X138721503Y-101148264D01*
X138721502Y-101148260D01*
X138665484Y-101051236D01*
X138586263Y-100972015D01*
X138489239Y-100915997D01*
X138489235Y-100915996D01*
X138381021Y-100887000D01*
X138381018Y-100887000D01*
X138344767Y-100887000D01*
X138310119Y-100872648D01*
X138189852Y-100752381D01*
X138175500Y-100717733D01*
X138175500Y-100193767D01*
X138189852Y-100159119D01*
X138224500Y-100144767D01*
X138259148Y-100159119D01*
X138385148Y-100285119D01*
X138399500Y-100319767D01*
X138399500Y-100356021D01*
X138428496Y-100464235D01*
X138428497Y-100464239D01*
X138455647Y-100511263D01*
X138484515Y-100561263D01*
X138563737Y-100640485D01*
X138580197Y-100649988D01*
X138660760Y-100696502D01*
X138660762Y-100696502D01*
X138660763Y-100696503D01*
X138704824Y-100708309D01*
X138768978Y-100725499D01*
X138768979Y-100725500D01*
X138768982Y-100725500D01*
X138881021Y-100725500D01*
X138881021Y-100725499D01*
X138989237Y-100696503D01*
X139086263Y-100640485D01*
X139165485Y-100561263D01*
X139221503Y-100464237D01*
X139250499Y-100356021D01*
X139250500Y-100356021D01*
X139250500Y-100243979D01*
X139250499Y-100243978D01*
X139237103Y-100193982D01*
X139221503Y-100135763D01*
X139221502Y-100135762D01*
X139221502Y-100135760D01*
X139178194Y-100060750D01*
X139165485Y-100038737D01*
X139086263Y-99959515D01*
X139042640Y-99934329D01*
X138989239Y-99903497D01*
X138989235Y-99903496D01*
X138881021Y-99874500D01*
X138881018Y-99874500D01*
X138844767Y-99874500D01*
X138810119Y-99860148D01*
X138639852Y-99689881D01*
X138625500Y-99655233D01*
X138625500Y-94984104D01*
X144999500Y-94984104D01*
X144999500Y-95115895D01*
X145033607Y-95243184D01*
X145033608Y-95243188D01*
X145081132Y-95325500D01*
X145099500Y-95357314D01*
X145192686Y-95450500D01*
X145234457Y-95474617D01*
X145306811Y-95516391D01*
X145306813Y-95516391D01*
X145306814Y-95516392D01*
X145407207Y-95543292D01*
X145434104Y-95550499D01*
X145434105Y-95550500D01*
X145434108Y-95550500D01*
X145565895Y-95550500D01*
X145565895Y-95550499D01*
X145693186Y-95516392D01*
X145807314Y-95450500D01*
X145900500Y-95357314D01*
X145966392Y-95243186D01*
X146000499Y-95115895D01*
X146000500Y-95115895D01*
X146000500Y-94984105D01*
X146000499Y-94984104D01*
X145966392Y-94856815D01*
X145966391Y-94856811D01*
X145900499Y-94742685D01*
X145807314Y-94649500D01*
X145693188Y-94583608D01*
X145693184Y-94583607D01*
X145565895Y-94549500D01*
X145565892Y-94549500D01*
X145434108Y-94549500D01*
X145434105Y-94549500D01*
X145306815Y-94583607D01*
X145306811Y-94583608D01*
X145192685Y-94649500D01*
X145192685Y-94649501D01*
X145099501Y-94742685D01*
X145099500Y-94742685D01*
X145033608Y-94856811D01*
X145033607Y-94856815D01*
X144999500Y-94984104D01*
X138625500Y-94984104D01*
X138625500Y-93041112D01*
X138639851Y-93006465D01*
X140072299Y-91574017D01*
X140106944Y-91559667D01*
X140141592Y-91574019D01*
X140146586Y-91579865D01*
X140169728Y-91611716D01*
X140802036Y-90979407D01*
X140819075Y-91042993D01*
X140884901Y-91157007D01*
X140977993Y-91250099D01*
X141092007Y-91315925D01*
X141155591Y-91332962D01*
X140523281Y-91965271D01*
X140577440Y-92004619D01*
X140577443Y-92004621D01*
X140766781Y-92101094D01*
X140968873Y-92166757D01*
X140968876Y-92166758D01*
X141178754Y-92200000D01*
X141391246Y-92200000D01*
X141601123Y-92166758D01*
X141601126Y-92166757D01*
X141803218Y-92101094D01*
X141992553Y-92004622D01*
X142046717Y-91965271D01*
X141414408Y-91332962D01*
X141477993Y-91315925D01*
X141592007Y-91250099D01*
X141685099Y-91157007D01*
X141750925Y-91042993D01*
X141767962Y-90979408D01*
X142400271Y-91611717D01*
X142439622Y-91557553D01*
X142536094Y-91368218D01*
X142601757Y-91166126D01*
X142601758Y-91166123D01*
X142635000Y-90956246D01*
X142635000Y-90746535D01*
X142774500Y-90746535D01*
X142774500Y-90953465D01*
X142790085Y-91031815D01*
X142814869Y-91156417D01*
X142814871Y-91156423D01*
X142889217Y-91335908D01*
X142894059Y-91347598D01*
X142937314Y-91412334D01*
X142996748Y-91501285D01*
X143009023Y-91519655D01*
X143155345Y-91665977D01*
X143327402Y-91780941D01*
X143518580Y-91860130D01*
X143721535Y-91900500D01*
X143721538Y-91900500D01*
X143928462Y-91900500D01*
X143928465Y-91900500D01*
X144131420Y-91860130D01*
X144322598Y-91780941D01*
X144414074Y-91719818D01*
X144450853Y-91712502D01*
X144475942Y-91725913D01*
X148960148Y-96210119D01*
X148974500Y-96244767D01*
X148974500Y-96256021D01*
X149003496Y-96364235D01*
X149003497Y-96364239D01*
X149059515Y-96461263D01*
X149138737Y-96540485D01*
X149174249Y-96560988D01*
X149235760Y-96596502D01*
X149235762Y-96596502D01*
X149235763Y-96596503D01*
X149321111Y-96619371D01*
X149343978Y-96625499D01*
X149343979Y-96625500D01*
X149343982Y-96625500D01*
X149456021Y-96625500D01*
X149456021Y-96625499D01*
X149564237Y-96596503D01*
X149661263Y-96540485D01*
X149740485Y-96461263D01*
X149796503Y-96364237D01*
X149825499Y-96256021D01*
X149825500Y-96256021D01*
X149825500Y-96143979D01*
X149825499Y-96143978D01*
X149796503Y-96035764D01*
X149796502Y-96035760D01*
X149740484Y-95938736D01*
X149661263Y-95859515D01*
X149564239Y-95803497D01*
X149564235Y-95803496D01*
X149456021Y-95774500D01*
X149456018Y-95774500D01*
X149394767Y-95774500D01*
X149360119Y-95760148D01*
X146452251Y-92852280D01*
X146437899Y-92817632D01*
X146452251Y-92782984D01*
X146486899Y-92768632D01*
X146499582Y-92770302D01*
X146518980Y-92775500D01*
X146518982Y-92775500D01*
X146631021Y-92775500D01*
X146631021Y-92775499D01*
X146739237Y-92746503D01*
X146836263Y-92690485D01*
X146841974Y-92684773D01*
X146876620Y-92670420D01*
X146911269Y-92684770D01*
X151185148Y-96958649D01*
X151199500Y-96993297D01*
X151199500Y-102303456D01*
X151185148Y-102338104D01*
X151159516Y-102363736D01*
X151159515Y-102363736D01*
X151103497Y-102460760D01*
X151103496Y-102460764D01*
X151074500Y-102568978D01*
X151074500Y-102681021D01*
X151103496Y-102789235D01*
X151103497Y-102789239D01*
X151146810Y-102864258D01*
X151159515Y-102886263D01*
X151238737Y-102965485D01*
X151274249Y-102985988D01*
X151335760Y-103021502D01*
X151335762Y-103021502D01*
X151335763Y-103021503D01*
X151421111Y-103044371D01*
X151443978Y-103050499D01*
X151443979Y-103050500D01*
X151443982Y-103050500D01*
X151556021Y-103050500D01*
X151556021Y-103050499D01*
X151664237Y-103021503D01*
X151761263Y-102965485D01*
X151840485Y-102886263D01*
X151896503Y-102789237D01*
X151925499Y-102681021D01*
X151925500Y-102681021D01*
X151925500Y-102568979D01*
X151925499Y-102568978D01*
X151915055Y-102530000D01*
X151896503Y-102460763D01*
X151896502Y-102460762D01*
X151896502Y-102460760D01*
X151840484Y-102363736D01*
X151814852Y-102338104D01*
X151800500Y-102303456D01*
X151800500Y-96828767D01*
X151814852Y-96794119D01*
X151849500Y-96779767D01*
X151884148Y-96794119D01*
X152255395Y-97165366D01*
X152269747Y-97200014D01*
X152269747Y-99958769D01*
X152260619Y-99985666D01*
X152261121Y-99985956D01*
X152259665Y-99988476D01*
X152259627Y-99988591D01*
X152259516Y-99988735D01*
X152203497Y-100085760D01*
X152203496Y-100085764D01*
X152174500Y-100193978D01*
X152174500Y-100306021D01*
X152203496Y-100414235D01*
X152203497Y-100414239D01*
X152247803Y-100490978D01*
X152259515Y-100511263D01*
X152338737Y-100590485D01*
X152374000Y-100610844D01*
X152435760Y-100646502D01*
X152435762Y-100646502D01*
X152435763Y-100646503D01*
X152461052Y-100653279D01*
X152543978Y-100675499D01*
X152543979Y-100675500D01*
X152543982Y-100675500D01*
X152656021Y-100675500D01*
X152656021Y-100675499D01*
X152764237Y-100646503D01*
X152774661Y-100640485D01*
X152826000Y-100610844D01*
X152863182Y-100605949D01*
X152892935Y-100628779D01*
X152899500Y-100653279D01*
X152899500Y-101436255D01*
X152892936Y-101460754D01*
X152878497Y-101485763D01*
X152878495Y-101485767D01*
X152849500Y-101593978D01*
X152849500Y-101706021D01*
X152878496Y-101814235D01*
X152878497Y-101814239D01*
X152934515Y-101911263D01*
X153013737Y-101990485D01*
X153049249Y-102010988D01*
X153110760Y-102046502D01*
X153110762Y-102046502D01*
X153110763Y-102046503D01*
X153142803Y-102055088D01*
X153218978Y-102075499D01*
X153218979Y-102075500D01*
X153218982Y-102075500D01*
X153331021Y-102075500D01*
X153331021Y-102075499D01*
X153439237Y-102046503D01*
X153536263Y-101990485D01*
X153615485Y-101911263D01*
X153671503Y-101814237D01*
X153700499Y-101706021D01*
X153700500Y-101706021D01*
X153700500Y-101593979D01*
X153700499Y-101593978D01*
X153694371Y-101571111D01*
X153671503Y-101485763D01*
X153671502Y-101485762D01*
X153671502Y-101485760D01*
X153615484Y-101388736D01*
X153536263Y-101309515D01*
X153524998Y-101303011D01*
X153502169Y-101273257D01*
X153500500Y-101260577D01*
X153500500Y-99393978D01*
X157224500Y-99393978D01*
X157224500Y-99506021D01*
X157253496Y-99614235D01*
X157253497Y-99614239D01*
X157288884Y-99675529D01*
X157309515Y-99711263D01*
X157388737Y-99790485D01*
X157418277Y-99807540D01*
X157485760Y-99846502D01*
X157485762Y-99846502D01*
X157485763Y-99846503D01*
X157571111Y-99869371D01*
X157593978Y-99875499D01*
X157593979Y-99875500D01*
X157593982Y-99875500D01*
X157630233Y-99875500D01*
X157664881Y-99889852D01*
X157689540Y-99914511D01*
X157745489Y-99970460D01*
X157814011Y-100010021D01*
X157849478Y-100019524D01*
X157890436Y-100030500D01*
X157890438Y-100030500D01*
X161433515Y-100030500D01*
X161468163Y-100044852D01*
X161478077Y-100059689D01*
X161478088Y-100059684D01*
X161478145Y-100059791D01*
X161478784Y-100060748D01*
X161479225Y-100061811D01*
X161495230Y-100085764D01*
X161555883Y-100176539D01*
X161653460Y-100274116D01*
X161728503Y-100324258D01*
X161749338Y-100355441D01*
X161742022Y-100392223D01*
X161728503Y-100405742D01*
X161653460Y-100455883D01*
X161555883Y-100553460D01*
X161479223Y-100668192D01*
X161426420Y-100795670D01*
X161426417Y-100795681D01*
X161399500Y-100931001D01*
X161399500Y-101068998D01*
X161426417Y-101204318D01*
X161426420Y-101204329D01*
X161471007Y-101311971D01*
X161479225Y-101331811D01*
X161479530Y-101332267D01*
X161555883Y-101446539D01*
X161653460Y-101544116D01*
X161728503Y-101594258D01*
X161749338Y-101625441D01*
X161742022Y-101662223D01*
X161728503Y-101675742D01*
X161653460Y-101725883D01*
X161555883Y-101823460D01*
X161479223Y-101938192D01*
X161426420Y-102065670D01*
X161426417Y-102065681D01*
X161399500Y-102201001D01*
X161399500Y-102338998D01*
X161426417Y-102474318D01*
X161426420Y-102474329D01*
X161469946Y-102579410D01*
X161479225Y-102601811D01*
X161491255Y-102619815D01*
X161555883Y-102716539D01*
X161653460Y-102814116D01*
X161728503Y-102864258D01*
X161749338Y-102895441D01*
X161742022Y-102932223D01*
X161728503Y-102945742D01*
X161653460Y-102995883D01*
X161555883Y-103093460D01*
X161479223Y-103208192D01*
X161426420Y-103335670D01*
X161426417Y-103335681D01*
X161399500Y-103471001D01*
X161399500Y-103608998D01*
X161426417Y-103744318D01*
X161426420Y-103744329D01*
X161479223Y-103871807D01*
X161479225Y-103871811D01*
X161492954Y-103892358D01*
X161555883Y-103986539D01*
X161653460Y-104084116D01*
X161699102Y-104114613D01*
X161768189Y-104160775D01*
X161895672Y-104213580D01*
X161895678Y-104213581D01*
X161895681Y-104213582D01*
X162031001Y-104240499D01*
X162031007Y-104240500D01*
X162168993Y-104240500D01*
X162304328Y-104213580D01*
X162431811Y-104160775D01*
X162546542Y-104084114D01*
X162588322Y-104042333D01*
X162622967Y-104027983D01*
X162657616Y-104042334D01*
X162671026Y-104067423D01*
X162681132Y-104118229D01*
X162725447Y-104184552D01*
X162752012Y-104202301D01*
X162791769Y-104228867D01*
X162850252Y-104240500D01*
X162850255Y-104240500D01*
X163889745Y-104240500D01*
X163889748Y-104240500D01*
X163948231Y-104228867D01*
X164014552Y-104184552D01*
X164058867Y-104118231D01*
X164070500Y-104059748D01*
X164070500Y-103020252D01*
X164058867Y-102961769D01*
X164020935Y-102905000D01*
X164014552Y-102895447D01*
X163974795Y-102868882D01*
X163948231Y-102851133D01*
X163889748Y-102839500D01*
X163606243Y-102839500D01*
X163571595Y-102825148D01*
X163366458Y-102620012D01*
X163416080Y-102620012D01*
X163505099Y-102596159D01*
X163584912Y-102550079D01*
X163650079Y-102484912D01*
X163696159Y-102405099D01*
X163720012Y-102316080D01*
X163720012Y-102269999D01*
X163723553Y-102269999D01*
X163723553Y-102270000D01*
X164232572Y-102779019D01*
X164256191Y-102743672D01*
X164331570Y-102561690D01*
X164331570Y-102561689D01*
X164370000Y-102368487D01*
X164370000Y-102171512D01*
X164331570Y-101978310D01*
X164331570Y-101978309D01*
X164256190Y-101796324D01*
X164232572Y-101760978D01*
X163723553Y-102269999D01*
X163720012Y-102269999D01*
X163720012Y-102223920D01*
X163696159Y-102134901D01*
X163650079Y-102055088D01*
X163584912Y-101989921D01*
X163505099Y-101943841D01*
X163416080Y-101919988D01*
X163323920Y-101919988D01*
X163234901Y-101943841D01*
X163155088Y-101989921D01*
X163089921Y-102055088D01*
X163043841Y-102134901D01*
X163019988Y-102223920D01*
X163019988Y-102273541D01*
X162753221Y-102006774D01*
X162742599Y-101990877D01*
X162720776Y-101938192D01*
X162720775Y-101938189D01*
X162674613Y-101869102D01*
X162644116Y-101823460D01*
X162546539Y-101725883D01*
X162471496Y-101675742D01*
X162466080Y-101667636D01*
X162457977Y-101662222D01*
X162456075Y-101652664D01*
X162450661Y-101644560D01*
X162452562Y-101635000D01*
X163088553Y-101635000D01*
X163369999Y-101916446D01*
X163651446Y-101635000D01*
X163651446Y-101634999D01*
X163370001Y-101353553D01*
X163370000Y-101353553D01*
X163088553Y-101635000D01*
X162452562Y-101635000D01*
X162452562Y-101634999D01*
X162450661Y-101625440D01*
X162456075Y-101617336D01*
X162457977Y-101607777D01*
X162471497Y-101594258D01*
X162501867Y-101573965D01*
X162501872Y-101573962D01*
X162546539Y-101544116D01*
X162546538Y-101544116D01*
X162546542Y-101544114D01*
X162644114Y-101446542D01*
X162720775Y-101331811D01*
X162742601Y-101279117D01*
X162753221Y-101263224D01*
X163019988Y-100996457D01*
X163019988Y-101046080D01*
X163043841Y-101135099D01*
X163089921Y-101214912D01*
X163155088Y-101280079D01*
X163234901Y-101326159D01*
X163323920Y-101350012D01*
X163416080Y-101350012D01*
X163505099Y-101326159D01*
X163584912Y-101280079D01*
X163650079Y-101214912D01*
X163696159Y-101135099D01*
X163720012Y-101046080D01*
X163720012Y-100999999D01*
X163723553Y-100999999D01*
X163723553Y-101000000D01*
X164232572Y-101509019D01*
X164256191Y-101473672D01*
X164331570Y-101291690D01*
X164331570Y-101291689D01*
X164370000Y-101098487D01*
X164370000Y-100901512D01*
X164331570Y-100708310D01*
X164331570Y-100708309D01*
X164256190Y-100526324D01*
X164232572Y-100490978D01*
X163723553Y-100999999D01*
X163720012Y-100999999D01*
X163720012Y-100953920D01*
X163696159Y-100864901D01*
X163650079Y-100785088D01*
X163584912Y-100719921D01*
X163505099Y-100673841D01*
X163416080Y-100649988D01*
X163366458Y-100649988D01*
X163633224Y-100383221D01*
X163649117Y-100372601D01*
X163701811Y-100350775D01*
X163816542Y-100274114D01*
X163914114Y-100176542D01*
X163990775Y-100061811D01*
X164043580Y-99934328D01*
X164053598Y-99883967D01*
X164070499Y-99798998D01*
X164070500Y-99798993D01*
X164070500Y-99661007D01*
X164070499Y-99661001D01*
X164043582Y-99525681D01*
X164043579Y-99525670D01*
X163999809Y-99420000D01*
X163990775Y-99398189D01*
X163915655Y-99285764D01*
X163914116Y-99283460D01*
X163816539Y-99185883D01*
X163701810Y-99109224D01*
X163649120Y-99087399D01*
X163633224Y-99076777D01*
X163366458Y-98810012D01*
X163416080Y-98810012D01*
X163505099Y-98786159D01*
X163584912Y-98740079D01*
X163650079Y-98674912D01*
X163696159Y-98595099D01*
X163720012Y-98506080D01*
X163720012Y-98459999D01*
X163723553Y-98459999D01*
X163723553Y-98460000D01*
X164232572Y-98969019D01*
X164256191Y-98933672D01*
X164331570Y-98751690D01*
X164331570Y-98751689D01*
X164370000Y-98558487D01*
X164370000Y-98361512D01*
X164331570Y-98168310D01*
X164331570Y-98168309D01*
X164256190Y-97986324D01*
X164232572Y-97950978D01*
X163723553Y-98459999D01*
X163720012Y-98459999D01*
X163720012Y-98413920D01*
X163696159Y-98324901D01*
X163650079Y-98245088D01*
X163584912Y-98179921D01*
X163505099Y-98133841D01*
X163416080Y-98109988D01*
X163323920Y-98109988D01*
X163234901Y-98133841D01*
X163155088Y-98179921D01*
X163089921Y-98245088D01*
X163043841Y-98324901D01*
X163019988Y-98413920D01*
X163019988Y-98463541D01*
X162753221Y-98196774D01*
X162742599Y-98180877D01*
X162720776Y-98128192D01*
X162720775Y-98128189D01*
X162651473Y-98024471D01*
X162644116Y-98013460D01*
X162546539Y-97915883D01*
X162463555Y-97860436D01*
X162431811Y-97839225D01*
X162431808Y-97839223D01*
X162431807Y-97839223D01*
X162304329Y-97786420D01*
X162304318Y-97786417D01*
X162168998Y-97759500D01*
X162168993Y-97759500D01*
X162031007Y-97759500D01*
X162031001Y-97759500D01*
X161895681Y-97786417D01*
X161895670Y-97786420D01*
X161768192Y-97839223D01*
X161653460Y-97915883D01*
X161555883Y-98013460D01*
X161479223Y-98128192D01*
X161426420Y-98255670D01*
X161426417Y-98255681D01*
X161399500Y-98391001D01*
X161399500Y-98528998D01*
X161426417Y-98664318D01*
X161426420Y-98664329D01*
X161465237Y-98758041D01*
X161479225Y-98791811D01*
X161510137Y-98838074D01*
X161555883Y-98906539D01*
X161653460Y-99004116D01*
X161728503Y-99054258D01*
X161749338Y-99085441D01*
X161742022Y-99122223D01*
X161728503Y-99135742D01*
X161653460Y-99185883D01*
X161555883Y-99283460D01*
X161479225Y-99398189D01*
X161478786Y-99399250D01*
X161478510Y-99399525D01*
X161478088Y-99400316D01*
X161477848Y-99400187D01*
X161452268Y-99425770D01*
X161433515Y-99429500D01*
X158122616Y-99429500D01*
X158087968Y-99415148D01*
X158075286Y-99393182D01*
X158046503Y-99285763D01*
X158046502Y-99285760D01*
X157990484Y-99188736D01*
X157911263Y-99109515D01*
X157814239Y-99053497D01*
X157814235Y-99053496D01*
X157706021Y-99024500D01*
X157706018Y-99024500D01*
X157593982Y-99024500D01*
X157593979Y-99024500D01*
X157485764Y-99053496D01*
X157485760Y-99053497D01*
X157388736Y-99109515D01*
X157388736Y-99109516D01*
X157309516Y-99188736D01*
X157309515Y-99188736D01*
X157253497Y-99285760D01*
X157253496Y-99285764D01*
X157224500Y-99393978D01*
X153500500Y-99393978D01*
X153500500Y-97597425D01*
X162860979Y-97597425D01*
X162860979Y-97597426D01*
X163369999Y-98106446D01*
X163879020Y-97597426D01*
X163843677Y-97573810D01*
X163661689Y-97498429D01*
X163468488Y-97460000D01*
X163271512Y-97460000D01*
X163078310Y-97498429D01*
X163078309Y-97498429D01*
X162896321Y-97573810D01*
X162860979Y-97597425D01*
X153500500Y-97597425D01*
X153500500Y-96811906D01*
X153491843Y-96779604D01*
X153480021Y-96735481D01*
X153480020Y-96735479D01*
X153480020Y-96735478D01*
X153440459Y-96666958D01*
X150317479Y-93543978D01*
X154949500Y-93543978D01*
X154949500Y-93656021D01*
X154978496Y-93764235D01*
X154978497Y-93764239D01*
X155034515Y-93861263D01*
X155113737Y-93940485D01*
X155149249Y-93960988D01*
X155210760Y-93996502D01*
X155210762Y-93996502D01*
X155210763Y-93996503D01*
X155296111Y-94019371D01*
X155318978Y-94025499D01*
X155318979Y-94025500D01*
X155318982Y-94025500D01*
X155431021Y-94025500D01*
X155431021Y-94025499D01*
X155539237Y-93996503D01*
X155636263Y-93940485D01*
X155715485Y-93861263D01*
X155771503Y-93764237D01*
X155800499Y-93656021D01*
X155800500Y-93656021D01*
X155800500Y-93543979D01*
X155800499Y-93543978D01*
X157929500Y-93543978D01*
X157929500Y-93656021D01*
X157958496Y-93764235D01*
X157958497Y-93764239D01*
X158014515Y-93861263D01*
X158093737Y-93940485D01*
X158129249Y-93960988D01*
X158190760Y-93996502D01*
X158190762Y-93996502D01*
X158190763Y-93996503D01*
X158276111Y-94019371D01*
X158298978Y-94025499D01*
X158298979Y-94025500D01*
X158298982Y-94025500D01*
X158411021Y-94025500D01*
X158411021Y-94025499D01*
X158519237Y-93996503D01*
X158616263Y-93940485D01*
X158695485Y-93861263D01*
X158751503Y-93764237D01*
X158780499Y-93656021D01*
X158780500Y-93656021D01*
X158780500Y-93543979D01*
X158780499Y-93543978D01*
X158751503Y-93435764D01*
X158751502Y-93435760D01*
X158695484Y-93338736D01*
X158616263Y-93259515D01*
X158519239Y-93203497D01*
X158519235Y-93203496D01*
X158411021Y-93174500D01*
X158411018Y-93174500D01*
X158298982Y-93174500D01*
X158298979Y-93174500D01*
X158190764Y-93203496D01*
X158190760Y-93203497D01*
X158093736Y-93259515D01*
X158093736Y-93259516D01*
X158014516Y-93338736D01*
X158014515Y-93338736D01*
X157958497Y-93435760D01*
X157958496Y-93435764D01*
X157929500Y-93543978D01*
X155800499Y-93543978D01*
X155771503Y-93435764D01*
X155771502Y-93435760D01*
X155715484Y-93338736D01*
X155636263Y-93259515D01*
X155539239Y-93203497D01*
X155539235Y-93203496D01*
X155431021Y-93174500D01*
X155431018Y-93174500D01*
X155318982Y-93174500D01*
X155318979Y-93174500D01*
X155210764Y-93203496D01*
X155210760Y-93203497D01*
X155113736Y-93259515D01*
X155113736Y-93259516D01*
X155034516Y-93338736D01*
X155034515Y-93338736D01*
X154978497Y-93435760D01*
X154978496Y-93435764D01*
X154949500Y-93543978D01*
X150317479Y-93543978D01*
X150039977Y-93266476D01*
X150025625Y-93231828D01*
X150032189Y-93207330D01*
X150071503Y-93139237D01*
X150100499Y-93031021D01*
X150100500Y-93031021D01*
X150100500Y-92918979D01*
X150100499Y-92918978D01*
X150082627Y-92852280D01*
X150071503Y-92810763D01*
X150071502Y-92810762D01*
X150071502Y-92810760D01*
X150015484Y-92713736D01*
X149936263Y-92634515D01*
X149839239Y-92578497D01*
X149839235Y-92578496D01*
X149731021Y-92549500D01*
X149731018Y-92549500D01*
X149618982Y-92549500D01*
X149618979Y-92549500D01*
X149510764Y-92578496D01*
X149510760Y-92578497D01*
X149413736Y-92634515D01*
X149413736Y-92634516D01*
X149334516Y-92713736D01*
X149334515Y-92713736D01*
X149278497Y-92810760D01*
X149278496Y-92810764D01*
X149249500Y-92918978D01*
X149249500Y-93031021D01*
X149278496Y-93139235D01*
X149278497Y-93139239D01*
X149334515Y-93236263D01*
X149360148Y-93261896D01*
X149374500Y-93296544D01*
X149374500Y-93316233D01*
X149360148Y-93350881D01*
X149325500Y-93365233D01*
X149290852Y-93350881D01*
X147316640Y-91376669D01*
X147302288Y-91342021D01*
X147306018Y-91323269D01*
X147375130Y-91156420D01*
X147415500Y-90953465D01*
X147415500Y-90746535D01*
X147414947Y-90743753D01*
X147555000Y-90743753D01*
X147555000Y-90956246D01*
X147588241Y-91166123D01*
X147588242Y-91166126D01*
X147653905Y-91368218D01*
X147750378Y-91557556D01*
X147750380Y-91557560D01*
X147789727Y-91611716D01*
X147789728Y-91611716D01*
X148422036Y-90979407D01*
X148439075Y-91042993D01*
X148504901Y-91157007D01*
X148597993Y-91250099D01*
X148712007Y-91315925D01*
X148775591Y-91332962D01*
X148143281Y-91965271D01*
X148197440Y-92004619D01*
X148197443Y-92004621D01*
X148386781Y-92101094D01*
X148588873Y-92166757D01*
X148588876Y-92166758D01*
X148798754Y-92200000D01*
X149011246Y-92200000D01*
X149221123Y-92166758D01*
X149221126Y-92166757D01*
X149423218Y-92101094D01*
X149612553Y-92004622D01*
X149666717Y-91965271D01*
X149034408Y-91332962D01*
X149097993Y-91315925D01*
X149212007Y-91250099D01*
X149305099Y-91157007D01*
X149370925Y-91042993D01*
X149387962Y-90979408D01*
X150020271Y-91611717D01*
X150059622Y-91557553D01*
X150156094Y-91368218D01*
X150221757Y-91166126D01*
X150221758Y-91166124D01*
X150222870Y-91159104D01*
X153849500Y-91159104D01*
X153849500Y-91290895D01*
X153883607Y-91418184D01*
X153883608Y-91418188D01*
X153919791Y-91480857D01*
X153949500Y-91532314D01*
X154042686Y-91625500D01*
X154084457Y-91649617D01*
X154156811Y-91691391D01*
X154156813Y-91691391D01*
X154156814Y-91691392D01*
X154257207Y-91718292D01*
X154284104Y-91725499D01*
X154284105Y-91725500D01*
X154284108Y-91725500D01*
X154415895Y-91725500D01*
X154415895Y-91725499D01*
X154543186Y-91691392D01*
X154657314Y-91625500D01*
X154750500Y-91532314D01*
X154816392Y-91418186D01*
X154850499Y-91290895D01*
X154850500Y-91290895D01*
X154850500Y-91159105D01*
X154850499Y-91159104D01*
X154816392Y-91031815D01*
X154816391Y-91031811D01*
X154750499Y-90917685D01*
X154657314Y-90824500D01*
X154543188Y-90758608D01*
X154543184Y-90758607D01*
X154415895Y-90724500D01*
X154415892Y-90724500D01*
X154284108Y-90724500D01*
X154284105Y-90724500D01*
X154156815Y-90758607D01*
X154156811Y-90758608D01*
X154042685Y-90824500D01*
X154042685Y-90824501D01*
X153949501Y-90917685D01*
X153949500Y-90917685D01*
X153883608Y-91031811D01*
X153883607Y-91031815D01*
X153849500Y-91159104D01*
X150222870Y-91159104D01*
X150224593Y-91148230D01*
X150224593Y-91148229D01*
X150255000Y-90956246D01*
X150255000Y-90743753D01*
X150221758Y-90533876D01*
X150221757Y-90533873D01*
X150156094Y-90331781D01*
X150059621Y-90142443D01*
X150059619Y-90142440D01*
X150020271Y-90088281D01*
X149387962Y-90720590D01*
X149370925Y-90657007D01*
X149305099Y-90542993D01*
X149212007Y-90449901D01*
X149097993Y-90384075D01*
X149034407Y-90367036D01*
X149666716Y-89734728D01*
X149666716Y-89734727D01*
X149612560Y-89695380D01*
X149612556Y-89695378D01*
X149423218Y-89598905D01*
X149221126Y-89533242D01*
X149221123Y-89533241D01*
X149011246Y-89500000D01*
X148798754Y-89500000D01*
X148588876Y-89533241D01*
X148588873Y-89533242D01*
X148386781Y-89598905D01*
X148197447Y-89695376D01*
X148197442Y-89695379D01*
X148143282Y-89734727D01*
X148143282Y-89734728D01*
X148775591Y-90367037D01*
X148712007Y-90384075D01*
X148597993Y-90449901D01*
X148504901Y-90542993D01*
X148439075Y-90657007D01*
X148422037Y-90720591D01*
X147789728Y-90088282D01*
X147789727Y-90088282D01*
X147750379Y-90142442D01*
X147750376Y-90142447D01*
X147653905Y-90331781D01*
X147588242Y-90533873D01*
X147588241Y-90533876D01*
X147555000Y-90743753D01*
X147414947Y-90743753D01*
X147375130Y-90543580D01*
X147295941Y-90352402D01*
X147180977Y-90180345D01*
X147034655Y-90034023D01*
X146862598Y-89919059D01*
X146762356Y-89877537D01*
X146671423Y-89839871D01*
X146671421Y-89839870D01*
X146671420Y-89839870D01*
X146671417Y-89839869D01*
X146671408Y-89839867D01*
X146478335Y-89801462D01*
X146478329Y-89801462D01*
X146468465Y-89799500D01*
X146261535Y-89799500D01*
X146160520Y-89819592D01*
X146058582Y-89839869D01*
X146058576Y-89839871D01*
X145867403Y-89919058D01*
X145695345Y-90034022D01*
X145549022Y-90180345D01*
X145434058Y-90352403D01*
X145354871Y-90543576D01*
X145354869Y-90543582D01*
X145334592Y-90645520D01*
X145314500Y-90746535D01*
X145314500Y-90953465D01*
X145330085Y-91031815D01*
X145354869Y-91156417D01*
X145354871Y-91156423D01*
X145429217Y-91335908D01*
X145434059Y-91347598D01*
X145477314Y-91412334D01*
X145536748Y-91501285D01*
X145549023Y-91519655D01*
X145695345Y-91665977D01*
X145867402Y-91780941D01*
X146058580Y-91860130D01*
X146261535Y-91900500D01*
X146261538Y-91900500D01*
X146319687Y-91900500D01*
X146354335Y-91914852D01*
X146368687Y-91949500D01*
X146354335Y-91984148D01*
X146344188Y-91991933D01*
X146333334Y-91998200D01*
X146313736Y-92009515D01*
X146313736Y-92009516D01*
X146234516Y-92088736D01*
X146234515Y-92088736D01*
X146178497Y-92185760D01*
X146178496Y-92185764D01*
X146149500Y-92293978D01*
X146149500Y-92406018D01*
X146154698Y-92425419D01*
X146149802Y-92462601D01*
X146120048Y-92485431D01*
X146082866Y-92480535D01*
X146072719Y-92472748D01*
X144835218Y-91235247D01*
X144820866Y-91200599D01*
X144824596Y-91181849D01*
X144835130Y-91156420D01*
X144875500Y-90953465D01*
X144875500Y-90746535D01*
X144835130Y-90543580D01*
X144755941Y-90352402D01*
X144640977Y-90180345D01*
X144494655Y-90034023D01*
X144322598Y-89919059D01*
X144222356Y-89877537D01*
X144131423Y-89839871D01*
X144131417Y-89839869D01*
X144049572Y-89823589D01*
X143928465Y-89799500D01*
X143721535Y-89799500D01*
X143620520Y-89819592D01*
X143518582Y-89839869D01*
X143518576Y-89839871D01*
X143327403Y-89919058D01*
X143155345Y-90034022D01*
X143009022Y-90180345D01*
X142894058Y-90352403D01*
X142814871Y-90543576D01*
X142814869Y-90543582D01*
X142794592Y-90645520D01*
X142774500Y-90746535D01*
X142635000Y-90746535D01*
X142635000Y-90743753D01*
X142601758Y-90533876D01*
X142601757Y-90533873D01*
X142536094Y-90331781D01*
X142439621Y-90142443D01*
X142439619Y-90142440D01*
X142400271Y-90088281D01*
X141767962Y-90720590D01*
X141750925Y-90657007D01*
X141685099Y-90542993D01*
X141592007Y-90449901D01*
X141477993Y-90384075D01*
X141414407Y-90367036D01*
X142046716Y-89734728D01*
X142046716Y-89734727D01*
X141992560Y-89695380D01*
X141992556Y-89695378D01*
X141803218Y-89598905D01*
X141601126Y-89533242D01*
X141601123Y-89533241D01*
X141391246Y-89500000D01*
X141178754Y-89500000D01*
X140968876Y-89533241D01*
X140968873Y-89533242D01*
X140766781Y-89598905D01*
X140577447Y-89695376D01*
X140577442Y-89695379D01*
X140523282Y-89734727D01*
X140523282Y-89734728D01*
X141155591Y-90367037D01*
X141092007Y-90384075D01*
X140977993Y-90449901D01*
X140884901Y-90542993D01*
X140819075Y-90657007D01*
X140802037Y-90720591D01*
X140239852Y-90158406D01*
X140225500Y-90123758D01*
X140225500Y-89396544D01*
X140239852Y-89361896D01*
X140265484Y-89336264D01*
X140265485Y-89336263D01*
X140321503Y-89239237D01*
X140350499Y-89131021D01*
X140350500Y-89131021D01*
X140350500Y-89018979D01*
X140350499Y-89018978D01*
X140321503Y-88910764D01*
X140321502Y-88910760D01*
X140265484Y-88813736D01*
X140186263Y-88734515D01*
X140089239Y-88678497D01*
X140089235Y-88678496D01*
X139981021Y-88649500D01*
X139981018Y-88649500D01*
X139868982Y-88649500D01*
X139868979Y-88649500D01*
X139760764Y-88678496D01*
X139760760Y-88678497D01*
X139663736Y-88734515D01*
X139663736Y-88734516D01*
X139584516Y-88813736D01*
X139584515Y-88813736D01*
X139528497Y-88910760D01*
X139528496Y-88910764D01*
X139499500Y-89018978D01*
X139499500Y-89131021D01*
X139528496Y-89239235D01*
X139528497Y-89239239D01*
X139584515Y-89336263D01*
X139610148Y-89361896D01*
X139624500Y-89396544D01*
X139624500Y-90125572D01*
X139610148Y-90160220D01*
X139575500Y-90174572D01*
X139540852Y-90160220D01*
X139414654Y-90034022D01*
X139297284Y-89955599D01*
X139242598Y-89919059D01*
X139142356Y-89877537D01*
X139051423Y-89839871D01*
X139051417Y-89839869D01*
X138969572Y-89823589D01*
X138848465Y-89799500D01*
X138641535Y-89799500D01*
X138540520Y-89819592D01*
X138438582Y-89839869D01*
X138438576Y-89839871D01*
X138247403Y-89919058D01*
X138075345Y-90034022D01*
X137929022Y-90180345D01*
X137814058Y-90352403D01*
X137734871Y-90543576D01*
X137734869Y-90543582D01*
X137714592Y-90645520D01*
X137694500Y-90746535D01*
X137694500Y-90953465D01*
X137710085Y-91031815D01*
X137734869Y-91156417D01*
X137734871Y-91156423D01*
X137803981Y-91323268D01*
X137803981Y-91360771D01*
X137793359Y-91376668D01*
X137690489Y-91479540D01*
X137634541Y-91535488D01*
X137634540Y-91535488D01*
X137594979Y-91604008D01*
X137594979Y-91604010D01*
X137574500Y-91680436D01*
X137574500Y-95756233D01*
X137560148Y-95790881D01*
X137525500Y-95805233D01*
X137490852Y-95790881D01*
X136614852Y-94914881D01*
X136600500Y-94880233D01*
X136600500Y-94843979D01*
X136600499Y-94843978D01*
X136573358Y-94742686D01*
X136571503Y-94735763D01*
X136571502Y-94735762D01*
X136571502Y-94735760D01*
X136526210Y-94657314D01*
X136515485Y-94638737D01*
X136436263Y-94559515D01*
X136407984Y-94543188D01*
X136339239Y-94503497D01*
X136339235Y-94503496D01*
X136231021Y-94474500D01*
X136231018Y-94474500D01*
X136118982Y-94474500D01*
X136118979Y-94474500D01*
X136010764Y-94503496D01*
X136010760Y-94503497D01*
X135913736Y-94559515D01*
X135913736Y-94559516D01*
X135834516Y-94638736D01*
X135834515Y-94638736D01*
X135778497Y-94735760D01*
X135778496Y-94735764D01*
X135749500Y-94843978D01*
X125640232Y-94843978D01*
X125743186Y-94816392D01*
X125857314Y-94750500D01*
X125950500Y-94657314D01*
X126016392Y-94543186D01*
X126050499Y-94415895D01*
X126050500Y-94415895D01*
X126050500Y-94284105D01*
X126050499Y-94284104D01*
X126016392Y-94156815D01*
X126016391Y-94156811D01*
X125950499Y-94042685D01*
X125857314Y-93949500D01*
X125743188Y-93883608D01*
X125743184Y-93883607D01*
X125615895Y-93849500D01*
X125615892Y-93849500D01*
X125484108Y-93849500D01*
X125484105Y-93849500D01*
X125356815Y-93883607D01*
X125356811Y-93883608D01*
X125242685Y-93949500D01*
X125242685Y-93949501D01*
X125149501Y-94042685D01*
X125149500Y-94042685D01*
X125083608Y-94156811D01*
X125083607Y-94156815D01*
X125049500Y-94284104D01*
X114750500Y-94284104D01*
X114750500Y-91501285D01*
X114750567Y-91498721D01*
X114753953Y-91434108D01*
X114768167Y-91162889D01*
X114768700Y-91157811D01*
X114821109Y-90826915D01*
X114822175Y-90821904D01*
X114832285Y-90784174D01*
X114908879Y-90498320D01*
X114910459Y-90493459D01*
X115030517Y-90180697D01*
X115032598Y-90176024D01*
X115033338Y-90174572D01*
X115132349Y-89980252D01*
X130074500Y-89980252D01*
X130074500Y-91719748D01*
X130086133Y-91778231D01*
X130092185Y-91787288D01*
X130130447Y-91844552D01*
X130153757Y-91860127D01*
X130196769Y-91888867D01*
X130255252Y-91900500D01*
X130255255Y-91900500D01*
X131994745Y-91900500D01*
X131994748Y-91900500D01*
X132053231Y-91888867D01*
X132119552Y-91844552D01*
X132163867Y-91778231D01*
X132175500Y-91719748D01*
X132175500Y-90746535D01*
X132614500Y-90746535D01*
X132614500Y-90953465D01*
X132630085Y-91031815D01*
X132654869Y-91156417D01*
X132654871Y-91156423D01*
X132729217Y-91335908D01*
X132734059Y-91347598D01*
X132777314Y-91412334D01*
X132836748Y-91501285D01*
X132849023Y-91519655D01*
X132995345Y-91665977D01*
X133167402Y-91780941D01*
X133358580Y-91860130D01*
X133561535Y-91900500D01*
X133561538Y-91900500D01*
X133768462Y-91900500D01*
X133768465Y-91900500D01*
X133778337Y-91898536D01*
X133778340Y-91898536D01*
X133855755Y-91883137D01*
X133971420Y-91860130D01*
X134162598Y-91780941D01*
X134334655Y-91665977D01*
X134480977Y-91519655D01*
X134595941Y-91347598D01*
X134675130Y-91156420D01*
X134715500Y-90953465D01*
X134715500Y-90746535D01*
X134714947Y-90743753D01*
X134855000Y-90743753D01*
X134855000Y-90956246D01*
X134888241Y-91166123D01*
X134888242Y-91166126D01*
X134953905Y-91368218D01*
X135050378Y-91557556D01*
X135050380Y-91557560D01*
X135089727Y-91611716D01*
X135089728Y-91611716D01*
X135722036Y-90979407D01*
X135739075Y-91042993D01*
X135804901Y-91157007D01*
X135897993Y-91250099D01*
X136012007Y-91315925D01*
X136075591Y-91332962D01*
X135443281Y-91965271D01*
X135497440Y-92004619D01*
X135497443Y-92004621D01*
X135686781Y-92101094D01*
X135888873Y-92166757D01*
X135888876Y-92166758D01*
X136098754Y-92200000D01*
X136311246Y-92200000D01*
X136521123Y-92166758D01*
X136521126Y-92166757D01*
X136723218Y-92101094D01*
X136912553Y-92004622D01*
X136966717Y-91965271D01*
X136334408Y-91332962D01*
X136397993Y-91315925D01*
X136512007Y-91250099D01*
X136605099Y-91157007D01*
X136670925Y-91042993D01*
X136687962Y-90979408D01*
X137320271Y-91611717D01*
X137359622Y-91557553D01*
X137456094Y-91368218D01*
X137521757Y-91166126D01*
X137521758Y-91166123D01*
X137555000Y-90956246D01*
X137555000Y-90743753D01*
X137521758Y-90533876D01*
X137521757Y-90533873D01*
X137456094Y-90331781D01*
X137359621Y-90142443D01*
X137359619Y-90142440D01*
X137320271Y-90088281D01*
X136687962Y-90720590D01*
X136670925Y-90657007D01*
X136605099Y-90542993D01*
X136512007Y-90449901D01*
X136397993Y-90384075D01*
X136334407Y-90367036D01*
X136966716Y-89734728D01*
X136966716Y-89734727D01*
X136912560Y-89695380D01*
X136912556Y-89695378D01*
X136723218Y-89598905D01*
X136521126Y-89533242D01*
X136521123Y-89533241D01*
X136311246Y-89500000D01*
X136098754Y-89500000D01*
X135888876Y-89533241D01*
X135888873Y-89533242D01*
X135686781Y-89598905D01*
X135497447Y-89695376D01*
X135497442Y-89695379D01*
X135443282Y-89734727D01*
X135443282Y-89734728D01*
X136075591Y-90367037D01*
X136012007Y-90384075D01*
X135897993Y-90449901D01*
X135804901Y-90542993D01*
X135739075Y-90657007D01*
X135722037Y-90720591D01*
X135089728Y-90088282D01*
X135089727Y-90088282D01*
X135050379Y-90142442D01*
X135050376Y-90142447D01*
X134953905Y-90331781D01*
X134888242Y-90533873D01*
X134888241Y-90533876D01*
X134855000Y-90743753D01*
X134714947Y-90743753D01*
X134675130Y-90543580D01*
X134595941Y-90352402D01*
X134480977Y-90180345D01*
X134334655Y-90034023D01*
X134162598Y-89919059D01*
X134062356Y-89877537D01*
X133971423Y-89839871D01*
X133971421Y-89839870D01*
X133971420Y-89839870D01*
X133971417Y-89839869D01*
X133971408Y-89839867D01*
X133778335Y-89801462D01*
X133778329Y-89801462D01*
X133768465Y-89799500D01*
X133561535Y-89799500D01*
X133460520Y-89819592D01*
X133358582Y-89839869D01*
X133358576Y-89839871D01*
X133167403Y-89919058D01*
X132995345Y-90034022D01*
X132849022Y-90180345D01*
X132734058Y-90352403D01*
X132654871Y-90543576D01*
X132654869Y-90543582D01*
X132634592Y-90645520D01*
X132614500Y-90746535D01*
X132175500Y-90746535D01*
X132175500Y-89980252D01*
X132163867Y-89921769D01*
X132134312Y-89877537D01*
X132119552Y-89855447D01*
X132079795Y-89828882D01*
X132053231Y-89811133D01*
X131994748Y-89799500D01*
X130255252Y-89799500D01*
X130196769Y-89811133D01*
X130130447Y-89855447D01*
X130087944Y-89919058D01*
X130086133Y-89921769D01*
X130074500Y-89980252D01*
X115132349Y-89980252D01*
X115184690Y-89877526D01*
X115187241Y-89873107D01*
X115369710Y-89592130D01*
X115372702Y-89588011D01*
X115583546Y-89327641D01*
X115586959Y-89323851D01*
X115823851Y-89086959D01*
X115827641Y-89083546D01*
X116088011Y-88872702D01*
X116092130Y-88869710D01*
X116373107Y-88687241D01*
X116377526Y-88684690D01*
X116676035Y-88532592D01*
X116680697Y-88530517D01*
X116993459Y-88410459D01*
X116998320Y-88408879D01*
X117321911Y-88322173D01*
X117326915Y-88321109D01*
X117657811Y-88268700D01*
X117662889Y-88268167D01*
X117998722Y-88250567D01*
X118001286Y-88250500D01*
X118065892Y-88250500D01*
X161934108Y-88250500D01*
X161998714Y-88250500D01*
X162001278Y-88250567D01*
G37*
%TD.AperFunction*%
%TD*%
M02*
