%TF.GenerationSoftware,KiCad,Pcbnew,9.0.6*%
%TF.CreationDate,2025-12-22T03:41:51-08:00*%
%TF.ProjectId,sg90-prod-ch32v006,73673930-2d70-4726-9f64-2d6368333276,rev?*%
%TF.SameCoordinates,Original*%
%TF.FileFunction,Legend,Bot*%
%TF.FilePolarity,Positive*%
%FSLAX46Y46*%
G04 Gerber Fmt 4.6, Leading zero omitted, Abs format (unit mm)*
G04 Created by KiCad (PCBNEW 9.0.6) date 2025-12-22 03:41:51*
%MOMM*%
%LPD*%
G01*
G04 APERTURE LIST*
G04 Aperture macros list*
%AMRoundRect*
0 Rectangle with rounded corners*
0 $1 Rounding radius*
0 $2 $3 $4 $5 $6 $7 $8 $9 X,Y pos of 4 corners*
0 Add a 4 corners polygon primitive as box body*
4,1,4,$2,$3,$4,$5,$6,$7,$8,$9,$2,$3,0*
0 Add four circle primitives for the rounded corners*
1,1,$1+$1,$2,$3*
1,1,$1+$1,$4,$5*
1,1,$1+$1,$6,$7*
1,1,$1+$1,$8,$9*
0 Add four rect primitives between the rounded corners*
20,1,$1+$1,$2,$3,$4,$5,0*
20,1,$1+$1,$4,$5,$6,$7,0*
20,1,$1+$1,$6,$7,$8,$9,0*
20,1,$1+$1,$8,$9,$2,$3,0*%
G04 Aperture macros list end*
%ADD10C,0.100000*%
%ADD11C,0.120000*%
%ADD12C,0.250000*%
%ADD13C,0.300000*%
%ADD14RoundRect,0.250000X-0.650000X0.650000X-0.650000X-0.650000X0.650000X-0.650000X0.650000X0.650000X0*%
%ADD15RoundRect,0.250000X0.625000X-0.312500X0.625000X0.312500X-0.625000X0.312500X-0.625000X-0.312500X0*%
%ADD16RoundRect,0.150000X0.587500X0.150000X-0.587500X0.150000X-0.587500X-0.150000X0.587500X-0.150000X0*%
%ADD17RoundRect,0.218750X0.218750X0.256250X-0.218750X0.256250X-0.218750X-0.256250X0.218750X-0.256250X0*%
%ADD18C,1.000000*%
%ADD19C,1.600000*%
%ADD20RoundRect,0.225000X0.225000X0.250000X-0.225000X0.250000X-0.225000X-0.250000X0.225000X-0.250000X0*%
%ADD21C,1.800000*%
%ADD22R,0.600000X1.000000*%
%ADD23RoundRect,0.225000X-0.225000X-0.250000X0.225000X-0.250000X0.225000X0.250000X-0.225000X0.250000X0*%
G04 APERTURE END LIST*
D10*
X100382782Y-97188609D02*
X100239925Y-97236228D01*
X100239925Y-97236228D02*
X100192306Y-97283847D01*
X100192306Y-97283847D02*
X100144687Y-97379085D01*
X100144687Y-97379085D02*
X100144687Y-97521942D01*
X100144687Y-97521942D02*
X100192306Y-97617180D01*
X100192306Y-97617180D02*
X100239925Y-97664800D01*
X100239925Y-97664800D02*
X100335163Y-97712419D01*
X100335163Y-97712419D02*
X100716115Y-97712419D01*
X100716115Y-97712419D02*
X100716115Y-96712419D01*
X100716115Y-96712419D02*
X100382782Y-96712419D01*
X100382782Y-96712419D02*
X100287544Y-96760038D01*
X100287544Y-96760038D02*
X100239925Y-96807657D01*
X100239925Y-96807657D02*
X100192306Y-96902895D01*
X100192306Y-96902895D02*
X100192306Y-96998133D01*
X100192306Y-96998133D02*
X100239925Y-97093371D01*
X100239925Y-97093371D02*
X100287544Y-97140990D01*
X100287544Y-97140990D02*
X100382782Y-97188609D01*
X100382782Y-97188609D02*
X100716115Y-97188609D01*
X100663734Y-92976704D02*
X100187544Y-92976704D01*
X100758972Y-93262419D02*
X100425639Y-92262419D01*
X100425639Y-92262419D02*
X100092306Y-93262419D01*
X110436115Y-94147419D02*
X110436115Y-93147419D01*
X110436115Y-93147419D02*
X110198020Y-93147419D01*
X110198020Y-93147419D02*
X110055163Y-93195038D01*
X110055163Y-93195038D02*
X109959925Y-93290276D01*
X109959925Y-93290276D02*
X109912306Y-93385514D01*
X109912306Y-93385514D02*
X109864687Y-93575990D01*
X109864687Y-93575990D02*
X109864687Y-93718847D01*
X109864687Y-93718847D02*
X109912306Y-93909323D01*
X109912306Y-93909323D02*
X109959925Y-94004561D01*
X109959925Y-94004561D02*
X110055163Y-94099800D01*
X110055163Y-94099800D02*
X110198020Y-94147419D01*
X110198020Y-94147419D02*
X110436115Y-94147419D01*
X110578972Y-94462419D02*
X110245639Y-95462419D01*
X110245639Y-95462419D02*
X109912306Y-94462419D01*
X109912306Y-95825038D02*
X110007544Y-95777419D01*
X110007544Y-95777419D02*
X110150401Y-95777419D01*
X110150401Y-95777419D02*
X110293258Y-95825038D01*
X110293258Y-95825038D02*
X110388496Y-95920276D01*
X110388496Y-95920276D02*
X110436115Y-96015514D01*
X110436115Y-96015514D02*
X110483734Y-96205990D01*
X110483734Y-96205990D02*
X110483734Y-96348847D01*
X110483734Y-96348847D02*
X110436115Y-96539323D01*
X110436115Y-96539323D02*
X110388496Y-96634561D01*
X110388496Y-96634561D02*
X110293258Y-96729800D01*
X110293258Y-96729800D02*
X110150401Y-96777419D01*
X110150401Y-96777419D02*
X110055163Y-96777419D01*
X110055163Y-96777419D02*
X109912306Y-96729800D01*
X109912306Y-96729800D02*
X109864687Y-96682180D01*
X109864687Y-96682180D02*
X109864687Y-96348847D01*
X109864687Y-96348847D02*
X110055163Y-96348847D01*
D11*
%TO.C,R4*%
X101305000Y-96489564D02*
X101305000Y-95035436D01*
X103125000Y-96489564D02*
X103125000Y-95035436D01*
%TO.C,Q1*%
X107550000Y-90100000D02*
X107550000Y-91100000D01*
X107550000Y-92220000D02*
X107550000Y-93220000D01*
X107550000Y-93220000D02*
X109070000Y-93220000D01*
X109070000Y-90100000D02*
X107550000Y-90100000D01*
X109070000Y-90150000D02*
X109070000Y-90100000D01*
X109070000Y-92050000D02*
X109070000Y-91270000D01*
X109070000Y-93220000D02*
X109070000Y-93170000D01*
X109850000Y-91610000D02*
X109370000Y-91610000D01*
X109610000Y-91280000D01*
X109850000Y-91610000D01*
G36*
X109850000Y-91610000D02*
G01*
X109370000Y-91610000D01*
X109610000Y-91280000D01*
X109850000Y-91610000D01*
G37*
%TO.C,FB1*%
X103602779Y-90270000D02*
X103277221Y-90270000D01*
X103602779Y-91290000D02*
X103277221Y-91290000D01*
D10*
%TO.C,J3*%
X105400000Y-93000000D02*
X105400000Y-93200000D01*
X105400000Y-93000000D02*
X106600000Y-93000000D01*
X106600000Y-93000000D02*
X106600000Y-93200000D01*
D11*
%TO.C,C1*%
X106130580Y-98715000D02*
X105849420Y-98715000D01*
X106130580Y-99735000D02*
X105849420Y-99735000D01*
D12*
%TO.C,U1*%
X107180000Y-97670000D02*
X107180000Y-98510000D01*
X108950000Y-97200000D02*
X108190000Y-97200000D01*
X110100000Y-97390000D02*
X110099999Y-98790000D01*
D13*
X109680000Y-100100000D02*
G75*
G02*
X109380000Y-100100000I-150000J0D01*
G01*
X109380000Y-100100000D02*
G75*
G02*
X109680000Y-100100000I150000J0D01*
G01*
D11*
%TO.C,C8*%
X101964420Y-92650000D02*
X102245580Y-92650000D01*
X101964420Y-93670000D02*
X102245580Y-93670000D01*
%TD*%
%LPC*%
D14*
%TO.C,J2*%
X101200000Y-91200000D03*
X101200000Y-98800000D03*
%TD*%
D15*
%TO.C,R4*%
X102215000Y-97225000D03*
X102215000Y-94300000D03*
%TD*%
D16*
%TO.C,Q1*%
X109247500Y-90710000D03*
X109247500Y-92610000D03*
X107372500Y-91660000D03*
%TD*%
D17*
%TO.C,FB1*%
X104227500Y-90780000D03*
X102652500Y-90780000D03*
%TD*%
D18*
%TO.C,J3*%
X106000000Y-93595000D03*
X106000000Y-94865000D03*
X106000000Y-96135000D03*
X106000000Y-97405000D03*
%TD*%
D19*
%TO.C,J1*%
X111370000Y-97000000D03*
X111370000Y-95000000D03*
X111370000Y-93000000D03*
%TD*%
D20*
%TO.C,C1*%
X106765000Y-99225000D03*
X105215000Y-99225000D03*
%TD*%
D21*
%TO.C,J4*%
X104300000Y-92450000D03*
X104300000Y-92450000D03*
X104300000Y-94990000D03*
X104300000Y-94990000D03*
X104300000Y-97530000D03*
X104300000Y-97530000D03*
%TD*%
D22*
%TO.C,U1*%
X109520000Y-99190000D03*
X108570000Y-99190000D03*
X107620000Y-99190000D03*
X107620000Y-96990000D03*
X109520000Y-96990000D03*
%TD*%
D23*
%TO.C,C8*%
X101330000Y-93160000D03*
X102880000Y-93160000D03*
%TD*%
%LPD*%
M02*
