%TF.GenerationSoftware,KiCad,Pcbnew,9.0.6*%
%TF.CreationDate,2025-12-22T15:01:52-08:00*%
%TF.ProjectId,sg90-prod-ch32v006,73673930-2d70-4726-9f64-2d6368333276,rev?*%
%TF.SameCoordinates,Original*%
%TF.FileFunction,Copper,L1,Top*%
%TF.FilePolarity,Positive*%
%FSLAX46Y46*%
G04 Gerber Fmt 4.6, Leading zero omitted, Abs format (unit mm)*
G04 Created by KiCad (PCBNEW 9.0.6) date 2025-12-22 15:01:52*
%MOMM*%
%LPD*%
G01*
G04 APERTURE LIST*
G04 Aperture macros list*
%AMRoundRect*
0 Rectangle with rounded corners*
0 $1 Rounding radius*
0 $2 $3 $4 $5 $6 $7 $8 $9 X,Y pos of 4 corners*
0 Add a 4 corners polygon primitive as box body*
4,1,4,$2,$3,$4,$5,$6,$7,$8,$9,$2,$3,0*
0 Add four circle primitives for the rounded corners*
1,1,$1+$1,$2,$3*
1,1,$1+$1,$4,$5*
1,1,$1+$1,$6,$7*
1,1,$1+$1,$8,$9*
0 Add four rect primitives between the rounded corners*
20,1,$1+$1,$2,$3,$4,$5,0*
20,1,$1+$1,$4,$5,$6,$7,0*
20,1,$1+$1,$6,$7,$8,$9,0*
20,1,$1+$1,$8,$9,$2,$3,0*%
%AMFreePoly0*
4,1,14,0.885355,0.885355,0.900000,0.850000,0.900000,-0.850000,0.885355,-0.885355,0.850000,-0.900000,-0.550000,-0.900000,-0.585355,-0.885355,-0.885355,-0.585355,-0.900000,-0.550000,-0.900000,0.850000,-0.885355,0.885355,-0.850000,0.900000,0.850000,0.900000,0.885355,0.885355,0.885355,0.885355,$1*%
G04 Aperture macros list end*
%TA.AperFunction,SMDPad,CuDef*%
%ADD10RoundRect,0.140000X0.170000X-0.140000X0.170000X0.140000X-0.170000X0.140000X-0.170000X-0.140000X0*%
%TD*%
%TA.AperFunction,SMDPad,CuDef*%
%ADD11RoundRect,0.135000X-0.185000X0.135000X-0.185000X-0.135000X0.185000X-0.135000X0.185000X0.135000X0*%
%TD*%
%TA.AperFunction,SMDPad,CuDef*%
%ADD12R,0.520000X0.300000*%
%TD*%
%TA.AperFunction,SMDPad,CuDef*%
%ADD13RoundRect,0.135000X-0.135000X-0.185000X0.135000X-0.185000X0.135000X0.185000X-0.135000X0.185000X0*%
%TD*%
%TA.AperFunction,ComponentPad*%
%ADD14RoundRect,0.250000X-0.650000X0.650000X-0.650000X-0.650000X0.650000X-0.650000X0.650000X0.650000X0*%
%TD*%
%TA.AperFunction,SMDPad,CuDef*%
%ADD15RoundRect,0.135000X0.135000X0.185000X-0.135000X0.185000X-0.135000X-0.185000X0.135000X-0.185000X0*%
%TD*%
%TA.AperFunction,SMDPad,CuDef*%
%ADD16RoundRect,0.140000X0.140000X0.170000X-0.140000X0.170000X-0.140000X-0.170000X0.140000X-0.170000X0*%
%TD*%
%TA.AperFunction,SMDPad,CuDef*%
%ADD17RoundRect,0.050000X0.140561X-0.304537X0.327966X-0.070274X-0.140561X0.304537X-0.327966X0.070274X0*%
%TD*%
%TA.AperFunction,SMDPad,CuDef*%
%ADD18R,0.800000X0.200000*%
%TD*%
%TA.AperFunction,SMDPad,CuDef*%
%ADD19R,0.200000X0.800000*%
%TD*%
%TA.AperFunction,SMDPad,CuDef*%
%ADD20FreePoly0,90.000000*%
%TD*%
%TA.AperFunction,SMDPad,CuDef*%
%ADD21RoundRect,0.062500X-0.187500X-0.062500X0.187500X-0.062500X0.187500X0.062500X-0.187500X0.062500X0*%
%TD*%
%TA.AperFunction,SMDPad,CuDef*%
%ADD22R,0.900000X1.600000*%
%TD*%
%TA.AperFunction,SMDPad,CuDef*%
%ADD23RoundRect,0.135000X0.185000X-0.135000X0.185000X0.135000X-0.185000X0.135000X-0.185000X-0.135000X0*%
%TD*%
%TA.AperFunction,SMDPad,CuDef*%
%ADD24RoundRect,0.140000X-0.170000X0.140000X-0.170000X-0.140000X0.170000X-0.140000X0.170000X0.140000X0*%
%TD*%
%TA.AperFunction,SMDPad,CuDef*%
%ADD25RoundRect,0.140000X-0.140000X-0.170000X0.140000X-0.170000X0.140000X0.170000X-0.140000X0.170000X0*%
%TD*%
%TA.AperFunction,ComponentPad*%
%ADD26C,1.600000*%
%TD*%
%TA.AperFunction,ComponentPad*%
%ADD27C,1.800000*%
%TD*%
%TA.AperFunction,ViaPad*%
%ADD28C,0.450000*%
%TD*%
%TA.AperFunction,ViaPad*%
%ADD29C,0.600000*%
%TD*%
%TA.AperFunction,ViaPad*%
%ADD30C,0.800000*%
%TD*%
%TA.AperFunction,Conductor*%
%ADD31C,0.100000*%
%TD*%
%TA.AperFunction,Conductor*%
%ADD32C,0.150000*%
%TD*%
%TA.AperFunction,Conductor*%
%ADD33C,0.200000*%
%TD*%
G04 APERTURE END LIST*
D10*
%TO.P,C4,1*%
%TO.N,+3.3V*%
X107730000Y-91540000D03*
%TO.P,C4,2*%
%TO.N,GND*%
X107730000Y-90580000D03*
%TD*%
D11*
%TO.P,R3,1*%
%TO.N,/EN*%
X102520000Y-91320000D03*
%TO.P,R3,2*%
%TO.N,PGND*%
X102520000Y-92340000D03*
%TD*%
D12*
%TO.P,U2,6,1Y*%
%TO.N,/DATA*%
X108600000Y-91450000D03*
%TO.P,U2,5,VCC*%
%TO.N,+3.3V*%
X108600000Y-90950000D03*
%TO.P,U2,4,2Y*%
%TO.N,/RX*%
X108600000Y-90450000D03*
%TO.P,U2,3,2A*%
%TO.N,/DATA*%
X109380000Y-90450000D03*
%TO.P,U2,2,GND*%
%TO.N,GND*%
X109380000Y-90950000D03*
%TO.P,U2,1,1A*%
%TO.N,/TX*%
X109380000Y-91450000D03*
%TD*%
D13*
%TO.P,R8,1*%
%TO.N,/VINS*%
X105900000Y-98620000D03*
%TO.P,R8,2*%
%TO.N,GND*%
X106920000Y-98620000D03*
%TD*%
D14*
%TO.P,J2,1,Pin_1*%
%TO.N,/OUTA*%
X101200000Y-91200000D03*
%TO.P,J2,2,Pin_2*%
%TO.N,/OUTB*%
X101200000Y-98800000D03*
%TD*%
D15*
%TO.P,R7,1*%
%TO.N,/VSYS*%
X106920000Y-99380000D03*
%TO.P,R7,2*%
%TO.N,/VINS*%
X105900000Y-99380000D03*
%TD*%
D13*
%TO.P,R11,1*%
%TO.N,/OUTB*%
X102470000Y-99380000D03*
%TO.P,R11,2*%
%TO.N,/VSNB*%
X103490000Y-99380000D03*
%TD*%
D16*
%TO.P,C6,1*%
%TO.N,/3V3_DRV*%
X103700000Y-93400000D03*
%TO.P,C6,2*%
%TO.N,PGND*%
X102740000Y-93400000D03*
%TD*%
D15*
%TO.P,R13,1*%
%TO.N,/TX*%
X108830000Y-92330000D03*
%TO.P,R13,2*%
%TO.N,+3.3V*%
X107810000Y-92330000D03*
%TD*%
D17*
%TO.P,D1,1,K*%
%TO.N,/DATA*%
X110420000Y-91890000D03*
%TO.P,D1,2,A*%
%TO.N,GND*%
X110857280Y-91343388D03*
%TD*%
D18*
%TO.P,U4,1,PD7/RST/T2C4/OPP1/PA4/U2TX_/OPN2*%
%TO.N,/nRST*%
X109000000Y-95800000D03*
%TO.P,U4,2,PA1/T1/T2/OPN0/XI/A1*%
%TO.N,/ISNS-*%
X109000000Y-95400000D03*
%TO.P,U4,3,PA2/T1/T2/U2TX_/OPP0/XO/A0*%
%TO.N,/ISNS+*%
X109000000Y-95000000D03*
%TO.P,U4,4,VSS*%
%TO.N,GND*%
X109000000Y-94600000D03*
%TO.P,U4,5,PD0/T1/TX_/SDA_/OPN1*%
%TO.N,unconnected-(U4-PD0{slash}T1{slash}TX_{slash}SDA_{slash}OPN1-Pad5)*%
X109000000Y-94200000D03*
D19*
%TO.P,U4,6,VDD*%
%TO.N,+3.3V*%
X108300000Y-93500000D03*
%TO.P,U4,7,PC0/T1C1N_/T1/T2/TX_/MOSI_*%
%TO.N,/TX*%
X107900000Y-93500000D03*
%TO.P,U4,8,PC1/T1C2N_/T2/RX_/SDA/NSS*%
%TO.N,/RX*%
X107500000Y-93500000D03*
%TO.P,U4,9,PC2/T1C3N_/T2/SCL*%
%TO.N,unconnected-(U4-PC2{slash}T1C3N_{slash}T2{slash}SCL-Pad9)*%
X107100000Y-93500000D03*
%TO.P,U4,10,PC3/T1/T2*%
%TO.N,unconnected-(U4-PC3{slash}T1{slash}T2-Pad10)*%
X106700000Y-93500000D03*
D18*
%TO.P,U4,11,PC4/T1C1_/T1/MCO/A2*%
%TO.N,/VSNA*%
X106000000Y-94200000D03*
%TO.P,U4,12,PC5/T1C2_/T1/T2/TX_/SCK*%
%TO.N,/EN*%
X106000000Y-94600000D03*
%TO.P,U4,13,PC6/T1C3_/T1/RX_/MOSI*%
%TO.N,/IN1*%
X106000000Y-95000000D03*
%TO.P,U4,14,PC7/T1C4_/T1/T2/MISO*%
%TO.N,/IN2*%
X106000000Y-95400000D03*
%TO.P,U4,15,PD1/SWIO/T1/SCL_/RX_/OPP3*%
%TO.N,/SWDIO*%
X106000000Y-95800000D03*
D19*
%TO.P,U4,16,PD2/T1/T2/U2TX_/A3*%
%TO.N,/VPOS*%
X106700000Y-96500000D03*
%TO.P,U4,17,PD3/T1/T2/U2RX_/NSS_/OPP2/A4*%
%TO.N,/VSNB*%
X107100000Y-96500000D03*
%TO.P,U4,18,PD4/T1/T2/SCK_/OPO0/A7*%
%TO.N,/VINS*%
X107500000Y-96500000D03*
%TO.P,U4,19,PD5/T2/TX/RX_/MISO_/A5*%
%TO.N,/VNTC*%
X107900000Y-96500000D03*
%TO.P,U4,20,PD6/T2/RX/TX_/MOSI_/A6*%
%TO.N,/ISNS+*%
X108300000Y-96500000D03*
D20*
%TO.P,U4,21,VSS*%
%TO.N,GND*%
X107500000Y-95000000D03*
%TD*%
D13*
%TO.P,R10,1*%
%TO.N,/VSNA*%
X104140000Y-90620000D03*
%TO.P,R10,2*%
%TO.N,GND*%
X105160000Y-90620000D03*
%TD*%
D10*
%TO.P,C9,1*%
%TO.N,+3.3V*%
X109820000Y-93600000D03*
%TO.P,C9,2*%
%TO.N,GND*%
X109820000Y-92640000D03*
%TD*%
D11*
%TO.P,TH1,1*%
%TO.N,/VNTC*%
X107690000Y-98400000D03*
%TO.P,TH1,2*%
%TO.N,GND*%
X107690000Y-99420000D03*
%TD*%
D13*
%TO.P,R1,1*%
%TO.N,+3.3V*%
X105810000Y-90620000D03*
%TO.P,R1,2*%
%TO.N,/RX*%
X106830000Y-90620000D03*
%TD*%
D21*
%TO.P,U3,1,VM*%
%TO.N,/VSYS*%
X101280000Y-94250000D03*
%TO.P,U3,2,OUT1*%
%TO.N,/OUTA*%
X101280000Y-94750000D03*
%TO.P,U3,3,OUT2*%
%TO.N,/OUTB*%
X101280000Y-95250000D03*
%TO.P,U3,4,GND*%
%TO.N,PGND*%
X101280000Y-95750000D03*
%TO.P,U3,5,IN2*%
%TO.N,/IN2*%
X103180000Y-95750000D03*
%TO.P,U3,6,IN1*%
%TO.N,/IN1*%
X103180000Y-95250000D03*
%TO.P,U3,7,~{SLEEP}*%
%TO.N,/EN*%
X103180000Y-94750000D03*
%TO.P,U3,8,VCC*%
%TO.N,/3V3_DRV*%
X103180000Y-94250000D03*
D22*
%TO.P,U3,9,GND*%
%TO.N,PGND*%
X102230000Y-95000000D03*
%TD*%
D23*
%TO.P,R6,1*%
%TO.N,+3.3V*%
X110040000Y-98700000D03*
%TO.P,R6,2*%
%TO.N,/nRST*%
X110040000Y-97680000D03*
%TD*%
D16*
%TO.P,C5,1*%
%TO.N,/VPOS*%
X103440000Y-98640000D03*
%TO.P,C5,2*%
%TO.N,GND*%
X102480000Y-98640000D03*
%TD*%
D13*
%TO.P,R9,1*%
%TO.N,/OUTA*%
X102470000Y-90620000D03*
%TO.P,R9,2*%
%TO.N,/VSNA*%
X103490000Y-90620000D03*
%TD*%
D11*
%TO.P,R2,1*%
%TO.N,/POT*%
X102955000Y-96857500D03*
%TO.P,R2,2*%
%TO.N,/VPOS*%
X102955000Y-97877500D03*
%TD*%
D15*
%TO.P,R5,1*%
%TO.N,+3.3V*%
X109030000Y-97470000D03*
%TO.P,R5,2*%
%TO.N,/VNTC*%
X108010000Y-97470000D03*
%TD*%
D13*
%TO.P,R12,1*%
%TO.N,/VSNB*%
X104140000Y-99380000D03*
%TO.P,R12,2*%
%TO.N,GND*%
X105160000Y-99380000D03*
%TD*%
D24*
%TO.P,C2,1*%
%TO.N,/VSYS*%
X108570000Y-98300000D03*
%TO.P,C2,2*%
%TO.N,GND*%
X108570000Y-99260000D03*
%TD*%
D25*
%TO.P,C7,1*%
%TO.N,/VSYS*%
X101120000Y-93410000D03*
%TO.P,C7,2*%
%TO.N,PGND*%
X102080000Y-93410000D03*
%TD*%
D24*
%TO.P,C3,1*%
%TO.N,+3.3V*%
X109300000Y-98300000D03*
%TO.P,C3,2*%
%TO.N,GND*%
X109300000Y-99260000D03*
%TD*%
D26*
%TO.P,J1,1,Pin_1*%
%TO.N,GND*%
X111370000Y-97000000D03*
%TO.P,J1,2,Pin_2*%
%TO.N,VIN*%
X111370000Y-95000000D03*
%TO.P,J1,3,Pin_3*%
%TO.N,/DATA*%
X111370000Y-93000000D03*
%TD*%
D27*
%TO.P,J4,3,Pin_3*%
%TO.N,GND*%
X104300000Y-97530000D03*
%TD*%
D28*
%TO.N,GND*%
X106640000Y-98190000D03*
D29*
X106090000Y-92630000D03*
D28*
X105050000Y-90950000D03*
X109690000Y-90950000D03*
X107570000Y-90580000D03*
%TO.N,+3.3V*%
X106010000Y-91040000D03*
%TO.N,/DATA*%
X110130000Y-91660000D03*
X108610000Y-91640000D03*
%TO.N,GND*%
X102480000Y-98640000D03*
X107500000Y-94330000D03*
X110826044Y-91382431D03*
X106830000Y-94990000D03*
X108570000Y-99190000D03*
X107500000Y-95670000D03*
X106830000Y-94330000D03*
X107500000Y-94990000D03*
X105160000Y-99380000D03*
X108170000Y-94990000D03*
X108170000Y-94330000D03*
X108170000Y-95670000D03*
X106830000Y-95670000D03*
%TO.N,/nRST*%
X110310000Y-97930000D03*
%TO.N,PGND*%
X102520000Y-92340000D03*
X101980000Y-95600000D03*
X102470000Y-95010000D03*
X101980000Y-95010000D03*
X101980000Y-94410000D03*
X102740000Y-93400000D03*
X102470000Y-95600000D03*
X102470000Y-94410000D03*
%TO.N,/POT*%
X103090000Y-96280000D03*
%TO.N,/OUTB*%
X100780000Y-95400000D03*
X100525000Y-96443965D03*
X100525000Y-95865620D03*
%TO.N,/OUTA*%
X100540000Y-93850000D03*
X100870000Y-94680000D03*
X100525000Y-94376649D03*
%TO.N,/ISNS+*%
X108480000Y-96740000D03*
X109790000Y-94730000D03*
%TO.N,/SWDIO*%
X106000000Y-96135000D03*
%TO.N,/ISNS-*%
X109760000Y-95530000D03*
%TO.N,+3.3V*%
X109820000Y-93600000D03*
X109520000Y-97160000D03*
%TO.N,/3V3_DRV*%
X103120000Y-91940000D03*
D30*
%TO.N,/VSYS*%
X106699000Y-91970000D03*
D28*
X108570000Y-98300000D03*
D30*
X101386394Y-92935886D03*
D28*
X106920000Y-99380000D03*
%TO.N,+3.3V*%
X107810000Y-92330000D03*
%TD*%
D31*
%TO.N,/VINS*%
X106429000Y-97751000D02*
X107120000Y-97060000D01*
X106246988Y-97751000D02*
X106429000Y-97751000D01*
X105900000Y-98620000D02*
X105900000Y-98097988D01*
X105900000Y-98097988D02*
X106246988Y-97751000D01*
X107120000Y-97060000D02*
X107240000Y-97060000D01*
X107240000Y-97060000D02*
X107500000Y-96800000D01*
X107500000Y-96800000D02*
X107500000Y-96500000D01*
%TO.N,/DATA*%
X109380000Y-90450000D02*
X109770000Y-90450000D01*
X110320000Y-91000000D02*
X110320000Y-91470000D01*
X109770000Y-90450000D02*
X110320000Y-91000000D01*
X110320000Y-91470000D02*
X110130000Y-91660000D01*
%TO.N,/RX*%
X107409726Y-91109000D02*
X107911000Y-91109000D01*
X107911000Y-91109000D02*
X108199000Y-90821000D01*
X108199000Y-90821000D02*
X108199000Y-90741000D01*
X108199000Y-90741000D02*
X108490000Y-90450000D01*
X108490000Y-90450000D02*
X108600000Y-90450000D01*
D32*
%TO.N,+3.3V*%
X107810000Y-92330000D02*
X107810000Y-91520000D01*
X107810000Y-91520000D02*
X108380000Y-90950000D01*
X108380000Y-90950000D02*
X108600000Y-90950000D01*
D31*
%TO.N,/RX*%
X106830000Y-90620000D02*
X107319000Y-91109000D01*
X107319000Y-91109000D02*
X107409726Y-91109000D01*
%TO.N,/TX*%
X108830000Y-92330000D02*
X108830000Y-92300000D01*
X108830000Y-92300000D02*
X109380000Y-91750000D01*
X109380000Y-91750000D02*
X109380000Y-91450000D01*
X107900000Y-93500000D02*
X107900000Y-93200000D01*
X107900000Y-93200000D02*
X108770000Y-92330000D01*
X108770000Y-92330000D02*
X108830000Y-92330000D01*
%TO.N,+3.3V*%
X109820000Y-93600000D02*
X109630000Y-93600000D01*
X109630000Y-93600000D02*
X109530000Y-93500000D01*
X109530000Y-93500000D02*
X108300000Y-93500000D01*
%TO.N,/RX*%
X107500000Y-93500000D02*
X107375000Y-93375000D01*
X107375000Y-91916274D02*
X107249000Y-91790274D01*
X107375000Y-93375000D02*
X107375000Y-91916274D01*
X107249000Y-91790274D02*
X107249000Y-91269726D01*
X107249000Y-91269726D02*
X107409726Y-91109000D01*
D33*
%TO.N,GND*%
X107570000Y-90580000D02*
X107570000Y-90600000D01*
%TO.N,+3.3V*%
X108580000Y-90970000D02*
X108600000Y-90950000D01*
%TO.N,GND*%
X107570000Y-90600000D02*
X107730000Y-90760000D01*
D31*
%TO.N,/nRST*%
X110040000Y-96840000D02*
X109000000Y-95800000D01*
X110040000Y-97680000D02*
X110040000Y-96840000D01*
X110060000Y-97680000D02*
X110040000Y-97680000D01*
X110310000Y-97930000D02*
X110060000Y-97680000D01*
%TO.N,/VPOS*%
X103481000Y-98681000D02*
X104776760Y-98681000D01*
X106700000Y-96757760D02*
X106700000Y-96500000D01*
X103440000Y-98640000D02*
X103481000Y-98681000D01*
X104776760Y-98681000D02*
X106700000Y-96757760D01*
X102955000Y-97877500D02*
X102955000Y-98155000D01*
X102955000Y-98155000D02*
X103440000Y-98640000D01*
%TO.N,PGND*%
X101830000Y-95750000D02*
X101980000Y-95600000D01*
X101280000Y-95750000D02*
X101830000Y-95750000D01*
%TO.N,/POT*%
X102955000Y-96857500D02*
X102955000Y-96415000D01*
X102955000Y-96415000D02*
X103090000Y-96280000D01*
%TO.N,/OUTB*%
X102470000Y-99380000D02*
X101780000Y-99380000D01*
X101780000Y-99380000D02*
X101200000Y-98800000D01*
%TO.N,/OUTA*%
X102470000Y-90620000D02*
X101780000Y-90620000D01*
X101780000Y-90620000D02*
X101200000Y-91200000D01*
%TO.N,/ISNS+*%
X109520000Y-95000000D02*
X109790000Y-94730000D01*
X109000000Y-95000000D02*
X109520000Y-95000000D01*
%TO.N,/DATA*%
X111370000Y-92840000D02*
X111370000Y-93000000D01*
X110420000Y-91890000D02*
X111370000Y-92840000D01*
D32*
%TO.N,/SWDIO*%
X106000000Y-95800000D02*
X106000000Y-96135000D01*
D31*
%TO.N,/IN2*%
X103451000Y-96021000D02*
X104749000Y-96021000D01*
X104749000Y-96021000D02*
X105370000Y-95400000D01*
X103180000Y-95750000D02*
X103451000Y-96021000D01*
X105370000Y-95400000D02*
X106000000Y-95400000D01*
%TO.N,/IN1*%
X103180000Y-95250000D02*
X103384789Y-95250000D01*
X105465211Y-95000000D02*
X106000000Y-95000000D01*
X103955789Y-95821000D02*
X104644211Y-95821000D01*
X104644211Y-95821000D02*
X105465211Y-95000000D01*
X103384789Y-95250000D02*
X103955789Y-95821000D01*
%TO.N,/VINS*%
X105900000Y-99380000D02*
X105900000Y-98620000D01*
%TO.N,/EN*%
X106000000Y-94600000D02*
X105140000Y-94600000D01*
X104343211Y-91320000D02*
X102520000Y-91320000D01*
X105131000Y-92838526D02*
X105131000Y-92107789D01*
X104240000Y-94160000D02*
X104024763Y-93944763D01*
X104700000Y-94160000D02*
X104240000Y-94160000D01*
X105140000Y-94600000D02*
X104700000Y-94160000D01*
X103219526Y-94750000D02*
X104024763Y-93944763D01*
X104024763Y-93944763D02*
X105131000Y-92838526D01*
X105131000Y-92107789D02*
X104343211Y-91320000D01*
X103180000Y-94750000D02*
X103219526Y-94750000D01*
%TO.N,/VSNA*%
X104140000Y-90620000D02*
X104140000Y-90844675D01*
X105322000Y-92917641D02*
X104630000Y-93609641D01*
X104630000Y-93740000D02*
X105090000Y-94200000D01*
X104630000Y-93609641D02*
X104630000Y-93740000D01*
X105322000Y-92028674D02*
X105322000Y-92917641D01*
X104140000Y-90844675D02*
X104940000Y-91644675D01*
X105090000Y-94200000D02*
X106000000Y-94200000D01*
X104940000Y-91646675D02*
X105322000Y-92028674D01*
X103490000Y-90620000D02*
X104140000Y-90620000D01*
X104940000Y-91644675D02*
X104940000Y-91646675D01*
%TO.N,/ISNS-*%
X109630000Y-95400000D02*
X109760000Y-95530000D01*
X109000000Y-95400000D02*
X109630000Y-95400000D01*
%TO.N,+3.3V*%
X109700000Y-98700000D02*
X109300000Y-98300000D01*
X110040000Y-98450000D02*
X110040000Y-98700000D01*
D33*
X109300000Y-98300000D02*
X109300000Y-97380000D01*
D31*
X110040000Y-98700000D02*
X109700000Y-98700000D01*
D33*
X109300000Y-97380000D02*
X109520000Y-97160000D01*
D31*
%TO.N,/VNTC*%
X107900000Y-97330000D02*
X107900000Y-96500000D01*
X107690000Y-97540000D02*
X107720000Y-97510000D01*
X107690000Y-98400000D02*
X107690000Y-97540000D01*
X107720000Y-97510000D02*
X107900000Y-97330000D01*
%TO.N,/VSNB*%
X103490000Y-99380000D02*
X104140000Y-99380000D01*
X106167874Y-97560000D02*
X106340000Y-97560000D01*
X107100000Y-96800000D02*
X107100000Y-96500000D01*
X106340000Y-97560000D02*
X107100000Y-96800000D01*
X104347874Y-99380000D02*
X106167874Y-97560000D01*
X104140000Y-99380000D02*
X104347874Y-99380000D01*
%TO.N,/3V3_DRV*%
X103700000Y-93400000D02*
X103120000Y-92820000D01*
X103120000Y-92820000D02*
X103120000Y-91940000D01*
X103700000Y-93730000D02*
X103700000Y-93400000D01*
X103180000Y-94250000D02*
X103700000Y-93730000D01*
%TO.N,/VSYS*%
X106930000Y-99370000D02*
X106920000Y-99380000D01*
%TD*%
%TA.AperFunction,Conductor*%
%TO.N,PGND*%
G36*
X102759811Y-91991256D02*
G01*
X102772658Y-92013386D01*
X102776079Y-92026153D01*
X102789659Y-92076832D01*
X102804173Y-92101971D01*
X102836326Y-92157664D01*
X102836328Y-92157666D01*
X102836329Y-92157668D01*
X102902332Y-92223671D01*
X102945000Y-92248304D01*
X102967830Y-92278055D01*
X102969500Y-92290739D01*
X102969500Y-92849937D01*
X102977174Y-92868462D01*
X102977175Y-92868464D01*
X102992411Y-92905251D01*
X103179870Y-93092710D01*
X103180000Y-93100000D01*
X103186987Y-93099827D01*
X103305148Y-93217988D01*
X103319500Y-93252636D01*
X103319500Y-93593693D01*
X103333452Y-93663836D01*
X103386609Y-93743392D01*
X103389213Y-93745132D01*
X103410048Y-93776315D01*
X103402730Y-93813097D01*
X103396637Y-93820521D01*
X103207012Y-94010148D01*
X103172364Y-94024500D01*
X102976444Y-94024500D01*
X102928901Y-94033957D01*
X102874984Y-94069982D01*
X102874982Y-94069984D01*
X102838957Y-94123901D01*
X102829500Y-94171444D01*
X102829500Y-94328555D01*
X102838957Y-94376098D01*
X102874982Y-94430014D01*
X102874983Y-94430014D01*
X102874984Y-94430016D01*
X102878220Y-94432178D01*
X102881009Y-94436352D01*
X102885648Y-94438274D01*
X102891117Y-94451477D01*
X102899058Y-94463360D01*
X102900000Y-94472922D01*
X102900000Y-94527078D01*
X102885648Y-94561726D01*
X102878224Y-94567819D01*
X102874984Y-94569983D01*
X102838957Y-94623902D01*
X102829500Y-94671444D01*
X102829500Y-94828555D01*
X102838957Y-94876098D01*
X102874982Y-94930014D01*
X102874983Y-94930014D01*
X102874984Y-94930016D01*
X102878220Y-94932178D01*
X102881009Y-94936352D01*
X102885648Y-94938274D01*
X102891117Y-94951477D01*
X102899058Y-94963360D01*
X102900000Y-94972922D01*
X102900000Y-95027078D01*
X102885648Y-95061726D01*
X102878224Y-95067819D01*
X102874984Y-95069983D01*
X102838957Y-95123902D01*
X102829500Y-95171444D01*
X102829500Y-95328555D01*
X102838957Y-95376098D01*
X102874982Y-95430014D01*
X102874983Y-95430014D01*
X102874984Y-95430016D01*
X102878220Y-95432178D01*
X102881009Y-95436352D01*
X102885648Y-95438274D01*
X102891117Y-95451477D01*
X102899058Y-95463360D01*
X102900000Y-95472922D01*
X102900000Y-95527078D01*
X102885648Y-95561726D01*
X102878224Y-95567819D01*
X102874984Y-95569983D01*
X102838957Y-95623902D01*
X102829500Y-95671444D01*
X102829500Y-95828555D01*
X102838957Y-95876098D01*
X102877665Y-95934030D01*
X102875574Y-95935426D01*
X102886518Y-95961847D01*
X102872166Y-95996495D01*
X102863013Y-96005648D01*
X102828365Y-96020000D01*
X102490000Y-96020000D01*
X102480258Y-97861259D01*
X102465723Y-97895831D01*
X102431259Y-97910000D01*
X102300182Y-97910000D01*
X102265534Y-97895648D01*
X102253255Y-97875100D01*
X102247924Y-97857358D01*
X102234916Y-97829570D01*
X102234915Y-97829569D01*
X102234914Y-97829566D01*
X101013614Y-95980586D01*
X101005500Y-95953580D01*
X101005500Y-95696135D01*
X101019852Y-95661487D01*
X101063671Y-95617668D01*
X101110341Y-95536832D01*
X101110343Y-95536824D01*
X101110790Y-95535748D01*
X101111209Y-95535328D01*
X101111947Y-95534051D01*
X101112289Y-95534248D01*
X101137309Y-95509230D01*
X101156060Y-95505500D01*
X101500998Y-95505500D01*
X101501000Y-95505500D01*
X101541374Y-95497469D01*
X101541376Y-95497468D01*
X101576013Y-95483121D01*
X101576024Y-95483116D01*
X101590769Y-95475603D01*
X101590768Y-95475603D01*
X101590771Y-95475602D01*
X101633117Y-95426022D01*
X101647469Y-95391374D01*
X101655500Y-95351000D01*
X101655500Y-95124000D01*
X101647469Y-95083626D01*
X101647468Y-95083623D01*
X101633121Y-95048986D01*
X101633116Y-95048975D01*
X101625603Y-95034230D01*
X101617229Y-95027078D01*
X101613768Y-95024122D01*
X101596743Y-94990707D01*
X101608331Y-94955041D01*
X101633117Y-94926022D01*
X101647469Y-94891374D01*
X101655500Y-94851000D01*
X101655500Y-94649000D01*
X101647469Y-94608626D01*
X101647468Y-94608623D01*
X101633121Y-94573986D01*
X101633116Y-94573975D01*
X101625603Y-94559230D01*
X101622615Y-94555440D01*
X101623409Y-94554813D01*
X101608679Y-94525898D01*
X101620271Y-94490231D01*
X101635280Y-94478399D01*
X101640771Y-94475602D01*
X101683117Y-94426022D01*
X101697469Y-94391374D01*
X101705500Y-94351000D01*
X101705500Y-94144310D01*
X101712948Y-94118340D01*
X101743170Y-94069984D01*
X101866195Y-93873143D01*
X101878143Y-93846312D01*
X101885591Y-93820342D01*
X101886764Y-93815886D01*
X101881648Y-93750884D01*
X101867296Y-93716236D01*
X101865246Y-93713168D01*
X101864940Y-93712702D01*
X101853613Y-93695257D01*
X101854329Y-93694780D01*
X101818073Y-93640518D01*
X101817891Y-93640238D01*
X101817784Y-93639664D01*
X101810929Y-93623112D01*
X101805941Y-93598030D01*
X101805000Y-93588473D01*
X101805000Y-93498060D01*
X101804689Y-93489974D01*
X101804689Y-93489967D01*
X101804113Y-93482479D01*
X101789079Y-93435777D01*
X101769602Y-93403730D01*
X101741770Y-93373399D01*
X101741769Y-93373398D01*
X101741766Y-93373395D01*
X101738774Y-93371205D01*
X101719296Y-93339158D01*
X101728184Y-93302723D01*
X101733060Y-93297033D01*
X101786894Y-93243200D01*
X101852786Y-93129072D01*
X101886893Y-93001781D01*
X101886894Y-93001781D01*
X101886894Y-92869992D01*
X101874381Y-92823296D01*
X101879275Y-92786114D01*
X101904692Y-92766609D01*
X101904074Y-92765192D01*
X101907606Y-92763651D01*
X101907606Y-92763650D01*
X101907609Y-92763650D01*
X101939217Y-92743466D01*
X101968922Y-92714970D01*
X102177153Y-92416914D01*
X102191302Y-92388165D01*
X102200134Y-92360102D01*
X102205000Y-92328430D01*
X102205000Y-92197018D01*
X102205941Y-92187461D01*
X102207278Y-92180736D01*
X102210640Y-92163834D01*
X102217954Y-92146175D01*
X102237263Y-92117276D01*
X102246910Y-92106630D01*
X102252584Y-92101974D01*
X102283117Y-92060801D01*
X102297469Y-92026153D01*
X102299028Y-92018313D01*
X102319862Y-91987130D01*
X102346853Y-91978872D01*
X102725097Y-91977070D01*
X102759811Y-91991256D01*
G37*
%TD.AperFunction*%
%TD*%
%TA.AperFunction,Conductor*%
%TO.N,GND*%
G36*
X102487057Y-98017536D02*
G01*
X102509763Y-98022084D01*
X102513021Y-98026967D01*
X102518529Y-98028968D01*
X102528266Y-98049815D01*
X102541148Y-98069121D01*
X102548164Y-98104388D01*
X102565586Y-98130462D01*
X102588267Y-98164407D01*
X102600214Y-98182286D01*
X102678112Y-98234336D01*
X102746804Y-98248000D01*
X102804508Y-98248000D01*
X102856834Y-98269674D01*
X103037826Y-98450665D01*
X103059500Y-98502991D01*
X103059500Y-98833688D01*
X103063909Y-98855852D01*
X103073454Y-98903839D01*
X103126608Y-98983390D01*
X103131763Y-98988545D01*
X103130175Y-98990132D01*
X103156380Y-99029348D01*
X103145333Y-99084898D01*
X103133164Y-99103110D01*
X103119500Y-99171805D01*
X103119500Y-99588194D01*
X103124049Y-99611063D01*
X103122570Y-99618497D01*
X103125471Y-99625500D01*
X103117210Y-99645441D01*
X103113000Y-99666612D01*
X103106697Y-99670823D01*
X103103797Y-99677826D01*
X103083854Y-99686086D01*
X103065908Y-99698078D01*
X103051471Y-99699500D01*
X102908529Y-99699500D01*
X102856203Y-99677826D01*
X102834529Y-99625500D01*
X102835951Y-99611063D01*
X102840500Y-99588194D01*
X102840500Y-99171805D01*
X102840500Y-99171804D01*
X102826836Y-99103112D01*
X102774786Y-99025214D01*
X102772791Y-99023881D01*
X102696888Y-98973164D01*
X102628196Y-98959500D01*
X102311807Y-98959500D01*
X102302282Y-98955554D01*
X102292051Y-98956814D01*
X102279190Y-98945989D01*
X102259481Y-98937826D01*
X102247411Y-98921957D01*
X102246071Y-98919590D01*
X102234462Y-98895045D01*
X102219492Y-98872642D01*
X102218141Y-98870255D01*
X102217743Y-98867028D01*
X102209959Y-98848233D01*
X102206422Y-98830449D01*
X102205000Y-98816014D01*
X102205000Y-98463983D01*
X102206422Y-98449548D01*
X102209959Y-98431764D01*
X102221007Y-98405088D01*
X102234461Y-98384955D01*
X102247699Y-98356967D01*
X102255957Y-98329744D01*
X102260500Y-98299119D01*
X102260500Y-98089500D01*
X102270760Y-98064729D01*
X102279909Y-98039542D01*
X102281479Y-98038850D01*
X102282174Y-98037174D01*
X102331224Y-98015573D01*
X102332871Y-98015500D01*
X102431259Y-98015500D01*
X102459714Y-98009879D01*
X102465295Y-98009632D01*
X102487057Y-98017536D01*
G37*
%TD.AperFunction*%
%TA.AperFunction,Conductor*%
G36*
X105507826Y-98537538D02*
G01*
X105529500Y-98589864D01*
X105529500Y-98828196D01*
X105537866Y-98870255D01*
X105543164Y-98896888D01*
X105584591Y-98958888D01*
X105595640Y-99014437D01*
X105584591Y-99041112D01*
X105543164Y-99103111D01*
X105529500Y-99171805D01*
X105529500Y-99588194D01*
X105534049Y-99611063D01*
X105523000Y-99666612D01*
X105475908Y-99698078D01*
X105461471Y-99699500D01*
X104578529Y-99699500D01*
X104526203Y-99677826D01*
X104504529Y-99625500D01*
X104505951Y-99611063D01*
X104510500Y-99588194D01*
X104510500Y-99460864D01*
X104532173Y-99408539D01*
X105403174Y-98537537D01*
X105455500Y-98515864D01*
X105507826Y-98537538D01*
G37*
%TD.AperFunction*%
%TA.AperFunction,Conductor*%
G36*
X109781714Y-91732307D02*
G01*
X109784825Y-91741474D01*
X109799658Y-91796831D01*
X109842836Y-91871617D01*
X109846329Y-91877668D01*
X109912332Y-91943671D01*
X109993168Y-91990341D01*
X109993167Y-91990341D01*
X110085284Y-92015024D01*
X110112357Y-92028716D01*
X110172502Y-92076831D01*
X110423112Y-92277314D01*
X110478118Y-92321317D01*
X110517856Y-92341922D01*
X110577508Y-92347046D01*
X110577510Y-92347045D01*
X110584770Y-92347669D01*
X110584625Y-92349350D01*
X110631302Y-92362869D01*
X110658627Y-92412479D01*
X110646610Y-92461771D01*
X110571985Y-92573455D01*
X110504107Y-92737329D01*
X110504104Y-92737339D01*
X110486767Y-92824500D01*
X110469500Y-92911309D01*
X110469500Y-93088691D01*
X110469781Y-93090102D01*
X110504104Y-93262660D01*
X110504107Y-93262670D01*
X110571985Y-93426544D01*
X110664632Y-93565200D01*
X110670536Y-93574035D01*
X110795965Y-93699464D01*
X110943453Y-93798013D01*
X110943454Y-93798013D01*
X110943455Y-93798014D01*
X111091924Y-93859511D01*
X111107334Y-93865894D01*
X111281309Y-93900500D01*
X111281311Y-93900500D01*
X111458689Y-93900500D01*
X111458691Y-93900500D01*
X111632666Y-93865894D01*
X111796547Y-93798013D01*
X111944035Y-93699464D01*
X112069464Y-93574035D01*
X112069466Y-93574031D01*
X112072034Y-93571464D01*
X112073333Y-93572763D01*
X112118249Y-93548757D01*
X112172447Y-93565200D01*
X112199144Y-93615150D01*
X112199500Y-93622401D01*
X112199500Y-94377598D01*
X112177826Y-94429924D01*
X112125500Y-94451598D01*
X112073174Y-94429924D01*
X112070763Y-94427265D01*
X112069466Y-94425968D01*
X112069464Y-94425965D01*
X111944035Y-94300536D01*
X111796547Y-94201987D01*
X111796546Y-94201986D01*
X111796544Y-94201985D01*
X111632670Y-94134107D01*
X111632660Y-94134104D01*
X111516156Y-94110930D01*
X111458691Y-94099500D01*
X111281309Y-94099500D01*
X111231989Y-94109310D01*
X111107339Y-94134104D01*
X111107329Y-94134107D01*
X110943455Y-94201985D01*
X110795968Y-94300533D01*
X110670533Y-94425968D01*
X110571985Y-94573455D01*
X110504107Y-94737329D01*
X110504104Y-94737339D01*
X110479549Y-94860788D01*
X110469500Y-94911309D01*
X110469500Y-95088691D01*
X110473719Y-95109899D01*
X110504104Y-95262660D01*
X110504107Y-95262670D01*
X110571985Y-95426544D01*
X110669481Y-95572457D01*
X110670536Y-95574035D01*
X110795965Y-95699464D01*
X110943453Y-95798013D01*
X110943454Y-95798013D01*
X110943455Y-95798014D01*
X111072364Y-95851409D01*
X111107334Y-95865894D01*
X111281309Y-95900500D01*
X111281311Y-95900500D01*
X111458689Y-95900500D01*
X111458691Y-95900500D01*
X111632666Y-95865894D01*
X111796547Y-95798013D01*
X111944035Y-95699464D01*
X112069464Y-95574035D01*
X112069466Y-95574031D01*
X112072034Y-95571464D01*
X112073333Y-95572763D01*
X112118249Y-95548757D01*
X112172447Y-95565200D01*
X112199144Y-95615150D01*
X112199500Y-95622401D01*
X112199500Y-97820006D01*
X112177826Y-97872332D01*
X112171727Y-97877790D01*
X109914860Y-99683284D01*
X109868633Y-99699500D01*
X107358529Y-99699500D01*
X107306203Y-99677826D01*
X107284529Y-99625500D01*
X107285951Y-99611063D01*
X107290500Y-99588194D01*
X107290500Y-99171805D01*
X107290500Y-99171804D01*
X107276836Y-99103112D01*
X107224786Y-99025214D01*
X107222791Y-99023881D01*
X107146888Y-98973164D01*
X107078196Y-98959500D01*
X106761804Y-98959500D01*
X106716009Y-98968609D01*
X106693111Y-98973164D01*
X106615214Y-99025213D01*
X106615213Y-99025214D01*
X106563164Y-99103111D01*
X106549500Y-99171805D01*
X106549500Y-99588194D01*
X106554049Y-99611063D01*
X106552570Y-99618497D01*
X106555471Y-99625500D01*
X106547210Y-99645441D01*
X106543000Y-99666612D01*
X106536697Y-99670823D01*
X106533797Y-99677826D01*
X106513854Y-99686086D01*
X106495908Y-99698078D01*
X106481471Y-99699500D01*
X106338529Y-99699500D01*
X106286203Y-99677826D01*
X106264529Y-99625500D01*
X106265951Y-99611063D01*
X106270500Y-99588194D01*
X106270500Y-99171805D01*
X106270500Y-99171804D01*
X106256836Y-99103112D01*
X106215408Y-99041112D01*
X106204359Y-98985564D01*
X106215409Y-98958887D01*
X106256836Y-98896888D01*
X106270500Y-98828196D01*
X106270500Y-98411804D01*
X106256836Y-98343112D01*
X106204786Y-98265214D01*
X106197493Y-98260341D01*
X106124396Y-98211499D01*
X106092930Y-98164407D01*
X106103979Y-98108858D01*
X106113177Y-98097649D01*
X106287653Y-97923174D01*
X106339979Y-97901500D01*
X106458935Y-97901500D01*
X106458936Y-97901500D01*
X106481848Y-97892009D01*
X106514252Y-97878588D01*
X107160665Y-97232173D01*
X107202744Y-97211213D01*
X107207843Y-97210500D01*
X107269936Y-97210500D01*
X107292848Y-97201009D01*
X107325252Y-97187588D01*
X107490665Y-97022172D01*
X107538735Y-97000621D01*
X107540853Y-97000499D01*
X107609898Y-97000499D01*
X107638054Y-96994899D01*
X107643183Y-96994604D01*
X107665442Y-97002357D01*
X107688552Y-97006954D01*
X107691557Y-97011452D01*
X107696669Y-97013233D01*
X107706926Y-97034453D01*
X107720017Y-97054046D01*
X107718961Y-97059352D01*
X107721317Y-97064226D01*
X107713565Y-97086482D01*
X107708968Y-97109594D01*
X107653164Y-97193111D01*
X107639500Y-97261805D01*
X107639500Y-97347008D01*
X107623227Y-97393307D01*
X107620690Y-97396469D01*
X107597278Y-97419882D01*
X107562412Y-97454748D01*
X107554128Y-97474749D01*
X107550091Y-97484493D01*
X107550089Y-97484497D01*
X107539500Y-97510062D01*
X107539500Y-97957293D01*
X107517826Y-98009619D01*
X107479937Y-98029871D01*
X107413112Y-98043164D01*
X107335214Y-98095213D01*
X107335213Y-98095214D01*
X107283164Y-98173111D01*
X107279563Y-98191213D01*
X107269500Y-98241804D01*
X107269500Y-98558196D01*
X107279454Y-98608237D01*
X107283164Y-98626888D01*
X107333468Y-98702174D01*
X107335214Y-98704786D01*
X107413112Y-98756836D01*
X107481804Y-98770500D01*
X107481806Y-98770500D01*
X107898194Y-98770500D01*
X107898196Y-98770500D01*
X107966888Y-98756836D01*
X108044786Y-98704786D01*
X108096836Y-98626888D01*
X108096837Y-98626882D01*
X108096964Y-98626577D01*
X108097204Y-98626336D01*
X108100885Y-98620828D01*
X108101979Y-98621559D01*
X108137006Y-98586522D01*
X108193643Y-98586514D01*
X108220852Y-98608839D01*
X108221455Y-98608237D01*
X108226609Y-98613391D01*
X108306161Y-98666546D01*
X108376312Y-98680500D01*
X108376314Y-98680500D01*
X108763686Y-98680500D01*
X108763688Y-98680500D01*
X108833839Y-98666546D01*
X108893889Y-98626421D01*
X108949436Y-98615372D01*
X108976108Y-98626420D01*
X109036161Y-98666546D01*
X109106312Y-98680500D01*
X109437009Y-98680500D01*
X109489335Y-98702174D01*
X109597952Y-98810791D01*
X109618699Y-98854648D01*
X109618791Y-98854630D01*
X109618863Y-98854995D01*
X109619269Y-98855852D01*
X109619500Y-98858194D01*
X109619500Y-98858196D01*
X109628579Y-98903839D01*
X109633164Y-98926888D01*
X109675649Y-98990472D01*
X109685214Y-99004786D01*
X109763112Y-99056836D01*
X109831804Y-99070500D01*
X109831806Y-99070500D01*
X110248194Y-99070500D01*
X110248196Y-99070500D01*
X110316888Y-99056836D01*
X110394786Y-99004786D01*
X110446836Y-98926888D01*
X110460500Y-98858196D01*
X110460500Y-98541804D01*
X110446836Y-98473112D01*
X110394786Y-98395214D01*
X110390044Y-98390472D01*
X110368370Y-98338146D01*
X110390044Y-98285820D01*
X110423216Y-98266668D01*
X110446832Y-98260341D01*
X110527668Y-98213671D01*
X110593671Y-98147668D01*
X110640341Y-98066832D01*
X110664499Y-97976673D01*
X110664500Y-97976673D01*
X110664500Y-97883327D01*
X110664499Y-97883326D01*
X110663229Y-97878588D01*
X110640341Y-97793168D01*
X110593671Y-97712332D01*
X110527668Y-97646329D01*
X110527667Y-97646328D01*
X110497499Y-97628910D01*
X110463021Y-97583977D01*
X110460500Y-97564825D01*
X110460500Y-97521805D01*
X110460500Y-97521804D01*
X110446836Y-97453112D01*
X110394786Y-97375214D01*
X110316888Y-97323164D01*
X110293840Y-97318579D01*
X110250063Y-97309871D01*
X110202971Y-97278405D01*
X110190500Y-97237293D01*
X110190500Y-96810063D01*
X110170212Y-96761085D01*
X110167587Y-96754748D01*
X109480487Y-96067648D01*
X109458813Y-96015322D01*
X109464636Y-95986549D01*
X109469847Y-95974200D01*
X109472457Y-95972457D01*
X109494669Y-95939213D01*
X109500500Y-95909899D01*
X109500499Y-95901571D01*
X109505935Y-95888693D01*
X109518704Y-95876092D01*
X109527160Y-95860269D01*
X109538106Y-95856946D01*
X109546249Y-95848912D01*
X109564187Y-95849031D01*
X109581356Y-95843821D01*
X109598281Y-95849258D01*
X109602885Y-95849289D01*
X109604977Y-95851409D01*
X109611109Y-95853379D01*
X109623168Y-95860341D01*
X109623170Y-95860342D01*
X109661081Y-95870500D01*
X109713326Y-95884499D01*
X109713327Y-95884500D01*
X109713329Y-95884500D01*
X109806673Y-95884500D01*
X109806673Y-95884499D01*
X109896832Y-95860341D01*
X109977668Y-95813671D01*
X110043671Y-95747668D01*
X110090341Y-95666832D01*
X110114499Y-95576673D01*
X110114500Y-95576673D01*
X110114500Y-95483327D01*
X110114499Y-95483326D01*
X110090341Y-95393168D01*
X110043671Y-95312332D01*
X109977668Y-95246329D01*
X109896243Y-95199319D01*
X109861765Y-95154386D01*
X109869157Y-95098233D01*
X109914089Y-95063755D01*
X109926832Y-95060341D01*
X110007668Y-95013671D01*
X110073671Y-94947668D01*
X110120341Y-94866832D01*
X110144499Y-94776673D01*
X110144500Y-94776673D01*
X110144500Y-94683327D01*
X110144499Y-94683326D01*
X110120341Y-94593168D01*
X110073671Y-94512332D01*
X110007667Y-94446328D01*
X109936656Y-94405331D01*
X109926832Y-94399659D01*
X109926831Y-94399658D01*
X109926832Y-94399658D01*
X109836673Y-94375500D01*
X109836671Y-94375500D01*
X109743329Y-94375500D01*
X109743327Y-94375500D01*
X109653168Y-94399658D01*
X109600733Y-94429931D01*
X109544580Y-94437323D01*
X109499648Y-94402844D01*
X109492256Y-94346691D01*
X109494490Y-94340107D01*
X109494667Y-94339215D01*
X109494669Y-94339213D01*
X109500500Y-94309899D01*
X109500499Y-94090102D01*
X109494669Y-94060787D01*
X109494668Y-94060785D01*
X109494223Y-94058547D01*
X109505274Y-94002998D01*
X109552367Y-93971533D01*
X109581237Y-93971533D01*
X109626312Y-93980500D01*
X109626314Y-93980500D01*
X110013686Y-93980500D01*
X110013688Y-93980500D01*
X110083839Y-93966546D01*
X110163391Y-93913391D01*
X110216546Y-93833839D01*
X110230500Y-93763688D01*
X110230500Y-93436312D01*
X110216546Y-93366161D01*
X110163391Y-93286609D01*
X110146765Y-93275500D01*
X110083839Y-93233454D01*
X110083834Y-93233453D01*
X110013688Y-93219500D01*
X109626312Y-93219500D01*
X109603035Y-93224129D01*
X109556162Y-93233453D01*
X109556161Y-93233454D01*
X109476609Y-93286609D01*
X109476608Y-93286610D01*
X109476607Y-93286611D01*
X109456562Y-93316612D01*
X109409470Y-93348078D01*
X109395033Y-93349500D01*
X108574499Y-93349500D01*
X108522173Y-93327826D01*
X108500499Y-93275500D01*
X108500499Y-93090102D01*
X108494668Y-93060784D01*
X108472459Y-93027545D01*
X108472456Y-93027542D01*
X108435236Y-93002674D01*
X108403768Y-92955583D01*
X108414816Y-92900034D01*
X108424017Y-92888821D01*
X108552532Y-92760305D01*
X108604857Y-92738632D01*
X108619284Y-92740052D01*
X108671804Y-92750500D01*
X108671807Y-92750500D01*
X108988194Y-92750500D01*
X108988196Y-92750500D01*
X109056888Y-92736836D01*
X109134786Y-92684786D01*
X109186836Y-92606888D01*
X109200500Y-92538196D01*
X109200500Y-92172991D01*
X109222174Y-92120665D01*
X109507586Y-91835253D01*
X109507587Y-91835252D01*
X109520222Y-91804748D01*
X109530500Y-91779936D01*
X109530500Y-91764627D01*
X109533089Y-91755098D01*
X109544827Y-91739909D01*
X109552174Y-91722173D01*
X109561530Y-91718297D01*
X109567723Y-91710285D01*
X109586763Y-91707845D01*
X109604500Y-91700499D01*
X109649898Y-91700499D01*
X109679213Y-91694669D01*
X109679217Y-91694665D01*
X109685027Y-91692260D01*
X109741665Y-91692260D01*
X109781714Y-91732307D01*
G37*
%TD.AperFunction*%
%TA.AperFunction,Conductor*%
G36*
X105482996Y-95604494D02*
G01*
X105504670Y-95656820D01*
X105503248Y-95671255D01*
X105499500Y-95690100D01*
X105499500Y-95909897D01*
X105505331Y-95939215D01*
X105527540Y-95972454D01*
X105527543Y-95972457D01*
X105560787Y-95994669D01*
X105587548Y-95999992D01*
X105634640Y-96031458D01*
X105644964Y-96083364D01*
X105646133Y-96083518D01*
X105645679Y-96086960D01*
X105645689Y-96087007D01*
X105645653Y-96087157D01*
X105645500Y-96088327D01*
X105645500Y-96181673D01*
X105669658Y-96271831D01*
X105701320Y-96326671D01*
X105716329Y-96352668D01*
X105782332Y-96418671D01*
X105863168Y-96465341D01*
X105863167Y-96465341D01*
X105915222Y-96479289D01*
X105953326Y-96489499D01*
X105953327Y-96489500D01*
X105953329Y-96489500D01*
X106046673Y-96489500D01*
X106046673Y-96489499D01*
X106136832Y-96465341D01*
X106217668Y-96418671D01*
X106283671Y-96352668D01*
X106330341Y-96271832D01*
X106340658Y-96233329D01*
X106354022Y-96183457D01*
X106388500Y-96138524D01*
X106444653Y-96131132D01*
X106489586Y-96165610D01*
X106499500Y-96202610D01*
X106499500Y-96714768D01*
X106477826Y-96767094D01*
X104736094Y-98508826D01*
X104683768Y-98530500D01*
X103894500Y-98530500D01*
X103842174Y-98508826D01*
X103820500Y-98456500D01*
X103820500Y-98446313D01*
X103813636Y-98411805D01*
X103806546Y-98376161D01*
X103753391Y-98296609D01*
X103741222Y-98288478D01*
X103673839Y-98243454D01*
X103658787Y-98240460D01*
X103603688Y-98229500D01*
X103416683Y-98229500D01*
X103364357Y-98207826D01*
X103342683Y-98155500D01*
X103355154Y-98114388D01*
X103361836Y-98104388D01*
X103375500Y-98035696D01*
X103375500Y-97719304D01*
X103361836Y-97650612D01*
X103309786Y-97572714D01*
X103297979Y-97564825D01*
X103231888Y-97520664D01*
X103163196Y-97507000D01*
X102746804Y-97507000D01*
X102731411Y-97510062D01*
X102676380Y-97521008D01*
X102620832Y-97509959D01*
X102589366Y-97462866D01*
X102587945Y-97448045D01*
X102588801Y-97286346D01*
X102610752Y-97234137D01*
X102663192Y-97212740D01*
X102677238Y-97214161D01*
X102678109Y-97214334D01*
X102678112Y-97214336D01*
X102746804Y-97228000D01*
X102746807Y-97228000D01*
X103163194Y-97228000D01*
X103163196Y-97228000D01*
X103231888Y-97214336D01*
X103309786Y-97162286D01*
X103361836Y-97084388D01*
X103375500Y-97015696D01*
X103375500Y-96699304D01*
X103361836Y-96630612D01*
X103347065Y-96608506D01*
X103336016Y-96552960D01*
X103356270Y-96515068D01*
X103373671Y-96497668D01*
X103420341Y-96416832D01*
X103444499Y-96326673D01*
X103444500Y-96326673D01*
X103444500Y-96245500D01*
X103466174Y-96193174D01*
X103518500Y-96171500D01*
X104778935Y-96171500D01*
X104778936Y-96171500D01*
X104793155Y-96165610D01*
X104805988Y-96160295D01*
X104805989Y-96160294D01*
X104834252Y-96148588D01*
X105378345Y-95604493D01*
X105430670Y-95582820D01*
X105482996Y-95604494D01*
G37*
%TD.AperFunction*%
%TA.AperFunction,Conductor*%
G36*
X108141110Y-93981522D02*
G01*
X108148514Y-93986468D01*
X108160787Y-93994669D01*
X108190101Y-94000500D01*
X108409898Y-94000499D01*
X108409899Y-94000499D01*
X108413127Y-93999857D01*
X108468676Y-94010906D01*
X108500142Y-94057998D01*
X108500143Y-94086865D01*
X108499500Y-94090098D01*
X108499500Y-94309897D01*
X108505331Y-94339215D01*
X108527540Y-94372454D01*
X108527543Y-94372457D01*
X108560787Y-94394669D01*
X108590101Y-94400500D01*
X109409898Y-94400499D01*
X109409900Y-94400499D01*
X109424011Y-94397692D01*
X109432132Y-94396077D01*
X109487681Y-94407126D01*
X109519146Y-94454219D01*
X109508456Y-94507959D01*
X109508754Y-94508131D01*
X109508248Y-94509006D01*
X109508097Y-94509768D01*
X109506615Y-94511835D01*
X109459658Y-94593168D01*
X109435500Y-94683326D01*
X109435500Y-94725500D01*
X109413826Y-94777826D01*
X109361500Y-94799500D01*
X108590102Y-94799500D01*
X108560784Y-94805331D01*
X108527545Y-94827540D01*
X108527542Y-94827543D01*
X108505331Y-94860786D01*
X108505330Y-94860788D01*
X108499500Y-94890102D01*
X108499500Y-95109897D01*
X108505331Y-95139215D01*
X108518477Y-95158890D01*
X108529525Y-95214439D01*
X108518478Y-95241108D01*
X108505332Y-95260783D01*
X108505330Y-95260788D01*
X108499500Y-95290102D01*
X108499500Y-95509897D01*
X108505331Y-95539215D01*
X108518477Y-95558890D01*
X108529525Y-95614439D01*
X108518478Y-95641108D01*
X108505332Y-95660783D01*
X108505330Y-95660788D01*
X108499500Y-95690102D01*
X108499500Y-95909901D01*
X108499501Y-95909904D01*
X108500144Y-95913138D01*
X108489087Y-95968685D01*
X108441990Y-96000144D01*
X108413132Y-96000143D01*
X108411689Y-95999856D01*
X108409899Y-95999500D01*
X108409898Y-95999500D01*
X108190102Y-95999500D01*
X108160785Y-96005331D01*
X108141108Y-96018478D01*
X108085559Y-96029524D01*
X108058889Y-96018477D01*
X108039214Y-96005331D01*
X108039211Y-96005330D01*
X108021559Y-96001819D01*
X108009899Y-95999500D01*
X108009897Y-95999500D01*
X107790102Y-95999500D01*
X107760785Y-96005331D01*
X107741108Y-96018478D01*
X107685559Y-96029524D01*
X107658889Y-96018477D01*
X107639214Y-96005331D01*
X107639211Y-96005330D01*
X107621559Y-96001819D01*
X107609899Y-95999500D01*
X107609897Y-95999500D01*
X107390102Y-95999500D01*
X107360785Y-96005331D01*
X107341108Y-96018478D01*
X107285559Y-96029524D01*
X107258889Y-96018477D01*
X107239214Y-96005331D01*
X107239211Y-96005330D01*
X107221559Y-96001819D01*
X107209899Y-95999500D01*
X107209897Y-95999500D01*
X106990102Y-95999500D01*
X106960785Y-96005331D01*
X106941108Y-96018478D01*
X106885559Y-96029524D01*
X106858889Y-96018477D01*
X106839214Y-96005331D01*
X106839211Y-96005330D01*
X106821559Y-96001819D01*
X106809899Y-95999500D01*
X106809897Y-95999500D01*
X106590099Y-95999500D01*
X106586859Y-96000145D01*
X106531312Y-95989086D01*
X106499854Y-95941988D01*
X106499857Y-95913126D01*
X106500500Y-95909899D01*
X106500499Y-95690102D01*
X106494669Y-95660787D01*
X106481522Y-95641110D01*
X106470474Y-95585561D01*
X106481523Y-95558888D01*
X106494669Y-95539213D01*
X106500500Y-95509899D01*
X106500499Y-95290102D01*
X106494669Y-95260787D01*
X106481522Y-95241110D01*
X106470474Y-95185561D01*
X106481523Y-95158888D01*
X106484531Y-95154386D01*
X106494669Y-95139213D01*
X106500500Y-95109899D01*
X106500499Y-94890102D01*
X106494669Y-94860787D01*
X106481522Y-94841110D01*
X106470474Y-94785561D01*
X106481523Y-94758888D01*
X106494669Y-94739213D01*
X106500500Y-94709899D01*
X106500499Y-94490102D01*
X106494669Y-94460787D01*
X106481522Y-94441110D01*
X106470474Y-94385561D01*
X106481523Y-94358888D01*
X106494669Y-94339213D01*
X106500500Y-94309899D01*
X106500499Y-94090102D01*
X106499856Y-94086869D01*
X106510907Y-94031321D01*
X106558000Y-93999856D01*
X106586873Y-93999857D01*
X106590101Y-94000500D01*
X106809898Y-94000499D01*
X106839213Y-93994669D01*
X106858888Y-93981522D01*
X106914437Y-93970474D01*
X106941110Y-93981522D01*
X106948514Y-93986468D01*
X106960787Y-93994669D01*
X106990101Y-94000500D01*
X107209898Y-94000499D01*
X107239213Y-93994669D01*
X107258888Y-93981522D01*
X107314437Y-93970474D01*
X107341110Y-93981522D01*
X107348514Y-93986468D01*
X107360787Y-93994669D01*
X107390101Y-94000500D01*
X107609898Y-94000499D01*
X107639213Y-93994669D01*
X107658888Y-93981522D01*
X107714437Y-93970474D01*
X107741110Y-93981522D01*
X107748514Y-93986468D01*
X107760787Y-93994669D01*
X107790101Y-94000500D01*
X108009898Y-94000499D01*
X108039213Y-93994669D01*
X108058888Y-93981522D01*
X108073323Y-93978651D01*
X108085561Y-93970474D01*
X108099999Y-93973345D01*
X108114437Y-93970474D01*
X108141110Y-93981522D01*
G37*
%TD.AperFunction*%
%TA.AperFunction,Conductor*%
G36*
X105423797Y-90322174D02*
G01*
X105445471Y-90374500D01*
X105444049Y-90388937D01*
X105439500Y-90411805D01*
X105439500Y-90828194D01*
X105453164Y-90896888D01*
X105502059Y-90970065D01*
X105505214Y-90974786D01*
X105583112Y-91026836D01*
X105583111Y-91026836D01*
X105587350Y-91027679D01*
X105597506Y-91029699D01*
X105644599Y-91061164D01*
X105654549Y-91083124D01*
X105679658Y-91176831D01*
X105716007Y-91239789D01*
X105726329Y-91257668D01*
X105792332Y-91323671D01*
X105873168Y-91370341D01*
X105873167Y-91370341D01*
X105925222Y-91384289D01*
X105963326Y-91394499D01*
X105963327Y-91394500D01*
X105963329Y-91394500D01*
X106056673Y-91394500D01*
X106056673Y-91394499D01*
X106146832Y-91370341D01*
X106227668Y-91323671D01*
X106293671Y-91257668D01*
X106340341Y-91176832D01*
X106364499Y-91086673D01*
X106364500Y-91086673D01*
X106364500Y-90994169D01*
X106364500Y-90993329D01*
X106340341Y-90903168D01*
X106293671Y-90822332D01*
X106227668Y-90756329D01*
X106217496Y-90750456D01*
X106183020Y-90705521D01*
X106180500Y-90686372D01*
X106180500Y-90411805D01*
X106175951Y-90388937D01*
X106177429Y-90381502D01*
X106174529Y-90374500D01*
X106182789Y-90354558D01*
X106187000Y-90333388D01*
X106193302Y-90329176D01*
X106196203Y-90322174D01*
X106216145Y-90313913D01*
X106234092Y-90301922D01*
X106248529Y-90300500D01*
X106391471Y-90300500D01*
X106443797Y-90322174D01*
X106465471Y-90374500D01*
X106464049Y-90388933D01*
X106459500Y-90411804D01*
X106459500Y-90828196D01*
X106473164Y-90896888D01*
X106502691Y-90941079D01*
X106502692Y-90941080D01*
X106522059Y-90970065D01*
X106525214Y-90974786D01*
X106603112Y-91026836D01*
X106671804Y-91040500D01*
X106671806Y-91040500D01*
X106988192Y-91040500D01*
X106988196Y-91040500D01*
X106990651Y-91040011D01*
X106991481Y-91040176D01*
X106991812Y-91040144D01*
X106991821Y-91040244D01*
X106998088Y-91041489D01*
X107005097Y-91038587D01*
X107025032Y-91046845D01*
X107046199Y-91051052D01*
X107057422Y-91060262D01*
X107104087Y-91106928D01*
X107125761Y-91159254D01*
X107120129Y-91187570D01*
X107114981Y-91199999D01*
X107107990Y-91216877D01*
X107103572Y-91227545D01*
X107098500Y-91239789D01*
X107098500Y-91494551D01*
X107076826Y-91546877D01*
X107024500Y-91568551D01*
X106987500Y-91558637D01*
X106892190Y-91503610D01*
X106892181Y-91503606D01*
X106764894Y-91469500D01*
X106764892Y-91469500D01*
X106633108Y-91469500D01*
X106633106Y-91469500D01*
X106505818Y-91503606D01*
X106505809Y-91503610D01*
X106391685Y-91569500D01*
X106298500Y-91662685D01*
X106232610Y-91776809D01*
X106232606Y-91776818D01*
X106198500Y-91904105D01*
X106198500Y-92035894D01*
X106232606Y-92163181D01*
X106232610Y-92163190D01*
X106267529Y-92223671D01*
X106298500Y-92277314D01*
X106391686Y-92370500D01*
X106505814Y-92436392D01*
X106633105Y-92470499D01*
X106633106Y-92470500D01*
X106633108Y-92470500D01*
X106764894Y-92470500D01*
X106764894Y-92470499D01*
X106892186Y-92436392D01*
X107006314Y-92370500D01*
X107098174Y-92278640D01*
X107150500Y-92256966D01*
X107202826Y-92278640D01*
X107224500Y-92330966D01*
X107224500Y-92925500D01*
X107202826Y-92977826D01*
X107150500Y-92999500D01*
X106990102Y-92999500D01*
X106960785Y-93005331D01*
X106941108Y-93018478D01*
X106885559Y-93029524D01*
X106858889Y-93018477D01*
X106839214Y-93005331D01*
X106839211Y-93005330D01*
X106821559Y-93001819D01*
X106809899Y-92999500D01*
X106809897Y-92999500D01*
X106590102Y-92999500D01*
X106560784Y-93005331D01*
X106527545Y-93027540D01*
X106527542Y-93027543D01*
X106505331Y-93060786D01*
X106505330Y-93060788D01*
X106502639Y-93074320D01*
X106499781Y-93088691D01*
X106499500Y-93090102D01*
X106499500Y-93909901D01*
X106499501Y-93909904D01*
X106500144Y-93913138D01*
X106489087Y-93968685D01*
X106441990Y-94000144D01*
X106413132Y-94000143D01*
X106411689Y-93999856D01*
X106409899Y-93999500D01*
X106409898Y-93999500D01*
X105590102Y-93999500D01*
X105560784Y-94005331D01*
X105527545Y-94027540D01*
X105527260Y-94027826D01*
X105526887Y-94027980D01*
X105521482Y-94031592D01*
X105520763Y-94030516D01*
X105474934Y-94049500D01*
X105182991Y-94049500D01*
X105130665Y-94027826D01*
X104968731Y-93865892D01*
X104829984Y-93727144D01*
X104808311Y-93674820D01*
X104829984Y-93622495D01*
X105449588Y-93002892D01*
X105459368Y-92979277D01*
X105461041Y-92975239D01*
X105461043Y-92975233D01*
X105464112Y-92967826D01*
X105472500Y-92947577D01*
X105472500Y-91998738D01*
X105455331Y-91957289D01*
X105449587Y-91943422D01*
X105076769Y-91570605D01*
X105067621Y-91559457D01*
X105067588Y-91559424D01*
X105067588Y-91559423D01*
X104503015Y-90994850D01*
X104481341Y-90942524D01*
X104493813Y-90901411D01*
X104496836Y-90896888D01*
X104510500Y-90828196D01*
X104510500Y-90411804D01*
X104505951Y-90388936D01*
X104517000Y-90333388D01*
X104564092Y-90301922D01*
X104578529Y-90300500D01*
X105371471Y-90300500D01*
X105423797Y-90322174D01*
G37*
%TD.AperFunction*%
%TA.AperFunction,Conductor*%
G36*
X110565850Y-90837508D02*
G01*
X112171727Y-92122209D01*
X112199047Y-92171820D01*
X112199500Y-92179992D01*
X112199500Y-92377598D01*
X112177826Y-92429924D01*
X112125500Y-92451598D01*
X112073174Y-92429924D01*
X112070763Y-92427265D01*
X112069466Y-92425968D01*
X112069464Y-92425965D01*
X111944035Y-92300536D01*
X111878828Y-92256966D01*
X111796544Y-92201985D01*
X111632670Y-92134107D01*
X111632660Y-92134104D01*
X111516156Y-92110930D01*
X111458691Y-92099500D01*
X111281309Y-92099500D01*
X111232413Y-92109226D01*
X111107339Y-92134104D01*
X111107329Y-92134107D01*
X110990105Y-92182662D01*
X110975386Y-92182662D01*
X110961787Y-92188295D01*
X110948188Y-92182662D01*
X110933468Y-92182662D01*
X110909461Y-92166621D01*
X110881939Y-92139099D01*
X110860265Y-92086773D01*
X110874330Y-92046781D01*
X110872765Y-92045763D01*
X110874740Y-92042722D01*
X110874746Y-92042716D01*
X110895351Y-92002978D01*
X110900475Y-91943326D01*
X110882380Y-91886254D01*
X110882378Y-91886252D01*
X110882378Y-91886251D01*
X110858316Y-91857667D01*
X110853553Y-91852009D01*
X110832710Y-91835335D01*
X110497795Y-91567410D01*
X110470475Y-91517798D01*
X110470929Y-91507224D01*
X110470500Y-91507224D01*
X110470500Y-90970065D01*
X110470500Y-90970064D01*
X110451257Y-90923611D01*
X110451257Y-90866976D01*
X110491305Y-90826926D01*
X110547942Y-90826925D01*
X110565850Y-90837508D01*
G37*
%TD.AperFunction*%
%TA.AperFunction,Conductor*%
G36*
X109795659Y-90688499D02*
G01*
X110147826Y-91040665D01*
X110169500Y-91092991D01*
X110169500Y-91231500D01*
X110147826Y-91283826D01*
X110095500Y-91305500D01*
X110083327Y-91305500D01*
X109993168Y-91329658D01*
X109912332Y-91376328D01*
X109912328Y-91376331D01*
X109866824Y-91421835D01*
X109814498Y-91443509D01*
X109762173Y-91421834D01*
X109740499Y-91369509D01*
X109740499Y-91290102D01*
X109734668Y-91260784D01*
X109712459Y-91227545D01*
X109712456Y-91227542D01*
X109679213Y-91205331D01*
X109679211Y-91205330D01*
X109661559Y-91201819D01*
X109649899Y-91199500D01*
X109649897Y-91199500D01*
X109110102Y-91199500D01*
X109080784Y-91205331D01*
X109068712Y-91213398D01*
X109013163Y-91224447D01*
X108966072Y-91192980D01*
X108955023Y-91137432D01*
X108960500Y-91109899D01*
X108960499Y-90790102D01*
X108960499Y-90790098D01*
X108955023Y-90762565D01*
X108966073Y-90707016D01*
X109013166Y-90675552D01*
X109068711Y-90686600D01*
X109080787Y-90694669D01*
X109110101Y-90700500D01*
X109649898Y-90700499D01*
X109679213Y-90694669D01*
X109702221Y-90679295D01*
X109757770Y-90668247D01*
X109795659Y-90688499D01*
G37*
%TD.AperFunction*%
%TA.AperFunction,Conductor*%
G36*
X108217826Y-90322174D02*
G01*
X108239500Y-90374500D01*
X108239500Y-90457007D01*
X108217826Y-90509333D01*
X108071411Y-90655748D01*
X108061466Y-90679760D01*
X108059089Y-90685500D01*
X108048500Y-90711064D01*
X108048500Y-90736372D01*
X108046632Y-90744529D01*
X108034705Y-90761310D01*
X108026826Y-90780334D01*
X107870334Y-90936826D01*
X107818008Y-90958500D01*
X107411991Y-90958500D01*
X107359665Y-90936826D01*
X107222174Y-90799334D01*
X107200500Y-90747008D01*
X107200500Y-90411805D01*
X107195951Y-90388937D01*
X107207000Y-90333388D01*
X107254092Y-90301922D01*
X107268529Y-90300500D01*
X108165500Y-90300500D01*
X108217826Y-90322174D01*
G37*
%TD.AperFunction*%
%TD*%
%TA.AperFunction,Conductor*%
%TO.N,/OUTB*%
G36*
X101535648Y-95089352D02*
G01*
X101550000Y-95124000D01*
X101550000Y-95351000D01*
X101535648Y-95385648D01*
X101501000Y-95400000D01*
X100900000Y-95400000D01*
X100900000Y-96000000D01*
X102146886Y-97887716D01*
X102155000Y-97914721D01*
X102155000Y-98299119D01*
X102146742Y-98326342D01*
X102113452Y-98376163D01*
X102099500Y-98446306D01*
X102099500Y-98833693D01*
X102113452Y-98903836D01*
X102113453Y-98903838D01*
X102113454Y-98903839D01*
X102146742Y-98953658D01*
X102155000Y-98980880D01*
X102155000Y-99650500D01*
X102140648Y-99685148D01*
X102106000Y-99699500D01*
X100349500Y-99699500D01*
X100314852Y-99685148D01*
X100300500Y-99650500D01*
X100300500Y-95124000D01*
X100314852Y-95089352D01*
X100349500Y-95075000D01*
X101501000Y-95075000D01*
X101535648Y-95089352D01*
G37*
%TD.AperFunction*%
%TD*%
%TA.AperFunction,Conductor*%
%TO.N,/OUTA*%
G36*
X102185648Y-90314852D02*
G01*
X102200000Y-90349500D01*
X102200000Y-90965779D01*
X102185648Y-91000427D01*
X102178225Y-91006520D01*
X102165213Y-91015214D01*
X102165211Y-91015216D01*
X102113163Y-91093113D01*
X102099500Y-91161800D01*
X102099500Y-91478199D01*
X102113163Y-91546886D01*
X102113163Y-91546887D01*
X102113164Y-91546888D01*
X102165214Y-91624786D01*
X102178222Y-91633478D01*
X102199058Y-91664659D01*
X102200000Y-91674220D01*
X102200000Y-91985779D01*
X102185648Y-92020427D01*
X102178225Y-92026520D01*
X102165213Y-92035214D01*
X102165211Y-92035216D01*
X102113163Y-92113113D01*
X102099500Y-92181800D01*
X102099500Y-92328430D01*
X102090668Y-92356493D01*
X101882437Y-92654549D01*
X101850829Y-92674733D01*
X101814206Y-92666654D01*
X101799836Y-92650988D01*
X101786894Y-92628572D01*
X101693708Y-92535386D01*
X101579582Y-92469494D01*
X101579578Y-92469493D01*
X101452289Y-92435386D01*
X101452286Y-92435386D01*
X101320502Y-92435386D01*
X101320499Y-92435386D01*
X101193209Y-92469493D01*
X101193205Y-92469494D01*
X101079079Y-92535386D01*
X101079079Y-92535387D01*
X100985895Y-92628571D01*
X100985894Y-92628571D01*
X100920002Y-92742697D01*
X100920001Y-92742701D01*
X100885894Y-92869990D01*
X100885894Y-92987441D01*
X100871542Y-93022089D01*
X100864117Y-93028183D01*
X100806608Y-93066608D01*
X100753452Y-93146163D01*
X100739500Y-93216306D01*
X100739500Y-93603693D01*
X100753452Y-93673836D01*
X100806608Y-93753391D01*
X100859524Y-93788748D01*
X100886161Y-93806546D01*
X100886163Y-93806547D01*
X100956306Y-93820499D01*
X100956312Y-93820500D01*
X100973862Y-93820500D01*
X100987503Y-93826150D01*
X101001925Y-93829332D01*
X101004349Y-93833128D01*
X101008510Y-93834852D01*
X101014160Y-93848493D01*
X101022109Y-93860941D01*
X101021138Y-93865339D01*
X101022862Y-93869500D01*
X101014030Y-93897563D01*
X100966168Y-93966070D01*
X100944754Y-93983276D01*
X100923978Y-93991883D01*
X100923968Y-93991887D01*
X100909229Y-93999397D01*
X100866883Y-94048978D01*
X100852531Y-94083626D01*
X100849374Y-94099500D01*
X100844500Y-94124002D01*
X100844500Y-94296832D01*
X100848093Y-94324135D01*
X100854660Y-94348640D01*
X100855408Y-94351291D01*
X100892334Y-94405024D01*
X100892337Y-94405027D01*
X100905830Y-94415381D01*
X100924581Y-94447860D01*
X100925000Y-94454255D01*
X100925000Y-94600000D01*
X101501000Y-94600000D01*
X101535648Y-94614352D01*
X101550000Y-94649000D01*
X101550000Y-94851000D01*
X101535648Y-94885648D01*
X101501000Y-94900000D01*
X100349500Y-94900000D01*
X100314852Y-94885648D01*
X100300500Y-94851000D01*
X100300500Y-90349500D01*
X100314852Y-90314852D01*
X100349500Y-90300500D01*
X102151000Y-90300500D01*
X102185648Y-90314852D01*
G37*
%TD.AperFunction*%
%TD*%
%TA.AperFunction,Conductor*%
%TO.N,/VSYS*%
G36*
X101417944Y-93267066D02*
G01*
X101679447Y-93458523D01*
X101698924Y-93490570D01*
X101699500Y-93498058D01*
X101699500Y-93603693D01*
X101713452Y-93673836D01*
X101766609Y-93753392D01*
X101769827Y-93756610D01*
X101784179Y-93791258D01*
X101776731Y-93817228D01*
X101600000Y-94100000D01*
X101600000Y-94351000D01*
X101585648Y-94385648D01*
X101551000Y-94400000D01*
X101107156Y-94400000D01*
X101082656Y-94393435D01*
X101006834Y-94349660D01*
X101006831Y-94349658D01*
X100986316Y-94344161D01*
X100956564Y-94321330D01*
X100950000Y-94296831D01*
X100950000Y-94124000D01*
X100964352Y-94089352D01*
X100999000Y-94075000D01*
X101049999Y-94075000D01*
X101050000Y-94075000D01*
X101340000Y-93440000D01*
X101340000Y-93306603D01*
X101354352Y-93271955D01*
X101389000Y-93257603D01*
X101417944Y-93267066D01*
G37*
%TD.AperFunction*%
%TD*%
M02*
