%TF.GenerationSoftware,KiCad,Pcbnew,9.0.6*%
%TF.CreationDate,2025-12-22T15:01:52-08:00*%
%TF.ProjectId,sg90-prod-ch32v006,73673930-2d70-4726-9f64-2d6368333276,rev?*%
%TF.SameCoordinates,Original*%
%TF.FileFunction,Copper,L6,Bot*%
%TF.FilePolarity,Positive*%
%FSLAX46Y46*%
G04 Gerber Fmt 4.6, Leading zero omitted, Abs format (unit mm)*
G04 Created by KiCad (PCBNEW 9.0.6) date 2025-12-22 15:01:52*
%MOMM*%
%LPD*%
G01*
G04 APERTURE LIST*
G04 Aperture macros list*
%AMRoundRect*
0 Rectangle with rounded corners*
0 $1 Rounding radius*
0 $2 $3 $4 $5 $6 $7 $8 $9 X,Y pos of 4 corners*
0 Add a 4 corners polygon primitive as box body*
4,1,4,$2,$3,$4,$5,$6,$7,$8,$9,$2,$3,0*
0 Add four circle primitives for the rounded corners*
1,1,$1+$1,$2,$3*
1,1,$1+$1,$4,$5*
1,1,$1+$1,$6,$7*
1,1,$1+$1,$8,$9*
0 Add four rect primitives between the rounded corners*
20,1,$1+$1,$2,$3,$4,$5,0*
20,1,$1+$1,$4,$5,$6,$7,0*
20,1,$1+$1,$6,$7,$8,$9,0*
20,1,$1+$1,$8,$9,$2,$3,0*%
G04 Aperture macros list end*
%TA.AperFunction,EtchedComponent*%
%ADD10C,0.100000*%
%TD*%
%TA.AperFunction,ComponentPad*%
%ADD11RoundRect,0.250000X-0.650000X0.650000X-0.650000X-0.650000X0.650000X-0.650000X0.650000X0.650000X0*%
%TD*%
%TA.AperFunction,SMDPad,CuDef*%
%ADD12RoundRect,0.250000X0.625000X-0.312500X0.625000X0.312500X-0.625000X0.312500X-0.625000X-0.312500X0*%
%TD*%
%TA.AperFunction,SMDPad,CuDef*%
%ADD13RoundRect,0.150000X0.587500X0.150000X-0.587500X0.150000X-0.587500X-0.150000X0.587500X-0.150000X0*%
%TD*%
%TA.AperFunction,SMDPad,CuDef*%
%ADD14RoundRect,0.218750X0.218750X0.256250X-0.218750X0.256250X-0.218750X-0.256250X0.218750X-0.256250X0*%
%TD*%
%TA.AperFunction,SMDPad,CuDef*%
%ADD15C,0.100000*%
%TD*%
%TA.AperFunction,SMDPad,CuDef*%
%ADD16C,1.000000*%
%TD*%
%TA.AperFunction,ComponentPad*%
%ADD17C,1.600000*%
%TD*%
%TA.AperFunction,SMDPad,CuDef*%
%ADD18RoundRect,0.225000X0.225000X0.250000X-0.225000X0.250000X-0.225000X-0.250000X0.225000X-0.250000X0*%
%TD*%
%TA.AperFunction,ComponentPad*%
%ADD19C,1.800000*%
%TD*%
%TA.AperFunction,SMDPad,CuDef*%
%ADD20C,1.800000*%
%TD*%
%TA.AperFunction,SMDPad,CuDef*%
%ADD21R,0.600000X1.000000*%
%TD*%
%TA.AperFunction,SMDPad,CuDef*%
%ADD22RoundRect,0.225000X-0.225000X-0.250000X0.225000X-0.250000X0.225000X0.250000X-0.225000X0.250000X0*%
%TD*%
%TA.AperFunction,ViaPad*%
%ADD23C,0.450000*%
%TD*%
%TA.AperFunction,ViaPad*%
%ADD24C,0.600000*%
%TD*%
%TA.AperFunction,ViaPad*%
%ADD25C,0.800000*%
%TD*%
%TA.AperFunction,Conductor*%
%ADD26C,0.100000*%
%TD*%
%TA.AperFunction,Conductor*%
%ADD27C,0.090000*%
%TD*%
%TA.AperFunction,Conductor*%
%ADD28C,0.300000*%
%TD*%
%TA.AperFunction,Conductor*%
%ADD29C,0.200000*%
%TD*%
G04 APERTURE END LIST*
D10*
%TO.C,NT2*%
X103070000Y-93990000D02*
X103270000Y-93990000D01*
%TO.C,NT3*%
X103050000Y-96860000D02*
X103250000Y-96860000D01*
%TD*%
D11*
%TO.P,J2,1,Pin_1*%
%TO.N,/OUTA*%
X101200000Y-91200000D03*
%TO.P,J2,2,Pin_2*%
%TO.N,/OUTB*%
X101200000Y-98800000D03*
%TD*%
D12*
%TO.P,R4,1*%
%TO.N,GND*%
X102215000Y-97225000D03*
%TO.P,R4,2*%
%TO.N,PGND*%
X102215000Y-94300000D03*
%TD*%
D13*
%TO.P,Q1,1,G*%
%TO.N,GND*%
X109247500Y-90710000D03*
%TO.P,Q1,2,S*%
%TO.N,VIN*%
X109247500Y-92610000D03*
%TO.P,Q1,3,D*%
%TO.N,/VSYS*%
X107372500Y-91660000D03*
%TD*%
D14*
%TO.P,FB1,1*%
%TO.N,+3.3V*%
X104227500Y-90780000D03*
%TO.P,FB1,2*%
%TO.N,/3V3_DRV*%
X102652500Y-90780000D03*
%TD*%
D15*
%TO.P,NT2,1,1*%
%TO.N,/ISNS+*%
X103270000Y-93990000D03*
%TO.P,NT2,2,2*%
%TO.N,PGND*%
X103070000Y-93990000D03*
%TD*%
D16*
%TO.P,J3,1,Pin_1*%
%TO.N,+3.3V*%
X106000000Y-93595000D03*
%TO.P,J3,2,Pin_2*%
%TO.N,GND*%
X106000000Y-94865000D03*
%TO.P,J3,3,Pin_3*%
%TO.N,/SWDIO*%
X106000000Y-96135000D03*
%TO.P,J3,4,Pin_4*%
%TO.N,/nRST*%
X106000000Y-97405000D03*
%TD*%
D17*
%TO.P,J1,1,Pin_1*%
%TO.N,GND*%
X111370000Y-97000000D03*
%TO.P,J1,2,Pin_2*%
%TO.N,VIN*%
X111370000Y-95000000D03*
%TO.P,J1,3,Pin_3*%
%TO.N,/DATA*%
X111370000Y-93000000D03*
%TD*%
D18*
%TO.P,C1,1*%
%TO.N,/VSYS*%
X106765000Y-99225000D03*
%TO.P,C1,2*%
%TO.N,GND*%
X105215000Y-99225000D03*
%TD*%
D19*
%TO.P,J4,1,Pin_1*%
%TO.N,+3.3V*%
X104300000Y-92450000D03*
D20*
X104300000Y-92450000D03*
D19*
%TO.P,J4,2,Pin_2*%
%TO.N,/POT*%
X104300000Y-94990000D03*
D20*
X104300000Y-94990000D03*
D19*
%TO.P,J4,3,Pin_3*%
%TO.N,GND*%
X104300000Y-97530000D03*
D20*
X104300000Y-97530000D03*
%TD*%
D21*
%TO.P,U1,1,VIN*%
%TO.N,/VSYS*%
X109520000Y-99190000D03*
%TO.P,U1,2,GND*%
%TO.N,GND*%
X108570000Y-99190000D03*
%TO.P,U1,3,EN*%
%TO.N,/VSYS*%
X107620000Y-99190000D03*
%TO.P,U1,4,NC*%
%TO.N,unconnected-(U1-NC-Pad4)*%
X107620000Y-96990000D03*
%TO.P,U1,5,VOUT*%
%TO.N,+3.3V*%
X109520000Y-96990000D03*
%TD*%
D15*
%TO.P,NT3,1,1*%
%TO.N,/ISNS-*%
X103250000Y-96860000D03*
%TO.P,NT3,2,2*%
%TO.N,GND*%
X103050000Y-96860000D03*
%TD*%
D22*
%TO.P,C8,1*%
%TO.N,/VSYS*%
X101330000Y-93160000D03*
%TO.P,C8,2*%
%TO.N,PGND*%
X102880000Y-93160000D03*
%TD*%
D23*
%TO.N,GND*%
X106640000Y-98190000D03*
D24*
X106090000Y-92630000D03*
D23*
X105050000Y-90950000D03*
X109690000Y-90950000D03*
X107570000Y-90580000D03*
%TO.N,+3.3V*%
X106010000Y-91040000D03*
%TO.N,/DATA*%
X110130000Y-91660000D03*
X108610000Y-91640000D03*
%TO.N,GND*%
X102480000Y-98640000D03*
X107500000Y-94330000D03*
X110826044Y-91382431D03*
X106830000Y-94990000D03*
X108570000Y-99190000D03*
X107500000Y-95670000D03*
X106830000Y-94330000D03*
X107500000Y-94990000D03*
X105160000Y-99380000D03*
X108170000Y-94990000D03*
X108170000Y-94330000D03*
X108170000Y-95670000D03*
X106830000Y-95670000D03*
%TO.N,/nRST*%
X110310000Y-97930000D03*
%TO.N,PGND*%
X102520000Y-92340000D03*
X101980000Y-95600000D03*
X102470000Y-95010000D03*
X101980000Y-95010000D03*
X101980000Y-94410000D03*
X102740000Y-93400000D03*
X102470000Y-95600000D03*
X102470000Y-94410000D03*
%TO.N,/POT*%
X103090000Y-96280000D03*
%TO.N,/OUTB*%
X100780000Y-95400000D03*
X100525000Y-96443965D03*
X100525000Y-95865620D03*
%TO.N,/OUTA*%
X100540000Y-93850000D03*
X100870000Y-94680000D03*
X100525000Y-94376649D03*
%TO.N,/ISNS+*%
X108480000Y-96740000D03*
X109790000Y-94730000D03*
%TO.N,/SWDIO*%
X106000000Y-96135000D03*
%TO.N,/ISNS-*%
X109760000Y-95530000D03*
%TO.N,+3.3V*%
X109820000Y-93600000D03*
X109520000Y-97160000D03*
%TO.N,/3V3_DRV*%
X103120000Y-91940000D03*
D25*
%TO.N,/VSYS*%
X106699000Y-91970000D03*
D23*
X108570000Y-98300000D03*
D25*
X101386394Y-92935886D03*
D23*
X106920000Y-99380000D03*
%TO.N,+3.3V*%
X107810000Y-92330000D03*
%TD*%
D26*
%TO.N,/DATA*%
X108610000Y-91640000D02*
X108800000Y-91450000D01*
X108800000Y-91450000D02*
X109920000Y-91450000D01*
X109920000Y-91450000D02*
X110130000Y-91660000D01*
%TO.N,/nRST*%
X106105000Y-97510000D02*
X106000000Y-97405000D01*
X109961000Y-97581000D02*
X109961000Y-97631000D01*
X109079000Y-97510000D02*
X108061000Y-97510000D01*
X108061000Y-97510000D02*
X108061000Y-97631000D01*
X108061000Y-97631000D02*
X107179000Y-97631000D01*
X109079000Y-97631000D02*
X109079000Y-97510000D01*
X107179000Y-97631000D02*
X107179000Y-97510000D01*
X109961000Y-97631000D02*
X109079000Y-97631000D01*
X110310000Y-97930000D02*
X109961000Y-97581000D01*
X107179000Y-97510000D02*
X106105000Y-97510000D01*
%TO.N,/POT*%
X103090000Y-96200000D02*
X104300000Y-94990000D01*
X103090000Y-96280000D02*
X103090000Y-96200000D01*
D27*
%TO.N,/ISNS+*%
X105735560Y-94230000D02*
X106364314Y-94230000D01*
X108990000Y-93930000D02*
X109790000Y-94730000D01*
X110260000Y-95595686D02*
X109501686Y-96354000D01*
D26*
X103270000Y-93990000D02*
X103670000Y-93990000D01*
D27*
X105315560Y-93810000D02*
X105735560Y-94230000D01*
X108866000Y-96354000D02*
X108480000Y-96740000D01*
X103850000Y-93810000D02*
X105315560Y-93810000D01*
X106364314Y-94230000D02*
X106664314Y-93930000D01*
X109501686Y-96354000D02*
X108866000Y-96354000D01*
X109790000Y-94730000D02*
X110260000Y-95200000D01*
X110260000Y-95200000D02*
X110260000Y-95595686D01*
X106664314Y-93930000D02*
X108990000Y-93930000D01*
D26*
X103670000Y-93990000D02*
X103850000Y-93810000D01*
%TO.N,/ISNS-*%
X109760000Y-95530000D02*
X109750000Y-95520000D01*
D27*
X109730000Y-95500000D02*
X109760000Y-95530000D01*
X103780000Y-96330000D02*
X104970000Y-96330000D01*
X104970000Y-96330000D02*
X105410000Y-96770000D01*
X107468000Y-96070000D02*
X109220000Y-96070000D01*
X103250000Y-96860000D02*
X103780000Y-96330000D01*
X106768000Y-96770000D02*
X107468000Y-96070000D01*
X109220000Y-96070000D02*
X109760000Y-95530000D01*
X105410000Y-96770000D02*
X106768000Y-96770000D01*
D28*
%TO.N,+3.3V*%
X104855000Y-92450000D02*
X104300000Y-92450000D01*
D26*
X104300000Y-92450000D02*
X104300000Y-90852500D01*
D28*
X105067500Y-92662500D02*
X104855000Y-92450000D01*
X106000000Y-93595000D02*
X105067500Y-92662500D01*
D26*
X104300000Y-90852500D02*
X104217500Y-90770000D01*
D29*
X109520000Y-96990000D02*
X109520000Y-97160000D01*
D26*
%TO.N,/3V3_DRV*%
X103120000Y-91940000D02*
X103120000Y-91570000D01*
X103120000Y-91570000D02*
X102642500Y-91092500D01*
X102642500Y-91092500D02*
X102642500Y-90770000D01*
D28*
%TO.N,/VSYS*%
X108570000Y-98300000D02*
X107340000Y-98300000D01*
D29*
X108990000Y-98300000D02*
X109520000Y-98830000D01*
D28*
X107340000Y-98300000D02*
X106765000Y-98875000D01*
X106765000Y-98875000D02*
X106765000Y-99225000D01*
D29*
X109520000Y-98830000D02*
X109520000Y-99190000D01*
X108230000Y-98300000D02*
X107620000Y-98910000D01*
D26*
X109540152Y-99169848D02*
X109520000Y-99190000D01*
D29*
X108570000Y-98300000D02*
X108230000Y-98300000D01*
X108570000Y-98300000D02*
X108990000Y-98300000D01*
X107620000Y-98910000D02*
X107620000Y-99190000D01*
%TO.N,unconnected-(U1-NC-Pad4)*%
X107600000Y-97300000D02*
X107600000Y-97200000D01*
%TD*%
%TA.AperFunction,Conductor*%
%TO.N,VIN*%
G36*
X110003640Y-92314352D02*
G01*
X110013275Y-92328024D01*
X110899999Y-94199999D01*
X110900000Y-94200000D01*
X111351000Y-94200000D01*
X111385648Y-94214352D01*
X111400000Y-94249000D01*
X111400000Y-95732016D01*
X111385648Y-95766664D01*
X111351000Y-95781016D01*
X111335505Y-95778501D01*
X110819662Y-95606554D01*
X110791330Y-95581983D01*
X110791054Y-95581420D01*
X110007271Y-93953564D01*
X110005172Y-93916123D01*
X110026922Y-93889874D01*
X110037668Y-93883671D01*
X110103671Y-93817668D01*
X110150341Y-93736832D01*
X110174500Y-93646671D01*
X110174500Y-93553329D01*
X110174500Y-93553327D01*
X110162420Y-93508248D01*
X110150341Y-93463168D01*
X110103671Y-93382332D01*
X110037668Y-93316329D01*
X110037666Y-93316328D01*
X110037664Y-93316326D01*
X109993636Y-93290907D01*
X109956832Y-93269659D01*
X109956829Y-93269658D01*
X109866673Y-93245500D01*
X109866671Y-93245500D01*
X109773329Y-93245500D01*
X109773326Y-93245500D01*
X109717793Y-93260380D01*
X109680611Y-93255485D01*
X109660963Y-93234308D01*
X109500000Y-92900000D01*
X108549000Y-92900000D01*
X108514352Y-92885648D01*
X108500000Y-92851000D01*
X108500000Y-92349000D01*
X108514352Y-92314352D01*
X108549000Y-92300000D01*
X109968992Y-92300000D01*
X110003640Y-92314352D01*
G37*
%TD.AperFunction*%
%TD*%
%TA.AperFunction,Conductor*%
%TO.N,/VSYS*%
G36*
X107271805Y-90314852D02*
G01*
X107286157Y-90349500D01*
X107279593Y-90373999D01*
X107239659Y-90443168D01*
X107239658Y-90443170D01*
X107215500Y-90533327D01*
X107215500Y-90533329D01*
X107215500Y-90626671D01*
X107239659Y-90716832D01*
X107260907Y-90753636D01*
X107286326Y-90797664D01*
X107286331Y-90797670D01*
X107335648Y-90846987D01*
X107350000Y-90881635D01*
X107350000Y-91300000D01*
X108101000Y-91300000D01*
X108135648Y-91314352D01*
X108150000Y-91349000D01*
X108150000Y-91951000D01*
X108135648Y-91985648D01*
X108101000Y-92000000D01*
X107954556Y-92000000D01*
X107941873Y-91998330D01*
X107856673Y-91975500D01*
X107856671Y-91975500D01*
X107763329Y-91975500D01*
X107763327Y-91975500D01*
X107678127Y-91998330D01*
X107665444Y-92000000D01*
X106649000Y-92000000D01*
X106614352Y-91985648D01*
X106600000Y-91951000D01*
X106600000Y-91300000D01*
X106399000Y-91300000D01*
X106364352Y-91285648D01*
X106350000Y-91251000D01*
X106350000Y-91147234D01*
X106351670Y-91134551D01*
X106364500Y-91086672D01*
X106364500Y-90993327D01*
X106351670Y-90945448D01*
X106350000Y-90932765D01*
X106350000Y-90349500D01*
X106364352Y-90314852D01*
X106399000Y-90300500D01*
X107237157Y-90300500D01*
X107271805Y-90314852D01*
G37*
%TD.AperFunction*%
%TD*%
%TA.AperFunction,Conductor*%
%TO.N,PGND*%
G36*
X102759811Y-91991256D02*
G01*
X102772658Y-92013386D01*
X102789659Y-92076832D01*
X102810907Y-92113636D01*
X102836326Y-92157664D01*
X102836328Y-92157666D01*
X102836329Y-92157668D01*
X102902332Y-92223671D01*
X102983168Y-92270341D01*
X103028248Y-92282420D01*
X103073327Y-92294500D01*
X103117544Y-92294500D01*
X103152192Y-92308852D01*
X103166536Y-92342629D01*
X103179999Y-93100000D01*
X103179999Y-93099999D01*
X103180000Y-93100000D01*
X103505522Y-93091962D01*
X103540511Y-93105453D01*
X103541377Y-93106298D01*
X103662218Y-93227139D01*
X103826086Y-93336632D01*
X103959753Y-93391998D01*
X103986270Y-93418514D01*
X103990000Y-93437266D01*
X103990000Y-93615500D01*
X103975648Y-93650148D01*
X103941000Y-93664500D01*
X103901751Y-93664500D01*
X103883000Y-93660770D01*
X103879936Y-93659501D01*
X103820064Y-93659501D01*
X103764747Y-93682413D01*
X103622012Y-93825148D01*
X103587364Y-93839500D01*
X103240062Y-93839500D01*
X103184747Y-93862413D01*
X103142413Y-93904747D01*
X103119500Y-93960062D01*
X103119500Y-94019937D01*
X103142413Y-94075252D01*
X103184747Y-94117586D01*
X103184748Y-94117586D01*
X103184749Y-94117587D01*
X103240064Y-94140500D01*
X103240066Y-94140500D01*
X103532955Y-94140500D01*
X103567603Y-94154852D01*
X103581955Y-94189500D01*
X103569546Y-94222089D01*
X103434616Y-94373589D01*
X103400855Y-94389918D01*
X103398025Y-94390000D01*
X102900000Y-94390000D01*
X102900000Y-95952064D01*
X102885648Y-95986712D01*
X102882441Y-95989647D01*
X102879178Y-95992375D01*
X102872332Y-95996329D01*
X102861470Y-96007190D01*
X102859806Y-96008583D01*
X102843830Y-96013593D01*
X102828365Y-96020000D01*
X102490000Y-96020000D01*
X102487390Y-96513259D01*
X102472855Y-96547831D01*
X102438391Y-96562000D01*
X101556738Y-96562000D01*
X101488605Y-96571927D01*
X101488600Y-96571929D01*
X101463487Y-96584206D01*
X101426056Y-96586530D01*
X101401081Y-96567191D01*
X101145887Y-96180840D01*
X101013614Y-95980586D01*
X101005500Y-95953580D01*
X101005500Y-95696135D01*
X101019852Y-95661487D01*
X101063671Y-95617668D01*
X101110341Y-95536832D01*
X101110343Y-95536824D01*
X101110790Y-95535748D01*
X101111209Y-95535328D01*
X101111947Y-95534051D01*
X101112289Y-95534248D01*
X101137309Y-95509230D01*
X101156060Y-95505500D01*
X101500998Y-95505500D01*
X101501000Y-95505500D01*
X101541374Y-95497469D01*
X101541376Y-95497468D01*
X101576013Y-95483121D01*
X101576024Y-95483116D01*
X101590769Y-95475603D01*
X101590768Y-95475603D01*
X101590771Y-95475602D01*
X101633117Y-95426022D01*
X101647469Y-95391374D01*
X101655500Y-95351000D01*
X101655500Y-95124000D01*
X101647469Y-95083626D01*
X101647468Y-95083623D01*
X101633121Y-95048986D01*
X101633116Y-95048975D01*
X101625603Y-95034230D01*
X101625602Y-95034229D01*
X101576022Y-94991883D01*
X101541374Y-94977531D01*
X101501000Y-94969500D01*
X101500998Y-94969500D01*
X101450965Y-94969500D01*
X101416317Y-94955148D01*
X101401965Y-94920500D01*
X101405694Y-94901749D01*
X101409992Y-94891374D01*
X101415109Y-94875625D01*
X101409991Y-94810624D01*
X101402077Y-94791522D01*
X101401893Y-94785557D01*
X101354809Y-94689246D01*
X101350342Y-94674790D01*
X101344551Y-94635044D01*
X101344549Y-94635033D01*
X101343845Y-94630203D01*
X101343847Y-94630203D01*
X101343646Y-94628821D01*
X101343643Y-94628812D01*
X101343372Y-94626948D01*
X101343366Y-94626913D01*
X101341645Y-94615104D01*
X101339013Y-94609382D01*
X101338601Y-94608689D01*
X101338620Y-94608527D01*
X101336078Y-94603000D01*
X101336046Y-94602931D01*
X101334727Y-94600052D01*
X101333929Y-94597476D01*
X101333206Y-94596732D01*
X101331699Y-94593443D01*
X101321199Y-94570479D01*
X101315208Y-94559229D01*
X101265628Y-94516883D01*
X101230980Y-94502531D01*
X101230978Y-94502530D01*
X101230973Y-94502529D01*
X101191635Y-94494704D01*
X101160453Y-94473869D01*
X101158759Y-94471145D01*
X101153673Y-94462335D01*
X101153668Y-94462329D01*
X101087668Y-94396329D01*
X101055000Y-94377468D01*
X101032169Y-94347715D01*
X101030500Y-94335033D01*
X101030500Y-94073623D01*
X101039332Y-94045560D01*
X101162460Y-93869317D01*
X101174321Y-93847084D01*
X101182734Y-93825417D01*
X101182881Y-93825036D01*
X101185140Y-93781934D01*
X101201286Y-93748085D01*
X101234073Y-93735499D01*
X101593133Y-93735499D01*
X101593138Y-93735499D01*
X101640545Y-93729259D01*
X101744579Y-93680747D01*
X101825747Y-93599579D01*
X101874259Y-93495545D01*
X101880500Y-93448139D01*
X101880499Y-93032092D01*
X101882169Y-93019411D01*
X101882306Y-93018896D01*
X101886894Y-93001778D01*
X101886894Y-92869994D01*
X101886894Y-92869992D01*
X101874381Y-92823296D01*
X101879275Y-92786114D01*
X101904692Y-92766609D01*
X101904074Y-92765192D01*
X101907606Y-92763651D01*
X101907606Y-92763650D01*
X101907609Y-92763650D01*
X101939217Y-92743466D01*
X101968922Y-92714970D01*
X102266154Y-92289521D01*
X102275311Y-92273630D01*
X102279276Y-92265114D01*
X102279275Y-92265113D01*
X102279714Y-92264171D01*
X102279716Y-92264166D01*
X102281156Y-92261072D01*
X102283067Y-92258125D01*
X102284125Y-92255464D01*
X102285009Y-92252797D01*
X102285507Y-92251728D01*
X102285501Y-92251313D01*
X102287425Y-92245508D01*
X102289832Y-92239581D01*
X102293242Y-92232545D01*
X102293465Y-92231986D01*
X102294550Y-92229258D01*
X102294551Y-92229254D01*
X102294557Y-92229240D01*
X102300147Y-92210085D01*
X102303616Y-92191975D01*
X102305500Y-92172127D01*
X102305500Y-92027835D01*
X102319852Y-91993187D01*
X102354265Y-91978836D01*
X102725097Y-91977070D01*
X102759811Y-91991256D01*
G37*
%TD.AperFunction*%
%TD*%
%TA.AperFunction,Conductor*%
%TO.N,GND*%
G36*
X110531826Y-95344308D02*
G01*
X110547867Y-95368316D01*
X110571985Y-95426544D01*
X110667183Y-95569018D01*
X110672328Y-95578027D01*
X110695750Y-95626674D01*
X110695998Y-95627188D01*
X110696325Y-95627859D01*
X110696601Y-95628422D01*
X110696602Y-95628423D01*
X110696603Y-95628425D01*
X110722209Y-95661686D01*
X110750538Y-95686255D01*
X110757493Y-95690219D01*
X110786300Y-95706640D01*
X110817581Y-95717067D01*
X110835281Y-95725734D01*
X110943453Y-95798013D01*
X110943455Y-95798014D01*
X110943457Y-95798015D01*
X111107329Y-95865892D01*
X111107334Y-95865894D01*
X111281309Y-95900500D01*
X111281311Y-95900500D01*
X111458689Y-95900500D01*
X111458691Y-95900500D01*
X111632666Y-95865894D01*
X111796547Y-95798013D01*
X111944035Y-95699464D01*
X112069464Y-95574035D01*
X112069466Y-95574031D01*
X112072034Y-95571464D01*
X112073333Y-95572763D01*
X112118249Y-95548757D01*
X112172447Y-95565200D01*
X112199144Y-95615150D01*
X112199500Y-95622401D01*
X112199500Y-97820006D01*
X112177826Y-97872332D01*
X112171727Y-97877790D01*
X110040726Y-99582589D01*
X109986327Y-99598352D01*
X109936715Y-99571032D01*
X109920499Y-99524805D01*
X109920499Y-98680102D01*
X109914668Y-98650784D01*
X109892459Y-98617545D01*
X109892456Y-98617542D01*
X109859213Y-98595331D01*
X109859211Y-98595330D01*
X109841559Y-98591819D01*
X109829899Y-98589500D01*
X109829897Y-98589500D01*
X109593702Y-98589500D01*
X109541376Y-98567826D01*
X109103575Y-98130025D01*
X109103571Y-98130022D01*
X109029882Y-98099500D01*
X108901490Y-98099500D01*
X108849165Y-98077826D01*
X108820839Y-98049500D01*
X108787670Y-98016330D01*
X108787667Y-98016328D01*
X108706830Y-97969658D01*
X108706832Y-97969658D01*
X108616673Y-97945500D01*
X108616671Y-97945500D01*
X108523329Y-97945500D01*
X108523327Y-97945500D01*
X108433168Y-97969658D01*
X108352332Y-98016328D01*
X108340835Y-98027826D01*
X108288509Y-98049500D01*
X107290172Y-98049500D01*
X107198105Y-98087634D01*
X107127635Y-98158104D01*
X106657911Y-98627826D01*
X106605586Y-98649500D01*
X106501862Y-98649500D01*
X106454456Y-98655740D01*
X106454454Y-98655741D01*
X106350420Y-98704253D01*
X106269253Y-98785420D01*
X106220740Y-98889456D01*
X106214500Y-98936862D01*
X106214500Y-99513137D01*
X106220740Y-99560543D01*
X106220741Y-99560545D01*
X106236447Y-99594226D01*
X106238917Y-99650809D01*
X106200654Y-99692567D01*
X106169380Y-99699500D01*
X102334500Y-99699500D01*
X102282174Y-99677826D01*
X102260500Y-99625500D01*
X102260500Y-98799214D01*
X102260500Y-98799212D01*
X102256900Y-98771886D01*
X102251804Y-98752883D01*
X102251609Y-98752935D01*
X102250790Y-98749733D01*
X102251564Y-98749526D01*
X102233416Y-98681801D01*
X102233308Y-98681376D01*
X102233363Y-98680988D01*
X102231000Y-98663040D01*
X102231000Y-98616957D01*
X102233522Y-98597804D01*
X102237309Y-98583671D01*
X102251563Y-98530476D01*
X102251562Y-98530475D01*
X102257022Y-98510099D01*
X102256794Y-98508950D01*
X102256908Y-98508077D01*
X102256910Y-98508073D01*
X102258582Y-98495359D01*
X102260500Y-98480792D01*
X102260500Y-97937000D01*
X102252470Y-97896632D01*
X102252468Y-97896623D01*
X102238123Y-97861991D01*
X102238120Y-97861985D01*
X102238119Y-97861983D01*
X102238117Y-97861978D01*
X102230602Y-97847229D01*
X102181022Y-97804883D01*
X102176897Y-97803174D01*
X102146372Y-97790530D01*
X102146367Y-97790529D01*
X102106000Y-97782500D01*
X101569752Y-97782500D01*
X101559079Y-97781726D01*
X101552101Y-97780709D01*
X101552098Y-97780708D01*
X101551353Y-97780600D01*
X101551349Y-97780599D01*
X101531569Y-97777717D01*
X101509739Y-97770971D01*
X101456763Y-97745073D01*
X101436937Y-97730918D01*
X101396580Y-97690561D01*
X101382425Y-97670735D01*
X101356527Y-97617759D01*
X101349781Y-97595927D01*
X101345773Y-97568416D01*
X101345000Y-97557748D01*
X101345000Y-96892248D01*
X101345773Y-96881582D01*
X101346840Y-96874255D01*
X101349781Y-96854066D01*
X101356522Y-96832246D01*
X101385462Y-96773047D01*
X101392554Y-96761405D01*
X101404901Y-96744805D01*
X101413976Y-96727933D01*
X101457851Y-96692119D01*
X101467343Y-96689936D01*
X101470011Y-96689503D01*
X101470025Y-96689503D01*
X101509821Y-96678987D01*
X101509830Y-96678982D01*
X101513227Y-96677718D01*
X101513304Y-96677925D01*
X101531570Y-96672281D01*
X101559081Y-96668273D01*
X101569749Y-96667500D01*
X102438386Y-96667500D01*
X102438391Y-96667500D01*
X102439582Y-96667264D01*
X102478501Y-96659578D01*
X102478505Y-96659576D01*
X102478507Y-96659576D01*
X102512971Y-96645407D01*
X102527502Y-96638075D01*
X102570109Y-96588719D01*
X102584644Y-96554147D01*
X102592889Y-96513817D01*
X102593707Y-96359184D01*
X102615658Y-96306974D01*
X102668097Y-96285577D01*
X102720308Y-96307528D01*
X102739184Y-96340423D01*
X102759658Y-96416831D01*
X102806044Y-96497174D01*
X102806329Y-96497668D01*
X102872332Y-96563671D01*
X102953168Y-96610341D01*
X102953167Y-96610341D01*
X102978407Y-96617104D01*
X103043326Y-96634499D01*
X103043327Y-96634500D01*
X103084011Y-96634500D01*
X103136337Y-96656174D01*
X103158011Y-96708500D01*
X103136337Y-96760824D01*
X103124101Y-96773061D01*
X103122412Y-96774750D01*
X103122411Y-96774752D01*
X103099500Y-96830063D01*
X103099500Y-96889936D01*
X103119902Y-96939191D01*
X103122413Y-96945251D01*
X103164749Y-96987587D01*
X103220064Y-97010500D01*
X103279935Y-97010500D01*
X103279936Y-97010500D01*
X103335251Y-96987587D01*
X103377587Y-96945251D01*
X103377589Y-96945247D01*
X103381636Y-96939191D01*
X103381905Y-96939371D01*
X103392991Y-96922775D01*
X103818594Y-96497174D01*
X103870920Y-96475500D01*
X104879080Y-96475500D01*
X104931406Y-96497174D01*
X105286651Y-96852419D01*
X105327581Y-96893349D01*
X105381058Y-96915500D01*
X105462104Y-96915500D01*
X105514430Y-96937174D01*
X105536104Y-96989500D01*
X105521690Y-97031959D01*
X105521905Y-97032084D01*
X105521281Y-97033163D01*
X105520811Y-97034550D01*
X105519479Y-97036285D01*
X105440424Y-97173214D01*
X105440421Y-97173220D01*
X105399500Y-97325940D01*
X105399500Y-97484059D01*
X105440421Y-97636779D01*
X105440422Y-97636781D01*
X105440423Y-97636784D01*
X105519480Y-97773716D01*
X105631284Y-97885520D01*
X105768216Y-97964577D01*
X105920940Y-98005499D01*
X105920941Y-98005500D01*
X105920943Y-98005500D01*
X106079059Y-98005500D01*
X106079059Y-98005499D01*
X106231784Y-97964577D01*
X106368716Y-97885520D01*
X106480520Y-97773716D01*
X106524523Y-97697499D01*
X106569456Y-97663022D01*
X106588609Y-97660500D01*
X106978874Y-97660500D01*
X107031200Y-97682174D01*
X107047240Y-97706179D01*
X107051410Y-97716246D01*
X107051412Y-97716249D01*
X107051413Y-97716251D01*
X107093749Y-97758587D01*
X107149064Y-97781500D01*
X108090935Y-97781500D01*
X108090936Y-97781500D01*
X108146251Y-97758587D01*
X108188587Y-97716251D01*
X108188894Y-97715508D01*
X108192760Y-97706179D01*
X108232809Y-97666132D01*
X108261126Y-97660500D01*
X108878874Y-97660500D01*
X108931200Y-97682174D01*
X108947240Y-97706179D01*
X108951410Y-97716246D01*
X108951412Y-97716249D01*
X108951413Y-97716251D01*
X108993749Y-97758587D01*
X109049064Y-97781500D01*
X109886346Y-97781500D01*
X109938672Y-97803174D01*
X109960346Y-97855500D01*
X109957825Y-97874651D01*
X109955500Y-97883328D01*
X109955500Y-97976673D01*
X109979658Y-98066831D01*
X110025483Y-98146202D01*
X110026329Y-98147668D01*
X110092332Y-98213671D01*
X110173168Y-98260341D01*
X110173167Y-98260341D01*
X110225222Y-98274289D01*
X110263326Y-98284499D01*
X110263327Y-98284500D01*
X110263329Y-98284500D01*
X110356673Y-98284500D01*
X110356673Y-98284499D01*
X110446832Y-98260341D01*
X110527668Y-98213671D01*
X110593671Y-98147668D01*
X110640341Y-98066832D01*
X110664499Y-97976673D01*
X110664500Y-97976673D01*
X110664500Y-97883327D01*
X110664499Y-97883326D01*
X110640341Y-97793168D01*
X110593671Y-97712332D01*
X110527667Y-97646328D01*
X110446830Y-97599658D01*
X110446832Y-97599658D01*
X110356673Y-97575500D01*
X110356671Y-97575500D01*
X110263329Y-97575500D01*
X110263328Y-97575500D01*
X110229678Y-97584515D01*
X110173526Y-97577120D01*
X110158202Y-97565362D01*
X110046253Y-97453413D01*
X110046249Y-97453410D01*
X110013849Y-97439990D01*
X110013848Y-97439990D01*
X109990936Y-97430500D01*
X109990934Y-97430500D01*
X109983786Y-97429078D01*
X109984340Y-97426292D01*
X109942173Y-97408826D01*
X109920499Y-97356500D01*
X109920499Y-96480102D01*
X109914668Y-96450784D01*
X109892459Y-96417545D01*
X109892456Y-96417542D01*
X109859213Y-96395331D01*
X109859211Y-96395330D01*
X109833941Y-96390304D01*
X109786849Y-96358838D01*
X109775800Y-96303289D01*
X109796050Y-96265402D01*
X110383349Y-95678105D01*
X110405500Y-95624628D01*
X110405500Y-95566744D01*
X110405500Y-95396634D01*
X110427174Y-95344308D01*
X110479500Y-95322634D01*
X110531826Y-95344308D01*
G37*
%TD.AperFunction*%
%TA.AperFunction,Conductor*%
G36*
X108941219Y-98534770D02*
G01*
X108941220Y-98534770D01*
X109097826Y-98691376D01*
X109119500Y-98743702D01*
X109119501Y-99625500D01*
X109097827Y-99677826D01*
X109045501Y-99699500D01*
X108094500Y-99699500D01*
X108042174Y-99677826D01*
X108020500Y-99625500D01*
X108020499Y-98823702D01*
X108042173Y-98771376D01*
X108140767Y-98672782D01*
X108238780Y-98574769D01*
X108291105Y-98553096D01*
X108343431Y-98574770D01*
X108352332Y-98583671D01*
X108433168Y-98630341D01*
X108433167Y-98630341D01*
X108485222Y-98644289D01*
X108523326Y-98654499D01*
X108523327Y-98654500D01*
X108523329Y-98654500D01*
X108616673Y-98654500D01*
X108616673Y-98654499D01*
X108706832Y-98630341D01*
X108787668Y-98583671D01*
X108836568Y-98534771D01*
X108888893Y-98513096D01*
X108941219Y-98534770D01*
G37*
%TD.AperFunction*%
%TA.AperFunction,Conductor*%
G36*
X105276966Y-93977174D02*
G01*
X105653141Y-94353349D01*
X105706618Y-94375500D01*
X105706619Y-94375500D01*
X106393255Y-94375500D01*
X106393256Y-94375500D01*
X106446733Y-94353349D01*
X106702908Y-94097174D01*
X106755234Y-94075500D01*
X108899080Y-94075500D01*
X108951406Y-94097174D01*
X109426857Y-94572625D01*
X109448531Y-94624951D01*
X109446010Y-94644103D01*
X109435500Y-94683329D01*
X109435500Y-94776673D01*
X109459658Y-94866831D01*
X109506328Y-94947667D01*
X109572332Y-95013671D01*
X109653755Y-95060680D01*
X109688234Y-95105613D01*
X109680842Y-95161765D01*
X109635911Y-95196244D01*
X109623167Y-95199659D01*
X109542332Y-95246328D01*
X109476328Y-95312332D01*
X109429658Y-95393168D01*
X109405500Y-95483326D01*
X109405500Y-95483329D01*
X109405500Y-95576671D01*
X109407392Y-95583732D01*
X109416010Y-95615895D01*
X109408617Y-95672047D01*
X109396857Y-95687373D01*
X109181406Y-95902826D01*
X109129080Y-95924500D01*
X107439058Y-95924500D01*
X107385583Y-95946649D01*
X106729406Y-96602826D01*
X106677080Y-96624500D01*
X106537896Y-96624500D01*
X106485570Y-96602826D01*
X106463896Y-96550500D01*
X106478309Y-96508040D01*
X106478095Y-96507916D01*
X106478718Y-96506836D01*
X106479189Y-96505450D01*
X106480513Y-96503722D01*
X106480520Y-96503716D01*
X106559577Y-96366784D01*
X106600499Y-96214059D01*
X106600500Y-96214059D01*
X106600500Y-96055941D01*
X106600499Y-96055940D01*
X106582964Y-95990500D01*
X106559577Y-95903216D01*
X106480520Y-95766284D01*
X106368716Y-95654480D01*
X106231784Y-95575423D01*
X106231781Y-95575422D01*
X106231779Y-95575421D01*
X106079059Y-95534500D01*
X106079057Y-95534500D01*
X105920943Y-95534500D01*
X105920941Y-95534500D01*
X105768220Y-95575421D01*
X105768214Y-95575424D01*
X105631283Y-95654480D01*
X105519480Y-95766283D01*
X105440424Y-95903214D01*
X105440421Y-95903220D01*
X105399500Y-96055940D01*
X105399500Y-96214059D01*
X105440421Y-96366779D01*
X105440422Y-96366781D01*
X105440423Y-96366784D01*
X105469730Y-96417545D01*
X105470657Y-96419151D01*
X105478049Y-96475304D01*
X105443571Y-96520237D01*
X105387418Y-96527629D01*
X105354245Y-96508477D01*
X105052420Y-96206652D01*
X105052416Y-96206649D01*
X104998942Y-96184500D01*
X103808942Y-96184500D01*
X103751058Y-96184500D01*
X103697583Y-96206649D01*
X103697579Y-96206652D01*
X103570826Y-96333405D01*
X103518500Y-96355079D01*
X103466174Y-96333405D01*
X103444500Y-96281079D01*
X103444500Y-96233327D01*
X103444499Y-96233326D01*
X103439336Y-96214059D01*
X103420341Y-96143168D01*
X103419086Y-96138483D01*
X103421491Y-96137838D01*
X103421495Y-96089306D01*
X103437532Y-96065306D01*
X103663325Y-95839512D01*
X103715650Y-95817839D01*
X103756761Y-95830310D01*
X103826086Y-95876632D01*
X104008165Y-95952051D01*
X104201459Y-95990500D01*
X104201461Y-95990500D01*
X104398539Y-95990500D01*
X104398541Y-95990500D01*
X104591835Y-95952051D01*
X104773914Y-95876632D01*
X104937782Y-95767139D01*
X105077139Y-95627782D01*
X105186632Y-95463914D01*
X105262051Y-95281835D01*
X105300500Y-95088541D01*
X105300500Y-94891459D01*
X105262051Y-94698165D01*
X105186632Y-94516086D01*
X105077139Y-94352218D01*
X104937782Y-94212861D01*
X104916670Y-94198754D01*
X104773913Y-94103367D01*
X104760634Y-94097867D01*
X104720585Y-94057819D01*
X104720585Y-94001182D01*
X104760633Y-93961133D01*
X104788952Y-93955500D01*
X105224640Y-93955500D01*
X105276966Y-93977174D01*
G37*
%TD.AperFunction*%
%TA.AperFunction,Conductor*%
G36*
X106222826Y-90322174D02*
G01*
X106244500Y-90374500D01*
X106244500Y-90639390D01*
X106222826Y-90691716D01*
X106170500Y-90713390D01*
X106151347Y-90710868D01*
X106056673Y-90685500D01*
X106056671Y-90685500D01*
X105963329Y-90685500D01*
X105963327Y-90685500D01*
X105873168Y-90709658D01*
X105792332Y-90756328D01*
X105726328Y-90822332D01*
X105679658Y-90903168D01*
X105655500Y-90993326D01*
X105655500Y-91086673D01*
X105679658Y-91176831D01*
X105702782Y-91216882D01*
X105726329Y-91257668D01*
X105792332Y-91323671D01*
X105873168Y-91370341D01*
X105873167Y-91370341D01*
X105920840Y-91383115D01*
X105963326Y-91394499D01*
X105963327Y-91394500D01*
X105963329Y-91394500D01*
X106056673Y-91394500D01*
X106056673Y-91394499D01*
X106134528Y-91373638D01*
X106146829Y-91370342D01*
X106146829Y-91370341D01*
X106146832Y-91370341D01*
X106198312Y-91340618D01*
X106254465Y-91333227D01*
X106283371Y-91348435D01*
X106291642Y-91355499D01*
X106323978Y-91383117D01*
X106358626Y-91397469D01*
X106399000Y-91405500D01*
X106399570Y-91405500D01*
X106399748Y-91405573D01*
X106402621Y-91405857D01*
X106402535Y-91406728D01*
X106451896Y-91427174D01*
X106473570Y-91479500D01*
X106451896Y-91531826D01*
X106436570Y-91543586D01*
X106391689Y-91569497D01*
X106298500Y-91662685D01*
X106232610Y-91776809D01*
X106232606Y-91776818D01*
X106198500Y-91904105D01*
X106198500Y-92035894D01*
X106232606Y-92163181D01*
X106232610Y-92163190D01*
X106284797Y-92253580D01*
X106298500Y-92277314D01*
X106391686Y-92370500D01*
X106505814Y-92436392D01*
X106633105Y-92470499D01*
X106633106Y-92470500D01*
X106633108Y-92470500D01*
X106764894Y-92470500D01*
X106764894Y-92470499D01*
X106892186Y-92436392D01*
X107006314Y-92370500D01*
X107099500Y-92277314D01*
X107165392Y-92163186D01*
X107166152Y-92160347D01*
X107167054Y-92159171D01*
X107167247Y-92158707D01*
X107167371Y-92158758D01*
X107200631Y-92115414D01*
X107237631Y-92105500D01*
X107406711Y-92105500D01*
X107459037Y-92127174D01*
X107480711Y-92179500D01*
X107478189Y-92198653D01*
X107455500Y-92283326D01*
X107455500Y-92376673D01*
X107479658Y-92466831D01*
X107504921Y-92510587D01*
X107526329Y-92547668D01*
X107592332Y-92613671D01*
X107673168Y-92660341D01*
X107673167Y-92660341D01*
X107725222Y-92674289D01*
X107763326Y-92684499D01*
X107763327Y-92684500D01*
X107763329Y-92684500D01*
X107856673Y-92684500D01*
X107856673Y-92684499D01*
X107946832Y-92660341D01*
X108027668Y-92613671D01*
X108093671Y-92547668D01*
X108140341Y-92466832D01*
X108164499Y-92376673D01*
X108164500Y-92376673D01*
X108164500Y-92283327D01*
X108164499Y-92283326D01*
X108164374Y-92282861D01*
X108156528Y-92253579D01*
X108140342Y-92193170D01*
X108140341Y-92193168D01*
X108138142Y-92189360D01*
X108130748Y-92133209D01*
X108165224Y-92088275D01*
X108173910Y-92083991D01*
X108176022Y-92083117D01*
X108190771Y-92075602D01*
X108233117Y-92026022D01*
X108247469Y-91991374D01*
X108255500Y-91951000D01*
X108255500Y-91950991D01*
X108255725Y-91949860D01*
X108287190Y-91902767D01*
X108342739Y-91891716D01*
X108380630Y-91911969D01*
X108392332Y-91923671D01*
X108473168Y-91970341D01*
X108473167Y-91970341D01*
X108494608Y-91976086D01*
X108563326Y-91994499D01*
X108563327Y-91994500D01*
X108563329Y-91994500D01*
X108656673Y-91994500D01*
X108656673Y-91994499D01*
X108746832Y-91970341D01*
X108827668Y-91923671D01*
X108893671Y-91857668D01*
X108940341Y-91776832D01*
X108964499Y-91686673D01*
X108964500Y-91686673D01*
X108964500Y-91674500D01*
X108986174Y-91622174D01*
X109038500Y-91600500D01*
X109701500Y-91600500D01*
X109753826Y-91622174D01*
X109775500Y-91674500D01*
X109775500Y-91706673D01*
X109799658Y-91796831D01*
X109843829Y-91873337D01*
X109846329Y-91877668D01*
X109912332Y-91943671D01*
X109993168Y-91990341D01*
X109993167Y-91990341D01*
X110008689Y-91994500D01*
X110083326Y-92014499D01*
X110083327Y-92014500D01*
X110083329Y-92014500D01*
X110176673Y-92014500D01*
X110176673Y-92014499D01*
X110266832Y-91990341D01*
X110347668Y-91943671D01*
X110413671Y-91877668D01*
X110460341Y-91796832D01*
X110484499Y-91706673D01*
X110484500Y-91706673D01*
X110484500Y-91613327D01*
X110484499Y-91613326D01*
X110479314Y-91593977D01*
X110460341Y-91523168D01*
X110413671Y-91442332D01*
X110347668Y-91376329D01*
X110347667Y-91376328D01*
X110266830Y-91329658D01*
X110266832Y-91329658D01*
X110176673Y-91305500D01*
X110176671Y-91305500D01*
X110083329Y-91305500D01*
X110035389Y-91318344D01*
X109987925Y-91315234D01*
X109971973Y-91308628D01*
X109971968Y-91308623D01*
X109971968Y-91308626D01*
X109949936Y-91299500D01*
X108770064Y-91299500D01*
X108770063Y-91299500D01*
X108770058Y-91299501D01*
X108769247Y-91299837D01*
X108767938Y-91299922D01*
X108762915Y-91300922D01*
X108762783Y-91300260D01*
X108721784Y-91302946D01*
X108656671Y-91285500D01*
X108563329Y-91285500D01*
X108563327Y-91285500D01*
X108473168Y-91309658D01*
X108392332Y-91356328D01*
X108392328Y-91356331D01*
X108377310Y-91371349D01*
X108324984Y-91393022D01*
X108272659Y-91371346D01*
X108252408Y-91333459D01*
X108247469Y-91308626D01*
X108246174Y-91305500D01*
X108233123Y-91273991D01*
X108233120Y-91273985D01*
X108233119Y-91273983D01*
X108233117Y-91273978D01*
X108225602Y-91259229D01*
X108176022Y-91216883D01*
X108141374Y-91202531D01*
X108141372Y-91202530D01*
X108141367Y-91202529D01*
X108101000Y-91194500D01*
X107529500Y-91194500D01*
X107477174Y-91172826D01*
X107455500Y-91120500D01*
X107455500Y-90881635D01*
X107447470Y-90841267D01*
X107447469Y-90841262D01*
X107433116Y-90806611D01*
X107410765Y-90773161D01*
X107410249Y-90772388D01*
X107377630Y-90739768D01*
X107365877Y-90724450D01*
X107342838Y-90684545D01*
X107335448Y-90666703D01*
X107323521Y-90622189D01*
X107321000Y-90603037D01*
X107321000Y-90556960D01*
X107323521Y-90537809D01*
X107325921Y-90528850D01*
X107335447Y-90493296D01*
X107342836Y-90475459D01*
X107370959Y-90426748D01*
X107381499Y-90401303D01*
X107388063Y-90376804D01*
X107388742Y-90374128D01*
X107388742Y-90374125D01*
X107389247Y-90368213D01*
X107415288Y-90317918D01*
X107462979Y-90300500D01*
X109868633Y-90300500D01*
X109914860Y-90316716D01*
X112171727Y-92122209D01*
X112199047Y-92171820D01*
X112199500Y-92179992D01*
X112199500Y-92377598D01*
X112177826Y-92429924D01*
X112125500Y-92451598D01*
X112073174Y-92429924D01*
X112070763Y-92427265D01*
X112069466Y-92425968D01*
X112069464Y-92425965D01*
X111944035Y-92300536D01*
X111917581Y-92282860D01*
X111796544Y-92201985D01*
X111632670Y-92134107D01*
X111632660Y-92134104D01*
X111516156Y-92110930D01*
X111458691Y-92099500D01*
X111281309Y-92099500D01*
X111231989Y-92109310D01*
X111107339Y-92134104D01*
X111107329Y-92134107D01*
X110943455Y-92201985D01*
X110795968Y-92300533D01*
X110670533Y-92425968D01*
X110571985Y-92573455D01*
X110504107Y-92737329D01*
X110504104Y-92737339D01*
X110494468Y-92785786D01*
X110463002Y-92832878D01*
X110407453Y-92843927D01*
X110360361Y-92812461D01*
X110355013Y-92803027D01*
X110108619Y-92282861D01*
X110099512Y-92267251D01*
X110089877Y-92253579D01*
X110044014Y-92216883D01*
X110009366Y-92202531D01*
X110009364Y-92202530D01*
X110009359Y-92202529D01*
X109968992Y-92194500D01*
X108549000Y-92194500D01*
X108508632Y-92202529D01*
X108508623Y-92202531D01*
X108473991Y-92216876D01*
X108473985Y-92216879D01*
X108459229Y-92224397D01*
X108416882Y-92273979D01*
X108402530Y-92308627D01*
X108402529Y-92308632D01*
X108394500Y-92349000D01*
X108394500Y-92850999D01*
X108402529Y-92891367D01*
X108402531Y-92891376D01*
X108416876Y-92926008D01*
X108416879Y-92926014D01*
X108416882Y-92926021D01*
X108416883Y-92926022D01*
X108424398Y-92940771D01*
X108473978Y-92983117D01*
X108508626Y-92997469D01*
X108549000Y-93005500D01*
X108602902Y-93005500D01*
X108617338Y-93006922D01*
X108635326Y-93010500D01*
X109389610Y-93010500D01*
X109441936Y-93032174D01*
X109456284Y-93052398D01*
X109566750Y-93281830D01*
X109569921Y-93338378D01*
X109552403Y-93366257D01*
X109536328Y-93382332D01*
X109489658Y-93463168D01*
X109465500Y-93553326D01*
X109465500Y-93646673D01*
X109489658Y-93736831D01*
X109533415Y-93812620D01*
X109536329Y-93817668D01*
X109602332Y-93883671D01*
X109683168Y-93930341D01*
X109683167Y-93930341D01*
X109735222Y-93944289D01*
X109773326Y-93954499D01*
X109773327Y-93954500D01*
X109844128Y-93954500D01*
X109896454Y-93976174D01*
X109910802Y-93996398D01*
X110069488Y-94325977D01*
X110072660Y-94382525D01*
X110034916Y-94424753D01*
X109978368Y-94427925D01*
X109965815Y-94422165D01*
X109926830Y-94399658D01*
X109926832Y-94399658D01*
X109836673Y-94375500D01*
X109836671Y-94375500D01*
X109743329Y-94375500D01*
X109704103Y-94386010D01*
X109647950Y-94378616D01*
X109632625Y-94366857D01*
X109072420Y-93806652D01*
X109072416Y-93806649D01*
X109018942Y-93784500D01*
X106693256Y-93784500D01*
X106667346Y-93784500D01*
X106615020Y-93762826D01*
X106593346Y-93710500D01*
X106595867Y-93691348D01*
X106600500Y-93674056D01*
X106600500Y-93515941D01*
X106600499Y-93515940D01*
X106582964Y-93450500D01*
X106559577Y-93363216D01*
X106480520Y-93226284D01*
X106368716Y-93114480D01*
X106231784Y-93035423D01*
X106231781Y-93035422D01*
X106231779Y-93035421D01*
X106079059Y-92994500D01*
X106079057Y-92994500D01*
X105920943Y-92994500D01*
X105830356Y-93018771D01*
X105774204Y-93011377D01*
X105758879Y-92999618D01*
X105322174Y-92562913D01*
X105300500Y-92510587D01*
X105300500Y-92351460D01*
X105298370Y-92340754D01*
X105262051Y-92158165D01*
X105243066Y-92112332D01*
X105186632Y-91976086D01*
X105077139Y-91812218D01*
X104937781Y-91672860D01*
X104773913Y-91563367D01*
X104591839Y-91487950D01*
X104591829Y-91487947D01*
X104562015Y-91482017D01*
X104514923Y-91450551D01*
X104503874Y-91395002D01*
X104535340Y-91347910D01*
X104545176Y-91342373D01*
X104632189Y-91301799D01*
X104711799Y-91222189D01*
X104759379Y-91120153D01*
X104765500Y-91073659D01*
X104765499Y-90486342D01*
X104759379Y-90439847D01*
X104743489Y-90405772D01*
X104741020Y-90349191D01*
X104779283Y-90307433D01*
X104810557Y-90300500D01*
X106170500Y-90300500D01*
X106222826Y-90322174D01*
G37*
%TD.AperFunction*%
%TD*%
%TA.AperFunction,Conductor*%
%TO.N,/OUTB*%
G36*
X101535648Y-95089352D02*
G01*
X101550000Y-95124000D01*
X101550000Y-95351000D01*
X101535648Y-95385648D01*
X101501000Y-95400000D01*
X100900000Y-95400000D01*
X100900000Y-96000000D01*
X101057857Y-96238986D01*
X101318227Y-96633174D01*
X101325348Y-96669994D01*
X101311990Y-96694827D01*
X101300805Y-96706012D01*
X101300801Y-96706017D01*
X101249428Y-96811103D01*
X101249427Y-96811105D01*
X101249427Y-96811107D01*
X101239500Y-96879240D01*
X101239500Y-97570760D01*
X101249427Y-97638893D01*
X101300802Y-97743983D01*
X101383517Y-97826698D01*
X101488607Y-97878073D01*
X101536884Y-97885106D01*
X101556738Y-97888000D01*
X102106000Y-97888000D01*
X102140648Y-97902352D01*
X102155000Y-97937000D01*
X102155000Y-98480787D01*
X102149911Y-98499794D01*
X102150889Y-98500199D01*
X102149658Y-98503170D01*
X102125500Y-98593327D01*
X102125500Y-98686672D01*
X102149659Y-98776832D01*
X102150889Y-98779802D01*
X102149904Y-98780209D01*
X102155000Y-98799212D01*
X102155000Y-99650500D01*
X102140648Y-99685148D01*
X102106000Y-99699500D01*
X100349500Y-99699500D01*
X100314852Y-99685148D01*
X100300500Y-99650500D01*
X100300500Y-95124000D01*
X100314852Y-95089352D01*
X100349500Y-95075000D01*
X101501000Y-95075000D01*
X101535648Y-95089352D01*
G37*
%TD.AperFunction*%
%TD*%
%TA.AperFunction,Conductor*%
%TO.N,/OUTA*%
G36*
X102143333Y-90314852D02*
G01*
X102157685Y-90349500D01*
X102153094Y-90370208D01*
X102120622Y-90439843D01*
X102120621Y-90439845D01*
X102114500Y-90486344D01*
X102114500Y-91073654D01*
X102114501Y-91073659D01*
X102120620Y-91120153D01*
X102168201Y-91222189D01*
X102168202Y-91222191D01*
X102185647Y-91239635D01*
X102200000Y-91274283D01*
X102200000Y-92172127D01*
X102196531Y-92190237D01*
X102195216Y-92193542D01*
X102189659Y-92203168D01*
X102186090Y-92216486D01*
X102185032Y-92219147D01*
X102183634Y-92220584D01*
X102179669Y-92229100D01*
X101882437Y-92654549D01*
X101850829Y-92674733D01*
X101814206Y-92666654D01*
X101799836Y-92650988D01*
X101786894Y-92628572D01*
X101693708Y-92535386D01*
X101693706Y-92535385D01*
X101579582Y-92469494D01*
X101579578Y-92469493D01*
X101452289Y-92435386D01*
X101452286Y-92435386D01*
X101320502Y-92435386D01*
X101320499Y-92435386D01*
X101193209Y-92469493D01*
X101193205Y-92469494D01*
X101079081Y-92535385D01*
X101033563Y-92580902D01*
X101019624Y-92590662D01*
X100915418Y-92639254D01*
X100834254Y-92720418D01*
X100834253Y-92720420D01*
X100785742Y-92824452D01*
X100785741Y-92824453D01*
X100779500Y-92871864D01*
X100779500Y-93448132D01*
X100779501Y-93448138D01*
X100785740Y-93495545D01*
X100834253Y-93599579D01*
X100834254Y-93599581D01*
X100915418Y-93680745D01*
X100915420Y-93680746D01*
X100915421Y-93680747D01*
X101019455Y-93729259D01*
X101042204Y-93732254D01*
X101074681Y-93751005D01*
X101084388Y-93787230D01*
X101075975Y-93808897D01*
X100925000Y-94024999D01*
X100925000Y-94025000D01*
X100925000Y-94600000D01*
X101190606Y-94600000D01*
X101225254Y-94614352D01*
X101238840Y-94644063D01*
X101239244Y-94644005D01*
X101239445Y-94645387D01*
X101239478Y-94645459D01*
X101239499Y-94645761D01*
X101249427Y-94713893D01*
X101300802Y-94818983D01*
X101300805Y-94818986D01*
X101303161Y-94822286D01*
X101301206Y-94823681D01*
X101312523Y-94851000D01*
X101298171Y-94885648D01*
X101263523Y-94900000D01*
X100349500Y-94900000D01*
X100314852Y-94885648D01*
X100300500Y-94851000D01*
X100300500Y-90349500D01*
X100314852Y-90314852D01*
X100349500Y-90300500D01*
X102108685Y-90300500D01*
X102143333Y-90314852D01*
G37*
%TD.AperFunction*%
%TD*%
M02*
