M48
; DRILL file {KiCad 9.0.6} date 2025-12-22T03:41:51-0800
; FORMAT={-:-/ absolute / inch / decimal}
; #@! TF.CreationDate,2025-12-22T03:41:51-08:00
; #@! TF.GenerationSoftware,Kicad,Pcbnew,9.0.6
; #@! TF.FileFunction,Plated,1,6,PTH
FMAT,2
INCH
; #@! TA.AperFunction,Plated,PTH,ViaDrill
T1C0.0079
; #@! TA.AperFunction,Plated,PTH,ViaDrill
T2C0.0157
; #@! TA.AperFunction,Plated,PTH,ComponentDrill
T3C0.0315
; #@! TA.AperFunction,Plated,PTH,ComponentDrill
T4C0.0354
%
G90
G05
T1
X3.9577Y-3.7156
X3.9577Y-3.7742
X3.9577Y-3.797
X3.9583Y-3.6949
X3.9677Y-3.7559
X3.9713Y-3.7276
X4.015Y-3.7169
X4.015Y-3.7406
X4.015Y-3.7638
X4.0343Y-3.7169
X4.0343Y-3.7406
X4.0343Y-3.7638
X4.0346Y-3.8835
X4.0362Y-3.6354
X4.0449Y-3.6772
X4.0587Y-3.7906
X4.0598Y-3.6197
X4.1402Y-3.5677
X4.1402Y-3.9126
X4.1669Y-3.5673
X4.1732Y-3.7848
X4.1763Y-3.594
X4.2059Y-3.7138
X4.2059Y-3.7398
X4.2059Y-3.7665
X4.2094Y-3.9126
X4.2323Y-3.7138
X4.2323Y-3.7398
X4.2323Y-3.7665
X4.2587Y-3.7138
X4.2587Y-3.7398
X4.2587Y-3.7665
X4.2709Y-3.8087
X4.2744Y-3.8701
X4.2744Y-3.9051
X4.3047Y-3.6059
X4.3118Y-3.8252
X4.3161Y-3.685
X4.3213Y-3.761
X4.3224Y-3.7295
X4.3429Y-3.8555
X4.3632Y-3.5977
T2
X3.9916Y-3.6589
X4.2007Y-3.6209
T3
X4.3846Y-3.6614
X4.3846Y-3.7402
X4.3846Y-3.8189
T4
X3.9843Y-3.5906
X3.9843Y-3.8898
X4.1063Y-3.6398
X4.1063Y-3.7398
X4.1063Y-3.8398
M30
