%TF.GenerationSoftware,KiCad,Pcbnew,9.0.6*%
%TF.CreationDate,2025-12-22T15:01:52-08:00*%
%TF.ProjectId,sg90-prod-ch32v006,73673930-2d70-4726-9f64-2d6368333276,rev?*%
%TF.SameCoordinates,Original*%
%TF.FileFunction,Copper,L5,Inr*%
%TF.FilePolarity,Positive*%
%FSLAX46Y46*%
G04 Gerber Fmt 4.6, Leading zero omitted, Abs format (unit mm)*
G04 Created by KiCad (PCBNEW 9.0.6) date 2025-12-22 15:01:52*
%MOMM*%
%LPD*%
G01*
G04 APERTURE LIST*
G04 Aperture macros list*
%AMRoundRect*
0 Rectangle with rounded corners*
0 $1 Rounding radius*
0 $2 $3 $4 $5 $6 $7 $8 $9 X,Y pos of 4 corners*
0 Add a 4 corners polygon primitive as box body*
4,1,4,$2,$3,$4,$5,$6,$7,$8,$9,$2,$3,0*
0 Add four circle primitives for the rounded corners*
1,1,$1+$1,$2,$3*
1,1,$1+$1,$4,$5*
1,1,$1+$1,$6,$7*
1,1,$1+$1,$8,$9*
0 Add four rect primitives between the rounded corners*
20,1,$1+$1,$2,$3,$4,$5,0*
20,1,$1+$1,$4,$5,$6,$7,0*
20,1,$1+$1,$6,$7,$8,$9,0*
20,1,$1+$1,$8,$9,$2,$3,0*%
G04 Aperture macros list end*
%TA.AperFunction,ComponentPad*%
%ADD10RoundRect,0.250000X-0.650000X0.650000X-0.650000X-0.650000X0.650000X-0.650000X0.650000X0.650000X0*%
%TD*%
%TA.AperFunction,ComponentPad*%
%ADD11C,1.600000*%
%TD*%
%TA.AperFunction,ComponentPad*%
%ADD12C,1.800000*%
%TD*%
%TA.AperFunction,ViaPad*%
%ADD13C,0.450000*%
%TD*%
%TA.AperFunction,ViaPad*%
%ADD14C,0.600000*%
%TD*%
%TA.AperFunction,ViaPad*%
%ADD15C,0.800000*%
%TD*%
G04 APERTURE END LIST*
D10*
%TO.N,/OUTA*%
%TO.C,J2*%
X101200000Y-91200000D03*
%TO.N,/OUTB*%
X101200000Y-98800000D03*
%TD*%
D11*
%TO.N,GND*%
%TO.C,J1*%
X111370000Y-97000000D03*
%TO.N,VIN*%
X111370000Y-95000000D03*
%TO.N,/DATA*%
X111370000Y-93000000D03*
%TD*%
D12*
%TO.N,GND*%
%TO.C,J4*%
X104300000Y-97530000D03*
%TD*%
D13*
%TO.N,GND*%
X106640000Y-98190000D03*
D14*
X106090000Y-92630000D03*
D13*
X105050000Y-90950000D03*
X109690000Y-90950000D03*
X107570000Y-90580000D03*
%TO.N,+3.3V*%
X106010000Y-91040000D03*
%TO.N,/DATA*%
X110130000Y-91660000D03*
X108610000Y-91640000D03*
%TO.N,GND*%
X102480000Y-98640000D03*
X107500000Y-94330000D03*
X110826044Y-91382431D03*
X106830000Y-94990000D03*
X108570000Y-99190000D03*
X107500000Y-95670000D03*
X106830000Y-94330000D03*
X107500000Y-94990000D03*
X105160000Y-99380000D03*
X108170000Y-94990000D03*
X108170000Y-94330000D03*
X108170000Y-95670000D03*
X106830000Y-95670000D03*
%TO.N,/nRST*%
X110310000Y-97930000D03*
%TO.N,PGND*%
X102520000Y-92340000D03*
X101980000Y-95600000D03*
X102470000Y-95010000D03*
X101980000Y-95010000D03*
X101980000Y-94410000D03*
X102740000Y-93400000D03*
X102470000Y-95600000D03*
X102470000Y-94410000D03*
%TO.N,/POT*%
X103090000Y-96280000D03*
%TO.N,/OUTB*%
X100780000Y-95400000D03*
X100525000Y-96443965D03*
X100525000Y-95865620D03*
%TO.N,/OUTA*%
X100540000Y-93850000D03*
X100870000Y-94680000D03*
X100525000Y-94376649D03*
%TO.N,/ISNS+*%
X108480000Y-96740000D03*
X109790000Y-94730000D03*
%TO.N,/SWDIO*%
X106000000Y-96135000D03*
%TO.N,/ISNS-*%
X109760000Y-95530000D03*
%TO.N,+3.3V*%
X109820000Y-93600000D03*
X109520000Y-97160000D03*
%TO.N,/3V3_DRV*%
X103120000Y-91940000D03*
D15*
%TO.N,/VSYS*%
X106699000Y-91970000D03*
D13*
X108570000Y-98300000D03*
D15*
X101386394Y-92935886D03*
D13*
X106920000Y-99380000D03*
%TO.N,+3.3V*%
X107810000Y-92330000D03*
%TD*%
%TA.AperFunction,Conductor*%
%TO.N,/VSYS*%
G36*
X107246183Y-90322174D02*
G01*
X107267857Y-90374500D01*
X107257943Y-90411497D01*
X107249403Y-90426289D01*
X107239657Y-90443170D01*
X107215500Y-90533326D01*
X107215500Y-90626673D01*
X107239658Y-90716831D01*
X107262462Y-90756328D01*
X107286329Y-90797668D01*
X107352332Y-90863671D01*
X107433168Y-90910341D01*
X107433167Y-90910341D01*
X107485222Y-90924289D01*
X107523326Y-90934499D01*
X107523327Y-90934500D01*
X107523329Y-90934500D01*
X107616673Y-90934500D01*
X107616673Y-90934499D01*
X107706832Y-90910341D01*
X107787668Y-90863671D01*
X107853671Y-90797668D01*
X107900341Y-90716832D01*
X107924499Y-90626673D01*
X107924500Y-90626673D01*
X107924500Y-90533327D01*
X107924499Y-90533326D01*
X107920056Y-90516746D01*
X107917322Y-90506542D01*
X107900342Y-90443170D01*
X107900341Y-90443168D01*
X107882056Y-90411498D01*
X107874664Y-90355347D01*
X107909143Y-90310414D01*
X107946143Y-90300500D01*
X108020500Y-90300500D01*
X108072826Y-90322174D01*
X108094500Y-90374500D01*
X108094500Y-91055787D01*
X108094501Y-91055819D01*
X108097113Y-91095662D01*
X108097115Y-91095682D01*
X108099637Y-91114829D01*
X108109336Y-91160809D01*
X108141986Y-91225133D01*
X108150000Y-91258626D01*
X108150000Y-91990140D01*
X108128326Y-92042466D01*
X108076000Y-92064140D01*
X108030955Y-92048850D01*
X108027670Y-92046330D01*
X107964151Y-92009658D01*
X107946832Y-91999659D01*
X107946831Y-91999658D01*
X107946832Y-91999658D01*
X107856673Y-91975500D01*
X107856671Y-91975500D01*
X107763329Y-91975500D01*
X107763327Y-91975500D01*
X107673168Y-91999658D01*
X107592332Y-92046328D01*
X107526328Y-92112332D01*
X107479658Y-92193168D01*
X107455500Y-92283326D01*
X107455500Y-92320500D01*
X107433826Y-92372826D01*
X107381500Y-92394500D01*
X106457200Y-92394500D01*
X106404875Y-92372826D01*
X106338369Y-92306320D01*
X106338366Y-92306318D01*
X106338365Y-92306317D01*
X106246132Y-92253066D01*
X106246127Y-92253064D01*
X106143255Y-92225500D01*
X106143253Y-92225500D01*
X106036747Y-92225500D01*
X106036745Y-92225500D01*
X105933872Y-92253064D01*
X105933867Y-92253066D01*
X105841634Y-92306317D01*
X105841631Y-92306319D01*
X105841631Y-92306320D01*
X105775124Y-92372826D01*
X105722800Y-92394500D01*
X105518496Y-92394500D01*
X105444412Y-92403619D01*
X105409585Y-92412325D01*
X105339922Y-92439140D01*
X105339907Y-92439147D01*
X105113323Y-92559992D01*
X105056954Y-92565492D01*
X105013206Y-92529521D01*
X105004500Y-92494698D01*
X105004500Y-92380613D01*
X104992454Y-92320054D01*
X104977427Y-92244505D01*
X104924320Y-92116294D01*
X104847221Y-92000907D01*
X104749093Y-91902779D01*
X104737955Y-91895337D01*
X104705956Y-91873956D01*
X104633706Y-91825680D01*
X104633703Y-91825678D01*
X104633702Y-91825678D01*
X104505495Y-91772573D01*
X104505488Y-91772571D01*
X104369387Y-91745500D01*
X104230613Y-91745500D01*
X104094511Y-91772571D01*
X104094504Y-91772573D01*
X103966297Y-91825678D01*
X103850907Y-91902778D01*
X103850906Y-91902780D01*
X103752780Y-92000906D01*
X103752778Y-92000907D01*
X103675678Y-92116297D01*
X103622573Y-92244504D01*
X103622571Y-92244511D01*
X103595500Y-92380613D01*
X103595500Y-92519386D01*
X103622571Y-92655488D01*
X103622573Y-92655495D01*
X103675680Y-92783706D01*
X103695808Y-92813829D01*
X103752778Y-92899092D01*
X103850907Y-92997221D01*
X103944614Y-93059834D01*
X103976080Y-93106926D01*
X103965031Y-93162475D01*
X103938326Y-93186657D01*
X103426154Y-93459816D01*
X103423728Y-93461053D01*
X103186532Y-93576557D01*
X103129998Y-93579979D01*
X103087603Y-93542424D01*
X103082656Y-93490872D01*
X103094500Y-93446672D01*
X103094500Y-93353327D01*
X103094499Y-93353326D01*
X103070341Y-93263168D01*
X103023671Y-93182332D01*
X102957667Y-93116328D01*
X102876830Y-93069658D01*
X102876832Y-93069658D01*
X102786673Y-93045500D01*
X102786671Y-93045500D01*
X102693329Y-93045500D01*
X102693327Y-93045500D01*
X102603168Y-93069658D01*
X102522332Y-93116328D01*
X102456328Y-93182332D01*
X102409658Y-93263168D01*
X102385500Y-93353326D01*
X102385500Y-93446673D01*
X102409658Y-93536831D01*
X102443724Y-93595835D01*
X102456329Y-93617668D01*
X102522332Y-93683671D01*
X102603168Y-93730341D01*
X102603169Y-93730341D01*
X102604965Y-93731378D01*
X102639444Y-93776310D01*
X102632052Y-93832463D01*
X102600364Y-93861995D01*
X102165257Y-94073874D01*
X102113706Y-94078821D01*
X102026673Y-94055500D01*
X102026671Y-94055500D01*
X101933329Y-94055500D01*
X101933327Y-94055500D01*
X101843168Y-94079658D01*
X101762332Y-94126328D01*
X101696328Y-94192332D01*
X101649658Y-94273168D01*
X101625500Y-94363326D01*
X101625500Y-94456673D01*
X101649658Y-94546831D01*
X101696328Y-94627667D01*
X101726335Y-94657674D01*
X101748009Y-94710000D01*
X101726335Y-94762326D01*
X101696328Y-94792332D01*
X101649658Y-94873168D01*
X101625500Y-94963326D01*
X101625500Y-95056673D01*
X101649658Y-95146831D01*
X101696328Y-95227667D01*
X101721335Y-95252674D01*
X101743009Y-95305000D01*
X101721335Y-95357326D01*
X101696328Y-95382332D01*
X101649658Y-95463168D01*
X101625500Y-95553326D01*
X101625500Y-95646673D01*
X101649658Y-95736831D01*
X101695211Y-95815731D01*
X101696329Y-95817668D01*
X101762332Y-95883671D01*
X101843168Y-95930341D01*
X101843167Y-95930341D01*
X101895222Y-95944289D01*
X101933326Y-95954499D01*
X101933327Y-95954500D01*
X102013654Y-95954500D01*
X102065980Y-95976174D01*
X102087639Y-96027032D01*
X102099999Y-96649998D01*
X102100000Y-96650000D01*
X102545649Y-96914088D01*
X102576318Y-96954354D01*
X102576870Y-96954088D01*
X102578183Y-96956803D01*
X102579321Y-96958296D01*
X102579855Y-96960256D01*
X102628762Y-97061317D01*
X102631304Y-97064765D01*
X102640430Y-97077137D01*
X102662382Y-97106898D01*
X102666637Y-97112528D01*
X102750494Y-97187179D01*
X102750496Y-97187180D01*
X102750497Y-97187181D01*
X102750502Y-97187185D01*
X103263709Y-97496617D01*
X103297329Y-97542196D01*
X103299500Y-97559989D01*
X103299500Y-97628539D01*
X103337947Y-97821829D01*
X103337950Y-97821839D01*
X103413367Y-98003913D01*
X103508442Y-98146202D01*
X103522861Y-98167782D01*
X103662218Y-98307139D01*
X103826086Y-98416632D01*
X104008165Y-98492051D01*
X104201459Y-98530500D01*
X104201461Y-98530500D01*
X104398539Y-98530500D01*
X104398541Y-98530500D01*
X104591835Y-98492051D01*
X104748680Y-98427084D01*
X104805316Y-98427084D01*
X104815206Y-98432078D01*
X105892666Y-99081724D01*
X105949382Y-99106168D01*
X105968541Y-99114426D01*
X105984431Y-99118845D01*
X106006751Y-99125054D01*
X106006753Y-99125054D01*
X106006756Y-99125055D01*
X106031066Y-99128087D01*
X106095675Y-99136147D01*
X106205528Y-99112973D01*
X106257854Y-99091299D01*
X106264343Y-99088524D01*
X106356966Y-99025075D01*
X107254868Y-98127174D01*
X107307194Y-98105500D01*
X108395898Y-98105500D01*
X108395906Y-98105500D01*
X108435779Y-98102887D01*
X108454929Y-98100366D01*
X108494123Y-98092570D01*
X108531627Y-98082520D01*
X108550779Y-98080000D01*
X108589219Y-98080000D01*
X108608370Y-98082521D01*
X108645879Y-98092571D01*
X108685040Y-98100360D01*
X108685052Y-98100362D01*
X108685072Y-98100366D01*
X108704223Y-98102887D01*
X108744094Y-98105500D01*
X109087612Y-98105500D01*
X109139938Y-98127174D01*
X109141140Y-98128405D01*
X109974028Y-99000952D01*
X109994500Y-99052047D01*
X109994500Y-99221204D01*
X109998950Y-99247336D01*
X110000000Y-99259759D01*
X110000000Y-99579604D01*
X109978326Y-99631930D01*
X109972228Y-99637388D01*
X109914860Y-99683284D01*
X109868632Y-99699500D01*
X105513050Y-99699500D01*
X105460724Y-99677826D01*
X105439050Y-99625500D01*
X105448964Y-99588501D01*
X105488315Y-99520341D01*
X105490341Y-99516832D01*
X105514499Y-99426673D01*
X105514500Y-99426673D01*
X105514500Y-99333327D01*
X105514499Y-99333326D01*
X105490341Y-99243168D01*
X105443671Y-99162332D01*
X105424665Y-99143326D01*
X108215500Y-99143326D01*
X108215500Y-99236673D01*
X108239658Y-99326831D01*
X108243409Y-99333327D01*
X108286329Y-99407668D01*
X108352332Y-99473671D01*
X108433168Y-99520341D01*
X108433167Y-99520341D01*
X108485222Y-99534289D01*
X108523326Y-99544499D01*
X108523327Y-99544500D01*
X108523329Y-99544500D01*
X108616673Y-99544500D01*
X108616673Y-99544499D01*
X108706832Y-99520341D01*
X108787668Y-99473671D01*
X108853671Y-99407668D01*
X108900341Y-99326832D01*
X108924499Y-99236673D01*
X108924500Y-99236673D01*
X108924500Y-99143327D01*
X108924499Y-99143326D01*
X108922575Y-99136147D01*
X108900341Y-99053168D01*
X108853671Y-98972332D01*
X108787668Y-98906329D01*
X108787667Y-98906328D01*
X108706830Y-98859658D01*
X108706832Y-98859658D01*
X108616673Y-98835500D01*
X108616671Y-98835500D01*
X108523329Y-98835500D01*
X108523327Y-98835500D01*
X108433168Y-98859658D01*
X108352332Y-98906328D01*
X108286328Y-98972332D01*
X108239658Y-99053168D01*
X108215500Y-99143326D01*
X105424665Y-99143326D01*
X105377667Y-99096328D01*
X105296830Y-99049658D01*
X105296832Y-99049658D01*
X105206673Y-99025500D01*
X105206671Y-99025500D01*
X105113329Y-99025500D01*
X105113327Y-99025500D01*
X105023168Y-99049658D01*
X104942332Y-99096328D01*
X104876328Y-99162332D01*
X104829658Y-99243168D01*
X104805500Y-99333326D01*
X104805500Y-99426673D01*
X104829658Y-99516831D01*
X104871036Y-99588501D01*
X104878428Y-99644653D01*
X104843949Y-99689586D01*
X104806950Y-99699500D01*
X102236714Y-99699500D01*
X102184388Y-99677826D01*
X102162714Y-99625500D01*
X102170233Y-99593000D01*
X102177367Y-99578404D01*
X102190573Y-99551393D01*
X102200500Y-99483260D01*
X102200500Y-99016143D01*
X102222174Y-98963817D01*
X102274500Y-98942143D01*
X102311497Y-98952056D01*
X102343168Y-98970341D01*
X102343170Y-98970342D01*
X102406542Y-98987322D01*
X102433326Y-98994499D01*
X102433327Y-98994500D01*
X102433329Y-98994500D01*
X102526673Y-98994500D01*
X102526673Y-98994499D01*
X102616832Y-98970341D01*
X102697668Y-98923671D01*
X102763671Y-98857668D01*
X102810341Y-98776832D01*
X102834499Y-98686673D01*
X102834500Y-98686673D01*
X102834500Y-98593327D01*
X102834499Y-98593326D01*
X102810341Y-98503168D01*
X102763671Y-98422332D01*
X102697667Y-98356328D01*
X102616830Y-98309658D01*
X102616832Y-98309658D01*
X102526673Y-98285500D01*
X102526671Y-98285500D01*
X102433329Y-98285500D01*
X102433327Y-98285500D01*
X102343171Y-98309657D01*
X102311499Y-98327943D01*
X102255346Y-98335334D01*
X102210413Y-98300855D01*
X102200500Y-98263856D01*
X102200500Y-98116746D01*
X102200500Y-98116740D01*
X102190573Y-98048607D01*
X102139198Y-97943517D01*
X102056483Y-97860802D01*
X102056482Y-97860801D01*
X101951394Y-97809427D01*
X101883264Y-97799500D01*
X101883260Y-97799500D01*
X100516740Y-97799500D01*
X100516735Y-97799500D01*
X100448606Y-97809427D01*
X100448605Y-97809427D01*
X100407000Y-97829767D01*
X100350472Y-97833276D01*
X100308019Y-97795786D01*
X100300500Y-97763286D01*
X100300500Y-96847254D01*
X100322174Y-96794928D01*
X100374500Y-96773254D01*
X100393653Y-96775776D01*
X100442876Y-96788965D01*
X100478326Y-96798464D01*
X100478327Y-96798465D01*
X100478329Y-96798465D01*
X100571673Y-96798465D01*
X100571673Y-96798464D01*
X100661832Y-96774306D01*
X100742668Y-96727636D01*
X100808671Y-96661633D01*
X100855341Y-96580797D01*
X100879499Y-96490638D01*
X100879500Y-96490638D01*
X100879500Y-96397292D01*
X100879499Y-96397291D01*
X100855341Y-96307133D01*
X100808671Y-96226297D01*
X100789492Y-96207118D01*
X100767818Y-96154792D01*
X100789491Y-96102467D01*
X100808671Y-96083288D01*
X100855341Y-96002452D01*
X100879499Y-95912293D01*
X100879500Y-95912293D01*
X100879500Y-95818950D01*
X100879500Y-95818949D01*
X100878637Y-95815729D01*
X100886025Y-95759578D01*
X100913115Y-95732485D01*
X100916825Y-95730342D01*
X100916832Y-95730341D01*
X100997668Y-95683671D01*
X101063671Y-95617668D01*
X101110341Y-95536832D01*
X101134499Y-95446673D01*
X101134500Y-95446673D01*
X101134500Y-95353327D01*
X101134499Y-95353326D01*
X101126061Y-95321837D01*
X101110341Y-95263168D01*
X101063671Y-95182332D01*
X101002020Y-95120681D01*
X100980346Y-95068355D01*
X101002020Y-95016029D01*
X101017335Y-95004277D01*
X101087668Y-94963671D01*
X101153671Y-94897668D01*
X101200341Y-94816832D01*
X101224499Y-94726673D01*
X101224500Y-94726673D01*
X101224500Y-94633327D01*
X101224499Y-94633326D01*
X101200341Y-94543168D01*
X101153671Y-94462332D01*
X101087667Y-94396328D01*
X101028488Y-94362162D01*
X101006832Y-94349659D01*
X101006831Y-94349658D01*
X100916599Y-94325480D01*
X100871666Y-94291001D01*
X100868950Y-94285837D01*
X100866030Y-94279711D01*
X100855341Y-94239817D01*
X100808671Y-94158981D01*
X100808336Y-94158646D01*
X100806413Y-94154610D01*
X100805080Y-94129022D01*
X100801737Y-94103622D01*
X100803590Y-94100411D01*
X100803468Y-94098049D01*
X100807607Y-94093455D01*
X100820891Y-94070447D01*
X100823671Y-94067668D01*
X100870341Y-93986832D01*
X100894499Y-93896673D01*
X100894500Y-93896673D01*
X100894500Y-93803327D01*
X100894499Y-93803326D01*
X100870341Y-93713168D01*
X100823671Y-93632332D01*
X100757667Y-93566328D01*
X100679006Y-93520914D01*
X100676832Y-93519659D01*
X100676831Y-93519658D01*
X100676832Y-93519658D01*
X100586673Y-93495500D01*
X100586671Y-93495500D01*
X100493329Y-93495500D01*
X100493327Y-93495500D01*
X100403164Y-93519659D01*
X100402811Y-93519806D01*
X100402618Y-93519805D01*
X100398483Y-93520914D01*
X100398185Y-93519805D01*
X100346174Y-93519800D01*
X100306130Y-93479747D01*
X100300500Y-93451436D01*
X100300500Y-92236713D01*
X100322174Y-92184387D01*
X100374500Y-92162713D01*
X100406996Y-92170230D01*
X100448607Y-92190573D01*
X100516740Y-92200500D01*
X100516746Y-92200500D01*
X101883254Y-92200500D01*
X101883260Y-92200500D01*
X101951393Y-92190573D01*
X102056483Y-92139198D01*
X102066535Y-92129145D01*
X102118859Y-92107470D01*
X102171186Y-92129142D01*
X102192862Y-92181467D01*
X102190340Y-92200623D01*
X102165500Y-92293326D01*
X102165500Y-92386673D01*
X102189658Y-92476831D01*
X102220079Y-92529521D01*
X102236329Y-92557668D01*
X102302332Y-92623671D01*
X102383168Y-92670341D01*
X102383167Y-92670341D01*
X102435222Y-92684289D01*
X102473326Y-92694499D01*
X102473327Y-92694500D01*
X102473329Y-92694500D01*
X102566673Y-92694500D01*
X102566673Y-92694499D01*
X102656832Y-92670341D01*
X102737668Y-92623671D01*
X102803671Y-92557668D01*
X102850341Y-92476832D01*
X102874499Y-92386673D01*
X102874500Y-92386673D01*
X102874500Y-92335772D01*
X102896174Y-92283446D01*
X102948500Y-92261772D01*
X102978174Y-92269729D01*
X102978689Y-92268486D01*
X102983167Y-92270341D01*
X102989747Y-92272104D01*
X103073326Y-92294499D01*
X103073327Y-92294500D01*
X103073329Y-92294500D01*
X103166673Y-92294500D01*
X103166673Y-92294499D01*
X103256832Y-92270341D01*
X103337668Y-92223671D01*
X103403671Y-92157668D01*
X103450341Y-92076832D01*
X103474499Y-91986673D01*
X103474500Y-91986673D01*
X103474500Y-91893327D01*
X103474499Y-91893326D01*
X103463907Y-91853798D01*
X103450341Y-91803168D01*
X103403671Y-91722332D01*
X103337668Y-91656329D01*
X103337667Y-91656328D01*
X103256830Y-91609658D01*
X103256832Y-91609658D01*
X103166673Y-91585500D01*
X103166671Y-91585500D01*
X103073329Y-91585500D01*
X103073327Y-91585500D01*
X102983168Y-91609658D01*
X102902332Y-91656328D01*
X102836328Y-91722332D01*
X102789658Y-91803168D01*
X102765500Y-91893326D01*
X102765500Y-91944227D01*
X102743826Y-91996553D01*
X102691500Y-92018227D01*
X102661823Y-92010275D01*
X102661311Y-92011514D01*
X102656832Y-92009658D01*
X102566673Y-91985500D01*
X102566671Y-91985500D01*
X102473329Y-91985500D01*
X102473327Y-91985500D01*
X102383168Y-92009658D01*
X102302332Y-92056328D01*
X102296884Y-92061776D01*
X102244557Y-92083447D01*
X102192232Y-92061770D01*
X102170561Y-92009443D01*
X102178079Y-91976949D01*
X102190573Y-91951393D01*
X102200500Y-91883260D01*
X102200500Y-90903326D01*
X104695500Y-90903326D01*
X104695500Y-90996673D01*
X104719658Y-91086831D01*
X104735823Y-91114829D01*
X104766329Y-91167668D01*
X104832332Y-91233671D01*
X104913168Y-91280341D01*
X104913167Y-91280341D01*
X104965222Y-91294289D01*
X105003326Y-91304499D01*
X105003327Y-91304500D01*
X105003329Y-91304500D01*
X105096673Y-91304500D01*
X105096673Y-91304499D01*
X105186832Y-91280341D01*
X105267668Y-91233671D01*
X105333671Y-91167668D01*
X105380341Y-91086832D01*
X105404499Y-90996673D01*
X105404500Y-90996673D01*
X105404500Y-90993326D01*
X105655500Y-90993326D01*
X105655500Y-91086673D01*
X105679658Y-91176831D01*
X105712475Y-91233671D01*
X105726329Y-91257668D01*
X105792332Y-91323671D01*
X105873168Y-91370341D01*
X105873167Y-91370341D01*
X105925222Y-91384289D01*
X105963326Y-91394499D01*
X105963327Y-91394500D01*
X105963329Y-91394500D01*
X106056673Y-91394500D01*
X106056673Y-91394499D01*
X106146832Y-91370341D01*
X106227668Y-91323671D01*
X106293671Y-91257668D01*
X106340341Y-91176832D01*
X106364499Y-91086673D01*
X106364500Y-91086673D01*
X106364500Y-90993327D01*
X106364499Y-90993326D01*
X106348736Y-90934500D01*
X106340341Y-90903168D01*
X106293671Y-90822332D01*
X106227668Y-90756329D01*
X106227667Y-90756328D01*
X106146830Y-90709658D01*
X106146832Y-90709658D01*
X106056673Y-90685500D01*
X106056671Y-90685500D01*
X105963329Y-90685500D01*
X105963327Y-90685500D01*
X105873168Y-90709658D01*
X105792332Y-90756328D01*
X105726328Y-90822332D01*
X105679658Y-90903168D01*
X105655500Y-90993326D01*
X105404500Y-90993326D01*
X105404500Y-90903327D01*
X105404499Y-90903326D01*
X105380341Y-90813168D01*
X105333671Y-90732332D01*
X105267667Y-90666328D01*
X105186830Y-90619658D01*
X105186832Y-90619658D01*
X105096673Y-90595500D01*
X105096671Y-90595500D01*
X105003329Y-90595500D01*
X105003327Y-90595500D01*
X104913168Y-90619658D01*
X104832332Y-90666328D01*
X104766328Y-90732332D01*
X104719658Y-90813168D01*
X104695500Y-90903326D01*
X102200500Y-90903326D01*
X102200500Y-90516740D01*
X102190573Y-90448607D01*
X102170233Y-90407000D01*
X102166724Y-90350472D01*
X102204214Y-90308019D01*
X102236714Y-90300500D01*
X107193857Y-90300500D01*
X107246183Y-90322174D01*
G37*
%TD.AperFunction*%
%TD*%
%TA.AperFunction,Conductor*%
%TO.N,GND*%
G36*
X109914860Y-90316716D02*
G01*
X111815033Y-91836854D01*
X111842353Y-91886465D01*
X111826590Y-91940864D01*
X111776978Y-91968184D01*
X111745939Y-91965015D01*
X111627711Y-91926600D01*
X111627698Y-91926597D01*
X111456612Y-91899500D01*
X111456611Y-91899500D01*
X111283389Y-91899500D01*
X111283388Y-91899500D01*
X111112301Y-91926597D01*
X111112288Y-91926600D01*
X110947557Y-91980125D01*
X110947553Y-91980127D01*
X110793212Y-92058767D01*
X110653076Y-92160582D01*
X110530582Y-92283076D01*
X110428767Y-92423212D01*
X110350127Y-92577553D01*
X110350125Y-92577557D01*
X110296600Y-92742288D01*
X110296597Y-92742301D01*
X110269500Y-92913388D01*
X110269500Y-93086611D01*
X110275221Y-93122734D01*
X110261999Y-93177806D01*
X110213708Y-93207399D01*
X110158636Y-93194177D01*
X110149806Y-93186636D01*
X110142665Y-93179495D01*
X110022836Y-93110312D01*
X110022831Y-93110310D01*
X109889185Y-93074500D01*
X109889183Y-93074500D01*
X109750817Y-93074500D01*
X109750815Y-93074500D01*
X109617168Y-93110310D01*
X109617163Y-93110312D01*
X109497334Y-93179495D01*
X109399495Y-93277334D01*
X109330312Y-93397163D01*
X109330310Y-93397168D01*
X109294500Y-93530814D01*
X109294500Y-93669185D01*
X109330310Y-93802831D01*
X109330312Y-93802836D01*
X109399495Y-93922665D01*
X109497335Y-94020505D01*
X109617164Y-94089688D01*
X109617168Y-94089689D01*
X109621644Y-94091543D01*
X109621036Y-94093009D01*
X109661399Y-94123970D01*
X109668800Y-94180122D01*
X109634329Y-94225060D01*
X109616473Y-94232458D01*
X109587167Y-94240311D01*
X109587163Y-94240312D01*
X109467334Y-94309495D01*
X109369495Y-94407334D01*
X109300312Y-94527163D01*
X109300310Y-94527168D01*
X109264500Y-94660814D01*
X109264500Y-94799185D01*
X109300310Y-94932831D01*
X109300312Y-94932836D01*
X109369495Y-95052665D01*
X109379504Y-95062674D01*
X109401178Y-95115000D01*
X109379504Y-95167326D01*
X109339495Y-95207334D01*
X109270312Y-95327163D01*
X109270310Y-95327168D01*
X109234500Y-95460814D01*
X109234500Y-95599185D01*
X109270310Y-95732831D01*
X109270312Y-95732836D01*
X109339495Y-95852665D01*
X109437335Y-95950505D01*
X109557164Y-96019688D01*
X109690814Y-96055499D01*
X109690815Y-96055500D01*
X109690817Y-96055500D01*
X109829185Y-96055500D01*
X109829185Y-96055499D01*
X109962836Y-96019688D01*
X110082665Y-95950505D01*
X110180505Y-95852665D01*
X110249688Y-95732836D01*
X110285500Y-95599183D01*
X110285500Y-95599177D01*
X110286133Y-95594376D01*
X110289250Y-95594786D01*
X110307174Y-95551515D01*
X110359500Y-95529841D01*
X110411826Y-95551515D01*
X110425436Y-95570249D01*
X110428765Y-95576784D01*
X110428767Y-95576787D01*
X110526757Y-95711658D01*
X110530586Y-95716928D01*
X110653072Y-95839414D01*
X110653075Y-95839416D01*
X110653076Y-95839417D01*
X110793212Y-95941232D01*
X110947553Y-96019872D01*
X110947557Y-96019874D01*
X111112288Y-96073399D01*
X111112294Y-96073400D01*
X111112299Y-96073402D01*
X111215125Y-96089688D01*
X111283388Y-96100500D01*
X111283389Y-96100500D01*
X111456612Y-96100500D01*
X111524875Y-96089688D01*
X111627701Y-96073402D01*
X111627708Y-96073399D01*
X111627711Y-96073399D01*
X111792442Y-96019874D01*
X111792442Y-96019873D01*
X111792445Y-96019873D01*
X111946788Y-95941232D01*
X112082005Y-95842990D01*
X112137076Y-95829769D01*
X112185367Y-95859362D01*
X112199500Y-95902858D01*
X112199500Y-97820006D01*
X112177826Y-97872332D01*
X112171727Y-97877790D01*
X110420227Y-99278990D01*
X110365828Y-99294753D01*
X110316216Y-99267433D01*
X110300000Y-99221206D01*
X110300000Y-98899999D01*
X109250000Y-97800000D01*
X108744094Y-97800000D01*
X108724943Y-97797479D01*
X108639183Y-97774500D01*
X108500817Y-97774500D01*
X108415056Y-97797479D01*
X108395906Y-97800000D01*
X107150000Y-97800000D01*
X106140945Y-98809054D01*
X106088619Y-98830728D01*
X106050410Y-98820100D01*
X103832225Y-97482665D01*
X102908238Y-96925555D01*
X102874619Y-96879976D01*
X102883076Y-96823973D01*
X102928655Y-96790354D01*
X102965600Y-96790704D01*
X103020814Y-96805499D01*
X103020815Y-96805500D01*
X103020817Y-96805500D01*
X103159185Y-96805500D01*
X103159185Y-96805499D01*
X103292836Y-96769688D01*
X103412665Y-96700505D01*
X103442356Y-96670814D01*
X107954500Y-96670814D01*
X107954500Y-96809185D01*
X107990310Y-96942831D01*
X107990312Y-96942836D01*
X108059495Y-97062665D01*
X108157335Y-97160505D01*
X108277164Y-97229688D01*
X108410814Y-97265499D01*
X108410815Y-97265500D01*
X108410817Y-97265500D01*
X108549185Y-97265500D01*
X108549185Y-97265499D01*
X108682836Y-97229688D01*
X108802665Y-97160505D01*
X108868174Y-97094996D01*
X108920500Y-97073322D01*
X108972826Y-97094996D01*
X108994500Y-97147322D01*
X108994500Y-97229185D01*
X109030310Y-97362831D01*
X109030312Y-97362836D01*
X109099495Y-97482665D01*
X109197335Y-97580505D01*
X109317164Y-97649688D01*
X109450814Y-97685499D01*
X109450815Y-97685500D01*
X109450817Y-97685500D01*
X109589185Y-97685500D01*
X109589185Y-97685499D01*
X109722836Y-97649688D01*
X109722838Y-97649686D01*
X109726412Y-97648729D01*
X109782564Y-97656121D01*
X109817043Y-97701054D01*
X109817044Y-97739359D01*
X109784500Y-97860817D01*
X109784500Y-97999185D01*
X109820310Y-98132831D01*
X109820312Y-98132836D01*
X109889495Y-98252665D01*
X109987335Y-98350505D01*
X110107164Y-98419688D01*
X110240814Y-98455499D01*
X110240815Y-98455500D01*
X110240817Y-98455500D01*
X110379185Y-98455500D01*
X110379185Y-98455499D01*
X110512836Y-98419688D01*
X110632665Y-98350505D01*
X110730505Y-98252665D01*
X110799688Y-98132836D01*
X110835499Y-97999185D01*
X110835500Y-97999185D01*
X110835500Y-97860815D01*
X110835499Y-97860814D01*
X110834094Y-97855572D01*
X110799688Y-97727164D01*
X110730505Y-97607335D01*
X110632665Y-97509495D01*
X110512836Y-97440312D01*
X110512831Y-97440310D01*
X110379185Y-97404500D01*
X110379183Y-97404500D01*
X110240817Y-97404500D01*
X110107164Y-97440312D01*
X110107162Y-97440313D01*
X110103587Y-97441271D01*
X110047434Y-97433878D01*
X110012955Y-97388945D01*
X110012956Y-97350639D01*
X110045364Y-97229689D01*
X110045499Y-97229185D01*
X110045500Y-97229185D01*
X110045500Y-97090815D01*
X110045499Y-97090814D01*
X110009689Y-96957168D01*
X110009688Y-96957164D01*
X109940505Y-96837335D01*
X109842665Y-96739495D01*
X109722836Y-96670312D01*
X109722831Y-96670310D01*
X109589185Y-96634500D01*
X109589183Y-96634500D01*
X109450817Y-96634500D01*
X109450815Y-96634500D01*
X109317168Y-96670310D01*
X109317163Y-96670312D01*
X109197334Y-96739495D01*
X109131826Y-96805004D01*
X109079500Y-96826678D01*
X109027174Y-96805004D01*
X109005500Y-96752678D01*
X109005500Y-96670815D01*
X109005499Y-96670814D01*
X109005364Y-96670312D01*
X108969688Y-96537164D01*
X108900505Y-96417335D01*
X108802665Y-96319495D01*
X108682836Y-96250312D01*
X108682831Y-96250310D01*
X108549185Y-96214500D01*
X108549183Y-96214500D01*
X108410817Y-96214500D01*
X108410815Y-96214500D01*
X108277168Y-96250310D01*
X108277163Y-96250312D01*
X108157334Y-96319495D01*
X108059495Y-96417334D01*
X107990312Y-96537163D01*
X107990310Y-96537168D01*
X107954500Y-96670814D01*
X103442356Y-96670814D01*
X103510505Y-96602665D01*
X103579688Y-96482836D01*
X103615499Y-96349185D01*
X103615500Y-96349185D01*
X103615500Y-96210815D01*
X103615499Y-96210814D01*
X103592639Y-96125500D01*
X103579688Y-96077164D01*
X103573135Y-96065814D01*
X105474500Y-96065814D01*
X105474500Y-96204185D01*
X105510310Y-96337831D01*
X105510312Y-96337836D01*
X105579495Y-96457665D01*
X105677335Y-96555505D01*
X105797164Y-96624688D01*
X105930814Y-96660499D01*
X105930815Y-96660500D01*
X105930817Y-96660500D01*
X106069185Y-96660500D01*
X106069185Y-96660499D01*
X106202836Y-96624688D01*
X106322665Y-96555505D01*
X106420505Y-96457665D01*
X106489688Y-96337836D01*
X106525499Y-96204185D01*
X106525500Y-96204185D01*
X106525500Y-96065815D01*
X106525499Y-96065814D01*
X106522735Y-96055500D01*
X106489688Y-95932164D01*
X106420505Y-95812335D01*
X106322665Y-95714495D01*
X106202836Y-95645312D01*
X106202831Y-95645310D01*
X106069185Y-95609500D01*
X106069183Y-95609500D01*
X105930817Y-95609500D01*
X105930815Y-95609500D01*
X105797168Y-95645310D01*
X105797163Y-95645312D01*
X105677334Y-95714495D01*
X105579495Y-95812334D01*
X105510312Y-95932163D01*
X105510310Y-95932168D01*
X105474500Y-96065814D01*
X103573135Y-96065814D01*
X103510505Y-95957335D01*
X103412665Y-95859495D01*
X103292836Y-95790312D01*
X103292831Y-95790310D01*
X103154847Y-95753337D01*
X103109914Y-95718859D01*
X103100000Y-95681859D01*
X103100000Y-94974000D01*
X103121674Y-94921674D01*
X103135174Y-94916082D01*
X103549500Y-94916082D01*
X103549500Y-95063918D01*
X103554014Y-95086611D01*
X103578340Y-95208907D01*
X103578343Y-95208917D01*
X103634915Y-95345494D01*
X103711972Y-95460817D01*
X103717049Y-95468416D01*
X103821584Y-95572951D01*
X103944505Y-95655084D01*
X104081087Y-95711658D01*
X104226082Y-95740500D01*
X104226084Y-95740500D01*
X104373916Y-95740500D01*
X104373918Y-95740500D01*
X104518913Y-95711658D01*
X104655495Y-95655084D01*
X104778416Y-95572951D01*
X104882951Y-95468416D01*
X104965084Y-95345495D01*
X105021658Y-95208913D01*
X105050500Y-95063918D01*
X105050500Y-94916082D01*
X105021658Y-94771087D01*
X104965084Y-94634505D01*
X104882951Y-94511584D01*
X104778416Y-94407049D01*
X104655495Y-94324916D01*
X104655496Y-94324916D01*
X104655494Y-94324915D01*
X104518917Y-94268343D01*
X104518907Y-94268340D01*
X104421811Y-94249026D01*
X104373918Y-94239500D01*
X104226082Y-94239500D01*
X104184977Y-94247676D01*
X104081092Y-94268340D01*
X104081082Y-94268343D01*
X103944505Y-94324915D01*
X103821584Y-94407048D01*
X103821583Y-94407050D01*
X103717050Y-94511583D01*
X103717048Y-94511584D01*
X103634915Y-94634505D01*
X103578343Y-94771082D01*
X103578340Y-94771092D01*
X103554263Y-94892135D01*
X103549500Y-94916082D01*
X103135174Y-94916082D01*
X103174000Y-94900000D01*
X103250000Y-94900000D01*
X103250000Y-93944400D01*
X103271674Y-93892074D01*
X103289176Y-93879106D01*
X103432181Y-93802837D01*
X105483676Y-92708705D01*
X105518500Y-92700000D01*
X107406178Y-92700000D01*
X107458504Y-92721674D01*
X107487335Y-92750505D01*
X107607164Y-92819688D01*
X107740814Y-92855499D01*
X107740815Y-92855500D01*
X107740817Y-92855500D01*
X107879185Y-92855500D01*
X107879185Y-92855499D01*
X108012836Y-92819688D01*
X108132665Y-92750505D01*
X108161496Y-92721674D01*
X108213822Y-92700000D01*
X108400000Y-92700000D01*
X108400000Y-92224207D01*
X108421674Y-92171881D01*
X108474000Y-92150207D01*
X108493153Y-92152729D01*
X108526438Y-92161647D01*
X108540814Y-92165499D01*
X108540815Y-92165500D01*
X108540817Y-92165500D01*
X108679185Y-92165500D01*
X108679185Y-92165499D01*
X108812836Y-92129688D01*
X108932665Y-92060505D01*
X109030505Y-91962665D01*
X109099688Y-91842836D01*
X109135499Y-91709185D01*
X109135500Y-91709185D01*
X109135500Y-91590814D01*
X109604500Y-91590814D01*
X109604500Y-91729185D01*
X109640310Y-91862831D01*
X109640312Y-91862836D01*
X109709495Y-91982665D01*
X109807335Y-92080505D01*
X109927164Y-92149688D01*
X110060814Y-92185499D01*
X110060815Y-92185500D01*
X110060817Y-92185500D01*
X110199185Y-92185500D01*
X110199185Y-92185499D01*
X110332836Y-92149688D01*
X110452665Y-92080505D01*
X110550505Y-91982665D01*
X110619688Y-91862836D01*
X110655499Y-91729185D01*
X110655500Y-91729185D01*
X110655500Y-91590815D01*
X110655499Y-91590814D01*
X110650140Y-91570815D01*
X110619688Y-91457164D01*
X110550505Y-91337335D01*
X110452665Y-91239495D01*
X110332836Y-91170312D01*
X110332831Y-91170310D01*
X110199185Y-91134500D01*
X110199183Y-91134500D01*
X110060817Y-91134500D01*
X110060815Y-91134500D01*
X109927168Y-91170310D01*
X109927163Y-91170312D01*
X109807334Y-91239495D01*
X109709495Y-91337334D01*
X109640312Y-91457163D01*
X109640310Y-91457168D01*
X109604500Y-91590814D01*
X109135500Y-91590814D01*
X109135500Y-91570815D01*
X109135499Y-91570814D01*
X109124479Y-91529688D01*
X109099688Y-91437164D01*
X109030505Y-91317335D01*
X108932665Y-91219495D01*
X108812836Y-91150312D01*
X108812831Y-91150310D01*
X108679185Y-91114500D01*
X108679183Y-91114500D01*
X108540817Y-91114500D01*
X108540815Y-91114500D01*
X108493153Y-91127271D01*
X108437000Y-91119879D01*
X108402522Y-91074946D01*
X108400000Y-91055793D01*
X108400000Y-90374500D01*
X108421674Y-90322174D01*
X108474000Y-90300500D01*
X109868633Y-90300500D01*
X109914860Y-90316716D01*
G37*
%TD.AperFunction*%
%TD*%
M02*
