%TF.GenerationSoftware,KiCad,Pcbnew,9.0.6*%
%TF.CreationDate,2025-12-22T03:41:51-08:00*%
%TF.ProjectId,sg90-prod-ch32v006,73673930-2d70-4726-9f64-2d6368333276,rev?*%
%TF.SameCoordinates,Original*%
%TF.FileFunction,Legend,Top*%
%TF.FilePolarity,Positive*%
%FSLAX46Y46*%
G04 Gerber Fmt 4.6, Leading zero omitted, Abs format (unit mm)*
G04 Created by KiCad (PCBNEW 9.0.6) date 2025-12-22 03:41:51*
%MOMM*%
%LPD*%
G01*
G04 APERTURE LIST*
G04 Aperture macros list*
%AMRoundRect*
0 Rectangle with rounded corners*
0 $1 Rounding radius*
0 $2 $3 $4 $5 $6 $7 $8 $9 X,Y pos of 4 corners*
0 Add a 4 corners polygon primitive as box body*
4,1,4,$2,$3,$4,$5,$6,$7,$8,$9,$2,$3,0*
0 Add four circle primitives for the rounded corners*
1,1,$1+$1,$2,$3*
1,1,$1+$1,$4,$5*
1,1,$1+$1,$6,$7*
1,1,$1+$1,$8,$9*
0 Add four rect primitives between the rounded corners*
20,1,$1+$1,$2,$3,$4,$5,0*
20,1,$1+$1,$4,$5,$6,$7,0*
20,1,$1+$1,$6,$7,$8,$9,0*
20,1,$1+$1,$8,$9,$2,$3,0*%
%AMFreePoly0*
4,1,14,0.885355,0.885355,0.900000,0.850000,0.900000,-0.850000,0.885355,-0.885355,0.850000,-0.900000,-0.550000,-0.900000,-0.585355,-0.885355,-0.885355,-0.585355,-0.900000,-0.550000,-0.900000,0.850000,-0.885355,0.885355,-0.850000,0.900000,0.850000,0.900000,0.885355,0.885355,0.885355,0.885355,$1*%
G04 Aperture macros list end*
%ADD10C,0.150000*%
%ADD11C,0.120000*%
%ADD12C,0.200000*%
%ADD13RoundRect,0.135000X-0.185000X0.135000X-0.185000X-0.135000X0.185000X-0.135000X0.185000X0.135000X0*%
%ADD14R,0.280000X0.580000*%
%ADD15RoundRect,0.140000X0.140000X0.170000X-0.140000X0.170000X-0.140000X-0.170000X0.140000X-0.170000X0*%
%ADD16RoundRect,0.135000X-0.135000X-0.185000X0.135000X-0.185000X0.135000X0.185000X-0.135000X0.185000X0*%
%ADD17RoundRect,0.250000X-0.650000X0.650000X-0.650000X-0.650000X0.650000X-0.650000X0.650000X0.650000X0*%
%ADD18RoundRect,0.135000X0.135000X0.185000X-0.135000X0.185000X-0.135000X-0.185000X0.135000X-0.185000X0*%
%ADD19RoundRect,0.050000X0.140561X-0.304537X0.327966X-0.070274X-0.140561X0.304537X-0.327966X0.070274X0*%
%ADD20R,0.800000X0.200000*%
%ADD21R,0.200000X0.800000*%
%ADD22FreePoly0,90.000000*%
%ADD23RoundRect,0.140000X0.170000X-0.140000X0.170000X0.140000X-0.170000X0.140000X-0.170000X-0.140000X0*%
%ADD24RoundRect,0.135000X0.185000X-0.135000X0.185000X0.135000X-0.185000X0.135000X-0.185000X-0.135000X0*%
%ADD25RoundRect,0.062500X-0.187500X-0.062500X0.187500X-0.062500X0.187500X0.062500X-0.187500X0.062500X0*%
%ADD26R,0.900000X1.600000*%
%ADD27RoundRect,0.140000X-0.170000X0.140000X-0.170000X-0.140000X0.170000X-0.140000X0.170000X0.140000X0*%
%ADD28RoundRect,0.140000X-0.140000X-0.170000X0.140000X-0.170000X0.140000X0.170000X-0.140000X0.170000X0*%
%ADD29C,1.600000*%
%ADD30C,1.800000*%
G04 APERTURE END LIST*
D10*
X108314819Y-100195713D02*
X108314819Y-99624285D01*
X109314819Y-99909999D02*
X108314819Y-99909999D01*
X109314819Y-99290951D02*
X108314819Y-99290951D01*
X108791009Y-99290951D02*
X108791009Y-98719523D01*
X109314819Y-98719523D02*
X108314819Y-98719523D01*
X109314819Y-97719523D02*
X109314819Y-98290951D01*
X109314819Y-98005237D02*
X108314819Y-98005237D01*
X108314819Y-98005237D02*
X108457676Y-98100475D01*
X108457676Y-98100475D02*
X108552914Y-98195713D01*
X108552914Y-98195713D02*
X108600533Y-98290951D01*
X108353333Y-99094819D02*
X108020000Y-98618628D01*
X107781905Y-99094819D02*
X107781905Y-98094819D01*
X107781905Y-98094819D02*
X108162857Y-98094819D01*
X108162857Y-98094819D02*
X108258095Y-98142438D01*
X108258095Y-98142438D02*
X108305714Y-98190057D01*
X108305714Y-98190057D02*
X108353333Y-98285295D01*
X108353333Y-98285295D02*
X108353333Y-98428152D01*
X108353333Y-98428152D02*
X108305714Y-98523390D01*
X108305714Y-98523390D02*
X108258095Y-98571009D01*
X108258095Y-98571009D02*
X108162857Y-98618628D01*
X108162857Y-98618628D02*
X107781905Y-98618628D01*
X109258095Y-98094819D02*
X108781905Y-98094819D01*
X108781905Y-98094819D02*
X108734286Y-98571009D01*
X108734286Y-98571009D02*
X108781905Y-98523390D01*
X108781905Y-98523390D02*
X108877143Y-98475771D01*
X108877143Y-98475771D02*
X109115238Y-98475771D01*
X109115238Y-98475771D02*
X109210476Y-98523390D01*
X109210476Y-98523390D02*
X109258095Y-98571009D01*
X109258095Y-98571009D02*
X109305714Y-98666247D01*
X109305714Y-98666247D02*
X109305714Y-98904342D01*
X109305714Y-98904342D02*
X109258095Y-98999580D01*
X109258095Y-98999580D02*
X109210476Y-99047200D01*
X109210476Y-99047200D02*
X109115238Y-99094819D01*
X109115238Y-99094819D02*
X108877143Y-99094819D01*
X108877143Y-99094819D02*
X108781905Y-99047200D01*
X108781905Y-99047200D02*
X108734286Y-98999580D01*
D11*
%TO.C,R3*%
X102140000Y-91676359D02*
X102140000Y-91983641D01*
X102900000Y-91676359D02*
X102900000Y-91983641D01*
D10*
%TO.C,U2*%
X107160000Y-92000000D02*
X107160000Y-90650000D01*
X108160000Y-90650000D02*
X107900000Y-90650000D01*
X108910000Y-92000000D02*
X108910000Y-90650000D01*
D12*
X107190000Y-92400000D02*
G75*
G02*
X106990000Y-92400000I-100000J0D01*
G01*
X106990000Y-92400000D02*
G75*
G02*
X107190000Y-92400000I100000J0D01*
G01*
D11*
%TO.C,C4*%
X106427836Y-90250000D02*
X106212164Y-90250000D01*
X106427836Y-90970000D02*
X106212164Y-90970000D01*
%TO.C,R8*%
X106256359Y-98240000D02*
X106563641Y-98240000D01*
X106256359Y-99000000D02*
X106563641Y-99000000D01*
%TO.C,R7*%
X106563641Y-99000000D02*
X106256359Y-99000000D01*
X106563641Y-99760000D02*
X106256359Y-99760000D01*
%TO.C,R11*%
X102826359Y-99000000D02*
X103133641Y-99000000D01*
X102826359Y-99760000D02*
X103133641Y-99760000D01*
%TO.C,C6*%
X103327836Y-93040000D02*
X103112164Y-93040000D01*
X103327836Y-93760000D02*
X103112164Y-93760000D01*
%TO.C,D1*%
X109656310Y-91868147D02*
X110474646Y-90845199D01*
X109656310Y-91868147D02*
X110608981Y-92630263D01*
X110608981Y-92630263D02*
X111427317Y-91607312D01*
D10*
%TO.C,U4*%
X105900000Y-93400000D02*
X106300000Y-93400000D01*
X105900000Y-93800000D02*
X105900000Y-93400000D01*
X105900000Y-96200000D02*
X105900000Y-96600000D01*
X105900000Y-96600000D02*
X106300000Y-96600000D01*
X108700000Y-93400000D02*
X109100000Y-93400000D01*
X109100000Y-93400000D02*
X109100000Y-93800000D01*
X109100000Y-96200000D02*
X109100000Y-96600000D01*
X109100000Y-96600000D02*
X108700000Y-96600000D01*
D12*
X109590000Y-96450000D02*
G75*
G02*
X109390000Y-96450000I-100000J0D01*
G01*
X109390000Y-96450000D02*
G75*
G02*
X109590000Y-96450000I100000J0D01*
G01*
D11*
%TO.C,R10*%
X104496359Y-90240000D02*
X104803641Y-90240000D01*
X104496359Y-91000000D02*
X104803641Y-91000000D01*
%TO.C,C9*%
X109270000Y-93227836D02*
X109270000Y-93012164D01*
X109990000Y-93227836D02*
X109990000Y-93012164D01*
%TO.C,TH1*%
X107310000Y-98756359D02*
X107310000Y-99063641D01*
X108070000Y-98756359D02*
X108070000Y-99063641D01*
%TO.C,R1*%
X108960000Y-91233641D02*
X108960000Y-90926359D01*
X109720000Y-91233641D02*
X109720000Y-90926359D01*
%TO.C,U3*%
X101220000Y-93860000D02*
X103220000Y-93860000D01*
X101230000Y-96140000D02*
X103230000Y-96140000D01*
X100860000Y-93930000D02*
X100580000Y-93930000D01*
X100860000Y-93650000D01*
X100860000Y-93930000D01*
G36*
X100860000Y-93930000D02*
G01*
X100580000Y-93930000D01*
X100860000Y-93650000D01*
X100860000Y-93930000D01*
G37*
%TO.C,R6*%
X109660000Y-98343641D02*
X109660000Y-98036359D01*
X110420000Y-98343641D02*
X110420000Y-98036359D01*
%TO.C,C5*%
X103067836Y-98280000D02*
X102852164Y-98280000D01*
X103067836Y-99000000D02*
X102852164Y-99000000D01*
%TO.C,R9*%
X102826359Y-90240000D02*
X103133641Y-90240000D01*
X102826359Y-91000000D02*
X103133641Y-91000000D01*
%TO.C,R2*%
X102575000Y-97213859D02*
X102575000Y-97521141D01*
X103335000Y-97213859D02*
X103335000Y-97521141D01*
%TO.C,R5*%
X108673641Y-97090000D02*
X108366359Y-97090000D01*
X108673641Y-97850000D02*
X108366359Y-97850000D01*
%TO.C,R12*%
X104496359Y-99000000D02*
X104803641Y-99000000D01*
X104496359Y-99760000D02*
X104803641Y-99760000D01*
%TO.C,C2*%
X108210000Y-98672164D02*
X108210000Y-98887836D01*
X108930000Y-98672164D02*
X108930000Y-98887836D01*
%TO.C,C7*%
X101492164Y-93050000D02*
X101707836Y-93050000D01*
X101492164Y-93770000D02*
X101707836Y-93770000D01*
%TO.C,C3*%
X108940000Y-98672164D02*
X108940000Y-98887836D01*
X109660000Y-98672164D02*
X109660000Y-98887836D01*
%TD*%
%LPC*%
D13*
%TO.C,R3*%
X102520000Y-91320000D03*
X102520000Y-92340000D03*
%TD*%
D14*
%TO.C,U2*%
X107530000Y-92040000D03*
X108030000Y-92040000D03*
X108530000Y-92040000D03*
X108530000Y-90600000D03*
X107530000Y-90600000D03*
%TD*%
D15*
%TO.C,C4*%
X106800000Y-90610000D03*
X105840000Y-90610000D03*
%TD*%
D16*
%TO.C,R8*%
X105900000Y-98620000D03*
X106920000Y-98620000D03*
%TD*%
D17*
%TO.C,J2*%
X101200000Y-91200000D03*
X101200000Y-98800000D03*
%TD*%
D18*
%TO.C,R7*%
X106920000Y-99380000D03*
X105900000Y-99380000D03*
%TD*%
D16*
%TO.C,R11*%
X102470000Y-99380000D03*
X103490000Y-99380000D03*
%TD*%
D15*
%TO.C,C6*%
X103700000Y-93400000D03*
X102740000Y-93400000D03*
%TD*%
D19*
%TO.C,D1*%
X110420000Y-91890000D03*
X110857280Y-91343388D03*
%TD*%
D20*
%TO.C,U4*%
X109000000Y-95800000D03*
X109000000Y-95400000D03*
X109000000Y-95000000D03*
X109000000Y-94600000D03*
X109000000Y-94200000D03*
D21*
X108300000Y-93500000D03*
X107900000Y-93500000D03*
X107500000Y-93500000D03*
X107100000Y-93500000D03*
X106700000Y-93500000D03*
D20*
X106000000Y-94200000D03*
X106000000Y-94600000D03*
X106000000Y-95000000D03*
X106000000Y-95400000D03*
X106000000Y-95800000D03*
D21*
X106700000Y-96500000D03*
X107100000Y-96500000D03*
X107500000Y-96500000D03*
X107900000Y-96500000D03*
X108300000Y-96500000D03*
D22*
X107500000Y-95000000D03*
%TD*%
D16*
%TO.C,R10*%
X104140000Y-90620000D03*
X105160000Y-90620000D03*
%TD*%
D23*
%TO.C,C9*%
X109630000Y-93600000D03*
X109630000Y-92640000D03*
%TD*%
D13*
%TO.C,TH1*%
X107690000Y-98400000D03*
X107690000Y-99420000D03*
%TD*%
D24*
%TO.C,R1*%
X109340000Y-91590000D03*
X109340000Y-90570000D03*
%TD*%
D25*
%TO.C,U3*%
X101280000Y-94250000D03*
X101280000Y-94750000D03*
X101280000Y-95250000D03*
X101280000Y-95750000D03*
X103180000Y-95750000D03*
X103180000Y-95250000D03*
X103180000Y-94750000D03*
X103180000Y-94250000D03*
D26*
X102230000Y-95000000D03*
%TD*%
D24*
%TO.C,R6*%
X110040000Y-98700000D03*
X110040000Y-97680000D03*
%TD*%
D15*
%TO.C,C5*%
X103440000Y-98640000D03*
X102480000Y-98640000D03*
%TD*%
D16*
%TO.C,R9*%
X102470000Y-90620000D03*
X103490000Y-90620000D03*
%TD*%
D13*
%TO.C,R2*%
X102955000Y-96857500D03*
X102955000Y-97877500D03*
%TD*%
D18*
%TO.C,R5*%
X109030000Y-97470000D03*
X108010000Y-97470000D03*
%TD*%
D16*
%TO.C,R12*%
X104140000Y-99380000D03*
X105160000Y-99380000D03*
%TD*%
D27*
%TO.C,C2*%
X108570000Y-98300000D03*
X108570000Y-99260000D03*
%TD*%
D28*
%TO.C,C7*%
X101120000Y-93410000D03*
X102080000Y-93410000D03*
%TD*%
D27*
%TO.C,C3*%
X109300000Y-98300000D03*
X109300000Y-99260000D03*
%TD*%
D29*
%TO.C,J1*%
X111370000Y-97000000D03*
X111370000Y-95000000D03*
X111370000Y-93000000D03*
%TD*%
D30*
%TO.C,J4*%
X104300000Y-94990000D03*
%TD*%
%LPD*%
M02*
