%TF.GenerationSoftware,KiCad,Pcbnew,9.0.6*%
%TF.CreationDate,2025-12-22T03:41:51-08:00*%
%TF.ProjectId,sg90-prod-ch32v006,73673930-2d70-4726-9f64-2d6368333276,rev?*%
%TF.SameCoordinates,Original*%
%TF.FileFunction,Copper,L2,Inr*%
%TF.FilePolarity,Positive*%
%FSLAX46Y46*%
G04 Gerber Fmt 4.6, Leading zero omitted, Abs format (unit mm)*
G04 Created by KiCad (PCBNEW 9.0.6) date 2025-12-22 03:41:51*
%MOMM*%
%LPD*%
G01*
G04 APERTURE LIST*
G04 Aperture macros list*
%AMRoundRect*
0 Rectangle with rounded corners*
0 $1 Rounding radius*
0 $2 $3 $4 $5 $6 $7 $8 $9 X,Y pos of 4 corners*
0 Add a 4 corners polygon primitive as box body*
4,1,4,$2,$3,$4,$5,$6,$7,$8,$9,$2,$3,0*
0 Add four circle primitives for the rounded corners*
1,1,$1+$1,$2,$3*
1,1,$1+$1,$4,$5*
1,1,$1+$1,$6,$7*
1,1,$1+$1,$8,$9*
0 Add four rect primitives between the rounded corners*
20,1,$1+$1,$2,$3,$4,$5,0*
20,1,$1+$1,$4,$5,$6,$7,0*
20,1,$1+$1,$6,$7,$8,$9,0*
20,1,$1+$1,$8,$9,$2,$3,0*%
G04 Aperture macros list end*
%TA.AperFunction,ComponentPad*%
%ADD10RoundRect,0.250000X-0.650000X0.650000X-0.650000X-0.650000X0.650000X-0.650000X0.650000X0.650000X0*%
%TD*%
%TA.AperFunction,ComponentPad*%
%ADD11C,1.600000*%
%TD*%
%TA.AperFunction,ComponentPad*%
%ADD12C,1.800000*%
%TD*%
%TA.AperFunction,ViaPad*%
%ADD13C,0.450000*%
%TD*%
%TA.AperFunction,ViaPad*%
%ADD14C,0.800000*%
%TD*%
G04 APERTURE END LIST*
D10*
%TO.N,/OUTA*%
%TO.C,J2*%
X101200000Y-91200000D03*
%TO.N,/OUTB*%
X101200000Y-98800000D03*
%TD*%
D11*
%TO.N,GND*%
%TO.C,J1*%
X111370000Y-97000000D03*
%TO.N,VIN*%
X111370000Y-95000000D03*
%TO.N,/DATA*%
X111370000Y-93000000D03*
%TD*%
D12*
%TO.N,GND*%
%TO.C,J4*%
X104300000Y-97530000D03*
%TD*%
D13*
%TO.N,GND*%
X102480000Y-98640000D03*
X107500000Y-94330000D03*
X105160000Y-90620000D03*
X110826044Y-91382431D03*
X106830000Y-94990000D03*
X108570000Y-99190000D03*
X107500000Y-95670000D03*
X106830000Y-94330000D03*
X107500000Y-94990000D03*
X105160000Y-99380000D03*
X108170000Y-94990000D03*
X105840000Y-90610000D03*
X108170000Y-94330000D03*
X108170000Y-95670000D03*
X106830000Y-95670000D03*
%TO.N,/nRST*%
X110310000Y-97930000D03*
%TO.N,PGND*%
X102520000Y-92340000D03*
X101980000Y-95600000D03*
X102470000Y-95010000D03*
X101980000Y-95010000D03*
X101980000Y-94410000D03*
X102740000Y-93400000D03*
X102470000Y-95600000D03*
X102470000Y-94410000D03*
%TO.N,/POT*%
X103090000Y-96280000D03*
%TO.N,/OUTB*%
X100780000Y-95400000D03*
X100525000Y-96443965D03*
X100525000Y-95865620D03*
%TO.N,/OUTA*%
X100540000Y-93850000D03*
X100870000Y-94680000D03*
X100525000Y-94376649D03*
%TO.N,/ISNS+*%
X108480000Y-96740000D03*
X109790000Y-94730000D03*
%TO.N,/SWDIO*%
X106000000Y-96135000D03*
%TO.N,/ISNS-*%
X109760000Y-95530000D03*
%TO.N,+3.3V*%
X106078515Y-91288515D03*
X109630000Y-93600000D03*
X109340000Y-91590000D03*
X109520000Y-97160000D03*
%TO.N,/3V3_DRV*%
X103120000Y-91940000D03*
D14*
%TO.N,/VSYS*%
X106699000Y-91970000D03*
D13*
X108570000Y-98300000D03*
D14*
X101386394Y-92935886D03*
D13*
X106920000Y-99380000D03*
%TD*%
%TA.AperFunction,Conductor*%
%TO.N,GND*%
G36*
X109914860Y-90316716D02*
G01*
X112171727Y-92122209D01*
X112199047Y-92171820D01*
X112199500Y-92179992D01*
X112199500Y-92377598D01*
X112177826Y-92429924D01*
X112125500Y-92451598D01*
X112073174Y-92429924D01*
X112070763Y-92427265D01*
X112069466Y-92425968D01*
X112069464Y-92425965D01*
X111944035Y-92300536D01*
X111935000Y-92294499D01*
X111796544Y-92201985D01*
X111632670Y-92134107D01*
X111632660Y-92134104D01*
X111516156Y-92110930D01*
X111458691Y-92099500D01*
X111281309Y-92099500D01*
X111231989Y-92109310D01*
X111107339Y-92134104D01*
X111107329Y-92134107D01*
X110943455Y-92201985D01*
X110795968Y-92300533D01*
X110670533Y-92425968D01*
X110571985Y-92573455D01*
X110504107Y-92737329D01*
X110504104Y-92737339D01*
X110477718Y-92869994D01*
X110469500Y-92911309D01*
X110469500Y-93088691D01*
X110474998Y-93116329D01*
X110504104Y-93262660D01*
X110504107Y-93262670D01*
X110571985Y-93426544D01*
X110664632Y-93565200D01*
X110670536Y-93574035D01*
X110795965Y-93699464D01*
X110943453Y-93798013D01*
X110943454Y-93798013D01*
X110943455Y-93798014D01*
X110956282Y-93803327D01*
X111107334Y-93865894D01*
X111281309Y-93900500D01*
X111281311Y-93900500D01*
X111458689Y-93900500D01*
X111458691Y-93900500D01*
X111632666Y-93865894D01*
X111796547Y-93798013D01*
X111944035Y-93699464D01*
X112069464Y-93574035D01*
X112069466Y-93574031D01*
X112072034Y-93571464D01*
X112073333Y-93572763D01*
X112118249Y-93548757D01*
X112172447Y-93565200D01*
X112199144Y-93615150D01*
X112199500Y-93622401D01*
X112199500Y-94377598D01*
X112177826Y-94429924D01*
X112125500Y-94451598D01*
X112073174Y-94429924D01*
X112070763Y-94427265D01*
X112069466Y-94425968D01*
X112069464Y-94425965D01*
X111944035Y-94300536D01*
X111921532Y-94285500D01*
X111796544Y-94201985D01*
X111632670Y-94134107D01*
X111632660Y-94134104D01*
X111516156Y-94110930D01*
X111458691Y-94099500D01*
X111281309Y-94099500D01*
X111231989Y-94109310D01*
X111107339Y-94134104D01*
X111107329Y-94134107D01*
X110943455Y-94201985D01*
X110795968Y-94300533D01*
X110670533Y-94425968D01*
X110571985Y-94573455D01*
X110504107Y-94737329D01*
X110504104Y-94737339D01*
X110469500Y-94911310D01*
X110469500Y-95088689D01*
X110504104Y-95262660D01*
X110504107Y-95262670D01*
X110571985Y-95426544D01*
X110664632Y-95565200D01*
X110670536Y-95574035D01*
X110795965Y-95699464D01*
X110943453Y-95798013D01*
X110943454Y-95798013D01*
X110943455Y-95798014D01*
X111084266Y-95856339D01*
X111107334Y-95865894D01*
X111281309Y-95900500D01*
X111281311Y-95900500D01*
X111458689Y-95900500D01*
X111458691Y-95900500D01*
X111632666Y-95865894D01*
X111796547Y-95798013D01*
X111944035Y-95699464D01*
X112069464Y-95574035D01*
X112069466Y-95574031D01*
X112072034Y-95571464D01*
X112073333Y-95572763D01*
X112118249Y-95548757D01*
X112172447Y-95565200D01*
X112199144Y-95615150D01*
X112199500Y-95622401D01*
X112199500Y-97820006D01*
X112177826Y-97872332D01*
X112171727Y-97877790D01*
X109914860Y-99683284D01*
X109868633Y-99699500D01*
X107273050Y-99699500D01*
X107220724Y-99677826D01*
X107199050Y-99625500D01*
X107208964Y-99588501D01*
X107230387Y-99551393D01*
X107250341Y-99516832D01*
X107274499Y-99426673D01*
X107274500Y-99426673D01*
X107274500Y-99333327D01*
X107274499Y-99333326D01*
X107250341Y-99243168D01*
X107203671Y-99162332D01*
X107137667Y-99096328D01*
X107056830Y-99049658D01*
X107056832Y-99049658D01*
X106966673Y-99025500D01*
X106966671Y-99025500D01*
X106873329Y-99025500D01*
X106873327Y-99025500D01*
X106783168Y-99049658D01*
X106702332Y-99096328D01*
X106636328Y-99162332D01*
X106589658Y-99243168D01*
X106565500Y-99333326D01*
X106565500Y-99426673D01*
X106589658Y-99516831D01*
X106631036Y-99588501D01*
X106638428Y-99644653D01*
X106603949Y-99689586D01*
X106566950Y-99699500D01*
X102236714Y-99699500D01*
X102184388Y-99677826D01*
X102162714Y-99625500D01*
X102170233Y-99593000D01*
X102177367Y-99578404D01*
X102190573Y-99551393D01*
X102200500Y-99483260D01*
X102200500Y-98253326D01*
X108215500Y-98253326D01*
X108215500Y-98346673D01*
X108239658Y-98436831D01*
X108239659Y-98436832D01*
X108286329Y-98517668D01*
X108352332Y-98583671D01*
X108433168Y-98630341D01*
X108433167Y-98630341D01*
X108485222Y-98644289D01*
X108523326Y-98654499D01*
X108523327Y-98654500D01*
X108523329Y-98654500D01*
X108616673Y-98654500D01*
X108616673Y-98654499D01*
X108706832Y-98630341D01*
X108787668Y-98583671D01*
X108853671Y-98517668D01*
X108900341Y-98436832D01*
X108924499Y-98346673D01*
X108924500Y-98346673D01*
X108924500Y-98253327D01*
X108924499Y-98253326D01*
X108900341Y-98163168D01*
X108853671Y-98082332D01*
X108787667Y-98016328D01*
X108706830Y-97969658D01*
X108706831Y-97969658D01*
X108633307Y-97949957D01*
X108616673Y-97945500D01*
X108616671Y-97945500D01*
X108523329Y-97945500D01*
X108523327Y-97945500D01*
X108433168Y-97969658D01*
X108352332Y-98016328D01*
X108286328Y-98082332D01*
X108239658Y-98163168D01*
X108215500Y-98253326D01*
X102200500Y-98253326D01*
X102200500Y-98116740D01*
X102190573Y-98048607D01*
X102139198Y-97943517D01*
X102079007Y-97883326D01*
X109955500Y-97883326D01*
X109955500Y-97976673D01*
X109979658Y-98066831D01*
X110025483Y-98146202D01*
X110026329Y-98147668D01*
X110092332Y-98213671D01*
X110173168Y-98260341D01*
X110173167Y-98260341D01*
X110225222Y-98274289D01*
X110263326Y-98284499D01*
X110263327Y-98284500D01*
X110263329Y-98284500D01*
X110356673Y-98284500D01*
X110356673Y-98284499D01*
X110446832Y-98260341D01*
X110527668Y-98213671D01*
X110593671Y-98147668D01*
X110640341Y-98066832D01*
X110664499Y-97976673D01*
X110664500Y-97976673D01*
X110664500Y-97883327D01*
X110664499Y-97883326D01*
X110658463Y-97860801D01*
X110640341Y-97793168D01*
X110593671Y-97712332D01*
X110527668Y-97646329D01*
X110527667Y-97646328D01*
X110446830Y-97599658D01*
X110446832Y-97599658D01*
X110356673Y-97575500D01*
X110356671Y-97575500D01*
X110263329Y-97575500D01*
X110263327Y-97575500D01*
X110173168Y-97599658D01*
X110092332Y-97646328D01*
X110026328Y-97712332D01*
X109979658Y-97793168D01*
X109955500Y-97883326D01*
X102079007Y-97883326D01*
X102056483Y-97860802D01*
X102056482Y-97860801D01*
X101951394Y-97809427D01*
X101883264Y-97799500D01*
X101883260Y-97799500D01*
X100516740Y-97799500D01*
X100516735Y-97799500D01*
X100448606Y-97809427D01*
X100448605Y-97809427D01*
X100407000Y-97829767D01*
X100350472Y-97833276D01*
X100308019Y-97795786D01*
X100300500Y-97763286D01*
X100300500Y-97113326D01*
X109165500Y-97113326D01*
X109165500Y-97206673D01*
X109189658Y-97296831D01*
X109189659Y-97296832D01*
X109236329Y-97377668D01*
X109302332Y-97443671D01*
X109383168Y-97490341D01*
X109383167Y-97490341D01*
X109435222Y-97504289D01*
X109473326Y-97514499D01*
X109473327Y-97514500D01*
X109473329Y-97514500D01*
X109566673Y-97514500D01*
X109566673Y-97514499D01*
X109656832Y-97490341D01*
X109737668Y-97443671D01*
X109803671Y-97377668D01*
X109850341Y-97296832D01*
X109874499Y-97206673D01*
X109874500Y-97206673D01*
X109874500Y-97113327D01*
X109874499Y-97113326D01*
X109850341Y-97023168D01*
X109803671Y-96942332D01*
X109737667Y-96876328D01*
X109656830Y-96829658D01*
X109656832Y-96829658D01*
X109566673Y-96805500D01*
X109566671Y-96805500D01*
X109473329Y-96805500D01*
X109473327Y-96805500D01*
X109383168Y-96829658D01*
X109302332Y-96876328D01*
X109236328Y-96942332D01*
X109189658Y-97023168D01*
X109165500Y-97113326D01*
X100300500Y-97113326D01*
X100300500Y-96847254D01*
X100322174Y-96794928D01*
X100374500Y-96773254D01*
X100393653Y-96775776D01*
X100434314Y-96786671D01*
X100478326Y-96798464D01*
X100478327Y-96798465D01*
X100478329Y-96798465D01*
X100571673Y-96798465D01*
X100571673Y-96798464D01*
X100661832Y-96774306D01*
X100742668Y-96727636D01*
X100776978Y-96693326D01*
X108125500Y-96693326D01*
X108125500Y-96786673D01*
X108149658Y-96876831D01*
X108187475Y-96942332D01*
X108196329Y-96957668D01*
X108262332Y-97023671D01*
X108343168Y-97070341D01*
X108343167Y-97070341D01*
X108395222Y-97084289D01*
X108433326Y-97094499D01*
X108433327Y-97094500D01*
X108433329Y-97094500D01*
X108526673Y-97094500D01*
X108526673Y-97094499D01*
X108590045Y-97077518D01*
X108616829Y-97070342D01*
X108616829Y-97070341D01*
X108616832Y-97070341D01*
X108697668Y-97023671D01*
X108763671Y-96957668D01*
X108810341Y-96876832D01*
X108834499Y-96786673D01*
X108834500Y-96786673D01*
X108834500Y-96693327D01*
X108834499Y-96693326D01*
X108818736Y-96634500D01*
X108810341Y-96603168D01*
X108763671Y-96522332D01*
X108697668Y-96456329D01*
X108697667Y-96456328D01*
X108616830Y-96409658D01*
X108616832Y-96409658D01*
X108526673Y-96385500D01*
X108526671Y-96385500D01*
X108433329Y-96385500D01*
X108433327Y-96385500D01*
X108343168Y-96409658D01*
X108262332Y-96456328D01*
X108196328Y-96522332D01*
X108149658Y-96603168D01*
X108125500Y-96693326D01*
X100776978Y-96693326D01*
X100808671Y-96661633D01*
X100855341Y-96580797D01*
X100879499Y-96490638D01*
X100879500Y-96490638D01*
X100879500Y-96397292D01*
X100879499Y-96397291D01*
X100855342Y-96307135D01*
X100855341Y-96307133D01*
X100812729Y-96233326D01*
X102735500Y-96233326D01*
X102735500Y-96326673D01*
X102759658Y-96416831D01*
X102801613Y-96489499D01*
X102806329Y-96497668D01*
X102872332Y-96563671D01*
X102953168Y-96610341D01*
X102953167Y-96610341D01*
X103005222Y-96624289D01*
X103043326Y-96634499D01*
X103043327Y-96634500D01*
X103043329Y-96634500D01*
X103136673Y-96634500D01*
X103136673Y-96634499D01*
X103166875Y-96626406D01*
X103201979Y-96617001D01*
X103218582Y-96612551D01*
X103226832Y-96610341D01*
X103307668Y-96563671D01*
X103373671Y-96497668D01*
X103420341Y-96416832D01*
X103444499Y-96326673D01*
X103444500Y-96326673D01*
X103444500Y-96233327D01*
X103444499Y-96233326D01*
X103420342Y-96143170D01*
X103420341Y-96143168D01*
X103388678Y-96088326D01*
X105645500Y-96088326D01*
X105645500Y-96181673D01*
X105669658Y-96271831D01*
X105701320Y-96326671D01*
X105716329Y-96352668D01*
X105782332Y-96418671D01*
X105863168Y-96465341D01*
X105863167Y-96465341D01*
X105915222Y-96479289D01*
X105953326Y-96489499D01*
X105953327Y-96489500D01*
X105953329Y-96489500D01*
X106046673Y-96489500D01*
X106046673Y-96489499D01*
X106136832Y-96465341D01*
X106217668Y-96418671D01*
X106283671Y-96352668D01*
X106330341Y-96271832D01*
X106354499Y-96181673D01*
X106354500Y-96181673D01*
X106354500Y-96088327D01*
X106354499Y-96088326D01*
X106330341Y-95998168D01*
X106283671Y-95917332D01*
X106217667Y-95851328D01*
X106136830Y-95804658D01*
X106136832Y-95804658D01*
X106046673Y-95780500D01*
X106046671Y-95780500D01*
X105953329Y-95780500D01*
X105953327Y-95780500D01*
X105863168Y-95804658D01*
X105782332Y-95851328D01*
X105716328Y-95917332D01*
X105669658Y-95998168D01*
X105645500Y-96088326D01*
X103388678Y-96088326D01*
X103373671Y-96062332D01*
X103307668Y-95996329D01*
X103307667Y-95996328D01*
X103226830Y-95949658D01*
X103226832Y-95949658D01*
X103136673Y-95925500D01*
X103136671Y-95925500D01*
X103043329Y-95925500D01*
X103043327Y-95925500D01*
X102953168Y-95949658D01*
X102872332Y-95996328D01*
X102806328Y-96062332D01*
X102759658Y-96143168D01*
X102735500Y-96233326D01*
X100812729Y-96233326D01*
X100808671Y-96226297D01*
X100785381Y-96203007D01*
X100781960Y-96198300D01*
X100776599Y-96175992D01*
X100767818Y-96154792D01*
X100770151Y-96149158D01*
X100768727Y-96143231D01*
X100780710Y-96123667D01*
X100789491Y-96102467D01*
X100808671Y-96083288D01*
X100855341Y-96002452D01*
X100879499Y-95912293D01*
X100879500Y-95912293D01*
X100879500Y-95818950D01*
X100879500Y-95818949D01*
X100878637Y-95815729D01*
X100886025Y-95759578D01*
X100913115Y-95732485D01*
X100916825Y-95730342D01*
X100916832Y-95730341D01*
X100997668Y-95683671D01*
X101063671Y-95617668D01*
X101110341Y-95536832D01*
X101134499Y-95446673D01*
X101134500Y-95446673D01*
X101134500Y-95353327D01*
X101134499Y-95353326D01*
X101126061Y-95321837D01*
X101110341Y-95263168D01*
X101063671Y-95182332D01*
X101002020Y-95120681D01*
X100980346Y-95068355D01*
X101002020Y-95016029D01*
X101017335Y-95004277D01*
X101087668Y-94963671D01*
X101153671Y-94897668D01*
X101200341Y-94816832D01*
X101224499Y-94726673D01*
X101224500Y-94726673D01*
X101224500Y-94633327D01*
X101224499Y-94633326D01*
X101208456Y-94573455D01*
X101200341Y-94543168D01*
X101153671Y-94462332D01*
X101087668Y-94396329D01*
X101087667Y-94396328D01*
X101030504Y-94363326D01*
X101625500Y-94363326D01*
X101625500Y-94456673D01*
X101649658Y-94546831D01*
X101696328Y-94627667D01*
X101726335Y-94657674D01*
X101748009Y-94710000D01*
X101726335Y-94762326D01*
X101696328Y-94792332D01*
X101649658Y-94873168D01*
X101625500Y-94963326D01*
X101625500Y-95056673D01*
X101649658Y-95146831D01*
X101696328Y-95227667D01*
X101721335Y-95252674D01*
X101743009Y-95305000D01*
X101721335Y-95357326D01*
X101696328Y-95382332D01*
X101649658Y-95463168D01*
X101625500Y-95553326D01*
X101625500Y-95646673D01*
X101649658Y-95736831D01*
X101695211Y-95815731D01*
X101696329Y-95817668D01*
X101762332Y-95883671D01*
X101843168Y-95930341D01*
X101843167Y-95930341D01*
X101895222Y-95944289D01*
X101933326Y-95954499D01*
X101933327Y-95954500D01*
X101933329Y-95954500D01*
X102026673Y-95954500D01*
X102026673Y-95954499D01*
X102090045Y-95937518D01*
X102116829Y-95930342D01*
X102116829Y-95930341D01*
X102116832Y-95930341D01*
X102188001Y-95889251D01*
X102244153Y-95881860D01*
X102261995Y-95889250D01*
X102324783Y-95925500D01*
X102333170Y-95930342D01*
X102396542Y-95947322D01*
X102423326Y-95954499D01*
X102423327Y-95954500D01*
X102423329Y-95954500D01*
X102516673Y-95954500D01*
X102516673Y-95954499D01*
X102606832Y-95930341D01*
X102687668Y-95883671D01*
X102753671Y-95817668D01*
X102800341Y-95736832D01*
X102824499Y-95646673D01*
X102824500Y-95646673D01*
X102824500Y-95553327D01*
X102824499Y-95553326D01*
X102820183Y-95537220D01*
X102800341Y-95463168D01*
X102753671Y-95382332D01*
X102728665Y-95357326D01*
X102706991Y-95305000D01*
X102728665Y-95252674D01*
X102735011Y-95246328D01*
X102753671Y-95227668D01*
X102800341Y-95146832D01*
X102824499Y-95056673D01*
X102824500Y-95056673D01*
X102824500Y-94963330D01*
X102820303Y-94947668D01*
X102817212Y-94936130D01*
X102817212Y-94936128D01*
X102813055Y-94920613D01*
X103595500Y-94920613D01*
X103595500Y-95059386D01*
X103622571Y-95195488D01*
X103622573Y-95195495D01*
X103674905Y-95321837D01*
X103675680Y-95323706D01*
X103714853Y-95382332D01*
X103751625Y-95437367D01*
X103752779Y-95439093D01*
X103850907Y-95537221D01*
X103966294Y-95614320D01*
X104094505Y-95667427D01*
X104230613Y-95694500D01*
X104369387Y-95694500D01*
X104505495Y-95667427D01*
X104633706Y-95614320D01*
X104749093Y-95537221D01*
X104802988Y-95483326D01*
X109405500Y-95483326D01*
X109405500Y-95576673D01*
X109429658Y-95666831D01*
X109448499Y-95699464D01*
X109476329Y-95747668D01*
X109542332Y-95813671D01*
X109623168Y-95860341D01*
X109623167Y-95860341D01*
X109643895Y-95865895D01*
X109713326Y-95884499D01*
X109713327Y-95884500D01*
X109713329Y-95884500D01*
X109806673Y-95884500D01*
X109806673Y-95884499D01*
X109896832Y-95860341D01*
X109977668Y-95813671D01*
X110043671Y-95747668D01*
X110090341Y-95666832D01*
X110114499Y-95576673D01*
X110114500Y-95576673D01*
X110114500Y-95483327D01*
X110114499Y-95483326D01*
X110102646Y-95439092D01*
X110090341Y-95393168D01*
X110043671Y-95312332D01*
X109977668Y-95246329D01*
X109896832Y-95199659D01*
X109896831Y-95199658D01*
X109896243Y-95199319D01*
X109861765Y-95154386D01*
X109869157Y-95098233D01*
X109914089Y-95063755D01*
X109926832Y-95060341D01*
X110007668Y-95013671D01*
X110073671Y-94947668D01*
X110120341Y-94866832D01*
X110144499Y-94776673D01*
X110144500Y-94776673D01*
X110144500Y-94683327D01*
X110144499Y-94683326D01*
X110137625Y-94657674D01*
X110120341Y-94593168D01*
X110073671Y-94512332D01*
X110007668Y-94446329D01*
X110007667Y-94446328D01*
X109926830Y-94399658D01*
X109926832Y-94399658D01*
X109836673Y-94375500D01*
X109836671Y-94375500D01*
X109743329Y-94375500D01*
X109743327Y-94375500D01*
X109653168Y-94399658D01*
X109572332Y-94446328D01*
X109506328Y-94512332D01*
X109459658Y-94593168D01*
X109435500Y-94683326D01*
X109435500Y-94776673D01*
X109459658Y-94866831D01*
X109506328Y-94947667D01*
X109572332Y-95013671D01*
X109653755Y-95060680D01*
X109688234Y-95105613D01*
X109680842Y-95161765D01*
X109635911Y-95196244D01*
X109623167Y-95199659D01*
X109542332Y-95246328D01*
X109476328Y-95312332D01*
X109429658Y-95393168D01*
X109405500Y-95483326D01*
X104802988Y-95483326D01*
X104847221Y-95439093D01*
X104924320Y-95323706D01*
X104977427Y-95195495D01*
X105004500Y-95059387D01*
X105004500Y-94920613D01*
X104977427Y-94784505D01*
X104924320Y-94656294D01*
X104847221Y-94540907D01*
X104749093Y-94442779D01*
X104633706Y-94365680D01*
X104633703Y-94365678D01*
X104633702Y-94365678D01*
X104505495Y-94312573D01*
X104505488Y-94312571D01*
X104369387Y-94285500D01*
X104230613Y-94285500D01*
X104094511Y-94312571D01*
X104094504Y-94312573D01*
X103966297Y-94365678D01*
X103850907Y-94442778D01*
X103850906Y-94442780D01*
X103752780Y-94540906D01*
X103752778Y-94540907D01*
X103675678Y-94656297D01*
X103622573Y-94784504D01*
X103622571Y-94784511D01*
X103595500Y-94920613D01*
X102813055Y-94920613D01*
X102800341Y-94873168D01*
X102753671Y-94792332D01*
X102723665Y-94762326D01*
X102701991Y-94710000D01*
X102723665Y-94657674D01*
X102731869Y-94649470D01*
X102753671Y-94627668D01*
X102800341Y-94546832D01*
X102824499Y-94456673D01*
X102824500Y-94456673D01*
X102824500Y-94363327D01*
X102824499Y-94363326D01*
X102814363Y-94325500D01*
X102800341Y-94273168D01*
X102753671Y-94192332D01*
X102687668Y-94126329D01*
X102687667Y-94126328D01*
X102606830Y-94079658D01*
X102606832Y-94079658D01*
X102516673Y-94055500D01*
X102516671Y-94055500D01*
X102423329Y-94055500D01*
X102423327Y-94055500D01*
X102333168Y-94079658D01*
X102261999Y-94120747D01*
X102205846Y-94128139D01*
X102188001Y-94120747D01*
X102116830Y-94079658D01*
X102116832Y-94079658D01*
X102026673Y-94055500D01*
X102026671Y-94055500D01*
X101933329Y-94055500D01*
X101933327Y-94055500D01*
X101843168Y-94079658D01*
X101762332Y-94126328D01*
X101696328Y-94192332D01*
X101649658Y-94273168D01*
X101625500Y-94363326D01*
X101030504Y-94363326D01*
X101006830Y-94349658D01*
X101006831Y-94349658D01*
X100916599Y-94325480D01*
X100871666Y-94291001D01*
X100868950Y-94285837D01*
X100866030Y-94279711D01*
X100855341Y-94239817D01*
X100808671Y-94158981D01*
X100808336Y-94158646D01*
X100806413Y-94154610D01*
X100805080Y-94129022D01*
X100801737Y-94103622D01*
X100803590Y-94100411D01*
X100803468Y-94098049D01*
X100807607Y-94093455D01*
X100820891Y-94070447D01*
X100823671Y-94067668D01*
X100870341Y-93986832D01*
X100894499Y-93896673D01*
X100894500Y-93896673D01*
X100894500Y-93803327D01*
X100894499Y-93803326D01*
X100893075Y-93798013D01*
X100870341Y-93713168D01*
X100823671Y-93632332D01*
X100757668Y-93566329D01*
X100757667Y-93566328D01*
X100698488Y-93532162D01*
X100676832Y-93519659D01*
X100676831Y-93519658D01*
X100676832Y-93519658D01*
X100586673Y-93495500D01*
X100586671Y-93495500D01*
X100493329Y-93495500D01*
X100493327Y-93495500D01*
X100403164Y-93519659D01*
X100402811Y-93519806D01*
X100402618Y-93519805D01*
X100398483Y-93520914D01*
X100398185Y-93519805D01*
X100346174Y-93519800D01*
X100306130Y-93479747D01*
X100300500Y-93451436D01*
X100300500Y-92869991D01*
X100885894Y-92869991D01*
X100885894Y-93001780D01*
X100920000Y-93129067D01*
X100920001Y-93129070D01*
X100920002Y-93129072D01*
X100985894Y-93243200D01*
X101079080Y-93336386D01*
X101193208Y-93402278D01*
X101320499Y-93436385D01*
X101320500Y-93436386D01*
X101320502Y-93436386D01*
X101452288Y-93436386D01*
X101452288Y-93436385D01*
X101579580Y-93402278D01*
X101664367Y-93353326D01*
X102385500Y-93353326D01*
X102385500Y-93446673D01*
X102409658Y-93536831D01*
X102431138Y-93574035D01*
X102456329Y-93617668D01*
X102522332Y-93683671D01*
X102603168Y-93730341D01*
X102603167Y-93730341D01*
X102627392Y-93736832D01*
X102693326Y-93754499D01*
X102693327Y-93754500D01*
X102693329Y-93754500D01*
X102786673Y-93754500D01*
X102786673Y-93754499D01*
X102876832Y-93730341D01*
X102957668Y-93683671D01*
X103023671Y-93617668D01*
X103060818Y-93553326D01*
X109275500Y-93553326D01*
X109275500Y-93646673D01*
X109299658Y-93736831D01*
X109338049Y-93803326D01*
X109346329Y-93817668D01*
X109412332Y-93883671D01*
X109493168Y-93930341D01*
X109493167Y-93930341D01*
X109545222Y-93944289D01*
X109583326Y-93954499D01*
X109583327Y-93954500D01*
X109583329Y-93954500D01*
X109676673Y-93954500D01*
X109676673Y-93954499D01*
X109766832Y-93930341D01*
X109847668Y-93883671D01*
X109913671Y-93817668D01*
X109960341Y-93736832D01*
X109984499Y-93646673D01*
X109984500Y-93646673D01*
X109984500Y-93553327D01*
X109984499Y-93553326D01*
X109980079Y-93536832D01*
X109960341Y-93463168D01*
X109913671Y-93382332D01*
X109847668Y-93316329D01*
X109847667Y-93316328D01*
X109766830Y-93269658D01*
X109766832Y-93269658D01*
X109676673Y-93245500D01*
X109676671Y-93245500D01*
X109583329Y-93245500D01*
X109583327Y-93245500D01*
X109493168Y-93269658D01*
X109412332Y-93316328D01*
X109346328Y-93382332D01*
X109299658Y-93463168D01*
X109275500Y-93553326D01*
X103060818Y-93553326D01*
X103070341Y-93536832D01*
X103094499Y-93446673D01*
X103094500Y-93446673D01*
X103094500Y-93353327D01*
X103094499Y-93353326D01*
X103070341Y-93263168D01*
X103023671Y-93182332D01*
X102957667Y-93116328D01*
X102876830Y-93069658D01*
X102876832Y-93069658D01*
X102786673Y-93045500D01*
X102786671Y-93045500D01*
X102693329Y-93045500D01*
X102693327Y-93045500D01*
X102603168Y-93069658D01*
X102522332Y-93116328D01*
X102456328Y-93182332D01*
X102409658Y-93263168D01*
X102385500Y-93353326D01*
X101664367Y-93353326D01*
X101693708Y-93336386D01*
X101786894Y-93243200D01*
X101852786Y-93129072D01*
X101886893Y-93001780D01*
X101886894Y-93001780D01*
X101886894Y-92869992D01*
X101886893Y-92869991D01*
X101852787Y-92742704D01*
X101852786Y-92742700D01*
X101786894Y-92628572D01*
X101693708Y-92535386D01*
X101592290Y-92476832D01*
X101579584Y-92469496D01*
X101579575Y-92469492D01*
X101452288Y-92435386D01*
X101452286Y-92435386D01*
X101320502Y-92435386D01*
X101320500Y-92435386D01*
X101193212Y-92469492D01*
X101193203Y-92469496D01*
X101079079Y-92535386D01*
X100985894Y-92628571D01*
X100920004Y-92742695D01*
X100920000Y-92742704D01*
X100885894Y-92869991D01*
X100300500Y-92869991D01*
X100300500Y-92236713D01*
X100322174Y-92184387D01*
X100374500Y-92162713D01*
X100406996Y-92170230D01*
X100448607Y-92190573D01*
X100516740Y-92200500D01*
X100516746Y-92200500D01*
X101883254Y-92200500D01*
X101883260Y-92200500D01*
X101951393Y-92190573D01*
X102056483Y-92139198D01*
X102066535Y-92129145D01*
X102118859Y-92107470D01*
X102171186Y-92129142D01*
X102192862Y-92181467D01*
X102190340Y-92200623D01*
X102165500Y-92293326D01*
X102165500Y-92386673D01*
X102189658Y-92476831D01*
X102223465Y-92535386D01*
X102236329Y-92557668D01*
X102302332Y-92623671D01*
X102383168Y-92670341D01*
X102383167Y-92670341D01*
X102435222Y-92684289D01*
X102473326Y-92694499D01*
X102473327Y-92694500D01*
X102473329Y-92694500D01*
X102566673Y-92694500D01*
X102566673Y-92694499D01*
X102656832Y-92670341D01*
X102737668Y-92623671D01*
X102803671Y-92557668D01*
X102850341Y-92476832D01*
X102874499Y-92386673D01*
X102874500Y-92386673D01*
X102874500Y-92380613D01*
X103595500Y-92380613D01*
X103595500Y-92519386D01*
X103622571Y-92655488D01*
X103622573Y-92655495D01*
X103658694Y-92742700D01*
X103675680Y-92783706D01*
X103752779Y-92899093D01*
X103850907Y-92997221D01*
X103966294Y-93074320D01*
X104094505Y-93127427D01*
X104230613Y-93154500D01*
X104369387Y-93154500D01*
X104505495Y-93127427D01*
X104633706Y-93074320D01*
X104749093Y-92997221D01*
X104847221Y-92899093D01*
X104924320Y-92783706D01*
X104977427Y-92655495D01*
X105004500Y-92519387D01*
X105004500Y-92380613D01*
X104977427Y-92244505D01*
X104924320Y-92116294D01*
X104847221Y-92000907D01*
X104749093Y-91902779D01*
X104633706Y-91825680D01*
X104633703Y-91825678D01*
X104633702Y-91825678D01*
X104505495Y-91772573D01*
X104505488Y-91772571D01*
X104369387Y-91745500D01*
X104230613Y-91745500D01*
X104094511Y-91772571D01*
X104094504Y-91772573D01*
X103966297Y-91825678D01*
X103850907Y-91902778D01*
X103850906Y-91902780D01*
X103752780Y-92000906D01*
X103752778Y-92000907D01*
X103675678Y-92116297D01*
X103622573Y-92244504D01*
X103622571Y-92244511D01*
X103595500Y-92380613D01*
X102874500Y-92380613D01*
X102874500Y-92335772D01*
X102896174Y-92283446D01*
X102948500Y-92261772D01*
X102978174Y-92269729D01*
X102978689Y-92268486D01*
X102983167Y-92270341D01*
X103009191Y-92277314D01*
X103073326Y-92294499D01*
X103073327Y-92294500D01*
X103073329Y-92294500D01*
X103166673Y-92294500D01*
X103166673Y-92294499D01*
X103256832Y-92270341D01*
X103337668Y-92223671D01*
X103403671Y-92157668D01*
X103450341Y-92076832D01*
X103474499Y-91986673D01*
X103474500Y-91986673D01*
X103474500Y-91893327D01*
X103474499Y-91893326D01*
X103469232Y-91873671D01*
X103450341Y-91803168D01*
X103403671Y-91722332D01*
X103337668Y-91656329D01*
X103337667Y-91656328D01*
X103256830Y-91609658D01*
X103256832Y-91609658D01*
X103166673Y-91585500D01*
X103166671Y-91585500D01*
X103073329Y-91585500D01*
X103073327Y-91585500D01*
X102983168Y-91609658D01*
X102902332Y-91656328D01*
X102836328Y-91722332D01*
X102789658Y-91803168D01*
X102765500Y-91893326D01*
X102765500Y-91944227D01*
X102743826Y-91996553D01*
X102691500Y-92018227D01*
X102661823Y-92010275D01*
X102661311Y-92011514D01*
X102656832Y-92009658D01*
X102566673Y-91985500D01*
X102566671Y-91985500D01*
X102473329Y-91985500D01*
X102473327Y-91985500D01*
X102383168Y-92009658D01*
X102302332Y-92056328D01*
X102296884Y-92061776D01*
X102244557Y-92083447D01*
X102192232Y-92061770D01*
X102170561Y-92009443D01*
X102178079Y-91976949D01*
X102190573Y-91951393D01*
X102200500Y-91883260D01*
X102200500Y-91241841D01*
X105724015Y-91241841D01*
X105724015Y-91335188D01*
X105748173Y-91425346D01*
X105793860Y-91504478D01*
X105794844Y-91506183D01*
X105860847Y-91572186D01*
X105941683Y-91618856D01*
X105941682Y-91618856D01*
X105993737Y-91632804D01*
X106031841Y-91643014D01*
X106031842Y-91643015D01*
X106031844Y-91643015D01*
X106125187Y-91643015D01*
X106148854Y-91636673D01*
X106171088Y-91630715D01*
X106227241Y-91638106D01*
X106261720Y-91683039D01*
X106254329Y-91739192D01*
X106254328Y-91739193D01*
X106232610Y-91776809D01*
X106232606Y-91776818D01*
X106198500Y-91904105D01*
X106198500Y-92035894D01*
X106232606Y-92163181D01*
X106232610Y-92163190D01*
X106267529Y-92223671D01*
X106298500Y-92277314D01*
X106391686Y-92370500D01*
X106505814Y-92436392D01*
X106633105Y-92470499D01*
X106633106Y-92470500D01*
X106633108Y-92470500D01*
X106764894Y-92470500D01*
X106764894Y-92470499D01*
X106892186Y-92436392D01*
X107006314Y-92370500D01*
X107099500Y-92277314D01*
X107165392Y-92163186D01*
X107199499Y-92035894D01*
X107199500Y-92035894D01*
X107199500Y-91904106D01*
X107199499Y-91904105D01*
X107199143Y-91902778D01*
X107165392Y-91776814D01*
X107099500Y-91662686D01*
X107006314Y-91569500D01*
X106960981Y-91543327D01*
X106960979Y-91543326D01*
X108985500Y-91543326D01*
X108985500Y-91636673D01*
X109009658Y-91726831D01*
X109046165Y-91790063D01*
X109056329Y-91807668D01*
X109122332Y-91873671D01*
X109203168Y-91920341D01*
X109203167Y-91920341D01*
X109255222Y-91934289D01*
X109293326Y-91944499D01*
X109293327Y-91944500D01*
X109293329Y-91944500D01*
X109386673Y-91944500D01*
X109386673Y-91944499D01*
X109476832Y-91920341D01*
X109557668Y-91873671D01*
X109623671Y-91807668D01*
X109670341Y-91726832D01*
X109694499Y-91636673D01*
X109694500Y-91636673D01*
X109694500Y-91543327D01*
X109694499Y-91543326D01*
X109684546Y-91506183D01*
X109670341Y-91453168D01*
X109623671Y-91372332D01*
X109557668Y-91306329D01*
X109557667Y-91306328D01*
X109476830Y-91259658D01*
X109476832Y-91259658D01*
X109386673Y-91235500D01*
X109386671Y-91235500D01*
X109293329Y-91235500D01*
X109293327Y-91235500D01*
X109203168Y-91259658D01*
X109122332Y-91306328D01*
X109056328Y-91372332D01*
X109009658Y-91453168D01*
X108985500Y-91543326D01*
X106960979Y-91543326D01*
X106892190Y-91503610D01*
X106892181Y-91503606D01*
X106764894Y-91469500D01*
X106764892Y-91469500D01*
X106633108Y-91469500D01*
X106505814Y-91503608D01*
X106505812Y-91503608D01*
X106502569Y-91504478D01*
X106446416Y-91497085D01*
X106411937Y-91452152D01*
X106411938Y-91413846D01*
X106419526Y-91385524D01*
X106433014Y-91335188D01*
X106433015Y-91335188D01*
X106433015Y-91241842D01*
X106433014Y-91241841D01*
X106408856Y-91151683D01*
X106362186Y-91070847D01*
X106296182Y-91004843D01*
X106215345Y-90958173D01*
X106215347Y-90958173D01*
X106125188Y-90934015D01*
X106125186Y-90934015D01*
X106031844Y-90934015D01*
X106031842Y-90934015D01*
X105941683Y-90958173D01*
X105860847Y-91004843D01*
X105794843Y-91070847D01*
X105748173Y-91151683D01*
X105724015Y-91241841D01*
X102200500Y-91241841D01*
X102200500Y-90516740D01*
X102190573Y-90448607D01*
X102170233Y-90407000D01*
X102166724Y-90350472D01*
X102204214Y-90308019D01*
X102236714Y-90300500D01*
X109868633Y-90300500D01*
X109914860Y-90316716D01*
G37*
%TD.AperFunction*%
%TD*%
M02*
