<?xml version="1.0" encoding="UTF-8" standalone="no"?>
<!-- Created with Inkscape (http://www.inkscape.org/) -->

<svg
   width="1000"
   height="350"
   viewBox="0 0 264.58333 92.604166"
   version="1.1"
   id="svg1"
   xml:space="preserve"
   sodipodi:docname="logo.svg"
   inkscape:version="1.4.3 (0d15f75042, 2025-12-25)"
   xmlns:inkscape="http://www.inkscape.org/namespaces/inkscape"
   xmlns:sodipodi="http://sodipodi.sourceforge.net/DTD/sodipodi-0.dtd"
   xmlns="http://www.w3.org/2000/svg"
   xmlns:svg="http://www.w3.org/2000/svg"><sodipodi:namedview
     id="namedview1"
     pagecolor="#505050"
     bordercolor="#ffffff"
     borderopacity="1"
     inkscape:showpageshadow="0"
     inkscape:pageopacity="0"
     inkscape:pagecheckerboard="1"
     inkscape:deskcolor="#505050"
     inkscape:document-units="mm"
     inkscape:zoom="1.6652365"
     inkscape:cx="454.28983"
     inkscape:cy="167.54377"
     inkscape:window-width="3072"
     inkscape:window-height="1659"
     inkscape:window-x="0"
     inkscape:window-y="0"
     inkscape:window-maximized="1"
     inkscape:current-layer="g2406" /><defs
     id="defs1"><marker
       style="overflow:visible"
       id="RoundedArrow"
       refX="0"
       refY="0"
       orient="auto-start-reverse"
       inkscape:stockid="Rounded arrow"
       markerWidth="0.5"
       markerHeight="0.5"
       viewBox="0 0 1 1"
       inkscape:isstock="true"
       inkscape:collect="always"
       preserveAspectRatio="xMidYMid"><path
         transform="scale(0.7)"
         d="m -0.21114562,-4.1055728 6.42229122,3.21114561 a 1,1 90 0 1 0,1.78885438 L -0.21114562,4.1055728 A 1.236068,1.236068 31.717474 0 1 -2,3 v -6 a 1.236068,1.236068 148.28253 0 1 1.78885438,-1.1055728 z"
         style="fill:context-stroke;fill-rule:evenodd;stroke:none"
         id="path8" /></marker><clipPath
       clipPathUnits="userSpaceOnUse"
       id="clipPath2"><rect
         style="fill:#5a5a5a;fill-opacity:0.377511;stroke-width:0.244297"
         id="rect2"
         width="269.10498"
         height="94.145721"
         x="12.101517"
         y="9.2299719" /></clipPath></defs><g
     inkscape:groupmode="layer"
     id="layer2"
     inkscape:label="Layer 2" /><g
     inkscape:groupmode="layer"
     id="layer4"
     inkscape:label="C"><path
       style="fill:none;fill-opacity:1;stroke:#000000;stroke-width:3.175;stroke-dasharray:none;marker-end:url(#RoundedArrow);stroke-linejoin:miter;stroke-linecap:butt;paint-order:normal;stroke-opacity:1"
       id="path3-2-1"
       inkscape:label="outer ring"
       sodipodi:type="arc"
       sodipodi:cx="228.9781"
       sodipodi:cy="58.799629"
       sodipodi:rx="40.452999"
       sodipodi:ry="40.45277"
       sodipodi:start="0.6981317"
       sodipodi:end="5.4105207"
       sodipodi:arc-type="arc"
       d="M 259.9669,84.802169 A 40.452999,40.45277 0 0 1 216.81365,97.380122 40.452999,40.45277 0 0 1 188.67904,62.32532 40.452999,40.45277 0 0 1 210.29899,22.917584 40.452999,40.45277 0 0 1 254.98079,27.81101"
       transform="translate(-10.267009,-13.166427)"
       sodipodi:open="true" /><path
       style="fill:none;fill-opacity:1;stroke:#000000;stroke-width:3.175;stroke-dasharray:none;stroke-opacity:1;stroke-linecap:butt"
       id="path3-5"
       inkscape:label="inner ring"
       sodipodi:type="arc"
       sodipodi:cx="228.97812"
       sodipodi:cy="58.799633"
       sodipodi:rx="31.862497"
       sodipodi:ry="31.862497"
       sodipodi:start="0.95993109"
       sodipodi:end="5.1487213"
       sodipodi:arc-type="arc"
       d="m 247.2537,84.899863 a 31.862497,31.862497 0 0 1 -40.80577,-3.570042 31.862497,31.862497 0 0 1 -3.57004,-40.805766 31.862497,31.862497 0 0 1 39.5659,-10.601651"
       sodipodi:open="true"
       transform="translate(-10.267009,-13.166427)" /><g
       id="g2549"
       inkscape:label="horn"
       inkscape:transform-center-x="-9.3286692"
       inkscape:transform-center-y="-7.7601538"
       transform="rotate(-40.774493,218.71111,45.633206)"
       style="fill:#eab800;fill-opacity:1;stroke:none"><circle
         style="fill:#eab800;fill-opacity:1;stroke:none;stroke-width:2.64583;stroke-dasharray:none;stroke-opacity:1"
         id="path3-9-3-6-7"
         cx="148.87506"
         cy="-166.59277"
         r="3.7459686"
         inkscape:label="shaft"
         inkscape:tile-cx="131.85655"
         inkscape:tile-cy="46.066472"
         inkscape:tile-w="5.0392618"
         inkscape:tile-h="5.0392618"
         inkscape:tile-x0="129.77203"
         inkscape:tile-y0="11.709623"
         inkscape:transform-center-x="-41.31485"
         inkscape:transform-center-y="-23.106186"
         transform="rotate(60.000001)" /><path
         id="path3-9-3-6-7-1"
         style="opacity:1;fill:#eab800;fill-opacity:1;stroke:none;stroke-width:0.529167"
         inkscape:label="horn body"
         inkscape:transform-center-x="-74.364004"
         inkscape:transform-center-y="-44.194279"
         d="m 218.26265,38.468453 a 6.7424966,7.1647613 0 0 0 -3.37137,0.960148 6.7424966,7.1647613 0 0 0 -2.46807,9.787 6.7424966,7.1647613 0 0 0 5.83944,3.58221 6.7424966,7.1647613 0 0 0 1.62884,-0.211874 l 29.37857,-3.828706 v -10e-4 a 2.9587551,3.1440541 0 0 0 1.13791,-0.399975 2.9587551,3.1440541 0 0 0 1.08314,-4.294829 2.9587551,3.1440541 0 0 0 -2.22312,-1.551843 v -5.17e-4 L 219.892,38.680843 h -5.1e-4 a 6.7424966,7.1647613 0 0 0 -1.62884,-0.21239 z m 0.44131,1.497583 a 5.6657772,5.6657772 0 0 1 4.90668,2.832902 5.6657772,5.6657772 0 0 1 -2.07377,7.739579 5.6657772,5.6657772 0 0 1 -7.73958,-2.073775 5.6657772,5.6657772 0 0 1 2.07377,-7.739579 5.6657772,5.6657772 0 0 1 2.8329,-0.759127 z m 12.79199,3.773413 a 1.8938678,1.8938678 0 0 1 1.63969,0.946712 1.8938678,1.8938678 0 0 1 -0.69298,2.587439 1.8938678,1.8938678 0 0 1 -2.58692,-0.693497 1.8938678,1.8938678 0 0 1 0.69298,-2.586923 1.8938678,1.8938678 0 0 1 0.94723,-0.253731 z m 7.95145,0 a 1.8938678,1.8938678 0 0 1 1.64021,0.946712 1.8938678,1.8938678 0 0 1 -0.6935,2.587439 1.8938678,1.8938678 0 0 1 -2.58692,-0.693497 1.8938678,1.8938678 0 0 1 0.6935,-2.586923 1.8938678,1.8938678 0 0 1 0.94671,-0.253731 z m 7.95145,0 a 1.8938678,1.8938678 0 0 1 1.64021,0.946712 1.8938678,1.8938678 0 0 1 -0.69298,2.587439 1.8938678,1.8938678 0 0 1 -2.58692,-0.693497 1.8938678,1.8938678 0 0 1 0.69298,-2.586923 1.8938678,1.8938678 0 0 1 0.94671,-0.253731 z" /></g></g><g
     inkscape:groupmode="layer"
     id="layer3"
     inkscape:label="S"><g
       id="g2547"
       inkscape:label="holes"
       transform="translate(-10.267009,-13.166427)"
       style="fill:#eab800;fill-opacity:1"><circle
         style="fill:#eab800;fill-opacity:1;stroke:#eab800;stroke-width:1.32292;stroke-dasharray:none;stroke-opacity:1"
         id="path3-9-3"
         cx="-141.68846"
         cy="27.395681"
         r="2.5196309"
         inkscape:label="hole 1"
         inkscape:tile-cx="131.85655"
         inkscape:tile-cy="46.066472"
         inkscape:tile-w="5.0392618"
         inkscape:tile-h="5.0392618"
         inkscape:tile-x0="129.77203"
         inkscape:tile-y0="11.709623"
         inkscape:transform-center-x="0.43510366"
         inkscape:transform-center-y="-31.837218"
         transform="scale(-1,1)" /><circle
         style="fill:#eab800;fill-opacity:1;stroke:#eab800;stroke-width:1.32292;stroke-dasharray:none;stroke-opacity:1"
         id="path3-9-3-6"
         cx="122.79408"
         cy="-125.30338"
         r="2.5196309"
         inkscape:label="hole 2"
         inkscape:tile-cx="131.85655"
         inkscape:tile-cy="46.066472"
         inkscape:tile-w="5.0392618"
         inkscape:tile-h="5.0392618"
         inkscape:tile-x0="129.77203"
         inkscape:tile-y0="11.709623"
         inkscape:transform-center-x="-27.789389"
         inkscape:transform-center-y="-15.541796"
         transform="rotate(60)" /><circle
         style="fill:#eab800;fill-opacity:1;stroke:#eab800;stroke-width:1.32292;stroke-dasharray:none;stroke-opacity:1"
         id="path3-9-3-6-6"
         cx="-19.329483"
         cy="-184.53629"
         r="2.5196309"
         inkscape:label="hole 3"
         inkscape:tile-cx="131.85655"
         inkscape:tile-cy="46.066472"
         inkscape:tile-w="5.0392618"
         inkscape:tile-h="5.0392618"
         inkscape:tile-x0="129.77203"
         inkscape:tile-y0="11.709623"
         inkscape:transform-center-x="-27.354288"
         inkscape:transform-center-y="16.29542"
         transform="rotate(120)" /><circle
         style="fill:#eab800;fill-opacity:1;stroke:#eab800;stroke-width:1.32292;stroke-dasharray:none;stroke-opacity:1"
         id="path3-9-3-6-6-6"
         cx="-141.68846"
         cy="-91.070114"
         r="2.5196309"
         inkscape:label="hole 4"
         inkscape:tile-cx="131.85655"
         inkscape:tile-cy="46.066472"
         inkscape:tile-w="5.0392618"
         inkscape:tile-h="5.0392618"
         inkscape:tile-x0="129.77203"
         inkscape:tile-y0="11.709623"
         inkscape:transform-center-x="0.43510309"
         inkscape:transform-center-y="31.837215"
         transform="scale(-1)" /><circle
         style="fill:#eab800;fill-opacity:1;stroke:#eab800;stroke-width:1.32292;stroke-dasharray:none;stroke-opacity:0.94117647"
         id="path3-9-3-6-6-6-4"
         cx="-121.92387"
         cy="61.628952"
         r="2.5196309"
         inkscape:label="hole 5"
         inkscape:tile-cx="131.85655"
         inkscape:tile-cy="46.066472"
         inkscape:tile-w="5.0392618"
         inkscape:tile-h="5.0392618"
         inkscape:tile-x0="129.77203"
         inkscape:tile-y0="11.709623"
         inkscape:transform-center-x="27.789393"
         inkscape:transform-center-y="15.54179"
         transform="rotate(-120)" /><circle
         style="fill:#eab800;fill-opacity:1;stroke:#eab800;stroke-width:1.32292;stroke-dasharray:none;stroke-opacity:1"
         id="path3-9-3-6-6-6-4-2"
         cx="19.969687"
         cy="120.90405"
         r="2.5196309"
         inkscape:label="hole 6"
         inkscape:tile-cx="131.85655"
         inkscape:tile-cy="46.066472"
         inkscape:tile-w="5.0392618"
         inkscape:tile-h="5.0392618"
         inkscape:tile-x0="129.77203"
         inkscape:tile-y0="11.709623"
         inkscape:transform-center-x="27.354279"
         inkscape:transform-center-y="-16.295424"
         transform="rotate(-60)" /></g><rect
       style="fill:#000000;fill-opacity:1;stroke:none;stroke-width:1.32292;stroke-dasharray:none;stroke-opacity:1"
       id="rect2547"
       width="79.040443"
       height="3.2329576"
       x="92.771446"
       y="44.685604"
       inkscape:label="horizontal bar" /><path
       style="fill:none;fill-opacity:1;stroke:#000000;stroke-width:3.175;stroke-dasharray:none;stroke-opacity:1;stroke-linejoin:miter;stroke-linecap:square"
       id="path3-9-7"
       inkscape:label="outer ring bottom"
       transform="translate(-10.267009,-13.166427)"
       sodipodi:type="arc"
       sodipodi:cx="142.55867"
       sodipodi:cy="59.46851"
       sodipodi:rx="40.456936"
       sodipodi:ry="40.456936"
       sodipodi:start="0"
       sodipodi:end="2.7925268"
       sodipodi:open="true"
       sodipodi:arc-type="arc"
       d="M 183.01561,59.46851 A 40.456936,40.456936 0 0 1 149.58394,99.310814 40.456936,40.456936 0 0 1 104.54159,73.305597" /><path
       style="fill:none;fill-opacity:1;stroke:#000000;stroke-width:3.175;stroke-dasharray:none;stroke-opacity:1;stroke-linejoin:miter;stroke-linecap:square"
       id="path3-9-7-9"
       inkscape:label="outer ring top"
       sodipodi:type="arc"
       sodipodi:cx="132.29166"
       sodipodi:cy="46.302082"
       sodipodi:rx="40.456936"
       sodipodi:ry="40.456936"
       sodipodi:start="3.1415927"
       sodipodi:end="5.9341195"
       sodipodi:arc-type="arc"
       d="M 91.834721,46.302082 A 40.456936,40.456936 0 0 1 125.26639,6.4597776 40.456936,40.456936 0 0 1 170.30874,32.464997"
       sodipodi:open="true" /><path
       style="fill:none;fill-opacity:1;stroke:#000000;stroke-width:3.175;stroke-dasharray:none;stroke-opacity:1;stroke-linecap:square"
       id="path3-9"
       inkscape:label="inner ring bottom"
       transform="translate(-10.267009,-13.166427)"
       sodipodi:type="arc"
       sodipodi:cx="142.55867"
       sodipodi:cy="59.46851"
       sodipodi:rx="24.793156"
       sodipodi:ry="24.793156"
       sodipodi:start="0.34906585"
       sodipodi:end="2.7925268"
       sodipodi:open="true"
       sodipodi:arc-type="arc"
       d="M 165.85662,67.948268 A 24.793156,24.793156 0 0 1 142.55867,84.261665 24.793156,24.793156 0 0 1 119.26072,67.948268" /><path
       style="fill:none;fill-opacity:1;stroke:#000000;stroke-width:3.175;stroke-dasharray:none;stroke-opacity:1;stroke-linecap:square"
       id="path3-9-1"
       inkscape:label="inner ring top"
       sodipodi:type="arc"
       sodipodi:cx="132.29166"
       sodipodi:cy="46.302082"
       sodipodi:rx="24.793156"
       sodipodi:ry="24.793156"
       sodipodi:start="3.4906585"
       sodipodi:end="5.9341195"
       sodipodi:arc-type="arc"
       d="M 108.99371,37.822323 A 24.793156,24.793156 0 0 1 132.29166,21.508926 24.793156,24.793156 0 0 1 155.5896,37.822324"
       sodipodi:open="true" /></g><g
     inkscape:label="O"
     inkscape:groupmode="layer"
     id="layer1"
     transform="translate(-10.267009,-13.166427)"><circle
       style="fill:none;fill-opacity:1;stroke:#000000;stroke-width:3.175;stroke-dasharray:none;stroke-opacity:1"
       id="path3"
       cx="56.108639"
       cy="59.894363"
       r="20.198107"
       inkscape:label="inner ring" /><circle
       style="fill:none;fill-opacity:1;stroke:#000000;stroke-width:3.175;stroke-dasharray:none;stroke-opacity:1"
       id="path3-2"
       cx="56.108639"
       cy="59.894363"
       r="40.45277"
       inkscape:label="outer ring" /><g
       id="g2406"
       inkscape:tile-cx="45.831067"
       inkscape:tile-cy="46.727936"
       inkscape:tile-w="84.120314"
       inkscape:tile-h="2.3812491"
       inkscape:tile-x0="3.77091"
       inkscape:tile-y0="45.537311"
       inkscape:label="slots"><path
         id="rect1821"
         style="stroke-width:3;fill:#eab800;fill-opacity:1;stroke-dasharray:none"
         d="m 85.351763,59.344567 h 6.87917 v 2.381249 h -6.87917 z"
         inkscape:transform-center-x="-32.350195"
         inkscape:tile-cx="45.841629"
         inkscape:tile-cy="46.727936"
         inkscape:tile-w="6.8791699"
         inkscape:tile-h="2.381249"
         inkscape:tile-x0="74.752239"
         inkscape:tile-y0="45.537311"
         inkscape:label="slot01"
         transform="translate(-0.29288119,-0.64082806)" /><path
         id="use2485"
         style="fill:#eab800;fill-opacity:1;stroke-width:3;stroke-dasharray:none"
         d="m 85.102816,63.881842 6.794476,1.076139 -0.37251,2.351932 -6.794476,-1.076139 z"
         inkscape:transform-center-x="-32.350195"
         inkscape:tile-x0="74.752239"
         inkscape:tile-y0="45.537311"
         inkscape:label="slot01"
         transform="translate(-0.29288119,-0.64082806)" /><path
         id="use2486"
         style="fill:#eab800;fill-opacity:1;stroke-width:3;stroke-dasharray:none"
         d="m 84.225436,68.336711 6.542479,2.12578 -0.735846,2.264703 -6.54248,-2.125781 z"
         inkscape:transform-center-x="-32.350195"
         inkscape:tile-x0="74.752239"
         inkscape:tile-y0="45.537311"
         inkscape:label="slot01"
         transform="translate(-0.29288119,-0.64082806)" /><path
         id="use2487"
         style="fill:#eab800;fill-opacity:1;stroke-width:3;stroke-dasharray:none"
         d="m 82.661963,72.59948 6.129385,3.123078 -1.081064,2.121709 -6.129385,-3.123078 z"
         inkscape:transform-center-x="-32.350195"
         inkscape:tile-x0="74.752239"
         inkscape:tile-y0="45.537311"
         inkscape:label="slot01"
         transform="translate(-0.29288119,-0.64082806)" /><path
         id="use2488"
         style="fill:#eab800;fill-opacity:1;stroke-width:3;stroke-dasharray:none"
         d="m 80.450895,76.565187 5.565365,4.043474 -1.399663,1.926471 -5.565365,-4.043474 z"
         inkscape:transform-center-x="-32.350195"
         inkscape:tile-x0="74.752239"
         inkscape:tile-y0="45.537311"
         inkscape:label="slot01"
         transform="translate(-0.29288119,-0.64082806)" /><path
         id="use2489"
         style="fill:#eab800;fill-opacity:1;stroke-width:3;stroke-dasharray:none"
         d="m 77.646675,80.136182 4.864308,4.864308 -1.683797,1.683797 -4.864308,-4.864308 z"
         inkscape:transform-center-x="-32.350195"
         inkscape:tile-x0="74.752239"
         inkscape:tile-y0="45.537311"
         inkscape:label="slot01"
         transform="translate(-0.29288119,-0.64082806)" /><path
         id="use2490"
         style="fill:#eab800;fill-opacity:1;stroke-width:3;stroke-dasharray:none"
         d="m 74.318354,83.224535 4.043475,5.565366 -1.926471,1.399663 -4.043475,-5.565365 z"
         inkscape:transform-center-x="-32.350195"
         inkscape:tile-x0="74.752239"
         inkscape:tile-y0="45.537311"
         inkscape:label="slot01"
         transform="translate(-0.29288119,-0.64082806)" /><path
         id="use2491"
         style="fill:#eab800;fill-opacity:1;stroke-width:3;stroke-dasharray:none"
         d="m 70.547884,85.754202 3.123078,6.129385 -2.121708,1.081065 -3.123078,-6.129386 z"
         inkscape:transform-center-x="-32.350195"
         inkscape:tile-x0="74.752239"
         inkscape:tile-y0="45.537311"
         inkscape:label="slot01"
         transform="translate(-0.29288119,-0.64082806)" /><path
         id="use2492"
         style="fill:#eab800;fill-opacity:1;stroke-width:3;stroke-dasharray:none"
         d="m 66.428109,87.662894 2.12578,6.54248 -2.264702,0.735846 -2.125781,-6.542479 z"
         inkscape:transform-center-x="-32.350195"
         inkscape:tile-x0="74.752239"
         inkscape:tile-y0="45.537311"
         inkscape:label="slot01"
         transform="translate(-0.29288119,-0.64082806)" /><path
         id="use2493"
         style="fill:#eab800;fill-opacity:1;stroke-width:3;stroke-dasharray:none"
         d="m 62.060471,88.903611 1.076139,6.794476 -2.351932,0.372509 -1.076139,-6.794476 z"
         inkscape:transform-center-x="-32.350195"
         inkscape:tile-x0="74.752239"
         inkscape:tile-y0="45.537311"
         inkscape:label="slot01"
         transform="translate(-0.29288119,-0.64082806)" /><path
         id="use2494"
         style="fill:#eab800;fill-opacity:1;stroke-width:3;stroke-dasharray:none"
         d="m 57.552511,89.445801 v 6.87917 h -2.381249 v -6.87917 z"
         inkscape:transform-center-x="-32.350195"
         inkscape:tile-x0="74.752239"
         inkscape:tile-y0="45.537311"
         inkscape:label="slot01"
         transform="translate(-0.29288119,-0.64082806)" /><path
         id="use2495"
         style="fill:#eab800;fill-opacity:1;stroke-width:3;stroke-dasharray:none"
         d="m 53.015236,89.27612 -1.076139,6.794476 -2.351932,-0.372509 1.076139,-6.794476 z"
         inkscape:transform-center-x="-32.350195"
         inkscape:tile-x0="74.752239"
         inkscape:tile-y0="45.537311"
         inkscape:label="slot01"
         transform="translate(-0.29288119,-0.64082806)" /><path
         id="use2496"
         style="fill:#eab800;fill-opacity:1;stroke-width:3;stroke-dasharray:none"
         d="m 48.560369,88.398739 -2.125781,6.54248 -2.264702,-0.735846 2.125781,-6.54248 z"
         inkscape:transform-center-x="-32.350195"
         inkscape:tile-x0="74.752239"
         inkscape:tile-y0="45.537311"
         inkscape:label="slot01"
         transform="translate(-0.29288119,-0.64082806)" /><path
         id="use2497"
         style="fill:#eab800;fill-opacity:1;stroke-width:3;stroke-dasharray:none"
         d="m 44.297602,86.835265 -3.123077,6.129385 -2.121709,-1.081064 3.123078,-6.129385 z"
         inkscape:transform-center-x="-32.350195"
         inkscape:tile-x0="74.752239"
         inkscape:tile-y0="45.537311"
         inkscape:label="slot01"
         transform="translate(-0.29288119,-0.64082806)" /><path
         id="use2498"
         style="fill:#eab800;fill-opacity:1;stroke-width:3;stroke-dasharray:none"
         d="m 40.331893,84.624195 -4.043475,5.565365 -1.926471,-1.399663 4.043475,-5.565365 z"
         inkscape:transform-center-x="-32.350195"
         inkscape:tile-x0="74.752239"
         inkscape:tile-y0="45.537311"
         inkscape:label="slot01"
         transform="translate(-0.29288119,-0.64082806)" /><path
         id="use2499"
         style="fill:#eab800;fill-opacity:1;stroke-width:3;stroke-dasharray:none"
         d="m 36.760898,81.81998 -4.864308,4.864308 -1.683797,-1.683797 4.864308,-4.864308 z"
         inkscape:transform-center-x="-32.350195"
         inkscape:tile-x0="74.752239"
         inkscape:tile-y0="45.537311"
         inkscape:label="slot01"
         transform="translate(-0.29288119,-0.64082806)" /><path
         id="use2500"
         style="fill:#eab800;fill-opacity:1;stroke-width:3;stroke-dasharray:none"
         d="M 33.672545,78.491655 28.10718,82.53513 26.707516,80.608659 32.272882,76.565184 Z"
         inkscape:transform-center-x="-32.350195"
         inkscape:tile-x0="74.752239"
         inkscape:tile-y0="45.537311"
         inkscape:label="slot01"
         transform="translate(-0.29288119,-0.64082806)" /><path
         id="use2501"
         style="fill:#eab800;fill-opacity:1;stroke-width:3;stroke-dasharray:none"
         d="m 31.142877,74.721189 -6.129385,3.123078 -1.081064,-2.121709 6.129385,-3.123077 z"
         inkscape:transform-center-x="-32.350195"
         inkscape:tile-x0="74.752239"
         inkscape:tile-y0="45.537311"
         inkscape:label="slot01"
         transform="translate(-0.29288119,-0.64082806)" /><path
         id="use2502"
         style="fill:#eab800;fill-opacity:1;stroke-width:3;stroke-dasharray:none"
         d="m 29.234186,70.601414 -6.542479,2.12578 -0.735846,-2.264702 6.542479,-2.12578 z"
         inkscape:transform-center-x="-32.350195"
         inkscape:tile-x0="74.752239"
         inkscape:tile-y0="45.537311"
         inkscape:label="slot01"
         transform="translate(-0.29288119,-0.64082806)" /><path
         id="use2503"
         style="fill:#eab800;fill-opacity:1;stroke-width:3;stroke-dasharray:none"
         d="m 27.993467,66.233773 -6.794476,1.076139 -0.372509,-2.351932 6.794476,-1.076139 z"
         inkscape:transform-center-x="-32.350195"
         inkscape:tile-x0="74.752239"
         inkscape:tile-y0="45.537311"
         inkscape:label="slot01"
         transform="translate(-0.29288119,-0.64082806)" /><path
         id="use2504"
         style="fill:#eab800;fill-opacity:1;stroke-width:3;stroke-dasharray:none"
         d="m 27.451277,61.725815 h -6.87917 v -2.381249 h 6.87917 z"
         inkscape:transform-center-x="-32.350195"
         inkscape:tile-x0="74.752239"
         inkscape:tile-y0="45.537311"
         inkscape:label="slot01"
         transform="translate(-0.29288119,-0.64082806)" /><path
         id="use2505"
         style="fill:#eab800;fill-opacity:1;stroke-width:3;stroke-dasharray:none"
         d="m 27.62096,57.188542 -6.794476,-1.076139 0.372509,-2.351932 6.794476,1.076139 z"
         inkscape:transform-center-x="-32.350195"
         inkscape:tile-x0="74.752239"
         inkscape:tile-y0="45.537311"
         inkscape:label="slot01"
         transform="translate(-0.29288119,-0.64082806)" /><path
         id="use2506"
         style="fill:#eab800;fill-opacity:1;stroke-width:3;stroke-dasharray:none"
         d="m 28.49834,52.733671 -6.542479,-2.12578 0.735846,-2.264702 6.542479,2.12578 z"
         inkscape:transform-center-x="-32.350195"
         inkscape:tile-x0="74.752239"
         inkscape:tile-y0="45.537311"
         inkscape:label="slot01"
         transform="translate(-0.29288119,-0.64082806)" /><path
         id="use2507"
         style="fill:#eab800;fill-opacity:1;stroke-width:3;stroke-dasharray:none"
         d="m 30.061811,48.470904 -6.129386,-3.123078 1.081065,-2.121708 6.129385,3.123077 z"
         inkscape:transform-center-x="-32.350195"
         inkscape:tile-x0="74.752239"
         inkscape:tile-y0="45.537311"
         inkscape:label="slot01"
         transform="translate(-0.29288119,-0.64082806)" /><path
         id="use2508"
         style="fill:#eab800;fill-opacity:1;stroke-width:3;stroke-dasharray:none"
         d="m 32.272883,44.505197 -5.565366,-4.043474 1.399663,-1.926471 5.565366,4.043474 z"
         inkscape:transform-center-x="-32.350195"
         inkscape:tile-x0="74.752239"
         inkscape:tile-y0="45.537311"
         inkscape:label="slot01"
         transform="translate(-0.29288119,-0.64082806)" /><path
         id="use2509"
         style="fill:#eab800;fill-opacity:1;stroke-width:3;stroke-dasharray:none"
         d="m 35.0771,40.934202 -4.864308,-4.864308 1.683798,-1.683797 4.864307,4.864307 z"
         inkscape:transform-center-x="-32.350195"
         inkscape:tile-x0="74.752239"
         inkscape:tile-y0="45.537311"
         inkscape:label="slot01"
         transform="translate(-0.29288119,-0.64082806)" /><path
         id="use2510"
         style="fill:#eab800;fill-opacity:1;stroke-width:3;stroke-dasharray:none"
         d="m 38.405424,37.845847 -4.043475,-5.565366 1.926471,-1.399663 4.043475,5.565366 z"
         inkscape:transform-center-x="-32.350195"
         inkscape:tile-x0="74.752239"
         inkscape:tile-y0="45.537311"
         inkscape:label="slot01"
         transform="translate(-0.29288119,-0.64082806)" /><path
         id="use2511"
         style="fill:#eab800;fill-opacity:1;stroke-width:3;stroke-dasharray:none"
         d="m 42.175894,35.316182 -3.123078,-6.129385 2.121709,-1.081064 3.123077,6.129385 z"
         inkscape:transform-center-x="-32.350195"
         inkscape:tile-x0="74.752239"
         inkscape:tile-y0="45.537311"
         inkscape:label="slot01"
         transform="translate(-0.29288119,-0.64082806)" /><path
         id="use2512"
         style="fill:#eab800;fill-opacity:1;stroke-width:3;stroke-dasharray:none"
         d="m 46.295667,33.40749 -2.125781,-6.54248 2.264702,-0.735846 2.125781,6.54248 z"
         inkscape:transform-center-x="-32.350195"
         inkscape:tile-x0="74.752239"
         inkscape:tile-y0="45.537311"
         inkscape:label="slot01"
         transform="translate(-0.29288119,-0.64082806)" /><path
         id="use2513"
         style="fill:#eab800;fill-opacity:1;stroke-width:3;stroke-dasharray:none"
         d="m 50.663308,32.166773 -1.07614,-6.794476 2.351932,-0.372509 1.07614,6.794476 z"
         inkscape:transform-center-x="-32.350195"
         inkscape:tile-x0="74.752239"
         inkscape:tile-y0="45.537311"
         inkscape:label="slot01"
         transform="translate(-0.29288119,-0.64082806)" /><path
         id="use2514"
         style="fill:#eab800;fill-opacity:1;stroke-width:3;stroke-dasharray:none"
         d="m 55.171266,31.624582 v -6.87917 h 2.381249 v 6.87917 z"
         inkscape:transform-center-x="-32.350195"
         inkscape:tile-x0="74.752239"
         inkscape:tile-y0="45.537311"
         inkscape:label="slot01"
         transform="translate(-0.29288119,-0.64082806)" /><path
         id="use2515"
         style="fill:#eab800;fill-opacity:1;stroke:none;stroke-width:3;stroke-opacity:1;stroke-dasharray:none"
         d="m 59.708538,31.794264 1.076139,-6.794476 2.351932,0.372509 -1.076139,6.794476 z"
         inkscape:transform-center-x="-32.350195"
         inkscape:tile-x0="74.752239"
         inkscape:tile-y0="45.537311"
         inkscape:label="slot01"
         transform="translate(-0.29288119,-0.64082806)" /><path
         id="use2516"
         style="fill:#eab800;fill-opacity:1;stroke-width:3;stroke-dasharray:none"
         d="m 64.163407,32.671645 2.12578,-6.54248 2.264703,0.735847 -2.125781,6.542479 z"
         inkscape:transform-center-x="-32.350195"
         inkscape:tile-x0="74.752239"
         inkscape:tile-y0="45.537311"
         inkscape:label="slot01"
         transform="translate(-0.29288119,-0.64082806)" /><path
         id="use2517"
         style="fill:#eab800;fill-opacity:1;stroke-width:3;stroke-dasharray:none"
         d="m 68.426176,34.235118 3.123078,-6.129386 2.121708,1.081065 -3.123077,6.129385 z"
         inkscape:transform-center-x="-32.350195"
         inkscape:tile-x0="74.752239"
         inkscape:tile-y0="45.537311"
         inkscape:label="slot01"
         transform="translate(-0.29288119,-0.64082806)" /><path
         id="use2518"
         style="fill:#eab800;fill-opacity:1;stroke-width:3;stroke-dasharray:none"
         d="m 72.391883,36.446186 4.043474,-5.565366 1.926471,1.399663 -4.043474,5.565366 z"
         inkscape:transform-center-x="-32.350195"
         inkscape:tile-x0="74.752239"
         inkscape:tile-y0="45.537311"
         inkscape:label="slot01"
         transform="translate(-0.29288119,-0.64082806)" /><path
         id="use2519"
         style="fill:#eab800;fill-opacity:1;stroke-width:3;stroke-dasharray:none"
         d="m 75.962879,39.250404 4.864308,-4.864307 1.683797,1.683797 -4.864308,4.864308 z"
         inkscape:transform-center-x="-32.350195"
         inkscape:tile-x0="74.752239"
         inkscape:tile-y0="45.537311"
         inkscape:label="slot01"
         transform="translate(-0.29288119,-0.64082806)" /><path
         id="use2520"
         style="fill:#eab800;fill-opacity:1;stroke-width:3;stroke-dasharray:none"
         d="m 79.051233,42.578726 5.565365,-4.043474 1.399663,1.926471 -5.565365,4.043474 z"
         inkscape:transform-center-x="-32.350195"
         inkscape:tile-x0="74.752239"
         inkscape:tile-y0="45.537311"
         inkscape:label="slot01"
         transform="translate(-0.29288119,-0.64082806)" /><path
         id="use2521"
         style="fill:#eab800;fill-opacity:1;stroke-width:3;stroke-dasharray:none"
         d="m 81.580898,46.349195 6.129386,-3.123078 1.081064,2.121709 -6.129385,3.123078 z"
         inkscape:transform-center-x="-32.350195"
         inkscape:tile-x0="74.752239"
         inkscape:tile-y0="45.537311"
         inkscape:label="slot01"
         transform="translate(-0.29288119,-0.64082806)" /><path
         id="use2522"
         style="fill:#eab800;fill-opacity:1;stroke-width:3;stroke-dasharray:none"
         d="m 83.48959,50.468971 6.542479,-2.125781 0.735846,2.264703 -6.542479,2.12578 z"
         inkscape:transform-center-x="-32.350195"
         inkscape:tile-x0="74.752239"
         inkscape:tile-y0="45.537311"
         inkscape:label="slot01"
         transform="translate(-0.29288119,-0.64082806)" /><path
         id="use2523"
         style="fill:#eab800;fill-opacity:1;stroke-width:3;stroke-dasharray:none"
         d="m 84.730306,54.836611 6.794476,-1.07614 0.372509,2.351932 -6.794476,1.076139 z"
         inkscape:transform-center-x="-32.350195"
         inkscape:tile-x0="74.752239"
         inkscape:tile-y0="45.537311"
         inkscape:label="slot01"
         transform="translate(-0.29288119,-0.64082806)" /></g></g></svg>
