%TF.GenerationSoftware,KiCad,Pcbnew,9.0.7*%
%TF.CreationDate,2026-02-18T10:31:35-08:00*%
%TF.ProjectId,servo-dev-board-ch32v006,73657276-6f2d-4646-9576-2d626f617264,rev?*%
%TF.SameCoordinates,Original*%
%TF.FileFunction,Legend,Bot*%
%TF.FilePolarity,Positive*%
%FSLAX46Y46*%
G04 Gerber Fmt 4.6, Leading zero omitted, Abs format (unit mm)*
G04 Created by KiCad (PCBNEW 9.0.7) date 2026-02-18 10:31:35*
%MOMM*%
%LPD*%
G01*
G04 APERTURE LIST*
%ADD10C,0.150000*%
%ADD11C,3.500000*%
%ADD12R,1.400000X1.500000*%
%ADD13C,1.400000*%
%ADD14O,1.700000X1.000000*%
G04 APERTURE END LIST*
D10*
X130589819Y-91271428D02*
X131304104Y-91271428D01*
X131304104Y-91271428D02*
X131446961Y-91223809D01*
X131446961Y-91223809D02*
X131542200Y-91128571D01*
X131542200Y-91128571D02*
X131589819Y-90985714D01*
X131589819Y-90985714D02*
X131589819Y-90890476D01*
X131542200Y-91700000D02*
X131589819Y-91842857D01*
X131589819Y-91842857D02*
X131589819Y-92080952D01*
X131589819Y-92080952D02*
X131542200Y-92176190D01*
X131542200Y-92176190D02*
X131494580Y-92223809D01*
X131494580Y-92223809D02*
X131399342Y-92271428D01*
X131399342Y-92271428D02*
X131304104Y-92271428D01*
X131304104Y-92271428D02*
X131208866Y-92223809D01*
X131208866Y-92223809D02*
X131161247Y-92176190D01*
X131161247Y-92176190D02*
X131113628Y-92080952D01*
X131113628Y-92080952D02*
X131066009Y-91890476D01*
X131066009Y-91890476D02*
X131018390Y-91795238D01*
X131018390Y-91795238D02*
X130970771Y-91747619D01*
X130970771Y-91747619D02*
X130875533Y-91700000D01*
X130875533Y-91700000D02*
X130780295Y-91700000D01*
X130780295Y-91700000D02*
X130685057Y-91747619D01*
X130685057Y-91747619D02*
X130637438Y-91795238D01*
X130637438Y-91795238D02*
X130589819Y-91890476D01*
X130589819Y-91890476D02*
X130589819Y-92128571D01*
X130589819Y-92128571D02*
X130637438Y-92271428D01*
X130589819Y-92557143D02*
X130589819Y-93128571D01*
X131589819Y-92842857D02*
X130589819Y-92842857D01*
X131208866Y-93461905D02*
X131208866Y-94223810D01*
X130589819Y-94604762D02*
X130589819Y-95271428D01*
X130589819Y-95271428D02*
X131589819Y-94604762D01*
X131589819Y-94604762D02*
X131589819Y-95271428D01*
X131589819Y-95652381D02*
X130589819Y-95652381D01*
X131066009Y-95652381D02*
X131066009Y-96223809D01*
X131589819Y-96223809D02*
X130589819Y-96223809D01*
X131208866Y-96700000D02*
X131208866Y-97461905D01*
X130589819Y-98414285D02*
X130589819Y-97938095D01*
X130589819Y-97938095D02*
X131066009Y-97890476D01*
X131066009Y-97890476D02*
X131018390Y-97938095D01*
X131018390Y-97938095D02*
X130970771Y-98033333D01*
X130970771Y-98033333D02*
X130970771Y-98271428D01*
X130970771Y-98271428D02*
X131018390Y-98366666D01*
X131018390Y-98366666D02*
X131066009Y-98414285D01*
X131066009Y-98414285D02*
X131161247Y-98461904D01*
X131161247Y-98461904D02*
X131399342Y-98461904D01*
X131399342Y-98461904D02*
X131494580Y-98414285D01*
X131494580Y-98414285D02*
X131542200Y-98366666D01*
X131542200Y-98366666D02*
X131589819Y-98271428D01*
X131589819Y-98271428D02*
X131589819Y-98033333D01*
X131589819Y-98033333D02*
X131542200Y-97938095D01*
X131542200Y-97938095D02*
X131494580Y-97890476D01*
X131589819Y-98890476D02*
X130589819Y-98890476D01*
X130589819Y-98890476D02*
X130589819Y-99271428D01*
X130589819Y-99271428D02*
X130637438Y-99366666D01*
X130637438Y-99366666D02*
X130685057Y-99414285D01*
X130685057Y-99414285D02*
X130780295Y-99461904D01*
X130780295Y-99461904D02*
X130923152Y-99461904D01*
X130923152Y-99461904D02*
X131018390Y-99414285D01*
X131018390Y-99414285D02*
X131066009Y-99366666D01*
X131066009Y-99366666D02*
X131113628Y-99271428D01*
X131113628Y-99271428D02*
X131113628Y-98890476D01*
X179410180Y-76778571D02*
X178695895Y-76778571D01*
X178695895Y-76778571D02*
X178553038Y-76826190D01*
X178553038Y-76826190D02*
X178457800Y-76921428D01*
X178457800Y-76921428D02*
X178410180Y-77064285D01*
X178410180Y-77064285D02*
X178410180Y-77159523D01*
X178457800Y-76349999D02*
X178410180Y-76207142D01*
X178410180Y-76207142D02*
X178410180Y-75969047D01*
X178410180Y-75969047D02*
X178457800Y-75873809D01*
X178457800Y-75873809D02*
X178505419Y-75826190D01*
X178505419Y-75826190D02*
X178600657Y-75778571D01*
X178600657Y-75778571D02*
X178695895Y-75778571D01*
X178695895Y-75778571D02*
X178791133Y-75826190D01*
X178791133Y-75826190D02*
X178838752Y-75873809D01*
X178838752Y-75873809D02*
X178886371Y-75969047D01*
X178886371Y-75969047D02*
X178933990Y-76159523D01*
X178933990Y-76159523D02*
X178981609Y-76254761D01*
X178981609Y-76254761D02*
X179029228Y-76302380D01*
X179029228Y-76302380D02*
X179124466Y-76349999D01*
X179124466Y-76349999D02*
X179219704Y-76349999D01*
X179219704Y-76349999D02*
X179314942Y-76302380D01*
X179314942Y-76302380D02*
X179362561Y-76254761D01*
X179362561Y-76254761D02*
X179410180Y-76159523D01*
X179410180Y-76159523D02*
X179410180Y-75921428D01*
X179410180Y-75921428D02*
X179362561Y-75778571D01*
X179410180Y-75492856D02*
X179410180Y-74921428D01*
X178410180Y-75207142D02*
X179410180Y-75207142D01*
X178791133Y-74588094D02*
X178791133Y-73826190D01*
X179410180Y-73445237D02*
X179410180Y-72778571D01*
X179410180Y-72778571D02*
X178410180Y-73445237D01*
X178410180Y-73445237D02*
X178410180Y-72778571D01*
X178410180Y-72397618D02*
X179410180Y-72397618D01*
X178933990Y-72397618D02*
X178933990Y-71826190D01*
X178410180Y-71826190D02*
X179410180Y-71826190D01*
X178791133Y-71349999D02*
X178791133Y-70588095D01*
X179410180Y-70207142D02*
X179410180Y-69588095D01*
X179410180Y-69588095D02*
X179029228Y-69921428D01*
X179029228Y-69921428D02*
X179029228Y-69778571D01*
X179029228Y-69778571D02*
X178981609Y-69683333D01*
X178981609Y-69683333D02*
X178933990Y-69635714D01*
X178933990Y-69635714D02*
X178838752Y-69588095D01*
X178838752Y-69588095D02*
X178600657Y-69588095D01*
X178600657Y-69588095D02*
X178505419Y-69635714D01*
X178505419Y-69635714D02*
X178457800Y-69683333D01*
X178457800Y-69683333D02*
X178410180Y-69778571D01*
X178410180Y-69778571D02*
X178410180Y-70064285D01*
X178410180Y-70064285D02*
X178457800Y-70159523D01*
X178457800Y-70159523D02*
X178505419Y-70207142D01*
X178410180Y-69159523D02*
X179410180Y-69159523D01*
X179410180Y-69159523D02*
X179410180Y-68778571D01*
X179410180Y-68778571D02*
X179362561Y-68683333D01*
X179362561Y-68683333D02*
X179314942Y-68635714D01*
X179314942Y-68635714D02*
X179219704Y-68588095D01*
X179219704Y-68588095D02*
X179076847Y-68588095D01*
X179076847Y-68588095D02*
X178981609Y-68635714D01*
X178981609Y-68635714D02*
X178933990Y-68683333D01*
X178933990Y-68683333D02*
X178886371Y-68778571D01*
X178886371Y-68778571D02*
X178886371Y-69159523D01*
X130589819Y-69247619D02*
X131304104Y-69247619D01*
X131304104Y-69247619D02*
X131446961Y-69200000D01*
X131446961Y-69200000D02*
X131542200Y-69104762D01*
X131542200Y-69104762D02*
X131589819Y-68961905D01*
X131589819Y-68961905D02*
X131589819Y-68866667D01*
X131542200Y-69676191D02*
X131589819Y-69819048D01*
X131589819Y-69819048D02*
X131589819Y-70057143D01*
X131589819Y-70057143D02*
X131542200Y-70152381D01*
X131542200Y-70152381D02*
X131494580Y-70200000D01*
X131494580Y-70200000D02*
X131399342Y-70247619D01*
X131399342Y-70247619D02*
X131304104Y-70247619D01*
X131304104Y-70247619D02*
X131208866Y-70200000D01*
X131208866Y-70200000D02*
X131161247Y-70152381D01*
X131161247Y-70152381D02*
X131113628Y-70057143D01*
X131113628Y-70057143D02*
X131066009Y-69866667D01*
X131066009Y-69866667D02*
X131018390Y-69771429D01*
X131018390Y-69771429D02*
X130970771Y-69723810D01*
X130970771Y-69723810D02*
X130875533Y-69676191D01*
X130875533Y-69676191D02*
X130780295Y-69676191D01*
X130780295Y-69676191D02*
X130685057Y-69723810D01*
X130685057Y-69723810D02*
X130637438Y-69771429D01*
X130637438Y-69771429D02*
X130589819Y-69866667D01*
X130589819Y-69866667D02*
X130589819Y-70104762D01*
X130589819Y-70104762D02*
X130637438Y-70247619D01*
X130589819Y-70533334D02*
X130589819Y-71104762D01*
X131589819Y-70819048D02*
X130589819Y-70819048D01*
X131208866Y-71438096D02*
X131208866Y-72200001D01*
X131589819Y-72676191D02*
X130589819Y-72676191D01*
X130589819Y-72676191D02*
X130589819Y-73057143D01*
X130589819Y-73057143D02*
X130637438Y-73152381D01*
X130637438Y-73152381D02*
X130685057Y-73200000D01*
X130685057Y-73200000D02*
X130780295Y-73247619D01*
X130780295Y-73247619D02*
X130923152Y-73247619D01*
X130923152Y-73247619D02*
X131018390Y-73200000D01*
X131018390Y-73200000D02*
X131066009Y-73152381D01*
X131066009Y-73152381D02*
X131113628Y-73057143D01*
X131113628Y-73057143D02*
X131113628Y-72676191D01*
X131589819Y-73676191D02*
X130589819Y-73676191D01*
X131066009Y-73676191D02*
X131066009Y-74247619D01*
X131589819Y-74247619D02*
X130589819Y-74247619D01*
X131208866Y-74723810D02*
X131208866Y-75485715D01*
X130685057Y-75914286D02*
X130637438Y-75961905D01*
X130637438Y-75961905D02*
X130589819Y-76057143D01*
X130589819Y-76057143D02*
X130589819Y-76295238D01*
X130589819Y-76295238D02*
X130637438Y-76390476D01*
X130637438Y-76390476D02*
X130685057Y-76438095D01*
X130685057Y-76438095D02*
X130780295Y-76485714D01*
X130780295Y-76485714D02*
X130875533Y-76485714D01*
X130875533Y-76485714D02*
X131018390Y-76438095D01*
X131018390Y-76438095D02*
X131589819Y-75866667D01*
X131589819Y-75866667D02*
X131589819Y-76485714D01*
X131589819Y-76914286D02*
X130589819Y-76914286D01*
X130589819Y-76914286D02*
X130589819Y-77295238D01*
X130589819Y-77295238D02*
X130637438Y-77390476D01*
X130637438Y-77390476D02*
X130685057Y-77438095D01*
X130685057Y-77438095D02*
X130780295Y-77485714D01*
X130780295Y-77485714D02*
X130923152Y-77485714D01*
X130923152Y-77485714D02*
X131018390Y-77438095D01*
X131018390Y-77438095D02*
X131066009Y-77390476D01*
X131066009Y-77390476D02*
X131113628Y-77295238D01*
X131113628Y-77295238D02*
X131113628Y-76914286D01*
X130589819Y-80889048D02*
X131399342Y-80889048D01*
X131399342Y-80889048D02*
X131494580Y-80936667D01*
X131494580Y-80936667D02*
X131542200Y-80984286D01*
X131542200Y-80984286D02*
X131589819Y-81079524D01*
X131589819Y-81079524D02*
X131589819Y-81270000D01*
X131589819Y-81270000D02*
X131542200Y-81365238D01*
X131542200Y-81365238D02*
X131494580Y-81412857D01*
X131494580Y-81412857D02*
X131399342Y-81460476D01*
X131399342Y-81460476D02*
X130589819Y-81460476D01*
X131542200Y-81889048D02*
X131589819Y-82031905D01*
X131589819Y-82031905D02*
X131589819Y-82270000D01*
X131589819Y-82270000D02*
X131542200Y-82365238D01*
X131542200Y-82365238D02*
X131494580Y-82412857D01*
X131494580Y-82412857D02*
X131399342Y-82460476D01*
X131399342Y-82460476D02*
X131304104Y-82460476D01*
X131304104Y-82460476D02*
X131208866Y-82412857D01*
X131208866Y-82412857D02*
X131161247Y-82365238D01*
X131161247Y-82365238D02*
X131113628Y-82270000D01*
X131113628Y-82270000D02*
X131066009Y-82079524D01*
X131066009Y-82079524D02*
X131018390Y-81984286D01*
X131018390Y-81984286D02*
X130970771Y-81936667D01*
X130970771Y-81936667D02*
X130875533Y-81889048D01*
X130875533Y-81889048D02*
X130780295Y-81889048D01*
X130780295Y-81889048D02*
X130685057Y-81936667D01*
X130685057Y-81936667D02*
X130637438Y-81984286D01*
X130637438Y-81984286D02*
X130589819Y-82079524D01*
X130589819Y-82079524D02*
X130589819Y-82317619D01*
X130589819Y-82317619D02*
X130637438Y-82460476D01*
X131066009Y-83222381D02*
X131113628Y-83365238D01*
X131113628Y-83365238D02*
X131161247Y-83412857D01*
X131161247Y-83412857D02*
X131256485Y-83460476D01*
X131256485Y-83460476D02*
X131399342Y-83460476D01*
X131399342Y-83460476D02*
X131494580Y-83412857D01*
X131494580Y-83412857D02*
X131542200Y-83365238D01*
X131542200Y-83365238D02*
X131589819Y-83270000D01*
X131589819Y-83270000D02*
X131589819Y-82889048D01*
X131589819Y-82889048D02*
X130589819Y-82889048D01*
X130589819Y-82889048D02*
X130589819Y-83222381D01*
X130589819Y-83222381D02*
X130637438Y-83317619D01*
X130637438Y-83317619D02*
X130685057Y-83365238D01*
X130685057Y-83365238D02*
X130780295Y-83412857D01*
X130780295Y-83412857D02*
X130875533Y-83412857D01*
X130875533Y-83412857D02*
X130970771Y-83365238D01*
X130970771Y-83365238D02*
X131018390Y-83317619D01*
X131018390Y-83317619D02*
X131066009Y-83222381D01*
X131066009Y-83222381D02*
X131066009Y-82889048D01*
X131208866Y-83889048D02*
X131208866Y-84650953D01*
X131494580Y-85698571D02*
X131542200Y-85650952D01*
X131542200Y-85650952D02*
X131589819Y-85508095D01*
X131589819Y-85508095D02*
X131589819Y-85412857D01*
X131589819Y-85412857D02*
X131542200Y-85270000D01*
X131542200Y-85270000D02*
X131446961Y-85174762D01*
X131446961Y-85174762D02*
X131351723Y-85127143D01*
X131351723Y-85127143D02*
X131161247Y-85079524D01*
X131161247Y-85079524D02*
X131018390Y-85079524D01*
X131018390Y-85079524D02*
X130827914Y-85127143D01*
X130827914Y-85127143D02*
X130732676Y-85174762D01*
X130732676Y-85174762D02*
X130637438Y-85270000D01*
X130637438Y-85270000D02*
X130589819Y-85412857D01*
X130589819Y-85412857D02*
X130589819Y-85508095D01*
X130589819Y-85508095D02*
X130637438Y-85650952D01*
X130637438Y-85650952D02*
X130685057Y-85698571D01*
X174122744Y-106804819D02*
X173932268Y-106804819D01*
X173932268Y-106804819D02*
X173837030Y-106852438D01*
X173837030Y-106852438D02*
X173741792Y-106947676D01*
X173741792Y-106947676D02*
X173694173Y-107138152D01*
X173694173Y-107138152D02*
X173694173Y-107471485D01*
X173694173Y-107471485D02*
X173741792Y-107661961D01*
X173741792Y-107661961D02*
X173837030Y-107757200D01*
X173837030Y-107757200D02*
X173932268Y-107804819D01*
X173932268Y-107804819D02*
X174122744Y-107804819D01*
X174122744Y-107804819D02*
X174217982Y-107757200D01*
X174217982Y-107757200D02*
X174313220Y-107661961D01*
X174313220Y-107661961D02*
X174360839Y-107471485D01*
X174360839Y-107471485D02*
X174360839Y-107138152D01*
X174360839Y-107138152D02*
X174313220Y-106947676D01*
X174313220Y-106947676D02*
X174217982Y-106852438D01*
X174217982Y-106852438D02*
X174122744Y-106804819D01*
X173265601Y-107138152D02*
X173265601Y-108138152D01*
X173265601Y-107185771D02*
X173170363Y-107138152D01*
X173170363Y-107138152D02*
X172979887Y-107138152D01*
X172979887Y-107138152D02*
X172884649Y-107185771D01*
X172884649Y-107185771D02*
X172837030Y-107233390D01*
X172837030Y-107233390D02*
X172789411Y-107328628D01*
X172789411Y-107328628D02*
X172789411Y-107614342D01*
X172789411Y-107614342D02*
X172837030Y-107709580D01*
X172837030Y-107709580D02*
X172884649Y-107757200D01*
X172884649Y-107757200D02*
X172979887Y-107804819D01*
X172979887Y-107804819D02*
X173170363Y-107804819D01*
X173170363Y-107804819D02*
X173265601Y-107757200D01*
X171979887Y-107757200D02*
X172075125Y-107804819D01*
X172075125Y-107804819D02*
X172265601Y-107804819D01*
X172265601Y-107804819D02*
X172360839Y-107757200D01*
X172360839Y-107757200D02*
X172408458Y-107661961D01*
X172408458Y-107661961D02*
X172408458Y-107281009D01*
X172408458Y-107281009D02*
X172360839Y-107185771D01*
X172360839Y-107185771D02*
X172265601Y-107138152D01*
X172265601Y-107138152D02*
X172075125Y-107138152D01*
X172075125Y-107138152D02*
X171979887Y-107185771D01*
X171979887Y-107185771D02*
X171932268Y-107281009D01*
X171932268Y-107281009D02*
X171932268Y-107376247D01*
X171932268Y-107376247D02*
X172408458Y-107471485D01*
X171503696Y-107138152D02*
X171503696Y-107804819D01*
X171503696Y-107233390D02*
X171456077Y-107185771D01*
X171456077Y-107185771D02*
X171360839Y-107138152D01*
X171360839Y-107138152D02*
X171217982Y-107138152D01*
X171217982Y-107138152D02*
X171122744Y-107185771D01*
X171122744Y-107185771D02*
X171075125Y-107281009D01*
X171075125Y-107281009D02*
X171075125Y-107804819D01*
X170646553Y-107757200D02*
X170503696Y-107804819D01*
X170503696Y-107804819D02*
X170265601Y-107804819D01*
X170265601Y-107804819D02*
X170170363Y-107757200D01*
X170170363Y-107757200D02*
X170122744Y-107709580D01*
X170122744Y-107709580D02*
X170075125Y-107614342D01*
X170075125Y-107614342D02*
X170075125Y-107519104D01*
X170075125Y-107519104D02*
X170122744Y-107423866D01*
X170122744Y-107423866D02*
X170170363Y-107376247D01*
X170170363Y-107376247D02*
X170265601Y-107328628D01*
X170265601Y-107328628D02*
X170456077Y-107281009D01*
X170456077Y-107281009D02*
X170551315Y-107233390D01*
X170551315Y-107233390D02*
X170598934Y-107185771D01*
X170598934Y-107185771D02*
X170646553Y-107090533D01*
X170646553Y-107090533D02*
X170646553Y-106995295D01*
X170646553Y-106995295D02*
X170598934Y-106900057D01*
X170598934Y-106900057D02*
X170551315Y-106852438D01*
X170551315Y-106852438D02*
X170456077Y-106804819D01*
X170456077Y-106804819D02*
X170217982Y-106804819D01*
X170217982Y-106804819D02*
X170075125Y-106852438D01*
X169265601Y-107757200D02*
X169360839Y-107804819D01*
X169360839Y-107804819D02*
X169551315Y-107804819D01*
X169551315Y-107804819D02*
X169646553Y-107757200D01*
X169646553Y-107757200D02*
X169694172Y-107661961D01*
X169694172Y-107661961D02*
X169694172Y-107281009D01*
X169694172Y-107281009D02*
X169646553Y-107185771D01*
X169646553Y-107185771D02*
X169551315Y-107138152D01*
X169551315Y-107138152D02*
X169360839Y-107138152D01*
X169360839Y-107138152D02*
X169265601Y-107185771D01*
X169265601Y-107185771D02*
X169217982Y-107281009D01*
X169217982Y-107281009D02*
X169217982Y-107376247D01*
X169217982Y-107376247D02*
X169694172Y-107471485D01*
X168789410Y-107804819D02*
X168789410Y-107138152D01*
X168789410Y-107328628D02*
X168741791Y-107233390D01*
X168741791Y-107233390D02*
X168694172Y-107185771D01*
X168694172Y-107185771D02*
X168598934Y-107138152D01*
X168598934Y-107138152D02*
X168503696Y-107138152D01*
X168265600Y-107138152D02*
X168027505Y-107804819D01*
X168027505Y-107804819D02*
X167789410Y-107138152D01*
X167265600Y-107804819D02*
X167360838Y-107757200D01*
X167360838Y-107757200D02*
X167408457Y-107709580D01*
X167408457Y-107709580D02*
X167456076Y-107614342D01*
X167456076Y-107614342D02*
X167456076Y-107328628D01*
X167456076Y-107328628D02*
X167408457Y-107233390D01*
X167408457Y-107233390D02*
X167360838Y-107185771D01*
X167360838Y-107185771D02*
X167265600Y-107138152D01*
X167265600Y-107138152D02*
X167122743Y-107138152D01*
X167122743Y-107138152D02*
X167027505Y-107185771D01*
X167027505Y-107185771D02*
X166979886Y-107233390D01*
X166979886Y-107233390D02*
X166932267Y-107328628D01*
X166932267Y-107328628D02*
X166932267Y-107614342D01*
X166932267Y-107614342D02*
X166979886Y-107709580D01*
X166979886Y-107709580D02*
X167027505Y-107757200D01*
X167027505Y-107757200D02*
X167122743Y-107804819D01*
X167122743Y-107804819D02*
X167265600Y-107804819D01*
X165932267Y-107709580D02*
X165979886Y-107757200D01*
X165979886Y-107757200D02*
X166122743Y-107804819D01*
X166122743Y-107804819D02*
X166217981Y-107804819D01*
X166217981Y-107804819D02*
X166360838Y-107757200D01*
X166360838Y-107757200D02*
X166456076Y-107661961D01*
X166456076Y-107661961D02*
X166503695Y-107566723D01*
X166503695Y-107566723D02*
X166551314Y-107376247D01*
X166551314Y-107376247D02*
X166551314Y-107233390D01*
X166551314Y-107233390D02*
X166503695Y-107042914D01*
X166503695Y-107042914D02*
X166456076Y-106947676D01*
X166456076Y-106947676D02*
X166360838Y-106852438D01*
X166360838Y-106852438D02*
X166217981Y-106804819D01*
X166217981Y-106804819D02*
X166122743Y-106804819D01*
X166122743Y-106804819D02*
X165979886Y-106852438D01*
X165979886Y-106852438D02*
X165932267Y-106900057D01*
X165360838Y-107804819D02*
X165456076Y-107757200D01*
X165456076Y-107757200D02*
X165503695Y-107709580D01*
X165503695Y-107709580D02*
X165551314Y-107614342D01*
X165551314Y-107614342D02*
X165551314Y-107328628D01*
X165551314Y-107328628D02*
X165503695Y-107233390D01*
X165503695Y-107233390D02*
X165456076Y-107185771D01*
X165456076Y-107185771D02*
X165360838Y-107138152D01*
X165360838Y-107138152D02*
X165217981Y-107138152D01*
X165217981Y-107138152D02*
X165122743Y-107185771D01*
X165122743Y-107185771D02*
X165075124Y-107233390D01*
X165075124Y-107233390D02*
X165027505Y-107328628D01*
X165027505Y-107328628D02*
X165027505Y-107614342D01*
X165027505Y-107614342D02*
X165075124Y-107709580D01*
X165075124Y-107709580D02*
X165122743Y-107757200D01*
X165122743Y-107757200D02*
X165217981Y-107804819D01*
X165217981Y-107804819D02*
X165360838Y-107804819D01*
X164598933Y-107804819D02*
X164598933Y-107138152D01*
X164598933Y-107328628D02*
X164551314Y-107233390D01*
X164551314Y-107233390D02*
X164503695Y-107185771D01*
X164503695Y-107185771D02*
X164408457Y-107138152D01*
X164408457Y-107138152D02*
X164313219Y-107138152D01*
X163598933Y-107757200D02*
X163694171Y-107804819D01*
X163694171Y-107804819D02*
X163884647Y-107804819D01*
X163884647Y-107804819D02*
X163979885Y-107757200D01*
X163979885Y-107757200D02*
X164027504Y-107661961D01*
X164027504Y-107661961D02*
X164027504Y-107281009D01*
X164027504Y-107281009D02*
X163979885Y-107185771D01*
X163979885Y-107185771D02*
X163884647Y-107138152D01*
X163884647Y-107138152D02*
X163694171Y-107138152D01*
X163694171Y-107138152D02*
X163598933Y-107185771D01*
X163598933Y-107185771D02*
X163551314Y-107281009D01*
X163551314Y-107281009D02*
X163551314Y-107376247D01*
X163551314Y-107376247D02*
X164027504Y-107471485D01*
X179410180Y-100678571D02*
X178695895Y-100678571D01*
X178695895Y-100678571D02*
X178553038Y-100726190D01*
X178553038Y-100726190D02*
X178457800Y-100821428D01*
X178457800Y-100821428D02*
X178410180Y-100964285D01*
X178410180Y-100964285D02*
X178410180Y-101059523D01*
X178457800Y-100249999D02*
X178410180Y-100107142D01*
X178410180Y-100107142D02*
X178410180Y-99869047D01*
X178410180Y-99869047D02*
X178457800Y-99773809D01*
X178457800Y-99773809D02*
X178505419Y-99726190D01*
X178505419Y-99726190D02*
X178600657Y-99678571D01*
X178600657Y-99678571D02*
X178695895Y-99678571D01*
X178695895Y-99678571D02*
X178791133Y-99726190D01*
X178791133Y-99726190D02*
X178838752Y-99773809D01*
X178838752Y-99773809D02*
X178886371Y-99869047D01*
X178886371Y-99869047D02*
X178933990Y-100059523D01*
X178933990Y-100059523D02*
X178981609Y-100154761D01*
X178981609Y-100154761D02*
X179029228Y-100202380D01*
X179029228Y-100202380D02*
X179124466Y-100249999D01*
X179124466Y-100249999D02*
X179219704Y-100249999D01*
X179219704Y-100249999D02*
X179314942Y-100202380D01*
X179314942Y-100202380D02*
X179362561Y-100154761D01*
X179362561Y-100154761D02*
X179410180Y-100059523D01*
X179410180Y-100059523D02*
X179410180Y-99821428D01*
X179410180Y-99821428D02*
X179362561Y-99678571D01*
X179410180Y-99392856D02*
X179410180Y-98821428D01*
X178410180Y-99107142D02*
X179410180Y-99107142D01*
X178791133Y-98488094D02*
X178791133Y-97726190D01*
X179410180Y-97345237D02*
X179410180Y-96678571D01*
X179410180Y-96678571D02*
X178410180Y-97345237D01*
X178410180Y-97345237D02*
X178410180Y-96678571D01*
X178410180Y-96297618D02*
X179410180Y-96297618D01*
X178933990Y-96297618D02*
X178933990Y-95726190D01*
X178410180Y-95726190D02*
X179410180Y-95726190D01*
X178791133Y-95249999D02*
X178791133Y-94488095D01*
X179076847Y-93583333D02*
X178410180Y-93583333D01*
X179457800Y-93821428D02*
X178743514Y-94059523D01*
X178743514Y-94059523D02*
X178743514Y-93440476D01*
X178410180Y-93059523D02*
X179410180Y-93059523D01*
X179410180Y-93059523D02*
X179410180Y-92678571D01*
X179410180Y-92678571D02*
X179362561Y-92583333D01*
X179362561Y-92583333D02*
X179314942Y-92535714D01*
X179314942Y-92535714D02*
X179219704Y-92488095D01*
X179219704Y-92488095D02*
X179076847Y-92488095D01*
X179076847Y-92488095D02*
X178981609Y-92535714D01*
X178981609Y-92535714D02*
X178933990Y-92583333D01*
X178933990Y-92583333D02*
X178886371Y-92678571D01*
X178886371Y-92678571D02*
X178886371Y-93059523D01*
X166129887Y-69196289D02*
X165987030Y-69243908D01*
X165987030Y-69243908D02*
X165939411Y-69291527D01*
X165939411Y-69291527D02*
X165891792Y-69386765D01*
X165891792Y-69386765D02*
X165891792Y-69529622D01*
X165891792Y-69529622D02*
X165939411Y-69624860D01*
X165939411Y-69624860D02*
X165987030Y-69672480D01*
X165987030Y-69672480D02*
X166082268Y-69720099D01*
X166082268Y-69720099D02*
X166463220Y-69720099D01*
X166463220Y-69720099D02*
X166463220Y-68720099D01*
X166463220Y-68720099D02*
X166129887Y-68720099D01*
X166129887Y-68720099D02*
X166034649Y-68767718D01*
X166034649Y-68767718D02*
X165987030Y-68815337D01*
X165987030Y-68815337D02*
X165939411Y-68910575D01*
X165939411Y-68910575D02*
X165939411Y-69005813D01*
X165939411Y-69005813D02*
X165987030Y-69101051D01*
X165987030Y-69101051D02*
X166034649Y-69148670D01*
X166034649Y-69148670D02*
X166129887Y-69196289D01*
X166129887Y-69196289D02*
X166463220Y-69196289D01*
X164891792Y-69720099D02*
X165225125Y-69243908D01*
X165463220Y-69720099D02*
X165463220Y-68720099D01*
X165463220Y-68720099D02*
X165082268Y-68720099D01*
X165082268Y-68720099D02*
X164987030Y-68767718D01*
X164987030Y-68767718D02*
X164939411Y-68815337D01*
X164939411Y-68815337D02*
X164891792Y-68910575D01*
X164891792Y-68910575D02*
X164891792Y-69053432D01*
X164891792Y-69053432D02*
X164939411Y-69148670D01*
X164939411Y-69148670D02*
X164987030Y-69196289D01*
X164987030Y-69196289D02*
X165082268Y-69243908D01*
X165082268Y-69243908D02*
X165463220Y-69243908D01*
X164463220Y-69720099D02*
X164463220Y-68720099D01*
X164463220Y-68720099D02*
X164225125Y-68720099D01*
X164225125Y-68720099D02*
X164082268Y-68767718D01*
X164082268Y-68767718D02*
X163987030Y-68862956D01*
X163987030Y-68862956D02*
X163939411Y-68958194D01*
X163939411Y-68958194D02*
X163891792Y-69148670D01*
X163891792Y-69148670D02*
X163891792Y-69291527D01*
X163891792Y-69291527D02*
X163939411Y-69482003D01*
X163939411Y-69482003D02*
X163987030Y-69577241D01*
X163987030Y-69577241D02*
X164082268Y-69672480D01*
X164082268Y-69672480D02*
X164225125Y-69720099D01*
X164225125Y-69720099D02*
X164463220Y-69720099D01*
X163463220Y-69624860D02*
X163415601Y-69672480D01*
X163415601Y-69672480D02*
X163463220Y-69720099D01*
X163463220Y-69720099D02*
X163510839Y-69672480D01*
X163510839Y-69672480D02*
X163463220Y-69624860D01*
X163463220Y-69624860D02*
X163463220Y-69720099D01*
X163463220Y-69101051D02*
X163415601Y-69148670D01*
X163415601Y-69148670D02*
X163463220Y-69196289D01*
X163463220Y-69196289D02*
X163510839Y-69148670D01*
X163510839Y-69148670D02*
X163463220Y-69101051D01*
X163463220Y-69101051D02*
X163463220Y-69196289D01*
X162272744Y-69672480D02*
X162177506Y-69720099D01*
X162177506Y-69720099D02*
X161987030Y-69720099D01*
X161987030Y-69720099D02*
X161891792Y-69672480D01*
X161891792Y-69672480D02*
X161844173Y-69577241D01*
X161844173Y-69577241D02*
X161844173Y-69529622D01*
X161844173Y-69529622D02*
X161891792Y-69434384D01*
X161891792Y-69434384D02*
X161987030Y-69386765D01*
X161987030Y-69386765D02*
X162129887Y-69386765D01*
X162129887Y-69386765D02*
X162225125Y-69339146D01*
X162225125Y-69339146D02*
X162272744Y-69243908D01*
X162272744Y-69243908D02*
X162272744Y-69196289D01*
X162272744Y-69196289D02*
X162225125Y-69101051D01*
X162225125Y-69101051D02*
X162129887Y-69053432D01*
X162129887Y-69053432D02*
X161987030Y-69053432D01*
X161987030Y-69053432D02*
X161891792Y-69101051D01*
X161034649Y-69672480D02*
X161129887Y-69720099D01*
X161129887Y-69720099D02*
X161320363Y-69720099D01*
X161320363Y-69720099D02*
X161415601Y-69672480D01*
X161415601Y-69672480D02*
X161463220Y-69577241D01*
X161463220Y-69577241D02*
X161463220Y-69196289D01*
X161463220Y-69196289D02*
X161415601Y-69101051D01*
X161415601Y-69101051D02*
X161320363Y-69053432D01*
X161320363Y-69053432D02*
X161129887Y-69053432D01*
X161129887Y-69053432D02*
X161034649Y-69101051D01*
X161034649Y-69101051D02*
X160987030Y-69196289D01*
X160987030Y-69196289D02*
X160987030Y-69291527D01*
X160987030Y-69291527D02*
X161463220Y-69386765D01*
X160558458Y-69720099D02*
X160558458Y-69053432D01*
X160558458Y-69243908D02*
X160510839Y-69148670D01*
X160510839Y-69148670D02*
X160463220Y-69101051D01*
X160463220Y-69101051D02*
X160367982Y-69053432D01*
X160367982Y-69053432D02*
X160272744Y-69053432D01*
X160034648Y-69053432D02*
X159796553Y-69720099D01*
X159796553Y-69720099D02*
X159558458Y-69053432D01*
X159034648Y-69720099D02*
X159129886Y-69672480D01*
X159129886Y-69672480D02*
X159177505Y-69624860D01*
X159177505Y-69624860D02*
X159225124Y-69529622D01*
X159225124Y-69529622D02*
X159225124Y-69243908D01*
X159225124Y-69243908D02*
X159177505Y-69148670D01*
X159177505Y-69148670D02*
X159129886Y-69101051D01*
X159129886Y-69101051D02*
X159034648Y-69053432D01*
X159034648Y-69053432D02*
X158891791Y-69053432D01*
X158891791Y-69053432D02*
X158796553Y-69101051D01*
X158796553Y-69101051D02*
X158748934Y-69148670D01*
X158748934Y-69148670D02*
X158701315Y-69243908D01*
X158701315Y-69243908D02*
X158701315Y-69529622D01*
X158701315Y-69529622D02*
X158748934Y-69624860D01*
X158748934Y-69624860D02*
X158796553Y-69672480D01*
X158796553Y-69672480D02*
X158891791Y-69720099D01*
X158891791Y-69720099D02*
X159034648Y-69720099D01*
X158272743Y-69339146D02*
X157510839Y-69339146D01*
X156606077Y-69720099D02*
X156606077Y-68720099D01*
X156606077Y-69672480D02*
X156701315Y-69720099D01*
X156701315Y-69720099D02*
X156891791Y-69720099D01*
X156891791Y-69720099D02*
X156987029Y-69672480D01*
X156987029Y-69672480D02*
X157034648Y-69624860D01*
X157034648Y-69624860D02*
X157082267Y-69529622D01*
X157082267Y-69529622D02*
X157082267Y-69243908D01*
X157082267Y-69243908D02*
X157034648Y-69148670D01*
X157034648Y-69148670D02*
X156987029Y-69101051D01*
X156987029Y-69101051D02*
X156891791Y-69053432D01*
X156891791Y-69053432D02*
X156701315Y-69053432D01*
X156701315Y-69053432D02*
X156606077Y-69101051D01*
X155748934Y-69672480D02*
X155844172Y-69720099D01*
X155844172Y-69720099D02*
X156034648Y-69720099D01*
X156034648Y-69720099D02*
X156129886Y-69672480D01*
X156129886Y-69672480D02*
X156177505Y-69577241D01*
X156177505Y-69577241D02*
X156177505Y-69196289D01*
X156177505Y-69196289D02*
X156129886Y-69101051D01*
X156129886Y-69101051D02*
X156034648Y-69053432D01*
X156034648Y-69053432D02*
X155844172Y-69053432D01*
X155844172Y-69053432D02*
X155748934Y-69101051D01*
X155748934Y-69101051D02*
X155701315Y-69196289D01*
X155701315Y-69196289D02*
X155701315Y-69291527D01*
X155701315Y-69291527D02*
X156177505Y-69386765D01*
X155367981Y-69053432D02*
X155129886Y-69720099D01*
X155129886Y-69720099D02*
X154891791Y-69053432D01*
X154510838Y-69339146D02*
X153748934Y-69339146D01*
X153272743Y-69720099D02*
X153272743Y-68720099D01*
X153272743Y-69101051D02*
X153177505Y-69053432D01*
X153177505Y-69053432D02*
X152987029Y-69053432D01*
X152987029Y-69053432D02*
X152891791Y-69101051D01*
X152891791Y-69101051D02*
X152844172Y-69148670D01*
X152844172Y-69148670D02*
X152796553Y-69243908D01*
X152796553Y-69243908D02*
X152796553Y-69529622D01*
X152796553Y-69529622D02*
X152844172Y-69624860D01*
X152844172Y-69624860D02*
X152891791Y-69672480D01*
X152891791Y-69672480D02*
X152987029Y-69720099D01*
X152987029Y-69720099D02*
X153177505Y-69720099D01*
X153177505Y-69720099D02*
X153272743Y-69672480D01*
X152225124Y-69720099D02*
X152320362Y-69672480D01*
X152320362Y-69672480D02*
X152367981Y-69624860D01*
X152367981Y-69624860D02*
X152415600Y-69529622D01*
X152415600Y-69529622D02*
X152415600Y-69243908D01*
X152415600Y-69243908D02*
X152367981Y-69148670D01*
X152367981Y-69148670D02*
X152320362Y-69101051D01*
X152320362Y-69101051D02*
X152225124Y-69053432D01*
X152225124Y-69053432D02*
X152082267Y-69053432D01*
X152082267Y-69053432D02*
X151987029Y-69101051D01*
X151987029Y-69101051D02*
X151939410Y-69148670D01*
X151939410Y-69148670D02*
X151891791Y-69243908D01*
X151891791Y-69243908D02*
X151891791Y-69529622D01*
X151891791Y-69529622D02*
X151939410Y-69624860D01*
X151939410Y-69624860D02*
X151987029Y-69672480D01*
X151987029Y-69672480D02*
X152082267Y-69720099D01*
X152082267Y-69720099D02*
X152225124Y-69720099D01*
X151034648Y-69720099D02*
X151034648Y-69196289D01*
X151034648Y-69196289D02*
X151082267Y-69101051D01*
X151082267Y-69101051D02*
X151177505Y-69053432D01*
X151177505Y-69053432D02*
X151367981Y-69053432D01*
X151367981Y-69053432D02*
X151463219Y-69101051D01*
X151034648Y-69672480D02*
X151129886Y-69720099D01*
X151129886Y-69720099D02*
X151367981Y-69720099D01*
X151367981Y-69720099D02*
X151463219Y-69672480D01*
X151463219Y-69672480D02*
X151510838Y-69577241D01*
X151510838Y-69577241D02*
X151510838Y-69482003D01*
X151510838Y-69482003D02*
X151463219Y-69386765D01*
X151463219Y-69386765D02*
X151367981Y-69339146D01*
X151367981Y-69339146D02*
X151129886Y-69339146D01*
X151129886Y-69339146D02*
X151034648Y-69291527D01*
X150558457Y-69720099D02*
X150558457Y-69053432D01*
X150558457Y-69243908D02*
X150510838Y-69148670D01*
X150510838Y-69148670D02*
X150463219Y-69101051D01*
X150463219Y-69101051D02*
X150367981Y-69053432D01*
X150367981Y-69053432D02*
X150272743Y-69053432D01*
X149510838Y-69720099D02*
X149510838Y-68720099D01*
X149510838Y-69672480D02*
X149606076Y-69720099D01*
X149606076Y-69720099D02*
X149796552Y-69720099D01*
X149796552Y-69720099D02*
X149891790Y-69672480D01*
X149891790Y-69672480D02*
X149939409Y-69624860D01*
X149939409Y-69624860D02*
X149987028Y-69529622D01*
X149987028Y-69529622D02*
X149987028Y-69243908D01*
X149987028Y-69243908D02*
X149939409Y-69148670D01*
X149939409Y-69148670D02*
X149891790Y-69101051D01*
X149891790Y-69101051D02*
X149796552Y-69053432D01*
X149796552Y-69053432D02*
X149606076Y-69053432D01*
X149606076Y-69053432D02*
X149510838Y-69101051D01*
X149034647Y-69339146D02*
X148272743Y-69339146D01*
X147367981Y-69672480D02*
X147463219Y-69720099D01*
X147463219Y-69720099D02*
X147653695Y-69720099D01*
X147653695Y-69720099D02*
X147748933Y-69672480D01*
X147748933Y-69672480D02*
X147796552Y-69624860D01*
X147796552Y-69624860D02*
X147844171Y-69529622D01*
X147844171Y-69529622D02*
X147844171Y-69243908D01*
X147844171Y-69243908D02*
X147796552Y-69148670D01*
X147796552Y-69148670D02*
X147748933Y-69101051D01*
X147748933Y-69101051D02*
X147653695Y-69053432D01*
X147653695Y-69053432D02*
X147463219Y-69053432D01*
X147463219Y-69053432D02*
X147367981Y-69101051D01*
X146939409Y-69720099D02*
X146939409Y-68720099D01*
X146510838Y-69720099D02*
X146510838Y-69196289D01*
X146510838Y-69196289D02*
X146558457Y-69101051D01*
X146558457Y-69101051D02*
X146653695Y-69053432D01*
X146653695Y-69053432D02*
X146796552Y-69053432D01*
X146796552Y-69053432D02*
X146891790Y-69101051D01*
X146891790Y-69101051D02*
X146939409Y-69148670D01*
X146129885Y-68720099D02*
X145510838Y-68720099D01*
X145510838Y-68720099D02*
X145844171Y-69101051D01*
X145844171Y-69101051D02*
X145701314Y-69101051D01*
X145701314Y-69101051D02*
X145606076Y-69148670D01*
X145606076Y-69148670D02*
X145558457Y-69196289D01*
X145558457Y-69196289D02*
X145510838Y-69291527D01*
X145510838Y-69291527D02*
X145510838Y-69529622D01*
X145510838Y-69529622D02*
X145558457Y-69624860D01*
X145558457Y-69624860D02*
X145606076Y-69672480D01*
X145606076Y-69672480D02*
X145701314Y-69720099D01*
X145701314Y-69720099D02*
X145987028Y-69720099D01*
X145987028Y-69720099D02*
X146082266Y-69672480D01*
X146082266Y-69672480D02*
X146129885Y-69624860D01*
X145129885Y-68815337D02*
X145082266Y-68767718D01*
X145082266Y-68767718D02*
X144987028Y-68720099D01*
X144987028Y-68720099D02*
X144748933Y-68720099D01*
X144748933Y-68720099D02*
X144653695Y-68767718D01*
X144653695Y-68767718D02*
X144606076Y-68815337D01*
X144606076Y-68815337D02*
X144558457Y-68910575D01*
X144558457Y-68910575D02*
X144558457Y-69005813D01*
X144558457Y-69005813D02*
X144606076Y-69148670D01*
X144606076Y-69148670D02*
X145177504Y-69720099D01*
X145177504Y-69720099D02*
X144558457Y-69720099D01*
X144225123Y-69053432D02*
X143987028Y-69720099D01*
X143987028Y-69720099D02*
X143748933Y-69053432D01*
X143177504Y-68720099D02*
X143082266Y-68720099D01*
X143082266Y-68720099D02*
X142987028Y-68767718D01*
X142987028Y-68767718D02*
X142939409Y-68815337D01*
X142939409Y-68815337D02*
X142891790Y-68910575D01*
X142891790Y-68910575D02*
X142844171Y-69101051D01*
X142844171Y-69101051D02*
X142844171Y-69339146D01*
X142844171Y-69339146D02*
X142891790Y-69529622D01*
X142891790Y-69529622D02*
X142939409Y-69624860D01*
X142939409Y-69624860D02*
X142987028Y-69672480D01*
X142987028Y-69672480D02*
X143082266Y-69720099D01*
X143082266Y-69720099D02*
X143177504Y-69720099D01*
X143177504Y-69720099D02*
X143272742Y-69672480D01*
X143272742Y-69672480D02*
X143320361Y-69624860D01*
X143320361Y-69624860D02*
X143367980Y-69529622D01*
X143367980Y-69529622D02*
X143415599Y-69339146D01*
X143415599Y-69339146D02*
X143415599Y-69101051D01*
X143415599Y-69101051D02*
X143367980Y-68910575D01*
X143367980Y-68910575D02*
X143320361Y-68815337D01*
X143320361Y-68815337D02*
X143272742Y-68767718D01*
X143272742Y-68767718D02*
X143177504Y-68720099D01*
X142225123Y-68720099D02*
X142129885Y-68720099D01*
X142129885Y-68720099D02*
X142034647Y-68767718D01*
X142034647Y-68767718D02*
X141987028Y-68815337D01*
X141987028Y-68815337D02*
X141939409Y-68910575D01*
X141939409Y-68910575D02*
X141891790Y-69101051D01*
X141891790Y-69101051D02*
X141891790Y-69339146D01*
X141891790Y-69339146D02*
X141939409Y-69529622D01*
X141939409Y-69529622D02*
X141987028Y-69624860D01*
X141987028Y-69624860D02*
X142034647Y-69672480D01*
X142034647Y-69672480D02*
X142129885Y-69720099D01*
X142129885Y-69720099D02*
X142225123Y-69720099D01*
X142225123Y-69720099D02*
X142320361Y-69672480D01*
X142320361Y-69672480D02*
X142367980Y-69624860D01*
X142367980Y-69624860D02*
X142415599Y-69529622D01*
X142415599Y-69529622D02*
X142463218Y-69339146D01*
X142463218Y-69339146D02*
X142463218Y-69101051D01*
X142463218Y-69101051D02*
X142415599Y-68910575D01*
X142415599Y-68910575D02*
X142367980Y-68815337D01*
X142367980Y-68815337D02*
X142320361Y-68767718D01*
X142320361Y-68767718D02*
X142225123Y-68720099D01*
X141034647Y-68720099D02*
X141225123Y-68720099D01*
X141225123Y-68720099D02*
X141320361Y-68767718D01*
X141320361Y-68767718D02*
X141367980Y-68815337D01*
X141367980Y-68815337D02*
X141463218Y-68958194D01*
X141463218Y-68958194D02*
X141510837Y-69148670D01*
X141510837Y-69148670D02*
X141510837Y-69529622D01*
X141510837Y-69529622D02*
X141463218Y-69624860D01*
X141463218Y-69624860D02*
X141415599Y-69672480D01*
X141415599Y-69672480D02*
X141320361Y-69720099D01*
X141320361Y-69720099D02*
X141129885Y-69720099D01*
X141129885Y-69720099D02*
X141034647Y-69672480D01*
X141034647Y-69672480D02*
X140987028Y-69624860D01*
X140987028Y-69624860D02*
X140939409Y-69529622D01*
X140939409Y-69529622D02*
X140939409Y-69291527D01*
X140939409Y-69291527D02*
X140987028Y-69196289D01*
X140987028Y-69196289D02*
X141034647Y-69148670D01*
X141034647Y-69148670D02*
X141129885Y-69101051D01*
X141129885Y-69101051D02*
X141320361Y-69101051D01*
X141320361Y-69101051D02*
X141415599Y-69148670D01*
X141415599Y-69148670D02*
X141463218Y-69196289D01*
X141463218Y-69196289D02*
X141510837Y-69291527D01*
X166463220Y-71330043D02*
X166463220Y-70330043D01*
X166463220Y-70330043D02*
X166129887Y-71044328D01*
X166129887Y-71044328D02*
X165796554Y-70330043D01*
X165796554Y-70330043D02*
X165796554Y-71330043D01*
X164748935Y-71234804D02*
X164796554Y-71282424D01*
X164796554Y-71282424D02*
X164939411Y-71330043D01*
X164939411Y-71330043D02*
X165034649Y-71330043D01*
X165034649Y-71330043D02*
X165177506Y-71282424D01*
X165177506Y-71282424D02*
X165272744Y-71187185D01*
X165272744Y-71187185D02*
X165320363Y-71091947D01*
X165320363Y-71091947D02*
X165367982Y-70901471D01*
X165367982Y-70901471D02*
X165367982Y-70758614D01*
X165367982Y-70758614D02*
X165320363Y-70568138D01*
X165320363Y-70568138D02*
X165272744Y-70472900D01*
X165272744Y-70472900D02*
X165177506Y-70377662D01*
X165177506Y-70377662D02*
X165034649Y-70330043D01*
X165034649Y-70330043D02*
X164939411Y-70330043D01*
X164939411Y-70330043D02*
X164796554Y-70377662D01*
X164796554Y-70377662D02*
X164748935Y-70425281D01*
X164320363Y-70330043D02*
X164320363Y-71139566D01*
X164320363Y-71139566D02*
X164272744Y-71234804D01*
X164272744Y-71234804D02*
X164225125Y-71282424D01*
X164225125Y-71282424D02*
X164129887Y-71330043D01*
X164129887Y-71330043D02*
X163939411Y-71330043D01*
X163939411Y-71330043D02*
X163844173Y-71282424D01*
X163844173Y-71282424D02*
X163796554Y-71234804D01*
X163796554Y-71234804D02*
X163748935Y-71139566D01*
X163748935Y-71139566D02*
X163748935Y-70330043D01*
X163272744Y-71234804D02*
X163225125Y-71282424D01*
X163225125Y-71282424D02*
X163272744Y-71330043D01*
X163272744Y-71330043D02*
X163320363Y-71282424D01*
X163320363Y-71282424D02*
X163272744Y-71234804D01*
X163272744Y-71234804D02*
X163272744Y-71330043D01*
X163272744Y-70710995D02*
X163225125Y-70758614D01*
X163225125Y-70758614D02*
X163272744Y-70806233D01*
X163272744Y-70806233D02*
X163320363Y-70758614D01*
X163320363Y-70758614D02*
X163272744Y-70710995D01*
X163272744Y-70710995D02*
X163272744Y-70806233D01*
X161463221Y-71234804D02*
X161510840Y-71282424D01*
X161510840Y-71282424D02*
X161653697Y-71330043D01*
X161653697Y-71330043D02*
X161748935Y-71330043D01*
X161748935Y-71330043D02*
X161891792Y-71282424D01*
X161891792Y-71282424D02*
X161987030Y-71187185D01*
X161987030Y-71187185D02*
X162034649Y-71091947D01*
X162034649Y-71091947D02*
X162082268Y-70901471D01*
X162082268Y-70901471D02*
X162082268Y-70758614D01*
X162082268Y-70758614D02*
X162034649Y-70568138D01*
X162034649Y-70568138D02*
X161987030Y-70472900D01*
X161987030Y-70472900D02*
X161891792Y-70377662D01*
X161891792Y-70377662D02*
X161748935Y-70330043D01*
X161748935Y-70330043D02*
X161653697Y-70330043D01*
X161653697Y-70330043D02*
X161510840Y-70377662D01*
X161510840Y-70377662D02*
X161463221Y-70425281D01*
X161034649Y-71330043D02*
X161034649Y-70330043D01*
X161034649Y-70806233D02*
X160463221Y-70806233D01*
X160463221Y-71330043D02*
X160463221Y-70330043D01*
X160082268Y-70330043D02*
X159463221Y-70330043D01*
X159463221Y-70330043D02*
X159796554Y-70710995D01*
X159796554Y-70710995D02*
X159653697Y-70710995D01*
X159653697Y-70710995D02*
X159558459Y-70758614D01*
X159558459Y-70758614D02*
X159510840Y-70806233D01*
X159510840Y-70806233D02*
X159463221Y-70901471D01*
X159463221Y-70901471D02*
X159463221Y-71139566D01*
X159463221Y-71139566D02*
X159510840Y-71234804D01*
X159510840Y-71234804D02*
X159558459Y-71282424D01*
X159558459Y-71282424D02*
X159653697Y-71330043D01*
X159653697Y-71330043D02*
X159939411Y-71330043D01*
X159939411Y-71330043D02*
X160034649Y-71282424D01*
X160034649Y-71282424D02*
X160082268Y-71234804D01*
X159082268Y-70425281D02*
X159034649Y-70377662D01*
X159034649Y-70377662D02*
X158939411Y-70330043D01*
X158939411Y-70330043D02*
X158701316Y-70330043D01*
X158701316Y-70330043D02*
X158606078Y-70377662D01*
X158606078Y-70377662D02*
X158558459Y-70425281D01*
X158558459Y-70425281D02*
X158510840Y-70520519D01*
X158510840Y-70520519D02*
X158510840Y-70615757D01*
X158510840Y-70615757D02*
X158558459Y-70758614D01*
X158558459Y-70758614D02*
X159129887Y-71330043D01*
X159129887Y-71330043D02*
X158510840Y-71330043D01*
X158225125Y-70330043D02*
X157891792Y-71330043D01*
X157891792Y-71330043D02*
X157558459Y-70330043D01*
X157034649Y-70330043D02*
X156939411Y-70330043D01*
X156939411Y-70330043D02*
X156844173Y-70377662D01*
X156844173Y-70377662D02*
X156796554Y-70425281D01*
X156796554Y-70425281D02*
X156748935Y-70520519D01*
X156748935Y-70520519D02*
X156701316Y-70710995D01*
X156701316Y-70710995D02*
X156701316Y-70949090D01*
X156701316Y-70949090D02*
X156748935Y-71139566D01*
X156748935Y-71139566D02*
X156796554Y-71234804D01*
X156796554Y-71234804D02*
X156844173Y-71282424D01*
X156844173Y-71282424D02*
X156939411Y-71330043D01*
X156939411Y-71330043D02*
X157034649Y-71330043D01*
X157034649Y-71330043D02*
X157129887Y-71282424D01*
X157129887Y-71282424D02*
X157177506Y-71234804D01*
X157177506Y-71234804D02*
X157225125Y-71139566D01*
X157225125Y-71139566D02*
X157272744Y-70949090D01*
X157272744Y-70949090D02*
X157272744Y-70710995D01*
X157272744Y-70710995D02*
X157225125Y-70520519D01*
X157225125Y-70520519D02*
X157177506Y-70425281D01*
X157177506Y-70425281D02*
X157129887Y-70377662D01*
X157129887Y-70377662D02*
X157034649Y-70330043D01*
X156082268Y-70330043D02*
X155987030Y-70330043D01*
X155987030Y-70330043D02*
X155891792Y-70377662D01*
X155891792Y-70377662D02*
X155844173Y-70425281D01*
X155844173Y-70425281D02*
X155796554Y-70520519D01*
X155796554Y-70520519D02*
X155748935Y-70710995D01*
X155748935Y-70710995D02*
X155748935Y-70949090D01*
X155748935Y-70949090D02*
X155796554Y-71139566D01*
X155796554Y-71139566D02*
X155844173Y-71234804D01*
X155844173Y-71234804D02*
X155891792Y-71282424D01*
X155891792Y-71282424D02*
X155987030Y-71330043D01*
X155987030Y-71330043D02*
X156082268Y-71330043D01*
X156082268Y-71330043D02*
X156177506Y-71282424D01*
X156177506Y-71282424D02*
X156225125Y-71234804D01*
X156225125Y-71234804D02*
X156272744Y-71139566D01*
X156272744Y-71139566D02*
X156320363Y-70949090D01*
X156320363Y-70949090D02*
X156320363Y-70710995D01*
X156320363Y-70710995D02*
X156272744Y-70520519D01*
X156272744Y-70520519D02*
X156225125Y-70425281D01*
X156225125Y-70425281D02*
X156177506Y-70377662D01*
X156177506Y-70377662D02*
X156082268Y-70330043D01*
X154891792Y-70330043D02*
X155082268Y-70330043D01*
X155082268Y-70330043D02*
X155177506Y-70377662D01*
X155177506Y-70377662D02*
X155225125Y-70425281D01*
X155225125Y-70425281D02*
X155320363Y-70568138D01*
X155320363Y-70568138D02*
X155367982Y-70758614D01*
X155367982Y-70758614D02*
X155367982Y-71139566D01*
X155367982Y-71139566D02*
X155320363Y-71234804D01*
X155320363Y-71234804D02*
X155272744Y-71282424D01*
X155272744Y-71282424D02*
X155177506Y-71330043D01*
X155177506Y-71330043D02*
X154987030Y-71330043D01*
X154987030Y-71330043D02*
X154891792Y-71282424D01*
X154891792Y-71282424D02*
X154844173Y-71234804D01*
X154844173Y-71234804D02*
X154796554Y-71139566D01*
X154796554Y-71139566D02*
X154796554Y-70901471D01*
X154796554Y-70901471D02*
X154844173Y-70806233D01*
X154844173Y-70806233D02*
X154891792Y-70758614D01*
X154891792Y-70758614D02*
X154987030Y-70710995D01*
X154987030Y-70710995D02*
X155177506Y-70710995D01*
X155177506Y-70710995D02*
X155272744Y-70758614D01*
X155272744Y-70758614D02*
X155320363Y-70806233D01*
X155320363Y-70806233D02*
X155367982Y-70901471D01*
X154034649Y-70806233D02*
X154367982Y-70806233D01*
X154367982Y-71330043D02*
X154367982Y-70330043D01*
X154367982Y-70330043D02*
X153891792Y-70330043D01*
X153367982Y-70758614D02*
X153463220Y-70710995D01*
X153463220Y-70710995D02*
X153510839Y-70663376D01*
X153510839Y-70663376D02*
X153558458Y-70568138D01*
X153558458Y-70568138D02*
X153558458Y-70520519D01*
X153558458Y-70520519D02*
X153510839Y-70425281D01*
X153510839Y-70425281D02*
X153463220Y-70377662D01*
X153463220Y-70377662D02*
X153367982Y-70330043D01*
X153367982Y-70330043D02*
X153177506Y-70330043D01*
X153177506Y-70330043D02*
X153082268Y-70377662D01*
X153082268Y-70377662D02*
X153034649Y-70425281D01*
X153034649Y-70425281D02*
X152987030Y-70520519D01*
X152987030Y-70520519D02*
X152987030Y-70568138D01*
X152987030Y-70568138D02*
X153034649Y-70663376D01*
X153034649Y-70663376D02*
X153082268Y-70710995D01*
X153082268Y-70710995D02*
X153177506Y-70758614D01*
X153177506Y-70758614D02*
X153367982Y-70758614D01*
X153367982Y-70758614D02*
X153463220Y-70806233D01*
X153463220Y-70806233D02*
X153510839Y-70853852D01*
X153510839Y-70853852D02*
X153558458Y-70949090D01*
X153558458Y-70949090D02*
X153558458Y-71139566D01*
X153558458Y-71139566D02*
X153510839Y-71234804D01*
X153510839Y-71234804D02*
X153463220Y-71282424D01*
X153463220Y-71282424D02*
X153367982Y-71330043D01*
X153367982Y-71330043D02*
X153177506Y-71330043D01*
X153177506Y-71330043D02*
X153082268Y-71282424D01*
X153082268Y-71282424D02*
X153034649Y-71234804D01*
X153034649Y-71234804D02*
X152987030Y-71139566D01*
X152987030Y-71139566D02*
X152987030Y-70949090D01*
X152987030Y-70949090D02*
X153034649Y-70853852D01*
X153034649Y-70853852D02*
X153082268Y-70806233D01*
X153082268Y-70806233D02*
X153177506Y-70758614D01*
X152558458Y-70330043D02*
X152558458Y-71139566D01*
X152558458Y-71139566D02*
X152510839Y-71234804D01*
X152510839Y-71234804D02*
X152463220Y-71282424D01*
X152463220Y-71282424D02*
X152367982Y-71330043D01*
X152367982Y-71330043D02*
X152177506Y-71330043D01*
X152177506Y-71330043D02*
X152082268Y-71282424D01*
X152082268Y-71282424D02*
X152034649Y-71234804D01*
X152034649Y-71234804D02*
X151987030Y-71139566D01*
X151987030Y-71139566D02*
X151987030Y-70330043D01*
X151082268Y-70330043D02*
X151272744Y-70330043D01*
X151272744Y-70330043D02*
X151367982Y-70377662D01*
X151367982Y-70377662D02*
X151415601Y-70425281D01*
X151415601Y-70425281D02*
X151510839Y-70568138D01*
X151510839Y-70568138D02*
X151558458Y-70758614D01*
X151558458Y-70758614D02*
X151558458Y-71139566D01*
X151558458Y-71139566D02*
X151510839Y-71234804D01*
X151510839Y-71234804D02*
X151463220Y-71282424D01*
X151463220Y-71282424D02*
X151367982Y-71330043D01*
X151367982Y-71330043D02*
X151177506Y-71330043D01*
X151177506Y-71330043D02*
X151082268Y-71282424D01*
X151082268Y-71282424D02*
X151034649Y-71234804D01*
X151034649Y-71234804D02*
X150987030Y-71139566D01*
X150987030Y-71139566D02*
X150987030Y-70901471D01*
X150987030Y-70901471D02*
X151034649Y-70806233D01*
X151034649Y-70806233D02*
X151082268Y-70758614D01*
X151082268Y-70758614D02*
X151177506Y-70710995D01*
X151177506Y-70710995D02*
X151367982Y-70710995D01*
X151367982Y-70710995D02*
X151463220Y-70758614D01*
X151463220Y-70758614D02*
X151510839Y-70806233D01*
X151510839Y-70806233D02*
X151558458Y-70901471D01*
X166463220Y-72939987D02*
X166463220Y-71939987D01*
X166463220Y-71939987D02*
X166225125Y-71939987D01*
X166225125Y-71939987D02*
X166082268Y-71987606D01*
X166082268Y-71987606D02*
X165987030Y-72082844D01*
X165987030Y-72082844D02*
X165939411Y-72178082D01*
X165939411Y-72178082D02*
X165891792Y-72368558D01*
X165891792Y-72368558D02*
X165891792Y-72511415D01*
X165891792Y-72511415D02*
X165939411Y-72701891D01*
X165939411Y-72701891D02*
X165987030Y-72797129D01*
X165987030Y-72797129D02*
X166082268Y-72892368D01*
X166082268Y-72892368D02*
X166225125Y-72939987D01*
X166225125Y-72939987D02*
X166463220Y-72939987D01*
X164891792Y-72939987D02*
X165225125Y-72463796D01*
X165463220Y-72939987D02*
X165463220Y-71939987D01*
X165463220Y-71939987D02*
X165082268Y-71939987D01*
X165082268Y-71939987D02*
X164987030Y-71987606D01*
X164987030Y-71987606D02*
X164939411Y-72035225D01*
X164939411Y-72035225D02*
X164891792Y-72130463D01*
X164891792Y-72130463D02*
X164891792Y-72273320D01*
X164891792Y-72273320D02*
X164939411Y-72368558D01*
X164939411Y-72368558D02*
X164987030Y-72416177D01*
X164987030Y-72416177D02*
X165082268Y-72463796D01*
X165082268Y-72463796D02*
X165463220Y-72463796D01*
X164606077Y-71939987D02*
X164272744Y-72939987D01*
X164272744Y-72939987D02*
X163939411Y-71939987D01*
X163606077Y-72844748D02*
X163558458Y-72892368D01*
X163558458Y-72892368D02*
X163606077Y-72939987D01*
X163606077Y-72939987D02*
X163653696Y-72892368D01*
X163653696Y-72892368D02*
X163606077Y-72844748D01*
X163606077Y-72844748D02*
X163606077Y-72939987D01*
X163606077Y-72320939D02*
X163558458Y-72368558D01*
X163558458Y-72368558D02*
X163606077Y-72416177D01*
X163606077Y-72416177D02*
X163653696Y-72368558D01*
X163653696Y-72368558D02*
X163606077Y-72320939D01*
X163606077Y-72320939D02*
X163606077Y-72416177D01*
X162367982Y-72939987D02*
X162367982Y-71939987D01*
X162367982Y-71939987D02*
X162129887Y-71939987D01*
X162129887Y-71939987D02*
X161987030Y-71987606D01*
X161987030Y-71987606D02*
X161891792Y-72082844D01*
X161891792Y-72082844D02*
X161844173Y-72178082D01*
X161844173Y-72178082D02*
X161796554Y-72368558D01*
X161796554Y-72368558D02*
X161796554Y-72511415D01*
X161796554Y-72511415D02*
X161844173Y-72701891D01*
X161844173Y-72701891D02*
X161891792Y-72797129D01*
X161891792Y-72797129D02*
X161987030Y-72892368D01*
X161987030Y-72892368D02*
X162129887Y-72939987D01*
X162129887Y-72939987D02*
X162367982Y-72939987D01*
X160796554Y-72939987D02*
X161129887Y-72463796D01*
X161367982Y-72939987D02*
X161367982Y-71939987D01*
X161367982Y-71939987D02*
X160987030Y-71939987D01*
X160987030Y-71939987D02*
X160891792Y-71987606D01*
X160891792Y-71987606D02*
X160844173Y-72035225D01*
X160844173Y-72035225D02*
X160796554Y-72130463D01*
X160796554Y-72130463D02*
X160796554Y-72273320D01*
X160796554Y-72273320D02*
X160844173Y-72368558D01*
X160844173Y-72368558D02*
X160891792Y-72416177D01*
X160891792Y-72416177D02*
X160987030Y-72463796D01*
X160987030Y-72463796D02*
X161367982Y-72463796D01*
X160510839Y-71939987D02*
X160177506Y-72939987D01*
X160177506Y-72939987D02*
X159844173Y-71939987D01*
X159367982Y-72368558D02*
X159463220Y-72320939D01*
X159463220Y-72320939D02*
X159510839Y-72273320D01*
X159510839Y-72273320D02*
X159558458Y-72178082D01*
X159558458Y-72178082D02*
X159558458Y-72130463D01*
X159558458Y-72130463D02*
X159510839Y-72035225D01*
X159510839Y-72035225D02*
X159463220Y-71987606D01*
X159463220Y-71987606D02*
X159367982Y-71939987D01*
X159367982Y-71939987D02*
X159177506Y-71939987D01*
X159177506Y-71939987D02*
X159082268Y-71987606D01*
X159082268Y-71987606D02*
X159034649Y-72035225D01*
X159034649Y-72035225D02*
X158987030Y-72130463D01*
X158987030Y-72130463D02*
X158987030Y-72178082D01*
X158987030Y-72178082D02*
X159034649Y-72273320D01*
X159034649Y-72273320D02*
X159082268Y-72320939D01*
X159082268Y-72320939D02*
X159177506Y-72368558D01*
X159177506Y-72368558D02*
X159367982Y-72368558D01*
X159367982Y-72368558D02*
X159463220Y-72416177D01*
X159463220Y-72416177D02*
X159510839Y-72463796D01*
X159510839Y-72463796D02*
X159558458Y-72559034D01*
X159558458Y-72559034D02*
X159558458Y-72749510D01*
X159558458Y-72749510D02*
X159510839Y-72844748D01*
X159510839Y-72844748D02*
X159463220Y-72892368D01*
X159463220Y-72892368D02*
X159367982Y-72939987D01*
X159367982Y-72939987D02*
X159177506Y-72939987D01*
X159177506Y-72939987D02*
X159082268Y-72892368D01*
X159082268Y-72892368D02*
X159034649Y-72844748D01*
X159034649Y-72844748D02*
X158987030Y-72749510D01*
X158987030Y-72749510D02*
X158987030Y-72559034D01*
X158987030Y-72559034D02*
X159034649Y-72463796D01*
X159034649Y-72463796D02*
X159082268Y-72416177D01*
X159082268Y-72416177D02*
X159177506Y-72368558D01*
X158415601Y-72368558D02*
X158510839Y-72320939D01*
X158510839Y-72320939D02*
X158558458Y-72273320D01*
X158558458Y-72273320D02*
X158606077Y-72178082D01*
X158606077Y-72178082D02*
X158606077Y-72130463D01*
X158606077Y-72130463D02*
X158558458Y-72035225D01*
X158558458Y-72035225D02*
X158510839Y-71987606D01*
X158510839Y-71987606D02*
X158415601Y-71939987D01*
X158415601Y-71939987D02*
X158225125Y-71939987D01*
X158225125Y-71939987D02*
X158129887Y-71987606D01*
X158129887Y-71987606D02*
X158082268Y-72035225D01*
X158082268Y-72035225D02*
X158034649Y-72130463D01*
X158034649Y-72130463D02*
X158034649Y-72178082D01*
X158034649Y-72178082D02*
X158082268Y-72273320D01*
X158082268Y-72273320D02*
X158129887Y-72320939D01*
X158129887Y-72320939D02*
X158225125Y-72368558D01*
X158225125Y-72368558D02*
X158415601Y-72368558D01*
X158415601Y-72368558D02*
X158510839Y-72416177D01*
X158510839Y-72416177D02*
X158558458Y-72463796D01*
X158558458Y-72463796D02*
X158606077Y-72559034D01*
X158606077Y-72559034D02*
X158606077Y-72749510D01*
X158606077Y-72749510D02*
X158558458Y-72844748D01*
X158558458Y-72844748D02*
X158510839Y-72892368D01*
X158510839Y-72892368D02*
X158415601Y-72939987D01*
X158415601Y-72939987D02*
X158225125Y-72939987D01*
X158225125Y-72939987D02*
X158129887Y-72892368D01*
X158129887Y-72892368D02*
X158082268Y-72844748D01*
X158082268Y-72844748D02*
X158034649Y-72749510D01*
X158034649Y-72749510D02*
X158034649Y-72559034D01*
X158034649Y-72559034D02*
X158082268Y-72463796D01*
X158082268Y-72463796D02*
X158129887Y-72416177D01*
X158129887Y-72416177D02*
X158225125Y-72368558D01*
X157701315Y-71939987D02*
X157082268Y-71939987D01*
X157082268Y-71939987D02*
X157415601Y-72320939D01*
X157415601Y-72320939D02*
X157272744Y-72320939D01*
X157272744Y-72320939D02*
X157177506Y-72368558D01*
X157177506Y-72368558D02*
X157129887Y-72416177D01*
X157129887Y-72416177D02*
X157082268Y-72511415D01*
X157082268Y-72511415D02*
X157082268Y-72749510D01*
X157082268Y-72749510D02*
X157129887Y-72844748D01*
X157129887Y-72844748D02*
X157177506Y-72892368D01*
X157177506Y-72892368D02*
X157272744Y-72939987D01*
X157272744Y-72939987D02*
X157558458Y-72939987D01*
X157558458Y-72939987D02*
X157653696Y-72892368D01*
X157653696Y-72892368D02*
X157701315Y-72844748D01*
X156748934Y-71939987D02*
X156082268Y-71939987D01*
X156082268Y-71939987D02*
X156510839Y-72939987D01*
X155701315Y-72939987D02*
X155701315Y-71939987D01*
X155701315Y-71939987D02*
X155463220Y-71939987D01*
X155463220Y-71939987D02*
X155320363Y-71987606D01*
X155320363Y-71987606D02*
X155225125Y-72082844D01*
X155225125Y-72082844D02*
X155177506Y-72178082D01*
X155177506Y-72178082D02*
X155129887Y-72368558D01*
X155129887Y-72368558D02*
X155129887Y-72511415D01*
X155129887Y-72511415D02*
X155177506Y-72701891D01*
X155177506Y-72701891D02*
X155225125Y-72797129D01*
X155225125Y-72797129D02*
X155320363Y-72892368D01*
X155320363Y-72892368D02*
X155463220Y-72939987D01*
X155463220Y-72939987D02*
X155701315Y-72939987D01*
X154748934Y-72892368D02*
X154606077Y-72939987D01*
X154606077Y-72939987D02*
X154367982Y-72939987D01*
X154367982Y-72939987D02*
X154272744Y-72892368D01*
X154272744Y-72892368D02*
X154225125Y-72844748D01*
X154225125Y-72844748D02*
X154177506Y-72749510D01*
X154177506Y-72749510D02*
X154177506Y-72654272D01*
X154177506Y-72654272D02*
X154225125Y-72559034D01*
X154225125Y-72559034D02*
X154272744Y-72511415D01*
X154272744Y-72511415D02*
X154367982Y-72463796D01*
X154367982Y-72463796D02*
X154558458Y-72416177D01*
X154558458Y-72416177D02*
X154653696Y-72368558D01*
X154653696Y-72368558D02*
X154701315Y-72320939D01*
X154701315Y-72320939D02*
X154748934Y-72225701D01*
X154748934Y-72225701D02*
X154748934Y-72130463D01*
X154748934Y-72130463D02*
X154701315Y-72035225D01*
X154701315Y-72035225D02*
X154653696Y-71987606D01*
X154653696Y-71987606D02*
X154558458Y-71939987D01*
X154558458Y-71939987D02*
X154320363Y-71939987D01*
X154320363Y-71939987D02*
X154177506Y-71987606D01*
X153225125Y-71987606D02*
X153320363Y-71939987D01*
X153320363Y-71939987D02*
X153463220Y-71939987D01*
X153463220Y-71939987D02*
X153606077Y-71987606D01*
X153606077Y-71987606D02*
X153701315Y-72082844D01*
X153701315Y-72082844D02*
X153748934Y-72178082D01*
X153748934Y-72178082D02*
X153796553Y-72368558D01*
X153796553Y-72368558D02*
X153796553Y-72511415D01*
X153796553Y-72511415D02*
X153748934Y-72701891D01*
X153748934Y-72701891D02*
X153701315Y-72797129D01*
X153701315Y-72797129D02*
X153606077Y-72892368D01*
X153606077Y-72892368D02*
X153463220Y-72939987D01*
X153463220Y-72939987D02*
X153367982Y-72939987D01*
X153367982Y-72939987D02*
X153225125Y-72892368D01*
X153225125Y-72892368D02*
X153177506Y-72844748D01*
X153177506Y-72844748D02*
X153177506Y-72511415D01*
X153177506Y-72511415D02*
X153367982Y-72511415D01*
X152177506Y-72939987D02*
X152510839Y-72463796D01*
X152748934Y-72939987D02*
X152748934Y-71939987D01*
X152748934Y-71939987D02*
X152367982Y-71939987D01*
X152367982Y-71939987D02*
X152272744Y-71987606D01*
X152272744Y-71987606D02*
X152225125Y-72035225D01*
X152225125Y-72035225D02*
X152177506Y-72130463D01*
X152177506Y-72130463D02*
X152177506Y-72273320D01*
X152177506Y-72273320D02*
X152225125Y-72368558D01*
X152225125Y-72368558D02*
X152272744Y-72416177D01*
X152272744Y-72416177D02*
X152367982Y-72463796D01*
X152367982Y-72463796D02*
X152748934Y-72463796D01*
X151748934Y-72559034D02*
X150987030Y-72559034D01*
X150225125Y-71939987D02*
X150225125Y-72654272D01*
X150225125Y-72654272D02*
X150272744Y-72797129D01*
X150272744Y-72797129D02*
X150367982Y-72892368D01*
X150367982Y-72892368D02*
X150510839Y-72939987D01*
X150510839Y-72939987D02*
X150606077Y-72939987D01*
X149796553Y-72892368D02*
X149653696Y-72939987D01*
X149653696Y-72939987D02*
X149415601Y-72939987D01*
X149415601Y-72939987D02*
X149320363Y-72892368D01*
X149320363Y-72892368D02*
X149272744Y-72844748D01*
X149272744Y-72844748D02*
X149225125Y-72749510D01*
X149225125Y-72749510D02*
X149225125Y-72654272D01*
X149225125Y-72654272D02*
X149272744Y-72559034D01*
X149272744Y-72559034D02*
X149320363Y-72511415D01*
X149320363Y-72511415D02*
X149415601Y-72463796D01*
X149415601Y-72463796D02*
X149606077Y-72416177D01*
X149606077Y-72416177D02*
X149701315Y-72368558D01*
X149701315Y-72368558D02*
X149748934Y-72320939D01*
X149748934Y-72320939D02*
X149796553Y-72225701D01*
X149796553Y-72225701D02*
X149796553Y-72130463D01*
X149796553Y-72130463D02*
X149748934Y-72035225D01*
X149748934Y-72035225D02*
X149701315Y-71987606D01*
X149701315Y-71987606D02*
X149606077Y-71939987D01*
X149606077Y-71939987D02*
X149367982Y-71939987D01*
X149367982Y-71939987D02*
X149225125Y-71987606D01*
X148796553Y-72939987D02*
X148796553Y-71939987D01*
X148796553Y-71939987D02*
X148463220Y-72654272D01*
X148463220Y-72654272D02*
X148129887Y-71939987D01*
X148129887Y-71939987D02*
X148129887Y-72939987D01*
X165987030Y-74549931D02*
X166463220Y-74549931D01*
X166463220Y-74549931D02*
X166463220Y-73549931D01*
X165653696Y-74549931D02*
X165653696Y-73549931D01*
X165653696Y-73549931D02*
X165415601Y-73549931D01*
X165415601Y-73549931D02*
X165272744Y-73597550D01*
X165272744Y-73597550D02*
X165177506Y-73692788D01*
X165177506Y-73692788D02*
X165129887Y-73788026D01*
X165129887Y-73788026D02*
X165082268Y-73978502D01*
X165082268Y-73978502D02*
X165082268Y-74121359D01*
X165082268Y-74121359D02*
X165129887Y-74311835D01*
X165129887Y-74311835D02*
X165177506Y-74407073D01*
X165177506Y-74407073D02*
X165272744Y-74502312D01*
X165272744Y-74502312D02*
X165415601Y-74549931D01*
X165415601Y-74549931D02*
X165653696Y-74549931D01*
X164463220Y-73549931D02*
X164272744Y-73549931D01*
X164272744Y-73549931D02*
X164177506Y-73597550D01*
X164177506Y-73597550D02*
X164082268Y-73692788D01*
X164082268Y-73692788D02*
X164034649Y-73883264D01*
X164034649Y-73883264D02*
X164034649Y-74216597D01*
X164034649Y-74216597D02*
X164082268Y-74407073D01*
X164082268Y-74407073D02*
X164177506Y-74502312D01*
X164177506Y-74502312D02*
X164272744Y-74549931D01*
X164272744Y-74549931D02*
X164463220Y-74549931D01*
X164463220Y-74549931D02*
X164558458Y-74502312D01*
X164558458Y-74502312D02*
X164653696Y-74407073D01*
X164653696Y-74407073D02*
X164701315Y-74216597D01*
X164701315Y-74216597D02*
X164701315Y-73883264D01*
X164701315Y-73883264D02*
X164653696Y-73692788D01*
X164653696Y-73692788D02*
X164558458Y-73597550D01*
X164558458Y-73597550D02*
X164463220Y-73549931D01*
X163606077Y-74454692D02*
X163558458Y-74502312D01*
X163558458Y-74502312D02*
X163606077Y-74549931D01*
X163606077Y-74549931D02*
X163653696Y-74502312D01*
X163653696Y-74502312D02*
X163606077Y-74454692D01*
X163606077Y-74454692D02*
X163606077Y-74549931D01*
X163606077Y-73930883D02*
X163558458Y-73978502D01*
X163558458Y-73978502D02*
X163606077Y-74026121D01*
X163606077Y-74026121D02*
X163653696Y-73978502D01*
X163653696Y-73978502D02*
X163606077Y-73930883D01*
X163606077Y-73930883D02*
X163606077Y-74026121D01*
X162510839Y-73549931D02*
X161939411Y-73549931D01*
X162225125Y-74549931D02*
X162225125Y-73549931D01*
X161606077Y-74549931D02*
X161606077Y-73549931D01*
X161606077Y-73549931D02*
X161225125Y-73549931D01*
X161225125Y-73549931D02*
X161129887Y-73597550D01*
X161129887Y-73597550D02*
X161082268Y-73645169D01*
X161082268Y-73645169D02*
X161034649Y-73740407D01*
X161034649Y-73740407D02*
X161034649Y-73883264D01*
X161034649Y-73883264D02*
X161082268Y-73978502D01*
X161082268Y-73978502D02*
X161129887Y-74026121D01*
X161129887Y-74026121D02*
X161225125Y-74073740D01*
X161225125Y-74073740D02*
X161606077Y-74073740D01*
X160653696Y-74264216D02*
X160177506Y-74264216D01*
X160748934Y-74549931D02*
X160415601Y-73549931D01*
X160415601Y-73549931D02*
X160082268Y-74549931D01*
X159748934Y-74549931D02*
X159748934Y-73549931D01*
X159748934Y-73549931D02*
X159367982Y-73549931D01*
X159367982Y-73549931D02*
X159272744Y-73597550D01*
X159272744Y-73597550D02*
X159225125Y-73645169D01*
X159225125Y-73645169D02*
X159177506Y-73740407D01*
X159177506Y-73740407D02*
X159177506Y-73883264D01*
X159177506Y-73883264D02*
X159225125Y-73978502D01*
X159225125Y-73978502D02*
X159272744Y-74026121D01*
X159272744Y-74026121D02*
X159367982Y-74073740D01*
X159367982Y-74073740D02*
X159748934Y-74073740D01*
X158796553Y-73645169D02*
X158748934Y-73597550D01*
X158748934Y-73597550D02*
X158653696Y-73549931D01*
X158653696Y-73549931D02*
X158415601Y-73549931D01*
X158415601Y-73549931D02*
X158320363Y-73597550D01*
X158320363Y-73597550D02*
X158272744Y-73645169D01*
X158272744Y-73645169D02*
X158225125Y-73740407D01*
X158225125Y-73740407D02*
X158225125Y-73835645D01*
X158225125Y-73835645D02*
X158272744Y-73978502D01*
X158272744Y-73978502D02*
X158844172Y-74549931D01*
X158844172Y-74549931D02*
X158225125Y-74549931D01*
X157844172Y-73645169D02*
X157796553Y-73597550D01*
X157796553Y-73597550D02*
X157701315Y-73549931D01*
X157701315Y-73549931D02*
X157463220Y-73549931D01*
X157463220Y-73549931D02*
X157367982Y-73597550D01*
X157367982Y-73597550D02*
X157320363Y-73645169D01*
X157320363Y-73645169D02*
X157272744Y-73740407D01*
X157272744Y-73740407D02*
X157272744Y-73835645D01*
X157272744Y-73835645D02*
X157320363Y-73978502D01*
X157320363Y-73978502D02*
X157891791Y-74549931D01*
X157891791Y-74549931D02*
X157272744Y-74549931D01*
X156320363Y-74549931D02*
X156891791Y-74549931D01*
X156606077Y-74549931D02*
X156606077Y-73549931D01*
X156606077Y-73549931D02*
X156701315Y-73692788D01*
X156701315Y-73692788D02*
X156796553Y-73788026D01*
X156796553Y-73788026D02*
X156891791Y-73835645D01*
X155701315Y-73549931D02*
X155606077Y-73549931D01*
X155606077Y-73549931D02*
X155510839Y-73597550D01*
X155510839Y-73597550D02*
X155463220Y-73645169D01*
X155463220Y-73645169D02*
X155415601Y-73740407D01*
X155415601Y-73740407D02*
X155367982Y-73930883D01*
X155367982Y-73930883D02*
X155367982Y-74168978D01*
X155367982Y-74168978D02*
X155415601Y-74359454D01*
X155415601Y-74359454D02*
X155463220Y-74454692D01*
X155463220Y-74454692D02*
X155510839Y-74502312D01*
X155510839Y-74502312D02*
X155606077Y-74549931D01*
X155606077Y-74549931D02*
X155701315Y-74549931D01*
X155701315Y-74549931D02*
X155796553Y-74502312D01*
X155796553Y-74502312D02*
X155844172Y-74454692D01*
X155844172Y-74454692D02*
X155891791Y-74359454D01*
X155891791Y-74359454D02*
X155939410Y-74168978D01*
X155939410Y-74168978D02*
X155939410Y-73930883D01*
X155939410Y-73930883D02*
X155891791Y-73740407D01*
X155891791Y-73740407D02*
X155844172Y-73645169D01*
X155844172Y-73645169D02*
X155796553Y-73597550D01*
X155796553Y-73597550D02*
X155701315Y-73549931D01*
X154939410Y-74549931D02*
X154939410Y-73549931D01*
X154367982Y-74549931D02*
X154796553Y-73978502D01*
X154367982Y-73549931D02*
X154939410Y-74121359D01*
X153939410Y-74168978D02*
X153177506Y-74168978D01*
X152796553Y-73549931D02*
X152177506Y-73549931D01*
X152177506Y-73549931D02*
X152510839Y-73930883D01*
X152510839Y-73930883D02*
X152367982Y-73930883D01*
X152367982Y-73930883D02*
X152272744Y-73978502D01*
X152272744Y-73978502D02*
X152225125Y-74026121D01*
X152225125Y-74026121D02*
X152177506Y-74121359D01*
X152177506Y-74121359D02*
X152177506Y-74359454D01*
X152177506Y-74359454D02*
X152225125Y-74454692D01*
X152225125Y-74454692D02*
X152272744Y-74502312D01*
X152272744Y-74502312D02*
X152367982Y-74549931D01*
X152367982Y-74549931D02*
X152653696Y-74549931D01*
X152653696Y-74549931D02*
X152748934Y-74502312D01*
X152748934Y-74502312D02*
X152796553Y-74454692D01*
X151748934Y-74454692D02*
X151701315Y-74502312D01*
X151701315Y-74502312D02*
X151748934Y-74549931D01*
X151748934Y-74549931D02*
X151796553Y-74502312D01*
X151796553Y-74502312D02*
X151748934Y-74454692D01*
X151748934Y-74454692D02*
X151748934Y-74549931D01*
X151367982Y-73549931D02*
X150748935Y-73549931D01*
X150748935Y-73549931D02*
X151082268Y-73930883D01*
X151082268Y-73930883D02*
X150939411Y-73930883D01*
X150939411Y-73930883D02*
X150844173Y-73978502D01*
X150844173Y-73978502D02*
X150796554Y-74026121D01*
X150796554Y-74026121D02*
X150748935Y-74121359D01*
X150748935Y-74121359D02*
X150748935Y-74359454D01*
X150748935Y-74359454D02*
X150796554Y-74454692D01*
X150796554Y-74454692D02*
X150844173Y-74502312D01*
X150844173Y-74502312D02*
X150939411Y-74549931D01*
X150939411Y-74549931D02*
X151225125Y-74549931D01*
X151225125Y-74549931D02*
X151320363Y-74502312D01*
X151320363Y-74502312D02*
X151367982Y-74454692D01*
X150463220Y-73549931D02*
X149891792Y-73549931D01*
X150177506Y-74549931D02*
X150177506Y-73549931D01*
X148987030Y-74549931D02*
X149320363Y-74073740D01*
X149558458Y-74549931D02*
X149558458Y-73549931D01*
X149558458Y-73549931D02*
X149177506Y-73549931D01*
X149177506Y-73549931D02*
X149082268Y-73597550D01*
X149082268Y-73597550D02*
X149034649Y-73645169D01*
X149034649Y-73645169D02*
X148987030Y-73740407D01*
X148987030Y-73740407D02*
X148987030Y-73883264D01*
X148987030Y-73883264D02*
X149034649Y-73978502D01*
X149034649Y-73978502D02*
X149082268Y-74026121D01*
X149082268Y-74026121D02*
X149177506Y-74073740D01*
X149177506Y-74073740D02*
X149558458Y-74073740D01*
X148034649Y-73597550D02*
X148129887Y-73549931D01*
X148129887Y-73549931D02*
X148272744Y-73549931D01*
X148272744Y-73549931D02*
X148415601Y-73597550D01*
X148415601Y-73597550D02*
X148510839Y-73692788D01*
X148510839Y-73692788D02*
X148558458Y-73788026D01*
X148558458Y-73788026D02*
X148606077Y-73978502D01*
X148606077Y-73978502D02*
X148606077Y-74121359D01*
X148606077Y-74121359D02*
X148558458Y-74311835D01*
X148558458Y-74311835D02*
X148510839Y-74407073D01*
X148510839Y-74407073D02*
X148415601Y-74502312D01*
X148415601Y-74502312D02*
X148272744Y-74549931D01*
X148272744Y-74549931D02*
X148177506Y-74549931D01*
X148177506Y-74549931D02*
X148034649Y-74502312D01*
X148034649Y-74502312D02*
X147987030Y-74454692D01*
X147987030Y-74454692D02*
X147987030Y-74121359D01*
X147987030Y-74121359D02*
X148177506Y-74121359D01*
X147034649Y-74549931D02*
X147606077Y-74549931D01*
X147320363Y-74549931D02*
X147320363Y-73549931D01*
X147320363Y-73549931D02*
X147415601Y-73692788D01*
X147415601Y-73692788D02*
X147510839Y-73788026D01*
X147510839Y-73788026D02*
X147606077Y-73835645D01*
X166129887Y-75636065D02*
X165987030Y-75683684D01*
X165987030Y-75683684D02*
X165939411Y-75731303D01*
X165939411Y-75731303D02*
X165891792Y-75826541D01*
X165891792Y-75826541D02*
X165891792Y-75969398D01*
X165891792Y-75969398D02*
X165939411Y-76064636D01*
X165939411Y-76064636D02*
X165987030Y-76112256D01*
X165987030Y-76112256D02*
X166082268Y-76159875D01*
X166082268Y-76159875D02*
X166463220Y-76159875D01*
X166463220Y-76159875D02*
X166463220Y-75159875D01*
X166463220Y-75159875D02*
X166129887Y-75159875D01*
X166129887Y-75159875D02*
X166034649Y-75207494D01*
X166034649Y-75207494D02*
X165987030Y-75255113D01*
X165987030Y-75255113D02*
X165939411Y-75350351D01*
X165939411Y-75350351D02*
X165939411Y-75445589D01*
X165939411Y-75445589D02*
X165987030Y-75540827D01*
X165987030Y-75540827D02*
X166034649Y-75588446D01*
X166034649Y-75588446D02*
X166129887Y-75636065D01*
X166129887Y-75636065D02*
X166463220Y-75636065D01*
X165463220Y-75159875D02*
X165463220Y-75969398D01*
X165463220Y-75969398D02*
X165415601Y-76064636D01*
X165415601Y-76064636D02*
X165367982Y-76112256D01*
X165367982Y-76112256D02*
X165272744Y-76159875D01*
X165272744Y-76159875D02*
X165082268Y-76159875D01*
X165082268Y-76159875D02*
X164987030Y-76112256D01*
X164987030Y-76112256D02*
X164939411Y-76064636D01*
X164939411Y-76064636D02*
X164891792Y-75969398D01*
X164891792Y-75969398D02*
X164891792Y-75159875D01*
X164082268Y-75636065D02*
X164415601Y-75636065D01*
X164415601Y-76159875D02*
X164415601Y-75159875D01*
X164415601Y-75159875D02*
X163939411Y-75159875D01*
X163558458Y-76064636D02*
X163510839Y-76112256D01*
X163510839Y-76112256D02*
X163558458Y-76159875D01*
X163558458Y-76159875D02*
X163606077Y-76112256D01*
X163606077Y-76112256D02*
X163558458Y-76064636D01*
X163558458Y-76064636D02*
X163558458Y-76159875D01*
X163558458Y-75540827D02*
X163510839Y-75588446D01*
X163510839Y-75588446D02*
X163558458Y-75636065D01*
X163558458Y-75636065D02*
X163606077Y-75588446D01*
X163606077Y-75588446D02*
X163558458Y-75540827D01*
X163558458Y-75540827D02*
X163558458Y-75636065D01*
X162415601Y-75159875D02*
X161748935Y-75159875D01*
X161748935Y-75159875D02*
X162177506Y-76159875D01*
X160939411Y-75493208D02*
X160939411Y-76159875D01*
X161177506Y-75112256D02*
X161415601Y-75826541D01*
X161415601Y-75826541D02*
X160796554Y-75826541D01*
X159939411Y-76159875D02*
X160415601Y-76159875D01*
X160415601Y-76159875D02*
X160415601Y-75159875D01*
X159748934Y-75159875D02*
X159415601Y-76159875D01*
X159415601Y-76159875D02*
X159082268Y-75159875D01*
X158177506Y-76064636D02*
X158225125Y-76112256D01*
X158225125Y-76112256D02*
X158367982Y-76159875D01*
X158367982Y-76159875D02*
X158463220Y-76159875D01*
X158463220Y-76159875D02*
X158606077Y-76112256D01*
X158606077Y-76112256D02*
X158701315Y-76017017D01*
X158701315Y-76017017D02*
X158748934Y-75921779D01*
X158748934Y-75921779D02*
X158796553Y-75731303D01*
X158796553Y-75731303D02*
X158796553Y-75588446D01*
X158796553Y-75588446D02*
X158748934Y-75397970D01*
X158748934Y-75397970D02*
X158701315Y-75302732D01*
X158701315Y-75302732D02*
X158606077Y-75207494D01*
X158606077Y-75207494D02*
X158463220Y-75159875D01*
X158463220Y-75159875D02*
X158367982Y-75159875D01*
X158367982Y-75159875D02*
X158225125Y-75207494D01*
X158225125Y-75207494D02*
X158177506Y-75255113D01*
X157796553Y-75255113D02*
X157748934Y-75207494D01*
X157748934Y-75207494D02*
X157653696Y-75159875D01*
X157653696Y-75159875D02*
X157415601Y-75159875D01*
X157415601Y-75159875D02*
X157320363Y-75207494D01*
X157320363Y-75207494D02*
X157272744Y-75255113D01*
X157272744Y-75255113D02*
X157225125Y-75350351D01*
X157225125Y-75350351D02*
X157225125Y-75445589D01*
X157225125Y-75445589D02*
X157272744Y-75588446D01*
X157272744Y-75588446D02*
X157844172Y-76159875D01*
X157844172Y-76159875D02*
X157225125Y-76159875D01*
X156272744Y-75207494D02*
X156367982Y-75159875D01*
X156367982Y-75159875D02*
X156510839Y-75159875D01*
X156510839Y-75159875D02*
X156653696Y-75207494D01*
X156653696Y-75207494D02*
X156748934Y-75302732D01*
X156748934Y-75302732D02*
X156796553Y-75397970D01*
X156796553Y-75397970D02*
X156844172Y-75588446D01*
X156844172Y-75588446D02*
X156844172Y-75731303D01*
X156844172Y-75731303D02*
X156796553Y-75921779D01*
X156796553Y-75921779D02*
X156748934Y-76017017D01*
X156748934Y-76017017D02*
X156653696Y-76112256D01*
X156653696Y-76112256D02*
X156510839Y-76159875D01*
X156510839Y-76159875D02*
X156415601Y-76159875D01*
X156415601Y-76159875D02*
X156272744Y-76112256D01*
X156272744Y-76112256D02*
X156225125Y-76064636D01*
X156225125Y-76064636D02*
X156225125Y-75731303D01*
X156225125Y-75731303D02*
X156415601Y-75731303D01*
X155272744Y-76159875D02*
X155844172Y-76159875D01*
X155558458Y-76159875D02*
X155558458Y-75159875D01*
X155558458Y-75159875D02*
X155653696Y-75302732D01*
X155653696Y-75302732D02*
X155748934Y-75397970D01*
X155748934Y-75397970D02*
X155844172Y-75445589D01*
X154891791Y-75255113D02*
X154844172Y-75207494D01*
X154844172Y-75207494D02*
X154748934Y-75159875D01*
X154748934Y-75159875D02*
X154510839Y-75159875D01*
X154510839Y-75159875D02*
X154415601Y-75207494D01*
X154415601Y-75207494D02*
X154367982Y-75255113D01*
X154367982Y-75255113D02*
X154320363Y-75350351D01*
X154320363Y-75350351D02*
X154320363Y-75445589D01*
X154320363Y-75445589D02*
X154367982Y-75588446D01*
X154367982Y-75588446D02*
X154939410Y-76159875D01*
X154939410Y-76159875D02*
X154320363Y-76159875D01*
X153415601Y-75159875D02*
X153891791Y-75159875D01*
X153891791Y-75159875D02*
X153939410Y-75636065D01*
X153939410Y-75636065D02*
X153891791Y-75588446D01*
X153891791Y-75588446D02*
X153796553Y-75540827D01*
X153796553Y-75540827D02*
X153558458Y-75540827D01*
X153558458Y-75540827D02*
X153463220Y-75588446D01*
X153463220Y-75588446D02*
X153415601Y-75636065D01*
X153415601Y-75636065D02*
X153367982Y-75731303D01*
X153367982Y-75731303D02*
X153367982Y-75969398D01*
X153367982Y-75969398D02*
X153415601Y-76064636D01*
X153415601Y-76064636D02*
X153463220Y-76112256D01*
X153463220Y-76112256D02*
X153558458Y-76159875D01*
X153558458Y-76159875D02*
X153796553Y-76159875D01*
X153796553Y-76159875D02*
X153891791Y-76112256D01*
X153891791Y-76112256D02*
X153939410Y-76064636D01*
X152367982Y-76159875D02*
X152701315Y-75683684D01*
X152939410Y-76159875D02*
X152939410Y-75159875D01*
X152939410Y-75159875D02*
X152558458Y-75159875D01*
X152558458Y-75159875D02*
X152463220Y-75207494D01*
X152463220Y-75207494D02*
X152415601Y-75255113D01*
X152415601Y-75255113D02*
X152367982Y-75350351D01*
X152367982Y-75350351D02*
X152367982Y-75493208D01*
X152367982Y-75493208D02*
X152415601Y-75588446D01*
X152415601Y-75588446D02*
X152463220Y-75636065D01*
X152463220Y-75636065D02*
X152558458Y-75683684D01*
X152558458Y-75683684D02*
X152939410Y-75683684D01*
X151987029Y-75874160D02*
X151510839Y-75874160D01*
X152082267Y-76159875D02*
X151748934Y-75159875D01*
X151748934Y-75159875D02*
X151415601Y-76159875D01*
X151177505Y-75159875D02*
X150558458Y-75159875D01*
X150558458Y-75159875D02*
X150891791Y-75540827D01*
X150891791Y-75540827D02*
X150748934Y-75540827D01*
X150748934Y-75540827D02*
X150653696Y-75588446D01*
X150653696Y-75588446D02*
X150606077Y-75636065D01*
X150606077Y-75636065D02*
X150558458Y-75731303D01*
X150558458Y-75731303D02*
X150558458Y-75969398D01*
X150558458Y-75969398D02*
X150606077Y-76064636D01*
X150606077Y-76064636D02*
X150653696Y-76112256D01*
X150653696Y-76112256D02*
X150748934Y-76159875D01*
X150748934Y-76159875D02*
X151034648Y-76159875D01*
X151034648Y-76159875D02*
X151129886Y-76112256D01*
X151129886Y-76112256D02*
X151177505Y-76064636D01*
X150129886Y-75778922D02*
X149367982Y-75778922D01*
X148987029Y-75159875D02*
X148320363Y-75159875D01*
X148320363Y-75159875D02*
X148748934Y-76159875D01*
X165891792Y-77769819D02*
X166225125Y-77293628D01*
X166463220Y-77769819D02*
X166463220Y-76769819D01*
X166463220Y-76769819D02*
X166082268Y-76769819D01*
X166082268Y-76769819D02*
X165987030Y-76817438D01*
X165987030Y-76817438D02*
X165939411Y-76865057D01*
X165939411Y-76865057D02*
X165891792Y-76960295D01*
X165891792Y-76960295D02*
X165891792Y-77103152D01*
X165891792Y-77103152D02*
X165939411Y-77198390D01*
X165939411Y-77198390D02*
X165987030Y-77246009D01*
X165987030Y-77246009D02*
X166082268Y-77293628D01*
X166082268Y-77293628D02*
X166463220Y-77293628D01*
X165510839Y-77722200D02*
X165367982Y-77769819D01*
X165367982Y-77769819D02*
X165129887Y-77769819D01*
X165129887Y-77769819D02*
X165034649Y-77722200D01*
X165034649Y-77722200D02*
X164987030Y-77674580D01*
X164987030Y-77674580D02*
X164939411Y-77579342D01*
X164939411Y-77579342D02*
X164939411Y-77484104D01*
X164939411Y-77484104D02*
X164987030Y-77388866D01*
X164987030Y-77388866D02*
X165034649Y-77341247D01*
X165034649Y-77341247D02*
X165129887Y-77293628D01*
X165129887Y-77293628D02*
X165320363Y-77246009D01*
X165320363Y-77246009D02*
X165415601Y-77198390D01*
X165415601Y-77198390D02*
X165463220Y-77150771D01*
X165463220Y-77150771D02*
X165510839Y-77055533D01*
X165510839Y-77055533D02*
X165510839Y-76960295D01*
X165510839Y-76960295D02*
X165463220Y-76865057D01*
X165463220Y-76865057D02*
X165415601Y-76817438D01*
X165415601Y-76817438D02*
X165320363Y-76769819D01*
X165320363Y-76769819D02*
X165082268Y-76769819D01*
X165082268Y-76769819D02*
X164939411Y-76817438D01*
X163987030Y-77769819D02*
X164558458Y-77769819D01*
X164272744Y-77769819D02*
X164272744Y-76769819D01*
X164272744Y-76769819D02*
X164367982Y-76912676D01*
X164367982Y-76912676D02*
X164463220Y-77007914D01*
X164463220Y-77007914D02*
X164558458Y-77055533D01*
X163558458Y-77674580D02*
X163510839Y-77722200D01*
X163510839Y-77722200D02*
X163558458Y-77769819D01*
X163558458Y-77769819D02*
X163606077Y-77722200D01*
X163606077Y-77722200D02*
X163558458Y-77674580D01*
X163558458Y-77674580D02*
X163558458Y-77769819D01*
X163558458Y-77150771D02*
X163510839Y-77198390D01*
X163510839Y-77198390D02*
X163558458Y-77246009D01*
X163558458Y-77246009D02*
X163606077Y-77198390D01*
X163606077Y-77198390D02*
X163558458Y-77150771D01*
X163558458Y-77150771D02*
X163558458Y-77246009D01*
X162129887Y-76769819D02*
X162034649Y-76769819D01*
X162034649Y-76769819D02*
X161939411Y-76817438D01*
X161939411Y-76817438D02*
X161891792Y-76865057D01*
X161891792Y-76865057D02*
X161844173Y-76960295D01*
X161844173Y-76960295D02*
X161796554Y-77150771D01*
X161796554Y-77150771D02*
X161796554Y-77388866D01*
X161796554Y-77388866D02*
X161844173Y-77579342D01*
X161844173Y-77579342D02*
X161891792Y-77674580D01*
X161891792Y-77674580D02*
X161939411Y-77722200D01*
X161939411Y-77722200D02*
X162034649Y-77769819D01*
X162034649Y-77769819D02*
X162129887Y-77769819D01*
X162129887Y-77769819D02*
X162225125Y-77722200D01*
X162225125Y-77722200D02*
X162272744Y-77674580D01*
X162272744Y-77674580D02*
X162320363Y-77579342D01*
X162320363Y-77579342D02*
X162367982Y-77388866D01*
X162367982Y-77388866D02*
X162367982Y-77150771D01*
X162367982Y-77150771D02*
X162320363Y-76960295D01*
X162320363Y-76960295D02*
X162272744Y-76865057D01*
X162272744Y-76865057D02*
X162225125Y-76817438D01*
X162225125Y-76817438D02*
X162129887Y-76769819D01*
X161367982Y-77674580D02*
X161320363Y-77722200D01*
X161320363Y-77722200D02*
X161367982Y-77769819D01*
X161367982Y-77769819D02*
X161415601Y-77722200D01*
X161415601Y-77722200D02*
X161367982Y-77674580D01*
X161367982Y-77674580D02*
X161367982Y-77769819D01*
X160367983Y-77769819D02*
X160939411Y-77769819D01*
X160653697Y-77769819D02*
X160653697Y-76769819D01*
X160653697Y-76769819D02*
X160748935Y-76912676D01*
X160748935Y-76912676D02*
X160844173Y-77007914D01*
X160844173Y-77007914D02*
X160939411Y-77055533D01*
X158987030Y-76769819D02*
X158796554Y-76769819D01*
X158796554Y-76769819D02*
X158701316Y-76817438D01*
X158701316Y-76817438D02*
X158606078Y-76912676D01*
X158606078Y-76912676D02*
X158558459Y-77103152D01*
X158558459Y-77103152D02*
X158558459Y-77436485D01*
X158558459Y-77436485D02*
X158606078Y-77626961D01*
X158606078Y-77626961D02*
X158701316Y-77722200D01*
X158701316Y-77722200D02*
X158796554Y-77769819D01*
X158796554Y-77769819D02*
X158987030Y-77769819D01*
X158987030Y-77769819D02*
X159082268Y-77722200D01*
X159082268Y-77722200D02*
X159177506Y-77626961D01*
X159177506Y-77626961D02*
X159225125Y-77436485D01*
X159225125Y-77436485D02*
X159225125Y-77103152D01*
X159225125Y-77103152D02*
X159177506Y-76912676D01*
X159177506Y-76912676D02*
X159082268Y-76817438D01*
X159082268Y-76817438D02*
X158987030Y-76769819D01*
X158129887Y-77769819D02*
X158129887Y-76769819D01*
X158129887Y-77246009D02*
X157558459Y-77246009D01*
X157558459Y-77769819D02*
X157558459Y-76769819D01*
X157082268Y-77769819D02*
X157082268Y-76769819D01*
X157082268Y-76769819D02*
X156748935Y-77484104D01*
X156748935Y-77484104D02*
X156415602Y-76769819D01*
X156415602Y-76769819D02*
X156415602Y-77769819D01*
X155320363Y-77388866D02*
X155272744Y-77341247D01*
X155272744Y-77341247D02*
X155177506Y-77293628D01*
X155177506Y-77293628D02*
X154987030Y-77388866D01*
X154987030Y-77388866D02*
X154891792Y-77341247D01*
X154891792Y-77341247D02*
X154844173Y-77293628D01*
X153939411Y-77769819D02*
X154510839Y-77769819D01*
X154225125Y-77769819D02*
X154225125Y-76769819D01*
X154225125Y-76769819D02*
X154320363Y-76912676D01*
X154320363Y-76912676D02*
X154415601Y-77007914D01*
X154415601Y-77007914D02*
X154510839Y-77055533D01*
X153558458Y-77769819D02*
X152796554Y-76769819D01*
X153415601Y-76769819D02*
X153320363Y-76817438D01*
X153320363Y-76817438D02*
X153272744Y-76912676D01*
X153272744Y-76912676D02*
X153320363Y-77007914D01*
X153320363Y-77007914D02*
X153415601Y-77055533D01*
X153415601Y-77055533D02*
X153510839Y-77007914D01*
X153510839Y-77007914D02*
X153558458Y-76912676D01*
X153558458Y-76912676D02*
X153510839Y-76817438D01*
X153510839Y-76817438D02*
X153415601Y-76769819D01*
X152844173Y-77722200D02*
X152796554Y-77626961D01*
X152796554Y-77626961D02*
X152844173Y-77531723D01*
X152844173Y-77531723D02*
X152939411Y-77484104D01*
X152939411Y-77484104D02*
X153034649Y-77531723D01*
X153034649Y-77531723D02*
X153082268Y-77626961D01*
X153082268Y-77626961D02*
X153034649Y-77722200D01*
X153034649Y-77722200D02*
X152939411Y-77769819D01*
X152939411Y-77769819D02*
X152844173Y-77722200D01*
X162020114Y-107804819D02*
X162020114Y-106804819D01*
X161591543Y-107804819D02*
X161591543Y-107281009D01*
X161591543Y-107281009D02*
X161639162Y-107185771D01*
X161639162Y-107185771D02*
X161734400Y-107138152D01*
X161734400Y-107138152D02*
X161877257Y-107138152D01*
X161877257Y-107138152D02*
X161972495Y-107185771D01*
X161972495Y-107185771D02*
X162020114Y-107233390D01*
X161258209Y-107138152D02*
X160877257Y-107138152D01*
X161115352Y-106804819D02*
X161115352Y-107661961D01*
X161115352Y-107661961D02*
X161067733Y-107757200D01*
X161067733Y-107757200D02*
X160972495Y-107804819D01*
X160972495Y-107804819D02*
X160877257Y-107804819D01*
X160686780Y-107138152D02*
X160305828Y-107138152D01*
X160543923Y-106804819D02*
X160543923Y-107661961D01*
X160543923Y-107661961D02*
X160496304Y-107757200D01*
X160496304Y-107757200D02*
X160401066Y-107804819D01*
X160401066Y-107804819D02*
X160305828Y-107804819D01*
X159972494Y-107138152D02*
X159972494Y-108138152D01*
X159972494Y-107185771D02*
X159877256Y-107138152D01*
X159877256Y-107138152D02*
X159686780Y-107138152D01*
X159686780Y-107138152D02*
X159591542Y-107185771D01*
X159591542Y-107185771D02*
X159543923Y-107233390D01*
X159543923Y-107233390D02*
X159496304Y-107328628D01*
X159496304Y-107328628D02*
X159496304Y-107614342D01*
X159496304Y-107614342D02*
X159543923Y-107709580D01*
X159543923Y-107709580D02*
X159591542Y-107757200D01*
X159591542Y-107757200D02*
X159686780Y-107804819D01*
X159686780Y-107804819D02*
X159877256Y-107804819D01*
X159877256Y-107804819D02*
X159972494Y-107757200D01*
X159115351Y-107757200D02*
X159020113Y-107804819D01*
X159020113Y-107804819D02*
X158829637Y-107804819D01*
X158829637Y-107804819D02*
X158734399Y-107757200D01*
X158734399Y-107757200D02*
X158686780Y-107661961D01*
X158686780Y-107661961D02*
X158686780Y-107614342D01*
X158686780Y-107614342D02*
X158734399Y-107519104D01*
X158734399Y-107519104D02*
X158829637Y-107471485D01*
X158829637Y-107471485D02*
X158972494Y-107471485D01*
X158972494Y-107471485D02*
X159067732Y-107423866D01*
X159067732Y-107423866D02*
X159115351Y-107328628D01*
X159115351Y-107328628D02*
X159115351Y-107281009D01*
X159115351Y-107281009D02*
X159067732Y-107185771D01*
X159067732Y-107185771D02*
X158972494Y-107138152D01*
X158972494Y-107138152D02*
X158829637Y-107138152D01*
X158829637Y-107138152D02*
X158734399Y-107185771D01*
X158258208Y-107709580D02*
X158210589Y-107757200D01*
X158210589Y-107757200D02*
X158258208Y-107804819D01*
X158258208Y-107804819D02*
X158305827Y-107757200D01*
X158305827Y-107757200D02*
X158258208Y-107709580D01*
X158258208Y-107709580D02*
X158258208Y-107804819D01*
X158258208Y-107185771D02*
X158210589Y-107233390D01*
X158210589Y-107233390D02*
X158258208Y-107281009D01*
X158258208Y-107281009D02*
X158305827Y-107233390D01*
X158305827Y-107233390D02*
X158258208Y-107185771D01*
X158258208Y-107185771D02*
X158258208Y-107281009D01*
X157067733Y-106757200D02*
X157924875Y-108042914D01*
X156020114Y-106757200D02*
X156877256Y-108042914D01*
X155258209Y-107138152D02*
X155258209Y-107947676D01*
X155258209Y-107947676D02*
X155305828Y-108042914D01*
X155305828Y-108042914D02*
X155353447Y-108090533D01*
X155353447Y-108090533D02*
X155448685Y-108138152D01*
X155448685Y-108138152D02*
X155591542Y-108138152D01*
X155591542Y-108138152D02*
X155686780Y-108090533D01*
X155258209Y-107757200D02*
X155353447Y-107804819D01*
X155353447Y-107804819D02*
X155543923Y-107804819D01*
X155543923Y-107804819D02*
X155639161Y-107757200D01*
X155639161Y-107757200D02*
X155686780Y-107709580D01*
X155686780Y-107709580D02*
X155734399Y-107614342D01*
X155734399Y-107614342D02*
X155734399Y-107328628D01*
X155734399Y-107328628D02*
X155686780Y-107233390D01*
X155686780Y-107233390D02*
X155639161Y-107185771D01*
X155639161Y-107185771D02*
X155543923Y-107138152D01*
X155543923Y-107138152D02*
X155353447Y-107138152D01*
X155353447Y-107138152D02*
X155258209Y-107185771D01*
X154782018Y-107804819D02*
X154782018Y-107138152D01*
X154782018Y-106804819D02*
X154829637Y-106852438D01*
X154829637Y-106852438D02*
X154782018Y-106900057D01*
X154782018Y-106900057D02*
X154734399Y-106852438D01*
X154734399Y-106852438D02*
X154782018Y-106804819D01*
X154782018Y-106804819D02*
X154782018Y-106900057D01*
X154448685Y-107138152D02*
X154067733Y-107138152D01*
X154305828Y-106804819D02*
X154305828Y-107661961D01*
X154305828Y-107661961D02*
X154258209Y-107757200D01*
X154258209Y-107757200D02*
X154162971Y-107804819D01*
X154162971Y-107804819D02*
X154067733Y-107804819D01*
X153734399Y-107804819D02*
X153734399Y-106804819D01*
X153305828Y-107804819D02*
X153305828Y-107281009D01*
X153305828Y-107281009D02*
X153353447Y-107185771D01*
X153353447Y-107185771D02*
X153448685Y-107138152D01*
X153448685Y-107138152D02*
X153591542Y-107138152D01*
X153591542Y-107138152D02*
X153686780Y-107185771D01*
X153686780Y-107185771D02*
X153734399Y-107233390D01*
X152401066Y-107138152D02*
X152401066Y-107804819D01*
X152829637Y-107138152D02*
X152829637Y-107661961D01*
X152829637Y-107661961D02*
X152782018Y-107757200D01*
X152782018Y-107757200D02*
X152686780Y-107804819D01*
X152686780Y-107804819D02*
X152543923Y-107804819D01*
X152543923Y-107804819D02*
X152448685Y-107757200D01*
X152448685Y-107757200D02*
X152401066Y-107709580D01*
X151924875Y-107804819D02*
X151924875Y-106804819D01*
X151924875Y-107185771D02*
X151829637Y-107138152D01*
X151829637Y-107138152D02*
X151639161Y-107138152D01*
X151639161Y-107138152D02*
X151543923Y-107185771D01*
X151543923Y-107185771D02*
X151496304Y-107233390D01*
X151496304Y-107233390D02*
X151448685Y-107328628D01*
X151448685Y-107328628D02*
X151448685Y-107614342D01*
X151448685Y-107614342D02*
X151496304Y-107709580D01*
X151496304Y-107709580D02*
X151543923Y-107757200D01*
X151543923Y-107757200D02*
X151639161Y-107804819D01*
X151639161Y-107804819D02*
X151829637Y-107804819D01*
X151829637Y-107804819D02*
X151924875Y-107757200D01*
X151020113Y-107709580D02*
X150972494Y-107757200D01*
X150972494Y-107757200D02*
X151020113Y-107804819D01*
X151020113Y-107804819D02*
X151067732Y-107757200D01*
X151067732Y-107757200D02*
X151020113Y-107709580D01*
X151020113Y-107709580D02*
X151020113Y-107804819D01*
X150115352Y-107757200D02*
X150210590Y-107804819D01*
X150210590Y-107804819D02*
X150401066Y-107804819D01*
X150401066Y-107804819D02*
X150496304Y-107757200D01*
X150496304Y-107757200D02*
X150543923Y-107709580D01*
X150543923Y-107709580D02*
X150591542Y-107614342D01*
X150591542Y-107614342D02*
X150591542Y-107328628D01*
X150591542Y-107328628D02*
X150543923Y-107233390D01*
X150543923Y-107233390D02*
X150496304Y-107185771D01*
X150496304Y-107185771D02*
X150401066Y-107138152D01*
X150401066Y-107138152D02*
X150210590Y-107138152D01*
X150210590Y-107138152D02*
X150115352Y-107185771D01*
X149543923Y-107804819D02*
X149639161Y-107757200D01*
X149639161Y-107757200D02*
X149686780Y-107709580D01*
X149686780Y-107709580D02*
X149734399Y-107614342D01*
X149734399Y-107614342D02*
X149734399Y-107328628D01*
X149734399Y-107328628D02*
X149686780Y-107233390D01*
X149686780Y-107233390D02*
X149639161Y-107185771D01*
X149639161Y-107185771D02*
X149543923Y-107138152D01*
X149543923Y-107138152D02*
X149401066Y-107138152D01*
X149401066Y-107138152D02*
X149305828Y-107185771D01*
X149305828Y-107185771D02*
X149258209Y-107233390D01*
X149258209Y-107233390D02*
X149210590Y-107328628D01*
X149210590Y-107328628D02*
X149210590Y-107614342D01*
X149210590Y-107614342D02*
X149258209Y-107709580D01*
X149258209Y-107709580D02*
X149305828Y-107757200D01*
X149305828Y-107757200D02*
X149401066Y-107804819D01*
X149401066Y-107804819D02*
X149543923Y-107804819D01*
X148782018Y-107804819D02*
X148782018Y-107138152D01*
X148782018Y-107233390D02*
X148734399Y-107185771D01*
X148734399Y-107185771D02*
X148639161Y-107138152D01*
X148639161Y-107138152D02*
X148496304Y-107138152D01*
X148496304Y-107138152D02*
X148401066Y-107185771D01*
X148401066Y-107185771D02*
X148353447Y-107281009D01*
X148353447Y-107281009D02*
X148353447Y-107804819D01*
X148353447Y-107281009D02*
X148305828Y-107185771D01*
X148305828Y-107185771D02*
X148210590Y-107138152D01*
X148210590Y-107138152D02*
X148067733Y-107138152D01*
X148067733Y-107138152D02*
X147972494Y-107185771D01*
X147972494Y-107185771D02*
X147924875Y-107281009D01*
X147924875Y-107281009D02*
X147924875Y-107804819D01*
X146734400Y-106757200D02*
X147591542Y-108042914D01*
X146210590Y-106804819D02*
X146020114Y-106804819D01*
X146020114Y-106804819D02*
X145924876Y-106852438D01*
X145924876Y-106852438D02*
X145829638Y-106947676D01*
X145829638Y-106947676D02*
X145782019Y-107138152D01*
X145782019Y-107138152D02*
X145782019Y-107471485D01*
X145782019Y-107471485D02*
X145829638Y-107661961D01*
X145829638Y-107661961D02*
X145924876Y-107757200D01*
X145924876Y-107757200D02*
X146020114Y-107804819D01*
X146020114Y-107804819D02*
X146210590Y-107804819D01*
X146210590Y-107804819D02*
X146305828Y-107757200D01*
X146305828Y-107757200D02*
X146401066Y-107661961D01*
X146401066Y-107661961D02*
X146448685Y-107471485D01*
X146448685Y-107471485D02*
X146448685Y-107138152D01*
X146448685Y-107138152D02*
X146401066Y-106947676D01*
X146401066Y-106947676D02*
X146305828Y-106852438D01*
X146305828Y-106852438D02*
X146210590Y-106804819D01*
X145353447Y-107138152D02*
X145353447Y-108138152D01*
X145353447Y-107185771D02*
X145258209Y-107138152D01*
X145258209Y-107138152D02*
X145067733Y-107138152D01*
X145067733Y-107138152D02*
X144972495Y-107185771D01*
X144972495Y-107185771D02*
X144924876Y-107233390D01*
X144924876Y-107233390D02*
X144877257Y-107328628D01*
X144877257Y-107328628D02*
X144877257Y-107614342D01*
X144877257Y-107614342D02*
X144924876Y-107709580D01*
X144924876Y-107709580D02*
X144972495Y-107757200D01*
X144972495Y-107757200D02*
X145067733Y-107804819D01*
X145067733Y-107804819D02*
X145258209Y-107804819D01*
X145258209Y-107804819D02*
X145353447Y-107757200D01*
X144067733Y-107757200D02*
X144162971Y-107804819D01*
X144162971Y-107804819D02*
X144353447Y-107804819D01*
X144353447Y-107804819D02*
X144448685Y-107757200D01*
X144448685Y-107757200D02*
X144496304Y-107661961D01*
X144496304Y-107661961D02*
X144496304Y-107281009D01*
X144496304Y-107281009D02*
X144448685Y-107185771D01*
X144448685Y-107185771D02*
X144353447Y-107138152D01*
X144353447Y-107138152D02*
X144162971Y-107138152D01*
X144162971Y-107138152D02*
X144067733Y-107185771D01*
X144067733Y-107185771D02*
X144020114Y-107281009D01*
X144020114Y-107281009D02*
X144020114Y-107376247D01*
X144020114Y-107376247D02*
X144496304Y-107471485D01*
X143591542Y-107138152D02*
X143591542Y-107804819D01*
X143591542Y-107233390D02*
X143543923Y-107185771D01*
X143543923Y-107185771D02*
X143448685Y-107138152D01*
X143448685Y-107138152D02*
X143305828Y-107138152D01*
X143305828Y-107138152D02*
X143210590Y-107185771D01*
X143210590Y-107185771D02*
X143162971Y-107281009D01*
X143162971Y-107281009D02*
X143162971Y-107804819D01*
X142734399Y-107757200D02*
X142591542Y-107804819D01*
X142591542Y-107804819D02*
X142353447Y-107804819D01*
X142353447Y-107804819D02*
X142258209Y-107757200D01*
X142258209Y-107757200D02*
X142210590Y-107709580D01*
X142210590Y-107709580D02*
X142162971Y-107614342D01*
X142162971Y-107614342D02*
X142162971Y-107519104D01*
X142162971Y-107519104D02*
X142210590Y-107423866D01*
X142210590Y-107423866D02*
X142258209Y-107376247D01*
X142258209Y-107376247D02*
X142353447Y-107328628D01*
X142353447Y-107328628D02*
X142543923Y-107281009D01*
X142543923Y-107281009D02*
X142639161Y-107233390D01*
X142639161Y-107233390D02*
X142686780Y-107185771D01*
X142686780Y-107185771D02*
X142734399Y-107090533D01*
X142734399Y-107090533D02*
X142734399Y-106995295D01*
X142734399Y-106995295D02*
X142686780Y-106900057D01*
X142686780Y-106900057D02*
X142639161Y-106852438D01*
X142639161Y-106852438D02*
X142543923Y-106804819D01*
X142543923Y-106804819D02*
X142305828Y-106804819D01*
X142305828Y-106804819D02*
X142162971Y-106852438D01*
X141353447Y-107757200D02*
X141448685Y-107804819D01*
X141448685Y-107804819D02*
X141639161Y-107804819D01*
X141639161Y-107804819D02*
X141734399Y-107757200D01*
X141734399Y-107757200D02*
X141782018Y-107661961D01*
X141782018Y-107661961D02*
X141782018Y-107281009D01*
X141782018Y-107281009D02*
X141734399Y-107185771D01*
X141734399Y-107185771D02*
X141639161Y-107138152D01*
X141639161Y-107138152D02*
X141448685Y-107138152D01*
X141448685Y-107138152D02*
X141353447Y-107185771D01*
X141353447Y-107185771D02*
X141305828Y-107281009D01*
X141305828Y-107281009D02*
X141305828Y-107376247D01*
X141305828Y-107376247D02*
X141782018Y-107471485D01*
X140877256Y-107804819D02*
X140877256Y-107138152D01*
X140877256Y-107328628D02*
X140829637Y-107233390D01*
X140829637Y-107233390D02*
X140782018Y-107185771D01*
X140782018Y-107185771D02*
X140686780Y-107138152D01*
X140686780Y-107138152D02*
X140591542Y-107138152D01*
X140353446Y-107138152D02*
X140115351Y-107804819D01*
X140115351Y-107804819D02*
X139877256Y-107138152D01*
X139353446Y-107804819D02*
X139448684Y-107757200D01*
X139448684Y-107757200D02*
X139496303Y-107709580D01*
X139496303Y-107709580D02*
X139543922Y-107614342D01*
X139543922Y-107614342D02*
X139543922Y-107328628D01*
X139543922Y-107328628D02*
X139496303Y-107233390D01*
X139496303Y-107233390D02*
X139448684Y-107185771D01*
X139448684Y-107185771D02*
X139353446Y-107138152D01*
X139353446Y-107138152D02*
X139210589Y-107138152D01*
X139210589Y-107138152D02*
X139115351Y-107185771D01*
X139115351Y-107185771D02*
X139067732Y-107233390D01*
X139067732Y-107233390D02*
X139020113Y-107328628D01*
X139020113Y-107328628D02*
X139020113Y-107614342D01*
X139020113Y-107614342D02*
X139067732Y-107709580D01*
X139067732Y-107709580D02*
X139115351Y-107757200D01*
X139115351Y-107757200D02*
X139210589Y-107804819D01*
X139210589Y-107804819D02*
X139353446Y-107804819D01*
X138020113Y-107709580D02*
X138067732Y-107757200D01*
X138067732Y-107757200D02*
X138210589Y-107804819D01*
X138210589Y-107804819D02*
X138305827Y-107804819D01*
X138305827Y-107804819D02*
X138448684Y-107757200D01*
X138448684Y-107757200D02*
X138543922Y-107661961D01*
X138543922Y-107661961D02*
X138591541Y-107566723D01*
X138591541Y-107566723D02*
X138639160Y-107376247D01*
X138639160Y-107376247D02*
X138639160Y-107233390D01*
X138639160Y-107233390D02*
X138591541Y-107042914D01*
X138591541Y-107042914D02*
X138543922Y-106947676D01*
X138543922Y-106947676D02*
X138448684Y-106852438D01*
X138448684Y-106852438D02*
X138305827Y-106804819D01*
X138305827Y-106804819D02*
X138210589Y-106804819D01*
X138210589Y-106804819D02*
X138067732Y-106852438D01*
X138067732Y-106852438D02*
X138020113Y-106900057D01*
X137448684Y-107804819D02*
X137543922Y-107757200D01*
X137543922Y-107757200D02*
X137591541Y-107709580D01*
X137591541Y-107709580D02*
X137639160Y-107614342D01*
X137639160Y-107614342D02*
X137639160Y-107328628D01*
X137639160Y-107328628D02*
X137591541Y-107233390D01*
X137591541Y-107233390D02*
X137543922Y-107185771D01*
X137543922Y-107185771D02*
X137448684Y-107138152D01*
X137448684Y-107138152D02*
X137305827Y-107138152D01*
X137305827Y-107138152D02*
X137210589Y-107185771D01*
X137210589Y-107185771D02*
X137162970Y-107233390D01*
X137162970Y-107233390D02*
X137115351Y-107328628D01*
X137115351Y-107328628D02*
X137115351Y-107614342D01*
X137115351Y-107614342D02*
X137162970Y-107709580D01*
X137162970Y-107709580D02*
X137210589Y-107757200D01*
X137210589Y-107757200D02*
X137305827Y-107804819D01*
X137305827Y-107804819D02*
X137448684Y-107804819D01*
X136686779Y-107804819D02*
X136686779Y-107138152D01*
X136686779Y-107328628D02*
X136639160Y-107233390D01*
X136639160Y-107233390D02*
X136591541Y-107185771D01*
X136591541Y-107185771D02*
X136496303Y-107138152D01*
X136496303Y-107138152D02*
X136401065Y-107138152D01*
X135686779Y-107757200D02*
X135782017Y-107804819D01*
X135782017Y-107804819D02*
X135972493Y-107804819D01*
X135972493Y-107804819D02*
X136067731Y-107757200D01*
X136067731Y-107757200D02*
X136115350Y-107661961D01*
X136115350Y-107661961D02*
X136115350Y-107281009D01*
X136115350Y-107281009D02*
X136067731Y-107185771D01*
X136067731Y-107185771D02*
X135972493Y-107138152D01*
X135972493Y-107138152D02*
X135782017Y-107138152D01*
X135782017Y-107138152D02*
X135686779Y-107185771D01*
X135686779Y-107185771D02*
X135639160Y-107281009D01*
X135639160Y-107281009D02*
X135639160Y-107376247D01*
X135639160Y-107376247D02*
X136115350Y-107471485D01*
X179410180Y-88478571D02*
X178695895Y-88478571D01*
X178695895Y-88478571D02*
X178553038Y-88526190D01*
X178553038Y-88526190D02*
X178457800Y-88621428D01*
X178457800Y-88621428D02*
X178410180Y-88764285D01*
X178410180Y-88764285D02*
X178410180Y-88859523D01*
X178457800Y-88049999D02*
X178410180Y-87907142D01*
X178410180Y-87907142D02*
X178410180Y-87669047D01*
X178410180Y-87669047D02*
X178457800Y-87573809D01*
X178457800Y-87573809D02*
X178505419Y-87526190D01*
X178505419Y-87526190D02*
X178600657Y-87478571D01*
X178600657Y-87478571D02*
X178695895Y-87478571D01*
X178695895Y-87478571D02*
X178791133Y-87526190D01*
X178791133Y-87526190D02*
X178838752Y-87573809D01*
X178838752Y-87573809D02*
X178886371Y-87669047D01*
X178886371Y-87669047D02*
X178933990Y-87859523D01*
X178933990Y-87859523D02*
X178981609Y-87954761D01*
X178981609Y-87954761D02*
X179029228Y-88002380D01*
X179029228Y-88002380D02*
X179124466Y-88049999D01*
X179124466Y-88049999D02*
X179219704Y-88049999D01*
X179219704Y-88049999D02*
X179314942Y-88002380D01*
X179314942Y-88002380D02*
X179362561Y-87954761D01*
X179362561Y-87954761D02*
X179410180Y-87859523D01*
X179410180Y-87859523D02*
X179410180Y-87621428D01*
X179410180Y-87621428D02*
X179362561Y-87478571D01*
X179410180Y-87192856D02*
X179410180Y-86621428D01*
X178410180Y-86907142D02*
X179410180Y-86907142D01*
X178791133Y-86288094D02*
X178791133Y-85526190D01*
X179410180Y-85145237D02*
X179410180Y-84478571D01*
X179410180Y-84478571D02*
X178410180Y-85145237D01*
X178410180Y-85145237D02*
X178410180Y-84478571D01*
X178410180Y-84097618D02*
X179410180Y-84097618D01*
X178933990Y-84097618D02*
X178933990Y-83526190D01*
X178410180Y-83526190D02*
X179410180Y-83526190D01*
X178791133Y-83049999D02*
X178791133Y-82288095D01*
X179410180Y-81383333D02*
X179410180Y-81573809D01*
X179410180Y-81573809D02*
X179362561Y-81669047D01*
X179362561Y-81669047D02*
X179314942Y-81716666D01*
X179314942Y-81716666D02*
X179172085Y-81811904D01*
X179172085Y-81811904D02*
X178981609Y-81859523D01*
X178981609Y-81859523D02*
X178600657Y-81859523D01*
X178600657Y-81859523D02*
X178505419Y-81811904D01*
X178505419Y-81811904D02*
X178457800Y-81764285D01*
X178457800Y-81764285D02*
X178410180Y-81669047D01*
X178410180Y-81669047D02*
X178410180Y-81478571D01*
X178410180Y-81478571D02*
X178457800Y-81383333D01*
X178457800Y-81383333D02*
X178505419Y-81335714D01*
X178505419Y-81335714D02*
X178600657Y-81288095D01*
X178600657Y-81288095D02*
X178838752Y-81288095D01*
X178838752Y-81288095D02*
X178933990Y-81335714D01*
X178933990Y-81335714D02*
X178981609Y-81383333D01*
X178981609Y-81383333D02*
X179029228Y-81478571D01*
X179029228Y-81478571D02*
X179029228Y-81669047D01*
X179029228Y-81669047D02*
X178981609Y-81764285D01*
X178981609Y-81764285D02*
X178933990Y-81811904D01*
X178933990Y-81811904D02*
X178838752Y-81859523D01*
X178410180Y-80859523D02*
X179410180Y-80859523D01*
X179410180Y-80859523D02*
X179410180Y-80478571D01*
X179410180Y-80478571D02*
X179362561Y-80383333D01*
X179362561Y-80383333D02*
X179314942Y-80335714D01*
X179314942Y-80335714D02*
X179219704Y-80288095D01*
X179219704Y-80288095D02*
X179076847Y-80288095D01*
X179076847Y-80288095D02*
X178981609Y-80335714D01*
X178981609Y-80335714D02*
X178933990Y-80383333D01*
X178933990Y-80383333D02*
X178886371Y-80478571D01*
X178886371Y-80478571D02*
X178886371Y-80859523D01*
%LPC*%
D11*
%TO.C,H1*%
X132750000Y-62750000D03*
%TD*%
%TO.C,H2*%
X177250000Y-62750000D03*
%TD*%
D12*
%TO.C,J1*%
X136650000Y-72250000D03*
D13*
X136650000Y-74250000D03*
%TD*%
D14*
%TO.C,USB1*%
X136810000Y-79000000D03*
X133000000Y-79000000D03*
X136810000Y-87640000D03*
X133000000Y-87640000D03*
%TD*%
D11*
%TO.C,H4*%
X132750000Y-107250000D03*
%TD*%
%TO.C,H3*%
X177250000Y-107250000D03*
%TD*%
%LPD*%
M02*
