%TF.GenerationSoftware,KiCad,Pcbnew,9.0.7*%
%TF.CreationDate,2026-02-24T17:22:27-08:00*%
%TF.ProjectId,servo-dev-board-ch32v006,73657276-6f2d-4646-9576-2d626f617264,rev?*%
%TF.SameCoordinates,Original*%
%TF.FileFunction,Legend,Bot*%
%TF.FilePolarity,Positive*%
%FSLAX46Y46*%
G04 Gerber Fmt 4.6, Leading zero omitted, Abs format (unit mm)*
G04 Created by KiCad (PCBNEW 9.0.7) date 2026-02-24 17:22:27*
%MOMM*%
%LPD*%
G01*
G04 APERTURE LIST*
%ADD10C,0.150000*%
%ADD11R,1.700000X1.700000*%
%ADD12C,1.700000*%
%ADD13C,3.500000*%
%ADD14R,1.400000X1.500000*%
%ADD15C,1.400000*%
%ADD16C,1.600000*%
%ADD17O,1.700000X1.000000*%
%ADD18C,2.000000*%
%ADD19R,1.200000X1.200000*%
%ADD20C,1.200000*%
G04 APERTURE END LIST*
D10*
X182359875Y-89264286D02*
X181359875Y-89264286D01*
X181836065Y-89264286D02*
X181836065Y-89835714D01*
X182359875Y-89835714D02*
X181359875Y-89835714D01*
X182359875Y-90311905D02*
X181359875Y-90311905D01*
X181359875Y-90311905D02*
X181359875Y-90550000D01*
X181359875Y-90550000D02*
X181407494Y-90692857D01*
X181407494Y-90692857D02*
X181502732Y-90788095D01*
X181502732Y-90788095D02*
X181597970Y-90835714D01*
X181597970Y-90835714D02*
X181788446Y-90883333D01*
X181788446Y-90883333D02*
X181931303Y-90883333D01*
X181931303Y-90883333D02*
X182121779Y-90835714D01*
X182121779Y-90835714D02*
X182217017Y-90788095D01*
X182217017Y-90788095D02*
X182312256Y-90692857D01*
X182312256Y-90692857D02*
X182359875Y-90550000D01*
X182359875Y-90550000D02*
X182359875Y-90311905D01*
X182359875Y-91883333D02*
X181883684Y-91550000D01*
X182359875Y-91311905D02*
X181359875Y-91311905D01*
X181359875Y-91311905D02*
X181359875Y-91692857D01*
X181359875Y-91692857D02*
X181407494Y-91788095D01*
X181407494Y-91788095D02*
X181455113Y-91835714D01*
X181455113Y-91835714D02*
X181550351Y-91883333D01*
X181550351Y-91883333D02*
X181693208Y-91883333D01*
X181693208Y-91883333D02*
X181788446Y-91835714D01*
X181788446Y-91835714D02*
X181836065Y-91788095D01*
X181836065Y-91788095D02*
X181883684Y-91692857D01*
X181883684Y-91692857D02*
X181883684Y-91311905D01*
X183065057Y-88811905D02*
X183017438Y-88859524D01*
X183017438Y-88859524D02*
X182969819Y-88954762D01*
X182969819Y-88954762D02*
X182969819Y-89192857D01*
X182969819Y-89192857D02*
X183017438Y-89288095D01*
X183017438Y-89288095D02*
X183065057Y-89335714D01*
X183065057Y-89335714D02*
X183160295Y-89383333D01*
X183160295Y-89383333D02*
X183255533Y-89383333D01*
X183255533Y-89383333D02*
X183398390Y-89335714D01*
X183398390Y-89335714D02*
X183969819Y-88764286D01*
X183969819Y-88764286D02*
X183969819Y-89383333D01*
X182969819Y-89716667D02*
X183969819Y-90383333D01*
X182969819Y-90383333D02*
X183969819Y-89716667D01*
X183065057Y-90716667D02*
X183017438Y-90764286D01*
X183017438Y-90764286D02*
X182969819Y-90859524D01*
X182969819Y-90859524D02*
X182969819Y-91097619D01*
X182969819Y-91097619D02*
X183017438Y-91192857D01*
X183017438Y-91192857D02*
X183065057Y-91240476D01*
X183065057Y-91240476D02*
X183160295Y-91288095D01*
X183160295Y-91288095D02*
X183255533Y-91288095D01*
X183255533Y-91288095D02*
X183398390Y-91240476D01*
X183398390Y-91240476D02*
X183969819Y-90669048D01*
X183969819Y-90669048D02*
X183969819Y-91288095D01*
X183969819Y-91716667D02*
X182969819Y-91716667D01*
X182969819Y-91716667D02*
X182969819Y-92097619D01*
X182969819Y-92097619D02*
X183017438Y-92192857D01*
X183017438Y-92192857D02*
X183065057Y-92240476D01*
X183065057Y-92240476D02*
X183160295Y-92288095D01*
X183160295Y-92288095D02*
X183303152Y-92288095D01*
X183303152Y-92288095D02*
X183398390Y-92240476D01*
X183398390Y-92240476D02*
X183446009Y-92192857D01*
X183446009Y-92192857D02*
X183493628Y-92097619D01*
X183493628Y-92097619D02*
X183493628Y-91716667D01*
X183509875Y-111490476D02*
X182509875Y-111490476D01*
X182509875Y-111490476D02*
X183224160Y-111823809D01*
X183224160Y-111823809D02*
X182509875Y-112157142D01*
X182509875Y-112157142D02*
X183509875Y-112157142D01*
X182605113Y-112585714D02*
X182557494Y-112633333D01*
X182557494Y-112633333D02*
X182509875Y-112728571D01*
X182509875Y-112728571D02*
X182509875Y-112966666D01*
X182509875Y-112966666D02*
X182557494Y-113061904D01*
X182557494Y-113061904D02*
X182605113Y-113109523D01*
X182605113Y-113109523D02*
X182700351Y-113157142D01*
X182700351Y-113157142D02*
X182795589Y-113157142D01*
X182795589Y-113157142D02*
X182938446Y-113109523D01*
X182938446Y-113109523D02*
X183509875Y-112538095D01*
X183509875Y-112538095D02*
X183509875Y-113157142D01*
X184119819Y-111490476D02*
X185119819Y-110728572D01*
X185119819Y-111014286D02*
X185072200Y-110919048D01*
X185072200Y-110919048D02*
X184976961Y-110823810D01*
X184976961Y-110823810D02*
X184786485Y-110776191D01*
X184786485Y-110776191D02*
X184453152Y-110776191D01*
X184453152Y-110776191D02*
X184262676Y-110823810D01*
X184262676Y-110823810D02*
X184167438Y-110919048D01*
X184167438Y-110919048D02*
X184119819Y-111014286D01*
X184119819Y-111014286D02*
X184119819Y-111204762D01*
X184119819Y-111204762D02*
X184167438Y-111300000D01*
X184167438Y-111300000D02*
X184262676Y-111395238D01*
X184262676Y-111395238D02*
X184453152Y-111442857D01*
X184453152Y-111442857D02*
X184786485Y-111442857D01*
X184786485Y-111442857D02*
X184976961Y-111395238D01*
X184976961Y-111395238D02*
X185072200Y-111300000D01*
X185072200Y-111300000D02*
X185119819Y-111204762D01*
X185119819Y-111204762D02*
X185119819Y-111014286D01*
X184215057Y-111823810D02*
X184167438Y-111871429D01*
X184167438Y-111871429D02*
X184119819Y-111966667D01*
X184119819Y-111966667D02*
X184119819Y-112204762D01*
X184119819Y-112204762D02*
X184167438Y-112300000D01*
X184167438Y-112300000D02*
X184215057Y-112347619D01*
X184215057Y-112347619D02*
X184310295Y-112395238D01*
X184310295Y-112395238D02*
X184405533Y-112395238D01*
X184405533Y-112395238D02*
X184548390Y-112347619D01*
X184548390Y-112347619D02*
X185119819Y-111776191D01*
X185119819Y-111776191D02*
X185119819Y-112395238D01*
X185024580Y-112823810D02*
X185072200Y-112871429D01*
X185072200Y-112871429D02*
X185119819Y-112823810D01*
X185119819Y-112823810D02*
X185072200Y-112776191D01*
X185072200Y-112776191D02*
X185024580Y-112823810D01*
X185024580Y-112823810D02*
X185119819Y-112823810D01*
X184215057Y-113252381D02*
X184167438Y-113300000D01*
X184167438Y-113300000D02*
X184119819Y-113395238D01*
X184119819Y-113395238D02*
X184119819Y-113633333D01*
X184119819Y-113633333D02*
X184167438Y-113728571D01*
X184167438Y-113728571D02*
X184215057Y-113776190D01*
X184215057Y-113776190D02*
X184310295Y-113823809D01*
X184310295Y-113823809D02*
X184405533Y-113823809D01*
X184405533Y-113823809D02*
X184548390Y-113776190D01*
X184548390Y-113776190D02*
X185119819Y-113204762D01*
X185119819Y-113204762D02*
X185119819Y-113823809D01*
X130789819Y-87866666D02*
X131504104Y-87866666D01*
X131504104Y-87866666D02*
X131646961Y-87819047D01*
X131646961Y-87819047D02*
X131742200Y-87723809D01*
X131742200Y-87723809D02*
X131789819Y-87580952D01*
X131789819Y-87580952D02*
X131789819Y-87485714D01*
X131742200Y-88295238D02*
X131789819Y-88438095D01*
X131789819Y-88438095D02*
X131789819Y-88676190D01*
X131789819Y-88676190D02*
X131742200Y-88771428D01*
X131742200Y-88771428D02*
X131694580Y-88819047D01*
X131694580Y-88819047D02*
X131599342Y-88866666D01*
X131599342Y-88866666D02*
X131504104Y-88866666D01*
X131504104Y-88866666D02*
X131408866Y-88819047D01*
X131408866Y-88819047D02*
X131361247Y-88771428D01*
X131361247Y-88771428D02*
X131313628Y-88676190D01*
X131313628Y-88676190D02*
X131266009Y-88485714D01*
X131266009Y-88485714D02*
X131218390Y-88390476D01*
X131218390Y-88390476D02*
X131170771Y-88342857D01*
X131170771Y-88342857D02*
X131075533Y-88295238D01*
X131075533Y-88295238D02*
X130980295Y-88295238D01*
X130980295Y-88295238D02*
X130885057Y-88342857D01*
X130885057Y-88342857D02*
X130837438Y-88390476D01*
X130837438Y-88390476D02*
X130789819Y-88485714D01*
X130789819Y-88485714D02*
X130789819Y-88723809D01*
X130789819Y-88723809D02*
X130837438Y-88866666D01*
X130789819Y-89152381D02*
X130789819Y-89723809D01*
X131789819Y-89438095D02*
X130789819Y-89438095D01*
X131408866Y-90057143D02*
X131408866Y-90819048D01*
X130789819Y-91200000D02*
X130789819Y-91866666D01*
X130789819Y-91866666D02*
X131789819Y-91200000D01*
X131789819Y-91200000D02*
X131789819Y-91866666D01*
X131789819Y-92247619D02*
X130789819Y-92247619D01*
X131266009Y-92247619D02*
X131266009Y-92819047D01*
X131789819Y-92819047D02*
X130789819Y-92819047D01*
X132399763Y-89938095D02*
X132399763Y-89461905D01*
X132399763Y-89461905D02*
X132875953Y-89414286D01*
X132875953Y-89414286D02*
X132828334Y-89461905D01*
X132828334Y-89461905D02*
X132780715Y-89557143D01*
X132780715Y-89557143D02*
X132780715Y-89795238D01*
X132780715Y-89795238D02*
X132828334Y-89890476D01*
X132828334Y-89890476D02*
X132875953Y-89938095D01*
X132875953Y-89938095D02*
X132971191Y-89985714D01*
X132971191Y-89985714D02*
X133209286Y-89985714D01*
X133209286Y-89985714D02*
X133304524Y-89938095D01*
X133304524Y-89938095D02*
X133352144Y-89890476D01*
X133352144Y-89890476D02*
X133399763Y-89795238D01*
X133399763Y-89795238D02*
X133399763Y-89557143D01*
X133399763Y-89557143D02*
X133352144Y-89461905D01*
X133352144Y-89461905D02*
X133304524Y-89414286D01*
X133399763Y-90414286D02*
X132399763Y-90414286D01*
X132399763Y-90414286D02*
X132399763Y-90795238D01*
X132399763Y-90795238D02*
X132447382Y-90890476D01*
X132447382Y-90890476D02*
X132495001Y-90938095D01*
X132495001Y-90938095D02*
X132590239Y-90985714D01*
X132590239Y-90985714D02*
X132733096Y-90985714D01*
X132733096Y-90985714D02*
X132828334Y-90938095D01*
X132828334Y-90938095D02*
X132875953Y-90890476D01*
X132875953Y-90890476D02*
X132923572Y-90795238D01*
X132923572Y-90795238D02*
X132923572Y-90414286D01*
X130789819Y-100869048D02*
X131599342Y-100869048D01*
X131599342Y-100869048D02*
X131694580Y-100916667D01*
X131694580Y-100916667D02*
X131742200Y-100964286D01*
X131742200Y-100964286D02*
X131789819Y-101059524D01*
X131789819Y-101059524D02*
X131789819Y-101250000D01*
X131789819Y-101250000D02*
X131742200Y-101345238D01*
X131742200Y-101345238D02*
X131694580Y-101392857D01*
X131694580Y-101392857D02*
X131599342Y-101440476D01*
X131599342Y-101440476D02*
X130789819Y-101440476D01*
X131742200Y-101869048D02*
X131789819Y-102011905D01*
X131789819Y-102011905D02*
X131789819Y-102250000D01*
X131789819Y-102250000D02*
X131742200Y-102345238D01*
X131742200Y-102345238D02*
X131694580Y-102392857D01*
X131694580Y-102392857D02*
X131599342Y-102440476D01*
X131599342Y-102440476D02*
X131504104Y-102440476D01*
X131504104Y-102440476D02*
X131408866Y-102392857D01*
X131408866Y-102392857D02*
X131361247Y-102345238D01*
X131361247Y-102345238D02*
X131313628Y-102250000D01*
X131313628Y-102250000D02*
X131266009Y-102059524D01*
X131266009Y-102059524D02*
X131218390Y-101964286D01*
X131218390Y-101964286D02*
X131170771Y-101916667D01*
X131170771Y-101916667D02*
X131075533Y-101869048D01*
X131075533Y-101869048D02*
X130980295Y-101869048D01*
X130980295Y-101869048D02*
X130885057Y-101916667D01*
X130885057Y-101916667D02*
X130837438Y-101964286D01*
X130837438Y-101964286D02*
X130789819Y-102059524D01*
X130789819Y-102059524D02*
X130789819Y-102297619D01*
X130789819Y-102297619D02*
X130837438Y-102440476D01*
X131266009Y-103202381D02*
X131313628Y-103345238D01*
X131313628Y-103345238D02*
X131361247Y-103392857D01*
X131361247Y-103392857D02*
X131456485Y-103440476D01*
X131456485Y-103440476D02*
X131599342Y-103440476D01*
X131599342Y-103440476D02*
X131694580Y-103392857D01*
X131694580Y-103392857D02*
X131742200Y-103345238D01*
X131742200Y-103345238D02*
X131789819Y-103250000D01*
X131789819Y-103250000D02*
X131789819Y-102869048D01*
X131789819Y-102869048D02*
X130789819Y-102869048D01*
X130789819Y-102869048D02*
X130789819Y-103202381D01*
X130789819Y-103202381D02*
X130837438Y-103297619D01*
X130837438Y-103297619D02*
X130885057Y-103345238D01*
X130885057Y-103345238D02*
X130980295Y-103392857D01*
X130980295Y-103392857D02*
X131075533Y-103392857D01*
X131075533Y-103392857D02*
X131170771Y-103345238D01*
X131170771Y-103345238D02*
X131218390Y-103297619D01*
X131218390Y-103297619D02*
X131266009Y-103202381D01*
X131266009Y-103202381D02*
X131266009Y-102869048D01*
X131408866Y-103869048D02*
X131408866Y-104630953D01*
X131694580Y-105678571D02*
X131742200Y-105630952D01*
X131742200Y-105630952D02*
X131789819Y-105488095D01*
X131789819Y-105488095D02*
X131789819Y-105392857D01*
X131789819Y-105392857D02*
X131742200Y-105250000D01*
X131742200Y-105250000D02*
X131646961Y-105154762D01*
X131646961Y-105154762D02*
X131551723Y-105107143D01*
X131551723Y-105107143D02*
X131361247Y-105059524D01*
X131361247Y-105059524D02*
X131218390Y-105059524D01*
X131218390Y-105059524D02*
X131027914Y-105107143D01*
X131027914Y-105107143D02*
X130932676Y-105154762D01*
X130932676Y-105154762D02*
X130837438Y-105250000D01*
X130837438Y-105250000D02*
X130789819Y-105392857D01*
X130789819Y-105392857D02*
X130789819Y-105488095D01*
X130789819Y-105488095D02*
X130837438Y-105630952D01*
X130837438Y-105630952D02*
X130885057Y-105678571D01*
X133399763Y-101916667D02*
X132399763Y-101916667D01*
X132399763Y-101916667D02*
X132399763Y-102297619D01*
X132399763Y-102297619D02*
X132447382Y-102392857D01*
X132447382Y-102392857D02*
X132495001Y-102440476D01*
X132495001Y-102440476D02*
X132590239Y-102488095D01*
X132590239Y-102488095D02*
X132733096Y-102488095D01*
X132733096Y-102488095D02*
X132828334Y-102440476D01*
X132828334Y-102440476D02*
X132875953Y-102392857D01*
X132875953Y-102392857D02*
X132923572Y-102297619D01*
X132923572Y-102297619D02*
X132923572Y-101916667D01*
X132399763Y-102821429D02*
X133399763Y-103059524D01*
X133399763Y-103059524D02*
X132685477Y-103250000D01*
X132685477Y-103250000D02*
X133399763Y-103440476D01*
X133399763Y-103440476D02*
X132399763Y-103678572D01*
X133399763Y-104630952D02*
X132923572Y-104297619D01*
X133399763Y-104059524D02*
X132399763Y-104059524D01*
X132399763Y-104059524D02*
X132399763Y-104440476D01*
X132399763Y-104440476D02*
X132447382Y-104535714D01*
X132447382Y-104535714D02*
X132495001Y-104583333D01*
X132495001Y-104583333D02*
X132590239Y-104630952D01*
X132590239Y-104630952D02*
X132733096Y-104630952D01*
X132733096Y-104630952D02*
X132828334Y-104583333D01*
X132828334Y-104583333D02*
X132875953Y-104535714D01*
X132875953Y-104535714D02*
X132923572Y-104440476D01*
X132923572Y-104440476D02*
X132923572Y-104059524D01*
X178622744Y-111804819D02*
X178432268Y-111804819D01*
X178432268Y-111804819D02*
X178337030Y-111852438D01*
X178337030Y-111852438D02*
X178241792Y-111947676D01*
X178241792Y-111947676D02*
X178194173Y-112138152D01*
X178194173Y-112138152D02*
X178194173Y-112471485D01*
X178194173Y-112471485D02*
X178241792Y-112661961D01*
X178241792Y-112661961D02*
X178337030Y-112757200D01*
X178337030Y-112757200D02*
X178432268Y-112804819D01*
X178432268Y-112804819D02*
X178622744Y-112804819D01*
X178622744Y-112804819D02*
X178717982Y-112757200D01*
X178717982Y-112757200D02*
X178813220Y-112661961D01*
X178813220Y-112661961D02*
X178860839Y-112471485D01*
X178860839Y-112471485D02*
X178860839Y-112138152D01*
X178860839Y-112138152D02*
X178813220Y-111947676D01*
X178813220Y-111947676D02*
X178717982Y-111852438D01*
X178717982Y-111852438D02*
X178622744Y-111804819D01*
X177765601Y-112138152D02*
X177765601Y-113138152D01*
X177765601Y-112185771D02*
X177670363Y-112138152D01*
X177670363Y-112138152D02*
X177479887Y-112138152D01*
X177479887Y-112138152D02*
X177384649Y-112185771D01*
X177384649Y-112185771D02*
X177337030Y-112233390D01*
X177337030Y-112233390D02*
X177289411Y-112328628D01*
X177289411Y-112328628D02*
X177289411Y-112614342D01*
X177289411Y-112614342D02*
X177337030Y-112709580D01*
X177337030Y-112709580D02*
X177384649Y-112757200D01*
X177384649Y-112757200D02*
X177479887Y-112804819D01*
X177479887Y-112804819D02*
X177670363Y-112804819D01*
X177670363Y-112804819D02*
X177765601Y-112757200D01*
X176479887Y-112757200D02*
X176575125Y-112804819D01*
X176575125Y-112804819D02*
X176765601Y-112804819D01*
X176765601Y-112804819D02*
X176860839Y-112757200D01*
X176860839Y-112757200D02*
X176908458Y-112661961D01*
X176908458Y-112661961D02*
X176908458Y-112281009D01*
X176908458Y-112281009D02*
X176860839Y-112185771D01*
X176860839Y-112185771D02*
X176765601Y-112138152D01*
X176765601Y-112138152D02*
X176575125Y-112138152D01*
X176575125Y-112138152D02*
X176479887Y-112185771D01*
X176479887Y-112185771D02*
X176432268Y-112281009D01*
X176432268Y-112281009D02*
X176432268Y-112376247D01*
X176432268Y-112376247D02*
X176908458Y-112471485D01*
X176003696Y-112138152D02*
X176003696Y-112804819D01*
X176003696Y-112233390D02*
X175956077Y-112185771D01*
X175956077Y-112185771D02*
X175860839Y-112138152D01*
X175860839Y-112138152D02*
X175717982Y-112138152D01*
X175717982Y-112138152D02*
X175622744Y-112185771D01*
X175622744Y-112185771D02*
X175575125Y-112281009D01*
X175575125Y-112281009D02*
X175575125Y-112804819D01*
X175146553Y-112757200D02*
X175003696Y-112804819D01*
X175003696Y-112804819D02*
X174765601Y-112804819D01*
X174765601Y-112804819D02*
X174670363Y-112757200D01*
X174670363Y-112757200D02*
X174622744Y-112709580D01*
X174622744Y-112709580D02*
X174575125Y-112614342D01*
X174575125Y-112614342D02*
X174575125Y-112519104D01*
X174575125Y-112519104D02*
X174622744Y-112423866D01*
X174622744Y-112423866D02*
X174670363Y-112376247D01*
X174670363Y-112376247D02*
X174765601Y-112328628D01*
X174765601Y-112328628D02*
X174956077Y-112281009D01*
X174956077Y-112281009D02*
X175051315Y-112233390D01*
X175051315Y-112233390D02*
X175098934Y-112185771D01*
X175098934Y-112185771D02*
X175146553Y-112090533D01*
X175146553Y-112090533D02*
X175146553Y-111995295D01*
X175146553Y-111995295D02*
X175098934Y-111900057D01*
X175098934Y-111900057D02*
X175051315Y-111852438D01*
X175051315Y-111852438D02*
X174956077Y-111804819D01*
X174956077Y-111804819D02*
X174717982Y-111804819D01*
X174717982Y-111804819D02*
X174575125Y-111852438D01*
X173765601Y-112757200D02*
X173860839Y-112804819D01*
X173860839Y-112804819D02*
X174051315Y-112804819D01*
X174051315Y-112804819D02*
X174146553Y-112757200D01*
X174146553Y-112757200D02*
X174194172Y-112661961D01*
X174194172Y-112661961D02*
X174194172Y-112281009D01*
X174194172Y-112281009D02*
X174146553Y-112185771D01*
X174146553Y-112185771D02*
X174051315Y-112138152D01*
X174051315Y-112138152D02*
X173860839Y-112138152D01*
X173860839Y-112138152D02*
X173765601Y-112185771D01*
X173765601Y-112185771D02*
X173717982Y-112281009D01*
X173717982Y-112281009D02*
X173717982Y-112376247D01*
X173717982Y-112376247D02*
X174194172Y-112471485D01*
X173289410Y-112804819D02*
X173289410Y-112138152D01*
X173289410Y-112328628D02*
X173241791Y-112233390D01*
X173241791Y-112233390D02*
X173194172Y-112185771D01*
X173194172Y-112185771D02*
X173098934Y-112138152D01*
X173098934Y-112138152D02*
X173003696Y-112138152D01*
X172765600Y-112138152D02*
X172527505Y-112804819D01*
X172527505Y-112804819D02*
X172289410Y-112138152D01*
X171765600Y-112804819D02*
X171860838Y-112757200D01*
X171860838Y-112757200D02*
X171908457Y-112709580D01*
X171908457Y-112709580D02*
X171956076Y-112614342D01*
X171956076Y-112614342D02*
X171956076Y-112328628D01*
X171956076Y-112328628D02*
X171908457Y-112233390D01*
X171908457Y-112233390D02*
X171860838Y-112185771D01*
X171860838Y-112185771D02*
X171765600Y-112138152D01*
X171765600Y-112138152D02*
X171622743Y-112138152D01*
X171622743Y-112138152D02*
X171527505Y-112185771D01*
X171527505Y-112185771D02*
X171479886Y-112233390D01*
X171479886Y-112233390D02*
X171432267Y-112328628D01*
X171432267Y-112328628D02*
X171432267Y-112614342D01*
X171432267Y-112614342D02*
X171479886Y-112709580D01*
X171479886Y-112709580D02*
X171527505Y-112757200D01*
X171527505Y-112757200D02*
X171622743Y-112804819D01*
X171622743Y-112804819D02*
X171765600Y-112804819D01*
X170432267Y-112709580D02*
X170479886Y-112757200D01*
X170479886Y-112757200D02*
X170622743Y-112804819D01*
X170622743Y-112804819D02*
X170717981Y-112804819D01*
X170717981Y-112804819D02*
X170860838Y-112757200D01*
X170860838Y-112757200D02*
X170956076Y-112661961D01*
X170956076Y-112661961D02*
X171003695Y-112566723D01*
X171003695Y-112566723D02*
X171051314Y-112376247D01*
X171051314Y-112376247D02*
X171051314Y-112233390D01*
X171051314Y-112233390D02*
X171003695Y-112042914D01*
X171003695Y-112042914D02*
X170956076Y-111947676D01*
X170956076Y-111947676D02*
X170860838Y-111852438D01*
X170860838Y-111852438D02*
X170717981Y-111804819D01*
X170717981Y-111804819D02*
X170622743Y-111804819D01*
X170622743Y-111804819D02*
X170479886Y-111852438D01*
X170479886Y-111852438D02*
X170432267Y-111900057D01*
X169860838Y-112804819D02*
X169956076Y-112757200D01*
X169956076Y-112757200D02*
X170003695Y-112709580D01*
X170003695Y-112709580D02*
X170051314Y-112614342D01*
X170051314Y-112614342D02*
X170051314Y-112328628D01*
X170051314Y-112328628D02*
X170003695Y-112233390D01*
X170003695Y-112233390D02*
X169956076Y-112185771D01*
X169956076Y-112185771D02*
X169860838Y-112138152D01*
X169860838Y-112138152D02*
X169717981Y-112138152D01*
X169717981Y-112138152D02*
X169622743Y-112185771D01*
X169622743Y-112185771D02*
X169575124Y-112233390D01*
X169575124Y-112233390D02*
X169527505Y-112328628D01*
X169527505Y-112328628D02*
X169527505Y-112614342D01*
X169527505Y-112614342D02*
X169575124Y-112709580D01*
X169575124Y-112709580D02*
X169622743Y-112757200D01*
X169622743Y-112757200D02*
X169717981Y-112804819D01*
X169717981Y-112804819D02*
X169860838Y-112804819D01*
X169098933Y-112804819D02*
X169098933Y-112138152D01*
X169098933Y-112328628D02*
X169051314Y-112233390D01*
X169051314Y-112233390D02*
X169003695Y-112185771D01*
X169003695Y-112185771D02*
X168908457Y-112138152D01*
X168908457Y-112138152D02*
X168813219Y-112138152D01*
X168098933Y-112757200D02*
X168194171Y-112804819D01*
X168194171Y-112804819D02*
X168384647Y-112804819D01*
X168384647Y-112804819D02*
X168479885Y-112757200D01*
X168479885Y-112757200D02*
X168527504Y-112661961D01*
X168527504Y-112661961D02*
X168527504Y-112281009D01*
X168527504Y-112281009D02*
X168479885Y-112185771D01*
X168479885Y-112185771D02*
X168384647Y-112138152D01*
X168384647Y-112138152D02*
X168194171Y-112138152D01*
X168194171Y-112138152D02*
X168098933Y-112185771D01*
X168098933Y-112185771D02*
X168051314Y-112281009D01*
X168051314Y-112281009D02*
X168051314Y-112376247D01*
X168051314Y-112376247D02*
X168527504Y-112471485D01*
X182409875Y-97064286D02*
X181409875Y-97064286D01*
X181886065Y-97064286D02*
X181886065Y-97635714D01*
X182409875Y-97635714D02*
X181409875Y-97635714D01*
X182409875Y-98111905D02*
X181409875Y-98111905D01*
X181409875Y-98111905D02*
X181409875Y-98350000D01*
X181409875Y-98350000D02*
X181457494Y-98492857D01*
X181457494Y-98492857D02*
X181552732Y-98588095D01*
X181552732Y-98588095D02*
X181647970Y-98635714D01*
X181647970Y-98635714D02*
X181838446Y-98683333D01*
X181838446Y-98683333D02*
X181981303Y-98683333D01*
X181981303Y-98683333D02*
X182171779Y-98635714D01*
X182171779Y-98635714D02*
X182267017Y-98588095D01*
X182267017Y-98588095D02*
X182362256Y-98492857D01*
X182362256Y-98492857D02*
X182409875Y-98350000D01*
X182409875Y-98350000D02*
X182409875Y-98111905D01*
X182409875Y-99683333D02*
X181933684Y-99350000D01*
X182409875Y-99111905D02*
X181409875Y-99111905D01*
X181409875Y-99111905D02*
X181409875Y-99492857D01*
X181409875Y-99492857D02*
X181457494Y-99588095D01*
X181457494Y-99588095D02*
X181505113Y-99635714D01*
X181505113Y-99635714D02*
X181600351Y-99683333D01*
X181600351Y-99683333D02*
X181743208Y-99683333D01*
X181743208Y-99683333D02*
X181838446Y-99635714D01*
X181838446Y-99635714D02*
X181886065Y-99588095D01*
X181886065Y-99588095D02*
X181933684Y-99492857D01*
X181933684Y-99492857D02*
X181933684Y-99111905D01*
X183115057Y-96611905D02*
X183067438Y-96659524D01*
X183067438Y-96659524D02*
X183019819Y-96754762D01*
X183019819Y-96754762D02*
X183019819Y-96992857D01*
X183019819Y-96992857D02*
X183067438Y-97088095D01*
X183067438Y-97088095D02*
X183115057Y-97135714D01*
X183115057Y-97135714D02*
X183210295Y-97183333D01*
X183210295Y-97183333D02*
X183305533Y-97183333D01*
X183305533Y-97183333D02*
X183448390Y-97135714D01*
X183448390Y-97135714D02*
X184019819Y-96564286D01*
X184019819Y-96564286D02*
X184019819Y-97183333D01*
X183019819Y-97516667D02*
X184019819Y-98183333D01*
X183019819Y-98183333D02*
X184019819Y-97516667D01*
X183019819Y-98469048D02*
X183019819Y-99088095D01*
X183019819Y-99088095D02*
X183400771Y-98754762D01*
X183400771Y-98754762D02*
X183400771Y-98897619D01*
X183400771Y-98897619D02*
X183448390Y-98992857D01*
X183448390Y-98992857D02*
X183496009Y-99040476D01*
X183496009Y-99040476D02*
X183591247Y-99088095D01*
X183591247Y-99088095D02*
X183829342Y-99088095D01*
X183829342Y-99088095D02*
X183924580Y-99040476D01*
X183924580Y-99040476D02*
X183972200Y-98992857D01*
X183972200Y-98992857D02*
X184019819Y-98897619D01*
X184019819Y-98897619D02*
X184019819Y-98611905D01*
X184019819Y-98611905D02*
X183972200Y-98516667D01*
X183972200Y-98516667D02*
X183924580Y-98469048D01*
X184019819Y-99516667D02*
X183019819Y-99516667D01*
X183019819Y-99516667D02*
X183019819Y-99897619D01*
X183019819Y-99897619D02*
X183067438Y-99992857D01*
X183067438Y-99992857D02*
X183115057Y-100040476D01*
X183115057Y-100040476D02*
X183210295Y-100088095D01*
X183210295Y-100088095D02*
X183353152Y-100088095D01*
X183353152Y-100088095D02*
X183448390Y-100040476D01*
X183448390Y-100040476D02*
X183496009Y-99992857D01*
X183496009Y-99992857D02*
X183543628Y-99897619D01*
X183543628Y-99897619D02*
X183543628Y-99516667D01*
X130789819Y-62154762D02*
X130789819Y-62726190D01*
X131789819Y-62440476D02*
X130789819Y-62440476D01*
X131266009Y-63059524D02*
X131266009Y-63392857D01*
X131789819Y-63535714D02*
X131789819Y-63059524D01*
X131789819Y-63059524D02*
X130789819Y-63059524D01*
X130789819Y-63059524D02*
X130789819Y-63535714D01*
X131789819Y-64535714D02*
X131313628Y-64202381D01*
X131789819Y-63964286D02*
X130789819Y-63964286D01*
X130789819Y-63964286D02*
X130789819Y-64345238D01*
X130789819Y-64345238D02*
X130837438Y-64440476D01*
X130837438Y-64440476D02*
X130885057Y-64488095D01*
X130885057Y-64488095D02*
X130980295Y-64535714D01*
X130980295Y-64535714D02*
X131123152Y-64535714D01*
X131123152Y-64535714D02*
X131218390Y-64488095D01*
X131218390Y-64488095D02*
X131266009Y-64440476D01*
X131266009Y-64440476D02*
X131313628Y-64345238D01*
X131313628Y-64345238D02*
X131313628Y-63964286D01*
X131789819Y-64964286D02*
X130789819Y-64964286D01*
X130789819Y-64964286D02*
X131504104Y-65297619D01*
X131504104Y-65297619D02*
X130789819Y-65630952D01*
X130789819Y-65630952D02*
X131789819Y-65630952D01*
X131408866Y-66107143D02*
X131408866Y-66869048D01*
X130789819Y-67821428D02*
X130789819Y-67345238D01*
X130789819Y-67345238D02*
X131266009Y-67297619D01*
X131266009Y-67297619D02*
X131218390Y-67345238D01*
X131218390Y-67345238D02*
X131170771Y-67440476D01*
X131170771Y-67440476D02*
X131170771Y-67678571D01*
X131170771Y-67678571D02*
X131218390Y-67773809D01*
X131218390Y-67773809D02*
X131266009Y-67821428D01*
X131266009Y-67821428D02*
X131361247Y-67869047D01*
X131361247Y-67869047D02*
X131599342Y-67869047D01*
X131599342Y-67869047D02*
X131694580Y-67821428D01*
X131694580Y-67821428D02*
X131742200Y-67773809D01*
X131742200Y-67773809D02*
X131789819Y-67678571D01*
X131789819Y-67678571D02*
X131789819Y-67440476D01*
X131789819Y-67440476D02*
X131742200Y-67345238D01*
X131742200Y-67345238D02*
X131694580Y-67297619D01*
X131694580Y-68297619D02*
X131742200Y-68345238D01*
X131742200Y-68345238D02*
X131789819Y-68297619D01*
X131789819Y-68297619D02*
X131742200Y-68250000D01*
X131742200Y-68250000D02*
X131694580Y-68297619D01*
X131694580Y-68297619D02*
X131789819Y-68297619D01*
X130789819Y-68964285D02*
X130789819Y-69059523D01*
X130789819Y-69059523D02*
X130837438Y-69154761D01*
X130837438Y-69154761D02*
X130885057Y-69202380D01*
X130885057Y-69202380D02*
X130980295Y-69249999D01*
X130980295Y-69249999D02*
X131170771Y-69297618D01*
X131170771Y-69297618D02*
X131408866Y-69297618D01*
X131408866Y-69297618D02*
X131599342Y-69249999D01*
X131599342Y-69249999D02*
X131694580Y-69202380D01*
X131694580Y-69202380D02*
X131742200Y-69154761D01*
X131742200Y-69154761D02*
X131789819Y-69059523D01*
X131789819Y-69059523D02*
X131789819Y-68964285D01*
X131789819Y-68964285D02*
X131742200Y-68869047D01*
X131742200Y-68869047D02*
X131694580Y-68821428D01*
X131694580Y-68821428D02*
X131599342Y-68773809D01*
X131599342Y-68773809D02*
X131408866Y-68726190D01*
X131408866Y-68726190D02*
X131170771Y-68726190D01*
X131170771Y-68726190D02*
X130980295Y-68773809D01*
X130980295Y-68773809D02*
X130885057Y-68821428D01*
X130885057Y-68821428D02*
X130837438Y-68869047D01*
X130837438Y-68869047D02*
X130789819Y-68964285D01*
X131218390Y-69869047D02*
X131170771Y-69773809D01*
X131170771Y-69773809D02*
X131123152Y-69726190D01*
X131123152Y-69726190D02*
X131027914Y-69678571D01*
X131027914Y-69678571D02*
X130980295Y-69678571D01*
X130980295Y-69678571D02*
X130885057Y-69726190D01*
X130885057Y-69726190D02*
X130837438Y-69773809D01*
X130837438Y-69773809D02*
X130789819Y-69869047D01*
X130789819Y-69869047D02*
X130789819Y-70059523D01*
X130789819Y-70059523D02*
X130837438Y-70154761D01*
X130837438Y-70154761D02*
X130885057Y-70202380D01*
X130885057Y-70202380D02*
X130980295Y-70249999D01*
X130980295Y-70249999D02*
X131027914Y-70249999D01*
X131027914Y-70249999D02*
X131123152Y-70202380D01*
X131123152Y-70202380D02*
X131170771Y-70154761D01*
X131170771Y-70154761D02*
X131218390Y-70059523D01*
X131218390Y-70059523D02*
X131218390Y-69869047D01*
X131218390Y-69869047D02*
X131266009Y-69773809D01*
X131266009Y-69773809D02*
X131313628Y-69726190D01*
X131313628Y-69726190D02*
X131408866Y-69678571D01*
X131408866Y-69678571D02*
X131599342Y-69678571D01*
X131599342Y-69678571D02*
X131694580Y-69726190D01*
X131694580Y-69726190D02*
X131742200Y-69773809D01*
X131742200Y-69773809D02*
X131789819Y-69869047D01*
X131789819Y-69869047D02*
X131789819Y-70059523D01*
X131789819Y-70059523D02*
X131742200Y-70154761D01*
X131742200Y-70154761D02*
X131694580Y-70202380D01*
X131694580Y-70202380D02*
X131599342Y-70249999D01*
X131599342Y-70249999D02*
X131408866Y-70249999D01*
X131408866Y-70249999D02*
X131313628Y-70202380D01*
X131313628Y-70202380D02*
X131266009Y-70154761D01*
X131266009Y-70154761D02*
X131218390Y-70059523D01*
X132495001Y-65464286D02*
X132447382Y-65511905D01*
X132447382Y-65511905D02*
X132399763Y-65607143D01*
X132399763Y-65607143D02*
X132399763Y-65845238D01*
X132399763Y-65845238D02*
X132447382Y-65940476D01*
X132447382Y-65940476D02*
X132495001Y-65988095D01*
X132495001Y-65988095D02*
X132590239Y-66035714D01*
X132590239Y-66035714D02*
X132685477Y-66035714D01*
X132685477Y-66035714D02*
X132828334Y-65988095D01*
X132828334Y-65988095D02*
X133399763Y-65416667D01*
X133399763Y-65416667D02*
X133399763Y-66035714D01*
X133399763Y-66464286D02*
X132399763Y-66464286D01*
X132399763Y-66464286D02*
X132399763Y-66845238D01*
X132399763Y-66845238D02*
X132447382Y-66940476D01*
X132447382Y-66940476D02*
X132495001Y-66988095D01*
X132495001Y-66988095D02*
X132590239Y-67035714D01*
X132590239Y-67035714D02*
X132733096Y-67035714D01*
X132733096Y-67035714D02*
X132828334Y-66988095D01*
X132828334Y-66988095D02*
X132875953Y-66940476D01*
X132875953Y-66940476D02*
X132923572Y-66845238D01*
X132923572Y-66845238D02*
X132923572Y-66464286D01*
G36*
X162905571Y-79105198D02*
G01*
X162945503Y-79145130D01*
X162989285Y-79232694D01*
X162989285Y-79482998D01*
X162945503Y-79570562D01*
X162905572Y-79610492D01*
X162818009Y-79654274D01*
X162624847Y-79654274D01*
X162537283Y-79610492D01*
X162497353Y-79570562D01*
X162453571Y-79482998D01*
X162453571Y-79232694D01*
X162497353Y-79145130D01*
X162537284Y-79105198D01*
X162624847Y-79061417D01*
X162818009Y-79061417D01*
X162905571Y-79105198D01*
G37*
G36*
X165134143Y-78648055D02*
G01*
X165174073Y-78687986D01*
X165222091Y-78784022D01*
X165274999Y-78995652D01*
X165274999Y-79262897D01*
X165222091Y-79474527D01*
X165174073Y-79570562D01*
X165134143Y-79610492D01*
X165046580Y-79654274D01*
X164967703Y-79654274D01*
X164880140Y-79610493D01*
X164840210Y-79570562D01*
X164792192Y-79474526D01*
X164739285Y-79262897D01*
X164739285Y-78995651D01*
X164792192Y-78784022D01*
X164840210Y-78687986D01*
X164880140Y-78648055D01*
X164967704Y-78604274D01*
X165046580Y-78604274D01*
X165134143Y-78648055D01*
G37*
G36*
X168932142Y-79032769D02*
G01*
X168932142Y-79625779D01*
X168875152Y-79654274D01*
X168681989Y-79654274D01*
X168594426Y-79610493D01*
X168554496Y-79570562D01*
X168510714Y-79482998D01*
X168510714Y-79175551D01*
X168554496Y-79087986D01*
X168594426Y-79048055D01*
X168681990Y-79004274D01*
X168875152Y-79004274D01*
X168932142Y-79032769D01*
G37*
G36*
X169979811Y-79042318D02*
G01*
X170017856Y-79118408D01*
X170017856Y-79237788D01*
X169596428Y-79153503D01*
X169596428Y-79118407D01*
X169634471Y-79042318D01*
X169710561Y-79004274D01*
X169903723Y-79004274D01*
X169979811Y-79042318D01*
G37*
G36*
X164362714Y-77116123D02*
G01*
X164402646Y-77156055D01*
X164446428Y-77243619D01*
X164446428Y-77551066D01*
X164402646Y-77638630D01*
X164362715Y-77678560D01*
X164275152Y-77722342D01*
X164081990Y-77722342D01*
X164025000Y-77693847D01*
X164025000Y-77100837D01*
X164081990Y-77072342D01*
X164275152Y-77072342D01*
X164362714Y-77116123D01*
G37*
G36*
X165859315Y-77407282D02*
G01*
X165873047Y-77412537D01*
X165875734Y-77412727D01*
X165878224Y-77413759D01*
X165892856Y-77415200D01*
X166160866Y-77415200D01*
X166236954Y-77453243D01*
X166274999Y-77529333D01*
X166274999Y-77608209D01*
X166236954Y-77684298D01*
X166160866Y-77722342D01*
X165910561Y-77722342D01*
X165853571Y-77693847D01*
X165853571Y-77404409D01*
X165859315Y-77407282D01*
G37*
G36*
X167276999Y-77116123D02*
G01*
X167316931Y-77156055D01*
X167360713Y-77243619D01*
X167360713Y-77551066D01*
X167316931Y-77638630D01*
X167277000Y-77678560D01*
X167189437Y-77722342D01*
X167053417Y-77722342D01*
X166965854Y-77678561D01*
X166925924Y-77638630D01*
X166882142Y-77551066D01*
X166882142Y-77243619D01*
X166925924Y-77156054D01*
X166965854Y-77116123D01*
X167053418Y-77072342D01*
X167189437Y-77072342D01*
X167276999Y-77116123D01*
G37*
G36*
X168503570Y-77722342D02*
G01*
X168139132Y-77722342D01*
X168051568Y-77678560D01*
X168011638Y-77638630D01*
X167967856Y-77551066D01*
X167967856Y-77415047D01*
X168011637Y-77327484D01*
X168047656Y-77291465D01*
X168190740Y-77243771D01*
X168503570Y-77243771D01*
X168503570Y-77722342D01*
G37*
G36*
X168503570Y-77093771D02*
G01*
X168196275Y-77093771D01*
X168108712Y-77049989D01*
X168068780Y-77010057D01*
X168024999Y-76922494D01*
X168024999Y-76843619D01*
X168068781Y-76756055D01*
X168108712Y-76716123D01*
X168196275Y-76672342D01*
X168503570Y-76672342D01*
X168503570Y-77093771D01*
G37*
G36*
X171379811Y-77110386D02*
G01*
X171417856Y-77186476D01*
X171417856Y-77305856D01*
X170996428Y-77221571D01*
X170996428Y-77186475D01*
X171034471Y-77110386D01*
X171110561Y-77072342D01*
X171303723Y-77072342D01*
X171379811Y-77110386D01*
G37*
G36*
X172560713Y-77722342D02*
G01*
X172362169Y-77722342D01*
X172219084Y-77674647D01*
X172125924Y-77581487D01*
X172077906Y-77485451D01*
X172024999Y-77273822D01*
X172024999Y-77120862D01*
X172077906Y-76909233D01*
X172125924Y-76813197D01*
X172219084Y-76720036D01*
X172362169Y-76672342D01*
X172560713Y-76672342D01*
X172560713Y-77722342D01*
G37*
G36*
X171846426Y-75168905D02*
G01*
X171846426Y-75761915D01*
X171789436Y-75790410D01*
X171596273Y-75790410D01*
X171508710Y-75746629D01*
X171468780Y-75706698D01*
X171424998Y-75619134D01*
X171424998Y-75311687D01*
X171468780Y-75224122D01*
X171508710Y-75184191D01*
X171596274Y-75140410D01*
X171789436Y-75140410D01*
X171846426Y-75168905D01*
G37*
G36*
X160722669Y-75178454D02*
G01*
X160760714Y-75254544D01*
X160760714Y-75373924D01*
X160339286Y-75289639D01*
X160339286Y-75254543D01*
X160377329Y-75178454D01*
X160453419Y-75140410D01*
X160646581Y-75140410D01*
X160722669Y-75178454D01*
G37*
G36*
X162505571Y-75184191D02*
G01*
X162545503Y-75224123D01*
X162589285Y-75311687D01*
X162589285Y-75619134D01*
X162545503Y-75706698D01*
X162505572Y-75746628D01*
X162418009Y-75790410D01*
X162281989Y-75790410D01*
X162194426Y-75746629D01*
X162154496Y-75706698D01*
X162110714Y-75619134D01*
X162110714Y-75311687D01*
X162154496Y-75224122D01*
X162194426Y-75184191D01*
X162281990Y-75140410D01*
X162418009Y-75140410D01*
X162505571Y-75184191D01*
G37*
G36*
X164791285Y-75184191D02*
G01*
X164831217Y-75224123D01*
X164874999Y-75311687D01*
X164874999Y-75619134D01*
X164831217Y-75706698D01*
X164791286Y-75746628D01*
X164703723Y-75790410D01*
X164567703Y-75790410D01*
X164480140Y-75746629D01*
X164440210Y-75706698D01*
X164396428Y-75619134D01*
X164396428Y-75311687D01*
X164440210Y-75224122D01*
X164480140Y-75184191D01*
X164567704Y-75140410D01*
X164703723Y-75140410D01*
X164791285Y-75184191D01*
G37*
G36*
X167522668Y-75178454D02*
G01*
X167560713Y-75254544D01*
X167560713Y-75373924D01*
X167139285Y-75289639D01*
X167139285Y-75254543D01*
X167177328Y-75178454D01*
X167253418Y-75140410D01*
X167446580Y-75140410D01*
X167522668Y-75178454D01*
G37*
G36*
X170779810Y-75178454D02*
G01*
X170817855Y-75254544D01*
X170817855Y-75373924D01*
X170396427Y-75289639D01*
X170396427Y-75254543D01*
X170434470Y-75178454D01*
X170510560Y-75140410D01*
X170703722Y-75140410D01*
X170779810Y-75178454D01*
G37*
G36*
X173019856Y-74784191D02*
G01*
X173110846Y-74875182D01*
X173160712Y-75074645D01*
X173160712Y-75456175D01*
X173110846Y-75655638D01*
X173019857Y-75746628D01*
X172932293Y-75790410D01*
X172739131Y-75790410D01*
X172651567Y-75746628D01*
X172560577Y-75655638D01*
X172510712Y-75456176D01*
X172510712Y-75074644D01*
X172560577Y-74875182D01*
X172651568Y-74784191D01*
X172739131Y-74740410D01*
X172932293Y-74740410D01*
X173019856Y-74784191D01*
G37*
G36*
X173444045Y-79937607D02*
G01*
X160055953Y-79937607D01*
X160055953Y-79214989D01*
X162303571Y-79214989D01*
X162303571Y-79500703D01*
X162305012Y-79515335D01*
X162306043Y-79517824D01*
X162306234Y-79520512D01*
X162311489Y-79534244D01*
X162368632Y-79648530D01*
X162372595Y-79654826D01*
X162373354Y-79656657D01*
X162375045Y-79658718D01*
X162376465Y-79660973D01*
X162377960Y-79662270D01*
X162382681Y-79668022D01*
X162439824Y-79725165D01*
X162445573Y-79729883D01*
X162446873Y-79731382D01*
X162449132Y-79732803D01*
X162451189Y-79734492D01*
X162453016Y-79735249D01*
X162459316Y-79739214D01*
X162573601Y-79796356D01*
X162587333Y-79801611D01*
X162590020Y-79801801D01*
X162592510Y-79802833D01*
X162607142Y-79804274D01*
X162835714Y-79804274D01*
X162850346Y-79802833D01*
X162852835Y-79801801D01*
X162855523Y-79801611D01*
X162869255Y-79796356D01*
X162983540Y-79739214D01*
X162989837Y-79735249D01*
X162991667Y-79734492D01*
X162993726Y-79732801D01*
X162995982Y-79731382D01*
X162997279Y-79729885D01*
X163003032Y-79725165D01*
X163060175Y-79668022D01*
X163064893Y-79662272D01*
X163066392Y-79660973D01*
X163067813Y-79658713D01*
X163069502Y-79656657D01*
X163070259Y-79654829D01*
X163074224Y-79648530D01*
X163131367Y-79534244D01*
X163136622Y-79520512D01*
X163136812Y-79517824D01*
X163137844Y-79515335D01*
X163139285Y-79500703D01*
X163139285Y-79043560D01*
X163139033Y-79041010D01*
X163139197Y-79039915D01*
X163138385Y-79034430D01*
X163137844Y-79028928D01*
X163137421Y-79027907D01*
X163137046Y-79025370D01*
X163079903Y-78796799D01*
X163076822Y-78788176D01*
X163076463Y-78786360D01*
X163075584Y-78784712D01*
X163074956Y-78782953D01*
X163073852Y-78781464D01*
X163069546Y-78773386D01*
X163059186Y-78757846D01*
X163446428Y-78757846D01*
X163446428Y-78872132D01*
X163447157Y-78879537D01*
X163447017Y-78881512D01*
X163447607Y-78884109D01*
X163447869Y-78886764D01*
X163448627Y-78888595D01*
X163450277Y-78895849D01*
X163507420Y-79067277D01*
X163513414Y-79080703D01*
X163515180Y-79082739D01*
X163516211Y-79085228D01*
X163525538Y-79096593D01*
X164083219Y-79654274D01*
X163521428Y-79654274D01*
X163506796Y-79655715D01*
X163479760Y-79666914D01*
X163459068Y-79687606D01*
X163447869Y-79714642D01*
X163447869Y-79743906D01*
X163459068Y-79770942D01*
X163479760Y-79791634D01*
X163506796Y-79802833D01*
X163521428Y-79804274D01*
X164264285Y-79804274D01*
X164278917Y-79802833D01*
X164305953Y-79791634D01*
X164326645Y-79770942D01*
X164337844Y-79743906D01*
X164337844Y-79714642D01*
X164326645Y-79687606D01*
X164317318Y-79676241D01*
X163644122Y-79003045D01*
X163638579Y-78986417D01*
X164589285Y-78986417D01*
X164589285Y-79272132D01*
X164589536Y-79274685D01*
X164589374Y-79275778D01*
X164590183Y-79281251D01*
X164590726Y-79286764D01*
X164591148Y-79287785D01*
X164591524Y-79290322D01*
X164648667Y-79518894D01*
X164649052Y-79519973D01*
X164649091Y-79520512D01*
X164651415Y-79526587D01*
X164653614Y-79532739D01*
X164653936Y-79533174D01*
X164654346Y-79534244D01*
X164711489Y-79648530D01*
X164715451Y-79654824D01*
X164716210Y-79656656D01*
X164717903Y-79658718D01*
X164719322Y-79660973D01*
X164720817Y-79662269D01*
X164725538Y-79668022D01*
X164782680Y-79725165D01*
X164788432Y-79729885D01*
X164789730Y-79731382D01*
X164791985Y-79732801D01*
X164794045Y-79734492D01*
X164795874Y-79735249D01*
X164802172Y-79739214D01*
X164916458Y-79796356D01*
X164930190Y-79801611D01*
X164932877Y-79801801D01*
X164935367Y-79802833D01*
X164949999Y-79804274D01*
X165064285Y-79804274D01*
X165078917Y-79802833D01*
X165081406Y-79801801D01*
X165084094Y-79801611D01*
X165097826Y-79796356D01*
X165212111Y-79739214D01*
X165218408Y-79735250D01*
X165220239Y-79734492D01*
X165222299Y-79732801D01*
X165224554Y-79731382D01*
X165225851Y-79729885D01*
X165231604Y-79725165D01*
X165288747Y-79668021D01*
X165293464Y-79662272D01*
X165294963Y-79660973D01*
X165296384Y-79658714D01*
X165298074Y-79656656D01*
X165298831Y-79654826D01*
X165302795Y-79648530D01*
X165359938Y-79534244D01*
X165360347Y-79533174D01*
X165360670Y-79532739D01*
X165362865Y-79526593D01*
X165365193Y-79520512D01*
X165365231Y-79519972D01*
X165365617Y-79518893D01*
X165422760Y-79290322D01*
X165423135Y-79287784D01*
X165423558Y-79286764D01*
X165424099Y-79281261D01*
X165424911Y-79275777D01*
X165424747Y-79274681D01*
X165424999Y-79272132D01*
X165424999Y-78986417D01*
X165424747Y-78983867D01*
X165424911Y-78982772D01*
X165424099Y-78977287D01*
X165423558Y-78971785D01*
X165423135Y-78970764D01*
X165422760Y-78968227D01*
X165370165Y-78757846D01*
X165732142Y-78757846D01*
X165732142Y-78872132D01*
X165732871Y-78879537D01*
X165732731Y-78881512D01*
X165733321Y-78884109D01*
X165733583Y-78886764D01*
X165734341Y-78888595D01*
X165735991Y-78895849D01*
X165793134Y-79067277D01*
X165799128Y-79080703D01*
X165800894Y-79082739D01*
X165801925Y-79085228D01*
X165811252Y-79096593D01*
X166368933Y-79654274D01*
X165807142Y-79654274D01*
X165792510Y-79655715D01*
X165765474Y-79666914D01*
X165744782Y-79687606D01*
X165733583Y-79714642D01*
X165733583Y-79743906D01*
X165744782Y-79770942D01*
X165765474Y-79791634D01*
X165792510Y-79802833D01*
X165807142Y-79804274D01*
X166549999Y-79804274D01*
X166564631Y-79802833D01*
X166591667Y-79791634D01*
X166612359Y-79770942D01*
X166623558Y-79743906D01*
X166623558Y-79714642D01*
X166612359Y-79687606D01*
X166603032Y-79676241D01*
X166584292Y-79657501D01*
X167790726Y-79657501D01*
X167790726Y-79686764D01*
X167801925Y-79713800D01*
X167811252Y-79725165D01*
X167868396Y-79782308D01*
X167879761Y-79791635D01*
X167895598Y-79798194D01*
X167906796Y-79802833D01*
X167906797Y-79802833D01*
X167936060Y-79802833D01*
X167947258Y-79798194D01*
X167963095Y-79791635D01*
X167974461Y-79782307D01*
X168031604Y-79725165D01*
X168040931Y-79713800D01*
X168052130Y-79686764D01*
X168052130Y-79657501D01*
X168051780Y-79656657D01*
X168047491Y-79646302D01*
X168040932Y-79630465D01*
X168040931Y-79630464D01*
X168031604Y-79619099D01*
X167974461Y-79561956D01*
X167963096Y-79552629D01*
X167959393Y-79551095D01*
X167936060Y-79541430D01*
X167936059Y-79541430D01*
X167906796Y-79541430D01*
X167879760Y-79552629D01*
X167868395Y-79561956D01*
X167811252Y-79619099D01*
X167801925Y-79630464D01*
X167801924Y-79630465D01*
X167790726Y-79657501D01*
X166584292Y-79657501D01*
X166084637Y-79157846D01*
X168360714Y-79157846D01*
X168360714Y-79500703D01*
X168362155Y-79515335D01*
X168363186Y-79517824D01*
X168363377Y-79520512D01*
X168368632Y-79534244D01*
X168425775Y-79648530D01*
X168429737Y-79654824D01*
X168430496Y-79656656D01*
X168432189Y-79658718D01*
X168433608Y-79660973D01*
X168435103Y-79662269D01*
X168439824Y-79668022D01*
X168496966Y-79725165D01*
X168502718Y-79729885D01*
X168504016Y-79731382D01*
X168506271Y-79732801D01*
X168508331Y-79734492D01*
X168510160Y-79735249D01*
X168516458Y-79739214D01*
X168630744Y-79796356D01*
X168644476Y-79801611D01*
X168647163Y-79801801D01*
X168649653Y-79802833D01*
X168664285Y-79804274D01*
X168892857Y-79804274D01*
X168907489Y-79802833D01*
X168909978Y-79801801D01*
X168912666Y-79801611D01*
X168926398Y-79796356D01*
X168955596Y-79781756D01*
X168965474Y-79791634D01*
X168992510Y-79802833D01*
X169021774Y-79802833D01*
X169048810Y-79791634D01*
X169069502Y-79770942D01*
X169080701Y-79743906D01*
X169082142Y-79729274D01*
X169082142Y-79100703D01*
X169446428Y-79100703D01*
X169446428Y-79214989D01*
X169447869Y-79229621D01*
X169450680Y-79236409D01*
X169452107Y-79243618D01*
X169456226Y-79249797D01*
X169459068Y-79256657D01*
X169464263Y-79261852D01*
X169468339Y-79267966D01*
X169474509Y-79272098D01*
X169479760Y-79277349D01*
X169486548Y-79280160D01*
X169492654Y-79284250D01*
X169506719Y-79288533D01*
X170017856Y-79390758D01*
X170017856Y-79540141D01*
X169979811Y-79616230D01*
X169903723Y-79654274D01*
X169710560Y-79654274D01*
X169612111Y-79605050D01*
X169598379Y-79599795D01*
X169569189Y-79597721D01*
X169541428Y-79606975D01*
X169519320Y-79626149D01*
X169506233Y-79652323D01*
X169504159Y-79681513D01*
X169513413Y-79709274D01*
X169532587Y-79731382D01*
X169545029Y-79739214D01*
X169659315Y-79796356D01*
X169673047Y-79801611D01*
X169675734Y-79801801D01*
X169678224Y-79802833D01*
X169692856Y-79804274D01*
X169921428Y-79804274D01*
X169936060Y-79802833D01*
X169938549Y-79801801D01*
X169941237Y-79801611D01*
X169954969Y-79796356D01*
X170069254Y-79739214D01*
X170071700Y-79737673D01*
X170072855Y-79737289D01*
X170074292Y-79736042D01*
X170081696Y-79731382D01*
X170087855Y-79724279D01*
X170094963Y-79718116D01*
X170099624Y-79710710D01*
X170100870Y-79709274D01*
X170101254Y-79708120D01*
X170102795Y-79705673D01*
X170159938Y-79591387D01*
X170165193Y-79577655D01*
X170165383Y-79574967D01*
X170166415Y-79572478D01*
X170167856Y-79557846D01*
X170167856Y-79100703D01*
X170166415Y-79086071D01*
X170165383Y-79083581D01*
X170165193Y-79080894D01*
X170159938Y-79067162D01*
X170102795Y-78952876D01*
X170101256Y-78950431D01*
X170100871Y-78949275D01*
X170099622Y-78947834D01*
X170094963Y-78940433D01*
X170087857Y-78934270D01*
X170081697Y-78927168D01*
X170074293Y-78922507D01*
X170072855Y-78921260D01*
X170071700Y-78920875D01*
X170069254Y-78919335D01*
X169954969Y-78862192D01*
X169941238Y-78856937D01*
X169938548Y-78856745D01*
X169936060Y-78855715D01*
X169921428Y-78854274D01*
X169692856Y-78854274D01*
X169678224Y-78855715D01*
X169675734Y-78856746D01*
X169673047Y-78856937D01*
X169659315Y-78862192D01*
X169545029Y-78919335D01*
X169542582Y-78920874D01*
X169541427Y-78921260D01*
X169539988Y-78922507D01*
X169532586Y-78927167D01*
X169526423Y-78934273D01*
X169519320Y-78940434D01*
X169514660Y-78947836D01*
X169513413Y-78949275D01*
X169513027Y-78950430D01*
X169511488Y-78952877D01*
X169454346Y-79067162D01*
X169449091Y-79080894D01*
X169448900Y-79083581D01*
X169447869Y-79086071D01*
X169446428Y-79100703D01*
X169082142Y-79100703D01*
X169082142Y-78529274D01*
X169080701Y-78514642D01*
X170419297Y-78514642D01*
X170419297Y-78543906D01*
X170430496Y-78570942D01*
X170451188Y-78591634D01*
X170478224Y-78602833D01*
X170492856Y-78604274D01*
X170989284Y-78604274D01*
X170989284Y-79025703D01*
X170664284Y-79025703D01*
X170649652Y-79027144D01*
X170622616Y-79038343D01*
X170601924Y-79059035D01*
X170590725Y-79086071D01*
X170590725Y-79115335D01*
X170601924Y-79142371D01*
X170622616Y-79163063D01*
X170649652Y-79174262D01*
X170664284Y-79175703D01*
X170989284Y-79175703D01*
X170989284Y-79729274D01*
X170990725Y-79743906D01*
X171001924Y-79770942D01*
X171022616Y-79791634D01*
X171049652Y-79802833D01*
X171078916Y-79802833D01*
X171105952Y-79791634D01*
X171126644Y-79770942D01*
X171137843Y-79743906D01*
X171139284Y-79729274D01*
X171139284Y-78529274D01*
X171137843Y-78514642D01*
X171126644Y-78487606D01*
X171105952Y-78466914D01*
X171078916Y-78455715D01*
X171064284Y-78454274D01*
X170492856Y-78454274D01*
X170478224Y-78455715D01*
X170451188Y-78466914D01*
X170430496Y-78487606D01*
X170419297Y-78514642D01*
X169080701Y-78514642D01*
X169069502Y-78487606D01*
X169048810Y-78466914D01*
X169021774Y-78455715D01*
X168992510Y-78455715D01*
X168965474Y-78466914D01*
X168944782Y-78487606D01*
X168933583Y-78514642D01*
X168932142Y-78529274D01*
X168932142Y-78865064D01*
X168926398Y-78862192D01*
X168912667Y-78856937D01*
X168909977Y-78856745D01*
X168907489Y-78855715D01*
X168892857Y-78854274D01*
X168664285Y-78854274D01*
X168649653Y-78855715D01*
X168647163Y-78856746D01*
X168644476Y-78856937D01*
X168630744Y-78862192D01*
X168516458Y-78919335D01*
X168510158Y-78923299D01*
X168508331Y-78924057D01*
X168506274Y-78925745D01*
X168504015Y-78927167D01*
X168502715Y-78928665D01*
X168496966Y-78933384D01*
X168439824Y-78990527D01*
X168435103Y-78996279D01*
X168433608Y-78997576D01*
X168432189Y-78999830D01*
X168430496Y-79001893D01*
X168429737Y-79003724D01*
X168425775Y-79010019D01*
X168368632Y-79124305D01*
X168363377Y-79138037D01*
X168363186Y-79140724D01*
X168362155Y-79143214D01*
X168360714Y-79157846D01*
X166084637Y-79157846D01*
X165929836Y-79003045D01*
X165882142Y-78859961D01*
X165882142Y-78775551D01*
X165925924Y-78687987D01*
X165965855Y-78648055D01*
X166053418Y-78604274D01*
X166303723Y-78604274D01*
X166391285Y-78648055D01*
X166439823Y-78696593D01*
X166451188Y-78705920D01*
X166478224Y-78717119D01*
X166507487Y-78717119D01*
X166534523Y-78705920D01*
X166555216Y-78685227D01*
X166566415Y-78658191D01*
X166566415Y-78628928D01*
X166555216Y-78601892D01*
X166545889Y-78590527D01*
X166488746Y-78533384D01*
X166482994Y-78528663D01*
X166481697Y-78527168D01*
X166479442Y-78525748D01*
X166477381Y-78524057D01*
X166475550Y-78523298D01*
X166469254Y-78519335D01*
X166354969Y-78462192D01*
X166341238Y-78456937D01*
X166338548Y-78456745D01*
X166336060Y-78455715D01*
X166321428Y-78454274D01*
X166035713Y-78454274D01*
X166021081Y-78455715D01*
X166018591Y-78456746D01*
X166015904Y-78456937D01*
X166002172Y-78462192D01*
X165887887Y-78519335D01*
X165881590Y-78523298D01*
X165879760Y-78524057D01*
X165877698Y-78525748D01*
X165875444Y-78527168D01*
X165874147Y-78528663D01*
X165868395Y-78533384D01*
X165811252Y-78590527D01*
X165806531Y-78596278D01*
X165805036Y-78597576D01*
X165803616Y-78599830D01*
X165801925Y-78601892D01*
X165801166Y-78603722D01*
X165797203Y-78610019D01*
X165740060Y-78724305D01*
X165734805Y-78738037D01*
X165734614Y-78740724D01*
X165733583Y-78743214D01*
X165732142Y-78757846D01*
X165370165Y-78757846D01*
X165365617Y-78739656D01*
X165365231Y-78738576D01*
X165365193Y-78738037D01*
X165362865Y-78731955D01*
X165360670Y-78725810D01*
X165360347Y-78725374D01*
X165359938Y-78724305D01*
X165302795Y-78610019D01*
X165298831Y-78603722D01*
X165298074Y-78601893D01*
X165296384Y-78599834D01*
X165294963Y-78597576D01*
X165293464Y-78596276D01*
X165288747Y-78590528D01*
X165231604Y-78533384D01*
X165225852Y-78528663D01*
X165224555Y-78527168D01*
X165222300Y-78525748D01*
X165220239Y-78524057D01*
X165218408Y-78523298D01*
X165212112Y-78519335D01*
X165097826Y-78462192D01*
X165084094Y-78456937D01*
X165081406Y-78456746D01*
X165078917Y-78455715D01*
X165064285Y-78454274D01*
X164949999Y-78454274D01*
X164935367Y-78455715D01*
X164932877Y-78456746D01*
X164930190Y-78456937D01*
X164916458Y-78462192D01*
X164802172Y-78519335D01*
X164795872Y-78523299D01*
X164794045Y-78524057D01*
X164791988Y-78525745D01*
X164789729Y-78527167D01*
X164788429Y-78528665D01*
X164782680Y-78533384D01*
X164725538Y-78590527D01*
X164720817Y-78596279D01*
X164719322Y-78597576D01*
X164717903Y-78599830D01*
X164716210Y-78601893D01*
X164715451Y-78603724D01*
X164711489Y-78610019D01*
X164654346Y-78724305D01*
X164653936Y-78725374D01*
X164653614Y-78725810D01*
X164651415Y-78731961D01*
X164649091Y-78738037D01*
X164649052Y-78738575D01*
X164648667Y-78739655D01*
X164591524Y-78968227D01*
X164591148Y-78970763D01*
X164590726Y-78971785D01*
X164590183Y-78977297D01*
X164589374Y-78982771D01*
X164589536Y-78983863D01*
X164589285Y-78986417D01*
X163638579Y-78986417D01*
X163596428Y-78859961D01*
X163596428Y-78775551D01*
X163640210Y-78687987D01*
X163680141Y-78648055D01*
X163767704Y-78604274D01*
X164018009Y-78604274D01*
X164105571Y-78648055D01*
X164154109Y-78696593D01*
X164165474Y-78705920D01*
X164192510Y-78717119D01*
X164221773Y-78717119D01*
X164248809Y-78705920D01*
X164269502Y-78685227D01*
X164280701Y-78658191D01*
X164280701Y-78628928D01*
X164269502Y-78601892D01*
X164260175Y-78590527D01*
X164203032Y-78533384D01*
X164197280Y-78528663D01*
X164195983Y-78527168D01*
X164193728Y-78525748D01*
X164191667Y-78524057D01*
X164189836Y-78523298D01*
X164183540Y-78519335D01*
X164069255Y-78462192D01*
X164055524Y-78456937D01*
X164052834Y-78456745D01*
X164050346Y-78455715D01*
X164035714Y-78454274D01*
X163749999Y-78454274D01*
X163735367Y-78455715D01*
X163732877Y-78456746D01*
X163730190Y-78456937D01*
X163716458Y-78462192D01*
X163602173Y-78519335D01*
X163595876Y-78523298D01*
X163594046Y-78524057D01*
X163591984Y-78525748D01*
X163589730Y-78527168D01*
X163588433Y-78528663D01*
X163582681Y-78533384D01*
X163525538Y-78590527D01*
X163520817Y-78596278D01*
X163519322Y-78597576D01*
X163517902Y-78599830D01*
X163516211Y-78601892D01*
X163515452Y-78603722D01*
X163511489Y-78610019D01*
X163454346Y-78724305D01*
X163449091Y-78738037D01*
X163448900Y-78740724D01*
X163447869Y-78743214D01*
X163446428Y-78757846D01*
X163059186Y-78757846D01*
X162955261Y-78601958D01*
X162955227Y-78601916D01*
X162955217Y-78601892D01*
X162950674Y-78596356D01*
X162945946Y-78590582D01*
X162945921Y-78590565D01*
X162945890Y-78590527D01*
X162888747Y-78533384D01*
X162882995Y-78528663D01*
X162881698Y-78527168D01*
X162879443Y-78525748D01*
X162877382Y-78524057D01*
X162875551Y-78523298D01*
X162869255Y-78519335D01*
X162754969Y-78462192D01*
X162741237Y-78456937D01*
X162738549Y-78456746D01*
X162736060Y-78455715D01*
X162721428Y-78454274D01*
X162492857Y-78454274D01*
X162478225Y-78455715D01*
X162451189Y-78466914D01*
X162430497Y-78487606D01*
X162419298Y-78514642D01*
X162419298Y-78543906D01*
X162430497Y-78570942D01*
X162451189Y-78591634D01*
X162478225Y-78602833D01*
X162492857Y-78604274D01*
X162703723Y-78604274D01*
X162791287Y-78648056D01*
X162834572Y-78691341D01*
X162937531Y-78845781D01*
X162968300Y-78968858D01*
X162869255Y-78919335D01*
X162855524Y-78914080D01*
X162852834Y-78913888D01*
X162850346Y-78912858D01*
X162835714Y-78911417D01*
X162607142Y-78911417D01*
X162592510Y-78912858D01*
X162590020Y-78913889D01*
X162587333Y-78914080D01*
X162573601Y-78919335D01*
X162459316Y-78976478D01*
X162453019Y-78980441D01*
X162451189Y-78981200D01*
X162449127Y-78982891D01*
X162446873Y-78984311D01*
X162445576Y-78985806D01*
X162439824Y-78990527D01*
X162382681Y-79047670D01*
X162377960Y-79053421D01*
X162376465Y-79054719D01*
X162375045Y-79056973D01*
X162373354Y-79059035D01*
X162372595Y-79060865D01*
X162368632Y-79067162D01*
X162311489Y-79181448D01*
X162306234Y-79195180D01*
X162306043Y-79197867D01*
X162305012Y-79200357D01*
X162303571Y-79214989D01*
X160055953Y-79214989D01*
X160055953Y-77782710D01*
X160733584Y-77782710D01*
X160733584Y-77811974D01*
X160744783Y-77839010D01*
X160765475Y-77859702D01*
X160792511Y-77870901D01*
X160807143Y-77872342D01*
X161492857Y-77872342D01*
X161507489Y-77870901D01*
X161534525Y-77859702D01*
X161555217Y-77839010D01*
X161566416Y-77811974D01*
X161566416Y-77782710D01*
X161555217Y-77755674D01*
X161534525Y-77734982D01*
X161507489Y-77723783D01*
X161492857Y-77722342D01*
X161225000Y-77722342D01*
X161225000Y-76835551D01*
X161325538Y-76936090D01*
X161331287Y-76940808D01*
X161332587Y-76942307D01*
X161334846Y-76943728D01*
X161336903Y-76945417D01*
X161338730Y-76946174D01*
X161345030Y-76950139D01*
X161459316Y-77007282D01*
X161473048Y-77012537D01*
X161502238Y-77014611D01*
X161529999Y-77005357D01*
X161552107Y-76986184D01*
X161565194Y-76960009D01*
X161567268Y-76930819D01*
X161558015Y-76903058D01*
X161538841Y-76880951D01*
X161526398Y-76873118D01*
X161422998Y-76821418D01*
X161322572Y-76720991D01*
X161246393Y-76606722D01*
X161761303Y-76606722D01*
X161764563Y-76621059D01*
X162164563Y-77821059D01*
X162170557Y-77834484D01*
X162174067Y-77838531D01*
X162176464Y-77843325D01*
X162183569Y-77849488D01*
X162189731Y-77856592D01*
X162194522Y-77858987D01*
X162198571Y-77862499D01*
X162207494Y-77865473D01*
X162215904Y-77869678D01*
X162221248Y-77870057D01*
X162226334Y-77871753D01*
X162235714Y-77871086D01*
X162245094Y-77871753D01*
X162250179Y-77870057D01*
X162255524Y-77869678D01*
X162263933Y-77865473D01*
X162272857Y-77862499D01*
X162276905Y-77858987D01*
X162281697Y-77856592D01*
X162287859Y-77849487D01*
X162294964Y-77843325D01*
X162297359Y-77838533D01*
X162300871Y-77834485D01*
X162306865Y-77821059D01*
X162706865Y-76621059D01*
X162710125Y-76606722D01*
X162709458Y-76597342D01*
X163875000Y-76597342D01*
X163875000Y-77797342D01*
X163876441Y-77811974D01*
X163887640Y-77839010D01*
X163908332Y-77859702D01*
X163935368Y-77870901D01*
X163964632Y-77870901D01*
X163991668Y-77859702D01*
X164001545Y-77849824D01*
X164030744Y-77864424D01*
X164044476Y-77869679D01*
X164047163Y-77869869D01*
X164049653Y-77870901D01*
X164064285Y-77872342D01*
X164292857Y-77872342D01*
X164307489Y-77870901D01*
X164309978Y-77869869D01*
X164312666Y-77869679D01*
X164326398Y-77864424D01*
X164440683Y-77807282D01*
X164446980Y-77803317D01*
X164448810Y-77802560D01*
X164450869Y-77800869D01*
X164453125Y-77799450D01*
X164454422Y-77797953D01*
X164460175Y-77793233D01*
X164517318Y-77736090D01*
X164522036Y-77730340D01*
X164523535Y-77729041D01*
X164524956Y-77726781D01*
X164526645Y-77724725D01*
X164527402Y-77722897D01*
X164531367Y-77716598D01*
X164588510Y-77602312D01*
X164593765Y-77588580D01*
X164593955Y-77585892D01*
X164594987Y-77583403D01*
X164596428Y-77568771D01*
X164596428Y-77225914D01*
X164594987Y-77211282D01*
X164593955Y-77208792D01*
X164593765Y-77206105D01*
X164588510Y-77192373D01*
X164531367Y-77078087D01*
X164527402Y-77071787D01*
X164526645Y-77069960D01*
X164524956Y-77067903D01*
X164523535Y-77065644D01*
X164522036Y-77064344D01*
X164517318Y-77058595D01*
X164460175Y-77001452D01*
X164454423Y-76996731D01*
X164453126Y-76995236D01*
X164450871Y-76993816D01*
X164448810Y-76992125D01*
X164446979Y-76991366D01*
X164440683Y-76987403D01*
X164431297Y-76982710D01*
X164790726Y-76982710D01*
X164790726Y-77011974D01*
X164801925Y-77039010D01*
X164822617Y-77059702D01*
X164849653Y-77070901D01*
X164864285Y-77072342D01*
X164960866Y-77072342D01*
X165048429Y-77116123D01*
X165088359Y-77156054D01*
X165132142Y-77243619D01*
X165132142Y-77797342D01*
X165133583Y-77811974D01*
X165144782Y-77839010D01*
X165165474Y-77859702D01*
X165192510Y-77870901D01*
X165221774Y-77870901D01*
X165248810Y-77859702D01*
X165269502Y-77839010D01*
X165280701Y-77811974D01*
X165282142Y-77797342D01*
X165282142Y-77168771D01*
X165703571Y-77168771D01*
X165703571Y-77797342D01*
X165705012Y-77811974D01*
X165716211Y-77839010D01*
X165736903Y-77859702D01*
X165763939Y-77870901D01*
X165793203Y-77870901D01*
X165820239Y-77859702D01*
X165830116Y-77849824D01*
X165859315Y-77864424D01*
X165873047Y-77869679D01*
X165875734Y-77869869D01*
X165878224Y-77870901D01*
X165892856Y-77872342D01*
X166178571Y-77872342D01*
X166193203Y-77870901D01*
X166195692Y-77869869D01*
X166198380Y-77869679D01*
X166212112Y-77864424D01*
X166326397Y-77807282D01*
X166328843Y-77805741D01*
X166329998Y-77805357D01*
X166331435Y-77804110D01*
X166338839Y-77799450D01*
X166344998Y-77792347D01*
X166352106Y-77786184D01*
X166356767Y-77778778D01*
X166358013Y-77777342D01*
X166358397Y-77776188D01*
X166359938Y-77773741D01*
X166417081Y-77659455D01*
X166422336Y-77645723D01*
X166422526Y-77643035D01*
X166423558Y-77640546D01*
X166424999Y-77625914D01*
X166424999Y-77511628D01*
X166423558Y-77496996D01*
X166422526Y-77494506D01*
X166422336Y-77491819D01*
X166417081Y-77478087D01*
X166359938Y-77363801D01*
X166358397Y-77361353D01*
X166358013Y-77360200D01*
X166356767Y-77358763D01*
X166352106Y-77351358D01*
X166344998Y-77345194D01*
X166338839Y-77338092D01*
X166331435Y-77333431D01*
X166329998Y-77332185D01*
X166328843Y-77331800D01*
X166326397Y-77330260D01*
X166212112Y-77273118D01*
X166198380Y-77267863D01*
X166195692Y-77267672D01*
X166193203Y-77266641D01*
X166178571Y-77265200D01*
X165910561Y-77265200D01*
X165853571Y-77236704D01*
X165853571Y-77225914D01*
X166732142Y-77225914D01*
X166732142Y-77568771D01*
X166733583Y-77583403D01*
X166734614Y-77585892D01*
X166734805Y-77588580D01*
X166740060Y-77602312D01*
X166797203Y-77716598D01*
X166801165Y-77722892D01*
X166801924Y-77724724D01*
X166803617Y-77726786D01*
X166805036Y-77729041D01*
X166806531Y-77730337D01*
X166811252Y-77736090D01*
X166868394Y-77793233D01*
X166874146Y-77797953D01*
X166875444Y-77799450D01*
X166877699Y-77800869D01*
X166879759Y-77802560D01*
X166881588Y-77803317D01*
X166887886Y-77807282D01*
X167002172Y-77864424D01*
X167015904Y-77869679D01*
X167018591Y-77869869D01*
X167021081Y-77870901D01*
X167035713Y-77872342D01*
X167207142Y-77872342D01*
X167221774Y-77870901D01*
X167224263Y-77869869D01*
X167226951Y-77869679D01*
X167240683Y-77864424D01*
X167354968Y-77807282D01*
X167361265Y-77803317D01*
X167363095Y-77802560D01*
X167365154Y-77800869D01*
X167367410Y-77799450D01*
X167368707Y-77797953D01*
X167374460Y-77793233D01*
X167431603Y-77736090D01*
X167436321Y-77730340D01*
X167437820Y-77729041D01*
X167439241Y-77726781D01*
X167440930Y-77724725D01*
X167441687Y-77722897D01*
X167445652Y-77716598D01*
X167502795Y-77602312D01*
X167508050Y-77588580D01*
X167508240Y-77585892D01*
X167509272Y-77583403D01*
X167510713Y-77568771D01*
X167510713Y-77397342D01*
X167817856Y-77397342D01*
X167817856Y-77568771D01*
X167819297Y-77583403D01*
X167820328Y-77585892D01*
X167820519Y-77588580D01*
X167825774Y-77602312D01*
X167882917Y-77716598D01*
X167886880Y-77722894D01*
X167887639Y-77724725D01*
X167889330Y-77726786D01*
X167890750Y-77729041D01*
X167892245Y-77730338D01*
X167896966Y-77736090D01*
X167954109Y-77793233D01*
X167959858Y-77797951D01*
X167961158Y-77799450D01*
X167963417Y-77800871D01*
X167965474Y-77802560D01*
X167967301Y-77803317D01*
X167973601Y-77807282D01*
X168087886Y-77864424D01*
X168101618Y-77869679D01*
X168104305Y-77869869D01*
X168106795Y-77870901D01*
X168121427Y-77872342D01*
X168578570Y-77872342D01*
X168593202Y-77870901D01*
X168620238Y-77859702D01*
X168640930Y-77839010D01*
X168652129Y-77811974D01*
X168653570Y-77797342D01*
X168653570Y-77008303D01*
X169875804Y-77008303D01*
X169879368Y-77022567D01*
X170165083Y-77822567D01*
X170171362Y-77835862D01*
X170173888Y-77838652D01*
X170175500Y-77842055D01*
X170183636Y-77849420D01*
X170191002Y-77857557D01*
X170194404Y-77859168D01*
X170197194Y-77861694D01*
X170207526Y-77865384D01*
X170217448Y-77870084D01*
X170221208Y-77870270D01*
X170224753Y-77871537D01*
X170235710Y-77870991D01*
X170246675Y-77871537D01*
X170250222Y-77870269D01*
X170253981Y-77870083D01*
X170263896Y-77865385D01*
X170274234Y-77861694D01*
X170277025Y-77859167D01*
X170280427Y-77857556D01*
X170287789Y-77849423D01*
X170295929Y-77842055D01*
X170297541Y-77838650D01*
X170300066Y-77835862D01*
X170306345Y-77822567D01*
X170539843Y-77168771D01*
X170846428Y-77168771D01*
X170846428Y-77283057D01*
X170847869Y-77297689D01*
X170850680Y-77304477D01*
X170852107Y-77311686D01*
X170856226Y-77317865D01*
X170859068Y-77324725D01*
X170864263Y-77329920D01*
X170868339Y-77336034D01*
X170874509Y-77340166D01*
X170879760Y-77345417D01*
X170886548Y-77348228D01*
X170892654Y-77352318D01*
X170906719Y-77356601D01*
X171417856Y-77458826D01*
X171417856Y-77608209D01*
X171379811Y-77684298D01*
X171303723Y-77722342D01*
X171110560Y-77722342D01*
X171012111Y-77673118D01*
X170998379Y-77667863D01*
X170969189Y-77665789D01*
X170941428Y-77675043D01*
X170919320Y-77694217D01*
X170906233Y-77720391D01*
X170904159Y-77749581D01*
X170913413Y-77777342D01*
X170932587Y-77799450D01*
X170945029Y-77807282D01*
X171059315Y-77864424D01*
X171073047Y-77869679D01*
X171075734Y-77869869D01*
X171078224Y-77870901D01*
X171092856Y-77872342D01*
X171321428Y-77872342D01*
X171336060Y-77870901D01*
X171338549Y-77869869D01*
X171341237Y-77869679D01*
X171354969Y-77864424D01*
X171469254Y-77807282D01*
X171471700Y-77805741D01*
X171472855Y-77805357D01*
X171474292Y-77804110D01*
X171481696Y-77799450D01*
X171487855Y-77792347D01*
X171494963Y-77786184D01*
X171499624Y-77778778D01*
X171500870Y-77777342D01*
X171501254Y-77776188D01*
X171502795Y-77773741D01*
X171559938Y-77659455D01*
X171565193Y-77645723D01*
X171565383Y-77643035D01*
X171566415Y-77640546D01*
X171567856Y-77625914D01*
X171567856Y-77168771D01*
X171566415Y-77154139D01*
X171565383Y-77151649D01*
X171565193Y-77148962D01*
X171559938Y-77135230D01*
X171548137Y-77111628D01*
X171874999Y-77111628D01*
X171874999Y-77283057D01*
X171875250Y-77285610D01*
X171875088Y-77286703D01*
X171875897Y-77292176D01*
X171876440Y-77297689D01*
X171876862Y-77298710D01*
X171877238Y-77301247D01*
X171934381Y-77529819D01*
X171934766Y-77530898D01*
X171934805Y-77531437D01*
X171937129Y-77537512D01*
X171939328Y-77543664D01*
X171939650Y-77544099D01*
X171940060Y-77545169D01*
X171997203Y-77659455D01*
X172001165Y-77665749D01*
X172001924Y-77667581D01*
X172003617Y-77669643D01*
X172005036Y-77671898D01*
X172006531Y-77673194D01*
X172011252Y-77678947D01*
X172125537Y-77793233D01*
X172136902Y-77802560D01*
X172139392Y-77803591D01*
X172141428Y-77805357D01*
X172154853Y-77811351D01*
X172326283Y-77868493D01*
X172333534Y-77870142D01*
X172335367Y-77870901D01*
X172338022Y-77871162D01*
X172340619Y-77871753D01*
X172342593Y-77871612D01*
X172349999Y-77872342D01*
X172635713Y-77872342D01*
X172650345Y-77870901D01*
X172677381Y-77859702D01*
X172698073Y-77839010D01*
X172709272Y-77811974D01*
X172710713Y-77797342D01*
X172710713Y-76597342D01*
X172709272Y-76582710D01*
X172698073Y-76555674D01*
X172677381Y-76534982D01*
X172650345Y-76523783D01*
X172635713Y-76522342D01*
X172349999Y-76522342D01*
X172342593Y-76523071D01*
X172340619Y-76522931D01*
X172338021Y-76523521D01*
X172335367Y-76523783D01*
X172333535Y-76524541D01*
X172326282Y-76526191D01*
X172154853Y-76583334D01*
X172141427Y-76589328D01*
X172139390Y-76591094D01*
X172136902Y-76592125D01*
X172125537Y-76601452D01*
X172011252Y-76715738D01*
X172006531Y-76721490D01*
X172005036Y-76722787D01*
X172003617Y-76725041D01*
X172001924Y-76727104D01*
X172001165Y-76728935D01*
X171997203Y-76735230D01*
X171940060Y-76849516D01*
X171939650Y-76850585D01*
X171939328Y-76851021D01*
X171937129Y-76857172D01*
X171934805Y-76863248D01*
X171934766Y-76863786D01*
X171934381Y-76864866D01*
X171877238Y-77093438D01*
X171876862Y-77095974D01*
X171876440Y-77096996D01*
X171875897Y-77102508D01*
X171875088Y-77107982D01*
X171875250Y-77109074D01*
X171874999Y-77111628D01*
X171548137Y-77111628D01*
X171502795Y-77020944D01*
X171501256Y-77018499D01*
X171500871Y-77017343D01*
X171499622Y-77015902D01*
X171494963Y-77008501D01*
X171487857Y-77002338D01*
X171481697Y-76995236D01*
X171474293Y-76990575D01*
X171472855Y-76989328D01*
X171471700Y-76988943D01*
X171469254Y-76987403D01*
X171354969Y-76930260D01*
X171341238Y-76925005D01*
X171338548Y-76924813D01*
X171336060Y-76923783D01*
X171321428Y-76922342D01*
X171092856Y-76922342D01*
X171078224Y-76923783D01*
X171075734Y-76924814D01*
X171073047Y-76925005D01*
X171059315Y-76930260D01*
X170945029Y-76987403D01*
X170942582Y-76988942D01*
X170941427Y-76989328D01*
X170939988Y-76990575D01*
X170932586Y-76995235D01*
X170926423Y-77002341D01*
X170919320Y-77008502D01*
X170914660Y-77015904D01*
X170913413Y-77017343D01*
X170913027Y-77018498D01*
X170911488Y-77020945D01*
X170854346Y-77135230D01*
X170849091Y-77148962D01*
X170848900Y-77151649D01*
X170847869Y-77154139D01*
X170846428Y-77168771D01*
X170539843Y-77168771D01*
X170592059Y-77022567D01*
X170595623Y-77008303D01*
X170594170Y-76979075D01*
X170581643Y-76952629D01*
X170559948Y-76932989D01*
X170532389Y-76923147D01*
X170503162Y-76924600D01*
X170476716Y-76937127D01*
X170457076Y-76958821D01*
X170450798Y-76972116D01*
X170235713Y-77574350D01*
X170020630Y-76972117D01*
X170014351Y-76958822D01*
X169994712Y-76937128D01*
X169968266Y-76924600D01*
X169939038Y-76923147D01*
X169911479Y-76932990D01*
X169889785Y-76952629D01*
X169877257Y-76979075D01*
X169875804Y-77008303D01*
X168653570Y-77008303D01*
X168653570Y-76597342D01*
X168652129Y-76582710D01*
X168640930Y-76555674D01*
X168620238Y-76534982D01*
X168593202Y-76523783D01*
X168578570Y-76522342D01*
X168178570Y-76522342D01*
X168163938Y-76523783D01*
X168161448Y-76524814D01*
X168158761Y-76525005D01*
X168145029Y-76530260D01*
X168030744Y-76587403D01*
X168024447Y-76591366D01*
X168022617Y-76592125D01*
X168020555Y-76593816D01*
X168018301Y-76595236D01*
X168017004Y-76596731D01*
X168011252Y-76601452D01*
X167954109Y-76658595D01*
X167949388Y-76664346D01*
X167947893Y-76665644D01*
X167946473Y-76667898D01*
X167944782Y-76669960D01*
X167944023Y-76671790D01*
X167940060Y-76678087D01*
X167882917Y-76792373D01*
X167877662Y-76806105D01*
X167877471Y-76808792D01*
X167876440Y-76811282D01*
X167874999Y-76825914D01*
X167874999Y-76940200D01*
X167876440Y-76954832D01*
X167877470Y-76957320D01*
X167877662Y-76960010D01*
X167882917Y-76973741D01*
X167940060Y-77088026D01*
X167944023Y-77094322D01*
X167944782Y-77096153D01*
X167946473Y-77098214D01*
X167947893Y-77100469D01*
X167949388Y-77101766D01*
X167954109Y-77107518D01*
X167996871Y-77150280D01*
X167983425Y-77154763D01*
X167969999Y-77160757D01*
X167967962Y-77162523D01*
X167965474Y-77163554D01*
X167954109Y-77172881D01*
X167896966Y-77230024D01*
X167892245Y-77235775D01*
X167890750Y-77237073D01*
X167889330Y-77239327D01*
X167887639Y-77241389D01*
X167886880Y-77243219D01*
X167882917Y-77249516D01*
X167825774Y-77363801D01*
X167820519Y-77377532D01*
X167820327Y-77380221D01*
X167819297Y-77382710D01*
X167817856Y-77397342D01*
X167510713Y-77397342D01*
X167510713Y-77225914D01*
X167509272Y-77211282D01*
X167508240Y-77208792D01*
X167508050Y-77206105D01*
X167502795Y-77192373D01*
X167445652Y-77078087D01*
X167441687Y-77071787D01*
X167440930Y-77069960D01*
X167439241Y-77067903D01*
X167437820Y-77065644D01*
X167436321Y-77064344D01*
X167431603Y-77058595D01*
X167374460Y-77001452D01*
X167368708Y-76996731D01*
X167367411Y-76995236D01*
X167365156Y-76993816D01*
X167363095Y-76992125D01*
X167361264Y-76991366D01*
X167354968Y-76987403D01*
X167240683Y-76930260D01*
X167226952Y-76925005D01*
X167224262Y-76924813D01*
X167221774Y-76923783D01*
X167207142Y-76922342D01*
X167035713Y-76922342D01*
X167021081Y-76923783D01*
X167018591Y-76924814D01*
X167015904Y-76925005D01*
X167002172Y-76930260D01*
X166887886Y-76987403D01*
X166881586Y-76991367D01*
X166879759Y-76992125D01*
X166877702Y-76993813D01*
X166875443Y-76995235D01*
X166874143Y-76996733D01*
X166868394Y-77001452D01*
X166811252Y-77058595D01*
X166806531Y-77064347D01*
X166805036Y-77065644D01*
X166803617Y-77067898D01*
X166801924Y-77069961D01*
X166801165Y-77071792D01*
X166797203Y-77078087D01*
X166740060Y-77192373D01*
X166734805Y-77206105D01*
X166734614Y-77208792D01*
X166733583Y-77211282D01*
X166732142Y-77225914D01*
X165853571Y-77225914D01*
X165853571Y-77186475D01*
X165891614Y-77110386D01*
X165967704Y-77072342D01*
X166160866Y-77072342D01*
X166259315Y-77121567D01*
X166273047Y-77126822D01*
X166302237Y-77128896D01*
X166329998Y-77119642D01*
X166352106Y-77100469D01*
X166365193Y-77074295D01*
X166367267Y-77045105D01*
X166358014Y-77017343D01*
X166338840Y-76995236D01*
X166326397Y-76987403D01*
X166212112Y-76930260D01*
X166198381Y-76925005D01*
X166195691Y-76924813D01*
X166193203Y-76923783D01*
X166178571Y-76922342D01*
X165949999Y-76922342D01*
X165935367Y-76923783D01*
X165932877Y-76924814D01*
X165930190Y-76925005D01*
X165916458Y-76930260D01*
X165802172Y-76987403D01*
X165799725Y-76988942D01*
X165798570Y-76989328D01*
X165797131Y-76990575D01*
X165789729Y-76995235D01*
X165783566Y-77002341D01*
X165776463Y-77008502D01*
X165771803Y-77015904D01*
X165770556Y-77017343D01*
X165770170Y-77018498D01*
X165768631Y-77020945D01*
X165711489Y-77135230D01*
X165706234Y-77148962D01*
X165706043Y-77151649D01*
X165705012Y-77154139D01*
X165703571Y-77168771D01*
X165282142Y-77168771D01*
X165282142Y-76997342D01*
X165280701Y-76982710D01*
X165269502Y-76955674D01*
X165248810Y-76934982D01*
X165221774Y-76923783D01*
X165192510Y-76923783D01*
X165165474Y-76934982D01*
X165144782Y-76955674D01*
X165133583Y-76982710D01*
X165132729Y-76991381D01*
X165132694Y-76991366D01*
X165126398Y-76987403D01*
X165012112Y-76930260D01*
X164998380Y-76925005D01*
X164995692Y-76924814D01*
X164993203Y-76923783D01*
X164978571Y-76922342D01*
X164864285Y-76922342D01*
X164849653Y-76923783D01*
X164822617Y-76934982D01*
X164801925Y-76955674D01*
X164790726Y-76982710D01*
X164431297Y-76982710D01*
X164326398Y-76930260D01*
X164312667Y-76925005D01*
X164309977Y-76924813D01*
X164307489Y-76923783D01*
X164292857Y-76922342D01*
X164064285Y-76922342D01*
X164049653Y-76923783D01*
X164047163Y-76924814D01*
X164044476Y-76925005D01*
X164030744Y-76930260D01*
X164025000Y-76933132D01*
X164025000Y-76597342D01*
X164023559Y-76582710D01*
X164012360Y-76555674D01*
X163991668Y-76534982D01*
X163964632Y-76523783D01*
X163935368Y-76523783D01*
X163908332Y-76534982D01*
X163887640Y-76555674D01*
X163876441Y-76582710D01*
X163875000Y-76597342D01*
X162709458Y-76597342D01*
X162708050Y-76577532D01*
X162694964Y-76551359D01*
X162672857Y-76532185D01*
X162645094Y-76522931D01*
X162615904Y-76525006D01*
X162589731Y-76538092D01*
X162570557Y-76560200D01*
X162564563Y-76573625D01*
X162235714Y-77560172D01*
X161906865Y-76573625D01*
X161900871Y-76560199D01*
X161881697Y-76538092D01*
X161855524Y-76525006D01*
X161826334Y-76522931D01*
X161798571Y-76532185D01*
X161776464Y-76551359D01*
X161763378Y-76577532D01*
X161761303Y-76606722D01*
X161246393Y-76606722D01*
X161212404Y-76555739D01*
X161212369Y-76555696D01*
X161212360Y-76555674D01*
X161212308Y-76555622D01*
X161203088Y-76544364D01*
X161196918Y-76540232D01*
X161191668Y-76534982D01*
X161184878Y-76532169D01*
X161178773Y-76528081D01*
X161171492Y-76526624D01*
X161164632Y-76523783D01*
X161157284Y-76523783D01*
X161150079Y-76522342D01*
X161142795Y-76523783D01*
X161135368Y-76523783D01*
X161128579Y-76526595D01*
X161121371Y-76528021D01*
X161115192Y-76532140D01*
X161108332Y-76534982D01*
X161103136Y-76540177D01*
X161097022Y-76544254D01*
X161092890Y-76550423D01*
X161087640Y-76555674D01*
X161084827Y-76562463D01*
X161080739Y-76568569D01*
X161079282Y-76575849D01*
X161076441Y-76582710D01*
X161075015Y-76597186D01*
X161075000Y-76597263D01*
X161075005Y-76597289D01*
X161075000Y-76597342D01*
X161075000Y-77722342D01*
X160807143Y-77722342D01*
X160792511Y-77723783D01*
X160765475Y-77734982D01*
X160744783Y-77755674D01*
X160733584Y-77782710D01*
X160055953Y-77782710D01*
X160055953Y-75236839D01*
X160189286Y-75236839D01*
X160189286Y-75351125D01*
X160190727Y-75365757D01*
X160193538Y-75372545D01*
X160194965Y-75379754D01*
X160199084Y-75385933D01*
X160201926Y-75392793D01*
X160207121Y-75397988D01*
X160211197Y-75404102D01*
X160217367Y-75408234D01*
X160222618Y-75413485D01*
X160229406Y-75416296D01*
X160235512Y-75420386D01*
X160249577Y-75424669D01*
X160760714Y-75526894D01*
X160760714Y-75676277D01*
X160722669Y-75752366D01*
X160646581Y-75790410D01*
X160453418Y-75790410D01*
X160354969Y-75741186D01*
X160341237Y-75735931D01*
X160312047Y-75733857D01*
X160284286Y-75743111D01*
X160262178Y-75762285D01*
X160249091Y-75788459D01*
X160247017Y-75817649D01*
X160256271Y-75845410D01*
X160275445Y-75867518D01*
X160287887Y-75875350D01*
X160402173Y-75932492D01*
X160415905Y-75937747D01*
X160418592Y-75937937D01*
X160421082Y-75938969D01*
X160435714Y-75940410D01*
X160664286Y-75940410D01*
X160678918Y-75938969D01*
X160681407Y-75937937D01*
X160684095Y-75937747D01*
X160697827Y-75932492D01*
X160812112Y-75875350D01*
X160814558Y-75873809D01*
X160815713Y-75873425D01*
X160817150Y-75872178D01*
X160824554Y-75867518D01*
X160830713Y-75860415D01*
X160837821Y-75854252D01*
X160842482Y-75846846D01*
X160843728Y-75845410D01*
X160844112Y-75844256D01*
X160845653Y-75841809D01*
X160902796Y-75727523D01*
X160908051Y-75713791D01*
X160908241Y-75711103D01*
X160909273Y-75708614D01*
X160910714Y-75693982D01*
X160910714Y-75236839D01*
X160909273Y-75222207D01*
X160908241Y-75219717D01*
X160908051Y-75217030D01*
X160902796Y-75203298D01*
X160845653Y-75089012D01*
X160844114Y-75086567D01*
X160843729Y-75085411D01*
X160842480Y-75083970D01*
X160837821Y-75076569D01*
X160830715Y-75070406D01*
X160824555Y-75063304D01*
X160817151Y-75058643D01*
X160815713Y-75057396D01*
X160814558Y-75057011D01*
X160812112Y-75055471D01*
X160802726Y-75050778D01*
X161105012Y-75050778D01*
X161105012Y-75080042D01*
X161116211Y-75107078D01*
X161136903Y-75127770D01*
X161163939Y-75138969D01*
X161178571Y-75140410D01*
X161275152Y-75140410D01*
X161362715Y-75184191D01*
X161402645Y-75224122D01*
X161446428Y-75311687D01*
X161446428Y-75865410D01*
X161447869Y-75880042D01*
X161459068Y-75907078D01*
X161479760Y-75927770D01*
X161506796Y-75938969D01*
X161536060Y-75938969D01*
X161563096Y-75927770D01*
X161583788Y-75907078D01*
X161594987Y-75880042D01*
X161596428Y-75865410D01*
X161596428Y-75293982D01*
X161960714Y-75293982D01*
X161960714Y-75636839D01*
X161962155Y-75651471D01*
X161963186Y-75653960D01*
X161963377Y-75656648D01*
X161968632Y-75670380D01*
X162025775Y-75784666D01*
X162029737Y-75790960D01*
X162030496Y-75792792D01*
X162032189Y-75794854D01*
X162033608Y-75797109D01*
X162035103Y-75798405D01*
X162039824Y-75804158D01*
X162096966Y-75861301D01*
X162102718Y-75866021D01*
X162104016Y-75867518D01*
X162106271Y-75868937D01*
X162108331Y-75870628D01*
X162110160Y-75871385D01*
X162116458Y-75875350D01*
X162230744Y-75932492D01*
X162244476Y-75937747D01*
X162247163Y-75937937D01*
X162249653Y-75938969D01*
X162264285Y-75940410D01*
X162435714Y-75940410D01*
X162450346Y-75938969D01*
X162452835Y-75937937D01*
X162455523Y-75937747D01*
X162469255Y-75932492D01*
X162583540Y-75875350D01*
X162589837Y-75871385D01*
X162591667Y-75870628D01*
X162593726Y-75868937D01*
X162595982Y-75867518D01*
X162597279Y-75866021D01*
X162603032Y-75861301D01*
X162660175Y-75804158D01*
X162664893Y-75798408D01*
X162666392Y-75797109D01*
X162667813Y-75794849D01*
X162669502Y-75792793D01*
X162670259Y-75790965D01*
X162674224Y-75784666D01*
X162731367Y-75670380D01*
X162736622Y-75656648D01*
X162736812Y-75653960D01*
X162737844Y-75651471D01*
X162739285Y-75636839D01*
X162739285Y-75293982D01*
X162737844Y-75279350D01*
X162736812Y-75276860D01*
X162736622Y-75274173D01*
X162731367Y-75260441D01*
X162674224Y-75146155D01*
X162670259Y-75139855D01*
X162669502Y-75138028D01*
X162667813Y-75135971D01*
X162666392Y-75133712D01*
X162664893Y-75132412D01*
X162660175Y-75126663D01*
X162603032Y-75069520D01*
X162597280Y-75064799D01*
X162595983Y-75063304D01*
X162593728Y-75061884D01*
X162591667Y-75060193D01*
X162589836Y-75059434D01*
X162583540Y-75055471D01*
X162469255Y-74998328D01*
X162455524Y-74993073D01*
X162452834Y-74992881D01*
X162450346Y-74991851D01*
X162435714Y-74990410D01*
X162264285Y-74990410D01*
X162249653Y-74991851D01*
X162247163Y-74992882D01*
X162244476Y-74993073D01*
X162230744Y-74998328D01*
X162116458Y-75055471D01*
X162110158Y-75059435D01*
X162108331Y-75060193D01*
X162106274Y-75061881D01*
X162104015Y-75063303D01*
X162102715Y-75064801D01*
X162096966Y-75069520D01*
X162039824Y-75126663D01*
X162035103Y-75132415D01*
X162033608Y-75133712D01*
X162032189Y-75135966D01*
X162030496Y-75138029D01*
X162029737Y-75139860D01*
X162025775Y-75146155D01*
X161968632Y-75260441D01*
X161963377Y-75274173D01*
X161963186Y-75276860D01*
X161962155Y-75279350D01*
X161960714Y-75293982D01*
X161596428Y-75293982D01*
X161596428Y-75065410D01*
X161594987Y-75050778D01*
X161583788Y-75023742D01*
X161563096Y-75003050D01*
X161536060Y-74991851D01*
X161506796Y-74991851D01*
X161479760Y-75003050D01*
X161459068Y-75023742D01*
X161447869Y-75050778D01*
X161447015Y-75059449D01*
X161446980Y-75059434D01*
X161440684Y-75055471D01*
X161326398Y-74998328D01*
X161312666Y-74993073D01*
X161309978Y-74992882D01*
X161307489Y-74991851D01*
X161292857Y-74990410D01*
X161178571Y-74990410D01*
X161163939Y-74991851D01*
X161136903Y-75003050D01*
X161116211Y-75023742D01*
X161105012Y-75050778D01*
X160802726Y-75050778D01*
X160697827Y-74998328D01*
X160684096Y-74993073D01*
X160681406Y-74992881D01*
X160678918Y-74991851D01*
X160664286Y-74990410D01*
X160435714Y-74990410D01*
X160421082Y-74991851D01*
X160418592Y-74992882D01*
X160415905Y-74993073D01*
X160402173Y-74998328D01*
X160287887Y-75055471D01*
X160285440Y-75057010D01*
X160284285Y-75057396D01*
X160282846Y-75058643D01*
X160275444Y-75063303D01*
X160269281Y-75070409D01*
X160262178Y-75076570D01*
X160257518Y-75083972D01*
X160256271Y-75085411D01*
X160255885Y-75086566D01*
X160254346Y-75089013D01*
X160197204Y-75203298D01*
X160191949Y-75217030D01*
X160191758Y-75219717D01*
X160190727Y-75222207D01*
X160189286Y-75236839D01*
X160055953Y-75236839D01*
X160055953Y-74765065D01*
X163047869Y-74765065D01*
X163047869Y-74794327D01*
X163059068Y-74821364D01*
X163079760Y-74842056D01*
X163106797Y-74853255D01*
X163136059Y-74853255D01*
X163163096Y-74842056D01*
X163174461Y-74832729D01*
X163219085Y-74788104D01*
X163362169Y-74740410D01*
X163452115Y-74740410D01*
X163595199Y-74788104D01*
X163688359Y-74881265D01*
X163736377Y-74977301D01*
X163789285Y-75188931D01*
X163789285Y-75341890D01*
X163736377Y-75553520D01*
X163688359Y-75649555D01*
X163595199Y-75742716D01*
X163452115Y-75790410D01*
X163362169Y-75790410D01*
X163219084Y-75742715D01*
X163174461Y-75698092D01*
X163163096Y-75688765D01*
X163136059Y-75677566D01*
X163106797Y-75677566D01*
X163079760Y-75688765D01*
X163059068Y-75709457D01*
X163047869Y-75736494D01*
X163047869Y-75765756D01*
X163059068Y-75792793D01*
X163068395Y-75804158D01*
X163125538Y-75861301D01*
X163136903Y-75870628D01*
X163139393Y-75871659D01*
X163141429Y-75873425D01*
X163154854Y-75879419D01*
X163326282Y-75936561D01*
X163333535Y-75938210D01*
X163335367Y-75938969D01*
X163338021Y-75939230D01*
X163340619Y-75939821D01*
X163342593Y-75939680D01*
X163349999Y-75940410D01*
X163464285Y-75940410D01*
X163471690Y-75939680D01*
X163473665Y-75939821D01*
X163476262Y-75939230D01*
X163478917Y-75938969D01*
X163480748Y-75938210D01*
X163488002Y-75936561D01*
X163659431Y-75879419D01*
X163672856Y-75873425D01*
X163674891Y-75871659D01*
X163677382Y-75870628D01*
X163688747Y-75861301D01*
X163803032Y-75747015D01*
X163807750Y-75741265D01*
X163809249Y-75739966D01*
X163810670Y-75737707D01*
X163812360Y-75735649D01*
X163813117Y-75733819D01*
X163817081Y-75727523D01*
X163874224Y-75613237D01*
X163874633Y-75612167D01*
X163874956Y-75611732D01*
X163877151Y-75605586D01*
X163879479Y-75599505D01*
X163879517Y-75598965D01*
X163879903Y-75597886D01*
X163937046Y-75369315D01*
X163937421Y-75366777D01*
X163937844Y-75365757D01*
X163938385Y-75360254D01*
X163939197Y-75354770D01*
X163939033Y-75353674D01*
X163939285Y-75351125D01*
X163939285Y-75293982D01*
X164246428Y-75293982D01*
X164246428Y-75636839D01*
X164247869Y-75651471D01*
X164248900Y-75653960D01*
X164249091Y-75656648D01*
X164254346Y-75670380D01*
X164311489Y-75784666D01*
X164315451Y-75790960D01*
X164316210Y-75792792D01*
X164317903Y-75794854D01*
X164319322Y-75797109D01*
X164320817Y-75798405D01*
X164325538Y-75804158D01*
X164382680Y-75861301D01*
X164388432Y-75866021D01*
X164389730Y-75867518D01*
X164391985Y-75868937D01*
X164394045Y-75870628D01*
X164395874Y-75871385D01*
X164402172Y-75875350D01*
X164516458Y-75932492D01*
X164530190Y-75937747D01*
X164532877Y-75937937D01*
X164535367Y-75938969D01*
X164549999Y-75940410D01*
X164721428Y-75940410D01*
X164736060Y-75938969D01*
X164738549Y-75937937D01*
X164741237Y-75937747D01*
X164754969Y-75932492D01*
X164869254Y-75875350D01*
X164875551Y-75871385D01*
X164877381Y-75870628D01*
X164879440Y-75868937D01*
X164881696Y-75867518D01*
X164882993Y-75866021D01*
X164888746Y-75861301D01*
X164945889Y-75804158D01*
X164950607Y-75798408D01*
X164952106Y-75797109D01*
X164953527Y-75794849D01*
X164955216Y-75792793D01*
X164955973Y-75790965D01*
X164959938Y-75784666D01*
X165017081Y-75670380D01*
X165022336Y-75656648D01*
X165022526Y-75653960D01*
X165023558Y-75651471D01*
X165024999Y-75636839D01*
X165024999Y-75293982D01*
X165023558Y-75279350D01*
X165022526Y-75276860D01*
X165022336Y-75274173D01*
X165017081Y-75260441D01*
X164959938Y-75146155D01*
X164955973Y-75139855D01*
X164955216Y-75138028D01*
X164953527Y-75135971D01*
X164952106Y-75133712D01*
X164950607Y-75132412D01*
X164945889Y-75126663D01*
X164895597Y-75076371D01*
X165275804Y-75076371D01*
X165279368Y-75090635D01*
X165565083Y-75890635D01*
X165571362Y-75903930D01*
X165573888Y-75906720D01*
X165575500Y-75910123D01*
X165583636Y-75917488D01*
X165591002Y-75925625D01*
X165594404Y-75927236D01*
X165597194Y-75929762D01*
X165607526Y-75933452D01*
X165617448Y-75938152D01*
X165621208Y-75938338D01*
X165624753Y-75939605D01*
X165635710Y-75939059D01*
X165646675Y-75939605D01*
X165650222Y-75938337D01*
X165653981Y-75938151D01*
X165663896Y-75933453D01*
X165674234Y-75929762D01*
X165677025Y-75927235D01*
X165680427Y-75925624D01*
X165687789Y-75917491D01*
X165695929Y-75910123D01*
X165697541Y-75906718D01*
X165700066Y-75903930D01*
X165706345Y-75890635D01*
X165992059Y-75090635D01*
X165995623Y-75076371D01*
X165994351Y-75050778D01*
X166133583Y-75050778D01*
X166133583Y-75080042D01*
X166144782Y-75107078D01*
X166165474Y-75127770D01*
X166192510Y-75138969D01*
X166207142Y-75140410D01*
X166303723Y-75140410D01*
X166391286Y-75184191D01*
X166431216Y-75224122D01*
X166474999Y-75311687D01*
X166474999Y-75865410D01*
X166476440Y-75880042D01*
X166487639Y-75907078D01*
X166508331Y-75927770D01*
X166535367Y-75938969D01*
X166564631Y-75938969D01*
X166591667Y-75927770D01*
X166612359Y-75907078D01*
X166623558Y-75880042D01*
X166624999Y-75865410D01*
X166624999Y-75236839D01*
X166989285Y-75236839D01*
X166989285Y-75351125D01*
X166990726Y-75365757D01*
X166993537Y-75372545D01*
X166994964Y-75379754D01*
X166999083Y-75385933D01*
X167001925Y-75392793D01*
X167007120Y-75397988D01*
X167011196Y-75404102D01*
X167017366Y-75408234D01*
X167022617Y-75413485D01*
X167029405Y-75416296D01*
X167035511Y-75420386D01*
X167049576Y-75424669D01*
X167560713Y-75526894D01*
X167560713Y-75676277D01*
X167522668Y-75752366D01*
X167446580Y-75790410D01*
X167253417Y-75790410D01*
X167154968Y-75741186D01*
X167141236Y-75735931D01*
X167112046Y-75733857D01*
X167084285Y-75743111D01*
X167062177Y-75762285D01*
X167049090Y-75788459D01*
X167047016Y-75817649D01*
X167056270Y-75845410D01*
X167075444Y-75867518D01*
X167087886Y-75875350D01*
X167202172Y-75932492D01*
X167215904Y-75937747D01*
X167218591Y-75937937D01*
X167221081Y-75938969D01*
X167235713Y-75940410D01*
X167464285Y-75940410D01*
X167478917Y-75938969D01*
X167481406Y-75937937D01*
X167484094Y-75937747D01*
X167497826Y-75932492D01*
X167612111Y-75875350D01*
X167614557Y-75873809D01*
X167615712Y-75873425D01*
X167617149Y-75872178D01*
X167624553Y-75867518D01*
X167630712Y-75860415D01*
X167637820Y-75854252D01*
X167642481Y-75846846D01*
X167643727Y-75845410D01*
X167644111Y-75844256D01*
X167645652Y-75841809D01*
X167702795Y-75727523D01*
X167708050Y-75713791D01*
X167708240Y-75711103D01*
X167709272Y-75708614D01*
X167710713Y-75693982D01*
X167710713Y-75522553D01*
X168017856Y-75522553D01*
X168017856Y-75636839D01*
X168019297Y-75651471D01*
X168020328Y-75653960D01*
X168020519Y-75656648D01*
X168025774Y-75670380D01*
X168082917Y-75784666D01*
X168086880Y-75790962D01*
X168087639Y-75792793D01*
X168089330Y-75794854D01*
X168090750Y-75797109D01*
X168092245Y-75798406D01*
X168096966Y-75804158D01*
X168154109Y-75861301D01*
X168159858Y-75866019D01*
X168161158Y-75867518D01*
X168163417Y-75868939D01*
X168165474Y-75870628D01*
X168167301Y-75871385D01*
X168173601Y-75875350D01*
X168287886Y-75932492D01*
X168301618Y-75937747D01*
X168304305Y-75937937D01*
X168306795Y-75938969D01*
X168321427Y-75940410D01*
X168607142Y-75940410D01*
X168614547Y-75939680D01*
X168616522Y-75939821D01*
X168619119Y-75939230D01*
X168621774Y-75938969D01*
X168623605Y-75938210D01*
X168630859Y-75936561D01*
X168802287Y-75879419D01*
X168815713Y-75873425D01*
X168837820Y-75854251D01*
X168850907Y-75828078D01*
X168852981Y-75798888D01*
X168843728Y-75771126D01*
X168824554Y-75749018D01*
X168798380Y-75735932D01*
X168769190Y-75733857D01*
X168754853Y-75737117D01*
X168594972Y-75790410D01*
X168339132Y-75790410D01*
X168251568Y-75746628D01*
X168211638Y-75706698D01*
X168167856Y-75619134D01*
X168167856Y-75540258D01*
X168211637Y-75452695D01*
X168251569Y-75412763D01*
X168347603Y-75364746D01*
X168568190Y-75309600D01*
X168569269Y-75309214D01*
X168569809Y-75309176D01*
X168575891Y-75306848D01*
X168582035Y-75304653D01*
X168582470Y-75304330D01*
X168583540Y-75303921D01*
X168697825Y-75246778D01*
X168704121Y-75242814D01*
X168705952Y-75242056D01*
X168708013Y-75240364D01*
X168710268Y-75238945D01*
X168711565Y-75237449D01*
X168712308Y-75236839D01*
X169217856Y-75236839D01*
X169217856Y-75865410D01*
X169219297Y-75880042D01*
X169230496Y-75907078D01*
X169251188Y-75927770D01*
X169278224Y-75938969D01*
X169307488Y-75938969D01*
X169334524Y-75927770D01*
X169355216Y-75907078D01*
X169366415Y-75880042D01*
X169367856Y-75865410D01*
X169367856Y-75254543D01*
X169405899Y-75178454D01*
X169481989Y-75140410D01*
X169618008Y-75140410D01*
X169705570Y-75184191D01*
X169732141Y-75210762D01*
X169732141Y-75865410D01*
X169733582Y-75880042D01*
X169744781Y-75907078D01*
X169765473Y-75927770D01*
X169792509Y-75938969D01*
X169821773Y-75938969D01*
X169848809Y-75927770D01*
X169869501Y-75907078D01*
X169880700Y-75880042D01*
X169882141Y-75865410D01*
X169882141Y-75236839D01*
X170246427Y-75236839D01*
X170246427Y-75351125D01*
X170247868Y-75365757D01*
X170250679Y-75372545D01*
X170252106Y-75379754D01*
X170256225Y-75385933D01*
X170259067Y-75392793D01*
X170264262Y-75397988D01*
X170268338Y-75404102D01*
X170274508Y-75408234D01*
X170279759Y-75413485D01*
X170286547Y-75416296D01*
X170292653Y-75420386D01*
X170306718Y-75424669D01*
X170817855Y-75526894D01*
X170817855Y-75676277D01*
X170779810Y-75752366D01*
X170703722Y-75790410D01*
X170510559Y-75790410D01*
X170412110Y-75741186D01*
X170398378Y-75735931D01*
X170369188Y-75733857D01*
X170341427Y-75743111D01*
X170319319Y-75762285D01*
X170306232Y-75788459D01*
X170304158Y-75817649D01*
X170313412Y-75845410D01*
X170332586Y-75867518D01*
X170345028Y-75875350D01*
X170459314Y-75932492D01*
X170473046Y-75937747D01*
X170475733Y-75937937D01*
X170478223Y-75938969D01*
X170492855Y-75940410D01*
X170721427Y-75940410D01*
X170736059Y-75938969D01*
X170738548Y-75937937D01*
X170741236Y-75937747D01*
X170754968Y-75932492D01*
X170869253Y-75875350D01*
X170871699Y-75873809D01*
X170872854Y-75873425D01*
X170874291Y-75872178D01*
X170881695Y-75867518D01*
X170887854Y-75860415D01*
X170894962Y-75854252D01*
X170899623Y-75846846D01*
X170900869Y-75845410D01*
X170901253Y-75844256D01*
X170902794Y-75841809D01*
X170959937Y-75727523D01*
X170965192Y-75713791D01*
X170965382Y-75711103D01*
X170966414Y-75708614D01*
X170967855Y-75693982D01*
X170967855Y-75293982D01*
X171274998Y-75293982D01*
X171274998Y-75636839D01*
X171276439Y-75651471D01*
X171277470Y-75653960D01*
X171277661Y-75656648D01*
X171282916Y-75670380D01*
X171340059Y-75784666D01*
X171344021Y-75790960D01*
X171344780Y-75792792D01*
X171346473Y-75794854D01*
X171347892Y-75797109D01*
X171349387Y-75798405D01*
X171354108Y-75804158D01*
X171411250Y-75861301D01*
X171417002Y-75866021D01*
X171418300Y-75867518D01*
X171420555Y-75868937D01*
X171422615Y-75870628D01*
X171424444Y-75871385D01*
X171430742Y-75875350D01*
X171545028Y-75932492D01*
X171558760Y-75937747D01*
X171561447Y-75937937D01*
X171563937Y-75938969D01*
X171578569Y-75940410D01*
X171807141Y-75940410D01*
X171821773Y-75938969D01*
X171824262Y-75937937D01*
X171826950Y-75937747D01*
X171840682Y-75932492D01*
X171846426Y-75929620D01*
X171846426Y-76265410D01*
X171847867Y-76280042D01*
X171859066Y-76307078D01*
X171879758Y-76327770D01*
X171906794Y-76338969D01*
X171936058Y-76338969D01*
X171963094Y-76327770D01*
X171983786Y-76307078D01*
X171994985Y-76280042D01*
X171996426Y-76265410D01*
X171996426Y-75065410D01*
X172360712Y-75065410D01*
X172360712Y-75465410D01*
X172360963Y-75467963D01*
X172360801Y-75469056D01*
X172361610Y-75474529D01*
X172362153Y-75480042D01*
X172362575Y-75481063D01*
X172362951Y-75483600D01*
X172420094Y-75712173D01*
X172425041Y-75726018D01*
X172428361Y-75730499D01*
X172430495Y-75735650D01*
X172439822Y-75747015D01*
X172554108Y-75861301D01*
X172559858Y-75866021D01*
X172561157Y-75867518D01*
X172563411Y-75868937D01*
X172565473Y-75870629D01*
X172567305Y-75871387D01*
X172573600Y-75875350D01*
X172687885Y-75932492D01*
X172701617Y-75937747D01*
X172704304Y-75937937D01*
X172706794Y-75938969D01*
X172721426Y-75940410D01*
X172949998Y-75940410D01*
X172964630Y-75938969D01*
X172967119Y-75937937D01*
X172969807Y-75937747D01*
X172983539Y-75932492D01*
X173097824Y-75875350D01*
X173104121Y-75871386D01*
X173105952Y-75870628D01*
X173108012Y-75868937D01*
X173110267Y-75867518D01*
X173111564Y-75866021D01*
X173117317Y-75861301D01*
X173231602Y-75747015D01*
X173240930Y-75735649D01*
X173243063Y-75730497D01*
X173246383Y-75726018D01*
X173251330Y-75712172D01*
X173308473Y-75483600D01*
X173308848Y-75481062D01*
X173309271Y-75480042D01*
X173309812Y-75474539D01*
X173310624Y-75469055D01*
X173310460Y-75467959D01*
X173310712Y-75465410D01*
X173310712Y-75065410D01*
X173310460Y-75062860D01*
X173310624Y-75061765D01*
X173309812Y-75056280D01*
X173309271Y-75050778D01*
X173308848Y-75049757D01*
X173308473Y-75047220D01*
X173251330Y-74818649D01*
X173246383Y-74804803D01*
X173243063Y-74800323D01*
X173240930Y-74795172D01*
X173231602Y-74783806D01*
X173117317Y-74669520D01*
X173111565Y-74664799D01*
X173110268Y-74663304D01*
X173108013Y-74661884D01*
X173105952Y-74660193D01*
X173104121Y-74659434D01*
X173097825Y-74655471D01*
X172983539Y-74598328D01*
X172969807Y-74593073D01*
X172967119Y-74592882D01*
X172964630Y-74591851D01*
X172949998Y-74590410D01*
X172721426Y-74590410D01*
X172706794Y-74591851D01*
X172704304Y-74592882D01*
X172701617Y-74593073D01*
X172687885Y-74598328D01*
X172573600Y-74655471D01*
X172567307Y-74659432D01*
X172565473Y-74660192D01*
X172563407Y-74661887D01*
X172561157Y-74663304D01*
X172559861Y-74664797D01*
X172554108Y-74669520D01*
X172439822Y-74783806D01*
X172430495Y-74795171D01*
X172428361Y-74800321D01*
X172425041Y-74804803D01*
X172420094Y-74818648D01*
X172362951Y-75047220D01*
X172362575Y-75049756D01*
X172362153Y-75050778D01*
X172361610Y-75056290D01*
X172360801Y-75061764D01*
X172360963Y-75062856D01*
X172360712Y-75065410D01*
X171996426Y-75065410D01*
X171994985Y-75050778D01*
X171983786Y-75023742D01*
X171963094Y-75003050D01*
X171936058Y-74991851D01*
X171906794Y-74991851D01*
X171879758Y-75003050D01*
X171869880Y-75012927D01*
X171840682Y-74998328D01*
X171826951Y-74993073D01*
X171824261Y-74992881D01*
X171821773Y-74991851D01*
X171807141Y-74990410D01*
X171578569Y-74990410D01*
X171563937Y-74991851D01*
X171561447Y-74992882D01*
X171558760Y-74993073D01*
X171545028Y-74998328D01*
X171430742Y-75055471D01*
X171424442Y-75059435D01*
X171422615Y-75060193D01*
X171420558Y-75061881D01*
X171418299Y-75063303D01*
X171416999Y-75064801D01*
X171411250Y-75069520D01*
X171354108Y-75126663D01*
X171349387Y-75132415D01*
X171347892Y-75133712D01*
X171346473Y-75135966D01*
X171344780Y-75138029D01*
X171344021Y-75139860D01*
X171340059Y-75146155D01*
X171282916Y-75260441D01*
X171277661Y-75274173D01*
X171277470Y-75276860D01*
X171276439Y-75279350D01*
X171274998Y-75293982D01*
X170967855Y-75293982D01*
X170967855Y-75236839D01*
X170966414Y-75222207D01*
X170965382Y-75219717D01*
X170965192Y-75217030D01*
X170959937Y-75203298D01*
X170902794Y-75089012D01*
X170901255Y-75086567D01*
X170900870Y-75085411D01*
X170899621Y-75083970D01*
X170894962Y-75076569D01*
X170887856Y-75070406D01*
X170881696Y-75063304D01*
X170874292Y-75058643D01*
X170872854Y-75057396D01*
X170871699Y-75057011D01*
X170869253Y-75055471D01*
X170754968Y-74998328D01*
X170741237Y-74993073D01*
X170738547Y-74992881D01*
X170736059Y-74991851D01*
X170721427Y-74990410D01*
X170492855Y-74990410D01*
X170478223Y-74991851D01*
X170475733Y-74992882D01*
X170473046Y-74993073D01*
X170459314Y-74998328D01*
X170345028Y-75055471D01*
X170342581Y-75057010D01*
X170341426Y-75057396D01*
X170339987Y-75058643D01*
X170332585Y-75063303D01*
X170326422Y-75070409D01*
X170319319Y-75076570D01*
X170314659Y-75083972D01*
X170313412Y-75085411D01*
X170313026Y-75086566D01*
X170311487Y-75089013D01*
X170254345Y-75203298D01*
X170249090Y-75217030D01*
X170248899Y-75219717D01*
X170247868Y-75222207D01*
X170246427Y-75236839D01*
X169882141Y-75236839D01*
X169882141Y-75065410D01*
X169880700Y-75050778D01*
X169869501Y-75023742D01*
X169848809Y-75003050D01*
X169821773Y-74991851D01*
X169792509Y-74991851D01*
X169765473Y-75003050D01*
X169744781Y-75023742D01*
X169740543Y-75033972D01*
X169669254Y-74998328D01*
X169655523Y-74993073D01*
X169652833Y-74992881D01*
X169650345Y-74991851D01*
X169635713Y-74990410D01*
X169464284Y-74990410D01*
X169449652Y-74991851D01*
X169447162Y-74992882D01*
X169444475Y-74993073D01*
X169430743Y-74998328D01*
X169316457Y-75055471D01*
X169314010Y-75057010D01*
X169312855Y-75057396D01*
X169311416Y-75058643D01*
X169304014Y-75063303D01*
X169297851Y-75070409D01*
X169290748Y-75076570D01*
X169286088Y-75083972D01*
X169284841Y-75085411D01*
X169284455Y-75086566D01*
X169282916Y-75089013D01*
X169225774Y-75203298D01*
X169220519Y-75217030D01*
X169220328Y-75219717D01*
X169219297Y-75222207D01*
X169217856Y-75236839D01*
X168712308Y-75236839D01*
X168717317Y-75232729D01*
X168774460Y-75175586D01*
X168779180Y-75169833D01*
X168780676Y-75168537D01*
X168782095Y-75166282D01*
X168783787Y-75164221D01*
X168784545Y-75162390D01*
X168788509Y-75156094D01*
X168845652Y-75041809D01*
X168850907Y-75028077D01*
X168851097Y-75025389D01*
X168852129Y-75022900D01*
X168853570Y-75008268D01*
X168853570Y-74893982D01*
X168852129Y-74879350D01*
X168851097Y-74876860D01*
X168850907Y-74874173D01*
X168845652Y-74860441D01*
X168788509Y-74746155D01*
X168784544Y-74739855D01*
X168783787Y-74738028D01*
X168782098Y-74735971D01*
X168780677Y-74733712D01*
X168779178Y-74732412D01*
X168774460Y-74726663D01*
X168717317Y-74669520D01*
X168711565Y-74664799D01*
X168710268Y-74663304D01*
X168708013Y-74661884D01*
X168705952Y-74660193D01*
X168704121Y-74659434D01*
X168697825Y-74655471D01*
X168583540Y-74598328D01*
X168569809Y-74593073D01*
X168567119Y-74592881D01*
X168564631Y-74591851D01*
X168549999Y-74590410D01*
X168264284Y-74590410D01*
X168256878Y-74591139D01*
X168254904Y-74590999D01*
X168252306Y-74591589D01*
X168249652Y-74591851D01*
X168247820Y-74592609D01*
X168240567Y-74594259D01*
X168069139Y-74651402D01*
X168055713Y-74657396D01*
X168033606Y-74676570D01*
X168020519Y-74702743D01*
X168018445Y-74731933D01*
X168027699Y-74759696D01*
X168046873Y-74781803D01*
X168073046Y-74794890D01*
X168102236Y-74796964D01*
X168116573Y-74793704D01*
X168276454Y-74740410D01*
X168532294Y-74740410D01*
X168619856Y-74784191D01*
X168659788Y-74824123D01*
X168703570Y-74911687D01*
X168703570Y-74990562D01*
X168659788Y-75078125D01*
X168619856Y-75118057D01*
X168523822Y-75166074D01*
X168303237Y-75221221D01*
X168302157Y-75221606D01*
X168301618Y-75221645D01*
X168295536Y-75223972D01*
X168289391Y-75226168D01*
X168288955Y-75226490D01*
X168287886Y-75226900D01*
X168173601Y-75284043D01*
X168167304Y-75288006D01*
X168165474Y-75288765D01*
X168163412Y-75290456D01*
X168161158Y-75291876D01*
X168159861Y-75293371D01*
X168154109Y-75298092D01*
X168096966Y-75355235D01*
X168092245Y-75360986D01*
X168090750Y-75362284D01*
X168089330Y-75364538D01*
X168087639Y-75366600D01*
X168086880Y-75368430D01*
X168082917Y-75374727D01*
X168025774Y-75489012D01*
X168020519Y-75502743D01*
X168020327Y-75505432D01*
X168019297Y-75507921D01*
X168017856Y-75522553D01*
X167710713Y-75522553D01*
X167710713Y-75236839D01*
X167709272Y-75222207D01*
X167708240Y-75219717D01*
X167708050Y-75217030D01*
X167702795Y-75203298D01*
X167645652Y-75089012D01*
X167644113Y-75086567D01*
X167643728Y-75085411D01*
X167642479Y-75083970D01*
X167637820Y-75076569D01*
X167630714Y-75070406D01*
X167624554Y-75063304D01*
X167617150Y-75058643D01*
X167615712Y-75057396D01*
X167614557Y-75057011D01*
X167612111Y-75055471D01*
X167497826Y-74998328D01*
X167484095Y-74993073D01*
X167481405Y-74992881D01*
X167478917Y-74991851D01*
X167464285Y-74990410D01*
X167235713Y-74990410D01*
X167221081Y-74991851D01*
X167218591Y-74992882D01*
X167215904Y-74993073D01*
X167202172Y-74998328D01*
X167087886Y-75055471D01*
X167085439Y-75057010D01*
X167084284Y-75057396D01*
X167082845Y-75058643D01*
X167075443Y-75063303D01*
X167069280Y-75070409D01*
X167062177Y-75076570D01*
X167057517Y-75083972D01*
X167056270Y-75085411D01*
X167055884Y-75086566D01*
X167054345Y-75089013D01*
X166997203Y-75203298D01*
X166991948Y-75217030D01*
X166991757Y-75219717D01*
X166990726Y-75222207D01*
X166989285Y-75236839D01*
X166624999Y-75236839D01*
X166624999Y-75065410D01*
X166623558Y-75050778D01*
X166612359Y-75023742D01*
X166591667Y-75003050D01*
X166564631Y-74991851D01*
X166535367Y-74991851D01*
X166508331Y-75003050D01*
X166487639Y-75023742D01*
X166476440Y-75050778D01*
X166475586Y-75059449D01*
X166475551Y-75059434D01*
X166469255Y-75055471D01*
X166354969Y-74998328D01*
X166341237Y-74993073D01*
X166338549Y-74992882D01*
X166336060Y-74991851D01*
X166321428Y-74990410D01*
X166207142Y-74990410D01*
X166192510Y-74991851D01*
X166165474Y-75003050D01*
X166144782Y-75023742D01*
X166133583Y-75050778D01*
X165994351Y-75050778D01*
X165994170Y-75047143D01*
X165981643Y-75020697D01*
X165959948Y-75001057D01*
X165932389Y-74991215D01*
X165903162Y-74992668D01*
X165876716Y-75005195D01*
X165857076Y-75026889D01*
X165850798Y-75040184D01*
X165635713Y-75642418D01*
X165420630Y-75040185D01*
X165414351Y-75026890D01*
X165394712Y-75005196D01*
X165368266Y-74992668D01*
X165339038Y-74991215D01*
X165311479Y-75001058D01*
X165289785Y-75020697D01*
X165277257Y-75047143D01*
X165275804Y-75076371D01*
X164895597Y-75076371D01*
X164888746Y-75069520D01*
X164882994Y-75064799D01*
X164881697Y-75063304D01*
X164879442Y-75061884D01*
X164877381Y-75060193D01*
X164875550Y-75059434D01*
X164869254Y-75055471D01*
X164754969Y-74998328D01*
X164741238Y-74993073D01*
X164738548Y-74992881D01*
X164736060Y-74991851D01*
X164721428Y-74990410D01*
X164549999Y-74990410D01*
X164535367Y-74991851D01*
X164532877Y-74992882D01*
X164530190Y-74993073D01*
X164516458Y-74998328D01*
X164402172Y-75055471D01*
X164395872Y-75059435D01*
X164394045Y-75060193D01*
X164391988Y-75061881D01*
X164389729Y-75063303D01*
X164388429Y-75064801D01*
X164382680Y-75069520D01*
X164325538Y-75126663D01*
X164320817Y-75132415D01*
X164319322Y-75133712D01*
X164317903Y-75135966D01*
X164316210Y-75138029D01*
X164315451Y-75139860D01*
X164311489Y-75146155D01*
X164254346Y-75260441D01*
X164249091Y-75274173D01*
X164248900Y-75276860D01*
X164247869Y-75279350D01*
X164246428Y-75293982D01*
X163939285Y-75293982D01*
X163939285Y-75179696D01*
X163939033Y-75177146D01*
X163939197Y-75176051D01*
X163938385Y-75170566D01*
X163937844Y-75165064D01*
X163937421Y-75164043D01*
X163937046Y-75161506D01*
X163879903Y-74932935D01*
X163879517Y-74931855D01*
X163879479Y-74931316D01*
X163877151Y-74925234D01*
X163874956Y-74919089D01*
X163874633Y-74918653D01*
X163874224Y-74917584D01*
X163817081Y-74803298D01*
X163813117Y-74797001D01*
X163812360Y-74795172D01*
X163810670Y-74793113D01*
X163809249Y-74790855D01*
X163807750Y-74789555D01*
X163803032Y-74783806D01*
X163688747Y-74669520D01*
X163677382Y-74660193D01*
X163674893Y-74659162D01*
X163672857Y-74657396D01*
X163659431Y-74651402D01*
X163488002Y-74594259D01*
X163480748Y-74592609D01*
X163478917Y-74591851D01*
X163476262Y-74591589D01*
X163473665Y-74590999D01*
X163471690Y-74591139D01*
X163464285Y-74590410D01*
X163349999Y-74590410D01*
X163342593Y-74591139D01*
X163340619Y-74590999D01*
X163338021Y-74591589D01*
X163335367Y-74591851D01*
X163333535Y-74592609D01*
X163326282Y-74594259D01*
X163154854Y-74651402D01*
X163141428Y-74657396D01*
X163139391Y-74659162D01*
X163136903Y-74660193D01*
X163125538Y-74669520D01*
X163068395Y-74726663D01*
X163059068Y-74738028D01*
X163047869Y-74765065D01*
X160055953Y-74765065D01*
X160055953Y-74457077D01*
X173444045Y-74457077D01*
X173444045Y-79937607D01*
G37*
X185819819Y-62047619D02*
X186534104Y-62047619D01*
X186534104Y-62047619D02*
X186676961Y-62000000D01*
X186676961Y-62000000D02*
X186772200Y-61904762D01*
X186772200Y-61904762D02*
X186819819Y-61761905D01*
X186819819Y-61761905D02*
X186819819Y-61666667D01*
X186772200Y-62476191D02*
X186819819Y-62619048D01*
X186819819Y-62619048D02*
X186819819Y-62857143D01*
X186819819Y-62857143D02*
X186772200Y-62952381D01*
X186772200Y-62952381D02*
X186724580Y-63000000D01*
X186724580Y-63000000D02*
X186629342Y-63047619D01*
X186629342Y-63047619D02*
X186534104Y-63047619D01*
X186534104Y-63047619D02*
X186438866Y-63000000D01*
X186438866Y-63000000D02*
X186391247Y-62952381D01*
X186391247Y-62952381D02*
X186343628Y-62857143D01*
X186343628Y-62857143D02*
X186296009Y-62666667D01*
X186296009Y-62666667D02*
X186248390Y-62571429D01*
X186248390Y-62571429D02*
X186200771Y-62523810D01*
X186200771Y-62523810D02*
X186105533Y-62476191D01*
X186105533Y-62476191D02*
X186010295Y-62476191D01*
X186010295Y-62476191D02*
X185915057Y-62523810D01*
X185915057Y-62523810D02*
X185867438Y-62571429D01*
X185867438Y-62571429D02*
X185819819Y-62666667D01*
X185819819Y-62666667D02*
X185819819Y-62904762D01*
X185819819Y-62904762D02*
X185867438Y-63047619D01*
X185819819Y-63333334D02*
X185819819Y-63904762D01*
X186819819Y-63619048D02*
X185819819Y-63619048D01*
X186438866Y-64238096D02*
X186438866Y-65000001D01*
X186819819Y-65476191D02*
X185819819Y-65476191D01*
X185819819Y-65476191D02*
X185819819Y-65857143D01*
X185819819Y-65857143D02*
X185867438Y-65952381D01*
X185867438Y-65952381D02*
X185915057Y-66000000D01*
X185915057Y-66000000D02*
X186010295Y-66047619D01*
X186010295Y-66047619D02*
X186153152Y-66047619D01*
X186153152Y-66047619D02*
X186248390Y-66000000D01*
X186248390Y-66000000D02*
X186296009Y-65952381D01*
X186296009Y-65952381D02*
X186343628Y-65857143D01*
X186343628Y-65857143D02*
X186343628Y-65476191D01*
X186819819Y-66476191D02*
X185819819Y-66476191D01*
X186296009Y-66476191D02*
X186296009Y-67047619D01*
X186819819Y-67047619D02*
X185819819Y-67047619D01*
X186438866Y-67523810D02*
X186438866Y-68285715D01*
X185819819Y-68666667D02*
X185819819Y-69285714D01*
X185819819Y-69285714D02*
X186200771Y-68952381D01*
X186200771Y-68952381D02*
X186200771Y-69095238D01*
X186200771Y-69095238D02*
X186248390Y-69190476D01*
X186248390Y-69190476D02*
X186296009Y-69238095D01*
X186296009Y-69238095D02*
X186391247Y-69285714D01*
X186391247Y-69285714D02*
X186629342Y-69285714D01*
X186629342Y-69285714D02*
X186724580Y-69238095D01*
X186724580Y-69238095D02*
X186772200Y-69190476D01*
X186772200Y-69190476D02*
X186819819Y-69095238D01*
X186819819Y-69095238D02*
X186819819Y-68809524D01*
X186819819Y-68809524D02*
X186772200Y-68714286D01*
X186772200Y-68714286D02*
X186724580Y-68666667D01*
X186819819Y-69714286D02*
X185819819Y-69714286D01*
X185819819Y-69714286D02*
X185819819Y-70095238D01*
X185819819Y-70095238D02*
X185867438Y-70190476D01*
X185867438Y-70190476D02*
X185915057Y-70238095D01*
X185915057Y-70238095D02*
X186010295Y-70285714D01*
X186010295Y-70285714D02*
X186153152Y-70285714D01*
X186153152Y-70285714D02*
X186248390Y-70238095D01*
X186248390Y-70238095D02*
X186296009Y-70190476D01*
X186296009Y-70190476D02*
X186343628Y-70095238D01*
X186343628Y-70095238D02*
X186343628Y-69714286D01*
X173349887Y-81846345D02*
X173207030Y-81893964D01*
X173207030Y-81893964D02*
X173159411Y-81941583D01*
X173159411Y-81941583D02*
X173111792Y-82036821D01*
X173111792Y-82036821D02*
X173111792Y-82179678D01*
X173111792Y-82179678D02*
X173159411Y-82274916D01*
X173159411Y-82274916D02*
X173207030Y-82322536D01*
X173207030Y-82322536D02*
X173302268Y-82370155D01*
X173302268Y-82370155D02*
X173683220Y-82370155D01*
X173683220Y-82370155D02*
X173683220Y-81370155D01*
X173683220Y-81370155D02*
X173349887Y-81370155D01*
X173349887Y-81370155D02*
X173254649Y-81417774D01*
X173254649Y-81417774D02*
X173207030Y-81465393D01*
X173207030Y-81465393D02*
X173159411Y-81560631D01*
X173159411Y-81560631D02*
X173159411Y-81655869D01*
X173159411Y-81655869D02*
X173207030Y-81751107D01*
X173207030Y-81751107D02*
X173254649Y-81798726D01*
X173254649Y-81798726D02*
X173349887Y-81846345D01*
X173349887Y-81846345D02*
X173683220Y-81846345D01*
X172111792Y-82370155D02*
X172445125Y-81893964D01*
X172683220Y-82370155D02*
X172683220Y-81370155D01*
X172683220Y-81370155D02*
X172302268Y-81370155D01*
X172302268Y-81370155D02*
X172207030Y-81417774D01*
X172207030Y-81417774D02*
X172159411Y-81465393D01*
X172159411Y-81465393D02*
X172111792Y-81560631D01*
X172111792Y-81560631D02*
X172111792Y-81703488D01*
X172111792Y-81703488D02*
X172159411Y-81798726D01*
X172159411Y-81798726D02*
X172207030Y-81846345D01*
X172207030Y-81846345D02*
X172302268Y-81893964D01*
X172302268Y-81893964D02*
X172683220Y-81893964D01*
X171683220Y-82370155D02*
X171683220Y-81370155D01*
X171683220Y-81370155D02*
X171445125Y-81370155D01*
X171445125Y-81370155D02*
X171302268Y-81417774D01*
X171302268Y-81417774D02*
X171207030Y-81513012D01*
X171207030Y-81513012D02*
X171159411Y-81608250D01*
X171159411Y-81608250D02*
X171111792Y-81798726D01*
X171111792Y-81798726D02*
X171111792Y-81941583D01*
X171111792Y-81941583D02*
X171159411Y-82132059D01*
X171159411Y-82132059D02*
X171207030Y-82227297D01*
X171207030Y-82227297D02*
X171302268Y-82322536D01*
X171302268Y-82322536D02*
X171445125Y-82370155D01*
X171445125Y-82370155D02*
X171683220Y-82370155D01*
X170683220Y-82274916D02*
X170635601Y-82322536D01*
X170635601Y-82322536D02*
X170683220Y-82370155D01*
X170683220Y-82370155D02*
X170730839Y-82322536D01*
X170730839Y-82322536D02*
X170683220Y-82274916D01*
X170683220Y-82274916D02*
X170683220Y-82370155D01*
X170683220Y-81751107D02*
X170635601Y-81798726D01*
X170635601Y-81798726D02*
X170683220Y-81846345D01*
X170683220Y-81846345D02*
X170730839Y-81798726D01*
X170730839Y-81798726D02*
X170683220Y-81751107D01*
X170683220Y-81751107D02*
X170683220Y-81846345D01*
X169492744Y-82322536D02*
X169397506Y-82370155D01*
X169397506Y-82370155D02*
X169207030Y-82370155D01*
X169207030Y-82370155D02*
X169111792Y-82322536D01*
X169111792Y-82322536D02*
X169064173Y-82227297D01*
X169064173Y-82227297D02*
X169064173Y-82179678D01*
X169064173Y-82179678D02*
X169111792Y-82084440D01*
X169111792Y-82084440D02*
X169207030Y-82036821D01*
X169207030Y-82036821D02*
X169349887Y-82036821D01*
X169349887Y-82036821D02*
X169445125Y-81989202D01*
X169445125Y-81989202D02*
X169492744Y-81893964D01*
X169492744Y-81893964D02*
X169492744Y-81846345D01*
X169492744Y-81846345D02*
X169445125Y-81751107D01*
X169445125Y-81751107D02*
X169349887Y-81703488D01*
X169349887Y-81703488D02*
X169207030Y-81703488D01*
X169207030Y-81703488D02*
X169111792Y-81751107D01*
X168254649Y-82322536D02*
X168349887Y-82370155D01*
X168349887Y-82370155D02*
X168540363Y-82370155D01*
X168540363Y-82370155D02*
X168635601Y-82322536D01*
X168635601Y-82322536D02*
X168683220Y-82227297D01*
X168683220Y-82227297D02*
X168683220Y-81846345D01*
X168683220Y-81846345D02*
X168635601Y-81751107D01*
X168635601Y-81751107D02*
X168540363Y-81703488D01*
X168540363Y-81703488D02*
X168349887Y-81703488D01*
X168349887Y-81703488D02*
X168254649Y-81751107D01*
X168254649Y-81751107D02*
X168207030Y-81846345D01*
X168207030Y-81846345D02*
X168207030Y-81941583D01*
X168207030Y-81941583D02*
X168683220Y-82036821D01*
X167778458Y-82370155D02*
X167778458Y-81703488D01*
X167778458Y-81893964D02*
X167730839Y-81798726D01*
X167730839Y-81798726D02*
X167683220Y-81751107D01*
X167683220Y-81751107D02*
X167587982Y-81703488D01*
X167587982Y-81703488D02*
X167492744Y-81703488D01*
X167254648Y-81703488D02*
X167016553Y-82370155D01*
X167016553Y-82370155D02*
X166778458Y-81703488D01*
X166254648Y-82370155D02*
X166349886Y-82322536D01*
X166349886Y-82322536D02*
X166397505Y-82274916D01*
X166397505Y-82274916D02*
X166445124Y-82179678D01*
X166445124Y-82179678D02*
X166445124Y-81893964D01*
X166445124Y-81893964D02*
X166397505Y-81798726D01*
X166397505Y-81798726D02*
X166349886Y-81751107D01*
X166349886Y-81751107D02*
X166254648Y-81703488D01*
X166254648Y-81703488D02*
X166111791Y-81703488D01*
X166111791Y-81703488D02*
X166016553Y-81751107D01*
X166016553Y-81751107D02*
X165968934Y-81798726D01*
X165968934Y-81798726D02*
X165921315Y-81893964D01*
X165921315Y-81893964D02*
X165921315Y-82179678D01*
X165921315Y-82179678D02*
X165968934Y-82274916D01*
X165968934Y-82274916D02*
X166016553Y-82322536D01*
X166016553Y-82322536D02*
X166111791Y-82370155D01*
X166111791Y-82370155D02*
X166254648Y-82370155D01*
X165492743Y-81989202D02*
X164730839Y-81989202D01*
X163826077Y-82370155D02*
X163826077Y-81370155D01*
X163826077Y-82322536D02*
X163921315Y-82370155D01*
X163921315Y-82370155D02*
X164111791Y-82370155D01*
X164111791Y-82370155D02*
X164207029Y-82322536D01*
X164207029Y-82322536D02*
X164254648Y-82274916D01*
X164254648Y-82274916D02*
X164302267Y-82179678D01*
X164302267Y-82179678D02*
X164302267Y-81893964D01*
X164302267Y-81893964D02*
X164254648Y-81798726D01*
X164254648Y-81798726D02*
X164207029Y-81751107D01*
X164207029Y-81751107D02*
X164111791Y-81703488D01*
X164111791Y-81703488D02*
X163921315Y-81703488D01*
X163921315Y-81703488D02*
X163826077Y-81751107D01*
X162968934Y-82322536D02*
X163064172Y-82370155D01*
X163064172Y-82370155D02*
X163254648Y-82370155D01*
X163254648Y-82370155D02*
X163349886Y-82322536D01*
X163349886Y-82322536D02*
X163397505Y-82227297D01*
X163397505Y-82227297D02*
X163397505Y-81846345D01*
X163397505Y-81846345D02*
X163349886Y-81751107D01*
X163349886Y-81751107D02*
X163254648Y-81703488D01*
X163254648Y-81703488D02*
X163064172Y-81703488D01*
X163064172Y-81703488D02*
X162968934Y-81751107D01*
X162968934Y-81751107D02*
X162921315Y-81846345D01*
X162921315Y-81846345D02*
X162921315Y-81941583D01*
X162921315Y-81941583D02*
X163397505Y-82036821D01*
X162587981Y-81703488D02*
X162349886Y-82370155D01*
X162349886Y-82370155D02*
X162111791Y-81703488D01*
X161730838Y-81989202D02*
X160968934Y-81989202D01*
X160492743Y-82370155D02*
X160492743Y-81370155D01*
X160492743Y-81751107D02*
X160397505Y-81703488D01*
X160397505Y-81703488D02*
X160207029Y-81703488D01*
X160207029Y-81703488D02*
X160111791Y-81751107D01*
X160111791Y-81751107D02*
X160064172Y-81798726D01*
X160064172Y-81798726D02*
X160016553Y-81893964D01*
X160016553Y-81893964D02*
X160016553Y-82179678D01*
X160016553Y-82179678D02*
X160064172Y-82274916D01*
X160064172Y-82274916D02*
X160111791Y-82322536D01*
X160111791Y-82322536D02*
X160207029Y-82370155D01*
X160207029Y-82370155D02*
X160397505Y-82370155D01*
X160397505Y-82370155D02*
X160492743Y-82322536D01*
X159445124Y-82370155D02*
X159540362Y-82322536D01*
X159540362Y-82322536D02*
X159587981Y-82274916D01*
X159587981Y-82274916D02*
X159635600Y-82179678D01*
X159635600Y-82179678D02*
X159635600Y-81893964D01*
X159635600Y-81893964D02*
X159587981Y-81798726D01*
X159587981Y-81798726D02*
X159540362Y-81751107D01*
X159540362Y-81751107D02*
X159445124Y-81703488D01*
X159445124Y-81703488D02*
X159302267Y-81703488D01*
X159302267Y-81703488D02*
X159207029Y-81751107D01*
X159207029Y-81751107D02*
X159159410Y-81798726D01*
X159159410Y-81798726D02*
X159111791Y-81893964D01*
X159111791Y-81893964D02*
X159111791Y-82179678D01*
X159111791Y-82179678D02*
X159159410Y-82274916D01*
X159159410Y-82274916D02*
X159207029Y-82322536D01*
X159207029Y-82322536D02*
X159302267Y-82370155D01*
X159302267Y-82370155D02*
X159445124Y-82370155D01*
X158254648Y-82370155D02*
X158254648Y-81846345D01*
X158254648Y-81846345D02*
X158302267Y-81751107D01*
X158302267Y-81751107D02*
X158397505Y-81703488D01*
X158397505Y-81703488D02*
X158587981Y-81703488D01*
X158587981Y-81703488D02*
X158683219Y-81751107D01*
X158254648Y-82322536D02*
X158349886Y-82370155D01*
X158349886Y-82370155D02*
X158587981Y-82370155D01*
X158587981Y-82370155D02*
X158683219Y-82322536D01*
X158683219Y-82322536D02*
X158730838Y-82227297D01*
X158730838Y-82227297D02*
X158730838Y-82132059D01*
X158730838Y-82132059D02*
X158683219Y-82036821D01*
X158683219Y-82036821D02*
X158587981Y-81989202D01*
X158587981Y-81989202D02*
X158349886Y-81989202D01*
X158349886Y-81989202D02*
X158254648Y-81941583D01*
X157778457Y-82370155D02*
X157778457Y-81703488D01*
X157778457Y-81893964D02*
X157730838Y-81798726D01*
X157730838Y-81798726D02*
X157683219Y-81751107D01*
X157683219Y-81751107D02*
X157587981Y-81703488D01*
X157587981Y-81703488D02*
X157492743Y-81703488D01*
X156730838Y-82370155D02*
X156730838Y-81370155D01*
X156730838Y-82322536D02*
X156826076Y-82370155D01*
X156826076Y-82370155D02*
X157016552Y-82370155D01*
X157016552Y-82370155D02*
X157111790Y-82322536D01*
X157111790Y-82322536D02*
X157159409Y-82274916D01*
X157159409Y-82274916D02*
X157207028Y-82179678D01*
X157207028Y-82179678D02*
X157207028Y-81893964D01*
X157207028Y-81893964D02*
X157159409Y-81798726D01*
X157159409Y-81798726D02*
X157111790Y-81751107D01*
X157111790Y-81751107D02*
X157016552Y-81703488D01*
X157016552Y-81703488D02*
X156826076Y-81703488D01*
X156826076Y-81703488D02*
X156730838Y-81751107D01*
X156254647Y-81989202D02*
X155492743Y-81989202D01*
X154587981Y-82322536D02*
X154683219Y-82370155D01*
X154683219Y-82370155D02*
X154873695Y-82370155D01*
X154873695Y-82370155D02*
X154968933Y-82322536D01*
X154968933Y-82322536D02*
X155016552Y-82274916D01*
X155016552Y-82274916D02*
X155064171Y-82179678D01*
X155064171Y-82179678D02*
X155064171Y-81893964D01*
X155064171Y-81893964D02*
X155016552Y-81798726D01*
X155016552Y-81798726D02*
X154968933Y-81751107D01*
X154968933Y-81751107D02*
X154873695Y-81703488D01*
X154873695Y-81703488D02*
X154683219Y-81703488D01*
X154683219Y-81703488D02*
X154587981Y-81751107D01*
X154159409Y-82370155D02*
X154159409Y-81370155D01*
X153730838Y-82370155D02*
X153730838Y-81846345D01*
X153730838Y-81846345D02*
X153778457Y-81751107D01*
X153778457Y-81751107D02*
X153873695Y-81703488D01*
X153873695Y-81703488D02*
X154016552Y-81703488D01*
X154016552Y-81703488D02*
X154111790Y-81751107D01*
X154111790Y-81751107D02*
X154159409Y-81798726D01*
X153349885Y-81370155D02*
X152730838Y-81370155D01*
X152730838Y-81370155D02*
X153064171Y-81751107D01*
X153064171Y-81751107D02*
X152921314Y-81751107D01*
X152921314Y-81751107D02*
X152826076Y-81798726D01*
X152826076Y-81798726D02*
X152778457Y-81846345D01*
X152778457Y-81846345D02*
X152730838Y-81941583D01*
X152730838Y-81941583D02*
X152730838Y-82179678D01*
X152730838Y-82179678D02*
X152778457Y-82274916D01*
X152778457Y-82274916D02*
X152826076Y-82322536D01*
X152826076Y-82322536D02*
X152921314Y-82370155D01*
X152921314Y-82370155D02*
X153207028Y-82370155D01*
X153207028Y-82370155D02*
X153302266Y-82322536D01*
X153302266Y-82322536D02*
X153349885Y-82274916D01*
X152349885Y-81465393D02*
X152302266Y-81417774D01*
X152302266Y-81417774D02*
X152207028Y-81370155D01*
X152207028Y-81370155D02*
X151968933Y-81370155D01*
X151968933Y-81370155D02*
X151873695Y-81417774D01*
X151873695Y-81417774D02*
X151826076Y-81465393D01*
X151826076Y-81465393D02*
X151778457Y-81560631D01*
X151778457Y-81560631D02*
X151778457Y-81655869D01*
X151778457Y-81655869D02*
X151826076Y-81798726D01*
X151826076Y-81798726D02*
X152397504Y-82370155D01*
X152397504Y-82370155D02*
X151778457Y-82370155D01*
X151445123Y-81703488D02*
X151207028Y-82370155D01*
X151207028Y-82370155D02*
X150968933Y-81703488D01*
X150397504Y-81370155D02*
X150302266Y-81370155D01*
X150302266Y-81370155D02*
X150207028Y-81417774D01*
X150207028Y-81417774D02*
X150159409Y-81465393D01*
X150159409Y-81465393D02*
X150111790Y-81560631D01*
X150111790Y-81560631D02*
X150064171Y-81751107D01*
X150064171Y-81751107D02*
X150064171Y-81989202D01*
X150064171Y-81989202D02*
X150111790Y-82179678D01*
X150111790Y-82179678D02*
X150159409Y-82274916D01*
X150159409Y-82274916D02*
X150207028Y-82322536D01*
X150207028Y-82322536D02*
X150302266Y-82370155D01*
X150302266Y-82370155D02*
X150397504Y-82370155D01*
X150397504Y-82370155D02*
X150492742Y-82322536D01*
X150492742Y-82322536D02*
X150540361Y-82274916D01*
X150540361Y-82274916D02*
X150587980Y-82179678D01*
X150587980Y-82179678D02*
X150635599Y-81989202D01*
X150635599Y-81989202D02*
X150635599Y-81751107D01*
X150635599Y-81751107D02*
X150587980Y-81560631D01*
X150587980Y-81560631D02*
X150540361Y-81465393D01*
X150540361Y-81465393D02*
X150492742Y-81417774D01*
X150492742Y-81417774D02*
X150397504Y-81370155D01*
X149445123Y-81370155D02*
X149349885Y-81370155D01*
X149349885Y-81370155D02*
X149254647Y-81417774D01*
X149254647Y-81417774D02*
X149207028Y-81465393D01*
X149207028Y-81465393D02*
X149159409Y-81560631D01*
X149159409Y-81560631D02*
X149111790Y-81751107D01*
X149111790Y-81751107D02*
X149111790Y-81989202D01*
X149111790Y-81989202D02*
X149159409Y-82179678D01*
X149159409Y-82179678D02*
X149207028Y-82274916D01*
X149207028Y-82274916D02*
X149254647Y-82322536D01*
X149254647Y-82322536D02*
X149349885Y-82370155D01*
X149349885Y-82370155D02*
X149445123Y-82370155D01*
X149445123Y-82370155D02*
X149540361Y-82322536D01*
X149540361Y-82322536D02*
X149587980Y-82274916D01*
X149587980Y-82274916D02*
X149635599Y-82179678D01*
X149635599Y-82179678D02*
X149683218Y-81989202D01*
X149683218Y-81989202D02*
X149683218Y-81751107D01*
X149683218Y-81751107D02*
X149635599Y-81560631D01*
X149635599Y-81560631D02*
X149587980Y-81465393D01*
X149587980Y-81465393D02*
X149540361Y-81417774D01*
X149540361Y-81417774D02*
X149445123Y-81370155D01*
X148254647Y-81370155D02*
X148445123Y-81370155D01*
X148445123Y-81370155D02*
X148540361Y-81417774D01*
X148540361Y-81417774D02*
X148587980Y-81465393D01*
X148587980Y-81465393D02*
X148683218Y-81608250D01*
X148683218Y-81608250D02*
X148730837Y-81798726D01*
X148730837Y-81798726D02*
X148730837Y-82179678D01*
X148730837Y-82179678D02*
X148683218Y-82274916D01*
X148683218Y-82274916D02*
X148635599Y-82322536D01*
X148635599Y-82322536D02*
X148540361Y-82370155D01*
X148540361Y-82370155D02*
X148349885Y-82370155D01*
X148349885Y-82370155D02*
X148254647Y-82322536D01*
X148254647Y-82322536D02*
X148207028Y-82274916D01*
X148207028Y-82274916D02*
X148159409Y-82179678D01*
X148159409Y-82179678D02*
X148159409Y-81941583D01*
X148159409Y-81941583D02*
X148207028Y-81846345D01*
X148207028Y-81846345D02*
X148254647Y-81798726D01*
X148254647Y-81798726D02*
X148349885Y-81751107D01*
X148349885Y-81751107D02*
X148540361Y-81751107D01*
X148540361Y-81751107D02*
X148635599Y-81798726D01*
X148635599Y-81798726D02*
X148683218Y-81846345D01*
X148683218Y-81846345D02*
X148730837Y-81941583D01*
X173683220Y-83980099D02*
X173683220Y-82980099D01*
X173683220Y-82980099D02*
X173349887Y-83694384D01*
X173349887Y-83694384D02*
X173016554Y-82980099D01*
X173016554Y-82980099D02*
X173016554Y-83980099D01*
X171968935Y-83884860D02*
X172016554Y-83932480D01*
X172016554Y-83932480D02*
X172159411Y-83980099D01*
X172159411Y-83980099D02*
X172254649Y-83980099D01*
X172254649Y-83980099D02*
X172397506Y-83932480D01*
X172397506Y-83932480D02*
X172492744Y-83837241D01*
X172492744Y-83837241D02*
X172540363Y-83742003D01*
X172540363Y-83742003D02*
X172587982Y-83551527D01*
X172587982Y-83551527D02*
X172587982Y-83408670D01*
X172587982Y-83408670D02*
X172540363Y-83218194D01*
X172540363Y-83218194D02*
X172492744Y-83122956D01*
X172492744Y-83122956D02*
X172397506Y-83027718D01*
X172397506Y-83027718D02*
X172254649Y-82980099D01*
X172254649Y-82980099D02*
X172159411Y-82980099D01*
X172159411Y-82980099D02*
X172016554Y-83027718D01*
X172016554Y-83027718D02*
X171968935Y-83075337D01*
X171540363Y-82980099D02*
X171540363Y-83789622D01*
X171540363Y-83789622D02*
X171492744Y-83884860D01*
X171492744Y-83884860D02*
X171445125Y-83932480D01*
X171445125Y-83932480D02*
X171349887Y-83980099D01*
X171349887Y-83980099D02*
X171159411Y-83980099D01*
X171159411Y-83980099D02*
X171064173Y-83932480D01*
X171064173Y-83932480D02*
X171016554Y-83884860D01*
X171016554Y-83884860D02*
X170968935Y-83789622D01*
X170968935Y-83789622D02*
X170968935Y-82980099D01*
X170492744Y-83884860D02*
X170445125Y-83932480D01*
X170445125Y-83932480D02*
X170492744Y-83980099D01*
X170492744Y-83980099D02*
X170540363Y-83932480D01*
X170540363Y-83932480D02*
X170492744Y-83884860D01*
X170492744Y-83884860D02*
X170492744Y-83980099D01*
X170492744Y-83361051D02*
X170445125Y-83408670D01*
X170445125Y-83408670D02*
X170492744Y-83456289D01*
X170492744Y-83456289D02*
X170540363Y-83408670D01*
X170540363Y-83408670D02*
X170492744Y-83361051D01*
X170492744Y-83361051D02*
X170492744Y-83456289D01*
X168683221Y-83884860D02*
X168730840Y-83932480D01*
X168730840Y-83932480D02*
X168873697Y-83980099D01*
X168873697Y-83980099D02*
X168968935Y-83980099D01*
X168968935Y-83980099D02*
X169111792Y-83932480D01*
X169111792Y-83932480D02*
X169207030Y-83837241D01*
X169207030Y-83837241D02*
X169254649Y-83742003D01*
X169254649Y-83742003D02*
X169302268Y-83551527D01*
X169302268Y-83551527D02*
X169302268Y-83408670D01*
X169302268Y-83408670D02*
X169254649Y-83218194D01*
X169254649Y-83218194D02*
X169207030Y-83122956D01*
X169207030Y-83122956D02*
X169111792Y-83027718D01*
X169111792Y-83027718D02*
X168968935Y-82980099D01*
X168968935Y-82980099D02*
X168873697Y-82980099D01*
X168873697Y-82980099D02*
X168730840Y-83027718D01*
X168730840Y-83027718D02*
X168683221Y-83075337D01*
X168254649Y-83980099D02*
X168254649Y-82980099D01*
X168254649Y-83456289D02*
X167683221Y-83456289D01*
X167683221Y-83980099D02*
X167683221Y-82980099D01*
X167302268Y-82980099D02*
X166683221Y-82980099D01*
X166683221Y-82980099D02*
X167016554Y-83361051D01*
X167016554Y-83361051D02*
X166873697Y-83361051D01*
X166873697Y-83361051D02*
X166778459Y-83408670D01*
X166778459Y-83408670D02*
X166730840Y-83456289D01*
X166730840Y-83456289D02*
X166683221Y-83551527D01*
X166683221Y-83551527D02*
X166683221Y-83789622D01*
X166683221Y-83789622D02*
X166730840Y-83884860D01*
X166730840Y-83884860D02*
X166778459Y-83932480D01*
X166778459Y-83932480D02*
X166873697Y-83980099D01*
X166873697Y-83980099D02*
X167159411Y-83980099D01*
X167159411Y-83980099D02*
X167254649Y-83932480D01*
X167254649Y-83932480D02*
X167302268Y-83884860D01*
X166302268Y-83075337D02*
X166254649Y-83027718D01*
X166254649Y-83027718D02*
X166159411Y-82980099D01*
X166159411Y-82980099D02*
X165921316Y-82980099D01*
X165921316Y-82980099D02*
X165826078Y-83027718D01*
X165826078Y-83027718D02*
X165778459Y-83075337D01*
X165778459Y-83075337D02*
X165730840Y-83170575D01*
X165730840Y-83170575D02*
X165730840Y-83265813D01*
X165730840Y-83265813D02*
X165778459Y-83408670D01*
X165778459Y-83408670D02*
X166349887Y-83980099D01*
X166349887Y-83980099D02*
X165730840Y-83980099D01*
X165445125Y-82980099D02*
X165111792Y-83980099D01*
X165111792Y-83980099D02*
X164778459Y-82980099D01*
X164254649Y-82980099D02*
X164159411Y-82980099D01*
X164159411Y-82980099D02*
X164064173Y-83027718D01*
X164064173Y-83027718D02*
X164016554Y-83075337D01*
X164016554Y-83075337D02*
X163968935Y-83170575D01*
X163968935Y-83170575D02*
X163921316Y-83361051D01*
X163921316Y-83361051D02*
X163921316Y-83599146D01*
X163921316Y-83599146D02*
X163968935Y-83789622D01*
X163968935Y-83789622D02*
X164016554Y-83884860D01*
X164016554Y-83884860D02*
X164064173Y-83932480D01*
X164064173Y-83932480D02*
X164159411Y-83980099D01*
X164159411Y-83980099D02*
X164254649Y-83980099D01*
X164254649Y-83980099D02*
X164349887Y-83932480D01*
X164349887Y-83932480D02*
X164397506Y-83884860D01*
X164397506Y-83884860D02*
X164445125Y-83789622D01*
X164445125Y-83789622D02*
X164492744Y-83599146D01*
X164492744Y-83599146D02*
X164492744Y-83361051D01*
X164492744Y-83361051D02*
X164445125Y-83170575D01*
X164445125Y-83170575D02*
X164397506Y-83075337D01*
X164397506Y-83075337D02*
X164349887Y-83027718D01*
X164349887Y-83027718D02*
X164254649Y-82980099D01*
X163302268Y-82980099D02*
X163207030Y-82980099D01*
X163207030Y-82980099D02*
X163111792Y-83027718D01*
X163111792Y-83027718D02*
X163064173Y-83075337D01*
X163064173Y-83075337D02*
X163016554Y-83170575D01*
X163016554Y-83170575D02*
X162968935Y-83361051D01*
X162968935Y-83361051D02*
X162968935Y-83599146D01*
X162968935Y-83599146D02*
X163016554Y-83789622D01*
X163016554Y-83789622D02*
X163064173Y-83884860D01*
X163064173Y-83884860D02*
X163111792Y-83932480D01*
X163111792Y-83932480D02*
X163207030Y-83980099D01*
X163207030Y-83980099D02*
X163302268Y-83980099D01*
X163302268Y-83980099D02*
X163397506Y-83932480D01*
X163397506Y-83932480D02*
X163445125Y-83884860D01*
X163445125Y-83884860D02*
X163492744Y-83789622D01*
X163492744Y-83789622D02*
X163540363Y-83599146D01*
X163540363Y-83599146D02*
X163540363Y-83361051D01*
X163540363Y-83361051D02*
X163492744Y-83170575D01*
X163492744Y-83170575D02*
X163445125Y-83075337D01*
X163445125Y-83075337D02*
X163397506Y-83027718D01*
X163397506Y-83027718D02*
X163302268Y-82980099D01*
X162111792Y-82980099D02*
X162302268Y-82980099D01*
X162302268Y-82980099D02*
X162397506Y-83027718D01*
X162397506Y-83027718D02*
X162445125Y-83075337D01*
X162445125Y-83075337D02*
X162540363Y-83218194D01*
X162540363Y-83218194D02*
X162587982Y-83408670D01*
X162587982Y-83408670D02*
X162587982Y-83789622D01*
X162587982Y-83789622D02*
X162540363Y-83884860D01*
X162540363Y-83884860D02*
X162492744Y-83932480D01*
X162492744Y-83932480D02*
X162397506Y-83980099D01*
X162397506Y-83980099D02*
X162207030Y-83980099D01*
X162207030Y-83980099D02*
X162111792Y-83932480D01*
X162111792Y-83932480D02*
X162064173Y-83884860D01*
X162064173Y-83884860D02*
X162016554Y-83789622D01*
X162016554Y-83789622D02*
X162016554Y-83551527D01*
X162016554Y-83551527D02*
X162064173Y-83456289D01*
X162064173Y-83456289D02*
X162111792Y-83408670D01*
X162111792Y-83408670D02*
X162207030Y-83361051D01*
X162207030Y-83361051D02*
X162397506Y-83361051D01*
X162397506Y-83361051D02*
X162492744Y-83408670D01*
X162492744Y-83408670D02*
X162540363Y-83456289D01*
X162540363Y-83456289D02*
X162587982Y-83551527D01*
X161254649Y-83456289D02*
X161587982Y-83456289D01*
X161587982Y-83980099D02*
X161587982Y-82980099D01*
X161587982Y-82980099D02*
X161111792Y-82980099D01*
X160587982Y-83408670D02*
X160683220Y-83361051D01*
X160683220Y-83361051D02*
X160730839Y-83313432D01*
X160730839Y-83313432D02*
X160778458Y-83218194D01*
X160778458Y-83218194D02*
X160778458Y-83170575D01*
X160778458Y-83170575D02*
X160730839Y-83075337D01*
X160730839Y-83075337D02*
X160683220Y-83027718D01*
X160683220Y-83027718D02*
X160587982Y-82980099D01*
X160587982Y-82980099D02*
X160397506Y-82980099D01*
X160397506Y-82980099D02*
X160302268Y-83027718D01*
X160302268Y-83027718D02*
X160254649Y-83075337D01*
X160254649Y-83075337D02*
X160207030Y-83170575D01*
X160207030Y-83170575D02*
X160207030Y-83218194D01*
X160207030Y-83218194D02*
X160254649Y-83313432D01*
X160254649Y-83313432D02*
X160302268Y-83361051D01*
X160302268Y-83361051D02*
X160397506Y-83408670D01*
X160397506Y-83408670D02*
X160587982Y-83408670D01*
X160587982Y-83408670D02*
X160683220Y-83456289D01*
X160683220Y-83456289D02*
X160730839Y-83503908D01*
X160730839Y-83503908D02*
X160778458Y-83599146D01*
X160778458Y-83599146D02*
X160778458Y-83789622D01*
X160778458Y-83789622D02*
X160730839Y-83884860D01*
X160730839Y-83884860D02*
X160683220Y-83932480D01*
X160683220Y-83932480D02*
X160587982Y-83980099D01*
X160587982Y-83980099D02*
X160397506Y-83980099D01*
X160397506Y-83980099D02*
X160302268Y-83932480D01*
X160302268Y-83932480D02*
X160254649Y-83884860D01*
X160254649Y-83884860D02*
X160207030Y-83789622D01*
X160207030Y-83789622D02*
X160207030Y-83599146D01*
X160207030Y-83599146D02*
X160254649Y-83503908D01*
X160254649Y-83503908D02*
X160302268Y-83456289D01*
X160302268Y-83456289D02*
X160397506Y-83408670D01*
X159778458Y-83980099D02*
X159778458Y-82980099D01*
X159778458Y-82980099D02*
X159397506Y-82980099D01*
X159397506Y-82980099D02*
X159302268Y-83027718D01*
X159302268Y-83027718D02*
X159254649Y-83075337D01*
X159254649Y-83075337D02*
X159207030Y-83170575D01*
X159207030Y-83170575D02*
X159207030Y-83313432D01*
X159207030Y-83313432D02*
X159254649Y-83408670D01*
X159254649Y-83408670D02*
X159302268Y-83456289D01*
X159302268Y-83456289D02*
X159397506Y-83503908D01*
X159397506Y-83503908D02*
X159778458Y-83503908D01*
X158349887Y-82980099D02*
X158540363Y-82980099D01*
X158540363Y-82980099D02*
X158635601Y-83027718D01*
X158635601Y-83027718D02*
X158683220Y-83075337D01*
X158683220Y-83075337D02*
X158778458Y-83218194D01*
X158778458Y-83218194D02*
X158826077Y-83408670D01*
X158826077Y-83408670D02*
X158826077Y-83789622D01*
X158826077Y-83789622D02*
X158778458Y-83884860D01*
X158778458Y-83884860D02*
X158730839Y-83932480D01*
X158730839Y-83932480D02*
X158635601Y-83980099D01*
X158635601Y-83980099D02*
X158445125Y-83980099D01*
X158445125Y-83980099D02*
X158349887Y-83932480D01*
X158349887Y-83932480D02*
X158302268Y-83884860D01*
X158302268Y-83884860D02*
X158254649Y-83789622D01*
X158254649Y-83789622D02*
X158254649Y-83551527D01*
X158254649Y-83551527D02*
X158302268Y-83456289D01*
X158302268Y-83456289D02*
X158349887Y-83408670D01*
X158349887Y-83408670D02*
X158445125Y-83361051D01*
X158445125Y-83361051D02*
X158635601Y-83361051D01*
X158635601Y-83361051D02*
X158730839Y-83408670D01*
X158730839Y-83408670D02*
X158778458Y-83456289D01*
X158778458Y-83456289D02*
X158826077Y-83551527D01*
X173683220Y-85590043D02*
X173683220Y-84590043D01*
X173683220Y-84590043D02*
X173445125Y-84590043D01*
X173445125Y-84590043D02*
X173302268Y-84637662D01*
X173302268Y-84637662D02*
X173207030Y-84732900D01*
X173207030Y-84732900D02*
X173159411Y-84828138D01*
X173159411Y-84828138D02*
X173111792Y-85018614D01*
X173111792Y-85018614D02*
X173111792Y-85161471D01*
X173111792Y-85161471D02*
X173159411Y-85351947D01*
X173159411Y-85351947D02*
X173207030Y-85447185D01*
X173207030Y-85447185D02*
X173302268Y-85542424D01*
X173302268Y-85542424D02*
X173445125Y-85590043D01*
X173445125Y-85590043D02*
X173683220Y-85590043D01*
X172111792Y-85590043D02*
X172445125Y-85113852D01*
X172683220Y-85590043D02*
X172683220Y-84590043D01*
X172683220Y-84590043D02*
X172302268Y-84590043D01*
X172302268Y-84590043D02*
X172207030Y-84637662D01*
X172207030Y-84637662D02*
X172159411Y-84685281D01*
X172159411Y-84685281D02*
X172111792Y-84780519D01*
X172111792Y-84780519D02*
X172111792Y-84923376D01*
X172111792Y-84923376D02*
X172159411Y-85018614D01*
X172159411Y-85018614D02*
X172207030Y-85066233D01*
X172207030Y-85066233D02*
X172302268Y-85113852D01*
X172302268Y-85113852D02*
X172683220Y-85113852D01*
X171826077Y-84590043D02*
X171492744Y-85590043D01*
X171492744Y-85590043D02*
X171159411Y-84590043D01*
X170826077Y-85494804D02*
X170778458Y-85542424D01*
X170778458Y-85542424D02*
X170826077Y-85590043D01*
X170826077Y-85590043D02*
X170873696Y-85542424D01*
X170873696Y-85542424D02*
X170826077Y-85494804D01*
X170826077Y-85494804D02*
X170826077Y-85590043D01*
X170826077Y-84970995D02*
X170778458Y-85018614D01*
X170778458Y-85018614D02*
X170826077Y-85066233D01*
X170826077Y-85066233D02*
X170873696Y-85018614D01*
X170873696Y-85018614D02*
X170826077Y-84970995D01*
X170826077Y-84970995D02*
X170826077Y-85066233D01*
X169587982Y-85590043D02*
X169587982Y-84590043D01*
X169587982Y-84590043D02*
X169349887Y-84590043D01*
X169349887Y-84590043D02*
X169207030Y-84637662D01*
X169207030Y-84637662D02*
X169111792Y-84732900D01*
X169111792Y-84732900D02*
X169064173Y-84828138D01*
X169064173Y-84828138D02*
X169016554Y-85018614D01*
X169016554Y-85018614D02*
X169016554Y-85161471D01*
X169016554Y-85161471D02*
X169064173Y-85351947D01*
X169064173Y-85351947D02*
X169111792Y-85447185D01*
X169111792Y-85447185D02*
X169207030Y-85542424D01*
X169207030Y-85542424D02*
X169349887Y-85590043D01*
X169349887Y-85590043D02*
X169587982Y-85590043D01*
X168016554Y-85590043D02*
X168349887Y-85113852D01*
X168587982Y-85590043D02*
X168587982Y-84590043D01*
X168587982Y-84590043D02*
X168207030Y-84590043D01*
X168207030Y-84590043D02*
X168111792Y-84637662D01*
X168111792Y-84637662D02*
X168064173Y-84685281D01*
X168064173Y-84685281D02*
X168016554Y-84780519D01*
X168016554Y-84780519D02*
X168016554Y-84923376D01*
X168016554Y-84923376D02*
X168064173Y-85018614D01*
X168064173Y-85018614D02*
X168111792Y-85066233D01*
X168111792Y-85066233D02*
X168207030Y-85113852D01*
X168207030Y-85113852D02*
X168587982Y-85113852D01*
X167730839Y-84590043D02*
X167397506Y-85590043D01*
X167397506Y-85590043D02*
X167064173Y-84590043D01*
X166587982Y-85018614D02*
X166683220Y-84970995D01*
X166683220Y-84970995D02*
X166730839Y-84923376D01*
X166730839Y-84923376D02*
X166778458Y-84828138D01*
X166778458Y-84828138D02*
X166778458Y-84780519D01*
X166778458Y-84780519D02*
X166730839Y-84685281D01*
X166730839Y-84685281D02*
X166683220Y-84637662D01*
X166683220Y-84637662D02*
X166587982Y-84590043D01*
X166587982Y-84590043D02*
X166397506Y-84590043D01*
X166397506Y-84590043D02*
X166302268Y-84637662D01*
X166302268Y-84637662D02*
X166254649Y-84685281D01*
X166254649Y-84685281D02*
X166207030Y-84780519D01*
X166207030Y-84780519D02*
X166207030Y-84828138D01*
X166207030Y-84828138D02*
X166254649Y-84923376D01*
X166254649Y-84923376D02*
X166302268Y-84970995D01*
X166302268Y-84970995D02*
X166397506Y-85018614D01*
X166397506Y-85018614D02*
X166587982Y-85018614D01*
X166587982Y-85018614D02*
X166683220Y-85066233D01*
X166683220Y-85066233D02*
X166730839Y-85113852D01*
X166730839Y-85113852D02*
X166778458Y-85209090D01*
X166778458Y-85209090D02*
X166778458Y-85399566D01*
X166778458Y-85399566D02*
X166730839Y-85494804D01*
X166730839Y-85494804D02*
X166683220Y-85542424D01*
X166683220Y-85542424D02*
X166587982Y-85590043D01*
X166587982Y-85590043D02*
X166397506Y-85590043D01*
X166397506Y-85590043D02*
X166302268Y-85542424D01*
X166302268Y-85542424D02*
X166254649Y-85494804D01*
X166254649Y-85494804D02*
X166207030Y-85399566D01*
X166207030Y-85399566D02*
X166207030Y-85209090D01*
X166207030Y-85209090D02*
X166254649Y-85113852D01*
X166254649Y-85113852D02*
X166302268Y-85066233D01*
X166302268Y-85066233D02*
X166397506Y-85018614D01*
X165826077Y-84685281D02*
X165778458Y-84637662D01*
X165778458Y-84637662D02*
X165683220Y-84590043D01*
X165683220Y-84590043D02*
X165445125Y-84590043D01*
X165445125Y-84590043D02*
X165349887Y-84637662D01*
X165349887Y-84637662D02*
X165302268Y-84685281D01*
X165302268Y-84685281D02*
X165254649Y-84780519D01*
X165254649Y-84780519D02*
X165254649Y-84875757D01*
X165254649Y-84875757D02*
X165302268Y-85018614D01*
X165302268Y-85018614D02*
X165873696Y-85590043D01*
X165873696Y-85590043D02*
X165254649Y-85590043D01*
X164302268Y-85590043D02*
X164873696Y-85590043D01*
X164587982Y-85590043D02*
X164587982Y-84590043D01*
X164587982Y-84590043D02*
X164683220Y-84732900D01*
X164683220Y-84732900D02*
X164778458Y-84828138D01*
X164778458Y-84828138D02*
X164873696Y-84875757D01*
X163921315Y-84685281D02*
X163873696Y-84637662D01*
X163873696Y-84637662D02*
X163778458Y-84590043D01*
X163778458Y-84590043D02*
X163540363Y-84590043D01*
X163540363Y-84590043D02*
X163445125Y-84637662D01*
X163445125Y-84637662D02*
X163397506Y-84685281D01*
X163397506Y-84685281D02*
X163349887Y-84780519D01*
X163349887Y-84780519D02*
X163349887Y-84875757D01*
X163349887Y-84875757D02*
X163397506Y-85018614D01*
X163397506Y-85018614D02*
X163968934Y-85590043D01*
X163968934Y-85590043D02*
X163349887Y-85590043D01*
X162921315Y-85590043D02*
X162921315Y-84590043D01*
X162921315Y-84590043D02*
X162540363Y-84590043D01*
X162540363Y-84590043D02*
X162445125Y-84637662D01*
X162445125Y-84637662D02*
X162397506Y-84685281D01*
X162397506Y-84685281D02*
X162349887Y-84780519D01*
X162349887Y-84780519D02*
X162349887Y-84923376D01*
X162349887Y-84923376D02*
X162397506Y-85018614D01*
X162397506Y-85018614D02*
X162445125Y-85066233D01*
X162445125Y-85066233D02*
X162540363Y-85113852D01*
X162540363Y-85113852D02*
X162921315Y-85113852D01*
X161921315Y-85590043D02*
X161921315Y-84590043D01*
X161921315Y-84590043D02*
X161683220Y-84590043D01*
X161683220Y-84590043D02*
X161540363Y-84637662D01*
X161540363Y-84637662D02*
X161445125Y-84732900D01*
X161445125Y-84732900D02*
X161397506Y-84828138D01*
X161397506Y-84828138D02*
X161349887Y-85018614D01*
X161349887Y-85018614D02*
X161349887Y-85161471D01*
X161349887Y-85161471D02*
X161397506Y-85351947D01*
X161397506Y-85351947D02*
X161445125Y-85447185D01*
X161445125Y-85447185D02*
X161540363Y-85542424D01*
X161540363Y-85542424D02*
X161683220Y-85590043D01*
X161683220Y-85590043D02*
X161921315Y-85590043D01*
X160968934Y-85542424D02*
X160826077Y-85590043D01*
X160826077Y-85590043D02*
X160587982Y-85590043D01*
X160587982Y-85590043D02*
X160492744Y-85542424D01*
X160492744Y-85542424D02*
X160445125Y-85494804D01*
X160445125Y-85494804D02*
X160397506Y-85399566D01*
X160397506Y-85399566D02*
X160397506Y-85304328D01*
X160397506Y-85304328D02*
X160445125Y-85209090D01*
X160445125Y-85209090D02*
X160492744Y-85161471D01*
X160492744Y-85161471D02*
X160587982Y-85113852D01*
X160587982Y-85113852D02*
X160778458Y-85066233D01*
X160778458Y-85066233D02*
X160873696Y-85018614D01*
X160873696Y-85018614D02*
X160921315Y-84970995D01*
X160921315Y-84970995D02*
X160968934Y-84875757D01*
X160968934Y-84875757D02*
X160968934Y-84780519D01*
X160968934Y-84780519D02*
X160921315Y-84685281D01*
X160921315Y-84685281D02*
X160873696Y-84637662D01*
X160873696Y-84637662D02*
X160778458Y-84590043D01*
X160778458Y-84590043D02*
X160540363Y-84590043D01*
X160540363Y-84590043D02*
X160397506Y-84637662D01*
X159445125Y-84637662D02*
X159540363Y-84590043D01*
X159540363Y-84590043D02*
X159683220Y-84590043D01*
X159683220Y-84590043D02*
X159826077Y-84637662D01*
X159826077Y-84637662D02*
X159921315Y-84732900D01*
X159921315Y-84732900D02*
X159968934Y-84828138D01*
X159968934Y-84828138D02*
X160016553Y-85018614D01*
X160016553Y-85018614D02*
X160016553Y-85161471D01*
X160016553Y-85161471D02*
X159968934Y-85351947D01*
X159968934Y-85351947D02*
X159921315Y-85447185D01*
X159921315Y-85447185D02*
X159826077Y-85542424D01*
X159826077Y-85542424D02*
X159683220Y-85590043D01*
X159683220Y-85590043D02*
X159587982Y-85590043D01*
X159587982Y-85590043D02*
X159445125Y-85542424D01*
X159445125Y-85542424D02*
X159397506Y-85494804D01*
X159397506Y-85494804D02*
X159397506Y-85161471D01*
X159397506Y-85161471D02*
X159587982Y-85161471D01*
X158397506Y-85590043D02*
X158730839Y-85113852D01*
X158968934Y-85590043D02*
X158968934Y-84590043D01*
X158968934Y-84590043D02*
X158587982Y-84590043D01*
X158587982Y-84590043D02*
X158492744Y-84637662D01*
X158492744Y-84637662D02*
X158445125Y-84685281D01*
X158445125Y-84685281D02*
X158397506Y-84780519D01*
X158397506Y-84780519D02*
X158397506Y-84923376D01*
X158397506Y-84923376D02*
X158445125Y-85018614D01*
X158445125Y-85018614D02*
X158492744Y-85066233D01*
X158492744Y-85066233D02*
X158587982Y-85113852D01*
X158587982Y-85113852D02*
X158968934Y-85113852D01*
X173207030Y-87199987D02*
X173683220Y-87199987D01*
X173683220Y-87199987D02*
X173683220Y-86199987D01*
X172873696Y-87199987D02*
X172873696Y-86199987D01*
X172873696Y-86199987D02*
X172635601Y-86199987D01*
X172635601Y-86199987D02*
X172492744Y-86247606D01*
X172492744Y-86247606D02*
X172397506Y-86342844D01*
X172397506Y-86342844D02*
X172349887Y-86438082D01*
X172349887Y-86438082D02*
X172302268Y-86628558D01*
X172302268Y-86628558D02*
X172302268Y-86771415D01*
X172302268Y-86771415D02*
X172349887Y-86961891D01*
X172349887Y-86961891D02*
X172397506Y-87057129D01*
X172397506Y-87057129D02*
X172492744Y-87152368D01*
X172492744Y-87152368D02*
X172635601Y-87199987D01*
X172635601Y-87199987D02*
X172873696Y-87199987D01*
X171683220Y-86199987D02*
X171492744Y-86199987D01*
X171492744Y-86199987D02*
X171397506Y-86247606D01*
X171397506Y-86247606D02*
X171302268Y-86342844D01*
X171302268Y-86342844D02*
X171254649Y-86533320D01*
X171254649Y-86533320D02*
X171254649Y-86866653D01*
X171254649Y-86866653D02*
X171302268Y-87057129D01*
X171302268Y-87057129D02*
X171397506Y-87152368D01*
X171397506Y-87152368D02*
X171492744Y-87199987D01*
X171492744Y-87199987D02*
X171683220Y-87199987D01*
X171683220Y-87199987D02*
X171778458Y-87152368D01*
X171778458Y-87152368D02*
X171873696Y-87057129D01*
X171873696Y-87057129D02*
X171921315Y-86866653D01*
X171921315Y-86866653D02*
X171921315Y-86533320D01*
X171921315Y-86533320D02*
X171873696Y-86342844D01*
X171873696Y-86342844D02*
X171778458Y-86247606D01*
X171778458Y-86247606D02*
X171683220Y-86199987D01*
X170826077Y-87104748D02*
X170778458Y-87152368D01*
X170778458Y-87152368D02*
X170826077Y-87199987D01*
X170826077Y-87199987D02*
X170873696Y-87152368D01*
X170873696Y-87152368D02*
X170826077Y-87104748D01*
X170826077Y-87104748D02*
X170826077Y-87199987D01*
X170826077Y-86580939D02*
X170778458Y-86628558D01*
X170778458Y-86628558D02*
X170826077Y-86676177D01*
X170826077Y-86676177D02*
X170873696Y-86628558D01*
X170873696Y-86628558D02*
X170826077Y-86580939D01*
X170826077Y-86580939D02*
X170826077Y-86676177D01*
X169587982Y-87199987D02*
X169587982Y-86199987D01*
X169587982Y-86676177D02*
X169016554Y-86676177D01*
X169016554Y-87199987D02*
X169016554Y-86199987D01*
X168683220Y-86199987D02*
X168111792Y-86199987D01*
X168397506Y-87199987D02*
X168397506Y-86199987D01*
X167873696Y-86199987D02*
X167207030Y-86199987D01*
X167207030Y-86199987D02*
X167635601Y-87199987D01*
X166349887Y-86199987D02*
X166826077Y-86199987D01*
X166826077Y-86199987D02*
X166873696Y-86676177D01*
X166873696Y-86676177D02*
X166826077Y-86628558D01*
X166826077Y-86628558D02*
X166730839Y-86580939D01*
X166730839Y-86580939D02*
X166492744Y-86580939D01*
X166492744Y-86580939D02*
X166397506Y-86628558D01*
X166397506Y-86628558D02*
X166349887Y-86676177D01*
X166349887Y-86676177D02*
X166302268Y-86771415D01*
X166302268Y-86771415D02*
X166302268Y-87009510D01*
X166302268Y-87009510D02*
X166349887Y-87104748D01*
X166349887Y-87104748D02*
X166397506Y-87152368D01*
X166397506Y-87152368D02*
X166492744Y-87199987D01*
X166492744Y-87199987D02*
X166730839Y-87199987D01*
X166730839Y-87199987D02*
X166826077Y-87152368D01*
X166826077Y-87152368D02*
X166873696Y-87104748D01*
X165968934Y-86199987D02*
X165349887Y-86199987D01*
X165349887Y-86199987D02*
X165683220Y-86580939D01*
X165683220Y-86580939D02*
X165540363Y-86580939D01*
X165540363Y-86580939D02*
X165445125Y-86628558D01*
X165445125Y-86628558D02*
X165397506Y-86676177D01*
X165397506Y-86676177D02*
X165349887Y-86771415D01*
X165349887Y-86771415D02*
X165349887Y-87009510D01*
X165349887Y-87009510D02*
X165397506Y-87104748D01*
X165397506Y-87104748D02*
X165445125Y-87152368D01*
X165445125Y-87152368D02*
X165540363Y-87199987D01*
X165540363Y-87199987D02*
X165826077Y-87199987D01*
X165826077Y-87199987D02*
X165921315Y-87152368D01*
X165921315Y-87152368D02*
X165968934Y-87104748D01*
X165016553Y-86199987D02*
X164397506Y-86199987D01*
X164397506Y-86199987D02*
X164730839Y-86580939D01*
X164730839Y-86580939D02*
X164587982Y-86580939D01*
X164587982Y-86580939D02*
X164492744Y-86628558D01*
X164492744Y-86628558D02*
X164445125Y-86676177D01*
X164445125Y-86676177D02*
X164397506Y-86771415D01*
X164397506Y-86771415D02*
X164397506Y-87009510D01*
X164397506Y-87009510D02*
X164445125Y-87104748D01*
X164445125Y-87104748D02*
X164492744Y-87152368D01*
X164492744Y-87152368D02*
X164587982Y-87199987D01*
X164587982Y-87199987D02*
X164873696Y-87199987D01*
X164873696Y-87199987D02*
X164968934Y-87152368D01*
X164968934Y-87152368D02*
X165016553Y-87104748D01*
X163968934Y-86819034D02*
X163207030Y-86819034D01*
X162207030Y-87199987D02*
X162778458Y-87199987D01*
X162492744Y-87199987D02*
X162492744Y-86199987D01*
X162492744Y-86199987D02*
X162587982Y-86342844D01*
X162587982Y-86342844D02*
X162683220Y-86438082D01*
X162683220Y-86438082D02*
X162778458Y-86485701D01*
X173349887Y-88286121D02*
X173207030Y-88333740D01*
X173207030Y-88333740D02*
X173159411Y-88381359D01*
X173159411Y-88381359D02*
X173111792Y-88476597D01*
X173111792Y-88476597D02*
X173111792Y-88619454D01*
X173111792Y-88619454D02*
X173159411Y-88714692D01*
X173159411Y-88714692D02*
X173207030Y-88762312D01*
X173207030Y-88762312D02*
X173302268Y-88809931D01*
X173302268Y-88809931D02*
X173683220Y-88809931D01*
X173683220Y-88809931D02*
X173683220Y-87809931D01*
X173683220Y-87809931D02*
X173349887Y-87809931D01*
X173349887Y-87809931D02*
X173254649Y-87857550D01*
X173254649Y-87857550D02*
X173207030Y-87905169D01*
X173207030Y-87905169D02*
X173159411Y-88000407D01*
X173159411Y-88000407D02*
X173159411Y-88095645D01*
X173159411Y-88095645D02*
X173207030Y-88190883D01*
X173207030Y-88190883D02*
X173254649Y-88238502D01*
X173254649Y-88238502D02*
X173349887Y-88286121D01*
X173349887Y-88286121D02*
X173683220Y-88286121D01*
X172683220Y-87809931D02*
X172683220Y-88619454D01*
X172683220Y-88619454D02*
X172635601Y-88714692D01*
X172635601Y-88714692D02*
X172587982Y-88762312D01*
X172587982Y-88762312D02*
X172492744Y-88809931D01*
X172492744Y-88809931D02*
X172302268Y-88809931D01*
X172302268Y-88809931D02*
X172207030Y-88762312D01*
X172207030Y-88762312D02*
X172159411Y-88714692D01*
X172159411Y-88714692D02*
X172111792Y-88619454D01*
X172111792Y-88619454D02*
X172111792Y-87809931D01*
X171302268Y-88286121D02*
X171635601Y-88286121D01*
X171635601Y-88809931D02*
X171635601Y-87809931D01*
X171635601Y-87809931D02*
X171159411Y-87809931D01*
X170778458Y-88714692D02*
X170730839Y-88762312D01*
X170730839Y-88762312D02*
X170778458Y-88809931D01*
X170778458Y-88809931D02*
X170826077Y-88762312D01*
X170826077Y-88762312D02*
X170778458Y-88714692D01*
X170778458Y-88714692D02*
X170778458Y-88809931D01*
X170778458Y-88190883D02*
X170730839Y-88238502D01*
X170730839Y-88238502D02*
X170778458Y-88286121D01*
X170778458Y-88286121D02*
X170826077Y-88238502D01*
X170826077Y-88238502D02*
X170778458Y-88190883D01*
X170778458Y-88190883D02*
X170778458Y-88286121D01*
X169635601Y-87809931D02*
X168968935Y-87809931D01*
X168968935Y-87809931D02*
X169397506Y-88809931D01*
X168159411Y-88143264D02*
X168159411Y-88809931D01*
X168397506Y-87762312D02*
X168635601Y-88476597D01*
X168635601Y-88476597D02*
X168016554Y-88476597D01*
X167159411Y-88809931D02*
X167635601Y-88809931D01*
X167635601Y-88809931D02*
X167635601Y-87809931D01*
X166968934Y-87809931D02*
X166635601Y-88809931D01*
X166635601Y-88809931D02*
X166302268Y-87809931D01*
X165397506Y-88714692D02*
X165445125Y-88762312D01*
X165445125Y-88762312D02*
X165587982Y-88809931D01*
X165587982Y-88809931D02*
X165683220Y-88809931D01*
X165683220Y-88809931D02*
X165826077Y-88762312D01*
X165826077Y-88762312D02*
X165921315Y-88667073D01*
X165921315Y-88667073D02*
X165968934Y-88571835D01*
X165968934Y-88571835D02*
X166016553Y-88381359D01*
X166016553Y-88381359D02*
X166016553Y-88238502D01*
X166016553Y-88238502D02*
X165968934Y-88048026D01*
X165968934Y-88048026D02*
X165921315Y-87952788D01*
X165921315Y-87952788D02*
X165826077Y-87857550D01*
X165826077Y-87857550D02*
X165683220Y-87809931D01*
X165683220Y-87809931D02*
X165587982Y-87809931D01*
X165587982Y-87809931D02*
X165445125Y-87857550D01*
X165445125Y-87857550D02*
X165397506Y-87905169D01*
X165016553Y-87905169D02*
X164968934Y-87857550D01*
X164968934Y-87857550D02*
X164873696Y-87809931D01*
X164873696Y-87809931D02*
X164635601Y-87809931D01*
X164635601Y-87809931D02*
X164540363Y-87857550D01*
X164540363Y-87857550D02*
X164492744Y-87905169D01*
X164492744Y-87905169D02*
X164445125Y-88000407D01*
X164445125Y-88000407D02*
X164445125Y-88095645D01*
X164445125Y-88095645D02*
X164492744Y-88238502D01*
X164492744Y-88238502D02*
X165064172Y-88809931D01*
X165064172Y-88809931D02*
X164445125Y-88809931D01*
X163492744Y-87857550D02*
X163587982Y-87809931D01*
X163587982Y-87809931D02*
X163730839Y-87809931D01*
X163730839Y-87809931D02*
X163873696Y-87857550D01*
X163873696Y-87857550D02*
X163968934Y-87952788D01*
X163968934Y-87952788D02*
X164016553Y-88048026D01*
X164016553Y-88048026D02*
X164064172Y-88238502D01*
X164064172Y-88238502D02*
X164064172Y-88381359D01*
X164064172Y-88381359D02*
X164016553Y-88571835D01*
X164016553Y-88571835D02*
X163968934Y-88667073D01*
X163968934Y-88667073D02*
X163873696Y-88762312D01*
X163873696Y-88762312D02*
X163730839Y-88809931D01*
X163730839Y-88809931D02*
X163635601Y-88809931D01*
X163635601Y-88809931D02*
X163492744Y-88762312D01*
X163492744Y-88762312D02*
X163445125Y-88714692D01*
X163445125Y-88714692D02*
X163445125Y-88381359D01*
X163445125Y-88381359D02*
X163635601Y-88381359D01*
X163064172Y-87905169D02*
X163016553Y-87857550D01*
X163016553Y-87857550D02*
X162921315Y-87809931D01*
X162921315Y-87809931D02*
X162683220Y-87809931D01*
X162683220Y-87809931D02*
X162587982Y-87857550D01*
X162587982Y-87857550D02*
X162540363Y-87905169D01*
X162540363Y-87905169D02*
X162492744Y-88000407D01*
X162492744Y-88000407D02*
X162492744Y-88095645D01*
X162492744Y-88095645D02*
X162540363Y-88238502D01*
X162540363Y-88238502D02*
X163111791Y-88809931D01*
X163111791Y-88809931D02*
X162492744Y-88809931D01*
X161635601Y-88143264D02*
X161635601Y-88809931D01*
X161873696Y-87762312D02*
X162111791Y-88476597D01*
X162111791Y-88476597D02*
X161492744Y-88476597D01*
X160587982Y-88809931D02*
X161159410Y-88809931D01*
X160873696Y-88809931D02*
X160873696Y-87809931D01*
X160873696Y-87809931D02*
X160968934Y-87952788D01*
X160968934Y-87952788D02*
X161064172Y-88048026D01*
X161064172Y-88048026D02*
X161159410Y-88095645D01*
X173111792Y-90419875D02*
X173445125Y-89943684D01*
X173683220Y-90419875D02*
X173683220Y-89419875D01*
X173683220Y-89419875D02*
X173302268Y-89419875D01*
X173302268Y-89419875D02*
X173207030Y-89467494D01*
X173207030Y-89467494D02*
X173159411Y-89515113D01*
X173159411Y-89515113D02*
X173111792Y-89610351D01*
X173111792Y-89610351D02*
X173111792Y-89753208D01*
X173111792Y-89753208D02*
X173159411Y-89848446D01*
X173159411Y-89848446D02*
X173207030Y-89896065D01*
X173207030Y-89896065D02*
X173302268Y-89943684D01*
X173302268Y-89943684D02*
X173683220Y-89943684D01*
X172730839Y-90372256D02*
X172587982Y-90419875D01*
X172587982Y-90419875D02*
X172349887Y-90419875D01*
X172349887Y-90419875D02*
X172254649Y-90372256D01*
X172254649Y-90372256D02*
X172207030Y-90324636D01*
X172207030Y-90324636D02*
X172159411Y-90229398D01*
X172159411Y-90229398D02*
X172159411Y-90134160D01*
X172159411Y-90134160D02*
X172207030Y-90038922D01*
X172207030Y-90038922D02*
X172254649Y-89991303D01*
X172254649Y-89991303D02*
X172349887Y-89943684D01*
X172349887Y-89943684D02*
X172540363Y-89896065D01*
X172540363Y-89896065D02*
X172635601Y-89848446D01*
X172635601Y-89848446D02*
X172683220Y-89800827D01*
X172683220Y-89800827D02*
X172730839Y-89705589D01*
X172730839Y-89705589D02*
X172730839Y-89610351D01*
X172730839Y-89610351D02*
X172683220Y-89515113D01*
X172683220Y-89515113D02*
X172635601Y-89467494D01*
X172635601Y-89467494D02*
X172540363Y-89419875D01*
X172540363Y-89419875D02*
X172302268Y-89419875D01*
X172302268Y-89419875D02*
X172159411Y-89467494D01*
X171207030Y-90419875D02*
X171778458Y-90419875D01*
X171492744Y-90419875D02*
X171492744Y-89419875D01*
X171492744Y-89419875D02*
X171587982Y-89562732D01*
X171587982Y-89562732D02*
X171683220Y-89657970D01*
X171683220Y-89657970D02*
X171778458Y-89705589D01*
X170778458Y-90324636D02*
X170730839Y-90372256D01*
X170730839Y-90372256D02*
X170778458Y-90419875D01*
X170778458Y-90419875D02*
X170826077Y-90372256D01*
X170826077Y-90372256D02*
X170778458Y-90324636D01*
X170778458Y-90324636D02*
X170778458Y-90419875D01*
X170778458Y-89800827D02*
X170730839Y-89848446D01*
X170730839Y-89848446D02*
X170778458Y-89896065D01*
X170778458Y-89896065D02*
X170826077Y-89848446D01*
X170826077Y-89848446D02*
X170778458Y-89800827D01*
X170778458Y-89800827D02*
X170778458Y-89896065D01*
X169349887Y-89419875D02*
X169254649Y-89419875D01*
X169254649Y-89419875D02*
X169159411Y-89467494D01*
X169159411Y-89467494D02*
X169111792Y-89515113D01*
X169111792Y-89515113D02*
X169064173Y-89610351D01*
X169064173Y-89610351D02*
X169016554Y-89800827D01*
X169016554Y-89800827D02*
X169016554Y-90038922D01*
X169016554Y-90038922D02*
X169064173Y-90229398D01*
X169064173Y-90229398D02*
X169111792Y-90324636D01*
X169111792Y-90324636D02*
X169159411Y-90372256D01*
X169159411Y-90372256D02*
X169254649Y-90419875D01*
X169254649Y-90419875D02*
X169349887Y-90419875D01*
X169349887Y-90419875D02*
X169445125Y-90372256D01*
X169445125Y-90372256D02*
X169492744Y-90324636D01*
X169492744Y-90324636D02*
X169540363Y-90229398D01*
X169540363Y-90229398D02*
X169587982Y-90038922D01*
X169587982Y-90038922D02*
X169587982Y-89800827D01*
X169587982Y-89800827D02*
X169540363Y-89610351D01*
X169540363Y-89610351D02*
X169492744Y-89515113D01*
X169492744Y-89515113D02*
X169445125Y-89467494D01*
X169445125Y-89467494D02*
X169349887Y-89419875D01*
X168587982Y-90324636D02*
X168540363Y-90372256D01*
X168540363Y-90372256D02*
X168587982Y-90419875D01*
X168587982Y-90419875D02*
X168635601Y-90372256D01*
X168635601Y-90372256D02*
X168587982Y-90324636D01*
X168587982Y-90324636D02*
X168587982Y-90419875D01*
X167587983Y-90419875D02*
X168159411Y-90419875D01*
X167873697Y-90419875D02*
X167873697Y-89419875D01*
X167873697Y-89419875D02*
X167968935Y-89562732D01*
X167968935Y-89562732D02*
X168064173Y-89657970D01*
X168064173Y-89657970D02*
X168159411Y-89705589D01*
X166968935Y-89419875D02*
X166778459Y-89419875D01*
X166778459Y-89419875D02*
X166683221Y-89467494D01*
X166683221Y-89467494D02*
X166587983Y-89562732D01*
X166587983Y-89562732D02*
X166540364Y-89753208D01*
X166540364Y-89753208D02*
X166540364Y-90086541D01*
X166540364Y-90086541D02*
X166587983Y-90277017D01*
X166587983Y-90277017D02*
X166683221Y-90372256D01*
X166683221Y-90372256D02*
X166778459Y-90419875D01*
X166778459Y-90419875D02*
X166968935Y-90419875D01*
X166968935Y-90419875D02*
X167064173Y-90372256D01*
X167064173Y-90372256D02*
X167159411Y-90277017D01*
X167159411Y-90277017D02*
X167207030Y-90086541D01*
X167207030Y-90086541D02*
X167207030Y-89753208D01*
X167207030Y-89753208D02*
X167159411Y-89562732D01*
X167159411Y-89562732D02*
X167064173Y-89467494D01*
X167064173Y-89467494D02*
X166968935Y-89419875D01*
X166111792Y-90419875D02*
X166111792Y-89419875D01*
X165683221Y-90419875D02*
X165683221Y-89896065D01*
X165683221Y-89896065D02*
X165730840Y-89800827D01*
X165730840Y-89800827D02*
X165826078Y-89753208D01*
X165826078Y-89753208D02*
X165968935Y-89753208D01*
X165968935Y-89753208D02*
X166064173Y-89800827D01*
X166064173Y-89800827D02*
X166111792Y-89848446D01*
X165207030Y-90419875D02*
X165207030Y-89753208D01*
X165207030Y-89848446D02*
X165159411Y-89800827D01*
X165159411Y-89800827D02*
X165064173Y-89753208D01*
X165064173Y-89753208D02*
X164921316Y-89753208D01*
X164921316Y-89753208D02*
X164826078Y-89800827D01*
X164826078Y-89800827D02*
X164778459Y-89896065D01*
X164778459Y-89896065D02*
X164778459Y-90419875D01*
X164778459Y-89896065D02*
X164730840Y-89800827D01*
X164730840Y-89800827D02*
X164635602Y-89753208D01*
X164635602Y-89753208D02*
X164492745Y-89753208D01*
X164492745Y-89753208D02*
X164397506Y-89800827D01*
X164397506Y-89800827D02*
X164349887Y-89896065D01*
X164349887Y-89896065D02*
X164349887Y-90419875D01*
X163254649Y-90038922D02*
X163207030Y-89991303D01*
X163207030Y-89991303D02*
X163111792Y-89943684D01*
X163111792Y-89943684D02*
X162921316Y-90038922D01*
X162921316Y-90038922D02*
X162826078Y-89991303D01*
X162826078Y-89991303D02*
X162778459Y-89943684D01*
X161873697Y-90419875D02*
X162445125Y-90419875D01*
X162159411Y-90419875D02*
X162159411Y-89419875D01*
X162159411Y-89419875D02*
X162254649Y-89562732D01*
X162254649Y-89562732D02*
X162349887Y-89657970D01*
X162349887Y-89657970D02*
X162445125Y-89705589D01*
X161492744Y-90419875D02*
X160730840Y-89419875D01*
X161349887Y-89419875D02*
X161254649Y-89467494D01*
X161254649Y-89467494D02*
X161207030Y-89562732D01*
X161207030Y-89562732D02*
X161254649Y-89657970D01*
X161254649Y-89657970D02*
X161349887Y-89705589D01*
X161349887Y-89705589D02*
X161445125Y-89657970D01*
X161445125Y-89657970D02*
X161492744Y-89562732D01*
X161492744Y-89562732D02*
X161445125Y-89467494D01*
X161445125Y-89467494D02*
X161349887Y-89419875D01*
X160778459Y-90372256D02*
X160730840Y-90277017D01*
X160730840Y-90277017D02*
X160778459Y-90181779D01*
X160778459Y-90181779D02*
X160873697Y-90134160D01*
X160873697Y-90134160D02*
X160968935Y-90181779D01*
X160968935Y-90181779D02*
X161016554Y-90277017D01*
X161016554Y-90277017D02*
X160968935Y-90372256D01*
X160968935Y-90372256D02*
X160873697Y-90419875D01*
X160873697Y-90419875D02*
X160778459Y-90372256D01*
X159587982Y-89515113D02*
X159540363Y-89467494D01*
X159540363Y-89467494D02*
X159445125Y-89419875D01*
X159445125Y-89419875D02*
X159207030Y-89419875D01*
X159207030Y-89419875D02*
X159111792Y-89467494D01*
X159111792Y-89467494D02*
X159064173Y-89515113D01*
X159064173Y-89515113D02*
X159016554Y-89610351D01*
X159016554Y-89610351D02*
X159016554Y-89705589D01*
X159016554Y-89705589D02*
X159064173Y-89848446D01*
X159064173Y-89848446D02*
X159635601Y-90419875D01*
X159635601Y-90419875D02*
X159016554Y-90419875D01*
X158111792Y-89419875D02*
X158587982Y-89419875D01*
X158587982Y-89419875D02*
X158635601Y-89896065D01*
X158635601Y-89896065D02*
X158587982Y-89848446D01*
X158587982Y-89848446D02*
X158492744Y-89800827D01*
X158492744Y-89800827D02*
X158254649Y-89800827D01*
X158254649Y-89800827D02*
X158159411Y-89848446D01*
X158159411Y-89848446D02*
X158111792Y-89896065D01*
X158111792Y-89896065D02*
X158064173Y-89991303D01*
X158064173Y-89991303D02*
X158064173Y-90229398D01*
X158064173Y-90229398D02*
X158111792Y-90324636D01*
X158111792Y-90324636D02*
X158159411Y-90372256D01*
X158159411Y-90372256D02*
X158254649Y-90419875D01*
X158254649Y-90419875D02*
X158492744Y-90419875D01*
X158492744Y-90419875D02*
X158587982Y-90372256D01*
X158587982Y-90372256D02*
X158635601Y-90324636D01*
X157445125Y-89419875D02*
X157349887Y-89419875D01*
X157349887Y-89419875D02*
X157254649Y-89467494D01*
X157254649Y-89467494D02*
X157207030Y-89515113D01*
X157207030Y-89515113D02*
X157159411Y-89610351D01*
X157159411Y-89610351D02*
X157111792Y-89800827D01*
X157111792Y-89800827D02*
X157111792Y-90038922D01*
X157111792Y-90038922D02*
X157159411Y-90229398D01*
X157159411Y-90229398D02*
X157207030Y-90324636D01*
X157207030Y-90324636D02*
X157254649Y-90372256D01*
X157254649Y-90372256D02*
X157349887Y-90419875D01*
X157349887Y-90419875D02*
X157445125Y-90419875D01*
X157445125Y-90419875D02*
X157540363Y-90372256D01*
X157540363Y-90372256D02*
X157587982Y-90324636D01*
X157587982Y-90324636D02*
X157635601Y-90229398D01*
X157635601Y-90229398D02*
X157683220Y-90038922D01*
X157683220Y-90038922D02*
X157683220Y-89800827D01*
X157683220Y-89800827D02*
X157635601Y-89610351D01*
X157635601Y-89610351D02*
X157587982Y-89515113D01*
X157587982Y-89515113D02*
X157540363Y-89467494D01*
X157540363Y-89467494D02*
X157445125Y-89419875D01*
X156683220Y-90419875D02*
X156683220Y-89753208D01*
X156683220Y-89848446D02*
X156635601Y-89800827D01*
X156635601Y-89800827D02*
X156540363Y-89753208D01*
X156540363Y-89753208D02*
X156397506Y-89753208D01*
X156397506Y-89753208D02*
X156302268Y-89800827D01*
X156302268Y-89800827D02*
X156254649Y-89896065D01*
X156254649Y-89896065D02*
X156254649Y-90419875D01*
X156254649Y-89896065D02*
X156207030Y-89800827D01*
X156207030Y-89800827D02*
X156111792Y-89753208D01*
X156111792Y-89753208D02*
X155968935Y-89753208D01*
X155968935Y-89753208D02*
X155873696Y-89800827D01*
X155873696Y-89800827D02*
X155826077Y-89896065D01*
X155826077Y-89896065D02*
X155826077Y-90419875D01*
X155445125Y-89419875D02*
X155207030Y-90419875D01*
X155207030Y-90419875D02*
X155016554Y-89705589D01*
X155016554Y-89705589D02*
X154826078Y-90419875D01*
X154826078Y-90419875D02*
X154587983Y-89419875D01*
X173111792Y-92029819D02*
X173445125Y-91553628D01*
X173683220Y-92029819D02*
X173683220Y-91029819D01*
X173683220Y-91029819D02*
X173302268Y-91029819D01*
X173302268Y-91029819D02*
X173207030Y-91077438D01*
X173207030Y-91077438D02*
X173159411Y-91125057D01*
X173159411Y-91125057D02*
X173111792Y-91220295D01*
X173111792Y-91220295D02*
X173111792Y-91363152D01*
X173111792Y-91363152D02*
X173159411Y-91458390D01*
X173159411Y-91458390D02*
X173207030Y-91506009D01*
X173207030Y-91506009D02*
X173302268Y-91553628D01*
X173302268Y-91553628D02*
X173683220Y-91553628D01*
X172683220Y-91506009D02*
X172349887Y-91506009D01*
X172207030Y-92029819D02*
X172683220Y-92029819D01*
X172683220Y-92029819D02*
X172683220Y-91029819D01*
X172683220Y-91029819D02*
X172207030Y-91029819D01*
X171921315Y-91029819D02*
X171587982Y-92029819D01*
X171587982Y-92029819D02*
X171254649Y-91029819D01*
X170921315Y-91934580D02*
X170873696Y-91982200D01*
X170873696Y-91982200D02*
X170921315Y-92029819D01*
X170921315Y-92029819D02*
X170968934Y-91982200D01*
X170968934Y-91982200D02*
X170921315Y-91934580D01*
X170921315Y-91934580D02*
X170921315Y-92029819D01*
X170921315Y-91410771D02*
X170873696Y-91458390D01*
X170873696Y-91458390D02*
X170921315Y-91506009D01*
X170921315Y-91506009D02*
X170968934Y-91458390D01*
X170968934Y-91458390D02*
X170921315Y-91410771D01*
X170921315Y-91410771D02*
X170921315Y-91506009D01*
X169730839Y-91744104D02*
X169254649Y-91744104D01*
X169826077Y-92029819D02*
X169492744Y-91029819D01*
X169492744Y-91029819D02*
X169159411Y-92029819D01*
X135789819Y-111440476D02*
X134789819Y-111440476D01*
X134789819Y-111440476D02*
X135504104Y-111773809D01*
X135504104Y-111773809D02*
X134789819Y-112107142D01*
X134789819Y-112107142D02*
X135789819Y-112107142D01*
X134885057Y-112535714D02*
X134837438Y-112583333D01*
X134837438Y-112583333D02*
X134789819Y-112678571D01*
X134789819Y-112678571D02*
X134789819Y-112916666D01*
X134789819Y-112916666D02*
X134837438Y-113011904D01*
X134837438Y-113011904D02*
X134885057Y-113059523D01*
X134885057Y-113059523D02*
X134980295Y-113107142D01*
X134980295Y-113107142D02*
X135075533Y-113107142D01*
X135075533Y-113107142D02*
X135218390Y-113059523D01*
X135218390Y-113059523D02*
X135789819Y-112488095D01*
X135789819Y-112488095D02*
X135789819Y-113107142D01*
X136399763Y-111440476D02*
X137399763Y-110678572D01*
X137399763Y-110964286D02*
X137352144Y-110869048D01*
X137352144Y-110869048D02*
X137256905Y-110773810D01*
X137256905Y-110773810D02*
X137066429Y-110726191D01*
X137066429Y-110726191D02*
X136733096Y-110726191D01*
X136733096Y-110726191D02*
X136542620Y-110773810D01*
X136542620Y-110773810D02*
X136447382Y-110869048D01*
X136447382Y-110869048D02*
X136399763Y-110964286D01*
X136399763Y-110964286D02*
X136399763Y-111154762D01*
X136399763Y-111154762D02*
X136447382Y-111250000D01*
X136447382Y-111250000D02*
X136542620Y-111345238D01*
X136542620Y-111345238D02*
X136733096Y-111392857D01*
X136733096Y-111392857D02*
X137066429Y-111392857D01*
X137066429Y-111392857D02*
X137256905Y-111345238D01*
X137256905Y-111345238D02*
X137352144Y-111250000D01*
X137352144Y-111250000D02*
X137399763Y-111154762D01*
X137399763Y-111154762D02*
X137399763Y-110964286D01*
X136495001Y-111773810D02*
X136447382Y-111821429D01*
X136447382Y-111821429D02*
X136399763Y-111916667D01*
X136399763Y-111916667D02*
X136399763Y-112154762D01*
X136399763Y-112154762D02*
X136447382Y-112250000D01*
X136447382Y-112250000D02*
X136495001Y-112297619D01*
X136495001Y-112297619D02*
X136590239Y-112345238D01*
X136590239Y-112345238D02*
X136685477Y-112345238D01*
X136685477Y-112345238D02*
X136828334Y-112297619D01*
X136828334Y-112297619D02*
X137399763Y-111726191D01*
X137399763Y-111726191D02*
X137399763Y-112345238D01*
X137304524Y-112773810D02*
X137352144Y-112821429D01*
X137352144Y-112821429D02*
X137399763Y-112773810D01*
X137399763Y-112773810D02*
X137352144Y-112726191D01*
X137352144Y-112726191D02*
X137304524Y-112773810D01*
X137304524Y-112773810D02*
X137399763Y-112773810D01*
X136495001Y-113202381D02*
X136447382Y-113250000D01*
X136447382Y-113250000D02*
X136399763Y-113345238D01*
X136399763Y-113345238D02*
X136399763Y-113583333D01*
X136399763Y-113583333D02*
X136447382Y-113678571D01*
X136447382Y-113678571D02*
X136495001Y-113726190D01*
X136495001Y-113726190D02*
X136590239Y-113773809D01*
X136590239Y-113773809D02*
X136685477Y-113773809D01*
X136685477Y-113773809D02*
X136828334Y-113726190D01*
X136828334Y-113726190D02*
X137399763Y-113154762D01*
X137399763Y-113154762D02*
X137399763Y-113773809D01*
X183509875Y-56940476D02*
X182509875Y-56940476D01*
X182509875Y-56940476D02*
X183224160Y-57273809D01*
X183224160Y-57273809D02*
X182509875Y-57607142D01*
X182509875Y-57607142D02*
X183509875Y-57607142D01*
X182605113Y-58035714D02*
X182557494Y-58083333D01*
X182557494Y-58083333D02*
X182509875Y-58178571D01*
X182509875Y-58178571D02*
X182509875Y-58416666D01*
X182509875Y-58416666D02*
X182557494Y-58511904D01*
X182557494Y-58511904D02*
X182605113Y-58559523D01*
X182605113Y-58559523D02*
X182700351Y-58607142D01*
X182700351Y-58607142D02*
X182795589Y-58607142D01*
X182795589Y-58607142D02*
X182938446Y-58559523D01*
X182938446Y-58559523D02*
X183509875Y-57988095D01*
X183509875Y-57988095D02*
X183509875Y-58607142D01*
X184119819Y-56940476D02*
X185119819Y-56178572D01*
X185119819Y-56464286D02*
X185072200Y-56369048D01*
X185072200Y-56369048D02*
X184976961Y-56273810D01*
X184976961Y-56273810D02*
X184786485Y-56226191D01*
X184786485Y-56226191D02*
X184453152Y-56226191D01*
X184453152Y-56226191D02*
X184262676Y-56273810D01*
X184262676Y-56273810D02*
X184167438Y-56369048D01*
X184167438Y-56369048D02*
X184119819Y-56464286D01*
X184119819Y-56464286D02*
X184119819Y-56654762D01*
X184119819Y-56654762D02*
X184167438Y-56750000D01*
X184167438Y-56750000D02*
X184262676Y-56845238D01*
X184262676Y-56845238D02*
X184453152Y-56892857D01*
X184453152Y-56892857D02*
X184786485Y-56892857D01*
X184786485Y-56892857D02*
X184976961Y-56845238D01*
X184976961Y-56845238D02*
X185072200Y-56750000D01*
X185072200Y-56750000D02*
X185119819Y-56654762D01*
X185119819Y-56654762D02*
X185119819Y-56464286D01*
X184215057Y-57273810D02*
X184167438Y-57321429D01*
X184167438Y-57321429D02*
X184119819Y-57416667D01*
X184119819Y-57416667D02*
X184119819Y-57654762D01*
X184119819Y-57654762D02*
X184167438Y-57750000D01*
X184167438Y-57750000D02*
X184215057Y-57797619D01*
X184215057Y-57797619D02*
X184310295Y-57845238D01*
X184310295Y-57845238D02*
X184405533Y-57845238D01*
X184405533Y-57845238D02*
X184548390Y-57797619D01*
X184548390Y-57797619D02*
X185119819Y-57226191D01*
X185119819Y-57226191D02*
X185119819Y-57845238D01*
X185024580Y-58273810D02*
X185072200Y-58321429D01*
X185072200Y-58321429D02*
X185119819Y-58273810D01*
X185119819Y-58273810D02*
X185072200Y-58226191D01*
X185072200Y-58226191D02*
X185024580Y-58273810D01*
X185024580Y-58273810D02*
X185119819Y-58273810D01*
X184215057Y-58702381D02*
X184167438Y-58750000D01*
X184167438Y-58750000D02*
X184119819Y-58845238D01*
X184119819Y-58845238D02*
X184119819Y-59083333D01*
X184119819Y-59083333D02*
X184167438Y-59178571D01*
X184167438Y-59178571D02*
X184215057Y-59226190D01*
X184215057Y-59226190D02*
X184310295Y-59273809D01*
X184310295Y-59273809D02*
X184405533Y-59273809D01*
X184405533Y-59273809D02*
X184548390Y-59226190D01*
X184548390Y-59226190D02*
X185119819Y-58654762D01*
X185119819Y-58654762D02*
X185119819Y-59273809D01*
X135789819Y-56890476D02*
X134789819Y-56890476D01*
X134789819Y-56890476D02*
X135504104Y-57223809D01*
X135504104Y-57223809D02*
X134789819Y-57557142D01*
X134789819Y-57557142D02*
X135789819Y-57557142D01*
X134885057Y-57985714D02*
X134837438Y-58033333D01*
X134837438Y-58033333D02*
X134789819Y-58128571D01*
X134789819Y-58128571D02*
X134789819Y-58366666D01*
X134789819Y-58366666D02*
X134837438Y-58461904D01*
X134837438Y-58461904D02*
X134885057Y-58509523D01*
X134885057Y-58509523D02*
X134980295Y-58557142D01*
X134980295Y-58557142D02*
X135075533Y-58557142D01*
X135075533Y-58557142D02*
X135218390Y-58509523D01*
X135218390Y-58509523D02*
X135789819Y-57938095D01*
X135789819Y-57938095D02*
X135789819Y-58557142D01*
X136399763Y-56890476D02*
X137399763Y-56128572D01*
X137399763Y-56414286D02*
X137352144Y-56319048D01*
X137352144Y-56319048D02*
X137256905Y-56223810D01*
X137256905Y-56223810D02*
X137066429Y-56176191D01*
X137066429Y-56176191D02*
X136733096Y-56176191D01*
X136733096Y-56176191D02*
X136542620Y-56223810D01*
X136542620Y-56223810D02*
X136447382Y-56319048D01*
X136447382Y-56319048D02*
X136399763Y-56414286D01*
X136399763Y-56414286D02*
X136399763Y-56604762D01*
X136399763Y-56604762D02*
X136447382Y-56700000D01*
X136447382Y-56700000D02*
X136542620Y-56795238D01*
X136542620Y-56795238D02*
X136733096Y-56842857D01*
X136733096Y-56842857D02*
X137066429Y-56842857D01*
X137066429Y-56842857D02*
X137256905Y-56795238D01*
X137256905Y-56795238D02*
X137352144Y-56700000D01*
X137352144Y-56700000D02*
X137399763Y-56604762D01*
X137399763Y-56604762D02*
X137399763Y-56414286D01*
X136495001Y-57223810D02*
X136447382Y-57271429D01*
X136447382Y-57271429D02*
X136399763Y-57366667D01*
X136399763Y-57366667D02*
X136399763Y-57604762D01*
X136399763Y-57604762D02*
X136447382Y-57700000D01*
X136447382Y-57700000D02*
X136495001Y-57747619D01*
X136495001Y-57747619D02*
X136590239Y-57795238D01*
X136590239Y-57795238D02*
X136685477Y-57795238D01*
X136685477Y-57795238D02*
X136828334Y-57747619D01*
X136828334Y-57747619D02*
X137399763Y-57176191D01*
X137399763Y-57176191D02*
X137399763Y-57795238D01*
X137304524Y-58223810D02*
X137352144Y-58271429D01*
X137352144Y-58271429D02*
X137399763Y-58223810D01*
X137399763Y-58223810D02*
X137352144Y-58176191D01*
X137352144Y-58176191D02*
X137304524Y-58223810D01*
X137304524Y-58223810D02*
X137399763Y-58223810D01*
X136495001Y-58652381D02*
X136447382Y-58700000D01*
X136447382Y-58700000D02*
X136399763Y-58795238D01*
X136399763Y-58795238D02*
X136399763Y-59033333D01*
X136399763Y-59033333D02*
X136447382Y-59128571D01*
X136447382Y-59128571D02*
X136495001Y-59176190D01*
X136495001Y-59176190D02*
X136590239Y-59223809D01*
X136590239Y-59223809D02*
X136685477Y-59223809D01*
X136685477Y-59223809D02*
X136828334Y-59176190D01*
X136828334Y-59176190D02*
X137399763Y-58604762D01*
X137399763Y-58604762D02*
X137399763Y-59223809D01*
X166520114Y-112804819D02*
X166520114Y-111804819D01*
X166091543Y-112804819D02*
X166091543Y-112281009D01*
X166091543Y-112281009D02*
X166139162Y-112185771D01*
X166139162Y-112185771D02*
X166234400Y-112138152D01*
X166234400Y-112138152D02*
X166377257Y-112138152D01*
X166377257Y-112138152D02*
X166472495Y-112185771D01*
X166472495Y-112185771D02*
X166520114Y-112233390D01*
X165758209Y-112138152D02*
X165377257Y-112138152D01*
X165615352Y-111804819D02*
X165615352Y-112661961D01*
X165615352Y-112661961D02*
X165567733Y-112757200D01*
X165567733Y-112757200D02*
X165472495Y-112804819D01*
X165472495Y-112804819D02*
X165377257Y-112804819D01*
X165186780Y-112138152D02*
X164805828Y-112138152D01*
X165043923Y-111804819D02*
X165043923Y-112661961D01*
X165043923Y-112661961D02*
X164996304Y-112757200D01*
X164996304Y-112757200D02*
X164901066Y-112804819D01*
X164901066Y-112804819D02*
X164805828Y-112804819D01*
X164472494Y-112138152D02*
X164472494Y-113138152D01*
X164472494Y-112185771D02*
X164377256Y-112138152D01*
X164377256Y-112138152D02*
X164186780Y-112138152D01*
X164186780Y-112138152D02*
X164091542Y-112185771D01*
X164091542Y-112185771D02*
X164043923Y-112233390D01*
X164043923Y-112233390D02*
X163996304Y-112328628D01*
X163996304Y-112328628D02*
X163996304Y-112614342D01*
X163996304Y-112614342D02*
X164043923Y-112709580D01*
X164043923Y-112709580D02*
X164091542Y-112757200D01*
X164091542Y-112757200D02*
X164186780Y-112804819D01*
X164186780Y-112804819D02*
X164377256Y-112804819D01*
X164377256Y-112804819D02*
X164472494Y-112757200D01*
X163615351Y-112757200D02*
X163520113Y-112804819D01*
X163520113Y-112804819D02*
X163329637Y-112804819D01*
X163329637Y-112804819D02*
X163234399Y-112757200D01*
X163234399Y-112757200D02*
X163186780Y-112661961D01*
X163186780Y-112661961D02*
X163186780Y-112614342D01*
X163186780Y-112614342D02*
X163234399Y-112519104D01*
X163234399Y-112519104D02*
X163329637Y-112471485D01*
X163329637Y-112471485D02*
X163472494Y-112471485D01*
X163472494Y-112471485D02*
X163567732Y-112423866D01*
X163567732Y-112423866D02*
X163615351Y-112328628D01*
X163615351Y-112328628D02*
X163615351Y-112281009D01*
X163615351Y-112281009D02*
X163567732Y-112185771D01*
X163567732Y-112185771D02*
X163472494Y-112138152D01*
X163472494Y-112138152D02*
X163329637Y-112138152D01*
X163329637Y-112138152D02*
X163234399Y-112185771D01*
X162758208Y-112709580D02*
X162710589Y-112757200D01*
X162710589Y-112757200D02*
X162758208Y-112804819D01*
X162758208Y-112804819D02*
X162805827Y-112757200D01*
X162805827Y-112757200D02*
X162758208Y-112709580D01*
X162758208Y-112709580D02*
X162758208Y-112804819D01*
X162758208Y-112185771D02*
X162710589Y-112233390D01*
X162710589Y-112233390D02*
X162758208Y-112281009D01*
X162758208Y-112281009D02*
X162805827Y-112233390D01*
X162805827Y-112233390D02*
X162758208Y-112185771D01*
X162758208Y-112185771D02*
X162758208Y-112281009D01*
X161567733Y-111757200D02*
X162424875Y-113042914D01*
X160520114Y-111757200D02*
X161377256Y-113042914D01*
X159758209Y-112138152D02*
X159758209Y-112947676D01*
X159758209Y-112947676D02*
X159805828Y-113042914D01*
X159805828Y-113042914D02*
X159853447Y-113090533D01*
X159853447Y-113090533D02*
X159948685Y-113138152D01*
X159948685Y-113138152D02*
X160091542Y-113138152D01*
X160091542Y-113138152D02*
X160186780Y-113090533D01*
X159758209Y-112757200D02*
X159853447Y-112804819D01*
X159853447Y-112804819D02*
X160043923Y-112804819D01*
X160043923Y-112804819D02*
X160139161Y-112757200D01*
X160139161Y-112757200D02*
X160186780Y-112709580D01*
X160186780Y-112709580D02*
X160234399Y-112614342D01*
X160234399Y-112614342D02*
X160234399Y-112328628D01*
X160234399Y-112328628D02*
X160186780Y-112233390D01*
X160186780Y-112233390D02*
X160139161Y-112185771D01*
X160139161Y-112185771D02*
X160043923Y-112138152D01*
X160043923Y-112138152D02*
X159853447Y-112138152D01*
X159853447Y-112138152D02*
X159758209Y-112185771D01*
X159282018Y-112804819D02*
X159282018Y-112138152D01*
X159282018Y-111804819D02*
X159329637Y-111852438D01*
X159329637Y-111852438D02*
X159282018Y-111900057D01*
X159282018Y-111900057D02*
X159234399Y-111852438D01*
X159234399Y-111852438D02*
X159282018Y-111804819D01*
X159282018Y-111804819D02*
X159282018Y-111900057D01*
X158948685Y-112138152D02*
X158567733Y-112138152D01*
X158805828Y-111804819D02*
X158805828Y-112661961D01*
X158805828Y-112661961D02*
X158758209Y-112757200D01*
X158758209Y-112757200D02*
X158662971Y-112804819D01*
X158662971Y-112804819D02*
X158567733Y-112804819D01*
X158234399Y-112804819D02*
X158234399Y-111804819D01*
X157805828Y-112804819D02*
X157805828Y-112281009D01*
X157805828Y-112281009D02*
X157853447Y-112185771D01*
X157853447Y-112185771D02*
X157948685Y-112138152D01*
X157948685Y-112138152D02*
X158091542Y-112138152D01*
X158091542Y-112138152D02*
X158186780Y-112185771D01*
X158186780Y-112185771D02*
X158234399Y-112233390D01*
X156901066Y-112138152D02*
X156901066Y-112804819D01*
X157329637Y-112138152D02*
X157329637Y-112661961D01*
X157329637Y-112661961D02*
X157282018Y-112757200D01*
X157282018Y-112757200D02*
X157186780Y-112804819D01*
X157186780Y-112804819D02*
X157043923Y-112804819D01*
X157043923Y-112804819D02*
X156948685Y-112757200D01*
X156948685Y-112757200D02*
X156901066Y-112709580D01*
X156424875Y-112804819D02*
X156424875Y-111804819D01*
X156424875Y-112185771D02*
X156329637Y-112138152D01*
X156329637Y-112138152D02*
X156139161Y-112138152D01*
X156139161Y-112138152D02*
X156043923Y-112185771D01*
X156043923Y-112185771D02*
X155996304Y-112233390D01*
X155996304Y-112233390D02*
X155948685Y-112328628D01*
X155948685Y-112328628D02*
X155948685Y-112614342D01*
X155948685Y-112614342D02*
X155996304Y-112709580D01*
X155996304Y-112709580D02*
X156043923Y-112757200D01*
X156043923Y-112757200D02*
X156139161Y-112804819D01*
X156139161Y-112804819D02*
X156329637Y-112804819D01*
X156329637Y-112804819D02*
X156424875Y-112757200D01*
X155520113Y-112709580D02*
X155472494Y-112757200D01*
X155472494Y-112757200D02*
X155520113Y-112804819D01*
X155520113Y-112804819D02*
X155567732Y-112757200D01*
X155567732Y-112757200D02*
X155520113Y-112709580D01*
X155520113Y-112709580D02*
X155520113Y-112804819D01*
X154615352Y-112757200D02*
X154710590Y-112804819D01*
X154710590Y-112804819D02*
X154901066Y-112804819D01*
X154901066Y-112804819D02*
X154996304Y-112757200D01*
X154996304Y-112757200D02*
X155043923Y-112709580D01*
X155043923Y-112709580D02*
X155091542Y-112614342D01*
X155091542Y-112614342D02*
X155091542Y-112328628D01*
X155091542Y-112328628D02*
X155043923Y-112233390D01*
X155043923Y-112233390D02*
X154996304Y-112185771D01*
X154996304Y-112185771D02*
X154901066Y-112138152D01*
X154901066Y-112138152D02*
X154710590Y-112138152D01*
X154710590Y-112138152D02*
X154615352Y-112185771D01*
X154043923Y-112804819D02*
X154139161Y-112757200D01*
X154139161Y-112757200D02*
X154186780Y-112709580D01*
X154186780Y-112709580D02*
X154234399Y-112614342D01*
X154234399Y-112614342D02*
X154234399Y-112328628D01*
X154234399Y-112328628D02*
X154186780Y-112233390D01*
X154186780Y-112233390D02*
X154139161Y-112185771D01*
X154139161Y-112185771D02*
X154043923Y-112138152D01*
X154043923Y-112138152D02*
X153901066Y-112138152D01*
X153901066Y-112138152D02*
X153805828Y-112185771D01*
X153805828Y-112185771D02*
X153758209Y-112233390D01*
X153758209Y-112233390D02*
X153710590Y-112328628D01*
X153710590Y-112328628D02*
X153710590Y-112614342D01*
X153710590Y-112614342D02*
X153758209Y-112709580D01*
X153758209Y-112709580D02*
X153805828Y-112757200D01*
X153805828Y-112757200D02*
X153901066Y-112804819D01*
X153901066Y-112804819D02*
X154043923Y-112804819D01*
X153282018Y-112804819D02*
X153282018Y-112138152D01*
X153282018Y-112233390D02*
X153234399Y-112185771D01*
X153234399Y-112185771D02*
X153139161Y-112138152D01*
X153139161Y-112138152D02*
X152996304Y-112138152D01*
X152996304Y-112138152D02*
X152901066Y-112185771D01*
X152901066Y-112185771D02*
X152853447Y-112281009D01*
X152853447Y-112281009D02*
X152853447Y-112804819D01*
X152853447Y-112281009D02*
X152805828Y-112185771D01*
X152805828Y-112185771D02*
X152710590Y-112138152D01*
X152710590Y-112138152D02*
X152567733Y-112138152D01*
X152567733Y-112138152D02*
X152472494Y-112185771D01*
X152472494Y-112185771D02*
X152424875Y-112281009D01*
X152424875Y-112281009D02*
X152424875Y-112804819D01*
X151234400Y-111757200D02*
X152091542Y-113042914D01*
X150710590Y-111804819D02*
X150520114Y-111804819D01*
X150520114Y-111804819D02*
X150424876Y-111852438D01*
X150424876Y-111852438D02*
X150329638Y-111947676D01*
X150329638Y-111947676D02*
X150282019Y-112138152D01*
X150282019Y-112138152D02*
X150282019Y-112471485D01*
X150282019Y-112471485D02*
X150329638Y-112661961D01*
X150329638Y-112661961D02*
X150424876Y-112757200D01*
X150424876Y-112757200D02*
X150520114Y-112804819D01*
X150520114Y-112804819D02*
X150710590Y-112804819D01*
X150710590Y-112804819D02*
X150805828Y-112757200D01*
X150805828Y-112757200D02*
X150901066Y-112661961D01*
X150901066Y-112661961D02*
X150948685Y-112471485D01*
X150948685Y-112471485D02*
X150948685Y-112138152D01*
X150948685Y-112138152D02*
X150901066Y-111947676D01*
X150901066Y-111947676D02*
X150805828Y-111852438D01*
X150805828Y-111852438D02*
X150710590Y-111804819D01*
X149853447Y-112138152D02*
X149853447Y-113138152D01*
X149853447Y-112185771D02*
X149758209Y-112138152D01*
X149758209Y-112138152D02*
X149567733Y-112138152D01*
X149567733Y-112138152D02*
X149472495Y-112185771D01*
X149472495Y-112185771D02*
X149424876Y-112233390D01*
X149424876Y-112233390D02*
X149377257Y-112328628D01*
X149377257Y-112328628D02*
X149377257Y-112614342D01*
X149377257Y-112614342D02*
X149424876Y-112709580D01*
X149424876Y-112709580D02*
X149472495Y-112757200D01*
X149472495Y-112757200D02*
X149567733Y-112804819D01*
X149567733Y-112804819D02*
X149758209Y-112804819D01*
X149758209Y-112804819D02*
X149853447Y-112757200D01*
X148567733Y-112757200D02*
X148662971Y-112804819D01*
X148662971Y-112804819D02*
X148853447Y-112804819D01*
X148853447Y-112804819D02*
X148948685Y-112757200D01*
X148948685Y-112757200D02*
X148996304Y-112661961D01*
X148996304Y-112661961D02*
X148996304Y-112281009D01*
X148996304Y-112281009D02*
X148948685Y-112185771D01*
X148948685Y-112185771D02*
X148853447Y-112138152D01*
X148853447Y-112138152D02*
X148662971Y-112138152D01*
X148662971Y-112138152D02*
X148567733Y-112185771D01*
X148567733Y-112185771D02*
X148520114Y-112281009D01*
X148520114Y-112281009D02*
X148520114Y-112376247D01*
X148520114Y-112376247D02*
X148996304Y-112471485D01*
X148091542Y-112138152D02*
X148091542Y-112804819D01*
X148091542Y-112233390D02*
X148043923Y-112185771D01*
X148043923Y-112185771D02*
X147948685Y-112138152D01*
X147948685Y-112138152D02*
X147805828Y-112138152D01*
X147805828Y-112138152D02*
X147710590Y-112185771D01*
X147710590Y-112185771D02*
X147662971Y-112281009D01*
X147662971Y-112281009D02*
X147662971Y-112804819D01*
X147234399Y-112757200D02*
X147091542Y-112804819D01*
X147091542Y-112804819D02*
X146853447Y-112804819D01*
X146853447Y-112804819D02*
X146758209Y-112757200D01*
X146758209Y-112757200D02*
X146710590Y-112709580D01*
X146710590Y-112709580D02*
X146662971Y-112614342D01*
X146662971Y-112614342D02*
X146662971Y-112519104D01*
X146662971Y-112519104D02*
X146710590Y-112423866D01*
X146710590Y-112423866D02*
X146758209Y-112376247D01*
X146758209Y-112376247D02*
X146853447Y-112328628D01*
X146853447Y-112328628D02*
X147043923Y-112281009D01*
X147043923Y-112281009D02*
X147139161Y-112233390D01*
X147139161Y-112233390D02*
X147186780Y-112185771D01*
X147186780Y-112185771D02*
X147234399Y-112090533D01*
X147234399Y-112090533D02*
X147234399Y-111995295D01*
X147234399Y-111995295D02*
X147186780Y-111900057D01*
X147186780Y-111900057D02*
X147139161Y-111852438D01*
X147139161Y-111852438D02*
X147043923Y-111804819D01*
X147043923Y-111804819D02*
X146805828Y-111804819D01*
X146805828Y-111804819D02*
X146662971Y-111852438D01*
X145853447Y-112757200D02*
X145948685Y-112804819D01*
X145948685Y-112804819D02*
X146139161Y-112804819D01*
X146139161Y-112804819D02*
X146234399Y-112757200D01*
X146234399Y-112757200D02*
X146282018Y-112661961D01*
X146282018Y-112661961D02*
X146282018Y-112281009D01*
X146282018Y-112281009D02*
X146234399Y-112185771D01*
X146234399Y-112185771D02*
X146139161Y-112138152D01*
X146139161Y-112138152D02*
X145948685Y-112138152D01*
X145948685Y-112138152D02*
X145853447Y-112185771D01*
X145853447Y-112185771D02*
X145805828Y-112281009D01*
X145805828Y-112281009D02*
X145805828Y-112376247D01*
X145805828Y-112376247D02*
X146282018Y-112471485D01*
X145377256Y-112804819D02*
X145377256Y-112138152D01*
X145377256Y-112328628D02*
X145329637Y-112233390D01*
X145329637Y-112233390D02*
X145282018Y-112185771D01*
X145282018Y-112185771D02*
X145186780Y-112138152D01*
X145186780Y-112138152D02*
X145091542Y-112138152D01*
X144853446Y-112138152D02*
X144615351Y-112804819D01*
X144615351Y-112804819D02*
X144377256Y-112138152D01*
X143853446Y-112804819D02*
X143948684Y-112757200D01*
X143948684Y-112757200D02*
X143996303Y-112709580D01*
X143996303Y-112709580D02*
X144043922Y-112614342D01*
X144043922Y-112614342D02*
X144043922Y-112328628D01*
X144043922Y-112328628D02*
X143996303Y-112233390D01*
X143996303Y-112233390D02*
X143948684Y-112185771D01*
X143948684Y-112185771D02*
X143853446Y-112138152D01*
X143853446Y-112138152D02*
X143710589Y-112138152D01*
X143710589Y-112138152D02*
X143615351Y-112185771D01*
X143615351Y-112185771D02*
X143567732Y-112233390D01*
X143567732Y-112233390D02*
X143520113Y-112328628D01*
X143520113Y-112328628D02*
X143520113Y-112614342D01*
X143520113Y-112614342D02*
X143567732Y-112709580D01*
X143567732Y-112709580D02*
X143615351Y-112757200D01*
X143615351Y-112757200D02*
X143710589Y-112804819D01*
X143710589Y-112804819D02*
X143853446Y-112804819D01*
X142520113Y-112709580D02*
X142567732Y-112757200D01*
X142567732Y-112757200D02*
X142710589Y-112804819D01*
X142710589Y-112804819D02*
X142805827Y-112804819D01*
X142805827Y-112804819D02*
X142948684Y-112757200D01*
X142948684Y-112757200D02*
X143043922Y-112661961D01*
X143043922Y-112661961D02*
X143091541Y-112566723D01*
X143091541Y-112566723D02*
X143139160Y-112376247D01*
X143139160Y-112376247D02*
X143139160Y-112233390D01*
X143139160Y-112233390D02*
X143091541Y-112042914D01*
X143091541Y-112042914D02*
X143043922Y-111947676D01*
X143043922Y-111947676D02*
X142948684Y-111852438D01*
X142948684Y-111852438D02*
X142805827Y-111804819D01*
X142805827Y-111804819D02*
X142710589Y-111804819D01*
X142710589Y-111804819D02*
X142567732Y-111852438D01*
X142567732Y-111852438D02*
X142520113Y-111900057D01*
X141948684Y-112804819D02*
X142043922Y-112757200D01*
X142043922Y-112757200D02*
X142091541Y-112709580D01*
X142091541Y-112709580D02*
X142139160Y-112614342D01*
X142139160Y-112614342D02*
X142139160Y-112328628D01*
X142139160Y-112328628D02*
X142091541Y-112233390D01*
X142091541Y-112233390D02*
X142043922Y-112185771D01*
X142043922Y-112185771D02*
X141948684Y-112138152D01*
X141948684Y-112138152D02*
X141805827Y-112138152D01*
X141805827Y-112138152D02*
X141710589Y-112185771D01*
X141710589Y-112185771D02*
X141662970Y-112233390D01*
X141662970Y-112233390D02*
X141615351Y-112328628D01*
X141615351Y-112328628D02*
X141615351Y-112614342D01*
X141615351Y-112614342D02*
X141662970Y-112709580D01*
X141662970Y-112709580D02*
X141710589Y-112757200D01*
X141710589Y-112757200D02*
X141805827Y-112804819D01*
X141805827Y-112804819D02*
X141948684Y-112804819D01*
X141186779Y-112804819D02*
X141186779Y-112138152D01*
X141186779Y-112328628D02*
X141139160Y-112233390D01*
X141139160Y-112233390D02*
X141091541Y-112185771D01*
X141091541Y-112185771D02*
X140996303Y-112138152D01*
X140996303Y-112138152D02*
X140901065Y-112138152D01*
X140186779Y-112757200D02*
X140282017Y-112804819D01*
X140282017Y-112804819D02*
X140472493Y-112804819D01*
X140472493Y-112804819D02*
X140567731Y-112757200D01*
X140567731Y-112757200D02*
X140615350Y-112661961D01*
X140615350Y-112661961D02*
X140615350Y-112281009D01*
X140615350Y-112281009D02*
X140567731Y-112185771D01*
X140567731Y-112185771D02*
X140472493Y-112138152D01*
X140472493Y-112138152D02*
X140282017Y-112138152D01*
X140282017Y-112138152D02*
X140186779Y-112185771D01*
X140186779Y-112185771D02*
X140139160Y-112281009D01*
X140139160Y-112281009D02*
X140139160Y-112376247D01*
X140139160Y-112376247D02*
X140615350Y-112471485D01*
X177619819Y-63169048D02*
X176619819Y-63169048D01*
X177096009Y-63169048D02*
X177096009Y-63740476D01*
X177619819Y-63740476D02*
X176619819Y-63740476D01*
X177619819Y-64216667D02*
X176619819Y-64216667D01*
X176619819Y-64216667D02*
X176619819Y-64454762D01*
X176619819Y-64454762D02*
X176667438Y-64597619D01*
X176667438Y-64597619D02*
X176762676Y-64692857D01*
X176762676Y-64692857D02*
X176857914Y-64740476D01*
X176857914Y-64740476D02*
X177048390Y-64788095D01*
X177048390Y-64788095D02*
X177191247Y-64788095D01*
X177191247Y-64788095D02*
X177381723Y-64740476D01*
X177381723Y-64740476D02*
X177476961Y-64692857D01*
X177476961Y-64692857D02*
X177572200Y-64597619D01*
X177572200Y-64597619D02*
X177619819Y-64454762D01*
X177619819Y-64454762D02*
X177619819Y-64216667D01*
X177619819Y-65788095D02*
X177143628Y-65454762D01*
X177619819Y-65216667D02*
X176619819Y-65216667D01*
X176619819Y-65216667D02*
X176619819Y-65597619D01*
X176619819Y-65597619D02*
X176667438Y-65692857D01*
X176667438Y-65692857D02*
X176715057Y-65740476D01*
X176715057Y-65740476D02*
X176810295Y-65788095D01*
X176810295Y-65788095D02*
X176953152Y-65788095D01*
X176953152Y-65788095D02*
X177048390Y-65740476D01*
X177048390Y-65740476D02*
X177096009Y-65692857D01*
X177096009Y-65692857D02*
X177143628Y-65597619D01*
X177143628Y-65597619D02*
X177143628Y-65216667D01*
X177238866Y-66216667D02*
X177238866Y-66978572D01*
X176619819Y-67359524D02*
X176619819Y-67978571D01*
X176619819Y-67978571D02*
X177000771Y-67645238D01*
X177000771Y-67645238D02*
X177000771Y-67788095D01*
X177000771Y-67788095D02*
X177048390Y-67883333D01*
X177048390Y-67883333D02*
X177096009Y-67930952D01*
X177096009Y-67930952D02*
X177191247Y-67978571D01*
X177191247Y-67978571D02*
X177429342Y-67978571D01*
X177429342Y-67978571D02*
X177524580Y-67930952D01*
X177524580Y-67930952D02*
X177572200Y-67883333D01*
X177572200Y-67883333D02*
X177619819Y-67788095D01*
X177619819Y-67788095D02*
X177619819Y-67502381D01*
X177619819Y-67502381D02*
X177572200Y-67407143D01*
X177572200Y-67407143D02*
X177524580Y-67359524D01*
X177619819Y-68407143D02*
X176619819Y-68407143D01*
X176619819Y-68407143D02*
X176619819Y-68788095D01*
X176619819Y-68788095D02*
X176667438Y-68883333D01*
X176667438Y-68883333D02*
X176715057Y-68930952D01*
X176715057Y-68930952D02*
X176810295Y-68978571D01*
X176810295Y-68978571D02*
X176953152Y-68978571D01*
X176953152Y-68978571D02*
X177048390Y-68930952D01*
X177048390Y-68930952D02*
X177096009Y-68883333D01*
X177096009Y-68883333D02*
X177143628Y-68788095D01*
X177143628Y-68788095D02*
X177143628Y-68407143D01*
X181719819Y-63169048D02*
X180719819Y-63169048D01*
X181196009Y-63169048D02*
X181196009Y-63740476D01*
X181719819Y-63740476D02*
X180719819Y-63740476D01*
X181719819Y-64216667D02*
X180719819Y-64216667D01*
X180719819Y-64216667D02*
X180719819Y-64454762D01*
X180719819Y-64454762D02*
X180767438Y-64597619D01*
X180767438Y-64597619D02*
X180862676Y-64692857D01*
X180862676Y-64692857D02*
X180957914Y-64740476D01*
X180957914Y-64740476D02*
X181148390Y-64788095D01*
X181148390Y-64788095D02*
X181291247Y-64788095D01*
X181291247Y-64788095D02*
X181481723Y-64740476D01*
X181481723Y-64740476D02*
X181576961Y-64692857D01*
X181576961Y-64692857D02*
X181672200Y-64597619D01*
X181672200Y-64597619D02*
X181719819Y-64454762D01*
X181719819Y-64454762D02*
X181719819Y-64216667D01*
X181719819Y-65788095D02*
X181243628Y-65454762D01*
X181719819Y-65216667D02*
X180719819Y-65216667D01*
X180719819Y-65216667D02*
X180719819Y-65597619D01*
X180719819Y-65597619D02*
X180767438Y-65692857D01*
X180767438Y-65692857D02*
X180815057Y-65740476D01*
X180815057Y-65740476D02*
X180910295Y-65788095D01*
X180910295Y-65788095D02*
X181053152Y-65788095D01*
X181053152Y-65788095D02*
X181148390Y-65740476D01*
X181148390Y-65740476D02*
X181196009Y-65692857D01*
X181196009Y-65692857D02*
X181243628Y-65597619D01*
X181243628Y-65597619D02*
X181243628Y-65216667D01*
X181338866Y-66216667D02*
X181338866Y-66978572D01*
X180719819Y-67359524D02*
X180719819Y-67978571D01*
X180719819Y-67978571D02*
X181100771Y-67645238D01*
X181100771Y-67645238D02*
X181100771Y-67788095D01*
X181100771Y-67788095D02*
X181148390Y-67883333D01*
X181148390Y-67883333D02*
X181196009Y-67930952D01*
X181196009Y-67930952D02*
X181291247Y-67978571D01*
X181291247Y-67978571D02*
X181529342Y-67978571D01*
X181529342Y-67978571D02*
X181624580Y-67930952D01*
X181624580Y-67930952D02*
X181672200Y-67883333D01*
X181672200Y-67883333D02*
X181719819Y-67788095D01*
X181719819Y-67788095D02*
X181719819Y-67502381D01*
X181719819Y-67502381D02*
X181672200Y-67407143D01*
X181672200Y-67407143D02*
X181624580Y-67359524D01*
X181719819Y-68407143D02*
X180719819Y-68407143D01*
X180719819Y-68407143D02*
X180719819Y-68788095D01*
X180719819Y-68788095D02*
X180767438Y-68883333D01*
X180767438Y-68883333D02*
X180815057Y-68930952D01*
X180815057Y-68930952D02*
X180910295Y-68978571D01*
X180910295Y-68978571D02*
X181053152Y-68978571D01*
X181053152Y-68978571D02*
X181148390Y-68930952D01*
X181148390Y-68930952D02*
X181196009Y-68883333D01*
X181196009Y-68883333D02*
X181243628Y-68788095D01*
X181243628Y-68788095D02*
X181243628Y-68407143D01*
X130739819Y-79892857D02*
X131454104Y-79892857D01*
X131454104Y-79892857D02*
X131596961Y-79845238D01*
X131596961Y-79845238D02*
X131692200Y-79750000D01*
X131692200Y-79750000D02*
X131739819Y-79607143D01*
X131739819Y-79607143D02*
X131739819Y-79511905D01*
X131692200Y-80321429D02*
X131739819Y-80464286D01*
X131739819Y-80464286D02*
X131739819Y-80702381D01*
X131739819Y-80702381D02*
X131692200Y-80797619D01*
X131692200Y-80797619D02*
X131644580Y-80845238D01*
X131644580Y-80845238D02*
X131549342Y-80892857D01*
X131549342Y-80892857D02*
X131454104Y-80892857D01*
X131454104Y-80892857D02*
X131358866Y-80845238D01*
X131358866Y-80845238D02*
X131311247Y-80797619D01*
X131311247Y-80797619D02*
X131263628Y-80702381D01*
X131263628Y-80702381D02*
X131216009Y-80511905D01*
X131216009Y-80511905D02*
X131168390Y-80416667D01*
X131168390Y-80416667D02*
X131120771Y-80369048D01*
X131120771Y-80369048D02*
X131025533Y-80321429D01*
X131025533Y-80321429D02*
X130930295Y-80321429D01*
X130930295Y-80321429D02*
X130835057Y-80369048D01*
X130835057Y-80369048D02*
X130787438Y-80416667D01*
X130787438Y-80416667D02*
X130739819Y-80511905D01*
X130739819Y-80511905D02*
X130739819Y-80750000D01*
X130739819Y-80750000D02*
X130787438Y-80892857D01*
X130739819Y-81178572D02*
X130739819Y-81750000D01*
X131739819Y-81464286D02*
X130739819Y-81464286D01*
X131358866Y-82083334D02*
X131358866Y-82845239D01*
X131739819Y-83321429D02*
X130739819Y-83321429D01*
X130739819Y-83321429D02*
X130739819Y-83702381D01*
X130739819Y-83702381D02*
X130787438Y-83797619D01*
X130787438Y-83797619D02*
X130835057Y-83845238D01*
X130835057Y-83845238D02*
X130930295Y-83892857D01*
X130930295Y-83892857D02*
X131073152Y-83892857D01*
X131073152Y-83892857D02*
X131168390Y-83845238D01*
X131168390Y-83845238D02*
X131216009Y-83797619D01*
X131216009Y-83797619D02*
X131263628Y-83702381D01*
X131263628Y-83702381D02*
X131263628Y-83321429D01*
X131739819Y-84321429D02*
X130739819Y-84321429D01*
X131216009Y-84321429D02*
X131216009Y-84892857D01*
X131739819Y-84892857D02*
X130739819Y-84892857D01*
X132445001Y-81464286D02*
X132397382Y-81511905D01*
X132397382Y-81511905D02*
X132349763Y-81607143D01*
X132349763Y-81607143D02*
X132349763Y-81845238D01*
X132349763Y-81845238D02*
X132397382Y-81940476D01*
X132397382Y-81940476D02*
X132445001Y-81988095D01*
X132445001Y-81988095D02*
X132540239Y-82035714D01*
X132540239Y-82035714D02*
X132635477Y-82035714D01*
X132635477Y-82035714D02*
X132778334Y-81988095D01*
X132778334Y-81988095D02*
X133349763Y-81416667D01*
X133349763Y-81416667D02*
X133349763Y-82035714D01*
X133349763Y-82464286D02*
X132349763Y-82464286D01*
X132349763Y-82464286D02*
X132349763Y-82845238D01*
X132349763Y-82845238D02*
X132397382Y-82940476D01*
X132397382Y-82940476D02*
X132445001Y-82988095D01*
X132445001Y-82988095D02*
X132540239Y-83035714D01*
X132540239Y-83035714D02*
X132683096Y-83035714D01*
X132683096Y-83035714D02*
X132778334Y-82988095D01*
X132778334Y-82988095D02*
X132825953Y-82940476D01*
X132825953Y-82940476D02*
X132873572Y-82845238D01*
X132873572Y-82845238D02*
X132873572Y-82464286D01*
G36*
X173006061Y-74000597D02*
G01*
X173182934Y-74018017D01*
X173206775Y-74022759D01*
X173370998Y-74072575D01*
X173393456Y-74081878D01*
X173544798Y-74162772D01*
X173565010Y-74176277D01*
X173697666Y-74285145D01*
X173714854Y-74302333D01*
X173823722Y-74434989D01*
X173837227Y-74455201D01*
X173918121Y-74606543D01*
X173927424Y-74629001D01*
X173977240Y-74793224D01*
X173981982Y-74817065D01*
X173999403Y-74993938D01*
X174000000Y-75006092D01*
X174000000Y-79493907D01*
X173999403Y-79506061D01*
X173981982Y-79682934D01*
X173977240Y-79706775D01*
X173927424Y-79870998D01*
X173918121Y-79893456D01*
X173837227Y-80044798D01*
X173823722Y-80065010D01*
X173714854Y-80197666D01*
X173697666Y-80214854D01*
X173565010Y-80323722D01*
X173544798Y-80337227D01*
X173393456Y-80418121D01*
X173370998Y-80427424D01*
X173206775Y-80477240D01*
X173182934Y-80481982D01*
X173006061Y-80499403D01*
X172993907Y-80500000D01*
X160506093Y-80500000D01*
X160493939Y-80499403D01*
X160317065Y-80481982D01*
X160293224Y-80477240D01*
X160129001Y-80427424D01*
X160106543Y-80418121D01*
X159955201Y-80337227D01*
X159934989Y-80323722D01*
X159802333Y-80214854D01*
X159785145Y-80197666D01*
X159676277Y-80065010D01*
X159662772Y-80044798D01*
X159581878Y-79893456D01*
X159572575Y-79870998D01*
X159554111Y-79810130D01*
X160182912Y-79810130D01*
X173317037Y-79810130D01*
X173317037Y-74584554D01*
X160182912Y-74584554D01*
X160182912Y-79810130D01*
X159554111Y-79810130D01*
X159522759Y-79706775D01*
X159518017Y-79682934D01*
X159500597Y-79506061D01*
X159500000Y-79493907D01*
X159500000Y-75006092D01*
X159500597Y-74993938D01*
X159518017Y-74817065D01*
X159522759Y-74793224D01*
X159572575Y-74629001D01*
X159581878Y-74606543D01*
X159662772Y-74455201D01*
X159676277Y-74434989D01*
X159785145Y-74302333D01*
X159802333Y-74285145D01*
X159934989Y-74176277D01*
X159955201Y-74162772D01*
X160106543Y-74081878D01*
X160129001Y-74072575D01*
X160293224Y-74022759D01*
X160317065Y-74018017D01*
X160493939Y-74000597D01*
X160506093Y-74000000D01*
X172993907Y-74000000D01*
X173006061Y-74000597D01*
G37*
%LPC*%
D11*
%TO.C,J5*%
X142500000Y-83710000D03*
D12*
X142500000Y-86250000D03*
X142500000Y-88790000D03*
X142500000Y-91330000D03*
X142500000Y-93870000D03*
%TD*%
D11*
%TO.C,J7*%
X179000000Y-63500000D03*
D12*
X179000000Y-66040000D03*
X179000000Y-68580000D03*
%TD*%
D11*
%TO.C,J3*%
X185460000Y-95750000D03*
D12*
X188000000Y-95750000D03*
X185460000Y-98290000D03*
X188000000Y-98290000D03*
X185460000Y-100830000D03*
X188000000Y-100830000D03*
%TD*%
D13*
%TO.C,H1*%
X132750000Y-57750000D03*
%TD*%
D11*
%TO.C,J8*%
X182847500Y-63500000D03*
D12*
X182847500Y-66040000D03*
X182847500Y-68580000D03*
%TD*%
D13*
%TO.C,H2*%
X187250000Y-57750000D03*
%TD*%
D14*
%TO.C,J1*%
X137800000Y-81250000D03*
D15*
X137800000Y-83250000D03*
%TD*%
D16*
%TO.C,J9*%
X188000000Y-64000000D03*
X188000000Y-66000000D03*
X188000000Y-68000000D03*
%TD*%
D17*
%TO.C,USB1*%
X138005000Y-99430000D03*
X134195000Y-99430000D03*
X138005000Y-108070000D03*
X134195000Y-108070000D03*
%TD*%
D18*
%TO.C,J2*%
X137400000Y-68830000D03*
X137400000Y-63750000D03*
%TD*%
D19*
%TO.C,J4*%
X136400000Y-87150000D03*
D20*
X136400000Y-88650000D03*
X136400000Y-90150000D03*
X136400000Y-91650000D03*
X136400000Y-93150000D03*
%TD*%
D13*
%TO.C,H4*%
X132750000Y-112250000D03*
%TD*%
%TO.C,H3*%
X187250000Y-112250000D03*
%TD*%
D11*
%TO.C,J6*%
X185460000Y-89250000D03*
D12*
X188000000Y-89250000D03*
X185460000Y-91790000D03*
X188000000Y-91790000D03*
%TD*%
%LPD*%
M02*
