%TF.GenerationSoftware,KiCad,Pcbnew,9.0.7*%
%TF.CreationDate,2026-02-17T00:08:55-08:00*%
%TF.ProjectId,servo-dev-board-ch32v006,73657276-6f2d-4646-9576-2d626f617264,rev?*%
%TF.SameCoordinates,Original*%
%TF.FileFunction,Copper,L4,Bot*%
%TF.FilePolarity,Positive*%
%FSLAX46Y46*%
G04 Gerber Fmt 4.6, Leading zero omitted, Abs format (unit mm)*
G04 Created by KiCad (PCBNEW 9.0.7) date 2026-02-17 00:08:55*
%MOMM*%
%LPD*%
G01*
G04 APERTURE LIST*
%TA.AperFunction,ComponentPad*%
%ADD10C,3.500000*%
%TD*%
%TA.AperFunction,ComponentPad*%
%ADD11R,1.400000X1.500000*%
%TD*%
%TA.AperFunction,ComponentPad*%
%ADD12C,1.400000*%
%TD*%
%TA.AperFunction,ComponentPad*%
%ADD13O,1.700000X1.000000*%
%TD*%
%TA.AperFunction,ViaPad*%
%ADD14C,0.600000*%
%TD*%
%TA.AperFunction,ViaPad*%
%ADD15C,1.000000*%
%TD*%
%TA.AperFunction,ViaPad*%
%ADD16C,0.450000*%
%TD*%
%TA.AperFunction,Conductor*%
%ADD17C,0.200000*%
%TD*%
%TA.AperFunction,Conductor*%
%ADD18C,0.120000*%
%TD*%
%TA.AperFunction,Conductor*%
%ADD19C,1.000000*%
%TD*%
G04 APERTURE END LIST*
D10*
%TO.P,H1,1,1*%
%TO.N,GND*%
X132750000Y-62750000D03*
%TD*%
%TO.P,H2,1,1*%
%TO.N,GND*%
X177250000Y-62750000D03*
%TD*%
D11*
%TO.P,J1,1,1*%
%TO.N,VBAT*%
X136650000Y-72250000D03*
D12*
%TO.P,J1,2,2*%
%TO.N,GND*%
X136650000Y-74250000D03*
%TD*%
D13*
%TO.P,USB1,7,EH*%
%TO.N,GND*%
X136810000Y-79000000D03*
X133000000Y-79000000D03*
X136810000Y-87640000D03*
X133000000Y-87640000D03*
%TD*%
D10*
%TO.P,H4,1,1*%
%TO.N,GND*%
X132750000Y-107250000D03*
%TD*%
%TO.P,H3,1,1*%
%TO.N,GND*%
X177250000Y-107250000D03*
%TD*%
D14*
%TO.N,GND*%
X168202002Y-66300000D03*
X146800000Y-70900000D03*
X138054003Y-68300000D03*
X133000000Y-82297998D03*
X177300000Y-95091994D03*
X177300000Y-84495997D03*
X147500000Y-70202001D03*
X133000000Y-84404003D03*
X140202002Y-102000000D03*
X178500000Y-104600000D03*
X161225000Y-87350000D03*
X176400000Y-76000000D03*
X178000000Y-96500000D03*
X178500000Y-72702002D03*
X133000000Y-83000000D03*
X165504003Y-102800000D03*
X166450000Y-70850000D03*
X154404003Y-102000000D03*
X166206005Y-102800000D03*
D15*
X138059506Y-80600000D03*
D14*
X159504003Y-102800000D03*
X177300000Y-97900000D03*
X132300000Y-72293995D03*
X147500000Y-69500000D03*
X132300000Y-74400000D03*
X164797999Y-103500000D03*
X177700000Y-71350000D03*
X163400000Y-86833432D03*
X173995997Y-68200000D03*
X157004003Y-89800000D03*
D16*
X163900000Y-94100000D03*
D14*
X131900000Y-101000000D03*
X156341994Y-97650000D03*
X133000000Y-74404003D03*
X178200000Y-101700000D03*
X131300000Y-104600000D03*
D16*
X164500000Y-93500000D03*
D14*
X176200000Y-65400000D03*
X132300000Y-71591994D03*
X169700000Y-71350000D03*
D16*
X163900000Y-92925000D03*
D14*
X135947999Y-68300000D03*
X152130000Y-82950000D03*
X132500000Y-65400000D03*
X157706005Y-89800000D03*
X132300000Y-96400000D03*
X157047999Y-96950000D03*
X131400000Y-65400000D03*
X178000000Y-95797998D03*
X138058006Y-67600000D03*
X160206005Y-102800000D03*
X137352002Y-68300000D03*
X177300000Y-85900000D03*
X133000000Y-94297998D03*
X157702002Y-90500000D03*
X146800000Y-68091994D03*
X132300000Y-72995997D03*
X140206005Y-101300000D03*
X176400000Y-69700000D03*
X136654003Y-67600000D03*
X171100000Y-76800000D03*
X170300000Y-103900000D03*
X166095997Y-66300000D03*
X133000000Y-95000000D03*
X176400000Y-104600000D03*
X164095997Y-103500000D03*
X140908006Y-101300000D03*
X132300000Y-81591994D03*
X166202002Y-103500000D03*
X178000000Y-85202001D03*
X175600000Y-97500000D03*
X135952002Y-67600000D03*
X156780000Y-82950000D03*
X146800000Y-69495997D03*
X178500000Y-72000000D03*
X136650000Y-68300000D03*
X158408006Y-89800000D03*
X158404003Y-90500000D03*
X170300000Y-101793995D03*
X138095997Y-102000000D03*
X133700000Y-65400000D03*
X147500000Y-68797998D03*
X164802002Y-102800000D03*
X152297999Y-102000000D03*
X139500000Y-102000000D03*
X133800000Y-104600000D03*
X172500000Y-97500000D03*
X171000000Y-103904003D03*
X177500000Y-65400000D03*
X178500000Y-71297999D03*
X177300000Y-83793995D03*
X177300000Y-83091994D03*
X132300000Y-95697998D03*
X157745997Y-97650000D03*
X177200000Y-78100000D03*
X157043996Y-97650000D03*
X178000000Y-85904003D03*
X157750000Y-96950000D03*
X178000000Y-95095997D03*
X156345997Y-96950000D03*
X152110000Y-82020000D03*
X132300000Y-94293995D03*
X133000000Y-71595997D03*
D16*
X164500000Y-94075000D03*
D14*
X159150000Y-97650000D03*
X131900000Y-89600000D03*
X164100000Y-102800000D03*
X133000000Y-73702001D03*
X158802002Y-102800000D03*
X156297999Y-90500000D03*
X171100000Y-68900000D03*
X133000000Y-81595997D03*
X160202002Y-103500000D03*
X178000000Y-83797998D03*
X140904003Y-102000000D03*
X178000000Y-97202001D03*
X153000000Y-102000000D03*
X173550000Y-71350000D03*
X170300000Y-102495997D03*
X168197999Y-67000000D03*
X155600000Y-89800000D03*
X132300000Y-83697998D03*
X178500000Y-73404003D03*
X151595997Y-102000000D03*
X132300000Y-82995997D03*
X138802002Y-101300000D03*
X144250000Y-96000000D03*
X146800000Y-68793995D03*
X158452002Y-96950000D03*
X152302002Y-101300000D03*
X137356005Y-67600000D03*
X177200000Y-101700000D03*
X171100000Y-76000000D03*
X133000000Y-73000000D03*
X132300000Y-84400000D03*
X176400000Y-68900000D03*
X156302002Y-89800000D03*
X138797999Y-102000000D03*
X177500000Y-104600000D03*
X159500000Y-103500000D03*
X166793996Y-67000000D03*
X154860000Y-82950000D03*
X132900000Y-101000000D03*
X132300000Y-73697998D03*
X132300000Y-94995997D03*
D16*
X164500000Y-92900000D03*
D14*
X176400000Y-76800000D03*
X170300000Y-103197998D03*
X166904003Y-103500000D03*
X153004003Y-101300000D03*
X132300000Y-93591994D03*
X133000000Y-83702001D03*
X171000000Y-103202001D03*
X178200000Y-78100000D03*
X167110000Y-86470000D03*
D16*
X165125000Y-94075000D03*
D14*
X135250000Y-67600000D03*
D16*
X165125000Y-93500000D03*
D14*
X147500000Y-68095997D03*
X132300000Y-82293995D03*
X173297999Y-67500000D03*
X178000000Y-84500000D03*
X177300000Y-85197998D03*
X133000000Y-72297998D03*
X133000000Y-96404003D03*
X133000000Y-89600000D03*
X175600000Y-86800000D03*
X178000000Y-97904003D03*
X168900000Y-67000000D03*
X135245997Y-68300000D03*
X178300000Y-91000000D03*
X137100000Y-94700000D03*
X170300000Y-101091994D03*
X132500000Y-104600000D03*
X133000000Y-95702001D03*
X167495997Y-67000000D03*
X166091994Y-67000000D03*
X178700000Y-65400000D03*
X166797999Y-66300000D03*
X165500000Y-103500000D03*
X158797999Y-103500000D03*
X171100000Y-69800000D03*
X178500000Y-74106005D03*
X167110000Y-82320000D03*
X153706005Y-101300000D03*
X177300000Y-97197998D03*
X177300000Y-91800000D03*
X153702002Y-102000000D03*
X177300000Y-95793995D03*
X160908006Y-102800000D03*
X151600000Y-101300000D03*
X157000000Y-90500000D03*
X158447999Y-97650000D03*
X174000000Y-67500000D03*
X171000000Y-101797998D03*
X177300000Y-91000000D03*
X159154003Y-96950000D03*
X171000000Y-101095997D03*
X158095997Y-103500000D03*
X155595997Y-90500000D03*
X167500000Y-66300000D03*
X139504003Y-101300000D03*
X160904003Y-103500000D03*
X158100000Y-102800000D03*
D16*
X163900000Y-93525000D03*
D14*
X147500000Y-70904003D03*
X144900000Y-96000000D03*
X177300000Y-96495997D03*
X178000000Y-83095997D03*
X166908006Y-102800000D03*
X133000000Y-93595997D03*
D16*
X165125000Y-92900000D03*
D14*
X158710000Y-82950000D03*
X171000000Y-102500000D03*
X138100000Y-101300000D03*
X168904003Y-66300000D03*
X154408006Y-101300000D03*
X146800000Y-70197998D03*
X173293996Y-68200000D03*
X178300000Y-91800000D03*
%TO.N,+3.3V*%
X172500000Y-99000000D03*
X136050000Y-94300000D03*
X145150000Y-94300000D03*
X144650000Y-81200000D03*
X156260000Y-87200000D03*
X142500000Y-62900000D03*
X167710000Y-88230000D03*
X166700000Y-91400000D03*
X143950000Y-81700000D03*
X175600000Y-99000000D03*
X163100000Y-90060000D03*
X145200000Y-80200000D03*
X164510000Y-101400000D03*
X161200000Y-85610000D03*
X175600000Y-88300000D03*
%TO.N,/VPOS*%
X147000000Y-103400000D03*
X161820000Y-97900000D03*
X155000000Y-103400000D03*
%TO.N,PGND*%
X145900000Y-88950000D03*
X143050000Y-88330000D03*
D16*
X142030000Y-96540000D03*
D14*
X145100000Y-91050000D03*
D16*
X141390000Y-97010000D03*
D14*
X145100000Y-88950000D03*
X145900000Y-90000000D03*
D16*
X141390000Y-96540000D03*
X142040000Y-97950000D03*
D14*
X145900000Y-91050000D03*
X140980000Y-98790000D03*
D16*
X141400000Y-97480000D03*
X142030000Y-97010000D03*
D14*
X143070000Y-89710000D03*
X143030000Y-93090000D03*
X145100000Y-90000000D03*
X143060000Y-90600000D03*
X143050000Y-91940000D03*
X143060000Y-87290000D03*
D16*
X142040000Y-97480000D03*
X141400000Y-97950000D03*
D14*
X141810000Y-98800000D03*
%TO.N,/DATA*%
X165775000Y-74350000D03*
X173600000Y-74350000D03*
%TO.N,/OUTA*%
X147000000Y-78100000D03*
X134601000Y-96760000D03*
%TO.N,/OUTB*%
X146975000Y-83125000D03*
X134620000Y-98250000D03*
%TO.N,/SWDIO*%
X175600000Y-85300000D03*
X161800000Y-97000000D03*
%TO.N,/nRST*%
X168730000Y-85740000D03*
X175600000Y-83800000D03*
X168730000Y-88240000D03*
X166155735Y-94585735D03*
X168730000Y-83070000D03*
%TO.N,/TX*%
X163078768Y-88625000D03*
X165175000Y-91050000D03*
X175420000Y-81850000D03*
X174290000Y-64970000D03*
%TO.N,/EN*%
X160700000Y-92800000D03*
X155800000Y-82300000D03*
X144940000Y-93090000D03*
%TO.N,/RX*%
X163200000Y-87770000D03*
X165000000Y-89570000D03*
%TO.N,/DE*%
X166636858Y-92644714D03*
X162021717Y-85573390D03*
%TO.N,/IN1*%
X139270000Y-105050000D03*
X161500000Y-93400000D03*
D16*
X143330000Y-97440000D03*
%TO.N,/IN2*%
X144220000Y-105030000D03*
X144645000Y-98255000D03*
D14*
X161900000Y-94200000D03*
%TO.N,/ISNS-*%
X147800000Y-96800000D03*
X166815127Y-94099999D03*
%TO.N,/ISNS+*%
X147900000Y-98300000D03*
X167590000Y-94400000D03*
%TO.N,/ENCB*%
X172500000Y-104900000D03*
X171900000Y-95240000D03*
%TO.N,/ENCA*%
X169100000Y-96000000D03*
X169100000Y-105000000D03*
D15*
%TO.N,BUS_VIN*%
X166550000Y-72850000D03*
X145400000Y-66475000D03*
X173800000Y-72850000D03*
%TD*%
D17*
%TO.N,/VPOS*%
X155170000Y-103400000D02*
X160670000Y-97900000D01*
X155000000Y-103400000D02*
X155170000Y-103400000D01*
X160670000Y-97900000D02*
X161820000Y-97900000D01*
X155000000Y-103400000D02*
X147000000Y-103400000D01*
%TO.N,/DATA*%
X165775000Y-74350000D02*
X173600000Y-74350000D01*
%TO.N,/OUTA*%
X134601000Y-96760000D02*
X134200000Y-96359000D01*
X134200000Y-79900000D02*
X136000000Y-78100000D01*
X136000000Y-78100000D02*
X147000000Y-78100000D01*
X134200000Y-96359000D02*
X134200000Y-79900000D01*
%TO.N,/OUTB*%
X135400000Y-87400000D02*
X139675000Y-83125000D01*
X146975000Y-83125000D02*
X146950000Y-83100000D01*
X135751000Y-97349000D02*
X135751000Y-95151000D01*
X135751000Y-95151000D02*
X135400000Y-94800000D01*
X134620000Y-98250000D02*
X134850000Y-98250000D01*
X135400000Y-94800000D02*
X135400000Y-87400000D01*
X134850000Y-98250000D02*
X135751000Y-97349000D01*
X139675000Y-83125000D02*
X146975000Y-83125000D01*
D18*
%TO.N,/SWDIO*%
X161800000Y-96960000D02*
X161800000Y-97000000D01*
D17*
X172500000Y-85300000D02*
X175600000Y-85300000D01*
X167730000Y-96490000D02*
X169084971Y-95135028D01*
D18*
X162320000Y-96440000D02*
X161800000Y-96960000D01*
D17*
X161800000Y-97000000D02*
X161860000Y-97000000D01*
X171899000Y-92321000D02*
X171899000Y-85901000D01*
X169084971Y-95135028D02*
X171899000Y-92321000D01*
X162370000Y-96490000D02*
X167730000Y-96490000D01*
X171899000Y-85901000D02*
X172500000Y-85300000D01*
X161860000Y-97000000D02*
X162370000Y-96490000D01*
%TO.N,/nRST*%
X166155735Y-94585735D02*
X166155735Y-93909448D01*
X166819469Y-93245714D02*
X166914286Y-93245714D01*
X170570000Y-85740000D02*
X168730000Y-85740000D01*
X172510000Y-83800000D02*
X170570000Y-85740000D01*
X166155735Y-93909448D02*
X166819469Y-93245714D01*
X168730000Y-91430000D02*
X168730000Y-88240000D01*
X175600000Y-83800000D02*
X172510000Y-83800000D01*
X168730000Y-85740000D02*
X168730000Y-83070000D01*
X166914286Y-93245714D02*
X168730000Y-91430000D01*
%TO.N,/TX*%
X163078768Y-88625000D02*
X163078768Y-88778768D01*
X163078768Y-88653768D02*
X165175000Y-90750000D01*
X174290000Y-64970000D02*
X175420000Y-66100000D01*
X163078768Y-88625000D02*
X163078768Y-88653768D01*
X165175000Y-90750000D02*
X165175000Y-91050000D01*
X175420000Y-66100000D02*
X175420000Y-81850000D01*
%TO.N,/EN*%
X145830000Y-92200000D02*
X144940000Y-93090000D01*
X160700000Y-90790057D02*
X155800000Y-85890057D01*
X160700000Y-92800000D02*
X160700000Y-90790057D01*
X155800000Y-85890057D02*
X155800000Y-82300000D01*
X160100000Y-92200000D02*
X145830000Y-92200000D01*
X160700000Y-92800000D02*
X160100000Y-92200000D01*
%TO.N,/RX*%
X163200000Y-87770000D02*
X165000000Y-89570000D01*
%TO.N,/DE*%
X163023390Y-85573390D02*
X162021717Y-85573390D01*
X165801000Y-91808856D02*
X165801000Y-88351000D01*
X165801000Y-88351000D02*
X163023390Y-85573390D01*
X166636858Y-92644714D02*
X165801000Y-91808856D01*
%TO.N,/IN1*%
X143330000Y-97440000D02*
X144309943Y-97440000D01*
X146000057Y-95759943D02*
X147060000Y-94700000D01*
X145990000Y-95759943D02*
X146000057Y-95759943D01*
X143112176Y-101207824D02*
X139270000Y-105050000D01*
X143112176Y-97657824D02*
X143112176Y-101207824D01*
X148309000Y-93401000D02*
X161499000Y-93401000D01*
X143330000Y-97440000D02*
X143112176Y-97657824D01*
X161499000Y-93401000D02*
X161500000Y-93400000D01*
X144309943Y-97440000D02*
X145990000Y-95759943D01*
X147060000Y-94650000D02*
X148309000Y-93401000D01*
X147060000Y-94700000D02*
X147060000Y-94650000D01*
%TO.N,/IN2*%
X144210000Y-105020000D02*
X144220000Y-105030000D01*
X148700000Y-94200000D02*
X161900000Y-94200000D01*
X144645000Y-98255000D02*
X148700000Y-94200000D01*
X144210000Y-98690000D02*
X144210000Y-105020000D01*
X144645000Y-98255000D02*
X144210000Y-98690000D01*
%TO.N,/ISNS-*%
X166980000Y-94610000D02*
X166310000Y-95280000D01*
X166310000Y-95280000D02*
X149320000Y-95280000D01*
D18*
X147800000Y-96800000D02*
X147925000Y-96800000D01*
D17*
X166980000Y-94264872D02*
X166980000Y-94610000D01*
X149320000Y-95280000D02*
X147800000Y-96800000D01*
X166815127Y-94099999D02*
X166980000Y-94264872D01*
%TO.N,/ISNS+*%
X167590000Y-94850000D02*
X166251000Y-96189000D01*
X162216032Y-96189000D02*
X162205032Y-96200000D01*
X162205032Y-96200000D02*
X150000000Y-96200000D01*
X167590000Y-94400000D02*
X167590000Y-94850000D01*
D18*
X147900000Y-98300000D02*
X148025000Y-98300000D01*
D17*
X150000000Y-96200000D02*
X147900000Y-98300000D01*
X166251000Y-96189000D02*
X162216032Y-96189000D01*
%TO.N,/ENCB*%
X171900000Y-95600000D02*
X171899000Y-95601000D01*
X171899000Y-104299000D02*
X172500000Y-104900000D01*
X171900000Y-95240000D02*
X171900000Y-95600000D01*
X171899000Y-95601000D02*
X171899000Y-104299000D01*
%TO.N,/ENCA*%
X169100000Y-96000000D02*
X169100000Y-105000000D01*
D19*
%TO.N,BUS_VIN*%
X160175000Y-66475000D02*
X166550000Y-72850000D01*
X145400000Y-66475000D02*
X160175000Y-66475000D01*
X173800000Y-72850000D02*
X166550000Y-72850000D01*
%TD*%
%TA.AperFunction,Conductor*%
%TO.N,GND*%
G36*
X145365881Y-92169852D02*
G01*
X145380233Y-92204500D01*
X145365881Y-92239147D01*
X145168041Y-92436987D01*
X145029880Y-92575148D01*
X144995232Y-92589500D01*
X144874105Y-92589500D01*
X144746815Y-92623607D01*
X144746811Y-92623608D01*
X144632685Y-92689500D01*
X144632685Y-92689501D01*
X144539501Y-92782685D01*
X144539500Y-92782685D01*
X144473608Y-92896811D01*
X144473607Y-92896815D01*
X144439500Y-93024104D01*
X144439500Y-93155895D01*
X144473607Y-93283184D01*
X144473608Y-93283188D01*
X144539500Y-93397314D01*
X144632686Y-93490500D01*
X144674457Y-93514617D01*
X144746811Y-93556391D01*
X144746813Y-93556391D01*
X144746814Y-93556392D01*
X144797339Y-93569930D01*
X144874104Y-93590499D01*
X144874105Y-93590500D01*
X144874108Y-93590500D01*
X145005895Y-93590500D01*
X145005895Y-93590499D01*
X145133186Y-93556392D01*
X145247314Y-93490500D01*
X145340500Y-93397314D01*
X145406392Y-93283186D01*
X145440499Y-93155895D01*
X145440500Y-93155895D01*
X145440500Y-93034766D01*
X145454852Y-93000118D01*
X145940119Y-92514852D01*
X145974767Y-92500500D01*
X159955233Y-92500500D01*
X159989881Y-92514852D01*
X160185148Y-92710119D01*
X160199500Y-92744767D01*
X160199500Y-92865895D01*
X160233607Y-92993184D01*
X160233608Y-92993188D01*
X160253130Y-93027000D01*
X160258025Y-93064182D01*
X160235195Y-93093935D01*
X160210695Y-93100500D01*
X148269435Y-93100500D01*
X148193013Y-93120977D01*
X148193010Y-93120978D01*
X148124488Y-93160540D01*
X148124488Y-93160541D01*
X146819541Y-94465488D01*
X146819540Y-94465488D01*
X146779980Y-94534008D01*
X146779976Y-94534017D01*
X146775673Y-94550073D01*
X146762992Y-94572035D01*
X145833845Y-95501182D01*
X145823699Y-95508968D01*
X145805495Y-95519479D01*
X145805485Y-95519486D01*
X144199824Y-97125148D01*
X144165176Y-97139500D01*
X143651544Y-97139500D01*
X143616896Y-97125148D01*
X143591263Y-97099515D01*
X143494239Y-97043497D01*
X143494235Y-97043496D01*
X143386021Y-97014500D01*
X143386018Y-97014500D01*
X143273982Y-97014500D01*
X143273979Y-97014500D01*
X143165764Y-97043496D01*
X143165760Y-97043497D01*
X143068736Y-97099515D01*
X143068736Y-97099516D01*
X142989516Y-97178736D01*
X142989515Y-97178736D01*
X142933497Y-97275760D01*
X142933496Y-97275764D01*
X142904500Y-97383978D01*
X142904500Y-97420233D01*
X142890148Y-97454881D01*
X142871717Y-97473312D01*
X142871716Y-97473312D01*
X142832155Y-97541832D01*
X142832155Y-97541834D01*
X142811676Y-97618260D01*
X142811676Y-98804485D01*
X142797324Y-98839133D01*
X142762676Y-98853485D01*
X142753117Y-98852544D01*
X142736595Y-98849257D01*
X142712676Y-98844500D01*
X142712674Y-98844500D01*
X142504500Y-98844500D01*
X142469852Y-98830148D01*
X142455500Y-98795500D01*
X142455500Y-98194461D01*
X142462065Y-98169961D01*
X142483094Y-98133537D01*
X142483095Y-98133536D01*
X142515500Y-98012601D01*
X142515500Y-97887399D01*
X142515500Y-97887397D01*
X142496140Y-97815148D01*
X142483095Y-97766464D01*
X142467525Y-97739496D01*
X142462632Y-97702316D01*
X142467526Y-97690501D01*
X142477149Y-97673833D01*
X142483093Y-97663540D01*
X142483093Y-97663539D01*
X142483095Y-97663536D01*
X142515500Y-97542601D01*
X142515500Y-97417399D01*
X142515500Y-97417397D01*
X142486856Y-97310500D01*
X142483095Y-97296464D01*
X142462526Y-97260838D01*
X142457632Y-97223657D01*
X142462526Y-97211841D01*
X142473095Y-97193536D01*
X142491420Y-97125148D01*
X142505500Y-97072603D01*
X142505500Y-96947397D01*
X142474706Y-96832477D01*
X142473095Y-96826464D01*
X142462063Y-96807356D01*
X142455500Y-96782859D01*
X142455500Y-96767140D01*
X142462064Y-96742641D01*
X142473095Y-96723536D01*
X142482745Y-96687522D01*
X142505500Y-96602603D01*
X142505500Y-96477397D01*
X142485949Y-96404434D01*
X142473095Y-96356464D01*
X142462063Y-96337356D01*
X142455500Y-96312859D01*
X142455500Y-94234104D01*
X144649500Y-94234104D01*
X144649500Y-94365895D01*
X144683607Y-94493184D01*
X144683608Y-94493188D01*
X144741342Y-94593184D01*
X144749500Y-94607314D01*
X144842686Y-94700500D01*
X144854490Y-94707315D01*
X144956811Y-94766391D01*
X144956813Y-94766391D01*
X144956814Y-94766392D01*
X145055976Y-94792962D01*
X145084104Y-94800499D01*
X145084105Y-94800500D01*
X145084108Y-94800500D01*
X145215895Y-94800500D01*
X145215895Y-94800499D01*
X145343186Y-94766392D01*
X145457314Y-94700500D01*
X145550500Y-94607314D01*
X145616392Y-94493186D01*
X145650499Y-94365895D01*
X145650500Y-94365895D01*
X145650500Y-94234105D01*
X145650499Y-94234104D01*
X145636350Y-94181300D01*
X145616392Y-94106814D01*
X145616391Y-94106813D01*
X145616391Y-94106811D01*
X145550499Y-93992685D01*
X145457314Y-93899500D01*
X145343188Y-93833608D01*
X145343184Y-93833607D01*
X145215895Y-93799500D01*
X145215892Y-93799500D01*
X145084108Y-93799500D01*
X145084105Y-93799500D01*
X144956815Y-93833607D01*
X144956811Y-93833608D01*
X144842685Y-93899500D01*
X144749501Y-93992685D01*
X144749500Y-93992685D01*
X144683608Y-94106811D01*
X144683607Y-94106815D01*
X144649500Y-94234104D01*
X142455500Y-94234104D01*
X142455500Y-94014500D01*
X142469852Y-93979852D01*
X142504500Y-93965500D01*
X143566902Y-93965500D01*
X143566906Y-93965500D01*
X143566911Y-93965499D01*
X143566928Y-93965499D01*
X143586360Y-93964237D01*
X143599911Y-93963359D01*
X143612462Y-93961724D01*
X143644903Y-93955341D01*
X143725223Y-93934057D01*
X143786300Y-93909054D01*
X143808109Y-93896623D01*
X143860749Y-93856806D01*
X143915282Y-93803169D01*
X143955964Y-93751200D01*
X143968755Y-93729600D01*
X143994768Y-93668942D01*
X144017381Y-93588981D01*
X144024303Y-93556636D01*
X144026145Y-93544114D01*
X144028830Y-93511164D01*
X144050501Y-92203687D01*
X144065425Y-92169282D01*
X144099494Y-92155500D01*
X145331233Y-92155500D01*
X145365881Y-92169852D01*
G37*
%TD.AperFunction*%
%TA.AperFunction,Conductor*%
G36*
X177501470Y-60300589D02*
G01*
X177542117Y-60303047D01*
X177762175Y-60316358D01*
X177768034Y-60317071D01*
X178023461Y-60363879D01*
X178029199Y-60365293D01*
X178167979Y-60408539D01*
X178277123Y-60442550D01*
X178282654Y-60444647D01*
X178519461Y-60551225D01*
X178524688Y-60553967D01*
X178652041Y-60630956D01*
X178746922Y-60688314D01*
X178751791Y-60691675D01*
X178956205Y-60851823D01*
X178960634Y-60855747D01*
X179144252Y-61039365D01*
X179148176Y-61043794D01*
X179308324Y-61248208D01*
X179311685Y-61253077D01*
X179446028Y-61475305D01*
X179448778Y-61480545D01*
X179555351Y-61717344D01*
X179557449Y-61722876D01*
X179634705Y-61970796D01*
X179636121Y-61976542D01*
X179682927Y-62231957D01*
X179683641Y-62237830D01*
X179699411Y-62498528D01*
X179699500Y-62501487D01*
X179699500Y-107498512D01*
X179699411Y-107501471D01*
X179683641Y-107762169D01*
X179682927Y-107768042D01*
X179636121Y-108023457D01*
X179634705Y-108029203D01*
X179557449Y-108277123D01*
X179555351Y-108282655D01*
X179448778Y-108519454D01*
X179446028Y-108524694D01*
X179311685Y-108746922D01*
X179308324Y-108751791D01*
X179148176Y-108956205D01*
X179144252Y-108960634D01*
X178960634Y-109144252D01*
X178956205Y-109148176D01*
X178751791Y-109308324D01*
X178746922Y-109311685D01*
X178524694Y-109446028D01*
X178519454Y-109448778D01*
X178282655Y-109555351D01*
X178277123Y-109557449D01*
X178029203Y-109634705D01*
X178023457Y-109636121D01*
X177768042Y-109682927D01*
X177762169Y-109683641D01*
X177501471Y-109699411D01*
X177498512Y-109699500D01*
X132501488Y-109699500D01*
X132498529Y-109699411D01*
X132237830Y-109683641D01*
X132231957Y-109682927D01*
X131976542Y-109636121D01*
X131970796Y-109634705D01*
X131722876Y-109557449D01*
X131717344Y-109555351D01*
X131480545Y-109448778D01*
X131475305Y-109446028D01*
X131253077Y-109311685D01*
X131248208Y-109308324D01*
X131043794Y-109148176D01*
X131039365Y-109144252D01*
X130855747Y-108960634D01*
X130851823Y-108956205D01*
X130691675Y-108751791D01*
X130688314Y-108746922D01*
X130553971Y-108524694D01*
X130551225Y-108519461D01*
X130444647Y-108282654D01*
X130442550Y-108277123D01*
X130365294Y-108029203D01*
X130363878Y-108023457D01*
X130317071Y-107768034D01*
X130316358Y-107762168D01*
X130300589Y-107501470D01*
X130300500Y-107498512D01*
X130300500Y-104984104D01*
X138769500Y-104984104D01*
X138769500Y-105115895D01*
X138803607Y-105243184D01*
X138803608Y-105243188D01*
X138869500Y-105357314D01*
X138962686Y-105450500D01*
X138990210Y-105466391D01*
X139076811Y-105516391D01*
X139076813Y-105516391D01*
X139076814Y-105516392D01*
X139177207Y-105543292D01*
X139204104Y-105550499D01*
X139204105Y-105550500D01*
X139204108Y-105550500D01*
X139335895Y-105550500D01*
X139335895Y-105550499D01*
X139463186Y-105516392D01*
X139577314Y-105450500D01*
X139670500Y-105357314D01*
X139736392Y-105243186D01*
X139770499Y-105115895D01*
X139770500Y-105115895D01*
X139770500Y-104994766D01*
X139784852Y-104960118D01*
X141538159Y-103206811D01*
X143352636Y-101392335D01*
X143386253Y-101334108D01*
X143392197Y-101323813D01*
X143412676Y-101247386D01*
X143412676Y-100595514D01*
X143427028Y-100560866D01*
X143461676Y-100546514D01*
X143471236Y-100547456D01*
X143511676Y-100555500D01*
X143810502Y-100555500D01*
X143850940Y-100547456D01*
X143887722Y-100554772D01*
X143908558Y-100585954D01*
X143909500Y-100595514D01*
X143909500Y-104718456D01*
X143895148Y-104753104D01*
X143879516Y-104768736D01*
X143879515Y-104768736D01*
X143823497Y-104865760D01*
X143823496Y-104865764D01*
X143794500Y-104973978D01*
X143794500Y-105086021D01*
X143823496Y-105194235D01*
X143823497Y-105194239D01*
X143879515Y-105291263D01*
X143958737Y-105370485D01*
X143994249Y-105390988D01*
X144055760Y-105426502D01*
X144055762Y-105426502D01*
X144055763Y-105426503D01*
X144141111Y-105449371D01*
X144163978Y-105455499D01*
X144163979Y-105455500D01*
X144163982Y-105455500D01*
X144276021Y-105455500D01*
X144276021Y-105455499D01*
X144384237Y-105426503D01*
X144481263Y-105370485D01*
X144560485Y-105291263D01*
X144616503Y-105194237D01*
X144645499Y-105086021D01*
X144645500Y-105086021D01*
X144645500Y-104973979D01*
X144645499Y-104973978D01*
X144616503Y-104865764D01*
X144616502Y-104865760D01*
X144560484Y-104768736D01*
X144524852Y-104733104D01*
X144510500Y-104698456D01*
X144510500Y-103334104D01*
X146499500Y-103334104D01*
X146499500Y-103465895D01*
X146533607Y-103593184D01*
X146533608Y-103593188D01*
X146595566Y-103700500D01*
X146599500Y-103707314D01*
X146692686Y-103800500D01*
X146734457Y-103824617D01*
X146806811Y-103866391D01*
X146806813Y-103866391D01*
X146806814Y-103866392D01*
X146907207Y-103893292D01*
X146934104Y-103900499D01*
X146934105Y-103900500D01*
X146934108Y-103900500D01*
X147065895Y-103900500D01*
X147065895Y-103900499D01*
X147193186Y-103866392D01*
X147307314Y-103800500D01*
X147392962Y-103714852D01*
X147427610Y-103700500D01*
X154572390Y-103700500D01*
X154607038Y-103714852D01*
X154692686Y-103800500D01*
X154734457Y-103824617D01*
X154806811Y-103866391D01*
X154806813Y-103866391D01*
X154806814Y-103866392D01*
X154907207Y-103893292D01*
X154934104Y-103900499D01*
X154934105Y-103900500D01*
X154934108Y-103900500D01*
X155065895Y-103900500D01*
X155065895Y-103900499D01*
X155193186Y-103866392D01*
X155307314Y-103800500D01*
X155400500Y-103707314D01*
X155466392Y-103593186D01*
X155486641Y-103517609D01*
X155499321Y-103495648D01*
X157660866Y-101334104D01*
X164009500Y-101334104D01*
X164009500Y-101465895D01*
X164043607Y-101593184D01*
X164043608Y-101593188D01*
X164109500Y-101707314D01*
X164202686Y-101800500D01*
X164244457Y-101824617D01*
X164316811Y-101866391D01*
X164316813Y-101866391D01*
X164316814Y-101866392D01*
X164417207Y-101893292D01*
X164444104Y-101900499D01*
X164444105Y-101900500D01*
X164444108Y-101900500D01*
X164575895Y-101900500D01*
X164575895Y-101900499D01*
X164703186Y-101866392D01*
X164817314Y-101800500D01*
X164910500Y-101707314D01*
X164976392Y-101593186D01*
X165010499Y-101465895D01*
X165010500Y-101465895D01*
X165010500Y-101334105D01*
X165010499Y-101334104D01*
X164976392Y-101206815D01*
X164976391Y-101206811D01*
X164910499Y-101092685D01*
X164817314Y-100999500D01*
X164703188Y-100933608D01*
X164703184Y-100933607D01*
X164575895Y-100899500D01*
X164575892Y-100899500D01*
X164444108Y-100899500D01*
X164444105Y-100899500D01*
X164316815Y-100933607D01*
X164316811Y-100933608D01*
X164202685Y-100999500D01*
X164202685Y-100999501D01*
X164109501Y-101092685D01*
X164109500Y-101092685D01*
X164043608Y-101206811D01*
X164043607Y-101206815D01*
X164009500Y-101334104D01*
X157660866Y-101334104D01*
X160780119Y-98214852D01*
X160814767Y-98200500D01*
X161392390Y-98200500D01*
X161427038Y-98214852D01*
X161512686Y-98300500D01*
X161530904Y-98311018D01*
X161626811Y-98366391D01*
X161626813Y-98366391D01*
X161626814Y-98366392D01*
X161727207Y-98393292D01*
X161754104Y-98400499D01*
X161754105Y-98400500D01*
X161754108Y-98400500D01*
X161885895Y-98400500D01*
X161885895Y-98400499D01*
X162013186Y-98366392D01*
X162127314Y-98300500D01*
X162220500Y-98207314D01*
X162286392Y-98093186D01*
X162320499Y-97965895D01*
X162320500Y-97965895D01*
X162320500Y-97834105D01*
X162320499Y-97834104D01*
X162302375Y-97766464D01*
X162286392Y-97706814D01*
X162286391Y-97706813D01*
X162286391Y-97706811D01*
X162236257Y-97619978D01*
X162220500Y-97592686D01*
X162127314Y-97499500D01*
X162105075Y-97486660D01*
X162082246Y-97456907D01*
X162087142Y-97419725D01*
X162105082Y-97401788D01*
X162107314Y-97400500D01*
X162200500Y-97307314D01*
X162266392Y-97193186D01*
X162300499Y-97065895D01*
X162300500Y-97065895D01*
X162300500Y-97004767D01*
X162314852Y-96970119D01*
X162480119Y-96804852D01*
X162514767Y-96790500D01*
X167769564Y-96790500D01*
X167798078Y-96782859D01*
X167845989Y-96770021D01*
X167914511Y-96730460D01*
X167970460Y-96674511D01*
X167970460Y-96674510D01*
X168535172Y-96109797D01*
X168569819Y-96095446D01*
X168604467Y-96109798D01*
X168617149Y-96131763D01*
X168633608Y-96193186D01*
X168633608Y-96193188D01*
X168699500Y-96307314D01*
X168785148Y-96392962D01*
X168799500Y-96427610D01*
X168799500Y-104572390D01*
X168785148Y-104607038D01*
X168699501Y-104692685D01*
X168699500Y-104692685D01*
X168633608Y-104806811D01*
X168633607Y-104806815D01*
X168599500Y-104934104D01*
X168599500Y-105065895D01*
X168633607Y-105193184D01*
X168633608Y-105193188D01*
X168695565Y-105300499D01*
X168699500Y-105307314D01*
X168792686Y-105400500D01*
X168834457Y-105424617D01*
X168906811Y-105466391D01*
X168906813Y-105466391D01*
X168906814Y-105466392D01*
X169007207Y-105493292D01*
X169034104Y-105500499D01*
X169034105Y-105500500D01*
X169034108Y-105500500D01*
X169165895Y-105500500D01*
X169165895Y-105500499D01*
X169293186Y-105466392D01*
X169407314Y-105400500D01*
X169500500Y-105307314D01*
X169565785Y-105194237D01*
X169566391Y-105193188D01*
X169566391Y-105193187D01*
X169566392Y-105193186D01*
X169600499Y-105065895D01*
X169600500Y-105065895D01*
X169600500Y-104934105D01*
X169600499Y-104934104D01*
X169582186Y-104865760D01*
X169566392Y-104806814D01*
X169566391Y-104806813D01*
X169566391Y-104806811D01*
X169500499Y-104692685D01*
X169414852Y-104607038D01*
X169400500Y-104572390D01*
X169400500Y-96427610D01*
X169414852Y-96392962D01*
X169500499Y-96307315D01*
X169500500Y-96307314D01*
X169566392Y-96193186D01*
X169600499Y-96065895D01*
X169600500Y-96065895D01*
X169600500Y-95934105D01*
X169600499Y-95934104D01*
X169566392Y-95806815D01*
X169566391Y-95806811D01*
X169500499Y-95692685D01*
X169407314Y-95599500D01*
X169293187Y-95533608D01*
X169231763Y-95517149D01*
X169202010Y-95494318D01*
X169197116Y-95457136D01*
X169209796Y-95435173D01*
X169325431Y-95319539D01*
X169325430Y-95319539D01*
X169470865Y-95174104D01*
X171399500Y-95174104D01*
X171399500Y-95305895D01*
X171433607Y-95433184D01*
X171433608Y-95433188D01*
X171499500Y-95547314D01*
X171584148Y-95631962D01*
X171598500Y-95666610D01*
X171598500Y-104338563D01*
X171618978Y-104414987D01*
X171618979Y-104414991D01*
X171629725Y-104433603D01*
X171629730Y-104433609D01*
X171658537Y-104483507D01*
X171658542Y-104483513D01*
X171985148Y-104810119D01*
X171999500Y-104844767D01*
X171999500Y-104965895D01*
X172033607Y-105093184D01*
X172033608Y-105093188D01*
X172091342Y-105193184D01*
X172099500Y-105207314D01*
X172192686Y-105300500D01*
X172204490Y-105307315D01*
X172306811Y-105366391D01*
X172306813Y-105366391D01*
X172306814Y-105366392D01*
X172407207Y-105393292D01*
X172434104Y-105400499D01*
X172434105Y-105400500D01*
X172434108Y-105400500D01*
X172565895Y-105400500D01*
X172565895Y-105400499D01*
X172693186Y-105366392D01*
X172807314Y-105300500D01*
X172900500Y-105207314D01*
X172966392Y-105093186D01*
X173000499Y-104965895D01*
X173000500Y-104965895D01*
X173000500Y-104834105D01*
X173000499Y-104834104D01*
X172976004Y-104742686D01*
X172966392Y-104706814D01*
X172966391Y-104706813D01*
X172966391Y-104706811D01*
X172900499Y-104592685D01*
X172807314Y-104499500D01*
X172693188Y-104433608D01*
X172693184Y-104433607D01*
X172565895Y-104399500D01*
X172565892Y-104399500D01*
X172444767Y-104399500D01*
X172410119Y-104385148D01*
X172213852Y-104188881D01*
X172199500Y-104154233D01*
X172199500Y-99489304D01*
X172213852Y-99454656D01*
X172248500Y-99440304D01*
X172272997Y-99446868D01*
X172306814Y-99466392D01*
X172392324Y-99489304D01*
X172434104Y-99500499D01*
X172434105Y-99500500D01*
X172434108Y-99500500D01*
X172565895Y-99500500D01*
X172565895Y-99500499D01*
X172693186Y-99466392D01*
X172807314Y-99400500D01*
X172900500Y-99307314D01*
X172966392Y-99193186D01*
X173000499Y-99065895D01*
X173000500Y-99065895D01*
X173000500Y-98934105D01*
X173000499Y-98934104D01*
X175099500Y-98934104D01*
X175099500Y-99065895D01*
X175133607Y-99193184D01*
X175133608Y-99193188D01*
X175183595Y-99279766D01*
X175199500Y-99307314D01*
X175292686Y-99400500D01*
X175299500Y-99404434D01*
X175406811Y-99466391D01*
X175406813Y-99466391D01*
X175406814Y-99466392D01*
X175492324Y-99489304D01*
X175534104Y-99500499D01*
X175534105Y-99500500D01*
X175534108Y-99500500D01*
X175665895Y-99500500D01*
X175665895Y-99500499D01*
X175793186Y-99466392D01*
X175907314Y-99400500D01*
X176000500Y-99307314D01*
X176066392Y-99193186D01*
X176100499Y-99065895D01*
X176100500Y-99065895D01*
X176100500Y-98934105D01*
X176100499Y-98934104D01*
X176085269Y-98877266D01*
X176066392Y-98806814D01*
X176066391Y-98806813D01*
X176066391Y-98806811D01*
X176005011Y-98700499D01*
X176000500Y-98692686D01*
X175907314Y-98599500D01*
X175793188Y-98533608D01*
X175793184Y-98533607D01*
X175665895Y-98499500D01*
X175665892Y-98499500D01*
X175534108Y-98499500D01*
X175534105Y-98499500D01*
X175406815Y-98533607D01*
X175406811Y-98533608D01*
X175292685Y-98599500D01*
X175292685Y-98599501D01*
X175199501Y-98692685D01*
X175199500Y-98692685D01*
X175133608Y-98806811D01*
X175133607Y-98806815D01*
X175099500Y-98934104D01*
X173000499Y-98934104D01*
X172985269Y-98877266D01*
X172966392Y-98806814D01*
X172966391Y-98806813D01*
X172966391Y-98806811D01*
X172905011Y-98700499D01*
X172900500Y-98692686D01*
X172807314Y-98599500D01*
X172693188Y-98533608D01*
X172693184Y-98533607D01*
X172565895Y-98499500D01*
X172565892Y-98499500D01*
X172434108Y-98499500D01*
X172434105Y-98499500D01*
X172306818Y-98533606D01*
X172306814Y-98533608D01*
X172272999Y-98553131D01*
X172235817Y-98558025D01*
X172206064Y-98535194D01*
X172199500Y-98510695D01*
X172199500Y-95668610D01*
X172213852Y-95633962D01*
X172300499Y-95547315D01*
X172300500Y-95547314D01*
X172366392Y-95433186D01*
X172400499Y-95305895D01*
X172400500Y-95305895D01*
X172400500Y-95174105D01*
X172400499Y-95174104D01*
X172366392Y-95046815D01*
X172366391Y-95046811D01*
X172319729Y-94965991D01*
X172300500Y-94932686D01*
X172207314Y-94839500D01*
X172186720Y-94827610D01*
X172093188Y-94773608D01*
X172093184Y-94773607D01*
X171965895Y-94739500D01*
X171965892Y-94739500D01*
X171834108Y-94739500D01*
X171834105Y-94739500D01*
X171706815Y-94773607D01*
X171706811Y-94773608D01*
X171592685Y-94839500D01*
X171592685Y-94839501D01*
X171499501Y-94932685D01*
X171499500Y-94932685D01*
X171433608Y-95046811D01*
X171433607Y-95046815D01*
X171399500Y-95174104D01*
X169470865Y-95174104D01*
X172139460Y-92505511D01*
X172146864Y-92492686D01*
X172179021Y-92436989D01*
X172199500Y-92360562D01*
X172199500Y-88234104D01*
X175099500Y-88234104D01*
X175099500Y-88365895D01*
X175133607Y-88493184D01*
X175133608Y-88493188D01*
X175171668Y-88559108D01*
X175199500Y-88607314D01*
X175292686Y-88700500D01*
X175334457Y-88724617D01*
X175406811Y-88766391D01*
X175406813Y-88766391D01*
X175406814Y-88766392D01*
X175507207Y-88793292D01*
X175534104Y-88800499D01*
X175534105Y-88800500D01*
X175534108Y-88800500D01*
X175665895Y-88800500D01*
X175665895Y-88800499D01*
X175793186Y-88766392D01*
X175907314Y-88700500D01*
X176000500Y-88607314D01*
X176066392Y-88493186D01*
X176100499Y-88365895D01*
X176100500Y-88365895D01*
X176100500Y-88234105D01*
X176100499Y-88234104D01*
X176074011Y-88135250D01*
X176066392Y-88106814D01*
X176066391Y-88106813D01*
X176066391Y-88106811D01*
X176000499Y-87992685D01*
X175907314Y-87899500D01*
X175793188Y-87833608D01*
X175793184Y-87833607D01*
X175665895Y-87799500D01*
X175665892Y-87799500D01*
X175534108Y-87799500D01*
X175534105Y-87799500D01*
X175406815Y-87833607D01*
X175406811Y-87833608D01*
X175292685Y-87899500D01*
X175292685Y-87899501D01*
X175199501Y-87992685D01*
X175199500Y-87992685D01*
X175133608Y-88106811D01*
X175133607Y-88106815D01*
X175099500Y-88234104D01*
X172199500Y-88234104D01*
X172199500Y-86045767D01*
X172213852Y-86011119D01*
X172610119Y-85614852D01*
X172644767Y-85600500D01*
X175172390Y-85600500D01*
X175207038Y-85614852D01*
X175292686Y-85700500D01*
X175320378Y-85716488D01*
X175406811Y-85766391D01*
X175406813Y-85766391D01*
X175406814Y-85766392D01*
X175457369Y-85779938D01*
X175534104Y-85800499D01*
X175534105Y-85800500D01*
X175534108Y-85800500D01*
X175665895Y-85800500D01*
X175665895Y-85800499D01*
X175793186Y-85766392D01*
X175907314Y-85700500D01*
X176000500Y-85607314D01*
X176066392Y-85493186D01*
X176100499Y-85365895D01*
X176100500Y-85365895D01*
X176100500Y-85234105D01*
X176100499Y-85234104D01*
X176076251Y-85143608D01*
X176066392Y-85106814D01*
X176066391Y-85106813D01*
X176066391Y-85106811D01*
X176000499Y-84992685D01*
X175907314Y-84899500D01*
X175793188Y-84833608D01*
X175793184Y-84833607D01*
X175665895Y-84799500D01*
X175665892Y-84799500D01*
X175534108Y-84799500D01*
X175534105Y-84799500D01*
X175406815Y-84833607D01*
X175406811Y-84833608D01*
X175292685Y-84899500D01*
X175292685Y-84899501D01*
X175207038Y-84985148D01*
X175172390Y-84999500D01*
X172460436Y-84999500D01*
X172384012Y-85019978D01*
X172384008Y-85019979D01*
X172329188Y-85051631D01*
X172320805Y-85056470D01*
X172315492Y-85059538D01*
X172315486Y-85059542D01*
X171658541Y-85716488D01*
X171658540Y-85716488D01*
X171618979Y-85785008D01*
X171618979Y-85785010D01*
X171598500Y-85861436D01*
X171598500Y-92176231D01*
X171584148Y-92210879D01*
X168893567Y-94901460D01*
X167619881Y-96175148D01*
X167585233Y-96189500D01*
X166793767Y-96189500D01*
X166759119Y-96175148D01*
X166744767Y-96140500D01*
X166759119Y-96105852D01*
X167284471Y-95580500D01*
X167830460Y-95034511D01*
X167839392Y-95019040D01*
X167850097Y-95000498D01*
X167870020Y-94965991D01*
X167870020Y-94965990D01*
X167870021Y-94965989D01*
X167890500Y-94889562D01*
X167890500Y-94827610D01*
X167904852Y-94792962D01*
X167990499Y-94707315D01*
X167990500Y-94707314D01*
X168056392Y-94593186D01*
X168090499Y-94465895D01*
X168090500Y-94465895D01*
X168090500Y-94334105D01*
X168090499Y-94334104D01*
X168075579Y-94278420D01*
X168056392Y-94206814D01*
X168056391Y-94206813D01*
X168056391Y-94206811D01*
X167990499Y-94092685D01*
X167897314Y-93999500D01*
X167783188Y-93933608D01*
X167783184Y-93933607D01*
X167655895Y-93899500D01*
X167655892Y-93899500D01*
X167524108Y-93899500D01*
X167524105Y-93899500D01*
X167396818Y-93933606D01*
X167396814Y-93933608D01*
X167358484Y-93955737D01*
X167321302Y-93960631D01*
X167291549Y-93937800D01*
X167286657Y-93925990D01*
X167281519Y-93906813D01*
X167276565Y-93898233D01*
X167220139Y-93800500D01*
X167215627Y-93792685D01*
X167122441Y-93699499D01*
X167008314Y-93633607D01*
X166994640Y-93629943D01*
X166964887Y-93607112D01*
X166959993Y-93569930D01*
X166982824Y-93540177D01*
X166994638Y-93535283D01*
X167030275Y-93525735D01*
X167098797Y-93486174D01*
X167154746Y-93430225D01*
X168970460Y-91614511D01*
X168997084Y-91568396D01*
X169010021Y-91545989D01*
X169030500Y-91469562D01*
X169030500Y-88667610D01*
X169044852Y-88632962D01*
X169130499Y-88547315D01*
X169130500Y-88547314D01*
X169196392Y-88433186D01*
X169230500Y-88305892D01*
X169230500Y-88174108D01*
X169230500Y-88174105D01*
X169230499Y-88174104D01*
X169196392Y-88046815D01*
X169196391Y-88046811D01*
X169135142Y-87940726D01*
X169130500Y-87932686D01*
X169037314Y-87839500D01*
X169021116Y-87830148D01*
X168923188Y-87773608D01*
X168923184Y-87773607D01*
X168795895Y-87739500D01*
X168795892Y-87739500D01*
X168664108Y-87739500D01*
X168664105Y-87739500D01*
X168536815Y-87773607D01*
X168536811Y-87773608D01*
X168422685Y-87839500D01*
X168422685Y-87839501D01*
X168329502Y-87932683D01*
X168264917Y-88044545D01*
X168235163Y-88067375D01*
X168197981Y-88062479D01*
X168177209Y-88038788D01*
X168176390Y-88036810D01*
X168133883Y-87963186D01*
X168110500Y-87922686D01*
X168017314Y-87829500D01*
X168009923Y-87825233D01*
X167903188Y-87763608D01*
X167903184Y-87763607D01*
X167775895Y-87729500D01*
X167775892Y-87729500D01*
X167644108Y-87729500D01*
X167644105Y-87729500D01*
X167516815Y-87763607D01*
X167516811Y-87763608D01*
X167402685Y-87829500D01*
X167402685Y-87829501D01*
X167309501Y-87922685D01*
X167309500Y-87922685D01*
X167243608Y-88036811D01*
X167243607Y-88036815D01*
X167209500Y-88164104D01*
X167209500Y-88295895D01*
X167243607Y-88423184D01*
X167243608Y-88423188D01*
X167309500Y-88537314D01*
X167402686Y-88630500D01*
X167444457Y-88654617D01*
X167516811Y-88696391D01*
X167516813Y-88696391D01*
X167516814Y-88696392D01*
X167609329Y-88721181D01*
X167644104Y-88730499D01*
X167644105Y-88730500D01*
X167644108Y-88730500D01*
X167775895Y-88730500D01*
X167775895Y-88730499D01*
X167903186Y-88696392D01*
X167907593Y-88693848D01*
X167918478Y-88687563D01*
X168017314Y-88630500D01*
X168110500Y-88537314D01*
X168175082Y-88425455D01*
X168204835Y-88402625D01*
X168242017Y-88407520D01*
X168262788Y-88431206D01*
X168263608Y-88433188D01*
X168329500Y-88547314D01*
X168415148Y-88632962D01*
X168429500Y-88667610D01*
X168429500Y-91285233D01*
X168415148Y-91319881D01*
X167201353Y-92533675D01*
X167166705Y-92548027D01*
X167132057Y-92533675D01*
X167119375Y-92511709D01*
X167117714Y-92505511D01*
X167103250Y-92451528D01*
X167103249Y-92451525D01*
X167061475Y-92379171D01*
X167037358Y-92337400D01*
X166944172Y-92244214D01*
X166830046Y-92178322D01*
X166830042Y-92178321D01*
X166702753Y-92144214D01*
X166702750Y-92144214D01*
X166581625Y-92144214D01*
X166546977Y-92129862D01*
X166115852Y-91698737D01*
X166101500Y-91664089D01*
X166101500Y-91469104D01*
X166115852Y-91434456D01*
X166150500Y-91420104D01*
X166185148Y-91434456D01*
X166199081Y-91462711D01*
X166199500Y-91465895D01*
X166233607Y-91593184D01*
X166233608Y-91593188D01*
X166292492Y-91695176D01*
X166299500Y-91707314D01*
X166392686Y-91800500D01*
X166420934Y-91816809D01*
X166506811Y-91866391D01*
X166506813Y-91866391D01*
X166506814Y-91866392D01*
X166576813Y-91885148D01*
X166634104Y-91900499D01*
X166634105Y-91900500D01*
X166634108Y-91900500D01*
X166765895Y-91900500D01*
X166765895Y-91900499D01*
X166893186Y-91866392D01*
X167007314Y-91800500D01*
X167100500Y-91707314D01*
X167166392Y-91593186D01*
X167200499Y-91465895D01*
X167200500Y-91465895D01*
X167200500Y-91334105D01*
X167200499Y-91334104D01*
X167166392Y-91206815D01*
X167166391Y-91206811D01*
X167100499Y-91092685D01*
X167007314Y-90999500D01*
X166893188Y-90933608D01*
X166893184Y-90933607D01*
X166765895Y-90899500D01*
X166765892Y-90899500D01*
X166634108Y-90899500D01*
X166634105Y-90899500D01*
X166506815Y-90933607D01*
X166506811Y-90933608D01*
X166392685Y-90999500D01*
X166392685Y-90999501D01*
X166299501Y-91092685D01*
X166299500Y-91092685D01*
X166233608Y-91206811D01*
X166233607Y-91206815D01*
X166199500Y-91334104D01*
X166199081Y-91337289D01*
X166180331Y-91369769D01*
X166144107Y-91379477D01*
X166111627Y-91360727D01*
X166101500Y-91330896D01*
X166101500Y-88311436D01*
X166100015Y-88305896D01*
X166100014Y-88305892D01*
X166081022Y-88235012D01*
X166081021Y-88235010D01*
X166051106Y-88183196D01*
X166041460Y-88166489D01*
X163207901Y-85332930D01*
X163194202Y-85325021D01*
X163139381Y-85293369D01*
X163139377Y-85293368D01*
X163062954Y-85272890D01*
X163062952Y-85272890D01*
X162449327Y-85272890D01*
X162414679Y-85258538D01*
X162329031Y-85172890D01*
X162214905Y-85106998D01*
X162214901Y-85106997D01*
X162087612Y-85072890D01*
X162087609Y-85072890D01*
X161955825Y-85072890D01*
X161955822Y-85072890D01*
X161828532Y-85106997D01*
X161828528Y-85106998D01*
X161714402Y-85172890D01*
X161627201Y-85260091D01*
X161592553Y-85274443D01*
X161557905Y-85260091D01*
X161507314Y-85209500D01*
X161393188Y-85143608D01*
X161393184Y-85143607D01*
X161265895Y-85109500D01*
X161265892Y-85109500D01*
X161134108Y-85109500D01*
X161134105Y-85109500D01*
X161006815Y-85143607D01*
X161006811Y-85143608D01*
X160892685Y-85209500D01*
X160892685Y-85209501D01*
X160799501Y-85302685D01*
X160799500Y-85302685D01*
X160733608Y-85416811D01*
X160733607Y-85416815D01*
X160699500Y-85544104D01*
X160699500Y-85675895D01*
X160733607Y-85803184D01*
X160733608Y-85803188D01*
X160782715Y-85888242D01*
X160799500Y-85917314D01*
X160892686Y-86010500D01*
X160934457Y-86034617D01*
X161006811Y-86076391D01*
X161006813Y-86076391D01*
X161006814Y-86076392D01*
X161107207Y-86103292D01*
X161134104Y-86110499D01*
X161134105Y-86110500D01*
X161134108Y-86110500D01*
X161265895Y-86110500D01*
X161265895Y-86110499D01*
X161393186Y-86076392D01*
X161397522Y-86073889D01*
X161443550Y-86047314D01*
X161507314Y-86010500D01*
X161594516Y-85923297D01*
X161629163Y-85908946D01*
X161663811Y-85923298D01*
X161714403Y-85973890D01*
X161725781Y-85980459D01*
X161828528Y-86039781D01*
X161828530Y-86039781D01*
X161828531Y-86039782D01*
X161884774Y-86054852D01*
X161955821Y-86073889D01*
X161955822Y-86073890D01*
X161955825Y-86073890D01*
X162087612Y-86073890D01*
X162087612Y-86073889D01*
X162214903Y-86039782D01*
X162329031Y-85973890D01*
X162414679Y-85888242D01*
X162449327Y-85873890D01*
X162878623Y-85873890D01*
X162913271Y-85888242D01*
X165486148Y-88461119D01*
X165500500Y-88495767D01*
X165500500Y-89253021D01*
X165486148Y-89287669D01*
X165451500Y-89302021D01*
X165416852Y-89287669D01*
X165409067Y-89277525D01*
X165400500Y-89262686D01*
X165307314Y-89169500D01*
X165193188Y-89103608D01*
X165193184Y-89103607D01*
X165065895Y-89069500D01*
X165065892Y-89069500D01*
X164944767Y-89069500D01*
X164910119Y-89055148D01*
X163714852Y-87859881D01*
X163700500Y-87825233D01*
X163700500Y-87704105D01*
X163700499Y-87704104D01*
X163690394Y-87666391D01*
X163666392Y-87576814D01*
X163666391Y-87576813D01*
X163666391Y-87576811D01*
X163600499Y-87462685D01*
X163507314Y-87369500D01*
X163393188Y-87303608D01*
X163393184Y-87303607D01*
X163265895Y-87269500D01*
X163265892Y-87269500D01*
X163134108Y-87269500D01*
X163134105Y-87269500D01*
X163006815Y-87303607D01*
X163006811Y-87303608D01*
X162892685Y-87369500D01*
X162892685Y-87369501D01*
X162799501Y-87462685D01*
X162799500Y-87462685D01*
X162733608Y-87576811D01*
X162733607Y-87576815D01*
X162699500Y-87704104D01*
X162699500Y-87835895D01*
X162733607Y-87963184D01*
X162733608Y-87963188D01*
X162799500Y-88077314D01*
X162837392Y-88115206D01*
X162851744Y-88149854D01*
X162837392Y-88184502D01*
X162827244Y-88192289D01*
X162771459Y-88224496D01*
X162771450Y-88224503D01*
X162678269Y-88317685D01*
X162678268Y-88317685D01*
X162612376Y-88431811D01*
X162612375Y-88431815D01*
X162578268Y-88559104D01*
X162578268Y-88690895D01*
X162612375Y-88818184D01*
X162612376Y-88818188D01*
X162678268Y-88932314D01*
X162771454Y-89025500D01*
X162813225Y-89049617D01*
X162885579Y-89091391D01*
X162885581Y-89091391D01*
X162885582Y-89091392D01*
X162985975Y-89118292D01*
X163012872Y-89125499D01*
X163012873Y-89125500D01*
X163012876Y-89125500D01*
X163105233Y-89125500D01*
X163139881Y-89139852D01*
X164736278Y-90736249D01*
X164750630Y-90770897D01*
X164744066Y-90795396D01*
X164708608Y-90856814D01*
X164708606Y-90856818D01*
X164674500Y-90984104D01*
X164674500Y-91115895D01*
X164708607Y-91243184D01*
X164708608Y-91243188D01*
X164774500Y-91357314D01*
X164867686Y-91450500D01*
X164888836Y-91462711D01*
X164981811Y-91516391D01*
X164981813Y-91516391D01*
X164981814Y-91516392D01*
X165013455Y-91524870D01*
X165109104Y-91550499D01*
X165109105Y-91550500D01*
X165109108Y-91550500D01*
X165240895Y-91550500D01*
X165240895Y-91550499D01*
X165368186Y-91516392D01*
X165427001Y-91482434D01*
X165464181Y-91477539D01*
X165493935Y-91500369D01*
X165500500Y-91524870D01*
X165500500Y-91848419D01*
X165520979Y-91924845D01*
X165520979Y-91924847D01*
X165541010Y-91959540D01*
X165560540Y-91993367D01*
X166122006Y-92554833D01*
X166136358Y-92589481D01*
X166136358Y-92710609D01*
X166170465Y-92837898D01*
X166170466Y-92837902D01*
X166236358Y-92952028D01*
X166329544Y-93045214D01*
X166369978Y-93068559D01*
X166442531Y-93110448D01*
X166465361Y-93140201D01*
X166460466Y-93177383D01*
X166452679Y-93187531D01*
X165971224Y-93668988D01*
X165915276Y-93724936D01*
X165915275Y-93724936D01*
X165875714Y-93793456D01*
X165875714Y-93793458D01*
X165855235Y-93869884D01*
X165855235Y-94158125D01*
X165840883Y-94192773D01*
X165755236Y-94278420D01*
X165755235Y-94278420D01*
X165689343Y-94392546D01*
X165689342Y-94392550D01*
X165655235Y-94519839D01*
X165655235Y-94651630D01*
X165689342Y-94778919D01*
X165689343Y-94778923D01*
X165755235Y-94893049D01*
X165758038Y-94895852D01*
X165772390Y-94930500D01*
X165758038Y-94965148D01*
X165723390Y-94979500D01*
X149280435Y-94979500D01*
X149204013Y-94999977D01*
X149204010Y-94999978D01*
X149135488Y-95039540D01*
X147889880Y-96285148D01*
X147855232Y-96299500D01*
X147734105Y-96299500D01*
X147606815Y-96333607D01*
X147606811Y-96333608D01*
X147492685Y-96399500D01*
X147492685Y-96399501D01*
X147399501Y-96492685D01*
X147399500Y-96492685D01*
X147333608Y-96606811D01*
X147333607Y-96606815D01*
X147299500Y-96734104D01*
X147299500Y-96865895D01*
X147333607Y-96993184D01*
X147333608Y-96993188D01*
X147394131Y-97098015D01*
X147399500Y-97107314D01*
X147492686Y-97200500D01*
X147523291Y-97218170D01*
X147606811Y-97266391D01*
X147606813Y-97266391D01*
X147606814Y-97266392D01*
X147650726Y-97278158D01*
X147734104Y-97300499D01*
X147734105Y-97300500D01*
X147734108Y-97300500D01*
X147865895Y-97300500D01*
X147865895Y-97300499D01*
X147993186Y-97266392D01*
X148107314Y-97200500D01*
X148200500Y-97107314D01*
X148266392Y-96993186D01*
X148300499Y-96865895D01*
X148300500Y-96865895D01*
X148300500Y-96744766D01*
X148314852Y-96710118D01*
X149430119Y-95594852D01*
X149464767Y-95580500D01*
X166316233Y-95580500D01*
X166350881Y-95594852D01*
X166365233Y-95629500D01*
X166350881Y-95664148D01*
X166140881Y-95874148D01*
X166106233Y-95888500D01*
X162176468Y-95888500D01*
X162149267Y-95895789D01*
X162141649Y-95897830D01*
X162128968Y-95899500D01*
X149960436Y-95899500D01*
X149884012Y-95919978D01*
X149884008Y-95919979D01*
X149841619Y-95944454D01*
X149834542Y-95948540D01*
X149829778Y-95951290D01*
X149815492Y-95959537D01*
X149815486Y-95959542D01*
X147989880Y-97785148D01*
X147955232Y-97799500D01*
X147834105Y-97799500D01*
X147706815Y-97833607D01*
X147706811Y-97833608D01*
X147592685Y-97899500D01*
X147592685Y-97899501D01*
X147499501Y-97992685D01*
X147499500Y-97992685D01*
X147433608Y-98106811D01*
X147433607Y-98106815D01*
X147399500Y-98234104D01*
X147399500Y-98365895D01*
X147433607Y-98493184D01*
X147433608Y-98493188D01*
X147494989Y-98599501D01*
X147499500Y-98607314D01*
X147592686Y-98700500D01*
X147634457Y-98724617D01*
X147706811Y-98766391D01*
X147706813Y-98766391D01*
X147706814Y-98766392D01*
X147771629Y-98783759D01*
X147834104Y-98800499D01*
X147834105Y-98800500D01*
X147834108Y-98800500D01*
X147965895Y-98800500D01*
X147965895Y-98800499D01*
X148093186Y-98766392D01*
X148100243Y-98762318D01*
X148108478Y-98757563D01*
X148207314Y-98700500D01*
X148300500Y-98607314D01*
X148366392Y-98493186D01*
X148400499Y-98365895D01*
X148400500Y-98365895D01*
X148400500Y-98244766D01*
X148414852Y-98210118D01*
X150110119Y-96514852D01*
X150144767Y-96500500D01*
X161481289Y-96500500D01*
X161515937Y-96514852D01*
X161530289Y-96549500D01*
X161515937Y-96584148D01*
X161505793Y-96591932D01*
X161492686Y-96599500D01*
X161492683Y-96599502D01*
X161399501Y-96692685D01*
X161399500Y-96692685D01*
X161333608Y-96806811D01*
X161333607Y-96806815D01*
X161299500Y-96934104D01*
X161299500Y-97065895D01*
X161333607Y-97193184D01*
X161333608Y-97193188D01*
X161393236Y-97296464D01*
X161399500Y-97307314D01*
X161492686Y-97400500D01*
X161514923Y-97413338D01*
X161537753Y-97443091D01*
X161532858Y-97480273D01*
X161514925Y-97498207D01*
X161512691Y-97499496D01*
X161512682Y-97499503D01*
X161427038Y-97585148D01*
X161392390Y-97599500D01*
X160630435Y-97599500D01*
X160554013Y-97619977D01*
X160554010Y-97619978D01*
X160485488Y-97659540D01*
X160485487Y-97659541D01*
X155227570Y-102917457D01*
X155192922Y-102931809D01*
X155180240Y-102930139D01*
X155065895Y-102899500D01*
X155065892Y-102899500D01*
X154934108Y-102899500D01*
X154934105Y-102899500D01*
X154806815Y-102933607D01*
X154806811Y-102933608D01*
X154692685Y-102999500D01*
X154692685Y-102999501D01*
X154607038Y-103085148D01*
X154572390Y-103099500D01*
X147427610Y-103099500D01*
X147392962Y-103085148D01*
X147307314Y-102999500D01*
X147193188Y-102933608D01*
X147193184Y-102933607D01*
X147065895Y-102899500D01*
X147065892Y-102899500D01*
X146934108Y-102899500D01*
X146934105Y-102899500D01*
X146806815Y-102933607D01*
X146806811Y-102933608D01*
X146692685Y-102999500D01*
X146692685Y-102999501D01*
X146599501Y-103092685D01*
X146599500Y-103092685D01*
X146533608Y-103206811D01*
X146533607Y-103206815D01*
X146499500Y-103334104D01*
X144510500Y-103334104D01*
X144510500Y-100595514D01*
X144524852Y-100560866D01*
X144559500Y-100546514D01*
X144569060Y-100547456D01*
X144609500Y-100555500D01*
X145095159Y-100555500D01*
X145095177Y-100555500D01*
X145120239Y-100554268D01*
X145129796Y-100553326D01*
X145154581Y-100549648D01*
X145216823Y-100537267D01*
X145264749Y-100522729D01*
X145282412Y-100515413D01*
X145326585Y-100491803D01*
X145375263Y-100459278D01*
X145413983Y-100427502D01*
X145427502Y-100413983D01*
X145459278Y-100375263D01*
X145491803Y-100326585D01*
X145515413Y-100282412D01*
X145522729Y-100264749D01*
X145537267Y-100216824D01*
X145537269Y-100216810D01*
X145537272Y-100216802D01*
X145549640Y-100154624D01*
X145549648Y-100154584D01*
X145553327Y-100129791D01*
X145554269Y-100120231D01*
X145555500Y-100095176D01*
X145555500Y-99304823D01*
X145554269Y-99279768D01*
X145553327Y-99270208D01*
X145549648Y-99245415D01*
X145549640Y-99245374D01*
X145537272Y-99183196D01*
X145537268Y-99183184D01*
X145537267Y-99183175D01*
X145522729Y-99135250D01*
X145515413Y-99117587D01*
X145491801Y-99073412D01*
X145459274Y-99024732D01*
X145459271Y-99024728D01*
X145459268Y-99024724D01*
X145427506Y-98986020D01*
X145427495Y-98986008D01*
X145413990Y-98972503D01*
X145413987Y-98972501D01*
X145413985Y-98972499D01*
X145375269Y-98940726D01*
X145326590Y-98908199D01*
X145326589Y-98908198D01*
X145326584Y-98908195D01*
X145282403Y-98884582D01*
X145264738Y-98877266D01*
X145264735Y-98877265D01*
X145264730Y-98877263D01*
X145232165Y-98867385D01*
X145216820Y-98862731D01*
X145216805Y-98862728D01*
X145216793Y-98862725D01*
X145154623Y-98850358D01*
X145154565Y-98850348D01*
X145129810Y-98846675D01*
X145120244Y-98845733D01*
X145120239Y-98845732D01*
X145105855Y-98845025D01*
X145095177Y-98844500D01*
X144609498Y-98844500D01*
X144609494Y-98844500D01*
X144606856Y-98845025D01*
X144601935Y-98844045D01*
X144597300Y-98845966D01*
X144584093Y-98840495D01*
X144570074Y-98837706D01*
X144567286Y-98833533D01*
X144562652Y-98831614D01*
X144557181Y-98818408D01*
X144549241Y-98806522D01*
X144550220Y-98801601D01*
X144548300Y-98796966D01*
X144553770Y-98783759D01*
X144556560Y-98769740D01*
X144562647Y-98762323D01*
X144630119Y-98694852D01*
X144664767Y-98680500D01*
X144701021Y-98680500D01*
X144701021Y-98680499D01*
X144809237Y-98651503D01*
X144906263Y-98595485D01*
X144985485Y-98516263D01*
X145041503Y-98419237D01*
X145070499Y-98311021D01*
X145070500Y-98311021D01*
X145070500Y-98274767D01*
X145084852Y-98240119D01*
X148810119Y-94514852D01*
X148844767Y-94500500D01*
X161472390Y-94500500D01*
X161507038Y-94514852D01*
X161592686Y-94600500D01*
X161604490Y-94607315D01*
X161706811Y-94666391D01*
X161706813Y-94666391D01*
X161706814Y-94666392D01*
X161807207Y-94693292D01*
X161834104Y-94700499D01*
X161834105Y-94700500D01*
X161834108Y-94700500D01*
X161965895Y-94700500D01*
X161965895Y-94700499D01*
X162093186Y-94666392D01*
X162207314Y-94600500D01*
X162300500Y-94507314D01*
X162366392Y-94393186D01*
X162400499Y-94265895D01*
X162400500Y-94265895D01*
X162400500Y-94134105D01*
X162400499Y-94134104D01*
X162366392Y-94006815D01*
X162366391Y-94006811D01*
X162324125Y-93933606D01*
X162300500Y-93892686D01*
X162207314Y-93799500D01*
X162093188Y-93733608D01*
X162093184Y-93733607D01*
X161974850Y-93701899D01*
X161945097Y-93679069D01*
X161940202Y-93641887D01*
X161945094Y-93630073D01*
X161966392Y-93593186D01*
X162000499Y-93465895D01*
X162000500Y-93465895D01*
X162000500Y-93334105D01*
X162000499Y-93334104D01*
X161966392Y-93206815D01*
X161966391Y-93206811D01*
X161900499Y-93092685D01*
X161807314Y-92999500D01*
X161693188Y-92933608D01*
X161693184Y-92933607D01*
X161565895Y-92899500D01*
X161565892Y-92899500D01*
X161434108Y-92899500D01*
X161434105Y-92899500D01*
X161306815Y-92933607D01*
X161306811Y-92933608D01*
X161262026Y-92959466D01*
X161224844Y-92964361D01*
X161195091Y-92941531D01*
X161190196Y-92904349D01*
X161200500Y-92865894D01*
X161200500Y-92734105D01*
X161200499Y-92734104D01*
X161170892Y-92623608D01*
X161166392Y-92606814D01*
X161166391Y-92606813D01*
X161166391Y-92606811D01*
X161124165Y-92533675D01*
X161100500Y-92492686D01*
X161014852Y-92407038D01*
X161000500Y-92372390D01*
X161000500Y-90750493D01*
X160991843Y-90718191D01*
X160980021Y-90674068D01*
X160980020Y-90674066D01*
X160980020Y-90674065D01*
X160940459Y-90605545D01*
X160329018Y-89994104D01*
X162599500Y-89994104D01*
X162599500Y-90125895D01*
X162633607Y-90253184D01*
X162633608Y-90253188D01*
X162699500Y-90367314D01*
X162792686Y-90460500D01*
X162834457Y-90484617D01*
X162906811Y-90526391D01*
X162906813Y-90526391D01*
X162906814Y-90526392D01*
X162993417Y-90549597D01*
X163034104Y-90560499D01*
X163034105Y-90560500D01*
X163034108Y-90560500D01*
X163165895Y-90560500D01*
X163165895Y-90560499D01*
X163293186Y-90526392D01*
X163407314Y-90460500D01*
X163500500Y-90367314D01*
X163566392Y-90253186D01*
X163600499Y-90125895D01*
X163600500Y-90125895D01*
X163600500Y-89994105D01*
X163600499Y-89994104D01*
X163571795Y-89886978D01*
X163566392Y-89866814D01*
X163566391Y-89866813D01*
X163566391Y-89866811D01*
X163500499Y-89752685D01*
X163407314Y-89659500D01*
X163293188Y-89593608D01*
X163293184Y-89593607D01*
X163165895Y-89559500D01*
X163165892Y-89559500D01*
X163034108Y-89559500D01*
X163034105Y-89559500D01*
X162906815Y-89593607D01*
X162906811Y-89593608D01*
X162792685Y-89659500D01*
X162792685Y-89659501D01*
X162699501Y-89752685D01*
X162699500Y-89752685D01*
X162633608Y-89866811D01*
X162633607Y-89866815D01*
X162599500Y-89994104D01*
X160329018Y-89994104D01*
X156114852Y-85779938D01*
X156100500Y-85745290D01*
X156100500Y-83004104D01*
X168229500Y-83004104D01*
X168229500Y-83135895D01*
X168263607Y-83263184D01*
X168263608Y-83263188D01*
X168329500Y-83377314D01*
X168415148Y-83462962D01*
X168429500Y-83497610D01*
X168429500Y-85312390D01*
X168415148Y-85347038D01*
X168329501Y-85432685D01*
X168329500Y-85432685D01*
X168263608Y-85546811D01*
X168263607Y-85546815D01*
X168229500Y-85674104D01*
X168229500Y-85805895D01*
X168263607Y-85933184D01*
X168263608Y-85933188D01*
X168328607Y-86045767D01*
X168329500Y-86047314D01*
X168422686Y-86140500D01*
X168464457Y-86164617D01*
X168536811Y-86206391D01*
X168536813Y-86206391D01*
X168536814Y-86206392D01*
X168637207Y-86233292D01*
X168664104Y-86240499D01*
X168664105Y-86240500D01*
X168664108Y-86240500D01*
X168795895Y-86240500D01*
X168795895Y-86240499D01*
X168923186Y-86206392D01*
X169037314Y-86140500D01*
X169122962Y-86054852D01*
X169157610Y-86040500D01*
X170609564Y-86040500D01*
X170636230Y-86033354D01*
X170685989Y-86020021D01*
X170754511Y-85980460D01*
X170810460Y-85924511D01*
X172620119Y-84114852D01*
X172654767Y-84100500D01*
X175172390Y-84100500D01*
X175207038Y-84114852D01*
X175292686Y-84200500D01*
X175334457Y-84224617D01*
X175406811Y-84266391D01*
X175406813Y-84266391D01*
X175406814Y-84266392D01*
X175507207Y-84293292D01*
X175534104Y-84300499D01*
X175534105Y-84300500D01*
X175534108Y-84300500D01*
X175665895Y-84300500D01*
X175665895Y-84300499D01*
X175793186Y-84266392D01*
X175907314Y-84200500D01*
X176000500Y-84107314D01*
X176066392Y-83993186D01*
X176100499Y-83865895D01*
X176100500Y-83865895D01*
X176100500Y-83734105D01*
X176100499Y-83734104D01*
X176074744Y-83637984D01*
X176066392Y-83606814D01*
X176066391Y-83606813D01*
X176066391Y-83606811D01*
X176000499Y-83492685D01*
X175907314Y-83399500D01*
X175793188Y-83333608D01*
X175793184Y-83333607D01*
X175665895Y-83299500D01*
X175665892Y-83299500D01*
X175534108Y-83299500D01*
X175534105Y-83299500D01*
X175406815Y-83333607D01*
X175406811Y-83333608D01*
X175292685Y-83399500D01*
X175292685Y-83399501D01*
X175207038Y-83485148D01*
X175172390Y-83499500D01*
X172470436Y-83499500D01*
X172394012Y-83519978D01*
X172394008Y-83519979D01*
X172365583Y-83536392D01*
X172355559Y-83542179D01*
X172325492Y-83559537D01*
X172325486Y-83559542D01*
X170459881Y-85425148D01*
X170425233Y-85439500D01*
X169157610Y-85439500D01*
X169122962Y-85425148D01*
X169044852Y-85347038D01*
X169030500Y-85312390D01*
X169030500Y-83497610D01*
X169044852Y-83462962D01*
X169130499Y-83377315D01*
X169130500Y-83377314D01*
X169196392Y-83263186D01*
X169230499Y-83135895D01*
X169230500Y-83135895D01*
X169230500Y-83004105D01*
X169230499Y-83004104D01*
X169196392Y-82876815D01*
X169196391Y-82876811D01*
X169130499Y-82762685D01*
X169037314Y-82669500D01*
X168923188Y-82603608D01*
X168923184Y-82603607D01*
X168795895Y-82569500D01*
X168795892Y-82569500D01*
X168664108Y-82569500D01*
X168664105Y-82569500D01*
X168536815Y-82603607D01*
X168536811Y-82603608D01*
X168422685Y-82669500D01*
X168422685Y-82669501D01*
X168329501Y-82762685D01*
X168329500Y-82762685D01*
X168263608Y-82876811D01*
X168263607Y-82876815D01*
X168229500Y-83004104D01*
X156100500Y-83004104D01*
X156100500Y-82727610D01*
X156114852Y-82692962D01*
X156200499Y-82607315D01*
X156200500Y-82607314D01*
X156266392Y-82493186D01*
X156300499Y-82365895D01*
X156300500Y-82365895D01*
X156300500Y-82234105D01*
X156300499Y-82234104D01*
X156282355Y-82166391D01*
X156266392Y-82106814D01*
X156266391Y-82106813D01*
X156266391Y-82106811D01*
X156208946Y-82007315D01*
X156200500Y-81992686D01*
X156107314Y-81899500D01*
X155993188Y-81833608D01*
X155993184Y-81833607D01*
X155865895Y-81799500D01*
X155865892Y-81799500D01*
X155734108Y-81799500D01*
X155734105Y-81799500D01*
X155606815Y-81833607D01*
X155606811Y-81833608D01*
X155492685Y-81899500D01*
X155492685Y-81899501D01*
X155399501Y-81992685D01*
X155399500Y-81992685D01*
X155333608Y-82106811D01*
X155333607Y-82106815D01*
X155299500Y-82234104D01*
X155299500Y-82365895D01*
X155333607Y-82493184D01*
X155333608Y-82493188D01*
X155399500Y-82607314D01*
X155485148Y-82692962D01*
X155499500Y-82727610D01*
X155499500Y-85929620D01*
X155519978Y-86006044D01*
X155519979Y-86006048D01*
X155539871Y-86040500D01*
X155539872Y-86040501D01*
X155559537Y-86074564D01*
X155559542Y-86074570D01*
X156126495Y-86641523D01*
X156140847Y-86676171D01*
X156126495Y-86710819D01*
X156104530Y-86723501D01*
X156066813Y-86733608D01*
X156066811Y-86733608D01*
X155952685Y-86799500D01*
X155952685Y-86799501D01*
X155859501Y-86892685D01*
X155859500Y-86892685D01*
X155793608Y-87006811D01*
X155793607Y-87006815D01*
X155759500Y-87134104D01*
X155759500Y-87265895D01*
X155793607Y-87393184D01*
X155793608Y-87393188D01*
X155854342Y-87498380D01*
X155859500Y-87507314D01*
X155952686Y-87600500D01*
X155994457Y-87624617D01*
X156066811Y-87666391D01*
X156066813Y-87666391D01*
X156066814Y-87666392D01*
X156167207Y-87693292D01*
X156194104Y-87700499D01*
X156194105Y-87700500D01*
X156194108Y-87700500D01*
X156325895Y-87700500D01*
X156325895Y-87700499D01*
X156453186Y-87666392D01*
X156567314Y-87600500D01*
X156660500Y-87507314D01*
X156726392Y-87393186D01*
X156736498Y-87355466D01*
X156759326Y-87325717D01*
X156796508Y-87320820D01*
X156818475Y-87333503D01*
X160385148Y-90900176D01*
X160399500Y-90934824D01*
X160399500Y-91956233D01*
X160385148Y-91990881D01*
X160350500Y-92005233D01*
X160315852Y-91990881D01*
X160284511Y-91959540D01*
X160215990Y-91919979D01*
X160139564Y-91899500D01*
X160139562Y-91899500D01*
X148378256Y-91899500D01*
X148343608Y-91885148D01*
X148329256Y-91850500D01*
X148331366Y-91836275D01*
X148337267Y-91816824D01*
X148349648Y-91754584D01*
X148353327Y-91729791D01*
X148354269Y-91720231D01*
X148355500Y-91695176D01*
X148355500Y-88304823D01*
X148354269Y-88279768D01*
X148353327Y-88270208D01*
X148349648Y-88245415D01*
X148345487Y-88224496D01*
X148337272Y-88183196D01*
X148337268Y-88183184D01*
X148337267Y-88183175D01*
X148322729Y-88135250D01*
X148315413Y-88117587D01*
X148291801Y-88073412D01*
X148259274Y-88024732D01*
X148259271Y-88024728D01*
X148259268Y-88024724D01*
X148227506Y-87986020D01*
X148227495Y-87986008D01*
X148213990Y-87972503D01*
X148213987Y-87972501D01*
X148202639Y-87963188D01*
X148175269Y-87940726D01*
X148126590Y-87908199D01*
X148126589Y-87908198D01*
X148126584Y-87908195D01*
X148082403Y-87884582D01*
X148064738Y-87877266D01*
X148064735Y-87877265D01*
X148064730Y-87877263D01*
X148032165Y-87867385D01*
X148016820Y-87862731D01*
X148016805Y-87862728D01*
X148016793Y-87862725D01*
X147954623Y-87850358D01*
X147954565Y-87850348D01*
X147929810Y-87846675D01*
X147920244Y-87845733D01*
X147920239Y-87845732D01*
X147906313Y-87845047D01*
X147895177Y-87844500D01*
X147895173Y-87844500D01*
X144097999Y-87844500D01*
X144063351Y-87830148D01*
X144049010Y-87796557D01*
X144046937Y-87700499D01*
X144029801Y-86906530D01*
X144026965Y-86873689D01*
X144025071Y-86861215D01*
X144018032Y-86829015D01*
X143995158Y-86749401D01*
X143968998Y-86689030D01*
X143956175Y-86667541D01*
X143915474Y-86615861D01*
X143915466Y-86615853D01*
X143860984Y-86562533D01*
X143860977Y-86562528D01*
X143808426Y-86522948D01*
X143808423Y-86522946D01*
X143786676Y-86510599D01*
X143786673Y-86510597D01*
X143786671Y-86510596D01*
X143725751Y-86485746D01*
X143725749Y-86485745D01*
X143725748Y-86485745D01*
X143645655Y-86464593D01*
X143613301Y-86458248D01*
X143600787Y-86456624D01*
X143567907Y-86454500D01*
X141174823Y-86454500D01*
X141174795Y-86454500D01*
X141149825Y-86455725D01*
X141140270Y-86456665D01*
X141115428Y-86460348D01*
X141115425Y-86460348D01*
X141053191Y-86472728D01*
X141053165Y-86472734D01*
X141005246Y-86487270D01*
X141005237Y-86487273D01*
X140987589Y-86494583D01*
X140943410Y-86518198D01*
X140894730Y-86550725D01*
X140894718Y-86550733D01*
X140856014Y-86582497D01*
X140855999Y-86582511D01*
X140842505Y-86596005D01*
X140842494Y-86596017D01*
X140810732Y-86634721D01*
X140810725Y-86634731D01*
X140778194Y-86683417D01*
X140754598Y-86727559D01*
X140754591Y-86727574D01*
X140747280Y-86745220D01*
X140732730Y-86793179D01*
X140732729Y-86793184D01*
X140720348Y-86855425D01*
X140720348Y-86855428D01*
X140716665Y-86880270D01*
X140715725Y-86889825D01*
X140714500Y-86914795D01*
X140714500Y-95753558D01*
X140716683Y-95786885D01*
X140718348Y-95799540D01*
X140724876Y-95832364D01*
X140739901Y-95888439D01*
X140739907Y-95888455D01*
X140765430Y-95950073D01*
X140778111Y-95972037D01*
X140818704Y-96024939D01*
X140818708Y-96024943D01*
X140818713Y-96024949D01*
X140855050Y-96061286D01*
X140907967Y-96101890D01*
X140929933Y-96114572D01*
X140984251Y-96137071D01*
X140991143Y-96143963D01*
X141000148Y-96147693D01*
X141003877Y-96156696D01*
X141010770Y-96163589D01*
X141014500Y-96182341D01*
X141014500Y-96226254D01*
X141007936Y-96250753D01*
X140946905Y-96356464D01*
X140946904Y-96356466D01*
X140914500Y-96477397D01*
X140914500Y-96602602D01*
X140946904Y-96723533D01*
X140946906Y-96723539D01*
X140962472Y-96750502D01*
X140967366Y-96787684D01*
X140962472Y-96799498D01*
X140946906Y-96826460D01*
X140946904Y-96826466D01*
X140914500Y-96947397D01*
X140914500Y-97072602D01*
X140946811Y-97193186D01*
X140946905Y-97193536D01*
X140967473Y-97229161D01*
X140972367Y-97266343D01*
X140967473Y-97278158D01*
X140956906Y-97296460D01*
X140956904Y-97296466D01*
X140924500Y-97417397D01*
X140924500Y-97542601D01*
X140924559Y-97542822D01*
X140924543Y-97542937D01*
X140924919Y-97545788D01*
X140924154Y-97545888D01*
X140919660Y-97580004D01*
X140889905Y-97602832D01*
X140877227Y-97604500D01*
X140724795Y-97604500D01*
X140699825Y-97605725D01*
X140690270Y-97606665D01*
X140665428Y-97610348D01*
X140665425Y-97610348D01*
X140603191Y-97622728D01*
X140603165Y-97622734D01*
X140555246Y-97637270D01*
X140555237Y-97637273D01*
X140537589Y-97644583D01*
X140493410Y-97668198D01*
X140444730Y-97700725D01*
X140444718Y-97700733D01*
X140406014Y-97732497D01*
X140405999Y-97732511D01*
X140392505Y-97746005D01*
X140392494Y-97746017D01*
X140360732Y-97784721D01*
X140360725Y-97784731D01*
X140328194Y-97833417D01*
X140304598Y-97877559D01*
X140304591Y-97877574D01*
X140297280Y-97895220D01*
X140297276Y-97895232D01*
X140297276Y-97895233D01*
X140295981Y-97899501D01*
X140282730Y-97943179D01*
X140282729Y-97943184D01*
X140270348Y-98005425D01*
X140270348Y-98005428D01*
X140266665Y-98030270D01*
X140265725Y-98039825D01*
X140264500Y-98064795D01*
X140264500Y-99257055D01*
X140264491Y-99257997D01*
X140248559Y-100086371D01*
X140249333Y-100111723D01*
X140249334Y-100111749D01*
X140250113Y-100121438D01*
X140253396Y-100146566D01*
X140253405Y-100146626D01*
X140264867Y-100209777D01*
X140264869Y-100209786D01*
X140278822Y-100258509D01*
X140278829Y-100258531D01*
X140285969Y-100276496D01*
X140301506Y-100306510D01*
X140309275Y-100321519D01*
X140309279Y-100321526D01*
X140341590Y-100371164D01*
X140341593Y-100371168D01*
X140341594Y-100371169D01*
X140373324Y-100410698D01*
X140386871Y-100424509D01*
X140425793Y-100457005D01*
X140474815Y-100490275D01*
X140519394Y-100514447D01*
X140537233Y-100521936D01*
X140585684Y-100536824D01*
X140606441Y-100541004D01*
X140648616Y-100549500D01*
X140648624Y-100549501D01*
X140648643Y-100549505D01*
X140673734Y-100553273D01*
X140683409Y-100554238D01*
X140708751Y-100555499D01*
X140708756Y-100555500D01*
X140708767Y-100555500D01*
X142712678Y-100555500D01*
X142753116Y-100547456D01*
X142789898Y-100554772D01*
X142810734Y-100585954D01*
X142811676Y-100595514D01*
X142811676Y-101063056D01*
X142797324Y-101097704D01*
X139359880Y-104535148D01*
X139325232Y-104549500D01*
X139204105Y-104549500D01*
X139076815Y-104583607D01*
X139076811Y-104583608D01*
X138962685Y-104649500D01*
X138962685Y-104649501D01*
X138869501Y-104742685D01*
X138869500Y-104742685D01*
X138803608Y-104856811D01*
X138803607Y-104856815D01*
X138769500Y-104984104D01*
X130300500Y-104984104D01*
X130300500Y-98177522D01*
X134069500Y-98177522D01*
X134069500Y-98322477D01*
X134107015Y-98462483D01*
X134107016Y-98462487D01*
X134162176Y-98558025D01*
X134179491Y-98588015D01*
X134281985Y-98690509D01*
X134299290Y-98700500D01*
X134407512Y-98762983D01*
X134407514Y-98762983D01*
X134407515Y-98762984D01*
X134442517Y-98772363D01*
X134547522Y-98800500D01*
X134547525Y-98800500D01*
X134692477Y-98800500D01*
X134762480Y-98781742D01*
X134832485Y-98762984D01*
X134958015Y-98690509D01*
X135060509Y-98588015D01*
X135129470Y-98468569D01*
X135137250Y-98458430D01*
X136031469Y-97564212D01*
X136077614Y-97484288D01*
X136085972Y-97453095D01*
X136101500Y-97395144D01*
X136101500Y-95104856D01*
X136101500Y-95104853D01*
X136101499Y-95104852D01*
X136077615Y-95015715D01*
X136077613Y-95015709D01*
X136068834Y-95000505D01*
X136068833Y-95000504D01*
X136068831Y-95000500D01*
X136031470Y-94935788D01*
X135979830Y-94884148D01*
X135965478Y-94849500D01*
X135979830Y-94814852D01*
X136014478Y-94800500D01*
X136115895Y-94800500D01*
X136115895Y-94800499D01*
X136243186Y-94766392D01*
X136357314Y-94700500D01*
X136450500Y-94607314D01*
X136516392Y-94493186D01*
X136550499Y-94365895D01*
X136550500Y-94365895D01*
X136550500Y-94234105D01*
X136550499Y-94234104D01*
X136536350Y-94181300D01*
X136516392Y-94106814D01*
X136516391Y-94106813D01*
X136516391Y-94106811D01*
X136450499Y-93992685D01*
X136357314Y-93899500D01*
X136243188Y-93833608D01*
X136243184Y-93833607D01*
X136115895Y-93799500D01*
X136115892Y-93799500D01*
X135984108Y-93799500D01*
X135984105Y-93799500D01*
X135856815Y-93833607D01*
X135856814Y-93833607D01*
X135823999Y-93852553D01*
X135786817Y-93857447D01*
X135757064Y-93834616D01*
X135750500Y-93810117D01*
X135750500Y-88460290D01*
X135764852Y-88425642D01*
X135799500Y-88411290D01*
X135826723Y-88419548D01*
X135986325Y-88526190D01*
X136168310Y-88601570D01*
X136361512Y-88640000D01*
X136560000Y-88640000D01*
X136560000Y-87890012D01*
X137060000Y-87890012D01*
X137060000Y-88640000D01*
X137258488Y-88640000D01*
X137451689Y-88601570D01*
X137451690Y-88601570D01*
X137633674Y-88526190D01*
X137797460Y-88416753D01*
X137936753Y-88277460D01*
X138046190Y-88113674D01*
X138121570Y-87931690D01*
X138121570Y-87931689D01*
X138129863Y-87890000D01*
X137209746Y-87890000D01*
X137301607Y-87851950D01*
X137371937Y-87781620D01*
X137409999Y-87689730D01*
X137409999Y-87590270D01*
X137371937Y-87498380D01*
X137301607Y-87428050D01*
X137209746Y-87390000D01*
X138129862Y-87390000D01*
X138121570Y-87348310D01*
X138121570Y-87348309D01*
X138046190Y-87166325D01*
X137936753Y-87002539D01*
X137797460Y-86863246D01*
X137633674Y-86753809D01*
X137451689Y-86678429D01*
X137258488Y-86640000D01*
X137060000Y-86640000D01*
X137060000Y-87389988D01*
X136560000Y-87389988D01*
X136560000Y-86755978D01*
X136574352Y-86721330D01*
X139805830Y-83489852D01*
X139840478Y-83475500D01*
X146526680Y-83475500D01*
X146561328Y-83489852D01*
X146636985Y-83565509D01*
X146682930Y-83592035D01*
X146762512Y-83637983D01*
X146762514Y-83637983D01*
X146762515Y-83637984D01*
X146797517Y-83647363D01*
X146902522Y-83675500D01*
X146902525Y-83675500D01*
X147047477Y-83675500D01*
X147117480Y-83656742D01*
X147187485Y-83637984D01*
X147313015Y-83565509D01*
X147415509Y-83463015D01*
X147487984Y-83337485D01*
X147507893Y-83263184D01*
X147525500Y-83197477D01*
X147525500Y-83052522D01*
X147487984Y-82912516D01*
X147487983Y-82912512D01*
X147422091Y-82798386D01*
X147415509Y-82786985D01*
X147313015Y-82684491D01*
X147287050Y-82669500D01*
X147187487Y-82612016D01*
X147187483Y-82612015D01*
X147047478Y-82574500D01*
X147047475Y-82574500D01*
X146902525Y-82574500D01*
X146902522Y-82574500D01*
X146762516Y-82612015D01*
X146762512Y-82612016D01*
X146636984Y-82684491D01*
X146636984Y-82684492D01*
X146561328Y-82760148D01*
X146526680Y-82774500D01*
X139628853Y-82774500D01*
X139539713Y-82798385D01*
X139539709Y-82798386D01*
X139459787Y-82844530D01*
X139459787Y-82844531D01*
X135119532Y-87184785D01*
X135119527Y-87184791D01*
X135097031Y-87223757D01*
X135089532Y-87236747D01*
X135080209Y-87252894D01*
X135073385Y-87264713D01*
X135049500Y-87353853D01*
X135049500Y-94846145D01*
X135066744Y-94910499D01*
X135066744Y-94910500D01*
X135073385Y-94935287D01*
X135073386Y-94935290D01*
X135119530Y-95015212D01*
X135386148Y-95281830D01*
X135400500Y-95316478D01*
X135400500Y-97183522D01*
X135386148Y-97218170D01*
X134879948Y-97724369D01*
X134845300Y-97738721D01*
X134832618Y-97737051D01*
X134692478Y-97699500D01*
X134692475Y-97699500D01*
X134547525Y-97699500D01*
X134547522Y-97699500D01*
X134407516Y-97737015D01*
X134407512Y-97737016D01*
X134281984Y-97809491D01*
X134281984Y-97809492D01*
X134179492Y-97911984D01*
X134179491Y-97911984D01*
X134107016Y-98037512D01*
X134107015Y-98037516D01*
X134069500Y-98177522D01*
X130300500Y-98177522D01*
X130300500Y-78750000D01*
X131680137Y-78750000D01*
X132600254Y-78750000D01*
X132508393Y-78788050D01*
X132438063Y-78858380D01*
X132400001Y-78950270D01*
X132400001Y-79049730D01*
X132438063Y-79141620D01*
X132508393Y-79211950D01*
X132600254Y-79250000D01*
X131680137Y-79250000D01*
X131688429Y-79291689D01*
X131688429Y-79291690D01*
X131763809Y-79473674D01*
X131873246Y-79637460D01*
X132012539Y-79776753D01*
X132176325Y-79886190D01*
X132358310Y-79961570D01*
X132551512Y-80000000D01*
X132750000Y-80000000D01*
X132750000Y-79250012D01*
X133250000Y-79250012D01*
X133250000Y-80000000D01*
X133448488Y-80000000D01*
X133641689Y-79961570D01*
X133641690Y-79961570D01*
X133781749Y-79903556D01*
X133819251Y-79903556D01*
X133845770Y-79930075D01*
X133849500Y-79948826D01*
X133849500Y-86691173D01*
X133835148Y-86725821D01*
X133800500Y-86740173D01*
X133781749Y-86736443D01*
X133641689Y-86678429D01*
X133448488Y-86640000D01*
X133250000Y-86640000D01*
X133250000Y-87389988D01*
X132750000Y-87389988D01*
X132750000Y-86640000D01*
X132551512Y-86640000D01*
X132358310Y-86678429D01*
X132358309Y-86678429D01*
X132176325Y-86753809D01*
X132012539Y-86863246D01*
X131873246Y-87002539D01*
X131763809Y-87166325D01*
X131688429Y-87348309D01*
X131688429Y-87348310D01*
X131680137Y-87390000D01*
X132600254Y-87390000D01*
X132508393Y-87428050D01*
X132438063Y-87498380D01*
X132400001Y-87590270D01*
X132400001Y-87689730D01*
X132438063Y-87781620D01*
X132508393Y-87851950D01*
X132600254Y-87890000D01*
X131680137Y-87890000D01*
X131688429Y-87931689D01*
X131688429Y-87931690D01*
X131763809Y-88113674D01*
X131873246Y-88277460D01*
X132012539Y-88416753D01*
X132176325Y-88526190D01*
X132358310Y-88601570D01*
X132551512Y-88640000D01*
X132750000Y-88640000D01*
X132750000Y-87890012D01*
X133250000Y-87890012D01*
X133250000Y-88640000D01*
X133448488Y-88640000D01*
X133641689Y-88601570D01*
X133641690Y-88601570D01*
X133781749Y-88543556D01*
X133819251Y-88543556D01*
X133845770Y-88570075D01*
X133849500Y-88588826D01*
X133849500Y-96405145D01*
X133855520Y-96427610D01*
X133866616Y-96469021D01*
X133868861Y-96477399D01*
X133873386Y-96494289D01*
X133919530Y-96574212D01*
X134036148Y-96690830D01*
X134050500Y-96725478D01*
X134050500Y-96832477D01*
X134088015Y-96972483D01*
X134088016Y-96972487D01*
X134141946Y-97065895D01*
X134160491Y-97098015D01*
X134262985Y-97200509D01*
X134282606Y-97211837D01*
X134388512Y-97272983D01*
X134388514Y-97272983D01*
X134388515Y-97272984D01*
X134423517Y-97282363D01*
X134528522Y-97310500D01*
X134528525Y-97310500D01*
X134673477Y-97310500D01*
X134743480Y-97291742D01*
X134813485Y-97272984D01*
X134939015Y-97200509D01*
X135041509Y-97098015D01*
X135113984Y-96972485D01*
X135142546Y-96865892D01*
X135151500Y-96832477D01*
X135151500Y-96687522D01*
X135123363Y-96582517D01*
X135113984Y-96547515D01*
X135113983Y-96547514D01*
X135113983Y-96547512D01*
X135068035Y-96467930D01*
X135041509Y-96421985D01*
X134939015Y-96319491D01*
X134917924Y-96307314D01*
X134813487Y-96247016D01*
X134813483Y-96247015D01*
X134673478Y-96209500D01*
X134673475Y-96209500D01*
X134599500Y-96209500D01*
X134564852Y-96195148D01*
X134550500Y-96160500D01*
X134550500Y-81634104D01*
X143449500Y-81634104D01*
X143449500Y-81765895D01*
X143483607Y-81893184D01*
X143483608Y-81893188D01*
X143541054Y-81992685D01*
X143549500Y-82007314D01*
X143642686Y-82100500D01*
X143653624Y-82106815D01*
X143756811Y-82166391D01*
X143756813Y-82166391D01*
X143756814Y-82166392D01*
X143857207Y-82193292D01*
X143884104Y-82200499D01*
X143884105Y-82200500D01*
X143884108Y-82200500D01*
X144015895Y-82200500D01*
X144015895Y-82200499D01*
X144143186Y-82166392D01*
X144257314Y-82100500D01*
X144350500Y-82007314D01*
X144416392Y-81893186D01*
X144450499Y-81765895D01*
X144450500Y-81765895D01*
X144450500Y-81728558D01*
X144464852Y-81693910D01*
X144499500Y-81679558D01*
X144512182Y-81681228D01*
X144584104Y-81700499D01*
X144584105Y-81700500D01*
X144584108Y-81700500D01*
X144715895Y-81700500D01*
X144715895Y-81700499D01*
X144843186Y-81666392D01*
X144957314Y-81600500D01*
X145050500Y-81507314D01*
X145116392Y-81393186D01*
X145150499Y-81265895D01*
X145150500Y-81265895D01*
X145150500Y-81134105D01*
X145150499Y-81134104D01*
X145116392Y-81006815D01*
X145116391Y-81006811D01*
X145050499Y-80892685D01*
X144957314Y-80799500D01*
X144843188Y-80733608D01*
X144843184Y-80733607D01*
X144715895Y-80699500D01*
X144715892Y-80699500D01*
X144584108Y-80699500D01*
X144584105Y-80699500D01*
X144456815Y-80733607D01*
X144456811Y-80733608D01*
X144342685Y-80799500D01*
X144342685Y-80799501D01*
X144249501Y-80892685D01*
X144249500Y-80892685D01*
X144183608Y-81006811D01*
X144183607Y-81006815D01*
X144149500Y-81134104D01*
X144149500Y-81171441D01*
X144135148Y-81206089D01*
X144100500Y-81220441D01*
X144087818Y-81218771D01*
X144015895Y-81199500D01*
X144015892Y-81199500D01*
X143884108Y-81199500D01*
X143884105Y-81199500D01*
X143756815Y-81233607D01*
X143756811Y-81233608D01*
X143642685Y-81299500D01*
X143642685Y-81299501D01*
X143549501Y-81392685D01*
X143549500Y-81392685D01*
X143483608Y-81506811D01*
X143483607Y-81506815D01*
X143449500Y-81634104D01*
X134550500Y-81634104D01*
X134550500Y-80134104D01*
X144699500Y-80134104D01*
X144699500Y-80265895D01*
X144733607Y-80393184D01*
X144733608Y-80393188D01*
X144799500Y-80507314D01*
X144892686Y-80600500D01*
X144934457Y-80624617D01*
X145006811Y-80666391D01*
X145006813Y-80666391D01*
X145006814Y-80666392D01*
X145107207Y-80693292D01*
X145134104Y-80700499D01*
X145134105Y-80700500D01*
X145134108Y-80700500D01*
X145265895Y-80700500D01*
X145265895Y-80700499D01*
X145393186Y-80666392D01*
X145507314Y-80600500D01*
X145600500Y-80507314D01*
X145666392Y-80393186D01*
X145700499Y-80265895D01*
X145700500Y-80265895D01*
X145700500Y-80134105D01*
X145700499Y-80134104D01*
X145666392Y-80006815D01*
X145666391Y-80006811D01*
X145600499Y-79892685D01*
X145507314Y-79799500D01*
X145393188Y-79733608D01*
X145393184Y-79733607D01*
X145265895Y-79699500D01*
X145265892Y-79699500D01*
X145134108Y-79699500D01*
X145134105Y-79699500D01*
X145006815Y-79733607D01*
X145006811Y-79733608D01*
X144892685Y-79799500D01*
X144892685Y-79799501D01*
X144799501Y-79892685D01*
X144799500Y-79892685D01*
X144733608Y-80006811D01*
X144733607Y-80006815D01*
X144699500Y-80134104D01*
X134550500Y-80134104D01*
X134550500Y-80065476D01*
X134564851Y-80030829D01*
X135401350Y-79194330D01*
X135435995Y-79179980D01*
X135470643Y-79194332D01*
X135484053Y-79219420D01*
X135498427Y-79291681D01*
X135498429Y-79291690D01*
X135573809Y-79473674D01*
X135683246Y-79637460D01*
X135822539Y-79776753D01*
X135986325Y-79886190D01*
X136168310Y-79961570D01*
X136361512Y-80000000D01*
X136560000Y-80000000D01*
X136560000Y-79250012D01*
X137060000Y-79250012D01*
X137060000Y-80000000D01*
X137258488Y-80000000D01*
X137451689Y-79961570D01*
X137451690Y-79961570D01*
X137633674Y-79886190D01*
X137797460Y-79776753D01*
X137936753Y-79637460D01*
X138046190Y-79473674D01*
X138121570Y-79291690D01*
X138121570Y-79291689D01*
X138129863Y-79250000D01*
X137209746Y-79250000D01*
X137301607Y-79211950D01*
X137371937Y-79141620D01*
X137409999Y-79049730D01*
X137409999Y-78950270D01*
X137371937Y-78858380D01*
X137301607Y-78788050D01*
X137209746Y-78750000D01*
X138129862Y-78750000D01*
X138121570Y-78708310D01*
X138121570Y-78708309D01*
X138046188Y-78526321D01*
X138045054Y-78524198D01*
X138045867Y-78523763D01*
X138039141Y-78489939D01*
X138059978Y-78458757D01*
X138087199Y-78450500D01*
X146551680Y-78450500D01*
X146586328Y-78464852D01*
X146661985Y-78540509D01*
X146707930Y-78567035D01*
X146787512Y-78612983D01*
X146787514Y-78612983D01*
X146787515Y-78612984D01*
X146822517Y-78622363D01*
X146927522Y-78650500D01*
X146927525Y-78650500D01*
X147072477Y-78650500D01*
X147142480Y-78631742D01*
X147212485Y-78612984D01*
X147338015Y-78540509D01*
X147440509Y-78438015D01*
X147512984Y-78312485D01*
X147536896Y-78223246D01*
X147550500Y-78172477D01*
X147550500Y-78027522D01*
X147512984Y-77887516D01*
X147512983Y-77887512D01*
X147447091Y-77773386D01*
X147440509Y-77761985D01*
X147338015Y-77659491D01*
X147212487Y-77587016D01*
X147212483Y-77587015D01*
X147072478Y-77549500D01*
X147072475Y-77549500D01*
X146927525Y-77549500D01*
X146927522Y-77549500D01*
X146787516Y-77587015D01*
X146787512Y-77587016D01*
X146661984Y-77659491D01*
X146661984Y-77659492D01*
X146586328Y-77735148D01*
X146551680Y-77749500D01*
X135953853Y-77749500D01*
X135864713Y-77773385D01*
X135864710Y-77773386D01*
X135784794Y-77819527D01*
X135784784Y-77819534D01*
X134368669Y-79235648D01*
X134334021Y-79250000D01*
X133399746Y-79250000D01*
X133491607Y-79211950D01*
X133561937Y-79141620D01*
X133599999Y-79049730D01*
X133599999Y-78950270D01*
X133561937Y-78858380D01*
X133491607Y-78788050D01*
X133399746Y-78750000D01*
X134319862Y-78750000D01*
X134311570Y-78708310D01*
X134311570Y-78708309D01*
X134236190Y-78526325D01*
X134126753Y-78362539D01*
X133987460Y-78223246D01*
X133823674Y-78113809D01*
X133641689Y-78038429D01*
X133448488Y-78000000D01*
X133250000Y-78000000D01*
X133250000Y-78749988D01*
X132750000Y-78749988D01*
X132750000Y-78000000D01*
X132551512Y-78000000D01*
X132358310Y-78038429D01*
X132358309Y-78038429D01*
X132176325Y-78113809D01*
X132012539Y-78223246D01*
X131873246Y-78362539D01*
X131763809Y-78526325D01*
X131688429Y-78708309D01*
X131688429Y-78708310D01*
X131680137Y-78750000D01*
X130300500Y-78750000D01*
X130300500Y-74155558D01*
X135450000Y-74155558D01*
X135450000Y-74344441D01*
X135479547Y-74530998D01*
X135479548Y-74531001D01*
X135537915Y-74710638D01*
X135623669Y-74878939D01*
X135623671Y-74878943D01*
X135642115Y-74904328D01*
X135642116Y-74904328D01*
X136228279Y-74318165D01*
X136253970Y-74414041D01*
X136309921Y-74510952D01*
X136389048Y-74590079D01*
X136485959Y-74646030D01*
X136581833Y-74671719D01*
X135995669Y-75257883D01*
X136021063Y-75276331D01*
X136189361Y-75362084D01*
X136368998Y-75420451D01*
X136369001Y-75420452D01*
X136555559Y-75450000D01*
X136744441Y-75450000D01*
X136930998Y-75420452D01*
X136931001Y-75420451D01*
X137110638Y-75362084D01*
X137278933Y-75276333D01*
X137304328Y-75257882D01*
X136718165Y-74671719D01*
X136814041Y-74646030D01*
X136910952Y-74590079D01*
X136990079Y-74510952D01*
X137046030Y-74414041D01*
X137071719Y-74318165D01*
X137657882Y-74904328D01*
X137676333Y-74878933D01*
X137762084Y-74710638D01*
X137820451Y-74531001D01*
X137820452Y-74530998D01*
X137850000Y-74344441D01*
X137850000Y-74284104D01*
X165274500Y-74284104D01*
X165274500Y-74415895D01*
X165308607Y-74543184D01*
X165308608Y-74543188D01*
X165367985Y-74646030D01*
X165374500Y-74657314D01*
X165467686Y-74750500D01*
X165509457Y-74774617D01*
X165581811Y-74816391D01*
X165581813Y-74816391D01*
X165581814Y-74816392D01*
X165682207Y-74843292D01*
X165709104Y-74850499D01*
X165709105Y-74850500D01*
X165709108Y-74850500D01*
X165840895Y-74850500D01*
X165840895Y-74850499D01*
X165968186Y-74816392D01*
X166082314Y-74750500D01*
X166167962Y-74664852D01*
X166202610Y-74650500D01*
X173172390Y-74650500D01*
X173207038Y-74664852D01*
X173292686Y-74750500D01*
X173334457Y-74774617D01*
X173406811Y-74816391D01*
X173406813Y-74816391D01*
X173406814Y-74816392D01*
X173507207Y-74843292D01*
X173534104Y-74850499D01*
X173534105Y-74850500D01*
X173534108Y-74850500D01*
X173665895Y-74850500D01*
X173665895Y-74850499D01*
X173793186Y-74816392D01*
X173907314Y-74750500D01*
X174000500Y-74657314D01*
X174066392Y-74543186D01*
X174100499Y-74415895D01*
X174100500Y-74415895D01*
X174100500Y-74284105D01*
X174100499Y-74284104D01*
X174066392Y-74156815D01*
X174066391Y-74156811D01*
X174000499Y-74042685D01*
X173907314Y-73949500D01*
X173793188Y-73883608D01*
X173793184Y-73883607D01*
X173665895Y-73849500D01*
X173665892Y-73849500D01*
X173534108Y-73849500D01*
X173534105Y-73849500D01*
X173406815Y-73883607D01*
X173406811Y-73883608D01*
X173292685Y-73949500D01*
X173292685Y-73949501D01*
X173207038Y-74035148D01*
X173172390Y-74049500D01*
X166202610Y-74049500D01*
X166167962Y-74035148D01*
X166082314Y-73949500D01*
X165968188Y-73883608D01*
X165968184Y-73883607D01*
X165840895Y-73849500D01*
X165840892Y-73849500D01*
X165709108Y-73849500D01*
X165709105Y-73849500D01*
X165581815Y-73883607D01*
X165581811Y-73883608D01*
X165467685Y-73949500D01*
X165467685Y-73949501D01*
X165374501Y-74042685D01*
X165374500Y-74042685D01*
X165308608Y-74156811D01*
X165308607Y-74156815D01*
X165274500Y-74284104D01*
X137850000Y-74284104D01*
X137850000Y-74155558D01*
X137820452Y-73969001D01*
X137820451Y-73968998D01*
X137762084Y-73789361D01*
X137676331Y-73621063D01*
X137657883Y-73595669D01*
X137071719Y-74181833D01*
X137046030Y-74085959D01*
X136990079Y-73989048D01*
X136910952Y-73909921D01*
X136814041Y-73853970D01*
X136718165Y-73828280D01*
X137281594Y-73264852D01*
X137316242Y-73250500D01*
X137374674Y-73250500D01*
X137447740Y-73235966D01*
X137530601Y-73180601D01*
X137585966Y-73097740D01*
X137600500Y-73024674D01*
X137600500Y-71475326D01*
X137585966Y-71402260D01*
X137530601Y-71319398D01*
X137447739Y-71264033D01*
X137374677Y-71249500D01*
X137374674Y-71249500D01*
X135925326Y-71249500D01*
X135925322Y-71249500D01*
X135852260Y-71264033D01*
X135769398Y-71319398D01*
X135714033Y-71402260D01*
X135699500Y-71475322D01*
X135699500Y-73024677D01*
X135714033Y-73097739D01*
X135769398Y-73180601D01*
X135806650Y-73205491D01*
X135852260Y-73235966D01*
X135925326Y-73250500D01*
X135983758Y-73250500D01*
X136018406Y-73264852D01*
X136581834Y-73828280D01*
X136485959Y-73853970D01*
X136389048Y-73909921D01*
X136309921Y-73989048D01*
X136253970Y-74085959D01*
X136228280Y-74181833D01*
X135642117Y-73595670D01*
X135623666Y-73621066D01*
X135537915Y-73789361D01*
X135479548Y-73968998D01*
X135479547Y-73969001D01*
X135450000Y-74155558D01*
X130300500Y-74155558D01*
X130300500Y-66401078D01*
X144649500Y-66401078D01*
X144649500Y-66548921D01*
X144678340Y-66693906D01*
X144678342Y-66693915D01*
X144734914Y-66830491D01*
X144734916Y-66830495D01*
X144817049Y-66953416D01*
X144921584Y-67057951D01*
X145044505Y-67140084D01*
X145112796Y-67168371D01*
X145181084Y-67196657D01*
X145181085Y-67196657D01*
X145181087Y-67196658D01*
X145326082Y-67225500D01*
X159843836Y-67225500D01*
X159878484Y-67239852D01*
X165967048Y-73328415D01*
X165967049Y-73328416D01*
X166071584Y-73432951D01*
X166194505Y-73515084D01*
X166262796Y-73543371D01*
X166331084Y-73571657D01*
X166331085Y-73571657D01*
X166331087Y-73571658D01*
X166476082Y-73600500D01*
X173873918Y-73600500D01*
X174018913Y-73571658D01*
X174155495Y-73515084D01*
X174278416Y-73432951D01*
X174382951Y-73328416D01*
X174465084Y-73205495D01*
X174521658Y-73068913D01*
X174550500Y-72923918D01*
X174550500Y-72776082D01*
X174521658Y-72631087D01*
X174465084Y-72494505D01*
X174382951Y-72371584D01*
X174278416Y-72267049D01*
X174155495Y-72184916D01*
X174155492Y-72184914D01*
X174155491Y-72184914D01*
X174018915Y-72128342D01*
X174018906Y-72128340D01*
X173873921Y-72099500D01*
X173873918Y-72099500D01*
X166881163Y-72099500D01*
X166846515Y-72085148D01*
X160653416Y-65892048D01*
X160545555Y-65819979D01*
X160530492Y-65809914D01*
X160393915Y-65753342D01*
X160393906Y-65753340D01*
X160248921Y-65724500D01*
X160248918Y-65724500D01*
X145326082Y-65724500D01*
X145326078Y-65724500D01*
X145181093Y-65753340D01*
X145181084Y-65753342D01*
X145044508Y-65809914D01*
X144921584Y-65892048D01*
X144817048Y-65996584D01*
X144734914Y-66119508D01*
X144678342Y-66256084D01*
X144678340Y-66256093D01*
X144649500Y-66401078D01*
X130300500Y-66401078D01*
X130300500Y-64904104D01*
X173789500Y-64904104D01*
X173789500Y-65035895D01*
X173823607Y-65163184D01*
X173823608Y-65163188D01*
X173889500Y-65277314D01*
X173982686Y-65370500D01*
X174024457Y-65394617D01*
X174096811Y-65436391D01*
X174096813Y-65436391D01*
X174096814Y-65436392D01*
X174197207Y-65463292D01*
X174224104Y-65470499D01*
X174224105Y-65470500D01*
X174345233Y-65470500D01*
X174379881Y-65484852D01*
X175105148Y-66210119D01*
X175119500Y-66244767D01*
X175119500Y-81422390D01*
X175105148Y-81457038D01*
X175019501Y-81542685D01*
X175019500Y-81542685D01*
X174953608Y-81656811D01*
X174953607Y-81656815D01*
X174919500Y-81784104D01*
X174919500Y-81915895D01*
X174953607Y-82043184D01*
X174953608Y-82043188D01*
X174990344Y-82106815D01*
X175019500Y-82157314D01*
X175112686Y-82250500D01*
X175154457Y-82274617D01*
X175226811Y-82316391D01*
X175226813Y-82316391D01*
X175226814Y-82316392D01*
X175327207Y-82343292D01*
X175354104Y-82350499D01*
X175354105Y-82350500D01*
X175354108Y-82350500D01*
X175485895Y-82350500D01*
X175485895Y-82350499D01*
X175613186Y-82316392D01*
X175727314Y-82250500D01*
X175820500Y-82157314D01*
X175886392Y-82043186D01*
X175920499Y-81915895D01*
X175920500Y-81915895D01*
X175920500Y-81784105D01*
X175920499Y-81784104D01*
X175913292Y-81757207D01*
X175886392Y-81656814D01*
X175886391Y-81656813D01*
X175886391Y-81656811D01*
X175820499Y-81542685D01*
X175734852Y-81457038D01*
X175720500Y-81422390D01*
X175720500Y-66060436D01*
X175711843Y-66028134D01*
X175700021Y-65984011D01*
X175700020Y-65984009D01*
X175700020Y-65984008D01*
X175660459Y-65915488D01*
X174804852Y-65059881D01*
X174790500Y-65025233D01*
X174790500Y-64904105D01*
X174790499Y-64904104D01*
X174756392Y-64776815D01*
X174756391Y-64776811D01*
X174690499Y-64662685D01*
X174597314Y-64569500D01*
X174483188Y-64503608D01*
X174483184Y-64503607D01*
X174355895Y-64469500D01*
X174355892Y-64469500D01*
X174224108Y-64469500D01*
X174224105Y-64469500D01*
X174096815Y-64503607D01*
X174096811Y-64503608D01*
X173982685Y-64569500D01*
X173982685Y-64569501D01*
X173889501Y-64662685D01*
X173889500Y-64662685D01*
X173823608Y-64776811D01*
X173823607Y-64776815D01*
X173789500Y-64904104D01*
X130300500Y-64904104D01*
X130300500Y-62834104D01*
X141999500Y-62834104D01*
X141999500Y-62965895D01*
X142033607Y-63093184D01*
X142033608Y-63093188D01*
X142099500Y-63207314D01*
X142192686Y-63300500D01*
X142234457Y-63324617D01*
X142306811Y-63366391D01*
X142306813Y-63366391D01*
X142306814Y-63366392D01*
X142407207Y-63393292D01*
X142434104Y-63400499D01*
X142434105Y-63400500D01*
X142434108Y-63400500D01*
X142565895Y-63400500D01*
X142565895Y-63400499D01*
X142693186Y-63366392D01*
X142807314Y-63300500D01*
X142900500Y-63207314D01*
X142966392Y-63093186D01*
X143000499Y-62965895D01*
X143000500Y-62965895D01*
X143000500Y-62834105D01*
X143000499Y-62834104D01*
X142966392Y-62706815D01*
X142966391Y-62706811D01*
X142900499Y-62592685D01*
X142807314Y-62499500D01*
X142693188Y-62433608D01*
X142693184Y-62433607D01*
X142565895Y-62399500D01*
X142565892Y-62399500D01*
X142434108Y-62399500D01*
X142434105Y-62399500D01*
X142306815Y-62433607D01*
X142306811Y-62433608D01*
X142192685Y-62499500D01*
X142192685Y-62499501D01*
X142099501Y-62592685D01*
X142099500Y-62592685D01*
X142033608Y-62706811D01*
X142033607Y-62706815D01*
X141999500Y-62834104D01*
X130300500Y-62834104D01*
X130300500Y-62501487D01*
X130300589Y-62498529D01*
X130316358Y-62237831D01*
X130316359Y-62237830D01*
X130316358Y-62237822D01*
X130317070Y-62231967D01*
X130363879Y-61976534D01*
X130365291Y-61970804D01*
X130442552Y-61722869D01*
X130444645Y-61717351D01*
X130551228Y-61480531D01*
X130553963Y-61475318D01*
X130688318Y-61253070D01*
X130691670Y-61248214D01*
X130851831Y-61043784D01*
X130855739Y-61039373D01*
X131039373Y-60855739D01*
X131043784Y-60851831D01*
X131248214Y-60691670D01*
X131253070Y-60688318D01*
X131475318Y-60553963D01*
X131480531Y-60551228D01*
X131717351Y-60444645D01*
X131722869Y-60442552D01*
X131970804Y-60365291D01*
X131976534Y-60363879D01*
X132231967Y-60317070D01*
X132237822Y-60316358D01*
X132462154Y-60302789D01*
X132498530Y-60300589D01*
X132501488Y-60300500D01*
X132547595Y-60300500D01*
X177452405Y-60300500D01*
X177498512Y-60300500D01*
X177501470Y-60300589D01*
G37*
%TD.AperFunction*%
%TD*%
%TA.AperFunction,Conductor*%
%TO.N,PGND*%
G36*
X143580419Y-86711624D02*
G01*
X143660511Y-86732776D01*
X143682271Y-86745132D01*
X143714509Y-86776682D01*
X143736769Y-86798466D01*
X143749592Y-86819955D01*
X143772466Y-86899569D01*
X143774360Y-86912043D01*
X143785000Y-87405000D01*
X143800000Y-88100000D01*
X147895177Y-88100000D01*
X147904736Y-88100942D01*
X147966975Y-88113322D01*
X147984640Y-88120638D01*
X148033319Y-88153165D01*
X148046834Y-88166680D01*
X148063098Y-88191021D01*
X148079361Y-88215360D01*
X148086677Y-88233023D01*
X148099058Y-88295263D01*
X148100000Y-88304823D01*
X148100000Y-91695176D01*
X148099058Y-91704736D01*
X148086677Y-91766976D01*
X148079361Y-91784638D01*
X148050574Y-91827722D01*
X148019392Y-91848558D01*
X148009832Y-91849500D01*
X145783853Y-91849500D01*
X145694713Y-91873385D01*
X145694709Y-91873386D01*
X145659986Y-91893435D01*
X145635486Y-91900000D01*
X143800000Y-91900000D01*
X143796740Y-92096686D01*
X143773365Y-93506930D01*
X143771523Y-93519452D01*
X143748910Y-93599413D01*
X143736119Y-93621013D01*
X143681586Y-93674650D01*
X143659777Y-93687081D01*
X143579457Y-93708365D01*
X143566906Y-93710000D01*
X142200000Y-93710000D01*
X142200000Y-99100000D01*
X142712676Y-99100000D01*
X142747324Y-99114352D01*
X142761676Y-99149000D01*
X142761676Y-100251000D01*
X142747324Y-100285648D01*
X142712676Y-100300000D01*
X140708767Y-100300000D01*
X140699092Y-100299035D01*
X140636133Y-100286354D01*
X140618294Y-100278865D01*
X140569272Y-100245595D01*
X140555725Y-100231784D01*
X140523406Y-100182134D01*
X140516261Y-100164155D01*
X140504791Y-100100956D01*
X140504013Y-100091281D01*
X140519963Y-99261923D01*
X140520000Y-99260000D01*
X140520000Y-98064823D01*
X140520939Y-98055274D01*
X140533323Y-97993018D01*
X140540638Y-97975360D01*
X140573167Y-97926677D01*
X140586677Y-97913167D01*
X140635361Y-97880637D01*
X140653018Y-97873323D01*
X140715274Y-97860939D01*
X140724823Y-97860000D01*
X141270000Y-97860000D01*
X141270000Y-95910000D01*
X141126449Y-95910000D01*
X141113767Y-95908330D01*
X141057682Y-95893302D01*
X141035716Y-95880620D01*
X140999379Y-95844283D01*
X140986698Y-95822320D01*
X140971668Y-95766226D01*
X140970000Y-95753550D01*
X140970000Y-86914823D01*
X140970939Y-86905274D01*
X140983323Y-86843018D01*
X140990638Y-86825360D01*
X141023167Y-86776677D01*
X141036677Y-86763167D01*
X141085361Y-86730637D01*
X141103018Y-86723323D01*
X141165274Y-86710939D01*
X141174823Y-86710000D01*
X143567907Y-86710000D01*
X143580419Y-86711624D01*
G37*
%TD.AperFunction*%
%TD*%
M02*
