%TF.GenerationSoftware,KiCad,Pcbnew,9.0.7*%
%TF.CreationDate,2026-02-24T14:36:30-08:00*%
%TF.ProjectId,servo-dev-board-ch32v006,73657276-6f2d-4646-9576-2d626f617264,rev?*%
%TF.SameCoordinates,Original*%
%TF.FileFunction,Soldermask,Bot*%
%TF.FilePolarity,Negative*%
%FSLAX46Y46*%
G04 Gerber Fmt 4.6, Leading zero omitted, Abs format (unit mm)*
G04 Created by KiCad (PCBNEW 9.0.7) date 2026-02-24 14:36:30*
%MOMM*%
%LPD*%
G01*
G04 APERTURE LIST*
%ADD10R,1.700000X1.700000*%
%ADD11C,1.700000*%
%ADD12C,3.500000*%
%ADD13R,1.400000X1.500000*%
%ADD14C,1.400000*%
%ADD15C,1.600000*%
%ADD16O,1.700000X1.000000*%
%ADD17C,2.000000*%
%ADD18R,1.200000X1.200000*%
%ADD19C,1.200000*%
G04 APERTURE END LIST*
D10*
%TO.C,J5*%
X142500000Y-83710000D03*
D11*
X142500000Y-86250000D03*
X142500000Y-88790000D03*
X142500000Y-91330000D03*
X142500000Y-93870000D03*
%TD*%
D10*
%TO.C,J7*%
X179000000Y-63500000D03*
D11*
X179000000Y-66040000D03*
X179000000Y-68580000D03*
%TD*%
D10*
%TO.C,J3*%
X185460000Y-95750000D03*
D11*
X188000000Y-95750000D03*
X185460000Y-98290000D03*
X188000000Y-98290000D03*
X185460000Y-100830000D03*
X188000000Y-100830000D03*
%TD*%
D12*
%TO.C,H1*%
X132750000Y-57750000D03*
%TD*%
D10*
%TO.C,J8*%
X182847500Y-63500000D03*
D11*
X182847500Y-66040000D03*
X182847500Y-68580000D03*
%TD*%
D12*
%TO.C,H2*%
X187250000Y-57750000D03*
%TD*%
D13*
%TO.C,J1*%
X137800000Y-81250000D03*
D14*
X137800000Y-83250000D03*
%TD*%
D15*
%TO.C,J9*%
X188000000Y-64000000D03*
X188000000Y-66000000D03*
X188000000Y-68000000D03*
%TD*%
D16*
%TO.C,USB1*%
X138005000Y-99430000D03*
X134195000Y-99430000D03*
X138005000Y-108070000D03*
X134195000Y-108070000D03*
%TD*%
D17*
%TO.C,J2*%
X137400000Y-68830000D03*
X137400000Y-63750000D03*
%TD*%
D18*
%TO.C,J4*%
X136400000Y-87150000D03*
D19*
X136400000Y-88650000D03*
X136400000Y-90150000D03*
X136400000Y-91650000D03*
X136400000Y-93150000D03*
%TD*%
D12*
%TO.C,H4*%
X132750000Y-112250000D03*
%TD*%
%TO.C,H3*%
X187250000Y-112250000D03*
%TD*%
D10*
%TO.C,J6*%
X185460000Y-89250000D03*
D11*
X188000000Y-89250000D03*
X185460000Y-91790000D03*
X188000000Y-91790000D03*
%TD*%
M02*
