%TF.GenerationSoftware,KiCad,Pcbnew,9.0.7*%
%TF.CreationDate,2026-02-24T19:12:38-08:00*%
%TF.ProjectId,servo-dev-board-ch32v006,73657276-6f2d-4646-9576-2d626f617264,rev?*%
%TF.SameCoordinates,Original*%
%TF.FileFunction,Copper,L4,Bot*%
%TF.FilePolarity,Positive*%
%FSLAX46Y46*%
G04 Gerber Fmt 4.6, Leading zero omitted, Abs format (unit mm)*
G04 Created by KiCad (PCBNEW 9.0.7) date 2026-02-24 19:12:38*
%MOMM*%
%LPD*%
G01*
G04 APERTURE LIST*
%TA.AperFunction,ComponentPad*%
%ADD10R,1.700000X1.700000*%
%TD*%
%TA.AperFunction,ComponentPad*%
%ADD11C,1.700000*%
%TD*%
%TA.AperFunction,ComponentPad*%
%ADD12C,3.500000*%
%TD*%
%TA.AperFunction,ComponentPad*%
%ADD13R,1.400000X1.500000*%
%TD*%
%TA.AperFunction,ComponentPad*%
%ADD14C,1.400000*%
%TD*%
%TA.AperFunction,ComponentPad*%
%ADD15C,1.600000*%
%TD*%
%TA.AperFunction,ComponentPad*%
%ADD16O,1.700000X1.000000*%
%TD*%
%TA.AperFunction,ComponentPad*%
%ADD17C,2.000000*%
%TD*%
%TA.AperFunction,ComponentPad*%
%ADD18R,1.200000X1.200000*%
%TD*%
%TA.AperFunction,ComponentPad*%
%ADD19C,1.200000*%
%TD*%
%TA.AperFunction,ViaPad*%
%ADD20C,0.600000*%
%TD*%
%TA.AperFunction,ViaPad*%
%ADD21C,1.000000*%
%TD*%
%TA.AperFunction,Conductor*%
%ADD22C,0.200000*%
%TD*%
%TA.AperFunction,Conductor*%
%ADD23C,1.000000*%
%TD*%
G04 APERTURE END LIST*
D10*
%TO.P,J5,1,Pin_1*%
%TO.N,GND*%
X142500000Y-83710000D03*
D11*
%TO.P,J5,2,Pin_2*%
%TO.N,/SERVO_IO/POT*%
X142500000Y-86250000D03*
%TO.P,J5,3,Pin_3*%
%TO.N,+3V3*%
X142500000Y-88790000D03*
%TO.P,J5,4,Pin_4*%
%TO.N,/MOT_A*%
X142500000Y-91330000D03*
%TO.P,J5,5,Pin_5*%
%TO.N,/MOT_B*%
X142500000Y-93870000D03*
%TD*%
D10*
%TO.P,J7,1,Pin_1*%
%TO.N,GND*%
X179000000Y-63500000D03*
D11*
%TO.P,J7,2,Pin_2*%
%TO.N,VSYS*%
X179000000Y-66040000D03*
%TO.P,J7,3,Pin_3*%
%TO.N,/DATA*%
X179000000Y-68580000D03*
%TD*%
D10*
%TO.P,J3,1,Pin_1*%
%TO.N,+3V3*%
X185460000Y-95750000D03*
D11*
%TO.P,J3,2,Pin_2*%
%TO.N,GND*%
X188000000Y-95750000D03*
%TO.P,J3,3,Pin_3*%
%TO.N,/MCU/SWDIO*%
X185460000Y-98290000D03*
%TO.P,J3,4,Pin_4*%
%TO.N,/MCU/nRST*%
X188000000Y-98290000D03*
%TO.P,J3,5,Pin_5*%
%TO.N,/RX*%
X185460000Y-100830000D03*
%TO.P,J3,6,Pin_6*%
%TO.N,/TX*%
X188000000Y-100830000D03*
%TD*%
D12*
%TO.P,H1,1,1*%
%TO.N,GND*%
X132750000Y-57750000D03*
%TD*%
D10*
%TO.P,J8,1,Pin_1*%
%TO.N,GND*%
X182847500Y-63500000D03*
D11*
%TO.P,J8,2,Pin_2*%
%TO.N,VSYS*%
X182847500Y-66040000D03*
%TO.P,J8,3,Pin_3*%
%TO.N,/DATA*%
X182847500Y-68580000D03*
%TD*%
D12*
%TO.P,H2,1,1*%
%TO.N,GND*%
X187250000Y-57750000D03*
%TD*%
D13*
%TO.P,J1,1,Pin_1*%
%TO.N,VBAT*%
X137800000Y-81250000D03*
D14*
%TO.P,J1,2,Pin_2*%
%TO.N,GND*%
X137800000Y-83250000D03*
%TD*%
D15*
%TO.P,J9,1,Pin_1*%
%TO.N,GND*%
X188000000Y-64000000D03*
%TO.P,J9,2,Pin_2*%
%TO.N,VSYS*%
X188000000Y-66000000D03*
%TO.P,J9,3,Pin_3*%
%TO.N,/DATA*%
X188000000Y-68000000D03*
%TD*%
D16*
%TO.P,USB1,7,EH*%
%TO.N,GND*%
X138005000Y-99430000D03*
X134195000Y-99430000D03*
X138005000Y-108070000D03*
X134195000Y-108070000D03*
%TD*%
D17*
%TO.P,J2,1,Pin_1*%
%TO.N,VEXT*%
X137400000Y-68830000D03*
%TO.P,J2,2,Pin_2*%
%TO.N,GND*%
X137400000Y-63750000D03*
%TD*%
D18*
%TO.P,J4,1,Pin_1*%
%TO.N,GND*%
X136400000Y-87150000D03*
D19*
%TO.P,J4,2,Pin_2*%
%TO.N,/SERVO_IO/POT*%
X136400000Y-88650000D03*
%TO.P,J4,3,Pin_3*%
%TO.N,+3V3*%
X136400000Y-90150000D03*
%TO.P,J4,4,Pin_4*%
%TO.N,/MOT_A*%
X136400000Y-91650000D03*
%TO.P,J4,5,Pin_5*%
%TO.N,/MOT_B*%
X136400000Y-93150000D03*
%TD*%
D12*
%TO.P,H4,1,1*%
%TO.N,GND*%
X132750000Y-112250000D03*
%TD*%
%TO.P,H3,1,1*%
%TO.N,GND*%
X187250000Y-112250000D03*
%TD*%
D10*
%TO.P,J6,1,Pin_1*%
%TO.N,+3V3*%
X185460000Y-89250000D03*
D11*
%TO.P,J6,2,Pin_2*%
%TO.N,GND*%
X188000000Y-89250000D03*
%TO.P,J6,3,Pin_3*%
%TO.N,/ENCA*%
X185460000Y-91790000D03*
%TO.P,J6,4,Pin_4*%
%TO.N,/ENCB*%
X188000000Y-91790000D03*
%TD*%
D20*
%TO.N,PGND*%
X149030000Y-93460000D03*
X149603738Y-93113388D03*
X149027000Y-92836522D03*
X149573004Y-91779366D03*
X149013398Y-92171354D03*
%TO.N,GND*%
X157500000Y-56300000D03*
X146805556Y-113500000D03*
X162500000Y-56300000D03*
X143850000Y-101250000D03*
X182500000Y-56300000D03*
X156300000Y-78100000D03*
X154750000Y-84750000D03*
D21*
X141050000Y-107575000D03*
D20*
X188500000Y-82888889D03*
X151950000Y-78900000D03*
X151750000Y-100150000D03*
X176972222Y-113500000D03*
X161888889Y-113500000D03*
X151833333Y-113500000D03*
X154900000Y-101950000D03*
X172500000Y-56300000D03*
X165500000Y-65100000D03*
X152500000Y-56300000D03*
X152850000Y-107450000D03*
X171944444Y-113500000D03*
X156861111Y-113500000D03*
X131500000Y-62000000D03*
X131500000Y-67222222D03*
X178600000Y-95500000D03*
X131500000Y-82888889D03*
X142500000Y-56300000D03*
X177500000Y-56300000D03*
X152450000Y-100150000D03*
X147500000Y-56300000D03*
X154700000Y-87950000D03*
X181250000Y-83350000D03*
X131500000Y-103777778D03*
X131500000Y-93333333D03*
X137500000Y-56300000D03*
X152450000Y-99500000D03*
X151900000Y-70850000D03*
X143850000Y-99250000D03*
X188500000Y-109000000D03*
X131500000Y-79000000D03*
X181200000Y-78850000D03*
X168950000Y-102500000D03*
X188500000Y-103777778D03*
X165500000Y-67350000D03*
X188500000Y-72444444D03*
X141777778Y-113500000D03*
X186150000Y-82100000D03*
X145600000Y-67200000D03*
X167500000Y-56300000D03*
X188500000Y-62000000D03*
X153800000Y-105550000D03*
X146950000Y-96050000D03*
X141050000Y-96050000D03*
X182000000Y-113500000D03*
X131500000Y-72000000D03*
X160300000Y-93300000D03*
X151850000Y-74900000D03*
X188500000Y-77666667D03*
X168950000Y-100250000D03*
X159500000Y-77100000D03*
X161250000Y-73050000D03*
X169200000Y-97950000D03*
X165500000Y-62850000D03*
X166916667Y-113500000D03*
X151750000Y-99500000D03*
X131500000Y-109000000D03*
X131500000Y-88111111D03*
X131500000Y-98555556D03*
X136750000Y-113500000D03*
X137850000Y-90100000D03*
D21*
%TO.N,VSYS*%
X141037500Y-105500000D03*
X133000000Y-63000000D03*
X144800000Y-80150000D03*
X132750000Y-105500000D03*
X134500000Y-63000000D03*
X147050000Y-80150000D03*
X146250000Y-78600000D03*
X147000000Y-81750000D03*
X134500000Y-64500000D03*
X144750000Y-81750000D03*
X133750000Y-81050000D03*
X133700000Y-82650000D03*
X133750000Y-79500000D03*
D20*
X159250000Y-72950000D03*
D21*
X133000000Y-64500000D03*
X144800000Y-78600000D03*
D20*
%TO.N,/VPOS*%
X157700000Y-75400000D03*
X162000000Y-109750000D03*
D21*
%TO.N,PGND*%
X151000000Y-85250000D03*
D20*
X149500000Y-96400000D03*
D21*
X150400000Y-86850000D03*
D20*
X149500000Y-95700000D03*
X148800000Y-96400000D03*
D21*
X149450000Y-83700000D03*
X149250000Y-86850000D03*
D20*
X148800000Y-95700000D03*
%TO.N,VBAT*%
X139650000Y-75100000D03*
X156550000Y-68000000D03*
%TO.N,/TX*%
X167500000Y-60350000D03*
X171025000Y-88475000D03*
%TO.N,/EN*%
X161950000Y-90450000D03*
X147503219Y-60350000D03*
X173162500Y-94275000D03*
%TO.N,/VNTC*%
X181925000Y-84400000D03*
X167000000Y-109650000D03*
%TO.N,/VSNA*%
X156165000Y-80035000D03*
X152000000Y-109650000D03*
%TO.N,/VSNB*%
X157000000Y-70500000D03*
X157000000Y-109650000D03*
%TO.N,/DBG*%
X152500000Y-60350000D03*
X175500000Y-94500000D03*
%TO.N,/RX*%
X170766892Y-89766892D03*
X162500000Y-60350000D03*
%TO.N,/IN1*%
X153650000Y-93150000D03*
X174200000Y-95900000D03*
X142000000Y-109650000D03*
X163350000Y-92500000D03*
%TO.N,/IN2*%
X147000000Y-109650000D03*
X173400000Y-96325000D03*
X162400000Y-93250000D03*
X154575000Y-93925000D03*
%TO.N,/ENCB*%
X177000000Y-109650000D03*
%TO.N,/ENCA*%
X172000000Y-109650000D03*
%TO.N,+3V3*%
X154900000Y-104400000D03*
X153800000Y-103400000D03*
X186100000Y-80100000D03*
X173400000Y-65100000D03*
X171100000Y-81250000D03*
X165700000Y-103850000D03*
X171100000Y-83250000D03*
X154700000Y-85850000D03*
X142503219Y-60500000D03*
X179150000Y-83400000D03*
X146850000Y-63800000D03*
%TO.N,/MOT_B*%
X153400000Y-81450000D03*
X149550000Y-68900000D03*
%TO.N,/MCU/nRST*%
X167300000Y-94300000D03*
X175550000Y-97050000D03*
%TO.N,/TX_EN*%
X172625000Y-88975000D03*
X172500000Y-60350000D03*
%TO.N,PGND*%
X149578253Y-92485418D03*
%TD*%
D22*
%TO.N,VSYS*%
X159200000Y-68600000D02*
X150000000Y-59400000D01*
X159250000Y-72950000D02*
X159050000Y-72950000D01*
D23*
X179000000Y-66040000D02*
X182847500Y-66040000D01*
D22*
X159050000Y-72950000D02*
X159200000Y-72800000D01*
X159200000Y-72800000D02*
X159200000Y-68600000D01*
D23*
X188000000Y-66000000D02*
X182887500Y-66000000D01*
X182887500Y-66000000D02*
X182847500Y-66040000D01*
D22*
X150000000Y-59400000D02*
X150000000Y-59000000D01*
%TO.N,/VPOS*%
X157700000Y-75400000D02*
X157700000Y-105450000D01*
X157700000Y-105450000D02*
X162000000Y-109750000D01*
%TO.N,/DATA*%
X179000000Y-68580000D02*
X182847500Y-68580000D01*
X188000000Y-68000000D02*
X183427500Y-68000000D01*
X183427500Y-68000000D02*
X182847500Y-68580000D01*
%TO.N,VBAT*%
X139650000Y-75100000D02*
X147600000Y-67150000D01*
X147600000Y-67150000D02*
X155700000Y-67150000D01*
X155700000Y-67150000D02*
X156550000Y-68000000D01*
%TO.N,/TX*%
X167500000Y-84950000D02*
X167500000Y-60350000D01*
X171025000Y-88475000D02*
X167500000Y-84950000D01*
%TO.N,/EN*%
X169200000Y-90450000D02*
X173025000Y-94275000D01*
X161950000Y-90450000D02*
X169200000Y-90450000D01*
X149820654Y-60350000D02*
X147503219Y-60350000D01*
X158500000Y-69029346D02*
X149820654Y-60350000D01*
X173025000Y-94275000D02*
X173162500Y-94275000D01*
X161950000Y-90450000D02*
X158500000Y-87000000D01*
X158500000Y-87000000D02*
X158500000Y-69029346D01*
%TO.N,/VNTC*%
X181925000Y-84400000D02*
X183150000Y-84400000D01*
X169550000Y-109700000D02*
X167050000Y-109700000D01*
X167050000Y-109700000D02*
X167000000Y-109650000D01*
X180100000Y-106900000D02*
X172350000Y-106900000D01*
X172350000Y-106900000D02*
X169550000Y-109700000D01*
X183850000Y-85100000D02*
X183850000Y-103150000D01*
X183150000Y-84400000D02*
X183850000Y-85100000D01*
X183850000Y-103150000D02*
X180100000Y-106900000D01*
%TO.N,/VSNA*%
X156100000Y-80100000D02*
X156165000Y-80035000D01*
X152000000Y-109650000D02*
X156100000Y-105550000D01*
X156100000Y-105550000D02*
X156100000Y-80100000D01*
%TO.N,/VSNB*%
X157000000Y-70500000D02*
X157000000Y-109650000D01*
%TO.N,/DBG*%
X175100000Y-94100000D02*
X175500000Y-94500000D01*
X160250000Y-80150000D02*
X174200000Y-94100000D01*
X160250000Y-68100000D02*
X160250000Y-80150000D01*
X174200000Y-94100000D02*
X175100000Y-94100000D01*
X152500000Y-60350000D02*
X160250000Y-68100000D01*
%TO.N,/RX*%
X170766892Y-89766892D02*
X170766892Y-89666892D01*
X170766892Y-89666892D02*
X162500000Y-81400000D01*
X162500000Y-81400000D02*
X162500000Y-60350000D01*
%TO.N,/IN1*%
X163350000Y-92500000D02*
X170424943Y-92500000D01*
X153650000Y-93150000D02*
X153650000Y-100450000D01*
X170424943Y-92500000D02*
X173824943Y-95900000D01*
X153650000Y-100450000D02*
X144450000Y-109650000D01*
X144450000Y-109650000D02*
X142000000Y-109650000D01*
X173824943Y-95900000D02*
X174200000Y-95900000D01*
%TO.N,/IN2*%
X154575000Y-93925000D02*
X154575000Y-100575000D01*
X147000000Y-108150000D02*
X147000000Y-109650000D01*
X170325000Y-93250000D02*
X173400000Y-96325000D01*
X154575000Y-100575000D02*
X147000000Y-108150000D01*
X162400000Y-93250000D02*
X170325000Y-93250000D01*
%TO.N,/ENCB*%
X178500000Y-108150000D02*
X177000000Y-109650000D01*
X189550000Y-93340000D02*
X189550000Y-106150000D01*
X188000000Y-91790000D02*
X189550000Y-93340000D01*
X187550000Y-108150000D02*
X178500000Y-108150000D01*
X189550000Y-106150000D02*
X187550000Y-108150000D01*
%TO.N,/ENCA*%
X173900000Y-107750000D02*
X172000000Y-109650000D01*
X188300000Y-93450000D02*
X189250000Y-94400000D01*
X187120000Y-93450000D02*
X188300000Y-93450000D01*
X187050000Y-107750000D02*
X173900000Y-107750000D01*
X189250000Y-94400000D02*
X189250000Y-105550000D01*
X185460000Y-91790000D02*
X187120000Y-93450000D01*
X189250000Y-105550000D02*
X187050000Y-107750000D01*
%TO.N,/MOT_B*%
X153400000Y-81450000D02*
X153400000Y-81400000D01*
X153400000Y-81400000D02*
X149550000Y-77550000D01*
X149550000Y-77550000D02*
X149550000Y-68900000D01*
%TO.N,/MCU/nRST*%
X167300000Y-94300000D02*
X170050000Y-97050000D01*
X170050000Y-97050000D02*
X175550000Y-97050000D01*
%TO.N,/SERVO_IO/POT*%
X142500000Y-86250000D02*
X140100000Y-88650000D01*
X140100000Y-88650000D02*
X136200000Y-88650000D01*
%TO.N,/TX_EN*%
X172625000Y-60475000D02*
X172500000Y-60350000D01*
X172625000Y-88975000D02*
X172625000Y-60475000D01*
%TD*%
%TA.AperFunction,Conductor*%
%TO.N,VSYS*%
G36*
X173296075Y-57000418D02*
G01*
X173415910Y-57016195D01*
X173428263Y-57019505D01*
X173536934Y-57064519D01*
X173548011Y-57070914D01*
X173643898Y-57144491D01*
X173648717Y-57148717D01*
X177351282Y-60851282D01*
X177355508Y-60856101D01*
X177429085Y-60951988D01*
X177435481Y-60963066D01*
X177480493Y-61071735D01*
X177483804Y-61084090D01*
X177499581Y-61203924D01*
X177500000Y-61210320D01*
X177500000Y-65000000D01*
X178313554Y-65000000D01*
X178870591Y-65557037D01*
X178807007Y-65574075D01*
X178692993Y-65639901D01*
X178599901Y-65732993D01*
X178534075Y-65847007D01*
X178517037Y-65910591D01*
X177884728Y-65278282D01*
X177884727Y-65278282D01*
X177845379Y-65332442D01*
X177845376Y-65332447D01*
X177748905Y-65521781D01*
X177683242Y-65723873D01*
X177683241Y-65723876D01*
X177650000Y-65933753D01*
X177650000Y-66146246D01*
X177683241Y-66356123D01*
X177683242Y-66356126D01*
X177748905Y-66558218D01*
X177845378Y-66747556D01*
X177845380Y-66747560D01*
X177884727Y-66801716D01*
X177884728Y-66801716D01*
X178517036Y-66169407D01*
X178534075Y-66232993D01*
X178599901Y-66347007D01*
X178692993Y-66440099D01*
X178807007Y-66505925D01*
X178870591Y-66522962D01*
X178238281Y-67155271D01*
X178246660Y-67161358D01*
X178266256Y-67193334D01*
X178257501Y-67229801D01*
X178225525Y-67249397D01*
X178217859Y-67250000D01*
X176380402Y-67250000D01*
X176373467Y-67249507D01*
X176243739Y-67230959D01*
X176230424Y-67227072D01*
X176114301Y-67174372D01*
X176102609Y-67166910D01*
X176096150Y-67161358D01*
X176003235Y-67081485D01*
X175998299Y-67076592D01*
X175887947Y-66950450D01*
X174375610Y-65221708D01*
X174372021Y-65217072D01*
X174309631Y-65125668D01*
X174304232Y-65115276D01*
X174267326Y-65017037D01*
X174266354Y-65014452D01*
X174263576Y-65003077D01*
X174252948Y-64914783D01*
X174250351Y-64893203D01*
X174250000Y-64887347D01*
X174250000Y-61812500D01*
X173030241Y-60592741D01*
X173015889Y-60558093D01*
X173017559Y-60545410D01*
X173050500Y-60422476D01*
X173050500Y-60277522D01*
X173012984Y-60137516D01*
X173012983Y-60137512D01*
X172940508Y-60011984D01*
X172838015Y-59909491D01*
X172712487Y-59837016D01*
X172712483Y-59837015D01*
X172572478Y-59799500D01*
X172572475Y-59799500D01*
X172427525Y-59799500D01*
X172427522Y-59799500D01*
X172304588Y-59832440D01*
X172267406Y-59827545D01*
X172257258Y-59819758D01*
X171687500Y-59250000D01*
X171480393Y-59250000D01*
X138772681Y-59250000D01*
X138550000Y-59250000D01*
X138549999Y-59250000D01*
X138549998Y-59250001D01*
X136000000Y-62083335D01*
X136000000Y-64621205D01*
X135999416Y-64628748D01*
X135977479Y-64769556D01*
X135972890Y-64783927D01*
X135910875Y-64907956D01*
X135902132Y-64920249D01*
X135802648Y-65022283D01*
X135796964Y-65027276D01*
X134636491Y-65897631D01*
X134629832Y-65901834D01*
X134498490Y-65970651D01*
X134483598Y-65975615D01*
X134337234Y-65999367D01*
X134329385Y-66000000D01*
X132503213Y-66000000D01*
X132496817Y-65999581D01*
X132376983Y-65983804D01*
X132364627Y-65980493D01*
X132255961Y-65935482D01*
X132244883Y-65929086D01*
X132151564Y-65857479D01*
X132142520Y-65848435D01*
X132070913Y-65755116D01*
X132064517Y-65744038D01*
X132056166Y-65723876D01*
X132019505Y-65635368D01*
X132016195Y-65623016D01*
X132000419Y-65503182D01*
X132000000Y-65496786D01*
X132000000Y-62710320D01*
X132000419Y-62703924D01*
X132016195Y-62584090D01*
X132019505Y-62571738D01*
X132064520Y-62463061D01*
X132070911Y-62451993D01*
X132144497Y-62356093D01*
X132148709Y-62351290D01*
X137351290Y-57148709D01*
X137356093Y-57144497D01*
X137451993Y-57070911D01*
X137463061Y-57064520D01*
X137571738Y-57019505D01*
X137584087Y-57016195D01*
X137703924Y-57000418D01*
X137710320Y-57000000D01*
X173289680Y-57000000D01*
X173296075Y-57000418D01*
G37*
%TD.AperFunction*%
%TA.AperFunction,Conductor*%
G36*
X182718091Y-65557037D02*
G01*
X182654507Y-65574075D01*
X182540493Y-65639901D01*
X182447401Y-65732993D01*
X182381575Y-65847007D01*
X182364537Y-65910591D01*
X181732228Y-65278282D01*
X181732227Y-65278282D01*
X181692879Y-65332442D01*
X181692876Y-65332447D01*
X181596405Y-65521781D01*
X181530742Y-65723873D01*
X181530741Y-65723876D01*
X181497500Y-65933753D01*
X181497500Y-66146246D01*
X181530741Y-66356123D01*
X181530742Y-66356126D01*
X181596405Y-66558218D01*
X181692878Y-66747556D01*
X181692880Y-66747560D01*
X181732227Y-66801716D01*
X181732228Y-66801716D01*
X182364536Y-66169407D01*
X182381575Y-66232993D01*
X182447401Y-66347007D01*
X182540493Y-66440099D01*
X182654507Y-66505925D01*
X182718091Y-66522962D01*
X182085781Y-67155271D01*
X182094160Y-67161358D01*
X182113756Y-67193334D01*
X182105001Y-67229801D01*
X182073025Y-67249397D01*
X182065359Y-67250000D01*
X179782140Y-67250000D01*
X179747492Y-67235648D01*
X179733140Y-67201000D01*
X179747492Y-67166352D01*
X179753339Y-67161358D01*
X179761717Y-67155271D01*
X179129408Y-66522962D01*
X179192993Y-66505925D01*
X179307007Y-66440099D01*
X179400099Y-66347007D01*
X179465925Y-66232993D01*
X179482962Y-66169408D01*
X180115271Y-66801717D01*
X180154622Y-66747553D01*
X180251094Y-66558218D01*
X180316757Y-66356126D01*
X180316758Y-66356123D01*
X180350000Y-66146246D01*
X180350000Y-65933753D01*
X180316758Y-65723876D01*
X180316757Y-65723873D01*
X180251094Y-65521781D01*
X180154621Y-65332443D01*
X180154619Y-65332440D01*
X180115271Y-65278281D01*
X179482962Y-65910590D01*
X179465925Y-65847007D01*
X179400099Y-65732993D01*
X179307007Y-65639901D01*
X179192993Y-65574075D01*
X179129408Y-65557037D01*
X179686446Y-65000000D01*
X182161054Y-65000000D01*
X182718091Y-65557037D01*
G37*
%TD.AperFunction*%
%TA.AperFunction,Conductor*%
G36*
X187870591Y-65517038D02*
G01*
X187807008Y-65534076D01*
X187692994Y-65599902D01*
X187599902Y-65692994D01*
X187534076Y-65807008D01*
X187517038Y-65870591D01*
X186920524Y-65274077D01*
X186920523Y-65274077D01*
X186888143Y-65318644D01*
X186888138Y-65318653D01*
X186795243Y-65500971D01*
X186732010Y-65695582D01*
X186732009Y-65695585D01*
X186700000Y-65897688D01*
X186700000Y-66102311D01*
X186732009Y-66304414D01*
X186732010Y-66304417D01*
X186795243Y-66499028D01*
X186888138Y-66681346D01*
X186888139Y-66681348D01*
X186920524Y-66725921D01*
X187517038Y-66129407D01*
X187534076Y-66192992D01*
X187599902Y-66307006D01*
X187692994Y-66400098D01*
X187807008Y-66465924D01*
X187870591Y-66482961D01*
X187274076Y-67079475D01*
X187320208Y-67112991D01*
X187319566Y-67113873D01*
X187321175Y-67116090D01*
X187326694Y-67118376D01*
X187331824Y-67130761D01*
X187339698Y-67141609D01*
X187338760Y-67147507D01*
X187341046Y-67153024D01*
X187335916Y-67165408D01*
X187333813Y-67178647D01*
X187326695Y-67187673D01*
X187278719Y-67235648D01*
X187244073Y-67250000D01*
X183629640Y-67250000D01*
X183594992Y-67235648D01*
X183580640Y-67201000D01*
X183594992Y-67166352D01*
X183600839Y-67161358D01*
X183609217Y-67155271D01*
X182976908Y-66522962D01*
X183040493Y-66505925D01*
X183154507Y-66440099D01*
X183247599Y-66347007D01*
X183313425Y-66232993D01*
X183330462Y-66169408D01*
X183962771Y-66801717D01*
X184002122Y-66747553D01*
X184098594Y-66558218D01*
X184164257Y-66356126D01*
X184164258Y-66356123D01*
X184197500Y-66146246D01*
X184197500Y-65933753D01*
X184192697Y-65903428D01*
X184164258Y-65723876D01*
X184164257Y-65723873D01*
X184098594Y-65521781D01*
X184002121Y-65332443D01*
X184002119Y-65332440D01*
X183962771Y-65278281D01*
X183330462Y-65910590D01*
X183313425Y-65847007D01*
X183247599Y-65732993D01*
X183154507Y-65639901D01*
X183040493Y-65574075D01*
X182976908Y-65557037D01*
X183533946Y-65000000D01*
X187353553Y-65000000D01*
X187870591Y-65517038D01*
G37*
%TD.AperFunction*%
%TA.AperFunction,Conductor*%
G36*
X189253182Y-65000418D02*
G01*
X189373017Y-65016195D01*
X189385368Y-65019505D01*
X189494040Y-65064518D01*
X189505116Y-65070913D01*
X189598435Y-65142520D01*
X189607479Y-65151564D01*
X189679085Y-65244881D01*
X189685481Y-65255959D01*
X189695770Y-65280798D01*
X189699500Y-65299550D01*
X189699500Y-66950450D01*
X189695770Y-66969202D01*
X189685482Y-66994039D01*
X189679086Y-67005117D01*
X189607479Y-67098435D01*
X189598435Y-67107479D01*
X189505116Y-67179086D01*
X189494038Y-67185482D01*
X189385372Y-67230493D01*
X189373016Y-67233804D01*
X189259897Y-67248697D01*
X189254581Y-67249397D01*
X189253183Y-67249581D01*
X189246787Y-67250000D01*
X188755928Y-67250000D01*
X188721280Y-67235648D01*
X188673305Y-67187673D01*
X188658953Y-67153025D01*
X188673305Y-67118377D01*
X188679917Y-67113165D01*
X188679791Y-67112991D01*
X188725921Y-67079474D01*
X188129408Y-66482961D01*
X188192992Y-66465924D01*
X188307006Y-66400098D01*
X188400098Y-66307006D01*
X188465924Y-66192992D01*
X188482961Y-66129408D01*
X189079474Y-66725921D01*
X189111863Y-66681343D01*
X189204756Y-66499028D01*
X189267989Y-66304417D01*
X189267990Y-66304414D01*
X189300000Y-66102311D01*
X189300000Y-65897688D01*
X189267990Y-65695585D01*
X189267989Y-65695582D01*
X189204756Y-65500971D01*
X189111861Y-65318653D01*
X189079475Y-65274076D01*
X188482961Y-65870590D01*
X188465924Y-65807008D01*
X188400098Y-65692994D01*
X188307006Y-65599902D01*
X188192992Y-65534076D01*
X188129407Y-65517038D01*
X188646446Y-65000000D01*
X189246787Y-65000000D01*
X189253182Y-65000418D01*
G37*
%TD.AperFunction*%
%TD*%
%TA.AperFunction,Conductor*%
%TO.N,VSYS*%
G36*
X142243039Y-104519685D02*
G01*
X142288794Y-104572489D01*
X142300000Y-104624000D01*
X142300000Y-106376000D01*
X142280315Y-106443039D01*
X142227511Y-106488794D01*
X142176000Y-106500000D01*
X130424500Y-106500000D01*
X130357461Y-106480315D01*
X130311706Y-106427511D01*
X130300500Y-106376000D01*
X130300500Y-104624000D01*
X130320185Y-104556961D01*
X130372989Y-104511206D01*
X130424500Y-104500000D01*
X142176000Y-104500000D01*
X142243039Y-104519685D01*
G37*
%TD.AperFunction*%
%TD*%
%TA.AperFunction,Conductor*%
%TO.N,VSYS*%
G36*
X146403177Y-77469685D02*
G01*
X146423819Y-77486319D01*
X148163681Y-79226181D01*
X148197166Y-79287504D01*
X148200000Y-79313862D01*
X148200000Y-82269450D01*
X148180315Y-82336489D01*
X148163342Y-82357469D01*
X147217157Y-83296371D01*
X147155705Y-83329619D01*
X147128857Y-83332348D01*
X143723542Y-83306036D01*
X143656657Y-83285834D01*
X143611311Y-83232678D01*
X143600500Y-83182040D01*
X143600500Y-82835323D01*
X143600499Y-82835321D01*
X143585967Y-82762264D01*
X143585966Y-82762260D01*
X143530601Y-82679399D01*
X143447740Y-82624034D01*
X143447739Y-82624033D01*
X143447735Y-82624032D01*
X143374677Y-82609500D01*
X143374674Y-82609500D01*
X141625326Y-82609500D01*
X141625323Y-82609500D01*
X141552264Y-82624032D01*
X141552260Y-82624033D01*
X141469399Y-82679399D01*
X141414033Y-82762260D01*
X141414032Y-82762264D01*
X141399500Y-82835321D01*
X141399500Y-83163118D01*
X141379815Y-83230157D01*
X141327011Y-83275912D01*
X141274542Y-83287114D01*
X138872977Y-83268558D01*
X138806092Y-83248356D01*
X138760746Y-83195200D01*
X138752014Y-83162294D01*
X138751689Y-83162359D01*
X138750661Y-83157195D01*
X138750531Y-83156702D01*
X138750500Y-83156395D01*
X138750500Y-83156384D01*
X138713973Y-82972749D01*
X138657048Y-82835321D01*
X138642323Y-82799771D01*
X138642318Y-82799762D01*
X138538302Y-82644092D01*
X138538299Y-82644088D01*
X138405908Y-82511697D01*
X138354880Y-82477602D01*
X138310075Y-82423990D01*
X138301368Y-82354665D01*
X138331522Y-82291638D01*
X138390965Y-82254918D01*
X138423771Y-82250500D01*
X138524676Y-82250500D01*
X138524677Y-82250499D01*
X138597740Y-82235966D01*
X138680601Y-82180601D01*
X138735966Y-82097740D01*
X138750500Y-82024674D01*
X138750500Y-80475326D01*
X138750500Y-80475323D01*
X138750499Y-80475321D01*
X138735967Y-80402264D01*
X138735966Y-80402260D01*
X138680601Y-80319399D01*
X138597740Y-80264034D01*
X138597739Y-80264033D01*
X138597735Y-80264032D01*
X138524677Y-80249500D01*
X138524674Y-80249500D01*
X137075326Y-80249500D01*
X137075323Y-80249500D01*
X137002264Y-80264032D01*
X137002260Y-80264033D01*
X136919399Y-80319399D01*
X136864033Y-80402260D01*
X136864032Y-80402264D01*
X136849500Y-80475321D01*
X136849500Y-82024678D01*
X136864032Y-82097735D01*
X136864033Y-82097739D01*
X136864034Y-82097740D01*
X136919399Y-82180601D01*
X137002260Y-82235966D01*
X137002264Y-82235967D01*
X137075321Y-82250499D01*
X137075324Y-82250500D01*
X137176229Y-82250500D01*
X137243268Y-82270185D01*
X137289023Y-82322989D01*
X137298967Y-82392147D01*
X137269942Y-82455703D01*
X137245120Y-82477602D01*
X137194091Y-82511697D01*
X137061700Y-82644088D01*
X137061697Y-82644092D01*
X136957681Y-82799762D01*
X136957676Y-82799771D01*
X136886027Y-82972748D01*
X136886025Y-82972756D01*
X136850336Y-83152177D01*
X136817951Y-83214088D01*
X136757236Y-83248662D01*
X136727761Y-83251982D01*
X132142762Y-83216555D01*
X132075877Y-83196353D01*
X132030531Y-83143197D01*
X132021122Y-83073964D01*
X132023942Y-83060476D01*
X132050500Y-82961364D01*
X132050500Y-82816414D01*
X132012984Y-82676404D01*
X131994326Y-82644088D01*
X131940511Y-82550877D01*
X131940506Y-82550871D01*
X131838017Y-82448382D01*
X131838011Y-82448377D01*
X131712488Y-82375906D01*
X131712489Y-82375906D01*
X131701006Y-82372829D01*
X131572475Y-82338389D01*
X131427525Y-82338389D01*
X131298993Y-82372829D01*
X131287511Y-82375906D01*
X131161988Y-82448377D01*
X131161982Y-82448382D01*
X131059493Y-82550871D01*
X131059488Y-82550877D01*
X130987017Y-82676400D01*
X130987016Y-82676404D01*
X130949500Y-82816414D01*
X130949500Y-82961364D01*
X130973383Y-83050499D01*
X130971721Y-83120347D01*
X130932559Y-83178210D01*
X130868330Y-83205714D01*
X130852651Y-83206587D01*
X130423542Y-83203271D01*
X130356656Y-83183069D01*
X130311311Y-83129913D01*
X130300500Y-83079275D01*
X130300500Y-78927525D01*
X130949500Y-78927525D01*
X130949500Y-79072475D01*
X130987016Y-79212485D01*
X130987017Y-79212488D01*
X131059488Y-79338011D01*
X131059490Y-79338013D01*
X131059491Y-79338015D01*
X131161985Y-79440509D01*
X131161986Y-79440510D01*
X131161988Y-79440511D01*
X131287511Y-79512982D01*
X131287512Y-79512982D01*
X131287515Y-79512984D01*
X131427525Y-79550500D01*
X131427528Y-79550500D01*
X131572472Y-79550500D01*
X131572475Y-79550500D01*
X131712485Y-79512984D01*
X131838015Y-79440509D01*
X131940509Y-79338015D01*
X132012984Y-79212485D01*
X132050500Y-79072475D01*
X132050500Y-78927525D01*
X132012984Y-78787515D01*
X131940509Y-78661985D01*
X131838015Y-78559491D01*
X131838013Y-78559490D01*
X131838011Y-78559488D01*
X131712488Y-78487017D01*
X131712489Y-78487017D01*
X131701006Y-78483940D01*
X131572475Y-78449500D01*
X131427525Y-78449500D01*
X131298993Y-78483940D01*
X131287511Y-78487017D01*
X131161988Y-78559488D01*
X131161982Y-78559493D01*
X131059493Y-78661982D01*
X131059488Y-78661988D01*
X130987017Y-78787511D01*
X130987016Y-78787515D01*
X130949500Y-78927525D01*
X130300500Y-78927525D01*
X130300500Y-77574000D01*
X130320185Y-77506961D01*
X130372989Y-77461206D01*
X130424500Y-77450000D01*
X146336138Y-77450000D01*
X146403177Y-77469685D01*
G37*
%TD.AperFunction*%
%TD*%
%TA.AperFunction,Conductor*%
%TO.N,PGND*%
G36*
X153461507Y-82792069D02*
G01*
X153483914Y-82796486D01*
X153521100Y-82803816D01*
X153565879Y-82822287D01*
X153606053Y-82849059D01*
X153611978Y-82854972D01*
X153616735Y-82857039D01*
X153640337Y-82883275D01*
X153667188Y-82923398D01*
X153685747Y-82968141D01*
X153697611Y-83027709D01*
X153700000Y-83051930D01*
X153700000Y-84227789D01*
X153697617Y-84251982D01*
X153685781Y-84311482D01*
X153682590Y-84319183D01*
X153682499Y-84324341D01*
X153667267Y-84356179D01*
X153640481Y-84396268D01*
X153606269Y-84430479D01*
X153571975Y-84453394D01*
X153566179Y-84457267D01*
X153521482Y-84475781D01*
X153487857Y-84482469D01*
X153461978Y-84487617D01*
X153437789Y-84490000D01*
X152299999Y-84490000D01*
X151600000Y-85189999D01*
X151600000Y-90474236D01*
X151597617Y-90498429D01*
X151585781Y-90557928D01*
X151567266Y-90602625D01*
X151533562Y-90653067D01*
X151518141Y-90671858D01*
X150681858Y-91508141D01*
X150663067Y-91523562D01*
X150612625Y-91557266D01*
X150604924Y-91560455D01*
X150601211Y-91564039D01*
X150567928Y-91575781D01*
X150533777Y-91582574D01*
X150508425Y-91587617D01*
X150484236Y-91590000D01*
X149899999Y-91590000D01*
X149800000Y-91689999D01*
X149800000Y-98637789D01*
X149797617Y-98661980D01*
X149797617Y-98661982D01*
X149785781Y-98721482D01*
X149767267Y-98766179D01*
X149740481Y-98806268D01*
X149706269Y-98840479D01*
X149671975Y-98863394D01*
X149666179Y-98867267D01*
X149621482Y-98885781D01*
X149587857Y-98892469D01*
X149561978Y-98897617D01*
X149537789Y-98900000D01*
X148762211Y-98900000D01*
X148738020Y-98897617D01*
X148723189Y-98894667D01*
X148678518Y-98885781D01*
X148633822Y-98867267D01*
X148593727Y-98840477D01*
X148559522Y-98806272D01*
X148532730Y-98766175D01*
X148514218Y-98721480D01*
X148502383Y-98661980D01*
X148500000Y-98637789D01*
X148500000Y-93890000D01*
X148181858Y-93571858D01*
X148166437Y-93553067D01*
X148132733Y-93502625D01*
X148114218Y-93457926D01*
X148102383Y-93398427D01*
X148100000Y-93374236D01*
X148100000Y-93356324D01*
X148104225Y-93324233D01*
X148111496Y-93297095D01*
X148119513Y-93283208D01*
X148122439Y-93269759D01*
X148143587Y-93241508D01*
X148151507Y-93233588D01*
X148207092Y-93201496D01*
X148234236Y-93194223D01*
X148266325Y-93190000D01*
X148600000Y-93190000D01*
X148700000Y-93090000D01*
X148700000Y-91590000D01*
X148664886Y-91554886D01*
X148649465Y-91536096D01*
X148637572Y-91518297D01*
X148619057Y-91473595D01*
X148614882Y-91452603D01*
X148612500Y-91428417D01*
X148612500Y-84186695D01*
X148614877Y-84162534D01*
X148626683Y-84103103D01*
X148629857Y-84095429D01*
X148629945Y-84090297D01*
X148645151Y-84058453D01*
X148678783Y-84008039D01*
X148694165Y-83989265D01*
X149641861Y-83039704D01*
X149802717Y-82878530D01*
X149821458Y-82863116D01*
X149871799Y-82829390D01*
X149916411Y-82810834D01*
X149975826Y-82798909D01*
X149999980Y-82796486D01*
X151374017Y-82793784D01*
X153437281Y-82789728D01*
X153461507Y-82792069D01*
G37*
%TD.AperFunction*%
%TD*%
%TA.AperFunction,Conductor*%
%TO.N,GND*%
G36*
X187501470Y-55300589D02*
G01*
X187542117Y-55303047D01*
X187762175Y-55316358D01*
X187768034Y-55317071D01*
X188023461Y-55363879D01*
X188029199Y-55365293D01*
X188167979Y-55408539D01*
X188277123Y-55442550D01*
X188282654Y-55444647D01*
X188519461Y-55551225D01*
X188524688Y-55553967D01*
X188652041Y-55630956D01*
X188746922Y-55688314D01*
X188751791Y-55691675D01*
X188956205Y-55851823D01*
X188960634Y-55855747D01*
X189144252Y-56039365D01*
X189148176Y-56043794D01*
X189308324Y-56248208D01*
X189311685Y-56253077D01*
X189446028Y-56475305D01*
X189448778Y-56480545D01*
X189555351Y-56717344D01*
X189557449Y-56722876D01*
X189634705Y-56970796D01*
X189636121Y-56976542D01*
X189682927Y-57231957D01*
X189683641Y-57237830D01*
X189699411Y-57498528D01*
X189699500Y-57501487D01*
X189699500Y-64803244D01*
X189685148Y-64837892D01*
X189650500Y-64852244D01*
X189626000Y-64845679D01*
X189621804Y-64843256D01*
X189621776Y-64843241D01*
X189591826Y-64828471D01*
X189591820Y-64828468D01*
X189591815Y-64828466D01*
X189505431Y-64792685D01*
X189483146Y-64783454D01*
X189483141Y-64783452D01*
X189451510Y-64772715D01*
X189451509Y-64772714D01*
X189451507Y-64772714D01*
X189439156Y-64769404D01*
X189439146Y-64769402D01*
X189439126Y-64769397D01*
X189406378Y-64762882D01*
X189286539Y-64747104D01*
X189271932Y-64745667D01*
X189269847Y-64745462D01*
X189267058Y-64745279D01*
X189263438Y-64745043D01*
X189247730Y-64744530D01*
X189246787Y-64744500D01*
X189159643Y-64744500D01*
X189124995Y-64730148D01*
X189110643Y-64695500D01*
X189115984Y-64673255D01*
X189204756Y-64499028D01*
X189267989Y-64304417D01*
X189267990Y-64304414D01*
X189300000Y-64102311D01*
X189300000Y-63897688D01*
X189267990Y-63695585D01*
X189267989Y-63695582D01*
X189204756Y-63500971D01*
X189111861Y-63318653D01*
X189079475Y-63274076D01*
X188482961Y-63870590D01*
X188465924Y-63807008D01*
X188400098Y-63692994D01*
X188307006Y-63599902D01*
X188192992Y-63534076D01*
X188129407Y-63517037D01*
X188725921Y-62920524D01*
X188681348Y-62888139D01*
X188681346Y-62888138D01*
X188499028Y-62795243D01*
X188304417Y-62732010D01*
X188304414Y-62732009D01*
X188102311Y-62700000D01*
X187897689Y-62700000D01*
X187695585Y-62732009D01*
X187695582Y-62732010D01*
X187500971Y-62795243D01*
X187318653Y-62888138D01*
X187318644Y-62888143D01*
X187274077Y-62920523D01*
X187274077Y-62920524D01*
X187870591Y-63517038D01*
X187807008Y-63534076D01*
X187692994Y-63599902D01*
X187599902Y-63692994D01*
X187534076Y-63807008D01*
X187517038Y-63870591D01*
X186920524Y-63274077D01*
X186920523Y-63274077D01*
X186888143Y-63318644D01*
X186888138Y-63318653D01*
X186795243Y-63500971D01*
X186732010Y-63695582D01*
X186732009Y-63695585D01*
X186700000Y-63897688D01*
X186700000Y-64102311D01*
X186732009Y-64304414D01*
X186732010Y-64304417D01*
X186795243Y-64499028D01*
X186884016Y-64673255D01*
X186886959Y-64710642D01*
X186862602Y-64739159D01*
X186840357Y-64744500D01*
X184124648Y-64744500D01*
X184090000Y-64730148D01*
X184075648Y-64695500D01*
X184085422Y-64666135D01*
X184140851Y-64592091D01*
X184191098Y-64457373D01*
X184191098Y-64457372D01*
X184197500Y-64397834D01*
X184197500Y-63750000D01*
X183280512Y-63750000D01*
X183313425Y-63692993D01*
X183347500Y-63565826D01*
X183347500Y-63434174D01*
X183313425Y-63307007D01*
X183280512Y-63250000D01*
X184197500Y-63250000D01*
X184197500Y-62602165D01*
X184191098Y-62542627D01*
X184191098Y-62542626D01*
X184140851Y-62407908D01*
X184054688Y-62292811D01*
X183939591Y-62206648D01*
X183804873Y-62156401D01*
X183745334Y-62150000D01*
X183097500Y-62150000D01*
X183097500Y-63066988D01*
X183040493Y-63034075D01*
X182913326Y-63000000D01*
X182781674Y-63000000D01*
X182654507Y-63034075D01*
X182597500Y-63066988D01*
X182597500Y-62150000D01*
X181949666Y-62150000D01*
X181890127Y-62156401D01*
X181890126Y-62156401D01*
X181755408Y-62206648D01*
X181640311Y-62292811D01*
X181554148Y-62407908D01*
X181503901Y-62542626D01*
X181503901Y-62542627D01*
X181497500Y-62602165D01*
X181497500Y-63250000D01*
X182414488Y-63250000D01*
X182381575Y-63307007D01*
X182347500Y-63434174D01*
X182347500Y-63565826D01*
X182381575Y-63692993D01*
X182414488Y-63750000D01*
X181497500Y-63750000D01*
X181497500Y-64397834D01*
X181503901Y-64457372D01*
X181503901Y-64457373D01*
X181554148Y-64592091D01*
X181609578Y-64666135D01*
X181618853Y-64702473D01*
X181599717Y-64734726D01*
X181570352Y-64744500D01*
X180277148Y-64744500D01*
X180242500Y-64730148D01*
X180228148Y-64695500D01*
X180237922Y-64666135D01*
X180293351Y-64592091D01*
X180343598Y-64457373D01*
X180343598Y-64457372D01*
X180350000Y-64397834D01*
X180350000Y-63750000D01*
X179433012Y-63750000D01*
X179465925Y-63692993D01*
X179500000Y-63565826D01*
X179500000Y-63434174D01*
X179465925Y-63307007D01*
X179433012Y-63250000D01*
X180350000Y-63250000D01*
X180350000Y-62602165D01*
X180343598Y-62542627D01*
X180343598Y-62542626D01*
X180293351Y-62407908D01*
X180207188Y-62292811D01*
X180092091Y-62206648D01*
X179957373Y-62156401D01*
X179897834Y-62150000D01*
X179250000Y-62150000D01*
X179250000Y-63066988D01*
X179192993Y-63034075D01*
X179065826Y-63000000D01*
X178934174Y-63000000D01*
X178807007Y-63034075D01*
X178750000Y-63066988D01*
X178750000Y-62150000D01*
X178102166Y-62150000D01*
X178042627Y-62156401D01*
X178042626Y-62156401D01*
X177907908Y-62206648D01*
X177833865Y-62262077D01*
X177797527Y-62271352D01*
X177765274Y-62252216D01*
X177755500Y-62222851D01*
X177755500Y-61210323D01*
X177755500Y-61210320D01*
X177754954Y-61193618D01*
X177754535Y-61187222D01*
X177752895Y-61170573D01*
X177737118Y-61050739D01*
X177730596Y-61017953D01*
X177727285Y-61005598D01*
X177716544Y-60973960D01*
X177671532Y-60865291D01*
X177664238Y-60850500D01*
X177656752Y-60835318D01*
X177656751Y-60835315D01*
X177650359Y-60824244D01*
X177650348Y-60824226D01*
X177631791Y-60796456D01*
X177617330Y-60777610D01*
X177558209Y-60700562D01*
X177547606Y-60687642D01*
X177547601Y-60687636D01*
X177543370Y-60682811D01*
X177531947Y-60670615D01*
X173829383Y-56968051D01*
X173817187Y-56956628D01*
X173812362Y-56952397D01*
X173810440Y-56950820D01*
X173799437Y-56941790D01*
X173799425Y-56941781D01*
X173799418Y-56941775D01*
X173703551Y-56868214D01*
X173703547Y-56868211D01*
X173675757Y-56849642D01*
X173675756Y-56849641D01*
X173664679Y-56843246D01*
X173664661Y-56843237D01*
X173634728Y-56828476D01*
X173526045Y-56783457D01*
X173526044Y-56783456D01*
X173526040Y-56783455D01*
X173515904Y-56780014D01*
X173494388Y-56772709D01*
X173494376Y-56772706D01*
X173482045Y-56769402D01*
X173482034Y-56769399D01*
X173449274Y-56762883D01*
X173449262Y-56762881D01*
X173449260Y-56762881D01*
X173431847Y-56760588D01*
X173329432Y-56747104D01*
X173314825Y-56745667D01*
X173312740Y-56745462D01*
X173309951Y-56745279D01*
X173306331Y-56745043D01*
X173290623Y-56744530D01*
X173289680Y-56744500D01*
X137710320Y-56744500D01*
X137709427Y-56744529D01*
X137693671Y-56745043D01*
X137687259Y-56745462D01*
X137670568Y-56747104D01*
X137550722Y-56762883D01*
X137517949Y-56769402D01*
X137517932Y-56769407D01*
X137505605Y-56772710D01*
X137505593Y-56772714D01*
X137481744Y-56780811D01*
X137473963Y-56783453D01*
X137473960Y-56783454D01*
X137473943Y-56783460D01*
X137365291Y-56828465D01*
X137335290Y-56843262D01*
X137324244Y-56849640D01*
X137324233Y-56849646D01*
X137324230Y-56849649D01*
X137296455Y-56868209D01*
X137272877Y-56886300D01*
X137200547Y-56941800D01*
X137187635Y-56952398D01*
X137182818Y-56956621D01*
X137170623Y-56968043D01*
X131968043Y-62170623D01*
X131956621Y-62182818D01*
X131952398Y-62187635D01*
X131941800Y-62200547D01*
X131868204Y-62296462D01*
X131849640Y-62324244D01*
X131843262Y-62335290D01*
X131828465Y-62365291D01*
X131783458Y-62473948D01*
X131783456Y-62473955D01*
X131772705Y-62505626D01*
X131769405Y-62517940D01*
X131762880Y-62550742D01*
X131756111Y-62602165D01*
X131747105Y-62670575D01*
X131746294Y-62678802D01*
X131745463Y-62687236D01*
X131745046Y-62693607D01*
X131744500Y-62710323D01*
X131744500Y-65496782D01*
X131745046Y-65513498D01*
X131745463Y-65519869D01*
X131746162Y-65526963D01*
X131747105Y-65536531D01*
X131751036Y-65566391D01*
X131762880Y-65656363D01*
X131769405Y-65689165D01*
X131772705Y-65701479D01*
X131772708Y-65701490D01*
X131772712Y-65701502D01*
X131783453Y-65733143D01*
X131783456Y-65733150D01*
X131783458Y-65733157D01*
X131828462Y-65841806D01*
X131843252Y-65871798D01*
X131849638Y-65882859D01*
X131849649Y-65882877D01*
X131868211Y-65910655D01*
X131939801Y-66003953D01*
X131939814Y-66003968D01*
X131939819Y-66003975D01*
X131961854Y-66029101D01*
X131970898Y-66038145D01*
X131996024Y-66060180D01*
X131996032Y-66060186D01*
X131996045Y-66060197D01*
X132089343Y-66131787D01*
X132117121Y-66150349D01*
X132117139Y-66150360D01*
X132122984Y-66153734D01*
X132128209Y-66156751D01*
X132158185Y-66171533D01*
X132266851Y-66216544D01*
X132298495Y-66227286D01*
X132298505Y-66227288D01*
X132298509Y-66227290D01*
X132306732Y-66229493D01*
X132310851Y-66230597D01*
X132310853Y-66230597D01*
X132310863Y-66230600D01*
X132342778Y-66236948D01*
X132343632Y-66237118D01*
X132463466Y-66252895D01*
X132479934Y-66254517D01*
X132480125Y-66254536D01*
X132483036Y-66254726D01*
X132486511Y-66254954D01*
X132503213Y-66255500D01*
X132503216Y-66255500D01*
X134329394Y-66255500D01*
X134341708Y-66255003D01*
X134349924Y-66254673D01*
X134357773Y-66254040D01*
X134378161Y-66251568D01*
X134524525Y-66227816D01*
X134564394Y-66218004D01*
X134579286Y-66213040D01*
X134617069Y-66196968D01*
X134617078Y-66196963D01*
X134617081Y-66196962D01*
X134693843Y-66156742D01*
X134748411Y-66128151D01*
X134766205Y-66117896D01*
X134772864Y-66113693D01*
X134789791Y-66102031D01*
X135950264Y-65231676D01*
X135965585Y-65219233D01*
X135971269Y-65214240D01*
X135985585Y-65200648D01*
X136085069Y-65098614D01*
X136110343Y-65068332D01*
X136119086Y-65056039D01*
X136139401Y-65022220D01*
X136201416Y-64898191D01*
X136216282Y-64861648D01*
X136220871Y-64847277D01*
X136229934Y-64808887D01*
X136251871Y-64668079D01*
X136254154Y-64648470D01*
X136254738Y-64640927D01*
X136255500Y-64621205D01*
X136255500Y-64561242D01*
X136269852Y-64526594D01*
X136798949Y-63997496D01*
X136823967Y-64057896D01*
X136895103Y-64164358D01*
X136985642Y-64254897D01*
X137092104Y-64326033D01*
X137152502Y-64351050D01*
X136530893Y-64972659D01*
X136613831Y-65032916D01*
X136824198Y-65140103D01*
X137048748Y-65213064D01*
X137048751Y-65213065D01*
X137281948Y-65250000D01*
X137518052Y-65250000D01*
X137751248Y-65213065D01*
X137751251Y-65213064D01*
X137975801Y-65140103D01*
X138186165Y-65032918D01*
X138269104Y-64972658D01*
X137647496Y-64351050D01*
X137707896Y-64326033D01*
X137814358Y-64254897D01*
X137904897Y-64164358D01*
X137976033Y-64057896D01*
X138001050Y-63997496D01*
X138622658Y-64619104D01*
X138682918Y-64536165D01*
X138790103Y-64325801D01*
X138863064Y-64101251D01*
X138863065Y-64101248D01*
X138900000Y-63868052D01*
X138900000Y-63734104D01*
X146349500Y-63734104D01*
X146349500Y-63865895D01*
X146383607Y-63993184D01*
X146383608Y-63993188D01*
X146447329Y-64103554D01*
X146449500Y-64107314D01*
X146542686Y-64200500D01*
X146584457Y-64224617D01*
X146656811Y-64266391D01*
X146656813Y-64266391D01*
X146656814Y-64266392D01*
X146757207Y-64293292D01*
X146784104Y-64300499D01*
X146784105Y-64300500D01*
X146784108Y-64300500D01*
X146915895Y-64300500D01*
X146915895Y-64300499D01*
X147043186Y-64266392D01*
X147157314Y-64200500D01*
X147250500Y-64107314D01*
X147316392Y-63993186D01*
X147350499Y-63865895D01*
X147350500Y-63865895D01*
X147350500Y-63734105D01*
X147350499Y-63734104D01*
X147316392Y-63606815D01*
X147316391Y-63606811D01*
X147254723Y-63500001D01*
X147250500Y-63492686D01*
X147157314Y-63399500D01*
X147152023Y-63396445D01*
X147043188Y-63333608D01*
X147043184Y-63333607D01*
X146915895Y-63299500D01*
X146915892Y-63299500D01*
X146784108Y-63299500D01*
X146784105Y-63299500D01*
X146656815Y-63333607D01*
X146656811Y-63333608D01*
X146542685Y-63399500D01*
X146542685Y-63399501D01*
X146449501Y-63492685D01*
X146449500Y-63492685D01*
X146383608Y-63606811D01*
X146383607Y-63606815D01*
X146349500Y-63734104D01*
X138900000Y-63734104D01*
X138900000Y-63631947D01*
X138863065Y-63398751D01*
X138863064Y-63398748D01*
X138790103Y-63174198D01*
X138682916Y-62963831D01*
X138622659Y-62880893D01*
X138001050Y-63502502D01*
X137976033Y-63442104D01*
X137904897Y-63335642D01*
X137814358Y-63245103D01*
X137707896Y-63173967D01*
X137647495Y-63148948D01*
X138269105Y-62527339D01*
X138186168Y-62467083D01*
X137975801Y-62359896D01*
X137751251Y-62286935D01*
X137751248Y-62286934D01*
X137518052Y-62250000D01*
X137281948Y-62250000D01*
X137048751Y-62286934D01*
X137048748Y-62286935D01*
X136824198Y-62359896D01*
X136613831Y-62467083D01*
X136613822Y-62467088D01*
X136530893Y-62527339D01*
X137152503Y-63148949D01*
X137092104Y-63173967D01*
X136985642Y-63245103D01*
X136895103Y-63335642D01*
X136823967Y-63442104D01*
X136798949Y-63502503D01*
X136269852Y-62973406D01*
X136255500Y-62938758D01*
X136255500Y-62200181D01*
X136268079Y-62167402D01*
X136283741Y-62150000D01*
X137828045Y-60434104D01*
X142002719Y-60434104D01*
X142002719Y-60565895D01*
X142036826Y-60693184D01*
X142036827Y-60693188D01*
X142085569Y-60777610D01*
X142102719Y-60807314D01*
X142195905Y-60900500D01*
X142227304Y-60918628D01*
X142310030Y-60966391D01*
X142310032Y-60966391D01*
X142310033Y-60966392D01*
X142410426Y-60993292D01*
X142437323Y-61000499D01*
X142437324Y-61000500D01*
X142437327Y-61000500D01*
X142569114Y-61000500D01*
X142569114Y-61000499D01*
X142696405Y-60966392D01*
X142810533Y-60900500D01*
X142903719Y-60807314D01*
X142965350Y-60700566D01*
X142969610Y-60693188D01*
X142969610Y-60693187D01*
X142969611Y-60693186D01*
X143003718Y-60565895D01*
X143003719Y-60565895D01*
X143003719Y-60434105D01*
X143003718Y-60434104D01*
X142969611Y-60306815D01*
X142969610Y-60306811D01*
X142903718Y-60192685D01*
X142810533Y-60099500D01*
X142696407Y-60033608D01*
X142696403Y-60033607D01*
X142569114Y-59999500D01*
X142569111Y-59999500D01*
X142437327Y-59999500D01*
X142437324Y-59999500D01*
X142310034Y-60033607D01*
X142310030Y-60033608D01*
X142195904Y-60099500D01*
X142195904Y-60099501D01*
X142102720Y-60192685D01*
X142102719Y-60192685D01*
X142036827Y-60306811D01*
X142036826Y-60306815D01*
X142002719Y-60434104D01*
X137828045Y-60434104D01*
X138649190Y-59521720D01*
X138683036Y-59505568D01*
X138685611Y-59505500D01*
X149628307Y-59505500D01*
X149662955Y-59519852D01*
X149671512Y-59532661D01*
X149671780Y-59532507D01*
X149719530Y-59615212D01*
X158835148Y-68730830D01*
X158849500Y-68765478D01*
X158849500Y-68850827D01*
X158835148Y-68885475D01*
X158800500Y-68899827D01*
X158765852Y-68885475D01*
X158758065Y-68875328D01*
X158740460Y-68844835D01*
X158684511Y-68788886D01*
X150005165Y-60109540D01*
X150005163Y-60109539D01*
X150005161Y-60109537D01*
X149979606Y-60094783D01*
X149963966Y-60085754D01*
X149936645Y-60069979D01*
X149936641Y-60069978D01*
X149860218Y-60049500D01*
X149860216Y-60049500D01*
X147930829Y-60049500D01*
X147896181Y-60035148D01*
X147810533Y-59949500D01*
X147696407Y-59883608D01*
X147696403Y-59883607D01*
X147569114Y-59849500D01*
X147569111Y-59849500D01*
X147437327Y-59849500D01*
X147437324Y-59849500D01*
X147310034Y-59883607D01*
X147310030Y-59883608D01*
X147195904Y-59949500D01*
X147195904Y-59949501D01*
X147102720Y-60042685D01*
X147102719Y-60042685D01*
X147036827Y-60156811D01*
X147036826Y-60156815D01*
X147002719Y-60284104D01*
X147002719Y-60415895D01*
X147036826Y-60543184D01*
X147036827Y-60543188D01*
X147098785Y-60650500D01*
X147102719Y-60657314D01*
X147195905Y-60750500D01*
X147202719Y-60754434D01*
X147310030Y-60816391D01*
X147310032Y-60816391D01*
X147310033Y-60816392D01*
X147406388Y-60842210D01*
X147437323Y-60850499D01*
X147437324Y-60850500D01*
X147437327Y-60850500D01*
X147569114Y-60850500D01*
X147569114Y-60850499D01*
X147696405Y-60816392D01*
X147810533Y-60750500D01*
X147896181Y-60664852D01*
X147930829Y-60650500D01*
X149675887Y-60650500D01*
X149710535Y-60664852D01*
X155761535Y-66715852D01*
X155775887Y-66750500D01*
X155761535Y-66785148D01*
X155726887Y-66799500D01*
X147553853Y-66799500D01*
X147464713Y-66823385D01*
X147464709Y-66823386D01*
X147384787Y-66869530D01*
X147384787Y-66869531D01*
X139719170Y-74535148D01*
X139684522Y-74549500D01*
X139577522Y-74549500D01*
X139437516Y-74587015D01*
X139437512Y-74587016D01*
X139311984Y-74659491D01*
X139311984Y-74659492D01*
X139209492Y-74761984D01*
X139209491Y-74761984D01*
X139137016Y-74887512D01*
X139137015Y-74887516D01*
X139099500Y-75027522D01*
X139099500Y-75172477D01*
X139137015Y-75312483D01*
X139137016Y-75312487D01*
X139209491Y-75438015D01*
X139311985Y-75540509D01*
X139357930Y-75567035D01*
X139437512Y-75612983D01*
X139437514Y-75612983D01*
X139437515Y-75612984D01*
X139472517Y-75622363D01*
X139577522Y-75650500D01*
X139577525Y-75650500D01*
X139722477Y-75650500D01*
X139792480Y-75631742D01*
X139862485Y-75612984D01*
X139988015Y-75540509D01*
X140090509Y-75438015D01*
X140162984Y-75312485D01*
X140191299Y-75206814D01*
X140200500Y-75172477D01*
X140200500Y-75065478D01*
X140214852Y-75030830D01*
X146418160Y-68827522D01*
X148999500Y-68827522D01*
X148999500Y-68972477D01*
X149037015Y-69112483D01*
X149037016Y-69112487D01*
X149109491Y-69238015D01*
X149185148Y-69313672D01*
X149199500Y-69348320D01*
X149199500Y-77596146D01*
X149223385Y-77685286D01*
X149223386Y-77685290D01*
X149269530Y-77765212D01*
X152836330Y-81332012D01*
X152850682Y-81366660D01*
X152849677Y-81374309D01*
X152849919Y-81374341D01*
X152849500Y-81377524D01*
X152849500Y-81522477D01*
X152887015Y-81662483D01*
X152887016Y-81662487D01*
X152959491Y-81788015D01*
X153061985Y-81890509D01*
X153107930Y-81917035D01*
X153187512Y-81962983D01*
X153187514Y-81962983D01*
X153187515Y-81962984D01*
X153222517Y-81972363D01*
X153327522Y-82000500D01*
X153327525Y-82000500D01*
X153472477Y-82000500D01*
X153542480Y-81981742D01*
X153612485Y-81962984D01*
X153738015Y-81890509D01*
X153840509Y-81788015D01*
X153912984Y-81662485D01*
X153941919Y-81554499D01*
X153950500Y-81522477D01*
X153950500Y-81377522D01*
X153922363Y-81272517D01*
X153912984Y-81237515D01*
X153912983Y-81237514D01*
X153912983Y-81237512D01*
X153840508Y-81111984D01*
X153738015Y-81009491D01*
X153612487Y-80937016D01*
X153612483Y-80937015D01*
X153472478Y-80899500D01*
X153472475Y-80899500D01*
X153415478Y-80899500D01*
X153380830Y-80885148D01*
X149914852Y-77419170D01*
X149900500Y-77384522D01*
X149900500Y-69348320D01*
X149914852Y-69313672D01*
X149990508Y-69238016D01*
X149990509Y-69238015D01*
X150062984Y-69112485D01*
X150095862Y-68989784D01*
X150100500Y-68972477D01*
X150100500Y-68827522D01*
X150062984Y-68687516D01*
X150062983Y-68687512D01*
X149990508Y-68561984D01*
X149888015Y-68459491D01*
X149762487Y-68387016D01*
X149762483Y-68387015D01*
X149622478Y-68349500D01*
X149622475Y-68349500D01*
X149477525Y-68349500D01*
X149477522Y-68349500D01*
X149337516Y-68387015D01*
X149337512Y-68387016D01*
X149211984Y-68459491D01*
X149211984Y-68459492D01*
X149109492Y-68561984D01*
X149109491Y-68561984D01*
X149037016Y-68687512D01*
X149037015Y-68687516D01*
X148999500Y-68827522D01*
X146418160Y-68827522D01*
X147730830Y-67514852D01*
X147765478Y-67500500D01*
X155534522Y-67500500D01*
X155569170Y-67514852D01*
X155985148Y-67930830D01*
X155999500Y-67965478D01*
X155999500Y-68072477D01*
X156037015Y-68212483D01*
X156037016Y-68212487D01*
X156105296Y-68330749D01*
X156109491Y-68338015D01*
X156211985Y-68440509D01*
X156253901Y-68464709D01*
X156337512Y-68512983D01*
X156337514Y-68512983D01*
X156337515Y-68512984D01*
X156372517Y-68522363D01*
X156477522Y-68550500D01*
X156477525Y-68550500D01*
X156622477Y-68550500D01*
X156692480Y-68531742D01*
X156762485Y-68512984D01*
X156888015Y-68440509D01*
X156990509Y-68338015D01*
X157062984Y-68212485D01*
X157082265Y-68140524D01*
X157105095Y-68110773D01*
X157142277Y-68105878D01*
X157164243Y-68118560D01*
X158185148Y-69139465D01*
X158199500Y-69174113D01*
X158199500Y-75081289D01*
X158185148Y-75115937D01*
X158150500Y-75130289D01*
X158115852Y-75115937D01*
X158108067Y-75105793D01*
X158100500Y-75092686D01*
X158007314Y-74999500D01*
X157893188Y-74933608D01*
X157893184Y-74933607D01*
X157765895Y-74899500D01*
X157765892Y-74899500D01*
X157634108Y-74899500D01*
X157634105Y-74899500D01*
X157506815Y-74933607D01*
X157506811Y-74933608D01*
X157392685Y-74999500D01*
X157392685Y-74999501D01*
X157384148Y-75008038D01*
X157349500Y-75022390D01*
X157314852Y-75008038D01*
X157300500Y-74973390D01*
X157300500Y-70927610D01*
X157314852Y-70892962D01*
X157400499Y-70807315D01*
X157400500Y-70807314D01*
X157466392Y-70693186D01*
X157500499Y-70565895D01*
X157500500Y-70565895D01*
X157500500Y-70434105D01*
X157500499Y-70434104D01*
X157466392Y-70306815D01*
X157466391Y-70306811D01*
X157400499Y-70192685D01*
X157307314Y-70099500D01*
X157193188Y-70033608D01*
X157193184Y-70033607D01*
X157065895Y-69999500D01*
X157065892Y-69999500D01*
X156934108Y-69999500D01*
X156934105Y-69999500D01*
X156806815Y-70033607D01*
X156806811Y-70033608D01*
X156692685Y-70099500D01*
X156692685Y-70099501D01*
X156599501Y-70192685D01*
X156599500Y-70192685D01*
X156533608Y-70306811D01*
X156533607Y-70306815D01*
X156499500Y-70434104D01*
X156499500Y-70565895D01*
X156533607Y-70693184D01*
X156533608Y-70693188D01*
X156599500Y-70807314D01*
X156685148Y-70892962D01*
X156699500Y-70927610D01*
X156699500Y-79776910D01*
X156685148Y-79811558D01*
X156650500Y-79825910D01*
X156615852Y-79811558D01*
X156608065Y-79801410D01*
X156565499Y-79727685D01*
X156472314Y-79634500D01*
X156358188Y-79568608D01*
X156358184Y-79568607D01*
X156230895Y-79534500D01*
X156230892Y-79534500D01*
X156099108Y-79534500D01*
X156099105Y-79534500D01*
X155971815Y-79568607D01*
X155971811Y-79568608D01*
X155857685Y-79634500D01*
X155857685Y-79634501D01*
X155764501Y-79727685D01*
X155764500Y-79727685D01*
X155698608Y-79841811D01*
X155698607Y-79841815D01*
X155664500Y-79969104D01*
X155664500Y-80100895D01*
X155698607Y-80228184D01*
X155698608Y-80228188D01*
X155764500Y-80342314D01*
X155785148Y-80362962D01*
X155799500Y-80397610D01*
X155799500Y-105405232D01*
X155785148Y-105439880D01*
X152089880Y-109135148D01*
X152055232Y-109149500D01*
X151934105Y-109149500D01*
X151806815Y-109183607D01*
X151806811Y-109183608D01*
X151692685Y-109249500D01*
X151599501Y-109342685D01*
X151599500Y-109342685D01*
X151533608Y-109456811D01*
X151533607Y-109456815D01*
X151499500Y-109584104D01*
X151499500Y-109715895D01*
X151533607Y-109843184D01*
X151533608Y-109843188D01*
X151583742Y-109930021D01*
X151599500Y-109957314D01*
X151692686Y-110050500D01*
X151704490Y-110057315D01*
X151806811Y-110116391D01*
X151806813Y-110116391D01*
X151806814Y-110116392D01*
X151907207Y-110143292D01*
X151934104Y-110150499D01*
X151934105Y-110150500D01*
X151934108Y-110150500D01*
X152065895Y-110150500D01*
X152065895Y-110150499D01*
X152193186Y-110116392D01*
X152307314Y-110050500D01*
X152400500Y-109957314D01*
X152466392Y-109843186D01*
X152500499Y-109715895D01*
X152500500Y-109715895D01*
X152500500Y-109594766D01*
X152514852Y-109560118D01*
X154296661Y-107778309D01*
X156340460Y-105734511D01*
X156380022Y-105665988D01*
X156400499Y-105589565D01*
X156400500Y-105589565D01*
X156400500Y-80505251D01*
X156414852Y-80470603D01*
X156424997Y-80462817D01*
X156472314Y-80435500D01*
X156565500Y-80342314D01*
X156608065Y-80268588D01*
X156637818Y-80245759D01*
X156675000Y-80250654D01*
X156697830Y-80280407D01*
X156699500Y-80293089D01*
X156699500Y-109222390D01*
X156685148Y-109257038D01*
X156599501Y-109342685D01*
X156599500Y-109342685D01*
X156533608Y-109456811D01*
X156533607Y-109456815D01*
X156499500Y-109584104D01*
X156499500Y-109715895D01*
X156533607Y-109843184D01*
X156533608Y-109843188D01*
X156583742Y-109930021D01*
X156599500Y-109957314D01*
X156692686Y-110050500D01*
X156704490Y-110057315D01*
X156806811Y-110116391D01*
X156806813Y-110116391D01*
X156806814Y-110116392D01*
X156907207Y-110143292D01*
X156934104Y-110150499D01*
X156934105Y-110150500D01*
X156934108Y-110150500D01*
X157065895Y-110150500D01*
X157065895Y-110150499D01*
X157193186Y-110116392D01*
X157307314Y-110050500D01*
X157400500Y-109957314D01*
X157466392Y-109843186D01*
X157500499Y-109715895D01*
X157500500Y-109715895D01*
X157500500Y-109584105D01*
X157500499Y-109584104D01*
X157466392Y-109456815D01*
X157466391Y-109456811D01*
X157424617Y-109384457D01*
X157400500Y-109342686D01*
X157314852Y-109257038D01*
X157300500Y-109222390D01*
X157300500Y-75826610D01*
X157314852Y-75791962D01*
X157349500Y-75777610D01*
X157384148Y-75791962D01*
X157385148Y-75792962D01*
X157399500Y-75827610D01*
X157399500Y-105489563D01*
X157419978Y-105565987D01*
X157419979Y-105565991D01*
X157424553Y-105573913D01*
X157424558Y-105573919D01*
X157459537Y-105634507D01*
X157459542Y-105634513D01*
X161485148Y-109660119D01*
X161499500Y-109694767D01*
X161499500Y-109815895D01*
X161533607Y-109943184D01*
X161533608Y-109943188D01*
X161566698Y-110000500D01*
X161599500Y-110057314D01*
X161692686Y-110150500D01*
X161734457Y-110174617D01*
X161806811Y-110216391D01*
X161806813Y-110216391D01*
X161806814Y-110216392D01*
X161907207Y-110243292D01*
X161934104Y-110250499D01*
X161934105Y-110250500D01*
X161934108Y-110250500D01*
X162065895Y-110250500D01*
X162065895Y-110250499D01*
X162193186Y-110216392D01*
X162307314Y-110150500D01*
X162400500Y-110057314D01*
X162466392Y-109943186D01*
X162500499Y-109815895D01*
X162500500Y-109815895D01*
X162500500Y-109684105D01*
X162500499Y-109684104D01*
X162476243Y-109593578D01*
X162473704Y-109584104D01*
X166499500Y-109584104D01*
X166499500Y-109715895D01*
X166533607Y-109843184D01*
X166533608Y-109843188D01*
X166583742Y-109930021D01*
X166599500Y-109957314D01*
X166692686Y-110050500D01*
X166704490Y-110057315D01*
X166806811Y-110116391D01*
X166806813Y-110116391D01*
X166806814Y-110116392D01*
X166907207Y-110143292D01*
X166934104Y-110150499D01*
X166934105Y-110150500D01*
X166934108Y-110150500D01*
X167065895Y-110150500D01*
X167065895Y-110150499D01*
X167193186Y-110116392D01*
X167307314Y-110050500D01*
X167342962Y-110014852D01*
X167377610Y-110000500D01*
X169589564Y-110000500D01*
X169616230Y-109993354D01*
X169665989Y-109980021D01*
X169734511Y-109940460D01*
X169790460Y-109884511D01*
X172460119Y-107214852D01*
X172494767Y-107200500D01*
X180139564Y-107200500D01*
X180166230Y-107193354D01*
X180215989Y-107180021D01*
X180284511Y-107140460D01*
X180340460Y-107084511D01*
X184090460Y-103334511D01*
X184090699Y-103334099D01*
X184130020Y-103265991D01*
X184130020Y-103265990D01*
X184130021Y-103265989D01*
X184150500Y-103189562D01*
X184150500Y-100726535D01*
X184409500Y-100726535D01*
X184409500Y-100933465D01*
X184436290Y-101068150D01*
X184449869Y-101136417D01*
X184449871Y-101136423D01*
X184529058Y-101327596D01*
X184612043Y-101451794D01*
X184644023Y-101499655D01*
X184790345Y-101645977D01*
X184962402Y-101760941D01*
X185153580Y-101840130D01*
X185356535Y-101880500D01*
X185356538Y-101880500D01*
X185563462Y-101880500D01*
X185563465Y-101880500D01*
X185766420Y-101840130D01*
X185957598Y-101760941D01*
X186129655Y-101645977D01*
X186275977Y-101499655D01*
X186390941Y-101327598D01*
X186470130Y-101136420D01*
X186510500Y-100933465D01*
X186510500Y-100726535D01*
X186470130Y-100523580D01*
X186390941Y-100332402D01*
X186275977Y-100160345D01*
X186129655Y-100014023D01*
X185957598Y-99899059D01*
X185957596Y-99899058D01*
X185766423Y-99819871D01*
X185766417Y-99819869D01*
X185684572Y-99803589D01*
X185563465Y-99779500D01*
X185356535Y-99779500D01*
X185255520Y-99799592D01*
X185153582Y-99819869D01*
X185153576Y-99819871D01*
X184962403Y-99899058D01*
X184790345Y-100014022D01*
X184644022Y-100160345D01*
X184529058Y-100332403D01*
X184449871Y-100523576D01*
X184449869Y-100523582D01*
X184441434Y-100565989D01*
X184409500Y-100726535D01*
X184150500Y-100726535D01*
X184150500Y-98186535D01*
X184409500Y-98186535D01*
X184409500Y-98393465D01*
X184436290Y-98528150D01*
X184449869Y-98596417D01*
X184449871Y-98596423D01*
X184522322Y-98771333D01*
X184529059Y-98787598D01*
X184580069Y-98863940D01*
X184636379Y-98948216D01*
X184644023Y-98959655D01*
X184790345Y-99105977D01*
X184962402Y-99220941D01*
X185153580Y-99300130D01*
X185356535Y-99340500D01*
X185356538Y-99340500D01*
X185563462Y-99340500D01*
X185563465Y-99340500D01*
X185766420Y-99300130D01*
X185957598Y-99220941D01*
X186129655Y-99105977D01*
X186275977Y-98959655D01*
X186390941Y-98787598D01*
X186470130Y-98596420D01*
X186510500Y-98393465D01*
X186510500Y-98186535D01*
X186470130Y-97983580D01*
X186390941Y-97792402D01*
X186275977Y-97620345D01*
X186129655Y-97474023D01*
X185957598Y-97359059D01*
X185953388Y-97357315D01*
X185766423Y-97279871D01*
X185766417Y-97279869D01*
X185684572Y-97263589D01*
X185563465Y-97239500D01*
X185356535Y-97239500D01*
X185255520Y-97259592D01*
X185153582Y-97279869D01*
X185153576Y-97279871D01*
X184962403Y-97359058D01*
X184790345Y-97474022D01*
X184644022Y-97620345D01*
X184529058Y-97792403D01*
X184449871Y-97983576D01*
X184449869Y-97983582D01*
X184429592Y-98085520D01*
X184409500Y-98186535D01*
X184150500Y-98186535D01*
X184150500Y-94880252D01*
X184409500Y-94880252D01*
X184409500Y-96619748D01*
X184421133Y-96678231D01*
X184436013Y-96700500D01*
X184465447Y-96744552D01*
X184492012Y-96762301D01*
X184531769Y-96788867D01*
X184590252Y-96800500D01*
X184590255Y-96800500D01*
X186329745Y-96800500D01*
X186329748Y-96800500D01*
X186388231Y-96788867D01*
X186454552Y-96744552D01*
X186498867Y-96678231D01*
X186510500Y-96619748D01*
X186510500Y-94880252D01*
X186498867Y-94821769D01*
X186461864Y-94766391D01*
X186454552Y-94755447D01*
X186407477Y-94723993D01*
X186388231Y-94711133D01*
X186329748Y-94699500D01*
X184590252Y-94699500D01*
X184540411Y-94709414D01*
X184531769Y-94711133D01*
X184465447Y-94755447D01*
X184425755Y-94814852D01*
X184421133Y-94821769D01*
X184409500Y-94880252D01*
X184150500Y-94880252D01*
X184150500Y-88380252D01*
X184409500Y-88380252D01*
X184409500Y-90119748D01*
X184421133Y-90178231D01*
X184436769Y-90201631D01*
X184465447Y-90244552D01*
X184492012Y-90262301D01*
X184531769Y-90288867D01*
X184590252Y-90300500D01*
X184590255Y-90300500D01*
X186329745Y-90300500D01*
X186329748Y-90300500D01*
X186388231Y-90288867D01*
X186454552Y-90244552D01*
X186498867Y-90178231D01*
X186510500Y-90119748D01*
X186510500Y-89143753D01*
X186650000Y-89143753D01*
X186650000Y-89356246D01*
X186683241Y-89566123D01*
X186683242Y-89566126D01*
X186748905Y-89768218D01*
X186845378Y-89957556D01*
X186845380Y-89957560D01*
X186884727Y-90011716D01*
X186884728Y-90011716D01*
X187517036Y-89379407D01*
X187534075Y-89442993D01*
X187599901Y-89557007D01*
X187692993Y-89650099D01*
X187807007Y-89715925D01*
X187870591Y-89732962D01*
X187238281Y-90365271D01*
X187292440Y-90404619D01*
X187292443Y-90404621D01*
X187481781Y-90501094D01*
X187683873Y-90566757D01*
X187683876Y-90566758D01*
X187893754Y-90600000D01*
X188106246Y-90600000D01*
X188316123Y-90566758D01*
X188316126Y-90566757D01*
X188518218Y-90501094D01*
X188707553Y-90404622D01*
X188761717Y-90365271D01*
X188129408Y-89732962D01*
X188192993Y-89715925D01*
X188307007Y-89650099D01*
X188400099Y-89557007D01*
X188465925Y-89442993D01*
X188482962Y-89379408D01*
X189115271Y-90011717D01*
X189154622Y-89957553D01*
X189251094Y-89768218D01*
X189316757Y-89566126D01*
X189316758Y-89566123D01*
X189350000Y-89356246D01*
X189350000Y-89143753D01*
X189316758Y-88933876D01*
X189316757Y-88933873D01*
X189251094Y-88731781D01*
X189154621Y-88542443D01*
X189154619Y-88542440D01*
X189115271Y-88488281D01*
X188482962Y-89120590D01*
X188465925Y-89057007D01*
X188400099Y-88942993D01*
X188307007Y-88849901D01*
X188192993Y-88784075D01*
X188129407Y-88767036D01*
X188761716Y-88134728D01*
X188761716Y-88134727D01*
X188707560Y-88095380D01*
X188707556Y-88095378D01*
X188518218Y-87998905D01*
X188316126Y-87933242D01*
X188316123Y-87933241D01*
X188106246Y-87900000D01*
X187893754Y-87900000D01*
X187683876Y-87933241D01*
X187683873Y-87933242D01*
X187481781Y-87998905D01*
X187292447Y-88095376D01*
X187292442Y-88095379D01*
X187238282Y-88134727D01*
X187238282Y-88134728D01*
X187870591Y-88767037D01*
X187807007Y-88784075D01*
X187692993Y-88849901D01*
X187599901Y-88942993D01*
X187534075Y-89057007D01*
X187517037Y-89120591D01*
X186884728Y-88488282D01*
X186884727Y-88488282D01*
X186845379Y-88542442D01*
X186845376Y-88542447D01*
X186748905Y-88731781D01*
X186683242Y-88933873D01*
X186683241Y-88933876D01*
X186650000Y-89143753D01*
X186510500Y-89143753D01*
X186510500Y-88380252D01*
X186498867Y-88321769D01*
X186464824Y-88270821D01*
X186454552Y-88255447D01*
X186414734Y-88228842D01*
X186388231Y-88211133D01*
X186329748Y-88199500D01*
X184590252Y-88199500D01*
X184531769Y-88211133D01*
X184465447Y-88255447D01*
X184422815Y-88319252D01*
X184421133Y-88321769D01*
X184409500Y-88380252D01*
X184150500Y-88380252D01*
X184150500Y-85060438D01*
X184150500Y-85060436D01*
X184135203Y-85003351D01*
X184130021Y-84984011D01*
X184130020Y-84984009D01*
X184130020Y-84984008D01*
X184090459Y-84915488D01*
X183334513Y-84159542D01*
X183334511Y-84159540D01*
X183320812Y-84151631D01*
X183265991Y-84119979D01*
X183265987Y-84119978D01*
X183189564Y-84099500D01*
X183189562Y-84099500D01*
X182352610Y-84099500D01*
X182317962Y-84085148D01*
X182232314Y-83999500D01*
X182118188Y-83933608D01*
X182118184Y-83933607D01*
X181990895Y-83899500D01*
X181990892Y-83899500D01*
X181859108Y-83899500D01*
X181859105Y-83899500D01*
X181731815Y-83933607D01*
X181731811Y-83933608D01*
X181617685Y-83999500D01*
X181617685Y-83999501D01*
X181524501Y-84092685D01*
X181524500Y-84092685D01*
X181458608Y-84206811D01*
X181458607Y-84206815D01*
X181424500Y-84334104D01*
X181424500Y-84465895D01*
X181458607Y-84593184D01*
X181458608Y-84593188D01*
X181520566Y-84700500D01*
X181524500Y-84707314D01*
X181617686Y-84800500D01*
X181620442Y-84802091D01*
X181731811Y-84866391D01*
X181731813Y-84866391D01*
X181731814Y-84866392D01*
X181832207Y-84893292D01*
X181859104Y-84900499D01*
X181859105Y-84900500D01*
X181859108Y-84900500D01*
X181990895Y-84900500D01*
X181990895Y-84900499D01*
X182118186Y-84866392D01*
X182232314Y-84800500D01*
X182317962Y-84714852D01*
X182352610Y-84700500D01*
X183005233Y-84700500D01*
X183039881Y-84714852D01*
X183535148Y-85210119D01*
X183549500Y-85244767D01*
X183549500Y-103005233D01*
X183535148Y-103039881D01*
X179989881Y-106585148D01*
X179955233Y-106599500D01*
X172310436Y-106599500D01*
X172234010Y-106619979D01*
X172234008Y-106619979D01*
X172165488Y-106659540D01*
X172165488Y-106659541D01*
X169439881Y-109385148D01*
X169405233Y-109399500D01*
X167461592Y-109399500D01*
X167426944Y-109385148D01*
X167419157Y-109375000D01*
X167400503Y-109342691D01*
X167400502Y-109342690D01*
X167400500Y-109342686D01*
X167307314Y-109249500D01*
X167193188Y-109183608D01*
X167193184Y-109183607D01*
X167065895Y-109149500D01*
X167065892Y-109149500D01*
X166934108Y-109149500D01*
X166934105Y-109149500D01*
X166806815Y-109183607D01*
X166806811Y-109183608D01*
X166692685Y-109249500D01*
X166599501Y-109342685D01*
X166599500Y-109342685D01*
X166533608Y-109456811D01*
X166533607Y-109456815D01*
X166499500Y-109584104D01*
X162473704Y-109584104D01*
X162466392Y-109556814D01*
X162466391Y-109556811D01*
X162400499Y-109442685D01*
X162307314Y-109349500D01*
X162193188Y-109283608D01*
X162193184Y-109283607D01*
X162065895Y-109249500D01*
X162065892Y-109249500D01*
X161944767Y-109249500D01*
X161910119Y-109235148D01*
X158014852Y-105339881D01*
X158000500Y-105305233D01*
X158000500Y-103784104D01*
X165199500Y-103784104D01*
X165199500Y-103915895D01*
X165233607Y-104043184D01*
X165233608Y-104043188D01*
X165299500Y-104157314D01*
X165392686Y-104250500D01*
X165434312Y-104274533D01*
X165506811Y-104316391D01*
X165506813Y-104316391D01*
X165506814Y-104316392D01*
X165572932Y-104334108D01*
X165634104Y-104350499D01*
X165634105Y-104350500D01*
X165634108Y-104350500D01*
X165765895Y-104350500D01*
X165765895Y-104350499D01*
X165893186Y-104316392D01*
X166007314Y-104250500D01*
X166100500Y-104157314D01*
X166166392Y-104043186D01*
X166200499Y-103915895D01*
X166200500Y-103915895D01*
X166200500Y-103784105D01*
X166200499Y-103784104D01*
X166193292Y-103757207D01*
X166166392Y-103656814D01*
X166166391Y-103656813D01*
X166166391Y-103656811D01*
X166100499Y-103542685D01*
X166007314Y-103449500D01*
X165893188Y-103383608D01*
X165893184Y-103383607D01*
X165765895Y-103349500D01*
X165765892Y-103349500D01*
X165634108Y-103349500D01*
X165634105Y-103349500D01*
X165506815Y-103383607D01*
X165506811Y-103383608D01*
X165392685Y-103449500D01*
X165392685Y-103449501D01*
X165299501Y-103542685D01*
X165299500Y-103542685D01*
X165233608Y-103656811D01*
X165233607Y-103656815D01*
X165199500Y-103784104D01*
X158000500Y-103784104D01*
X158000500Y-75827610D01*
X158014852Y-75792962D01*
X158030204Y-75777610D01*
X158100500Y-75707314D01*
X158108066Y-75694209D01*
X158137817Y-75671380D01*
X158175000Y-75676275D01*
X158197830Y-75706027D01*
X158199500Y-75718710D01*
X158199500Y-87039563D01*
X158219978Y-87115987D01*
X158219979Y-87115991D01*
X158245256Y-87159770D01*
X158245257Y-87159771D01*
X158259537Y-87184507D01*
X158259542Y-87184513D01*
X161435148Y-90360119D01*
X161449500Y-90394767D01*
X161449500Y-90515895D01*
X161483607Y-90643184D01*
X161483608Y-90643188D01*
X161539215Y-90739500D01*
X161549500Y-90757314D01*
X161642686Y-90850500D01*
X161657509Y-90859058D01*
X161756811Y-90916391D01*
X161756813Y-90916391D01*
X161756814Y-90916392D01*
X161857207Y-90943292D01*
X161884104Y-90950499D01*
X161884105Y-90950500D01*
X161884108Y-90950500D01*
X162015895Y-90950500D01*
X162015895Y-90950499D01*
X162143186Y-90916392D01*
X162257314Y-90850500D01*
X162342962Y-90764852D01*
X162377610Y-90750500D01*
X169055233Y-90750500D01*
X169089881Y-90764852D01*
X170440881Y-92115852D01*
X170455233Y-92150500D01*
X170440881Y-92185148D01*
X170406233Y-92199500D01*
X163777610Y-92199500D01*
X163742962Y-92185148D01*
X163657314Y-92099500D01*
X163543188Y-92033608D01*
X163543184Y-92033607D01*
X163415895Y-91999500D01*
X163415892Y-91999500D01*
X163284108Y-91999500D01*
X163284105Y-91999500D01*
X163156815Y-92033607D01*
X163156811Y-92033608D01*
X163042685Y-92099500D01*
X163042685Y-92099501D01*
X162949501Y-92192685D01*
X162949500Y-92192685D01*
X162883608Y-92306811D01*
X162883607Y-92306815D01*
X162849500Y-92434104D01*
X162849500Y-92565895D01*
X162883607Y-92693184D01*
X162883608Y-92693188D01*
X162949500Y-92807314D01*
X163008038Y-92865852D01*
X163022390Y-92900500D01*
X163008038Y-92935148D01*
X162973390Y-92949500D01*
X162827610Y-92949500D01*
X162792962Y-92935148D01*
X162707314Y-92849500D01*
X162593188Y-92783608D01*
X162593184Y-92783607D01*
X162465895Y-92749500D01*
X162465892Y-92749500D01*
X162334108Y-92749500D01*
X162334105Y-92749500D01*
X162206815Y-92783607D01*
X162206811Y-92783608D01*
X162092685Y-92849500D01*
X161999501Y-92942685D01*
X161999500Y-92942685D01*
X161933608Y-93056811D01*
X161933607Y-93056815D01*
X161899500Y-93184104D01*
X161899500Y-93315895D01*
X161933607Y-93443184D01*
X161933608Y-93443188D01*
X161980555Y-93524501D01*
X161999500Y-93557314D01*
X162092686Y-93650500D01*
X162134457Y-93674617D01*
X162206811Y-93716391D01*
X162206813Y-93716391D01*
X162206814Y-93716392D01*
X162264374Y-93731815D01*
X162334104Y-93750499D01*
X162334105Y-93750500D01*
X162334108Y-93750500D01*
X162465895Y-93750500D01*
X162465895Y-93750499D01*
X162593186Y-93716392D01*
X162707314Y-93650500D01*
X162792962Y-93564852D01*
X162827610Y-93550500D01*
X170180233Y-93550500D01*
X170214881Y-93564852D01*
X172885148Y-96235119D01*
X172899500Y-96269767D01*
X172899500Y-96390895D01*
X172933607Y-96518184D01*
X172933608Y-96518188D01*
X172999500Y-96632314D01*
X173033038Y-96665852D01*
X173047390Y-96700500D01*
X173033038Y-96735148D01*
X172998390Y-96749500D01*
X170194767Y-96749500D01*
X170160119Y-96735148D01*
X167814852Y-94389881D01*
X167800500Y-94355233D01*
X167800500Y-94234105D01*
X167800499Y-94234104D01*
X167789401Y-94192685D01*
X167766392Y-94106814D01*
X167766391Y-94106813D01*
X167766391Y-94106811D01*
X167714034Y-94016128D01*
X167700500Y-93992686D01*
X167607314Y-93899500D01*
X167493188Y-93833608D01*
X167493184Y-93833607D01*
X167365895Y-93799500D01*
X167365892Y-93799500D01*
X167234108Y-93799500D01*
X167234105Y-93799500D01*
X167106815Y-93833607D01*
X167106811Y-93833608D01*
X166992685Y-93899500D01*
X166992685Y-93899501D01*
X166899501Y-93992685D01*
X166899500Y-93992685D01*
X166833608Y-94106811D01*
X166833607Y-94106815D01*
X166799500Y-94234104D01*
X166799500Y-94365895D01*
X166833607Y-94493184D01*
X166833608Y-94493188D01*
X166892608Y-94595377D01*
X166899500Y-94607314D01*
X166992686Y-94700500D01*
X167033377Y-94723993D01*
X167106811Y-94766391D01*
X167106813Y-94766391D01*
X167106814Y-94766392D01*
X167187375Y-94787978D01*
X167234104Y-94800499D01*
X167234105Y-94800500D01*
X167355233Y-94800500D01*
X167389881Y-94814852D01*
X169809540Y-97234511D01*
X169865489Y-97290460D01*
X169934011Y-97330021D01*
X169969478Y-97339524D01*
X170010436Y-97350500D01*
X170010438Y-97350500D01*
X175122390Y-97350500D01*
X175157038Y-97364852D01*
X175242686Y-97450500D01*
X175283427Y-97474022D01*
X175356811Y-97516391D01*
X175356813Y-97516391D01*
X175356814Y-97516392D01*
X175457207Y-97543292D01*
X175484104Y-97550499D01*
X175484105Y-97550500D01*
X175484108Y-97550500D01*
X175615895Y-97550500D01*
X175615895Y-97550499D01*
X175743186Y-97516392D01*
X175857314Y-97450500D01*
X175950500Y-97357314D01*
X176016392Y-97243186D01*
X176050499Y-97115895D01*
X176050500Y-97115895D01*
X176050500Y-96984105D01*
X176050499Y-96984104D01*
X176043292Y-96957207D01*
X176016392Y-96856814D01*
X176016391Y-96856813D01*
X176016391Y-96856811D01*
X175974617Y-96784457D01*
X175950500Y-96742686D01*
X175857314Y-96649500D01*
X175827549Y-96632315D01*
X175743188Y-96583608D01*
X175743184Y-96583607D01*
X175615895Y-96549500D01*
X175615892Y-96549500D01*
X175484108Y-96549500D01*
X175484105Y-96549500D01*
X175356815Y-96583607D01*
X175356811Y-96583608D01*
X175242685Y-96649500D01*
X175242685Y-96649501D01*
X175157038Y-96735148D01*
X175122390Y-96749500D01*
X173801610Y-96749500D01*
X173766962Y-96735148D01*
X173752610Y-96700500D01*
X173766962Y-96665852D01*
X173800499Y-96632315D01*
X173800500Y-96632314D01*
X173866392Y-96518186D01*
X173900499Y-96390895D01*
X173900500Y-96390895D01*
X173900500Y-96389881D01*
X173900695Y-96389408D01*
X173900919Y-96387711D01*
X173901374Y-96387770D01*
X173914852Y-96355233D01*
X173949500Y-96340881D01*
X173973997Y-96347444D01*
X174006814Y-96366392D01*
X174086599Y-96387770D01*
X174134104Y-96400499D01*
X174134105Y-96400500D01*
X174134108Y-96400500D01*
X174265895Y-96400500D01*
X174265895Y-96400499D01*
X174393186Y-96366392D01*
X174507314Y-96300500D01*
X174600500Y-96207314D01*
X174666392Y-96093186D01*
X174700499Y-95965895D01*
X174700500Y-95965895D01*
X174700500Y-95834105D01*
X174700499Y-95834104D01*
X174693292Y-95807207D01*
X174666392Y-95706814D01*
X174666391Y-95706813D01*
X174666391Y-95706811D01*
X174600499Y-95592685D01*
X174507314Y-95499500D01*
X174393188Y-95433608D01*
X174393184Y-95433607D01*
X174265895Y-95399500D01*
X174265892Y-95399500D01*
X174134108Y-95399500D01*
X174134105Y-95399500D01*
X174006815Y-95433607D01*
X174006811Y-95433608D01*
X173897814Y-95496539D01*
X173860632Y-95501434D01*
X173838666Y-95488752D01*
X173207188Y-94857274D01*
X173192836Y-94822626D01*
X173207188Y-94787978D01*
X173229154Y-94775296D01*
X173279203Y-94761885D01*
X173355686Y-94741392D01*
X173469814Y-94675500D01*
X173563000Y-94582314D01*
X173628892Y-94468186D01*
X173662999Y-94340895D01*
X173663000Y-94340895D01*
X173663000Y-94209105D01*
X173635591Y-94106815D01*
X173629388Y-94083665D01*
X173634283Y-94046485D01*
X173664036Y-94023655D01*
X173701218Y-94028550D01*
X173711366Y-94036337D01*
X173959540Y-94284511D01*
X174015489Y-94340460D01*
X174084011Y-94380021D01*
X174119478Y-94389524D01*
X174160436Y-94400500D01*
X174160438Y-94400500D01*
X174950500Y-94400500D01*
X174985148Y-94414852D01*
X174999500Y-94449500D01*
X174999500Y-94565895D01*
X175033607Y-94693184D01*
X175033608Y-94693188D01*
X175081014Y-94775296D01*
X175099500Y-94807314D01*
X175192686Y-94900500D01*
X175234457Y-94924617D01*
X175306811Y-94966391D01*
X175306813Y-94966391D01*
X175306814Y-94966392D01*
X175407207Y-94993292D01*
X175434104Y-95000499D01*
X175434105Y-95000500D01*
X175434108Y-95000500D01*
X175565895Y-95000500D01*
X175565895Y-95000499D01*
X175693186Y-94966392D01*
X175807314Y-94900500D01*
X175900500Y-94807314D01*
X175966392Y-94693186D01*
X176000499Y-94565895D01*
X176000500Y-94565895D01*
X176000500Y-94434105D01*
X176000499Y-94434104D01*
X175991361Y-94400000D01*
X175966392Y-94306814D01*
X175966391Y-94306813D01*
X175966391Y-94306811D01*
X175909981Y-94209108D01*
X175900500Y-94192686D01*
X175807314Y-94099500D01*
X175779891Y-94083667D01*
X175693188Y-94033608D01*
X175693184Y-94033607D01*
X175565895Y-93999500D01*
X175565892Y-93999500D01*
X175444767Y-93999500D01*
X175410119Y-93985148D01*
X175284512Y-93859540D01*
X175284511Y-93859539D01*
X175283766Y-93859109D01*
X175215990Y-93819979D01*
X175139564Y-93799500D01*
X175139562Y-93799500D01*
X174344767Y-93799500D01*
X174310119Y-93785148D01*
X170860917Y-90335946D01*
X170846565Y-90301298D01*
X170860917Y-90266650D01*
X170882882Y-90253968D01*
X170960078Y-90233284D01*
X171074206Y-90167392D01*
X171167392Y-90074206D01*
X171233284Y-89960078D01*
X171267391Y-89832787D01*
X171267392Y-89832787D01*
X171267392Y-89700997D01*
X171267391Y-89700996D01*
X171253753Y-89650099D01*
X171233284Y-89573706D01*
X171233283Y-89573705D01*
X171233283Y-89573703D01*
X171191509Y-89501349D01*
X171167392Y-89459578D01*
X171074206Y-89366392D01*
X171056633Y-89356246D01*
X170960080Y-89300500D01*
X170960076Y-89300499D01*
X170832787Y-89266392D01*
X170832784Y-89266392D01*
X170811659Y-89266392D01*
X170777011Y-89252040D01*
X162814852Y-81289881D01*
X162800500Y-81255233D01*
X162800500Y-60777610D01*
X162814852Y-60742962D01*
X162900499Y-60657315D01*
X162900500Y-60657314D01*
X162966392Y-60543186D01*
X163000499Y-60415895D01*
X163000500Y-60415895D01*
X163000500Y-60284105D01*
X163000499Y-60284104D01*
X166999500Y-60284104D01*
X166999500Y-60415895D01*
X167033607Y-60543184D01*
X167033608Y-60543188D01*
X167099500Y-60657314D01*
X167185148Y-60742962D01*
X167199500Y-60777610D01*
X167199500Y-84989563D01*
X167219979Y-85065989D01*
X167219979Y-85065991D01*
X167259540Y-85134511D01*
X170510148Y-88385119D01*
X170524500Y-88419767D01*
X170524500Y-88540895D01*
X170558607Y-88668184D01*
X170558608Y-88668188D01*
X170605843Y-88750000D01*
X170624500Y-88782314D01*
X170717686Y-88875500D01*
X170748795Y-88893461D01*
X170831811Y-88941391D01*
X170831813Y-88941391D01*
X170831814Y-88941392D01*
X170879727Y-88954230D01*
X170959104Y-88975499D01*
X170959105Y-88975500D01*
X170959108Y-88975500D01*
X171090895Y-88975500D01*
X171090895Y-88975499D01*
X171218186Y-88941392D01*
X171332314Y-88875500D01*
X171425500Y-88782314D01*
X171491392Y-88668186D01*
X171525499Y-88540895D01*
X171525500Y-88540895D01*
X171525500Y-88409105D01*
X171525499Y-88409104D01*
X171501423Y-88319252D01*
X171491392Y-88281814D01*
X171491391Y-88281813D01*
X171491391Y-88281811D01*
X171425499Y-88167685D01*
X171332314Y-88074500D01*
X171218188Y-88008608D01*
X171218184Y-88008607D01*
X171090895Y-87974500D01*
X171090892Y-87974500D01*
X170969767Y-87974500D01*
X170935119Y-87960148D01*
X167814852Y-84839881D01*
X167800500Y-84805233D01*
X167800500Y-83184104D01*
X170599500Y-83184104D01*
X170599500Y-83315895D01*
X170633607Y-83443184D01*
X170633608Y-83443188D01*
X170697781Y-83554337D01*
X170699500Y-83557314D01*
X170792686Y-83650500D01*
X170834457Y-83674617D01*
X170906811Y-83716391D01*
X170906813Y-83716391D01*
X170906814Y-83716392D01*
X171007207Y-83743292D01*
X171034104Y-83750499D01*
X171034105Y-83750500D01*
X171034108Y-83750500D01*
X171165895Y-83750500D01*
X171165895Y-83750499D01*
X171293186Y-83716392D01*
X171407314Y-83650500D01*
X171500500Y-83557314D01*
X171566392Y-83443186D01*
X171600499Y-83315895D01*
X171600500Y-83315895D01*
X171600500Y-83184105D01*
X171600499Y-83184104D01*
X171582531Y-83117048D01*
X171566392Y-83056814D01*
X171566391Y-83056813D01*
X171566391Y-83056811D01*
X171520774Y-82977802D01*
X171500500Y-82942686D01*
X171407314Y-82849500D01*
X171397473Y-82843818D01*
X171293188Y-82783608D01*
X171293184Y-82783607D01*
X171165895Y-82749500D01*
X171165892Y-82749500D01*
X171034108Y-82749500D01*
X171034105Y-82749500D01*
X170906815Y-82783607D01*
X170906811Y-82783608D01*
X170792685Y-82849500D01*
X170792685Y-82849501D01*
X170699501Y-82942685D01*
X170699500Y-82942685D01*
X170633608Y-83056811D01*
X170633607Y-83056815D01*
X170599500Y-83184104D01*
X167800500Y-83184104D01*
X167800500Y-81184104D01*
X170599500Y-81184104D01*
X170599500Y-81315895D01*
X170633607Y-81443184D01*
X170633608Y-81443188D01*
X170697875Y-81554499D01*
X170699500Y-81557314D01*
X170792686Y-81650500D01*
X170813441Y-81662483D01*
X170906811Y-81716391D01*
X170906813Y-81716391D01*
X170906814Y-81716392D01*
X171007207Y-81743292D01*
X171034104Y-81750499D01*
X171034105Y-81750500D01*
X171034108Y-81750500D01*
X171165895Y-81750500D01*
X171165895Y-81750499D01*
X171293186Y-81716392D01*
X171407314Y-81650500D01*
X171500500Y-81557314D01*
X171566392Y-81443186D01*
X171600499Y-81315895D01*
X171600500Y-81315895D01*
X171600500Y-81184105D01*
X171600499Y-81184104D01*
X171581175Y-81111985D01*
X171566392Y-81056814D01*
X171566391Y-81056813D01*
X171566391Y-81056811D01*
X171500499Y-80942685D01*
X171407314Y-80849500D01*
X171293188Y-80783608D01*
X171293184Y-80783607D01*
X171165895Y-80749500D01*
X171165892Y-80749500D01*
X171034108Y-80749500D01*
X171034105Y-80749500D01*
X170906815Y-80783607D01*
X170906811Y-80783608D01*
X170792685Y-80849500D01*
X170792685Y-80849501D01*
X170699501Y-80942685D01*
X170699500Y-80942685D01*
X170633608Y-81056811D01*
X170633607Y-81056815D01*
X170599500Y-81184104D01*
X167800500Y-81184104D01*
X167800500Y-60777610D01*
X167814852Y-60742962D01*
X167900499Y-60657315D01*
X167900500Y-60657314D01*
X167966392Y-60543186D01*
X168000499Y-60415895D01*
X168000500Y-60415895D01*
X168000500Y-60284105D01*
X168000499Y-60284104D01*
X167976004Y-60192686D01*
X167966392Y-60156814D01*
X167966391Y-60156813D01*
X167966391Y-60156811D01*
X167916257Y-60069978D01*
X167900500Y-60042686D01*
X167807314Y-59949500D01*
X167693188Y-59883608D01*
X167693184Y-59883607D01*
X167565895Y-59849500D01*
X167565892Y-59849500D01*
X167434108Y-59849500D01*
X167434105Y-59849500D01*
X167306815Y-59883607D01*
X167306811Y-59883608D01*
X167192685Y-59949500D01*
X167192685Y-59949501D01*
X167099501Y-60042685D01*
X167099500Y-60042685D01*
X167033608Y-60156811D01*
X167033607Y-60156815D01*
X166999500Y-60284104D01*
X163000499Y-60284104D01*
X162976004Y-60192686D01*
X162966392Y-60156814D01*
X162966391Y-60156813D01*
X162966391Y-60156811D01*
X162916257Y-60069978D01*
X162900500Y-60042686D01*
X162807314Y-59949500D01*
X162693188Y-59883608D01*
X162693184Y-59883607D01*
X162565895Y-59849500D01*
X162565892Y-59849500D01*
X162434108Y-59849500D01*
X162434105Y-59849500D01*
X162306815Y-59883607D01*
X162306811Y-59883608D01*
X162192685Y-59949500D01*
X162192685Y-59949501D01*
X162099501Y-60042685D01*
X162099500Y-60042685D01*
X162033608Y-60156811D01*
X162033607Y-60156815D01*
X161999500Y-60284104D01*
X161999500Y-60415895D01*
X162033607Y-60543184D01*
X162033608Y-60543188D01*
X162099500Y-60657314D01*
X162185148Y-60742962D01*
X162199500Y-60777610D01*
X162199500Y-81439563D01*
X162219978Y-81515986D01*
X162219979Y-81515989D01*
X162242213Y-81554500D01*
X162259540Y-81584511D01*
X162259542Y-81584513D01*
X170269555Y-89594526D01*
X170272088Y-89600643D01*
X170277342Y-89604674D01*
X170279011Y-89617355D01*
X170283907Y-89629174D01*
X170282237Y-89641856D01*
X170279814Y-89650899D01*
X170256984Y-89680652D01*
X170219802Y-89685547D01*
X170197836Y-89672865D01*
X160564852Y-80039881D01*
X160550500Y-80005233D01*
X160550500Y-68060436D01*
X160541843Y-68028134D01*
X160530021Y-67984011D01*
X160530020Y-67984009D01*
X160530020Y-67984008D01*
X160490459Y-67915488D01*
X153014852Y-60439881D01*
X153000500Y-60405233D01*
X153000500Y-60284105D01*
X153000499Y-60284104D01*
X152976004Y-60192686D01*
X152966392Y-60156814D01*
X152966391Y-60156813D01*
X152966391Y-60156811D01*
X152916257Y-60069978D01*
X152900500Y-60042686D01*
X152807314Y-59949500D01*
X152693188Y-59883608D01*
X152693184Y-59883607D01*
X152565895Y-59849500D01*
X152565892Y-59849500D01*
X152434108Y-59849500D01*
X152434105Y-59849500D01*
X152306815Y-59883607D01*
X152306811Y-59883608D01*
X152192685Y-59949500D01*
X152192685Y-59949501D01*
X152099501Y-60042685D01*
X152099500Y-60042685D01*
X152033608Y-60156811D01*
X152033607Y-60156815D01*
X151999500Y-60284104D01*
X151999500Y-60415895D01*
X152033607Y-60543184D01*
X152033608Y-60543188D01*
X152095566Y-60650500D01*
X152099500Y-60657314D01*
X152192686Y-60750500D01*
X152199500Y-60754434D01*
X152306811Y-60816391D01*
X152306813Y-60816391D01*
X152306814Y-60816392D01*
X152403169Y-60842210D01*
X152434104Y-60850499D01*
X152434105Y-60850500D01*
X152555233Y-60850500D01*
X152589881Y-60864852D01*
X159935148Y-68210119D01*
X159949500Y-68244767D01*
X159949500Y-80189563D01*
X159969979Y-80265989D01*
X159969979Y-80265991D01*
X160000814Y-80319398D01*
X160000815Y-80319399D01*
X160009540Y-80334511D01*
X160009542Y-80334513D01*
X173401162Y-93726133D01*
X173415514Y-93760781D01*
X173401162Y-93795429D01*
X173366514Y-93809781D01*
X173353832Y-93808111D01*
X173228395Y-93774500D01*
X173228392Y-93774500D01*
X173096608Y-93774500D01*
X173096605Y-93774500D01*
X173007890Y-93798271D01*
X172970708Y-93793376D01*
X172960560Y-93785589D01*
X169384513Y-90209542D01*
X169384511Y-90209540D01*
X169370812Y-90201631D01*
X169315991Y-90169979D01*
X169315987Y-90169978D01*
X169239564Y-90149500D01*
X169239562Y-90149500D01*
X162377610Y-90149500D01*
X162342962Y-90135148D01*
X162257314Y-90049500D01*
X162143188Y-89983608D01*
X162143184Y-89983607D01*
X162015895Y-89949500D01*
X162015892Y-89949500D01*
X161894767Y-89949500D01*
X161860119Y-89935148D01*
X158814852Y-86889881D01*
X158800500Y-86855233D01*
X158800500Y-73397320D01*
X158814852Y-73362672D01*
X158849500Y-73348320D01*
X158884148Y-73362672D01*
X158911985Y-73390509D01*
X158957930Y-73417035D01*
X159037512Y-73462983D01*
X159037514Y-73462983D01*
X159037515Y-73462984D01*
X159072517Y-73472363D01*
X159177522Y-73500500D01*
X159177525Y-73500500D01*
X159322477Y-73500500D01*
X159392480Y-73481742D01*
X159462485Y-73462984D01*
X159588015Y-73390509D01*
X159690509Y-73288015D01*
X159762984Y-73162485D01*
X159781742Y-73092480D01*
X159800500Y-73022477D01*
X159800500Y-72877522D01*
X159762984Y-72737516D01*
X159762983Y-72737512D01*
X159717035Y-72657930D01*
X159690509Y-72611985D01*
X159588015Y-72509491D01*
X159574998Y-72501975D01*
X159552169Y-72472222D01*
X159550500Y-72459541D01*
X159550500Y-68553853D01*
X159529080Y-68473914D01*
X159526614Y-68464712D01*
X159526613Y-68464711D01*
X159526613Y-68464709D01*
X159512643Y-68440514D01*
X159512642Y-68440513D01*
X159512640Y-68440509D01*
X159488214Y-68398202D01*
X159480472Y-68384791D01*
X159480467Y-68384785D01*
X150684830Y-59589148D01*
X150670478Y-59554500D01*
X150684830Y-59519852D01*
X150719478Y-59505500D01*
X171561372Y-59505500D01*
X171596020Y-59519852D01*
X172076592Y-60000424D01*
X172077758Y-60001446D01*
X172094350Y-60035076D01*
X172087891Y-60062791D01*
X172033608Y-60156811D01*
X172033607Y-60156815D01*
X171999500Y-60284104D01*
X171999500Y-60415895D01*
X172033607Y-60543184D01*
X172033608Y-60543188D01*
X172095566Y-60650500D01*
X172099500Y-60657314D01*
X172192686Y-60750500D01*
X172300001Y-60812458D01*
X172322830Y-60842210D01*
X172324500Y-60854892D01*
X172324500Y-88547390D01*
X172310148Y-88582038D01*
X172224501Y-88667685D01*
X172224500Y-88667685D01*
X172158608Y-88781811D01*
X172158607Y-88781815D01*
X172124500Y-88909104D01*
X172124500Y-89040895D01*
X172158607Y-89168184D01*
X172158608Y-89168188D01*
X172205843Y-89249999D01*
X172224500Y-89282314D01*
X172317686Y-89375500D01*
X172343565Y-89390441D01*
X172431811Y-89441391D01*
X172431813Y-89441391D01*
X172431814Y-89441392D01*
X172499973Y-89459655D01*
X172559104Y-89475499D01*
X172559105Y-89475500D01*
X172559108Y-89475500D01*
X172690895Y-89475500D01*
X172690895Y-89475499D01*
X172818186Y-89441392D01*
X172819548Y-89440606D01*
X172842727Y-89427223D01*
X172932314Y-89375500D01*
X173025500Y-89282314D01*
X173091392Y-89168186D01*
X173125499Y-89040895D01*
X173125500Y-89040895D01*
X173125500Y-88909105D01*
X173125499Y-88909104D01*
X173091392Y-88781815D01*
X173091391Y-88781811D01*
X173036384Y-88686538D01*
X173025500Y-88667686D01*
X172939852Y-88582038D01*
X172925500Y-88547390D01*
X172925500Y-83334104D01*
X178649500Y-83334104D01*
X178649500Y-83465895D01*
X178683607Y-83593184D01*
X178683608Y-83593188D01*
X178716698Y-83650500D01*
X178749500Y-83707314D01*
X178842686Y-83800500D01*
X178884457Y-83824617D01*
X178956811Y-83866391D01*
X178956813Y-83866391D01*
X178956814Y-83866392D01*
X179057207Y-83893292D01*
X179084104Y-83900499D01*
X179084105Y-83900500D01*
X179084108Y-83900500D01*
X179215895Y-83900500D01*
X179215895Y-83900499D01*
X179343186Y-83866392D01*
X179343429Y-83866252D01*
X179358478Y-83857563D01*
X179457314Y-83800500D01*
X179550500Y-83707314D01*
X179616392Y-83593186D01*
X179650499Y-83465895D01*
X179650500Y-83465895D01*
X179650500Y-83334105D01*
X179650499Y-83334104D01*
X179631597Y-83263561D01*
X179616392Y-83206814D01*
X179616391Y-83206813D01*
X179616391Y-83206811D01*
X179564565Y-83117048D01*
X179550500Y-83092686D01*
X179457314Y-82999500D01*
X179431112Y-82984372D01*
X179343188Y-82933608D01*
X179343184Y-82933607D01*
X179215895Y-82899500D01*
X179215892Y-82899500D01*
X179084108Y-82899500D01*
X179084105Y-82899500D01*
X178956815Y-82933607D01*
X178956811Y-82933608D01*
X178842685Y-82999500D01*
X178842685Y-82999501D01*
X178749501Y-83092685D01*
X178749500Y-83092685D01*
X178683608Y-83206811D01*
X178683607Y-83206815D01*
X178649500Y-83334104D01*
X172925500Y-83334104D01*
X172925500Y-80034104D01*
X185599500Y-80034104D01*
X185599500Y-80165895D01*
X185633607Y-80293184D01*
X185633608Y-80293188D01*
X185673893Y-80362962D01*
X185699500Y-80407314D01*
X185792686Y-80500500D01*
X185834457Y-80524617D01*
X185906811Y-80566391D01*
X185906813Y-80566391D01*
X185906814Y-80566392D01*
X186007207Y-80593292D01*
X186034104Y-80600499D01*
X186034105Y-80600500D01*
X186034108Y-80600500D01*
X186165895Y-80600500D01*
X186165895Y-80600499D01*
X186293186Y-80566392D01*
X186407314Y-80500500D01*
X186500500Y-80407314D01*
X186566392Y-80293186D01*
X186600499Y-80165895D01*
X186600500Y-80165895D01*
X186600500Y-80034105D01*
X186600499Y-80034104D01*
X186566392Y-79906815D01*
X186566391Y-79906811D01*
X186511396Y-79811558D01*
X186500500Y-79792686D01*
X186407314Y-79699500D01*
X186293188Y-79633608D01*
X186293184Y-79633607D01*
X186165895Y-79599500D01*
X186165892Y-79599500D01*
X186034108Y-79599500D01*
X186034105Y-79599500D01*
X185906815Y-79633607D01*
X185906811Y-79633608D01*
X185792685Y-79699500D01*
X185792685Y-79699501D01*
X185699501Y-79792685D01*
X185699500Y-79792685D01*
X185633608Y-79906811D01*
X185633607Y-79906815D01*
X185599500Y-80034104D01*
X172925500Y-80034104D01*
X172925500Y-65451610D01*
X172939852Y-65416962D01*
X172974500Y-65402610D01*
X173009148Y-65416962D01*
X173092686Y-65500500D01*
X173115182Y-65513488D01*
X173206811Y-65566391D01*
X173206813Y-65566391D01*
X173206814Y-65566392D01*
X173307207Y-65593292D01*
X173334104Y-65600499D01*
X173334105Y-65600500D01*
X173334108Y-65600500D01*
X173465895Y-65600500D01*
X173465895Y-65600499D01*
X173593186Y-65566392D01*
X173707314Y-65500500D01*
X173800500Y-65407314D01*
X173866392Y-65293186D01*
X173900499Y-65165895D01*
X173900500Y-65165895D01*
X173900500Y-65034105D01*
X173900499Y-65034104D01*
X173889035Y-64991321D01*
X173866392Y-64906814D01*
X173866391Y-64906813D01*
X173866391Y-64906811D01*
X173824617Y-64834457D01*
X173800500Y-64792686D01*
X173707314Y-64699500D01*
X173700386Y-64695500D01*
X173593188Y-64633608D01*
X173593184Y-64633607D01*
X173465895Y-64599500D01*
X173465892Y-64599500D01*
X173334108Y-64599500D01*
X173334105Y-64599500D01*
X173206815Y-64633607D01*
X173206811Y-64633608D01*
X173092685Y-64699500D01*
X173092685Y-64699501D01*
X173009148Y-64783038D01*
X172974500Y-64797390D01*
X172939852Y-64783038D01*
X172925500Y-64748390D01*
X172925500Y-60967628D01*
X172939852Y-60932980D01*
X172974500Y-60918628D01*
X173009148Y-60932980D01*
X173980148Y-61903980D01*
X173994500Y-61938628D01*
X173994500Y-64887347D01*
X173994958Y-64902637D01*
X173995308Y-64908474D01*
X173996682Y-64923740D01*
X174003346Y-64979099D01*
X174009823Y-65032916D01*
X174009908Y-65033616D01*
X174013980Y-65056039D01*
X174015371Y-65063694D01*
X174018149Y-65075069D01*
X174018153Y-65075082D01*
X174018155Y-65075090D01*
X174027197Y-65104364D01*
X174027202Y-65104377D01*
X174028147Y-65106890D01*
X174028147Y-65106891D01*
X174065053Y-65205130D01*
X174077505Y-65233068D01*
X174082904Y-65243460D01*
X174098604Y-65269709D01*
X174160994Y-65361113D01*
X174169988Y-65373478D01*
X174173577Y-65378114D01*
X174183309Y-65389936D01*
X174676639Y-65953858D01*
X175805998Y-67244820D01*
X175818425Y-67258046D01*
X175823361Y-67262939D01*
X175836680Y-67275237D01*
X175936054Y-67360662D01*
X175965154Y-67382285D01*
X175965158Y-67382287D01*
X175965164Y-67382292D01*
X175976831Y-67389738D01*
X175976836Y-67389741D01*
X175976846Y-67389747D01*
X176008712Y-67407033D01*
X176124835Y-67459733D01*
X176158825Y-67472335D01*
X176163263Y-67473630D01*
X176172132Y-67476220D01*
X176172136Y-67476220D01*
X176172140Y-67476222D01*
X176207576Y-67483887D01*
X176337304Y-67502435D01*
X176337319Y-67502436D01*
X176337322Y-67502437D01*
X176355331Y-67504362D01*
X176355350Y-67504364D01*
X176362285Y-67504857D01*
X176374966Y-67505307D01*
X176380399Y-67505500D01*
X176380402Y-67505500D01*
X178217867Y-67505500D01*
X178229307Y-67505050D01*
X178237894Y-67504713D01*
X178242331Y-67504364D01*
X178245565Y-67504110D01*
X178263513Y-67501985D01*
X178265500Y-67501750D01*
X178359029Y-67467243D01*
X178391005Y-67447647D01*
X178464205Y-67379980D01*
X178505941Y-67289447D01*
X178514696Y-67252980D01*
X178514698Y-67252973D01*
X178514707Y-67252722D01*
X178515090Y-67250934D01*
X178515414Y-67250462D01*
X178515502Y-67250157D01*
X178515604Y-67250186D01*
X178518216Y-67246395D01*
X178528360Y-67226522D01*
X178644972Y-67109909D01*
X178679620Y-67095558D01*
X178694762Y-67097956D01*
X178742299Y-67113402D01*
X178913389Y-67140500D01*
X178913390Y-67140500D01*
X179086610Y-67140500D01*
X179086611Y-67140500D01*
X179257701Y-67113402D01*
X179257705Y-67113400D01*
X179257708Y-67113400D01*
X179272929Y-67108454D01*
X179305234Y-67097957D01*
X179342620Y-67100898D01*
X179355024Y-67109910D01*
X179474957Y-67229843D01*
X179488367Y-67254931D01*
X179497087Y-67298771D01*
X179497090Y-67298780D01*
X179511440Y-67333423D01*
X179566824Y-67416312D01*
X179613720Y-67447647D01*
X179649714Y-67471698D01*
X179649715Y-67471698D01*
X179649716Y-67471699D01*
X179682761Y-67485387D01*
X179683766Y-67485845D01*
X179684351Y-67486045D01*
X179684362Y-67486050D01*
X179684364Y-67486051D01*
X179684371Y-67486052D01*
X179684373Y-67486053D01*
X179782134Y-67505499D01*
X179782140Y-67505500D01*
X182065367Y-67505500D01*
X182076807Y-67505050D01*
X182085394Y-67504713D01*
X182089831Y-67504364D01*
X182093065Y-67504110D01*
X182111013Y-67501985D01*
X182113000Y-67501750D01*
X182206529Y-67467243D01*
X182238505Y-67447647D01*
X182311705Y-67379980D01*
X182353441Y-67289447D01*
X182362196Y-67252980D01*
X182362198Y-67252973D01*
X182362207Y-67252722D01*
X182362590Y-67250934D01*
X182362914Y-67250462D01*
X182363002Y-67250157D01*
X182363104Y-67250186D01*
X182365716Y-67246395D01*
X182375860Y-67226522D01*
X182492472Y-67109909D01*
X182527120Y-67095558D01*
X182542262Y-67097956D01*
X182589799Y-67113402D01*
X182760889Y-67140500D01*
X182760890Y-67140500D01*
X182934110Y-67140500D01*
X182934111Y-67140500D01*
X183105201Y-67113402D01*
X183105205Y-67113400D01*
X183105208Y-67113400D01*
X183120429Y-67108454D01*
X183152734Y-67097957D01*
X183190120Y-67100898D01*
X183202524Y-67109910D01*
X183322457Y-67229843D01*
X183335867Y-67254931D01*
X183344587Y-67298771D01*
X183344590Y-67298780D01*
X183358940Y-67333423D01*
X183414324Y-67416312D01*
X183461220Y-67447647D01*
X183497214Y-67471698D01*
X183497215Y-67471698D01*
X183497216Y-67471699D01*
X183530261Y-67485387D01*
X183531266Y-67485845D01*
X183531851Y-67486045D01*
X183531862Y-67486050D01*
X183531864Y-67486051D01*
X183531871Y-67486052D01*
X183531873Y-67486053D01*
X183629634Y-67505499D01*
X183629640Y-67505500D01*
X187048562Y-67505500D01*
X187083210Y-67519852D01*
X187097562Y-67554500D01*
X187093832Y-67573248D01*
X187062432Y-67649058D01*
X187054067Y-67669252D01*
X187027548Y-67695770D01*
X187008797Y-67699500D01*
X183435453Y-67699500D01*
X183408231Y-67691242D01*
X183345098Y-67649059D01*
X183153923Y-67569871D01*
X183153917Y-67569869D01*
X183072072Y-67553589D01*
X182950965Y-67529500D01*
X182744035Y-67529500D01*
X182643020Y-67549592D01*
X182541082Y-67569869D01*
X182541076Y-67569871D01*
X182349903Y-67649058D01*
X182177845Y-67764022D01*
X182031522Y-67910345D01*
X181916558Y-68082403D01*
X181847447Y-68249252D01*
X181820928Y-68275770D01*
X181802177Y-68279500D01*
X180045323Y-68279500D01*
X180010675Y-68265148D01*
X180000053Y-68249252D01*
X179945918Y-68118560D01*
X179930941Y-68082402D01*
X179815977Y-67910345D01*
X179669655Y-67764023D01*
X179497598Y-67649059D01*
X179497596Y-67649058D01*
X179306423Y-67569871D01*
X179306417Y-67569869D01*
X179224572Y-67553589D01*
X179103465Y-67529500D01*
X178896535Y-67529500D01*
X178795520Y-67549592D01*
X178693582Y-67569869D01*
X178693576Y-67569871D01*
X178502403Y-67649058D01*
X178330345Y-67764022D01*
X178184022Y-67910345D01*
X178069058Y-68082403D01*
X177989871Y-68273576D01*
X177989869Y-68273582D01*
X177974674Y-68349975D01*
X177949500Y-68476535D01*
X177949500Y-68683465D01*
X177976290Y-68818150D01*
X177989869Y-68886417D01*
X177989871Y-68886423D01*
X178021198Y-68962052D01*
X178069059Y-69077598D01*
X178184023Y-69249655D01*
X178330345Y-69395977D01*
X178502402Y-69510941D01*
X178693580Y-69590130D01*
X178896535Y-69630500D01*
X178896538Y-69630500D01*
X179103462Y-69630500D01*
X179103465Y-69630500D01*
X179306420Y-69590130D01*
X179497598Y-69510941D01*
X179669655Y-69395977D01*
X179815977Y-69249655D01*
X179930941Y-69077598D01*
X180000053Y-68910748D01*
X180026572Y-68884230D01*
X180045323Y-68880500D01*
X181802177Y-68880500D01*
X181836825Y-68894852D01*
X181847447Y-68910748D01*
X181868697Y-68962051D01*
X181916559Y-69077598D01*
X182031523Y-69249655D01*
X182177845Y-69395977D01*
X182349902Y-69510941D01*
X182541080Y-69590130D01*
X182744035Y-69630500D01*
X182744038Y-69630500D01*
X182950962Y-69630500D01*
X182950965Y-69630500D01*
X183153920Y-69590130D01*
X183345098Y-69510941D01*
X183517155Y-69395977D01*
X183663477Y-69249655D01*
X183778441Y-69077598D01*
X183857630Y-68886420D01*
X183898000Y-68683465D01*
X183898000Y-68476535D01*
X183874633Y-68359059D01*
X183881950Y-68322277D01*
X183913133Y-68301441D01*
X183922692Y-68300500D01*
X187008797Y-68300500D01*
X187043445Y-68314852D01*
X187054067Y-68330749D01*
X187113366Y-68473910D01*
X187113368Y-68473914D01*
X187222861Y-68637782D01*
X187362218Y-68777139D01*
X187526086Y-68886632D01*
X187708165Y-68962051D01*
X187901459Y-69000500D01*
X188098541Y-69000500D01*
X188291835Y-68962051D01*
X188473914Y-68886632D01*
X188637782Y-68777139D01*
X188777139Y-68637782D01*
X188886632Y-68473914D01*
X188962051Y-68291835D01*
X189000500Y-68098541D01*
X189000500Y-67901459D01*
X188962051Y-67708165D01*
X188906168Y-67573250D01*
X188906168Y-67535748D01*
X188932687Y-67509230D01*
X188951438Y-67505500D01*
X189246784Y-67505500D01*
X189246787Y-67505500D01*
X189263489Y-67504954D01*
X189267515Y-67504690D01*
X189269874Y-67504536D01*
X189269882Y-67504535D01*
X189269885Y-67504535D01*
X189286534Y-67502895D01*
X189406367Y-67487118D01*
X189417578Y-67484887D01*
X189439135Y-67480600D01*
X189439141Y-67480598D01*
X189439148Y-67480597D01*
X189451504Y-67477286D01*
X189483148Y-67466544D01*
X189591814Y-67421533D01*
X189621790Y-67406751D01*
X189625997Y-67404321D01*
X189663177Y-67399423D01*
X189692933Y-67422251D01*
X189699500Y-67446755D01*
X189699500Y-92946233D01*
X189685148Y-92980881D01*
X189650500Y-92995233D01*
X189615852Y-92980881D01*
X188951640Y-92316669D01*
X188937288Y-92282021D01*
X188941018Y-92263269D01*
X189010130Y-92096420D01*
X189050500Y-91893465D01*
X189050500Y-91686535D01*
X189010130Y-91483580D01*
X188930941Y-91292402D01*
X188815977Y-91120345D01*
X188669655Y-90974023D01*
X188497598Y-90859059D01*
X188481906Y-90852559D01*
X188306423Y-90779871D01*
X188306417Y-90779869D01*
X188224572Y-90763589D01*
X188103465Y-90739500D01*
X187896535Y-90739500D01*
X187795520Y-90759592D01*
X187693582Y-90779869D01*
X187693576Y-90779871D01*
X187502403Y-90859058D01*
X187330345Y-90974022D01*
X187184022Y-91120345D01*
X187069058Y-91292403D01*
X186989871Y-91483576D01*
X186989869Y-91483582D01*
X186981941Y-91523441D01*
X186949500Y-91686535D01*
X186949500Y-91893465D01*
X186969069Y-91991847D01*
X186989869Y-92096417D01*
X186989871Y-92096423D01*
X187062985Y-92272934D01*
X187069059Y-92287598D01*
X187110669Y-92349872D01*
X187146435Y-92403401D01*
X187184023Y-92459655D01*
X187330345Y-92605977D01*
X187502402Y-92720941D01*
X187693580Y-92800130D01*
X187896535Y-92840500D01*
X187896538Y-92840500D01*
X188103462Y-92840500D01*
X188103465Y-92840500D01*
X188306420Y-92800130D01*
X188473270Y-92731018D01*
X188510772Y-92731018D01*
X188526669Y-92741640D01*
X189235148Y-93450119D01*
X189249500Y-93484767D01*
X189249500Y-93856233D01*
X189235148Y-93890881D01*
X189200500Y-93905233D01*
X189165852Y-93890881D01*
X188484511Y-93209540D01*
X188415990Y-93169979D01*
X188339564Y-93149500D01*
X188339562Y-93149500D01*
X187264767Y-93149500D01*
X187230119Y-93135148D01*
X186411640Y-92316669D01*
X186397288Y-92282021D01*
X186401018Y-92263269D01*
X186470130Y-92096420D01*
X186510500Y-91893465D01*
X186510500Y-91686535D01*
X186470130Y-91483580D01*
X186390941Y-91292402D01*
X186275977Y-91120345D01*
X186129655Y-90974023D01*
X185957598Y-90859059D01*
X185941906Y-90852559D01*
X185766423Y-90779871D01*
X185766417Y-90779869D01*
X185684572Y-90763589D01*
X185563465Y-90739500D01*
X185356535Y-90739500D01*
X185255520Y-90759592D01*
X185153582Y-90779869D01*
X185153576Y-90779871D01*
X184962403Y-90859058D01*
X184790345Y-90974022D01*
X184644022Y-91120345D01*
X184529058Y-91292403D01*
X184449871Y-91483576D01*
X184449869Y-91483582D01*
X184441941Y-91523441D01*
X184409500Y-91686535D01*
X184409500Y-91893465D01*
X184429069Y-91991847D01*
X184449869Y-92096417D01*
X184449871Y-92096423D01*
X184522985Y-92272934D01*
X184529059Y-92287598D01*
X184570669Y-92349872D01*
X184606435Y-92403401D01*
X184644023Y-92459655D01*
X184790345Y-92605977D01*
X184962402Y-92720941D01*
X185153580Y-92800130D01*
X185356535Y-92840500D01*
X185356538Y-92840500D01*
X185563462Y-92840500D01*
X185563465Y-92840500D01*
X185766420Y-92800130D01*
X185933270Y-92731018D01*
X185970772Y-92731018D01*
X185986669Y-92741640D01*
X186935489Y-93690460D01*
X187004012Y-93730022D01*
X187064286Y-93746172D01*
X187080434Y-93750499D01*
X187080435Y-93750500D01*
X187080438Y-93750500D01*
X187159562Y-93750500D01*
X188155233Y-93750500D01*
X188189881Y-93764852D01*
X188935148Y-94510119D01*
X188949500Y-94544767D01*
X188949500Y-94674993D01*
X188935148Y-94709641D01*
X188900500Y-94723993D01*
X188871699Y-94714635D01*
X188707553Y-94595377D01*
X188518218Y-94498905D01*
X188316126Y-94433242D01*
X188316123Y-94433241D01*
X188106246Y-94400000D01*
X187893754Y-94400000D01*
X187683876Y-94433241D01*
X187683873Y-94433242D01*
X187481781Y-94498905D01*
X187292447Y-94595376D01*
X187292442Y-94595379D01*
X187238282Y-94634727D01*
X187238282Y-94634728D01*
X187870591Y-95267037D01*
X187807007Y-95284075D01*
X187692993Y-95349901D01*
X187599901Y-95442993D01*
X187534075Y-95557007D01*
X187517037Y-95620591D01*
X186884728Y-94988282D01*
X186884727Y-94988282D01*
X186845379Y-95042442D01*
X186845376Y-95042447D01*
X186748905Y-95231781D01*
X186683242Y-95433873D01*
X186683241Y-95433876D01*
X186650000Y-95643753D01*
X186650000Y-95856246D01*
X186683241Y-96066123D01*
X186683242Y-96066126D01*
X186748905Y-96268218D01*
X186845378Y-96457556D01*
X186845380Y-96457560D01*
X186884727Y-96511716D01*
X186884728Y-96511716D01*
X187517036Y-95879407D01*
X187534075Y-95942993D01*
X187599901Y-96057007D01*
X187692993Y-96150099D01*
X187807007Y-96215925D01*
X187870589Y-96232962D01*
X187238281Y-96865271D01*
X187292440Y-96904619D01*
X187292443Y-96904621D01*
X187481781Y-97001094D01*
X187683873Y-97066757D01*
X187683876Y-97066758D01*
X187893754Y-97100000D01*
X188106246Y-97100000D01*
X188316123Y-97066758D01*
X188316126Y-97066757D01*
X188518218Y-97001094D01*
X188707550Y-96904624D01*
X188871698Y-96785364D01*
X188908165Y-96776609D01*
X188940142Y-96796204D01*
X188949500Y-96825006D01*
X188949500Y-97658645D01*
X188935148Y-97693293D01*
X188900500Y-97707645D01*
X188865852Y-97693293D01*
X188859758Y-97685868D01*
X188815977Y-97620345D01*
X188669654Y-97474022D01*
X188584207Y-97416929D01*
X188497598Y-97359059D01*
X188493388Y-97357315D01*
X188306423Y-97279871D01*
X188306417Y-97279869D01*
X188224572Y-97263589D01*
X188103465Y-97239500D01*
X187896535Y-97239500D01*
X187795520Y-97259592D01*
X187693582Y-97279869D01*
X187693576Y-97279871D01*
X187502403Y-97359058D01*
X187330345Y-97474022D01*
X187184022Y-97620345D01*
X187069058Y-97792403D01*
X186989871Y-97983576D01*
X186989869Y-97983582D01*
X186969592Y-98085520D01*
X186949500Y-98186535D01*
X186949500Y-98393465D01*
X186976290Y-98528150D01*
X186989869Y-98596417D01*
X186989871Y-98596423D01*
X187062322Y-98771333D01*
X187069059Y-98787598D01*
X187120069Y-98863940D01*
X187176379Y-98948216D01*
X187184023Y-98959655D01*
X187330345Y-99105977D01*
X187502402Y-99220941D01*
X187693580Y-99300130D01*
X187896535Y-99340500D01*
X187896538Y-99340500D01*
X188103462Y-99340500D01*
X188103465Y-99340500D01*
X188306420Y-99300130D01*
X188497598Y-99220941D01*
X188669655Y-99105977D01*
X188815977Y-98959655D01*
X188859758Y-98894130D01*
X188890940Y-98873296D01*
X188927723Y-98880612D01*
X188948558Y-98911794D01*
X188949500Y-98921354D01*
X188949500Y-100198645D01*
X188935148Y-100233293D01*
X188900500Y-100247645D01*
X188865852Y-100233293D01*
X188859758Y-100225868D01*
X188815977Y-100160345D01*
X188669654Y-100014022D01*
X188584207Y-99956929D01*
X188497598Y-99899059D01*
X188497596Y-99899058D01*
X188306423Y-99819871D01*
X188306417Y-99819869D01*
X188224572Y-99803589D01*
X188103465Y-99779500D01*
X187896535Y-99779500D01*
X187795520Y-99799592D01*
X187693582Y-99819869D01*
X187693576Y-99819871D01*
X187502403Y-99899058D01*
X187330345Y-100014022D01*
X187184022Y-100160345D01*
X187069058Y-100332403D01*
X186989871Y-100523576D01*
X186989869Y-100523582D01*
X186981434Y-100565989D01*
X186949500Y-100726535D01*
X186949500Y-100933465D01*
X186976290Y-101068150D01*
X186989869Y-101136417D01*
X186989871Y-101136423D01*
X187069058Y-101327596D01*
X187152043Y-101451794D01*
X187184023Y-101499655D01*
X187330345Y-101645977D01*
X187502402Y-101760941D01*
X187693580Y-101840130D01*
X187896535Y-101880500D01*
X187896538Y-101880500D01*
X188103462Y-101880500D01*
X188103465Y-101880500D01*
X188306420Y-101840130D01*
X188497598Y-101760941D01*
X188669655Y-101645977D01*
X188815977Y-101499655D01*
X188859758Y-101434130D01*
X188890940Y-101413296D01*
X188927723Y-101420612D01*
X188948558Y-101451794D01*
X188949500Y-101461354D01*
X188949500Y-105405233D01*
X188935148Y-105439881D01*
X186939881Y-107435148D01*
X186905233Y-107449500D01*
X173860435Y-107449500D01*
X173784013Y-107469977D01*
X173784010Y-107469978D01*
X173715488Y-107509540D01*
X172089880Y-109135148D01*
X172055232Y-109149500D01*
X171934105Y-109149500D01*
X171806815Y-109183607D01*
X171806811Y-109183608D01*
X171692685Y-109249500D01*
X171599501Y-109342685D01*
X171599500Y-109342685D01*
X171533608Y-109456811D01*
X171533607Y-109456815D01*
X171499500Y-109584104D01*
X171499500Y-109715895D01*
X171533607Y-109843184D01*
X171533608Y-109843188D01*
X171583742Y-109930021D01*
X171599500Y-109957314D01*
X171692686Y-110050500D01*
X171704490Y-110057315D01*
X171806811Y-110116391D01*
X171806813Y-110116391D01*
X171806814Y-110116392D01*
X171907207Y-110143292D01*
X171934104Y-110150499D01*
X171934105Y-110150500D01*
X171934108Y-110150500D01*
X172065895Y-110150500D01*
X172065895Y-110150499D01*
X172193186Y-110116392D01*
X172307314Y-110050500D01*
X172400500Y-109957314D01*
X172466392Y-109843186D01*
X172500499Y-109715895D01*
X172500500Y-109715895D01*
X172500500Y-109594766D01*
X172514852Y-109560118D01*
X174010119Y-108064852D01*
X174044767Y-108050500D01*
X178056233Y-108050500D01*
X178090881Y-108064852D01*
X178105233Y-108099500D01*
X178090881Y-108134148D01*
X177089880Y-109135148D01*
X177055232Y-109149500D01*
X176934105Y-109149500D01*
X176806815Y-109183607D01*
X176806811Y-109183608D01*
X176692685Y-109249500D01*
X176599501Y-109342685D01*
X176599500Y-109342685D01*
X176533608Y-109456811D01*
X176533607Y-109456815D01*
X176499500Y-109584104D01*
X176499500Y-109715895D01*
X176533607Y-109843184D01*
X176533608Y-109843188D01*
X176583742Y-109930021D01*
X176599500Y-109957314D01*
X176692686Y-110050500D01*
X176704490Y-110057315D01*
X176806811Y-110116391D01*
X176806813Y-110116391D01*
X176806814Y-110116392D01*
X176907207Y-110143292D01*
X176934104Y-110150499D01*
X176934105Y-110150500D01*
X176934108Y-110150500D01*
X177065895Y-110150500D01*
X177065895Y-110150499D01*
X177193186Y-110116392D01*
X177307314Y-110050500D01*
X177400500Y-109957314D01*
X177466392Y-109843186D01*
X177500499Y-109715895D01*
X177500500Y-109715895D01*
X177500500Y-109594766D01*
X177514852Y-109560118D01*
X178610119Y-108464852D01*
X178644767Y-108450500D01*
X187589564Y-108450500D01*
X187616230Y-108443354D01*
X187665989Y-108430021D01*
X187734511Y-108390460D01*
X187790460Y-108334511D01*
X189615852Y-106509119D01*
X189650500Y-106494767D01*
X189685148Y-106509119D01*
X189699500Y-106543767D01*
X189699500Y-112498512D01*
X189699411Y-112501471D01*
X189683641Y-112762169D01*
X189682927Y-112768042D01*
X189636121Y-113023457D01*
X189634705Y-113029203D01*
X189557449Y-113277123D01*
X189555351Y-113282655D01*
X189448778Y-113519454D01*
X189446028Y-113524694D01*
X189311685Y-113746922D01*
X189308324Y-113751791D01*
X189148176Y-113956205D01*
X189144252Y-113960634D01*
X188960634Y-114144252D01*
X188956205Y-114148176D01*
X188751791Y-114308324D01*
X188746922Y-114311685D01*
X188524694Y-114446028D01*
X188519454Y-114448778D01*
X188282655Y-114555351D01*
X188277123Y-114557449D01*
X188029203Y-114634705D01*
X188023457Y-114636121D01*
X187768042Y-114682927D01*
X187762169Y-114683641D01*
X187501471Y-114699411D01*
X187498512Y-114699500D01*
X132501488Y-114699500D01*
X132498529Y-114699411D01*
X132237830Y-114683641D01*
X132231957Y-114682927D01*
X131976542Y-114636121D01*
X131970796Y-114634705D01*
X131722876Y-114557449D01*
X131717344Y-114555351D01*
X131480545Y-114448778D01*
X131475305Y-114446028D01*
X131253077Y-114311685D01*
X131248208Y-114308324D01*
X131043794Y-114148176D01*
X131039365Y-114144252D01*
X130855747Y-113960634D01*
X130851823Y-113956205D01*
X130691675Y-113751791D01*
X130688314Y-113746922D01*
X130553971Y-113524694D01*
X130551225Y-113519461D01*
X130444647Y-113282654D01*
X130442550Y-113277123D01*
X130365294Y-113029203D01*
X130363878Y-113023457D01*
X130317071Y-112768034D01*
X130316358Y-112762168D01*
X130300589Y-112501470D01*
X130300500Y-112498512D01*
X130300500Y-109584104D01*
X141499500Y-109584104D01*
X141499500Y-109715895D01*
X141533607Y-109843184D01*
X141533608Y-109843188D01*
X141583742Y-109930021D01*
X141599500Y-109957314D01*
X141692686Y-110050500D01*
X141704490Y-110057315D01*
X141806811Y-110116391D01*
X141806813Y-110116391D01*
X141806814Y-110116392D01*
X141907207Y-110143292D01*
X141934104Y-110150499D01*
X141934105Y-110150500D01*
X141934108Y-110150500D01*
X142065895Y-110150500D01*
X142065895Y-110150499D01*
X142193186Y-110116392D01*
X142307314Y-110050500D01*
X142392962Y-109964852D01*
X142427610Y-109950500D01*
X144489564Y-109950500D01*
X144516865Y-109943184D01*
X144565989Y-109930021D01*
X144634511Y-109890460D01*
X144690460Y-109834511D01*
X144940867Y-109584104D01*
X146499500Y-109584104D01*
X146499500Y-109715895D01*
X146533607Y-109843184D01*
X146533608Y-109843188D01*
X146583742Y-109930021D01*
X146599500Y-109957314D01*
X146692686Y-110050500D01*
X146704490Y-110057315D01*
X146806811Y-110116391D01*
X146806813Y-110116391D01*
X146806814Y-110116392D01*
X146907207Y-110143292D01*
X146934104Y-110150499D01*
X146934105Y-110150500D01*
X146934108Y-110150500D01*
X147065895Y-110150500D01*
X147065895Y-110150499D01*
X147193186Y-110116392D01*
X147307314Y-110050500D01*
X147400500Y-109957314D01*
X147466392Y-109843186D01*
X147500499Y-109715895D01*
X147500500Y-109715895D01*
X147500500Y-109584105D01*
X147500499Y-109584104D01*
X147466392Y-109456815D01*
X147466391Y-109456811D01*
X147424617Y-109384457D01*
X147400500Y-109342686D01*
X147314852Y-109257038D01*
X147300500Y-109222390D01*
X147300500Y-108294767D01*
X147314852Y-108260119D01*
X151240867Y-104334104D01*
X154399500Y-104334104D01*
X154399500Y-104465895D01*
X154433607Y-104593184D01*
X154433608Y-104593188D01*
X154499500Y-104707314D01*
X154592686Y-104800500D01*
X154634457Y-104824617D01*
X154706811Y-104866391D01*
X154706813Y-104866391D01*
X154706814Y-104866392D01*
X154807207Y-104893292D01*
X154834104Y-104900499D01*
X154834105Y-104900500D01*
X154834108Y-104900500D01*
X154965895Y-104900500D01*
X154965895Y-104900499D01*
X155093186Y-104866392D01*
X155207314Y-104800500D01*
X155300500Y-104707314D01*
X155366392Y-104593186D01*
X155400499Y-104465895D01*
X155400500Y-104465895D01*
X155400500Y-104334105D01*
X155400499Y-104334104D01*
X155378653Y-104252573D01*
X155366392Y-104206814D01*
X155366391Y-104206813D01*
X155366391Y-104206811D01*
X155300499Y-104092685D01*
X155207314Y-103999500D01*
X155093188Y-103933608D01*
X155093184Y-103933607D01*
X154965895Y-103899500D01*
X154965892Y-103899500D01*
X154834108Y-103899500D01*
X154834105Y-103899500D01*
X154706815Y-103933607D01*
X154706811Y-103933608D01*
X154592685Y-103999500D01*
X154592685Y-103999501D01*
X154499501Y-104092685D01*
X154499500Y-104092685D01*
X154433608Y-104206811D01*
X154433607Y-104206815D01*
X154399500Y-104334104D01*
X151240867Y-104334104D01*
X152240867Y-103334104D01*
X153299500Y-103334104D01*
X153299500Y-103465895D01*
X153333607Y-103593184D01*
X153333608Y-103593188D01*
X153370344Y-103656815D01*
X153399500Y-103707314D01*
X153492686Y-103800500D01*
X153534457Y-103824617D01*
X153606811Y-103866391D01*
X153606813Y-103866391D01*
X153606814Y-103866392D01*
X153707207Y-103893292D01*
X153734104Y-103900499D01*
X153734105Y-103900500D01*
X153734108Y-103900500D01*
X153865895Y-103900500D01*
X153865895Y-103900499D01*
X153993186Y-103866392D01*
X154107314Y-103800500D01*
X154200500Y-103707314D01*
X154266392Y-103593186D01*
X154300499Y-103465895D01*
X154300500Y-103465895D01*
X154300500Y-103334105D01*
X154300499Y-103334104D01*
X154266392Y-103206815D01*
X154266391Y-103206811D01*
X154200499Y-103092685D01*
X154107314Y-102999500D01*
X153993188Y-102933608D01*
X153993184Y-102933607D01*
X153865895Y-102899500D01*
X153865892Y-102899500D01*
X153734108Y-102899500D01*
X153734105Y-102899500D01*
X153606815Y-102933607D01*
X153606811Y-102933608D01*
X153492685Y-102999500D01*
X153492685Y-102999501D01*
X153399501Y-103092685D01*
X153399500Y-103092685D01*
X153333608Y-103206811D01*
X153333607Y-103206815D01*
X153299500Y-103334104D01*
X152240867Y-103334104D01*
X154815459Y-100759512D01*
X154815460Y-100759511D01*
X154855022Y-100690988D01*
X154875499Y-100614565D01*
X154875500Y-100614565D01*
X154875500Y-94352610D01*
X154889852Y-94317962D01*
X154975499Y-94232315D01*
X154975500Y-94232314D01*
X155032563Y-94133478D01*
X155041391Y-94118188D01*
X155041391Y-94118187D01*
X155041392Y-94118186D01*
X155075499Y-93990895D01*
X155075500Y-93990895D01*
X155075500Y-93859104D01*
X155041392Y-93731815D01*
X155041391Y-93731811D01*
X154975499Y-93617685D01*
X154882314Y-93524500D01*
X154768188Y-93458608D01*
X154768184Y-93458607D01*
X154640895Y-93424500D01*
X154640892Y-93424500D01*
X154509108Y-93424500D01*
X154509105Y-93424500D01*
X154381815Y-93458607D01*
X154381811Y-93458608D01*
X154267685Y-93524500D01*
X154267685Y-93524501D01*
X154174501Y-93617685D01*
X154174500Y-93617685D01*
X154108608Y-93731811D01*
X154108607Y-93731815D01*
X154074500Y-93859104D01*
X154074500Y-93990895D01*
X154108607Y-94118184D01*
X154108608Y-94118188D01*
X154174500Y-94232314D01*
X154260148Y-94317962D01*
X154274500Y-94352610D01*
X154274500Y-100430233D01*
X154260148Y-100464881D01*
X146759541Y-107965488D01*
X146759540Y-107965488D01*
X146719979Y-108034008D01*
X146719979Y-108034010D01*
X146699500Y-108110436D01*
X146699500Y-109222390D01*
X146685148Y-109257038D01*
X146599501Y-109342685D01*
X146599500Y-109342685D01*
X146533608Y-109456811D01*
X146533607Y-109456815D01*
X146499500Y-109584104D01*
X144940867Y-109584104D01*
X153890460Y-100634511D01*
X153930022Y-100565988D01*
X153950499Y-100489565D01*
X153950500Y-100489565D01*
X153950500Y-93577610D01*
X153964852Y-93542962D01*
X154050499Y-93457315D01*
X154050500Y-93457314D01*
X154116392Y-93343186D01*
X154150499Y-93215895D01*
X154150500Y-93215895D01*
X154150500Y-93084105D01*
X154150499Y-93084104D01*
X154131264Y-93012318D01*
X154116392Y-92956814D01*
X154116391Y-92956813D01*
X154116391Y-92956811D01*
X154050499Y-92842685D01*
X153957314Y-92749500D01*
X153843188Y-92683608D01*
X153843184Y-92683607D01*
X153715895Y-92649500D01*
X153715892Y-92649500D01*
X153584108Y-92649500D01*
X153584105Y-92649500D01*
X153456815Y-92683607D01*
X153456811Y-92683608D01*
X153342685Y-92749500D01*
X153249501Y-92842685D01*
X153249500Y-92842685D01*
X153183608Y-92956811D01*
X153183607Y-92956815D01*
X153149500Y-93084104D01*
X153149500Y-93215895D01*
X153183607Y-93343184D01*
X153183608Y-93343188D01*
X153249500Y-93457314D01*
X153335148Y-93542962D01*
X153349500Y-93577610D01*
X153349500Y-100305233D01*
X153335148Y-100339881D01*
X144339881Y-109335148D01*
X144305233Y-109349500D01*
X142427610Y-109349500D01*
X142392962Y-109335148D01*
X142307314Y-109249500D01*
X142193188Y-109183608D01*
X142193184Y-109183607D01*
X142065895Y-109149500D01*
X142065892Y-109149500D01*
X141934108Y-109149500D01*
X141934105Y-109149500D01*
X141806815Y-109183607D01*
X141806811Y-109183608D01*
X141692685Y-109249500D01*
X141599501Y-109342685D01*
X141599500Y-109342685D01*
X141533608Y-109456811D01*
X141533607Y-109456815D01*
X141499500Y-109584104D01*
X130300500Y-109584104D01*
X130300500Y-107820000D01*
X132875137Y-107820000D01*
X133795254Y-107820000D01*
X133703393Y-107858050D01*
X133633063Y-107928380D01*
X133595001Y-108020270D01*
X133595001Y-108119730D01*
X133633063Y-108211620D01*
X133703393Y-108281950D01*
X133795254Y-108320000D01*
X132875137Y-108320000D01*
X132883429Y-108361689D01*
X132883429Y-108361690D01*
X132958809Y-108543674D01*
X133068246Y-108707460D01*
X133207539Y-108846753D01*
X133371325Y-108956190D01*
X133553310Y-109031570D01*
X133746512Y-109070000D01*
X133945000Y-109070000D01*
X133945000Y-108320012D01*
X134445000Y-108320012D01*
X134445000Y-109070000D01*
X134643488Y-109070000D01*
X134836689Y-109031570D01*
X134836690Y-109031570D01*
X135018674Y-108956190D01*
X135182460Y-108846753D01*
X135321753Y-108707460D01*
X135431190Y-108543674D01*
X135506570Y-108361690D01*
X135506570Y-108361689D01*
X135514863Y-108320000D01*
X134594746Y-108320000D01*
X134686607Y-108281950D01*
X134756937Y-108211620D01*
X134794999Y-108119730D01*
X134794999Y-108020270D01*
X134756937Y-107928380D01*
X134686607Y-107858050D01*
X134594746Y-107820000D01*
X135514862Y-107820000D01*
X136685137Y-107820000D01*
X137605254Y-107820000D01*
X137513393Y-107858050D01*
X137443063Y-107928380D01*
X137405001Y-108020270D01*
X137405001Y-108119730D01*
X137443063Y-108211620D01*
X137513393Y-108281950D01*
X137605254Y-108320000D01*
X136685137Y-108320000D01*
X136693429Y-108361689D01*
X136693429Y-108361690D01*
X136768809Y-108543674D01*
X136878246Y-108707460D01*
X137017539Y-108846753D01*
X137181325Y-108956190D01*
X137363310Y-109031570D01*
X137556512Y-109070000D01*
X137755000Y-109070000D01*
X137755000Y-108320012D01*
X138255000Y-108320012D01*
X138255000Y-109070000D01*
X138453488Y-109070000D01*
X138646689Y-109031570D01*
X138646690Y-109031570D01*
X138828674Y-108956190D01*
X138992460Y-108846753D01*
X139131753Y-108707460D01*
X139241190Y-108543674D01*
X139316570Y-108361690D01*
X139316570Y-108361689D01*
X139324863Y-108320000D01*
X138404746Y-108320000D01*
X138496607Y-108281950D01*
X138566937Y-108211620D01*
X138604999Y-108119730D01*
X138604999Y-108020270D01*
X138566937Y-107928380D01*
X138496607Y-107858050D01*
X138404746Y-107820000D01*
X139324862Y-107820000D01*
X139316570Y-107778310D01*
X139316570Y-107778309D01*
X139241190Y-107596325D01*
X139131753Y-107432539D01*
X138992460Y-107293246D01*
X138828674Y-107183809D01*
X138646689Y-107108429D01*
X138453488Y-107070000D01*
X138255000Y-107070000D01*
X138255000Y-107819988D01*
X137755000Y-107819988D01*
X137755000Y-107070000D01*
X137556512Y-107070000D01*
X137363310Y-107108429D01*
X137363309Y-107108429D01*
X137181325Y-107183809D01*
X137017539Y-107293246D01*
X136878246Y-107432539D01*
X136768809Y-107596325D01*
X136693429Y-107778309D01*
X136693429Y-107778310D01*
X136685137Y-107820000D01*
X135514862Y-107820000D01*
X135506570Y-107778310D01*
X135506570Y-107778309D01*
X135431190Y-107596325D01*
X135321753Y-107432539D01*
X135182460Y-107293246D01*
X135018674Y-107183809D01*
X134836689Y-107108429D01*
X134643488Y-107070000D01*
X134445000Y-107070000D01*
X134445000Y-107819988D01*
X133945000Y-107819988D01*
X133945000Y-107070000D01*
X133746512Y-107070000D01*
X133553310Y-107108429D01*
X133553309Y-107108429D01*
X133371325Y-107183809D01*
X133207539Y-107293246D01*
X133068246Y-107432539D01*
X132958809Y-107596325D01*
X132883429Y-107778309D01*
X132883429Y-107778310D01*
X132875137Y-107820000D01*
X130300500Y-107820000D01*
X130300500Y-106794220D01*
X130314852Y-106759572D01*
X130349500Y-106745220D01*
X130356470Y-106745718D01*
X130424500Y-106755500D01*
X130424504Y-106755500D01*
X142176006Y-106755500D01*
X142206455Y-106752225D01*
X142230313Y-106749661D01*
X142281824Y-106738455D01*
X142308198Y-106731219D01*
X142394828Y-106681888D01*
X142447632Y-106636133D01*
X142479257Y-106603359D01*
X142525465Y-106515024D01*
X142545150Y-106447985D01*
X142555500Y-106376000D01*
X142555500Y-104624000D01*
X142555500Y-104623993D01*
X142549662Y-104569700D01*
X142549661Y-104569687D01*
X142538455Y-104518176D01*
X142531219Y-104491802D01*
X142531218Y-104491800D01*
X142481889Y-104405173D01*
X142436145Y-104352381D01*
X142436133Y-104352368D01*
X142403358Y-104320742D01*
X142364792Y-104300568D01*
X142315024Y-104274535D01*
X142315021Y-104274534D01*
X142315019Y-104274533D01*
X142247983Y-104254849D01*
X142176004Y-104244500D01*
X142176000Y-104244500D01*
X130424500Y-104244500D01*
X130424494Y-104244500D01*
X130370200Y-104250337D01*
X130370173Y-104250341D01*
X130359915Y-104252573D01*
X130323008Y-104245914D01*
X130301620Y-104215108D01*
X130300500Y-104204693D01*
X130300500Y-99180000D01*
X132875137Y-99180000D01*
X133795254Y-99180000D01*
X133703393Y-99218050D01*
X133633063Y-99288380D01*
X133595001Y-99380270D01*
X133595001Y-99479730D01*
X133633063Y-99571620D01*
X133703393Y-99641950D01*
X133795254Y-99680000D01*
X132875137Y-99680000D01*
X132883429Y-99721689D01*
X132883429Y-99721690D01*
X132958809Y-99903674D01*
X133068246Y-100067460D01*
X133207539Y-100206753D01*
X133371325Y-100316190D01*
X133553310Y-100391570D01*
X133746512Y-100430000D01*
X133945000Y-100430000D01*
X133945000Y-99680012D01*
X134445000Y-99680012D01*
X134445000Y-100430000D01*
X134643488Y-100430000D01*
X134836689Y-100391570D01*
X134836690Y-100391570D01*
X135018674Y-100316190D01*
X135182460Y-100206753D01*
X135321753Y-100067460D01*
X135431190Y-99903674D01*
X135506570Y-99721690D01*
X135506570Y-99721689D01*
X135514863Y-99680000D01*
X134594746Y-99680000D01*
X134686607Y-99641950D01*
X134756937Y-99571620D01*
X134794999Y-99479730D01*
X134794999Y-99380270D01*
X134756937Y-99288380D01*
X134686607Y-99218050D01*
X134594746Y-99180000D01*
X135514862Y-99180000D01*
X136685137Y-99180000D01*
X137605254Y-99180000D01*
X137513393Y-99218050D01*
X137443063Y-99288380D01*
X137405001Y-99380270D01*
X137405001Y-99479730D01*
X137443063Y-99571620D01*
X137513393Y-99641950D01*
X137605254Y-99680000D01*
X136685137Y-99680000D01*
X136693429Y-99721689D01*
X136693429Y-99721690D01*
X136768809Y-99903674D01*
X136878246Y-100067460D01*
X137017539Y-100206753D01*
X137181325Y-100316190D01*
X137363310Y-100391570D01*
X137556512Y-100430000D01*
X137755000Y-100430000D01*
X137755000Y-99680012D01*
X138255000Y-99680012D01*
X138255000Y-100430000D01*
X138453488Y-100430000D01*
X138646689Y-100391570D01*
X138646690Y-100391570D01*
X138828674Y-100316190D01*
X138992460Y-100206753D01*
X139131753Y-100067460D01*
X139241190Y-99903674D01*
X139316570Y-99721690D01*
X139316570Y-99721689D01*
X139324863Y-99680000D01*
X138404746Y-99680000D01*
X138496607Y-99641950D01*
X138566937Y-99571620D01*
X138604999Y-99479730D01*
X138604999Y-99380270D01*
X138566937Y-99288380D01*
X138496607Y-99218050D01*
X138404746Y-99180000D01*
X139324862Y-99180000D01*
X139316570Y-99138310D01*
X139316570Y-99138309D01*
X139241190Y-98956325D01*
X139131753Y-98792539D01*
X138992460Y-98653246D01*
X138828674Y-98543809D01*
X138646689Y-98468429D01*
X138453488Y-98430000D01*
X138255000Y-98430000D01*
X138255000Y-99179988D01*
X137755000Y-99179988D01*
X137755000Y-98430000D01*
X137556512Y-98430000D01*
X137363310Y-98468429D01*
X137363309Y-98468429D01*
X137181325Y-98543809D01*
X137017539Y-98653246D01*
X136878246Y-98792539D01*
X136768809Y-98956325D01*
X136693429Y-99138309D01*
X136693429Y-99138310D01*
X136685137Y-99180000D01*
X135514862Y-99180000D01*
X135506570Y-99138310D01*
X135506570Y-99138309D01*
X135431190Y-98956325D01*
X135321753Y-98792539D01*
X135182460Y-98653246D01*
X135018674Y-98543809D01*
X134836689Y-98468429D01*
X134643488Y-98430000D01*
X134445000Y-98430000D01*
X134445000Y-99179988D01*
X133945000Y-99179988D01*
X133945000Y-98430000D01*
X133746512Y-98430000D01*
X133553310Y-98468429D01*
X133553309Y-98468429D01*
X133371325Y-98543809D01*
X133207539Y-98653246D01*
X133068246Y-98792539D01*
X132958809Y-98956325D01*
X132883429Y-99138309D01*
X132883429Y-99138310D01*
X132875137Y-99180000D01*
X130300500Y-99180000D01*
X130300500Y-86502165D01*
X135300000Y-86502165D01*
X135300000Y-86900000D01*
X136084316Y-86900000D01*
X136079921Y-86904395D01*
X136027260Y-86995606D01*
X136000001Y-87097339D01*
X136000001Y-87202661D01*
X136027260Y-87304394D01*
X136079921Y-87395605D01*
X136084316Y-87400000D01*
X135300000Y-87400000D01*
X135300000Y-87797834D01*
X135306401Y-87857372D01*
X135306401Y-87857373D01*
X135356648Y-87992091D01*
X135442811Y-88107188D01*
X135557909Y-88193352D01*
X135653063Y-88228842D01*
X135680512Y-88254397D01*
X135681851Y-88291876D01*
X135681210Y-88293504D01*
X135630263Y-88416501D01*
X135630260Y-88416512D01*
X135599500Y-88571152D01*
X135599500Y-88728847D01*
X135630260Y-88883487D01*
X135630263Y-88883498D01*
X135690604Y-89029175D01*
X135690606Y-89029179D01*
X135778211Y-89160289D01*
X135889711Y-89271789D01*
X136020618Y-89359258D01*
X136041453Y-89390441D01*
X136034137Y-89427223D01*
X136020619Y-89440740D01*
X135992314Y-89459654D01*
X135889711Y-89528210D01*
X135778210Y-89639711D01*
X135690604Y-89770824D01*
X135630263Y-89916501D01*
X135630260Y-89916512D01*
X135599500Y-90071152D01*
X135599500Y-90228847D01*
X135630260Y-90383487D01*
X135630263Y-90383498D01*
X135688242Y-90523472D01*
X135690606Y-90529179D01*
X135778211Y-90660289D01*
X135889711Y-90771789D01*
X135975620Y-90829191D01*
X135996454Y-90860372D01*
X135989138Y-90897155D01*
X135975619Y-90910674D01*
X135857840Y-90989371D01*
X135739371Y-91107840D01*
X135646296Y-91247137D01*
X135582185Y-91401914D01*
X135582183Y-91401920D01*
X135579261Y-91416611D01*
X135549500Y-91566233D01*
X135549500Y-91733767D01*
X135567920Y-91826372D01*
X135582183Y-91898079D01*
X135582185Y-91898085D01*
X135646296Y-92052862D01*
X135739371Y-92192159D01*
X135857840Y-92310628D01*
X135930620Y-92359258D01*
X135951455Y-92390441D01*
X135944139Y-92427223D01*
X135930620Y-92440742D01*
X135857840Y-92489371D01*
X135739371Y-92607840D01*
X135646296Y-92747137D01*
X135582185Y-92901914D01*
X135582183Y-92901920D01*
X135571264Y-92956815D01*
X135549500Y-93066233D01*
X135549500Y-93233767D01*
X135567821Y-93325873D01*
X135582183Y-93398079D01*
X135582185Y-93398085D01*
X135646296Y-93552862D01*
X135739371Y-93692159D01*
X135857840Y-93810628D01*
X135990847Y-93899500D01*
X135997137Y-93903703D01*
X136151918Y-93967816D01*
X136316233Y-94000500D01*
X136316236Y-94000500D01*
X136483764Y-94000500D01*
X136483767Y-94000500D01*
X136648082Y-93967816D01*
X136802863Y-93903703D01*
X136942162Y-93810626D01*
X136969399Y-93783389D01*
X141399500Y-93783389D01*
X141399500Y-93956610D01*
X141426597Y-94127698D01*
X141426598Y-94127701D01*
X141480127Y-94292446D01*
X141558764Y-94446782D01*
X141558767Y-94446786D01*
X141558768Y-94446788D01*
X141660586Y-94586928D01*
X141660588Y-94586930D01*
X141660591Y-94586934D01*
X141783065Y-94709408D01*
X141783068Y-94709410D01*
X141783072Y-94709414D01*
X141923212Y-94811232D01*
X141923214Y-94811233D01*
X141923217Y-94811235D01*
X142058678Y-94880255D01*
X142077555Y-94889873D01*
X142242299Y-94943402D01*
X142413389Y-94970500D01*
X142413390Y-94970500D01*
X142586610Y-94970500D01*
X142586611Y-94970500D01*
X142757701Y-94943402D01*
X142922445Y-94889873D01*
X143076788Y-94811232D01*
X143216928Y-94709414D01*
X143339414Y-94586928D01*
X143441232Y-94446788D01*
X143519873Y-94292445D01*
X143573402Y-94127701D01*
X143600500Y-93956611D01*
X143600500Y-93783389D01*
X143573402Y-93612299D01*
X143519873Y-93447555D01*
X143495290Y-93399308D01*
X143484315Y-93377767D01*
X143473385Y-93356315D01*
X147844500Y-93356315D01*
X147844500Y-93356324D01*
X147844500Y-93374236D01*
X147845672Y-93398085D01*
X147845731Y-93399275D01*
X147845733Y-93399308D01*
X147848114Y-93423476D01*
X147851789Y-93448257D01*
X147863627Y-93507771D01*
X147863627Y-93507772D01*
X147878164Y-93555694D01*
X147878167Y-93555703D01*
X147896678Y-93600395D01*
X147905921Y-93617686D01*
X147920292Y-93644572D01*
X147950953Y-93690460D01*
X147953994Y-93695011D01*
X147953996Y-93695015D01*
X147963556Y-93707905D01*
X147968931Y-93715152D01*
X147984352Y-93733943D01*
X148001192Y-93752524D01*
X148001208Y-93752540D01*
X148001226Y-93752559D01*
X148230148Y-93981480D01*
X148244500Y-94016128D01*
X148244500Y-98637787D01*
X148245731Y-98662828D01*
X148245733Y-98662861D01*
X148248113Y-98687023D01*
X148248114Y-98687027D01*
X148251792Y-98711824D01*
X148251793Y-98711830D01*
X148251794Y-98711834D01*
X148263625Y-98771317D01*
X148263630Y-98771333D01*
X148278164Y-98819252D01*
X148296674Y-98863940D01*
X148296675Y-98863944D01*
X148320288Y-98908120D01*
X148347080Y-98948217D01*
X148347087Y-98948227D01*
X148378849Y-98986931D01*
X148378860Y-98986943D01*
X148413055Y-99021138D01*
X148413058Y-99021140D01*
X148413061Y-99021143D01*
X148451781Y-99052919D01*
X148491876Y-99079709D01*
X148521588Y-99095590D01*
X148536050Y-99103321D01*
X148573772Y-99118945D01*
X148580741Y-99121832D01*
X148580746Y-99121833D01*
X148580753Y-99121836D01*
X148608129Y-99130140D01*
X148628671Y-99136371D01*
X148688173Y-99148207D01*
X148696439Y-99149433D01*
X148712943Y-99151882D01*
X148712955Y-99151883D01*
X148712973Y-99151886D01*
X148737164Y-99154269D01*
X148762211Y-99155500D01*
X148762231Y-99155500D01*
X149537769Y-99155500D01*
X149537789Y-99155500D01*
X149562839Y-99154269D01*
X149587028Y-99151886D01*
X149611823Y-99148208D01*
X149611854Y-99148201D01*
X149611865Y-99148200D01*
X149671308Y-99136376D01*
X149671312Y-99136374D01*
X149671327Y-99136372D01*
X149719257Y-99121832D01*
X149763954Y-99103318D01*
X149808130Y-99079706D01*
X149848220Y-99052918D01*
X149886932Y-99021147D01*
X149921144Y-98986936D01*
X149952923Y-98948214D01*
X149979709Y-98908125D01*
X150003318Y-98863954D01*
X150021832Y-98819257D01*
X150036371Y-98771330D01*
X150048207Y-98711830D01*
X150051886Y-98687027D01*
X150054269Y-98662834D01*
X150055500Y-98637789D01*
X150055500Y-93445041D01*
X150062065Y-93420541D01*
X150116721Y-93325875D01*
X150116721Y-93325874D01*
X150116722Y-93325873D01*
X150147894Y-93209540D01*
X150154238Y-93185865D01*
X150154238Y-93040910D01*
X150121879Y-92920148D01*
X150116722Y-92900903D01*
X150116721Y-92900902D01*
X150116721Y-92900900D01*
X150062065Y-92806233D01*
X150055500Y-92781733D01*
X150055500Y-92772930D01*
X150062065Y-92748430D01*
X150091236Y-92697904D01*
X150091237Y-92697903D01*
X150126610Y-92565892D01*
X150128753Y-92557895D01*
X150128753Y-92412940D01*
X150096511Y-92292616D01*
X150091237Y-92272933D01*
X150091236Y-92272932D01*
X150091236Y-92272930D01*
X150062065Y-92222404D01*
X150055500Y-92197904D01*
X150055500Y-92057786D01*
X150062064Y-92033287D01*
X150085988Y-91991851D01*
X150108781Y-91906788D01*
X150115472Y-91881818D01*
X150138302Y-91852065D01*
X150162802Y-91845500D01*
X150484216Y-91845500D01*
X150484236Y-91845500D01*
X150509286Y-91844269D01*
X150533475Y-91841886D01*
X150558271Y-91838208D01*
X150558303Y-91838201D01*
X150558307Y-91838201D01*
X150558308Y-91838201D01*
X150617752Y-91826377D01*
X150617757Y-91826376D01*
X150617765Y-91826373D01*
X150617774Y-91826372D01*
X150652932Y-91816726D01*
X150686215Y-91804984D01*
X150694799Y-91801782D01*
X150699857Y-91798529D01*
X150707625Y-91794466D01*
X150710378Y-91793327D01*
X150754572Y-91769707D01*
X150805014Y-91736003D01*
X150825152Y-91721068D01*
X150843943Y-91705647D01*
X150862524Y-91688807D01*
X151698807Y-90852524D01*
X151715647Y-90833943D01*
X151731068Y-90815152D01*
X151746003Y-90795014D01*
X151779707Y-90744572D01*
X151803316Y-90700405D01*
X151821831Y-90655708D01*
X151836371Y-90607777D01*
X151836373Y-90607763D01*
X151836376Y-90607755D01*
X151848201Y-90548307D01*
X151848207Y-90548278D01*
X151851886Y-90523474D01*
X151854269Y-90499281D01*
X151855500Y-90474236D01*
X151855500Y-85784104D01*
X154199500Y-85784104D01*
X154199500Y-85915895D01*
X154233607Y-86043184D01*
X154233608Y-86043188D01*
X154293277Y-86146535D01*
X154299500Y-86157314D01*
X154392686Y-86250500D01*
X154434457Y-86274617D01*
X154506811Y-86316391D01*
X154506813Y-86316391D01*
X154506814Y-86316392D01*
X154607207Y-86343292D01*
X154634104Y-86350499D01*
X154634105Y-86350500D01*
X154634108Y-86350500D01*
X154765895Y-86350500D01*
X154765895Y-86350499D01*
X154893186Y-86316392D01*
X155007314Y-86250500D01*
X155100500Y-86157314D01*
X155166392Y-86043186D01*
X155200499Y-85915895D01*
X155200500Y-85915895D01*
X155200500Y-85784105D01*
X155200499Y-85784104D01*
X155166392Y-85656815D01*
X155166391Y-85656811D01*
X155100499Y-85542685D01*
X155007314Y-85449500D01*
X154893188Y-85383608D01*
X154893184Y-85383607D01*
X154765895Y-85349500D01*
X154765892Y-85349500D01*
X154634108Y-85349500D01*
X154634105Y-85349500D01*
X154506815Y-85383607D01*
X154506811Y-85383608D01*
X154392685Y-85449500D01*
X154392685Y-85449501D01*
X154299501Y-85542685D01*
X154299500Y-85542685D01*
X154233608Y-85656811D01*
X154233607Y-85656815D01*
X154199500Y-85784104D01*
X151855500Y-85784104D01*
X151855500Y-85316127D01*
X151869852Y-85281479D01*
X152391479Y-84759852D01*
X152426127Y-84745500D01*
X153437769Y-84745500D01*
X153437789Y-84745500D01*
X153462839Y-84744269D01*
X153487028Y-84741886D01*
X153511823Y-84738208D01*
X153511854Y-84738201D01*
X153511865Y-84738200D01*
X153571308Y-84726376D01*
X153571312Y-84726374D01*
X153571327Y-84726372D01*
X153619257Y-84711832D01*
X153663954Y-84693318D01*
X153708130Y-84669706D01*
X153748220Y-84642918D01*
X153786932Y-84611147D01*
X153821144Y-84576936D01*
X153852923Y-84538214D01*
X153879709Y-84498125D01*
X153897748Y-84466446D01*
X153912980Y-84434608D01*
X153916789Y-84426265D01*
X153918066Y-84420383D01*
X153920681Y-84412034D01*
X153921820Y-84409287D01*
X153936371Y-84361330D01*
X153936372Y-84361325D01*
X153936373Y-84361323D01*
X153948200Y-84301864D01*
X153948203Y-84301849D01*
X153948207Y-84301830D01*
X153951886Y-84277027D01*
X153954269Y-84252834D01*
X153955500Y-84227789D01*
X153955500Y-83051930D01*
X153954266Y-83026851D01*
X153951877Y-83002630D01*
X153949860Y-82989048D01*
X153948189Y-82977799D01*
X153936327Y-82918245D01*
X153936325Y-82918234D01*
X153921750Y-82870249D01*
X153903191Y-82825506D01*
X153879527Y-82781297D01*
X153852676Y-82741174D01*
X153830286Y-82712396D01*
X153817369Y-82698037D01*
X153806677Y-82686152D01*
X153800484Y-82679510D01*
X153800479Y-82679505D01*
X153795480Y-82676040D01*
X153788783Y-82670453D01*
X153786534Y-82668208D01*
X153773317Y-82657386D01*
X153747740Y-82636444D01*
X153707566Y-82609672D01*
X153707563Y-82609670D01*
X153707558Y-82609667D01*
X153663321Y-82586099D01*
X153663308Y-82586092D01*
X153660206Y-82584812D01*
X153618546Y-82567627D01*
X153618524Y-82567619D01*
X153570519Y-82553141D01*
X153570505Y-82553138D01*
X153529858Y-82545126D01*
X153510920Y-82541393D01*
X153510911Y-82541391D01*
X153510901Y-82541390D01*
X153486094Y-82537755D01*
X153461868Y-82535414D01*
X153461858Y-82535413D01*
X153461856Y-82535413D01*
X153461854Y-82535412D01*
X153461830Y-82535411D01*
X153436793Y-82534228D01*
X153436779Y-82534228D01*
X153341994Y-82534414D01*
X149999493Y-82540985D01*
X149999452Y-82540986D01*
X149974499Y-82542260D01*
X149974477Y-82542261D01*
X149950348Y-82544682D01*
X149950306Y-82544687D01*
X149925565Y-82548402D01*
X149925551Y-82548404D01*
X149866129Y-82560330D01*
X149818303Y-82574921D01*
X149818281Y-82574929D01*
X149773673Y-82593483D01*
X149729594Y-82617121D01*
X149679248Y-82650850D01*
X149659162Y-82665783D01*
X149659156Y-82665788D01*
X149640441Y-82681179D01*
X149640406Y-82681209D01*
X149621886Y-82698029D01*
X149621878Y-82698037D01*
X149476386Y-82843818D01*
X149461018Y-82859216D01*
X149450010Y-82870246D01*
X149380148Y-82940244D01*
X149355026Y-82953687D01*
X149231093Y-82978339D01*
X149231084Y-82978342D01*
X149094508Y-83034914D01*
X148971584Y-83117048D01*
X148867048Y-83221584D01*
X148784914Y-83344508D01*
X148728342Y-83481084D01*
X148728339Y-83481093D01*
X148703350Y-83606722D01*
X148689974Y-83631776D01*
X148513324Y-83808774D01*
X148496533Y-83827333D01*
X148496515Y-83827354D01*
X148481150Y-83846108D01*
X148466238Y-83866247D01*
X148466234Y-83866252D01*
X148432604Y-83916662D01*
X148432602Y-83916665D01*
X148414597Y-83948338D01*
X148414593Y-83948347D01*
X148399394Y-83980175D01*
X148395603Y-83988493D01*
X148394338Y-83994326D01*
X148391737Y-84002653D01*
X148390580Y-84005450D01*
X148376080Y-84053319D01*
X148376079Y-84053323D01*
X148364273Y-84112752D01*
X148360606Y-84137508D01*
X148360604Y-84137524D01*
X148358226Y-84161699D01*
X148357000Y-84186672D01*
X148357000Y-84186695D01*
X148357000Y-91428417D01*
X148358230Y-91453459D01*
X148358231Y-91453470D01*
X148358232Y-91453487D01*
X148360612Y-91477645D01*
X148364287Y-91502427D01*
X148368465Y-91523434D01*
X148368467Y-91523441D01*
X148383004Y-91571367D01*
X148401517Y-91616063D01*
X148401526Y-91616082D01*
X148425128Y-91660239D01*
X148425133Y-91660247D01*
X148436242Y-91676873D01*
X148444500Y-91704096D01*
X148444500Y-92885500D01*
X148430148Y-92920148D01*
X148395500Y-92934500D01*
X148266316Y-92934500D01*
X148233001Y-92936682D01*
X148232974Y-92936685D01*
X148208536Y-92939901D01*
X148200899Y-92940907D01*
X148184264Y-92944215D01*
X148168098Y-92947430D01*
X148140973Y-92954698D01*
X148140957Y-92954704D01*
X148079340Y-92980226D01*
X148023759Y-93012316D01*
X148023744Y-93012326D01*
X147970850Y-93052913D01*
X147970837Y-93052924D01*
X147962935Y-93060826D01*
X147962922Y-93060840D01*
X147939058Y-93088381D01*
X147939039Y-93088405D01*
X147917899Y-93116645D01*
X147912570Y-93124034D01*
X147901980Y-93148361D01*
X147899490Y-93153298D01*
X147890222Y-93169353D01*
X147864699Y-93230977D01*
X147857428Y-93258117D01*
X147857426Y-93258123D01*
X147850912Y-93290870D01*
X147846685Y-93322981D01*
X147846683Y-93322997D01*
X147844500Y-93356315D01*
X143473385Y-93356315D01*
X143441235Y-93293217D01*
X143441233Y-93293214D01*
X143441232Y-93293212D01*
X143339414Y-93153072D01*
X143339410Y-93153068D01*
X143339408Y-93153065D01*
X143216934Y-93030591D01*
X143216935Y-93030591D01*
X143168269Y-92995233D01*
X143076788Y-92928768D01*
X143076786Y-92928767D01*
X143076782Y-92928764D01*
X142922446Y-92850127D01*
X142757701Y-92796598D01*
X142757698Y-92796597D01*
X142608267Y-92772930D01*
X142586611Y-92769500D01*
X142413389Y-92769500D01*
X142391733Y-92772930D01*
X142242301Y-92796597D01*
X142242298Y-92796598D01*
X142077553Y-92850127D01*
X141923217Y-92928764D01*
X141783065Y-93030591D01*
X141660591Y-93153065D01*
X141558764Y-93293217D01*
X141480127Y-93447553D01*
X141426598Y-93612298D01*
X141426597Y-93612301D01*
X141399500Y-93783389D01*
X136969399Y-93783389D01*
X137060626Y-93692162D01*
X137153703Y-93552863D01*
X137217816Y-93398082D01*
X137250500Y-93233767D01*
X137250500Y-93066233D01*
X137217816Y-92901918D01*
X137153703Y-92747137D01*
X137133958Y-92717587D01*
X137060628Y-92607840D01*
X136942161Y-92489373D01*
X136897684Y-92459655D01*
X136869377Y-92440740D01*
X136848543Y-92409560D01*
X136855859Y-92372777D01*
X136869376Y-92359259D01*
X136942162Y-92310626D01*
X137060626Y-92192162D01*
X137153703Y-92052863D01*
X137217816Y-91898082D01*
X137250500Y-91733767D01*
X137250500Y-91566233D01*
X137217816Y-91401918D01*
X137217813Y-91401910D01*
X137159121Y-91260215D01*
X137153703Y-91247138D01*
X137153703Y-91247137D01*
X137151199Y-91243389D01*
X141399500Y-91243389D01*
X141399500Y-91416610D01*
X141426597Y-91587698D01*
X141426598Y-91587701D01*
X141480127Y-91752446D01*
X141558764Y-91906782D01*
X141558767Y-91906786D01*
X141558768Y-91906788D01*
X141660586Y-92046928D01*
X141660588Y-92046930D01*
X141660591Y-92046934D01*
X141783065Y-92169408D01*
X141783068Y-92169410D01*
X141783072Y-92169414D01*
X141923212Y-92271232D01*
X141923214Y-92271233D01*
X141923217Y-92271235D01*
X142012388Y-92316669D01*
X142077555Y-92349873D01*
X142242299Y-92403402D01*
X142413389Y-92430500D01*
X142413390Y-92430500D01*
X142586610Y-92430500D01*
X142586611Y-92430500D01*
X142757701Y-92403402D01*
X142922445Y-92349873D01*
X143076788Y-92271232D01*
X143216928Y-92169414D01*
X143339414Y-92046928D01*
X143441232Y-91906788D01*
X143519873Y-91752445D01*
X143573402Y-91587701D01*
X143600500Y-91416611D01*
X143600500Y-91243389D01*
X143573402Y-91072299D01*
X143519873Y-90907555D01*
X143495163Y-90859058D01*
X143441235Y-90753217D01*
X143441233Y-90753214D01*
X143441232Y-90753212D01*
X143339414Y-90613072D01*
X143339410Y-90613068D01*
X143339408Y-90613065D01*
X143216934Y-90490591D01*
X143216935Y-90490591D01*
X143098609Y-90404622D01*
X143076788Y-90388768D01*
X143076786Y-90388767D01*
X143076782Y-90388764D01*
X142922446Y-90310127D01*
X142757701Y-90256598D01*
X142757698Y-90256597D01*
X142610496Y-90233283D01*
X142586611Y-90229500D01*
X142413389Y-90229500D01*
X142389504Y-90233283D01*
X142242301Y-90256597D01*
X142242298Y-90256598D01*
X142077553Y-90310127D01*
X141923217Y-90388764D01*
X141783065Y-90490591D01*
X141660591Y-90613065D01*
X141558764Y-90753217D01*
X141480127Y-90907553D01*
X141426598Y-91072298D01*
X141426597Y-91072301D01*
X141399500Y-91243389D01*
X137151199Y-91243389D01*
X137068983Y-91120345D01*
X137060628Y-91107840D01*
X136942159Y-90989371D01*
X136824380Y-90910674D01*
X136803545Y-90879491D01*
X136810861Y-90842709D01*
X136824378Y-90829192D01*
X136910289Y-90771789D01*
X137021789Y-90660289D01*
X137109394Y-90529179D01*
X137169737Y-90383497D01*
X137200500Y-90228842D01*
X137200500Y-90071158D01*
X137196192Y-90049500D01*
X137169739Y-89916512D01*
X137169736Y-89916501D01*
X137109395Y-89770824D01*
X137109394Y-89770821D01*
X137021789Y-89639711D01*
X136910289Y-89528211D01*
X136779379Y-89440740D01*
X136758546Y-89409560D01*
X136765862Y-89372777D01*
X136779377Y-89359261D01*
X136910289Y-89271789D01*
X137021789Y-89160289D01*
X137109394Y-89029179D01*
X137118524Y-89007136D01*
X137129455Y-88980749D01*
X137155974Y-88954230D01*
X137174725Y-88950500D01*
X140139564Y-88950500D01*
X140167578Y-88942993D01*
X140215989Y-88930021D01*
X140284511Y-88890460D01*
X140340460Y-88834511D01*
X140488436Y-88686535D01*
X141449500Y-88686535D01*
X141449500Y-88893465D01*
X141465818Y-88975500D01*
X141489869Y-89096417D01*
X141489871Y-89096423D01*
X141569058Y-89287596D01*
X141683971Y-89459578D01*
X141684023Y-89459655D01*
X141830345Y-89605977D01*
X142002402Y-89720941D01*
X142193580Y-89800130D01*
X142396535Y-89840500D01*
X142396538Y-89840500D01*
X142603462Y-89840500D01*
X142603465Y-89840500D01*
X142806420Y-89800130D01*
X142997598Y-89720941D01*
X143169655Y-89605977D01*
X143315977Y-89459655D01*
X143430941Y-89287598D01*
X143510130Y-89096420D01*
X143550500Y-88893465D01*
X143550500Y-88686535D01*
X143510130Y-88483580D01*
X143430941Y-88292402D01*
X143315977Y-88120345D01*
X143169655Y-87974023D01*
X143148889Y-87960148D01*
X143029332Y-87880263D01*
X142997598Y-87859059D01*
X142993528Y-87857373D01*
X142806423Y-87779871D01*
X142806417Y-87779869D01*
X142724572Y-87763589D01*
X142603465Y-87739500D01*
X142396535Y-87739500D01*
X142295520Y-87759592D01*
X142193582Y-87779869D01*
X142193576Y-87779871D01*
X142002403Y-87859058D01*
X141830345Y-87974022D01*
X141684022Y-88120345D01*
X141569058Y-88292403D01*
X141489871Y-88483576D01*
X141489869Y-88483582D01*
X141477177Y-88547390D01*
X141449500Y-88686535D01*
X140488436Y-88686535D01*
X141973330Y-87201639D01*
X142007977Y-87187288D01*
X142026728Y-87191018D01*
X142193572Y-87260127D01*
X142193574Y-87260127D01*
X142193580Y-87260130D01*
X142396535Y-87300500D01*
X142396538Y-87300500D01*
X142603462Y-87300500D01*
X142603465Y-87300500D01*
X142806420Y-87260130D01*
X142997598Y-87180941D01*
X143169655Y-87065977D01*
X143315977Y-86919655D01*
X143430941Y-86747598D01*
X143510130Y-86556420D01*
X143550500Y-86353465D01*
X143550500Y-86146535D01*
X143510130Y-85943580D01*
X143430941Y-85752402D01*
X143315977Y-85580345D01*
X143169655Y-85434023D01*
X142997598Y-85319059D01*
X142941521Y-85295831D01*
X142806423Y-85239871D01*
X142806417Y-85239869D01*
X142724572Y-85223589D01*
X142603465Y-85199500D01*
X142396535Y-85199500D01*
X142295520Y-85219592D01*
X142193582Y-85239869D01*
X142193576Y-85239871D01*
X142002403Y-85319058D01*
X141830345Y-85434022D01*
X141684022Y-85580345D01*
X141569058Y-85752403D01*
X141489871Y-85943576D01*
X141489869Y-85943582D01*
X141470058Y-86043184D01*
X141449500Y-86146535D01*
X141449500Y-86353465D01*
X141476290Y-86488150D01*
X141489869Y-86556417D01*
X141489871Y-86556423D01*
X141558981Y-86723268D01*
X141558981Y-86760771D01*
X141548359Y-86776668D01*
X139989881Y-88335148D01*
X139955233Y-88349500D01*
X137174725Y-88349500D01*
X137165720Y-88345770D01*
X137155974Y-88345770D01*
X137149081Y-88338877D01*
X137140077Y-88335148D01*
X137129455Y-88319252D01*
X137118790Y-88293505D01*
X137118790Y-88256002D01*
X137145308Y-88229483D01*
X137146937Y-88228842D01*
X137242090Y-88193352D01*
X137357188Y-88107188D01*
X137443351Y-87992091D01*
X137493598Y-87857373D01*
X137493598Y-87857372D01*
X137500000Y-87797834D01*
X137500000Y-87400000D01*
X136715684Y-87400000D01*
X136720079Y-87395605D01*
X136772740Y-87304394D01*
X136799999Y-87202661D01*
X136799999Y-87097339D01*
X136772740Y-86995606D01*
X136720079Y-86904395D01*
X136715684Y-86900000D01*
X137500000Y-86900000D01*
X137500000Y-86502165D01*
X137493598Y-86442627D01*
X137493598Y-86442626D01*
X137443351Y-86307908D01*
X137357188Y-86192811D01*
X137242091Y-86106648D01*
X137107373Y-86056401D01*
X137047834Y-86050000D01*
X136650000Y-86050000D01*
X136650000Y-86834316D01*
X136645605Y-86829921D01*
X136554394Y-86777260D01*
X136452661Y-86750001D01*
X136347339Y-86750001D01*
X136245606Y-86777260D01*
X136154395Y-86829921D01*
X136150000Y-86834316D01*
X136150000Y-86050000D01*
X135752166Y-86050000D01*
X135692627Y-86056401D01*
X135692626Y-86056401D01*
X135557908Y-86106648D01*
X135442811Y-86192811D01*
X135356648Y-86307908D01*
X135306401Y-86442626D01*
X135306401Y-86442627D01*
X135300000Y-86502165D01*
X130300500Y-86502165D01*
X130300500Y-83497393D01*
X130314852Y-83462745D01*
X130349500Y-83448393D01*
X130356847Y-83448947D01*
X130369443Y-83450857D01*
X130421568Y-83458763D01*
X130850677Y-83462079D01*
X130850679Y-83462078D01*
X130850688Y-83462079D01*
X130854572Y-83461985D01*
X130866855Y-83461692D01*
X130882534Y-83460819D01*
X130968906Y-83440586D01*
X131033135Y-83413082D01*
X131073243Y-83391490D01*
X131144153Y-83321418D01*
X131183315Y-83263555D01*
X131205380Y-83223710D01*
X131227149Y-83126425D01*
X131228811Y-83056577D01*
X131228256Y-83051937D01*
X131220179Y-82984382D01*
X131220176Y-82984370D01*
X131218560Y-82978339D01*
X131206670Y-82933961D01*
X131205000Y-82921279D01*
X131205000Y-82856501D01*
X131206667Y-82843826D01*
X131223438Y-82781238D01*
X131228328Y-82769434D01*
X131260715Y-82713339D01*
X131268495Y-82703200D01*
X131314312Y-82657383D01*
X131324451Y-82649603D01*
X131380545Y-82617217D01*
X131392349Y-82612327D01*
X131454937Y-82595556D01*
X131467612Y-82593889D01*
X131532387Y-82593889D01*
X131545069Y-82595559D01*
X131597739Y-82609672D01*
X131607637Y-82612324D01*
X131619455Y-82617219D01*
X131675540Y-82649600D01*
X131685688Y-82657386D01*
X131731498Y-82703195D01*
X131739285Y-82713344D01*
X131771670Y-82769437D01*
X131776565Y-82781254D01*
X131793330Y-82843818D01*
X131795000Y-82856501D01*
X131795000Y-82921276D01*
X131793330Y-82933959D01*
X131777148Y-82994347D01*
X131773854Y-83008169D01*
X131771029Y-83021677D01*
X131771029Y-83021679D01*
X131769781Y-83056811D01*
X131767949Y-83108371D01*
X131777358Y-83177604D01*
X131777360Y-83177613D01*
X131777361Y-83177619D01*
X131787488Y-83222007D01*
X131836152Y-83309021D01*
X131881490Y-83362167D01*
X131881497Y-83362174D01*
X131914026Y-83394051D01*
X132002002Y-83440940D01*
X132068887Y-83461142D01*
X132068888Y-83461142D01*
X132068891Y-83461143D01*
X132091666Y-83464596D01*
X132140788Y-83472047D01*
X136586334Y-83506396D01*
X136620867Y-83521015D01*
X136632554Y-83540252D01*
X136687915Y-83710638D01*
X136773669Y-83878939D01*
X136773671Y-83878943D01*
X136792115Y-83904328D01*
X136792116Y-83904328D01*
X137378279Y-83318164D01*
X137403970Y-83414041D01*
X137459921Y-83510952D01*
X137539048Y-83590079D01*
X137635959Y-83646030D01*
X137731833Y-83671719D01*
X137145669Y-84257883D01*
X137171063Y-84276331D01*
X137339361Y-84362084D01*
X137518998Y-84420451D01*
X137519001Y-84420452D01*
X137705559Y-84450000D01*
X137894441Y-84450000D01*
X138080998Y-84420452D01*
X138081001Y-84420451D01*
X138260638Y-84362084D01*
X138428933Y-84276333D01*
X138454328Y-84257882D01*
X137868165Y-83671719D01*
X137964041Y-83646030D01*
X138060952Y-83590079D01*
X138140079Y-83510952D01*
X138196030Y-83414041D01*
X138221719Y-83318165D01*
X138807882Y-83904328D01*
X138826333Y-83878933D01*
X138912084Y-83710638D01*
X138961365Y-83558967D01*
X138985721Y-83530450D01*
X139008341Y-83525111D01*
X141272568Y-83542606D01*
X141327888Y-83536983D01*
X141380357Y-83525781D01*
X141407698Y-83518337D01*
X141494328Y-83469006D01*
X141494330Y-83469003D01*
X141494341Y-83468997D01*
X141494348Y-83468994D01*
X141496420Y-83467815D01*
X141496671Y-83468256D01*
X141522639Y-83460000D01*
X142066988Y-83460000D01*
X142034075Y-83517007D01*
X142000000Y-83644174D01*
X142000000Y-83775826D01*
X142034075Y-83902993D01*
X142066988Y-83960000D01*
X141150000Y-83960000D01*
X141150000Y-84607834D01*
X141156401Y-84667372D01*
X141156401Y-84667373D01*
X141206648Y-84802091D01*
X141292811Y-84917188D01*
X141407908Y-85003351D01*
X141542626Y-85053598D01*
X141602166Y-85060000D01*
X142250000Y-85060000D01*
X142250000Y-84143012D01*
X142307007Y-84175925D01*
X142434174Y-84210000D01*
X142565826Y-84210000D01*
X142692993Y-84175925D01*
X142750000Y-84143012D01*
X142750000Y-85060000D01*
X143397834Y-85060000D01*
X143457372Y-85053598D01*
X143457373Y-85053598D01*
X143592091Y-85003351D01*
X143707188Y-84917188D01*
X143793351Y-84802091D01*
X143843598Y-84667373D01*
X143843598Y-84667372D01*
X143850000Y-84607834D01*
X143850000Y-83960000D01*
X142933012Y-83960000D01*
X142965925Y-83902993D01*
X143000000Y-83775826D01*
X143000000Y-83644174D01*
X142965925Y-83517007D01*
X142933012Y-83460000D01*
X143450786Y-83460000D01*
X143485082Y-83474003D01*
X143494806Y-83483532D01*
X143582782Y-83530421D01*
X143649667Y-83550623D01*
X143649668Y-83550623D01*
X143649671Y-83550624D01*
X143672446Y-83554077D01*
X143721568Y-83561528D01*
X147126883Y-83587840D01*
X147126904Y-83587839D01*
X147126907Y-83587839D01*
X147131915Y-83587604D01*
X147154694Y-83586538D01*
X147179476Y-83584018D01*
X147181543Y-83583809D01*
X147181544Y-83583822D01*
X147181581Y-83583804D01*
X147182036Y-83583759D01*
X147277286Y-83554337D01*
X147338738Y-83521089D01*
X147397123Y-83477733D01*
X148343308Y-82538831D01*
X148361978Y-82518167D01*
X148378063Y-82498285D01*
X148378952Y-82497186D01*
X148378962Y-82497194D01*
X148378975Y-82497157D01*
X148379257Y-82496809D01*
X148425465Y-82408474D01*
X148445150Y-82341435D01*
X148455500Y-82269450D01*
X148455500Y-79313862D01*
X148454036Y-79286548D01*
X148451202Y-79260190D01*
X148426446Y-79181128D01*
X148421413Y-79165055D01*
X148421411Y-79165052D01*
X148387932Y-79103740D01*
X148387931Y-79103739D01*
X148387928Y-79103733D01*
X148344347Y-79045515D01*
X148344343Y-79045511D01*
X148344342Y-79045509D01*
X146604481Y-77305649D01*
X146584153Y-77287389D01*
X146584140Y-77287378D01*
X146584135Y-77287374D01*
X146563493Y-77270740D01*
X146475162Y-77224535D01*
X146475157Y-77224533D01*
X146475158Y-77224533D01*
X146408121Y-77204849D01*
X146336142Y-77194500D01*
X146336138Y-77194500D01*
X130424500Y-77194500D01*
X130424494Y-77194500D01*
X130370200Y-77200337D01*
X130370173Y-77200341D01*
X130359915Y-77202573D01*
X130323008Y-77195914D01*
X130301620Y-77165108D01*
X130300500Y-77154693D01*
X130300500Y-68731583D01*
X136149500Y-68731583D01*
X136149500Y-68928416D01*
X136180290Y-69122823D01*
X136180291Y-69122826D01*
X136241116Y-69310026D01*
X136330472Y-69485399D01*
X136330475Y-69485403D01*
X136330476Y-69485405D01*
X136446172Y-69644646D01*
X136446174Y-69644648D01*
X136446177Y-69644652D01*
X136585347Y-69783822D01*
X136585350Y-69783824D01*
X136585354Y-69783828D01*
X136744595Y-69899524D01*
X136744597Y-69899525D01*
X136744600Y-69899527D01*
X136919973Y-69988883D01*
X136919975Y-69988884D01*
X137107174Y-70049709D01*
X137301583Y-70080500D01*
X137301584Y-70080500D01*
X137498416Y-70080500D01*
X137498417Y-70080500D01*
X137692826Y-70049709D01*
X137880025Y-69988884D01*
X138055405Y-69899524D01*
X138214646Y-69783828D01*
X138353828Y-69644646D01*
X138469524Y-69485405D01*
X138558884Y-69310025D01*
X138619709Y-69122826D01*
X138650500Y-68928417D01*
X138650500Y-68731583D01*
X138619709Y-68537174D01*
X138558884Y-68349975D01*
X138534155Y-68301441D01*
X138469527Y-68174600D01*
X138469525Y-68174597D01*
X138469524Y-68174595D01*
X138353828Y-68015354D01*
X138353824Y-68015350D01*
X138353822Y-68015347D01*
X138214652Y-67876177D01*
X138214653Y-67876177D01*
X138060287Y-67764023D01*
X138055405Y-67760476D01*
X138055403Y-67760475D01*
X138055399Y-67760472D01*
X137880026Y-67671116D01*
X137692826Y-67610291D01*
X137692823Y-67610290D01*
X137543482Y-67586637D01*
X137498417Y-67579500D01*
X137301583Y-67579500D01*
X137264998Y-67585294D01*
X137107176Y-67610290D01*
X137107173Y-67610291D01*
X136919973Y-67671116D01*
X136744600Y-67760472D01*
X136585347Y-67876177D01*
X136446177Y-68015347D01*
X136330472Y-68174600D01*
X136241116Y-68349973D01*
X136180291Y-68537173D01*
X136180290Y-68537176D01*
X136149500Y-68731583D01*
X130300500Y-68731583D01*
X130300500Y-57501487D01*
X130300589Y-57498529D01*
X130316358Y-57237831D01*
X130316359Y-57237830D01*
X130316358Y-57237822D01*
X130317070Y-57231967D01*
X130363879Y-56976534D01*
X130365291Y-56970804D01*
X130442552Y-56722869D01*
X130444645Y-56717351D01*
X130551228Y-56480531D01*
X130553963Y-56475318D01*
X130688318Y-56253070D01*
X130691670Y-56248214D01*
X130851831Y-56043784D01*
X130855739Y-56039373D01*
X131039373Y-55855739D01*
X131043784Y-55851831D01*
X131248214Y-55691670D01*
X131253070Y-55688318D01*
X131475318Y-55553963D01*
X131480531Y-55551228D01*
X131717351Y-55444645D01*
X131722869Y-55442552D01*
X131970804Y-55365291D01*
X131976534Y-55363879D01*
X132231967Y-55317070D01*
X132237822Y-55316358D01*
X132462154Y-55302789D01*
X132498530Y-55300589D01*
X132501488Y-55300500D01*
X132547595Y-55300500D01*
X187452405Y-55300500D01*
X187498512Y-55300500D01*
X187501470Y-55300589D01*
G37*
%TD.AperFunction*%
%TA.AperFunction,Conductor*%
G36*
X131545069Y-78706670D02*
G01*
X131607637Y-78723435D01*
X131619455Y-78728330D01*
X131675539Y-78760710D01*
X131685687Y-78768496D01*
X131731499Y-78814307D01*
X131739285Y-78824455D01*
X131739286Y-78824456D01*
X131771669Y-78880545D01*
X131776564Y-78892362D01*
X131793330Y-78954929D01*
X131795000Y-78967612D01*
X131795000Y-79032386D01*
X131793330Y-79045067D01*
X131793210Y-79045515D01*
X131776564Y-79107635D01*
X131771669Y-79119452D01*
X131739284Y-79175545D01*
X131731497Y-79185693D01*
X131685693Y-79231497D01*
X131675545Y-79239284D01*
X131619453Y-79271669D01*
X131607636Y-79276564D01*
X131545069Y-79293330D01*
X131532386Y-79295000D01*
X131467613Y-79295000D01*
X131454931Y-79293330D01*
X131429602Y-79286543D01*
X131392365Y-79276565D01*
X131380548Y-79271670D01*
X131324454Y-79239284D01*
X131314305Y-79231497D01*
X131268496Y-79185687D01*
X131260710Y-79175539D01*
X131228330Y-79119456D01*
X131223435Y-79107638D01*
X131206670Y-79045068D01*
X131205000Y-79032386D01*
X131205000Y-78967612D01*
X131206667Y-78954937D01*
X131223438Y-78892349D01*
X131228328Y-78880545D01*
X131260715Y-78824450D01*
X131268495Y-78814311D01*
X131314312Y-78768494D01*
X131324451Y-78760714D01*
X131380545Y-78728328D01*
X131392349Y-78723438D01*
X131454937Y-78706667D01*
X131467612Y-78705000D01*
X131532387Y-78705000D01*
X131545069Y-78706670D01*
G37*
%TD.AperFunction*%
%TD*%
M02*
