%TF.GenerationSoftware,KiCad,Pcbnew,9.0.7*%
%TF.CreationDate,2026-02-24T17:22:27-08:00*%
%TF.ProjectId,servo-dev-board-ch32v006,73657276-6f2d-4646-9576-2d626f617264,rev?*%
%TF.SameCoordinates,Original*%
%TF.FileFunction,Soldermask,Top*%
%TF.FilePolarity,Negative*%
%FSLAX46Y46*%
G04 Gerber Fmt 4.6, Leading zero omitted, Abs format (unit mm)*
G04 Created by KiCad (PCBNEW 9.0.7) date 2026-02-24 17:22:27*
%MOMM*%
%LPD*%
G01*
G04 APERTURE LIST*
G04 Aperture macros list*
%AMRoundRect*
0 Rectangle with rounded corners*
0 $1 Rounding radius*
0 $2 $3 $4 $5 $6 $7 $8 $9 X,Y pos of 4 corners*
0 Add a 4 corners polygon primitive as box body*
4,1,4,$2,$3,$4,$5,$6,$7,$8,$9,$2,$3,0*
0 Add four circle primitives for the rounded corners*
1,1,$1+$1,$2,$3*
1,1,$1+$1,$4,$5*
1,1,$1+$1,$6,$7*
1,1,$1+$1,$8,$9*
0 Add four rect primitives between the rounded corners*
20,1,$1+$1,$2,$3,$4,$5,0*
20,1,$1+$1,$4,$5,$6,$7,0*
20,1,$1+$1,$6,$7,$8,$9,0*
20,1,$1+$1,$8,$9,$2,$3,0*%
%AMFreePoly0*
4,1,9,5.362500,-0.866500,1.237500,-0.866500,1.237500,-0.450000,-1.237500,-0.450000,-1.237500,0.450000,1.237500,0.450000,1.237500,0.866500,5.362500,0.866500,5.362500,-0.866500,5.362500,-0.866500,$1*%
G04 Aperture macros list end*
%ADD10RoundRect,0.250000X-0.350000X-0.450000X0.350000X-0.450000X0.350000X0.450000X-0.350000X0.450000X0*%
%ADD11RoundRect,0.250000X0.350000X0.450000X-0.350000X0.450000X-0.350000X-0.450000X0.350000X-0.450000X0*%
%ADD12RoundRect,0.250000X-1.450000X-0.650000X1.450000X-0.650000X1.450000X0.650000X-1.450000X0.650000X0*%
%ADD13RoundRect,0.250000X0.250000X0.250000X-0.250000X0.250000X-0.250000X-0.250000X0.250000X-0.250000X0*%
%ADD14RoundRect,0.243750X-0.243750X-0.456250X0.243750X-0.456250X0.243750X0.456250X-0.243750X0.456250X0*%
%ADD15RoundRect,0.250000X0.650000X-1.450000X0.650000X1.450000X-0.650000X1.450000X-0.650000X-1.450000X0*%
%ADD16RoundRect,0.087500X-0.087500X0.537500X-0.087500X-0.537500X0.087500X-0.537500X0.087500X0.537500X0*%
%ADD17R,1.700000X1.700000*%
%ADD18C,1.700000*%
%ADD19RoundRect,0.250000X-1.500000X-0.650000X1.500000X-0.650000X1.500000X0.650000X-1.500000X0.650000X0*%
%ADD20RoundRect,0.250000X-0.475000X0.337500X-0.475000X-0.337500X0.475000X-0.337500X0.475000X0.337500X0*%
%ADD21RoundRect,0.250000X-0.275000X-0.750000X0.275000X-0.750000X0.275000X0.750000X-0.275000X0.750000X0*%
%ADD22RoundRect,0.250000X0.312500X0.625000X-0.312500X0.625000X-0.312500X-0.625000X0.312500X-0.625000X0*%
%ADD23RoundRect,0.250000X-1.500000X-0.550000X1.500000X-0.550000X1.500000X0.550000X-1.500000X0.550000X0*%
%ADD24RoundRect,0.225000X0.925000X0.225000X-0.925000X0.225000X-0.925000X-0.225000X0.925000X-0.225000X0*%
%ADD25FreePoly0,180.000000*%
%ADD26RoundRect,0.250000X-0.337500X-0.475000X0.337500X-0.475000X0.337500X0.475000X-0.337500X0.475000X0*%
%ADD27C,3.500000*%
%ADD28RoundRect,0.250000X0.337500X0.475000X-0.337500X0.475000X-0.337500X-0.475000X0.337500X-0.475000X0*%
%ADD29R,1.400000X1.500000*%
%ADD30C,1.400000*%
%ADD31RoundRect,0.250000X0.275000X0.350000X-0.275000X0.350000X-0.275000X-0.350000X0.275000X-0.350000X0*%
%ADD32C,1.600000*%
%ADD33O,1.700000X1.000000*%
%ADD34R,1.200000X0.700000*%
%ADD35R,1.200000X0.800000*%
%ADD36C,2.000000*%
%ADD37RoundRect,0.062500X-0.187500X-0.062500X0.187500X-0.062500X0.187500X0.062500X-0.187500X0.062500X0*%
%ADD38R,0.900000X1.600000*%
%ADD39R,1.200000X1.200000*%
%ADD40C,1.200000*%
%ADD41RoundRect,0.100000X-0.637500X-0.100000X0.637500X-0.100000X0.637500X0.100000X-0.637500X0.100000X0*%
G04 APERTURE END LIST*
D10*
%TO.C,R11*%
X146837500Y-65100000D03*
X148837500Y-65100000D03*
%TD*%
D11*
%TO.C,R12*%
X185000000Y-80100000D03*
X183000000Y-80100000D03*
%TD*%
D12*
%TO.C,TP12*%
X142503219Y-59000000D03*
%TD*%
D13*
%TO.C,D4*%
X176200000Y-71700000D03*
X173700000Y-71700000D03*
%TD*%
D14*
%TO.C,LED1*%
X166562500Y-62850000D03*
X168437500Y-62850000D03*
%TD*%
D12*
%TO.C,TP4*%
X152000000Y-111000000D03*
%TD*%
D15*
%TO.C,TP25*%
X158000000Y-92945000D03*
%TD*%
D11*
%TO.C,R2*%
X142695000Y-99250000D03*
X140695000Y-99250000D03*
%TD*%
D16*
%TO.C,U4*%
X177712500Y-80500000D03*
X177212500Y-80500000D03*
X176712500Y-80500000D03*
X176212500Y-80500000D03*
X176212500Y-83300000D03*
X176712500Y-83300000D03*
X177212500Y-83300000D03*
X177712500Y-83300000D03*
%TD*%
D14*
%TO.C,LED2*%
X166562500Y-65100000D03*
X168437500Y-65100000D03*
%TD*%
D12*
%TO.C,TP18*%
X172500000Y-59000000D03*
%TD*%
D17*
%TO.C,J5*%
X142500000Y-83710000D03*
D18*
X142500000Y-86250000D03*
X142500000Y-88790000D03*
X142500000Y-91330000D03*
X142500000Y-93870000D03*
%TD*%
D19*
%TO.C,D2*%
X132500000Y-77250000D03*
X137500000Y-77250000D03*
%TD*%
D15*
%TO.C,TP26*%
X158000000Y-97945000D03*
%TD*%
D10*
%TO.C,R15*%
X179200000Y-80100000D03*
X181200000Y-80100000D03*
%TD*%
D20*
%TO.C,C10*%
X145300000Y-91575000D03*
X145300000Y-93650000D03*
%TD*%
D21*
%TO.C,SW1*%
X150775000Y-66100000D03*
X155225000Y-66100000D03*
%TD*%
D22*
%TO.C,RS1*%
X152112500Y-98000000D03*
X149187500Y-98000000D03*
%TD*%
D23*
%TO.C,C7*%
X146300000Y-83700000D03*
X151900000Y-83700000D03*
%TD*%
D12*
%TO.C,TP1*%
X136750000Y-111000000D03*
%TD*%
%TO.C,TP6*%
X162000000Y-111000000D03*
%TD*%
D15*
%TO.C,TP21*%
X158000000Y-72945000D03*
%TD*%
D17*
%TO.C,J7*%
X179000000Y-63500000D03*
D18*
X179000000Y-66040000D03*
X179000000Y-68580000D03*
%TD*%
D15*
%TO.C,TP22*%
X158000000Y-77945000D03*
%TD*%
D24*
%TO.C,U1*%
X151237500Y-107000000D03*
D25*
X151150000Y-105500000D03*
D24*
X151237500Y-104000000D03*
%TD*%
D11*
%TO.C,R1*%
X142695000Y-101250000D03*
X140695000Y-101250000D03*
%TD*%
D12*
%TO.C,TP16*%
X162500000Y-59000000D03*
%TD*%
D26*
%TO.C,C5*%
X147175000Y-90300000D03*
X149250000Y-90300000D03*
%TD*%
D17*
%TO.C,J3*%
X185460000Y-95750000D03*
D18*
X188000000Y-95750000D03*
X185460000Y-98290000D03*
X188000000Y-98290000D03*
X185460000Y-100830000D03*
X188000000Y-100830000D03*
%TD*%
D27*
%TO.C,H1*%
X132750000Y-57750000D03*
%TD*%
D11*
%TO.C,R9*%
X153000000Y-88300000D03*
X151000000Y-88300000D03*
%TD*%
D20*
%TO.C,C3*%
X153787500Y-104425000D03*
X153787500Y-106500000D03*
%TD*%
D12*
%TO.C,TP15*%
X157500000Y-59000000D03*
%TD*%
%TO.C,TP3*%
X147000000Y-111000000D03*
%TD*%
%TO.C,TP9*%
X177000000Y-111000000D03*
%TD*%
D26*
%TO.C,C13*%
X146800000Y-67200000D03*
X148875000Y-67200000D03*
%TD*%
D11*
%TO.C,R6*%
X155030000Y-78900000D03*
X153030000Y-78900000D03*
%TD*%
D17*
%TO.C,J8*%
X182847500Y-63500000D03*
D18*
X182847500Y-66040000D03*
X182847500Y-68580000D03*
%TD*%
D10*
%TO.C,TH1*%
X183000000Y-82100000D03*
X185000000Y-82100000D03*
%TD*%
D11*
%TO.C,R3*%
X172250000Y-62850000D03*
X170250000Y-62850000D03*
%TD*%
D12*
%TO.C,TP13*%
X147503219Y-59000000D03*
%TD*%
D26*
%TO.C,C6*%
X147175000Y-88300000D03*
X149250000Y-88300000D03*
%TD*%
D10*
%TO.C,R16*%
X172212500Y-81250000D03*
X174212500Y-81250000D03*
%TD*%
D15*
%TO.C,TP24*%
X158000000Y-87945000D03*
%TD*%
D28*
%TO.C,C14*%
X155067500Y-74900000D03*
X152992500Y-74900000D03*
%TD*%
D10*
%TO.C,R14*%
X172212500Y-83250000D03*
X174212500Y-83250000D03*
%TD*%
D27*
%TO.C,H2*%
X187250000Y-57750000D03*
%TD*%
D10*
%TO.C,R7*%
X153030000Y-68900000D03*
X155030000Y-68900000D03*
%TD*%
D11*
%TO.C,R4*%
X172250000Y-65100000D03*
X170250000Y-65100000D03*
%TD*%
D19*
%TO.C,D1*%
X132500000Y-96750000D03*
X137500000Y-96750000D03*
%TD*%
D11*
%TO.C,R8*%
X155030000Y-70900000D03*
X153030000Y-70900000D03*
%TD*%
D20*
%TO.C,C2*%
X142537500Y-105500000D03*
X142537500Y-107575000D03*
%TD*%
D14*
%TO.C,LED3*%
X166562500Y-67350000D03*
X168437500Y-67350000D03*
%TD*%
D29*
%TO.C,J1*%
X137800000Y-81250000D03*
D30*
X137800000Y-83250000D03*
%TD*%
D26*
%TO.C,C15*%
X179162500Y-82100000D03*
X181237500Y-82100000D03*
%TD*%
D12*
%TO.C,TP11*%
X137503219Y-59000000D03*
%TD*%
D15*
%TO.C,TP23*%
X158000000Y-82945000D03*
%TD*%
D26*
%TO.C,C12*%
X165712500Y-102500000D03*
X167787500Y-102500000D03*
%TD*%
D11*
%TO.C,R10*%
X172250000Y-67350000D03*
X170250000Y-67350000D03*
%TD*%
D31*
%TO.C,FB1*%
X155750000Y-85850000D03*
X153450000Y-85850000D03*
%TD*%
D28*
%TO.C,C4*%
X153037500Y-90300000D03*
X150962500Y-90300000D03*
%TD*%
D32*
%TO.C,J9*%
X188000000Y-64000000D03*
X188000000Y-66000000D03*
X188000000Y-68000000D03*
%TD*%
D33*
%TO.C,USB1*%
X138005000Y-99430000D03*
X134195000Y-99430000D03*
X138005000Y-108070000D03*
X134195000Y-108070000D03*
D34*
X138455000Y-103250000D03*
X138455000Y-105270000D03*
D35*
X138455000Y-106500000D03*
D34*
X138455000Y-104250000D03*
X138455000Y-102230000D03*
D35*
X138455000Y-101000000D03*
%TD*%
D12*
%TO.C,TP5*%
X157000000Y-111000000D03*
%TD*%
D36*
%TO.C,J2*%
X137400000Y-68830000D03*
X137400000Y-63750000D03*
%TD*%
D12*
%TO.C,TP14*%
X152500000Y-59000000D03*
%TD*%
D37*
%TO.C,U2*%
X148350000Y-91850000D03*
X148350000Y-92350000D03*
X148350000Y-92850000D03*
X148350000Y-93350000D03*
X150250000Y-93350000D03*
X150250000Y-92850000D03*
X150250000Y-92350000D03*
X150250000Y-91850000D03*
D38*
X149300000Y-92600000D03*
%TD*%
D26*
%TO.C,C11*%
X165712500Y-100250000D03*
X167787500Y-100250000D03*
%TD*%
D12*
%TO.C,TP20*%
X182500000Y-59000000D03*
%TD*%
%TO.C,TP8*%
X172000000Y-111000000D03*
%TD*%
%TO.C,TP7*%
X167000000Y-111000000D03*
%TD*%
D39*
%TO.C,J4*%
X136400000Y-87150000D03*
D40*
X136400000Y-88650000D03*
X136400000Y-90150000D03*
X136400000Y-91650000D03*
X136400000Y-93150000D03*
%TD*%
D15*
%TO.C,TP28*%
X158000000Y-103045000D03*
%TD*%
D12*
%TO.C,TP17*%
X167500000Y-59000000D03*
%TD*%
%TO.C,TP10*%
X182000000Y-111000000D03*
%TD*%
D27*
%TO.C,H4*%
X132750000Y-112250000D03*
%TD*%
D41*
%TO.C,U3*%
X166137500Y-92375000D03*
X166137500Y-93025000D03*
X166137500Y-93675000D03*
X166137500Y-94325000D03*
X166137500Y-94975000D03*
X166137500Y-95625000D03*
X166137500Y-96275000D03*
X166137500Y-96925000D03*
X166137500Y-97575000D03*
X166137500Y-98225000D03*
X171862500Y-98225000D03*
X171862500Y-97575000D03*
X171862500Y-96925000D03*
X171862500Y-96275000D03*
X171862500Y-95625000D03*
X171862500Y-94975000D03*
X171862500Y-94325000D03*
X171862500Y-93675000D03*
X171862500Y-93025000D03*
X171862500Y-92375000D03*
%TD*%
D12*
%TO.C,TP2*%
X142000000Y-111000000D03*
%TD*%
D15*
%TO.C,TP27*%
X158000000Y-68000000D03*
%TD*%
D27*
%TO.C,H3*%
X187250000Y-112250000D03*
%TD*%
D10*
%TO.C,R5*%
X153030000Y-76900000D03*
X155030000Y-76900000D03*
%TD*%
D11*
%TO.C,R13*%
X155030000Y-72900000D03*
X153030000Y-72900000D03*
%TD*%
D20*
%TO.C,C1*%
X144537500Y-105500000D03*
X144537500Y-107575000D03*
%TD*%
D17*
%TO.C,J6*%
X185460000Y-89250000D03*
D18*
X188000000Y-89250000D03*
X185460000Y-91790000D03*
X188000000Y-91790000D03*
%TD*%
D12*
%TO.C,TP19*%
X177500000Y-59000000D03*
%TD*%
D19*
%TO.C,D3*%
X132500000Y-73750000D03*
X137500000Y-73750000D03*
%TD*%
M02*
