%TF.GenerationSoftware,KiCad,Pcbnew,9.0.7*%
%TF.CreationDate,2026-02-17T00:08:55-08:00*%
%TF.ProjectId,servo-dev-board-ch32v006,73657276-6f2d-4646-9576-2d626f617264,rev?*%
%TF.SameCoordinates,Original*%
%TF.FileFunction,Copper,L1,Top*%
%TF.FilePolarity,Positive*%
%FSLAX46Y46*%
G04 Gerber Fmt 4.6, Leading zero omitted, Abs format (unit mm)*
G04 Created by KiCad (PCBNEW 9.0.7) date 2026-02-17 00:08:55*
%MOMM*%
%LPD*%
G01*
G04 APERTURE LIST*
G04 Aperture macros list*
%AMRoundRect*
0 Rectangle with rounded corners*
0 $1 Rounding radius*
0 $2 $3 $4 $5 $6 $7 $8 $9 X,Y pos of 4 corners*
0 Add a 4 corners polygon primitive as box body*
4,1,4,$2,$3,$4,$5,$6,$7,$8,$9,$2,$3,0*
0 Add four circle primitives for the rounded corners*
1,1,$1+$1,$2,$3*
1,1,$1+$1,$4,$5*
1,1,$1+$1,$6,$7*
1,1,$1+$1,$8,$9*
0 Add four rect primitives between the rounded corners*
20,1,$1+$1,$2,$3,$4,$5,0*
20,1,$1+$1,$4,$5,$6,$7,0*
20,1,$1+$1,$6,$7,$8,$9,0*
20,1,$1+$1,$8,$9,$2,$3,0*%
%AMFreePoly0*
4,1,14,0.885355,0.885355,0.900000,0.850000,0.900000,-0.850000,0.885355,-0.885355,0.850000,-0.900000,-0.550000,-0.900000,-0.585355,-0.885355,-0.885355,-0.585355,-0.900000,-0.550000,-0.900000,0.850000,-0.885355,0.885355,-0.850000,0.900000,0.850000,0.900000,0.885355,0.885355,0.885355,0.885355,$1*%
G04 Aperture macros list end*
%TA.AperFunction,EtchedComponent*%
%ADD10C,0.100000*%
%TD*%
%TA.AperFunction,SMDPad,CuDef*%
%ADD11RoundRect,0.243750X-0.456250X0.243750X-0.456250X-0.243750X0.456250X-0.243750X0.456250X0.243750X0*%
%TD*%
%TA.AperFunction,SMDPad,CuDef*%
%ADD12RoundRect,0.135000X-0.135000X-0.185000X0.135000X-0.185000X0.135000X0.185000X-0.135000X0.185000X0*%
%TD*%
%TA.AperFunction,SMDPad,CuDef*%
%ADD13RoundRect,0.250000X-1.450000X-0.650000X1.450000X-0.650000X1.450000X0.650000X-1.450000X0.650000X0*%
%TD*%
%TA.AperFunction,SMDPad,CuDef*%
%ADD14RoundRect,0.150000X-0.587500X-0.150000X0.587500X-0.150000X0.587500X0.150000X-0.587500X0.150000X0*%
%TD*%
%TA.AperFunction,SMDPad,CuDef*%
%ADD15R,0.120000X0.500000*%
%TD*%
%TA.AperFunction,SMDPad,CuDef*%
%ADD16RoundRect,0.250000X0.650000X-1.450000X0.650000X1.450000X-0.650000X1.450000X-0.650000X-1.450000X0*%
%TD*%
%TA.AperFunction,SMDPad,CuDef*%
%ADD17R,0.800000X0.200000*%
%TD*%
%TA.AperFunction,SMDPad,CuDef*%
%ADD18R,0.200000X0.800000*%
%TD*%
%TA.AperFunction,SMDPad,CuDef*%
%ADD19FreePoly0,90.000000*%
%TD*%
%TA.AperFunction,SMDPad,CuDef*%
%ADD20RoundRect,0.175000X1.175000X-0.175000X1.175000X0.175000X-1.175000X0.175000X-1.175000X-0.175000X0*%
%TD*%
%TA.AperFunction,SMDPad,CuDef*%
%ADD21RoundRect,0.250000X0.700000X-0.300000X0.700000X0.300000X-0.700000X0.300000X-0.700000X-0.300000X0*%
%TD*%
%TA.AperFunction,SMDPad,CuDef*%
%ADD22RoundRect,0.250000X-0.650000X1.450000X-0.650000X-1.450000X0.650000X-1.450000X0.650000X1.450000X0*%
%TD*%
%TA.AperFunction,SMDPad,CuDef*%
%ADD23RoundRect,0.250000X-0.325000X-0.650000X0.325000X-0.650000X0.325000X0.650000X-0.325000X0.650000X0*%
%TD*%
%TA.AperFunction,SMDPad,CuDef*%
%ADD24R,0.650000X1.050000*%
%TD*%
%TA.AperFunction,SMDPad,CuDef*%
%ADD25RoundRect,0.250000X-0.625000X0.312500X-0.625000X-0.312500X0.625000X-0.312500X0.625000X0.312500X0*%
%TD*%
%TA.AperFunction,SMDPad,CuDef*%
%ADD26RoundRect,0.140000X-0.170000X0.140000X-0.170000X-0.140000X0.170000X-0.140000X0.170000X0.140000X0*%
%TD*%
%TA.AperFunction,SMDPad,CuDef*%
%ADD27RoundRect,0.050000X-0.300000X0.150000X-0.300000X-0.150000X0.300000X-0.150000X0.300000X0.150000X0*%
%TD*%
%TA.AperFunction,SMDPad,CuDef*%
%ADD28R,1.000000X0.600000*%
%TD*%
%TA.AperFunction,SMDPad,CuDef*%
%ADD29RoundRect,0.135000X0.135000X0.185000X-0.135000X0.185000X-0.135000X-0.185000X0.135000X-0.185000X0*%
%TD*%
%TA.AperFunction,SMDPad,CuDef*%
%ADD30RoundRect,0.140000X0.170000X-0.140000X0.170000X0.140000X-0.170000X0.140000X-0.170000X-0.140000X0*%
%TD*%
%TA.AperFunction,SMDPad,CuDef*%
%ADD31RoundRect,0.175000X-1.675000X0.175000X-1.675000X-0.175000X1.675000X-0.175000X1.675000X0.175000X0*%
%TD*%
%TA.AperFunction,SMDPad,CuDef*%
%ADD32RoundRect,0.250001X-0.899999X0.499999X-0.899999X-0.499999X0.899999X-0.499999X0.899999X0.499999X0*%
%TD*%
%TA.AperFunction,ComponentPad*%
%ADD33C,3.500000*%
%TD*%
%TA.AperFunction,SMDPad,CuDef*%
%ADD34RoundRect,0.140000X0.140000X0.170000X-0.140000X0.170000X-0.140000X-0.170000X0.140000X-0.170000X0*%
%TD*%
%TA.AperFunction,SMDPad,CuDef*%
%ADD35RoundRect,0.140000X-0.140000X-0.170000X0.140000X-0.170000X0.140000X0.170000X-0.140000X0.170000X0*%
%TD*%
%TA.AperFunction,SMDPad,CuDef*%
%ADD36RoundRect,0.135000X0.185000X-0.135000X0.185000X0.135000X-0.185000X0.135000X-0.185000X-0.135000X0*%
%TD*%
%TA.AperFunction,SMDPad,CuDef*%
%ADD37RoundRect,0.135000X-0.185000X0.135000X-0.185000X-0.135000X0.185000X-0.135000X0.185000X0.135000X0*%
%TD*%
%TA.AperFunction,SMDPad,CuDef*%
%ADD38C,0.100000*%
%TD*%
%TA.AperFunction,SMDPad,CuDef*%
%ADD39RoundRect,0.225000X-0.225000X-0.250000X0.225000X-0.250000X0.225000X0.250000X-0.225000X0.250000X0*%
%TD*%
%TA.AperFunction,ComponentPad*%
%ADD40R,1.400000X1.500000*%
%TD*%
%TA.AperFunction,ComponentPad*%
%ADD41C,1.400000*%
%TD*%
%TA.AperFunction,SMDPad,CuDef*%
%ADD42RoundRect,0.218750X0.218750X0.256250X-0.218750X0.256250X-0.218750X-0.256250X0.218750X-0.256250X0*%
%TD*%
%TA.AperFunction,ComponentPad*%
%ADD43O,1.700000X1.000000*%
%TD*%
%TA.AperFunction,SMDPad,CuDef*%
%ADD44R,1.200000X0.700000*%
%TD*%
%TA.AperFunction,SMDPad,CuDef*%
%ADD45R,1.200000X0.800000*%
%TD*%
%TA.AperFunction,SMDPad,CuDef*%
%ADD46RoundRect,0.175000X-1.175000X0.175000X-1.175000X-0.175000X1.175000X-0.175000X1.175000X0.175000X0*%
%TD*%
%TA.AperFunction,SMDPad,CuDef*%
%ADD47RoundRect,0.250000X-0.700000X0.300000X-0.700000X-0.300000X0.700000X-0.300000X0.700000X0.300000X0*%
%TD*%
%TA.AperFunction,SMDPad,CuDef*%
%ADD48RoundRect,0.150000X0.587500X0.150000X-0.587500X0.150000X-0.587500X-0.150000X0.587500X-0.150000X0*%
%TD*%
%TA.AperFunction,SMDPad,CuDef*%
%ADD49RoundRect,0.062500X-0.187500X-0.062500X0.187500X-0.062500X0.187500X0.062500X-0.187500X0.062500X0*%
%TD*%
%TA.AperFunction,SMDPad,CuDef*%
%ADD50R,0.900000X1.600000*%
%TD*%
%TA.AperFunction,ViaPad*%
%ADD51C,0.600000*%
%TD*%
%TA.AperFunction,ViaPad*%
%ADD52C,1.000000*%
%TD*%
%TA.AperFunction,ViaPad*%
%ADD53C,0.450000*%
%TD*%
%TA.AperFunction,Conductor*%
%ADD54C,0.500000*%
%TD*%
%TA.AperFunction,Conductor*%
%ADD55C,0.127000*%
%TD*%
%TA.AperFunction,Conductor*%
%ADD56C,0.200000*%
%TD*%
%TA.AperFunction,Conductor*%
%ADD57C,0.100000*%
%TD*%
%TA.AperFunction,Conductor*%
%ADD58C,0.300000*%
%TD*%
%TA.AperFunction,Conductor*%
%ADD59C,1.000000*%
%TD*%
%TA.AperFunction,Conductor*%
%ADD60C,0.150000*%
%TD*%
G04 APERTURE END LIST*
D10*
%TO.C,NT2*%
X145300000Y-96450000D02*
X145500000Y-96450000D01*
%TO.C,NT1*%
X145280000Y-99690000D02*
X145480000Y-99690000D01*
%TD*%
D11*
%TO.P,LED2,1,K*%
%TO.N,GND*%
X156780000Y-83600000D03*
%TO.P,LED2,2,A*%
%TO.N,Net-(LED2-A)*%
X156780000Y-85475000D03*
%TD*%
D12*
%TO.P,R11,1*%
%TO.N,VSYS*%
X154330000Y-86690000D03*
%TO.P,R11,2*%
%TO.N,Net-(LED1-A)*%
X155350000Y-86690000D03*
%TD*%
%TO.P,R12,1*%
%TO.N,+3.3V*%
X156270000Y-86690000D03*
%TO.P,R12,2*%
%TO.N,Net-(LED2-A)*%
X157290000Y-86690000D03*
%TD*%
D13*
%TO.P,TP12,1,1*%
%TO.N,BUS_VIN*%
X137500000Y-64000000D03*
%TD*%
D14*
%TO.P,Q2,1,G*%
%TO.N,Net-(Q2-G)*%
X139662500Y-70387500D03*
%TO.P,Q2,2,S*%
%TO.N,VBAT*%
X139662500Y-72287500D03*
%TO.P,Q2,3,D*%
%TO.N,VSYS*%
X141537500Y-71337500D03*
%TD*%
D15*
%TO.P,U2,1,~{1OE}*%
%TO.N,/TX*%
X162100000Y-87090000D03*
%TO.P,U2,2,1A*%
%TO.N,GND*%
X162400000Y-87090000D03*
%TO.P,U2,3,2Y*%
%TO.N,/RX*%
X162700000Y-87090000D03*
%TO.P,U2,4,GND*%
%TO.N,GND*%
X163000000Y-87090000D03*
%TO.P,U2,5,2A*%
%TO.N,/BUF*%
X163000000Y-86250000D03*
%TO.P,U2,6,1Y*%
X162700000Y-86250000D03*
%TO.P,U2,7,~{2OE}*%
%TO.N,/DE*%
X162400000Y-86250000D03*
%TO.P,U2,8,VCC*%
%TO.N,+3.3V*%
X162100000Y-86250000D03*
%TD*%
D13*
%TO.P,TP4,1,1*%
%TO.N,/VSNA*%
X147500000Y-106000000D03*
%TD*%
D16*
%TO.P,TP25,1,1*%
%TO.N,/ISNS-*%
X147000000Y-95100000D03*
%TD*%
D12*
%TO.P,R18,1*%
%TO.N,/VSNB*%
X150630000Y-82960000D03*
%TO.P,R18,2*%
%TO.N,GND*%
X151650000Y-82960000D03*
%TD*%
D17*
%TO.P,U4,1,PD7/RST*%
%TO.N,/nRST*%
X166000000Y-94300000D03*
%TO.P,U4,2,PA1/OPN0*%
%TO.N,/ISNS-*%
X166000000Y-93900000D03*
%TO.P,U4,3,PA2/OPP0*%
%TO.N,/ISNS+*%
X166000000Y-93500000D03*
%TO.P,U4,4,VSS*%
%TO.N,GND*%
X166000000Y-93100000D03*
%TO.P,U4,5,PD0/T1*%
%TO.N,/DE*%
X166000000Y-92700000D03*
D18*
%TO.P,U4,6,VDD*%
%TO.N,+3.3V*%
X165300000Y-92000000D03*
%TO.P,U4,7,PC0/TX_*%
%TO.N,/TX*%
X164900000Y-92000000D03*
%TO.P,U4,8,PC1/RX_*%
%TO.N,/RX*%
X164500000Y-92000000D03*
%TO.P,U4,9,PC2/T2*%
%TO.N,/DBG*%
X164100000Y-92000000D03*
%TO.P,U4,10,PC3/T1/T2*%
%TO.N,/STAT*%
X163700000Y-92000000D03*
D17*
%TO.P,U4,11,PC4/A2*%
%TO.N,/VSNA*%
X163000000Y-92700000D03*
%TO.P,U4,12,PC5/T1/T2*%
%TO.N,/EN*%
X163000000Y-93100000D03*
%TO.P,U4,13,PC6/T1*%
%TO.N,/IN1*%
X163000000Y-93500000D03*
%TO.P,U4,14,PC7/T1*%
%TO.N,/IN2*%
X163000000Y-93900000D03*
%TO.P,U4,15,PD1/SWIO*%
%TO.N,/SWDIO*%
X163000000Y-94300000D03*
D18*
%TO.P,U4,16,PD2/A3*%
%TO.N,/VPOS*%
X163700000Y-95000000D03*
%TO.P,U4,17,PD3/A4*%
%TO.N,/VSNB*%
X164100000Y-95000000D03*
%TO.P,U4,18,PD4/A7*%
%TO.N,/VNTC*%
X164500000Y-95000000D03*
%TO.P,U4,19,PD5/A5*%
%TO.N,/ENCA*%
X164900000Y-95000000D03*
%TO.P,U4,20,PD6/A6*%
%TO.N,/ENCB*%
X165300000Y-95000000D03*
D19*
%TO.P,U4,21,VSS*%
%TO.N,GND*%
X164500000Y-93500000D03*
%TD*%
D13*
%TO.P,TP18,1,1*%
%TO.N,/RX*%
X167500000Y-64000000D03*
%TD*%
D20*
%TO.P,J5,1,Pin_1*%
%TO.N,+3.3V*%
X174050000Y-99000000D03*
%TO.P,J5,2,Pin_2*%
%TO.N,GND*%
X174050000Y-97500000D03*
%TO.P,J5,3,Pin_3*%
%TO.N,/ENCA*%
X174050000Y-96000000D03*
%TO.P,J5,4,Pin_4*%
%TO.N,/ENCB*%
X174050000Y-94500000D03*
D21*
%TO.P,J5,MP,MountPin*%
%TO.N,GND*%
X177750000Y-100950000D03*
X177750000Y-92550000D03*
%TD*%
D22*
%TO.P,TP26,1,1*%
%TO.N,/ISNS+*%
X147000000Y-100000000D03*
%TD*%
D12*
%TO.P,R15,1*%
%TO.N,/OUTA*%
X148770000Y-82020000D03*
%TO.P,R15,2*%
%TO.N,/VSNA*%
X149790000Y-82020000D03*
%TD*%
D23*
%TO.P,C10,1*%
%TO.N,VSYS*%
X139320000Y-92410000D03*
%TO.P,C10,2*%
%TO.N,PGND*%
X142270000Y-92410000D03*
%TD*%
D24*
%TO.P,SW1,1,1*%
%TO.N,/nRST*%
X168730000Y-82320000D03*
X168730000Y-86470000D03*
%TO.P,SW1,2,2*%
%TO.N,GND*%
X166580000Y-82320000D03*
X166580000Y-86470000D03*
%TD*%
D25*
%TO.P,RS1,1*%
%TO.N,GND*%
X144450000Y-96767500D03*
%TO.P,RS1,2*%
%TO.N,PGND*%
X144450000Y-99692500D03*
%TD*%
D26*
%TO.P,C7,1*%
%TO.N,/OUTA*%
X139400000Y-96730000D03*
%TO.P,C7,2*%
%TO.N,/OUTB*%
X139400000Y-97690000D03*
%TD*%
D13*
%TO.P,TP1,1,1*%
%TO.N,GND*%
X132500000Y-103500000D03*
%TD*%
%TO.P,TP6,1,1*%
%TO.N,/VPOS*%
X157500000Y-106000000D03*
%TD*%
D16*
%TO.P,TP21,1,1*%
%TO.N,VSYS*%
X147000000Y-75000000D03*
%TD*%
D12*
%TO.P,R1,1*%
%TO.N,Net-(Q1-G)*%
X140180000Y-78300000D03*
%TO.P,R1,2*%
%TO.N,VSYS*%
X141200000Y-78300000D03*
%TD*%
D16*
%TO.P,TP22,1,1*%
%TO.N,/OUTA*%
X147000000Y-80000000D03*
%TD*%
D27*
%TO.P,D1,1,K*%
%TO.N,/DATA*%
X163840000Y-84135000D03*
%TO.P,D1,2,A*%
%TO.N,GND*%
X163840000Y-84835000D03*
%TD*%
D28*
%TO.P,U1,1,VIN*%
%TO.N,VSYS*%
X142720000Y-81770052D03*
%TO.P,U1,2,GND*%
%TO.N,GND*%
X142720000Y-82720052D03*
%TO.P,U1,3,EN*%
%TO.N,VSYS*%
X142720000Y-83670052D03*
%TO.P,U1,4,NC*%
%TO.N,unconnected-(U1-NC-Pad4)*%
X144920000Y-83670052D03*
%TO.P,U1,5,VOUT*%
%TO.N,+3.3V*%
X144920000Y-81770052D03*
%TD*%
D11*
%TO.P,LED1,1,K*%
%TO.N,GND*%
X154860000Y-83600000D03*
%TO.P,LED1,2,A*%
%TO.N,Net-(LED1-A)*%
X154860000Y-85475000D03*
%TD*%
D29*
%TO.P,R10,1*%
%TO.N,GND*%
X139510000Y-83800000D03*
%TO.P,R10,2*%
%TO.N,Net-(USB1-CC2)*%
X138490000Y-83800000D03*
%TD*%
D13*
%TO.P,TP16,1,1*%
%TO.N,/DBG*%
X157500000Y-64000000D03*
%TD*%
D30*
%TO.P,C5,1*%
%TO.N,/VPOS*%
X136600000Y-102490000D03*
%TO.P,C5,2*%
%TO.N,GND*%
X136600000Y-101530000D03*
%TD*%
D31*
%TO.P,J3,1,Pin_1*%
%TO.N,GND*%
X175650000Y-71350000D03*
%TO.P,J3,2,Pin_2*%
%TO.N,BUS_VIN*%
X175650000Y-72850000D03*
%TO.P,J3,3,Pin_3*%
%TO.N,/DATA*%
X175650000Y-74350000D03*
D32*
%TO.P,J3,MP,MountPin*%
%TO.N,GND*%
X177750000Y-69300000D03*
X177750000Y-76400000D03*
%TD*%
D33*
%TO.P,H1,1,1*%
%TO.N,GND*%
X132750000Y-62750000D03*
%TD*%
D29*
%TO.P,R9,1*%
%TO.N,GND*%
X139520000Y-82800000D03*
%TO.P,R9,2*%
%TO.N,Net-(USB1-CC1)*%
X138500000Y-82800000D03*
%TD*%
D34*
%TO.P,C3,1*%
%TO.N,+3.3V*%
X145000000Y-80700000D03*
%TO.P,C3,2*%
%TO.N,GND*%
X144040000Y-80700000D03*
%TD*%
D35*
%TO.P,C8,1*%
%TO.N,VSYS*%
X140300000Y-95490000D03*
%TO.P,C8,2*%
%TO.N,PGND*%
X141260000Y-95490000D03*
%TD*%
D13*
%TO.P,TP15,1,1*%
%TO.N,/STAT*%
X152500000Y-64000000D03*
%TD*%
%TO.P,TP3,1,1*%
%TO.N,/IN2*%
X142500000Y-106000000D03*
%TD*%
%TO.P,TP9,1,1*%
%TO.N,/ENCB*%
X172500000Y-106000000D03*
%TD*%
D36*
%TO.P,R6,1*%
%TO.N,/VPOS*%
X135600000Y-102500000D03*
%TO.P,R6,2*%
%TO.N,/POT*%
X135600000Y-101480000D03*
%TD*%
D35*
%TO.P,C13,1*%
%TO.N,GND*%
X167760000Y-81080000D03*
%TO.P,C13,2*%
%TO.N,/nRST*%
X168720000Y-81080000D03*
%TD*%
D29*
%TO.P,R3,1*%
%TO.N,Net-(Q3-G)*%
X143900000Y-69600000D03*
%TO.P,R3,2*%
%TO.N,VSYS*%
X142880000Y-69600000D03*
%TD*%
D37*
%TO.P,TH1,1*%
%TO.N,/VNTC*%
X165500000Y-99900000D03*
%TO.P,TH1,2*%
%TO.N,GND*%
X165500000Y-100920000D03*
%TD*%
D38*
%TO.P,NT2,1,1*%
%TO.N,/ISNS-*%
X145500000Y-96450000D03*
%TO.P,NT2,2,2*%
%TO.N,GND*%
X145300000Y-96450000D03*
%TD*%
D13*
%TO.P,TP13,1,1*%
%TO.N,+3.3V*%
X142500000Y-64000000D03*
%TD*%
D34*
%TO.P,C6,1*%
%TO.N,/3V3_DRV*%
X143080000Y-95490000D03*
%TO.P,C6,2*%
%TO.N,PGND*%
X142120000Y-95490000D03*
%TD*%
D12*
%TO.P,R16,1*%
%TO.N,/VSNA*%
X150630000Y-82020000D03*
%TO.P,R16,2*%
%TO.N,GND*%
X151650000Y-82020000D03*
%TD*%
D16*
%TO.P,TP24,1,1*%
%TO.N,PGND*%
X147000000Y-90000000D03*
%TD*%
D39*
%TO.P,C14,1*%
%TO.N,+3.3V*%
X166290000Y-90680000D03*
%TO.P,C14,2*%
%TO.N,GND*%
X167840000Y-90680000D03*
%TD*%
D36*
%TO.P,R14,1*%
%TO.N,+3.3V*%
X164510000Y-100920000D03*
%TO.P,R14,2*%
%TO.N,/VNTC*%
X164510000Y-99900000D03*
%TD*%
D33*
%TO.P,H2,1,1*%
%TO.N,GND*%
X177250000Y-62750000D03*
%TD*%
D29*
%TO.P,R7,1*%
%TO.N,/EN*%
X144530000Y-93090000D03*
%TO.P,R7,2*%
%TO.N,PGND*%
X143510000Y-93090000D03*
%TD*%
D12*
%TO.P,R8,1*%
%TO.N,+3.3V*%
X167710000Y-87710000D03*
%TO.P,R8,2*%
%TO.N,/nRST*%
X168730000Y-87710000D03*
%TD*%
D35*
%TO.P,C2,1*%
%TO.N,VSYS*%
X141500000Y-84500000D03*
%TO.P,C2,2*%
%TO.N,GND*%
X142460000Y-84500000D03*
%TD*%
D40*
%TO.P,J1,1,1*%
%TO.N,VBAT*%
X136650000Y-72250000D03*
D41*
%TO.P,J1,2,2*%
%TO.N,GND*%
X136650000Y-74250000D03*
%TD*%
D35*
%TO.P,C15,1*%
%TO.N,+3.3V*%
X166670000Y-91880000D03*
%TO.P,C15,2*%
%TO.N,GND*%
X167630000Y-91880000D03*
%TD*%
D13*
%TO.P,TP11,1,1*%
%TO.N,GND*%
X132500000Y-66500000D03*
%TD*%
D16*
%TO.P,TP23,1,1*%
%TO.N,/OUTB*%
X147000000Y-85000000D03*
%TD*%
D23*
%TO.P,C12,1*%
%TO.N,VSYS*%
X139320000Y-87810000D03*
%TO.P,C12,2*%
%TO.N,PGND*%
X142270000Y-87810000D03*
%TD*%
D37*
%TO.P,R4,1*%
%TO.N,/TX*%
X162650000Y-88990000D03*
%TO.P,R4,2*%
%TO.N,+3.3V*%
X162650000Y-90010000D03*
%TD*%
D42*
%TO.P,FB1,1*%
%TO.N,+3.3V*%
X144515000Y-94300000D03*
%TO.P,FB1,2*%
%TO.N,/3V3_DRV*%
X142940000Y-94300000D03*
%TD*%
D36*
%TO.P,R5,1*%
%TO.N,/BUF*%
X162750000Y-85170000D03*
%TO.P,R5,2*%
%TO.N,/DATA*%
X162750000Y-84150000D03*
%TD*%
D43*
%TO.P,USB1,7,EH*%
%TO.N,GND*%
X136810000Y-79000000D03*
X133000000Y-79000000D03*
X136810000Y-87640000D03*
X133000000Y-87640000D03*
D44*
%TO.P,USB1,A5,CC1*%
%TO.N,Net-(USB1-CC1)*%
X137260000Y-82820000D03*
%TO.P,USB1,A9,VBUS*%
%TO.N,VBUS*%
X137260000Y-84840000D03*
D45*
%TO.P,USB1,A12,GND*%
%TO.N,GND*%
X137260000Y-86070000D03*
D44*
%TO.P,USB1,B5,CC2*%
%TO.N,Net-(USB1-CC2)*%
X137260000Y-83820000D03*
%TO.P,USB1,B9,VBUS*%
%TO.N,VBUS*%
X137260000Y-81800000D03*
D45*
%TO.P,USB1,B12,GND*%
%TO.N,GND*%
X137260000Y-80570000D03*
%TD*%
D13*
%TO.P,TP5,1,1*%
%TO.N,/VSNB*%
X152500000Y-106000000D03*
%TD*%
D14*
%TO.P,Q1,1,G*%
%TO.N,Net-(Q1-G)*%
X139780000Y-79600000D03*
%TO.P,Q1,2,S*%
%TO.N,VBUS*%
X139780000Y-81500000D03*
%TO.P,Q1,3,D*%
%TO.N,VSYS*%
X141655000Y-80550000D03*
%TD*%
D31*
%TO.P,J2,1,Pin_1*%
%TO.N,GND*%
X167650000Y-71350000D03*
%TO.P,J2,2,Pin_2*%
%TO.N,BUS_VIN*%
X167650000Y-72850000D03*
%TO.P,J2,3,Pin_3*%
%TO.N,/DATA*%
X167650000Y-74350000D03*
D32*
%TO.P,J2,MP,MountPin*%
%TO.N,GND*%
X169750000Y-69300000D03*
X169750000Y-76400000D03*
%TD*%
D13*
%TO.P,TP14,1,1*%
%TO.N,/EN*%
X147500000Y-64000000D03*
%TD*%
D23*
%TO.P,C11,1*%
%TO.N,VSYS*%
X139320000Y-90110000D03*
%TO.P,C11,2*%
%TO.N,PGND*%
X142270000Y-90110000D03*
%TD*%
D38*
%TO.P,NT1,1,1*%
%TO.N,/ISNS+*%
X145480000Y-99690000D03*
%TO.P,NT1,2,2*%
%TO.N,PGND*%
X145280000Y-99690000D03*
%TD*%
D13*
%TO.P,TP20,1,1*%
%TO.N,GND*%
X177500000Y-66500000D03*
%TD*%
%TO.P,TP8,1,1*%
%TO.N,/ENCA*%
X167500000Y-106000000D03*
%TD*%
%TO.P,TP7,1,1*%
%TO.N,/VNTC*%
X162500000Y-106000000D03*
%TD*%
D46*
%TO.P,J4,1,Pin_1*%
%TO.N,/POT*%
X136150000Y-92250000D03*
%TO.P,J4,2,Pin_2*%
%TO.N,+3.3V*%
X136150000Y-93750000D03*
%TO.P,J4,3,Pin_3*%
%TO.N,GND*%
X136150000Y-95250000D03*
%TO.P,J4,4,Pin_4*%
%TO.N,/OUTA*%
X136150000Y-96750000D03*
%TO.P,J4,5,Pin_5*%
%TO.N,/OUTB*%
X136150000Y-98250000D03*
D47*
%TO.P,J4,MP,MountPin*%
%TO.N,GND*%
X132450000Y-90300000D03*
X132450000Y-100200000D03*
%TD*%
D13*
%TO.P,TP17,1,1*%
%TO.N,/DATA*%
X162500000Y-64000000D03*
%TD*%
%TO.P,TP10,1,1*%
%TO.N,GND*%
X177500000Y-103500000D03*
%TD*%
D12*
%TO.P,R2,1*%
%TO.N,Net-(Q2-G)*%
X140292500Y-69112500D03*
%TO.P,R2,2*%
%TO.N,VSYS*%
X141312500Y-69112500D03*
%TD*%
D11*
%TO.P,LED3,1,K*%
%TO.N,GND*%
X158700000Y-83597500D03*
%TO.P,LED3,2,A*%
%TO.N,Net-(LED3-A)*%
X158700000Y-85472500D03*
%TD*%
D33*
%TO.P,H4,1,1*%
%TO.N,GND*%
X132750000Y-107250000D03*
%TD*%
D48*
%TO.P,Q3,1,G*%
%TO.N,Net-(Q3-G)*%
X144300000Y-68375000D03*
%TO.P,Q3,2,S*%
%TO.N,BUS_VIN*%
X144300000Y-66475000D03*
%TO.P,Q3,3,D*%
%TO.N,VSYS*%
X142425000Y-67425000D03*
%TD*%
D49*
%TO.P,U3,1,VM*%
%TO.N,VSYS*%
X140770000Y-96450000D03*
%TO.P,U3,2,OUT1*%
%TO.N,/OUTA*%
X140770000Y-96950000D03*
%TO.P,U3,3,OUT2*%
%TO.N,/OUTB*%
X140770000Y-97450000D03*
%TO.P,U3,4,GND*%
%TO.N,PGND*%
X140770000Y-97950000D03*
%TO.P,U3,5,IN2*%
%TO.N,/IN2*%
X142670000Y-97950000D03*
%TO.P,U3,6,IN1*%
%TO.N,/IN1*%
X142670000Y-97450000D03*
%TO.P,U3,7,~{SLEEP}*%
%TO.N,/EN*%
X142670000Y-96950000D03*
%TO.P,U3,8,VCC*%
%TO.N,/3V3_DRV*%
X142670000Y-96450000D03*
D50*
%TO.P,U3,9,GND*%
%TO.N,PGND*%
X141720000Y-97200000D03*
%TD*%
D13*
%TO.P,TP2,1,1*%
%TO.N,/IN1*%
X137500000Y-106000000D03*
%TD*%
D33*
%TO.P,H3,1,1*%
%TO.N,GND*%
X177250000Y-107250000D03*
%TD*%
D26*
%TO.P,C4,1*%
%TO.N,+3.3V*%
X161200000Y-86040000D03*
%TO.P,C4,2*%
%TO.N,GND*%
X161200000Y-87000000D03*
%TD*%
D12*
%TO.P,R17,1*%
%TO.N,/OUTB*%
X148770000Y-82960000D03*
%TO.P,R17,2*%
%TO.N,/VSNB*%
X149790000Y-82960000D03*
%TD*%
%TO.P,R13,1*%
%TO.N,/STAT*%
X158200000Y-86680000D03*
%TO.P,R13,2*%
%TO.N,Net-(LED3-A)*%
X159220000Y-86680000D03*
%TD*%
D39*
%TO.P,C9,1*%
%TO.N,VSYS*%
X139990000Y-94300000D03*
%TO.P,C9,2*%
%TO.N,PGND*%
X141540000Y-94300000D03*
%TD*%
%TO.P,C1,1*%
%TO.N,VSYS*%
X140350000Y-85700000D03*
%TO.P,C1,2*%
%TO.N,GND*%
X141900000Y-85700000D03*
%TD*%
D20*
%TO.P,J6,1,Pin_1*%
%TO.N,+3.3V*%
X174050000Y-88300000D03*
%TO.P,J6,2,Pin_2*%
%TO.N,GND*%
X174050000Y-86800000D03*
%TO.P,J6,3,Pin_3*%
%TO.N,/SWDIO*%
X174050000Y-85300000D03*
%TO.P,J6,4,Pin_4*%
%TO.N,/nRST*%
X174050000Y-83800000D03*
%TO.P,J6,5,Pin_5*%
%TO.N,/TX*%
X174050000Y-82300000D03*
%TO.P,J6,6,Pin_6*%
%TO.N,/RX*%
X174050000Y-80800000D03*
D21*
%TO.P,J6,MP,MountPin*%
%TO.N,GND*%
X177750000Y-90250000D03*
X177750000Y-78850000D03*
%TD*%
D13*
%TO.P,TP19,1,1*%
%TO.N,/TX*%
X172500000Y-64000000D03*
%TD*%
D51*
%TO.N,GND*%
X168202002Y-66300000D03*
X146800000Y-70900000D03*
X138054003Y-68300000D03*
X133000000Y-82297998D03*
X177300000Y-95091994D03*
X177300000Y-84495997D03*
X147500000Y-70202001D03*
X133000000Y-84404003D03*
X140202002Y-102000000D03*
X178500000Y-104600000D03*
X161225000Y-87350000D03*
X176400000Y-76000000D03*
X178000000Y-96500000D03*
X178500000Y-72702002D03*
X133000000Y-83000000D03*
X165504003Y-102800000D03*
X166450000Y-70850000D03*
X154404003Y-102000000D03*
X166206005Y-102800000D03*
D52*
X138059506Y-80600000D03*
D51*
X159504003Y-102800000D03*
X177300000Y-97900000D03*
X132300000Y-72293995D03*
X147500000Y-69500000D03*
X132300000Y-74400000D03*
X164797999Y-103500000D03*
X177700000Y-71350000D03*
X163400000Y-86833432D03*
X173995997Y-68200000D03*
X157004003Y-89800000D03*
D53*
X163900000Y-94100000D03*
D51*
X131900000Y-101000000D03*
X156341994Y-97650000D03*
X133000000Y-74404003D03*
X178200000Y-101700000D03*
X131300000Y-104600000D03*
D53*
X164500000Y-93500000D03*
D51*
X176200000Y-65400000D03*
X132300000Y-71591994D03*
X169700000Y-71350000D03*
D53*
X163900000Y-92925000D03*
D51*
X135947999Y-68300000D03*
X152130000Y-82950000D03*
X132500000Y-65400000D03*
X157706005Y-89800000D03*
X132300000Y-96400000D03*
X157047999Y-96950000D03*
X131400000Y-65400000D03*
X178000000Y-95797998D03*
X138058006Y-67600000D03*
X160206005Y-102800000D03*
X137352002Y-68300000D03*
X177300000Y-85900000D03*
X133000000Y-94297998D03*
X157702002Y-90500000D03*
X146800000Y-68091994D03*
X132300000Y-72995997D03*
X140206005Y-101300000D03*
X176400000Y-69700000D03*
X136654003Y-67600000D03*
X171100000Y-76800000D03*
X170300000Y-103900000D03*
X166095997Y-66300000D03*
X133000000Y-95000000D03*
X176400000Y-104600000D03*
X164095997Y-103500000D03*
X140908006Y-101300000D03*
X132300000Y-81591994D03*
X166202002Y-103500000D03*
X178000000Y-85202001D03*
X175600000Y-97500000D03*
X135952002Y-67600000D03*
X156780000Y-82950000D03*
X146800000Y-69495997D03*
X178500000Y-72000000D03*
X136650000Y-68300000D03*
X158408006Y-89800000D03*
X158404003Y-90500000D03*
X170300000Y-101793995D03*
X138095997Y-102000000D03*
X133700000Y-65400000D03*
X147500000Y-68797998D03*
X164802002Y-102800000D03*
X152297999Y-102000000D03*
X139500000Y-102000000D03*
X133800000Y-104600000D03*
X172500000Y-97500000D03*
X171000000Y-103904003D03*
X177500000Y-65400000D03*
X178500000Y-71297999D03*
X177300000Y-83793995D03*
X177300000Y-83091994D03*
X132300000Y-95697998D03*
X157745997Y-97650000D03*
X177200000Y-78100000D03*
X157043996Y-97650000D03*
X178000000Y-85904003D03*
X157750000Y-96950000D03*
X178000000Y-95095997D03*
X156345997Y-96950000D03*
X152110000Y-82020000D03*
X132300000Y-94293995D03*
X133000000Y-71595997D03*
D53*
X164500000Y-94075000D03*
D51*
X159150000Y-97650000D03*
X131900000Y-89600000D03*
X164100000Y-102800000D03*
X133000000Y-73702001D03*
X158802002Y-102800000D03*
X156297999Y-90500000D03*
X171100000Y-68900000D03*
X133000000Y-81595997D03*
X160202002Y-103500000D03*
X178000000Y-83797998D03*
X140904003Y-102000000D03*
X178000000Y-97202001D03*
X153000000Y-102000000D03*
X173550000Y-71350000D03*
X170300000Y-102495997D03*
X168197999Y-67000000D03*
X155600000Y-89800000D03*
X132300000Y-83697998D03*
X178500000Y-73404003D03*
X151595997Y-102000000D03*
X132300000Y-82995997D03*
X138802002Y-101300000D03*
X144250000Y-96000000D03*
X146800000Y-68793995D03*
X158452002Y-96950000D03*
X152302002Y-101300000D03*
X137356005Y-67600000D03*
X177200000Y-101700000D03*
X171100000Y-76000000D03*
X133000000Y-73000000D03*
X132300000Y-84400000D03*
X176400000Y-68900000D03*
X156302002Y-89800000D03*
X138797999Y-102000000D03*
X177500000Y-104600000D03*
X159500000Y-103500000D03*
X166793996Y-67000000D03*
X154860000Y-82950000D03*
X132900000Y-101000000D03*
X132300000Y-73697998D03*
X132300000Y-94995997D03*
D53*
X164500000Y-92900000D03*
D51*
X176400000Y-76800000D03*
X170300000Y-103197998D03*
X166904003Y-103500000D03*
X153004003Y-101300000D03*
X132300000Y-93591994D03*
X133000000Y-83702001D03*
X171000000Y-103202001D03*
X178200000Y-78100000D03*
X167110000Y-86470000D03*
D53*
X165125000Y-94075000D03*
D51*
X135250000Y-67600000D03*
D53*
X165125000Y-93500000D03*
D51*
X147500000Y-68095997D03*
X132300000Y-82293995D03*
X173297999Y-67500000D03*
X178000000Y-84500000D03*
X177300000Y-85197998D03*
X133000000Y-72297998D03*
X133000000Y-96404003D03*
X133000000Y-89600000D03*
X175600000Y-86800000D03*
X178000000Y-97904003D03*
X168900000Y-67000000D03*
X135245997Y-68300000D03*
X178300000Y-91000000D03*
X137100000Y-94700000D03*
X170300000Y-101091994D03*
X132500000Y-104600000D03*
X133000000Y-95702001D03*
X167495997Y-67000000D03*
X166091994Y-67000000D03*
X178700000Y-65400000D03*
X166797999Y-66300000D03*
X165500000Y-103500000D03*
X158797999Y-103500000D03*
X171100000Y-69800000D03*
X178500000Y-74106005D03*
X167110000Y-82320000D03*
X153706005Y-101300000D03*
X177300000Y-97197998D03*
X177300000Y-91800000D03*
X153702002Y-102000000D03*
X177300000Y-95793995D03*
X160908006Y-102800000D03*
X151600000Y-101300000D03*
X157000000Y-90500000D03*
X158447999Y-97650000D03*
X174000000Y-67500000D03*
X171000000Y-101797998D03*
X177300000Y-91000000D03*
X159154003Y-96950000D03*
X171000000Y-101095997D03*
X158095997Y-103500000D03*
X155595997Y-90500000D03*
X167500000Y-66300000D03*
X139504003Y-101300000D03*
X160904003Y-103500000D03*
X158100000Y-102800000D03*
D53*
X163900000Y-93525000D03*
D51*
X147500000Y-70904003D03*
X144900000Y-96000000D03*
X177300000Y-96495997D03*
X178000000Y-83095997D03*
X166908006Y-102800000D03*
X133000000Y-93595997D03*
D53*
X165125000Y-92900000D03*
D51*
X158710000Y-82950000D03*
X171000000Y-102500000D03*
X138100000Y-101300000D03*
X168904003Y-66300000D03*
X154408006Y-101300000D03*
X146800000Y-70197998D03*
X173293996Y-68200000D03*
X178300000Y-91800000D03*
%TO.N,+3.3V*%
X172500000Y-99000000D03*
X136050000Y-94300000D03*
X145150000Y-94300000D03*
X144650000Y-81200000D03*
X156260000Y-87200000D03*
X142500000Y-62900000D03*
X167710000Y-88230000D03*
X166700000Y-91400000D03*
X143950000Y-81700000D03*
X175600000Y-99000000D03*
X163100000Y-90060000D03*
X145200000Y-80200000D03*
X164510000Y-101400000D03*
X161200000Y-85610000D03*
X175600000Y-88300000D03*
%TO.N,/VPOS*%
X147000000Y-103400000D03*
X161820000Y-97900000D03*
X155000000Y-103400000D03*
%TO.N,PGND*%
X145900000Y-88950000D03*
X143050000Y-88330000D03*
D53*
X142030000Y-96540000D03*
D51*
X145100000Y-91050000D03*
D53*
X141390000Y-97010000D03*
D51*
X145100000Y-88950000D03*
X145900000Y-90000000D03*
D53*
X141390000Y-96540000D03*
X142040000Y-97950000D03*
D51*
X145900000Y-91050000D03*
X140980000Y-98790000D03*
D53*
X141400000Y-97480000D03*
X142030000Y-97010000D03*
D51*
X143070000Y-89710000D03*
X143030000Y-93090000D03*
X145100000Y-90000000D03*
X143060000Y-90600000D03*
X143050000Y-91940000D03*
X143060000Y-87290000D03*
D53*
X142040000Y-97480000D03*
X141400000Y-97950000D03*
D51*
X141810000Y-98800000D03*
%TO.N,/DATA*%
X165775000Y-74350000D03*
X173600000Y-74350000D03*
%TO.N,/OUTA*%
X147000000Y-78100000D03*
X134601000Y-96760000D03*
%TO.N,/OUTB*%
X146975000Y-83125000D03*
X134620000Y-98250000D03*
%TO.N,/SWDIO*%
X175600000Y-85300000D03*
X161800000Y-97000000D03*
%TO.N,/nRST*%
X168730000Y-85740000D03*
X175600000Y-83800000D03*
X168730000Y-88240000D03*
X166155735Y-94585735D03*
X168730000Y-83070000D03*
%TO.N,/TX*%
X163078768Y-88625000D03*
X165175000Y-91050000D03*
X175420000Y-81850000D03*
X174290000Y-64970000D03*
%TO.N,/EN*%
X160700000Y-92800000D03*
X155800000Y-82300000D03*
X144940000Y-93090000D03*
%TO.N,/RX*%
X163200000Y-87770000D03*
X165000000Y-89570000D03*
%TO.N,/DE*%
X166636858Y-92644714D03*
X162021717Y-85573390D03*
%TO.N,/IN1*%
X139270000Y-105050000D03*
X161500000Y-93400000D03*
D53*
X143330000Y-97440000D03*
%TO.N,/IN2*%
X144220000Y-105030000D03*
X144645000Y-98255000D03*
D51*
X161900000Y-94200000D03*
%TO.N,/ISNS-*%
X147800000Y-96800000D03*
X166815127Y-94099999D03*
%TO.N,/ISNS+*%
X147900000Y-98300000D03*
X167590000Y-94400000D03*
%TO.N,/ENCB*%
X172500000Y-104900000D03*
X171900000Y-95240000D03*
%TO.N,/ENCA*%
X169100000Y-96000000D03*
X169100000Y-105000000D03*
D52*
%TO.N,BUS_VIN*%
X166550000Y-72850000D03*
X145400000Y-66475000D03*
X173800000Y-72850000D03*
%TD*%
D54*
%TO.N,GND*%
X137260000Y-79450000D02*
X136810000Y-79000000D01*
D55*
X162400000Y-87090000D02*
X162400000Y-86713000D01*
X162427500Y-86685500D02*
X162985500Y-86685500D01*
X162400000Y-86713000D02*
X162427500Y-86685500D01*
D56*
X163400000Y-86833432D02*
X163000000Y-86833432D01*
X166000000Y-93100000D02*
X164900000Y-93100000D01*
D55*
X162985500Y-86685500D02*
X163000000Y-86700000D01*
D54*
X137260000Y-80570000D02*
X137260000Y-79450000D01*
D57*
X164900000Y-93100000D02*
X164500000Y-93500000D01*
D55*
X163000000Y-86700000D02*
X163000000Y-87090000D01*
D56*
%TO.N,VSYS*%
X153000000Y-81000000D02*
X153000000Y-85400000D01*
X153000000Y-85400000D02*
X154290000Y-86690000D01*
X154290000Y-86690000D02*
X154330000Y-86690000D01*
D58*
X141660052Y-81770052D02*
X141660000Y-81770000D01*
D56*
X147000000Y-75000000D02*
X153000000Y-81000000D01*
%TO.N,+3.3V*%
X161410000Y-86250000D02*
X161200000Y-86040000D01*
D58*
X166550000Y-92000000D02*
X166670000Y-91880000D01*
X166700000Y-91400000D02*
X166700000Y-91790000D01*
D56*
X166700000Y-91400000D02*
X166690000Y-91410000D01*
D58*
X166670000Y-91820000D02*
X166670000Y-91880000D01*
X166700000Y-91790000D02*
X166670000Y-91820000D01*
X166700000Y-91400000D02*
X166290000Y-90990000D01*
X165300000Y-92000000D02*
X166550000Y-92000000D01*
X166290000Y-90990000D02*
X166290000Y-90680000D01*
D56*
X162100000Y-86250000D02*
X161410000Y-86250000D01*
%TO.N,/VPOS*%
X155000000Y-103400000D02*
X155000000Y-103470000D01*
X162614678Y-97105322D02*
X162614678Y-97086735D01*
X162614678Y-97086735D02*
X163700000Y-96001413D01*
X161820000Y-97900000D02*
X162614678Y-97105322D01*
X137800000Y-103400000D02*
X136900000Y-102500000D01*
X147000000Y-103400000D02*
X137800000Y-103400000D01*
X163700000Y-96001413D02*
X163700000Y-95000000D01*
X156350000Y-104850000D02*
X157500000Y-106000000D01*
X155000000Y-103470000D02*
X156350000Y-104820000D01*
X156350000Y-104820000D02*
X156350000Y-104850000D01*
X136900000Y-102500000D02*
X135600000Y-102500000D01*
D58*
%TO.N,/3V3_DRV*%
X142670000Y-95900000D02*
X143080000Y-95490000D01*
X142940000Y-94300000D02*
X142940000Y-95350000D01*
X142670000Y-96450000D02*
X142670000Y-95900000D01*
X142940000Y-95350000D02*
X143080000Y-95490000D01*
D56*
%TO.N,/DATA*%
X163840000Y-84135000D02*
X163840000Y-76285000D01*
X162500000Y-64000000D02*
X163840000Y-65340000D01*
X163840000Y-65340000D02*
X163840000Y-76285000D01*
X162750000Y-84150000D02*
X163825000Y-84150000D01*
X163840000Y-76285000D02*
X165775000Y-74350000D01*
X163825000Y-84150000D02*
X163840000Y-84135000D01*
%TO.N,VBAT*%
X139625000Y-72350000D02*
X139775000Y-72350000D01*
D59*
X136650000Y-72250000D02*
X139625000Y-72250000D01*
D56*
%TO.N,/OUTA*%
X148770000Y-82020000D02*
X148770000Y-81770000D01*
X148770000Y-81770000D02*
X147000000Y-80000000D01*
%TO.N,/OUTB*%
X148770000Y-82960000D02*
X148770000Y-83230000D01*
X148770000Y-83230000D02*
X147000000Y-85000000D01*
%TO.N,/SWDIO*%
X161800000Y-97000000D02*
X162365735Y-96434265D01*
X162365735Y-96434265D02*
X162365735Y-95134265D01*
X162365735Y-95134265D02*
X163000000Y-94500000D01*
X163000000Y-94500000D02*
X163000000Y-94300000D01*
%TO.N,/nRST*%
X168730000Y-85740000D02*
X168730000Y-86470000D01*
X168730000Y-87710000D02*
X168730000Y-86470000D01*
X168720000Y-82310000D02*
X168730000Y-82320000D01*
X168720000Y-81080000D02*
X168720000Y-82310000D01*
%TO.N,/POT*%
X136150000Y-92250000D02*
X134800000Y-92250000D01*
X134800000Y-92250000D02*
X133950000Y-93100000D01*
X133950000Y-99830000D02*
X135600000Y-101480000D01*
X133950000Y-93100000D02*
X133950000Y-99830000D01*
%TO.N,Net-(LED1-A)*%
X154860000Y-86200000D02*
X155350000Y-86690000D01*
X154860000Y-85475000D02*
X154860000Y-86200000D01*
%TO.N,/TX*%
X171320057Y-82300000D02*
X174050000Y-82300000D01*
X165601000Y-88828943D02*
X168129000Y-86300943D01*
X165200000Y-91075000D02*
X165150000Y-91075000D01*
X165150000Y-91075000D02*
X164900000Y-91325000D01*
X168129000Y-86300943D02*
X168129000Y-85491057D01*
X165601000Y-90624000D02*
X165601000Y-88828943D01*
X165175000Y-91050000D02*
X165200000Y-91075000D01*
X168129000Y-85491057D02*
X171320057Y-82300000D01*
X165175000Y-91050000D02*
X165601000Y-90624000D01*
X163075000Y-88625000D02*
X162100000Y-87650000D01*
X162100000Y-87650000D02*
X162100000Y-87090000D01*
X164900000Y-91325000D02*
X164900000Y-92000000D01*
X163078768Y-88625000D02*
X163075000Y-88625000D01*
%TO.N,/EN*%
X143833699Y-95518285D02*
X143833699Y-93920765D01*
X142670000Y-96950000D02*
X142919999Y-96950000D01*
X160700000Y-92800000D02*
X162200000Y-92800000D01*
X155800000Y-82300000D02*
X155800000Y-72300000D01*
X142919999Y-96950000D02*
X143370000Y-96499999D01*
X143833699Y-93920765D02*
X144664464Y-93090000D01*
X162200000Y-92800000D02*
X162500000Y-93100000D01*
X144664464Y-93090000D02*
X144940000Y-93090000D01*
X162500000Y-93100000D02*
X163000000Y-93100000D01*
X143370000Y-96499999D02*
X143370000Y-95981984D01*
X143370000Y-95981984D02*
X143833699Y-95518285D01*
X155800000Y-72300000D02*
X147500000Y-64000000D01*
%TO.N,/VNTC*%
X162500000Y-101910000D02*
X162500000Y-106000000D01*
X164850000Y-99900000D02*
X164510000Y-99900000D01*
X164510000Y-99900000D02*
X162500000Y-101910000D01*
X164500000Y-95000000D02*
X164500000Y-99900000D01*
X165500000Y-99900000D02*
X164850000Y-99900000D01*
%TO.N,/VSNA*%
X162500000Y-92200000D02*
X163000000Y-92700000D01*
X151091000Y-82481000D02*
X151091000Y-87891000D01*
X149329000Y-104171000D02*
X149329000Y-82481000D01*
X151091000Y-87891000D02*
X155400000Y-92200000D01*
X149790000Y-82020000D02*
X150630000Y-82020000D01*
X147500000Y-106000000D02*
X149329000Y-104171000D01*
X155400000Y-92200000D02*
X162500000Y-92200000D01*
X149329000Y-82481000D02*
X149790000Y-82020000D01*
X150630000Y-82020000D02*
X151091000Y-82481000D01*
%TO.N,/VSNB*%
X155000000Y-98500000D02*
X162350000Y-98500000D01*
X164100000Y-96750000D02*
X164100000Y-95000000D01*
X149790000Y-82960000D02*
X150630000Y-82960000D01*
X150610000Y-90660000D02*
X150610000Y-94110000D01*
X150610000Y-82980000D02*
X150630000Y-82960000D01*
X152500000Y-106000000D02*
X150610000Y-104110000D01*
X162350000Y-98500000D02*
X164100000Y-96750000D01*
X150610000Y-94110000D02*
X155000000Y-98500000D01*
X150610000Y-104110000D02*
X150610000Y-82980000D01*
%TO.N,/BUF*%
X162750000Y-85170000D02*
X163000000Y-85420000D01*
X163000000Y-85420000D02*
X163000000Y-86250000D01*
X163000000Y-86250000D02*
X162700000Y-86250000D01*
%TO.N,/DBG*%
X164100000Y-92000000D02*
X164100000Y-91600000D01*
X162100000Y-90725000D02*
X160200000Y-88825000D01*
X160200000Y-88825000D02*
X160200000Y-66700000D01*
X160200000Y-66700000D02*
X157500000Y-64000000D01*
X164100000Y-91600000D02*
X163225000Y-90725000D01*
X163225000Y-90725000D02*
X162100000Y-90725000D01*
%TO.N,/RX*%
X165000000Y-90320000D02*
X164500000Y-90820000D01*
X165000000Y-82120000D02*
X166620000Y-80500000D01*
X163200000Y-87770000D02*
X163182000Y-87752000D01*
X172650000Y-69150000D02*
X167500000Y-64000000D01*
X165000000Y-89570000D02*
X165000000Y-82120000D01*
X174050000Y-80800000D02*
X172650000Y-79400000D01*
X163182000Y-87752000D02*
X162970000Y-87752000D01*
X173750000Y-80500000D02*
X174050000Y-80800000D01*
X165000000Y-89570000D02*
X165000000Y-90320000D01*
X166620000Y-80500000D02*
X173750000Y-80500000D01*
X163200000Y-87770000D02*
X162988000Y-87770000D01*
X162970000Y-87752000D02*
X162700000Y-87482000D01*
X172650000Y-79400000D02*
X172650000Y-69150000D01*
X162700000Y-87482000D02*
X162700000Y-87090000D01*
X164500000Y-90820000D02*
X164500000Y-92000000D01*
%TO.N,/DE*%
X162023390Y-85573390D02*
X162400000Y-85950000D01*
X162400000Y-85950000D02*
X162400000Y-86250000D01*
X162021717Y-85573390D02*
X162023390Y-85573390D01*
%TO.N,/IN1*%
X143320000Y-97450000D02*
X142670000Y-97450000D01*
X143330000Y-97440000D02*
X143320000Y-97450000D01*
X163000000Y-93500000D02*
X161600000Y-93500000D01*
X161600000Y-93500000D02*
X161500000Y-93400000D01*
%TO.N,/IN2*%
X162200000Y-93900000D02*
X161900000Y-94200000D01*
X163000000Y-93900000D02*
X162200000Y-93900000D01*
X144645000Y-98255000D02*
X143175000Y-98255000D01*
X143175000Y-98255000D02*
X142870000Y-97950000D01*
X142870000Y-97950000D02*
X142670000Y-97950000D01*
D60*
%TO.N,/ISNS-*%
X145850000Y-96450000D02*
X146100000Y-96450000D01*
D56*
X166615128Y-93900000D02*
X166000000Y-93900000D01*
X166815127Y-94099999D02*
X166615128Y-93900000D01*
D57*
X145500000Y-96450000D02*
X145850000Y-96450000D01*
D56*
%TO.N,/ISNS+*%
X167080000Y-93500000D02*
X166000000Y-93500000D01*
D57*
X145480000Y-99690000D02*
X145860000Y-99690000D01*
D60*
X145860000Y-99690000D02*
X146100000Y-99690000D01*
D56*
X167590000Y-94010000D02*
X167080000Y-93500000D01*
X167590000Y-94400000D02*
X167590000Y-94010000D01*
%TO.N,/ENCB*%
X173550000Y-95000000D02*
X174050000Y-94500000D01*
X171680000Y-95240000D02*
X171670000Y-95230000D01*
X171900000Y-95240000D02*
X171680000Y-95240000D01*
X171900000Y-95240000D02*
X172140000Y-95000000D01*
X172140000Y-95000000D02*
X173550000Y-95000000D01*
X165530000Y-95230000D02*
X165300000Y-95000000D01*
X171670000Y-95230000D02*
X165530000Y-95230000D01*
%TO.N,/ENCA*%
X164900000Y-95482000D02*
X164900000Y-95000000D01*
X169100000Y-96000000D02*
X174050000Y-96000000D01*
X165418000Y-96000000D02*
X164900000Y-95482000D01*
X169100000Y-96000000D02*
X165418000Y-96000000D01*
%TO.N,Net-(LED2-A)*%
X157290000Y-86690000D02*
X157290000Y-85985000D01*
X157290000Y-85985000D02*
X156780000Y-85475000D01*
%TO.N,Net-(LED3-A)*%
X159220000Y-85992500D02*
X158700000Y-85472500D01*
X159220000Y-86680000D02*
X159220000Y-85992500D01*
%TO.N,Net-(USB1-CC1)*%
X138500000Y-82800000D02*
X137280000Y-82800000D01*
X137280000Y-82800000D02*
X137260000Y-82820000D01*
%TO.N,Net-(USB1-CC2)*%
X137280000Y-83800000D02*
X137260000Y-83820000D01*
X138490000Y-83800000D02*
X137280000Y-83800000D01*
D59*
%TO.N,BUS_VIN*%
X167650000Y-72850000D02*
X166211864Y-72850000D01*
X145400000Y-66475000D02*
X144300000Y-66475000D01*
X144300000Y-66475000D02*
X139975000Y-66475000D01*
X139975000Y-66475000D02*
X137500000Y-64000000D01*
%TO.N,VBUS*%
X136148000Y-84840000D02*
X136069000Y-84761000D01*
X137260000Y-84840000D02*
X136148000Y-84840000D01*
X139429000Y-81851000D02*
X139780000Y-81500000D01*
X136069000Y-84761000D02*
X136069000Y-81879000D01*
X137311000Y-81851000D02*
X139429000Y-81851000D01*
X137260000Y-81800000D02*
X137311000Y-81851000D01*
X136148000Y-81800000D02*
X137260000Y-81800000D01*
X136069000Y-81879000D02*
X136148000Y-81800000D01*
D56*
%TO.N,Net-(Q1-G)*%
X139780000Y-79600000D02*
X139780000Y-79410000D01*
X140190000Y-79000000D02*
X140190000Y-78310000D01*
X139780000Y-79410000D02*
X140190000Y-79000000D01*
X140190000Y-78310000D02*
X140180000Y-78300000D01*
%TO.N,Net-(Q2-G)*%
X139662500Y-70387500D02*
X140287500Y-69762500D01*
X140287500Y-69762500D02*
X140287500Y-69117500D01*
%TO.N,Net-(Q3-G)*%
X143900000Y-68775000D02*
X144300000Y-68375000D01*
X143900000Y-69600000D02*
X143900000Y-68775000D01*
%TO.N,/STAT*%
X163175000Y-91475000D02*
X161425000Y-91475000D01*
X163700000Y-92000000D02*
X163175000Y-91475000D01*
X158200000Y-86680000D02*
X157800000Y-86280000D01*
X157800000Y-86280000D02*
X157800000Y-69300000D01*
X161425000Y-91475000D02*
X158200000Y-88250000D01*
X157800000Y-69300000D02*
X152500000Y-64000000D01*
X158200000Y-88250000D02*
X158200000Y-86680000D01*
%TD*%
%TA.AperFunction,Conductor*%
%TO.N,/OUTA*%
G36*
X139710346Y-96405173D02*
G01*
X140347591Y-96723795D01*
X140360321Y-96732970D01*
X140400201Y-96772850D01*
X140500240Y-96819499D01*
X140545821Y-96825500D01*
X140883305Y-96825499D01*
X140917953Y-96839851D01*
X140932305Y-96874499D01*
X140930635Y-96887181D01*
X140914500Y-96947396D01*
X140914500Y-97020999D01*
X140900148Y-97055647D01*
X140865500Y-97069999D01*
X140575414Y-97069999D01*
X140559665Y-97067399D01*
X140523568Y-97055147D01*
X140523567Y-97055146D01*
X140523562Y-97055145D01*
X140523558Y-97055144D01*
X140523551Y-97055142D01*
X140502865Y-97050557D01*
X140502859Y-97050556D01*
X140502855Y-97050555D01*
X140447562Y-97044500D01*
X138809436Y-97044500D01*
X138809433Y-97044500D01*
X138761133Y-97049108D01*
X138761121Y-97049110D01*
X138761117Y-97049110D01*
X138761114Y-97049111D01*
X138752015Y-97050863D01*
X138742909Y-97052617D01*
X138696353Y-97066277D01*
X138696341Y-97066281D01*
X138515383Y-97138664D01*
X138515375Y-97138666D01*
X138009555Y-97340995D01*
X137991357Y-97344500D01*
X134349500Y-97344500D01*
X134314852Y-97330148D01*
X134300500Y-97295500D01*
X134300500Y-96449000D01*
X134314852Y-96414352D01*
X134349500Y-96400000D01*
X139688433Y-96400000D01*
X139710346Y-96405173D01*
G37*
%TD.AperFunction*%
%TD*%
%TA.AperFunction,Conductor*%
%TO.N,VSYS*%
G36*
X143143039Y-67245185D02*
G01*
X143188794Y-67297989D01*
X143200000Y-67349500D01*
X143200000Y-72799999D01*
X143200000Y-72800000D01*
X147773363Y-72702694D01*
X147840805Y-72720948D01*
X147887673Y-72772767D01*
X147900000Y-72826666D01*
X147900000Y-77176000D01*
X147880315Y-77243039D01*
X147827511Y-77288794D01*
X147776000Y-77300000D01*
X143200000Y-77300000D01*
X143200000Y-82045552D01*
X143180315Y-82112591D01*
X143127511Y-82158346D01*
X143076000Y-82169552D01*
X142195323Y-82169552D01*
X142122264Y-82184084D01*
X142122260Y-82184085D01*
X142039399Y-82239451D01*
X141984033Y-82322312D01*
X141984032Y-82322316D01*
X141969500Y-82395373D01*
X141969500Y-83044730D01*
X141984032Y-83117787D01*
X141984033Y-83117791D01*
X141984034Y-83117792D01*
X142039399Y-83200653D01*
X142122260Y-83256018D01*
X142122264Y-83256019D01*
X142195321Y-83270551D01*
X142195324Y-83270552D01*
X143076000Y-83270552D01*
X143143039Y-83290237D01*
X143188794Y-83343041D01*
X143200000Y-83394552D01*
X143200000Y-83876000D01*
X143197449Y-83884685D01*
X143198738Y-83893647D01*
X143187759Y-83917687D01*
X143180315Y-83943039D01*
X143173474Y-83948966D01*
X143169713Y-83957203D01*
X143147478Y-83971492D01*
X143127511Y-83988794D01*
X143116996Y-83991081D01*
X143110935Y-83994977D01*
X143076000Y-84000000D01*
X142842258Y-84000000D01*
X142785964Y-83986485D01*
X142722175Y-83953983D01*
X142722174Y-83953982D01*
X142722171Y-83953981D01*
X142630735Y-83939500D01*
X142289260Y-83939500D01*
X142289260Y-83939501D01*
X142197829Y-83953981D01*
X142197825Y-83953982D01*
X142134036Y-83986485D01*
X142077742Y-84000000D01*
X141940000Y-84000000D01*
X141952154Y-84151932D01*
X141946481Y-84200135D01*
X141943982Y-84207825D01*
X141929500Y-84299265D01*
X141929500Y-84500010D01*
X141909815Y-84567049D01*
X141893621Y-84587250D01*
X141483221Y-85001795D01*
X141451547Y-85022266D01*
X141452560Y-85024121D01*
X141444770Y-85028374D01*
X141335312Y-85110313D01*
X141253374Y-85219769D01*
X141249121Y-85227559D01*
X141248151Y-85227029D01*
X141226130Y-85261483D01*
X140000000Y-86499999D01*
X140000000Y-93300000D01*
X140555383Y-93762819D01*
X140594282Y-93820858D01*
X140600000Y-93858078D01*
X140600000Y-95800000D01*
X140935195Y-96218994D01*
X140961703Y-96283640D01*
X140957362Y-96331331D01*
X140953182Y-96345590D01*
X140946905Y-96356464D01*
X140914500Y-96477399D01*
X140914500Y-96477577D01*
X140913534Y-96480874D01*
X140895413Y-96509100D01*
X140877948Y-96537754D01*
X140876598Y-96538409D01*
X140875789Y-96539671D01*
X140845276Y-96553624D01*
X140815101Y-96568282D01*
X140812803Y-96568473D01*
X140812248Y-96568728D01*
X140811331Y-96568596D01*
X140794539Y-96569999D01*
X140607397Y-96569999D01*
X140540358Y-96550314D01*
X140527046Y-96540443D01*
X140509718Y-96525701D01*
X140509698Y-96525685D01*
X140496996Y-96516530D01*
X140496970Y-96516513D01*
X140461872Y-96495279D01*
X140461852Y-96495268D01*
X140453336Y-96491010D01*
X140403638Y-96445821D01*
X140018848Y-95830156D01*
X140000000Y-95764436D01*
X140000000Y-95200000D01*
X139546538Y-94837230D01*
X139506486Y-94779979D01*
X139500000Y-94740402D01*
X139500000Y-93800001D01*
X139500000Y-93800000D01*
X138756274Y-93335171D01*
X138709858Y-93282947D01*
X138698049Y-93233668D01*
X138501529Y-86551993D01*
X138519234Y-86484405D01*
X138536019Y-86462480D01*
X140900000Y-84000000D01*
X140998528Y-67348765D01*
X141018609Y-67281844D01*
X141071683Y-67236403D01*
X141122526Y-67225500D01*
X143076000Y-67225500D01*
X143143039Y-67245185D01*
G37*
%TD.AperFunction*%
%TD*%
%TA.AperFunction,Conductor*%
%TO.N,/OUTB*%
G36*
X140468269Y-97304590D02*
G01*
X140500240Y-97319499D01*
X140545821Y-97325500D01*
X140885266Y-97325499D01*
X140919914Y-97339851D01*
X140934266Y-97374499D01*
X140932596Y-97387181D01*
X140924500Y-97417395D01*
X140924500Y-97525500D01*
X140910148Y-97560148D01*
X140875500Y-97574500D01*
X140545825Y-97574500D01*
X140545820Y-97574501D01*
X140500241Y-97580500D01*
X140400199Y-97627151D01*
X140400198Y-97627152D01*
X140375662Y-97651686D01*
X140360917Y-97661813D01*
X139609502Y-97995777D01*
X139589601Y-98000000D01*
X138800000Y-98000000D01*
X138113762Y-98588204D01*
X138081873Y-98600000D01*
X134349500Y-98600000D01*
X134314852Y-98585648D01*
X134300500Y-98551000D01*
X134300500Y-97649000D01*
X134314852Y-97614352D01*
X134349500Y-97600000D01*
X138050001Y-97600000D01*
X138050001Y-97599999D01*
X138605928Y-97377628D01*
X138791238Y-97303505D01*
X138809436Y-97300000D01*
X140447562Y-97300000D01*
X140468269Y-97304590D01*
G37*
%TD.AperFunction*%
%TD*%
%TA.AperFunction,Conductor*%
%TO.N,+3.3V*%
G36*
X145224735Y-80100941D02*
G01*
X145286975Y-80113322D01*
X145304640Y-80120638D01*
X145353319Y-80153165D01*
X145366834Y-80166680D01*
X145370769Y-80172569D01*
X145399361Y-80215360D01*
X145406677Y-80233023D01*
X145419058Y-80295263D01*
X145420000Y-80304823D01*
X145420000Y-81835228D01*
X145419058Y-81844788D01*
X145406677Y-81907028D01*
X145399361Y-81924691D01*
X145366836Y-81973369D01*
X145353317Y-81986888D01*
X145304639Y-82019413D01*
X145286976Y-82026729D01*
X145239275Y-82036217D01*
X145224734Y-82039110D01*
X145215177Y-82040052D01*
X144024823Y-82040052D01*
X144015265Y-82039110D01*
X143997202Y-82035517D01*
X143953023Y-82026729D01*
X143935360Y-82019413D01*
X143911021Y-82003150D01*
X143886680Y-81986886D01*
X143873165Y-81973371D01*
X143840638Y-81924691D01*
X143833322Y-81907031D01*
X143820940Y-81844778D01*
X143820000Y-81835228D01*
X143820000Y-81259499D01*
X143834352Y-81224851D01*
X143868997Y-81210499D01*
X144219900Y-81210499D01*
X144269487Y-81203972D01*
X144378316Y-81153224D01*
X144463224Y-81068316D01*
X144513972Y-80959487D01*
X144520500Y-80909901D01*
X144520499Y-80490100D01*
X144513972Y-80440513D01*
X144463224Y-80331684D01*
X144463223Y-80331683D01*
X144463222Y-80331681D01*
X144378318Y-80246777D01*
X144378316Y-80246776D01*
X144266090Y-80194444D01*
X144266485Y-80193595D01*
X144240288Y-80172569D01*
X144236204Y-80135289D01*
X144259678Y-80106041D01*
X144283247Y-80100000D01*
X145215177Y-80100000D01*
X145224735Y-80100941D01*
G37*
%TD.AperFunction*%
%TD*%
%TA.AperFunction,Conductor*%
%TO.N,GND*%
G36*
X150994148Y-88219119D02*
G01*
X155159540Y-92384511D01*
X155215489Y-92440460D01*
X155284011Y-92480021D01*
X155319478Y-92489524D01*
X155360436Y-92500500D01*
X155360438Y-92500500D01*
X160210118Y-92500500D01*
X160244766Y-92514852D01*
X160259118Y-92549500D01*
X160252553Y-92574000D01*
X160233608Y-92606811D01*
X160233607Y-92606815D01*
X160199500Y-92734104D01*
X160199500Y-92865895D01*
X160233607Y-92993184D01*
X160233608Y-92993188D01*
X160272436Y-93060438D01*
X160299500Y-93107314D01*
X160392686Y-93200500D01*
X160426423Y-93219978D01*
X160506811Y-93266391D01*
X160506813Y-93266391D01*
X160506814Y-93266392D01*
X160569491Y-93283186D01*
X160634104Y-93300499D01*
X160634105Y-93300500D01*
X160634108Y-93300500D01*
X160765895Y-93300500D01*
X160765895Y-93300499D01*
X160893186Y-93266392D01*
X160937975Y-93240532D01*
X160975154Y-93235637D01*
X161004908Y-93258467D01*
X161009804Y-93295649D01*
X160999500Y-93334107D01*
X160999500Y-93465895D01*
X161033607Y-93593184D01*
X161033608Y-93593188D01*
X161084450Y-93681247D01*
X161099500Y-93707314D01*
X161192686Y-93800500D01*
X161234457Y-93824617D01*
X161306811Y-93866391D01*
X161306814Y-93866392D01*
X161425149Y-93898100D01*
X161454902Y-93920930D01*
X161459797Y-93958112D01*
X161454903Y-93969930D01*
X161433607Y-94006816D01*
X161399500Y-94134104D01*
X161399500Y-94265895D01*
X161433607Y-94393184D01*
X161433608Y-94393188D01*
X161482709Y-94478231D01*
X161499500Y-94507314D01*
X161592686Y-94600500D01*
X161634457Y-94624617D01*
X161706811Y-94666391D01*
X161706813Y-94666391D01*
X161706814Y-94666392D01*
X161774436Y-94684511D01*
X161834104Y-94700499D01*
X161834105Y-94700500D01*
X161834108Y-94700500D01*
X161965895Y-94700500D01*
X161965895Y-94700499D01*
X162093186Y-94666392D01*
X162207314Y-94600500D01*
X162300500Y-94507314D01*
X162322251Y-94469638D01*
X162352002Y-94446810D01*
X162389184Y-94451704D01*
X162409953Y-94475384D01*
X162411131Y-94478227D01*
X162411132Y-94478229D01*
X162411133Y-94478231D01*
X162421126Y-94493186D01*
X162455448Y-94544553D01*
X162458313Y-94547418D01*
X162472665Y-94582066D01*
X162458313Y-94616714D01*
X162181224Y-94893805D01*
X162125276Y-94949753D01*
X162125275Y-94949753D01*
X162085714Y-95018273D01*
X162085714Y-95018275D01*
X162065235Y-95094701D01*
X162065235Y-96289497D01*
X162050883Y-96324145D01*
X161889880Y-96485148D01*
X161855232Y-96499500D01*
X161734105Y-96499500D01*
X161606815Y-96533607D01*
X161606811Y-96533608D01*
X161492685Y-96599500D01*
X161399501Y-96692685D01*
X161399500Y-96692685D01*
X161333608Y-96806811D01*
X161333607Y-96806815D01*
X161299500Y-96934104D01*
X161299500Y-97065895D01*
X161333607Y-97193184D01*
X161333608Y-97193188D01*
X161389403Y-97289826D01*
X161399500Y-97307314D01*
X161492686Y-97400500D01*
X161514923Y-97413338D01*
X161537753Y-97443091D01*
X161532858Y-97480273D01*
X161514925Y-97498207D01*
X161512691Y-97499496D01*
X161512682Y-97499503D01*
X161419501Y-97592685D01*
X161419500Y-97592685D01*
X161353608Y-97706811D01*
X161353607Y-97706815D01*
X161319500Y-97834104D01*
X161319500Y-97965895D01*
X161353607Y-98093184D01*
X161353608Y-98093188D01*
X161372553Y-98126000D01*
X161377448Y-98163182D01*
X161354618Y-98192935D01*
X161330118Y-98199500D01*
X155144767Y-98199500D01*
X155110119Y-98185148D01*
X150924852Y-93999881D01*
X150910500Y-93965233D01*
X150910500Y-88253767D01*
X150924852Y-88219119D01*
X150959500Y-88204767D01*
X150994148Y-88219119D01*
G37*
%TD.AperFunction*%
%TA.AperFunction,Conductor*%
G36*
X165118753Y-92587618D02*
G01*
X165121765Y-92588865D01*
X165121766Y-92588865D01*
X165121769Y-92588867D01*
X165180252Y-92600500D01*
X165350500Y-92600500D01*
X165385148Y-92614852D01*
X165399500Y-92649500D01*
X165399500Y-92819748D01*
X165411133Y-92878231D01*
X165423548Y-92896811D01*
X165455447Y-92944552D01*
X165482012Y-92962301D01*
X165521769Y-92988867D01*
X165580252Y-93000500D01*
X166264534Y-93000500D01*
X166299182Y-93014852D01*
X166329544Y-93045214D01*
X166355913Y-93060438D01*
X166438404Y-93108065D01*
X166461234Y-93137818D01*
X166456339Y-93175000D01*
X166426586Y-93197830D01*
X166413904Y-93199500D01*
X165580252Y-93199500D01*
X165521769Y-93211133D01*
X165455447Y-93255447D01*
X165413148Y-93318753D01*
X165411133Y-93321769D01*
X165399500Y-93380252D01*
X165399500Y-93619748D01*
X165406441Y-93654642D01*
X165411133Y-93678233D01*
X165412384Y-93681252D01*
X165412384Y-93718748D01*
X165411133Y-93721766D01*
X165405316Y-93751010D01*
X165399500Y-93780252D01*
X165399500Y-94019748D01*
X165402261Y-94033626D01*
X165411133Y-94078233D01*
X165412384Y-94081252D01*
X165412384Y-94118748D01*
X165411133Y-94121766D01*
X165406272Y-94146208D01*
X165399500Y-94180252D01*
X165399500Y-94180255D01*
X165399500Y-94350500D01*
X165385148Y-94385148D01*
X165350500Y-94399500D01*
X165180252Y-94399500D01*
X165151010Y-94405316D01*
X165121766Y-94411133D01*
X165118748Y-94412384D01*
X165081252Y-94412384D01*
X165078233Y-94411133D01*
X165054837Y-94406479D01*
X165019748Y-94399500D01*
X164780252Y-94399500D01*
X164751010Y-94405316D01*
X164721766Y-94411133D01*
X164718748Y-94412384D01*
X164681252Y-94412384D01*
X164678233Y-94411133D01*
X164654837Y-94406479D01*
X164619748Y-94399500D01*
X164380252Y-94399500D01*
X164351010Y-94405316D01*
X164321766Y-94411133D01*
X164318748Y-94412384D01*
X164281252Y-94412384D01*
X164278233Y-94411133D01*
X164254837Y-94406479D01*
X164219748Y-94399500D01*
X163980252Y-94399500D01*
X163951010Y-94405316D01*
X163921766Y-94411133D01*
X163918748Y-94412384D01*
X163881252Y-94412384D01*
X163878233Y-94411133D01*
X163854837Y-94406479D01*
X163819748Y-94399500D01*
X163819745Y-94399500D01*
X163649500Y-94399500D01*
X163614852Y-94385148D01*
X163600500Y-94350500D01*
X163600500Y-94180255D01*
X163600500Y-94180252D01*
X163588867Y-94121769D01*
X163588865Y-94121766D01*
X163588865Y-94121765D01*
X163587618Y-94118753D01*
X163587616Y-94081250D01*
X163587618Y-94081247D01*
X163588865Y-94078234D01*
X163588865Y-94078233D01*
X163588867Y-94078231D01*
X163600500Y-94019748D01*
X163600500Y-93780252D01*
X163588867Y-93721769D01*
X163588865Y-93721766D01*
X163588865Y-93721765D01*
X163587618Y-93718753D01*
X163587616Y-93681250D01*
X163587618Y-93681247D01*
X163588865Y-93678234D01*
X163588865Y-93678233D01*
X163588867Y-93678231D01*
X163600500Y-93619748D01*
X163600500Y-93380252D01*
X163588867Y-93321769D01*
X163588865Y-93321766D01*
X163588865Y-93321765D01*
X163587618Y-93318753D01*
X163587616Y-93281250D01*
X163587618Y-93281247D01*
X163588865Y-93278234D01*
X163588865Y-93278233D01*
X163588867Y-93278231D01*
X163600500Y-93219748D01*
X163600500Y-92980252D01*
X163588867Y-92921769D01*
X163588865Y-92921766D01*
X163588865Y-92921765D01*
X163587618Y-92918753D01*
X163587616Y-92881250D01*
X163587618Y-92881247D01*
X163588865Y-92878234D01*
X163588865Y-92878233D01*
X163588867Y-92878231D01*
X163600500Y-92819748D01*
X163600500Y-92649500D01*
X163614852Y-92614852D01*
X163649500Y-92600500D01*
X163819745Y-92600500D01*
X163819748Y-92600500D01*
X163878231Y-92588867D01*
X163878234Y-92588865D01*
X163881247Y-92587618D01*
X163918750Y-92587616D01*
X163918753Y-92587618D01*
X163921765Y-92588865D01*
X163921766Y-92588865D01*
X163921769Y-92588867D01*
X163980252Y-92600500D01*
X163980255Y-92600500D01*
X164219745Y-92600500D01*
X164219748Y-92600500D01*
X164278231Y-92588867D01*
X164278234Y-92588865D01*
X164281247Y-92587618D01*
X164318750Y-92587616D01*
X164318753Y-92587618D01*
X164321765Y-92588865D01*
X164321766Y-92588865D01*
X164321769Y-92588867D01*
X164380252Y-92600500D01*
X164380255Y-92600500D01*
X164619745Y-92600500D01*
X164619748Y-92600500D01*
X164678231Y-92588867D01*
X164678234Y-92588865D01*
X164681247Y-92587618D01*
X164718750Y-92587616D01*
X164718753Y-92587618D01*
X164721765Y-92588865D01*
X164721766Y-92588865D01*
X164721769Y-92588867D01*
X164780252Y-92600500D01*
X164780255Y-92600500D01*
X165019745Y-92600500D01*
X165019748Y-92600500D01*
X165078231Y-92588867D01*
X165078234Y-92588865D01*
X165081247Y-92587618D01*
X165081247Y-92587617D01*
X165081250Y-92587616D01*
X165118750Y-92587616D01*
X165118753Y-92587618D01*
G37*
%TD.AperFunction*%
%TA.AperFunction,Conductor*%
G36*
X148239148Y-76734829D02*
G01*
X152635148Y-81130829D01*
X152649500Y-81165477D01*
X152649500Y-85446146D01*
X152669326Y-85520137D01*
X152673384Y-85535285D01*
X152673386Y-85535290D01*
X152719530Y-85615212D01*
X153795148Y-86690830D01*
X153809500Y-86725478D01*
X153809500Y-86911583D01*
X153812849Y-86934569D01*
X153820418Y-86986518D01*
X153876924Y-87102102D01*
X153967898Y-87193076D01*
X154083482Y-87249582D01*
X154141507Y-87258036D01*
X154158416Y-87260500D01*
X154158418Y-87260500D01*
X154501584Y-87260500D01*
X154516777Y-87258285D01*
X154576518Y-87249582D01*
X154692102Y-87193076D01*
X154783076Y-87102102D01*
X154823810Y-87018778D01*
X154851920Y-86993954D01*
X154889351Y-86996278D01*
X154912239Y-87019589D01*
X154926624Y-87050436D01*
X154935936Y-87070406D01*
X155019593Y-87154063D01*
X155019595Y-87154064D01*
X155019596Y-87154065D01*
X155126827Y-87204068D01*
X155175684Y-87210500D01*
X155175687Y-87210500D01*
X155524312Y-87210500D01*
X155524316Y-87210500D01*
X155573173Y-87204068D01*
X155680404Y-87154065D01*
X155680406Y-87154062D01*
X155682393Y-87152672D01*
X155719006Y-87144553D01*
X155750637Y-87164702D01*
X155759500Y-87192809D01*
X155759500Y-87265895D01*
X155793607Y-87393184D01*
X155793608Y-87393188D01*
X155854342Y-87498380D01*
X155859500Y-87507314D01*
X155952686Y-87600500D01*
X155978518Y-87615414D01*
X156066811Y-87666391D01*
X156066813Y-87666391D01*
X156066814Y-87666392D01*
X156167207Y-87693292D01*
X156194104Y-87700499D01*
X156194105Y-87700500D01*
X156194108Y-87700500D01*
X156325895Y-87700500D01*
X156325895Y-87700499D01*
X156453186Y-87666392D01*
X156567314Y-87600500D01*
X156660500Y-87507314D01*
X156726392Y-87393186D01*
X156760499Y-87265895D01*
X156760500Y-87265895D01*
X156760500Y-87134106D01*
X156744188Y-87073230D01*
X156726392Y-87006814D01*
X156726390Y-87006811D01*
X156726382Y-87006780D01*
X156729303Y-86973389D01*
X156734068Y-86963173D01*
X156734068Y-86963169D01*
X156735592Y-86959903D01*
X156763244Y-86934569D01*
X156800712Y-86936207D01*
X156824409Y-86959907D01*
X156875935Y-87070404D01*
X156875936Y-87070406D01*
X156959593Y-87154063D01*
X156959595Y-87154064D01*
X156959596Y-87154065D01*
X157066827Y-87204068D01*
X157115684Y-87210500D01*
X157115687Y-87210500D01*
X157464312Y-87210500D01*
X157464316Y-87210500D01*
X157513173Y-87204068D01*
X157620404Y-87154065D01*
X157704065Y-87070404D01*
X157704066Y-87070400D01*
X157706520Y-87066897D01*
X157707557Y-87067623D01*
X157731370Y-87045800D01*
X157768837Y-87047433D01*
X157781892Y-87058384D01*
X157782904Y-87057373D01*
X157869594Y-87144064D01*
X157871206Y-87144816D01*
X157872170Y-87145867D01*
X157873107Y-87146524D01*
X157872961Y-87146731D01*
X157896544Y-87172465D01*
X157899500Y-87189226D01*
X157899500Y-88289563D01*
X157919979Y-88365989D01*
X157919979Y-88365991D01*
X157941044Y-88402475D01*
X157959540Y-88434511D01*
X161240489Y-91715460D01*
X161290648Y-91744420D01*
X161308322Y-91754624D01*
X161309012Y-91755022D01*
X161346904Y-91765175D01*
X161385434Y-91775499D01*
X161385435Y-91775500D01*
X161385438Y-91775500D01*
X161464562Y-91775500D01*
X163030233Y-91775500D01*
X163064881Y-91789852D01*
X163385148Y-92110119D01*
X163399500Y-92144767D01*
X163399500Y-92350500D01*
X163385148Y-92385148D01*
X163350500Y-92399500D01*
X163144767Y-92399500D01*
X163110119Y-92385148D01*
X162684513Y-91959542D01*
X162684507Y-91959537D01*
X162667910Y-91949955D01*
X162657752Y-91944091D01*
X162615991Y-91919979D01*
X162615987Y-91919978D01*
X162539564Y-91899500D01*
X162539562Y-91899500D01*
X155544767Y-91899500D01*
X155510119Y-91885148D01*
X151405852Y-87780881D01*
X151391500Y-87746233D01*
X151391500Y-82441436D01*
X151377094Y-82387676D01*
X151371021Y-82365011D01*
X151371020Y-82365009D01*
X151371020Y-82365008D01*
X151331459Y-82296488D01*
X151114852Y-82079881D01*
X151100500Y-82045233D01*
X151100500Y-81795687D01*
X151098976Y-81784108D01*
X151094068Y-81746827D01*
X151044065Y-81639596D01*
X151044064Y-81639595D01*
X151044063Y-81639593D01*
X150960406Y-81555936D01*
X150960404Y-81555935D01*
X150890854Y-81523503D01*
X150853174Y-81505932D01*
X150843401Y-81504645D01*
X150804316Y-81499500D01*
X150455684Y-81499500D01*
X150423112Y-81503788D01*
X150406825Y-81505932D01*
X150406824Y-81505933D01*
X150299595Y-81555935D01*
X150299593Y-81555936D01*
X150244648Y-81610882D01*
X150210000Y-81625234D01*
X150175352Y-81610882D01*
X150120406Y-81555936D01*
X150120404Y-81555935D01*
X150050854Y-81523503D01*
X150013174Y-81505932D01*
X150003401Y-81504645D01*
X149964316Y-81499500D01*
X149615684Y-81499500D01*
X149583112Y-81503788D01*
X149566825Y-81505932D01*
X149566824Y-81505933D01*
X149459595Y-81555935D01*
X149459593Y-81555936D01*
X149375936Y-81639593D01*
X149352240Y-81690409D01*
X149324589Y-81715745D01*
X149287122Y-81714109D01*
X149263810Y-81691221D01*
X149262656Y-81688860D01*
X149223076Y-81607898D01*
X149132102Y-81516924D01*
X149016518Y-81460418D01*
X148961882Y-81452457D01*
X148934299Y-81438617D01*
X148164851Y-80669169D01*
X148150499Y-80634521D01*
X148150499Y-78502120D01*
X148144092Y-78442521D01*
X148144091Y-78442517D01*
X148093796Y-78307669D01*
X148007546Y-78192454D01*
X147902490Y-78113809D01*
X147892333Y-78106205D01*
X147892331Y-78106204D01*
X147810503Y-78075684D01*
X147757479Y-78055907D01*
X147697879Y-78049500D01*
X147697873Y-78049500D01*
X147593987Y-78049500D01*
X147559339Y-78035148D01*
X147546657Y-78013182D01*
X147522424Y-77922747D01*
X147512984Y-77887515D01*
X147512983Y-77887514D01*
X147512983Y-77887512D01*
X147440508Y-77761984D01*
X147338015Y-77659491D01*
X147316267Y-77646935D01*
X147293437Y-77617182D01*
X147298332Y-77580000D01*
X147328085Y-77557170D01*
X147340767Y-77555500D01*
X147776006Y-77555500D01*
X147806455Y-77552225D01*
X147830313Y-77549661D01*
X147881824Y-77538455D01*
X147908198Y-77531219D01*
X147994828Y-77481888D01*
X148047632Y-77436133D01*
X148079257Y-77403359D01*
X148125465Y-77315024D01*
X148145150Y-77247985D01*
X148155500Y-77176000D01*
X148155500Y-76769477D01*
X148169852Y-76734829D01*
X148204500Y-76720477D01*
X148239148Y-76734829D01*
G37*
%TD.AperFunction*%
%TA.AperFunction,Conductor*%
G36*
X168195915Y-80801794D02*
G01*
X168199184Y-80800919D01*
X168212856Y-80808812D01*
X168227437Y-80814852D01*
X168228731Y-80817977D01*
X168231663Y-80819670D01*
X168235749Y-80834918D01*
X168241789Y-80849500D01*
X168241370Y-80855895D01*
X168239500Y-80870099D01*
X168239500Y-81289896D01*
X168239501Y-81289901D01*
X168246027Y-81339487D01*
X168296776Y-81448316D01*
X168296777Y-81448318D01*
X168368562Y-81520103D01*
X168382914Y-81554751D01*
X168368562Y-81589399D01*
X168343475Y-81602809D01*
X168326770Y-81606132D01*
X168260447Y-81650447D01*
X168218530Y-81713182D01*
X168216133Y-81716769D01*
X168204500Y-81775252D01*
X168204500Y-82864748D01*
X168213806Y-82911534D01*
X168216133Y-82923232D01*
X168228807Y-82942200D01*
X168236123Y-82978982D01*
X168235395Y-82982104D01*
X168229500Y-83004104D01*
X168229500Y-83135895D01*
X168263607Y-83263184D01*
X168263608Y-83263188D01*
X168313907Y-83350307D01*
X168329500Y-83377314D01*
X168422686Y-83470500D01*
X168461113Y-83492686D01*
X168536811Y-83536391D01*
X168536813Y-83536391D01*
X168536814Y-83536392D01*
X168598584Y-83552943D01*
X168664104Y-83570499D01*
X168664105Y-83570500D01*
X168664108Y-83570500D01*
X168795895Y-83570500D01*
X168795895Y-83570499D01*
X168923186Y-83536392D01*
X169037314Y-83470500D01*
X169130500Y-83377314D01*
X169196392Y-83263186D01*
X169230499Y-83135895D01*
X169230500Y-83135895D01*
X169230500Y-83004110D01*
X169230500Y-83004108D01*
X169224603Y-82982103D01*
X169229497Y-82944924D01*
X169231175Y-82942223D01*
X169243867Y-82923231D01*
X169255500Y-82864748D01*
X169255500Y-81775252D01*
X169243867Y-81716769D01*
X169217301Y-81677012D01*
X169199552Y-81650447D01*
X169135869Y-81607896D01*
X169133231Y-81606133D01*
X169133230Y-81606132D01*
X169133229Y-81606132D01*
X169099843Y-81599491D01*
X169068661Y-81578656D01*
X169061345Y-81541873D01*
X169074755Y-81516785D01*
X169143222Y-81448318D01*
X169143224Y-81448316D01*
X169193972Y-81339487D01*
X169200500Y-81289901D01*
X169200499Y-80870100D01*
X169198629Y-80855893D01*
X169208337Y-80819670D01*
X169240816Y-80800919D01*
X169247210Y-80800500D01*
X172450500Y-80800500D01*
X172485148Y-80814852D01*
X172499500Y-80849500D01*
X172499500Y-81010637D01*
X172510134Y-81083626D01*
X172510135Y-81083628D01*
X172565172Y-81196208D01*
X172565173Y-81196210D01*
X172565174Y-81196211D01*
X172653789Y-81284826D01*
X172766375Y-81339866D01*
X172818094Y-81347401D01*
X172839362Y-81350500D01*
X175101289Y-81350500D01*
X175135937Y-81364852D01*
X175150289Y-81399500D01*
X175135937Y-81434148D01*
X175125793Y-81441932D01*
X175112686Y-81449500D01*
X175112683Y-81449502D01*
X175019501Y-81542685D01*
X175019500Y-81542685D01*
X174953608Y-81656811D01*
X174953607Y-81656815D01*
X174938504Y-81713182D01*
X174915674Y-81742935D01*
X174891174Y-81749500D01*
X172839362Y-81749500D01*
X172766373Y-81760134D01*
X172766371Y-81760135D01*
X172653791Y-81815172D01*
X172653787Y-81815175D01*
X172565175Y-81903787D01*
X172565171Y-81903793D01*
X172531818Y-81972020D01*
X172503708Y-81996845D01*
X172487797Y-81999500D01*
X171280493Y-81999500D01*
X171204067Y-82019979D01*
X171204065Y-82019979D01*
X171159774Y-82045552D01*
X171135545Y-82059540D01*
X171135545Y-82059541D01*
X167888541Y-85306545D01*
X167888540Y-85306545D01*
X167848979Y-85375065D01*
X167848979Y-85375067D01*
X167828500Y-85451493D01*
X167828500Y-86156176D01*
X167814148Y-86190824D01*
X165384148Y-88620824D01*
X165349500Y-88635176D01*
X165314852Y-88620824D01*
X165300500Y-88586176D01*
X165300500Y-82264767D01*
X165314852Y-82230119D01*
X166730119Y-80814852D01*
X166764767Y-80800500D01*
X168192789Y-80800500D01*
X168195915Y-80801794D01*
G37*
%TD.AperFunction*%
%TA.AperFunction,Conductor*%
G36*
X177501470Y-60300589D02*
G01*
X177542117Y-60303047D01*
X177762175Y-60316358D01*
X177768034Y-60317071D01*
X178023461Y-60363879D01*
X178029199Y-60365293D01*
X178167979Y-60408539D01*
X178277123Y-60442550D01*
X178282654Y-60444647D01*
X178519461Y-60551225D01*
X178524688Y-60553967D01*
X178652041Y-60630956D01*
X178746922Y-60688314D01*
X178751791Y-60691675D01*
X178956205Y-60851823D01*
X178960634Y-60855747D01*
X179144252Y-61039365D01*
X179148176Y-61043794D01*
X179308324Y-61248208D01*
X179311685Y-61253077D01*
X179446028Y-61475305D01*
X179448778Y-61480545D01*
X179555351Y-61717344D01*
X179557449Y-61722876D01*
X179634705Y-61970796D01*
X179636121Y-61976542D01*
X179682927Y-62231957D01*
X179683641Y-62237830D01*
X179699411Y-62498528D01*
X179699500Y-62501487D01*
X179699500Y-107498512D01*
X179699411Y-107501471D01*
X179683641Y-107762169D01*
X179682927Y-107768042D01*
X179636121Y-108023457D01*
X179634705Y-108029203D01*
X179557449Y-108277123D01*
X179555351Y-108282655D01*
X179448778Y-108519454D01*
X179446028Y-108524694D01*
X179311685Y-108746922D01*
X179308324Y-108751791D01*
X179148176Y-108956205D01*
X179144252Y-108960634D01*
X178960634Y-109144252D01*
X178956205Y-109148176D01*
X178751791Y-109308324D01*
X178746922Y-109311685D01*
X178524694Y-109446028D01*
X178519454Y-109448778D01*
X178282655Y-109555351D01*
X178277123Y-109557449D01*
X178029203Y-109634705D01*
X178023457Y-109636121D01*
X177768042Y-109682927D01*
X177762169Y-109683641D01*
X177501471Y-109699411D01*
X177498512Y-109699500D01*
X132501488Y-109699500D01*
X132498529Y-109699411D01*
X132237830Y-109683641D01*
X132231957Y-109682927D01*
X131976542Y-109636121D01*
X131970796Y-109634705D01*
X131722876Y-109557449D01*
X131717344Y-109555351D01*
X131480545Y-109448778D01*
X131475305Y-109446028D01*
X131253077Y-109311685D01*
X131248208Y-109308324D01*
X131043794Y-109148176D01*
X131039365Y-109144252D01*
X130855747Y-108960634D01*
X130851823Y-108956205D01*
X130691675Y-108751791D01*
X130688314Y-108746922D01*
X130553971Y-108524694D01*
X130551225Y-108519461D01*
X130444647Y-108282654D01*
X130442550Y-108277123D01*
X130365294Y-108029203D01*
X130363878Y-108023457D01*
X130317071Y-107768034D01*
X130316358Y-107762168D01*
X130300589Y-107501470D01*
X130300500Y-107498512D01*
X130300500Y-105295724D01*
X135599500Y-105295724D01*
X135599500Y-106704275D01*
X135602353Y-106734698D01*
X135602353Y-106734699D01*
X135647204Y-106862876D01*
X135647208Y-106862885D01*
X135727849Y-106972150D01*
X135837114Y-107052791D01*
X135837117Y-107052792D01*
X135837118Y-107052793D01*
X135837120Y-107052793D01*
X135837123Y-107052795D01*
X135965301Y-107097646D01*
X135995734Y-107100500D01*
X135995744Y-107100500D01*
X139004256Y-107100500D01*
X139004266Y-107100500D01*
X139034699Y-107097646D01*
X139162882Y-107052793D01*
X139272150Y-106972150D01*
X139352793Y-106862882D01*
X139397646Y-106734699D01*
X139400500Y-106704266D01*
X139400500Y-105570787D01*
X139414852Y-105536139D01*
X139436816Y-105523457D01*
X139463186Y-105516392D01*
X139577314Y-105450500D01*
X139670500Y-105357314D01*
X139706059Y-105295724D01*
X140599500Y-105295724D01*
X140599500Y-106704275D01*
X140602353Y-106734698D01*
X140602353Y-106734699D01*
X140647204Y-106862876D01*
X140647208Y-106862885D01*
X140727849Y-106972150D01*
X140837114Y-107052791D01*
X140837117Y-107052792D01*
X140837118Y-107052793D01*
X140837120Y-107052793D01*
X140837123Y-107052795D01*
X140965301Y-107097646D01*
X140995734Y-107100500D01*
X140995744Y-107100500D01*
X144004256Y-107100500D01*
X144004266Y-107100500D01*
X144034699Y-107097646D01*
X144162882Y-107052793D01*
X144272150Y-106972150D01*
X144352793Y-106862882D01*
X144397646Y-106734699D01*
X144400500Y-106704266D01*
X144400500Y-105445403D01*
X144414852Y-105410755D01*
X144424998Y-105402969D01*
X144481263Y-105370485D01*
X144560485Y-105291263D01*
X144616503Y-105194237D01*
X144645499Y-105086021D01*
X144645500Y-105086021D01*
X144645500Y-104973979D01*
X144645499Y-104973978D01*
X144630286Y-104917201D01*
X144616503Y-104865763D01*
X144616502Y-104865762D01*
X144616502Y-104865760D01*
X144560484Y-104768736D01*
X144481263Y-104689515D01*
X144384239Y-104633497D01*
X144384235Y-104633496D01*
X144276021Y-104604500D01*
X144276018Y-104604500D01*
X144163982Y-104604500D01*
X144163979Y-104604500D01*
X144055764Y-104633496D01*
X144055760Y-104633497D01*
X143958736Y-104689515D01*
X143958736Y-104689516D01*
X143879516Y-104768736D01*
X143879515Y-104768736D01*
X143823497Y-104865760D01*
X143822268Y-104868730D01*
X143820497Y-104867996D01*
X143801348Y-104892941D01*
X143776858Y-104899500D01*
X140995724Y-104899500D01*
X140965301Y-104902353D01*
X140965300Y-104902353D01*
X140837123Y-104947204D01*
X140837114Y-104947208D01*
X140727849Y-105027849D01*
X140647208Y-105137114D01*
X140647204Y-105137123D01*
X140602353Y-105265300D01*
X140602353Y-105265301D01*
X140599500Y-105295724D01*
X139706059Y-105295724D01*
X139736392Y-105243186D01*
X139770499Y-105115895D01*
X139770500Y-105115895D01*
X139770500Y-104984105D01*
X139770499Y-104984104D01*
X139760613Y-104947208D01*
X139736392Y-104856814D01*
X139736391Y-104856813D01*
X139736391Y-104856811D01*
X139694617Y-104784457D01*
X139670500Y-104742686D01*
X139577314Y-104649500D01*
X139463188Y-104583608D01*
X139463184Y-104583607D01*
X139335895Y-104549500D01*
X139335892Y-104549500D01*
X139204108Y-104549500D01*
X139204105Y-104549500D01*
X139076815Y-104583607D01*
X139076811Y-104583608D01*
X138962685Y-104649500D01*
X138962685Y-104649501D01*
X138869501Y-104742685D01*
X138869500Y-104742685D01*
X138803608Y-104856811D01*
X138803607Y-104856815D01*
X138801901Y-104863183D01*
X138779070Y-104892936D01*
X138754571Y-104899500D01*
X135995724Y-104899500D01*
X135965301Y-104902353D01*
X135965300Y-104902353D01*
X135837123Y-104947204D01*
X135837114Y-104947208D01*
X135727849Y-105027849D01*
X135647208Y-105137114D01*
X135647204Y-105137123D01*
X135602353Y-105265300D01*
X135602353Y-105265301D01*
X135599500Y-105295724D01*
X130300500Y-105295724D01*
X130300500Y-93060436D01*
X133649500Y-93060436D01*
X133649500Y-99869563D01*
X133669978Y-99945987D01*
X133669979Y-99945991D01*
X133681240Y-99965495D01*
X133681245Y-99965501D01*
X133709537Y-100014507D01*
X133709542Y-100014513D01*
X135065148Y-101370119D01*
X135079500Y-101404767D01*
X135079500Y-101654312D01*
X135079499Y-101654312D01*
X135080628Y-101662885D01*
X135085932Y-101703173D01*
X135096338Y-101725488D01*
X135135935Y-101810404D01*
X135135936Y-101810406D01*
X135219593Y-101894063D01*
X135219595Y-101894064D01*
X135219596Y-101894065D01*
X135324562Y-101943012D01*
X135330093Y-101945591D01*
X135355430Y-101973241D01*
X135353794Y-102010708D01*
X135330093Y-102034409D01*
X135219595Y-102085935D01*
X135219593Y-102085936D01*
X135135936Y-102169593D01*
X135135935Y-102169595D01*
X135085933Y-102276824D01*
X135085932Y-102276825D01*
X135079500Y-102325687D01*
X135079500Y-102674312D01*
X135079499Y-102674312D01*
X135085932Y-102723174D01*
X135085933Y-102723175D01*
X135135935Y-102830404D01*
X135135936Y-102830406D01*
X135219593Y-102914063D01*
X135219595Y-102914064D01*
X135219596Y-102914065D01*
X135326827Y-102964068D01*
X135375684Y-102970500D01*
X135375687Y-102970500D01*
X135824312Y-102970500D01*
X135824316Y-102970500D01*
X135873173Y-102964068D01*
X135980404Y-102914065D01*
X136064065Y-102830404D01*
X136064068Y-102830395D01*
X136066012Y-102827622D01*
X136097642Y-102807472D01*
X136134256Y-102815588D01*
X136146290Y-102827622D01*
X136146778Y-102828319D01*
X136231681Y-102913222D01*
X136231683Y-102913223D01*
X136231684Y-102913224D01*
X136340513Y-102963972D01*
X136390099Y-102970500D01*
X136809900Y-102970499D01*
X136859487Y-102963972D01*
X136882619Y-102953184D01*
X136920086Y-102951549D01*
X136937975Y-102962946D01*
X137559540Y-103584511D01*
X137615489Y-103640460D01*
X137684011Y-103680021D01*
X137719478Y-103689524D01*
X137760436Y-103700500D01*
X137760438Y-103700500D01*
X146572390Y-103700500D01*
X146607038Y-103714852D01*
X146692686Y-103800500D01*
X146734457Y-103824617D01*
X146806811Y-103866391D01*
X146806813Y-103866391D01*
X146806814Y-103866392D01*
X146907207Y-103893292D01*
X146934104Y-103900499D01*
X146934105Y-103900500D01*
X146934108Y-103900500D01*
X147065895Y-103900500D01*
X147065895Y-103900499D01*
X147193186Y-103866392D01*
X147307314Y-103800500D01*
X147400500Y-103707314D01*
X147466392Y-103593186D01*
X147500499Y-103465895D01*
X147500500Y-103465895D01*
X147500500Y-103334105D01*
X147500499Y-103334104D01*
X147466392Y-103206815D01*
X147466391Y-103206811D01*
X147400499Y-103092685D01*
X147307314Y-102999500D01*
X147193188Y-102933608D01*
X147193184Y-102933607D01*
X147065895Y-102899500D01*
X147065892Y-102899500D01*
X146934108Y-102899500D01*
X146934105Y-102899500D01*
X146806815Y-102933607D01*
X146806811Y-102933608D01*
X146692685Y-102999500D01*
X146692685Y-102999501D01*
X146607038Y-103085148D01*
X146572390Y-103099500D01*
X137944767Y-103099500D01*
X137910119Y-103085148D01*
X137118536Y-102293565D01*
X137104603Y-102265309D01*
X137103972Y-102260513D01*
X137103971Y-102260511D01*
X137103971Y-102260509D01*
X137072583Y-102193200D01*
X137053224Y-102151684D01*
X137053223Y-102151683D01*
X137053222Y-102151681D01*
X136968318Y-102066777D01*
X136968316Y-102066776D01*
X136859489Y-102016029D01*
X136859488Y-102016028D01*
X136849569Y-102014722D01*
X136809901Y-102009500D01*
X136809897Y-102009500D01*
X136390103Y-102009500D01*
X136390098Y-102009501D01*
X136340512Y-102016027D01*
X136231683Y-102066776D01*
X136231681Y-102066777D01*
X136146775Y-102151683D01*
X136144348Y-102156889D01*
X136116695Y-102182223D01*
X136079228Y-102180583D01*
X136065293Y-102170824D01*
X135980406Y-102085936D01*
X135980404Y-102085935D01*
X135873173Y-102035932D01*
X135873171Y-102035931D01*
X135869906Y-102034409D01*
X135844569Y-102006759D01*
X135846205Y-101969292D01*
X135869906Y-101945591D01*
X135873171Y-101944068D01*
X135873173Y-101944068D01*
X135980404Y-101894065D01*
X136064065Y-101810404D01*
X136114068Y-101703173D01*
X136120500Y-101654316D01*
X136120500Y-101305684D01*
X136114068Y-101256827D01*
X136064065Y-101149596D01*
X136064064Y-101149595D01*
X136064063Y-101149593D01*
X135980406Y-101065936D01*
X135980404Y-101065935D01*
X135873175Y-101015933D01*
X135873174Y-101015932D01*
X135863401Y-101014645D01*
X135824316Y-101009500D01*
X135824312Y-101009500D01*
X135574767Y-101009500D01*
X135540119Y-100995148D01*
X134264852Y-99719881D01*
X134250500Y-99685233D01*
X134250500Y-98895514D01*
X134264852Y-98860866D01*
X134299500Y-98846514D01*
X134309060Y-98847456D01*
X134349500Y-98855500D01*
X138081874Y-98855500D01*
X138093558Y-98853407D01*
X138170514Y-98839631D01*
X138202403Y-98827835D01*
X138280039Y-98782194D01*
X138880753Y-98267295D01*
X138912642Y-98255500D01*
X139589595Y-98255500D01*
X139589601Y-98255500D01*
X139642637Y-98249935D01*
X139662538Y-98245712D01*
X139662539Y-98245711D01*
X139662542Y-98245711D01*
X139680531Y-98239875D01*
X139713271Y-98229256D01*
X140195797Y-98014797D01*
X140233288Y-98013841D01*
X140260475Y-98039674D01*
X140264639Y-98061974D01*
X140264500Y-98064792D01*
X140264500Y-99257055D01*
X140264491Y-99257997D01*
X140248559Y-100086371D01*
X140249333Y-100111723D01*
X140249334Y-100111749D01*
X140250113Y-100121438D01*
X140253396Y-100146566D01*
X140253405Y-100146626D01*
X140264867Y-100209777D01*
X140264869Y-100209786D01*
X140278822Y-100258509D01*
X140278829Y-100258531D01*
X140285969Y-100276496D01*
X140301506Y-100306510D01*
X140309275Y-100321519D01*
X140309279Y-100321526D01*
X140341590Y-100371164D01*
X140341593Y-100371168D01*
X140341594Y-100371169D01*
X140373324Y-100410698D01*
X140386871Y-100424509D01*
X140425793Y-100457005D01*
X140474815Y-100490275D01*
X140519394Y-100514447D01*
X140537233Y-100521936D01*
X140585684Y-100536824D01*
X140606441Y-100541004D01*
X140648616Y-100549500D01*
X140648624Y-100549501D01*
X140648643Y-100549505D01*
X140673734Y-100553273D01*
X140683409Y-100554238D01*
X140708751Y-100555499D01*
X140708756Y-100555500D01*
X140708767Y-100555500D01*
X145095159Y-100555500D01*
X145095177Y-100555500D01*
X145120239Y-100554268D01*
X145129796Y-100553326D01*
X145154581Y-100549648D01*
X145216823Y-100537267D01*
X145264749Y-100522729D01*
X145282412Y-100515413D01*
X145326585Y-100491803D01*
X145375263Y-100459278D01*
X145413983Y-100427502D01*
X145427502Y-100413983D01*
X145459278Y-100375263D01*
X145491803Y-100326585D01*
X145515413Y-100282412D01*
X145522729Y-100264749D01*
X145537267Y-100216824D01*
X145544606Y-100179925D01*
X145546746Y-100172389D01*
X145569091Y-100112483D01*
X145570693Y-100097580D01*
X145575500Y-100052879D01*
X145575500Y-99989500D01*
X145589852Y-99954852D01*
X145624500Y-99940500D01*
X145735098Y-99940500D01*
X145753849Y-99944229D01*
X145805200Y-99965500D01*
X145850500Y-99965500D01*
X145885148Y-99979852D01*
X145899500Y-100014500D01*
X145899500Y-101504275D01*
X145902353Y-101534698D01*
X145902353Y-101534699D01*
X145947204Y-101662876D01*
X145947208Y-101662885D01*
X146027849Y-101772150D01*
X146137114Y-101852791D01*
X146137117Y-101852792D01*
X146137118Y-101852793D01*
X146137120Y-101852793D01*
X146137123Y-101852795D01*
X146255061Y-101894063D01*
X146265301Y-101897646D01*
X146295734Y-101900500D01*
X146295744Y-101900500D01*
X147704256Y-101900500D01*
X147704266Y-101900500D01*
X147734699Y-101897646D01*
X147862882Y-101852793D01*
X147920318Y-101810404D01*
X147972150Y-101772150D01*
X148052791Y-101662885D01*
X148052791Y-101662884D01*
X148052793Y-101662882D01*
X148097646Y-101534699D01*
X148100500Y-101504266D01*
X148100500Y-98790458D01*
X148114852Y-98755810D01*
X148124995Y-98748026D01*
X148207314Y-98700500D01*
X148300500Y-98607314D01*
X148366392Y-98493186D01*
X148400499Y-98365895D01*
X148400500Y-98365895D01*
X148400500Y-98234105D01*
X148400499Y-98234104D01*
X148387381Y-98185148D01*
X148366392Y-98106814D01*
X148366391Y-98106813D01*
X148366391Y-98106811D01*
X148311157Y-98011145D01*
X148300500Y-97992686D01*
X148207314Y-97899500D01*
X148093188Y-97833608D01*
X148093184Y-97833607D01*
X147965895Y-97799500D01*
X147965892Y-97799500D01*
X147834108Y-97799500D01*
X147834105Y-97799500D01*
X147706815Y-97833607D01*
X147706811Y-97833608D01*
X147592685Y-97899500D01*
X147592685Y-97899501D01*
X147499501Y-97992685D01*
X147499500Y-97992685D01*
X147451976Y-98075000D01*
X147422223Y-98097830D01*
X147409541Y-98099500D01*
X146295724Y-98099500D01*
X146265301Y-98102353D01*
X146265300Y-98102353D01*
X146137123Y-98147204D01*
X146137114Y-98147208D01*
X146027849Y-98227849D01*
X145947208Y-98337114D01*
X145947204Y-98337123D01*
X145902353Y-98465300D01*
X145902353Y-98465301D01*
X145899500Y-98495724D01*
X145899500Y-99365500D01*
X145885148Y-99400148D01*
X145850500Y-99414500D01*
X145805198Y-99414500D01*
X145753850Y-99435770D01*
X145735098Y-99439500D01*
X145624499Y-99439500D01*
X145589851Y-99425148D01*
X145575499Y-99390500D01*
X145575499Y-99332120D01*
X145569092Y-99272521D01*
X145569089Y-99272512D01*
X145540357Y-99195477D01*
X145538210Y-99187916D01*
X145537267Y-99183175D01*
X145522729Y-99135250D01*
X145515413Y-99117587D01*
X145491801Y-99073412D01*
X145459274Y-99024732D01*
X145459271Y-99024728D01*
X145459268Y-99024724D01*
X145427506Y-98986020D01*
X145427495Y-98986008D01*
X145413990Y-98972503D01*
X145413987Y-98972501D01*
X145413985Y-98972499D01*
X145375269Y-98940726D01*
X145326590Y-98908199D01*
X145326589Y-98908198D01*
X145326584Y-98908195D01*
X145282403Y-98884582D01*
X145264738Y-98877266D01*
X145264735Y-98877265D01*
X145264730Y-98877263D01*
X145232165Y-98867385D01*
X145216820Y-98862731D01*
X145216805Y-98862728D01*
X145216793Y-98862725D01*
X145154623Y-98850358D01*
X145154565Y-98850348D01*
X145129810Y-98846675D01*
X145120244Y-98845733D01*
X145120239Y-98845732D01*
X145106313Y-98845047D01*
X145095177Y-98844500D01*
X145095173Y-98844500D01*
X142504500Y-98844500D01*
X142469852Y-98830148D01*
X142455500Y-98795500D01*
X142455500Y-98324499D01*
X142469852Y-98289851D01*
X142504497Y-98275499D01*
X142750232Y-98275499D01*
X142784880Y-98289851D01*
X142934540Y-98439511D01*
X142990489Y-98495460D01*
X142990964Y-98495734D01*
X143056563Y-98533608D01*
X143059011Y-98535021D01*
X143094478Y-98544524D01*
X143135436Y-98555500D01*
X143135438Y-98555500D01*
X143214562Y-98555500D01*
X144323456Y-98555500D01*
X144358104Y-98569852D01*
X144383737Y-98595485D01*
X144404227Y-98607315D01*
X144480760Y-98651502D01*
X144480762Y-98651502D01*
X144480763Y-98651503D01*
X144566111Y-98674371D01*
X144588978Y-98680499D01*
X144588979Y-98680500D01*
X144588982Y-98680500D01*
X144701021Y-98680500D01*
X144701021Y-98680499D01*
X144809237Y-98651503D01*
X144906263Y-98595485D01*
X144985485Y-98516263D01*
X145041503Y-98419237D01*
X145070499Y-98311021D01*
X145070500Y-98311021D01*
X145070500Y-98198979D01*
X145070499Y-98198978D01*
X145044609Y-98102354D01*
X145041503Y-98090763D01*
X145041502Y-98090762D01*
X145041502Y-98090760D01*
X145004091Y-98025964D01*
X144985485Y-97993737D01*
X144906263Y-97914515D01*
X144890649Y-97905500D01*
X144809239Y-97858497D01*
X144809235Y-97858496D01*
X144701021Y-97829500D01*
X144701018Y-97829500D01*
X144588982Y-97829500D01*
X144588979Y-97829500D01*
X144480764Y-97858496D01*
X144480760Y-97858497D01*
X144383736Y-97914515D01*
X144383736Y-97914516D01*
X144358104Y-97940148D01*
X144323456Y-97954500D01*
X143426059Y-97954500D01*
X143391411Y-97940148D01*
X143377059Y-97905500D01*
X143391411Y-97870852D01*
X143413377Y-97858170D01*
X143463399Y-97844766D01*
X143494237Y-97836503D01*
X143591263Y-97780485D01*
X143670485Y-97701263D01*
X143726503Y-97604237D01*
X143755499Y-97496021D01*
X143755500Y-97496021D01*
X143755500Y-97383979D01*
X143755499Y-97383978D01*
X143733131Y-97300499D01*
X143726503Y-97275763D01*
X143726502Y-97275762D01*
X143726502Y-97275760D01*
X143683049Y-97200499D01*
X143670485Y-97178737D01*
X143591263Y-97099515D01*
X143549618Y-97075471D01*
X143494239Y-97043497D01*
X143494235Y-97043496D01*
X143384753Y-97014160D01*
X143355000Y-96991330D01*
X143350105Y-96954148D01*
X143362785Y-96932184D01*
X143610460Y-96684510D01*
X143650022Y-96615987D01*
X143670499Y-96539564D01*
X143670500Y-96539564D01*
X143670500Y-96400170D01*
X145249500Y-96400170D01*
X145249500Y-96499829D01*
X145263492Y-96533607D01*
X145287636Y-96591897D01*
X145287637Y-96591898D01*
X145287638Y-96591900D01*
X145358100Y-96662362D01*
X145358101Y-96662362D01*
X145358103Y-96662364D01*
X145450172Y-96700500D01*
X145725098Y-96700500D01*
X145743849Y-96704229D01*
X145795200Y-96725500D01*
X145899359Y-96725500D01*
X145934007Y-96739852D01*
X145945610Y-96758317D01*
X145947207Y-96762881D01*
X145947208Y-96762884D01*
X146027849Y-96872150D01*
X146137114Y-96952791D01*
X146137117Y-96952792D01*
X146137118Y-96952793D01*
X146137120Y-96952793D01*
X146137123Y-96952795D01*
X146140990Y-96954148D01*
X146265301Y-96997646D01*
X146295734Y-97000500D01*
X147309541Y-97000500D01*
X147344189Y-97014852D01*
X147351976Y-97025000D01*
X147399500Y-97107314D01*
X147492686Y-97200500D01*
X147534457Y-97224617D01*
X147606811Y-97266391D01*
X147606813Y-97266391D01*
X147606814Y-97266392D01*
X147694272Y-97289826D01*
X147734104Y-97300499D01*
X147734105Y-97300500D01*
X147734108Y-97300500D01*
X147865895Y-97300500D01*
X147865895Y-97300499D01*
X147993186Y-97266392D01*
X148107314Y-97200500D01*
X148200500Y-97107314D01*
X148266392Y-96993186D01*
X148300499Y-96865895D01*
X148300500Y-96865895D01*
X148300500Y-96734105D01*
X148300499Y-96734104D01*
X148275252Y-96639881D01*
X148266392Y-96606814D01*
X148266391Y-96606813D01*
X148266391Y-96606811D01*
X148222514Y-96530816D01*
X148200500Y-96492686D01*
X148114852Y-96407038D01*
X148100500Y-96372390D01*
X148100500Y-93595743D01*
X148100499Y-93595724D01*
X148097646Y-93565301D01*
X148097646Y-93565300D01*
X148052795Y-93437123D01*
X148052791Y-93437114D01*
X147972150Y-93327849D01*
X147862885Y-93247208D01*
X147862876Y-93247204D01*
X147734698Y-93202353D01*
X147704275Y-93199500D01*
X147704266Y-93199500D01*
X146295734Y-93199500D01*
X146295724Y-93199500D01*
X146265301Y-93202353D01*
X146265300Y-93202353D01*
X146137123Y-93247204D01*
X146137114Y-93247208D01*
X146027849Y-93327849D01*
X145947208Y-93437114D01*
X145947204Y-93437123D01*
X145902353Y-93565300D01*
X145902353Y-93565301D01*
X145899500Y-93595724D01*
X145899500Y-96125500D01*
X145885148Y-96160148D01*
X145850500Y-96174500D01*
X145795198Y-96174500D01*
X145743850Y-96195770D01*
X145725098Y-96199500D01*
X145450170Y-96199500D01*
X145358101Y-96237637D01*
X145287637Y-96308101D01*
X145287636Y-96308102D01*
X145287636Y-96308103D01*
X145281093Y-96323898D01*
X145249500Y-96400170D01*
X143670500Y-96400170D01*
X143670500Y-96126751D01*
X143684852Y-96092103D01*
X143876363Y-95900592D01*
X144074159Y-95702796D01*
X144110125Y-95640500D01*
X144113720Y-95634274D01*
X144134199Y-95557847D01*
X144134199Y-95012431D01*
X144148551Y-94977783D01*
X144183199Y-94963431D01*
X144190853Y-94964033D01*
X144263254Y-94975500D01*
X144263256Y-94975500D01*
X144766745Y-94975500D01*
X144766746Y-94975500D01*
X144864920Y-94959951D01*
X144945902Y-94918688D01*
X144983246Y-94899661D01*
X144983247Y-94899659D01*
X144983251Y-94899658D01*
X145068057Y-94814852D01*
X145102705Y-94800500D01*
X145215895Y-94800500D01*
X145215895Y-94800499D01*
X145343186Y-94766392D01*
X145457314Y-94700500D01*
X145550500Y-94607314D01*
X145616392Y-94493186D01*
X145650499Y-94365895D01*
X145650500Y-94365895D01*
X145650500Y-94234105D01*
X145650499Y-94234104D01*
X145636069Y-94180252D01*
X145616392Y-94106814D01*
X145616391Y-94106813D01*
X145616391Y-94106811D01*
X145550499Y-93992685D01*
X145457314Y-93899500D01*
X145343188Y-93833608D01*
X145343184Y-93833607D01*
X145215895Y-93799500D01*
X145215892Y-93799500D01*
X145102706Y-93799500D01*
X145068058Y-93785148D01*
X144983252Y-93700343D01*
X144983246Y-93700338D01*
X144949529Y-93683159D01*
X144925173Y-93654642D01*
X144928116Y-93617254D01*
X144956633Y-93592898D01*
X144971775Y-93590500D01*
X145005895Y-93590500D01*
X145005895Y-93590499D01*
X145133186Y-93556392D01*
X145247314Y-93490500D01*
X145340500Y-93397314D01*
X145406392Y-93283186D01*
X145440499Y-93155895D01*
X145440500Y-93155895D01*
X145440500Y-93024105D01*
X145440499Y-93024104D01*
X145419183Y-92944552D01*
X145406392Y-92896814D01*
X145406391Y-92896813D01*
X145406391Y-92896811D01*
X145361898Y-92819748D01*
X145340500Y-92782686D01*
X145247314Y-92689500D01*
X145133188Y-92623608D01*
X145133184Y-92623607D01*
X145005895Y-92589500D01*
X145005892Y-92589500D01*
X144874108Y-92589500D01*
X144874107Y-92589500D01*
X144833007Y-92600511D01*
X144799619Y-92597589D01*
X144753173Y-92575931D01*
X144714497Y-92570840D01*
X144704316Y-92569500D01*
X144355684Y-92569500D01*
X144323112Y-92573788D01*
X144306825Y-92575932D01*
X144306824Y-92575933D01*
X144199595Y-92625935D01*
X144199593Y-92625936D01*
X144126519Y-92699010D01*
X144091871Y-92713362D01*
X144057223Y-92699010D01*
X144042871Y-92664362D01*
X144042877Y-92663643D01*
X144050501Y-92203687D01*
X144065425Y-92169282D01*
X144099494Y-92155500D01*
X147895159Y-92155500D01*
X147895177Y-92155500D01*
X147920239Y-92154268D01*
X147929796Y-92153326D01*
X147954581Y-92149648D01*
X148016823Y-92137267D01*
X148064749Y-92122729D01*
X148082412Y-92115413D01*
X148126585Y-92091803D01*
X148175263Y-92059278D01*
X148213983Y-92027502D01*
X148227502Y-92013983D01*
X148259278Y-91975263D01*
X148291803Y-91926585D01*
X148315413Y-91882412D01*
X148322729Y-91864749D01*
X148337267Y-91816824D01*
X148337269Y-91816810D01*
X148337272Y-91816802D01*
X148349640Y-91754624D01*
X148349648Y-91754584D01*
X148353327Y-91729791D01*
X148354269Y-91720231D01*
X148355500Y-91695176D01*
X148355500Y-88304823D01*
X148354269Y-88279768D01*
X148353327Y-88270208D01*
X148349648Y-88245415D01*
X148349594Y-88245145D01*
X148337272Y-88183196D01*
X148337268Y-88183184D01*
X148337267Y-88183175D01*
X148322729Y-88135250D01*
X148315413Y-88117587D01*
X148291801Y-88073412D01*
X148259274Y-88024732D01*
X148259271Y-88024728D01*
X148259268Y-88024724D01*
X148227506Y-87986020D01*
X148227495Y-87986008D01*
X148213990Y-87972503D01*
X148213987Y-87972501D01*
X148202639Y-87963188D01*
X148175269Y-87940726D01*
X148126590Y-87908199D01*
X148126589Y-87908198D01*
X148126584Y-87908195D01*
X148082403Y-87884582D01*
X148064738Y-87877266D01*
X148064735Y-87877265D01*
X148064730Y-87877263D01*
X148032165Y-87867385D01*
X148016820Y-87862731D01*
X148016805Y-87862728D01*
X148016793Y-87862725D01*
X147954623Y-87850358D01*
X147954565Y-87850348D01*
X147929810Y-87846675D01*
X147920244Y-87845733D01*
X147920239Y-87845732D01*
X147906313Y-87845047D01*
X147895177Y-87844500D01*
X147895173Y-87844500D01*
X144097999Y-87844500D01*
X144063351Y-87830148D01*
X144049010Y-87796557D01*
X144048362Y-87766529D01*
X144029801Y-86906530D01*
X144026965Y-86873689D01*
X144025071Y-86861215D01*
X144018032Y-86829015D01*
X143995158Y-86749401D01*
X143968998Y-86689030D01*
X143968900Y-86688866D01*
X143957642Y-86670000D01*
X143956175Y-86667541D01*
X143915474Y-86615861D01*
X143915466Y-86615853D01*
X143860984Y-86562533D01*
X143860977Y-86562528D01*
X143854273Y-86557479D01*
X143808431Y-86522952D01*
X143808432Y-86522952D01*
X143808426Y-86522948D01*
X143808423Y-86522946D01*
X143786676Y-86510599D01*
X143786673Y-86510597D01*
X143755480Y-86497873D01*
X143725751Y-86485746D01*
X143725749Y-86485745D01*
X143725748Y-86485745D01*
X143645655Y-86464593D01*
X143613301Y-86458248D01*
X143600787Y-86456624D01*
X143567907Y-86454500D01*
X141174823Y-86454500D01*
X141174795Y-86454500D01*
X141149825Y-86455725D01*
X141140270Y-86456665D01*
X141115428Y-86460348D01*
X141115425Y-86460348D01*
X141053191Y-86472728D01*
X141053165Y-86472734D01*
X141005246Y-86487270D01*
X141005237Y-86487273D01*
X140987589Y-86494583D01*
X140943410Y-86518198D01*
X140894730Y-86550725D01*
X140894718Y-86550733D01*
X140856014Y-86582497D01*
X140855999Y-86582511D01*
X140842505Y-86596005D01*
X140842494Y-86596017D01*
X140810732Y-86634721D01*
X140810725Y-86634731D01*
X140778194Y-86683417D01*
X140754598Y-86727559D01*
X140754591Y-86727574D01*
X140747280Y-86745220D01*
X140732730Y-86793179D01*
X140732729Y-86793184D01*
X140720348Y-86855425D01*
X140720348Y-86855428D01*
X140716665Y-86880270D01*
X140715725Y-86889825D01*
X140714500Y-86914795D01*
X140714500Y-93458211D01*
X140700148Y-93492859D01*
X140665500Y-93507211D01*
X140634131Y-93495854D01*
X140273131Y-93195021D01*
X140255701Y-93161814D01*
X140255500Y-93157378D01*
X140255500Y-86625231D01*
X140269677Y-86590758D01*
X140418902Y-86440024D01*
X140453478Y-86425500D01*
X140453724Y-86425499D01*
X140620490Y-86425499D01*
X140677110Y-86419413D01*
X140677112Y-86419412D01*
X140677114Y-86419412D01*
X140805226Y-86371628D01*
X140914687Y-86289687D01*
X140996628Y-86180226D01*
X141044412Y-86052114D01*
X141050500Y-85995485D01*
X141050499Y-85822199D01*
X141064676Y-85787727D01*
X141407701Y-85441239D01*
X141441414Y-85399080D01*
X141458610Y-85372173D01*
X141460666Y-85369205D01*
X141513616Y-85298473D01*
X141523475Y-85288613D01*
X141597885Y-85232912D01*
X141597884Y-85232911D01*
X141606388Y-85226546D01*
X141609134Y-85224633D01*
X141621907Y-85216379D01*
X141664792Y-85181551D01*
X141830875Y-85013788D01*
X141843449Y-85004604D01*
X141872391Y-84989859D01*
X141959859Y-84902391D01*
X141976221Y-84870276D01*
X141985055Y-84858051D01*
X142075192Y-84767006D01*
X142092973Y-84747059D01*
X142109167Y-84726858D01*
X142120080Y-84705932D01*
X142154963Y-84639038D01*
X142154963Y-84639037D01*
X142154965Y-84639034D01*
X142174650Y-84571995D01*
X142185000Y-84500010D01*
X142185000Y-84323231D01*
X142185603Y-84315566D01*
X142185841Y-84314067D01*
X142190002Y-84287794D01*
X142194105Y-84261887D01*
X142213701Y-84229910D01*
X142242502Y-84220552D01*
X142678608Y-84220552D01*
X142695567Y-84223580D01*
X142726319Y-84234926D01*
X142782613Y-84248441D01*
X142782616Y-84248441D01*
X142782619Y-84248442D01*
X142812435Y-84251970D01*
X142842258Y-84255500D01*
X142842259Y-84255500D01*
X143076008Y-84255500D01*
X143108321Y-84253188D01*
X143112362Y-84252899D01*
X143147263Y-84247881D01*
X143147269Y-84247880D01*
X143147297Y-84247876D01*
X143156324Y-84246413D01*
X143166382Y-84242453D01*
X143168819Y-84241570D01*
X143171307Y-84240741D01*
X143181812Y-84238457D01*
X143208201Y-84231218D01*
X143219849Y-84224584D01*
X143224429Y-84223060D01*
X143229155Y-84223398D01*
X143239904Y-84220552D01*
X143244674Y-84220552D01*
X143317740Y-84206018D01*
X143400601Y-84150653D01*
X143455966Y-84067792D01*
X143470500Y-83994726D01*
X143470500Y-83350304D01*
X144219500Y-83350304D01*
X144219500Y-83989800D01*
X144231133Y-84048283D01*
X144244168Y-84067791D01*
X144275447Y-84114604D01*
X144302012Y-84132353D01*
X144341769Y-84158919D01*
X144400252Y-84170552D01*
X144400255Y-84170552D01*
X145439745Y-84170552D01*
X145439748Y-84170552D01*
X145498231Y-84158919D01*
X145564552Y-84114604D01*
X145608867Y-84048283D01*
X145620500Y-83989800D01*
X145620500Y-83350304D01*
X145608867Y-83291821D01*
X145579741Y-83248231D01*
X145564552Y-83225499D01*
X145511046Y-83189748D01*
X145498231Y-83181185D01*
X145439748Y-83169552D01*
X144400252Y-83169552D01*
X144345685Y-83180406D01*
X144341769Y-83181185D01*
X144275447Y-83225499D01*
X144231133Y-83291821D01*
X144219500Y-83350304D01*
X143470500Y-83350304D01*
X143470500Y-83345378D01*
X143455966Y-83272312D01*
X143402608Y-83192454D01*
X143400604Y-83189455D01*
X143400603Y-83189454D01*
X143400601Y-83189451D01*
X143389890Y-83182294D01*
X143380087Y-83173645D01*
X143347376Y-83135895D01*
X143336145Y-83122933D01*
X143336133Y-83122920D01*
X143303358Y-83091294D01*
X143235708Y-83055907D01*
X143215024Y-83045087D01*
X143215021Y-83045086D01*
X143215019Y-83045085D01*
X143147983Y-83025401D01*
X143076004Y-83015052D01*
X143076000Y-83015052D01*
X142274000Y-83015052D01*
X142239352Y-83000700D01*
X142225000Y-82966052D01*
X142225000Y-82474052D01*
X142239352Y-82439404D01*
X142274000Y-82425052D01*
X143076006Y-82425052D01*
X143106455Y-82421777D01*
X143130313Y-82419213D01*
X143181824Y-82408007D01*
X143208198Y-82400771D01*
X143294828Y-82351440D01*
X143347632Y-82305685D01*
X143379257Y-82272911D01*
X143379888Y-82271703D01*
X143381101Y-82270352D01*
X143381307Y-82270068D01*
X143381337Y-82270090D01*
X143396087Y-82253668D01*
X143400601Y-82250653D01*
X143455966Y-82167792D01*
X143470500Y-82094726D01*
X143470500Y-82046610D01*
X143484852Y-82011962D01*
X143519500Y-81997610D01*
X143554148Y-82011962D01*
X143642686Y-82100500D01*
X143756814Y-82166392D01*
X143796789Y-82177102D01*
X143811330Y-82183692D01*
X143821180Y-82190274D01*
X143821185Y-82190277D01*
X143821187Y-82190278D01*
X143821190Y-82190280D01*
X143856721Y-82209271D01*
X143870096Y-82214810D01*
X143874381Y-82216586D01*
X143874383Y-82216586D01*
X143874384Y-82216587D01*
X143912931Y-82228280D01*
X143975173Y-82240661D01*
X143995109Y-82243619D01*
X144004667Y-82244561D01*
X144024823Y-82245552D01*
X144306900Y-82245552D01*
X144334122Y-82253810D01*
X144341767Y-82258918D01*
X144341769Y-82258919D01*
X144400252Y-82270552D01*
X144400255Y-82270552D01*
X145439745Y-82270552D01*
X145439748Y-82270552D01*
X145498231Y-82258919D01*
X145564552Y-82214604D01*
X145608867Y-82148283D01*
X145620500Y-82089800D01*
X145620500Y-81889233D01*
X145621031Y-81882041D01*
X145623565Y-81864963D01*
X145623567Y-81864946D01*
X145623568Y-81864939D01*
X145624510Y-81855379D01*
X145625500Y-81835228D01*
X145625500Y-80477141D01*
X145632064Y-80452642D01*
X145666392Y-80393186D01*
X145700499Y-80265895D01*
X145700500Y-80265895D01*
X145700500Y-80134105D01*
X145700499Y-80134104D01*
X145675069Y-80039198D01*
X145666392Y-80006814D01*
X145666391Y-80006813D01*
X145666391Y-80006811D01*
X145616624Y-79920613D01*
X145600500Y-79892686D01*
X145507314Y-79799500D01*
X145393188Y-79733608D01*
X145393184Y-79733607D01*
X145265895Y-79699500D01*
X145265892Y-79699500D01*
X145134108Y-79699500D01*
X145134105Y-79699500D01*
X145006815Y-79733607D01*
X145006811Y-79733608D01*
X144892685Y-79799500D01*
X144892685Y-79799501D01*
X144812038Y-79880148D01*
X144777390Y-79894500D01*
X144283247Y-79894500D01*
X144272898Y-79895805D01*
X144232232Y-79900933D01*
X144232224Y-79900934D01*
X144232224Y-79900935D01*
X144208655Y-79906976D01*
X144208653Y-79906976D01*
X144208648Y-79906978D01*
X144171095Y-79920613D01*
X144099409Y-79977416D01*
X144075941Y-80006656D01*
X144042445Y-80066818D01*
X144031926Y-80157667D01*
X144036010Y-80194950D01*
X144054860Y-80261153D01*
X144097666Y-80315175D01*
X144111658Y-80332833D01*
X144137855Y-80353859D01*
X144137855Y-80353858D01*
X144148218Y-80362176D01*
X144159547Y-80365381D01*
X144179242Y-80380690D01*
X144250797Y-80414056D01*
X144264736Y-80423817D01*
X144286178Y-80445259D01*
X144295938Y-80459197D01*
X144310407Y-80490222D01*
X144314999Y-80510932D01*
X144314999Y-80806891D01*
X144300647Y-80841539D01*
X144249501Y-80892685D01*
X144249500Y-80892685D01*
X144198801Y-80980499D01*
X144169048Y-81003329D01*
X144156366Y-81004999D01*
X143868993Y-81004999D01*
X143790353Y-81020642D01*
X143790344Y-81020645D01*
X143755710Y-81034993D01*
X143755693Y-81035002D01*
X143697419Y-81071619D01*
X143697417Y-81071620D01*
X143644496Y-81146205D01*
X143630144Y-81180852D01*
X143630142Y-81180858D01*
X143622944Y-81217047D01*
X143614500Y-81259499D01*
X143614500Y-81259502D01*
X143614500Y-81307390D01*
X143614224Y-81308055D01*
X143614482Y-81308730D01*
X143600148Y-81342038D01*
X143549498Y-81392688D01*
X143548038Y-81395217D01*
X143518281Y-81418042D01*
X143481100Y-81413141D01*
X143470751Y-81399649D01*
X143468917Y-81398830D01*
X143467717Y-81395694D01*
X143458275Y-81383384D01*
X143457548Y-81380265D01*
X143456441Y-81374697D01*
X143455500Y-81365142D01*
X143455500Y-77604500D01*
X143469852Y-77569852D01*
X143504500Y-77555500D01*
X146659233Y-77555500D01*
X146693881Y-77569852D01*
X146708233Y-77604500D01*
X146693881Y-77639148D01*
X146683733Y-77646935D01*
X146661984Y-77659491D01*
X146661984Y-77659492D01*
X146559492Y-77761984D01*
X146559491Y-77761984D01*
X146487016Y-77887512D01*
X146487016Y-77887514D01*
X146453342Y-78013183D01*
X146430512Y-78042936D01*
X146406012Y-78049500D01*
X146302120Y-78049500D01*
X146242521Y-78055907D01*
X146107666Y-78106205D01*
X145992454Y-78192454D01*
X145906205Y-78307666D01*
X145855907Y-78442520D01*
X145849500Y-78502120D01*
X145849500Y-81497879D01*
X145855907Y-81557478D01*
X145855909Y-81557483D01*
X145904909Y-81688860D01*
X145906205Y-81692333D01*
X145937821Y-81734566D01*
X145992454Y-81807546D01*
X146069153Y-81864963D01*
X146101573Y-81889233D01*
X146107669Y-81893796D01*
X146219454Y-81935489D01*
X146242520Y-81944092D01*
X146286177Y-81948785D01*
X146302127Y-81950500D01*
X147697872Y-81950499D01*
X147697878Y-81950499D01*
X147757478Y-81944092D01*
X147757479Y-81944091D01*
X147757483Y-81944091D01*
X147892331Y-81893796D01*
X148007546Y-81807546D01*
X148093796Y-81692331D01*
X148095090Y-81688858D01*
X148102303Y-81681111D01*
X148106354Y-81671332D01*
X148114577Y-81667925D01*
X148120643Y-81661410D01*
X148131221Y-81661031D01*
X148141002Y-81656980D01*
X148149225Y-81660386D01*
X148158122Y-81660068D01*
X148175650Y-81671332D01*
X148238884Y-81734566D01*
X148253236Y-81769214D01*
X148252724Y-81776276D01*
X148249500Y-81798411D01*
X148249500Y-82241583D01*
X148252026Y-82258918D01*
X148260418Y-82316518D01*
X148316924Y-82432102D01*
X148316925Y-82432103D01*
X148340174Y-82455352D01*
X148354526Y-82490000D01*
X148340174Y-82524648D01*
X148316925Y-82547896D01*
X148316923Y-82547900D01*
X148260418Y-82663481D01*
X148260418Y-82663482D01*
X148249500Y-82738416D01*
X148249500Y-83181585D01*
X148255268Y-83221176D01*
X148254352Y-83224792D01*
X148255780Y-83228240D01*
X148249858Y-83242534D01*
X148246061Y-83257531D01*
X148241428Y-83262888D01*
X148175650Y-83328666D01*
X148141002Y-83343018D01*
X148106354Y-83328666D01*
X148095092Y-83311143D01*
X148093796Y-83307669D01*
X148093795Y-83307667D01*
X148061149Y-83264058D01*
X148007546Y-83192454D01*
X147931989Y-83135892D01*
X147892333Y-83106205D01*
X147892331Y-83106204D01*
X147803776Y-83073175D01*
X147757479Y-83055907D01*
X147697879Y-83049500D01*
X147697873Y-83049500D01*
X147562288Y-83049500D01*
X147527640Y-83035148D01*
X147514958Y-83013182D01*
X147495937Y-82942196D01*
X147487984Y-82912515D01*
X147487983Y-82912514D01*
X147487983Y-82912512D01*
X147415508Y-82786984D01*
X147313015Y-82684491D01*
X147187487Y-82612016D01*
X147187483Y-82612015D01*
X147047478Y-82574500D01*
X147047475Y-82574500D01*
X146902525Y-82574500D01*
X146902522Y-82574500D01*
X146762516Y-82612015D01*
X146762512Y-82612016D01*
X146636984Y-82684491D01*
X146636984Y-82684492D01*
X146534492Y-82786984D01*
X146534491Y-82786984D01*
X146462016Y-82912512D01*
X146462015Y-82912516D01*
X146435041Y-83013183D01*
X146412211Y-83042935D01*
X146387712Y-83049500D01*
X146302120Y-83049500D01*
X146242521Y-83055907D01*
X146107666Y-83106205D01*
X145992454Y-83192454D01*
X145906205Y-83307666D01*
X145855907Y-83442520D01*
X145849500Y-83502120D01*
X145849500Y-86497879D01*
X145855907Y-86557478D01*
X145858657Y-86564852D01*
X145904971Y-86689026D01*
X145906205Y-86692333D01*
X145931018Y-86725478D01*
X145992454Y-86807546D01*
X146107669Y-86893796D01*
X146232082Y-86940199D01*
X146242520Y-86944092D01*
X146286177Y-86948785D01*
X146302127Y-86950500D01*
X147697872Y-86950499D01*
X147697878Y-86950499D01*
X147757478Y-86944092D01*
X147757479Y-86944091D01*
X147757483Y-86944091D01*
X147892331Y-86893796D01*
X148007546Y-86807546D01*
X148093796Y-86692331D01*
X148144091Y-86557483D01*
X148144091Y-86557481D01*
X148144092Y-86557479D01*
X148150499Y-86497879D01*
X148150500Y-86497873D01*
X148150499Y-84365476D01*
X148164850Y-84330830D01*
X148944852Y-83550829D01*
X148979500Y-83536477D01*
X149014148Y-83550829D01*
X149028500Y-83585477D01*
X149028500Y-104026233D01*
X149014148Y-104060881D01*
X148189881Y-104885148D01*
X148155233Y-104899500D01*
X145995724Y-104899500D01*
X145965301Y-104902353D01*
X145965300Y-104902353D01*
X145837123Y-104947204D01*
X145837114Y-104947208D01*
X145727849Y-105027849D01*
X145647208Y-105137114D01*
X145647204Y-105137123D01*
X145602353Y-105265300D01*
X145602353Y-105265301D01*
X145599500Y-105295724D01*
X145599500Y-106704275D01*
X145602353Y-106734698D01*
X145602353Y-106734699D01*
X145647204Y-106862876D01*
X145647208Y-106862885D01*
X145727849Y-106972150D01*
X145837114Y-107052791D01*
X145837117Y-107052792D01*
X145837118Y-107052793D01*
X145837120Y-107052793D01*
X145837123Y-107052795D01*
X145965301Y-107097646D01*
X145995734Y-107100500D01*
X145995744Y-107100500D01*
X149004256Y-107100500D01*
X149004266Y-107100500D01*
X149034699Y-107097646D01*
X149162882Y-107052793D01*
X149272150Y-106972150D01*
X149352793Y-106862882D01*
X149397646Y-106734699D01*
X149400500Y-106704266D01*
X149400500Y-105295734D01*
X149397646Y-105265301D01*
X149372780Y-105194239D01*
X149352795Y-105137123D01*
X149352791Y-105137114D01*
X149272150Y-105027849D01*
X149162885Y-104947208D01*
X149162878Y-104947205D01*
X149099354Y-104924977D01*
X149071391Y-104899987D01*
X149069288Y-104862543D01*
X149080888Y-104844081D01*
X149569460Y-104355511D01*
X149609022Y-104286988D01*
X149629499Y-104210565D01*
X149629500Y-104210565D01*
X149629500Y-83529500D01*
X149643852Y-83494852D01*
X149678500Y-83480500D01*
X149964312Y-83480500D01*
X149964316Y-83480500D01*
X150013173Y-83474068D01*
X150120404Y-83424065D01*
X150144969Y-83399500D01*
X150175352Y-83369118D01*
X150210000Y-83354766D01*
X150244648Y-83369118D01*
X150295148Y-83419618D01*
X150309500Y-83454266D01*
X150309500Y-104149563D01*
X150329978Y-104225987D01*
X150329979Y-104225991D01*
X150365197Y-104286988D01*
X150365198Y-104286989D01*
X150369542Y-104294514D01*
X150919108Y-104844079D01*
X150933460Y-104878727D01*
X150919108Y-104913375D01*
X150900644Y-104924977D01*
X150837121Y-104947204D01*
X150837114Y-104947208D01*
X150727849Y-105027849D01*
X150647208Y-105137114D01*
X150647204Y-105137123D01*
X150602353Y-105265300D01*
X150602353Y-105265301D01*
X150599500Y-105295724D01*
X150599500Y-106704275D01*
X150602353Y-106734698D01*
X150602353Y-106734699D01*
X150647204Y-106862876D01*
X150647208Y-106862885D01*
X150727849Y-106972150D01*
X150837114Y-107052791D01*
X150837117Y-107052792D01*
X150837118Y-107052793D01*
X150837120Y-107052793D01*
X150837123Y-107052795D01*
X150965301Y-107097646D01*
X150995734Y-107100500D01*
X150995744Y-107100500D01*
X154004256Y-107100500D01*
X154004266Y-107100500D01*
X154034699Y-107097646D01*
X154162882Y-107052793D01*
X154272150Y-106972150D01*
X154352793Y-106862882D01*
X154397646Y-106734699D01*
X154400500Y-106704266D01*
X154400500Y-105295734D01*
X154397646Y-105265301D01*
X154372780Y-105194239D01*
X154352795Y-105137123D01*
X154352791Y-105137114D01*
X154272150Y-105027849D01*
X154162885Y-104947208D01*
X154162876Y-104947204D01*
X154034698Y-104902353D01*
X154004275Y-104899500D01*
X154004266Y-104899500D01*
X151844767Y-104899500D01*
X151810119Y-104885148D01*
X150924852Y-103999881D01*
X150910500Y-103965233D01*
X150910500Y-103334104D01*
X154499500Y-103334104D01*
X154499500Y-103465895D01*
X154533607Y-103593184D01*
X154533608Y-103593188D01*
X154583742Y-103680021D01*
X154599500Y-103707314D01*
X154692686Y-103800500D01*
X154734457Y-103824617D01*
X154806811Y-103866391D01*
X154806813Y-103866391D01*
X154806814Y-103866392D01*
X154907207Y-103893292D01*
X154934104Y-103900499D01*
X154934105Y-103900500D01*
X154934108Y-103900500D01*
X154985233Y-103900500D01*
X155019881Y-103914852D01*
X155941332Y-104836303D01*
X155955684Y-104870951D01*
X155941332Y-104905599D01*
X155922868Y-104917201D01*
X155837121Y-104947205D01*
X155837114Y-104947208D01*
X155727849Y-105027849D01*
X155647208Y-105137114D01*
X155647204Y-105137123D01*
X155602353Y-105265300D01*
X155602353Y-105265301D01*
X155599500Y-105295724D01*
X155599500Y-106704275D01*
X155602353Y-106734698D01*
X155602353Y-106734699D01*
X155647204Y-106862876D01*
X155647208Y-106862885D01*
X155727849Y-106972150D01*
X155837114Y-107052791D01*
X155837117Y-107052792D01*
X155837118Y-107052793D01*
X155837120Y-107052793D01*
X155837123Y-107052795D01*
X155965301Y-107097646D01*
X155995734Y-107100500D01*
X155995744Y-107100500D01*
X159004256Y-107100500D01*
X159004266Y-107100500D01*
X159034699Y-107097646D01*
X159162882Y-107052793D01*
X159272150Y-106972150D01*
X159352793Y-106862882D01*
X159397646Y-106734699D01*
X159400500Y-106704266D01*
X159400500Y-105295734D01*
X159397646Y-105265301D01*
X159372780Y-105194239D01*
X159352795Y-105137123D01*
X159352791Y-105137114D01*
X159272150Y-105027849D01*
X159162885Y-104947208D01*
X159162876Y-104947204D01*
X159034698Y-104902353D01*
X159004275Y-104899500D01*
X159004266Y-104899500D01*
X156844767Y-104899500D01*
X156810119Y-104885148D01*
X156636002Y-104711031D01*
X156628215Y-104700883D01*
X156590460Y-104635489D01*
X156534511Y-104579540D01*
X155503674Y-103548703D01*
X155489322Y-103514055D01*
X155490991Y-103501377D01*
X155500500Y-103465892D01*
X155500500Y-103334108D01*
X155500500Y-103334105D01*
X155500499Y-103334104D01*
X155466392Y-103206815D01*
X155466391Y-103206811D01*
X155400499Y-103092685D01*
X155307314Y-102999500D01*
X155193188Y-102933608D01*
X155193184Y-102933607D01*
X155065895Y-102899500D01*
X155065892Y-102899500D01*
X154934108Y-102899500D01*
X154934105Y-102899500D01*
X154806815Y-102933607D01*
X154806811Y-102933608D01*
X154692685Y-102999500D01*
X154692685Y-102999501D01*
X154599501Y-103092685D01*
X154599500Y-103092685D01*
X154533608Y-103206811D01*
X154533607Y-103206815D01*
X154499500Y-103334104D01*
X150910500Y-103334104D01*
X150910500Y-94953767D01*
X150924852Y-94919119D01*
X150959500Y-94904767D01*
X150994148Y-94919119D01*
X154815489Y-98740460D01*
X154842076Y-98755810D01*
X154884008Y-98780020D01*
X154884012Y-98780022D01*
X154944286Y-98796172D01*
X154960434Y-98800499D01*
X154960435Y-98800500D01*
X154960438Y-98800500D01*
X162389564Y-98800500D01*
X162427038Y-98790458D01*
X162465989Y-98780021D01*
X162534511Y-98740460D01*
X162590460Y-98684511D01*
X164115852Y-97159119D01*
X164150500Y-97144767D01*
X164185148Y-97159119D01*
X164199500Y-97193767D01*
X164199500Y-99422120D01*
X164185148Y-99456768D01*
X164171210Y-99466528D01*
X164129597Y-99485933D01*
X164129595Y-99485935D01*
X164045936Y-99569593D01*
X164045935Y-99569595D01*
X163995933Y-99676824D01*
X163995932Y-99676825D01*
X163995932Y-99676827D01*
X163992154Y-99705529D01*
X163989500Y-99725687D01*
X163989500Y-99975233D01*
X163975148Y-100009881D01*
X162259541Y-101725488D01*
X162259540Y-101725488D01*
X162219979Y-101794008D01*
X162219979Y-101794010D01*
X162199500Y-101870436D01*
X162199500Y-104850500D01*
X162185148Y-104885148D01*
X162150500Y-104899500D01*
X160995724Y-104899500D01*
X160965301Y-104902353D01*
X160965300Y-104902353D01*
X160837123Y-104947204D01*
X160837114Y-104947208D01*
X160727849Y-105027849D01*
X160647208Y-105137114D01*
X160647204Y-105137123D01*
X160602353Y-105265300D01*
X160602353Y-105265301D01*
X160599500Y-105295724D01*
X160599500Y-106704275D01*
X160602353Y-106734698D01*
X160602353Y-106734699D01*
X160647204Y-106862876D01*
X160647208Y-106862885D01*
X160727849Y-106972150D01*
X160837114Y-107052791D01*
X160837117Y-107052792D01*
X160837118Y-107052793D01*
X160837120Y-107052793D01*
X160837123Y-107052795D01*
X160965301Y-107097646D01*
X160995734Y-107100500D01*
X160995744Y-107100500D01*
X164004256Y-107100500D01*
X164004266Y-107100500D01*
X164034699Y-107097646D01*
X164162882Y-107052793D01*
X164272150Y-106972150D01*
X164352793Y-106862882D01*
X164397646Y-106734699D01*
X164400500Y-106704266D01*
X164400500Y-105295734D01*
X164400499Y-105295724D01*
X165599500Y-105295724D01*
X165599500Y-106704275D01*
X165602353Y-106734698D01*
X165602353Y-106734699D01*
X165647204Y-106862876D01*
X165647208Y-106862885D01*
X165727849Y-106972150D01*
X165837114Y-107052791D01*
X165837117Y-107052792D01*
X165837118Y-107052793D01*
X165837120Y-107052793D01*
X165837123Y-107052795D01*
X165965301Y-107097646D01*
X165995734Y-107100500D01*
X165995744Y-107100500D01*
X169004256Y-107100500D01*
X169004266Y-107100500D01*
X169034699Y-107097646D01*
X169162882Y-107052793D01*
X169272150Y-106972150D01*
X169352793Y-106862882D01*
X169397646Y-106734699D01*
X169400500Y-106704266D01*
X169400500Y-105427610D01*
X169414852Y-105392962D01*
X169500499Y-105307315D01*
X169500500Y-105307314D01*
X169507192Y-105295724D01*
X170599500Y-105295724D01*
X170599500Y-106704275D01*
X170602353Y-106734698D01*
X170602353Y-106734699D01*
X170647204Y-106862876D01*
X170647208Y-106862885D01*
X170727849Y-106972150D01*
X170837114Y-107052791D01*
X170837117Y-107052792D01*
X170837118Y-107052793D01*
X170837120Y-107052793D01*
X170837123Y-107052795D01*
X170965301Y-107097646D01*
X170995734Y-107100500D01*
X170995744Y-107100500D01*
X174004256Y-107100500D01*
X174004266Y-107100500D01*
X174034699Y-107097646D01*
X174162882Y-107052793D01*
X174272150Y-106972150D01*
X174352793Y-106862882D01*
X174397646Y-106734699D01*
X174400500Y-106704266D01*
X174400500Y-105295734D01*
X174397646Y-105265301D01*
X174372780Y-105194239D01*
X174352795Y-105137123D01*
X174352791Y-105137114D01*
X174272150Y-105027849D01*
X174162885Y-104947208D01*
X174162876Y-104947204D01*
X174034698Y-104902353D01*
X174004275Y-104899500D01*
X174004266Y-104899500D01*
X173049500Y-104899500D01*
X173014852Y-104885148D01*
X173000500Y-104850500D01*
X173000500Y-104834105D01*
X173000499Y-104834104D01*
X172976004Y-104742686D01*
X172966392Y-104706814D01*
X172966391Y-104706813D01*
X172966391Y-104706811D01*
X172907321Y-104604500D01*
X172900500Y-104592686D01*
X172807314Y-104499500D01*
X172693188Y-104433608D01*
X172693184Y-104433607D01*
X172565895Y-104399500D01*
X172565892Y-104399500D01*
X172434108Y-104399500D01*
X172434105Y-104399500D01*
X172306815Y-104433607D01*
X172306811Y-104433608D01*
X172192685Y-104499500D01*
X172099501Y-104592685D01*
X172099500Y-104592685D01*
X172033608Y-104706811D01*
X172033607Y-104706815D01*
X171999500Y-104834104D01*
X171999500Y-104850500D01*
X171985148Y-104885148D01*
X171950500Y-104899500D01*
X170995724Y-104899500D01*
X170965301Y-104902353D01*
X170965300Y-104902353D01*
X170837123Y-104947204D01*
X170837114Y-104947208D01*
X170727849Y-105027849D01*
X170647208Y-105137114D01*
X170647204Y-105137123D01*
X170602353Y-105265300D01*
X170602353Y-105265301D01*
X170599500Y-105295724D01*
X169507192Y-105295724D01*
X169566392Y-105193186D01*
X169600499Y-105065895D01*
X169600500Y-105065895D01*
X169600500Y-104934105D01*
X169600499Y-104934104D01*
X169582982Y-104868730D01*
X169566392Y-104806814D01*
X169566391Y-104806813D01*
X169566391Y-104806811D01*
X169524617Y-104734457D01*
X169500500Y-104692686D01*
X169407314Y-104599500D01*
X169395510Y-104592685D01*
X169293188Y-104533608D01*
X169293184Y-104533607D01*
X169165895Y-104499500D01*
X169165892Y-104499500D01*
X169034108Y-104499500D01*
X169034105Y-104499500D01*
X168906815Y-104533607D01*
X168906811Y-104533608D01*
X168792685Y-104599500D01*
X168792685Y-104599501D01*
X168699501Y-104692685D01*
X168699500Y-104692685D01*
X168633608Y-104806811D01*
X168633607Y-104806815D01*
X168618504Y-104863182D01*
X168595674Y-104892935D01*
X168571174Y-104899500D01*
X165995724Y-104899500D01*
X165965301Y-104902353D01*
X165965300Y-104902353D01*
X165837123Y-104947204D01*
X165837114Y-104947208D01*
X165727849Y-105027849D01*
X165647208Y-105137114D01*
X165647204Y-105137123D01*
X165602353Y-105265300D01*
X165602353Y-105265301D01*
X165599500Y-105295724D01*
X164400499Y-105295724D01*
X164397646Y-105265301D01*
X164372780Y-105194239D01*
X164352795Y-105137123D01*
X164352791Y-105137114D01*
X164272150Y-105027849D01*
X164162885Y-104947208D01*
X164162876Y-104947204D01*
X164034698Y-104902353D01*
X164004275Y-104899500D01*
X164004266Y-104899500D01*
X162849500Y-104899500D01*
X162814852Y-104885148D01*
X162800500Y-104850500D01*
X162800500Y-102054767D01*
X162814852Y-102020119D01*
X163905852Y-100929119D01*
X163940500Y-100914767D01*
X163975148Y-100929119D01*
X163989500Y-100963767D01*
X163989500Y-101094312D01*
X163989499Y-101094312D01*
X163995932Y-101143174D01*
X163995933Y-101143175D01*
X164029502Y-101215164D01*
X164032423Y-101248554D01*
X164009500Y-101334104D01*
X164009500Y-101465895D01*
X164043607Y-101593184D01*
X164043608Y-101593188D01*
X164087691Y-101669540D01*
X164109500Y-101707314D01*
X164202686Y-101800500D01*
X164219844Y-101810406D01*
X164316811Y-101866391D01*
X164316813Y-101866391D01*
X164316814Y-101866392D01*
X164417207Y-101893292D01*
X164444104Y-101900499D01*
X164444105Y-101900500D01*
X164444108Y-101900500D01*
X164575895Y-101900500D01*
X164575895Y-101900499D01*
X164703186Y-101866392D01*
X164817314Y-101800500D01*
X164910500Y-101707314D01*
X164976392Y-101593186D01*
X165010499Y-101465895D01*
X165010500Y-101465895D01*
X165010500Y-101334105D01*
X164987576Y-101248554D01*
X164990496Y-101215164D01*
X165024068Y-101143173D01*
X165030500Y-101094316D01*
X165030500Y-100745684D01*
X165024068Y-100696827D01*
X164974065Y-100589596D01*
X164974064Y-100589595D01*
X164974063Y-100589593D01*
X164890406Y-100505936D01*
X164890404Y-100505935D01*
X164856821Y-100490275D01*
X164783173Y-100455932D01*
X164783171Y-100455931D01*
X164779906Y-100454409D01*
X164754569Y-100426759D01*
X164756205Y-100389292D01*
X164779906Y-100365591D01*
X164783171Y-100364068D01*
X164783173Y-100364068D01*
X164890404Y-100314065D01*
X164970352Y-100234117D01*
X165005000Y-100219765D01*
X165039648Y-100234117D01*
X165119593Y-100314063D01*
X165119595Y-100314064D01*
X165119596Y-100314065D01*
X165226827Y-100364068D01*
X165275684Y-100370500D01*
X165275687Y-100370500D01*
X165724312Y-100370500D01*
X165724316Y-100370500D01*
X165773173Y-100364068D01*
X165880404Y-100314065D01*
X165964065Y-100230404D01*
X166014068Y-100123173D01*
X166020500Y-100074316D01*
X166020500Y-99725684D01*
X166014068Y-99676827D01*
X165964065Y-99569596D01*
X165964064Y-99569595D01*
X165964063Y-99569593D01*
X165880406Y-99485936D01*
X165880404Y-99485935D01*
X165790498Y-99444011D01*
X165773174Y-99435932D01*
X165763401Y-99434645D01*
X165724316Y-99429500D01*
X165275684Y-99429500D01*
X165243112Y-99433788D01*
X165226825Y-99435932D01*
X165226824Y-99435933D01*
X165119595Y-99485935D01*
X165119593Y-99485936D01*
X165039647Y-99565882D01*
X165004999Y-99580234D01*
X164970351Y-99565882D01*
X164890404Y-99485935D01*
X164890405Y-99485935D01*
X164828791Y-99457203D01*
X164803455Y-99429552D01*
X164800500Y-99412794D01*
X164800500Y-98934104D01*
X171999500Y-98934104D01*
X171999500Y-99065895D01*
X172033607Y-99193184D01*
X172033608Y-99193188D01*
X172079407Y-99272512D01*
X172099500Y-99307314D01*
X172192686Y-99400500D01*
X172213980Y-99412794D01*
X172306811Y-99466391D01*
X172306813Y-99466391D01*
X172306814Y-99466392D01*
X172379743Y-99485933D01*
X172434104Y-99500499D01*
X172434105Y-99500500D01*
X172434108Y-99500500D01*
X172565894Y-99500500D01*
X172585062Y-99495363D01*
X172625660Y-99484485D01*
X172659859Y-99487793D01*
X172766375Y-99539866D01*
X172818094Y-99547401D01*
X172839362Y-99550500D01*
X172839364Y-99550500D01*
X175260638Y-99550500D01*
X175279201Y-99547795D01*
X175333625Y-99539866D01*
X175440140Y-99487793D01*
X175474338Y-99484485D01*
X175510042Y-99494051D01*
X175534106Y-99500500D01*
X175534108Y-99500500D01*
X175665895Y-99500500D01*
X175665895Y-99500499D01*
X175793186Y-99466392D01*
X175907314Y-99400500D01*
X176000500Y-99307314D01*
X176066392Y-99193186D01*
X176100499Y-99065895D01*
X176100500Y-99065895D01*
X176100500Y-98934105D01*
X176100499Y-98934104D01*
X176085269Y-98877266D01*
X176066392Y-98806814D01*
X176066391Y-98806813D01*
X176066391Y-98806811D01*
X176000499Y-98692685D01*
X175907314Y-98599500D01*
X175793188Y-98533608D01*
X175793184Y-98533607D01*
X175665895Y-98499500D01*
X175665892Y-98499500D01*
X175534108Y-98499500D01*
X175474338Y-98515514D01*
X175440136Y-98512204D01*
X175333628Y-98460135D01*
X175333626Y-98460134D01*
X175260638Y-98449500D01*
X175260636Y-98449500D01*
X172839364Y-98449500D01*
X172839362Y-98449500D01*
X172766373Y-98460134D01*
X172766371Y-98460135D01*
X172659864Y-98512204D01*
X172625662Y-98515514D01*
X172565892Y-98499500D01*
X172434108Y-98499500D01*
X172434105Y-98499500D01*
X172306815Y-98533607D01*
X172306811Y-98533608D01*
X172192685Y-98599500D01*
X172192685Y-98599501D01*
X172099501Y-98692685D01*
X172099500Y-98692685D01*
X172033608Y-98806811D01*
X172033607Y-98806815D01*
X171999500Y-98934104D01*
X164800500Y-98934104D01*
X164800500Y-95925767D01*
X164814852Y-95891119D01*
X164849500Y-95876767D01*
X164884148Y-95891119D01*
X165233489Y-96240460D01*
X165302012Y-96280022D01*
X165337374Y-96289497D01*
X165378434Y-96300499D01*
X165378435Y-96300500D01*
X165378438Y-96300500D01*
X168672390Y-96300500D01*
X168707038Y-96314852D01*
X168792686Y-96400500D01*
X168834457Y-96424617D01*
X168906811Y-96466391D01*
X168906813Y-96466391D01*
X168906814Y-96466392D01*
X169007207Y-96493292D01*
X169034104Y-96500499D01*
X169034105Y-96500500D01*
X169034108Y-96500500D01*
X169165895Y-96500500D01*
X169165895Y-96500499D01*
X169293186Y-96466392D01*
X169407314Y-96400500D01*
X169492962Y-96314852D01*
X169527610Y-96300500D01*
X172487797Y-96300500D01*
X172522445Y-96314852D01*
X172531818Y-96327980D01*
X172565171Y-96396206D01*
X172565173Y-96396209D01*
X172565174Y-96396211D01*
X172653789Y-96484826D01*
X172766375Y-96539866D01*
X172818094Y-96547401D01*
X172839362Y-96550500D01*
X172839364Y-96550500D01*
X175260638Y-96550500D01*
X175279201Y-96547795D01*
X175333625Y-96539866D01*
X175446211Y-96484826D01*
X175534826Y-96396211D01*
X175589866Y-96283625D01*
X175600500Y-96210636D01*
X175600500Y-95789364D01*
X175589866Y-95716375D01*
X175534826Y-95603789D01*
X175446211Y-95515174D01*
X175446210Y-95515173D01*
X175446208Y-95515172D01*
X175333628Y-95460135D01*
X175333626Y-95460134D01*
X175260638Y-95449500D01*
X175260636Y-95449500D01*
X172839364Y-95449500D01*
X172839362Y-95449500D01*
X172766373Y-95460134D01*
X172766371Y-95460135D01*
X172653791Y-95515172D01*
X172653787Y-95515175D01*
X172565175Y-95603787D01*
X172565171Y-95603793D01*
X172531818Y-95672020D01*
X172503708Y-95696845D01*
X172487797Y-95699500D01*
X172266610Y-95699500D01*
X172231962Y-95685148D01*
X172217610Y-95650500D01*
X172231962Y-95615852D01*
X172300499Y-95547315D01*
X172300500Y-95547314D01*
X172366392Y-95433186D01*
X172375196Y-95400326D01*
X172392214Y-95336818D01*
X172415044Y-95307065D01*
X172439544Y-95300500D01*
X173589564Y-95300500D01*
X173616230Y-95293354D01*
X173665989Y-95280021D01*
X173734511Y-95240460D01*
X173790460Y-95184511D01*
X173910119Y-95064852D01*
X173944767Y-95050500D01*
X175260638Y-95050500D01*
X175279201Y-95047795D01*
X175333625Y-95039866D01*
X175446211Y-94984826D01*
X175534826Y-94896211D01*
X175589866Y-94783625D01*
X175600500Y-94710636D01*
X175600500Y-94289364D01*
X175589866Y-94216375D01*
X175534826Y-94103789D01*
X175446211Y-94015174D01*
X175446210Y-94015173D01*
X175446208Y-94015172D01*
X175333628Y-93960135D01*
X175333626Y-93960134D01*
X175260638Y-93949500D01*
X175260636Y-93949500D01*
X172839364Y-93949500D01*
X172839362Y-93949500D01*
X172766373Y-93960134D01*
X172766371Y-93960135D01*
X172653791Y-94015172D01*
X172653787Y-94015175D01*
X172565175Y-94103787D01*
X172565172Y-94103791D01*
X172510135Y-94216371D01*
X172510134Y-94216373D01*
X172499500Y-94289362D01*
X172499500Y-94650500D01*
X172485148Y-94685148D01*
X172450500Y-94699500D01*
X172100436Y-94699500D01*
X172024013Y-94719978D01*
X172000069Y-94733801D01*
X171969335Y-94737961D01*
X171969078Y-94739919D01*
X171965894Y-94739500D01*
X171965892Y-94739500D01*
X171834108Y-94739500D01*
X171834105Y-94739500D01*
X171706815Y-94773607D01*
X171706811Y-94773608D01*
X171592685Y-94839500D01*
X171592685Y-94839501D01*
X171517038Y-94915148D01*
X171482390Y-94929500D01*
X167856750Y-94929500D01*
X167822102Y-94915148D01*
X167807750Y-94880500D01*
X167822102Y-94845852D01*
X167832250Y-94838065D01*
X167842455Y-94832172D01*
X167897314Y-94800500D01*
X167990500Y-94707314D01*
X168056392Y-94593186D01*
X168090499Y-94465895D01*
X168090500Y-94465895D01*
X168090500Y-94334105D01*
X168090499Y-94334104D01*
X168081495Y-94300500D01*
X168056392Y-94206814D01*
X168056391Y-94206813D01*
X168056391Y-94206811D01*
X167996909Y-94103787D01*
X167990500Y-94092686D01*
X167904852Y-94007038D01*
X167891004Y-93973607D01*
X167890919Y-93973619D01*
X167890877Y-93973300D01*
X167890500Y-93972390D01*
X167890500Y-93970436D01*
X167877234Y-93920930D01*
X167870021Y-93894011D01*
X167870020Y-93894009D01*
X167870020Y-93894008D01*
X167830459Y-93825488D01*
X167264513Y-93259542D01*
X167264511Y-93259540D01*
X167257423Y-93255448D01*
X167257423Y-93255447D01*
X167257421Y-93255447D01*
X167195991Y-93219979D01*
X167195987Y-93219978D01*
X167119564Y-93199500D01*
X167119562Y-93199500D01*
X166859812Y-93199500D01*
X166825164Y-93185148D01*
X166810812Y-93150500D01*
X166825164Y-93115852D01*
X166835312Y-93108065D01*
X166871062Y-93087424D01*
X166944172Y-93045214D01*
X167037358Y-92952028D01*
X167103250Y-92837900D01*
X167137357Y-92710609D01*
X167137358Y-92710609D01*
X167137358Y-92578819D01*
X167137357Y-92578818D01*
X167116372Y-92500500D01*
X167103250Y-92451528D01*
X167043997Y-92348900D01*
X167039103Y-92311720D01*
X167051784Y-92289755D01*
X167093224Y-92248316D01*
X167143972Y-92139487D01*
X167150500Y-92089901D01*
X167150499Y-91670100D01*
X167147375Y-91646370D01*
X167153521Y-91615477D01*
X167166392Y-91593186D01*
X167200499Y-91465895D01*
X167200500Y-91465895D01*
X167200500Y-91334105D01*
X167200499Y-91334104D01*
X167185609Y-91278532D01*
X167166392Y-91206814D01*
X167166391Y-91206813D01*
X167166391Y-91206811D01*
X167100499Y-91092685D01*
X167007317Y-90999503D01*
X167007314Y-90999500D01*
X166964998Y-90975068D01*
X166942169Y-90945315D01*
X166940500Y-90932634D01*
X166940500Y-90396513D01*
X166940500Y-90396512D01*
X166924719Y-90296874D01*
X166907667Y-90263408D01*
X166863532Y-90176786D01*
X166863527Y-90176779D01*
X166768220Y-90081472D01*
X166768213Y-90081467D01*
X166648129Y-90020282D01*
X166648127Y-90020281D01*
X166648126Y-90020281D01*
X166548488Y-90004500D01*
X166031512Y-90004500D01*
X165958165Y-90016117D01*
X165921698Y-90007362D01*
X165902103Y-89975385D01*
X165901500Y-89967720D01*
X165901500Y-88973710D01*
X165915852Y-88939062D01*
X167155852Y-87699062D01*
X167190500Y-87684710D01*
X167225148Y-87699062D01*
X167239500Y-87733710D01*
X167239500Y-87934314D01*
X167245931Y-87983173D01*
X167247950Y-87987502D01*
X167249586Y-88024970D01*
X167245978Y-88032707D01*
X167243610Y-88036809D01*
X167243607Y-88036815D01*
X167209500Y-88164104D01*
X167209500Y-88295895D01*
X167243607Y-88423184D01*
X167243608Y-88423188D01*
X167309500Y-88537314D01*
X167402686Y-88630500D01*
X167426817Y-88644432D01*
X167516811Y-88696391D01*
X167516813Y-88696391D01*
X167516814Y-88696392D01*
X167554135Y-88706392D01*
X167644104Y-88730499D01*
X167644105Y-88730500D01*
X167644108Y-88730500D01*
X167775895Y-88730500D01*
X167775895Y-88730499D01*
X167903186Y-88696392D01*
X168017314Y-88630500D01*
X168110500Y-88537314D01*
X168175082Y-88425455D01*
X168204835Y-88402625D01*
X168242017Y-88407520D01*
X168262788Y-88431206D01*
X168263608Y-88433188D01*
X168317304Y-88526190D01*
X168329500Y-88547314D01*
X168422686Y-88640500D01*
X168455761Y-88659596D01*
X168536811Y-88706391D01*
X168536813Y-88706391D01*
X168536814Y-88706392D01*
X168626787Y-88730500D01*
X168664104Y-88740499D01*
X168664105Y-88740500D01*
X168664108Y-88740500D01*
X168795895Y-88740500D01*
X168795895Y-88740499D01*
X168923186Y-88706392D01*
X169037314Y-88640500D01*
X169130500Y-88547314D01*
X169196392Y-88433186D01*
X169230499Y-88305895D01*
X169230500Y-88305895D01*
X169230500Y-88174105D01*
X169230499Y-88174104D01*
X169211062Y-88101562D01*
X169211059Y-88101554D01*
X169207792Y-88089362D01*
X172499500Y-88089362D01*
X172499500Y-88510637D01*
X172510134Y-88583626D01*
X172510135Y-88583628D01*
X172565172Y-88696208D01*
X172565173Y-88696210D01*
X172565174Y-88696211D01*
X172653789Y-88784826D01*
X172766375Y-88839866D01*
X172818094Y-88847401D01*
X172839362Y-88850500D01*
X172839364Y-88850500D01*
X175260638Y-88850500D01*
X175279201Y-88847795D01*
X175333625Y-88839866D01*
X175440140Y-88787793D01*
X175474338Y-88784485D01*
X175510042Y-88794051D01*
X175534106Y-88800500D01*
X175534108Y-88800500D01*
X175665895Y-88800500D01*
X175665895Y-88800499D01*
X175793186Y-88766392D01*
X175907314Y-88700500D01*
X176000500Y-88607314D01*
X176066392Y-88493186D01*
X176100499Y-88365895D01*
X176100500Y-88365895D01*
X176100500Y-88234105D01*
X176100499Y-88234104D01*
X176075252Y-88139881D01*
X176066392Y-88106814D01*
X176066391Y-88106813D01*
X176066391Y-88106811D01*
X176014176Y-88016373D01*
X176000500Y-87992686D01*
X175907314Y-87899500D01*
X175793188Y-87833608D01*
X175793184Y-87833607D01*
X175665895Y-87799500D01*
X175665892Y-87799500D01*
X175534108Y-87799500D01*
X175474338Y-87815514D01*
X175440136Y-87812204D01*
X175333628Y-87760135D01*
X175333626Y-87760134D01*
X175260638Y-87749500D01*
X175260636Y-87749500D01*
X172839364Y-87749500D01*
X172839362Y-87749500D01*
X172766373Y-87760134D01*
X172766371Y-87760135D01*
X172653791Y-87815172D01*
X172653787Y-87815175D01*
X172565175Y-87903787D01*
X172565172Y-87903791D01*
X172510135Y-88016371D01*
X172510134Y-88016373D01*
X172499500Y-88089362D01*
X169207792Y-88089362D01*
X169196392Y-88046814D01*
X169188894Y-88033828D01*
X169187309Y-88028983D01*
X169188380Y-88014984D01*
X169186547Y-88001061D01*
X169189470Y-87993032D01*
X169194068Y-87983173D01*
X169200500Y-87934316D01*
X169200500Y-87485684D01*
X169194068Y-87436827D01*
X169144065Y-87329596D01*
X169085537Y-87271068D01*
X169071186Y-87236421D01*
X169085537Y-87201773D01*
X169110624Y-87188363D01*
X169133231Y-87183867D01*
X169199552Y-87139552D01*
X169243867Y-87073231D01*
X169255500Y-87014748D01*
X169255500Y-85925252D01*
X169243867Y-85866769D01*
X169235016Y-85853523D01*
X169227700Y-85816743D01*
X169228425Y-85813632D01*
X169230500Y-85805892D01*
X169230500Y-85674108D01*
X169230500Y-85674105D01*
X169230499Y-85674104D01*
X169212603Y-85607314D01*
X169196392Y-85546814D01*
X169196391Y-85546813D01*
X169196391Y-85546811D01*
X169130499Y-85432685D01*
X169037314Y-85339500D01*
X168923187Y-85273608D01*
X168885468Y-85263501D01*
X168855715Y-85240670D01*
X168850821Y-85203488D01*
X168863501Y-85181525D01*
X168955664Y-85089362D01*
X172499500Y-85089362D01*
X172499500Y-85510637D01*
X172510134Y-85583626D01*
X172510135Y-85583628D01*
X172565172Y-85696208D01*
X172565173Y-85696210D01*
X172565174Y-85696211D01*
X172653789Y-85784826D01*
X172766375Y-85839866D01*
X172818094Y-85847401D01*
X172839362Y-85850500D01*
X172839364Y-85850500D01*
X175260638Y-85850500D01*
X175279201Y-85847795D01*
X175333625Y-85839866D01*
X175440140Y-85787793D01*
X175474338Y-85784485D01*
X175510042Y-85794051D01*
X175534106Y-85800500D01*
X175534108Y-85800500D01*
X175665895Y-85800500D01*
X175665895Y-85800499D01*
X175793186Y-85766392D01*
X175907314Y-85700500D01*
X176000500Y-85607314D01*
X176066392Y-85493186D01*
X176100499Y-85365895D01*
X176100500Y-85365895D01*
X176100500Y-85234105D01*
X176100499Y-85234104D01*
X176086419Y-85181558D01*
X176066392Y-85106814D01*
X176066391Y-85106813D01*
X176066391Y-85106811D01*
X176014176Y-85016373D01*
X176000500Y-84992686D01*
X175907314Y-84899500D01*
X175793188Y-84833608D01*
X175793184Y-84833607D01*
X175665895Y-84799500D01*
X175665892Y-84799500D01*
X175534108Y-84799500D01*
X175474338Y-84815514D01*
X175440136Y-84812204D01*
X175333628Y-84760135D01*
X175333626Y-84760134D01*
X175260638Y-84749500D01*
X175260636Y-84749500D01*
X172839364Y-84749500D01*
X172839362Y-84749500D01*
X172766373Y-84760134D01*
X172766371Y-84760135D01*
X172653791Y-84815172D01*
X172653787Y-84815175D01*
X172565175Y-84903787D01*
X172565172Y-84903791D01*
X172510135Y-85016371D01*
X172510134Y-85016373D01*
X172499500Y-85089362D01*
X168955664Y-85089362D01*
X170455665Y-83589362D01*
X172499500Y-83589362D01*
X172499500Y-84010637D01*
X172510134Y-84083626D01*
X172510135Y-84083628D01*
X172565172Y-84196208D01*
X172565173Y-84196210D01*
X172565174Y-84196211D01*
X172653789Y-84284826D01*
X172766375Y-84339866D01*
X172818094Y-84347401D01*
X172839362Y-84350500D01*
X172839364Y-84350500D01*
X175260638Y-84350500D01*
X175279201Y-84347795D01*
X175333625Y-84339866D01*
X175440140Y-84287793D01*
X175474338Y-84284485D01*
X175510042Y-84294051D01*
X175534106Y-84300500D01*
X175534108Y-84300500D01*
X175665895Y-84300500D01*
X175665895Y-84300499D01*
X175793186Y-84266392D01*
X175797217Y-84264065D01*
X175812053Y-84255499D01*
X175907314Y-84200500D01*
X176000500Y-84107314D01*
X176066392Y-83993186D01*
X176100499Y-83865895D01*
X176100500Y-83865895D01*
X176100500Y-83734105D01*
X176100499Y-83734104D01*
X176093292Y-83707207D01*
X176066392Y-83606814D01*
X176066391Y-83606813D01*
X176066391Y-83606811D01*
X176014176Y-83516373D01*
X176000500Y-83492686D01*
X175907314Y-83399500D01*
X175868887Y-83377314D01*
X175793188Y-83333608D01*
X175793184Y-83333607D01*
X175665895Y-83299500D01*
X175665892Y-83299500D01*
X175534108Y-83299500D01*
X175474338Y-83315514D01*
X175440136Y-83312204D01*
X175333628Y-83260135D01*
X175333626Y-83260134D01*
X175260638Y-83249500D01*
X175260636Y-83249500D01*
X172839364Y-83249500D01*
X172839362Y-83249500D01*
X172766373Y-83260134D01*
X172766371Y-83260135D01*
X172653791Y-83315172D01*
X172653787Y-83315175D01*
X172565175Y-83403787D01*
X172565172Y-83403791D01*
X172510135Y-83516371D01*
X172510134Y-83516373D01*
X172499500Y-83589362D01*
X170455665Y-83589362D01*
X171430176Y-82614852D01*
X171464824Y-82600500D01*
X172487797Y-82600500D01*
X172522445Y-82614852D01*
X172531818Y-82627980D01*
X172565171Y-82696206D01*
X172565173Y-82696209D01*
X172565174Y-82696211D01*
X172653789Y-82784826D01*
X172766375Y-82839866D01*
X172818094Y-82847401D01*
X172839362Y-82850500D01*
X172839364Y-82850500D01*
X175260638Y-82850500D01*
X175279201Y-82847795D01*
X175333625Y-82839866D01*
X175446211Y-82784826D01*
X175534826Y-82696211D01*
X175589866Y-82583625D01*
X175600500Y-82510636D01*
X175600500Y-82352006D01*
X175614852Y-82317358D01*
X175625000Y-82309571D01*
X175631731Y-82305685D01*
X175727314Y-82250500D01*
X175820500Y-82157314D01*
X175886392Y-82043186D01*
X175920499Y-81915895D01*
X175920500Y-81915895D01*
X175920500Y-81784105D01*
X175920499Y-81784104D01*
X175901744Y-81714109D01*
X175886392Y-81656814D01*
X175886391Y-81656813D01*
X175886391Y-81656811D01*
X175828033Y-81555734D01*
X175820500Y-81542686D01*
X175727314Y-81449500D01*
X175700724Y-81434148D01*
X175613188Y-81383608D01*
X175613184Y-81383607D01*
X175485568Y-81349412D01*
X175455815Y-81326582D01*
X175450920Y-81289400D01*
X175463600Y-81267436D01*
X175534826Y-81196211D01*
X175589866Y-81083625D01*
X175600500Y-81010636D01*
X175600500Y-80589364D01*
X175589866Y-80516375D01*
X175534826Y-80403789D01*
X175446211Y-80315174D01*
X175446210Y-80315173D01*
X175446208Y-80315172D01*
X175333628Y-80260135D01*
X175333626Y-80260134D01*
X175260638Y-80249500D01*
X175260636Y-80249500D01*
X173944767Y-80249500D01*
X173910119Y-80235148D01*
X172964852Y-79289881D01*
X172950500Y-79255233D01*
X172950500Y-74284104D01*
X173099500Y-74284104D01*
X173099500Y-74415895D01*
X173133607Y-74543184D01*
X173133608Y-74543188D01*
X173185825Y-74633628D01*
X173199500Y-74657314D01*
X173292686Y-74750500D01*
X173334457Y-74774617D01*
X173406811Y-74816391D01*
X173406813Y-74816391D01*
X173406814Y-74816392D01*
X173475615Y-74834827D01*
X173534104Y-74850499D01*
X173534105Y-74850500D01*
X173534108Y-74850500D01*
X173665894Y-74850500D01*
X173685062Y-74845363D01*
X173725660Y-74834485D01*
X173759859Y-74837793D01*
X173866375Y-74889866D01*
X173918094Y-74897401D01*
X173939362Y-74900500D01*
X173939364Y-74900500D01*
X177360638Y-74900500D01*
X177379201Y-74897795D01*
X177433625Y-74889866D01*
X177546211Y-74834826D01*
X177634826Y-74746211D01*
X177689866Y-74633625D01*
X177700500Y-74560636D01*
X177700500Y-74139364D01*
X177689866Y-74066375D01*
X177634826Y-73953789D01*
X177546211Y-73865174D01*
X177546210Y-73865173D01*
X177546208Y-73865172D01*
X177433628Y-73810135D01*
X177433626Y-73810134D01*
X177360638Y-73799500D01*
X177360636Y-73799500D01*
X173939364Y-73799500D01*
X173939362Y-73799500D01*
X173866373Y-73810134D01*
X173866371Y-73810135D01*
X173759864Y-73862204D01*
X173725662Y-73865514D01*
X173665892Y-73849500D01*
X173534108Y-73849500D01*
X173534105Y-73849500D01*
X173406815Y-73883607D01*
X173406811Y-73883608D01*
X173292685Y-73949500D01*
X173292685Y-73949501D01*
X173199501Y-74042685D01*
X173199500Y-74042685D01*
X173133608Y-74156811D01*
X173133607Y-74156815D01*
X173099500Y-74284104D01*
X172950500Y-74284104D01*
X172950500Y-72776078D01*
X173049500Y-72776078D01*
X173049500Y-72923921D01*
X173078340Y-73068906D01*
X173078342Y-73068915D01*
X173134914Y-73205491D01*
X173134916Y-73205495D01*
X173217049Y-73328416D01*
X173321584Y-73432951D01*
X173444505Y-73515084D01*
X173512796Y-73543371D01*
X173581084Y-73571657D01*
X173581085Y-73571657D01*
X173581087Y-73571658D01*
X173726082Y-73600500D01*
X173873918Y-73600500D01*
X174018913Y-73571658D01*
X174155495Y-73515084D01*
X174239793Y-73458757D01*
X174267016Y-73450500D01*
X177358486Y-73450500D01*
X177358488Y-73450500D01*
X177458126Y-73434719D01*
X177520699Y-73402836D01*
X177578213Y-73373532D01*
X177578215Y-73373530D01*
X177578220Y-73373528D01*
X177673528Y-73278220D01*
X177680340Y-73264852D01*
X177734717Y-73158129D01*
X177734719Y-73158126D01*
X177750500Y-73058488D01*
X177750500Y-72641512D01*
X177734719Y-72541874D01*
X177732715Y-72537941D01*
X177673532Y-72421786D01*
X177673527Y-72421779D01*
X177578220Y-72326472D01*
X177578213Y-72326467D01*
X177458129Y-72265282D01*
X177458127Y-72265281D01*
X177458126Y-72265281D01*
X177358488Y-72249500D01*
X177358486Y-72249500D01*
X174267016Y-72249500D01*
X174239793Y-72241242D01*
X174155495Y-72184916D01*
X174155492Y-72184914D01*
X174155491Y-72184914D01*
X174018915Y-72128342D01*
X174018906Y-72128340D01*
X173873921Y-72099500D01*
X173873918Y-72099500D01*
X173726082Y-72099500D01*
X173726078Y-72099500D01*
X173581093Y-72128340D01*
X173581084Y-72128342D01*
X173444508Y-72184914D01*
X173321584Y-72267048D01*
X173217048Y-72371584D01*
X173134914Y-72494508D01*
X173078342Y-72631084D01*
X173078340Y-72631093D01*
X173049500Y-72776078D01*
X172950500Y-72776078D01*
X172950500Y-69110436D01*
X172941843Y-69078134D01*
X172930021Y-69034011D01*
X172930020Y-69034009D01*
X172930020Y-69034008D01*
X172890459Y-68965488D01*
X169080891Y-65155920D01*
X169066539Y-65121272D01*
X169080891Y-65086624D01*
X169099356Y-65075022D01*
X169162876Y-65052795D01*
X169162874Y-65052795D01*
X169162882Y-65052793D01*
X169272150Y-64972150D01*
X169352793Y-64862882D01*
X169397646Y-64734699D01*
X169400500Y-64704266D01*
X169400500Y-63295734D01*
X169400499Y-63295724D01*
X170599500Y-63295724D01*
X170599500Y-64704275D01*
X170602353Y-64734698D01*
X170602353Y-64734699D01*
X170647204Y-64862876D01*
X170647208Y-64862885D01*
X170727849Y-64972150D01*
X170837114Y-65052791D01*
X170837117Y-65052792D01*
X170837118Y-65052793D01*
X170837120Y-65052793D01*
X170837123Y-65052795D01*
X170900645Y-65075022D01*
X170965301Y-65097646D01*
X170995734Y-65100500D01*
X173769212Y-65100500D01*
X173803860Y-65114852D01*
X173816542Y-65136817D01*
X173823607Y-65163184D01*
X173823608Y-65163188D01*
X173858725Y-65224011D01*
X173889500Y-65277314D01*
X173982686Y-65370500D01*
X174024457Y-65394617D01*
X174096811Y-65436391D01*
X174096813Y-65436391D01*
X174096814Y-65436392D01*
X174197207Y-65463292D01*
X174224104Y-65470499D01*
X174224105Y-65470500D01*
X174224108Y-65470500D01*
X174355895Y-65470500D01*
X174355895Y-65470499D01*
X174483186Y-65436392D01*
X174597314Y-65370500D01*
X174690500Y-65277314D01*
X174756392Y-65163186D01*
X174790499Y-65035895D01*
X174790500Y-65035895D01*
X174790500Y-64904105D01*
X174790499Y-64904104D01*
X174756392Y-64776815D01*
X174756391Y-64776811D01*
X174690499Y-64662685D01*
X174597314Y-64569500D01*
X174483187Y-64503608D01*
X174436817Y-64491183D01*
X174407064Y-64468353D01*
X174400500Y-64443853D01*
X174400500Y-63295743D01*
X174400499Y-63295724D01*
X174397646Y-63265301D01*
X174397646Y-63265300D01*
X174352795Y-63137123D01*
X174352791Y-63137114D01*
X174272150Y-63027849D01*
X174162885Y-62947208D01*
X174162876Y-62947204D01*
X174034698Y-62902353D01*
X174004275Y-62899500D01*
X174004266Y-62899500D01*
X170995734Y-62899500D01*
X170995724Y-62899500D01*
X170965301Y-62902353D01*
X170965300Y-62902353D01*
X170837123Y-62947204D01*
X170837114Y-62947208D01*
X170727849Y-63027849D01*
X170647208Y-63137114D01*
X170647204Y-63137123D01*
X170602353Y-63265300D01*
X170602353Y-63265301D01*
X170599500Y-63295724D01*
X169400499Y-63295724D01*
X169397646Y-63265301D01*
X169352793Y-63137118D01*
X169352792Y-63137117D01*
X169352791Y-63137114D01*
X169272150Y-63027849D01*
X169162885Y-62947208D01*
X169162876Y-62947204D01*
X169034698Y-62902353D01*
X169004275Y-62899500D01*
X169004266Y-62899500D01*
X165995734Y-62899500D01*
X165995724Y-62899500D01*
X165965301Y-62902353D01*
X165965300Y-62902353D01*
X165837123Y-62947204D01*
X165837114Y-62947208D01*
X165727849Y-63027849D01*
X165647208Y-63137114D01*
X165647204Y-63137123D01*
X165602353Y-63265300D01*
X165602353Y-63265301D01*
X165599500Y-63295724D01*
X165599500Y-64704275D01*
X165602353Y-64734698D01*
X165602353Y-64734699D01*
X165647204Y-64862876D01*
X165647208Y-64862885D01*
X165727849Y-64972150D01*
X165837114Y-65052791D01*
X165837117Y-65052792D01*
X165837118Y-65052793D01*
X165837120Y-65052793D01*
X165837123Y-65052795D01*
X165900645Y-65075022D01*
X165965301Y-65097646D01*
X165995734Y-65100500D01*
X168155233Y-65100500D01*
X168189881Y-65114852D01*
X172335148Y-69260119D01*
X172349500Y-69294767D01*
X172349500Y-79439562D01*
X172369979Y-79515989D01*
X172375752Y-79525988D01*
X172409540Y-79584511D01*
X172409542Y-79584513D01*
X172940881Y-80115852D01*
X172955233Y-80150500D01*
X172940881Y-80185148D01*
X172906233Y-80199500D01*
X166580436Y-80199500D01*
X166504010Y-80219979D01*
X166504008Y-80219979D01*
X166443058Y-80255170D01*
X166443057Y-80255169D01*
X166435491Y-80259538D01*
X164759541Y-81935488D01*
X164759540Y-81935488D01*
X164719979Y-82004008D01*
X164719979Y-82004010D01*
X164699500Y-82080436D01*
X164699500Y-89142390D01*
X164685148Y-89177038D01*
X164599501Y-89262685D01*
X164599500Y-89262685D01*
X164533608Y-89376811D01*
X164533607Y-89376815D01*
X164499500Y-89504104D01*
X164499500Y-89635895D01*
X164533607Y-89763184D01*
X164533608Y-89763188D01*
X164599500Y-89877314D01*
X164685148Y-89962962D01*
X164699500Y-89997610D01*
X164699500Y-90175233D01*
X164685148Y-90209881D01*
X164259541Y-90635488D01*
X164259540Y-90635488D01*
X164219979Y-90704008D01*
X164219979Y-90704010D01*
X164199500Y-90780436D01*
X164199500Y-91156233D01*
X164185148Y-91190881D01*
X164150500Y-91205233D01*
X164115852Y-91190881D01*
X163431040Y-90506069D01*
X163416688Y-90471421D01*
X163431039Y-90436774D01*
X163500500Y-90367314D01*
X163566392Y-90253186D01*
X163600499Y-90125895D01*
X163600500Y-90125895D01*
X163600500Y-89994105D01*
X163600499Y-89994104D01*
X163566392Y-89866815D01*
X163566391Y-89866811D01*
X163500499Y-89752685D01*
X163407314Y-89659500D01*
X163293188Y-89593608D01*
X163293184Y-89593607D01*
X163165895Y-89559500D01*
X163165892Y-89559500D01*
X163034108Y-89559500D01*
X163034107Y-89559500D01*
X162999359Y-89568810D01*
X162965970Y-89565888D01*
X162919906Y-89544408D01*
X162894569Y-89516758D01*
X162896205Y-89479291D01*
X162919906Y-89455590D01*
X162923168Y-89454068D01*
X162923173Y-89454068D01*
X163030404Y-89404065D01*
X163114065Y-89320404D01*
X163164068Y-89213173D01*
X163170500Y-89164316D01*
X163170500Y-89156174D01*
X163184852Y-89121526D01*
X163206814Y-89108845D01*
X163271954Y-89091392D01*
X163386082Y-89025500D01*
X163479268Y-88932314D01*
X163545160Y-88818186D01*
X163579267Y-88690895D01*
X163579268Y-88690895D01*
X163579268Y-88559105D01*
X163579267Y-88559104D01*
X163546242Y-88435852D01*
X163545160Y-88431814D01*
X163545159Y-88431813D01*
X163545159Y-88431811D01*
X163479267Y-88317685D01*
X163441375Y-88279793D01*
X163427023Y-88245145D01*
X163441375Y-88210497D01*
X163451518Y-88202713D01*
X163507314Y-88170500D01*
X163600500Y-88077314D01*
X163666392Y-87963186D01*
X163700499Y-87835895D01*
X163700500Y-87835895D01*
X163700500Y-87704105D01*
X163700499Y-87704104D01*
X163676735Y-87615414D01*
X163666392Y-87576814D01*
X163666391Y-87576813D01*
X163666391Y-87576811D01*
X163621108Y-87498380D01*
X163600500Y-87462686D01*
X163507314Y-87369500D01*
X163393188Y-87303608D01*
X163393184Y-87303607D01*
X163265895Y-87269500D01*
X163265892Y-87269500D01*
X163134108Y-87269500D01*
X163134105Y-87269500D01*
X163062182Y-87288771D01*
X163025000Y-87283876D01*
X163002170Y-87254123D01*
X163000500Y-87241441D01*
X163000500Y-87050436D01*
X162987665Y-87002539D01*
X162980021Y-86974011D01*
X162967063Y-86951567D01*
X162960500Y-86927070D01*
X162960500Y-86820255D01*
X162960500Y-86820252D01*
X162948867Y-86761769D01*
X162948328Y-86759059D01*
X162955645Y-86722277D01*
X162986828Y-86701441D01*
X162996387Y-86700500D01*
X163079745Y-86700500D01*
X163079748Y-86700500D01*
X163138231Y-86688867D01*
X163204552Y-86644552D01*
X163248867Y-86578231D01*
X163260500Y-86519748D01*
X163260500Y-86412929D01*
X163267064Y-86388430D01*
X163280021Y-86365989D01*
X163295783Y-86307167D01*
X163300500Y-86289563D01*
X163300500Y-85380436D01*
X163280700Y-85306546D01*
X163280021Y-85304011D01*
X163280020Y-85304010D01*
X163280021Y-85304010D01*
X163277064Y-85298889D01*
X163270500Y-85274390D01*
X163270500Y-84995687D01*
X163269733Y-84989859D01*
X163264068Y-84946827D01*
X163214065Y-84839596D01*
X163214064Y-84839595D01*
X163214063Y-84839593D01*
X163130406Y-84755936D01*
X163130404Y-84755935D01*
X163095161Y-84739501D01*
X163023173Y-84705932D01*
X163023171Y-84705931D01*
X163019906Y-84704409D01*
X162994569Y-84676759D01*
X162996205Y-84639292D01*
X163019906Y-84615591D01*
X163023171Y-84614068D01*
X163023173Y-84614068D01*
X163130404Y-84564065D01*
X163214065Y-84480404D01*
X163214818Y-84478790D01*
X163215870Y-84477825D01*
X163216525Y-84476891D01*
X163216732Y-84477036D01*
X163221243Y-84472902D01*
X163224578Y-84464852D01*
X163234527Y-84460730D01*
X163242469Y-84453454D01*
X163259226Y-84450500D01*
X163324001Y-84450500D01*
X163355081Y-84463374D01*
X163355385Y-84462920D01*
X163357668Y-84464446D01*
X163358649Y-84464852D01*
X163359398Y-84465601D01*
X163442260Y-84520966D01*
X163515326Y-84535500D01*
X164164674Y-84535500D01*
X164237740Y-84520966D01*
X164320601Y-84465601D01*
X164375966Y-84382740D01*
X164390500Y-84309674D01*
X164390500Y-83960326D01*
X164375966Y-83887260D01*
X164344800Y-83840616D01*
X164320601Y-83804398D01*
X164237739Y-83749033D01*
X164179940Y-83737536D01*
X164148758Y-83716701D01*
X164140500Y-83689478D01*
X164140500Y-76429766D01*
X164154851Y-76395119D01*
X165685118Y-74864851D01*
X165719766Y-74850500D01*
X165774515Y-74850500D01*
X165796035Y-74855478D01*
X165866375Y-74889866D01*
X165922893Y-74898100D01*
X165939362Y-74900500D01*
X165939364Y-74900500D01*
X169360638Y-74900500D01*
X169379201Y-74897795D01*
X169433625Y-74889866D01*
X169546211Y-74834826D01*
X169634826Y-74746211D01*
X169689866Y-74633625D01*
X169700500Y-74560636D01*
X169700500Y-74139364D01*
X169689866Y-74066375D01*
X169634826Y-73953789D01*
X169546211Y-73865174D01*
X169546210Y-73865173D01*
X169546208Y-73865172D01*
X169433628Y-73810135D01*
X169433626Y-73810134D01*
X169360638Y-73799500D01*
X169360636Y-73799500D01*
X165939364Y-73799500D01*
X165939362Y-73799500D01*
X165866375Y-73810134D01*
X165866374Y-73810134D01*
X165796036Y-73844521D01*
X165774515Y-73849500D01*
X165709105Y-73849500D01*
X165581815Y-73883607D01*
X165581811Y-73883608D01*
X165467685Y-73949500D01*
X165467685Y-73949501D01*
X165374501Y-74042685D01*
X165374500Y-74042685D01*
X165308608Y-74156811D01*
X165308607Y-74156815D01*
X165274500Y-74284104D01*
X165274500Y-74405232D01*
X165260148Y-74439880D01*
X164224148Y-75475880D01*
X164189500Y-75490232D01*
X164154852Y-75475880D01*
X164140500Y-75441232D01*
X164140500Y-72776078D01*
X165461364Y-72776078D01*
X165461364Y-72923921D01*
X165490204Y-73068906D01*
X165490206Y-73068915D01*
X165546778Y-73205491D01*
X165546780Y-73205495D01*
X165628913Y-73328416D01*
X165733448Y-73432951D01*
X165856369Y-73515084D01*
X165924660Y-73543371D01*
X165992948Y-73571657D01*
X165992949Y-73571657D01*
X165992951Y-73571658D01*
X166137946Y-73600500D01*
X167723918Y-73600500D01*
X167868913Y-73571658D01*
X168005495Y-73515084D01*
X168089793Y-73458757D01*
X168117016Y-73450500D01*
X169358486Y-73450500D01*
X169358488Y-73450500D01*
X169458126Y-73434719D01*
X169520699Y-73402836D01*
X169578213Y-73373532D01*
X169578215Y-73373530D01*
X169578220Y-73373528D01*
X169673528Y-73278220D01*
X169680340Y-73264852D01*
X169734717Y-73158129D01*
X169734719Y-73158126D01*
X169750500Y-73058488D01*
X169750500Y-72641512D01*
X169734719Y-72541874D01*
X169732715Y-72537941D01*
X169673532Y-72421786D01*
X169673527Y-72421779D01*
X169578220Y-72326472D01*
X169578213Y-72326467D01*
X169458129Y-72265282D01*
X169458127Y-72265281D01*
X169458126Y-72265281D01*
X169358488Y-72249500D01*
X169358486Y-72249500D01*
X168117016Y-72249500D01*
X168089793Y-72241242D01*
X168005495Y-72184916D01*
X168005492Y-72184914D01*
X168005491Y-72184914D01*
X167868915Y-72128342D01*
X167868906Y-72128340D01*
X167723921Y-72099500D01*
X167723918Y-72099500D01*
X166137946Y-72099500D01*
X166137942Y-72099500D01*
X165992957Y-72128340D01*
X165992948Y-72128342D01*
X165856372Y-72184914D01*
X165733448Y-72267048D01*
X165628912Y-72371584D01*
X165546778Y-72494508D01*
X165490206Y-72631084D01*
X165490204Y-72631093D01*
X165461364Y-72776078D01*
X164140500Y-72776078D01*
X164140500Y-65300436D01*
X164131843Y-65268134D01*
X164120021Y-65224011D01*
X164120020Y-65224009D01*
X164120020Y-65224008D01*
X164084904Y-65163186D01*
X164080460Y-65155489D01*
X164080459Y-65155488D01*
X164078504Y-65152940D01*
X164079378Y-65152268D01*
X164066539Y-65121272D01*
X164080891Y-65086624D01*
X164099356Y-65075022D01*
X164162876Y-65052795D01*
X164162874Y-65052795D01*
X164162882Y-65052793D01*
X164272150Y-64972150D01*
X164352793Y-64862882D01*
X164397646Y-64734699D01*
X164400500Y-64704266D01*
X164400500Y-63295734D01*
X164397646Y-63265301D01*
X164352793Y-63137118D01*
X164352792Y-63137117D01*
X164352791Y-63137114D01*
X164272150Y-63027849D01*
X164162885Y-62947208D01*
X164162876Y-62947204D01*
X164034698Y-62902353D01*
X164004275Y-62899500D01*
X164004266Y-62899500D01*
X160995734Y-62899500D01*
X160995724Y-62899500D01*
X160965301Y-62902353D01*
X160965300Y-62902353D01*
X160837123Y-62947204D01*
X160837114Y-62947208D01*
X160727849Y-63027849D01*
X160647208Y-63137114D01*
X160647204Y-63137123D01*
X160602353Y-63265300D01*
X160602353Y-63265301D01*
X160599500Y-63295724D01*
X160599500Y-64704275D01*
X160602353Y-64734698D01*
X160602353Y-64734699D01*
X160647204Y-64862876D01*
X160647208Y-64862885D01*
X160727849Y-64972150D01*
X160837114Y-65052791D01*
X160837117Y-65052792D01*
X160837118Y-65052793D01*
X160837120Y-65052793D01*
X160837123Y-65052795D01*
X160900645Y-65075022D01*
X160965301Y-65097646D01*
X160995734Y-65100500D01*
X163155233Y-65100500D01*
X163189881Y-65114852D01*
X163525148Y-65450119D01*
X163539500Y-65484767D01*
X163539500Y-83689478D01*
X163525148Y-83724126D01*
X163500060Y-83737536D01*
X163442260Y-83749033D01*
X163359400Y-83804397D01*
X163359399Y-83804399D01*
X163343814Y-83827722D01*
X163339641Y-83830511D01*
X163337721Y-83835148D01*
X163324518Y-83840616D01*
X163312634Y-83848558D01*
X163303073Y-83849500D01*
X163259226Y-83849500D01*
X163224578Y-83835148D01*
X163214818Y-83821210D01*
X163214066Y-83819597D01*
X163214064Y-83819595D01*
X163130406Y-83735936D01*
X163130404Y-83735935D01*
X163023175Y-83685933D01*
X163023174Y-83685932D01*
X163013401Y-83684645D01*
X162974316Y-83679500D01*
X162525684Y-83679500D01*
X162493112Y-83683788D01*
X162476825Y-83685932D01*
X162476824Y-83685933D01*
X162369595Y-83735935D01*
X162369593Y-83735936D01*
X162285936Y-83819593D01*
X162285935Y-83819595D01*
X162235933Y-83926824D01*
X162235932Y-83926825D01*
X162235932Y-83926827D01*
X162231523Y-83960322D01*
X162229500Y-83975687D01*
X162229500Y-84324312D01*
X162229499Y-84324312D01*
X162229500Y-84324316D01*
X162235932Y-84373173D01*
X162271990Y-84450500D01*
X162285935Y-84480404D01*
X162285936Y-84480406D01*
X162369593Y-84564063D01*
X162369595Y-84564064D01*
X162369596Y-84564065D01*
X162474562Y-84613012D01*
X162480093Y-84615591D01*
X162505430Y-84643241D01*
X162503794Y-84680708D01*
X162480093Y-84704409D01*
X162369595Y-84755935D01*
X162369593Y-84755936D01*
X162285936Y-84839593D01*
X162285935Y-84839595D01*
X162235933Y-84946824D01*
X162235932Y-84946825D01*
X162229500Y-84995687D01*
X162229500Y-85047051D01*
X162215148Y-85081699D01*
X162180500Y-85096051D01*
X162167818Y-85094381D01*
X162087612Y-85072890D01*
X162087609Y-85072890D01*
X161955825Y-85072890D01*
X161955822Y-85072890D01*
X161828532Y-85106997D01*
X161828528Y-85106998D01*
X161714402Y-85172890D01*
X161627201Y-85260091D01*
X161592553Y-85274443D01*
X161557905Y-85260091D01*
X161507314Y-85209500D01*
X161393188Y-85143608D01*
X161393184Y-85143607D01*
X161265895Y-85109500D01*
X161265892Y-85109500D01*
X161134108Y-85109500D01*
X161134105Y-85109500D01*
X161006815Y-85143607D01*
X161006811Y-85143608D01*
X160892685Y-85209500D01*
X160892685Y-85209501D01*
X160799501Y-85302685D01*
X160799500Y-85302685D01*
X160733608Y-85416811D01*
X160733607Y-85416815D01*
X160699500Y-85544104D01*
X160699500Y-85675895D01*
X160716524Y-85739431D01*
X160713604Y-85772820D01*
X160696028Y-85810512D01*
X160696028Y-85810513D01*
X160690366Y-85853525D01*
X160689500Y-85860102D01*
X160689500Y-86219896D01*
X160689501Y-86219901D01*
X160696027Y-86269487D01*
X160746776Y-86378316D01*
X160746777Y-86378318D01*
X160831681Y-86463222D01*
X160831683Y-86463223D01*
X160831684Y-86463224D01*
X160940513Y-86513972D01*
X160990099Y-86520500D01*
X161264388Y-86520499D01*
X161288884Y-86527062D01*
X161294005Y-86530018D01*
X161294007Y-86530018D01*
X161294011Y-86530021D01*
X161332224Y-86540260D01*
X161370436Y-86550500D01*
X161370438Y-86550500D01*
X161806906Y-86550500D01*
X161841554Y-86564852D01*
X161847780Y-86572475D01*
X161850938Y-86577251D01*
X161851133Y-86578231D01*
X161894273Y-86642794D01*
X161894393Y-86642975D01*
X161897947Y-86661312D01*
X161901577Y-86679560D01*
X161901514Y-86679711D01*
X161901530Y-86679793D01*
X161901401Y-86679982D01*
X161894261Y-86697223D01*
X161851133Y-86761768D01*
X161851133Y-86761769D01*
X161839500Y-86820252D01*
X161839500Y-86820255D01*
X161839500Y-86927070D01*
X161832936Y-86951567D01*
X161828124Y-86959903D01*
X161819979Y-86974011D01*
X161819978Y-86974013D01*
X161799500Y-87050436D01*
X161799500Y-87689563D01*
X161819978Y-87765987D01*
X161819979Y-87765991D01*
X161841338Y-87802984D01*
X161859540Y-87834511D01*
X162460881Y-88435852D01*
X162475233Y-88470500D01*
X162460881Y-88505148D01*
X162427266Y-88519071D01*
X162427288Y-88519395D01*
X162426335Y-88519457D01*
X162426233Y-88519500D01*
X162425684Y-88519500D01*
X162393112Y-88523788D01*
X162376825Y-88525932D01*
X162376824Y-88525933D01*
X162269595Y-88575935D01*
X162269593Y-88575936D01*
X162185936Y-88659593D01*
X162185935Y-88659595D01*
X162135933Y-88766824D01*
X162135932Y-88766825D01*
X162129500Y-88815687D01*
X162129500Y-89164312D01*
X162129499Y-89164312D01*
X162135932Y-89213174D01*
X162135933Y-89213175D01*
X162185935Y-89320404D01*
X162185936Y-89320406D01*
X162269593Y-89404063D01*
X162269595Y-89404064D01*
X162269596Y-89404065D01*
X162374562Y-89453012D01*
X162380093Y-89455591D01*
X162405430Y-89483241D01*
X162403794Y-89520708D01*
X162380093Y-89544409D01*
X162269595Y-89595935D01*
X162269593Y-89595936D01*
X162185936Y-89679593D01*
X162185935Y-89679595D01*
X162135933Y-89786824D01*
X162135932Y-89786825D01*
X162129500Y-89835687D01*
X162129500Y-90184314D01*
X162132675Y-90208432D01*
X162122968Y-90244657D01*
X162090489Y-90263408D01*
X162054264Y-90253701D01*
X162049446Y-90249475D01*
X160514852Y-88714881D01*
X160500500Y-88680233D01*
X160500500Y-66660439D01*
X160499449Y-66656515D01*
X160499449Y-66656514D01*
X160480022Y-66584013D01*
X160480021Y-66584010D01*
X160440459Y-66515488D01*
X159080891Y-65155920D01*
X159066539Y-65121272D01*
X159080891Y-65086624D01*
X159099356Y-65075022D01*
X159162876Y-65052795D01*
X159162874Y-65052795D01*
X159162882Y-65052793D01*
X159272150Y-64972150D01*
X159352793Y-64862882D01*
X159397646Y-64734699D01*
X159400500Y-64704266D01*
X159400500Y-63295734D01*
X159397646Y-63265301D01*
X159352793Y-63137118D01*
X159352792Y-63137117D01*
X159352791Y-63137114D01*
X159272150Y-63027849D01*
X159162885Y-62947208D01*
X159162876Y-62947204D01*
X159034698Y-62902353D01*
X159004275Y-62899500D01*
X159004266Y-62899500D01*
X155995734Y-62899500D01*
X155995724Y-62899500D01*
X155965301Y-62902353D01*
X155965300Y-62902353D01*
X155837123Y-62947204D01*
X155837114Y-62947208D01*
X155727849Y-63027849D01*
X155647208Y-63137114D01*
X155647204Y-63137123D01*
X155602353Y-63265300D01*
X155602353Y-63265301D01*
X155599500Y-63295724D01*
X155599500Y-64704275D01*
X155602353Y-64734698D01*
X155602353Y-64734699D01*
X155647204Y-64862876D01*
X155647208Y-64862885D01*
X155727849Y-64972150D01*
X155837114Y-65052791D01*
X155837117Y-65052792D01*
X155837118Y-65052793D01*
X155837120Y-65052793D01*
X155837123Y-65052795D01*
X155900645Y-65075022D01*
X155965301Y-65097646D01*
X155995734Y-65100500D01*
X158155233Y-65100500D01*
X158189881Y-65114852D01*
X159885148Y-66810119D01*
X159899500Y-66844767D01*
X159899500Y-88864563D01*
X159919979Y-88940989D01*
X159919979Y-88940991D01*
X159938870Y-88973710D01*
X159955927Y-89003253D01*
X159959540Y-89009511D01*
X161915489Y-90965460D01*
X161984012Y-91005022D01*
X162044286Y-91021172D01*
X162060434Y-91025499D01*
X162060435Y-91025500D01*
X162060438Y-91025500D01*
X163080233Y-91025500D01*
X163114881Y-91039852D01*
X163165881Y-91090852D01*
X163180233Y-91125500D01*
X163165881Y-91160148D01*
X163131233Y-91174500D01*
X161569767Y-91174500D01*
X161535119Y-91160148D01*
X158514852Y-88139881D01*
X158500500Y-88105233D01*
X158500500Y-87189226D01*
X158514852Y-87154578D01*
X158528794Y-87144816D01*
X158529357Y-87144553D01*
X158530404Y-87144065D01*
X158614065Y-87060404D01*
X158664068Y-86953173D01*
X158664068Y-86953171D01*
X158665591Y-86949906D01*
X158693241Y-86924569D01*
X158730708Y-86926205D01*
X158754409Y-86949906D01*
X158755931Y-86953171D01*
X158755932Y-86953173D01*
X158800418Y-87048572D01*
X158805935Y-87060404D01*
X158805936Y-87060406D01*
X158889593Y-87144063D01*
X158889595Y-87144064D01*
X158889596Y-87144065D01*
X158996827Y-87194068D01*
X159045684Y-87200500D01*
X159045687Y-87200500D01*
X159394312Y-87200500D01*
X159394316Y-87200500D01*
X159443173Y-87194068D01*
X159550404Y-87144065D01*
X159634065Y-87060404D01*
X159684068Y-86953173D01*
X159690500Y-86904316D01*
X159690500Y-86455684D01*
X159684068Y-86406827D01*
X159634065Y-86299596D01*
X159634064Y-86299595D01*
X159634063Y-86299593D01*
X159550404Y-86215935D01*
X159550402Y-86215933D01*
X159548790Y-86215182D01*
X159547825Y-86214129D01*
X159546891Y-86213475D01*
X159547036Y-86213267D01*
X159523454Y-86187531D01*
X159520500Y-86170774D01*
X159520500Y-85986954D01*
X159530074Y-85957857D01*
X159553455Y-85926179D01*
X159597686Y-85799774D01*
X159600500Y-85769764D01*
X159600500Y-85175236D01*
X159597686Y-85145226D01*
X159597119Y-85143607D01*
X159587633Y-85116496D01*
X159553455Y-85018821D01*
X159549741Y-85013789D01*
X159473930Y-84911069D01*
X159366181Y-84831546D01*
X159366179Y-84831545D01*
X159319396Y-84815175D01*
X159239776Y-84787314D01*
X159239768Y-84787313D01*
X159209776Y-84784501D01*
X159209773Y-84784500D01*
X159209764Y-84784500D01*
X158190236Y-84784500D01*
X158190227Y-84784500D01*
X158190223Y-84784501D01*
X158160224Y-84787313D01*
X158159953Y-84787373D01*
X158159829Y-84787350D01*
X158157257Y-84787592D01*
X158157189Y-84786876D01*
X158123041Y-84780743D01*
X158101628Y-84749954D01*
X158100500Y-84739501D01*
X158100500Y-69260436D01*
X158089555Y-69219593D01*
X158080021Y-69184011D01*
X158080020Y-69184009D01*
X158080020Y-69184008D01*
X158040459Y-69115488D01*
X154080891Y-65155920D01*
X154066539Y-65121272D01*
X154080891Y-65086624D01*
X154099356Y-65075022D01*
X154162876Y-65052795D01*
X154162874Y-65052795D01*
X154162882Y-65052793D01*
X154272150Y-64972150D01*
X154352793Y-64862882D01*
X154397646Y-64734699D01*
X154400500Y-64704266D01*
X154400500Y-63295734D01*
X154397646Y-63265301D01*
X154352793Y-63137118D01*
X154352792Y-63137117D01*
X154352791Y-63137114D01*
X154272150Y-63027849D01*
X154162885Y-62947208D01*
X154162876Y-62947204D01*
X154034698Y-62902353D01*
X154004275Y-62899500D01*
X154004266Y-62899500D01*
X150995734Y-62899500D01*
X150995724Y-62899500D01*
X150965301Y-62902353D01*
X150965300Y-62902353D01*
X150837123Y-62947204D01*
X150837114Y-62947208D01*
X150727849Y-63027849D01*
X150647208Y-63137114D01*
X150647204Y-63137123D01*
X150602353Y-63265300D01*
X150602353Y-63265301D01*
X150599500Y-63295724D01*
X150599500Y-64704275D01*
X150602353Y-64734698D01*
X150602353Y-64734699D01*
X150647204Y-64862876D01*
X150647208Y-64862885D01*
X150727849Y-64972150D01*
X150837114Y-65052791D01*
X150837117Y-65052792D01*
X150837118Y-65052793D01*
X150837120Y-65052793D01*
X150837123Y-65052795D01*
X150900645Y-65075022D01*
X150965301Y-65097646D01*
X150995734Y-65100500D01*
X153155233Y-65100500D01*
X153189881Y-65114852D01*
X157485148Y-69410119D01*
X157499500Y-69444767D01*
X157499500Y-84783644D01*
X157485148Y-84818292D01*
X157450500Y-84832644D01*
X157434316Y-84829894D01*
X157319776Y-84789814D01*
X157319768Y-84789813D01*
X157289776Y-84787001D01*
X157289773Y-84787000D01*
X157289764Y-84787000D01*
X156270236Y-84787000D01*
X156270227Y-84787000D01*
X156270223Y-84787001D01*
X156240231Y-84789813D01*
X156240223Y-84789814D01*
X156113818Y-84834046D01*
X156006069Y-84913569D01*
X155926546Y-85021318D01*
X155882314Y-85147723D01*
X155882314Y-85147726D01*
X155879501Y-85177723D01*
X155879500Y-85177745D01*
X155879500Y-85772254D01*
X155879501Y-85772276D01*
X155882313Y-85802268D01*
X155882314Y-85802276D01*
X155926546Y-85928681D01*
X156006069Y-86036430D01*
X156074887Y-86087221D01*
X156094243Y-86119343D01*
X156085215Y-86155743D01*
X156053093Y-86175099D01*
X156052253Y-86175217D01*
X156046827Y-86175932D01*
X156046825Y-86175933D01*
X156046824Y-86175933D01*
X155939595Y-86225935D01*
X155939593Y-86225936D01*
X155855936Y-86309593D01*
X155854409Y-86312869D01*
X155826758Y-86338205D01*
X155789291Y-86336569D01*
X155765591Y-86312869D01*
X155764065Y-86309596D01*
X155764063Y-86309594D01*
X155764063Y-86309593D01*
X155680406Y-86225936D01*
X155680404Y-86225935D01*
X155653238Y-86213267D01*
X155573173Y-86175932D01*
X155573172Y-86175931D01*
X155569776Y-86174348D01*
X155570695Y-86172376D01*
X155546992Y-86153346D01*
X155542916Y-86116065D01*
X155560859Y-86090360D01*
X155633930Y-86036430D01*
X155670445Y-85986954D01*
X155713455Y-85928679D01*
X155757686Y-85802274D01*
X155760500Y-85772264D01*
X155760500Y-85177736D01*
X155757686Y-85147726D01*
X155713455Y-85021321D01*
X155707896Y-85013789D01*
X155633930Y-84913569D01*
X155526181Y-84834046D01*
X155526179Y-84834045D01*
X155488238Y-84820768D01*
X155399776Y-84789814D01*
X155399768Y-84789813D01*
X155369776Y-84787001D01*
X155369773Y-84787000D01*
X155369764Y-84787000D01*
X154350236Y-84787000D01*
X154350227Y-84787000D01*
X154350223Y-84787001D01*
X154320231Y-84789813D01*
X154320223Y-84789814D01*
X154193818Y-84834046D01*
X154086069Y-84913569D01*
X154006546Y-85021318D01*
X153962314Y-85147723D01*
X153962314Y-85147726D01*
X153959501Y-85177723D01*
X153959500Y-85177745D01*
X153959500Y-85745522D01*
X153945148Y-85780170D01*
X153910500Y-85794522D01*
X153875852Y-85780170D01*
X153364852Y-85269170D01*
X153350500Y-85234522D01*
X153350500Y-80953853D01*
X153332585Y-80886998D01*
X153326614Y-80864712D01*
X153280469Y-80784788D01*
X153215212Y-80719531D01*
X150718927Y-78223246D01*
X148169852Y-75674170D01*
X148155500Y-75639522D01*
X148155500Y-72826670D01*
X148155500Y-72826666D01*
X148149069Y-72769703D01*
X148136742Y-72715804D01*
X148128327Y-72686942D01*
X148077164Y-72601381D01*
X148030296Y-72549562D01*
X148030288Y-72549555D01*
X148030284Y-72549550D01*
X147996858Y-72518641D01*
X147907558Y-72474322D01*
X147840125Y-72456070D01*
X147840120Y-72456069D01*
X147840115Y-72456068D01*
X147767928Y-72447252D01*
X147767927Y-72447252D01*
X143505542Y-72537941D01*
X143470597Y-72524329D01*
X143455511Y-72489994D01*
X143455500Y-72488952D01*
X143455500Y-70068266D01*
X143469852Y-70033618D01*
X143504500Y-70019266D01*
X143539148Y-70033618D01*
X143569593Y-70064063D01*
X143569595Y-70064064D01*
X143569596Y-70064065D01*
X143676827Y-70114068D01*
X143725684Y-70120500D01*
X143725687Y-70120500D01*
X144074312Y-70120500D01*
X144074316Y-70120500D01*
X144123173Y-70114068D01*
X144230404Y-70064065D01*
X144314065Y-69980404D01*
X144364068Y-69873173D01*
X144370500Y-69824316D01*
X144370500Y-69375684D01*
X144364068Y-69326827D01*
X144314065Y-69219596D01*
X144314064Y-69219595D01*
X144314063Y-69219593D01*
X144230404Y-69135935D01*
X144230402Y-69135933D01*
X144228790Y-69135182D01*
X144227825Y-69134129D01*
X144226891Y-69133475D01*
X144227036Y-69133267D01*
X144203454Y-69107531D01*
X144200500Y-69090774D01*
X144200500Y-68924500D01*
X144214852Y-68889852D01*
X144249500Y-68875500D01*
X144920762Y-68875500D01*
X144938090Y-68872974D01*
X144988893Y-68865573D01*
X145093983Y-68814198D01*
X145176698Y-68731483D01*
X145228073Y-68626393D01*
X145238000Y-68558260D01*
X145238000Y-68191740D01*
X145228073Y-68123607D01*
X145176698Y-68018517D01*
X145093983Y-67935802D01*
X145027951Y-67903521D01*
X144988896Y-67884428D01*
X144988894Y-67884427D01*
X144920762Y-67874500D01*
X144920760Y-67874500D01*
X143679240Y-67874500D01*
X143679238Y-67874500D01*
X143611105Y-67884427D01*
X143611100Y-67884429D01*
X143526020Y-67926022D01*
X143488590Y-67928346D01*
X143460479Y-67903521D01*
X143455500Y-67882001D01*
X143455500Y-67349493D01*
X143449662Y-67295200D01*
X143449661Y-67295187D01*
X143449658Y-67295173D01*
X143447427Y-67284915D01*
X143454086Y-67248008D01*
X143484892Y-67226620D01*
X143495307Y-67225500D01*
X145473918Y-67225500D01*
X145618913Y-67196658D01*
X145755495Y-67140084D01*
X145878416Y-67057951D01*
X145982951Y-66953416D01*
X146065084Y-66830495D01*
X146121658Y-66693913D01*
X146150500Y-66548918D01*
X146150500Y-66401082D01*
X146121658Y-66256087D01*
X146065084Y-66119505D01*
X145982951Y-65996584D01*
X145878416Y-65892049D01*
X145755495Y-65809916D01*
X145755492Y-65809914D01*
X145755491Y-65809914D01*
X145618915Y-65753342D01*
X145618906Y-65753340D01*
X145473921Y-65724500D01*
X145473918Y-65724500D01*
X144373918Y-65724500D01*
X140306163Y-65724500D01*
X140271515Y-65710148D01*
X139432335Y-64870968D01*
X139417983Y-64836320D01*
X139421073Y-64819196D01*
X139444091Y-64757483D01*
X139444092Y-64757478D01*
X139450500Y-64697873D01*
X139450499Y-63302128D01*
X139450252Y-63299829D01*
X139450252Y-63299825D01*
X139449811Y-63295724D01*
X140599500Y-63295724D01*
X140599500Y-64704275D01*
X140602353Y-64734698D01*
X140602353Y-64734699D01*
X140647204Y-64862876D01*
X140647208Y-64862885D01*
X140727849Y-64972150D01*
X140837114Y-65052791D01*
X140837117Y-65052792D01*
X140837118Y-65052793D01*
X140837120Y-65052793D01*
X140837123Y-65052795D01*
X140900645Y-65075022D01*
X140965301Y-65097646D01*
X140995734Y-65100500D01*
X140995744Y-65100500D01*
X144004256Y-65100500D01*
X144004266Y-65100500D01*
X144034699Y-65097646D01*
X144162882Y-65052793D01*
X144272150Y-64972150D01*
X144352793Y-64862882D01*
X144397646Y-64734699D01*
X144400500Y-64704266D01*
X144400500Y-63295734D01*
X144400499Y-63295724D01*
X145599500Y-63295724D01*
X145599500Y-64704275D01*
X145602353Y-64734698D01*
X145602353Y-64734699D01*
X145647204Y-64862876D01*
X145647208Y-64862885D01*
X145727849Y-64972150D01*
X145837114Y-65052791D01*
X145837117Y-65052792D01*
X145837118Y-65052793D01*
X145837120Y-65052793D01*
X145837123Y-65052795D01*
X145900645Y-65075022D01*
X145965301Y-65097646D01*
X145995734Y-65100500D01*
X148155233Y-65100500D01*
X148189881Y-65114852D01*
X155485148Y-72410119D01*
X155499500Y-72444767D01*
X155499500Y-81872390D01*
X155485148Y-81907038D01*
X155399501Y-81992685D01*
X155399500Y-81992685D01*
X155333608Y-82106811D01*
X155333607Y-82106815D01*
X155299500Y-82234104D01*
X155299500Y-82365895D01*
X155333607Y-82493184D01*
X155333608Y-82493188D01*
X155385825Y-82583628D01*
X155399500Y-82607314D01*
X155492686Y-82700500D01*
X155534457Y-82724617D01*
X155606811Y-82766391D01*
X155606813Y-82766391D01*
X155606814Y-82766392D01*
X155675615Y-82784827D01*
X155734104Y-82800499D01*
X155734105Y-82800500D01*
X155734108Y-82800500D01*
X155865895Y-82800500D01*
X155865895Y-82800499D01*
X155993186Y-82766392D01*
X156107314Y-82700500D01*
X156200500Y-82607314D01*
X156266392Y-82493186D01*
X156300499Y-82365895D01*
X156300500Y-82365895D01*
X156300500Y-82234105D01*
X156300499Y-82234104D01*
X156286991Y-82183692D01*
X156266392Y-82106814D01*
X156266391Y-82106813D01*
X156266391Y-82106811D01*
X156210576Y-82010138D01*
X156200500Y-81992686D01*
X156114852Y-81907038D01*
X156100500Y-81872390D01*
X156100500Y-72260437D01*
X156097569Y-72249501D01*
X156097569Y-72249499D01*
X156080022Y-72184012D01*
X156080021Y-72184010D01*
X156069420Y-72165648D01*
X156040460Y-72115489D01*
X149080891Y-65155920D01*
X149066539Y-65121272D01*
X149080891Y-65086624D01*
X149099356Y-65075022D01*
X149162876Y-65052795D01*
X149162874Y-65052795D01*
X149162882Y-65052793D01*
X149272150Y-64972150D01*
X149352793Y-64862882D01*
X149397646Y-64734699D01*
X149400500Y-64704266D01*
X149400500Y-63295734D01*
X149397646Y-63265301D01*
X149352793Y-63137118D01*
X149352792Y-63137117D01*
X149352791Y-63137114D01*
X149272150Y-63027849D01*
X149162885Y-62947208D01*
X149162876Y-62947204D01*
X149034698Y-62902353D01*
X149004275Y-62899500D01*
X149004266Y-62899500D01*
X145995734Y-62899500D01*
X145995724Y-62899500D01*
X145965301Y-62902353D01*
X145965300Y-62902353D01*
X145837123Y-62947204D01*
X145837114Y-62947208D01*
X145727849Y-63027849D01*
X145647208Y-63137114D01*
X145647204Y-63137123D01*
X145602353Y-63265300D01*
X145602353Y-63265301D01*
X145599500Y-63295724D01*
X144400499Y-63295724D01*
X144397646Y-63265301D01*
X144352793Y-63137118D01*
X144352792Y-63137117D01*
X144352791Y-63137114D01*
X144272150Y-63027849D01*
X144162885Y-62947208D01*
X144162876Y-62947204D01*
X144034698Y-62902353D01*
X144004275Y-62899500D01*
X144004266Y-62899500D01*
X143049500Y-62899500D01*
X143014852Y-62885148D01*
X143000500Y-62850500D01*
X143000500Y-62834105D01*
X143000499Y-62834104D01*
X142966392Y-62706815D01*
X142966391Y-62706811D01*
X142900499Y-62592685D01*
X142807314Y-62499500D01*
X142693188Y-62433608D01*
X142693184Y-62433607D01*
X142565895Y-62399500D01*
X142565892Y-62399500D01*
X142434108Y-62399500D01*
X142434105Y-62399500D01*
X142306815Y-62433607D01*
X142306811Y-62433608D01*
X142192685Y-62499500D01*
X142192685Y-62499501D01*
X142099501Y-62592685D01*
X142099500Y-62592685D01*
X142033608Y-62706811D01*
X142033607Y-62706815D01*
X141999500Y-62834104D01*
X141999500Y-62850500D01*
X141985148Y-62885148D01*
X141950500Y-62899500D01*
X140995724Y-62899500D01*
X140965301Y-62902353D01*
X140965300Y-62902353D01*
X140837123Y-62947204D01*
X140837114Y-62947208D01*
X140727849Y-63027849D01*
X140647208Y-63137114D01*
X140647204Y-63137123D01*
X140602353Y-63265300D01*
X140602353Y-63265301D01*
X140599500Y-63295724D01*
X139449811Y-63295724D01*
X139444092Y-63242521D01*
X139444091Y-63242517D01*
X139393796Y-63107669D01*
X139307546Y-62992454D01*
X139238314Y-62940627D01*
X139192333Y-62906205D01*
X139192331Y-62906204D01*
X139135877Y-62885148D01*
X139057479Y-62855907D01*
X138997879Y-62849500D01*
X136002120Y-62849500D01*
X135942521Y-62855907D01*
X135807666Y-62906205D01*
X135692454Y-62992454D01*
X135606205Y-63107666D01*
X135555907Y-63242520D01*
X135549500Y-63302120D01*
X135549500Y-64697879D01*
X135555907Y-64757478D01*
X135555909Y-64757483D01*
X135606204Y-64892331D01*
X135692454Y-65007546D01*
X135807669Y-65093796D01*
X135942517Y-65144091D01*
X135942520Y-65144092D01*
X135986177Y-65148785D01*
X136002127Y-65150500D01*
X137568835Y-65150499D01*
X137603483Y-65164851D01*
X139392049Y-66953416D01*
X139496584Y-67057951D01*
X139619505Y-67140084D01*
X139676080Y-67163518D01*
X139756088Y-67196659D01*
X139872241Y-67219763D01*
X139901082Y-67225500D01*
X139901083Y-67225500D01*
X140048918Y-67225500D01*
X140704386Y-67225500D01*
X140739034Y-67239852D01*
X140753386Y-67274500D01*
X140752845Y-67281761D01*
X140743031Y-67347256D01*
X140743031Y-67347259D01*
X140735365Y-68642890D01*
X140720809Y-68677453D01*
X140686076Y-68691599D01*
X140651718Y-68677248D01*
X140622906Y-68648436D01*
X140622904Y-68648435D01*
X140611013Y-68642890D01*
X140515674Y-68598432D01*
X140505901Y-68597145D01*
X140466816Y-68592000D01*
X140118184Y-68592000D01*
X140085612Y-68596288D01*
X140069325Y-68598432D01*
X140069324Y-68598433D01*
X139962095Y-68648435D01*
X139962093Y-68648436D01*
X139878436Y-68732093D01*
X139878435Y-68732095D01*
X139828433Y-68839324D01*
X139828432Y-68839325D01*
X139822000Y-68888187D01*
X139822000Y-69336812D01*
X139821999Y-69336812D01*
X139828432Y-69385674D01*
X139828433Y-69385675D01*
X139878435Y-69492904D01*
X139878436Y-69492906D01*
X139962091Y-69576561D01*
X139962094Y-69576563D01*
X139962096Y-69576565D01*
X139962098Y-69576565D01*
X139965056Y-69578637D01*
X139985209Y-69610265D01*
X139977095Y-69646880D01*
X139971602Y-69653426D01*
X139752381Y-69872648D01*
X139717733Y-69887000D01*
X139041738Y-69887000D01*
X138973605Y-69896927D01*
X138973603Y-69896928D01*
X138868519Y-69948301D01*
X138868515Y-69948303D01*
X138785803Y-70031015D01*
X138785801Y-70031019D01*
X138734428Y-70136103D01*
X138734427Y-70136105D01*
X138734427Y-70136107D01*
X138724500Y-70204240D01*
X138724500Y-70570760D01*
X138734427Y-70638893D01*
X138785802Y-70743983D01*
X138868517Y-70826698D01*
X138973607Y-70878073D01*
X139021884Y-70885106D01*
X139041738Y-70888000D01*
X139041740Y-70888000D01*
X140283262Y-70888000D01*
X140300590Y-70885474D01*
X140351393Y-70878073D01*
X140456483Y-70826698D01*
X140539198Y-70743983D01*
X140590573Y-70638893D01*
X140600500Y-70570760D01*
X140600500Y-70204240D01*
X140590573Y-70136107D01*
X140539198Y-70031017D01*
X140526224Y-70018043D01*
X140511872Y-69983395D01*
X140519281Y-69957487D01*
X140522249Y-69952721D01*
X140527960Y-69947011D01*
X140554813Y-69900500D01*
X140567521Y-69878489D01*
X140588000Y-69802062D01*
X140588000Y-69624057D01*
X140602352Y-69589409D01*
X140605842Y-69586239D01*
X140610645Y-69582281D01*
X140622904Y-69576565D01*
X140647796Y-69551672D01*
X140649614Y-69550175D01*
X140665460Y-69545334D01*
X140680771Y-69538993D01*
X140683085Y-69539951D01*
X140685481Y-69539220D01*
X140700108Y-69547002D01*
X140715420Y-69553344D01*
X140716378Y-69555658D01*
X140718590Y-69556835D01*
X140723430Y-69572681D01*
X140729772Y-69587992D01*
X140729771Y-69588283D01*
X140722431Y-70828669D01*
X140708080Y-70863027D01*
X140621951Y-70949156D01*
X140621945Y-70949164D01*
X140564355Y-71062190D01*
X140564355Y-71062192D01*
X140549500Y-71155982D01*
X140549500Y-71519017D01*
X140564353Y-71612803D01*
X140621945Y-71725835D01*
X140621951Y-71725843D01*
X140702090Y-71805983D01*
X140716442Y-71840631D01*
X140716441Y-71840921D01*
X140715704Y-71965512D01*
X140701148Y-72000075D01*
X140666415Y-72014221D01*
X140631852Y-71999665D01*
X140623046Y-71987467D01*
X140578054Y-71899164D01*
X140578049Y-71899157D01*
X140488342Y-71809450D01*
X140488335Y-71809445D01*
X140375308Y-71751855D01*
X140375305Y-71751854D01*
X140375304Y-71751854D01*
X140281519Y-71737000D01*
X140281517Y-71737000D01*
X140193663Y-71737000D01*
X140159015Y-71722648D01*
X140103415Y-71667048D01*
X140022232Y-71612804D01*
X139980495Y-71584916D01*
X139980492Y-71584914D01*
X139980491Y-71584914D01*
X139843915Y-71528342D01*
X139843906Y-71528340D01*
X139698921Y-71499500D01*
X139698918Y-71499500D01*
X137645522Y-71499500D01*
X137610874Y-71485148D01*
X137597464Y-71460060D01*
X137585966Y-71402260D01*
X137530601Y-71319398D01*
X137447739Y-71264033D01*
X137374677Y-71249500D01*
X137374674Y-71249500D01*
X135925326Y-71249500D01*
X135925322Y-71249500D01*
X135852260Y-71264033D01*
X135769398Y-71319398D01*
X135714033Y-71402260D01*
X135699500Y-71475322D01*
X135699500Y-73024677D01*
X135714033Y-73097739D01*
X135769398Y-73180601D01*
X135806650Y-73205491D01*
X135852260Y-73235966D01*
X135925326Y-73250500D01*
X135983758Y-73250500D01*
X136018406Y-73264852D01*
X136581834Y-73828280D01*
X136485959Y-73853970D01*
X136389048Y-73909921D01*
X136309921Y-73989048D01*
X136253970Y-74085959D01*
X136228280Y-74181833D01*
X135642117Y-73595670D01*
X135623666Y-73621066D01*
X135537915Y-73789361D01*
X135479548Y-73968998D01*
X135479547Y-73969001D01*
X135450000Y-74155558D01*
X135450000Y-74344441D01*
X135479547Y-74530998D01*
X135479548Y-74531001D01*
X135537915Y-74710638D01*
X135623669Y-74878939D01*
X135623671Y-74878943D01*
X135642115Y-74904328D01*
X135642116Y-74904328D01*
X136228279Y-74318165D01*
X136253970Y-74414041D01*
X136309921Y-74510952D01*
X136389048Y-74590079D01*
X136485959Y-74646030D01*
X136581833Y-74671719D01*
X135995669Y-75257883D01*
X136021063Y-75276331D01*
X136189361Y-75362084D01*
X136368998Y-75420451D01*
X136369001Y-75420452D01*
X136555559Y-75450000D01*
X136744441Y-75450000D01*
X136930998Y-75420452D01*
X136931001Y-75420451D01*
X137110638Y-75362084D01*
X137278933Y-75276333D01*
X137304328Y-75257882D01*
X136718165Y-74671719D01*
X136814041Y-74646030D01*
X136910952Y-74590079D01*
X136990079Y-74510952D01*
X137046030Y-74414041D01*
X137071719Y-74318165D01*
X137657882Y-74904328D01*
X137676333Y-74878933D01*
X137762084Y-74710638D01*
X137820451Y-74531001D01*
X137820452Y-74530998D01*
X137850000Y-74344441D01*
X137850000Y-74155558D01*
X137820452Y-73969001D01*
X137820451Y-73968998D01*
X137762084Y-73789361D01*
X137676331Y-73621063D01*
X137657883Y-73595669D01*
X137071719Y-74181833D01*
X137046030Y-74085959D01*
X136990079Y-73989048D01*
X136910952Y-73909921D01*
X136814041Y-73853970D01*
X136718165Y-73828280D01*
X137281594Y-73264852D01*
X137316242Y-73250500D01*
X137374674Y-73250500D01*
X137447740Y-73235966D01*
X137530601Y-73180601D01*
X137585966Y-73097740D01*
X137593774Y-73058488D01*
X137597464Y-73039940D01*
X137618299Y-73008758D01*
X137645522Y-73000500D01*
X139698918Y-73000500D01*
X139843913Y-72971658D01*
X139980495Y-72915084D01*
X140083501Y-72846256D01*
X140110724Y-72837999D01*
X140281517Y-72837999D01*
X140281518Y-72837999D01*
X140375304Y-72823146D01*
X140467680Y-72776078D01*
X140488335Y-72765554D01*
X140488337Y-72765552D01*
X140488342Y-72765550D01*
X140578050Y-72675842D01*
X140619188Y-72595104D01*
X140647704Y-72570749D01*
X140685091Y-72573691D01*
X140709448Y-72602209D01*
X140711845Y-72617641D01*
X140680659Y-77888184D01*
X140666103Y-77922747D01*
X140631370Y-77936893D01*
X140597012Y-77922542D01*
X140510406Y-77835936D01*
X140510404Y-77835935D01*
X140403175Y-77785933D01*
X140403174Y-77785932D01*
X140393401Y-77784645D01*
X140354316Y-77779500D01*
X140005684Y-77779500D01*
X139973112Y-77783788D01*
X139956825Y-77785932D01*
X139956824Y-77785933D01*
X139849595Y-77835935D01*
X139849593Y-77835936D01*
X139765936Y-77919593D01*
X139765935Y-77919595D01*
X139715933Y-78026824D01*
X139715932Y-78026825D01*
X139709500Y-78075687D01*
X139709500Y-78524312D01*
X139709499Y-78524312D01*
X139715932Y-78573174D01*
X139715933Y-78573175D01*
X139765935Y-78680404D01*
X139765936Y-78680406D01*
X139849593Y-78764063D01*
X139849594Y-78764063D01*
X139849596Y-78764065D01*
X139861206Y-78769479D01*
X139867095Y-78775904D01*
X139875148Y-78779240D01*
X139879268Y-78789186D01*
X139886544Y-78797126D01*
X139889500Y-78813888D01*
X139889500Y-78855233D01*
X139875148Y-78889881D01*
X139679881Y-79085148D01*
X139645233Y-79099500D01*
X139159238Y-79099500D01*
X139091105Y-79109427D01*
X139091103Y-79109428D01*
X138986019Y-79160801D01*
X138986015Y-79160803D01*
X138903303Y-79243515D01*
X138903301Y-79243519D01*
X138851928Y-79348603D01*
X138851927Y-79348605D01*
X138842000Y-79416738D01*
X138842000Y-79783261D01*
X138851927Y-79851394D01*
X138851928Y-79851396D01*
X138876145Y-79900933D01*
X138903302Y-79956483D01*
X138986017Y-80039198D01*
X139091107Y-80090573D01*
X139139384Y-80097606D01*
X139159238Y-80100500D01*
X139159240Y-80100500D01*
X140400762Y-80100500D01*
X140418090Y-80097974D01*
X140468893Y-80090573D01*
X140573983Y-80039198D01*
X140584138Y-80029042D01*
X140618783Y-80014691D01*
X140653432Y-80029041D01*
X140667785Y-80063689D01*
X140667784Y-80063981D01*
X140662416Y-80971105D01*
X140647860Y-81005668D01*
X140613127Y-81019814D01*
X140591172Y-81014474D01*
X140492808Y-80964355D01*
X140492805Y-80964354D01*
X140492804Y-80964354D01*
X140399019Y-80949500D01*
X140399017Y-80949500D01*
X140311164Y-80949500D01*
X140276516Y-80935148D01*
X140258415Y-80917047D01*
X140135496Y-80834917D01*
X140135491Y-80834915D01*
X140052407Y-80800500D01*
X139998911Y-80778341D01*
X139998904Y-80778339D01*
X139853922Y-80749500D01*
X139853917Y-80749500D01*
X139706083Y-80749500D01*
X139706079Y-80749500D01*
X139561094Y-80778340D01*
X139561085Y-80778342D01*
X139424505Y-80834915D01*
X139301580Y-80917050D01*
X139283481Y-80935149D01*
X139248835Y-80949500D01*
X139160982Y-80949500D01*
X139067196Y-80964353D01*
X138954164Y-81021945D01*
X138954157Y-81021950D01*
X138889960Y-81086148D01*
X138855312Y-81100500D01*
X137542154Y-81100500D01*
X137523403Y-81096770D01*
X137478915Y-81078342D01*
X137478906Y-81078340D01*
X137333921Y-81049500D01*
X137333918Y-81049500D01*
X136074082Y-81049500D01*
X136074078Y-81049500D01*
X135929093Y-81078340D01*
X135929084Y-81078342D01*
X135792507Y-81134914D01*
X135792503Y-81134916D01*
X135758941Y-81157341D01*
X135758942Y-81157342D01*
X135669584Y-81217047D01*
X135486048Y-81400583D01*
X135446069Y-81460418D01*
X135446068Y-81460417D01*
X135403916Y-81523503D01*
X135403914Y-81523507D01*
X135347342Y-81660084D01*
X135347340Y-81660093D01*
X135318500Y-81805078D01*
X135318500Y-84834921D01*
X135347340Y-84979906D01*
X135347342Y-84979915D01*
X135403914Y-85116492D01*
X135403916Y-85116496D01*
X135424783Y-85147726D01*
X135424784Y-85147726D01*
X135486048Y-85239416D01*
X135669584Y-85422952D01*
X135724376Y-85459562D01*
X135792505Y-85505084D01*
X135792507Y-85505085D01*
X135929084Y-85561657D01*
X135929085Y-85561657D01*
X135929087Y-85561658D01*
X136074082Y-85590500D01*
X137333918Y-85590500D01*
X137478913Y-85561658D01*
X137615495Y-85505084D01*
X137699793Y-85448757D01*
X137727016Y-85440500D01*
X137884674Y-85440500D01*
X137957740Y-85425966D01*
X138040601Y-85370601D01*
X138095966Y-85287740D01*
X138110500Y-85214674D01*
X138110500Y-84465326D01*
X138095966Y-84392260D01*
X138083214Y-84373175D01*
X138042488Y-84312222D01*
X138040768Y-84303578D01*
X138035587Y-84296450D01*
X138037367Y-84286475D01*
X138035172Y-84275440D01*
X138041445Y-84259407D01*
X138041948Y-84258585D01*
X138048867Y-84248231D01*
X138049144Y-84246836D01*
X138052082Y-84242040D01*
X138064368Y-84233109D01*
X138075108Y-84222366D01*
X138079149Y-84222365D01*
X138082417Y-84219990D01*
X138097419Y-84222362D01*
X138112611Y-84222360D01*
X138117327Y-84225510D01*
X138119460Y-84225848D01*
X138120996Y-84227962D01*
X138128515Y-84232985D01*
X138159593Y-84264063D01*
X138159595Y-84264064D01*
X138159596Y-84264065D01*
X138266827Y-84314068D01*
X138315684Y-84320500D01*
X138315687Y-84320500D01*
X138664312Y-84320500D01*
X138664316Y-84320500D01*
X138713173Y-84314068D01*
X138820404Y-84264065D01*
X138904065Y-84180404D01*
X138954068Y-84073173D01*
X138960500Y-84024316D01*
X138960500Y-83575684D01*
X138954068Y-83526827D01*
X138904065Y-83419596D01*
X138904064Y-83419595D01*
X138904063Y-83419593D01*
X138823543Y-83339073D01*
X138809191Y-83304425D01*
X138823543Y-83269777D01*
X138830098Y-83264278D01*
X138830395Y-83264069D01*
X138830404Y-83264065D01*
X138914065Y-83180404D01*
X138964068Y-83073173D01*
X138970500Y-83024316D01*
X138970500Y-82650500D01*
X138984852Y-82615852D01*
X139019500Y-82601500D01*
X139502918Y-82601500D01*
X139647913Y-82572658D01*
X139784495Y-82516084D01*
X139833728Y-82483187D01*
X139833729Y-82483187D01*
X139899256Y-82439404D01*
X139907416Y-82433952D01*
X140276516Y-82064850D01*
X140311164Y-82050499D01*
X140399017Y-82050499D01*
X140399018Y-82050499D01*
X140492804Y-82035646D01*
X140584891Y-81988724D01*
X140622278Y-81985782D01*
X140650795Y-82010138D01*
X140656135Y-82032674D01*
X140645222Y-83877032D01*
X140631571Y-83910676D01*
X138351707Y-86285535D01*
X138333135Y-86307178D01*
X138316386Y-86329055D01*
X138316387Y-86329056D01*
X138315664Y-86330002D01*
X138315663Y-86330004D01*
X138272073Y-86419657D01*
X138254367Y-86487250D01*
X138246139Y-86559497D01*
X138246139Y-86559504D01*
X138442658Y-93241174D01*
X138445103Y-93259540D01*
X138448250Y-93283188D01*
X138449585Y-93293213D01*
X138449586Y-93293221D01*
X138455705Y-93318753D01*
X138461393Y-93342488D01*
X138468468Y-93366679D01*
X138518885Y-93452681D01*
X138565301Y-93504905D01*
X138620859Y-93551835D01*
X139174884Y-93898100D01*
X139221470Y-93927216D01*
X139243245Y-93957750D01*
X139244500Y-93968768D01*
X139244500Y-94740402D01*
X139247203Y-94773608D01*
X139247863Y-94781724D01*
X139254351Y-94821313D01*
X139257019Y-94835178D01*
X139297129Y-94926436D01*
X139297132Y-94926440D01*
X139337184Y-94983691D01*
X139337188Y-94983695D01*
X139337190Y-94983698D01*
X139363035Y-95011261D01*
X139386928Y-95036742D01*
X139493106Y-95121684D01*
X139726110Y-95308087D01*
X139744200Y-95340939D01*
X139744500Y-95346350D01*
X139744500Y-95764435D01*
X139754400Y-95834869D01*
X139754401Y-95834872D01*
X139770582Y-95891294D01*
X139773251Y-95900598D01*
X139802182Y-95965568D01*
X139891578Y-96108602D01*
X139897771Y-96145590D01*
X139875996Y-96176124D01*
X139839008Y-96182317D01*
X139828113Y-96178399D01*
X139824609Y-96176647D01*
X139818686Y-96174500D01*
X139769048Y-96156508D01*
X139769047Y-96156507D01*
X139769045Y-96156507D01*
X139747144Y-96151336D01*
X139747128Y-96151333D01*
X139697794Y-96145590D01*
X139688433Y-96144500D01*
X134349498Y-96144500D01*
X134326126Y-96149149D01*
X134309059Y-96152544D01*
X134272277Y-96145227D01*
X134251441Y-96114044D01*
X134250500Y-96104485D01*
X134250500Y-93539362D01*
X134599500Y-93539362D01*
X134599500Y-93960637D01*
X134610134Y-94033626D01*
X134610135Y-94033628D01*
X134665172Y-94146208D01*
X134665173Y-94146210D01*
X134665174Y-94146211D01*
X134753789Y-94234826D01*
X134866375Y-94289866D01*
X134918094Y-94297401D01*
X134939362Y-94300500D01*
X134939364Y-94300500D01*
X135500500Y-94300500D01*
X135535148Y-94314852D01*
X135549500Y-94349500D01*
X135549500Y-94365895D01*
X135583607Y-94493184D01*
X135583608Y-94493188D01*
X135641343Y-94593186D01*
X135649500Y-94607314D01*
X135742686Y-94700500D01*
X135754490Y-94707315D01*
X135856811Y-94766391D01*
X135856813Y-94766391D01*
X135856814Y-94766392D01*
X135957207Y-94793292D01*
X135984104Y-94800499D01*
X135984105Y-94800500D01*
X135984108Y-94800500D01*
X136115895Y-94800500D01*
X136115895Y-94800499D01*
X136243186Y-94766392D01*
X136357314Y-94700500D01*
X136450500Y-94607314D01*
X136516392Y-94493186D01*
X136550499Y-94365895D01*
X136550500Y-94365895D01*
X136550500Y-94349500D01*
X136564852Y-94314852D01*
X136599500Y-94300500D01*
X137360638Y-94300500D01*
X137379201Y-94297795D01*
X137433625Y-94289866D01*
X137546211Y-94234826D01*
X137634826Y-94146211D01*
X137689866Y-94033625D01*
X137700500Y-93960636D01*
X137700500Y-93539364D01*
X137689866Y-93466375D01*
X137634826Y-93353789D01*
X137546211Y-93265174D01*
X137546210Y-93265173D01*
X137546208Y-93265172D01*
X137433628Y-93210135D01*
X137433626Y-93210134D01*
X137360638Y-93199500D01*
X137360636Y-93199500D01*
X134939364Y-93199500D01*
X134939362Y-93199500D01*
X134866373Y-93210134D01*
X134866371Y-93210135D01*
X134753791Y-93265172D01*
X134753787Y-93265175D01*
X134665175Y-93353787D01*
X134665172Y-93353791D01*
X134610135Y-93466371D01*
X134610134Y-93466373D01*
X134599500Y-93539362D01*
X134250500Y-93539362D01*
X134250500Y-93244767D01*
X134264852Y-93210119D01*
X134490963Y-92984008D01*
X134719887Y-92755083D01*
X134754534Y-92740732D01*
X134776054Y-92745710D01*
X134866375Y-92789866D01*
X134918094Y-92797401D01*
X134939362Y-92800500D01*
X134939364Y-92800500D01*
X137360638Y-92800500D01*
X137379201Y-92797795D01*
X137433625Y-92789866D01*
X137546211Y-92734826D01*
X137634826Y-92646211D01*
X137689866Y-92533625D01*
X137700500Y-92460636D01*
X137700500Y-92039364D01*
X137698140Y-92023169D01*
X137696802Y-92013983D01*
X137689866Y-91966375D01*
X137653172Y-91891317D01*
X137634827Y-91853791D01*
X137634826Y-91853790D01*
X137634826Y-91853789D01*
X137546211Y-91765174D01*
X137546210Y-91765173D01*
X137546208Y-91765172D01*
X137433628Y-91710135D01*
X137433626Y-91710134D01*
X137360638Y-91699500D01*
X137360636Y-91699500D01*
X134939364Y-91699500D01*
X134939362Y-91699500D01*
X134866373Y-91710134D01*
X134866371Y-91710135D01*
X134753791Y-91765172D01*
X134753787Y-91765175D01*
X134665175Y-91853787D01*
X134665173Y-91853791D01*
X134610134Y-91966374D01*
X134610134Y-91966375D01*
X134604203Y-92007081D01*
X134590363Y-92034664D01*
X133765489Y-92859540D01*
X133709541Y-92915488D01*
X133709540Y-92915488D01*
X133669979Y-92984008D01*
X133669979Y-92984010D01*
X133649500Y-93060436D01*
X130300500Y-93060436D01*
X130300500Y-87390000D01*
X131680137Y-87390000D01*
X132600254Y-87390000D01*
X132508393Y-87428050D01*
X132438063Y-87498380D01*
X132400001Y-87590270D01*
X132400001Y-87689730D01*
X132438063Y-87781620D01*
X132508393Y-87851950D01*
X132600254Y-87890000D01*
X131680137Y-87890000D01*
X131688429Y-87931689D01*
X131688429Y-87931690D01*
X131763809Y-88113674D01*
X131873246Y-88277460D01*
X132012539Y-88416753D01*
X132176325Y-88526190D01*
X132358310Y-88601570D01*
X132551512Y-88640000D01*
X132750000Y-88640000D01*
X132750000Y-87890012D01*
X133250000Y-87890012D01*
X133250000Y-88640000D01*
X133448488Y-88640000D01*
X133641689Y-88601570D01*
X133641690Y-88601570D01*
X133823674Y-88526190D01*
X133987460Y-88416753D01*
X134126753Y-88277460D01*
X134236190Y-88113674D01*
X134311570Y-87931690D01*
X134311570Y-87931689D01*
X134319863Y-87890000D01*
X133399746Y-87890000D01*
X133491607Y-87851950D01*
X133561937Y-87781620D01*
X133599999Y-87689730D01*
X133599999Y-87590270D01*
X133561937Y-87498380D01*
X133491607Y-87428050D01*
X133399746Y-87390000D01*
X134319862Y-87390000D01*
X135490137Y-87390000D01*
X136410254Y-87390000D01*
X136318393Y-87428050D01*
X136248063Y-87498380D01*
X136210001Y-87590270D01*
X136210001Y-87689730D01*
X136248063Y-87781620D01*
X136318393Y-87851950D01*
X136410254Y-87890000D01*
X135490137Y-87890000D01*
X135498429Y-87931689D01*
X135498429Y-87931690D01*
X135573809Y-88113674D01*
X135683246Y-88277460D01*
X135822539Y-88416753D01*
X135986325Y-88526190D01*
X136168310Y-88601570D01*
X136361512Y-88640000D01*
X136560000Y-88640000D01*
X136560000Y-87890012D01*
X137060000Y-87890012D01*
X137060000Y-88640000D01*
X137258488Y-88640000D01*
X137451689Y-88601570D01*
X137451690Y-88601570D01*
X137633674Y-88526190D01*
X137797460Y-88416753D01*
X137936753Y-88277460D01*
X138046190Y-88113674D01*
X138121570Y-87931690D01*
X138121570Y-87931689D01*
X138129863Y-87890000D01*
X137209746Y-87890000D01*
X137301607Y-87851950D01*
X137371937Y-87781620D01*
X137409999Y-87689730D01*
X137409999Y-87590270D01*
X137371937Y-87498380D01*
X137301607Y-87428050D01*
X137209746Y-87390000D01*
X138129862Y-87390000D01*
X138121570Y-87348310D01*
X138121570Y-87348309D01*
X138046190Y-87166325D01*
X137936753Y-87002539D01*
X137797460Y-86863246D01*
X137633674Y-86753809D01*
X137451689Y-86678429D01*
X137258488Y-86640000D01*
X137060000Y-86640000D01*
X137060000Y-87389988D01*
X136560000Y-87389988D01*
X136560000Y-86640000D01*
X136361512Y-86640000D01*
X136168310Y-86678429D01*
X136168309Y-86678429D01*
X135986325Y-86753809D01*
X135822539Y-86863246D01*
X135683246Y-87002539D01*
X135573809Y-87166325D01*
X135498429Y-87348309D01*
X135498429Y-87348310D01*
X135490137Y-87390000D01*
X134319862Y-87390000D01*
X134311570Y-87348310D01*
X134311570Y-87348309D01*
X134236190Y-87166325D01*
X134126753Y-87002539D01*
X133987460Y-86863246D01*
X133823674Y-86753809D01*
X133641689Y-86678429D01*
X133448488Y-86640000D01*
X133250000Y-86640000D01*
X133250000Y-87389988D01*
X132750000Y-87389988D01*
X132750000Y-86640000D01*
X132551512Y-86640000D01*
X132358310Y-86678429D01*
X132358309Y-86678429D01*
X132176325Y-86753809D01*
X132012539Y-86863246D01*
X131873246Y-87002539D01*
X131763809Y-87166325D01*
X131688429Y-87348309D01*
X131688429Y-87348310D01*
X131680137Y-87390000D01*
X130300500Y-87390000D01*
X130300500Y-78750000D01*
X131680137Y-78750000D01*
X132600254Y-78750000D01*
X132508393Y-78788050D01*
X132438063Y-78858380D01*
X132400001Y-78950270D01*
X132400001Y-79049730D01*
X132438063Y-79141620D01*
X132508393Y-79211950D01*
X132600254Y-79250000D01*
X131680137Y-79250000D01*
X131688429Y-79291689D01*
X131688429Y-79291690D01*
X131763809Y-79473674D01*
X131873246Y-79637460D01*
X132012539Y-79776753D01*
X132176325Y-79886190D01*
X132358310Y-79961570D01*
X132551512Y-80000000D01*
X132750000Y-80000000D01*
X132750000Y-79250012D01*
X133250000Y-79250012D01*
X133250000Y-80000000D01*
X133448488Y-80000000D01*
X133641689Y-79961570D01*
X133641690Y-79961570D01*
X133823674Y-79886190D01*
X133987460Y-79776753D01*
X134126753Y-79637460D01*
X134236190Y-79473674D01*
X134311570Y-79291690D01*
X134311570Y-79291689D01*
X134319863Y-79250000D01*
X133399746Y-79250000D01*
X133491607Y-79211950D01*
X133561937Y-79141620D01*
X133599999Y-79049730D01*
X133599999Y-78950270D01*
X133561937Y-78858380D01*
X133491607Y-78788050D01*
X133399746Y-78750000D01*
X134319862Y-78750000D01*
X135490137Y-78750000D01*
X136410254Y-78750000D01*
X136318393Y-78788050D01*
X136248063Y-78858380D01*
X136210001Y-78950270D01*
X136210001Y-79049730D01*
X136248063Y-79141620D01*
X136318393Y-79211950D01*
X136410254Y-79250000D01*
X135490137Y-79250000D01*
X135498429Y-79291689D01*
X135498429Y-79291690D01*
X135573809Y-79473674D01*
X135683246Y-79637460D01*
X135822539Y-79776753D01*
X135986325Y-79886190D01*
X136168310Y-79961570D01*
X136361512Y-80000000D01*
X136560000Y-80000000D01*
X136560000Y-79250012D01*
X137060000Y-79250012D01*
X137060000Y-80000000D01*
X137258488Y-80000000D01*
X137451689Y-79961570D01*
X137451690Y-79961570D01*
X137633674Y-79886190D01*
X137797460Y-79776753D01*
X137936753Y-79637460D01*
X138046190Y-79473674D01*
X138121570Y-79291690D01*
X138121570Y-79291689D01*
X138129863Y-79250000D01*
X137209746Y-79250000D01*
X137301607Y-79211950D01*
X137371937Y-79141620D01*
X137409999Y-79049730D01*
X137409999Y-78950270D01*
X137371937Y-78858380D01*
X137301607Y-78788050D01*
X137209746Y-78750000D01*
X138129862Y-78750000D01*
X138121570Y-78708310D01*
X138121570Y-78708309D01*
X138046190Y-78526325D01*
X137936753Y-78362539D01*
X137797460Y-78223246D01*
X137633674Y-78113809D01*
X137451689Y-78038429D01*
X137258488Y-78000000D01*
X137060000Y-78000000D01*
X137060000Y-78749988D01*
X136560000Y-78749988D01*
X136560000Y-78000000D01*
X136361512Y-78000000D01*
X136168310Y-78038429D01*
X136168309Y-78038429D01*
X135986325Y-78113809D01*
X135822539Y-78223246D01*
X135683246Y-78362539D01*
X135573809Y-78526325D01*
X135498429Y-78708309D01*
X135498429Y-78708310D01*
X135490137Y-78750000D01*
X134319862Y-78750000D01*
X134311570Y-78708310D01*
X134311570Y-78708309D01*
X134236190Y-78526325D01*
X134126753Y-78362539D01*
X133987460Y-78223246D01*
X133823674Y-78113809D01*
X133641689Y-78038429D01*
X133448488Y-78000000D01*
X133250000Y-78000000D01*
X133250000Y-78749988D01*
X132750000Y-78749988D01*
X132750000Y-78000000D01*
X132551512Y-78000000D01*
X132358310Y-78038429D01*
X132358309Y-78038429D01*
X132176325Y-78113809D01*
X132012539Y-78223246D01*
X131873246Y-78362539D01*
X131763809Y-78526325D01*
X131688429Y-78708309D01*
X131688429Y-78708310D01*
X131680137Y-78750000D01*
X130300500Y-78750000D01*
X130300500Y-62501487D01*
X130300589Y-62498529D01*
X130316358Y-62237831D01*
X130316359Y-62237830D01*
X130316358Y-62237822D01*
X130317070Y-62231967D01*
X130363879Y-61976534D01*
X130365291Y-61970804D01*
X130442552Y-61722869D01*
X130444645Y-61717351D01*
X130551228Y-61480531D01*
X130553963Y-61475318D01*
X130688318Y-61253070D01*
X130691670Y-61248214D01*
X130851831Y-61043784D01*
X130855739Y-61039373D01*
X131039373Y-60855739D01*
X131043784Y-60851831D01*
X131248214Y-60691670D01*
X131253070Y-60688318D01*
X131475318Y-60553963D01*
X131480531Y-60551228D01*
X131717351Y-60444645D01*
X131722869Y-60442552D01*
X131970804Y-60365291D01*
X131976534Y-60363879D01*
X132231967Y-60317070D01*
X132237822Y-60316358D01*
X132462154Y-60302789D01*
X132498530Y-60300589D01*
X132501488Y-60300500D01*
X132547595Y-60300500D01*
X177452405Y-60300500D01*
X177498512Y-60300500D01*
X177501470Y-60300589D01*
G37*
%TD.AperFunction*%
%TD*%
%TA.AperFunction,Conductor*%
%TO.N,PGND*%
G36*
X143580419Y-86711624D02*
G01*
X143660511Y-86732776D01*
X143682271Y-86745132D01*
X143714509Y-86776682D01*
X143736769Y-86798466D01*
X143749592Y-86819955D01*
X143772466Y-86899569D01*
X143774360Y-86912043D01*
X143785000Y-87405000D01*
X143800000Y-88100000D01*
X147895177Y-88100000D01*
X147904736Y-88100942D01*
X147966975Y-88113322D01*
X147984640Y-88120638D01*
X148033319Y-88153165D01*
X148046834Y-88166680D01*
X148063098Y-88191021D01*
X148079361Y-88215360D01*
X148086677Y-88233023D01*
X148099058Y-88295263D01*
X148100000Y-88304823D01*
X148100000Y-91695176D01*
X148099058Y-91704736D01*
X148086677Y-91766976D01*
X148079361Y-91784639D01*
X148046836Y-91833317D01*
X148033317Y-91846836D01*
X147984639Y-91879361D01*
X147966976Y-91886677D01*
X147919275Y-91896165D01*
X147904734Y-91899058D01*
X147895177Y-91900000D01*
X143800000Y-91900000D01*
X143796740Y-92096686D01*
X143774056Y-93465233D01*
X143759711Y-93499069D01*
X143563134Y-93695648D01*
X143528486Y-93710000D01*
X143512248Y-93710000D01*
X143482884Y-93700227D01*
X143403097Y-93640500D01*
X143385950Y-93627664D01*
X143316110Y-93601615D01*
X143259518Y-93580507D01*
X143203636Y-93574500D01*
X143203630Y-93574500D01*
X142676370Y-93574500D01*
X142676364Y-93574500D01*
X142620481Y-93580507D01*
X142522344Y-93617110D01*
X142494050Y-93627664D01*
X142494049Y-93627664D01*
X142494048Y-93627665D01*
X142397116Y-93700227D01*
X142367752Y-93710000D01*
X142200000Y-93710000D01*
X142200000Y-96241838D01*
X142195409Y-96262546D01*
X142175501Y-96305238D01*
X142175501Y-96305240D01*
X142169502Y-96350812D01*
X142169500Y-96350824D01*
X142169500Y-96549174D01*
X142169501Y-96549179D01*
X142175500Y-96594757D01*
X142175500Y-96594758D01*
X142175501Y-96594760D01*
X142195409Y-96637454D01*
X142200000Y-96658160D01*
X142200000Y-96741838D01*
X142195409Y-96762546D01*
X142175501Y-96805238D01*
X142175501Y-96805240D01*
X142169502Y-96850812D01*
X142169500Y-96850824D01*
X142169500Y-97049174D01*
X142169501Y-97049179D01*
X142175500Y-97094757D01*
X142175500Y-97094758D01*
X142175501Y-97094760D01*
X142195409Y-97137454D01*
X142200000Y-97158160D01*
X142200000Y-97241838D01*
X142195409Y-97262546D01*
X142175501Y-97305238D01*
X142175501Y-97305240D01*
X142169502Y-97350812D01*
X142169500Y-97350824D01*
X142169500Y-97549174D01*
X142169501Y-97549179D01*
X142175500Y-97594757D01*
X142175500Y-97594758D01*
X142175501Y-97594760D01*
X142195409Y-97637454D01*
X142200000Y-97658160D01*
X142200000Y-97741838D01*
X142195409Y-97762546D01*
X142175501Y-97805238D01*
X142169500Y-97850824D01*
X142169500Y-98049174D01*
X142169501Y-98049179D01*
X142175500Y-98094757D01*
X142175500Y-98094758D01*
X142175501Y-98094760D01*
X142195409Y-98137454D01*
X142200000Y-98158160D01*
X142200000Y-99100000D01*
X145095177Y-99100000D01*
X145104736Y-99100942D01*
X145166975Y-99113322D01*
X145184640Y-99120638D01*
X145233319Y-99153165D01*
X145246834Y-99166680D01*
X145263098Y-99191021D01*
X145279361Y-99215360D01*
X145286677Y-99233023D01*
X145299058Y-99295263D01*
X145300000Y-99304823D01*
X145300000Y-99424733D01*
X145285648Y-99459381D01*
X145239541Y-99505488D01*
X145239540Y-99505488D01*
X145199979Y-99574008D01*
X145199979Y-99574010D01*
X145179500Y-99650436D01*
X145179500Y-99729563D01*
X145199979Y-99805989D01*
X145199979Y-99805991D01*
X145239540Y-99874511D01*
X145285648Y-99920619D01*
X145300000Y-99955267D01*
X145300000Y-100095176D01*
X145299058Y-100104736D01*
X145286677Y-100166976D01*
X145279361Y-100184639D01*
X145246836Y-100233317D01*
X145233317Y-100246836D01*
X145184639Y-100279361D01*
X145166976Y-100286677D01*
X145119275Y-100296165D01*
X145104734Y-100299058D01*
X145095177Y-100300000D01*
X140708767Y-100300000D01*
X140699092Y-100299035D01*
X140636133Y-100286354D01*
X140618294Y-100278865D01*
X140569272Y-100245595D01*
X140555725Y-100231784D01*
X140523406Y-100182134D01*
X140516261Y-100164155D01*
X140504791Y-100100956D01*
X140504013Y-100091281D01*
X140519963Y-99261923D01*
X140520000Y-99260000D01*
X140520000Y-98064823D01*
X140520939Y-98055274D01*
X140533323Y-97993018D01*
X140540638Y-97975360D01*
X140573167Y-97926677D01*
X140586677Y-97913167D01*
X140635361Y-97880637D01*
X140653018Y-97873323D01*
X140715274Y-97860939D01*
X140724823Y-97860000D01*
X141270000Y-97860000D01*
X141270000Y-97556188D01*
X141270419Y-97549793D01*
X141270500Y-97549179D01*
X141270499Y-97350822D01*
X141270419Y-97350211D01*
X141270000Y-97343820D01*
X141270000Y-97056188D01*
X141270419Y-97049793D01*
X141270500Y-97049179D01*
X141270499Y-96850822D01*
X141270419Y-96850211D01*
X141270000Y-96843820D01*
X141270000Y-96556188D01*
X141270419Y-96549793D01*
X141270500Y-96549179D01*
X141270499Y-96350822D01*
X141270419Y-96350211D01*
X141270000Y-96343820D01*
X141270000Y-95910000D01*
X141126449Y-95910000D01*
X141113767Y-95908330D01*
X141057682Y-95893302D01*
X141035716Y-95880620D01*
X140999379Y-95844283D01*
X140986698Y-95822320D01*
X140971668Y-95766226D01*
X140970000Y-95753550D01*
X140970000Y-86914823D01*
X140970939Y-86905274D01*
X140983323Y-86843018D01*
X140990638Y-86825360D01*
X141023167Y-86776677D01*
X141036677Y-86763167D01*
X141085361Y-86730637D01*
X141103018Y-86723323D01*
X141165274Y-86710939D01*
X141174823Y-86710000D01*
X143567907Y-86710000D01*
X143580419Y-86711624D01*
G37*
%TD.AperFunction*%
%TD*%
M02*
