M48
; DRILL file {KiCad 9.0.7} date 2026-02-17T00:08:55-0800
; FORMAT={-:-/ absolute / inch / decimal}
; #@! TF.CreationDate,2026-02-17T00:08:55-08:00
; #@! TF.GenerationSoftware,Kicad,Pcbnew,9.0.7
; #@! TF.FileFunction,Plated,1,4,PTH
FMAT,2
INCH
; #@! TA.AperFunction,Plated,PTH,ViaDrill
T1C0.0079
; #@! TA.AperFunction,Plated,PTH,ViaDrill
T2C0.0118
; #@! TA.AperFunction,Plated,PTH,ViaDrill
T3C0.0197
; #@! TA.AperFunction,Plated,PTH,ComponentDrill
T4C0.0197
; #@! TA.AperFunction,Plated,PTH,ComponentDrill
T5C0.0335
; #@! TA.AperFunction,Plated,PTH,ComponentDrill
T6C0.0866
%
G90
G05
T1
X5.5665Y-3.8008
X5.5665Y-3.8193
X5.5669Y-3.8378
X5.5669Y-3.8563
X5.5917Y-3.8008
X5.5917Y-3.8193
X5.5921Y-3.8378
X5.5921Y-3.8563
X5.6429Y-3.8362
X5.678Y-4.135
X5.6947Y-3.8683
X6.4528Y-3.6585
X6.4528Y-3.6821
X6.4528Y-3.7047
X6.4764Y-3.6575
X6.4764Y-3.6811
X6.4764Y-3.7037
X6.501Y-3.6575
X6.501Y-3.6811
X6.501Y-3.7037
T2
X5.1693Y-4.1181
X5.1732Y-2.5748
X5.1929Y-3.5276
X5.1929Y-3.9764
X5.2087Y-2.8186
X5.2087Y-2.8462
X5.2087Y-2.8739
X5.2087Y-2.9015
X5.2087Y-2.9291
X5.2087Y-3.2123
X5.2087Y-3.2399
X5.2087Y-3.2676
X5.2087Y-3.2952
X5.2087Y-3.3228
X5.2087Y-3.6847
X5.2087Y-3.7124
X5.2087Y-3.74
X5.2087Y-3.7676
X5.2087Y-3.7953
X5.2165Y-2.5748
X5.2165Y-4.1181
X5.2323Y-3.9764
X5.2362Y-2.8187
X5.2362Y-2.8464
X5.2362Y-2.874
X5.2362Y-2.9017
X5.2362Y-2.9293
X5.2362Y-3.2124
X5.2362Y-3.2401
X5.2362Y-3.2677
X5.2362Y-3.2954
X5.2362Y-3.323
X5.2362Y-3.5276
X5.2362Y-3.6849
X5.2362Y-3.7125
X5.2362Y-3.7402
X5.2362Y-3.7678
X5.2362Y-3.7954
X5.2638Y-2.5748
X5.2677Y-4.1181
X5.2993Y-3.8094
X5.3Y-3.8681
X5.3246Y-2.689
X5.3248Y-2.6614
X5.3523Y-2.689
X5.3524Y-2.6614
X5.3563Y-3.7126
X5.3799Y-2.689
X5.3801Y-2.6614
X5.3976Y-3.7283
X5.4076Y-2.689
X5.4077Y-2.6614
X5.4352Y-2.689
X5.4354Y-2.6614
X5.4369Y-4.0157
X5.437Y-3.9882
X5.4645Y-4.0157
X5.4646Y-3.9882
X5.4831Y-4.1358
X5.4921Y-4.0157
X5.4923Y-3.9882
X5.5198Y-4.0157
X5.5199Y-3.9882
X5.5474Y-4.0157
X5.5476Y-3.9882
X5.5504Y-3.8894
X5.5831Y-3.8898
X5.6102Y-2.4764
X5.6311Y-3.665
X5.6319Y-3.4776
X5.6319Y-3.6197
X5.6323Y-3.4366
X5.6323Y-3.5669
X5.6327Y-3.5319
X5.6673Y-3.2165
X5.6791Y-3.7795
X5.6949Y-3.1969
X5.7047Y-3.7795
X5.7063Y-3.665
X5.7126Y-3.502
X5.7126Y-3.5433
X5.7126Y-3.5846
X5.7146Y-3.7126
X5.7165Y-3.1575
X5.7441Y-3.502
X5.7441Y-3.5433
X5.7441Y-3.5846
X5.7795Y-2.6808
X5.7795Y-2.7084
X5.7795Y-2.7361
X5.7795Y-2.7637
X5.7795Y-2.7913
X5.7864Y-3.2726
X5.7874Y-3.0748
X5.7874Y-4.0709
X5.8071Y-2.6809
X5.8071Y-2.7086
X5.8071Y-2.7362
X5.8071Y-2.7639
X5.8071Y-2.7915
X5.8189Y-3.811
X5.8228Y-3.8701
X5.9683Y-4.0157
X5.9685Y-3.9882
X5.9886Y-3.2291
X5.9894Y-3.2657
X5.996Y-4.0157
X5.9961Y-3.9882
X6.0236Y-4.0157
X6.0238Y-3.9882
X6.0513Y-4.0157
X6.0514Y-3.9882
X6.0789Y-4.0157
X6.0791Y-3.9882
X6.0969Y-3.2657
X6.1024Y-4.0709
X6.1258Y-3.563
X6.126Y-3.5354
X6.1339Y-3.2402
X6.152Y-3.4331
X6.1535Y-3.563
X6.1536Y-3.5354
X6.1552Y-3.8445
X6.1554Y-3.8169
X6.1724Y-3.2657
X6.1811Y-3.563
X6.1813Y-3.5354
X6.1828Y-3.8445
X6.183Y-3.8169
X6.2087Y-3.563
X6.2089Y-3.5354
X6.2105Y-3.8445
X6.2106Y-3.8169
X6.2243Y-4.0748
X6.2244Y-4.0472
X6.2364Y-3.563
X6.2365Y-3.5354
X6.2381Y-3.8445
X6.2383Y-3.8169
X6.2484Y-3.2657
X6.2519Y-4.0748
X6.252Y-4.0472
X6.2657Y-3.8445
X6.2659Y-3.8169
X6.2795Y-4.0748
X6.2797Y-4.0472
X6.3072Y-4.0748
X6.3073Y-4.0472
X6.3268Y-3.6535
X6.3348Y-4.0748
X6.335Y-4.0472
X6.3465Y-3.3705
X6.3474Y-3.439
X6.3583Y-3.6772
X6.3701Y-3.8189
X6.3709Y-3.8543
X6.374Y-3.7087
X6.3788Y-3.369
X6.4204Y-3.4892
X6.4213Y-3.5457
X6.4252Y-3.4555
X6.4331Y-3.4186
X6.4605Y-4.0748
X6.4606Y-4.0472
X6.4768Y-3.9921
X6.4881Y-4.0748
X6.4883Y-4.0472
X6.4961Y-3.5264
X6.503Y-3.5846
X6.5157Y-4.0748
X6.5159Y-4.0472
X6.5266Y-2.9272
X6.5391Y-2.6378
X6.5392Y-2.6102
X6.5416Y-3.7238
X6.5434Y-4.0748
X6.5435Y-4.0472
X6.5531Y-2.7894
X6.5605Y-3.6474
X6.563Y-3.5984
X6.5667Y-2.6378
X6.5669Y-2.6102
X6.5675Y-3.7047
X6.571Y-4.0748
X6.5712Y-4.0472
X6.5791Y-3.2409
X6.5791Y-3.4043
X6.5943Y-2.6378
X6.5945Y-2.6102
X6.598Y-3.7165
X6.6028Y-3.4736
X6.622Y-2.6378
X6.6221Y-2.6102
X6.6429Y-3.2705
X6.6429Y-3.3756
X6.6429Y-3.474
X6.6496Y-2.6378
X6.6498Y-2.6102
X6.6575Y-3.7795
X6.6575Y-4.1339
X6.6811Y-2.8091
X6.7047Y-3.98
X6.7047Y-4.0076
X6.7047Y-4.0353
X6.7047Y-4.0629
X6.7047Y-4.0906
X6.7323Y-3.9802
X6.7323Y-4.0078
X6.7323Y-4.0354
X6.7323Y-4.0631
X6.7323Y-4.0907
X6.7362Y-2.7126
X6.7362Y-2.748
X6.7362Y-2.9921
X6.7362Y-3.0236
X6.7677Y-3.7496
X6.7913Y-3.8386
X6.7913Y-3.8976
X6.7913Y-4.1299
X6.8226Y-2.685
X6.8228Y-2.6575
X6.8327Y-2.8091
X6.8346Y-2.9272
X6.8502Y-2.685
X6.8504Y-2.6575
X6.8618Y-2.5579
X6.9063Y-3.2224
X6.9134Y-3.2992
X6.9134Y-3.3583
X6.9134Y-3.4173
X6.9134Y-3.4764
X6.9134Y-3.8386
X6.9134Y-3.8976
X6.937Y-2.5748
X6.9449Y-2.7126
X6.9449Y-2.7441
X6.9449Y-2.9921
X6.9449Y-3.0236
X6.9449Y-4.1181
X6.9764Y-3.0748
X6.9764Y-4.0039
X6.9803Y-3.2713
X6.9803Y-3.299
X6.9803Y-3.3266
X6.9803Y-3.3543
X6.9803Y-3.3819
X6.9803Y-3.5827
X6.9803Y-3.6142
X6.9803Y-3.7438
X6.9803Y-3.7714
X6.9803Y-3.7991
X6.9803Y-3.8267
X6.9803Y-3.8543
X6.9882Y-2.5748
X6.9882Y-4.1181
X6.9961Y-2.8091
X7.0079Y-3.2715
X7.0079Y-3.2991
X7.0079Y-3.3268
X7.0079Y-3.3544
X7.0079Y-3.382
X7.0079Y-3.7439
X7.0079Y-3.7716
X7.0079Y-3.7992
X7.0079Y-3.8269
X7.0079Y-3.8545
X7.0157Y-3.0748
X7.0157Y-4.0039
X7.0197Y-3.5827
X7.0197Y-3.6142
X7.0276Y-2.807
X7.0276Y-2.8346
X7.0276Y-2.8623
X7.0276Y-2.8899
X7.0276Y-2.9176
X7.0276Y-4.1181
X7.0354Y-2.5748
T3
X5.4354Y-3.1732
X5.7244Y-2.6171
X6.5571Y-2.8681
X6.8425Y-2.8681
T5
X5.3799Y-2.8445
X5.3799Y-2.9232
T6
X5.2264Y-2.4705
X5.2264Y-4.2224
X6.9783Y-2.4705
X6.9783Y-4.2224
T4
G00X5.25Y-3.1102
M15
G01X5.2224Y-3.1102
M16
G05
G00X5.25Y-3.4504
M15
G01X5.2224Y-3.4504
M16
G05
G00X5.4Y-3.1102
M15
G01X5.3724Y-3.1102
M16
G05
G00X5.4Y-3.4504
M15
G01X5.3724Y-3.4504
M16
G05
M30
