%TF.GenerationSoftware,KiCad,Pcbnew,9.0.7*%
%TF.CreationDate,2026-02-17T00:08:55-08:00*%
%TF.ProjectId,servo-dev-board-ch32v006,73657276-6f2d-4646-9576-2d626f617264,rev?*%
%TF.SameCoordinates,Original*%
%TF.FileFunction,Legend,Bot*%
%TF.FilePolarity,Positive*%
%FSLAX46Y46*%
G04 Gerber Fmt 4.6, Leading zero omitted, Abs format (unit mm)*
G04 Created by KiCad (PCBNEW 9.0.7) date 2026-02-17 00:08:55*
%MOMM*%
%LPD*%
G01*
G04 APERTURE LIST*
%ADD10C,0.150000*%
%ADD11C,3.500000*%
%ADD12R,1.400000X1.500000*%
%ADD13C,1.400000*%
%ADD14O,1.700000X1.000000*%
G04 APERTURE END LIST*
D10*
X130929819Y-91321428D02*
X131644104Y-91321428D01*
X131644104Y-91321428D02*
X131786961Y-91273809D01*
X131786961Y-91273809D02*
X131882200Y-91178571D01*
X131882200Y-91178571D02*
X131929819Y-91035714D01*
X131929819Y-91035714D02*
X131929819Y-90940476D01*
X131882200Y-91750000D02*
X131929819Y-91892857D01*
X131929819Y-91892857D02*
X131929819Y-92130952D01*
X131929819Y-92130952D02*
X131882200Y-92226190D01*
X131882200Y-92226190D02*
X131834580Y-92273809D01*
X131834580Y-92273809D02*
X131739342Y-92321428D01*
X131739342Y-92321428D02*
X131644104Y-92321428D01*
X131644104Y-92321428D02*
X131548866Y-92273809D01*
X131548866Y-92273809D02*
X131501247Y-92226190D01*
X131501247Y-92226190D02*
X131453628Y-92130952D01*
X131453628Y-92130952D02*
X131406009Y-91940476D01*
X131406009Y-91940476D02*
X131358390Y-91845238D01*
X131358390Y-91845238D02*
X131310771Y-91797619D01*
X131310771Y-91797619D02*
X131215533Y-91750000D01*
X131215533Y-91750000D02*
X131120295Y-91750000D01*
X131120295Y-91750000D02*
X131025057Y-91797619D01*
X131025057Y-91797619D02*
X130977438Y-91845238D01*
X130977438Y-91845238D02*
X130929819Y-91940476D01*
X130929819Y-91940476D02*
X130929819Y-92178571D01*
X130929819Y-92178571D02*
X130977438Y-92321428D01*
X130929819Y-92607143D02*
X130929819Y-93178571D01*
X131929819Y-92892857D02*
X130929819Y-92892857D01*
X131548866Y-93511905D02*
X131548866Y-94273810D01*
X130929819Y-94654762D02*
X130929819Y-95321428D01*
X130929819Y-95321428D02*
X131929819Y-94654762D01*
X131929819Y-94654762D02*
X131929819Y-95321428D01*
X131929819Y-95702381D02*
X130929819Y-95702381D01*
X131406009Y-95702381D02*
X131406009Y-96273809D01*
X131929819Y-96273809D02*
X130929819Y-96273809D01*
X131548866Y-96750000D02*
X131548866Y-97511905D01*
X130929819Y-98464285D02*
X130929819Y-97988095D01*
X130929819Y-97988095D02*
X131406009Y-97940476D01*
X131406009Y-97940476D02*
X131358390Y-97988095D01*
X131358390Y-97988095D02*
X131310771Y-98083333D01*
X131310771Y-98083333D02*
X131310771Y-98321428D01*
X131310771Y-98321428D02*
X131358390Y-98416666D01*
X131358390Y-98416666D02*
X131406009Y-98464285D01*
X131406009Y-98464285D02*
X131501247Y-98511904D01*
X131501247Y-98511904D02*
X131739342Y-98511904D01*
X131739342Y-98511904D02*
X131834580Y-98464285D01*
X131834580Y-98464285D02*
X131882200Y-98416666D01*
X131882200Y-98416666D02*
X131929819Y-98321428D01*
X131929819Y-98321428D02*
X131929819Y-98083333D01*
X131929819Y-98083333D02*
X131882200Y-97988095D01*
X131882200Y-97988095D02*
X131834580Y-97940476D01*
X131929819Y-98940476D02*
X130929819Y-98940476D01*
X130929819Y-98940476D02*
X130929819Y-99321428D01*
X130929819Y-99321428D02*
X130977438Y-99416666D01*
X130977438Y-99416666D02*
X131025057Y-99464285D01*
X131025057Y-99464285D02*
X131120295Y-99511904D01*
X131120295Y-99511904D02*
X131263152Y-99511904D01*
X131263152Y-99511904D02*
X131358390Y-99464285D01*
X131358390Y-99464285D02*
X131406009Y-99416666D01*
X131406009Y-99416666D02*
X131453628Y-99321428D01*
X131453628Y-99321428D02*
X131453628Y-98940476D01*
X179460180Y-76778571D02*
X178745895Y-76778571D01*
X178745895Y-76778571D02*
X178603038Y-76826190D01*
X178603038Y-76826190D02*
X178507800Y-76921428D01*
X178507800Y-76921428D02*
X178460180Y-77064285D01*
X178460180Y-77064285D02*
X178460180Y-77159523D01*
X178507800Y-76349999D02*
X178460180Y-76207142D01*
X178460180Y-76207142D02*
X178460180Y-75969047D01*
X178460180Y-75969047D02*
X178507800Y-75873809D01*
X178507800Y-75873809D02*
X178555419Y-75826190D01*
X178555419Y-75826190D02*
X178650657Y-75778571D01*
X178650657Y-75778571D02*
X178745895Y-75778571D01*
X178745895Y-75778571D02*
X178841133Y-75826190D01*
X178841133Y-75826190D02*
X178888752Y-75873809D01*
X178888752Y-75873809D02*
X178936371Y-75969047D01*
X178936371Y-75969047D02*
X178983990Y-76159523D01*
X178983990Y-76159523D02*
X179031609Y-76254761D01*
X179031609Y-76254761D02*
X179079228Y-76302380D01*
X179079228Y-76302380D02*
X179174466Y-76349999D01*
X179174466Y-76349999D02*
X179269704Y-76349999D01*
X179269704Y-76349999D02*
X179364942Y-76302380D01*
X179364942Y-76302380D02*
X179412561Y-76254761D01*
X179412561Y-76254761D02*
X179460180Y-76159523D01*
X179460180Y-76159523D02*
X179460180Y-75921428D01*
X179460180Y-75921428D02*
X179412561Y-75778571D01*
X179460180Y-75492856D02*
X179460180Y-74921428D01*
X178460180Y-75207142D02*
X179460180Y-75207142D01*
X178841133Y-74588094D02*
X178841133Y-73826190D01*
X179460180Y-73445237D02*
X179460180Y-72778571D01*
X179460180Y-72778571D02*
X178460180Y-73445237D01*
X178460180Y-73445237D02*
X178460180Y-72778571D01*
X178460180Y-72397618D02*
X179460180Y-72397618D01*
X178983990Y-72397618D02*
X178983990Y-71826190D01*
X178460180Y-71826190D02*
X179460180Y-71826190D01*
X178841133Y-71349999D02*
X178841133Y-70588095D01*
X179460180Y-70207142D02*
X179460180Y-69588095D01*
X179460180Y-69588095D02*
X179079228Y-69921428D01*
X179079228Y-69921428D02*
X179079228Y-69778571D01*
X179079228Y-69778571D02*
X179031609Y-69683333D01*
X179031609Y-69683333D02*
X178983990Y-69635714D01*
X178983990Y-69635714D02*
X178888752Y-69588095D01*
X178888752Y-69588095D02*
X178650657Y-69588095D01*
X178650657Y-69588095D02*
X178555419Y-69635714D01*
X178555419Y-69635714D02*
X178507800Y-69683333D01*
X178507800Y-69683333D02*
X178460180Y-69778571D01*
X178460180Y-69778571D02*
X178460180Y-70064285D01*
X178460180Y-70064285D02*
X178507800Y-70159523D01*
X178507800Y-70159523D02*
X178555419Y-70207142D01*
X178460180Y-69159523D02*
X179460180Y-69159523D01*
X179460180Y-69159523D02*
X179460180Y-68778571D01*
X179460180Y-68778571D02*
X179412561Y-68683333D01*
X179412561Y-68683333D02*
X179364942Y-68635714D01*
X179364942Y-68635714D02*
X179269704Y-68588095D01*
X179269704Y-68588095D02*
X179126847Y-68588095D01*
X179126847Y-68588095D02*
X179031609Y-68635714D01*
X179031609Y-68635714D02*
X178983990Y-68683333D01*
X178983990Y-68683333D02*
X178936371Y-68778571D01*
X178936371Y-68778571D02*
X178936371Y-69159523D01*
X130489819Y-69297619D02*
X131204104Y-69297619D01*
X131204104Y-69297619D02*
X131346961Y-69250000D01*
X131346961Y-69250000D02*
X131442200Y-69154762D01*
X131442200Y-69154762D02*
X131489819Y-69011905D01*
X131489819Y-69011905D02*
X131489819Y-68916667D01*
X131442200Y-69726191D02*
X131489819Y-69869048D01*
X131489819Y-69869048D02*
X131489819Y-70107143D01*
X131489819Y-70107143D02*
X131442200Y-70202381D01*
X131442200Y-70202381D02*
X131394580Y-70250000D01*
X131394580Y-70250000D02*
X131299342Y-70297619D01*
X131299342Y-70297619D02*
X131204104Y-70297619D01*
X131204104Y-70297619D02*
X131108866Y-70250000D01*
X131108866Y-70250000D02*
X131061247Y-70202381D01*
X131061247Y-70202381D02*
X131013628Y-70107143D01*
X131013628Y-70107143D02*
X130966009Y-69916667D01*
X130966009Y-69916667D02*
X130918390Y-69821429D01*
X130918390Y-69821429D02*
X130870771Y-69773810D01*
X130870771Y-69773810D02*
X130775533Y-69726191D01*
X130775533Y-69726191D02*
X130680295Y-69726191D01*
X130680295Y-69726191D02*
X130585057Y-69773810D01*
X130585057Y-69773810D02*
X130537438Y-69821429D01*
X130537438Y-69821429D02*
X130489819Y-69916667D01*
X130489819Y-69916667D02*
X130489819Y-70154762D01*
X130489819Y-70154762D02*
X130537438Y-70297619D01*
X130489819Y-70583334D02*
X130489819Y-71154762D01*
X131489819Y-70869048D02*
X130489819Y-70869048D01*
X131108866Y-71488096D02*
X131108866Y-72250001D01*
X131489819Y-72726191D02*
X130489819Y-72726191D01*
X130489819Y-72726191D02*
X130489819Y-73107143D01*
X130489819Y-73107143D02*
X130537438Y-73202381D01*
X130537438Y-73202381D02*
X130585057Y-73250000D01*
X130585057Y-73250000D02*
X130680295Y-73297619D01*
X130680295Y-73297619D02*
X130823152Y-73297619D01*
X130823152Y-73297619D02*
X130918390Y-73250000D01*
X130918390Y-73250000D02*
X130966009Y-73202381D01*
X130966009Y-73202381D02*
X131013628Y-73107143D01*
X131013628Y-73107143D02*
X131013628Y-72726191D01*
X131489819Y-73726191D02*
X130489819Y-73726191D01*
X130966009Y-73726191D02*
X130966009Y-74297619D01*
X131489819Y-74297619D02*
X130489819Y-74297619D01*
X131108866Y-74773810D02*
X131108866Y-75535715D01*
X130585057Y-75964286D02*
X130537438Y-76011905D01*
X130537438Y-76011905D02*
X130489819Y-76107143D01*
X130489819Y-76107143D02*
X130489819Y-76345238D01*
X130489819Y-76345238D02*
X130537438Y-76440476D01*
X130537438Y-76440476D02*
X130585057Y-76488095D01*
X130585057Y-76488095D02*
X130680295Y-76535714D01*
X130680295Y-76535714D02*
X130775533Y-76535714D01*
X130775533Y-76535714D02*
X130918390Y-76488095D01*
X130918390Y-76488095D02*
X131489819Y-75916667D01*
X131489819Y-75916667D02*
X131489819Y-76535714D01*
X131489819Y-76964286D02*
X130489819Y-76964286D01*
X130489819Y-76964286D02*
X130489819Y-77345238D01*
X130489819Y-77345238D02*
X130537438Y-77440476D01*
X130537438Y-77440476D02*
X130585057Y-77488095D01*
X130585057Y-77488095D02*
X130680295Y-77535714D01*
X130680295Y-77535714D02*
X130823152Y-77535714D01*
X130823152Y-77535714D02*
X130918390Y-77488095D01*
X130918390Y-77488095D02*
X130966009Y-77440476D01*
X130966009Y-77440476D02*
X131013628Y-77345238D01*
X131013628Y-77345238D02*
X131013628Y-76964286D01*
X130449819Y-80939048D02*
X131259342Y-80939048D01*
X131259342Y-80939048D02*
X131354580Y-80986667D01*
X131354580Y-80986667D02*
X131402200Y-81034286D01*
X131402200Y-81034286D02*
X131449819Y-81129524D01*
X131449819Y-81129524D02*
X131449819Y-81320000D01*
X131449819Y-81320000D02*
X131402200Y-81415238D01*
X131402200Y-81415238D02*
X131354580Y-81462857D01*
X131354580Y-81462857D02*
X131259342Y-81510476D01*
X131259342Y-81510476D02*
X130449819Y-81510476D01*
X131402200Y-81939048D02*
X131449819Y-82081905D01*
X131449819Y-82081905D02*
X131449819Y-82320000D01*
X131449819Y-82320000D02*
X131402200Y-82415238D01*
X131402200Y-82415238D02*
X131354580Y-82462857D01*
X131354580Y-82462857D02*
X131259342Y-82510476D01*
X131259342Y-82510476D02*
X131164104Y-82510476D01*
X131164104Y-82510476D02*
X131068866Y-82462857D01*
X131068866Y-82462857D02*
X131021247Y-82415238D01*
X131021247Y-82415238D02*
X130973628Y-82320000D01*
X130973628Y-82320000D02*
X130926009Y-82129524D01*
X130926009Y-82129524D02*
X130878390Y-82034286D01*
X130878390Y-82034286D02*
X130830771Y-81986667D01*
X130830771Y-81986667D02*
X130735533Y-81939048D01*
X130735533Y-81939048D02*
X130640295Y-81939048D01*
X130640295Y-81939048D02*
X130545057Y-81986667D01*
X130545057Y-81986667D02*
X130497438Y-82034286D01*
X130497438Y-82034286D02*
X130449819Y-82129524D01*
X130449819Y-82129524D02*
X130449819Y-82367619D01*
X130449819Y-82367619D02*
X130497438Y-82510476D01*
X130926009Y-83272381D02*
X130973628Y-83415238D01*
X130973628Y-83415238D02*
X131021247Y-83462857D01*
X131021247Y-83462857D02*
X131116485Y-83510476D01*
X131116485Y-83510476D02*
X131259342Y-83510476D01*
X131259342Y-83510476D02*
X131354580Y-83462857D01*
X131354580Y-83462857D02*
X131402200Y-83415238D01*
X131402200Y-83415238D02*
X131449819Y-83320000D01*
X131449819Y-83320000D02*
X131449819Y-82939048D01*
X131449819Y-82939048D02*
X130449819Y-82939048D01*
X130449819Y-82939048D02*
X130449819Y-83272381D01*
X130449819Y-83272381D02*
X130497438Y-83367619D01*
X130497438Y-83367619D02*
X130545057Y-83415238D01*
X130545057Y-83415238D02*
X130640295Y-83462857D01*
X130640295Y-83462857D02*
X130735533Y-83462857D01*
X130735533Y-83462857D02*
X130830771Y-83415238D01*
X130830771Y-83415238D02*
X130878390Y-83367619D01*
X130878390Y-83367619D02*
X130926009Y-83272381D01*
X130926009Y-83272381D02*
X130926009Y-82939048D01*
X131068866Y-83939048D02*
X131068866Y-84700953D01*
X131354580Y-85748571D02*
X131402200Y-85700952D01*
X131402200Y-85700952D02*
X131449819Y-85558095D01*
X131449819Y-85558095D02*
X131449819Y-85462857D01*
X131449819Y-85462857D02*
X131402200Y-85320000D01*
X131402200Y-85320000D02*
X131306961Y-85224762D01*
X131306961Y-85224762D02*
X131211723Y-85177143D01*
X131211723Y-85177143D02*
X131021247Y-85129524D01*
X131021247Y-85129524D02*
X130878390Y-85129524D01*
X130878390Y-85129524D02*
X130687914Y-85177143D01*
X130687914Y-85177143D02*
X130592676Y-85224762D01*
X130592676Y-85224762D02*
X130497438Y-85320000D01*
X130497438Y-85320000D02*
X130449819Y-85462857D01*
X130449819Y-85462857D02*
X130449819Y-85558095D01*
X130449819Y-85558095D02*
X130497438Y-85700952D01*
X130497438Y-85700952D02*
X130545057Y-85748571D01*
X174122744Y-106804819D02*
X173932268Y-106804819D01*
X173932268Y-106804819D02*
X173837030Y-106852438D01*
X173837030Y-106852438D02*
X173741792Y-106947676D01*
X173741792Y-106947676D02*
X173694173Y-107138152D01*
X173694173Y-107138152D02*
X173694173Y-107471485D01*
X173694173Y-107471485D02*
X173741792Y-107661961D01*
X173741792Y-107661961D02*
X173837030Y-107757200D01*
X173837030Y-107757200D02*
X173932268Y-107804819D01*
X173932268Y-107804819D02*
X174122744Y-107804819D01*
X174122744Y-107804819D02*
X174217982Y-107757200D01*
X174217982Y-107757200D02*
X174313220Y-107661961D01*
X174313220Y-107661961D02*
X174360839Y-107471485D01*
X174360839Y-107471485D02*
X174360839Y-107138152D01*
X174360839Y-107138152D02*
X174313220Y-106947676D01*
X174313220Y-106947676D02*
X174217982Y-106852438D01*
X174217982Y-106852438D02*
X174122744Y-106804819D01*
X173265601Y-107138152D02*
X173265601Y-108138152D01*
X173265601Y-107185771D02*
X173170363Y-107138152D01*
X173170363Y-107138152D02*
X172979887Y-107138152D01*
X172979887Y-107138152D02*
X172884649Y-107185771D01*
X172884649Y-107185771D02*
X172837030Y-107233390D01*
X172837030Y-107233390D02*
X172789411Y-107328628D01*
X172789411Y-107328628D02*
X172789411Y-107614342D01*
X172789411Y-107614342D02*
X172837030Y-107709580D01*
X172837030Y-107709580D02*
X172884649Y-107757200D01*
X172884649Y-107757200D02*
X172979887Y-107804819D01*
X172979887Y-107804819D02*
X173170363Y-107804819D01*
X173170363Y-107804819D02*
X173265601Y-107757200D01*
X171979887Y-107757200D02*
X172075125Y-107804819D01*
X172075125Y-107804819D02*
X172265601Y-107804819D01*
X172265601Y-107804819D02*
X172360839Y-107757200D01*
X172360839Y-107757200D02*
X172408458Y-107661961D01*
X172408458Y-107661961D02*
X172408458Y-107281009D01*
X172408458Y-107281009D02*
X172360839Y-107185771D01*
X172360839Y-107185771D02*
X172265601Y-107138152D01*
X172265601Y-107138152D02*
X172075125Y-107138152D01*
X172075125Y-107138152D02*
X171979887Y-107185771D01*
X171979887Y-107185771D02*
X171932268Y-107281009D01*
X171932268Y-107281009D02*
X171932268Y-107376247D01*
X171932268Y-107376247D02*
X172408458Y-107471485D01*
X171503696Y-107138152D02*
X171503696Y-107804819D01*
X171503696Y-107233390D02*
X171456077Y-107185771D01*
X171456077Y-107185771D02*
X171360839Y-107138152D01*
X171360839Y-107138152D02*
X171217982Y-107138152D01*
X171217982Y-107138152D02*
X171122744Y-107185771D01*
X171122744Y-107185771D02*
X171075125Y-107281009D01*
X171075125Y-107281009D02*
X171075125Y-107804819D01*
X170646553Y-107757200D02*
X170503696Y-107804819D01*
X170503696Y-107804819D02*
X170265601Y-107804819D01*
X170265601Y-107804819D02*
X170170363Y-107757200D01*
X170170363Y-107757200D02*
X170122744Y-107709580D01*
X170122744Y-107709580D02*
X170075125Y-107614342D01*
X170075125Y-107614342D02*
X170075125Y-107519104D01*
X170075125Y-107519104D02*
X170122744Y-107423866D01*
X170122744Y-107423866D02*
X170170363Y-107376247D01*
X170170363Y-107376247D02*
X170265601Y-107328628D01*
X170265601Y-107328628D02*
X170456077Y-107281009D01*
X170456077Y-107281009D02*
X170551315Y-107233390D01*
X170551315Y-107233390D02*
X170598934Y-107185771D01*
X170598934Y-107185771D02*
X170646553Y-107090533D01*
X170646553Y-107090533D02*
X170646553Y-106995295D01*
X170646553Y-106995295D02*
X170598934Y-106900057D01*
X170598934Y-106900057D02*
X170551315Y-106852438D01*
X170551315Y-106852438D02*
X170456077Y-106804819D01*
X170456077Y-106804819D02*
X170217982Y-106804819D01*
X170217982Y-106804819D02*
X170075125Y-106852438D01*
X169265601Y-107757200D02*
X169360839Y-107804819D01*
X169360839Y-107804819D02*
X169551315Y-107804819D01*
X169551315Y-107804819D02*
X169646553Y-107757200D01*
X169646553Y-107757200D02*
X169694172Y-107661961D01*
X169694172Y-107661961D02*
X169694172Y-107281009D01*
X169694172Y-107281009D02*
X169646553Y-107185771D01*
X169646553Y-107185771D02*
X169551315Y-107138152D01*
X169551315Y-107138152D02*
X169360839Y-107138152D01*
X169360839Y-107138152D02*
X169265601Y-107185771D01*
X169265601Y-107185771D02*
X169217982Y-107281009D01*
X169217982Y-107281009D02*
X169217982Y-107376247D01*
X169217982Y-107376247D02*
X169694172Y-107471485D01*
X168789410Y-107804819D02*
X168789410Y-107138152D01*
X168789410Y-107328628D02*
X168741791Y-107233390D01*
X168741791Y-107233390D02*
X168694172Y-107185771D01*
X168694172Y-107185771D02*
X168598934Y-107138152D01*
X168598934Y-107138152D02*
X168503696Y-107138152D01*
X168265600Y-107138152D02*
X168027505Y-107804819D01*
X168027505Y-107804819D02*
X167789410Y-107138152D01*
X167265600Y-107804819D02*
X167360838Y-107757200D01*
X167360838Y-107757200D02*
X167408457Y-107709580D01*
X167408457Y-107709580D02*
X167456076Y-107614342D01*
X167456076Y-107614342D02*
X167456076Y-107328628D01*
X167456076Y-107328628D02*
X167408457Y-107233390D01*
X167408457Y-107233390D02*
X167360838Y-107185771D01*
X167360838Y-107185771D02*
X167265600Y-107138152D01*
X167265600Y-107138152D02*
X167122743Y-107138152D01*
X167122743Y-107138152D02*
X167027505Y-107185771D01*
X167027505Y-107185771D02*
X166979886Y-107233390D01*
X166979886Y-107233390D02*
X166932267Y-107328628D01*
X166932267Y-107328628D02*
X166932267Y-107614342D01*
X166932267Y-107614342D02*
X166979886Y-107709580D01*
X166979886Y-107709580D02*
X167027505Y-107757200D01*
X167027505Y-107757200D02*
X167122743Y-107804819D01*
X167122743Y-107804819D02*
X167265600Y-107804819D01*
X165932267Y-107709580D02*
X165979886Y-107757200D01*
X165979886Y-107757200D02*
X166122743Y-107804819D01*
X166122743Y-107804819D02*
X166217981Y-107804819D01*
X166217981Y-107804819D02*
X166360838Y-107757200D01*
X166360838Y-107757200D02*
X166456076Y-107661961D01*
X166456076Y-107661961D02*
X166503695Y-107566723D01*
X166503695Y-107566723D02*
X166551314Y-107376247D01*
X166551314Y-107376247D02*
X166551314Y-107233390D01*
X166551314Y-107233390D02*
X166503695Y-107042914D01*
X166503695Y-107042914D02*
X166456076Y-106947676D01*
X166456076Y-106947676D02*
X166360838Y-106852438D01*
X166360838Y-106852438D02*
X166217981Y-106804819D01*
X166217981Y-106804819D02*
X166122743Y-106804819D01*
X166122743Y-106804819D02*
X165979886Y-106852438D01*
X165979886Y-106852438D02*
X165932267Y-106900057D01*
X165360838Y-107804819D02*
X165456076Y-107757200D01*
X165456076Y-107757200D02*
X165503695Y-107709580D01*
X165503695Y-107709580D02*
X165551314Y-107614342D01*
X165551314Y-107614342D02*
X165551314Y-107328628D01*
X165551314Y-107328628D02*
X165503695Y-107233390D01*
X165503695Y-107233390D02*
X165456076Y-107185771D01*
X165456076Y-107185771D02*
X165360838Y-107138152D01*
X165360838Y-107138152D02*
X165217981Y-107138152D01*
X165217981Y-107138152D02*
X165122743Y-107185771D01*
X165122743Y-107185771D02*
X165075124Y-107233390D01*
X165075124Y-107233390D02*
X165027505Y-107328628D01*
X165027505Y-107328628D02*
X165027505Y-107614342D01*
X165027505Y-107614342D02*
X165075124Y-107709580D01*
X165075124Y-107709580D02*
X165122743Y-107757200D01*
X165122743Y-107757200D02*
X165217981Y-107804819D01*
X165217981Y-107804819D02*
X165360838Y-107804819D01*
X164598933Y-107804819D02*
X164598933Y-107138152D01*
X164598933Y-107328628D02*
X164551314Y-107233390D01*
X164551314Y-107233390D02*
X164503695Y-107185771D01*
X164503695Y-107185771D02*
X164408457Y-107138152D01*
X164408457Y-107138152D02*
X164313219Y-107138152D01*
X163598933Y-107757200D02*
X163694171Y-107804819D01*
X163694171Y-107804819D02*
X163884647Y-107804819D01*
X163884647Y-107804819D02*
X163979885Y-107757200D01*
X163979885Y-107757200D02*
X164027504Y-107661961D01*
X164027504Y-107661961D02*
X164027504Y-107281009D01*
X164027504Y-107281009D02*
X163979885Y-107185771D01*
X163979885Y-107185771D02*
X163884647Y-107138152D01*
X163884647Y-107138152D02*
X163694171Y-107138152D01*
X163694171Y-107138152D02*
X163598933Y-107185771D01*
X163598933Y-107185771D02*
X163551314Y-107281009D01*
X163551314Y-107281009D02*
X163551314Y-107376247D01*
X163551314Y-107376247D02*
X164027504Y-107471485D01*
X179560180Y-100678571D02*
X178845895Y-100678571D01*
X178845895Y-100678571D02*
X178703038Y-100726190D01*
X178703038Y-100726190D02*
X178607800Y-100821428D01*
X178607800Y-100821428D02*
X178560180Y-100964285D01*
X178560180Y-100964285D02*
X178560180Y-101059523D01*
X178607800Y-100249999D02*
X178560180Y-100107142D01*
X178560180Y-100107142D02*
X178560180Y-99869047D01*
X178560180Y-99869047D02*
X178607800Y-99773809D01*
X178607800Y-99773809D02*
X178655419Y-99726190D01*
X178655419Y-99726190D02*
X178750657Y-99678571D01*
X178750657Y-99678571D02*
X178845895Y-99678571D01*
X178845895Y-99678571D02*
X178941133Y-99726190D01*
X178941133Y-99726190D02*
X178988752Y-99773809D01*
X178988752Y-99773809D02*
X179036371Y-99869047D01*
X179036371Y-99869047D02*
X179083990Y-100059523D01*
X179083990Y-100059523D02*
X179131609Y-100154761D01*
X179131609Y-100154761D02*
X179179228Y-100202380D01*
X179179228Y-100202380D02*
X179274466Y-100249999D01*
X179274466Y-100249999D02*
X179369704Y-100249999D01*
X179369704Y-100249999D02*
X179464942Y-100202380D01*
X179464942Y-100202380D02*
X179512561Y-100154761D01*
X179512561Y-100154761D02*
X179560180Y-100059523D01*
X179560180Y-100059523D02*
X179560180Y-99821428D01*
X179560180Y-99821428D02*
X179512561Y-99678571D01*
X179560180Y-99392856D02*
X179560180Y-98821428D01*
X178560180Y-99107142D02*
X179560180Y-99107142D01*
X178941133Y-98488094D02*
X178941133Y-97726190D01*
X179560180Y-97345237D02*
X179560180Y-96678571D01*
X179560180Y-96678571D02*
X178560180Y-97345237D01*
X178560180Y-97345237D02*
X178560180Y-96678571D01*
X178560180Y-96297618D02*
X179560180Y-96297618D01*
X179083990Y-96297618D02*
X179083990Y-95726190D01*
X178560180Y-95726190D02*
X179560180Y-95726190D01*
X178941133Y-95249999D02*
X178941133Y-94488095D01*
X179226847Y-93583333D02*
X178560180Y-93583333D01*
X179607800Y-93821428D02*
X178893514Y-94059523D01*
X178893514Y-94059523D02*
X178893514Y-93440476D01*
X178560180Y-93059523D02*
X179560180Y-93059523D01*
X179560180Y-93059523D02*
X179560180Y-92678571D01*
X179560180Y-92678571D02*
X179512561Y-92583333D01*
X179512561Y-92583333D02*
X179464942Y-92535714D01*
X179464942Y-92535714D02*
X179369704Y-92488095D01*
X179369704Y-92488095D02*
X179226847Y-92488095D01*
X179226847Y-92488095D02*
X179131609Y-92535714D01*
X179131609Y-92535714D02*
X179083990Y-92583333D01*
X179083990Y-92583333D02*
X179036371Y-92678571D01*
X179036371Y-92678571D02*
X179036371Y-93059523D01*
X170329887Y-72796289D02*
X170187030Y-72843908D01*
X170187030Y-72843908D02*
X170139411Y-72891527D01*
X170139411Y-72891527D02*
X170091792Y-72986765D01*
X170091792Y-72986765D02*
X170091792Y-73129622D01*
X170091792Y-73129622D02*
X170139411Y-73224860D01*
X170139411Y-73224860D02*
X170187030Y-73272480D01*
X170187030Y-73272480D02*
X170282268Y-73320099D01*
X170282268Y-73320099D02*
X170663220Y-73320099D01*
X170663220Y-73320099D02*
X170663220Y-72320099D01*
X170663220Y-72320099D02*
X170329887Y-72320099D01*
X170329887Y-72320099D02*
X170234649Y-72367718D01*
X170234649Y-72367718D02*
X170187030Y-72415337D01*
X170187030Y-72415337D02*
X170139411Y-72510575D01*
X170139411Y-72510575D02*
X170139411Y-72605813D01*
X170139411Y-72605813D02*
X170187030Y-72701051D01*
X170187030Y-72701051D02*
X170234649Y-72748670D01*
X170234649Y-72748670D02*
X170329887Y-72796289D01*
X170329887Y-72796289D02*
X170663220Y-72796289D01*
X169091792Y-73320099D02*
X169425125Y-72843908D01*
X169663220Y-73320099D02*
X169663220Y-72320099D01*
X169663220Y-72320099D02*
X169282268Y-72320099D01*
X169282268Y-72320099D02*
X169187030Y-72367718D01*
X169187030Y-72367718D02*
X169139411Y-72415337D01*
X169139411Y-72415337D02*
X169091792Y-72510575D01*
X169091792Y-72510575D02*
X169091792Y-72653432D01*
X169091792Y-72653432D02*
X169139411Y-72748670D01*
X169139411Y-72748670D02*
X169187030Y-72796289D01*
X169187030Y-72796289D02*
X169282268Y-72843908D01*
X169282268Y-72843908D02*
X169663220Y-72843908D01*
X168663220Y-73320099D02*
X168663220Y-72320099D01*
X168663220Y-72320099D02*
X168425125Y-72320099D01*
X168425125Y-72320099D02*
X168282268Y-72367718D01*
X168282268Y-72367718D02*
X168187030Y-72462956D01*
X168187030Y-72462956D02*
X168139411Y-72558194D01*
X168139411Y-72558194D02*
X168091792Y-72748670D01*
X168091792Y-72748670D02*
X168091792Y-72891527D01*
X168091792Y-72891527D02*
X168139411Y-73082003D01*
X168139411Y-73082003D02*
X168187030Y-73177241D01*
X168187030Y-73177241D02*
X168282268Y-73272480D01*
X168282268Y-73272480D02*
X168425125Y-73320099D01*
X168425125Y-73320099D02*
X168663220Y-73320099D01*
X167663220Y-73224860D02*
X167615601Y-73272480D01*
X167615601Y-73272480D02*
X167663220Y-73320099D01*
X167663220Y-73320099D02*
X167710839Y-73272480D01*
X167710839Y-73272480D02*
X167663220Y-73224860D01*
X167663220Y-73224860D02*
X167663220Y-73320099D01*
X167663220Y-72701051D02*
X167615601Y-72748670D01*
X167615601Y-72748670D02*
X167663220Y-72796289D01*
X167663220Y-72796289D02*
X167710839Y-72748670D01*
X167710839Y-72748670D02*
X167663220Y-72701051D01*
X167663220Y-72701051D02*
X167663220Y-72796289D01*
X166472744Y-73272480D02*
X166377506Y-73320099D01*
X166377506Y-73320099D02*
X166187030Y-73320099D01*
X166187030Y-73320099D02*
X166091792Y-73272480D01*
X166091792Y-73272480D02*
X166044173Y-73177241D01*
X166044173Y-73177241D02*
X166044173Y-73129622D01*
X166044173Y-73129622D02*
X166091792Y-73034384D01*
X166091792Y-73034384D02*
X166187030Y-72986765D01*
X166187030Y-72986765D02*
X166329887Y-72986765D01*
X166329887Y-72986765D02*
X166425125Y-72939146D01*
X166425125Y-72939146D02*
X166472744Y-72843908D01*
X166472744Y-72843908D02*
X166472744Y-72796289D01*
X166472744Y-72796289D02*
X166425125Y-72701051D01*
X166425125Y-72701051D02*
X166329887Y-72653432D01*
X166329887Y-72653432D02*
X166187030Y-72653432D01*
X166187030Y-72653432D02*
X166091792Y-72701051D01*
X165234649Y-73272480D02*
X165329887Y-73320099D01*
X165329887Y-73320099D02*
X165520363Y-73320099D01*
X165520363Y-73320099D02*
X165615601Y-73272480D01*
X165615601Y-73272480D02*
X165663220Y-73177241D01*
X165663220Y-73177241D02*
X165663220Y-72796289D01*
X165663220Y-72796289D02*
X165615601Y-72701051D01*
X165615601Y-72701051D02*
X165520363Y-72653432D01*
X165520363Y-72653432D02*
X165329887Y-72653432D01*
X165329887Y-72653432D02*
X165234649Y-72701051D01*
X165234649Y-72701051D02*
X165187030Y-72796289D01*
X165187030Y-72796289D02*
X165187030Y-72891527D01*
X165187030Y-72891527D02*
X165663220Y-72986765D01*
X164758458Y-73320099D02*
X164758458Y-72653432D01*
X164758458Y-72843908D02*
X164710839Y-72748670D01*
X164710839Y-72748670D02*
X164663220Y-72701051D01*
X164663220Y-72701051D02*
X164567982Y-72653432D01*
X164567982Y-72653432D02*
X164472744Y-72653432D01*
X164234648Y-72653432D02*
X163996553Y-73320099D01*
X163996553Y-73320099D02*
X163758458Y-72653432D01*
X163234648Y-73320099D02*
X163329886Y-73272480D01*
X163329886Y-73272480D02*
X163377505Y-73224860D01*
X163377505Y-73224860D02*
X163425124Y-73129622D01*
X163425124Y-73129622D02*
X163425124Y-72843908D01*
X163425124Y-72843908D02*
X163377505Y-72748670D01*
X163377505Y-72748670D02*
X163329886Y-72701051D01*
X163329886Y-72701051D02*
X163234648Y-72653432D01*
X163234648Y-72653432D02*
X163091791Y-72653432D01*
X163091791Y-72653432D02*
X162996553Y-72701051D01*
X162996553Y-72701051D02*
X162948934Y-72748670D01*
X162948934Y-72748670D02*
X162901315Y-72843908D01*
X162901315Y-72843908D02*
X162901315Y-73129622D01*
X162901315Y-73129622D02*
X162948934Y-73224860D01*
X162948934Y-73224860D02*
X162996553Y-73272480D01*
X162996553Y-73272480D02*
X163091791Y-73320099D01*
X163091791Y-73320099D02*
X163234648Y-73320099D01*
X162472743Y-72939146D02*
X161710839Y-72939146D01*
X160806077Y-73320099D02*
X160806077Y-72320099D01*
X160806077Y-73272480D02*
X160901315Y-73320099D01*
X160901315Y-73320099D02*
X161091791Y-73320099D01*
X161091791Y-73320099D02*
X161187029Y-73272480D01*
X161187029Y-73272480D02*
X161234648Y-73224860D01*
X161234648Y-73224860D02*
X161282267Y-73129622D01*
X161282267Y-73129622D02*
X161282267Y-72843908D01*
X161282267Y-72843908D02*
X161234648Y-72748670D01*
X161234648Y-72748670D02*
X161187029Y-72701051D01*
X161187029Y-72701051D02*
X161091791Y-72653432D01*
X161091791Y-72653432D02*
X160901315Y-72653432D01*
X160901315Y-72653432D02*
X160806077Y-72701051D01*
X159948934Y-73272480D02*
X160044172Y-73320099D01*
X160044172Y-73320099D02*
X160234648Y-73320099D01*
X160234648Y-73320099D02*
X160329886Y-73272480D01*
X160329886Y-73272480D02*
X160377505Y-73177241D01*
X160377505Y-73177241D02*
X160377505Y-72796289D01*
X160377505Y-72796289D02*
X160329886Y-72701051D01*
X160329886Y-72701051D02*
X160234648Y-72653432D01*
X160234648Y-72653432D02*
X160044172Y-72653432D01*
X160044172Y-72653432D02*
X159948934Y-72701051D01*
X159948934Y-72701051D02*
X159901315Y-72796289D01*
X159901315Y-72796289D02*
X159901315Y-72891527D01*
X159901315Y-72891527D02*
X160377505Y-72986765D01*
X159567981Y-72653432D02*
X159329886Y-73320099D01*
X159329886Y-73320099D02*
X159091791Y-72653432D01*
X158710838Y-72939146D02*
X157948934Y-72939146D01*
X157472743Y-73320099D02*
X157472743Y-72320099D01*
X157472743Y-72701051D02*
X157377505Y-72653432D01*
X157377505Y-72653432D02*
X157187029Y-72653432D01*
X157187029Y-72653432D02*
X157091791Y-72701051D01*
X157091791Y-72701051D02*
X157044172Y-72748670D01*
X157044172Y-72748670D02*
X156996553Y-72843908D01*
X156996553Y-72843908D02*
X156996553Y-73129622D01*
X156996553Y-73129622D02*
X157044172Y-73224860D01*
X157044172Y-73224860D02*
X157091791Y-73272480D01*
X157091791Y-73272480D02*
X157187029Y-73320099D01*
X157187029Y-73320099D02*
X157377505Y-73320099D01*
X157377505Y-73320099D02*
X157472743Y-73272480D01*
X156425124Y-73320099D02*
X156520362Y-73272480D01*
X156520362Y-73272480D02*
X156567981Y-73224860D01*
X156567981Y-73224860D02*
X156615600Y-73129622D01*
X156615600Y-73129622D02*
X156615600Y-72843908D01*
X156615600Y-72843908D02*
X156567981Y-72748670D01*
X156567981Y-72748670D02*
X156520362Y-72701051D01*
X156520362Y-72701051D02*
X156425124Y-72653432D01*
X156425124Y-72653432D02*
X156282267Y-72653432D01*
X156282267Y-72653432D02*
X156187029Y-72701051D01*
X156187029Y-72701051D02*
X156139410Y-72748670D01*
X156139410Y-72748670D02*
X156091791Y-72843908D01*
X156091791Y-72843908D02*
X156091791Y-73129622D01*
X156091791Y-73129622D02*
X156139410Y-73224860D01*
X156139410Y-73224860D02*
X156187029Y-73272480D01*
X156187029Y-73272480D02*
X156282267Y-73320099D01*
X156282267Y-73320099D02*
X156425124Y-73320099D01*
X155234648Y-73320099D02*
X155234648Y-72796289D01*
X155234648Y-72796289D02*
X155282267Y-72701051D01*
X155282267Y-72701051D02*
X155377505Y-72653432D01*
X155377505Y-72653432D02*
X155567981Y-72653432D01*
X155567981Y-72653432D02*
X155663219Y-72701051D01*
X155234648Y-73272480D02*
X155329886Y-73320099D01*
X155329886Y-73320099D02*
X155567981Y-73320099D01*
X155567981Y-73320099D02*
X155663219Y-73272480D01*
X155663219Y-73272480D02*
X155710838Y-73177241D01*
X155710838Y-73177241D02*
X155710838Y-73082003D01*
X155710838Y-73082003D02*
X155663219Y-72986765D01*
X155663219Y-72986765D02*
X155567981Y-72939146D01*
X155567981Y-72939146D02*
X155329886Y-72939146D01*
X155329886Y-72939146D02*
X155234648Y-72891527D01*
X154758457Y-73320099D02*
X154758457Y-72653432D01*
X154758457Y-72843908D02*
X154710838Y-72748670D01*
X154710838Y-72748670D02*
X154663219Y-72701051D01*
X154663219Y-72701051D02*
X154567981Y-72653432D01*
X154567981Y-72653432D02*
X154472743Y-72653432D01*
X153710838Y-73320099D02*
X153710838Y-72320099D01*
X153710838Y-73272480D02*
X153806076Y-73320099D01*
X153806076Y-73320099D02*
X153996552Y-73320099D01*
X153996552Y-73320099D02*
X154091790Y-73272480D01*
X154091790Y-73272480D02*
X154139409Y-73224860D01*
X154139409Y-73224860D02*
X154187028Y-73129622D01*
X154187028Y-73129622D02*
X154187028Y-72843908D01*
X154187028Y-72843908D02*
X154139409Y-72748670D01*
X154139409Y-72748670D02*
X154091790Y-72701051D01*
X154091790Y-72701051D02*
X153996552Y-72653432D01*
X153996552Y-72653432D02*
X153806076Y-72653432D01*
X153806076Y-72653432D02*
X153710838Y-72701051D01*
X153234647Y-72939146D02*
X152472743Y-72939146D01*
X151567981Y-73272480D02*
X151663219Y-73320099D01*
X151663219Y-73320099D02*
X151853695Y-73320099D01*
X151853695Y-73320099D02*
X151948933Y-73272480D01*
X151948933Y-73272480D02*
X151996552Y-73224860D01*
X151996552Y-73224860D02*
X152044171Y-73129622D01*
X152044171Y-73129622D02*
X152044171Y-72843908D01*
X152044171Y-72843908D02*
X151996552Y-72748670D01*
X151996552Y-72748670D02*
X151948933Y-72701051D01*
X151948933Y-72701051D02*
X151853695Y-72653432D01*
X151853695Y-72653432D02*
X151663219Y-72653432D01*
X151663219Y-72653432D02*
X151567981Y-72701051D01*
X151139409Y-73320099D02*
X151139409Y-72320099D01*
X150710838Y-73320099D02*
X150710838Y-72796289D01*
X150710838Y-72796289D02*
X150758457Y-72701051D01*
X150758457Y-72701051D02*
X150853695Y-72653432D01*
X150853695Y-72653432D02*
X150996552Y-72653432D01*
X150996552Y-72653432D02*
X151091790Y-72701051D01*
X151091790Y-72701051D02*
X151139409Y-72748670D01*
X150329885Y-72320099D02*
X149710838Y-72320099D01*
X149710838Y-72320099D02*
X150044171Y-72701051D01*
X150044171Y-72701051D02*
X149901314Y-72701051D01*
X149901314Y-72701051D02*
X149806076Y-72748670D01*
X149806076Y-72748670D02*
X149758457Y-72796289D01*
X149758457Y-72796289D02*
X149710838Y-72891527D01*
X149710838Y-72891527D02*
X149710838Y-73129622D01*
X149710838Y-73129622D02*
X149758457Y-73224860D01*
X149758457Y-73224860D02*
X149806076Y-73272480D01*
X149806076Y-73272480D02*
X149901314Y-73320099D01*
X149901314Y-73320099D02*
X150187028Y-73320099D01*
X150187028Y-73320099D02*
X150282266Y-73272480D01*
X150282266Y-73272480D02*
X150329885Y-73224860D01*
X149329885Y-72415337D02*
X149282266Y-72367718D01*
X149282266Y-72367718D02*
X149187028Y-72320099D01*
X149187028Y-72320099D02*
X148948933Y-72320099D01*
X148948933Y-72320099D02*
X148853695Y-72367718D01*
X148853695Y-72367718D02*
X148806076Y-72415337D01*
X148806076Y-72415337D02*
X148758457Y-72510575D01*
X148758457Y-72510575D02*
X148758457Y-72605813D01*
X148758457Y-72605813D02*
X148806076Y-72748670D01*
X148806076Y-72748670D02*
X149377504Y-73320099D01*
X149377504Y-73320099D02*
X148758457Y-73320099D01*
X148425123Y-72653432D02*
X148187028Y-73320099D01*
X148187028Y-73320099D02*
X147948933Y-72653432D01*
X147377504Y-72320099D02*
X147282266Y-72320099D01*
X147282266Y-72320099D02*
X147187028Y-72367718D01*
X147187028Y-72367718D02*
X147139409Y-72415337D01*
X147139409Y-72415337D02*
X147091790Y-72510575D01*
X147091790Y-72510575D02*
X147044171Y-72701051D01*
X147044171Y-72701051D02*
X147044171Y-72939146D01*
X147044171Y-72939146D02*
X147091790Y-73129622D01*
X147091790Y-73129622D02*
X147139409Y-73224860D01*
X147139409Y-73224860D02*
X147187028Y-73272480D01*
X147187028Y-73272480D02*
X147282266Y-73320099D01*
X147282266Y-73320099D02*
X147377504Y-73320099D01*
X147377504Y-73320099D02*
X147472742Y-73272480D01*
X147472742Y-73272480D02*
X147520361Y-73224860D01*
X147520361Y-73224860D02*
X147567980Y-73129622D01*
X147567980Y-73129622D02*
X147615599Y-72939146D01*
X147615599Y-72939146D02*
X147615599Y-72701051D01*
X147615599Y-72701051D02*
X147567980Y-72510575D01*
X147567980Y-72510575D02*
X147520361Y-72415337D01*
X147520361Y-72415337D02*
X147472742Y-72367718D01*
X147472742Y-72367718D02*
X147377504Y-72320099D01*
X146425123Y-72320099D02*
X146329885Y-72320099D01*
X146329885Y-72320099D02*
X146234647Y-72367718D01*
X146234647Y-72367718D02*
X146187028Y-72415337D01*
X146187028Y-72415337D02*
X146139409Y-72510575D01*
X146139409Y-72510575D02*
X146091790Y-72701051D01*
X146091790Y-72701051D02*
X146091790Y-72939146D01*
X146091790Y-72939146D02*
X146139409Y-73129622D01*
X146139409Y-73129622D02*
X146187028Y-73224860D01*
X146187028Y-73224860D02*
X146234647Y-73272480D01*
X146234647Y-73272480D02*
X146329885Y-73320099D01*
X146329885Y-73320099D02*
X146425123Y-73320099D01*
X146425123Y-73320099D02*
X146520361Y-73272480D01*
X146520361Y-73272480D02*
X146567980Y-73224860D01*
X146567980Y-73224860D02*
X146615599Y-73129622D01*
X146615599Y-73129622D02*
X146663218Y-72939146D01*
X146663218Y-72939146D02*
X146663218Y-72701051D01*
X146663218Y-72701051D02*
X146615599Y-72510575D01*
X146615599Y-72510575D02*
X146567980Y-72415337D01*
X146567980Y-72415337D02*
X146520361Y-72367718D01*
X146520361Y-72367718D02*
X146425123Y-72320099D01*
X145234647Y-72320099D02*
X145425123Y-72320099D01*
X145425123Y-72320099D02*
X145520361Y-72367718D01*
X145520361Y-72367718D02*
X145567980Y-72415337D01*
X145567980Y-72415337D02*
X145663218Y-72558194D01*
X145663218Y-72558194D02*
X145710837Y-72748670D01*
X145710837Y-72748670D02*
X145710837Y-73129622D01*
X145710837Y-73129622D02*
X145663218Y-73224860D01*
X145663218Y-73224860D02*
X145615599Y-73272480D01*
X145615599Y-73272480D02*
X145520361Y-73320099D01*
X145520361Y-73320099D02*
X145329885Y-73320099D01*
X145329885Y-73320099D02*
X145234647Y-73272480D01*
X145234647Y-73272480D02*
X145187028Y-73224860D01*
X145187028Y-73224860D02*
X145139409Y-73129622D01*
X145139409Y-73129622D02*
X145139409Y-72891527D01*
X145139409Y-72891527D02*
X145187028Y-72796289D01*
X145187028Y-72796289D02*
X145234647Y-72748670D01*
X145234647Y-72748670D02*
X145329885Y-72701051D01*
X145329885Y-72701051D02*
X145520361Y-72701051D01*
X145520361Y-72701051D02*
X145615599Y-72748670D01*
X145615599Y-72748670D02*
X145663218Y-72796289D01*
X145663218Y-72796289D02*
X145710837Y-72891527D01*
X170663220Y-74930043D02*
X170663220Y-73930043D01*
X170663220Y-73930043D02*
X170329887Y-74644328D01*
X170329887Y-74644328D02*
X169996554Y-73930043D01*
X169996554Y-73930043D02*
X169996554Y-74930043D01*
X168948935Y-74834804D02*
X168996554Y-74882424D01*
X168996554Y-74882424D02*
X169139411Y-74930043D01*
X169139411Y-74930043D02*
X169234649Y-74930043D01*
X169234649Y-74930043D02*
X169377506Y-74882424D01*
X169377506Y-74882424D02*
X169472744Y-74787185D01*
X169472744Y-74787185D02*
X169520363Y-74691947D01*
X169520363Y-74691947D02*
X169567982Y-74501471D01*
X169567982Y-74501471D02*
X169567982Y-74358614D01*
X169567982Y-74358614D02*
X169520363Y-74168138D01*
X169520363Y-74168138D02*
X169472744Y-74072900D01*
X169472744Y-74072900D02*
X169377506Y-73977662D01*
X169377506Y-73977662D02*
X169234649Y-73930043D01*
X169234649Y-73930043D02*
X169139411Y-73930043D01*
X169139411Y-73930043D02*
X168996554Y-73977662D01*
X168996554Y-73977662D02*
X168948935Y-74025281D01*
X168520363Y-73930043D02*
X168520363Y-74739566D01*
X168520363Y-74739566D02*
X168472744Y-74834804D01*
X168472744Y-74834804D02*
X168425125Y-74882424D01*
X168425125Y-74882424D02*
X168329887Y-74930043D01*
X168329887Y-74930043D02*
X168139411Y-74930043D01*
X168139411Y-74930043D02*
X168044173Y-74882424D01*
X168044173Y-74882424D02*
X167996554Y-74834804D01*
X167996554Y-74834804D02*
X167948935Y-74739566D01*
X167948935Y-74739566D02*
X167948935Y-73930043D01*
X167472744Y-74834804D02*
X167425125Y-74882424D01*
X167425125Y-74882424D02*
X167472744Y-74930043D01*
X167472744Y-74930043D02*
X167520363Y-74882424D01*
X167520363Y-74882424D02*
X167472744Y-74834804D01*
X167472744Y-74834804D02*
X167472744Y-74930043D01*
X167472744Y-74310995D02*
X167425125Y-74358614D01*
X167425125Y-74358614D02*
X167472744Y-74406233D01*
X167472744Y-74406233D02*
X167520363Y-74358614D01*
X167520363Y-74358614D02*
X167472744Y-74310995D01*
X167472744Y-74310995D02*
X167472744Y-74406233D01*
X165663221Y-74834804D02*
X165710840Y-74882424D01*
X165710840Y-74882424D02*
X165853697Y-74930043D01*
X165853697Y-74930043D02*
X165948935Y-74930043D01*
X165948935Y-74930043D02*
X166091792Y-74882424D01*
X166091792Y-74882424D02*
X166187030Y-74787185D01*
X166187030Y-74787185D02*
X166234649Y-74691947D01*
X166234649Y-74691947D02*
X166282268Y-74501471D01*
X166282268Y-74501471D02*
X166282268Y-74358614D01*
X166282268Y-74358614D02*
X166234649Y-74168138D01*
X166234649Y-74168138D02*
X166187030Y-74072900D01*
X166187030Y-74072900D02*
X166091792Y-73977662D01*
X166091792Y-73977662D02*
X165948935Y-73930043D01*
X165948935Y-73930043D02*
X165853697Y-73930043D01*
X165853697Y-73930043D02*
X165710840Y-73977662D01*
X165710840Y-73977662D02*
X165663221Y-74025281D01*
X165234649Y-74930043D02*
X165234649Y-73930043D01*
X165234649Y-74406233D02*
X164663221Y-74406233D01*
X164663221Y-74930043D02*
X164663221Y-73930043D01*
X164282268Y-73930043D02*
X163663221Y-73930043D01*
X163663221Y-73930043D02*
X163996554Y-74310995D01*
X163996554Y-74310995D02*
X163853697Y-74310995D01*
X163853697Y-74310995D02*
X163758459Y-74358614D01*
X163758459Y-74358614D02*
X163710840Y-74406233D01*
X163710840Y-74406233D02*
X163663221Y-74501471D01*
X163663221Y-74501471D02*
X163663221Y-74739566D01*
X163663221Y-74739566D02*
X163710840Y-74834804D01*
X163710840Y-74834804D02*
X163758459Y-74882424D01*
X163758459Y-74882424D02*
X163853697Y-74930043D01*
X163853697Y-74930043D02*
X164139411Y-74930043D01*
X164139411Y-74930043D02*
X164234649Y-74882424D01*
X164234649Y-74882424D02*
X164282268Y-74834804D01*
X163282268Y-74025281D02*
X163234649Y-73977662D01*
X163234649Y-73977662D02*
X163139411Y-73930043D01*
X163139411Y-73930043D02*
X162901316Y-73930043D01*
X162901316Y-73930043D02*
X162806078Y-73977662D01*
X162806078Y-73977662D02*
X162758459Y-74025281D01*
X162758459Y-74025281D02*
X162710840Y-74120519D01*
X162710840Y-74120519D02*
X162710840Y-74215757D01*
X162710840Y-74215757D02*
X162758459Y-74358614D01*
X162758459Y-74358614D02*
X163329887Y-74930043D01*
X163329887Y-74930043D02*
X162710840Y-74930043D01*
X162425125Y-73930043D02*
X162091792Y-74930043D01*
X162091792Y-74930043D02*
X161758459Y-73930043D01*
X161234649Y-73930043D02*
X161139411Y-73930043D01*
X161139411Y-73930043D02*
X161044173Y-73977662D01*
X161044173Y-73977662D02*
X160996554Y-74025281D01*
X160996554Y-74025281D02*
X160948935Y-74120519D01*
X160948935Y-74120519D02*
X160901316Y-74310995D01*
X160901316Y-74310995D02*
X160901316Y-74549090D01*
X160901316Y-74549090D02*
X160948935Y-74739566D01*
X160948935Y-74739566D02*
X160996554Y-74834804D01*
X160996554Y-74834804D02*
X161044173Y-74882424D01*
X161044173Y-74882424D02*
X161139411Y-74930043D01*
X161139411Y-74930043D02*
X161234649Y-74930043D01*
X161234649Y-74930043D02*
X161329887Y-74882424D01*
X161329887Y-74882424D02*
X161377506Y-74834804D01*
X161377506Y-74834804D02*
X161425125Y-74739566D01*
X161425125Y-74739566D02*
X161472744Y-74549090D01*
X161472744Y-74549090D02*
X161472744Y-74310995D01*
X161472744Y-74310995D02*
X161425125Y-74120519D01*
X161425125Y-74120519D02*
X161377506Y-74025281D01*
X161377506Y-74025281D02*
X161329887Y-73977662D01*
X161329887Y-73977662D02*
X161234649Y-73930043D01*
X160282268Y-73930043D02*
X160187030Y-73930043D01*
X160187030Y-73930043D02*
X160091792Y-73977662D01*
X160091792Y-73977662D02*
X160044173Y-74025281D01*
X160044173Y-74025281D02*
X159996554Y-74120519D01*
X159996554Y-74120519D02*
X159948935Y-74310995D01*
X159948935Y-74310995D02*
X159948935Y-74549090D01*
X159948935Y-74549090D02*
X159996554Y-74739566D01*
X159996554Y-74739566D02*
X160044173Y-74834804D01*
X160044173Y-74834804D02*
X160091792Y-74882424D01*
X160091792Y-74882424D02*
X160187030Y-74930043D01*
X160187030Y-74930043D02*
X160282268Y-74930043D01*
X160282268Y-74930043D02*
X160377506Y-74882424D01*
X160377506Y-74882424D02*
X160425125Y-74834804D01*
X160425125Y-74834804D02*
X160472744Y-74739566D01*
X160472744Y-74739566D02*
X160520363Y-74549090D01*
X160520363Y-74549090D02*
X160520363Y-74310995D01*
X160520363Y-74310995D02*
X160472744Y-74120519D01*
X160472744Y-74120519D02*
X160425125Y-74025281D01*
X160425125Y-74025281D02*
X160377506Y-73977662D01*
X160377506Y-73977662D02*
X160282268Y-73930043D01*
X159091792Y-73930043D02*
X159282268Y-73930043D01*
X159282268Y-73930043D02*
X159377506Y-73977662D01*
X159377506Y-73977662D02*
X159425125Y-74025281D01*
X159425125Y-74025281D02*
X159520363Y-74168138D01*
X159520363Y-74168138D02*
X159567982Y-74358614D01*
X159567982Y-74358614D02*
X159567982Y-74739566D01*
X159567982Y-74739566D02*
X159520363Y-74834804D01*
X159520363Y-74834804D02*
X159472744Y-74882424D01*
X159472744Y-74882424D02*
X159377506Y-74930043D01*
X159377506Y-74930043D02*
X159187030Y-74930043D01*
X159187030Y-74930043D02*
X159091792Y-74882424D01*
X159091792Y-74882424D02*
X159044173Y-74834804D01*
X159044173Y-74834804D02*
X158996554Y-74739566D01*
X158996554Y-74739566D02*
X158996554Y-74501471D01*
X158996554Y-74501471D02*
X159044173Y-74406233D01*
X159044173Y-74406233D02*
X159091792Y-74358614D01*
X159091792Y-74358614D02*
X159187030Y-74310995D01*
X159187030Y-74310995D02*
X159377506Y-74310995D01*
X159377506Y-74310995D02*
X159472744Y-74358614D01*
X159472744Y-74358614D02*
X159520363Y-74406233D01*
X159520363Y-74406233D02*
X159567982Y-74501471D01*
X158234649Y-74406233D02*
X158567982Y-74406233D01*
X158567982Y-74930043D02*
X158567982Y-73930043D01*
X158567982Y-73930043D02*
X158091792Y-73930043D01*
X157567982Y-74358614D02*
X157663220Y-74310995D01*
X157663220Y-74310995D02*
X157710839Y-74263376D01*
X157710839Y-74263376D02*
X157758458Y-74168138D01*
X157758458Y-74168138D02*
X157758458Y-74120519D01*
X157758458Y-74120519D02*
X157710839Y-74025281D01*
X157710839Y-74025281D02*
X157663220Y-73977662D01*
X157663220Y-73977662D02*
X157567982Y-73930043D01*
X157567982Y-73930043D02*
X157377506Y-73930043D01*
X157377506Y-73930043D02*
X157282268Y-73977662D01*
X157282268Y-73977662D02*
X157234649Y-74025281D01*
X157234649Y-74025281D02*
X157187030Y-74120519D01*
X157187030Y-74120519D02*
X157187030Y-74168138D01*
X157187030Y-74168138D02*
X157234649Y-74263376D01*
X157234649Y-74263376D02*
X157282268Y-74310995D01*
X157282268Y-74310995D02*
X157377506Y-74358614D01*
X157377506Y-74358614D02*
X157567982Y-74358614D01*
X157567982Y-74358614D02*
X157663220Y-74406233D01*
X157663220Y-74406233D02*
X157710839Y-74453852D01*
X157710839Y-74453852D02*
X157758458Y-74549090D01*
X157758458Y-74549090D02*
X157758458Y-74739566D01*
X157758458Y-74739566D02*
X157710839Y-74834804D01*
X157710839Y-74834804D02*
X157663220Y-74882424D01*
X157663220Y-74882424D02*
X157567982Y-74930043D01*
X157567982Y-74930043D02*
X157377506Y-74930043D01*
X157377506Y-74930043D02*
X157282268Y-74882424D01*
X157282268Y-74882424D02*
X157234649Y-74834804D01*
X157234649Y-74834804D02*
X157187030Y-74739566D01*
X157187030Y-74739566D02*
X157187030Y-74549090D01*
X157187030Y-74549090D02*
X157234649Y-74453852D01*
X157234649Y-74453852D02*
X157282268Y-74406233D01*
X157282268Y-74406233D02*
X157377506Y-74358614D01*
X156758458Y-73930043D02*
X156758458Y-74739566D01*
X156758458Y-74739566D02*
X156710839Y-74834804D01*
X156710839Y-74834804D02*
X156663220Y-74882424D01*
X156663220Y-74882424D02*
X156567982Y-74930043D01*
X156567982Y-74930043D02*
X156377506Y-74930043D01*
X156377506Y-74930043D02*
X156282268Y-74882424D01*
X156282268Y-74882424D02*
X156234649Y-74834804D01*
X156234649Y-74834804D02*
X156187030Y-74739566D01*
X156187030Y-74739566D02*
X156187030Y-73930043D01*
X155282268Y-73930043D02*
X155472744Y-73930043D01*
X155472744Y-73930043D02*
X155567982Y-73977662D01*
X155567982Y-73977662D02*
X155615601Y-74025281D01*
X155615601Y-74025281D02*
X155710839Y-74168138D01*
X155710839Y-74168138D02*
X155758458Y-74358614D01*
X155758458Y-74358614D02*
X155758458Y-74739566D01*
X155758458Y-74739566D02*
X155710839Y-74834804D01*
X155710839Y-74834804D02*
X155663220Y-74882424D01*
X155663220Y-74882424D02*
X155567982Y-74930043D01*
X155567982Y-74930043D02*
X155377506Y-74930043D01*
X155377506Y-74930043D02*
X155282268Y-74882424D01*
X155282268Y-74882424D02*
X155234649Y-74834804D01*
X155234649Y-74834804D02*
X155187030Y-74739566D01*
X155187030Y-74739566D02*
X155187030Y-74501471D01*
X155187030Y-74501471D02*
X155234649Y-74406233D01*
X155234649Y-74406233D02*
X155282268Y-74358614D01*
X155282268Y-74358614D02*
X155377506Y-74310995D01*
X155377506Y-74310995D02*
X155567982Y-74310995D01*
X155567982Y-74310995D02*
X155663220Y-74358614D01*
X155663220Y-74358614D02*
X155710839Y-74406233D01*
X155710839Y-74406233D02*
X155758458Y-74501471D01*
X170663220Y-76539987D02*
X170663220Y-75539987D01*
X170663220Y-75539987D02*
X170425125Y-75539987D01*
X170425125Y-75539987D02*
X170282268Y-75587606D01*
X170282268Y-75587606D02*
X170187030Y-75682844D01*
X170187030Y-75682844D02*
X170139411Y-75778082D01*
X170139411Y-75778082D02*
X170091792Y-75968558D01*
X170091792Y-75968558D02*
X170091792Y-76111415D01*
X170091792Y-76111415D02*
X170139411Y-76301891D01*
X170139411Y-76301891D02*
X170187030Y-76397129D01*
X170187030Y-76397129D02*
X170282268Y-76492368D01*
X170282268Y-76492368D02*
X170425125Y-76539987D01*
X170425125Y-76539987D02*
X170663220Y-76539987D01*
X169091792Y-76539987D02*
X169425125Y-76063796D01*
X169663220Y-76539987D02*
X169663220Y-75539987D01*
X169663220Y-75539987D02*
X169282268Y-75539987D01*
X169282268Y-75539987D02*
X169187030Y-75587606D01*
X169187030Y-75587606D02*
X169139411Y-75635225D01*
X169139411Y-75635225D02*
X169091792Y-75730463D01*
X169091792Y-75730463D02*
X169091792Y-75873320D01*
X169091792Y-75873320D02*
X169139411Y-75968558D01*
X169139411Y-75968558D02*
X169187030Y-76016177D01*
X169187030Y-76016177D02*
X169282268Y-76063796D01*
X169282268Y-76063796D02*
X169663220Y-76063796D01*
X168806077Y-75539987D02*
X168472744Y-76539987D01*
X168472744Y-76539987D02*
X168139411Y-75539987D01*
X167806077Y-76444748D02*
X167758458Y-76492368D01*
X167758458Y-76492368D02*
X167806077Y-76539987D01*
X167806077Y-76539987D02*
X167853696Y-76492368D01*
X167853696Y-76492368D02*
X167806077Y-76444748D01*
X167806077Y-76444748D02*
X167806077Y-76539987D01*
X167806077Y-75920939D02*
X167758458Y-75968558D01*
X167758458Y-75968558D02*
X167806077Y-76016177D01*
X167806077Y-76016177D02*
X167853696Y-75968558D01*
X167853696Y-75968558D02*
X167806077Y-75920939D01*
X167806077Y-75920939D02*
X167806077Y-76016177D01*
X166567982Y-76539987D02*
X166567982Y-75539987D01*
X166567982Y-75539987D02*
X166329887Y-75539987D01*
X166329887Y-75539987D02*
X166187030Y-75587606D01*
X166187030Y-75587606D02*
X166091792Y-75682844D01*
X166091792Y-75682844D02*
X166044173Y-75778082D01*
X166044173Y-75778082D02*
X165996554Y-75968558D01*
X165996554Y-75968558D02*
X165996554Y-76111415D01*
X165996554Y-76111415D02*
X166044173Y-76301891D01*
X166044173Y-76301891D02*
X166091792Y-76397129D01*
X166091792Y-76397129D02*
X166187030Y-76492368D01*
X166187030Y-76492368D02*
X166329887Y-76539987D01*
X166329887Y-76539987D02*
X166567982Y-76539987D01*
X164996554Y-76539987D02*
X165329887Y-76063796D01*
X165567982Y-76539987D02*
X165567982Y-75539987D01*
X165567982Y-75539987D02*
X165187030Y-75539987D01*
X165187030Y-75539987D02*
X165091792Y-75587606D01*
X165091792Y-75587606D02*
X165044173Y-75635225D01*
X165044173Y-75635225D02*
X164996554Y-75730463D01*
X164996554Y-75730463D02*
X164996554Y-75873320D01*
X164996554Y-75873320D02*
X165044173Y-75968558D01*
X165044173Y-75968558D02*
X165091792Y-76016177D01*
X165091792Y-76016177D02*
X165187030Y-76063796D01*
X165187030Y-76063796D02*
X165567982Y-76063796D01*
X164710839Y-75539987D02*
X164377506Y-76539987D01*
X164377506Y-76539987D02*
X164044173Y-75539987D01*
X163567982Y-75968558D02*
X163663220Y-75920939D01*
X163663220Y-75920939D02*
X163710839Y-75873320D01*
X163710839Y-75873320D02*
X163758458Y-75778082D01*
X163758458Y-75778082D02*
X163758458Y-75730463D01*
X163758458Y-75730463D02*
X163710839Y-75635225D01*
X163710839Y-75635225D02*
X163663220Y-75587606D01*
X163663220Y-75587606D02*
X163567982Y-75539987D01*
X163567982Y-75539987D02*
X163377506Y-75539987D01*
X163377506Y-75539987D02*
X163282268Y-75587606D01*
X163282268Y-75587606D02*
X163234649Y-75635225D01*
X163234649Y-75635225D02*
X163187030Y-75730463D01*
X163187030Y-75730463D02*
X163187030Y-75778082D01*
X163187030Y-75778082D02*
X163234649Y-75873320D01*
X163234649Y-75873320D02*
X163282268Y-75920939D01*
X163282268Y-75920939D02*
X163377506Y-75968558D01*
X163377506Y-75968558D02*
X163567982Y-75968558D01*
X163567982Y-75968558D02*
X163663220Y-76016177D01*
X163663220Y-76016177D02*
X163710839Y-76063796D01*
X163710839Y-76063796D02*
X163758458Y-76159034D01*
X163758458Y-76159034D02*
X163758458Y-76349510D01*
X163758458Y-76349510D02*
X163710839Y-76444748D01*
X163710839Y-76444748D02*
X163663220Y-76492368D01*
X163663220Y-76492368D02*
X163567982Y-76539987D01*
X163567982Y-76539987D02*
X163377506Y-76539987D01*
X163377506Y-76539987D02*
X163282268Y-76492368D01*
X163282268Y-76492368D02*
X163234649Y-76444748D01*
X163234649Y-76444748D02*
X163187030Y-76349510D01*
X163187030Y-76349510D02*
X163187030Y-76159034D01*
X163187030Y-76159034D02*
X163234649Y-76063796D01*
X163234649Y-76063796D02*
X163282268Y-76016177D01*
X163282268Y-76016177D02*
X163377506Y-75968558D01*
X162615601Y-75968558D02*
X162710839Y-75920939D01*
X162710839Y-75920939D02*
X162758458Y-75873320D01*
X162758458Y-75873320D02*
X162806077Y-75778082D01*
X162806077Y-75778082D02*
X162806077Y-75730463D01*
X162806077Y-75730463D02*
X162758458Y-75635225D01*
X162758458Y-75635225D02*
X162710839Y-75587606D01*
X162710839Y-75587606D02*
X162615601Y-75539987D01*
X162615601Y-75539987D02*
X162425125Y-75539987D01*
X162425125Y-75539987D02*
X162329887Y-75587606D01*
X162329887Y-75587606D02*
X162282268Y-75635225D01*
X162282268Y-75635225D02*
X162234649Y-75730463D01*
X162234649Y-75730463D02*
X162234649Y-75778082D01*
X162234649Y-75778082D02*
X162282268Y-75873320D01*
X162282268Y-75873320D02*
X162329887Y-75920939D01*
X162329887Y-75920939D02*
X162425125Y-75968558D01*
X162425125Y-75968558D02*
X162615601Y-75968558D01*
X162615601Y-75968558D02*
X162710839Y-76016177D01*
X162710839Y-76016177D02*
X162758458Y-76063796D01*
X162758458Y-76063796D02*
X162806077Y-76159034D01*
X162806077Y-76159034D02*
X162806077Y-76349510D01*
X162806077Y-76349510D02*
X162758458Y-76444748D01*
X162758458Y-76444748D02*
X162710839Y-76492368D01*
X162710839Y-76492368D02*
X162615601Y-76539987D01*
X162615601Y-76539987D02*
X162425125Y-76539987D01*
X162425125Y-76539987D02*
X162329887Y-76492368D01*
X162329887Y-76492368D02*
X162282268Y-76444748D01*
X162282268Y-76444748D02*
X162234649Y-76349510D01*
X162234649Y-76349510D02*
X162234649Y-76159034D01*
X162234649Y-76159034D02*
X162282268Y-76063796D01*
X162282268Y-76063796D02*
X162329887Y-76016177D01*
X162329887Y-76016177D02*
X162425125Y-75968558D01*
X161901315Y-75539987D02*
X161282268Y-75539987D01*
X161282268Y-75539987D02*
X161615601Y-75920939D01*
X161615601Y-75920939D02*
X161472744Y-75920939D01*
X161472744Y-75920939D02*
X161377506Y-75968558D01*
X161377506Y-75968558D02*
X161329887Y-76016177D01*
X161329887Y-76016177D02*
X161282268Y-76111415D01*
X161282268Y-76111415D02*
X161282268Y-76349510D01*
X161282268Y-76349510D02*
X161329887Y-76444748D01*
X161329887Y-76444748D02*
X161377506Y-76492368D01*
X161377506Y-76492368D02*
X161472744Y-76539987D01*
X161472744Y-76539987D02*
X161758458Y-76539987D01*
X161758458Y-76539987D02*
X161853696Y-76492368D01*
X161853696Y-76492368D02*
X161901315Y-76444748D01*
X160948934Y-75539987D02*
X160282268Y-75539987D01*
X160282268Y-75539987D02*
X160710839Y-76539987D01*
X159901315Y-76539987D02*
X159901315Y-75539987D01*
X159901315Y-75539987D02*
X159663220Y-75539987D01*
X159663220Y-75539987D02*
X159520363Y-75587606D01*
X159520363Y-75587606D02*
X159425125Y-75682844D01*
X159425125Y-75682844D02*
X159377506Y-75778082D01*
X159377506Y-75778082D02*
X159329887Y-75968558D01*
X159329887Y-75968558D02*
X159329887Y-76111415D01*
X159329887Y-76111415D02*
X159377506Y-76301891D01*
X159377506Y-76301891D02*
X159425125Y-76397129D01*
X159425125Y-76397129D02*
X159520363Y-76492368D01*
X159520363Y-76492368D02*
X159663220Y-76539987D01*
X159663220Y-76539987D02*
X159901315Y-76539987D01*
X158948934Y-76492368D02*
X158806077Y-76539987D01*
X158806077Y-76539987D02*
X158567982Y-76539987D01*
X158567982Y-76539987D02*
X158472744Y-76492368D01*
X158472744Y-76492368D02*
X158425125Y-76444748D01*
X158425125Y-76444748D02*
X158377506Y-76349510D01*
X158377506Y-76349510D02*
X158377506Y-76254272D01*
X158377506Y-76254272D02*
X158425125Y-76159034D01*
X158425125Y-76159034D02*
X158472744Y-76111415D01*
X158472744Y-76111415D02*
X158567982Y-76063796D01*
X158567982Y-76063796D02*
X158758458Y-76016177D01*
X158758458Y-76016177D02*
X158853696Y-75968558D01*
X158853696Y-75968558D02*
X158901315Y-75920939D01*
X158901315Y-75920939D02*
X158948934Y-75825701D01*
X158948934Y-75825701D02*
X158948934Y-75730463D01*
X158948934Y-75730463D02*
X158901315Y-75635225D01*
X158901315Y-75635225D02*
X158853696Y-75587606D01*
X158853696Y-75587606D02*
X158758458Y-75539987D01*
X158758458Y-75539987D02*
X158520363Y-75539987D01*
X158520363Y-75539987D02*
X158377506Y-75587606D01*
X157425125Y-75587606D02*
X157520363Y-75539987D01*
X157520363Y-75539987D02*
X157663220Y-75539987D01*
X157663220Y-75539987D02*
X157806077Y-75587606D01*
X157806077Y-75587606D02*
X157901315Y-75682844D01*
X157901315Y-75682844D02*
X157948934Y-75778082D01*
X157948934Y-75778082D02*
X157996553Y-75968558D01*
X157996553Y-75968558D02*
X157996553Y-76111415D01*
X157996553Y-76111415D02*
X157948934Y-76301891D01*
X157948934Y-76301891D02*
X157901315Y-76397129D01*
X157901315Y-76397129D02*
X157806077Y-76492368D01*
X157806077Y-76492368D02*
X157663220Y-76539987D01*
X157663220Y-76539987D02*
X157567982Y-76539987D01*
X157567982Y-76539987D02*
X157425125Y-76492368D01*
X157425125Y-76492368D02*
X157377506Y-76444748D01*
X157377506Y-76444748D02*
X157377506Y-76111415D01*
X157377506Y-76111415D02*
X157567982Y-76111415D01*
X156377506Y-76539987D02*
X156710839Y-76063796D01*
X156948934Y-76539987D02*
X156948934Y-75539987D01*
X156948934Y-75539987D02*
X156567982Y-75539987D01*
X156567982Y-75539987D02*
X156472744Y-75587606D01*
X156472744Y-75587606D02*
X156425125Y-75635225D01*
X156425125Y-75635225D02*
X156377506Y-75730463D01*
X156377506Y-75730463D02*
X156377506Y-75873320D01*
X156377506Y-75873320D02*
X156425125Y-75968558D01*
X156425125Y-75968558D02*
X156472744Y-76016177D01*
X156472744Y-76016177D02*
X156567982Y-76063796D01*
X156567982Y-76063796D02*
X156948934Y-76063796D01*
X155948934Y-76159034D02*
X155187030Y-76159034D01*
X154425125Y-75539987D02*
X154425125Y-76254272D01*
X154425125Y-76254272D02*
X154472744Y-76397129D01*
X154472744Y-76397129D02*
X154567982Y-76492368D01*
X154567982Y-76492368D02*
X154710839Y-76539987D01*
X154710839Y-76539987D02*
X154806077Y-76539987D01*
X153996553Y-76492368D02*
X153853696Y-76539987D01*
X153853696Y-76539987D02*
X153615601Y-76539987D01*
X153615601Y-76539987D02*
X153520363Y-76492368D01*
X153520363Y-76492368D02*
X153472744Y-76444748D01*
X153472744Y-76444748D02*
X153425125Y-76349510D01*
X153425125Y-76349510D02*
X153425125Y-76254272D01*
X153425125Y-76254272D02*
X153472744Y-76159034D01*
X153472744Y-76159034D02*
X153520363Y-76111415D01*
X153520363Y-76111415D02*
X153615601Y-76063796D01*
X153615601Y-76063796D02*
X153806077Y-76016177D01*
X153806077Y-76016177D02*
X153901315Y-75968558D01*
X153901315Y-75968558D02*
X153948934Y-75920939D01*
X153948934Y-75920939D02*
X153996553Y-75825701D01*
X153996553Y-75825701D02*
X153996553Y-75730463D01*
X153996553Y-75730463D02*
X153948934Y-75635225D01*
X153948934Y-75635225D02*
X153901315Y-75587606D01*
X153901315Y-75587606D02*
X153806077Y-75539987D01*
X153806077Y-75539987D02*
X153567982Y-75539987D01*
X153567982Y-75539987D02*
X153425125Y-75587606D01*
X152996553Y-76539987D02*
X152996553Y-75539987D01*
X152996553Y-75539987D02*
X152663220Y-76254272D01*
X152663220Y-76254272D02*
X152329887Y-75539987D01*
X152329887Y-75539987D02*
X152329887Y-76539987D01*
X170187030Y-78149931D02*
X170663220Y-78149931D01*
X170663220Y-78149931D02*
X170663220Y-77149931D01*
X169853696Y-78149931D02*
X169853696Y-77149931D01*
X169853696Y-77149931D02*
X169615601Y-77149931D01*
X169615601Y-77149931D02*
X169472744Y-77197550D01*
X169472744Y-77197550D02*
X169377506Y-77292788D01*
X169377506Y-77292788D02*
X169329887Y-77388026D01*
X169329887Y-77388026D02*
X169282268Y-77578502D01*
X169282268Y-77578502D02*
X169282268Y-77721359D01*
X169282268Y-77721359D02*
X169329887Y-77911835D01*
X169329887Y-77911835D02*
X169377506Y-78007073D01*
X169377506Y-78007073D02*
X169472744Y-78102312D01*
X169472744Y-78102312D02*
X169615601Y-78149931D01*
X169615601Y-78149931D02*
X169853696Y-78149931D01*
X168663220Y-77149931D02*
X168472744Y-77149931D01*
X168472744Y-77149931D02*
X168377506Y-77197550D01*
X168377506Y-77197550D02*
X168282268Y-77292788D01*
X168282268Y-77292788D02*
X168234649Y-77483264D01*
X168234649Y-77483264D02*
X168234649Y-77816597D01*
X168234649Y-77816597D02*
X168282268Y-78007073D01*
X168282268Y-78007073D02*
X168377506Y-78102312D01*
X168377506Y-78102312D02*
X168472744Y-78149931D01*
X168472744Y-78149931D02*
X168663220Y-78149931D01*
X168663220Y-78149931D02*
X168758458Y-78102312D01*
X168758458Y-78102312D02*
X168853696Y-78007073D01*
X168853696Y-78007073D02*
X168901315Y-77816597D01*
X168901315Y-77816597D02*
X168901315Y-77483264D01*
X168901315Y-77483264D02*
X168853696Y-77292788D01*
X168853696Y-77292788D02*
X168758458Y-77197550D01*
X168758458Y-77197550D02*
X168663220Y-77149931D01*
X167806077Y-78054692D02*
X167758458Y-78102312D01*
X167758458Y-78102312D02*
X167806077Y-78149931D01*
X167806077Y-78149931D02*
X167853696Y-78102312D01*
X167853696Y-78102312D02*
X167806077Y-78054692D01*
X167806077Y-78054692D02*
X167806077Y-78149931D01*
X167806077Y-77530883D02*
X167758458Y-77578502D01*
X167758458Y-77578502D02*
X167806077Y-77626121D01*
X167806077Y-77626121D02*
X167853696Y-77578502D01*
X167853696Y-77578502D02*
X167806077Y-77530883D01*
X167806077Y-77530883D02*
X167806077Y-77626121D01*
X166710839Y-77149931D02*
X166139411Y-77149931D01*
X166425125Y-78149931D02*
X166425125Y-77149931D01*
X165806077Y-78149931D02*
X165806077Y-77149931D01*
X165806077Y-77149931D02*
X165425125Y-77149931D01*
X165425125Y-77149931D02*
X165329887Y-77197550D01*
X165329887Y-77197550D02*
X165282268Y-77245169D01*
X165282268Y-77245169D02*
X165234649Y-77340407D01*
X165234649Y-77340407D02*
X165234649Y-77483264D01*
X165234649Y-77483264D02*
X165282268Y-77578502D01*
X165282268Y-77578502D02*
X165329887Y-77626121D01*
X165329887Y-77626121D02*
X165425125Y-77673740D01*
X165425125Y-77673740D02*
X165806077Y-77673740D01*
X164853696Y-77864216D02*
X164377506Y-77864216D01*
X164948934Y-78149931D02*
X164615601Y-77149931D01*
X164615601Y-77149931D02*
X164282268Y-78149931D01*
X163948934Y-78149931D02*
X163948934Y-77149931D01*
X163948934Y-77149931D02*
X163567982Y-77149931D01*
X163567982Y-77149931D02*
X163472744Y-77197550D01*
X163472744Y-77197550D02*
X163425125Y-77245169D01*
X163425125Y-77245169D02*
X163377506Y-77340407D01*
X163377506Y-77340407D02*
X163377506Y-77483264D01*
X163377506Y-77483264D02*
X163425125Y-77578502D01*
X163425125Y-77578502D02*
X163472744Y-77626121D01*
X163472744Y-77626121D02*
X163567982Y-77673740D01*
X163567982Y-77673740D02*
X163948934Y-77673740D01*
X162996553Y-77245169D02*
X162948934Y-77197550D01*
X162948934Y-77197550D02*
X162853696Y-77149931D01*
X162853696Y-77149931D02*
X162615601Y-77149931D01*
X162615601Y-77149931D02*
X162520363Y-77197550D01*
X162520363Y-77197550D02*
X162472744Y-77245169D01*
X162472744Y-77245169D02*
X162425125Y-77340407D01*
X162425125Y-77340407D02*
X162425125Y-77435645D01*
X162425125Y-77435645D02*
X162472744Y-77578502D01*
X162472744Y-77578502D02*
X163044172Y-78149931D01*
X163044172Y-78149931D02*
X162425125Y-78149931D01*
X162044172Y-77245169D02*
X161996553Y-77197550D01*
X161996553Y-77197550D02*
X161901315Y-77149931D01*
X161901315Y-77149931D02*
X161663220Y-77149931D01*
X161663220Y-77149931D02*
X161567982Y-77197550D01*
X161567982Y-77197550D02*
X161520363Y-77245169D01*
X161520363Y-77245169D02*
X161472744Y-77340407D01*
X161472744Y-77340407D02*
X161472744Y-77435645D01*
X161472744Y-77435645D02*
X161520363Y-77578502D01*
X161520363Y-77578502D02*
X162091791Y-78149931D01*
X162091791Y-78149931D02*
X161472744Y-78149931D01*
X160520363Y-78149931D02*
X161091791Y-78149931D01*
X160806077Y-78149931D02*
X160806077Y-77149931D01*
X160806077Y-77149931D02*
X160901315Y-77292788D01*
X160901315Y-77292788D02*
X160996553Y-77388026D01*
X160996553Y-77388026D02*
X161091791Y-77435645D01*
X159901315Y-77149931D02*
X159806077Y-77149931D01*
X159806077Y-77149931D02*
X159710839Y-77197550D01*
X159710839Y-77197550D02*
X159663220Y-77245169D01*
X159663220Y-77245169D02*
X159615601Y-77340407D01*
X159615601Y-77340407D02*
X159567982Y-77530883D01*
X159567982Y-77530883D02*
X159567982Y-77768978D01*
X159567982Y-77768978D02*
X159615601Y-77959454D01*
X159615601Y-77959454D02*
X159663220Y-78054692D01*
X159663220Y-78054692D02*
X159710839Y-78102312D01*
X159710839Y-78102312D02*
X159806077Y-78149931D01*
X159806077Y-78149931D02*
X159901315Y-78149931D01*
X159901315Y-78149931D02*
X159996553Y-78102312D01*
X159996553Y-78102312D02*
X160044172Y-78054692D01*
X160044172Y-78054692D02*
X160091791Y-77959454D01*
X160091791Y-77959454D02*
X160139410Y-77768978D01*
X160139410Y-77768978D02*
X160139410Y-77530883D01*
X160139410Y-77530883D02*
X160091791Y-77340407D01*
X160091791Y-77340407D02*
X160044172Y-77245169D01*
X160044172Y-77245169D02*
X159996553Y-77197550D01*
X159996553Y-77197550D02*
X159901315Y-77149931D01*
X159139410Y-78149931D02*
X159139410Y-77149931D01*
X158567982Y-78149931D02*
X158996553Y-77578502D01*
X158567982Y-77149931D02*
X159139410Y-77721359D01*
X158139410Y-77768978D02*
X157377506Y-77768978D01*
X156996553Y-77149931D02*
X156377506Y-77149931D01*
X156377506Y-77149931D02*
X156710839Y-77530883D01*
X156710839Y-77530883D02*
X156567982Y-77530883D01*
X156567982Y-77530883D02*
X156472744Y-77578502D01*
X156472744Y-77578502D02*
X156425125Y-77626121D01*
X156425125Y-77626121D02*
X156377506Y-77721359D01*
X156377506Y-77721359D02*
X156377506Y-77959454D01*
X156377506Y-77959454D02*
X156425125Y-78054692D01*
X156425125Y-78054692D02*
X156472744Y-78102312D01*
X156472744Y-78102312D02*
X156567982Y-78149931D01*
X156567982Y-78149931D02*
X156853696Y-78149931D01*
X156853696Y-78149931D02*
X156948934Y-78102312D01*
X156948934Y-78102312D02*
X156996553Y-78054692D01*
X155948934Y-78054692D02*
X155901315Y-78102312D01*
X155901315Y-78102312D02*
X155948934Y-78149931D01*
X155948934Y-78149931D02*
X155996553Y-78102312D01*
X155996553Y-78102312D02*
X155948934Y-78054692D01*
X155948934Y-78054692D02*
X155948934Y-78149931D01*
X155567982Y-77149931D02*
X154948935Y-77149931D01*
X154948935Y-77149931D02*
X155282268Y-77530883D01*
X155282268Y-77530883D02*
X155139411Y-77530883D01*
X155139411Y-77530883D02*
X155044173Y-77578502D01*
X155044173Y-77578502D02*
X154996554Y-77626121D01*
X154996554Y-77626121D02*
X154948935Y-77721359D01*
X154948935Y-77721359D02*
X154948935Y-77959454D01*
X154948935Y-77959454D02*
X154996554Y-78054692D01*
X154996554Y-78054692D02*
X155044173Y-78102312D01*
X155044173Y-78102312D02*
X155139411Y-78149931D01*
X155139411Y-78149931D02*
X155425125Y-78149931D01*
X155425125Y-78149931D02*
X155520363Y-78102312D01*
X155520363Y-78102312D02*
X155567982Y-78054692D01*
X154663220Y-77149931D02*
X154091792Y-77149931D01*
X154377506Y-78149931D02*
X154377506Y-77149931D01*
X153187030Y-78149931D02*
X153520363Y-77673740D01*
X153758458Y-78149931D02*
X153758458Y-77149931D01*
X153758458Y-77149931D02*
X153377506Y-77149931D01*
X153377506Y-77149931D02*
X153282268Y-77197550D01*
X153282268Y-77197550D02*
X153234649Y-77245169D01*
X153234649Y-77245169D02*
X153187030Y-77340407D01*
X153187030Y-77340407D02*
X153187030Y-77483264D01*
X153187030Y-77483264D02*
X153234649Y-77578502D01*
X153234649Y-77578502D02*
X153282268Y-77626121D01*
X153282268Y-77626121D02*
X153377506Y-77673740D01*
X153377506Y-77673740D02*
X153758458Y-77673740D01*
X152234649Y-77197550D02*
X152329887Y-77149931D01*
X152329887Y-77149931D02*
X152472744Y-77149931D01*
X152472744Y-77149931D02*
X152615601Y-77197550D01*
X152615601Y-77197550D02*
X152710839Y-77292788D01*
X152710839Y-77292788D02*
X152758458Y-77388026D01*
X152758458Y-77388026D02*
X152806077Y-77578502D01*
X152806077Y-77578502D02*
X152806077Y-77721359D01*
X152806077Y-77721359D02*
X152758458Y-77911835D01*
X152758458Y-77911835D02*
X152710839Y-78007073D01*
X152710839Y-78007073D02*
X152615601Y-78102312D01*
X152615601Y-78102312D02*
X152472744Y-78149931D01*
X152472744Y-78149931D02*
X152377506Y-78149931D01*
X152377506Y-78149931D02*
X152234649Y-78102312D01*
X152234649Y-78102312D02*
X152187030Y-78054692D01*
X152187030Y-78054692D02*
X152187030Y-77721359D01*
X152187030Y-77721359D02*
X152377506Y-77721359D01*
X151234649Y-78149931D02*
X151806077Y-78149931D01*
X151520363Y-78149931D02*
X151520363Y-77149931D01*
X151520363Y-77149931D02*
X151615601Y-77292788D01*
X151615601Y-77292788D02*
X151710839Y-77388026D01*
X151710839Y-77388026D02*
X151806077Y-77435645D01*
X170329887Y-79236065D02*
X170187030Y-79283684D01*
X170187030Y-79283684D02*
X170139411Y-79331303D01*
X170139411Y-79331303D02*
X170091792Y-79426541D01*
X170091792Y-79426541D02*
X170091792Y-79569398D01*
X170091792Y-79569398D02*
X170139411Y-79664636D01*
X170139411Y-79664636D02*
X170187030Y-79712256D01*
X170187030Y-79712256D02*
X170282268Y-79759875D01*
X170282268Y-79759875D02*
X170663220Y-79759875D01*
X170663220Y-79759875D02*
X170663220Y-78759875D01*
X170663220Y-78759875D02*
X170329887Y-78759875D01*
X170329887Y-78759875D02*
X170234649Y-78807494D01*
X170234649Y-78807494D02*
X170187030Y-78855113D01*
X170187030Y-78855113D02*
X170139411Y-78950351D01*
X170139411Y-78950351D02*
X170139411Y-79045589D01*
X170139411Y-79045589D02*
X170187030Y-79140827D01*
X170187030Y-79140827D02*
X170234649Y-79188446D01*
X170234649Y-79188446D02*
X170329887Y-79236065D01*
X170329887Y-79236065D02*
X170663220Y-79236065D01*
X169663220Y-78759875D02*
X169663220Y-79569398D01*
X169663220Y-79569398D02*
X169615601Y-79664636D01*
X169615601Y-79664636D02*
X169567982Y-79712256D01*
X169567982Y-79712256D02*
X169472744Y-79759875D01*
X169472744Y-79759875D02*
X169282268Y-79759875D01*
X169282268Y-79759875D02*
X169187030Y-79712256D01*
X169187030Y-79712256D02*
X169139411Y-79664636D01*
X169139411Y-79664636D02*
X169091792Y-79569398D01*
X169091792Y-79569398D02*
X169091792Y-78759875D01*
X168282268Y-79236065D02*
X168615601Y-79236065D01*
X168615601Y-79759875D02*
X168615601Y-78759875D01*
X168615601Y-78759875D02*
X168139411Y-78759875D01*
X167758458Y-79664636D02*
X167710839Y-79712256D01*
X167710839Y-79712256D02*
X167758458Y-79759875D01*
X167758458Y-79759875D02*
X167806077Y-79712256D01*
X167806077Y-79712256D02*
X167758458Y-79664636D01*
X167758458Y-79664636D02*
X167758458Y-79759875D01*
X167758458Y-79140827D02*
X167710839Y-79188446D01*
X167710839Y-79188446D02*
X167758458Y-79236065D01*
X167758458Y-79236065D02*
X167806077Y-79188446D01*
X167806077Y-79188446D02*
X167758458Y-79140827D01*
X167758458Y-79140827D02*
X167758458Y-79236065D01*
X166615601Y-78759875D02*
X165948935Y-78759875D01*
X165948935Y-78759875D02*
X166377506Y-79759875D01*
X165139411Y-79093208D02*
X165139411Y-79759875D01*
X165377506Y-78712256D02*
X165615601Y-79426541D01*
X165615601Y-79426541D02*
X164996554Y-79426541D01*
X164139411Y-79759875D02*
X164615601Y-79759875D01*
X164615601Y-79759875D02*
X164615601Y-78759875D01*
X163948934Y-78759875D02*
X163615601Y-79759875D01*
X163615601Y-79759875D02*
X163282268Y-78759875D01*
X162377506Y-79664636D02*
X162425125Y-79712256D01*
X162425125Y-79712256D02*
X162567982Y-79759875D01*
X162567982Y-79759875D02*
X162663220Y-79759875D01*
X162663220Y-79759875D02*
X162806077Y-79712256D01*
X162806077Y-79712256D02*
X162901315Y-79617017D01*
X162901315Y-79617017D02*
X162948934Y-79521779D01*
X162948934Y-79521779D02*
X162996553Y-79331303D01*
X162996553Y-79331303D02*
X162996553Y-79188446D01*
X162996553Y-79188446D02*
X162948934Y-78997970D01*
X162948934Y-78997970D02*
X162901315Y-78902732D01*
X162901315Y-78902732D02*
X162806077Y-78807494D01*
X162806077Y-78807494D02*
X162663220Y-78759875D01*
X162663220Y-78759875D02*
X162567982Y-78759875D01*
X162567982Y-78759875D02*
X162425125Y-78807494D01*
X162425125Y-78807494D02*
X162377506Y-78855113D01*
X161996553Y-78855113D02*
X161948934Y-78807494D01*
X161948934Y-78807494D02*
X161853696Y-78759875D01*
X161853696Y-78759875D02*
X161615601Y-78759875D01*
X161615601Y-78759875D02*
X161520363Y-78807494D01*
X161520363Y-78807494D02*
X161472744Y-78855113D01*
X161472744Y-78855113D02*
X161425125Y-78950351D01*
X161425125Y-78950351D02*
X161425125Y-79045589D01*
X161425125Y-79045589D02*
X161472744Y-79188446D01*
X161472744Y-79188446D02*
X162044172Y-79759875D01*
X162044172Y-79759875D02*
X161425125Y-79759875D01*
X160472744Y-78807494D02*
X160567982Y-78759875D01*
X160567982Y-78759875D02*
X160710839Y-78759875D01*
X160710839Y-78759875D02*
X160853696Y-78807494D01*
X160853696Y-78807494D02*
X160948934Y-78902732D01*
X160948934Y-78902732D02*
X160996553Y-78997970D01*
X160996553Y-78997970D02*
X161044172Y-79188446D01*
X161044172Y-79188446D02*
X161044172Y-79331303D01*
X161044172Y-79331303D02*
X160996553Y-79521779D01*
X160996553Y-79521779D02*
X160948934Y-79617017D01*
X160948934Y-79617017D02*
X160853696Y-79712256D01*
X160853696Y-79712256D02*
X160710839Y-79759875D01*
X160710839Y-79759875D02*
X160615601Y-79759875D01*
X160615601Y-79759875D02*
X160472744Y-79712256D01*
X160472744Y-79712256D02*
X160425125Y-79664636D01*
X160425125Y-79664636D02*
X160425125Y-79331303D01*
X160425125Y-79331303D02*
X160615601Y-79331303D01*
X159472744Y-79759875D02*
X160044172Y-79759875D01*
X159758458Y-79759875D02*
X159758458Y-78759875D01*
X159758458Y-78759875D02*
X159853696Y-78902732D01*
X159853696Y-78902732D02*
X159948934Y-78997970D01*
X159948934Y-78997970D02*
X160044172Y-79045589D01*
X159091791Y-78855113D02*
X159044172Y-78807494D01*
X159044172Y-78807494D02*
X158948934Y-78759875D01*
X158948934Y-78759875D02*
X158710839Y-78759875D01*
X158710839Y-78759875D02*
X158615601Y-78807494D01*
X158615601Y-78807494D02*
X158567982Y-78855113D01*
X158567982Y-78855113D02*
X158520363Y-78950351D01*
X158520363Y-78950351D02*
X158520363Y-79045589D01*
X158520363Y-79045589D02*
X158567982Y-79188446D01*
X158567982Y-79188446D02*
X159139410Y-79759875D01*
X159139410Y-79759875D02*
X158520363Y-79759875D01*
X157615601Y-78759875D02*
X158091791Y-78759875D01*
X158091791Y-78759875D02*
X158139410Y-79236065D01*
X158139410Y-79236065D02*
X158091791Y-79188446D01*
X158091791Y-79188446D02*
X157996553Y-79140827D01*
X157996553Y-79140827D02*
X157758458Y-79140827D01*
X157758458Y-79140827D02*
X157663220Y-79188446D01*
X157663220Y-79188446D02*
X157615601Y-79236065D01*
X157615601Y-79236065D02*
X157567982Y-79331303D01*
X157567982Y-79331303D02*
X157567982Y-79569398D01*
X157567982Y-79569398D02*
X157615601Y-79664636D01*
X157615601Y-79664636D02*
X157663220Y-79712256D01*
X157663220Y-79712256D02*
X157758458Y-79759875D01*
X157758458Y-79759875D02*
X157996553Y-79759875D01*
X157996553Y-79759875D02*
X158091791Y-79712256D01*
X158091791Y-79712256D02*
X158139410Y-79664636D01*
X156567982Y-79759875D02*
X156901315Y-79283684D01*
X157139410Y-79759875D02*
X157139410Y-78759875D01*
X157139410Y-78759875D02*
X156758458Y-78759875D01*
X156758458Y-78759875D02*
X156663220Y-78807494D01*
X156663220Y-78807494D02*
X156615601Y-78855113D01*
X156615601Y-78855113D02*
X156567982Y-78950351D01*
X156567982Y-78950351D02*
X156567982Y-79093208D01*
X156567982Y-79093208D02*
X156615601Y-79188446D01*
X156615601Y-79188446D02*
X156663220Y-79236065D01*
X156663220Y-79236065D02*
X156758458Y-79283684D01*
X156758458Y-79283684D02*
X157139410Y-79283684D01*
X156187029Y-79474160D02*
X155710839Y-79474160D01*
X156282267Y-79759875D02*
X155948934Y-78759875D01*
X155948934Y-78759875D02*
X155615601Y-79759875D01*
X155377505Y-78759875D02*
X154758458Y-78759875D01*
X154758458Y-78759875D02*
X155091791Y-79140827D01*
X155091791Y-79140827D02*
X154948934Y-79140827D01*
X154948934Y-79140827D02*
X154853696Y-79188446D01*
X154853696Y-79188446D02*
X154806077Y-79236065D01*
X154806077Y-79236065D02*
X154758458Y-79331303D01*
X154758458Y-79331303D02*
X154758458Y-79569398D01*
X154758458Y-79569398D02*
X154806077Y-79664636D01*
X154806077Y-79664636D02*
X154853696Y-79712256D01*
X154853696Y-79712256D02*
X154948934Y-79759875D01*
X154948934Y-79759875D02*
X155234648Y-79759875D01*
X155234648Y-79759875D02*
X155329886Y-79712256D01*
X155329886Y-79712256D02*
X155377505Y-79664636D01*
X154329886Y-79378922D02*
X153567982Y-79378922D01*
X153187029Y-78759875D02*
X152520363Y-78759875D01*
X152520363Y-78759875D02*
X152948934Y-79759875D01*
X170091792Y-81369819D02*
X170425125Y-80893628D01*
X170663220Y-81369819D02*
X170663220Y-80369819D01*
X170663220Y-80369819D02*
X170282268Y-80369819D01*
X170282268Y-80369819D02*
X170187030Y-80417438D01*
X170187030Y-80417438D02*
X170139411Y-80465057D01*
X170139411Y-80465057D02*
X170091792Y-80560295D01*
X170091792Y-80560295D02*
X170091792Y-80703152D01*
X170091792Y-80703152D02*
X170139411Y-80798390D01*
X170139411Y-80798390D02*
X170187030Y-80846009D01*
X170187030Y-80846009D02*
X170282268Y-80893628D01*
X170282268Y-80893628D02*
X170663220Y-80893628D01*
X169710839Y-81322200D02*
X169567982Y-81369819D01*
X169567982Y-81369819D02*
X169329887Y-81369819D01*
X169329887Y-81369819D02*
X169234649Y-81322200D01*
X169234649Y-81322200D02*
X169187030Y-81274580D01*
X169187030Y-81274580D02*
X169139411Y-81179342D01*
X169139411Y-81179342D02*
X169139411Y-81084104D01*
X169139411Y-81084104D02*
X169187030Y-80988866D01*
X169187030Y-80988866D02*
X169234649Y-80941247D01*
X169234649Y-80941247D02*
X169329887Y-80893628D01*
X169329887Y-80893628D02*
X169520363Y-80846009D01*
X169520363Y-80846009D02*
X169615601Y-80798390D01*
X169615601Y-80798390D02*
X169663220Y-80750771D01*
X169663220Y-80750771D02*
X169710839Y-80655533D01*
X169710839Y-80655533D02*
X169710839Y-80560295D01*
X169710839Y-80560295D02*
X169663220Y-80465057D01*
X169663220Y-80465057D02*
X169615601Y-80417438D01*
X169615601Y-80417438D02*
X169520363Y-80369819D01*
X169520363Y-80369819D02*
X169282268Y-80369819D01*
X169282268Y-80369819D02*
X169139411Y-80417438D01*
X168187030Y-81369819D02*
X168758458Y-81369819D01*
X168472744Y-81369819D02*
X168472744Y-80369819D01*
X168472744Y-80369819D02*
X168567982Y-80512676D01*
X168567982Y-80512676D02*
X168663220Y-80607914D01*
X168663220Y-80607914D02*
X168758458Y-80655533D01*
X167758458Y-81274580D02*
X167710839Y-81322200D01*
X167710839Y-81322200D02*
X167758458Y-81369819D01*
X167758458Y-81369819D02*
X167806077Y-81322200D01*
X167806077Y-81322200D02*
X167758458Y-81274580D01*
X167758458Y-81274580D02*
X167758458Y-81369819D01*
X167758458Y-80750771D02*
X167710839Y-80798390D01*
X167710839Y-80798390D02*
X167758458Y-80846009D01*
X167758458Y-80846009D02*
X167806077Y-80798390D01*
X167806077Y-80798390D02*
X167758458Y-80750771D01*
X167758458Y-80750771D02*
X167758458Y-80846009D01*
X166329887Y-80369819D02*
X166234649Y-80369819D01*
X166234649Y-80369819D02*
X166139411Y-80417438D01*
X166139411Y-80417438D02*
X166091792Y-80465057D01*
X166091792Y-80465057D02*
X166044173Y-80560295D01*
X166044173Y-80560295D02*
X165996554Y-80750771D01*
X165996554Y-80750771D02*
X165996554Y-80988866D01*
X165996554Y-80988866D02*
X166044173Y-81179342D01*
X166044173Y-81179342D02*
X166091792Y-81274580D01*
X166091792Y-81274580D02*
X166139411Y-81322200D01*
X166139411Y-81322200D02*
X166234649Y-81369819D01*
X166234649Y-81369819D02*
X166329887Y-81369819D01*
X166329887Y-81369819D02*
X166425125Y-81322200D01*
X166425125Y-81322200D02*
X166472744Y-81274580D01*
X166472744Y-81274580D02*
X166520363Y-81179342D01*
X166520363Y-81179342D02*
X166567982Y-80988866D01*
X166567982Y-80988866D02*
X166567982Y-80750771D01*
X166567982Y-80750771D02*
X166520363Y-80560295D01*
X166520363Y-80560295D02*
X166472744Y-80465057D01*
X166472744Y-80465057D02*
X166425125Y-80417438D01*
X166425125Y-80417438D02*
X166329887Y-80369819D01*
X165567982Y-81274580D02*
X165520363Y-81322200D01*
X165520363Y-81322200D02*
X165567982Y-81369819D01*
X165567982Y-81369819D02*
X165615601Y-81322200D01*
X165615601Y-81322200D02*
X165567982Y-81274580D01*
X165567982Y-81274580D02*
X165567982Y-81369819D01*
X164567983Y-81369819D02*
X165139411Y-81369819D01*
X164853697Y-81369819D02*
X164853697Y-80369819D01*
X164853697Y-80369819D02*
X164948935Y-80512676D01*
X164948935Y-80512676D02*
X165044173Y-80607914D01*
X165044173Y-80607914D02*
X165139411Y-80655533D01*
X163187030Y-80369819D02*
X162996554Y-80369819D01*
X162996554Y-80369819D02*
X162901316Y-80417438D01*
X162901316Y-80417438D02*
X162806078Y-80512676D01*
X162806078Y-80512676D02*
X162758459Y-80703152D01*
X162758459Y-80703152D02*
X162758459Y-81036485D01*
X162758459Y-81036485D02*
X162806078Y-81226961D01*
X162806078Y-81226961D02*
X162901316Y-81322200D01*
X162901316Y-81322200D02*
X162996554Y-81369819D01*
X162996554Y-81369819D02*
X163187030Y-81369819D01*
X163187030Y-81369819D02*
X163282268Y-81322200D01*
X163282268Y-81322200D02*
X163377506Y-81226961D01*
X163377506Y-81226961D02*
X163425125Y-81036485D01*
X163425125Y-81036485D02*
X163425125Y-80703152D01*
X163425125Y-80703152D02*
X163377506Y-80512676D01*
X163377506Y-80512676D02*
X163282268Y-80417438D01*
X163282268Y-80417438D02*
X163187030Y-80369819D01*
X162329887Y-81369819D02*
X162329887Y-80369819D01*
X162329887Y-80846009D02*
X161758459Y-80846009D01*
X161758459Y-81369819D02*
X161758459Y-80369819D01*
X161282268Y-81369819D02*
X161282268Y-80369819D01*
X161282268Y-80369819D02*
X160948935Y-81084104D01*
X160948935Y-81084104D02*
X160615602Y-80369819D01*
X160615602Y-80369819D02*
X160615602Y-81369819D01*
X159520363Y-80988866D02*
X159472744Y-80941247D01*
X159472744Y-80941247D02*
X159377506Y-80893628D01*
X159377506Y-80893628D02*
X159187030Y-80988866D01*
X159187030Y-80988866D02*
X159091792Y-80941247D01*
X159091792Y-80941247D02*
X159044173Y-80893628D01*
X158139411Y-81369819D02*
X158710839Y-81369819D01*
X158425125Y-81369819D02*
X158425125Y-80369819D01*
X158425125Y-80369819D02*
X158520363Y-80512676D01*
X158520363Y-80512676D02*
X158615601Y-80607914D01*
X158615601Y-80607914D02*
X158710839Y-80655533D01*
X157758458Y-81369819D02*
X156996554Y-80369819D01*
X157615601Y-80369819D02*
X157520363Y-80417438D01*
X157520363Y-80417438D02*
X157472744Y-80512676D01*
X157472744Y-80512676D02*
X157520363Y-80607914D01*
X157520363Y-80607914D02*
X157615601Y-80655533D01*
X157615601Y-80655533D02*
X157710839Y-80607914D01*
X157710839Y-80607914D02*
X157758458Y-80512676D01*
X157758458Y-80512676D02*
X157710839Y-80417438D01*
X157710839Y-80417438D02*
X157615601Y-80369819D01*
X157044173Y-81322200D02*
X156996554Y-81226961D01*
X156996554Y-81226961D02*
X157044173Y-81131723D01*
X157044173Y-81131723D02*
X157139411Y-81084104D01*
X157139411Y-81084104D02*
X157234649Y-81131723D01*
X157234649Y-81131723D02*
X157282268Y-81226961D01*
X157282268Y-81226961D02*
X157234649Y-81322200D01*
X157234649Y-81322200D02*
X157139411Y-81369819D01*
X157139411Y-81369819D02*
X157044173Y-81322200D01*
X162020114Y-107804819D02*
X162020114Y-106804819D01*
X161591543Y-107804819D02*
X161591543Y-107281009D01*
X161591543Y-107281009D02*
X161639162Y-107185771D01*
X161639162Y-107185771D02*
X161734400Y-107138152D01*
X161734400Y-107138152D02*
X161877257Y-107138152D01*
X161877257Y-107138152D02*
X161972495Y-107185771D01*
X161972495Y-107185771D02*
X162020114Y-107233390D01*
X161258209Y-107138152D02*
X160877257Y-107138152D01*
X161115352Y-106804819D02*
X161115352Y-107661961D01*
X161115352Y-107661961D02*
X161067733Y-107757200D01*
X161067733Y-107757200D02*
X160972495Y-107804819D01*
X160972495Y-107804819D02*
X160877257Y-107804819D01*
X160686780Y-107138152D02*
X160305828Y-107138152D01*
X160543923Y-106804819D02*
X160543923Y-107661961D01*
X160543923Y-107661961D02*
X160496304Y-107757200D01*
X160496304Y-107757200D02*
X160401066Y-107804819D01*
X160401066Y-107804819D02*
X160305828Y-107804819D01*
X159972494Y-107138152D02*
X159972494Y-108138152D01*
X159972494Y-107185771D02*
X159877256Y-107138152D01*
X159877256Y-107138152D02*
X159686780Y-107138152D01*
X159686780Y-107138152D02*
X159591542Y-107185771D01*
X159591542Y-107185771D02*
X159543923Y-107233390D01*
X159543923Y-107233390D02*
X159496304Y-107328628D01*
X159496304Y-107328628D02*
X159496304Y-107614342D01*
X159496304Y-107614342D02*
X159543923Y-107709580D01*
X159543923Y-107709580D02*
X159591542Y-107757200D01*
X159591542Y-107757200D02*
X159686780Y-107804819D01*
X159686780Y-107804819D02*
X159877256Y-107804819D01*
X159877256Y-107804819D02*
X159972494Y-107757200D01*
X159115351Y-107757200D02*
X159020113Y-107804819D01*
X159020113Y-107804819D02*
X158829637Y-107804819D01*
X158829637Y-107804819D02*
X158734399Y-107757200D01*
X158734399Y-107757200D02*
X158686780Y-107661961D01*
X158686780Y-107661961D02*
X158686780Y-107614342D01*
X158686780Y-107614342D02*
X158734399Y-107519104D01*
X158734399Y-107519104D02*
X158829637Y-107471485D01*
X158829637Y-107471485D02*
X158972494Y-107471485D01*
X158972494Y-107471485D02*
X159067732Y-107423866D01*
X159067732Y-107423866D02*
X159115351Y-107328628D01*
X159115351Y-107328628D02*
X159115351Y-107281009D01*
X159115351Y-107281009D02*
X159067732Y-107185771D01*
X159067732Y-107185771D02*
X158972494Y-107138152D01*
X158972494Y-107138152D02*
X158829637Y-107138152D01*
X158829637Y-107138152D02*
X158734399Y-107185771D01*
X158258208Y-107709580D02*
X158210589Y-107757200D01*
X158210589Y-107757200D02*
X158258208Y-107804819D01*
X158258208Y-107804819D02*
X158305827Y-107757200D01*
X158305827Y-107757200D02*
X158258208Y-107709580D01*
X158258208Y-107709580D02*
X158258208Y-107804819D01*
X158258208Y-107185771D02*
X158210589Y-107233390D01*
X158210589Y-107233390D02*
X158258208Y-107281009D01*
X158258208Y-107281009D02*
X158305827Y-107233390D01*
X158305827Y-107233390D02*
X158258208Y-107185771D01*
X158258208Y-107185771D02*
X158258208Y-107281009D01*
X157067733Y-106757200D02*
X157924875Y-108042914D01*
X156020114Y-106757200D02*
X156877256Y-108042914D01*
X155258209Y-107138152D02*
X155258209Y-107947676D01*
X155258209Y-107947676D02*
X155305828Y-108042914D01*
X155305828Y-108042914D02*
X155353447Y-108090533D01*
X155353447Y-108090533D02*
X155448685Y-108138152D01*
X155448685Y-108138152D02*
X155591542Y-108138152D01*
X155591542Y-108138152D02*
X155686780Y-108090533D01*
X155258209Y-107757200D02*
X155353447Y-107804819D01*
X155353447Y-107804819D02*
X155543923Y-107804819D01*
X155543923Y-107804819D02*
X155639161Y-107757200D01*
X155639161Y-107757200D02*
X155686780Y-107709580D01*
X155686780Y-107709580D02*
X155734399Y-107614342D01*
X155734399Y-107614342D02*
X155734399Y-107328628D01*
X155734399Y-107328628D02*
X155686780Y-107233390D01*
X155686780Y-107233390D02*
X155639161Y-107185771D01*
X155639161Y-107185771D02*
X155543923Y-107138152D01*
X155543923Y-107138152D02*
X155353447Y-107138152D01*
X155353447Y-107138152D02*
X155258209Y-107185771D01*
X154782018Y-107804819D02*
X154782018Y-107138152D01*
X154782018Y-106804819D02*
X154829637Y-106852438D01*
X154829637Y-106852438D02*
X154782018Y-106900057D01*
X154782018Y-106900057D02*
X154734399Y-106852438D01*
X154734399Y-106852438D02*
X154782018Y-106804819D01*
X154782018Y-106804819D02*
X154782018Y-106900057D01*
X154448685Y-107138152D02*
X154067733Y-107138152D01*
X154305828Y-106804819D02*
X154305828Y-107661961D01*
X154305828Y-107661961D02*
X154258209Y-107757200D01*
X154258209Y-107757200D02*
X154162971Y-107804819D01*
X154162971Y-107804819D02*
X154067733Y-107804819D01*
X153734399Y-107804819D02*
X153734399Y-106804819D01*
X153305828Y-107804819D02*
X153305828Y-107281009D01*
X153305828Y-107281009D02*
X153353447Y-107185771D01*
X153353447Y-107185771D02*
X153448685Y-107138152D01*
X153448685Y-107138152D02*
X153591542Y-107138152D01*
X153591542Y-107138152D02*
X153686780Y-107185771D01*
X153686780Y-107185771D02*
X153734399Y-107233390D01*
X152401066Y-107138152D02*
X152401066Y-107804819D01*
X152829637Y-107138152D02*
X152829637Y-107661961D01*
X152829637Y-107661961D02*
X152782018Y-107757200D01*
X152782018Y-107757200D02*
X152686780Y-107804819D01*
X152686780Y-107804819D02*
X152543923Y-107804819D01*
X152543923Y-107804819D02*
X152448685Y-107757200D01*
X152448685Y-107757200D02*
X152401066Y-107709580D01*
X151924875Y-107804819D02*
X151924875Y-106804819D01*
X151924875Y-107185771D02*
X151829637Y-107138152D01*
X151829637Y-107138152D02*
X151639161Y-107138152D01*
X151639161Y-107138152D02*
X151543923Y-107185771D01*
X151543923Y-107185771D02*
X151496304Y-107233390D01*
X151496304Y-107233390D02*
X151448685Y-107328628D01*
X151448685Y-107328628D02*
X151448685Y-107614342D01*
X151448685Y-107614342D02*
X151496304Y-107709580D01*
X151496304Y-107709580D02*
X151543923Y-107757200D01*
X151543923Y-107757200D02*
X151639161Y-107804819D01*
X151639161Y-107804819D02*
X151829637Y-107804819D01*
X151829637Y-107804819D02*
X151924875Y-107757200D01*
X151020113Y-107709580D02*
X150972494Y-107757200D01*
X150972494Y-107757200D02*
X151020113Y-107804819D01*
X151020113Y-107804819D02*
X151067732Y-107757200D01*
X151067732Y-107757200D02*
X151020113Y-107709580D01*
X151020113Y-107709580D02*
X151020113Y-107804819D01*
X150115352Y-107757200D02*
X150210590Y-107804819D01*
X150210590Y-107804819D02*
X150401066Y-107804819D01*
X150401066Y-107804819D02*
X150496304Y-107757200D01*
X150496304Y-107757200D02*
X150543923Y-107709580D01*
X150543923Y-107709580D02*
X150591542Y-107614342D01*
X150591542Y-107614342D02*
X150591542Y-107328628D01*
X150591542Y-107328628D02*
X150543923Y-107233390D01*
X150543923Y-107233390D02*
X150496304Y-107185771D01*
X150496304Y-107185771D02*
X150401066Y-107138152D01*
X150401066Y-107138152D02*
X150210590Y-107138152D01*
X150210590Y-107138152D02*
X150115352Y-107185771D01*
X149543923Y-107804819D02*
X149639161Y-107757200D01*
X149639161Y-107757200D02*
X149686780Y-107709580D01*
X149686780Y-107709580D02*
X149734399Y-107614342D01*
X149734399Y-107614342D02*
X149734399Y-107328628D01*
X149734399Y-107328628D02*
X149686780Y-107233390D01*
X149686780Y-107233390D02*
X149639161Y-107185771D01*
X149639161Y-107185771D02*
X149543923Y-107138152D01*
X149543923Y-107138152D02*
X149401066Y-107138152D01*
X149401066Y-107138152D02*
X149305828Y-107185771D01*
X149305828Y-107185771D02*
X149258209Y-107233390D01*
X149258209Y-107233390D02*
X149210590Y-107328628D01*
X149210590Y-107328628D02*
X149210590Y-107614342D01*
X149210590Y-107614342D02*
X149258209Y-107709580D01*
X149258209Y-107709580D02*
X149305828Y-107757200D01*
X149305828Y-107757200D02*
X149401066Y-107804819D01*
X149401066Y-107804819D02*
X149543923Y-107804819D01*
X148782018Y-107804819D02*
X148782018Y-107138152D01*
X148782018Y-107233390D02*
X148734399Y-107185771D01*
X148734399Y-107185771D02*
X148639161Y-107138152D01*
X148639161Y-107138152D02*
X148496304Y-107138152D01*
X148496304Y-107138152D02*
X148401066Y-107185771D01*
X148401066Y-107185771D02*
X148353447Y-107281009D01*
X148353447Y-107281009D02*
X148353447Y-107804819D01*
X148353447Y-107281009D02*
X148305828Y-107185771D01*
X148305828Y-107185771D02*
X148210590Y-107138152D01*
X148210590Y-107138152D02*
X148067733Y-107138152D01*
X148067733Y-107138152D02*
X147972494Y-107185771D01*
X147972494Y-107185771D02*
X147924875Y-107281009D01*
X147924875Y-107281009D02*
X147924875Y-107804819D01*
X146734400Y-106757200D02*
X147591542Y-108042914D01*
X146210590Y-106804819D02*
X146020114Y-106804819D01*
X146020114Y-106804819D02*
X145924876Y-106852438D01*
X145924876Y-106852438D02*
X145829638Y-106947676D01*
X145829638Y-106947676D02*
X145782019Y-107138152D01*
X145782019Y-107138152D02*
X145782019Y-107471485D01*
X145782019Y-107471485D02*
X145829638Y-107661961D01*
X145829638Y-107661961D02*
X145924876Y-107757200D01*
X145924876Y-107757200D02*
X146020114Y-107804819D01*
X146020114Y-107804819D02*
X146210590Y-107804819D01*
X146210590Y-107804819D02*
X146305828Y-107757200D01*
X146305828Y-107757200D02*
X146401066Y-107661961D01*
X146401066Y-107661961D02*
X146448685Y-107471485D01*
X146448685Y-107471485D02*
X146448685Y-107138152D01*
X146448685Y-107138152D02*
X146401066Y-106947676D01*
X146401066Y-106947676D02*
X146305828Y-106852438D01*
X146305828Y-106852438D02*
X146210590Y-106804819D01*
X145353447Y-107138152D02*
X145353447Y-108138152D01*
X145353447Y-107185771D02*
X145258209Y-107138152D01*
X145258209Y-107138152D02*
X145067733Y-107138152D01*
X145067733Y-107138152D02*
X144972495Y-107185771D01*
X144972495Y-107185771D02*
X144924876Y-107233390D01*
X144924876Y-107233390D02*
X144877257Y-107328628D01*
X144877257Y-107328628D02*
X144877257Y-107614342D01*
X144877257Y-107614342D02*
X144924876Y-107709580D01*
X144924876Y-107709580D02*
X144972495Y-107757200D01*
X144972495Y-107757200D02*
X145067733Y-107804819D01*
X145067733Y-107804819D02*
X145258209Y-107804819D01*
X145258209Y-107804819D02*
X145353447Y-107757200D01*
X144067733Y-107757200D02*
X144162971Y-107804819D01*
X144162971Y-107804819D02*
X144353447Y-107804819D01*
X144353447Y-107804819D02*
X144448685Y-107757200D01*
X144448685Y-107757200D02*
X144496304Y-107661961D01*
X144496304Y-107661961D02*
X144496304Y-107281009D01*
X144496304Y-107281009D02*
X144448685Y-107185771D01*
X144448685Y-107185771D02*
X144353447Y-107138152D01*
X144353447Y-107138152D02*
X144162971Y-107138152D01*
X144162971Y-107138152D02*
X144067733Y-107185771D01*
X144067733Y-107185771D02*
X144020114Y-107281009D01*
X144020114Y-107281009D02*
X144020114Y-107376247D01*
X144020114Y-107376247D02*
X144496304Y-107471485D01*
X143591542Y-107138152D02*
X143591542Y-107804819D01*
X143591542Y-107233390D02*
X143543923Y-107185771D01*
X143543923Y-107185771D02*
X143448685Y-107138152D01*
X143448685Y-107138152D02*
X143305828Y-107138152D01*
X143305828Y-107138152D02*
X143210590Y-107185771D01*
X143210590Y-107185771D02*
X143162971Y-107281009D01*
X143162971Y-107281009D02*
X143162971Y-107804819D01*
X142734399Y-107757200D02*
X142591542Y-107804819D01*
X142591542Y-107804819D02*
X142353447Y-107804819D01*
X142353447Y-107804819D02*
X142258209Y-107757200D01*
X142258209Y-107757200D02*
X142210590Y-107709580D01*
X142210590Y-107709580D02*
X142162971Y-107614342D01*
X142162971Y-107614342D02*
X142162971Y-107519104D01*
X142162971Y-107519104D02*
X142210590Y-107423866D01*
X142210590Y-107423866D02*
X142258209Y-107376247D01*
X142258209Y-107376247D02*
X142353447Y-107328628D01*
X142353447Y-107328628D02*
X142543923Y-107281009D01*
X142543923Y-107281009D02*
X142639161Y-107233390D01*
X142639161Y-107233390D02*
X142686780Y-107185771D01*
X142686780Y-107185771D02*
X142734399Y-107090533D01*
X142734399Y-107090533D02*
X142734399Y-106995295D01*
X142734399Y-106995295D02*
X142686780Y-106900057D01*
X142686780Y-106900057D02*
X142639161Y-106852438D01*
X142639161Y-106852438D02*
X142543923Y-106804819D01*
X142543923Y-106804819D02*
X142305828Y-106804819D01*
X142305828Y-106804819D02*
X142162971Y-106852438D01*
X141353447Y-107757200D02*
X141448685Y-107804819D01*
X141448685Y-107804819D02*
X141639161Y-107804819D01*
X141639161Y-107804819D02*
X141734399Y-107757200D01*
X141734399Y-107757200D02*
X141782018Y-107661961D01*
X141782018Y-107661961D02*
X141782018Y-107281009D01*
X141782018Y-107281009D02*
X141734399Y-107185771D01*
X141734399Y-107185771D02*
X141639161Y-107138152D01*
X141639161Y-107138152D02*
X141448685Y-107138152D01*
X141448685Y-107138152D02*
X141353447Y-107185771D01*
X141353447Y-107185771D02*
X141305828Y-107281009D01*
X141305828Y-107281009D02*
X141305828Y-107376247D01*
X141305828Y-107376247D02*
X141782018Y-107471485D01*
X140877256Y-107804819D02*
X140877256Y-107138152D01*
X140877256Y-107328628D02*
X140829637Y-107233390D01*
X140829637Y-107233390D02*
X140782018Y-107185771D01*
X140782018Y-107185771D02*
X140686780Y-107138152D01*
X140686780Y-107138152D02*
X140591542Y-107138152D01*
X140353446Y-107138152D02*
X140115351Y-107804819D01*
X140115351Y-107804819D02*
X139877256Y-107138152D01*
X139353446Y-107804819D02*
X139448684Y-107757200D01*
X139448684Y-107757200D02*
X139496303Y-107709580D01*
X139496303Y-107709580D02*
X139543922Y-107614342D01*
X139543922Y-107614342D02*
X139543922Y-107328628D01*
X139543922Y-107328628D02*
X139496303Y-107233390D01*
X139496303Y-107233390D02*
X139448684Y-107185771D01*
X139448684Y-107185771D02*
X139353446Y-107138152D01*
X139353446Y-107138152D02*
X139210589Y-107138152D01*
X139210589Y-107138152D02*
X139115351Y-107185771D01*
X139115351Y-107185771D02*
X139067732Y-107233390D01*
X139067732Y-107233390D02*
X139020113Y-107328628D01*
X139020113Y-107328628D02*
X139020113Y-107614342D01*
X139020113Y-107614342D02*
X139067732Y-107709580D01*
X139067732Y-107709580D02*
X139115351Y-107757200D01*
X139115351Y-107757200D02*
X139210589Y-107804819D01*
X139210589Y-107804819D02*
X139353446Y-107804819D01*
X138020113Y-107709580D02*
X138067732Y-107757200D01*
X138067732Y-107757200D02*
X138210589Y-107804819D01*
X138210589Y-107804819D02*
X138305827Y-107804819D01*
X138305827Y-107804819D02*
X138448684Y-107757200D01*
X138448684Y-107757200D02*
X138543922Y-107661961D01*
X138543922Y-107661961D02*
X138591541Y-107566723D01*
X138591541Y-107566723D02*
X138639160Y-107376247D01*
X138639160Y-107376247D02*
X138639160Y-107233390D01*
X138639160Y-107233390D02*
X138591541Y-107042914D01*
X138591541Y-107042914D02*
X138543922Y-106947676D01*
X138543922Y-106947676D02*
X138448684Y-106852438D01*
X138448684Y-106852438D02*
X138305827Y-106804819D01*
X138305827Y-106804819D02*
X138210589Y-106804819D01*
X138210589Y-106804819D02*
X138067732Y-106852438D01*
X138067732Y-106852438D02*
X138020113Y-106900057D01*
X137448684Y-107804819D02*
X137543922Y-107757200D01*
X137543922Y-107757200D02*
X137591541Y-107709580D01*
X137591541Y-107709580D02*
X137639160Y-107614342D01*
X137639160Y-107614342D02*
X137639160Y-107328628D01*
X137639160Y-107328628D02*
X137591541Y-107233390D01*
X137591541Y-107233390D02*
X137543922Y-107185771D01*
X137543922Y-107185771D02*
X137448684Y-107138152D01*
X137448684Y-107138152D02*
X137305827Y-107138152D01*
X137305827Y-107138152D02*
X137210589Y-107185771D01*
X137210589Y-107185771D02*
X137162970Y-107233390D01*
X137162970Y-107233390D02*
X137115351Y-107328628D01*
X137115351Y-107328628D02*
X137115351Y-107614342D01*
X137115351Y-107614342D02*
X137162970Y-107709580D01*
X137162970Y-107709580D02*
X137210589Y-107757200D01*
X137210589Y-107757200D02*
X137305827Y-107804819D01*
X137305827Y-107804819D02*
X137448684Y-107804819D01*
X136686779Y-107804819D02*
X136686779Y-107138152D01*
X136686779Y-107328628D02*
X136639160Y-107233390D01*
X136639160Y-107233390D02*
X136591541Y-107185771D01*
X136591541Y-107185771D02*
X136496303Y-107138152D01*
X136496303Y-107138152D02*
X136401065Y-107138152D01*
X135686779Y-107757200D02*
X135782017Y-107804819D01*
X135782017Y-107804819D02*
X135972493Y-107804819D01*
X135972493Y-107804819D02*
X136067731Y-107757200D01*
X136067731Y-107757200D02*
X136115350Y-107661961D01*
X136115350Y-107661961D02*
X136115350Y-107281009D01*
X136115350Y-107281009D02*
X136067731Y-107185771D01*
X136067731Y-107185771D02*
X135972493Y-107138152D01*
X135972493Y-107138152D02*
X135782017Y-107138152D01*
X135782017Y-107138152D02*
X135686779Y-107185771D01*
X135686779Y-107185771D02*
X135639160Y-107281009D01*
X135639160Y-107281009D02*
X135639160Y-107376247D01*
X135639160Y-107376247D02*
X136115350Y-107471485D01*
X179460180Y-88478571D02*
X178745895Y-88478571D01*
X178745895Y-88478571D02*
X178603038Y-88526190D01*
X178603038Y-88526190D02*
X178507800Y-88621428D01*
X178507800Y-88621428D02*
X178460180Y-88764285D01*
X178460180Y-88764285D02*
X178460180Y-88859523D01*
X178507800Y-88049999D02*
X178460180Y-87907142D01*
X178460180Y-87907142D02*
X178460180Y-87669047D01*
X178460180Y-87669047D02*
X178507800Y-87573809D01*
X178507800Y-87573809D02*
X178555419Y-87526190D01*
X178555419Y-87526190D02*
X178650657Y-87478571D01*
X178650657Y-87478571D02*
X178745895Y-87478571D01*
X178745895Y-87478571D02*
X178841133Y-87526190D01*
X178841133Y-87526190D02*
X178888752Y-87573809D01*
X178888752Y-87573809D02*
X178936371Y-87669047D01*
X178936371Y-87669047D02*
X178983990Y-87859523D01*
X178983990Y-87859523D02*
X179031609Y-87954761D01*
X179031609Y-87954761D02*
X179079228Y-88002380D01*
X179079228Y-88002380D02*
X179174466Y-88049999D01*
X179174466Y-88049999D02*
X179269704Y-88049999D01*
X179269704Y-88049999D02*
X179364942Y-88002380D01*
X179364942Y-88002380D02*
X179412561Y-87954761D01*
X179412561Y-87954761D02*
X179460180Y-87859523D01*
X179460180Y-87859523D02*
X179460180Y-87621428D01*
X179460180Y-87621428D02*
X179412561Y-87478571D01*
X179460180Y-87192856D02*
X179460180Y-86621428D01*
X178460180Y-86907142D02*
X179460180Y-86907142D01*
X178841133Y-86288094D02*
X178841133Y-85526190D01*
X179460180Y-85145237D02*
X179460180Y-84478571D01*
X179460180Y-84478571D02*
X178460180Y-85145237D01*
X178460180Y-85145237D02*
X178460180Y-84478571D01*
X178460180Y-84097618D02*
X179460180Y-84097618D01*
X178983990Y-84097618D02*
X178983990Y-83526190D01*
X178460180Y-83526190D02*
X179460180Y-83526190D01*
X178841133Y-83049999D02*
X178841133Y-82288095D01*
X179460180Y-81383333D02*
X179460180Y-81573809D01*
X179460180Y-81573809D02*
X179412561Y-81669047D01*
X179412561Y-81669047D02*
X179364942Y-81716666D01*
X179364942Y-81716666D02*
X179222085Y-81811904D01*
X179222085Y-81811904D02*
X179031609Y-81859523D01*
X179031609Y-81859523D02*
X178650657Y-81859523D01*
X178650657Y-81859523D02*
X178555419Y-81811904D01*
X178555419Y-81811904D02*
X178507800Y-81764285D01*
X178507800Y-81764285D02*
X178460180Y-81669047D01*
X178460180Y-81669047D02*
X178460180Y-81478571D01*
X178460180Y-81478571D02*
X178507800Y-81383333D01*
X178507800Y-81383333D02*
X178555419Y-81335714D01*
X178555419Y-81335714D02*
X178650657Y-81288095D01*
X178650657Y-81288095D02*
X178888752Y-81288095D01*
X178888752Y-81288095D02*
X178983990Y-81335714D01*
X178983990Y-81335714D02*
X179031609Y-81383333D01*
X179031609Y-81383333D02*
X179079228Y-81478571D01*
X179079228Y-81478571D02*
X179079228Y-81669047D01*
X179079228Y-81669047D02*
X179031609Y-81764285D01*
X179031609Y-81764285D02*
X178983990Y-81811904D01*
X178983990Y-81811904D02*
X178888752Y-81859523D01*
X178460180Y-80859523D02*
X179460180Y-80859523D01*
X179460180Y-80859523D02*
X179460180Y-80478571D01*
X179460180Y-80478571D02*
X179412561Y-80383333D01*
X179412561Y-80383333D02*
X179364942Y-80335714D01*
X179364942Y-80335714D02*
X179269704Y-80288095D01*
X179269704Y-80288095D02*
X179126847Y-80288095D01*
X179126847Y-80288095D02*
X179031609Y-80335714D01*
X179031609Y-80335714D02*
X178983990Y-80383333D01*
X178983990Y-80383333D02*
X178936371Y-80478571D01*
X178936371Y-80478571D02*
X178936371Y-80859523D01*
%LPC*%
D11*
%TO.C,H1*%
X132750000Y-62750000D03*
%TD*%
%TO.C,H2*%
X177250000Y-62750000D03*
%TD*%
D12*
%TO.C,J1*%
X136650000Y-72250000D03*
D13*
X136650000Y-74250000D03*
%TD*%
D14*
%TO.C,USB1*%
X136810000Y-79000000D03*
X133000000Y-79000000D03*
X136810000Y-87640000D03*
X133000000Y-87640000D03*
%TD*%
D11*
%TO.C,H4*%
X132750000Y-107250000D03*
%TD*%
%TO.C,H3*%
X177250000Y-107250000D03*
%TD*%
%LPD*%
M02*
