M48
; DRILL file {KiCad 9.0.7} date 2026-02-18T10:31:35-0800
; FORMAT={-:-/ absolute / inch / decimal}
; #@! TF.CreationDate,2026-02-18T10:31:35-08:00
; #@! TF.GenerationSoftware,Kicad,Pcbnew,9.0.7
; #@! TF.FileFunction,Plated,1,4,PTH
FMAT,2
INCH
; #@! TA.AperFunction,Plated,PTH,ViaDrill
T1C0.0079
; #@! TA.AperFunction,Plated,PTH,ViaDrill
T2C0.0118
; #@! TA.AperFunction,Plated,PTH,ViaDrill
T3C0.0157
; #@! TA.AperFunction,Plated,PTH,ViaDrill
T4C0.0197
; #@! TA.AperFunction,Plated,PTH,ComponentDrill
T5C0.0197
; #@! TA.AperFunction,Plated,PTH,ComponentDrill
T6C0.0335
; #@! TA.AperFunction,Plated,PTH,ComponentDrill
T7C0.0866
%
G90
G05
T1
X5.5665Y-3.8008
X5.5665Y-3.8193
X5.5669Y-3.8378
X5.5669Y-3.8563
X5.5917Y-3.8008
X5.5917Y-3.8193
X5.5921Y-3.8378
X5.5921Y-3.8563
X6.2165Y-3.6781
X6.2165Y-3.7018
X6.2165Y-3.7244
X6.2402Y-3.6772
X6.2402Y-3.7008
X6.2402Y-3.7234
X6.2648Y-3.6772
X6.2648Y-3.7008
X6.2648Y-3.7234
T2
X5.1693Y-4.1299
X5.1732Y-2.563
X5.1772Y-2.7559
X5.1772Y-2.9528
X5.1772Y-3.1496
X5.1772Y-3.3465
X5.1772Y-3.7402
X5.1929Y-3.5965
X5.1949Y-3.9862
X5.2165Y-2.563
X5.2165Y-4.1299
X5.2343Y-3.9862
X5.2362Y-3.5965
X5.2638Y-2.563
X5.2677Y-4.1299
X5.315Y-2.4213
X5.315Y-4.2717
X5.3307Y-3.9094
X5.4134Y-4.2264
X5.4252Y-3.6575
X5.4626Y-3.75
X5.5118Y-2.4213
X5.5118Y-4.2717
X5.5138Y-3.2795
X5.5354Y-4.0587
X5.5685Y-4.0587
X5.6024Y-4.0587
X5.6102Y-2.5709
X5.6102Y-4.2264
X5.624Y-3.374
X5.6323Y-3.9449
X5.6323Y-3.9835
X5.6398Y-3.3268
X5.6453Y-3.4776
X5.6453Y-3.6197
X5.6457Y-3.4366
X5.6457Y-3.5669
X5.6461Y-3.5319
X5.6594Y-3.2677
X5.6634Y-3.8248
X5.69Y-3.752
X5.7087Y-2.4213
X5.7087Y-4.2717
X5.7112Y-3.8293
X5.7165Y-4.0748
X5.7323Y-3.5945
X5.7323Y-3.6654
X5.7717Y-3.9016
X5.7953Y-3.7441
X5.8071Y-4.0768
X5.8071Y-4.2264
X5.8465Y-4.0236
X5.8976Y-3.3465
X5.9016Y-3.1496
X5.9055Y-2.4213
X5.9055Y-4.2717
X5.9961Y-3.7205
X6.0039Y-4.2244
X6.0398Y-3.7126
X6.0426Y-3.8097
X6.0433Y-3.7484
X6.0435Y-3.8423
X6.0472Y-3.9213
X6.0669Y-3.6142
X6.0906Y-3.5846
X6.0969Y-3.3282
X6.1024Y-2.4213
X6.1024Y-4.2717
X6.1299Y-4.063
X6.1457Y-3.5906
X6.1594Y-3.6476
X6.1724Y-3.3282
X6.1772Y-3.4449
X6.2008Y-3.8228
X6.2008Y-3.9843
X6.2402Y-3.9449
X6.2484Y-3.3282
X6.2559Y-3.5079
X6.2717Y-3.8858
X6.2992Y-2.4213
X6.2992Y-4.2717
X6.3071Y-3.622
X6.3103Y-3.8591
X6.3346Y-3.2598
X6.3576Y-3.898
X6.3598Y-3.3957
X6.3602Y-3.4287
X6.3981Y-3.7992
X6.4331Y-3.5157
X6.4488Y-3.3543
X6.4843Y-3.3945
X6.4843Y-3.4323
X6.4843Y-3.4724
X6.4961Y-2.4213
X6.4961Y-4.2717
X6.5075Y-3.7043
X6.5079Y-2.9272
X6.522Y-3.5343
X6.539Y-3.5831
X6.5512Y-3.7677
X6.5913Y-3.8283
X6.6181Y-2.7126
X6.6181Y-2.7441
X6.6181Y-2.9921
X6.6181Y-3.0236
X6.6929Y-2.4213
X6.6929Y-4.2717
X6.8898Y-2.4213
X6.8898Y-4.2717
X6.9213Y-3.7205
X6.9213Y-3.7795
X6.9252Y-3.3583
X6.9252Y-3.4173
X6.9252Y-3.4764
X6.9252Y-3.8386
X6.9252Y-3.8976
X6.9331Y-2.9921
X6.9331Y-3.0236
X6.937Y-2.563
X6.9449Y-4.1299
X6.9685Y-2.6811
X6.9764Y-3.1457
X6.9764Y-3.9331
X6.9803Y-3.5118
X6.9803Y-3.685
X6.9882Y-2.563
X6.9882Y-4.1299
X7.0079Y-2.9272
X7.0157Y-3.1457
X7.0157Y-3.9331
X7.0197Y-3.5118
X7.0197Y-3.685
X7.0276Y-2.6811
X7.0276Y-3.061
X7.0276Y-3.3465
X7.0276Y-3.7402
X7.0276Y-4.1299
X7.0354Y-2.563
T3
X5.7087Y-3.1417
T4
X5.7441Y-2.6171
X6.6969Y-2.8091
X6.6969Y-2.8681
X6.8189Y-2.8681
X7.0157Y-2.8091
T6
X5.3799Y-2.8445
X5.3799Y-2.9232
T7
X5.2264Y-2.4705
X5.2264Y-4.2224
X6.9783Y-2.4705
X6.9783Y-4.2224
T5
G00X5.25Y-3.1102
M15
G01X5.2224Y-3.1102
M16
G05
G00X5.25Y-3.4504
M15
G01X5.2224Y-3.4504
M16
G05
G00X5.4Y-3.1102
M15
G01X5.3724Y-3.1102
M16
G05
G00X5.4Y-3.4504
M15
G01X5.3724Y-3.4504
M16
G05
M30
