M48
; DRILL file {KiCad 9.0.7} date 2026-02-24T14:36:30-0800
; FORMAT={-:-/ absolute / inch / decimal}
; #@! TF.CreationDate,2026-02-24T14:36:30-08:00
; #@! TF.GenerationSoftware,Kicad,Pcbnew,9.0.7
; #@! TF.FileFunction,Plated,1,4,PTH
FMAT,2
INCH
; #@! TA.AperFunction,Plated,PTH,ViaDrill
T1C0.0079
; #@! TA.AperFunction,Plated,PTH,ViaDrill
T2C0.0118
; #@! TA.AperFunction,Plated,PTH,ViaDrill
T3C0.0197
; #@! TA.AperFunction,Plated,PTH,ComponentDrill
T4C0.0197
; #@! TA.AperFunction,Plated,PTH,ComponentDrill
T5C0.0315
; #@! TA.AperFunction,Plated,PTH,ComponentDrill
T6C0.0335
; #@! TA.AperFunction,Plated,PTH,ComponentDrill
T7C0.0394
; #@! TA.AperFunction,Plated,PTH,ComponentDrill
T8C0.0394
; #@! TA.AperFunction,Plated,PTH,ComponentDrill
T9C0.0512
; #@! TA.AperFunction,Plated,PTH,ComponentDrill
T10C0.0866
%
G90
G05
T1
X5.8661Y-3.624
X5.8661Y-3.6457
X5.8661Y-3.6693
X5.8898Y-3.624
X5.8898Y-3.6457
X5.8898Y-3.6693
T2
X5.1772Y-2.4409
X5.1772Y-2.6465
X5.1772Y-2.8346
X5.1772Y-3.1102
X5.1772Y-3.2633
X5.1772Y-3.4689
X5.1772Y-3.6745
X5.1772Y-3.8801
X5.1772Y-4.0857
X5.1772Y-4.2913
X5.3839Y-4.4685
X5.4134Y-2.2165
X5.4272Y-3.5472
X5.498Y-2.9567
X5.5531Y-3.7815
X5.5818Y-4.4685
X5.5906Y-4.3169
X5.6102Y-2.2165
X5.6104Y-2.3819
X5.6634Y-3.9075
X5.6634Y-3.9862
X5.7323Y-2.6457
X5.7797Y-4.4685
X5.7815Y-2.5118
X5.7854Y-3.7815
X5.7874Y-4.3169
X5.8071Y-2.2165
X5.8072Y-2.376
X5.8583Y-3.7677
X5.8583Y-3.7953
X5.8858Y-3.7677
X5.8858Y-3.7953
X5.8878Y-2.7126
X5.9744Y-3.9173
X5.9744Y-3.9429
X5.9777Y-4.4685
X5.9783Y-2.9488
X5.9803Y-2.7894
X5.9823Y-3.1063
X5.9843Y-4.3169
X6.002Y-3.9173
X6.002Y-3.9429
X6.0039Y-2.2165
X6.0039Y-2.376
X6.0177Y-4.2303
X6.0394Y-3.2067
X6.0492Y-3.6673
X6.0551Y-4.0709
X6.0551Y-4.1555
X6.0856Y-3.6978
X6.0906Y-3.3799
X6.0906Y-3.4626
X6.0925Y-3.3366
X6.0984Y-4.0138
X6.0984Y-4.1102
X6.1482Y-3.151
X6.1535Y-3.0748
X6.1634Y-2.6772
X6.1756Y-4.4685
X6.1811Y-2.7756
X6.1811Y-4.3169
X6.2008Y-2.2165
X6.2087Y-2.9685
X6.2697Y-2.872
X6.2795Y-3.0354
X6.311Y-3.6732
X6.3484Y-2.876
X6.3736Y-4.4685
X6.376Y-3.561
X6.378Y-4.3209
X6.3937Y-3.6713
X6.3976Y-2.2165
X6.3976Y-2.376
X6.4311Y-3.6417
X6.5157Y-2.4744
X6.5157Y-2.563
X6.5157Y-2.6516
X6.5236Y-4.0886
X6.5715Y-4.4685
X6.5748Y-4.3169
X6.5866Y-3.7126
X6.5945Y-2.2165
X6.5945Y-2.376
X6.6516Y-3.9469
X6.6516Y-4.0354
X6.6614Y-3.8563
X6.7231Y-3.5341
X6.7333Y-3.4833
X6.7362Y-3.1988
X6.7362Y-3.2776
X6.7695Y-4.4685
X6.7717Y-4.3169
X6.7913Y-2.2165
X6.7913Y-2.376
X6.7963Y-3.503
X6.8174Y-3.7116
X6.8268Y-2.563
X6.8268Y-3.7923
X6.8583Y-3.7756
X6.9094Y-3.7205
X6.9114Y-3.8209
X6.9674Y-4.4685
X6.9685Y-4.3169
X6.9882Y-2.2165
X7.0315Y-3.7598
X7.0531Y-3.2835
X7.1339Y-3.1043
X7.1358Y-3.2815
X7.1624Y-3.3228
X7.1654Y-4.4685
X7.185Y-2.2165
X7.3268Y-3.1535
X7.3287Y-3.2323
X7.4213Y-2.4409
X7.4213Y-2.8521
X7.4213Y-3.0577
X7.4213Y-3.2633
X7.4213Y-4.0857
X7.4213Y-4.2913
T3
X5.2264Y-4.1535
X5.2362Y-2.4803
X5.2362Y-2.5394
X5.2638Y-3.2539
X5.2657Y-3.1299
X5.2657Y-3.1909
X5.2953Y-2.4803
X5.2953Y-2.5394
X5.5527Y-4.1535
X5.5531Y-4.2352
X5.6988Y-3.2185
X5.7008Y-3.0945
X5.7008Y-3.1555
X5.7579Y-3.0945
X5.7874Y-3.2185
X5.7894Y-3.1555
X5.876Y-3.4193
X5.8839Y-3.2953
X5.9213Y-3.4193
X5.9449Y-3.3563
T5
X5.3701Y-3.4311
X5.3701Y-3.4902
X5.3701Y-3.5492
X5.3701Y-3.6083
X5.3701Y-3.6673
T6
X5.4252Y-3.1988
X5.4252Y-3.2776
T7
X7.4016Y-2.5197
X7.4016Y-2.5984
X7.4016Y-2.6772
T8
X5.6102Y-3.2957
X5.6102Y-3.3957
X5.6102Y-3.4957
X5.6102Y-3.5957
X5.6102Y-3.6957
X7.0472Y-2.5
X7.0472Y-2.6
X7.0472Y-2.7
X7.1987Y-2.5
X7.1987Y-2.6
X7.1987Y-2.7
X7.3016Y-3.5138
X7.3016Y-3.6138
X7.3016Y-3.7697
X7.3016Y-3.8697
X7.3016Y-3.9697
X7.4016Y-3.5138
X7.4016Y-3.6138
X7.4016Y-3.7697
X7.4016Y-3.8697
X7.4016Y-3.9697
T9
X5.4094Y-2.5098
X5.4094Y-2.7098
T10
X5.2264Y-2.2736
X5.2264Y-4.4193
X7.372Y-2.2736
X7.372Y-4.4193
T4
G00X5.297Y-3.9146
M15
G01X5.2695Y-3.9146
M16
G05
G00X5.297Y-4.2547
M15
G01X5.2695Y-4.2547
M16
G05
G00X5.447Y-3.9146
M15
G01X5.4195Y-3.9146
M16
G05
G00X5.447Y-4.2547
M15
G01X5.4195Y-4.2547
M16
G05
M30
