%TF.GenerationSoftware,KiCad,Pcbnew,9.0.7*%
%TF.CreationDate,2026-02-24T17:22:27-08:00*%
%TF.ProjectId,servo-dev-board-ch32v006,73657276-6f2d-4646-9576-2d626f617264,rev?*%
%TF.SameCoordinates,Original*%
%TF.FileFunction,Copper,L2,Inr*%
%TF.FilePolarity,Positive*%
%FSLAX46Y46*%
G04 Gerber Fmt 4.6, Leading zero omitted, Abs format (unit mm)*
G04 Created by KiCad (PCBNEW 9.0.7) date 2026-02-24 17:22:27*
%MOMM*%
%LPD*%
G01*
G04 APERTURE LIST*
%TA.AperFunction,ComponentPad*%
%ADD10R,1.700000X1.700000*%
%TD*%
%TA.AperFunction,ComponentPad*%
%ADD11C,1.700000*%
%TD*%
%TA.AperFunction,ComponentPad*%
%ADD12C,3.500000*%
%TD*%
%TA.AperFunction,ComponentPad*%
%ADD13R,1.400000X1.500000*%
%TD*%
%TA.AperFunction,ComponentPad*%
%ADD14C,1.400000*%
%TD*%
%TA.AperFunction,ComponentPad*%
%ADD15C,1.600000*%
%TD*%
%TA.AperFunction,ComponentPad*%
%ADD16O,1.700000X1.000000*%
%TD*%
%TA.AperFunction,ComponentPad*%
%ADD17C,2.000000*%
%TD*%
%TA.AperFunction,ComponentPad*%
%ADD18R,1.200000X1.200000*%
%TD*%
%TA.AperFunction,ComponentPad*%
%ADD19C,1.200000*%
%TD*%
%TA.AperFunction,ViaPad*%
%ADD20C,0.600000*%
%TD*%
%TA.AperFunction,ViaPad*%
%ADD21C,1.000000*%
%TD*%
G04 APERTURE END LIST*
D10*
%TO.N,GND*%
%TO.C,J5*%
X142500000Y-83710000D03*
D11*
%TO.N,/SERVO_IO/POT*%
X142500000Y-86250000D03*
%TO.N,+3V3*%
X142500000Y-88790000D03*
%TO.N,/MOT_A*%
X142500000Y-91330000D03*
%TO.N,/MOT_B*%
X142500000Y-93870000D03*
%TD*%
D10*
%TO.N,GND*%
%TO.C,J7*%
X179000000Y-63500000D03*
D11*
%TO.N,VSYS*%
X179000000Y-66040000D03*
%TO.N,/DATA*%
X179000000Y-68580000D03*
%TD*%
D10*
%TO.N,+3V3*%
%TO.C,J3*%
X185460000Y-95750000D03*
D11*
%TO.N,GND*%
X188000000Y-95750000D03*
%TO.N,/MCU/SWDIO*%
X185460000Y-98290000D03*
%TO.N,/MCU/nRST*%
X188000000Y-98290000D03*
%TO.N,/RX*%
X185460000Y-100830000D03*
%TO.N,/TX*%
X188000000Y-100830000D03*
%TD*%
D12*
%TO.N,GND*%
%TO.C,H1*%
X132750000Y-57750000D03*
%TD*%
D10*
%TO.N,GND*%
%TO.C,J8*%
X182847500Y-63500000D03*
D11*
%TO.N,VSYS*%
X182847500Y-66040000D03*
%TO.N,/DATA*%
X182847500Y-68580000D03*
%TD*%
D12*
%TO.N,GND*%
%TO.C,H2*%
X187250000Y-57750000D03*
%TD*%
D13*
%TO.N,VBAT*%
%TO.C,J1*%
X137800000Y-81250000D03*
D14*
%TO.N,GND*%
X137800000Y-83250000D03*
%TD*%
D15*
%TO.N,GND*%
%TO.C,J9*%
X188000000Y-64000000D03*
%TO.N,VSYS*%
X188000000Y-66000000D03*
%TO.N,/DATA*%
X188000000Y-68000000D03*
%TD*%
D16*
%TO.N,GND*%
%TO.C,USB1*%
X138005000Y-99430000D03*
X134195000Y-99430000D03*
X138005000Y-108070000D03*
X134195000Y-108070000D03*
%TD*%
D17*
%TO.N,VEXT*%
%TO.C,J2*%
X137400000Y-68830000D03*
%TO.N,GND*%
X137400000Y-63750000D03*
%TD*%
D18*
%TO.N,GND*%
%TO.C,J4*%
X136400000Y-87150000D03*
D19*
%TO.N,/SERVO_IO/POT*%
X136400000Y-88650000D03*
%TO.N,+3V3*%
X136400000Y-90150000D03*
%TO.N,/MOT_A*%
X136400000Y-91650000D03*
%TO.N,/MOT_B*%
X136400000Y-93150000D03*
%TD*%
D12*
%TO.N,GND*%
%TO.C,H4*%
X132750000Y-112250000D03*
%TD*%
%TO.N,GND*%
%TO.C,H3*%
X187250000Y-112250000D03*
%TD*%
D10*
%TO.N,+3V3*%
%TO.C,J6*%
X185460000Y-89250000D03*
D11*
%TO.N,GND*%
X188000000Y-89250000D03*
%TO.N,/ENCA*%
X185460000Y-91790000D03*
%TO.N,/ENCB*%
X188000000Y-91790000D03*
%TD*%
D20*
%TO.N,GND*%
X157500000Y-56300000D03*
X146805556Y-113500000D03*
X162500000Y-56300000D03*
X143850000Y-101250000D03*
X182500000Y-56300000D03*
X156300000Y-78100000D03*
X154750000Y-84750000D03*
D21*
X141050000Y-107575000D03*
D20*
X188500000Y-82888889D03*
X151950000Y-78900000D03*
X151750000Y-100150000D03*
X176972222Y-113500000D03*
X161888889Y-113500000D03*
X151833333Y-113500000D03*
X154900000Y-101950000D03*
X172500000Y-56300000D03*
X165500000Y-65100000D03*
X152500000Y-56300000D03*
X152850000Y-107450000D03*
X171944444Y-113500000D03*
X156861111Y-113500000D03*
X131500000Y-62000000D03*
X131500000Y-67222222D03*
X178600000Y-95500000D03*
X131500000Y-82888889D03*
X142500000Y-56300000D03*
X177500000Y-56300000D03*
X152450000Y-100150000D03*
X147500000Y-56300000D03*
X154700000Y-87950000D03*
X181250000Y-83350000D03*
X131500000Y-103777778D03*
X131500000Y-93333333D03*
X137500000Y-56300000D03*
X152450000Y-99500000D03*
X151900000Y-70850000D03*
X143850000Y-99250000D03*
X188500000Y-109000000D03*
X131500000Y-79000000D03*
X181200000Y-78850000D03*
X168950000Y-102500000D03*
X188500000Y-103777778D03*
X165500000Y-67350000D03*
X188500000Y-72444444D03*
X141777778Y-113500000D03*
X186150000Y-82100000D03*
X145600000Y-67200000D03*
X167500000Y-56300000D03*
X188500000Y-62000000D03*
X153800000Y-105550000D03*
X146950000Y-96050000D03*
X141050000Y-96050000D03*
X182000000Y-113500000D03*
X131500000Y-72000000D03*
X160300000Y-93300000D03*
X151850000Y-74900000D03*
X188500000Y-77666667D03*
X168950000Y-100250000D03*
X159500000Y-77100000D03*
X161250000Y-73050000D03*
X169200000Y-97950000D03*
X165500000Y-62850000D03*
X166916667Y-113500000D03*
X151750000Y-99500000D03*
X131500000Y-109000000D03*
X131500000Y-88111111D03*
X131500000Y-98555556D03*
X136750000Y-113500000D03*
X137850000Y-90100000D03*
D21*
%TO.N,VSYS*%
X141037500Y-105500000D03*
X133000000Y-63000000D03*
X144800000Y-80150000D03*
X132750000Y-105500000D03*
X134500000Y-63000000D03*
X147050000Y-80150000D03*
X146250000Y-78600000D03*
X147000000Y-81750000D03*
X134500000Y-64500000D03*
X144750000Y-81750000D03*
X133750000Y-81050000D03*
X133700000Y-82650000D03*
X133750000Y-79500000D03*
D20*
X159250000Y-72950000D03*
D21*
X133000000Y-64500000D03*
X144800000Y-78600000D03*
D20*
%TO.N,/VPOS*%
X157700000Y-75400000D03*
X162000000Y-109750000D03*
%TO.N,PGND*%
X149300000Y-91900000D03*
D21*
X151000000Y-85250000D03*
D20*
X149500000Y-96400000D03*
D21*
X150400000Y-86850000D03*
D20*
X149300000Y-93350000D03*
X149500000Y-95700000D03*
X148800000Y-96400000D03*
D21*
X149450000Y-83700000D03*
X149250000Y-86850000D03*
D20*
X149300000Y-92600000D03*
X148800000Y-95700000D03*
%TO.N,VBAT*%
X139650000Y-75100000D03*
X156550000Y-68000000D03*
%TO.N,/TX*%
X167500000Y-60350000D03*
X171025000Y-88475000D03*
%TO.N,/EN*%
X161950000Y-90450000D03*
X147503219Y-60350000D03*
X173162500Y-94275000D03*
%TO.N,/VNTC*%
X181925000Y-84400000D03*
X167000000Y-109650000D03*
%TO.N,/VSNA*%
X156165000Y-80035000D03*
X152000000Y-109650000D03*
%TO.N,/VSNB*%
X157000000Y-70500000D03*
X157000000Y-109650000D03*
%TO.N,/DBG*%
X152500000Y-60350000D03*
X175500000Y-94500000D03*
%TO.N,/RX*%
X170766892Y-89766892D03*
X162500000Y-60350000D03*
%TO.N,/IN1*%
X153650000Y-93150000D03*
X174200000Y-95900000D03*
X142000000Y-109650000D03*
X163350000Y-92500000D03*
%TO.N,/IN2*%
X147000000Y-109650000D03*
X173400000Y-96325000D03*
X162400000Y-93250000D03*
X154575000Y-93925000D03*
%TO.N,/ENCB*%
X177000000Y-109650000D03*
%TO.N,/ENCA*%
X172000000Y-109650000D03*
%TO.N,+3V3*%
X154900000Y-104400000D03*
X153800000Y-103400000D03*
X186100000Y-80100000D03*
X173400000Y-65100000D03*
X171100000Y-81250000D03*
X165700000Y-103850000D03*
X171100000Y-83250000D03*
X154700000Y-85850000D03*
X142503219Y-60500000D03*
X179150000Y-83400000D03*
X146850000Y-63800000D03*
%TO.N,/MOT_B*%
X153400000Y-81450000D03*
X149550000Y-68900000D03*
%TO.N,/MCU/nRST*%
X167300000Y-94300000D03*
X175550000Y-97050000D03*
%TO.N,/TX_EN*%
X172625000Y-88975000D03*
X172500000Y-60350000D03*
%TD*%
%TA.AperFunction,Conductor*%
%TO.N,PGND*%
G36*
X153461507Y-82792069D02*
G01*
X153483914Y-82796486D01*
X153521100Y-82803816D01*
X153565879Y-82822287D01*
X153606053Y-82849059D01*
X153611978Y-82854972D01*
X153616735Y-82857039D01*
X153640337Y-82883275D01*
X153667188Y-82923398D01*
X153685747Y-82968141D01*
X153697611Y-83027709D01*
X153700000Y-83051930D01*
X153700000Y-84227789D01*
X153697617Y-84251982D01*
X153685781Y-84311482D01*
X153682590Y-84319183D01*
X153682499Y-84324341D01*
X153667267Y-84356179D01*
X153640481Y-84396268D01*
X153606269Y-84430479D01*
X153571975Y-84453394D01*
X153566179Y-84457267D01*
X153521482Y-84475781D01*
X153487857Y-84482469D01*
X153461978Y-84487617D01*
X153437789Y-84490000D01*
X152299999Y-84490000D01*
X151600000Y-85189999D01*
X151600000Y-90474236D01*
X151597617Y-90498429D01*
X151585781Y-90557928D01*
X151567266Y-90602625D01*
X151533562Y-90653067D01*
X151518141Y-90671858D01*
X150681858Y-91508141D01*
X150663067Y-91523562D01*
X150612625Y-91557266D01*
X150604924Y-91560455D01*
X150601211Y-91564039D01*
X150567928Y-91575781D01*
X150533777Y-91582574D01*
X150508425Y-91587617D01*
X150484236Y-91590000D01*
X149899999Y-91590000D01*
X149800000Y-91689999D01*
X149800000Y-98637789D01*
X149797617Y-98661980D01*
X149797617Y-98661982D01*
X149785781Y-98721482D01*
X149767267Y-98766179D01*
X149740481Y-98806268D01*
X149706269Y-98840479D01*
X149671975Y-98863394D01*
X149666179Y-98867267D01*
X149621482Y-98885781D01*
X149587857Y-98892469D01*
X149561978Y-98897617D01*
X149537789Y-98900000D01*
X148762211Y-98900000D01*
X148738020Y-98897617D01*
X148723189Y-98894667D01*
X148678518Y-98885781D01*
X148633822Y-98867267D01*
X148593727Y-98840477D01*
X148559522Y-98806272D01*
X148532730Y-98766175D01*
X148514218Y-98721480D01*
X148502383Y-98661980D01*
X148500000Y-98637789D01*
X148500000Y-93890000D01*
X148181858Y-93571858D01*
X148166437Y-93553067D01*
X148132733Y-93502625D01*
X148114218Y-93457926D01*
X148102383Y-93398427D01*
X148100000Y-93374236D01*
X148100000Y-93356324D01*
X148104225Y-93324233D01*
X148111496Y-93297095D01*
X148119513Y-93283208D01*
X148122439Y-93269759D01*
X148143587Y-93241508D01*
X148151507Y-93233588D01*
X148207092Y-93201496D01*
X148234236Y-93194223D01*
X148266325Y-93190000D01*
X148600000Y-93190000D01*
X148700000Y-93090000D01*
X148700000Y-91590000D01*
X148664886Y-91554886D01*
X148649465Y-91536096D01*
X148637572Y-91518297D01*
X148619057Y-91473595D01*
X148614882Y-91452603D01*
X148612500Y-91428417D01*
X148612500Y-84186695D01*
X148614877Y-84162534D01*
X148626683Y-84103103D01*
X148629857Y-84095429D01*
X148629945Y-84090297D01*
X148645151Y-84058453D01*
X148678783Y-84008039D01*
X148694165Y-83989265D01*
X149641861Y-83039704D01*
X149802717Y-82878530D01*
X149821458Y-82863116D01*
X149871799Y-82829390D01*
X149916411Y-82810834D01*
X149975826Y-82798909D01*
X149999980Y-82796486D01*
X151374017Y-82793784D01*
X153437281Y-82789728D01*
X153461507Y-82792069D01*
G37*
%TD.AperFunction*%
%TD*%
%TA.AperFunction,Conductor*%
%TO.N,GND*%
G36*
X187534075Y-95942993D02*
G01*
X187599901Y-96057007D01*
X187692993Y-96150099D01*
X187807007Y-96215925D01*
X187870590Y-96232962D01*
X187238282Y-96865269D01*
X187238282Y-96865270D01*
X187292452Y-96904626D01*
X187292451Y-96904626D01*
X187301495Y-96909234D01*
X187352292Y-96957208D01*
X187369087Y-97025029D01*
X187346550Y-97091164D01*
X187301499Y-97130202D01*
X187292182Y-97134949D01*
X187120213Y-97259890D01*
X186969890Y-97410213D01*
X186844949Y-97582182D01*
X186840484Y-97590946D01*
X186792509Y-97641742D01*
X186724688Y-97658536D01*
X186658553Y-97635998D01*
X186619516Y-97590946D01*
X186615050Y-97582182D01*
X186490109Y-97410213D01*
X186376569Y-97296673D01*
X186343084Y-97235350D01*
X186348068Y-97165658D01*
X186389940Y-97109725D01*
X186420915Y-97092810D01*
X186552331Y-97043796D01*
X186667546Y-96957546D01*
X186753796Y-96842331D01*
X186804091Y-96707483D01*
X186810500Y-96647873D01*
X186810499Y-96637312D01*
X186830179Y-96570275D01*
X186846818Y-96549626D01*
X187517037Y-95879408D01*
X187534075Y-95942993D01*
G37*
%TD.AperFunction*%
%TA.AperFunction,Conductor*%
G36*
X187534075Y-89442993D02*
G01*
X187599901Y-89557007D01*
X187692993Y-89650099D01*
X187807007Y-89715925D01*
X187870590Y-89732962D01*
X187238282Y-90365269D01*
X187238282Y-90365270D01*
X187292452Y-90404626D01*
X187292451Y-90404626D01*
X187301495Y-90409234D01*
X187352292Y-90457208D01*
X187369087Y-90525029D01*
X187346550Y-90591164D01*
X187301499Y-90630202D01*
X187292182Y-90634949D01*
X187120213Y-90759890D01*
X186969890Y-90910213D01*
X186844949Y-91082182D01*
X186840484Y-91090946D01*
X186792509Y-91141742D01*
X186724688Y-91158536D01*
X186658553Y-91135998D01*
X186619516Y-91090946D01*
X186615050Y-91082182D01*
X186490109Y-90910213D01*
X186376569Y-90796673D01*
X186343084Y-90735350D01*
X186348068Y-90665658D01*
X186389940Y-90609725D01*
X186420915Y-90592810D01*
X186552331Y-90543796D01*
X186667546Y-90457546D01*
X186753796Y-90342331D01*
X186804091Y-90207483D01*
X186810500Y-90147873D01*
X186810499Y-90137312D01*
X186830179Y-90070275D01*
X186846818Y-90049626D01*
X187517037Y-89379408D01*
X187534075Y-89442993D01*
G37*
%TD.AperFunction*%
%TA.AperFunction,Conductor*%
G36*
X187503736Y-55300726D02*
G01*
X187757638Y-55316084D01*
X187772495Y-55317888D01*
X188019000Y-55363061D01*
X188033536Y-55366644D01*
X188272791Y-55441200D01*
X188286788Y-55446508D01*
X188515319Y-55549361D01*
X188528578Y-55556320D01*
X188635808Y-55621143D01*
X188743045Y-55685970D01*
X188755356Y-55694468D01*
X188952636Y-55849027D01*
X188963844Y-55858957D01*
X189141042Y-56036155D01*
X189150972Y-56047363D01*
X189305527Y-56244637D01*
X189314033Y-56256960D01*
X189443679Y-56471421D01*
X189450638Y-56484680D01*
X189553491Y-56713211D01*
X189558800Y-56727211D01*
X189633354Y-56966461D01*
X189636938Y-56981001D01*
X189682110Y-57227500D01*
X189683915Y-57242364D01*
X189699274Y-57496263D01*
X189699500Y-57503750D01*
X189699500Y-112496249D01*
X189699274Y-112503736D01*
X189683915Y-112757635D01*
X189682110Y-112772499D01*
X189636938Y-113018998D01*
X189633354Y-113033538D01*
X189558800Y-113272788D01*
X189553491Y-113286788D01*
X189450638Y-113515319D01*
X189443679Y-113528578D01*
X189314033Y-113743039D01*
X189305527Y-113755362D01*
X189150972Y-113952636D01*
X189141042Y-113963844D01*
X188963844Y-114141042D01*
X188952636Y-114150972D01*
X188755362Y-114305527D01*
X188743039Y-114314033D01*
X188528578Y-114443679D01*
X188515319Y-114450638D01*
X188286788Y-114553491D01*
X188272788Y-114558800D01*
X188033538Y-114633354D01*
X188018998Y-114636938D01*
X187772499Y-114682110D01*
X187757635Y-114683915D01*
X187503736Y-114699274D01*
X187496249Y-114699500D01*
X132503751Y-114699500D01*
X132496264Y-114699274D01*
X132242364Y-114683915D01*
X132227500Y-114682110D01*
X131981001Y-114636938D01*
X131966461Y-114633354D01*
X131727211Y-114558800D01*
X131713211Y-114553491D01*
X131484680Y-114450638D01*
X131471421Y-114443679D01*
X131256960Y-114314033D01*
X131244637Y-114305527D01*
X131047363Y-114150972D01*
X131036155Y-114141042D01*
X130858957Y-113963844D01*
X130849027Y-113952636D01*
X130694468Y-113755356D01*
X130685970Y-113743045D01*
X130583412Y-113573394D01*
X130556320Y-113528578D01*
X130549361Y-113515319D01*
X130446508Y-113286788D01*
X130441199Y-113272788D01*
X130366645Y-113033538D01*
X130363061Y-113018998D01*
X130317889Y-112772499D01*
X130316084Y-112757635D01*
X130300726Y-112503736D01*
X130300500Y-112496249D01*
X130300500Y-109571153D01*
X141199500Y-109571153D01*
X141199500Y-109728846D01*
X141230261Y-109883489D01*
X141230264Y-109883501D01*
X141290602Y-110029172D01*
X141290609Y-110029185D01*
X141378210Y-110160288D01*
X141378213Y-110160292D01*
X141489707Y-110271786D01*
X141489711Y-110271789D01*
X141620814Y-110359390D01*
X141620827Y-110359397D01*
X141766498Y-110419735D01*
X141766503Y-110419737D01*
X141921153Y-110450499D01*
X141921156Y-110450500D01*
X141921158Y-110450500D01*
X142078844Y-110450500D01*
X142078845Y-110450499D01*
X142233497Y-110419737D01*
X142379179Y-110359394D01*
X142510289Y-110271789D01*
X142621789Y-110160289D01*
X142709394Y-110029179D01*
X142769737Y-109883497D01*
X142800500Y-109728842D01*
X142800500Y-109571158D01*
X142800500Y-109571155D01*
X142800499Y-109571153D01*
X146199500Y-109571153D01*
X146199500Y-109728846D01*
X146230261Y-109883489D01*
X146230264Y-109883501D01*
X146290602Y-110029172D01*
X146290609Y-110029185D01*
X146378210Y-110160288D01*
X146378213Y-110160292D01*
X146489707Y-110271786D01*
X146489711Y-110271789D01*
X146620814Y-110359390D01*
X146620827Y-110359397D01*
X146766498Y-110419735D01*
X146766503Y-110419737D01*
X146921153Y-110450499D01*
X146921156Y-110450500D01*
X146921158Y-110450500D01*
X147078844Y-110450500D01*
X147078845Y-110450499D01*
X147233497Y-110419737D01*
X147379179Y-110359394D01*
X147510289Y-110271789D01*
X147621789Y-110160289D01*
X147709394Y-110029179D01*
X147769737Y-109883497D01*
X147800500Y-109728842D01*
X147800500Y-109571158D01*
X147800500Y-109571155D01*
X147800499Y-109571153D01*
X151199500Y-109571153D01*
X151199500Y-109728846D01*
X151230261Y-109883489D01*
X151230264Y-109883501D01*
X151290602Y-110029172D01*
X151290609Y-110029185D01*
X151378210Y-110160288D01*
X151378213Y-110160292D01*
X151489707Y-110271786D01*
X151489711Y-110271789D01*
X151620814Y-110359390D01*
X151620827Y-110359397D01*
X151766498Y-110419735D01*
X151766503Y-110419737D01*
X151921153Y-110450499D01*
X151921156Y-110450500D01*
X151921158Y-110450500D01*
X152078844Y-110450500D01*
X152078845Y-110450499D01*
X152233497Y-110419737D01*
X152379179Y-110359394D01*
X152510289Y-110271789D01*
X152621789Y-110160289D01*
X152709394Y-110029179D01*
X152769737Y-109883497D01*
X152800500Y-109728842D01*
X152800500Y-109571158D01*
X152800500Y-109571155D01*
X152800499Y-109571153D01*
X156199500Y-109571153D01*
X156199500Y-109728846D01*
X156230261Y-109883489D01*
X156230264Y-109883501D01*
X156290602Y-110029172D01*
X156290609Y-110029185D01*
X156378210Y-110160288D01*
X156378213Y-110160292D01*
X156489707Y-110271786D01*
X156489711Y-110271789D01*
X156620814Y-110359390D01*
X156620827Y-110359397D01*
X156766498Y-110419735D01*
X156766503Y-110419737D01*
X156921153Y-110450499D01*
X156921156Y-110450500D01*
X156921158Y-110450500D01*
X157078844Y-110450500D01*
X157078845Y-110450499D01*
X157233497Y-110419737D01*
X157379179Y-110359394D01*
X157510289Y-110271789D01*
X157621789Y-110160289D01*
X157709394Y-110029179D01*
X157769737Y-109883497D01*
X157800500Y-109728842D01*
X157800500Y-109671153D01*
X161199500Y-109671153D01*
X161199500Y-109828846D01*
X161230261Y-109983489D01*
X161230264Y-109983501D01*
X161290602Y-110129172D01*
X161290609Y-110129185D01*
X161378210Y-110260288D01*
X161378213Y-110260292D01*
X161489707Y-110371786D01*
X161489711Y-110371789D01*
X161620814Y-110459390D01*
X161620827Y-110459397D01*
X161766498Y-110519735D01*
X161766503Y-110519737D01*
X161921153Y-110550499D01*
X161921156Y-110550500D01*
X161921158Y-110550500D01*
X162078844Y-110550500D01*
X162078845Y-110550499D01*
X162233497Y-110519737D01*
X162379179Y-110459394D01*
X162510289Y-110371789D01*
X162621789Y-110260289D01*
X162709394Y-110129179D01*
X162769737Y-109983497D01*
X162800500Y-109828842D01*
X162800500Y-109671158D01*
X162800500Y-109671155D01*
X162784209Y-109589258D01*
X162784209Y-109589257D01*
X162780608Y-109571153D01*
X166199500Y-109571153D01*
X166199500Y-109728846D01*
X166230261Y-109883489D01*
X166230264Y-109883501D01*
X166290602Y-110029172D01*
X166290609Y-110029185D01*
X166378210Y-110160288D01*
X166378213Y-110160292D01*
X166489707Y-110271786D01*
X166489711Y-110271789D01*
X166620814Y-110359390D01*
X166620827Y-110359397D01*
X166766498Y-110419735D01*
X166766503Y-110419737D01*
X166921153Y-110450499D01*
X166921156Y-110450500D01*
X166921158Y-110450500D01*
X167078844Y-110450500D01*
X167078845Y-110450499D01*
X167233497Y-110419737D01*
X167379179Y-110359394D01*
X167510289Y-110271789D01*
X167621789Y-110160289D01*
X167709394Y-110029179D01*
X167769737Y-109883497D01*
X167800500Y-109728842D01*
X167800500Y-109571158D01*
X167800500Y-109571155D01*
X167800499Y-109571153D01*
X171199500Y-109571153D01*
X171199500Y-109728846D01*
X171230261Y-109883489D01*
X171230264Y-109883501D01*
X171290602Y-110029172D01*
X171290609Y-110029185D01*
X171378210Y-110160288D01*
X171378213Y-110160292D01*
X171489707Y-110271786D01*
X171489711Y-110271789D01*
X171620814Y-110359390D01*
X171620827Y-110359397D01*
X171766498Y-110419735D01*
X171766503Y-110419737D01*
X171921153Y-110450499D01*
X171921156Y-110450500D01*
X171921158Y-110450500D01*
X172078844Y-110450500D01*
X172078845Y-110450499D01*
X172233497Y-110419737D01*
X172379179Y-110359394D01*
X172510289Y-110271789D01*
X172621789Y-110160289D01*
X172709394Y-110029179D01*
X172769737Y-109883497D01*
X172800500Y-109728842D01*
X172800500Y-109571158D01*
X172800500Y-109571155D01*
X172800499Y-109571153D01*
X176199500Y-109571153D01*
X176199500Y-109728846D01*
X176230261Y-109883489D01*
X176230264Y-109883501D01*
X176290602Y-110029172D01*
X176290609Y-110029185D01*
X176378210Y-110160288D01*
X176378213Y-110160292D01*
X176489707Y-110271786D01*
X176489711Y-110271789D01*
X176620814Y-110359390D01*
X176620827Y-110359397D01*
X176766498Y-110419735D01*
X176766503Y-110419737D01*
X176921153Y-110450499D01*
X176921156Y-110450500D01*
X176921158Y-110450500D01*
X177078844Y-110450500D01*
X177078845Y-110450499D01*
X177233497Y-110419737D01*
X177379179Y-110359394D01*
X177510289Y-110271789D01*
X177621789Y-110160289D01*
X177709394Y-110029179D01*
X177769737Y-109883497D01*
X177800500Y-109728842D01*
X177800500Y-109571158D01*
X177800500Y-109571155D01*
X177800499Y-109571153D01*
X177769738Y-109416510D01*
X177769737Y-109416503D01*
X177750812Y-109370814D01*
X177709397Y-109270827D01*
X177709390Y-109270814D01*
X177621789Y-109139711D01*
X177621786Y-109139707D01*
X177510292Y-109028213D01*
X177510288Y-109028210D01*
X177379185Y-108940609D01*
X177379172Y-108940602D01*
X177233501Y-108880264D01*
X177233489Y-108880261D01*
X177078845Y-108849500D01*
X177078842Y-108849500D01*
X176921158Y-108849500D01*
X176921155Y-108849500D01*
X176766510Y-108880261D01*
X176766498Y-108880264D01*
X176620827Y-108940602D01*
X176620814Y-108940609D01*
X176489711Y-109028210D01*
X176489707Y-109028213D01*
X176378213Y-109139707D01*
X176378210Y-109139711D01*
X176290609Y-109270814D01*
X176290602Y-109270827D01*
X176230264Y-109416498D01*
X176230261Y-109416510D01*
X176199500Y-109571153D01*
X172800499Y-109571153D01*
X172769738Y-109416510D01*
X172769737Y-109416503D01*
X172750812Y-109370814D01*
X172709397Y-109270827D01*
X172709390Y-109270814D01*
X172621789Y-109139711D01*
X172621786Y-109139707D01*
X172510292Y-109028213D01*
X172510288Y-109028210D01*
X172379185Y-108940609D01*
X172379172Y-108940602D01*
X172233501Y-108880264D01*
X172233489Y-108880261D01*
X172078845Y-108849500D01*
X172078842Y-108849500D01*
X171921158Y-108849500D01*
X171921155Y-108849500D01*
X171766510Y-108880261D01*
X171766498Y-108880264D01*
X171620827Y-108940602D01*
X171620814Y-108940609D01*
X171489711Y-109028210D01*
X171489707Y-109028213D01*
X171378213Y-109139707D01*
X171378210Y-109139711D01*
X171290609Y-109270814D01*
X171290602Y-109270827D01*
X171230264Y-109416498D01*
X171230261Y-109416510D01*
X171199500Y-109571153D01*
X167800499Y-109571153D01*
X167769738Y-109416510D01*
X167769737Y-109416503D01*
X167750812Y-109370814D01*
X167709397Y-109270827D01*
X167709390Y-109270814D01*
X167621789Y-109139711D01*
X167621786Y-109139707D01*
X167510292Y-109028213D01*
X167510288Y-109028210D01*
X167379185Y-108940609D01*
X167379172Y-108940602D01*
X167233501Y-108880264D01*
X167233489Y-108880261D01*
X167078845Y-108849500D01*
X167078842Y-108849500D01*
X166921158Y-108849500D01*
X166921155Y-108849500D01*
X166766510Y-108880261D01*
X166766498Y-108880264D01*
X166620827Y-108940602D01*
X166620814Y-108940609D01*
X166489711Y-109028210D01*
X166489707Y-109028213D01*
X166378213Y-109139707D01*
X166378210Y-109139711D01*
X166290609Y-109270814D01*
X166290602Y-109270827D01*
X166230264Y-109416498D01*
X166230261Y-109416510D01*
X166199500Y-109571153D01*
X162780608Y-109571153D01*
X162769738Y-109516510D01*
X162769737Y-109516503D01*
X162728314Y-109416498D01*
X162709397Y-109370827D01*
X162709390Y-109370814D01*
X162621789Y-109239711D01*
X162621786Y-109239707D01*
X162510292Y-109128213D01*
X162510288Y-109128210D01*
X162379185Y-109040609D01*
X162379172Y-109040602D01*
X162233501Y-108980264D01*
X162233489Y-108980261D01*
X162078845Y-108949500D01*
X162078842Y-108949500D01*
X161921158Y-108949500D01*
X161921155Y-108949500D01*
X161766510Y-108980261D01*
X161766498Y-108980264D01*
X161620827Y-109040602D01*
X161620814Y-109040609D01*
X161489711Y-109128210D01*
X161489707Y-109128213D01*
X161378213Y-109239707D01*
X161378210Y-109239711D01*
X161290609Y-109370814D01*
X161290602Y-109370827D01*
X161230264Y-109516498D01*
X161230261Y-109516510D01*
X161199500Y-109671153D01*
X157800500Y-109671153D01*
X157800500Y-109571158D01*
X157800500Y-109571155D01*
X157800499Y-109571153D01*
X157769738Y-109416510D01*
X157769737Y-109416503D01*
X157750812Y-109370814D01*
X157709397Y-109270827D01*
X157709390Y-109270814D01*
X157621789Y-109139711D01*
X157621786Y-109139707D01*
X157510292Y-109028213D01*
X157510288Y-109028210D01*
X157379185Y-108940609D01*
X157379172Y-108940602D01*
X157233501Y-108880264D01*
X157233489Y-108880261D01*
X157078845Y-108849500D01*
X157078842Y-108849500D01*
X156921158Y-108849500D01*
X156921155Y-108849500D01*
X156766510Y-108880261D01*
X156766498Y-108880264D01*
X156620827Y-108940602D01*
X156620814Y-108940609D01*
X156489711Y-109028210D01*
X156489707Y-109028213D01*
X156378213Y-109139707D01*
X156378210Y-109139711D01*
X156290609Y-109270814D01*
X156290602Y-109270827D01*
X156230264Y-109416498D01*
X156230261Y-109416510D01*
X156199500Y-109571153D01*
X152800499Y-109571153D01*
X152769738Y-109416510D01*
X152769737Y-109416503D01*
X152750812Y-109370814D01*
X152709397Y-109270827D01*
X152709390Y-109270814D01*
X152621789Y-109139711D01*
X152621786Y-109139707D01*
X152510292Y-109028213D01*
X152510288Y-109028210D01*
X152379185Y-108940609D01*
X152379172Y-108940602D01*
X152233501Y-108880264D01*
X152233489Y-108880261D01*
X152078845Y-108849500D01*
X152078842Y-108849500D01*
X151921158Y-108849500D01*
X151921155Y-108849500D01*
X151766510Y-108880261D01*
X151766498Y-108880264D01*
X151620827Y-108940602D01*
X151620814Y-108940609D01*
X151489711Y-109028210D01*
X151489707Y-109028213D01*
X151378213Y-109139707D01*
X151378210Y-109139711D01*
X151290609Y-109270814D01*
X151290602Y-109270827D01*
X151230264Y-109416498D01*
X151230261Y-109416510D01*
X151199500Y-109571153D01*
X147800499Y-109571153D01*
X147769738Y-109416510D01*
X147769737Y-109416503D01*
X147750812Y-109370814D01*
X147709397Y-109270827D01*
X147709390Y-109270814D01*
X147621789Y-109139711D01*
X147621786Y-109139707D01*
X147510292Y-109028213D01*
X147510288Y-109028210D01*
X147379185Y-108940609D01*
X147379172Y-108940602D01*
X147233501Y-108880264D01*
X147233489Y-108880261D01*
X147078845Y-108849500D01*
X147078842Y-108849500D01*
X146921158Y-108849500D01*
X146921155Y-108849500D01*
X146766510Y-108880261D01*
X146766498Y-108880264D01*
X146620827Y-108940602D01*
X146620814Y-108940609D01*
X146489711Y-109028210D01*
X146489707Y-109028213D01*
X146378213Y-109139707D01*
X146378210Y-109139711D01*
X146290609Y-109270814D01*
X146290602Y-109270827D01*
X146230264Y-109416498D01*
X146230261Y-109416510D01*
X146199500Y-109571153D01*
X142800499Y-109571153D01*
X142769738Y-109416510D01*
X142769737Y-109416503D01*
X142750812Y-109370814D01*
X142709397Y-109270827D01*
X142709390Y-109270814D01*
X142621789Y-109139711D01*
X142621786Y-109139707D01*
X142510292Y-109028213D01*
X142510288Y-109028210D01*
X142379185Y-108940609D01*
X142379172Y-108940602D01*
X142233501Y-108880264D01*
X142233489Y-108880261D01*
X142078845Y-108849500D01*
X142078842Y-108849500D01*
X141921158Y-108849500D01*
X141921155Y-108849500D01*
X141766510Y-108880261D01*
X141766498Y-108880264D01*
X141620827Y-108940602D01*
X141620814Y-108940609D01*
X141489711Y-109028210D01*
X141489707Y-109028213D01*
X141378213Y-109139707D01*
X141378210Y-109139711D01*
X141290609Y-109270814D01*
X141290602Y-109270827D01*
X141230264Y-109416498D01*
X141230261Y-109416510D01*
X141199500Y-109571153D01*
X130300500Y-109571153D01*
X130300500Y-107820000D01*
X132875138Y-107820000D01*
X133795254Y-107820000D01*
X133703393Y-107858050D01*
X133633063Y-107928380D01*
X133595001Y-108020270D01*
X133595001Y-108119730D01*
X133633063Y-108211620D01*
X133703393Y-108281950D01*
X133795254Y-108320000D01*
X132875138Y-108320000D01*
X132883430Y-108361690D01*
X132883430Y-108361692D01*
X132958807Y-108543671D01*
X132958814Y-108543684D01*
X133068248Y-108707462D01*
X133068251Y-108707466D01*
X133207533Y-108846748D01*
X133207537Y-108846751D01*
X133371315Y-108956185D01*
X133371328Y-108956192D01*
X133553306Y-109031569D01*
X133553318Y-109031572D01*
X133746504Y-109069999D01*
X133746508Y-109070000D01*
X133945000Y-109070000D01*
X133945000Y-108320012D01*
X134445000Y-108320012D01*
X134445000Y-109070000D01*
X134643492Y-109070000D01*
X134643495Y-109069999D01*
X134836681Y-109031572D01*
X134836693Y-109031569D01*
X135018671Y-108956192D01*
X135018684Y-108956185D01*
X135182462Y-108846751D01*
X135182466Y-108846748D01*
X135321748Y-108707466D01*
X135321751Y-108707462D01*
X135431185Y-108543684D01*
X135431192Y-108543671D01*
X135506569Y-108361692D01*
X135506569Y-108361690D01*
X135514862Y-108320000D01*
X134594746Y-108320000D01*
X134686607Y-108281950D01*
X134756937Y-108211620D01*
X134794999Y-108119730D01*
X134794999Y-108020270D01*
X134756937Y-107928380D01*
X134686607Y-107858050D01*
X134594746Y-107820000D01*
X135514862Y-107820000D01*
X136685138Y-107820000D01*
X137605254Y-107820000D01*
X137513393Y-107858050D01*
X137443063Y-107928380D01*
X137405001Y-108020270D01*
X137405001Y-108119730D01*
X137443063Y-108211620D01*
X137513393Y-108281950D01*
X137605254Y-108320000D01*
X136685138Y-108320000D01*
X136693430Y-108361690D01*
X136693430Y-108361692D01*
X136768807Y-108543671D01*
X136768814Y-108543684D01*
X136878248Y-108707462D01*
X136878251Y-108707466D01*
X137017533Y-108846748D01*
X137017537Y-108846751D01*
X137181315Y-108956185D01*
X137181328Y-108956192D01*
X137363306Y-109031569D01*
X137363318Y-109031572D01*
X137556504Y-109069999D01*
X137556508Y-109070000D01*
X137755000Y-109070000D01*
X137755000Y-108320012D01*
X138255000Y-108320012D01*
X138255000Y-109070000D01*
X138453492Y-109070000D01*
X138453495Y-109069999D01*
X138646681Y-109031572D01*
X138646693Y-109031569D01*
X138828671Y-108956192D01*
X138828684Y-108956185D01*
X138992462Y-108846751D01*
X138992466Y-108846748D01*
X139131748Y-108707466D01*
X139131751Y-108707462D01*
X139241185Y-108543684D01*
X139241192Y-108543671D01*
X139316569Y-108361692D01*
X139316569Y-108361690D01*
X139324862Y-108320000D01*
X138404746Y-108320000D01*
X138496607Y-108281950D01*
X138566937Y-108211620D01*
X138604999Y-108119730D01*
X138604999Y-108020270D01*
X138566937Y-107928380D01*
X138496607Y-107858050D01*
X138404746Y-107820000D01*
X139324862Y-107820000D01*
X139316569Y-107778309D01*
X139316569Y-107778307D01*
X139241192Y-107596328D01*
X139241185Y-107596315D01*
X139131751Y-107432537D01*
X139131748Y-107432533D01*
X138992466Y-107293251D01*
X138992462Y-107293248D01*
X138828684Y-107183814D01*
X138828671Y-107183807D01*
X138646693Y-107108430D01*
X138646681Y-107108427D01*
X138453495Y-107070000D01*
X138255000Y-107070000D01*
X138255000Y-107819988D01*
X137755000Y-107819988D01*
X137755000Y-107070000D01*
X137556504Y-107070000D01*
X137363318Y-107108427D01*
X137363306Y-107108430D01*
X137181328Y-107183807D01*
X137181315Y-107183814D01*
X137017537Y-107293248D01*
X137017533Y-107293251D01*
X136878251Y-107432533D01*
X136878248Y-107432537D01*
X136768814Y-107596315D01*
X136768807Y-107596328D01*
X136693430Y-107778307D01*
X136693430Y-107778309D01*
X136685138Y-107820000D01*
X135514862Y-107820000D01*
X135506569Y-107778309D01*
X135506569Y-107778307D01*
X135431192Y-107596328D01*
X135431185Y-107596315D01*
X135321751Y-107432537D01*
X135321748Y-107432533D01*
X135182466Y-107293251D01*
X135182462Y-107293248D01*
X135018684Y-107183814D01*
X135018671Y-107183807D01*
X134836693Y-107108430D01*
X134836681Y-107108427D01*
X134643495Y-107070000D01*
X134445000Y-107070000D01*
X134445000Y-107819988D01*
X133945000Y-107819988D01*
X133945000Y-107070000D01*
X133746504Y-107070000D01*
X133553318Y-107108427D01*
X133553306Y-107108430D01*
X133371328Y-107183807D01*
X133371315Y-107183814D01*
X133207537Y-107293248D01*
X133207533Y-107293251D01*
X133068251Y-107432533D01*
X133068248Y-107432537D01*
X132958814Y-107596315D01*
X132958807Y-107596328D01*
X132883430Y-107778307D01*
X132883430Y-107778309D01*
X132875138Y-107820000D01*
X130300500Y-107820000D01*
X130300500Y-105598543D01*
X131749499Y-105598543D01*
X131787947Y-105791829D01*
X131787950Y-105791839D01*
X131863364Y-105973907D01*
X131863371Y-105973920D01*
X131972860Y-106137781D01*
X131972863Y-106137785D01*
X132112214Y-106277136D01*
X132112218Y-106277139D01*
X132276079Y-106386628D01*
X132276092Y-106386635D01*
X132458160Y-106462049D01*
X132458165Y-106462051D01*
X132458169Y-106462051D01*
X132458170Y-106462052D01*
X132651456Y-106500500D01*
X132651459Y-106500500D01*
X132848543Y-106500500D01*
X132978582Y-106474632D01*
X133041835Y-106462051D01*
X133223914Y-106386632D01*
X133387782Y-106277139D01*
X133527139Y-106137782D01*
X133636632Y-105973914D01*
X133712051Y-105791835D01*
X133750500Y-105598543D01*
X140036999Y-105598543D01*
X140075447Y-105791829D01*
X140075450Y-105791839D01*
X140150864Y-105973907D01*
X140150871Y-105973920D01*
X140260360Y-106137781D01*
X140260363Y-106137785D01*
X140399714Y-106277136D01*
X140399718Y-106277139D01*
X140563579Y-106386628D01*
X140563592Y-106386635D01*
X140745660Y-106462049D01*
X140745665Y-106462051D01*
X140745669Y-106462051D01*
X140745670Y-106462052D01*
X140938956Y-106500500D01*
X140938959Y-106500500D01*
X141136043Y-106500500D01*
X141266082Y-106474632D01*
X141329335Y-106462051D01*
X141511414Y-106386632D01*
X141675282Y-106277139D01*
X141814639Y-106137782D01*
X141924132Y-105973914D01*
X141999551Y-105791835D01*
X142038000Y-105598541D01*
X142038000Y-105401459D01*
X142038000Y-105401456D01*
X141999552Y-105208170D01*
X141999551Y-105208169D01*
X141999551Y-105208165D01*
X141983633Y-105169735D01*
X141924135Y-105026092D01*
X141924128Y-105026079D01*
X141814639Y-104862218D01*
X141814636Y-104862214D01*
X141675285Y-104722863D01*
X141675281Y-104722860D01*
X141511420Y-104613371D01*
X141511407Y-104613364D01*
X141329339Y-104537950D01*
X141329329Y-104537947D01*
X141136043Y-104499500D01*
X141136041Y-104499500D01*
X140938959Y-104499500D01*
X140938957Y-104499500D01*
X140745670Y-104537947D01*
X140745660Y-104537950D01*
X140563592Y-104613364D01*
X140563579Y-104613371D01*
X140399718Y-104722860D01*
X140399714Y-104722863D01*
X140260363Y-104862214D01*
X140260360Y-104862218D01*
X140150871Y-105026079D01*
X140150864Y-105026092D01*
X140075450Y-105208160D01*
X140075447Y-105208170D01*
X140037000Y-105401456D01*
X140037000Y-105401459D01*
X140037000Y-105598541D01*
X140037000Y-105598543D01*
X140036999Y-105598543D01*
X133750500Y-105598543D01*
X133750500Y-105598541D01*
X133750500Y-105401459D01*
X133750500Y-105401456D01*
X133712052Y-105208170D01*
X133712051Y-105208169D01*
X133712051Y-105208165D01*
X133696133Y-105169735D01*
X133636635Y-105026092D01*
X133636628Y-105026079D01*
X133527139Y-104862218D01*
X133527136Y-104862214D01*
X133387785Y-104722863D01*
X133387781Y-104722860D01*
X133223920Y-104613371D01*
X133223907Y-104613364D01*
X133041839Y-104537950D01*
X133041829Y-104537947D01*
X132848543Y-104499500D01*
X132848541Y-104499500D01*
X132651459Y-104499500D01*
X132651457Y-104499500D01*
X132458170Y-104537947D01*
X132458160Y-104537950D01*
X132276092Y-104613364D01*
X132276079Y-104613371D01*
X132112218Y-104722860D01*
X132112214Y-104722863D01*
X131972863Y-104862214D01*
X131972860Y-104862218D01*
X131863371Y-105026079D01*
X131863364Y-105026092D01*
X131787950Y-105208160D01*
X131787947Y-105208170D01*
X131749500Y-105401456D01*
X131749500Y-105401459D01*
X131749500Y-105598541D01*
X131749500Y-105598543D01*
X131749499Y-105598543D01*
X130300500Y-105598543D01*
X130300500Y-103321153D01*
X152999500Y-103321153D01*
X152999500Y-103478846D01*
X153030261Y-103633489D01*
X153030264Y-103633501D01*
X153090602Y-103779172D01*
X153090609Y-103779185D01*
X153178210Y-103910288D01*
X153178213Y-103910292D01*
X153289707Y-104021786D01*
X153289711Y-104021789D01*
X153420814Y-104109390D01*
X153420827Y-104109397D01*
X153558683Y-104166498D01*
X153566503Y-104169737D01*
X153721153Y-104200499D01*
X153721156Y-104200500D01*
X153721158Y-104200500D01*
X153878843Y-104200500D01*
X153894677Y-104197350D01*
X153952048Y-104185938D01*
X154021638Y-104192165D01*
X154076816Y-104235027D01*
X154100061Y-104300916D01*
X154099643Y-104319697D01*
X154099500Y-104321150D01*
X154099500Y-104478846D01*
X154130261Y-104633489D01*
X154130264Y-104633501D01*
X154190602Y-104779172D01*
X154190609Y-104779185D01*
X154278210Y-104910288D01*
X154278213Y-104910292D01*
X154389707Y-105021786D01*
X154389711Y-105021789D01*
X154520814Y-105109390D01*
X154520827Y-105109397D01*
X154666498Y-105169735D01*
X154666503Y-105169737D01*
X154821153Y-105200499D01*
X154821156Y-105200500D01*
X154821158Y-105200500D01*
X154978844Y-105200500D01*
X154978845Y-105200499D01*
X155133497Y-105169737D01*
X155279179Y-105109394D01*
X155410289Y-105021789D01*
X155521789Y-104910289D01*
X155609394Y-104779179D01*
X155669737Y-104633497D01*
X155700500Y-104478842D01*
X155700500Y-104321158D01*
X155700500Y-104321155D01*
X155700499Y-104321153D01*
X155682204Y-104229179D01*
X155669737Y-104166503D01*
X155669735Y-104166498D01*
X155609397Y-104020827D01*
X155609390Y-104020814D01*
X155521789Y-103889711D01*
X155521786Y-103889707D01*
X155410292Y-103778213D01*
X155410288Y-103778210D01*
X155399727Y-103771153D01*
X164899500Y-103771153D01*
X164899500Y-103928846D01*
X164930261Y-104083489D01*
X164930264Y-104083501D01*
X164990602Y-104229172D01*
X164990609Y-104229185D01*
X165078210Y-104360288D01*
X165078213Y-104360292D01*
X165189707Y-104471786D01*
X165189711Y-104471789D01*
X165320814Y-104559390D01*
X165320827Y-104559397D01*
X165451134Y-104613371D01*
X165466503Y-104619737D01*
X165621153Y-104650499D01*
X165621156Y-104650500D01*
X165621158Y-104650500D01*
X165778844Y-104650500D01*
X165778845Y-104650499D01*
X165933497Y-104619737D01*
X166079179Y-104559394D01*
X166210289Y-104471789D01*
X166321789Y-104360289D01*
X166409394Y-104229179D01*
X166469737Y-104083497D01*
X166500500Y-103928842D01*
X166500500Y-103771158D01*
X166500500Y-103771155D01*
X166500499Y-103771153D01*
X166469737Y-103616503D01*
X166469735Y-103616498D01*
X166409397Y-103470827D01*
X166409390Y-103470814D01*
X166321789Y-103339711D01*
X166321786Y-103339707D01*
X166210292Y-103228213D01*
X166210288Y-103228210D01*
X166079185Y-103140609D01*
X166079172Y-103140602D01*
X165933501Y-103080264D01*
X165933489Y-103080261D01*
X165778845Y-103049500D01*
X165778842Y-103049500D01*
X165621158Y-103049500D01*
X165621155Y-103049500D01*
X165466510Y-103080261D01*
X165466498Y-103080264D01*
X165320827Y-103140602D01*
X165320814Y-103140609D01*
X165189711Y-103228210D01*
X165189707Y-103228213D01*
X165078213Y-103339707D01*
X165078210Y-103339711D01*
X164990609Y-103470814D01*
X164990602Y-103470827D01*
X164930264Y-103616498D01*
X164930261Y-103616510D01*
X164899500Y-103771153D01*
X155399727Y-103771153D01*
X155279185Y-103690609D01*
X155279172Y-103690602D01*
X155133501Y-103630264D01*
X155133489Y-103630261D01*
X154978845Y-103599500D01*
X154978842Y-103599500D01*
X154821158Y-103599500D01*
X154821153Y-103599500D01*
X154747951Y-103614061D01*
X154678360Y-103607834D01*
X154623182Y-103564971D01*
X154599938Y-103499081D01*
X154600358Y-103480285D01*
X154600500Y-103478843D01*
X154600500Y-103321155D01*
X154600499Y-103321153D01*
X154582012Y-103228213D01*
X154569737Y-103166503D01*
X154569735Y-103166498D01*
X154509397Y-103020827D01*
X154509390Y-103020814D01*
X154421789Y-102889711D01*
X154421786Y-102889707D01*
X154310292Y-102778213D01*
X154310288Y-102778210D01*
X154179185Y-102690609D01*
X154179172Y-102690602D01*
X154033501Y-102630264D01*
X154033489Y-102630261D01*
X153878845Y-102599500D01*
X153878842Y-102599500D01*
X153721158Y-102599500D01*
X153721155Y-102599500D01*
X153566510Y-102630261D01*
X153566498Y-102630264D01*
X153420827Y-102690602D01*
X153420814Y-102690609D01*
X153289711Y-102778210D01*
X153289707Y-102778213D01*
X153178213Y-102889707D01*
X153178210Y-102889711D01*
X153090609Y-103020814D01*
X153090602Y-103020827D01*
X153030264Y-103166498D01*
X153030261Y-103166510D01*
X152999500Y-103321153D01*
X130300500Y-103321153D01*
X130300500Y-99180000D01*
X132875138Y-99180000D01*
X133795254Y-99180000D01*
X133703393Y-99218050D01*
X133633063Y-99288380D01*
X133595001Y-99380270D01*
X133595001Y-99479730D01*
X133633063Y-99571620D01*
X133703393Y-99641950D01*
X133795254Y-99680000D01*
X132875138Y-99680000D01*
X132883430Y-99721690D01*
X132883430Y-99721692D01*
X132958807Y-99903671D01*
X132958814Y-99903684D01*
X133068248Y-100067462D01*
X133068251Y-100067466D01*
X133207533Y-100206748D01*
X133207537Y-100206751D01*
X133371315Y-100316185D01*
X133371328Y-100316192D01*
X133553306Y-100391569D01*
X133553318Y-100391572D01*
X133746504Y-100429999D01*
X133746508Y-100430000D01*
X133945000Y-100430000D01*
X133945000Y-99680012D01*
X134445000Y-99680012D01*
X134445000Y-100430000D01*
X134643492Y-100430000D01*
X134643495Y-100429999D01*
X134836681Y-100391572D01*
X134836693Y-100391569D01*
X135018671Y-100316192D01*
X135018684Y-100316185D01*
X135182462Y-100206751D01*
X135182466Y-100206748D01*
X135321748Y-100067466D01*
X135321751Y-100067462D01*
X135431185Y-99903684D01*
X135431192Y-99903671D01*
X135506569Y-99721692D01*
X135506569Y-99721690D01*
X135514862Y-99680000D01*
X134594746Y-99680000D01*
X134686607Y-99641950D01*
X134756937Y-99571620D01*
X134794999Y-99479730D01*
X134794999Y-99380270D01*
X134756937Y-99288380D01*
X134686607Y-99218050D01*
X134594746Y-99180000D01*
X135514862Y-99180000D01*
X136685138Y-99180000D01*
X137605254Y-99180000D01*
X137513393Y-99218050D01*
X137443063Y-99288380D01*
X137405001Y-99380270D01*
X137405001Y-99479730D01*
X137443063Y-99571620D01*
X137513393Y-99641950D01*
X137605254Y-99680000D01*
X136685138Y-99680000D01*
X136693430Y-99721690D01*
X136693430Y-99721692D01*
X136768807Y-99903671D01*
X136768814Y-99903684D01*
X136878248Y-100067462D01*
X136878251Y-100067466D01*
X137017533Y-100206748D01*
X137017537Y-100206751D01*
X137181315Y-100316185D01*
X137181328Y-100316192D01*
X137363306Y-100391569D01*
X137363318Y-100391572D01*
X137556504Y-100429999D01*
X137556508Y-100430000D01*
X137755000Y-100430000D01*
X137755000Y-99680012D01*
X138255000Y-99680012D01*
X138255000Y-100430000D01*
X138453492Y-100430000D01*
X138453495Y-100429999D01*
X138646681Y-100391572D01*
X138646693Y-100391569D01*
X138828671Y-100316192D01*
X138828684Y-100316185D01*
X138992462Y-100206751D01*
X138992466Y-100206748D01*
X139131748Y-100067466D01*
X139131751Y-100067462D01*
X139241185Y-99903684D01*
X139241192Y-99903671D01*
X139316569Y-99721692D01*
X139316569Y-99721690D01*
X139324862Y-99680000D01*
X138404746Y-99680000D01*
X138496607Y-99641950D01*
X138566937Y-99571620D01*
X138604999Y-99479730D01*
X138604999Y-99380270D01*
X138566937Y-99288380D01*
X138496607Y-99218050D01*
X138404746Y-99180000D01*
X139324862Y-99180000D01*
X139316569Y-99138309D01*
X139316569Y-99138307D01*
X139241192Y-98956328D01*
X139241185Y-98956315D01*
X139131751Y-98792537D01*
X139131748Y-98792533D01*
X138992466Y-98653251D01*
X138992462Y-98653248D01*
X138828684Y-98543814D01*
X138828671Y-98543807D01*
X138646693Y-98468430D01*
X138646681Y-98468427D01*
X138453495Y-98430000D01*
X138255000Y-98430000D01*
X138255000Y-99179988D01*
X137755000Y-99179988D01*
X137755000Y-98430000D01*
X137556504Y-98430000D01*
X137363318Y-98468427D01*
X137363306Y-98468430D01*
X137181328Y-98543807D01*
X137181315Y-98543814D01*
X137017537Y-98653248D01*
X137017533Y-98653251D01*
X136878251Y-98792533D01*
X136878248Y-98792537D01*
X136768814Y-98956315D01*
X136768807Y-98956328D01*
X136693430Y-99138307D01*
X136693430Y-99138309D01*
X136685138Y-99180000D01*
X135514862Y-99180000D01*
X135506569Y-99138309D01*
X135506569Y-99138307D01*
X135431192Y-98956328D01*
X135431185Y-98956315D01*
X135321751Y-98792537D01*
X135321748Y-98792533D01*
X135182466Y-98653251D01*
X135182462Y-98653248D01*
X135018684Y-98543814D01*
X135018671Y-98543807D01*
X134836693Y-98468430D01*
X134836681Y-98468427D01*
X134643495Y-98430000D01*
X134445000Y-98430000D01*
X134445000Y-99179988D01*
X133945000Y-99179988D01*
X133945000Y-98430000D01*
X133746504Y-98430000D01*
X133553318Y-98468427D01*
X133553306Y-98468430D01*
X133371328Y-98543807D01*
X133371315Y-98543814D01*
X133207537Y-98653248D01*
X133207533Y-98653251D01*
X133068251Y-98792533D01*
X133068248Y-98792537D01*
X132958814Y-98956315D01*
X132958807Y-98956328D01*
X132883430Y-99138307D01*
X132883430Y-99138309D01*
X132875138Y-99180000D01*
X130300500Y-99180000D01*
X130300500Y-88563389D01*
X135299500Y-88563389D01*
X135299500Y-88736610D01*
X135324769Y-88896158D01*
X135326598Y-88907701D01*
X135380127Y-89072445D01*
X135449450Y-89208501D01*
X135458770Y-89226791D01*
X135531659Y-89327115D01*
X135555139Y-89392921D01*
X135539313Y-89460975D01*
X135531659Y-89472885D01*
X135458770Y-89573208D01*
X135380128Y-89727552D01*
X135326597Y-89892302D01*
X135307684Y-90011716D01*
X135299500Y-90063389D01*
X135299500Y-90236611D01*
X135305926Y-90277181D01*
X135323585Y-90388681D01*
X135326598Y-90407701D01*
X135380127Y-90572445D01*
X135436712Y-90683501D01*
X135458770Y-90726791D01*
X135531659Y-90827115D01*
X135555139Y-90892921D01*
X135539313Y-90960975D01*
X135531659Y-90972885D01*
X135458770Y-91073208D01*
X135380128Y-91227552D01*
X135326597Y-91392302D01*
X135299500Y-91563389D01*
X135299500Y-91736610D01*
X135321927Y-91878213D01*
X135326598Y-91907701D01*
X135380127Y-92072445D01*
X135450108Y-92209792D01*
X135458770Y-92226791D01*
X135531659Y-92327115D01*
X135555139Y-92392921D01*
X135539313Y-92460975D01*
X135531659Y-92472885D01*
X135458770Y-92573208D01*
X135380128Y-92727552D01*
X135326597Y-92892302D01*
X135299500Y-93063389D01*
X135299500Y-93236610D01*
X135321297Y-93374236D01*
X135326598Y-93407701D01*
X135380127Y-93572445D01*
X135458768Y-93726788D01*
X135560586Y-93866928D01*
X135683072Y-93989414D01*
X135823212Y-94091232D01*
X135977555Y-94169873D01*
X136142299Y-94223402D01*
X136313389Y-94250500D01*
X136313390Y-94250500D01*
X136486610Y-94250500D01*
X136486611Y-94250500D01*
X136657701Y-94223402D01*
X136822445Y-94169873D01*
X136976788Y-94091232D01*
X137116928Y-93989414D01*
X137239414Y-93866928D01*
X137341232Y-93726788D01*
X137419873Y-93572445D01*
X137473402Y-93407701D01*
X137500500Y-93236611D01*
X137500500Y-93063389D01*
X137473402Y-92892299D01*
X137419873Y-92727555D01*
X137341232Y-92573212D01*
X137268339Y-92472884D01*
X137244860Y-92407080D01*
X137260685Y-92339026D01*
X137268334Y-92327121D01*
X137341232Y-92226788D01*
X137419873Y-92072445D01*
X137473402Y-91907701D01*
X137500500Y-91736611D01*
X137500500Y-91563389D01*
X137473402Y-91392299D01*
X137419873Y-91227555D01*
X137341232Y-91073212D01*
X137268339Y-90972884D01*
X137244860Y-90907080D01*
X137260685Y-90839026D01*
X137268334Y-90827121D01*
X137341232Y-90726788D01*
X137419873Y-90572445D01*
X137473402Y-90407701D01*
X137500500Y-90236611D01*
X137500500Y-90063389D01*
X137473402Y-89892299D01*
X137419873Y-89727555D01*
X137341232Y-89573212D01*
X137268339Y-89472884D01*
X137244860Y-89407080D01*
X137260685Y-89339026D01*
X137268334Y-89327121D01*
X137341232Y-89226788D01*
X137419873Y-89072445D01*
X137473402Y-88907701D01*
X137500500Y-88736611D01*
X137500500Y-88563389D01*
X137473402Y-88392299D01*
X137419873Y-88227555D01*
X137414496Y-88217002D01*
X137393048Y-88174906D01*
X137380152Y-88106237D01*
X137404267Y-88044300D01*
X137443351Y-87992091D01*
X137493597Y-87857376D01*
X137493598Y-87857372D01*
X137499999Y-87797844D01*
X137500000Y-87797827D01*
X137500000Y-87400000D01*
X136715684Y-87400000D01*
X136720079Y-87395605D01*
X136772740Y-87304394D01*
X136799999Y-87202661D01*
X136799999Y-87097339D01*
X136772740Y-86995606D01*
X136720079Y-86904395D01*
X136715684Y-86900000D01*
X137500000Y-86900000D01*
X137500000Y-86502172D01*
X137499999Y-86502155D01*
X137493598Y-86442627D01*
X137493596Y-86442620D01*
X137443354Y-86307913D01*
X137443353Y-86307911D01*
X137372416Y-86213152D01*
X137372415Y-86213151D01*
X137357187Y-86192809D01*
X137291604Y-86143713D01*
X141149500Y-86143713D01*
X141149500Y-86356286D01*
X141181669Y-86559397D01*
X141182754Y-86566243D01*
X141200135Y-86619737D01*
X141248444Y-86768414D01*
X141344951Y-86957820D01*
X141469890Y-87129786D01*
X141620213Y-87280109D01*
X141792182Y-87405050D01*
X141800946Y-87409516D01*
X141851742Y-87457491D01*
X141868536Y-87525312D01*
X141845998Y-87591447D01*
X141800946Y-87630484D01*
X141792182Y-87634949D01*
X141620213Y-87759890D01*
X141469890Y-87910213D01*
X141344951Y-88082179D01*
X141248444Y-88271585D01*
X141182753Y-88473760D01*
X141163422Y-88595814D01*
X141149500Y-88683713D01*
X141149500Y-88896287D01*
X141155453Y-88933872D01*
X141181280Y-89096941D01*
X141182754Y-89106243D01*
X141239814Y-89281856D01*
X141248444Y-89308414D01*
X141344951Y-89497820D01*
X141469890Y-89669786D01*
X141620213Y-89820109D01*
X141792182Y-89945050D01*
X141800946Y-89949516D01*
X141851742Y-89997491D01*
X141868536Y-90065312D01*
X141845998Y-90131447D01*
X141800946Y-90170484D01*
X141792182Y-90174949D01*
X141620213Y-90299890D01*
X141469890Y-90450213D01*
X141344951Y-90622179D01*
X141248444Y-90811585D01*
X141182753Y-91013760D01*
X141149500Y-91223713D01*
X141149500Y-91436286D01*
X141171028Y-91572212D01*
X141182754Y-91646243D01*
X141229659Y-91790602D01*
X141248444Y-91848414D01*
X141344951Y-92037820D01*
X141469890Y-92209786D01*
X141620213Y-92360109D01*
X141792182Y-92485050D01*
X141800946Y-92489516D01*
X141851742Y-92537491D01*
X141868536Y-92605312D01*
X141845998Y-92671447D01*
X141800946Y-92710484D01*
X141792182Y-92714949D01*
X141620213Y-92839890D01*
X141469890Y-92990213D01*
X141344951Y-93162179D01*
X141248444Y-93351585D01*
X141182753Y-93553760D01*
X141149500Y-93763713D01*
X141149500Y-93976286D01*
X141179804Y-94167621D01*
X141182754Y-94186243D01*
X141245334Y-94378844D01*
X141248444Y-94388414D01*
X141344951Y-94577820D01*
X141469890Y-94749786D01*
X141620213Y-94900109D01*
X141792179Y-95025048D01*
X141792181Y-95025049D01*
X141792184Y-95025051D01*
X141981588Y-95121557D01*
X142183757Y-95187246D01*
X142393713Y-95220500D01*
X142393714Y-95220500D01*
X142606286Y-95220500D01*
X142606287Y-95220500D01*
X142816243Y-95187246D01*
X143018412Y-95121557D01*
X143207816Y-95025051D01*
X143263776Y-94984394D01*
X143379786Y-94900109D01*
X143379788Y-94900106D01*
X143379792Y-94900104D01*
X143530104Y-94749792D01*
X143530106Y-94749788D01*
X143530109Y-94749786D01*
X143654304Y-94578844D01*
X143655051Y-94577816D01*
X143751557Y-94388412D01*
X143817246Y-94186243D01*
X143850500Y-93976287D01*
X143850500Y-93763713D01*
X143817246Y-93553757D01*
X143753096Y-93356324D01*
X147594500Y-93356324D01*
X147594500Y-93374236D01*
X147596489Y-93414707D01*
X147596935Y-93423792D01*
X147596935Y-93423801D01*
X147599315Y-93447958D01*
X147599317Y-93447977D01*
X147599318Y-93447983D01*
X147604585Y-93483491D01*
X147606597Y-93497050D01*
X147617876Y-93553757D01*
X147618431Y-93556543D01*
X147628763Y-93590602D01*
X147647197Y-93651374D01*
X147660289Y-93682981D01*
X147663819Y-93691503D01*
X147665713Y-93696074D01*
X147665715Y-93696079D01*
X147712423Y-93783463D01*
X147746129Y-93833908D01*
X147775670Y-93873740D01*
X147775682Y-93873756D01*
X147779340Y-93878213D01*
X147791097Y-93892539D01*
X147809271Y-93912590D01*
X147824411Y-93929295D01*
X147958181Y-94063065D01*
X147991666Y-94124388D01*
X147994500Y-94150746D01*
X147994500Y-98637789D01*
X147995260Y-98653248D01*
X147996935Y-98687345D01*
X147996935Y-98687354D01*
X147999315Y-98711511D01*
X147999322Y-98711570D01*
X148006592Y-98760573D01*
X148006595Y-98760591D01*
X148006596Y-98760596D01*
X148016107Y-98808414D01*
X148018432Y-98820100D01*
X148047190Y-98914912D01*
X148065702Y-98959607D01*
X148065703Y-98959608D01*
X148112419Y-99047011D01*
X148112425Y-99047021D01*
X148138179Y-99085564D01*
X148139214Y-99087113D01*
X148202080Y-99163714D01*
X148202085Y-99163719D01*
X148236280Y-99197915D01*
X148236285Y-99197919D01*
X148312891Y-99260788D01*
X148312898Y-99260792D01*
X148312904Y-99260797D01*
X148352974Y-99287571D01*
X148352983Y-99287576D01*
X148352986Y-99287578D01*
X148440373Y-99334287D01*
X148462721Y-99343544D01*
X148485061Y-99352798D01*
X148485063Y-99352798D01*
X148485069Y-99352801D01*
X148579897Y-99381567D01*
X148639399Y-99393403D01*
X148639433Y-99393408D01*
X148688447Y-99400680D01*
X148688461Y-99400681D01*
X148688464Y-99400682D01*
X148712655Y-99403065D01*
X148762211Y-99405500D01*
X148762225Y-99405500D01*
X149537776Y-99405500D01*
X149537789Y-99405500D01*
X149587349Y-99403065D01*
X149611538Y-99400682D01*
X149660596Y-99393404D01*
X149720100Y-99381568D01*
X149814928Y-99352802D01*
X149859625Y-99334288D01*
X149947025Y-99287571D01*
X149987115Y-99260783D01*
X150063706Y-99197927D01*
X150097918Y-99163716D01*
X150160792Y-99087104D01*
X150187578Y-99047015D01*
X150234288Y-98959625D01*
X150252802Y-98914928D01*
X150281567Y-98820106D01*
X150293403Y-98760606D01*
X150293403Y-98760602D01*
X150293405Y-98760595D01*
X150295363Y-98747388D01*
X150300682Y-98711534D01*
X150303065Y-98687341D01*
X150305500Y-98637789D01*
X150305500Y-96246153D01*
X172599500Y-96246153D01*
X172599500Y-96403846D01*
X172630261Y-96558489D01*
X172630264Y-96558501D01*
X172690602Y-96704172D01*
X172690609Y-96704185D01*
X172778210Y-96835288D01*
X172778213Y-96835292D01*
X172889707Y-96946786D01*
X172889711Y-96946789D01*
X173020814Y-97034390D01*
X173020827Y-97034397D01*
X173136308Y-97082230D01*
X173166503Y-97094737D01*
X173321153Y-97125499D01*
X173321156Y-97125500D01*
X173321158Y-97125500D01*
X173478844Y-97125500D01*
X173478845Y-97125499D01*
X173633497Y-97094737D01*
X173779179Y-97034394D01*
X173910289Y-96946789D01*
X174021789Y-96835289D01*
X174075030Y-96755609D01*
X174128642Y-96710804D01*
X174178132Y-96700500D01*
X174278844Y-96700500D01*
X174278845Y-96700499D01*
X174433497Y-96669737D01*
X174579179Y-96609394D01*
X174635947Y-96571462D01*
X174702623Y-96550584D01*
X174770003Y-96569067D01*
X174816694Y-96621046D01*
X174827872Y-96690015D01*
X174819400Y-96722015D01*
X174780263Y-96816503D01*
X174780261Y-96816510D01*
X174749500Y-96971153D01*
X174749500Y-97128846D01*
X174780261Y-97283489D01*
X174780264Y-97283501D01*
X174840602Y-97429172D01*
X174840609Y-97429185D01*
X174928210Y-97560288D01*
X174928213Y-97560292D01*
X175039707Y-97671786D01*
X175039711Y-97671789D01*
X175170814Y-97759390D01*
X175170827Y-97759397D01*
X175316498Y-97819735D01*
X175316503Y-97819737D01*
X175471153Y-97850499D01*
X175471156Y-97850500D01*
X175471158Y-97850500D01*
X175628844Y-97850500D01*
X175628845Y-97850499D01*
X175783497Y-97819737D01*
X175929179Y-97759394D01*
X176060289Y-97671789D01*
X176171789Y-97560289D01*
X176259394Y-97429179D01*
X176319737Y-97283497D01*
X176350500Y-97128842D01*
X176350500Y-96971158D01*
X176350500Y-96971155D01*
X176350499Y-96971153D01*
X176324875Y-96842335D01*
X176319737Y-96816503D01*
X176280599Y-96722015D01*
X176259397Y-96670827D01*
X176259390Y-96670814D01*
X176171789Y-96539711D01*
X176171786Y-96539707D01*
X176060292Y-96428213D01*
X176060288Y-96428210D01*
X175929185Y-96340609D01*
X175929172Y-96340602D01*
X175783501Y-96280264D01*
X175783489Y-96280261D01*
X175628845Y-96249500D01*
X175628842Y-96249500D01*
X175471158Y-96249500D01*
X175471155Y-96249500D01*
X175316510Y-96280261D01*
X175316498Y-96280264D01*
X175170827Y-96340602D01*
X175170814Y-96340609D01*
X175114052Y-96378537D01*
X175047374Y-96399415D01*
X174979994Y-96380930D01*
X174933304Y-96328951D01*
X174922128Y-96259981D01*
X174930600Y-96227982D01*
X174935594Y-96215925D01*
X174969737Y-96133497D01*
X175000500Y-95978842D01*
X175000500Y-95821158D01*
X175000500Y-95821155D01*
X175000499Y-95821153D01*
X174977039Y-95703213D01*
X174969737Y-95666503D01*
X174948655Y-95615606D01*
X174909397Y-95520827D01*
X174909390Y-95520814D01*
X174821789Y-95389711D01*
X174821786Y-95389707D01*
X174710292Y-95278213D01*
X174710288Y-95278210D01*
X174579185Y-95190609D01*
X174579172Y-95190602D01*
X174433501Y-95130264D01*
X174433489Y-95130261D01*
X174278845Y-95099500D01*
X174278842Y-95099500D01*
X174121158Y-95099500D01*
X174121155Y-95099500D01*
X173966510Y-95130261D01*
X173966498Y-95130264D01*
X173820827Y-95190602D01*
X173820814Y-95190609D01*
X173689711Y-95278210D01*
X173689707Y-95278213D01*
X173578213Y-95389707D01*
X173578210Y-95389711D01*
X173524970Y-95469391D01*
X173471358Y-95514196D01*
X173421868Y-95524500D01*
X173321155Y-95524500D01*
X173166510Y-95555261D01*
X173166498Y-95555264D01*
X173020827Y-95615602D01*
X173020814Y-95615609D01*
X172889711Y-95703210D01*
X172889707Y-95703213D01*
X172778213Y-95814707D01*
X172778210Y-95814711D01*
X172690609Y-95945814D01*
X172690602Y-95945827D01*
X172630264Y-96091498D01*
X172630261Y-96091510D01*
X172599500Y-96246153D01*
X150305500Y-96246153D01*
X150305500Y-93071153D01*
X152849500Y-93071153D01*
X152849500Y-93228846D01*
X152880261Y-93383489D01*
X152880264Y-93383501D01*
X152940602Y-93529172D01*
X152940609Y-93529185D01*
X153028210Y-93660288D01*
X153028213Y-93660292D01*
X153139707Y-93771786D01*
X153139711Y-93771789D01*
X153270814Y-93859390D01*
X153270827Y-93859397D01*
X153416498Y-93919735D01*
X153416503Y-93919737D01*
X153571153Y-93950499D01*
X153571156Y-93950500D01*
X153662125Y-93950500D01*
X153729164Y-93970185D01*
X153774919Y-94022989D01*
X153783742Y-94050308D01*
X153805261Y-94158491D01*
X153805264Y-94158501D01*
X153865602Y-94304172D01*
X153865609Y-94304185D01*
X153953210Y-94435288D01*
X153953213Y-94435292D01*
X154064707Y-94546786D01*
X154064711Y-94546789D01*
X154195814Y-94634390D01*
X154195827Y-94634397D01*
X154341498Y-94694735D01*
X154341503Y-94694737D01*
X154496153Y-94725499D01*
X154496156Y-94725500D01*
X154496158Y-94725500D01*
X154653844Y-94725500D01*
X154653845Y-94725499D01*
X154808497Y-94694737D01*
X154954179Y-94634394D01*
X155085289Y-94546789D01*
X155196789Y-94435289D01*
X155284394Y-94304179D01*
X155300002Y-94266498D01*
X155318784Y-94221153D01*
X166499500Y-94221153D01*
X166499500Y-94378846D01*
X166530261Y-94533489D01*
X166530264Y-94533501D01*
X166590602Y-94679172D01*
X166590609Y-94679185D01*
X166678210Y-94810288D01*
X166678213Y-94810292D01*
X166789707Y-94921786D01*
X166789711Y-94921789D01*
X166920814Y-95009390D01*
X166920827Y-95009397D01*
X167066498Y-95069735D01*
X167066503Y-95069737D01*
X167216131Y-95099500D01*
X167221153Y-95100499D01*
X167221156Y-95100500D01*
X167221158Y-95100500D01*
X167378844Y-95100500D01*
X167378845Y-95100499D01*
X167533497Y-95069737D01*
X167679179Y-95009394D01*
X167810289Y-94921789D01*
X167921789Y-94810289D01*
X168009394Y-94679179D01*
X168069737Y-94533497D01*
X168100500Y-94378842D01*
X168100500Y-94221158D01*
X168100500Y-94221155D01*
X168100499Y-94221153D01*
X168099128Y-94214257D01*
X168095527Y-94196153D01*
X172362000Y-94196153D01*
X172362000Y-94353846D01*
X172392761Y-94508489D01*
X172392764Y-94508501D01*
X172453102Y-94654172D01*
X172453109Y-94654185D01*
X172540710Y-94785288D01*
X172540713Y-94785292D01*
X172652207Y-94896786D01*
X172652211Y-94896789D01*
X172783314Y-94984390D01*
X172783327Y-94984397D01*
X172881469Y-95025048D01*
X172929003Y-95044737D01*
X173054676Y-95069735D01*
X173083653Y-95075499D01*
X173083656Y-95075500D01*
X173083658Y-95075500D01*
X173241344Y-95075500D01*
X173241345Y-95075499D01*
X173395997Y-95044737D01*
X173508666Y-94998067D01*
X173541672Y-94984397D01*
X173541672Y-94984396D01*
X173541679Y-94984394D01*
X173672789Y-94896789D01*
X173784289Y-94785289D01*
X173871894Y-94654179D01*
X173932237Y-94508497D01*
X173949611Y-94421153D01*
X174699500Y-94421153D01*
X174699500Y-94578846D01*
X174730261Y-94733489D01*
X174730264Y-94733501D01*
X174790602Y-94879172D01*
X174790609Y-94879185D01*
X174878210Y-95010288D01*
X174878213Y-95010292D01*
X174989707Y-95121786D01*
X174989711Y-95121789D01*
X175120814Y-95209390D01*
X175120827Y-95209397D01*
X175218853Y-95250000D01*
X175266503Y-95269737D01*
X175421153Y-95300499D01*
X175421156Y-95300500D01*
X175421158Y-95300500D01*
X175578844Y-95300500D01*
X175578845Y-95300499D01*
X175733497Y-95269737D01*
X175879179Y-95209394D01*
X176010289Y-95121789D01*
X176121789Y-95010289D01*
X176209394Y-94879179D01*
X176209395Y-94879176D01*
X176209397Y-94879173D01*
X176220596Y-94852135D01*
X184109500Y-94852135D01*
X184109500Y-96647870D01*
X184109501Y-96647876D01*
X184115908Y-96707483D01*
X184166202Y-96842328D01*
X184166206Y-96842335D01*
X184252452Y-96957544D01*
X184252455Y-96957547D01*
X184367664Y-97043793D01*
X184367671Y-97043797D01*
X184499082Y-97092810D01*
X184555016Y-97134681D01*
X184579433Y-97200145D01*
X184564582Y-97268418D01*
X184543431Y-97296673D01*
X184429889Y-97410215D01*
X184304951Y-97582179D01*
X184208444Y-97771585D01*
X184142753Y-97973760D01*
X184109500Y-98183713D01*
X184109500Y-98396287D01*
X184142754Y-98606243D01*
X184192906Y-98760595D01*
X184208444Y-98808414D01*
X184304951Y-98997820D01*
X184429890Y-99169786D01*
X184580213Y-99320109D01*
X184752182Y-99445050D01*
X184760946Y-99449516D01*
X184811742Y-99497491D01*
X184828536Y-99565312D01*
X184805998Y-99631447D01*
X184760946Y-99670484D01*
X184752182Y-99674949D01*
X184580213Y-99799890D01*
X184429890Y-99950213D01*
X184304951Y-100122179D01*
X184208444Y-100311585D01*
X184142753Y-100513760D01*
X184109500Y-100723713D01*
X184109500Y-100936286D01*
X184142753Y-101146239D01*
X184208444Y-101348414D01*
X184304951Y-101537820D01*
X184429890Y-101709786D01*
X184580213Y-101860109D01*
X184752179Y-101985048D01*
X184752181Y-101985049D01*
X184752184Y-101985051D01*
X184941588Y-102081557D01*
X185143757Y-102147246D01*
X185353713Y-102180500D01*
X185353714Y-102180500D01*
X185566286Y-102180500D01*
X185566287Y-102180500D01*
X185776243Y-102147246D01*
X185978412Y-102081557D01*
X186167816Y-101985051D01*
X186189789Y-101969086D01*
X186339786Y-101860109D01*
X186339788Y-101860106D01*
X186339792Y-101860104D01*
X186490104Y-101709792D01*
X186490106Y-101709788D01*
X186490109Y-101709786D01*
X186615048Y-101537820D01*
X186615047Y-101537820D01*
X186615051Y-101537816D01*
X186619514Y-101529054D01*
X186667488Y-101478259D01*
X186735308Y-101461463D01*
X186801444Y-101483999D01*
X186840486Y-101529056D01*
X186844951Y-101537820D01*
X186969890Y-101709786D01*
X187120213Y-101860109D01*
X187292179Y-101985048D01*
X187292181Y-101985049D01*
X187292184Y-101985051D01*
X187481588Y-102081557D01*
X187683757Y-102147246D01*
X187893713Y-102180500D01*
X187893714Y-102180500D01*
X188106286Y-102180500D01*
X188106287Y-102180500D01*
X188316243Y-102147246D01*
X188518412Y-102081557D01*
X188707816Y-101985051D01*
X188729789Y-101969086D01*
X188879786Y-101860109D01*
X188879788Y-101860106D01*
X188879792Y-101860104D01*
X189030104Y-101709792D01*
X189030106Y-101709788D01*
X189030109Y-101709786D01*
X189155048Y-101537820D01*
X189155047Y-101537820D01*
X189155051Y-101537816D01*
X189251557Y-101348412D01*
X189317246Y-101146243D01*
X189350500Y-100936287D01*
X189350500Y-100723713D01*
X189317246Y-100513757D01*
X189251557Y-100311588D01*
X189155051Y-100122184D01*
X189155049Y-100122181D01*
X189155048Y-100122179D01*
X189030109Y-99950213D01*
X188879786Y-99799890D01*
X188707820Y-99674951D01*
X188707115Y-99674591D01*
X188699054Y-99670485D01*
X188648259Y-99622512D01*
X188631463Y-99554692D01*
X188653999Y-99488556D01*
X188699054Y-99449515D01*
X188707816Y-99445051D01*
X188778900Y-99393406D01*
X188879786Y-99320109D01*
X188879788Y-99320106D01*
X188879792Y-99320104D01*
X189030104Y-99169792D01*
X189030106Y-99169788D01*
X189030109Y-99169786D01*
X189155048Y-98997820D01*
X189155047Y-98997820D01*
X189155051Y-98997816D01*
X189251557Y-98808412D01*
X189317246Y-98606243D01*
X189350500Y-98396287D01*
X189350500Y-98183713D01*
X189317246Y-97973757D01*
X189251557Y-97771588D01*
X189155051Y-97582184D01*
X189155049Y-97582181D01*
X189155048Y-97582179D01*
X189030109Y-97410213D01*
X188879786Y-97259890D01*
X188707817Y-97134949D01*
X188698504Y-97130204D01*
X188647707Y-97082230D01*
X188630912Y-97014409D01*
X188653449Y-96948274D01*
X188698507Y-96909232D01*
X188707555Y-96904622D01*
X188761716Y-96865270D01*
X188761717Y-96865270D01*
X188129408Y-96232962D01*
X188192993Y-96215925D01*
X188307007Y-96150099D01*
X188400099Y-96057007D01*
X188465925Y-95942993D01*
X188482962Y-95879409D01*
X189115270Y-96511717D01*
X189115270Y-96511716D01*
X189154622Y-96457554D01*
X189251095Y-96268217D01*
X189316757Y-96066130D01*
X189316757Y-96066127D01*
X189350000Y-95856246D01*
X189350000Y-95643753D01*
X189316757Y-95433872D01*
X189316757Y-95433869D01*
X189251095Y-95231782D01*
X189154624Y-95042449D01*
X189115270Y-94988282D01*
X189115269Y-94988282D01*
X188482962Y-95620590D01*
X188465925Y-95557007D01*
X188400099Y-95442993D01*
X188307007Y-95349901D01*
X188192993Y-95284075D01*
X188129409Y-95267037D01*
X188761716Y-94634728D01*
X188707550Y-94595375D01*
X188518217Y-94498904D01*
X188316129Y-94433242D01*
X188106246Y-94400000D01*
X187893754Y-94400000D01*
X187683872Y-94433242D01*
X187683869Y-94433242D01*
X187481782Y-94498904D01*
X187292439Y-94595380D01*
X187238282Y-94634727D01*
X187238282Y-94634728D01*
X187870591Y-95267037D01*
X187807007Y-95284075D01*
X187692993Y-95349901D01*
X187599901Y-95442993D01*
X187534075Y-95557007D01*
X187517037Y-95620591D01*
X186846818Y-94950372D01*
X186813333Y-94889049D01*
X186813330Y-94889036D01*
X186810499Y-94876015D01*
X186810499Y-94852128D01*
X186804091Y-94792517D01*
X186767622Y-94694738D01*
X186753798Y-94657673D01*
X186753793Y-94657664D01*
X186667547Y-94542455D01*
X186667544Y-94542452D01*
X186552335Y-94456206D01*
X186552328Y-94456202D01*
X186417482Y-94405908D01*
X186417483Y-94405908D01*
X186357883Y-94399501D01*
X186357881Y-94399500D01*
X186357873Y-94399500D01*
X186357864Y-94399500D01*
X184562129Y-94399500D01*
X184562123Y-94399501D01*
X184502516Y-94405908D01*
X184367671Y-94456202D01*
X184367664Y-94456206D01*
X184252455Y-94542452D01*
X184252452Y-94542455D01*
X184166206Y-94657664D01*
X184166202Y-94657671D01*
X184115908Y-94792517D01*
X184109501Y-94852116D01*
X184109500Y-94852135D01*
X176220596Y-94852135D01*
X176241630Y-94801354D01*
X176241630Y-94801353D01*
X176245290Y-94792517D01*
X176269737Y-94733497D01*
X176300500Y-94578842D01*
X176300500Y-94421158D01*
X176300500Y-94421155D01*
X176300499Y-94421153D01*
X176293986Y-94388412D01*
X176269737Y-94266503D01*
X176269735Y-94266498D01*
X176209397Y-94120827D01*
X176209390Y-94120814D01*
X176121789Y-93989711D01*
X176121786Y-93989707D01*
X176010292Y-93878213D01*
X176010288Y-93878210D01*
X175879185Y-93790609D01*
X175879172Y-93790602D01*
X175733501Y-93730264D01*
X175733489Y-93730261D01*
X175578845Y-93699500D01*
X175578842Y-93699500D01*
X175421158Y-93699500D01*
X175421155Y-93699500D01*
X175266510Y-93730261D01*
X175266498Y-93730264D01*
X175120827Y-93790602D01*
X175120814Y-93790609D01*
X174989711Y-93878210D01*
X174989707Y-93878213D01*
X174878213Y-93989707D01*
X174878210Y-93989711D01*
X174790609Y-94120814D01*
X174790602Y-94120827D01*
X174730264Y-94266498D01*
X174730261Y-94266510D01*
X174699500Y-94421153D01*
X173949611Y-94421153D01*
X173952643Y-94405909D01*
X173955634Y-94390875D01*
X173955634Y-94390874D01*
X173963000Y-94353844D01*
X173963000Y-94196155D01*
X173962999Y-94196153D01*
X173961027Y-94186239D01*
X173932237Y-94041503D01*
X173923221Y-94019737D01*
X173871897Y-93895827D01*
X173871890Y-93895814D01*
X173784289Y-93764711D01*
X173784286Y-93764707D01*
X173672792Y-93653213D01*
X173672788Y-93653210D01*
X173541685Y-93565609D01*
X173541672Y-93565602D01*
X173396001Y-93505264D01*
X173395989Y-93505261D01*
X173241345Y-93474500D01*
X173241342Y-93474500D01*
X173083658Y-93474500D01*
X173083655Y-93474500D01*
X172929010Y-93505261D01*
X172928998Y-93505264D01*
X172783327Y-93565602D01*
X172783314Y-93565609D01*
X172652211Y-93653210D01*
X172652207Y-93653213D01*
X172540713Y-93764707D01*
X172540710Y-93764711D01*
X172453109Y-93895814D01*
X172453102Y-93895827D01*
X172392764Y-94041498D01*
X172392761Y-94041510D01*
X172362000Y-94196153D01*
X168095527Y-94196153D01*
X168069738Y-94066508D01*
X168069737Y-94066507D01*
X168069737Y-94066503D01*
X168068313Y-94063065D01*
X168009397Y-93920827D01*
X168009390Y-93920814D01*
X167921789Y-93789711D01*
X167921786Y-93789707D01*
X167810292Y-93678213D01*
X167810288Y-93678210D01*
X167679185Y-93590609D01*
X167679172Y-93590602D01*
X167533501Y-93530264D01*
X167533489Y-93530261D01*
X167378845Y-93499500D01*
X167378842Y-93499500D01*
X167221158Y-93499500D01*
X167221155Y-93499500D01*
X167066510Y-93530261D01*
X167066498Y-93530264D01*
X166920827Y-93590602D01*
X166920814Y-93590609D01*
X166789711Y-93678210D01*
X166789707Y-93678213D01*
X166678213Y-93789707D01*
X166678210Y-93789711D01*
X166590609Y-93920814D01*
X166590602Y-93920827D01*
X166530264Y-94066498D01*
X166530261Y-94066510D01*
X166499500Y-94221153D01*
X155318784Y-94221153D01*
X155340958Y-94167621D01*
X155340958Y-94167619D01*
X155344737Y-94158497D01*
X155375500Y-94003842D01*
X155375500Y-93846158D01*
X155375500Y-93846155D01*
X155375499Y-93846153D01*
X155373063Y-93833906D01*
X155344737Y-93691503D01*
X155331808Y-93660289D01*
X155284397Y-93545827D01*
X155284390Y-93545814D01*
X155196789Y-93414711D01*
X155196786Y-93414707D01*
X155085292Y-93303213D01*
X155085288Y-93303210D01*
X155032844Y-93268168D01*
X154954185Y-93215609D01*
X154954172Y-93215602D01*
X154846861Y-93171153D01*
X161599500Y-93171153D01*
X161599500Y-93328846D01*
X161630261Y-93483489D01*
X161630264Y-93483501D01*
X161690602Y-93629172D01*
X161690609Y-93629185D01*
X161778210Y-93760288D01*
X161778213Y-93760292D01*
X161889707Y-93871786D01*
X161889711Y-93871789D01*
X162020814Y-93959390D01*
X162020827Y-93959397D01*
X162128138Y-94003846D01*
X162166503Y-94019737D01*
X162275963Y-94041510D01*
X162321153Y-94050499D01*
X162321156Y-94050500D01*
X162321158Y-94050500D01*
X162478844Y-94050500D01*
X162478845Y-94050499D01*
X162633497Y-94019737D01*
X162779179Y-93959394D01*
X162910289Y-93871789D01*
X163021789Y-93760289D01*
X163109394Y-93629179D01*
X163169737Y-93483497D01*
X163176801Y-93447983D01*
X163186285Y-93400308D01*
X163218670Y-93338397D01*
X163279386Y-93303823D01*
X163307902Y-93300500D01*
X163428844Y-93300500D01*
X163428845Y-93300499D01*
X163583497Y-93269737D01*
X163714182Y-93215606D01*
X163729172Y-93209397D01*
X163729172Y-93209396D01*
X163729179Y-93209394D01*
X163860289Y-93121789D01*
X163971789Y-93010289D01*
X164059394Y-92879179D01*
X164062854Y-92870827D01*
X164083863Y-92820104D01*
X164119737Y-92733497D01*
X164150500Y-92578842D01*
X164150500Y-92421158D01*
X164150500Y-92421155D01*
X164150499Y-92421153D01*
X164139713Y-92366928D01*
X164119737Y-92266503D01*
X164072500Y-92152461D01*
X164059397Y-92120827D01*
X164059390Y-92120814D01*
X163971789Y-91989711D01*
X163971786Y-91989707D01*
X163860292Y-91878213D01*
X163860288Y-91878210D01*
X163729185Y-91790609D01*
X163729172Y-91790602D01*
X163583501Y-91730264D01*
X163583489Y-91730261D01*
X163428845Y-91699500D01*
X163428842Y-91699500D01*
X163271158Y-91699500D01*
X163271155Y-91699500D01*
X163116510Y-91730261D01*
X163116498Y-91730264D01*
X162970827Y-91790602D01*
X162970814Y-91790609D01*
X162839711Y-91878210D01*
X162839707Y-91878213D01*
X162728213Y-91989707D01*
X162728210Y-91989711D01*
X162640609Y-92120814D01*
X162640602Y-92120827D01*
X162580264Y-92266498D01*
X162580261Y-92266508D01*
X162563715Y-92349692D01*
X162531330Y-92411603D01*
X162470614Y-92446177D01*
X162442098Y-92449500D01*
X162321155Y-92449500D01*
X162166510Y-92480261D01*
X162166498Y-92480264D01*
X162020827Y-92540602D01*
X162020814Y-92540609D01*
X161889711Y-92628210D01*
X161889707Y-92628213D01*
X161778213Y-92739707D01*
X161778210Y-92739711D01*
X161690609Y-92870814D01*
X161690602Y-92870827D01*
X161630264Y-93016498D01*
X161630261Y-93016510D01*
X161599500Y-93171153D01*
X154846861Y-93171153D01*
X154808501Y-93155264D01*
X154808489Y-93155261D01*
X154653845Y-93124500D01*
X154653842Y-93124500D01*
X154562875Y-93124500D01*
X154495836Y-93104815D01*
X154450081Y-93052011D01*
X154441258Y-93024692D01*
X154419738Y-92916508D01*
X154419737Y-92916507D01*
X154419737Y-92916503D01*
X154409713Y-92892302D01*
X154359397Y-92770827D01*
X154359390Y-92770814D01*
X154271789Y-92639711D01*
X154271786Y-92639707D01*
X154160292Y-92528213D01*
X154160288Y-92528210D01*
X154029185Y-92440609D01*
X154029172Y-92440602D01*
X153883501Y-92380264D01*
X153883489Y-92380261D01*
X153728845Y-92349500D01*
X153728842Y-92349500D01*
X153571158Y-92349500D01*
X153571155Y-92349500D01*
X153416510Y-92380261D01*
X153416498Y-92380264D01*
X153270827Y-92440602D01*
X153270814Y-92440609D01*
X153139711Y-92528210D01*
X153139707Y-92528213D01*
X153028213Y-92639707D01*
X153028210Y-92639711D01*
X152940609Y-92770814D01*
X152940602Y-92770827D01*
X152880264Y-92916498D01*
X152880261Y-92916510D01*
X152849500Y-93071153D01*
X150305500Y-93071153D01*
X150305500Y-92219500D01*
X150325185Y-92152461D01*
X150377989Y-92106706D01*
X150429500Y-92095500D01*
X150484223Y-92095500D01*
X150484236Y-92095500D01*
X150533796Y-92093065D01*
X150557985Y-92090682D01*
X150607044Y-92083404D01*
X150666547Y-92071568D01*
X150736106Y-92052485D01*
X150769389Y-92040743D01*
X150777534Y-92037196D01*
X150835586Y-92011922D01*
X150835588Y-92011920D01*
X150835591Y-92011919D01*
X150847097Y-92003618D01*
X150861198Y-91994819D01*
X150893464Y-91977575D01*
X150943906Y-91943871D01*
X150983748Y-91914323D01*
X151002539Y-91898902D01*
X151039300Y-91865583D01*
X151875583Y-91029300D01*
X151908902Y-90992539D01*
X151924323Y-90973748D01*
X151953871Y-90933906D01*
X151987575Y-90883464D01*
X152034284Y-90796079D01*
X152052799Y-90751382D01*
X152081567Y-90656553D01*
X152093403Y-90597054D01*
X152100682Y-90547981D01*
X152103065Y-90523788D01*
X152105500Y-90474236D01*
X152105500Y-90371153D01*
X161149500Y-90371153D01*
X161149500Y-90528846D01*
X161180261Y-90683489D01*
X161180264Y-90683501D01*
X161240602Y-90829172D01*
X161240609Y-90829185D01*
X161328210Y-90960288D01*
X161328213Y-90960292D01*
X161439707Y-91071786D01*
X161439711Y-91071789D01*
X161570814Y-91159390D01*
X161570827Y-91159397D01*
X161716498Y-91219735D01*
X161716503Y-91219737D01*
X161871153Y-91250499D01*
X161871156Y-91250500D01*
X161871158Y-91250500D01*
X162028844Y-91250500D01*
X162028845Y-91250499D01*
X162183497Y-91219737D01*
X162329179Y-91159394D01*
X162460289Y-91071789D01*
X162571789Y-90960289D01*
X162659394Y-90829179D01*
X162719737Y-90683497D01*
X162750500Y-90528842D01*
X162750500Y-90371158D01*
X162750500Y-90371155D01*
X162750499Y-90371153D01*
X162731807Y-90277184D01*
X162719737Y-90216503D01*
X162700676Y-90170486D01*
X162659397Y-90070827D01*
X162659390Y-90070814D01*
X162571789Y-89939711D01*
X162571786Y-89939707D01*
X162460292Y-89828213D01*
X162460288Y-89828210D01*
X162395710Y-89785060D01*
X162329185Y-89740609D01*
X162329172Y-89740602D01*
X162202286Y-89688045D01*
X169966392Y-89688045D01*
X169966392Y-89845738D01*
X169997153Y-90000381D01*
X169997156Y-90000393D01*
X170057494Y-90146064D01*
X170057501Y-90146077D01*
X170145102Y-90277180D01*
X170145105Y-90277184D01*
X170256599Y-90388678D01*
X170256603Y-90388681D01*
X170387706Y-90476282D01*
X170387719Y-90476289D01*
X170505390Y-90525029D01*
X170533395Y-90536629D01*
X170688045Y-90567391D01*
X170688048Y-90567392D01*
X170688050Y-90567392D01*
X170845736Y-90567392D01*
X170845737Y-90567391D01*
X171000389Y-90536629D01*
X171146071Y-90476286D01*
X171277181Y-90388681D01*
X171388681Y-90277181D01*
X171476286Y-90146071D01*
X171536629Y-90000389D01*
X171567392Y-89845734D01*
X171567392Y-89688050D01*
X171567392Y-89688047D01*
X171567391Y-89688045D01*
X171559724Y-89649500D01*
X171536629Y-89533395D01*
X171536627Y-89533390D01*
X171476289Y-89387719D01*
X171476287Y-89387715D01*
X171476286Y-89387713D01*
X171428999Y-89316943D01*
X171428408Y-89315057D01*
X171426932Y-89313744D01*
X171418012Y-89281856D01*
X171408121Y-89250266D01*
X171408643Y-89248361D01*
X171408111Y-89246457D01*
X171417849Y-89214804D01*
X171426605Y-89182886D01*
X171428258Y-89180967D01*
X171428656Y-89179677D01*
X171434015Y-89174290D01*
X171452110Y-89153303D01*
X171457423Y-89148817D01*
X171535289Y-89096789D01*
X171623298Y-89008779D01*
X171627292Y-89005408D01*
X171654661Y-88993331D01*
X171680924Y-88978991D01*
X171686291Y-88979374D01*
X171691216Y-88977202D01*
X171720778Y-88981841D01*
X171750616Y-88983975D01*
X171754923Y-88987199D01*
X171760241Y-88988034D01*
X171782598Y-89007916D01*
X171806550Y-89025846D01*
X171809040Y-89031431D01*
X171812452Y-89034465D01*
X171815915Y-89046848D01*
X171828900Y-89075965D01*
X171855261Y-89208491D01*
X171855264Y-89208501D01*
X171915602Y-89354172D01*
X171915609Y-89354185D01*
X172003210Y-89485288D01*
X172003213Y-89485292D01*
X172114707Y-89596786D01*
X172114711Y-89596789D01*
X172245814Y-89684390D01*
X172245827Y-89684397D01*
X172381520Y-89740602D01*
X172391503Y-89744737D01*
X172546153Y-89775499D01*
X172546156Y-89775500D01*
X172546158Y-89775500D01*
X172703844Y-89775500D01*
X172703845Y-89775499D01*
X172858497Y-89744737D01*
X173004179Y-89684394D01*
X173135289Y-89596789D01*
X173246789Y-89485289D01*
X173334394Y-89354179D01*
X173394737Y-89208497D01*
X173425500Y-89053842D01*
X173425500Y-88896158D01*
X173425500Y-88896155D01*
X173425499Y-88896153D01*
X173394738Y-88741510D01*
X173394737Y-88741503D01*
X173392710Y-88736610D01*
X173334397Y-88595827D01*
X173334390Y-88595814D01*
X173246789Y-88464711D01*
X173246786Y-88464707D01*
X173135292Y-88353213D01*
X173135288Y-88353210D01*
X173133679Y-88352135D01*
X184109500Y-88352135D01*
X184109500Y-90147870D01*
X184109501Y-90147876D01*
X184115908Y-90207483D01*
X184166202Y-90342328D01*
X184166206Y-90342335D01*
X184252452Y-90457544D01*
X184252455Y-90457547D01*
X184367664Y-90543793D01*
X184367671Y-90543797D01*
X184499082Y-90592810D01*
X184555016Y-90634681D01*
X184579433Y-90700145D01*
X184564582Y-90768418D01*
X184543431Y-90796673D01*
X184429889Y-90910215D01*
X184304951Y-91082179D01*
X184208444Y-91271585D01*
X184142753Y-91473760D01*
X184127162Y-91572200D01*
X184109500Y-91683713D01*
X184109500Y-91896287D01*
X184117035Y-91943862D01*
X184140666Y-92093065D01*
X184142754Y-92106243D01*
X184194824Y-92266498D01*
X184208444Y-92308414D01*
X184304951Y-92497820D01*
X184429890Y-92669786D01*
X184580213Y-92820109D01*
X184752179Y-92945048D01*
X184752181Y-92945049D01*
X184752184Y-92945051D01*
X184941588Y-93041557D01*
X185143757Y-93107246D01*
X185353713Y-93140500D01*
X185353714Y-93140500D01*
X185566286Y-93140500D01*
X185566287Y-93140500D01*
X185776243Y-93107246D01*
X185978412Y-93041557D01*
X186167816Y-92945051D01*
X186207116Y-92916498D01*
X186339786Y-92820109D01*
X186339788Y-92820106D01*
X186339792Y-92820104D01*
X186490104Y-92669792D01*
X186490106Y-92669788D01*
X186490109Y-92669786D01*
X186615048Y-92497820D01*
X186615047Y-92497820D01*
X186615051Y-92497816D01*
X186619514Y-92489054D01*
X186667488Y-92438259D01*
X186735308Y-92421463D01*
X186801444Y-92443999D01*
X186840486Y-92489056D01*
X186844951Y-92497820D01*
X186969890Y-92669786D01*
X187120213Y-92820109D01*
X187292179Y-92945048D01*
X187292181Y-92945049D01*
X187292184Y-92945051D01*
X187481588Y-93041557D01*
X187683757Y-93107246D01*
X187893713Y-93140500D01*
X187893714Y-93140500D01*
X188106286Y-93140500D01*
X188106287Y-93140500D01*
X188316243Y-93107246D01*
X188518412Y-93041557D01*
X188707816Y-92945051D01*
X188747116Y-92916498D01*
X188879786Y-92820109D01*
X188879788Y-92820106D01*
X188879792Y-92820104D01*
X189030104Y-92669792D01*
X189030106Y-92669788D01*
X189030109Y-92669786D01*
X189155048Y-92497820D01*
X189155047Y-92497820D01*
X189155051Y-92497816D01*
X189251557Y-92308412D01*
X189317246Y-92106243D01*
X189350500Y-91896287D01*
X189350500Y-91683713D01*
X189317246Y-91473757D01*
X189251557Y-91271588D01*
X189155051Y-91082184D01*
X189155049Y-91082181D01*
X189155048Y-91082179D01*
X189030109Y-90910213D01*
X188879786Y-90759890D01*
X188707817Y-90634949D01*
X188698504Y-90630204D01*
X188647707Y-90582230D01*
X188630912Y-90514409D01*
X188653449Y-90448274D01*
X188698507Y-90409232D01*
X188707555Y-90404622D01*
X188761716Y-90365270D01*
X188761717Y-90365270D01*
X188129408Y-89732962D01*
X188192993Y-89715925D01*
X188307007Y-89650099D01*
X188400099Y-89557007D01*
X188465925Y-89442993D01*
X188482962Y-89379409D01*
X189115270Y-90011717D01*
X189115270Y-90011716D01*
X189154622Y-89957554D01*
X189251095Y-89768217D01*
X189316757Y-89566130D01*
X189316757Y-89566127D01*
X189350000Y-89356246D01*
X189350000Y-89143753D01*
X189316757Y-88933872D01*
X189316757Y-88933869D01*
X189251095Y-88731782D01*
X189154624Y-88542449D01*
X189115270Y-88488282D01*
X189115269Y-88488282D01*
X188482962Y-89120590D01*
X188465925Y-89057007D01*
X188400099Y-88942993D01*
X188307007Y-88849901D01*
X188192993Y-88784075D01*
X188129409Y-88767037D01*
X188761716Y-88134728D01*
X188707550Y-88095375D01*
X188518217Y-87998904D01*
X188316129Y-87933242D01*
X188106246Y-87900000D01*
X187893754Y-87900000D01*
X187683872Y-87933242D01*
X187683869Y-87933242D01*
X187481782Y-87998904D01*
X187292439Y-88095380D01*
X187238282Y-88134727D01*
X187238282Y-88134728D01*
X187870591Y-88767037D01*
X187807007Y-88784075D01*
X187692993Y-88849901D01*
X187599901Y-88942993D01*
X187534075Y-89057007D01*
X187517037Y-89120591D01*
X186846818Y-88450372D01*
X186813333Y-88389049D01*
X186813330Y-88389036D01*
X186810499Y-88376015D01*
X186810499Y-88352128D01*
X186804091Y-88292517D01*
X186771548Y-88205264D01*
X186753798Y-88157673D01*
X186753793Y-88157664D01*
X186667547Y-88042455D01*
X186667544Y-88042452D01*
X186552335Y-87956206D01*
X186552328Y-87956202D01*
X186417482Y-87905908D01*
X186417483Y-87905908D01*
X186357883Y-87899501D01*
X186357881Y-87899500D01*
X186357873Y-87899500D01*
X186357864Y-87899500D01*
X184562129Y-87899500D01*
X184562123Y-87899501D01*
X184502516Y-87905908D01*
X184367671Y-87956202D01*
X184367664Y-87956206D01*
X184252455Y-88042452D01*
X184252452Y-88042455D01*
X184166206Y-88157664D01*
X184166202Y-88157671D01*
X184115908Y-88292517D01*
X184109501Y-88352116D01*
X184109500Y-88352135D01*
X173133679Y-88352135D01*
X173004185Y-88265609D01*
X173004172Y-88265602D01*
X172858501Y-88205264D01*
X172858489Y-88205261D01*
X172703845Y-88174500D01*
X172703842Y-88174500D01*
X172546158Y-88174500D01*
X172546155Y-88174500D01*
X172391510Y-88205261D01*
X172391498Y-88205264D01*
X172245827Y-88265602D01*
X172245814Y-88265609D01*
X172114711Y-88353210D01*
X172030397Y-88437524D01*
X171969073Y-88471008D01*
X171899382Y-88466024D01*
X171843448Y-88424152D01*
X171821099Y-88374033D01*
X171800721Y-88271588D01*
X171794737Y-88241503D01*
X171794735Y-88241498D01*
X171734397Y-88095827D01*
X171734390Y-88095814D01*
X171646789Y-87964711D01*
X171646786Y-87964707D01*
X171535292Y-87853213D01*
X171535288Y-87853210D01*
X171404185Y-87765609D01*
X171404172Y-87765602D01*
X171258501Y-87705264D01*
X171258489Y-87705261D01*
X171103845Y-87674500D01*
X171103842Y-87674500D01*
X170946158Y-87674500D01*
X170946155Y-87674500D01*
X170791510Y-87705261D01*
X170791498Y-87705264D01*
X170645827Y-87765602D01*
X170645814Y-87765609D01*
X170514711Y-87853210D01*
X170514707Y-87853213D01*
X170403213Y-87964707D01*
X170403210Y-87964711D01*
X170315609Y-88095814D01*
X170315602Y-88095827D01*
X170255264Y-88241498D01*
X170255261Y-88241510D01*
X170224500Y-88396153D01*
X170224500Y-88553846D01*
X170255261Y-88708489D01*
X170255264Y-88708501D01*
X170315602Y-88854172D01*
X170315609Y-88854185D01*
X170362892Y-88924948D01*
X170383770Y-88991625D01*
X170365286Y-89059006D01*
X170328681Y-89096941D01*
X170256603Y-89145102D01*
X170256599Y-89145105D01*
X170145105Y-89256599D01*
X170145102Y-89256603D01*
X170057501Y-89387706D01*
X170057494Y-89387719D01*
X169997156Y-89533390D01*
X169997153Y-89533402D01*
X169966392Y-89688045D01*
X162202286Y-89688045D01*
X162183501Y-89680264D01*
X162183489Y-89680261D01*
X162028845Y-89649500D01*
X162028842Y-89649500D01*
X161871158Y-89649500D01*
X161871155Y-89649500D01*
X161716510Y-89680261D01*
X161716498Y-89680264D01*
X161570827Y-89740602D01*
X161570814Y-89740609D01*
X161439711Y-89828210D01*
X161439707Y-89828213D01*
X161328213Y-89939707D01*
X161328210Y-89939711D01*
X161240609Y-90070814D01*
X161240602Y-90070827D01*
X161180264Y-90216498D01*
X161180261Y-90216510D01*
X161149500Y-90371153D01*
X152105500Y-90371153D01*
X152105500Y-85771153D01*
X153899500Y-85771153D01*
X153899500Y-85928846D01*
X153930261Y-86083489D01*
X153930264Y-86083501D01*
X153990602Y-86229172D01*
X153990609Y-86229185D01*
X154078210Y-86360288D01*
X154078213Y-86360292D01*
X154189707Y-86471786D01*
X154189711Y-86471789D01*
X154320814Y-86559390D01*
X154320827Y-86559397D01*
X154466498Y-86619735D01*
X154466503Y-86619737D01*
X154621153Y-86650499D01*
X154621156Y-86650500D01*
X154621158Y-86650500D01*
X154778844Y-86650500D01*
X154778845Y-86650499D01*
X154933497Y-86619737D01*
X155079179Y-86559394D01*
X155210289Y-86471789D01*
X155321789Y-86360289D01*
X155409394Y-86229179D01*
X155469737Y-86083497D01*
X155500500Y-85928842D01*
X155500500Y-85771158D01*
X155500500Y-85771155D01*
X155500499Y-85771153D01*
X155469738Y-85616510D01*
X155469737Y-85616503D01*
X155469735Y-85616498D01*
X155409397Y-85470827D01*
X155409390Y-85470814D01*
X155321789Y-85339711D01*
X155321786Y-85339707D01*
X155210292Y-85228213D01*
X155210288Y-85228210D01*
X155079185Y-85140609D01*
X155079172Y-85140602D01*
X154933501Y-85080264D01*
X154933489Y-85080261D01*
X154778845Y-85049500D01*
X154778842Y-85049500D01*
X154621158Y-85049500D01*
X154621155Y-85049500D01*
X154466510Y-85080261D01*
X154466498Y-85080264D01*
X154320827Y-85140602D01*
X154320814Y-85140609D01*
X154189711Y-85228210D01*
X154189707Y-85228213D01*
X154078213Y-85339707D01*
X154078210Y-85339711D01*
X153990609Y-85470814D01*
X153990602Y-85470827D01*
X153930264Y-85616498D01*
X153930261Y-85616510D01*
X153899500Y-85771153D01*
X152105500Y-85771153D01*
X152105500Y-85450745D01*
X152125185Y-85383706D01*
X152141819Y-85363064D01*
X152473064Y-85031819D01*
X152534387Y-84998334D01*
X152560745Y-84995500D01*
X153437776Y-84995500D01*
X153437789Y-84995500D01*
X153487349Y-84993065D01*
X153511538Y-84990682D01*
X153560596Y-84983404D01*
X153620100Y-84971568D01*
X153714928Y-84942802D01*
X153759625Y-84924288D01*
X153847025Y-84877571D01*
X153887115Y-84850783D01*
X153963706Y-84787927D01*
X153997918Y-84753716D01*
X154060792Y-84677104D01*
X154087578Y-84637015D01*
X154123267Y-84574340D01*
X154138499Y-84542502D01*
X154164935Y-84475290D01*
X154167199Y-84461292D01*
X154170946Y-84445104D01*
X154181567Y-84410106D01*
X154193403Y-84350606D01*
X154197772Y-84321153D01*
X181124500Y-84321153D01*
X181124500Y-84478846D01*
X181155261Y-84633489D01*
X181155264Y-84633501D01*
X181215602Y-84779172D01*
X181215609Y-84779185D01*
X181303210Y-84910288D01*
X181303213Y-84910292D01*
X181414707Y-85021786D01*
X181414711Y-85021789D01*
X181545814Y-85109390D01*
X181545827Y-85109397D01*
X181621181Y-85140609D01*
X181691503Y-85169737D01*
X181818317Y-85194962D01*
X181846153Y-85200499D01*
X181846156Y-85200500D01*
X181846158Y-85200500D01*
X182003844Y-85200500D01*
X182003845Y-85200499D01*
X182158497Y-85169737D01*
X182304179Y-85109394D01*
X182435289Y-85021789D01*
X182546789Y-84910289D01*
X182634394Y-84779179D01*
X182694737Y-84633497D01*
X182725500Y-84478842D01*
X182725500Y-84321158D01*
X182725500Y-84321155D01*
X182725499Y-84321153D01*
X182694737Y-84166503D01*
X182682595Y-84137190D01*
X182634397Y-84020827D01*
X182634390Y-84020814D01*
X182546789Y-83889711D01*
X182546786Y-83889707D01*
X182435292Y-83778213D01*
X182435288Y-83778210D01*
X182304185Y-83690609D01*
X182304172Y-83690602D01*
X182158501Y-83630264D01*
X182158489Y-83630261D01*
X182003845Y-83599500D01*
X182003842Y-83599500D01*
X181846158Y-83599500D01*
X181846155Y-83599500D01*
X181691510Y-83630261D01*
X181691498Y-83630264D01*
X181545827Y-83690602D01*
X181545814Y-83690609D01*
X181414711Y-83778210D01*
X181414707Y-83778213D01*
X181303213Y-83889707D01*
X181303210Y-83889711D01*
X181215609Y-84020814D01*
X181215602Y-84020827D01*
X181155264Y-84166498D01*
X181155261Y-84166510D01*
X181124500Y-84321153D01*
X154197772Y-84321153D01*
X154200682Y-84301534D01*
X154203065Y-84277341D01*
X154205500Y-84227789D01*
X154205500Y-83171153D01*
X170299500Y-83171153D01*
X170299500Y-83328846D01*
X170330261Y-83483489D01*
X170330264Y-83483501D01*
X170390602Y-83629172D01*
X170390609Y-83629185D01*
X170478210Y-83760288D01*
X170478213Y-83760292D01*
X170589707Y-83871786D01*
X170589711Y-83871789D01*
X170720814Y-83959390D01*
X170720827Y-83959397D01*
X170859912Y-84017007D01*
X170866503Y-84019737D01*
X171021153Y-84050499D01*
X171021156Y-84050500D01*
X171021158Y-84050500D01*
X171178844Y-84050500D01*
X171178845Y-84050499D01*
X171333497Y-84019737D01*
X171454322Y-83969690D01*
X171479172Y-83959397D01*
X171479172Y-83959396D01*
X171479179Y-83959394D01*
X171610289Y-83871789D01*
X171721789Y-83760289D01*
X171809394Y-83629179D01*
X171869737Y-83483497D01*
X171900500Y-83328842D01*
X171900500Y-83321153D01*
X178349500Y-83321153D01*
X178349500Y-83478846D01*
X178380261Y-83633489D01*
X178380264Y-83633501D01*
X178440602Y-83779172D01*
X178440609Y-83779185D01*
X178528210Y-83910288D01*
X178528213Y-83910292D01*
X178639707Y-84021786D01*
X178639711Y-84021789D01*
X178770814Y-84109390D01*
X178770827Y-84109397D01*
X178908683Y-84166498D01*
X178916503Y-84169737D01*
X179071153Y-84200499D01*
X179071156Y-84200500D01*
X179071158Y-84200500D01*
X179228844Y-84200500D01*
X179228845Y-84200499D01*
X179239179Y-84198443D01*
X179264287Y-84193450D01*
X179264292Y-84193449D01*
X179352388Y-84175925D01*
X179383497Y-84169737D01*
X179520374Y-84113041D01*
X179529172Y-84109397D01*
X179529172Y-84109396D01*
X179529179Y-84109394D01*
X179660289Y-84021789D01*
X179771789Y-83910289D01*
X179859394Y-83779179D01*
X179859904Y-83777949D01*
X179887785Y-83710637D01*
X179919737Y-83633497D01*
X179950500Y-83478842D01*
X179950500Y-83321158D01*
X179950500Y-83321155D01*
X179950499Y-83321153D01*
X179919738Y-83166510D01*
X179919737Y-83166503D01*
X179917418Y-83160904D01*
X179859397Y-83020827D01*
X179859390Y-83020814D01*
X179771789Y-82889711D01*
X179771786Y-82889707D01*
X179660292Y-82778213D01*
X179660288Y-82778210D01*
X179529185Y-82690609D01*
X179529172Y-82690602D01*
X179383501Y-82630264D01*
X179383489Y-82630261D01*
X179228845Y-82599500D01*
X179228842Y-82599500D01*
X179071158Y-82599500D01*
X179071155Y-82599500D01*
X178916510Y-82630261D01*
X178916498Y-82630264D01*
X178770827Y-82690602D01*
X178770814Y-82690609D01*
X178639711Y-82778210D01*
X178639707Y-82778213D01*
X178528213Y-82889707D01*
X178528210Y-82889711D01*
X178440609Y-83020814D01*
X178440602Y-83020827D01*
X178380264Y-83166498D01*
X178380261Y-83166510D01*
X178349500Y-83321153D01*
X171900500Y-83321153D01*
X171900500Y-83171158D01*
X171900500Y-83171155D01*
X171900499Y-83171153D01*
X171891800Y-83127419D01*
X171869737Y-83016503D01*
X171853835Y-82978111D01*
X171809397Y-82870827D01*
X171809390Y-82870814D01*
X171721789Y-82739711D01*
X171721786Y-82739707D01*
X171610292Y-82628213D01*
X171610288Y-82628210D01*
X171479185Y-82540609D01*
X171479172Y-82540602D01*
X171333501Y-82480264D01*
X171333489Y-82480261D01*
X171178845Y-82449500D01*
X171178842Y-82449500D01*
X171021158Y-82449500D01*
X171021155Y-82449500D01*
X170866510Y-82480261D01*
X170866498Y-82480264D01*
X170720827Y-82540602D01*
X170720814Y-82540609D01*
X170589711Y-82628210D01*
X170589707Y-82628213D01*
X170478213Y-82739707D01*
X170478210Y-82739711D01*
X170390609Y-82870814D01*
X170390602Y-82870827D01*
X170330264Y-83016498D01*
X170330261Y-83016510D01*
X170299500Y-83171153D01*
X154205500Y-83171153D01*
X154205500Y-83051930D01*
X154203059Y-83002312D01*
X154200670Y-82978091D01*
X154193374Y-82928969D01*
X154192158Y-82922863D01*
X154181512Y-82869409D01*
X154181506Y-82869387D01*
X154152681Y-82774488D01*
X154152676Y-82774477D01*
X154152673Y-82774464D01*
X154134114Y-82729721D01*
X154087294Y-82642256D01*
X154060443Y-82602133D01*
X154058395Y-82599500D01*
X154016161Y-82545214D01*
X154016154Y-82545206D01*
X154016152Y-82545204D01*
X154016146Y-82545196D01*
X153992544Y-82518960D01*
X153960539Y-82488121D01*
X153940645Y-82468951D01*
X153940646Y-82468951D01*
X153928433Y-82461418D01*
X153926340Y-82460098D01*
X153920426Y-82456285D01*
X153886377Y-82428406D01*
X153846203Y-82401634D01*
X153785522Y-82369304D01*
X153781183Y-82366507D01*
X153761578Y-82343814D01*
X153740161Y-82322832D01*
X153738979Y-82317655D01*
X153735506Y-82313635D01*
X153731281Y-82283939D01*
X153724609Y-82254715D01*
X153726413Y-82249721D01*
X153725665Y-82244462D01*
X153738164Y-82217197D01*
X153748352Y-82189004D01*
X153753234Y-82184328D01*
X153754784Y-82180949D01*
X153760761Y-82177119D01*
X153779486Y-82159189D01*
X153856869Y-82107483D01*
X153910289Y-82071789D01*
X154021789Y-81960289D01*
X154109394Y-81829179D01*
X154169737Y-81683497D01*
X154200500Y-81528842D01*
X154200500Y-81371158D01*
X154200500Y-81371155D01*
X154200499Y-81371153D01*
X154194666Y-81341829D01*
X154169737Y-81216503D01*
X154150955Y-81171158D01*
X154150953Y-81171153D01*
X170299500Y-81171153D01*
X170299500Y-81328846D01*
X170330261Y-81483489D01*
X170330264Y-81483501D01*
X170390602Y-81629172D01*
X170390609Y-81629185D01*
X170478210Y-81760288D01*
X170478213Y-81760292D01*
X170589707Y-81871786D01*
X170589711Y-81871789D01*
X170720814Y-81959390D01*
X170720827Y-81959397D01*
X170848350Y-82012218D01*
X170866503Y-82019737D01*
X171008002Y-82047883D01*
X171021153Y-82050499D01*
X171021156Y-82050500D01*
X171021158Y-82050500D01*
X171178844Y-82050500D01*
X171178845Y-82050499D01*
X171333497Y-82019737D01*
X171479179Y-81959394D01*
X171610289Y-81871789D01*
X171721789Y-81760289D01*
X171809394Y-81629179D01*
X171869737Y-81483497D01*
X171900500Y-81328842D01*
X171900500Y-81171158D01*
X171900500Y-81171155D01*
X171900499Y-81171153D01*
X171880543Y-81070827D01*
X171869737Y-81016503D01*
X171837929Y-80939711D01*
X171809397Y-80870827D01*
X171809390Y-80870814D01*
X171721789Y-80739711D01*
X171721786Y-80739707D01*
X171610292Y-80628213D01*
X171610288Y-80628210D01*
X171479185Y-80540609D01*
X171479172Y-80540602D01*
X171333501Y-80480264D01*
X171333489Y-80480261D01*
X171178845Y-80449500D01*
X171178842Y-80449500D01*
X171021158Y-80449500D01*
X171021155Y-80449500D01*
X170866510Y-80480261D01*
X170866498Y-80480264D01*
X170720827Y-80540602D01*
X170720814Y-80540609D01*
X170589711Y-80628210D01*
X170589707Y-80628213D01*
X170478213Y-80739707D01*
X170478210Y-80739711D01*
X170390609Y-80870814D01*
X170390602Y-80870827D01*
X170330264Y-81016498D01*
X170330261Y-81016510D01*
X170299500Y-81171153D01*
X154150953Y-81171153D01*
X154109397Y-81070827D01*
X154109390Y-81070814D01*
X154021789Y-80939711D01*
X154021786Y-80939707D01*
X153910292Y-80828213D01*
X153910288Y-80828210D01*
X153779185Y-80740609D01*
X153779172Y-80740602D01*
X153633501Y-80680264D01*
X153633489Y-80680261D01*
X153478845Y-80649500D01*
X153478842Y-80649500D01*
X153321158Y-80649500D01*
X153321155Y-80649500D01*
X153166510Y-80680261D01*
X153166498Y-80680264D01*
X153020827Y-80740602D01*
X153020814Y-80740609D01*
X152889711Y-80828210D01*
X152889707Y-80828213D01*
X152778213Y-80939707D01*
X152778210Y-80939711D01*
X152690609Y-81070814D01*
X152690602Y-81070827D01*
X152630264Y-81216498D01*
X152630261Y-81216510D01*
X152599500Y-81371153D01*
X152599500Y-81528846D01*
X152630261Y-81683489D01*
X152630264Y-81683501D01*
X152690602Y-81829172D01*
X152690609Y-81829185D01*
X152778210Y-81960288D01*
X152778213Y-81960292D01*
X152891711Y-82073790D01*
X152925196Y-82135113D01*
X152920212Y-82204805D01*
X152878340Y-82260738D01*
X152812876Y-82285155D01*
X152804274Y-82285471D01*
X150045234Y-82290896D01*
X149998986Y-82290987D01*
X149991330Y-82291377D01*
X149949561Y-82293507D01*
X149949523Y-82293510D01*
X149925383Y-82295931D01*
X149925381Y-82295931D01*
X149876340Y-82303294D01*
X149816939Y-82315217D01*
X149816935Y-82315218D01*
X149722292Y-82344093D01*
X149722278Y-82344098D01*
X149722276Y-82344099D01*
X149677664Y-82362655D01*
X149677661Y-82362656D01*
X149677657Y-82362658D01*
X149590447Y-82409424D01*
X149540099Y-82443155D01*
X149500354Y-82472701D01*
X149500344Y-82472709D01*
X149481621Y-82488108D01*
X149481606Y-82488121D01*
X149444923Y-82521438D01*
X149444916Y-82521445D01*
X149284066Y-82682611D01*
X149284067Y-82682612D01*
X149272965Y-82693736D01*
X149211675Y-82727282D01*
X149209389Y-82727759D01*
X149158170Y-82737947D01*
X149158162Y-82737949D01*
X148976092Y-82813364D01*
X148976079Y-82813371D01*
X148812218Y-82922860D01*
X148812214Y-82922863D01*
X148672863Y-83062214D01*
X148672860Y-83062218D01*
X148563371Y-83226079D01*
X148563364Y-83226092D01*
X148487950Y-83408160D01*
X148487947Y-83408170D01*
X148477354Y-83461425D01*
X148444968Y-83523336D01*
X148443505Y-83524827D01*
X148336385Y-83632159D01*
X148336375Y-83632169D01*
X148336371Y-83632174D01*
X148325515Y-83644174D01*
X148303145Y-83668900D01*
X148303140Y-83668906D01*
X148287783Y-83687648D01*
X148258268Y-83727508D01*
X148258248Y-83727537D01*
X148224642Y-83777912D01*
X148224620Y-83777949D01*
X148188994Y-83840621D01*
X148188992Y-83840623D01*
X148173787Y-83872465D01*
X148147433Y-83939589D01*
X148145189Y-83953498D01*
X148141448Y-83969690D01*
X148130870Y-84004611D01*
X148130870Y-84004612D01*
X148119064Y-84064040D01*
X148119062Y-84064049D01*
X148111807Y-84113024D01*
X148109430Y-84137190D01*
X148109429Y-84137202D01*
X148107000Y-84186695D01*
X148107000Y-91428417D01*
X148109228Y-91473760D01*
X148109434Y-91477959D01*
X148109435Y-91477974D01*
X148111815Y-91502147D01*
X148111818Y-91502169D01*
X148119090Y-91551199D01*
X148119092Y-91551207D01*
X148123267Y-91572201D01*
X148123270Y-91572212D01*
X148152029Y-91667024D01*
X148152032Y-91667031D01*
X148170547Y-91711733D01*
X148179858Y-91729154D01*
X148194500Y-91787606D01*
X148194500Y-92586390D01*
X148174815Y-92653429D01*
X148122011Y-92699184D01*
X148102599Y-92706163D01*
X148076263Y-92713220D01*
X148076258Y-92713221D01*
X148076254Y-92713223D01*
X147954351Y-92763715D01*
X147954335Y-92763723D01*
X147898763Y-92795808D01*
X147898746Y-92795819D01*
X147794069Y-92876142D01*
X147794059Y-92876151D01*
X147786159Y-92884051D01*
X147786121Y-92884092D01*
X147738916Y-92938569D01*
X147738915Y-92938570D01*
X147717757Y-92966834D01*
X147678776Y-93027491D01*
X147662149Y-93072066D01*
X147660532Y-93076176D01*
X147623218Y-93166269D01*
X147615946Y-93193412D01*
X147615945Y-93193418D01*
X147603049Y-93258253D01*
X147598825Y-93290337D01*
X147598825Y-93290341D01*
X147594500Y-93356324D01*
X143753096Y-93356324D01*
X143751557Y-93351588D01*
X143751555Y-93351585D01*
X143751555Y-93351583D01*
X143679107Y-93209397D01*
X143655051Y-93162184D01*
X143655049Y-93162181D01*
X143655048Y-93162179D01*
X143530109Y-92990213D01*
X143379786Y-92839890D01*
X143207820Y-92714951D01*
X143207115Y-92714591D01*
X143199054Y-92710485D01*
X143148259Y-92662512D01*
X143131463Y-92594692D01*
X143153999Y-92528556D01*
X143199054Y-92489515D01*
X143207816Y-92485051D01*
X143272220Y-92438259D01*
X143379786Y-92360109D01*
X143379788Y-92360106D01*
X143379792Y-92360104D01*
X143530104Y-92209792D01*
X143530106Y-92209788D01*
X143530109Y-92209786D01*
X143655048Y-92037820D01*
X143655047Y-92037820D01*
X143655051Y-92037816D01*
X143751557Y-91848412D01*
X143817246Y-91646243D01*
X143850500Y-91436287D01*
X143850500Y-91223713D01*
X143817246Y-91013757D01*
X143751557Y-90811588D01*
X143655051Y-90622184D01*
X143655049Y-90622181D01*
X143655048Y-90622179D01*
X143530109Y-90450213D01*
X143379786Y-90299890D01*
X143207820Y-90174951D01*
X143207115Y-90174591D01*
X143199054Y-90170485D01*
X143148259Y-90122512D01*
X143131463Y-90054692D01*
X143153999Y-89988556D01*
X143199054Y-89949515D01*
X143207816Y-89945051D01*
X143229789Y-89929086D01*
X143379786Y-89820109D01*
X143379788Y-89820106D01*
X143379792Y-89820104D01*
X143530104Y-89669792D01*
X143530106Y-89669788D01*
X143530109Y-89669786D01*
X143655048Y-89497820D01*
X143655047Y-89497820D01*
X143655051Y-89497816D01*
X143751557Y-89308412D01*
X143817246Y-89106243D01*
X143850500Y-88896287D01*
X143850500Y-88683713D01*
X143817246Y-88473757D01*
X143751557Y-88271588D01*
X143655051Y-88082184D01*
X143655049Y-88082181D01*
X143655048Y-88082179D01*
X143530109Y-87910213D01*
X143379786Y-87759890D01*
X143207820Y-87634951D01*
X143207115Y-87634591D01*
X143199054Y-87630485D01*
X143148259Y-87582512D01*
X143131463Y-87514692D01*
X143153999Y-87448556D01*
X143199054Y-87409515D01*
X143207816Y-87405051D01*
X143229789Y-87389086D01*
X143379786Y-87280109D01*
X143379788Y-87280106D01*
X143379792Y-87280104D01*
X143530104Y-87129792D01*
X143530106Y-87129788D01*
X143530109Y-87129786D01*
X143655048Y-86957820D01*
X143655047Y-86957820D01*
X143655051Y-86957816D01*
X143751557Y-86768412D01*
X143817246Y-86566243D01*
X143850500Y-86356287D01*
X143850500Y-86143713D01*
X143817246Y-85933757D01*
X143751557Y-85731588D01*
X143655051Y-85542184D01*
X143655049Y-85542181D01*
X143655048Y-85542179D01*
X143530109Y-85370213D01*
X143416181Y-85256285D01*
X143382696Y-85194962D01*
X143387680Y-85125270D01*
X143429552Y-85069337D01*
X143460529Y-85052422D01*
X143592086Y-85003354D01*
X143592093Y-85003350D01*
X143707187Y-84917190D01*
X143707190Y-84917187D01*
X143793350Y-84802093D01*
X143793354Y-84802086D01*
X143843596Y-84667379D01*
X143843598Y-84667372D01*
X143849999Y-84607844D01*
X143850000Y-84607827D01*
X143850000Y-83960000D01*
X142933012Y-83960000D01*
X142965925Y-83902993D01*
X143000000Y-83775826D01*
X143000000Y-83644174D01*
X142965925Y-83517007D01*
X142933012Y-83460000D01*
X143850000Y-83460000D01*
X143850000Y-82812172D01*
X143849999Y-82812155D01*
X143843598Y-82752627D01*
X143843596Y-82752620D01*
X143793354Y-82617913D01*
X143793350Y-82617906D01*
X143707190Y-82502812D01*
X143707187Y-82502809D01*
X143592093Y-82416649D01*
X143592086Y-82416645D01*
X143457379Y-82366403D01*
X143457372Y-82366401D01*
X143397844Y-82360000D01*
X142750000Y-82360000D01*
X142750000Y-83276988D01*
X142692993Y-83244075D01*
X142565826Y-83210000D01*
X142434174Y-83210000D01*
X142307007Y-83244075D01*
X142250000Y-83276988D01*
X142250000Y-82360000D01*
X141602155Y-82360000D01*
X141542627Y-82366401D01*
X141542620Y-82366403D01*
X141407913Y-82416645D01*
X141407906Y-82416649D01*
X141292812Y-82502809D01*
X141292809Y-82502812D01*
X141206649Y-82617906D01*
X141206645Y-82617913D01*
X141156403Y-82752620D01*
X141156401Y-82752627D01*
X141150000Y-82812155D01*
X141150000Y-83460000D01*
X142066988Y-83460000D01*
X142034075Y-83517007D01*
X142000000Y-83644174D01*
X142000000Y-83775826D01*
X142034075Y-83902993D01*
X142066988Y-83960000D01*
X141150000Y-83960000D01*
X141150000Y-84607844D01*
X141156401Y-84667372D01*
X141156403Y-84667379D01*
X141206645Y-84802086D01*
X141206649Y-84802093D01*
X141292809Y-84917187D01*
X141292812Y-84917190D01*
X141407906Y-85003350D01*
X141407913Y-85003354D01*
X141539470Y-85052422D01*
X141595404Y-85094293D01*
X141619821Y-85159758D01*
X141604969Y-85228031D01*
X141583819Y-85256285D01*
X141469889Y-85370215D01*
X141344951Y-85542179D01*
X141248444Y-85731585D01*
X141248443Y-85731587D01*
X141248443Y-85731588D01*
X141235587Y-85771155D01*
X141182753Y-85933760D01*
X141149500Y-86143713D01*
X137291604Y-86143713D01*
X137242093Y-86106649D01*
X137242086Y-86106645D01*
X137107379Y-86056403D01*
X137107372Y-86056401D01*
X137047844Y-86050000D01*
X136650000Y-86050000D01*
X136650000Y-86834316D01*
X136645605Y-86829921D01*
X136554394Y-86777260D01*
X136452661Y-86750001D01*
X136347339Y-86750001D01*
X136245606Y-86777260D01*
X136154395Y-86829921D01*
X136150000Y-86834316D01*
X136150000Y-86050000D01*
X135752155Y-86050000D01*
X135692627Y-86056401D01*
X135692620Y-86056403D01*
X135557913Y-86106645D01*
X135557906Y-86106649D01*
X135442812Y-86192809D01*
X135442809Y-86192812D01*
X135356649Y-86307906D01*
X135356645Y-86307913D01*
X135306403Y-86442620D01*
X135306401Y-86442627D01*
X135300000Y-86502155D01*
X135300000Y-86900000D01*
X136084316Y-86900000D01*
X136079921Y-86904395D01*
X136027260Y-86995606D01*
X136000001Y-87097339D01*
X136000001Y-87202661D01*
X136027260Y-87304394D01*
X136079921Y-87395605D01*
X136084316Y-87400000D01*
X135300000Y-87400000D01*
X135300000Y-87797844D01*
X135306401Y-87857372D01*
X135306403Y-87857379D01*
X135356645Y-87992086D01*
X135356649Y-87992093D01*
X135395733Y-88044303D01*
X135420150Y-88109767D01*
X135406952Y-88174906D01*
X135380128Y-88227551D01*
X135380126Y-88227557D01*
X135326597Y-88392302D01*
X135299500Y-88563389D01*
X130300500Y-88563389D01*
X130300500Y-82748543D01*
X132699499Y-82748543D01*
X132737947Y-82941829D01*
X132737950Y-82941839D01*
X132813364Y-83123907D01*
X132813371Y-83123920D01*
X132922860Y-83287781D01*
X132922863Y-83287785D01*
X133062214Y-83427136D01*
X133062218Y-83427139D01*
X133226079Y-83536628D01*
X133226092Y-83536635D01*
X133355119Y-83590079D01*
X133408165Y-83612051D01*
X133408169Y-83612051D01*
X133408170Y-83612052D01*
X133601456Y-83650500D01*
X133601459Y-83650500D01*
X133798543Y-83650500D01*
X133928582Y-83624632D01*
X133991835Y-83612051D01*
X134173914Y-83536632D01*
X134337782Y-83427139D01*
X134477139Y-83287782D01*
X134586632Y-83123914D01*
X134662051Y-82941835D01*
X134679529Y-82853970D01*
X134700500Y-82748543D01*
X134700500Y-82551456D01*
X134662052Y-82358170D01*
X134662051Y-82358169D01*
X134662051Y-82358165D01*
X134647416Y-82322832D01*
X134586635Y-82176092D01*
X134586628Y-82176079D01*
X134477139Y-82012218D01*
X134477136Y-82012214D01*
X134427603Y-81962682D01*
X134394117Y-81901359D01*
X134399101Y-81831668D01*
X134427600Y-81787320D01*
X134527139Y-81687782D01*
X134636632Y-81523914D01*
X134712051Y-81341835D01*
X134736980Y-81216510D01*
X134750500Y-81148543D01*
X134750500Y-80951456D01*
X134712052Y-80758170D01*
X134712051Y-80758169D01*
X134712051Y-80758165D01*
X134696984Y-80721789D01*
X134636635Y-80576092D01*
X134636628Y-80576079D01*
X134600129Y-80521456D01*
X134553811Y-80452135D01*
X136599500Y-80452135D01*
X136599500Y-82047870D01*
X136599501Y-82047876D01*
X136605908Y-82107483D01*
X136656202Y-82242328D01*
X136656206Y-82242335D01*
X136742451Y-82357543D01*
X136742452Y-82357544D01*
X136742454Y-82357546D01*
X136788823Y-82392258D01*
X136830693Y-82448190D01*
X136835677Y-82517881D01*
X136814830Y-82564408D01*
X136773667Y-82621063D01*
X136687914Y-82789362D01*
X136629548Y-82968997D01*
X136600000Y-83155552D01*
X136600000Y-83344447D01*
X136629548Y-83531002D01*
X136687914Y-83710637D01*
X136773666Y-83878933D01*
X136792116Y-83904328D01*
X137378279Y-83318164D01*
X137403970Y-83414041D01*
X137459921Y-83510952D01*
X137539048Y-83590079D01*
X137635959Y-83646030D01*
X137731833Y-83671719D01*
X137145669Y-84257882D01*
X137145670Y-84257883D01*
X137171059Y-84276329D01*
X137339362Y-84362085D01*
X137518997Y-84420451D01*
X137705553Y-84450000D01*
X137894447Y-84450000D01*
X138081002Y-84420451D01*
X138260637Y-84362085D01*
X138428937Y-84276331D01*
X138454328Y-84257883D01*
X138454328Y-84257882D01*
X137868166Y-83671719D01*
X137964041Y-83646030D01*
X138060952Y-83590079D01*
X138140079Y-83510952D01*
X138196030Y-83414041D01*
X138221719Y-83318165D01*
X138807882Y-83904328D01*
X138807883Y-83904328D01*
X138826331Y-83878937D01*
X138912085Y-83710637D01*
X138970451Y-83531002D01*
X139000000Y-83344447D01*
X139000000Y-83155552D01*
X138970451Y-82968997D01*
X138930868Y-82847169D01*
X138912085Y-82789362D01*
X138826332Y-82621063D01*
X138785170Y-82564408D01*
X138761691Y-82498601D01*
X138777517Y-82430547D01*
X138811175Y-82392259D01*
X138857546Y-82357546D01*
X138943796Y-82242331D01*
X138994091Y-82107483D01*
X139000500Y-82047873D01*
X139000500Y-81848543D01*
X143749499Y-81848543D01*
X143787947Y-82041829D01*
X143787950Y-82041839D01*
X143863364Y-82223907D01*
X143863371Y-82223920D01*
X143972860Y-82387781D01*
X143972863Y-82387785D01*
X144112214Y-82527136D01*
X144112218Y-82527139D01*
X144276079Y-82636628D01*
X144276092Y-82636635D01*
X144406399Y-82690609D01*
X144458165Y-82712051D01*
X144458169Y-82712051D01*
X144458170Y-82712052D01*
X144651456Y-82750500D01*
X144651459Y-82750500D01*
X144848543Y-82750500D01*
X144999822Y-82720408D01*
X145041835Y-82712051D01*
X145182655Y-82653721D01*
X145223907Y-82636635D01*
X145223907Y-82636634D01*
X145223914Y-82636632D01*
X145387782Y-82527139D01*
X145527139Y-82387782D01*
X145636632Y-82223914D01*
X145712051Y-82041835D01*
X145739994Y-81901359D01*
X145750500Y-81848543D01*
X145750500Y-81651456D01*
X145712052Y-81458170D01*
X145712051Y-81458169D01*
X145712051Y-81458165D01*
X145663866Y-81341835D01*
X145636635Y-81276092D01*
X145636628Y-81276079D01*
X145527139Y-81112218D01*
X145527136Y-81112214D01*
X145477603Y-81062682D01*
X145444117Y-81001359D01*
X145449101Y-80931668D01*
X145477600Y-80887320D01*
X145577139Y-80787782D01*
X145686632Y-80623914D01*
X145762051Y-80441835D01*
X145796530Y-80268501D01*
X145800500Y-80248543D01*
X145800500Y-80051456D01*
X145762052Y-79858170D01*
X145762051Y-79858169D01*
X145762051Y-79858165D01*
X145734578Y-79791839D01*
X145687939Y-79679241D01*
X145686121Y-79662339D01*
X145679403Y-79646725D01*
X145682464Y-79628322D01*
X145680470Y-79609772D01*
X145688079Y-79594570D01*
X145690869Y-79577802D01*
X145703394Y-79563975D01*
X145711745Y-79547293D01*
X145726363Y-79538619D01*
X145737777Y-79526020D01*
X145755791Y-79521159D01*
X145771834Y-79511641D01*
X145789209Y-79512142D01*
X145805235Y-79507819D01*
X145831603Y-79513367D01*
X145840050Y-79513611D01*
X145845072Y-79515206D01*
X145958165Y-79562051D01*
X146049973Y-79580313D01*
X146056554Y-79582404D01*
X146080026Y-79598231D01*
X146105106Y-79611350D01*
X146108611Y-79617505D01*
X146114485Y-79621466D01*
X146125673Y-79647468D01*
X146139680Y-79672065D01*
X146139300Y-79679138D01*
X146142101Y-79685646D01*
X146137455Y-79713568D01*
X146135941Y-79741835D01*
X146133566Y-79748033D01*
X146087949Y-79858165D01*
X146087947Y-79858170D01*
X146049500Y-80051456D01*
X146049500Y-80051459D01*
X146049500Y-80248541D01*
X146049500Y-80248543D01*
X146049499Y-80248543D01*
X146087947Y-80441829D01*
X146087950Y-80441839D01*
X146163364Y-80623907D01*
X146163371Y-80623920D01*
X146272860Y-80787781D01*
X146272863Y-80787785D01*
X146322397Y-80837319D01*
X146355882Y-80898642D01*
X146350898Y-80968334D01*
X146322397Y-81012681D01*
X146222863Y-81112214D01*
X146222860Y-81112218D01*
X146113371Y-81276079D01*
X146113364Y-81276092D01*
X146037950Y-81458160D01*
X146037947Y-81458170D01*
X145999500Y-81651456D01*
X145999500Y-81651459D01*
X145999500Y-81848541D01*
X145999500Y-81848543D01*
X145999499Y-81848543D01*
X146037947Y-82041829D01*
X146037950Y-82041839D01*
X146113364Y-82223907D01*
X146113371Y-82223920D01*
X146222860Y-82387781D01*
X146222863Y-82387785D01*
X146362214Y-82527136D01*
X146362218Y-82527139D01*
X146526079Y-82636628D01*
X146526092Y-82636635D01*
X146656399Y-82690609D01*
X146708165Y-82712051D01*
X146708169Y-82712051D01*
X146708170Y-82712052D01*
X146901456Y-82750500D01*
X146901459Y-82750500D01*
X147098543Y-82750500D01*
X147249822Y-82720408D01*
X147291835Y-82712051D01*
X147432655Y-82653721D01*
X147473907Y-82636635D01*
X147473907Y-82636634D01*
X147473914Y-82636632D01*
X147637782Y-82527139D01*
X147777139Y-82387782D01*
X147886632Y-82223914D01*
X147962051Y-82041835D01*
X147989994Y-81901359D01*
X148000500Y-81848543D01*
X148000500Y-81651456D01*
X147962052Y-81458170D01*
X147962051Y-81458169D01*
X147962051Y-81458165D01*
X147913866Y-81341835D01*
X147886635Y-81276092D01*
X147886628Y-81276079D01*
X147777139Y-81112218D01*
X147777136Y-81112214D01*
X147727603Y-81062682D01*
X147694117Y-81001359D01*
X147699101Y-80931668D01*
X147727600Y-80887320D01*
X147827139Y-80787782D01*
X147936632Y-80623914D01*
X148012051Y-80441835D01*
X148046530Y-80268501D01*
X148050500Y-80248543D01*
X148050500Y-80051456D01*
X148035144Y-79974258D01*
X148031543Y-79956153D01*
X155364500Y-79956153D01*
X155364500Y-80113846D01*
X155395261Y-80268489D01*
X155395264Y-80268501D01*
X155455602Y-80414172D01*
X155455609Y-80414185D01*
X155543210Y-80545288D01*
X155543213Y-80545292D01*
X155654707Y-80656786D01*
X155654711Y-80656789D01*
X155785814Y-80744390D01*
X155785827Y-80744397D01*
X155931498Y-80804735D01*
X155931503Y-80804737D01*
X156086153Y-80835499D01*
X156086156Y-80835500D01*
X156086158Y-80835500D01*
X156243844Y-80835500D01*
X156243845Y-80835499D01*
X156398497Y-80804737D01*
X156544179Y-80744394D01*
X156675289Y-80656789D01*
X156786789Y-80545289D01*
X156874394Y-80414179D01*
X156934737Y-80268497D01*
X156965500Y-80113842D01*
X156965500Y-80021153D01*
X185299500Y-80021153D01*
X185299500Y-80178846D01*
X185330261Y-80333489D01*
X185330264Y-80333501D01*
X185390602Y-80479172D01*
X185390609Y-80479185D01*
X185478210Y-80610288D01*
X185478213Y-80610292D01*
X185589707Y-80721786D01*
X185589711Y-80721789D01*
X185720814Y-80809390D01*
X185720827Y-80809397D01*
X185788238Y-80837319D01*
X185866503Y-80869737D01*
X186011817Y-80898642D01*
X186021153Y-80900499D01*
X186021156Y-80900500D01*
X186021158Y-80900500D01*
X186178844Y-80900500D01*
X186178845Y-80900499D01*
X186333497Y-80869737D01*
X186479179Y-80809394D01*
X186610289Y-80721789D01*
X186721789Y-80610289D01*
X186809394Y-80479179D01*
X186869737Y-80333497D01*
X186900500Y-80178842D01*
X186900500Y-80021158D01*
X186900500Y-80021155D01*
X186900499Y-80021153D01*
X186891104Y-79973920D01*
X186869737Y-79866503D01*
X186842816Y-79801510D01*
X186809397Y-79720827D01*
X186809390Y-79720814D01*
X186721789Y-79589711D01*
X186721786Y-79589707D01*
X186610292Y-79478213D01*
X186610288Y-79478210D01*
X186479185Y-79390609D01*
X186479172Y-79390602D01*
X186333501Y-79330264D01*
X186333489Y-79330261D01*
X186178845Y-79299500D01*
X186178842Y-79299500D01*
X186021158Y-79299500D01*
X186021155Y-79299500D01*
X185866510Y-79330261D01*
X185866498Y-79330264D01*
X185720827Y-79390602D01*
X185720814Y-79390609D01*
X185589711Y-79478210D01*
X185589707Y-79478213D01*
X185478213Y-79589707D01*
X185478210Y-79589711D01*
X185390609Y-79720814D01*
X185390602Y-79720827D01*
X185330264Y-79866498D01*
X185330261Y-79866510D01*
X185299500Y-80021153D01*
X156965500Y-80021153D01*
X156965500Y-79956158D01*
X156965500Y-79956155D01*
X156965499Y-79956153D01*
X156934738Y-79801510D01*
X156934737Y-79801503D01*
X156930734Y-79791839D01*
X156874397Y-79655827D01*
X156874390Y-79655814D01*
X156786789Y-79524711D01*
X156786786Y-79524707D01*
X156675292Y-79413213D01*
X156675288Y-79413210D01*
X156544185Y-79325609D01*
X156544172Y-79325602D01*
X156398501Y-79265264D01*
X156398489Y-79265261D01*
X156243845Y-79234500D01*
X156243842Y-79234500D01*
X156086158Y-79234500D01*
X156086155Y-79234500D01*
X155931510Y-79265261D01*
X155931498Y-79265264D01*
X155785827Y-79325602D01*
X155785814Y-79325609D01*
X155654711Y-79413210D01*
X155654707Y-79413213D01*
X155543213Y-79524707D01*
X155543210Y-79524711D01*
X155455609Y-79655814D01*
X155455602Y-79655827D01*
X155395264Y-79801498D01*
X155395261Y-79801510D01*
X155364500Y-79956153D01*
X148031543Y-79956153D01*
X148012052Y-79858170D01*
X148012051Y-79858169D01*
X148012051Y-79858165D01*
X147984578Y-79791839D01*
X147936635Y-79676092D01*
X147936628Y-79676079D01*
X147827139Y-79512218D01*
X147827136Y-79512214D01*
X147687785Y-79372863D01*
X147687781Y-79372860D01*
X147523920Y-79263371D01*
X147523907Y-79263364D01*
X147341839Y-79187950D01*
X147341829Y-79187947D01*
X147256803Y-79171034D01*
X147194892Y-79138649D01*
X147160318Y-79077933D01*
X147164059Y-79008163D01*
X147166434Y-79001964D01*
X147212051Y-78891835D01*
X147245662Y-78722863D01*
X147250500Y-78698543D01*
X147250500Y-78501456D01*
X147212052Y-78308170D01*
X147212051Y-78308169D01*
X147212051Y-78308165D01*
X147212049Y-78308160D01*
X147136635Y-78126092D01*
X147136628Y-78126079D01*
X147027139Y-77962218D01*
X147027136Y-77962214D01*
X146887785Y-77822863D01*
X146887781Y-77822860D01*
X146723920Y-77713371D01*
X146723907Y-77713364D01*
X146541839Y-77637950D01*
X146541829Y-77637947D01*
X146348543Y-77599500D01*
X146348541Y-77599500D01*
X146151459Y-77599500D01*
X146151457Y-77599500D01*
X145958170Y-77637947D01*
X145958160Y-77637950D01*
X145776092Y-77713364D01*
X145776079Y-77713371D01*
X145612218Y-77822860D01*
X145607508Y-77826726D01*
X145606655Y-77825687D01*
X145551358Y-77855882D01*
X145481666Y-77850898D01*
X145443031Y-77826068D01*
X145442492Y-77826726D01*
X145437781Y-77822860D01*
X145273920Y-77713371D01*
X145273907Y-77713364D01*
X145091839Y-77637950D01*
X145091829Y-77637947D01*
X144898543Y-77599500D01*
X144898541Y-77599500D01*
X144701459Y-77599500D01*
X144701457Y-77599500D01*
X144508170Y-77637947D01*
X144508160Y-77637950D01*
X144326092Y-77713364D01*
X144326079Y-77713371D01*
X144162218Y-77822860D01*
X144162214Y-77822863D01*
X144022863Y-77962214D01*
X144022860Y-77962218D01*
X143913371Y-78126079D01*
X143913364Y-78126092D01*
X143837950Y-78308160D01*
X143837947Y-78308170D01*
X143799500Y-78501456D01*
X143799500Y-78501459D01*
X143799500Y-78698541D01*
X143799500Y-78698543D01*
X143799499Y-78698543D01*
X143837947Y-78891829D01*
X143837950Y-78891839D01*
X143913364Y-79073907D01*
X143913371Y-79073920D01*
X144022860Y-79237781D01*
X144022863Y-79237785D01*
X144072397Y-79287319D01*
X144105882Y-79348642D01*
X144100898Y-79418334D01*
X144072397Y-79462681D01*
X144022863Y-79512214D01*
X144022860Y-79512218D01*
X143913371Y-79676079D01*
X143913364Y-79676092D01*
X143837950Y-79858160D01*
X143837947Y-79858170D01*
X143799500Y-80051456D01*
X143799500Y-80051459D01*
X143799500Y-80248541D01*
X143799500Y-80248543D01*
X143799499Y-80248543D01*
X143837947Y-80441829D01*
X143837950Y-80441839D01*
X143913364Y-80623907D01*
X143913371Y-80623920D01*
X144022860Y-80787781D01*
X144022863Y-80787785D01*
X144072397Y-80837319D01*
X144105882Y-80898642D01*
X144100898Y-80968334D01*
X144072397Y-81012681D01*
X143972863Y-81112214D01*
X143972860Y-81112218D01*
X143863371Y-81276079D01*
X143863364Y-81276092D01*
X143787950Y-81458160D01*
X143787947Y-81458170D01*
X143749500Y-81651456D01*
X143749500Y-81651459D01*
X143749500Y-81848541D01*
X143749500Y-81848543D01*
X143749499Y-81848543D01*
X139000500Y-81848543D01*
X139000499Y-81216510D01*
X139000499Y-80452129D01*
X139000498Y-80452123D01*
X139000497Y-80452116D01*
X138994091Y-80392517D01*
X138978687Y-80351218D01*
X138943797Y-80257671D01*
X138943793Y-80257664D01*
X138857547Y-80142455D01*
X138857544Y-80142452D01*
X138742335Y-80056206D01*
X138742328Y-80056202D01*
X138607482Y-80005908D01*
X138607483Y-80005908D01*
X138547883Y-79999501D01*
X138547881Y-79999500D01*
X138547873Y-79999500D01*
X138547864Y-79999500D01*
X137052129Y-79999500D01*
X137052123Y-79999501D01*
X136992516Y-80005908D01*
X136857671Y-80056202D01*
X136857664Y-80056206D01*
X136742455Y-80142452D01*
X136742452Y-80142455D01*
X136656206Y-80257664D01*
X136656202Y-80257671D01*
X136605908Y-80392517D01*
X136600606Y-80441839D01*
X136599501Y-80452123D01*
X136599500Y-80452135D01*
X134553811Y-80452135D01*
X134527139Y-80412218D01*
X134472181Y-80357260D01*
X134467473Y-80351218D01*
X134457335Y-80325565D01*
X134444117Y-80301359D01*
X134444676Y-80293534D01*
X134441793Y-80286238D01*
X134447133Y-80259176D01*
X134449101Y-80231668D01*
X134454096Y-80223894D01*
X134455321Y-80217691D01*
X134463642Y-80209040D01*
X134477603Y-80187318D01*
X134527136Y-80137785D01*
X134527139Y-80137782D01*
X134636632Y-79973914D01*
X134712051Y-79791835D01*
X134740768Y-79647468D01*
X134750500Y-79598543D01*
X134750500Y-79401456D01*
X134712052Y-79208170D01*
X134712051Y-79208169D01*
X134712051Y-79208165D01*
X134703677Y-79187949D01*
X134636635Y-79026092D01*
X134636628Y-79026079D01*
X134527139Y-78862218D01*
X134527136Y-78862214D01*
X134387785Y-78722863D01*
X134387781Y-78722860D01*
X134223920Y-78613371D01*
X134223907Y-78613364D01*
X134041839Y-78537950D01*
X134041829Y-78537947D01*
X133848543Y-78499500D01*
X133848541Y-78499500D01*
X133651459Y-78499500D01*
X133651457Y-78499500D01*
X133458170Y-78537947D01*
X133458160Y-78537950D01*
X133276092Y-78613364D01*
X133276079Y-78613371D01*
X133112218Y-78722860D01*
X133112214Y-78722863D01*
X132972863Y-78862214D01*
X132972860Y-78862218D01*
X132863371Y-79026079D01*
X132863364Y-79026092D01*
X132787950Y-79208160D01*
X132787947Y-79208170D01*
X132749500Y-79401456D01*
X132749500Y-79401459D01*
X132749500Y-79598541D01*
X132749500Y-79598543D01*
X132749499Y-79598543D01*
X132787947Y-79791829D01*
X132787950Y-79791839D01*
X132863364Y-79973907D01*
X132863371Y-79973920D01*
X132972860Y-80137781D01*
X132972863Y-80137785D01*
X133022397Y-80187319D01*
X133055882Y-80248642D01*
X133050898Y-80318334D01*
X133022397Y-80362681D01*
X132972863Y-80412214D01*
X132972860Y-80412218D01*
X132863371Y-80576079D01*
X132863364Y-80576092D01*
X132787950Y-80758160D01*
X132787947Y-80758170D01*
X132749500Y-80951456D01*
X132749500Y-80951459D01*
X132749500Y-81148541D01*
X132749500Y-81148543D01*
X132749499Y-81148543D01*
X132787947Y-81341829D01*
X132787950Y-81341839D01*
X132863364Y-81523907D01*
X132863371Y-81523920D01*
X132972860Y-81687781D01*
X132972863Y-81687785D01*
X133022397Y-81737319D01*
X133055882Y-81798642D01*
X133050898Y-81868334D01*
X133022397Y-81912681D01*
X132922863Y-82012214D01*
X132922860Y-82012218D01*
X132813371Y-82176079D01*
X132813364Y-82176092D01*
X132737950Y-82358160D01*
X132737947Y-82358170D01*
X132699500Y-82551456D01*
X132699500Y-82551459D01*
X132699500Y-82748541D01*
X132699500Y-82748543D01*
X132699499Y-82748543D01*
X130300500Y-82748543D01*
X130300500Y-75021153D01*
X138849500Y-75021153D01*
X138849500Y-75178846D01*
X138880261Y-75333489D01*
X138880264Y-75333501D01*
X138940602Y-75479172D01*
X138940609Y-75479185D01*
X139028210Y-75610288D01*
X139028213Y-75610292D01*
X139139707Y-75721786D01*
X139139711Y-75721789D01*
X139270814Y-75809390D01*
X139270827Y-75809397D01*
X139416498Y-75869735D01*
X139416503Y-75869737D01*
X139571153Y-75900499D01*
X139571156Y-75900500D01*
X139571158Y-75900500D01*
X139728844Y-75900500D01*
X139728845Y-75900499D01*
X139883497Y-75869737D01*
X140029179Y-75809394D01*
X140160289Y-75721789D01*
X140271789Y-75610289D01*
X140359394Y-75479179D01*
X140419737Y-75333497D01*
X140422192Y-75321153D01*
X156899500Y-75321153D01*
X156899500Y-75478846D01*
X156930261Y-75633489D01*
X156930264Y-75633501D01*
X156990602Y-75779172D01*
X156990609Y-75779185D01*
X157078210Y-75910288D01*
X157078213Y-75910292D01*
X157189707Y-76021786D01*
X157189711Y-76021789D01*
X157320814Y-76109390D01*
X157320827Y-76109397D01*
X157466498Y-76169735D01*
X157466503Y-76169737D01*
X157621153Y-76200499D01*
X157621156Y-76200500D01*
X157621158Y-76200500D01*
X157778844Y-76200500D01*
X157778845Y-76200499D01*
X157933497Y-76169737D01*
X158079179Y-76109394D01*
X158210289Y-76021789D01*
X158321789Y-75910289D01*
X158409394Y-75779179D01*
X158469737Y-75633497D01*
X158500500Y-75478842D01*
X158500500Y-75321158D01*
X158500500Y-75321155D01*
X158500499Y-75321153D01*
X158472192Y-75178846D01*
X158469737Y-75166503D01*
X158409534Y-75021158D01*
X158409397Y-75020827D01*
X158409390Y-75020814D01*
X158321789Y-74889711D01*
X158321786Y-74889707D01*
X158210292Y-74778213D01*
X158210288Y-74778210D01*
X158079185Y-74690609D01*
X158079172Y-74690602D01*
X157933501Y-74630264D01*
X157933489Y-74630261D01*
X157778845Y-74599500D01*
X157778842Y-74599500D01*
X157621158Y-74599500D01*
X157621155Y-74599500D01*
X157466510Y-74630261D01*
X157466498Y-74630264D01*
X157320827Y-74690602D01*
X157320814Y-74690609D01*
X157189711Y-74778210D01*
X157189707Y-74778213D01*
X157078213Y-74889707D01*
X157078210Y-74889711D01*
X156990609Y-75020814D01*
X156990602Y-75020827D01*
X156930264Y-75166498D01*
X156930261Y-75166510D01*
X156899500Y-75321153D01*
X140422192Y-75321153D01*
X140428216Y-75290874D01*
X140428216Y-75290873D01*
X140450499Y-75178846D01*
X140450500Y-75178844D01*
X140450500Y-75021155D01*
X140450499Y-75021153D01*
X140424353Y-74889711D01*
X140419737Y-74866503D01*
X140419735Y-74866498D01*
X140359397Y-74720827D01*
X140359390Y-74720814D01*
X140271789Y-74589711D01*
X140271786Y-74589707D01*
X140160292Y-74478213D01*
X140160288Y-74478210D01*
X140029185Y-74390609D01*
X140029172Y-74390602D01*
X139883501Y-74330264D01*
X139883489Y-74330261D01*
X139728845Y-74299500D01*
X139728842Y-74299500D01*
X139571158Y-74299500D01*
X139571155Y-74299500D01*
X139416510Y-74330261D01*
X139416498Y-74330264D01*
X139270827Y-74390602D01*
X139270814Y-74390609D01*
X139139711Y-74478210D01*
X139139707Y-74478213D01*
X139028213Y-74589707D01*
X139028210Y-74589711D01*
X138940609Y-74720814D01*
X138940602Y-74720827D01*
X138880264Y-74866498D01*
X138880261Y-74866510D01*
X138849500Y-75021153D01*
X130300500Y-75021153D01*
X130300500Y-72871153D01*
X158449500Y-72871153D01*
X158449500Y-73028846D01*
X158480261Y-73183489D01*
X158480264Y-73183501D01*
X158540602Y-73329172D01*
X158540609Y-73329185D01*
X158628210Y-73460288D01*
X158628213Y-73460292D01*
X158739707Y-73571786D01*
X158739711Y-73571789D01*
X158870814Y-73659390D01*
X158870827Y-73659397D01*
X159016498Y-73719735D01*
X159016503Y-73719737D01*
X159171153Y-73750499D01*
X159171156Y-73750500D01*
X159171158Y-73750500D01*
X159328844Y-73750500D01*
X159328845Y-73750499D01*
X159483497Y-73719737D01*
X159629179Y-73659394D01*
X159760289Y-73571789D01*
X159871789Y-73460289D01*
X159959394Y-73329179D01*
X160019737Y-73183497D01*
X160050500Y-73028842D01*
X160050500Y-72871158D01*
X160050500Y-72871155D01*
X160050499Y-72871153D01*
X160019738Y-72716510D01*
X160019737Y-72716503D01*
X160019735Y-72716498D01*
X159959397Y-72570827D01*
X159959390Y-72570814D01*
X159871789Y-72439711D01*
X159871786Y-72439707D01*
X159760292Y-72328213D01*
X159760288Y-72328210D01*
X159629185Y-72240609D01*
X159629172Y-72240602D01*
X159483501Y-72180264D01*
X159483489Y-72180261D01*
X159328845Y-72149500D01*
X159328842Y-72149500D01*
X159171158Y-72149500D01*
X159171155Y-72149500D01*
X159016510Y-72180261D01*
X159016498Y-72180264D01*
X158870827Y-72240602D01*
X158870814Y-72240609D01*
X158739711Y-72328210D01*
X158739707Y-72328213D01*
X158628213Y-72439707D01*
X158628210Y-72439711D01*
X158540609Y-72570814D01*
X158540602Y-72570827D01*
X158480264Y-72716498D01*
X158480261Y-72716510D01*
X158449500Y-72871153D01*
X130300500Y-72871153D01*
X130300500Y-70421153D01*
X156199500Y-70421153D01*
X156199500Y-70578846D01*
X156230261Y-70733489D01*
X156230264Y-70733501D01*
X156290602Y-70879172D01*
X156290609Y-70879185D01*
X156378210Y-71010288D01*
X156378213Y-71010292D01*
X156489707Y-71121786D01*
X156489711Y-71121789D01*
X156620814Y-71209390D01*
X156620827Y-71209397D01*
X156766498Y-71269735D01*
X156766503Y-71269737D01*
X156921153Y-71300499D01*
X156921156Y-71300500D01*
X156921158Y-71300500D01*
X157078844Y-71300500D01*
X157078845Y-71300499D01*
X157233497Y-71269737D01*
X157379179Y-71209394D01*
X157510289Y-71121789D01*
X157621789Y-71010289D01*
X157709394Y-70879179D01*
X157769737Y-70733497D01*
X157800500Y-70578842D01*
X157800500Y-70421158D01*
X157800500Y-70421155D01*
X157800499Y-70421153D01*
X157782467Y-70330500D01*
X157769737Y-70266503D01*
X157750710Y-70220568D01*
X157709397Y-70120827D01*
X157709390Y-70120814D01*
X157621789Y-69989711D01*
X157621786Y-69989707D01*
X157510292Y-69878213D01*
X157510288Y-69878210D01*
X157379185Y-69790609D01*
X157379172Y-69790602D01*
X157233501Y-69730264D01*
X157233489Y-69730261D01*
X157078845Y-69699500D01*
X157078842Y-69699500D01*
X156921158Y-69699500D01*
X156921155Y-69699500D01*
X156766510Y-69730261D01*
X156766498Y-69730264D01*
X156620827Y-69790602D01*
X156620814Y-69790609D01*
X156489711Y-69878210D01*
X156489707Y-69878213D01*
X156378213Y-69989707D01*
X156378210Y-69989711D01*
X156290609Y-70120814D01*
X156290602Y-70120827D01*
X156230264Y-70266498D01*
X156230261Y-70266510D01*
X156199500Y-70421153D01*
X130300500Y-70421153D01*
X130300500Y-68711902D01*
X135899500Y-68711902D01*
X135899500Y-68948097D01*
X135936446Y-69181368D01*
X136009433Y-69405996D01*
X136068433Y-69521789D01*
X136116657Y-69616433D01*
X136255483Y-69807510D01*
X136422490Y-69974517D01*
X136613567Y-70113343D01*
X136712991Y-70164002D01*
X136824003Y-70220566D01*
X136824005Y-70220566D01*
X136824008Y-70220568D01*
X136944412Y-70259689D01*
X137048631Y-70293553D01*
X137281903Y-70330500D01*
X137281908Y-70330500D01*
X137518097Y-70330500D01*
X137751368Y-70293553D01*
X137975992Y-70220568D01*
X138186433Y-70113343D01*
X138377510Y-69974517D01*
X138544517Y-69807510D01*
X138683343Y-69616433D01*
X138790568Y-69405992D01*
X138863553Y-69181368D01*
X138871136Y-69133489D01*
X138900500Y-68948097D01*
X138900500Y-68821153D01*
X148749500Y-68821153D01*
X148749500Y-68978846D01*
X148780261Y-69133489D01*
X148780264Y-69133501D01*
X148840602Y-69279172D01*
X148840609Y-69279185D01*
X148928210Y-69410288D01*
X148928213Y-69410292D01*
X149039707Y-69521786D01*
X149039711Y-69521789D01*
X149170814Y-69609390D01*
X149170827Y-69609397D01*
X149316498Y-69669735D01*
X149316503Y-69669737D01*
X149466131Y-69699500D01*
X149471153Y-69700499D01*
X149471156Y-69700500D01*
X149471158Y-69700500D01*
X149628844Y-69700500D01*
X149628845Y-69700499D01*
X149783497Y-69669737D01*
X149929179Y-69609394D01*
X150060289Y-69521789D01*
X150171789Y-69410289D01*
X150259394Y-69279179D01*
X150319737Y-69133497D01*
X150350500Y-68978842D01*
X150350500Y-68821158D01*
X150350500Y-68821155D01*
X150350499Y-68821153D01*
X150340271Y-68769735D01*
X150319737Y-68666503D01*
X150301215Y-68621786D01*
X150259397Y-68520827D01*
X150259390Y-68520814D01*
X150171789Y-68389711D01*
X150171786Y-68389707D01*
X150060292Y-68278213D01*
X150060288Y-68278210D01*
X149929185Y-68190609D01*
X149929172Y-68190602D01*
X149783501Y-68130264D01*
X149783489Y-68130261D01*
X149628845Y-68099500D01*
X149628842Y-68099500D01*
X149471158Y-68099500D01*
X149471155Y-68099500D01*
X149316510Y-68130261D01*
X149316498Y-68130264D01*
X149170827Y-68190602D01*
X149170814Y-68190609D01*
X149039711Y-68278210D01*
X149039707Y-68278213D01*
X148928213Y-68389707D01*
X148928210Y-68389711D01*
X148840609Y-68520814D01*
X148840602Y-68520827D01*
X148780264Y-68666498D01*
X148780261Y-68666510D01*
X148749500Y-68821153D01*
X138900500Y-68821153D01*
X138900500Y-68711902D01*
X138863553Y-68478631D01*
X138806985Y-68304534D01*
X138790568Y-68254008D01*
X138790566Y-68254005D01*
X138790566Y-68254003D01*
X138711842Y-68099500D01*
X138683343Y-68043567D01*
X138594404Y-67921153D01*
X155749500Y-67921153D01*
X155749500Y-68078846D01*
X155780261Y-68233489D01*
X155780264Y-68233501D01*
X155840602Y-68379172D01*
X155840609Y-68379185D01*
X155928210Y-68510288D01*
X155928213Y-68510292D01*
X156039707Y-68621786D01*
X156039711Y-68621789D01*
X156170814Y-68709390D01*
X156170827Y-68709397D01*
X156316498Y-68769735D01*
X156316503Y-68769737D01*
X156471153Y-68800499D01*
X156471156Y-68800500D01*
X156471158Y-68800500D01*
X156628844Y-68800500D01*
X156628845Y-68800499D01*
X156783497Y-68769737D01*
X156929179Y-68709394D01*
X157060289Y-68621789D01*
X157171789Y-68510289D01*
X157259394Y-68379179D01*
X157319737Y-68233497D01*
X157350500Y-68078842D01*
X157350500Y-67921158D01*
X157350500Y-67921155D01*
X157350499Y-67921153D01*
X157319737Y-67766503D01*
X157290313Y-67695466D01*
X157259397Y-67620827D01*
X157259390Y-67620814D01*
X157171789Y-67489711D01*
X157171786Y-67489707D01*
X157060292Y-67378213D01*
X157060288Y-67378210D01*
X156929185Y-67290609D01*
X156929172Y-67290602D01*
X156783501Y-67230264D01*
X156783489Y-67230261D01*
X156628845Y-67199500D01*
X156628842Y-67199500D01*
X156471158Y-67199500D01*
X156471155Y-67199500D01*
X156316510Y-67230261D01*
X156316498Y-67230264D01*
X156170827Y-67290602D01*
X156170814Y-67290609D01*
X156039711Y-67378210D01*
X156039707Y-67378213D01*
X155928213Y-67489707D01*
X155928210Y-67489711D01*
X155840609Y-67620814D01*
X155840602Y-67620827D01*
X155780264Y-67766498D01*
X155780261Y-67766510D01*
X155749500Y-67921153D01*
X138594404Y-67921153D01*
X138544517Y-67852490D01*
X138377510Y-67685483D01*
X138186433Y-67546657D01*
X137975996Y-67439433D01*
X137751368Y-67366446D01*
X137518097Y-67329500D01*
X137518092Y-67329500D01*
X137281908Y-67329500D01*
X137281903Y-67329500D01*
X137048631Y-67366446D01*
X136824003Y-67439433D01*
X136613566Y-67546657D01*
X136511499Y-67620814D01*
X136422490Y-67685483D01*
X136422488Y-67685485D01*
X136422487Y-67685485D01*
X136255485Y-67852487D01*
X136255485Y-67852488D01*
X136255483Y-67852490D01*
X136222674Y-67897648D01*
X136116657Y-68043566D01*
X136009433Y-68254003D01*
X135936446Y-68478631D01*
X135899500Y-68711902D01*
X130300500Y-68711902D01*
X130300500Y-65933713D01*
X177649500Y-65933713D01*
X177649500Y-66146287D01*
X177682754Y-66356243D01*
X177729211Y-66499223D01*
X177748444Y-66558414D01*
X177844951Y-66747820D01*
X177969890Y-66919786D01*
X178120213Y-67070109D01*
X178292182Y-67195050D01*
X178300946Y-67199516D01*
X178351742Y-67247491D01*
X178368536Y-67315312D01*
X178345998Y-67381447D01*
X178300946Y-67420484D01*
X178292182Y-67424949D01*
X178120213Y-67549890D01*
X177969890Y-67700213D01*
X177844951Y-67872179D01*
X177748444Y-68061585D01*
X177682753Y-68263760D01*
X177649500Y-68473713D01*
X177649500Y-68686286D01*
X177670861Y-68821158D01*
X177682754Y-68896243D01*
X177713856Y-68991966D01*
X177748444Y-69098414D01*
X177844951Y-69287820D01*
X177969890Y-69459786D01*
X178120213Y-69610109D01*
X178292179Y-69735048D01*
X178292181Y-69735049D01*
X178292184Y-69735051D01*
X178481588Y-69831557D01*
X178683757Y-69897246D01*
X178893713Y-69930500D01*
X178893714Y-69930500D01*
X179106286Y-69930500D01*
X179106287Y-69930500D01*
X179316243Y-69897246D01*
X179518412Y-69831557D01*
X179707816Y-69735051D01*
X179756748Y-69699500D01*
X179879786Y-69610109D01*
X179879788Y-69610106D01*
X179879792Y-69610104D01*
X180030104Y-69459792D01*
X180030106Y-69459788D01*
X180030109Y-69459786D01*
X180155048Y-69287820D01*
X180155047Y-69287820D01*
X180155051Y-69287816D01*
X180251557Y-69098412D01*
X180317246Y-68896243D01*
X180350500Y-68686287D01*
X180350500Y-68473713D01*
X180317246Y-68263757D01*
X180251557Y-68061588D01*
X180155051Y-67872184D01*
X180155049Y-67872181D01*
X180155048Y-67872179D01*
X180030109Y-67700213D01*
X179879786Y-67549890D01*
X179707820Y-67424951D01*
X179707115Y-67424591D01*
X179699054Y-67420485D01*
X179648259Y-67372512D01*
X179631463Y-67304692D01*
X179653999Y-67238556D01*
X179699054Y-67199515D01*
X179707816Y-67195051D01*
X179765996Y-67152781D01*
X179879786Y-67070109D01*
X179879788Y-67070106D01*
X179879792Y-67070104D01*
X180030104Y-66919792D01*
X180030106Y-66919788D01*
X180030109Y-66919786D01*
X180155048Y-66747820D01*
X180155047Y-66747820D01*
X180155051Y-66747816D01*
X180251557Y-66558412D01*
X180317246Y-66356243D01*
X180350500Y-66146287D01*
X180350500Y-65933713D01*
X181497000Y-65933713D01*
X181497000Y-66146287D01*
X181530254Y-66356243D01*
X181576711Y-66499223D01*
X181595944Y-66558414D01*
X181692451Y-66747820D01*
X181817390Y-66919786D01*
X181967713Y-67070109D01*
X182139682Y-67195050D01*
X182148446Y-67199516D01*
X182199242Y-67247491D01*
X182216036Y-67315312D01*
X182193498Y-67381447D01*
X182148446Y-67420484D01*
X182139682Y-67424949D01*
X181967713Y-67549890D01*
X181817390Y-67700213D01*
X181692451Y-67872179D01*
X181595944Y-68061585D01*
X181530253Y-68263760D01*
X181497000Y-68473713D01*
X181497000Y-68686286D01*
X181518361Y-68821158D01*
X181530254Y-68896243D01*
X181561356Y-68991966D01*
X181595944Y-69098414D01*
X181692451Y-69287820D01*
X181817390Y-69459786D01*
X181967713Y-69610109D01*
X182139679Y-69735048D01*
X182139681Y-69735049D01*
X182139684Y-69735051D01*
X182329088Y-69831557D01*
X182531257Y-69897246D01*
X182741213Y-69930500D01*
X182741214Y-69930500D01*
X182953786Y-69930500D01*
X182953787Y-69930500D01*
X183163743Y-69897246D01*
X183365912Y-69831557D01*
X183555316Y-69735051D01*
X183604248Y-69699500D01*
X183727286Y-69610109D01*
X183727288Y-69610106D01*
X183727292Y-69610104D01*
X183877604Y-69459792D01*
X183877606Y-69459788D01*
X183877609Y-69459786D01*
X184002548Y-69287820D01*
X184002547Y-69287820D01*
X184002551Y-69287816D01*
X184099057Y-69098412D01*
X184164746Y-68896243D01*
X184198000Y-68686287D01*
X184198000Y-68473713D01*
X184164746Y-68263757D01*
X184099057Y-68061588D01*
X184002551Y-67872184D01*
X184002549Y-67872181D01*
X184002548Y-67872179D01*
X183877609Y-67700213D01*
X183727286Y-67549890D01*
X183555320Y-67424951D01*
X183554615Y-67424591D01*
X183546554Y-67420485D01*
X183495759Y-67372512D01*
X183478963Y-67304692D01*
X183501499Y-67238556D01*
X183546554Y-67199515D01*
X183555316Y-67195051D01*
X183613496Y-67152781D01*
X183727286Y-67070109D01*
X183727288Y-67070106D01*
X183727292Y-67070104D01*
X183877604Y-66919792D01*
X183877606Y-66919788D01*
X183877609Y-66919786D01*
X184002548Y-66747820D01*
X184002547Y-66747820D01*
X184002551Y-66747816D01*
X184099057Y-66558412D01*
X184164746Y-66356243D01*
X184198000Y-66146287D01*
X184198000Y-65933713D01*
X184192288Y-65897648D01*
X186699500Y-65897648D01*
X186699500Y-66102351D01*
X186731522Y-66304534D01*
X186794781Y-66499223D01*
X186887715Y-66681613D01*
X187008028Y-66847213D01*
X187073134Y-66912319D01*
X187106619Y-66973642D01*
X187101635Y-67043334D01*
X187073134Y-67087681D01*
X187008032Y-67152782D01*
X187008028Y-67152786D01*
X186887715Y-67318386D01*
X186794781Y-67500776D01*
X186731522Y-67695465D01*
X186699500Y-67897648D01*
X186699500Y-68102351D01*
X186731522Y-68304534D01*
X186794781Y-68499223D01*
X186857231Y-68621786D01*
X186880019Y-68666510D01*
X186887715Y-68681613D01*
X187008028Y-68847213D01*
X187152786Y-68991971D01*
X187299295Y-69098414D01*
X187318390Y-69112287D01*
X187434607Y-69171503D01*
X187500776Y-69205218D01*
X187500778Y-69205218D01*
X187500781Y-69205220D01*
X187605137Y-69239127D01*
X187695465Y-69268477D01*
X187796557Y-69284488D01*
X187897648Y-69300500D01*
X187897649Y-69300500D01*
X188102351Y-69300500D01*
X188102352Y-69300500D01*
X188304534Y-69268477D01*
X188499219Y-69205220D01*
X188681610Y-69112287D01*
X188774590Y-69044732D01*
X188847213Y-68991971D01*
X188847215Y-68991968D01*
X188847219Y-68991966D01*
X188991966Y-68847219D01*
X188991968Y-68847215D01*
X188991971Y-68847213D01*
X189048259Y-68769738D01*
X189112287Y-68681610D01*
X189205220Y-68499219D01*
X189268477Y-68304534D01*
X189300500Y-68102352D01*
X189300500Y-67897648D01*
X189293347Y-67852487D01*
X189268477Y-67695465D01*
X189205218Y-67500776D01*
X189166582Y-67424949D01*
X189112287Y-67318390D01*
X189092098Y-67290602D01*
X188991971Y-67152786D01*
X188926866Y-67087681D01*
X188893381Y-67026358D01*
X188898365Y-66956666D01*
X188926866Y-66912319D01*
X188991966Y-66847219D01*
X188991968Y-66847215D01*
X188991971Y-66847213D01*
X189064186Y-66747816D01*
X189112287Y-66681610D01*
X189205220Y-66499219D01*
X189268477Y-66304534D01*
X189300500Y-66102352D01*
X189300500Y-65897648D01*
X189286521Y-65809390D01*
X189268477Y-65695465D01*
X189239127Y-65605137D01*
X189205220Y-65500781D01*
X189205218Y-65500778D01*
X189205218Y-65500776D01*
X189171503Y-65434607D01*
X189112287Y-65318390D01*
X189104556Y-65307749D01*
X188991971Y-65152786D01*
X188847213Y-65008028D01*
X188681613Y-64887715D01*
X188681612Y-64887714D01*
X188681610Y-64887713D01*
X188592722Y-64842422D01*
X188499219Y-64794779D01*
X188441624Y-64776065D01*
X188392263Y-64745816D01*
X188129409Y-64482961D01*
X188192992Y-64465924D01*
X188307006Y-64400098D01*
X188400098Y-64307006D01*
X188465924Y-64192992D01*
X188482961Y-64129408D01*
X189079474Y-64725921D01*
X189111859Y-64681349D01*
X189204755Y-64499031D01*
X189267990Y-64304417D01*
X189300000Y-64102317D01*
X189300000Y-63897682D01*
X189267990Y-63695582D01*
X189204755Y-63500968D01*
X189111859Y-63318650D01*
X189079474Y-63274077D01*
X189079474Y-63274076D01*
X188482961Y-63870590D01*
X188465924Y-63807008D01*
X188400098Y-63692994D01*
X188307006Y-63599902D01*
X188192992Y-63534076D01*
X188129407Y-63517038D01*
X188725922Y-62920524D01*
X188725921Y-62920523D01*
X188681359Y-62888147D01*
X188681350Y-62888141D01*
X188499031Y-62795244D01*
X188304417Y-62732009D01*
X188102317Y-62700000D01*
X187897683Y-62700000D01*
X187695582Y-62732009D01*
X187500968Y-62795244D01*
X187318644Y-62888143D01*
X187274077Y-62920523D01*
X187274077Y-62920524D01*
X187870592Y-63517038D01*
X187807008Y-63534076D01*
X187692994Y-63599902D01*
X187599902Y-63692994D01*
X187534076Y-63807008D01*
X187517038Y-63870591D01*
X186920524Y-63274077D01*
X186920523Y-63274077D01*
X186888143Y-63318644D01*
X186795244Y-63500968D01*
X186732009Y-63695582D01*
X186700000Y-63897682D01*
X186700000Y-64102317D01*
X186732009Y-64304417D01*
X186795244Y-64499031D01*
X186888141Y-64681350D01*
X186888147Y-64681359D01*
X186920523Y-64725921D01*
X186920524Y-64725922D01*
X187517038Y-64129408D01*
X187534076Y-64192992D01*
X187599902Y-64307006D01*
X187692994Y-64400098D01*
X187807008Y-64465924D01*
X187870590Y-64482961D01*
X187607735Y-64745816D01*
X187558375Y-64776065D01*
X187500786Y-64794778D01*
X187500783Y-64794779D01*
X187500781Y-64794780D01*
X187409585Y-64841246D01*
X187318385Y-64887715D01*
X187152786Y-65008028D01*
X187008028Y-65152786D01*
X186887715Y-65318386D01*
X186794781Y-65500776D01*
X186731522Y-65695465D01*
X186699500Y-65897648D01*
X184192288Y-65897648D01*
X184164746Y-65723757D01*
X184099057Y-65521588D01*
X184002551Y-65332184D01*
X184002549Y-65332181D01*
X184002548Y-65332179D01*
X183877609Y-65160213D01*
X183763681Y-65046285D01*
X183730196Y-64984962D01*
X183735180Y-64915270D01*
X183777052Y-64859337D01*
X183808029Y-64842422D01*
X183939586Y-64793354D01*
X183939593Y-64793350D01*
X184054687Y-64707190D01*
X184054690Y-64707187D01*
X184140850Y-64592093D01*
X184140854Y-64592086D01*
X184191096Y-64457379D01*
X184191098Y-64457372D01*
X184197499Y-64397844D01*
X184197500Y-64397827D01*
X184197500Y-63750000D01*
X183280512Y-63750000D01*
X183313425Y-63692993D01*
X183347500Y-63565826D01*
X183347500Y-63434174D01*
X183313425Y-63307007D01*
X183280512Y-63250000D01*
X184197500Y-63250000D01*
X184197500Y-62602172D01*
X184197499Y-62602155D01*
X184191098Y-62542627D01*
X184191096Y-62542620D01*
X184140854Y-62407913D01*
X184140850Y-62407906D01*
X184054690Y-62292812D01*
X184054687Y-62292809D01*
X183939593Y-62206649D01*
X183939586Y-62206645D01*
X183804879Y-62156403D01*
X183804872Y-62156401D01*
X183745344Y-62150000D01*
X183097500Y-62150000D01*
X183097500Y-63066988D01*
X183040493Y-63034075D01*
X182913326Y-63000000D01*
X182781674Y-63000000D01*
X182654507Y-63034075D01*
X182597500Y-63066988D01*
X182597500Y-62150000D01*
X181949655Y-62150000D01*
X181890127Y-62156401D01*
X181890120Y-62156403D01*
X181755413Y-62206645D01*
X181755406Y-62206649D01*
X181640312Y-62292809D01*
X181640309Y-62292812D01*
X181554149Y-62407906D01*
X181554145Y-62407913D01*
X181503903Y-62542620D01*
X181503901Y-62542627D01*
X181497500Y-62602155D01*
X181497500Y-63250000D01*
X182414488Y-63250000D01*
X182381575Y-63307007D01*
X182347500Y-63434174D01*
X182347500Y-63565826D01*
X182381575Y-63692993D01*
X182414488Y-63750000D01*
X181497500Y-63750000D01*
X181497500Y-64397844D01*
X181503901Y-64457372D01*
X181503903Y-64457379D01*
X181554145Y-64592086D01*
X181554149Y-64592093D01*
X181640309Y-64707187D01*
X181640312Y-64707190D01*
X181755406Y-64793350D01*
X181755413Y-64793354D01*
X181886970Y-64842422D01*
X181942904Y-64884293D01*
X181967321Y-64949758D01*
X181952469Y-65018031D01*
X181931319Y-65046285D01*
X181817389Y-65160215D01*
X181692451Y-65332179D01*
X181595944Y-65521585D01*
X181530253Y-65723760D01*
X181515916Y-65814280D01*
X181497000Y-65933713D01*
X180350500Y-65933713D01*
X180317246Y-65723757D01*
X180251557Y-65521588D01*
X180155051Y-65332184D01*
X180155049Y-65332181D01*
X180155048Y-65332179D01*
X180030109Y-65160213D01*
X179916181Y-65046285D01*
X179882696Y-64984962D01*
X179887680Y-64915270D01*
X179929552Y-64859337D01*
X179960529Y-64842422D01*
X180092086Y-64793354D01*
X180092093Y-64793350D01*
X180207187Y-64707190D01*
X180207190Y-64707187D01*
X180293350Y-64592093D01*
X180293354Y-64592086D01*
X180343596Y-64457379D01*
X180343598Y-64457372D01*
X180349999Y-64397844D01*
X180350000Y-64397827D01*
X180350000Y-63750000D01*
X179433012Y-63750000D01*
X179465925Y-63692993D01*
X179500000Y-63565826D01*
X179500000Y-63434174D01*
X179465925Y-63307007D01*
X179433012Y-63250000D01*
X180350000Y-63250000D01*
X180350000Y-62602172D01*
X180349999Y-62602155D01*
X180343598Y-62542627D01*
X180343596Y-62542620D01*
X180293354Y-62407913D01*
X180293350Y-62407906D01*
X180207190Y-62292812D01*
X180207187Y-62292809D01*
X180092093Y-62206649D01*
X180092086Y-62206645D01*
X179957379Y-62156403D01*
X179957372Y-62156401D01*
X179897844Y-62150000D01*
X179250000Y-62150000D01*
X179250000Y-63066988D01*
X179192993Y-63034075D01*
X179065826Y-63000000D01*
X178934174Y-63000000D01*
X178807007Y-63034075D01*
X178750000Y-63066988D01*
X178750000Y-62150000D01*
X178102155Y-62150000D01*
X178042627Y-62156401D01*
X178042620Y-62156403D01*
X177907913Y-62206645D01*
X177907906Y-62206649D01*
X177792812Y-62292809D01*
X177792809Y-62292812D01*
X177706649Y-62407906D01*
X177706645Y-62407913D01*
X177656403Y-62542620D01*
X177656401Y-62542627D01*
X177650000Y-62602155D01*
X177650000Y-63250000D01*
X178566988Y-63250000D01*
X178534075Y-63307007D01*
X178500000Y-63434174D01*
X178500000Y-63565826D01*
X178534075Y-63692993D01*
X178566988Y-63750000D01*
X177650000Y-63750000D01*
X177650000Y-64397844D01*
X177656401Y-64457372D01*
X177656403Y-64457379D01*
X177706645Y-64592086D01*
X177706649Y-64592093D01*
X177792809Y-64707187D01*
X177792812Y-64707190D01*
X177907906Y-64793350D01*
X177907913Y-64793354D01*
X178039470Y-64842422D01*
X178095404Y-64884293D01*
X178119821Y-64949758D01*
X178104969Y-65018031D01*
X178083819Y-65046285D01*
X177969889Y-65160215D01*
X177844951Y-65332179D01*
X177748444Y-65521585D01*
X177682753Y-65723760D01*
X177668416Y-65814280D01*
X177649500Y-65933713D01*
X130300500Y-65933713D01*
X130300500Y-63098543D01*
X131999499Y-63098543D01*
X132037947Y-63291829D01*
X132037950Y-63291839D01*
X132113364Y-63473907D01*
X132113371Y-63473920D01*
X132222860Y-63637781D01*
X132222863Y-63637785D01*
X132247397Y-63662319D01*
X132280882Y-63723642D01*
X132275898Y-63793334D01*
X132247397Y-63837681D01*
X132222863Y-63862214D01*
X132222860Y-63862218D01*
X132113371Y-64026079D01*
X132113364Y-64026092D01*
X132037950Y-64208160D01*
X132037947Y-64208170D01*
X131999500Y-64401456D01*
X131999500Y-64401459D01*
X131999500Y-64598541D01*
X131999500Y-64598543D01*
X131999499Y-64598543D01*
X132037947Y-64791829D01*
X132037950Y-64791839D01*
X132113364Y-64973907D01*
X132113371Y-64973920D01*
X132222860Y-65137781D01*
X132222863Y-65137785D01*
X132362214Y-65277136D01*
X132362218Y-65277139D01*
X132526079Y-65386628D01*
X132526092Y-65386635D01*
X132708160Y-65462049D01*
X132708165Y-65462051D01*
X132708169Y-65462051D01*
X132708170Y-65462052D01*
X132901456Y-65500500D01*
X132901459Y-65500500D01*
X133098543Y-65500500D01*
X133228582Y-65474632D01*
X133291835Y-65462051D01*
X133473914Y-65386632D01*
X133637782Y-65277139D01*
X133662319Y-65252601D01*
X133723640Y-65219117D01*
X133793332Y-65224100D01*
X133837680Y-65252601D01*
X133862215Y-65277136D01*
X133862219Y-65277140D01*
X134026079Y-65386628D01*
X134026092Y-65386635D01*
X134208160Y-65462049D01*
X134208165Y-65462051D01*
X134208169Y-65462051D01*
X134208170Y-65462052D01*
X134401456Y-65500500D01*
X134401459Y-65500500D01*
X134598543Y-65500500D01*
X134728582Y-65474632D01*
X134791835Y-65462051D01*
X134973914Y-65386632D01*
X135137782Y-65277139D01*
X135277139Y-65137782D01*
X135386632Y-64973914D01*
X135422337Y-64887715D01*
X135426383Y-64877947D01*
X135460831Y-64794780D01*
X135462051Y-64791835D01*
X135496410Y-64619104D01*
X135500500Y-64598543D01*
X135500500Y-64401456D01*
X135462052Y-64208170D01*
X135462051Y-64208169D01*
X135462051Y-64208165D01*
X135418208Y-64102317D01*
X135386635Y-64026092D01*
X135386628Y-64026079D01*
X135277140Y-63862219D01*
X135277135Y-63862214D01*
X135252601Y-63837680D01*
X135252421Y-63837350D01*
X135252092Y-63837168D01*
X135235720Y-63806765D01*
X135219117Y-63776360D01*
X135219143Y-63775983D01*
X135218965Y-63775651D01*
X135221628Y-63741230D01*
X135224100Y-63706668D01*
X135224336Y-63706237D01*
X135224356Y-63705990D01*
X135225135Y-63704785D01*
X135241451Y-63675112D01*
X135246586Y-63668334D01*
X135277139Y-63637782D01*
X135281038Y-63631947D01*
X135900000Y-63631947D01*
X135900000Y-63868052D01*
X135936934Y-64101247D01*
X136009897Y-64325802D01*
X136117087Y-64536174D01*
X136177338Y-64619104D01*
X136177340Y-64619105D01*
X136798948Y-63997496D01*
X136823967Y-64057896D01*
X136895103Y-64164358D01*
X136985642Y-64254897D01*
X137092104Y-64326033D01*
X137152502Y-64351050D01*
X136530893Y-64972658D01*
X136613828Y-65032914D01*
X136824197Y-65140102D01*
X137048752Y-65213065D01*
X137048751Y-65213065D01*
X137281948Y-65250000D01*
X137518052Y-65250000D01*
X137751247Y-65213065D01*
X137975802Y-65140102D01*
X138186163Y-65032918D01*
X138186169Y-65032914D01*
X138202357Y-65021153D01*
X172599500Y-65021153D01*
X172599500Y-65178846D01*
X172630261Y-65333489D01*
X172630264Y-65333501D01*
X172690602Y-65479172D01*
X172690609Y-65479185D01*
X172778210Y-65610288D01*
X172778213Y-65610292D01*
X172889707Y-65721786D01*
X172889711Y-65721789D01*
X173020814Y-65809390D01*
X173020827Y-65809397D01*
X173166498Y-65869735D01*
X173166503Y-65869737D01*
X173306820Y-65897648D01*
X173321153Y-65900499D01*
X173321156Y-65900500D01*
X173321158Y-65900500D01*
X173478844Y-65900500D01*
X173478845Y-65900499D01*
X173633497Y-65869737D01*
X173696312Y-65843718D01*
X173767384Y-65814280D01*
X173767385Y-65814279D01*
X173779179Y-65809394D01*
X173910289Y-65721789D01*
X174021789Y-65610289D01*
X174109394Y-65479179D01*
X174169737Y-65333497D01*
X174200500Y-65178842D01*
X174200500Y-65021158D01*
X174200500Y-65021155D01*
X174200499Y-65021153D01*
X174191104Y-64973920D01*
X174169737Y-64866503D01*
X174166769Y-64859337D01*
X174109397Y-64720827D01*
X174109390Y-64720814D01*
X174021789Y-64589711D01*
X174021786Y-64589707D01*
X173910292Y-64478213D01*
X173910288Y-64478210D01*
X173779185Y-64390609D01*
X173779172Y-64390602D01*
X173633501Y-64330264D01*
X173633489Y-64330261D01*
X173478845Y-64299500D01*
X173478842Y-64299500D01*
X173321158Y-64299500D01*
X173321155Y-64299500D01*
X173166510Y-64330261D01*
X173166498Y-64330264D01*
X173020827Y-64390602D01*
X173020814Y-64390609D01*
X172889711Y-64478210D01*
X172889707Y-64478213D01*
X172778213Y-64589707D01*
X172778210Y-64589711D01*
X172690609Y-64720814D01*
X172690602Y-64720827D01*
X172630264Y-64866498D01*
X172630261Y-64866510D01*
X172599500Y-65021153D01*
X138202357Y-65021153D01*
X138269104Y-64972658D01*
X138269104Y-64972657D01*
X137647497Y-64351050D01*
X137707896Y-64326033D01*
X137814358Y-64254897D01*
X137904897Y-64164358D01*
X137976033Y-64057896D01*
X138001050Y-63997497D01*
X138622658Y-64619105D01*
X138622658Y-64619104D01*
X138682914Y-64536169D01*
X138682918Y-64536163D01*
X138790102Y-64325802D01*
X138863065Y-64101247D01*
X138900000Y-63868052D01*
X138900000Y-63721153D01*
X146049500Y-63721153D01*
X146049500Y-63878846D01*
X146080261Y-64033489D01*
X146080264Y-64033501D01*
X146140602Y-64179172D01*
X146140609Y-64179185D01*
X146228210Y-64310288D01*
X146228213Y-64310292D01*
X146339707Y-64421786D01*
X146339711Y-64421789D01*
X146470814Y-64509390D01*
X146470827Y-64509397D01*
X146616498Y-64569735D01*
X146616503Y-64569737D01*
X146761310Y-64598541D01*
X146771153Y-64600499D01*
X146771156Y-64600500D01*
X146771158Y-64600500D01*
X146928844Y-64600500D01*
X146928845Y-64600499D01*
X147083497Y-64569737D01*
X147229179Y-64509394D01*
X147360289Y-64421789D01*
X147471789Y-64310289D01*
X147559394Y-64179179D01*
X147619737Y-64033497D01*
X147650500Y-63878842D01*
X147650500Y-63721158D01*
X147650500Y-63721155D01*
X147650499Y-63721153D01*
X147633915Y-63637781D01*
X147619737Y-63566503D01*
X147615023Y-63555123D01*
X147559397Y-63420827D01*
X147559390Y-63420814D01*
X147471789Y-63289711D01*
X147471786Y-63289707D01*
X147360292Y-63178213D01*
X147360288Y-63178210D01*
X147229185Y-63090609D01*
X147229172Y-63090602D01*
X147083501Y-63030264D01*
X147083489Y-63030261D01*
X146928845Y-62999500D01*
X146928842Y-62999500D01*
X146771158Y-62999500D01*
X146771155Y-62999500D01*
X146616510Y-63030261D01*
X146616498Y-63030264D01*
X146470827Y-63090602D01*
X146470814Y-63090609D01*
X146339711Y-63178210D01*
X146339707Y-63178213D01*
X146228213Y-63289707D01*
X146228210Y-63289711D01*
X146140609Y-63420814D01*
X146140602Y-63420827D01*
X146080264Y-63566498D01*
X146080261Y-63566510D01*
X146049500Y-63721153D01*
X138900000Y-63721153D01*
X138900000Y-63631947D01*
X138863065Y-63398752D01*
X138790102Y-63174197D01*
X138682914Y-62963828D01*
X138622658Y-62880894D01*
X138622658Y-62880893D01*
X138001050Y-63502501D01*
X137976033Y-63442104D01*
X137904897Y-63335642D01*
X137814358Y-63245103D01*
X137707896Y-63173967D01*
X137647497Y-63148949D01*
X138269105Y-62527340D01*
X138269104Y-62527338D01*
X138186174Y-62467087D01*
X137975802Y-62359897D01*
X137751247Y-62286934D01*
X137751248Y-62286934D01*
X137518052Y-62250000D01*
X137281948Y-62250000D01*
X137048752Y-62286934D01*
X136824197Y-62359897D01*
X136613830Y-62467084D01*
X136530894Y-62527340D01*
X137152503Y-63148949D01*
X137092104Y-63173967D01*
X136985642Y-63245103D01*
X136895103Y-63335642D01*
X136823967Y-63442104D01*
X136798949Y-63502503D01*
X136177340Y-62880894D01*
X136117084Y-62963830D01*
X136009897Y-63174197D01*
X135936934Y-63398752D01*
X135900000Y-63631947D01*
X135281038Y-63631947D01*
X135386632Y-63473914D01*
X135462051Y-63291835D01*
X135484652Y-63178213D01*
X135500500Y-63098543D01*
X135500500Y-62901456D01*
X135462052Y-62708170D01*
X135462051Y-62708169D01*
X135462051Y-62708165D01*
X135418141Y-62602155D01*
X135386635Y-62526092D01*
X135386628Y-62526079D01*
X135277139Y-62362218D01*
X135277136Y-62362214D01*
X135137785Y-62222863D01*
X135137781Y-62222860D01*
X134973920Y-62113371D01*
X134973907Y-62113364D01*
X134791839Y-62037950D01*
X134791829Y-62037947D01*
X134598543Y-61999500D01*
X134598541Y-61999500D01*
X134401459Y-61999500D01*
X134401457Y-61999500D01*
X134208170Y-62037947D01*
X134208160Y-62037950D01*
X134026092Y-62113364D01*
X134026079Y-62113371D01*
X133862218Y-62222860D01*
X133862214Y-62222863D01*
X133837681Y-62247397D01*
X133776358Y-62280882D01*
X133706666Y-62275898D01*
X133662319Y-62247397D01*
X133637785Y-62222863D01*
X133637781Y-62222860D01*
X133473920Y-62113371D01*
X133473907Y-62113364D01*
X133291839Y-62037950D01*
X133291829Y-62037947D01*
X133098543Y-61999500D01*
X133098541Y-61999500D01*
X132901459Y-61999500D01*
X132901457Y-61999500D01*
X132708170Y-62037947D01*
X132708160Y-62037950D01*
X132526092Y-62113364D01*
X132526079Y-62113371D01*
X132362218Y-62222860D01*
X132362214Y-62222863D01*
X132222863Y-62362214D01*
X132222860Y-62362218D01*
X132113371Y-62526079D01*
X132113364Y-62526092D01*
X132037950Y-62708160D01*
X132037947Y-62708170D01*
X131999500Y-62901456D01*
X131999500Y-62901459D01*
X131999500Y-63098541D01*
X131999500Y-63098543D01*
X131999499Y-63098543D01*
X130300500Y-63098543D01*
X130300500Y-60421153D01*
X141702719Y-60421153D01*
X141702719Y-60578846D01*
X141733480Y-60733489D01*
X141733483Y-60733501D01*
X141793821Y-60879172D01*
X141793828Y-60879185D01*
X141881429Y-61010288D01*
X141881432Y-61010292D01*
X141992926Y-61121786D01*
X141992930Y-61121789D01*
X142124033Y-61209390D01*
X142124046Y-61209397D01*
X142269717Y-61269735D01*
X142269722Y-61269737D01*
X142424372Y-61300499D01*
X142424375Y-61300500D01*
X142424377Y-61300500D01*
X142582063Y-61300500D01*
X142582064Y-61300499D01*
X142736716Y-61269737D01*
X142882398Y-61209394D01*
X143013508Y-61121789D01*
X143125008Y-61010289D01*
X143212613Y-60879179D01*
X143272956Y-60733497D01*
X143303719Y-60578842D01*
X143303719Y-60421158D01*
X143303719Y-60421155D01*
X143303718Y-60421153D01*
X143277483Y-60289257D01*
X143273881Y-60271153D01*
X146702719Y-60271153D01*
X146702719Y-60428846D01*
X146733480Y-60583489D01*
X146733483Y-60583501D01*
X146793821Y-60729172D01*
X146793828Y-60729185D01*
X146881429Y-60860288D01*
X146881432Y-60860292D01*
X146992926Y-60971786D01*
X146992930Y-60971789D01*
X147124033Y-61059390D01*
X147124046Y-61059397D01*
X147269717Y-61119735D01*
X147269722Y-61119737D01*
X147424372Y-61150499D01*
X147424375Y-61150500D01*
X147424377Y-61150500D01*
X147582063Y-61150500D01*
X147582064Y-61150499D01*
X147736716Y-61119737D01*
X147882398Y-61059394D01*
X148013508Y-60971789D01*
X148125008Y-60860289D01*
X148212613Y-60729179D01*
X148272956Y-60583497D01*
X148303719Y-60428842D01*
X148303719Y-60271158D01*
X148303719Y-60271155D01*
X148303718Y-60271153D01*
X151699500Y-60271153D01*
X151699500Y-60428846D01*
X151730261Y-60583489D01*
X151730264Y-60583501D01*
X151790602Y-60729172D01*
X151790609Y-60729185D01*
X151878210Y-60860288D01*
X151878213Y-60860292D01*
X151989707Y-60971786D01*
X151989711Y-60971789D01*
X152120814Y-61059390D01*
X152120827Y-61059397D01*
X152266498Y-61119735D01*
X152266503Y-61119737D01*
X152421153Y-61150499D01*
X152421156Y-61150500D01*
X152421158Y-61150500D01*
X152578844Y-61150500D01*
X152578845Y-61150499D01*
X152733497Y-61119737D01*
X152879179Y-61059394D01*
X153010289Y-60971789D01*
X153121789Y-60860289D01*
X153209394Y-60729179D01*
X153269737Y-60583497D01*
X153300500Y-60428842D01*
X153300500Y-60271158D01*
X153300500Y-60271155D01*
X153300499Y-60271153D01*
X161699500Y-60271153D01*
X161699500Y-60428846D01*
X161730261Y-60583489D01*
X161730264Y-60583501D01*
X161790602Y-60729172D01*
X161790609Y-60729185D01*
X161878210Y-60860288D01*
X161878213Y-60860292D01*
X161989707Y-60971786D01*
X161989711Y-60971789D01*
X162120814Y-61059390D01*
X162120827Y-61059397D01*
X162266498Y-61119735D01*
X162266503Y-61119737D01*
X162421153Y-61150499D01*
X162421156Y-61150500D01*
X162421158Y-61150500D01*
X162578844Y-61150500D01*
X162578845Y-61150499D01*
X162733497Y-61119737D01*
X162879179Y-61059394D01*
X163010289Y-60971789D01*
X163121789Y-60860289D01*
X163209394Y-60729179D01*
X163269737Y-60583497D01*
X163300500Y-60428842D01*
X163300500Y-60271158D01*
X163300500Y-60271155D01*
X163300499Y-60271153D01*
X166699500Y-60271153D01*
X166699500Y-60428846D01*
X166730261Y-60583489D01*
X166730264Y-60583501D01*
X166790602Y-60729172D01*
X166790609Y-60729185D01*
X166878210Y-60860288D01*
X166878213Y-60860292D01*
X166989707Y-60971786D01*
X166989711Y-60971789D01*
X167120814Y-61059390D01*
X167120827Y-61059397D01*
X167266498Y-61119735D01*
X167266503Y-61119737D01*
X167421153Y-61150499D01*
X167421156Y-61150500D01*
X167421158Y-61150500D01*
X167578844Y-61150500D01*
X167578845Y-61150499D01*
X167733497Y-61119737D01*
X167879179Y-61059394D01*
X168010289Y-60971789D01*
X168121789Y-60860289D01*
X168209394Y-60729179D01*
X168269737Y-60583497D01*
X168300500Y-60428842D01*
X168300500Y-60271158D01*
X168300500Y-60271155D01*
X168300499Y-60271153D01*
X171699500Y-60271153D01*
X171699500Y-60428846D01*
X171730261Y-60583489D01*
X171730264Y-60583501D01*
X171790602Y-60729172D01*
X171790609Y-60729185D01*
X171878210Y-60860288D01*
X171878213Y-60860292D01*
X171989707Y-60971786D01*
X171989711Y-60971789D01*
X172120814Y-61059390D01*
X172120827Y-61059397D01*
X172266498Y-61119735D01*
X172266503Y-61119737D01*
X172421153Y-61150499D01*
X172421156Y-61150500D01*
X172421158Y-61150500D01*
X172578844Y-61150500D01*
X172578845Y-61150499D01*
X172733497Y-61119737D01*
X172879179Y-61059394D01*
X173010289Y-60971789D01*
X173121789Y-60860289D01*
X173209394Y-60729179D01*
X173269737Y-60583497D01*
X173300500Y-60428842D01*
X173300500Y-60271158D01*
X173300500Y-60271155D01*
X173300499Y-60271153D01*
X173270596Y-60120821D01*
X173269737Y-60116503D01*
X173269735Y-60116498D01*
X173209397Y-59970827D01*
X173209390Y-59970814D01*
X173121789Y-59839711D01*
X173121786Y-59839707D01*
X173010292Y-59728213D01*
X173010288Y-59728210D01*
X172879185Y-59640609D01*
X172879172Y-59640602D01*
X172733501Y-59580264D01*
X172733489Y-59580261D01*
X172578845Y-59549500D01*
X172578842Y-59549500D01*
X172421158Y-59549500D01*
X172421155Y-59549500D01*
X172266510Y-59580261D01*
X172266498Y-59580264D01*
X172120827Y-59640602D01*
X172120814Y-59640609D01*
X171989711Y-59728210D01*
X171989707Y-59728213D01*
X171878213Y-59839707D01*
X171878210Y-59839711D01*
X171790609Y-59970814D01*
X171790602Y-59970827D01*
X171730264Y-60116498D01*
X171730261Y-60116510D01*
X171699500Y-60271153D01*
X168300499Y-60271153D01*
X168270596Y-60120821D01*
X168269737Y-60116503D01*
X168269735Y-60116498D01*
X168209397Y-59970827D01*
X168209390Y-59970814D01*
X168121789Y-59839711D01*
X168121786Y-59839707D01*
X168010292Y-59728213D01*
X168010288Y-59728210D01*
X167879185Y-59640609D01*
X167879172Y-59640602D01*
X167733501Y-59580264D01*
X167733489Y-59580261D01*
X167578845Y-59549500D01*
X167578842Y-59549500D01*
X167421158Y-59549500D01*
X167421155Y-59549500D01*
X167266510Y-59580261D01*
X167266498Y-59580264D01*
X167120827Y-59640602D01*
X167120814Y-59640609D01*
X166989711Y-59728210D01*
X166989707Y-59728213D01*
X166878213Y-59839707D01*
X166878210Y-59839711D01*
X166790609Y-59970814D01*
X166790602Y-59970827D01*
X166730264Y-60116498D01*
X166730261Y-60116510D01*
X166699500Y-60271153D01*
X163300499Y-60271153D01*
X163270596Y-60120821D01*
X163269737Y-60116503D01*
X163269735Y-60116498D01*
X163209397Y-59970827D01*
X163209390Y-59970814D01*
X163121789Y-59839711D01*
X163121786Y-59839707D01*
X163010292Y-59728213D01*
X163010288Y-59728210D01*
X162879185Y-59640609D01*
X162879172Y-59640602D01*
X162733501Y-59580264D01*
X162733489Y-59580261D01*
X162578845Y-59549500D01*
X162578842Y-59549500D01*
X162421158Y-59549500D01*
X162421155Y-59549500D01*
X162266510Y-59580261D01*
X162266498Y-59580264D01*
X162120827Y-59640602D01*
X162120814Y-59640609D01*
X161989711Y-59728210D01*
X161989707Y-59728213D01*
X161878213Y-59839707D01*
X161878210Y-59839711D01*
X161790609Y-59970814D01*
X161790602Y-59970827D01*
X161730264Y-60116498D01*
X161730261Y-60116510D01*
X161699500Y-60271153D01*
X153300499Y-60271153D01*
X153270596Y-60120821D01*
X153269737Y-60116503D01*
X153269735Y-60116498D01*
X153209397Y-59970827D01*
X153209390Y-59970814D01*
X153121789Y-59839711D01*
X153121786Y-59839707D01*
X153010292Y-59728213D01*
X153010288Y-59728210D01*
X152879185Y-59640609D01*
X152879172Y-59640602D01*
X152733501Y-59580264D01*
X152733489Y-59580261D01*
X152578845Y-59549500D01*
X152578842Y-59549500D01*
X152421158Y-59549500D01*
X152421155Y-59549500D01*
X152266510Y-59580261D01*
X152266498Y-59580264D01*
X152120827Y-59640602D01*
X152120814Y-59640609D01*
X151989711Y-59728210D01*
X151989707Y-59728213D01*
X151878213Y-59839707D01*
X151878210Y-59839711D01*
X151790609Y-59970814D01*
X151790602Y-59970827D01*
X151730264Y-60116498D01*
X151730261Y-60116510D01*
X151699500Y-60271153D01*
X148303718Y-60271153D01*
X148273815Y-60120821D01*
X148272956Y-60116503D01*
X148272954Y-60116498D01*
X148212616Y-59970827D01*
X148212609Y-59970814D01*
X148125008Y-59839711D01*
X148125005Y-59839707D01*
X148013511Y-59728213D01*
X148013507Y-59728210D01*
X147882404Y-59640609D01*
X147882391Y-59640602D01*
X147736720Y-59580264D01*
X147736708Y-59580261D01*
X147582064Y-59549500D01*
X147582061Y-59549500D01*
X147424377Y-59549500D01*
X147424374Y-59549500D01*
X147269729Y-59580261D01*
X147269717Y-59580264D01*
X147124046Y-59640602D01*
X147124033Y-59640609D01*
X146992930Y-59728210D01*
X146992926Y-59728213D01*
X146881432Y-59839707D01*
X146881429Y-59839711D01*
X146793828Y-59970814D01*
X146793821Y-59970827D01*
X146733483Y-60116498D01*
X146733480Y-60116510D01*
X146702719Y-60271153D01*
X143273881Y-60271153D01*
X143272957Y-60266507D01*
X143272954Y-60266498D01*
X143212616Y-60120827D01*
X143212609Y-60120814D01*
X143125008Y-59989711D01*
X143125005Y-59989707D01*
X143013511Y-59878213D01*
X143013507Y-59878210D01*
X142882404Y-59790609D01*
X142882391Y-59790602D01*
X142736720Y-59730264D01*
X142736708Y-59730261D01*
X142582064Y-59699500D01*
X142582061Y-59699500D01*
X142424377Y-59699500D01*
X142424374Y-59699500D01*
X142269729Y-59730261D01*
X142269717Y-59730264D01*
X142124046Y-59790602D01*
X142124033Y-59790609D01*
X141992930Y-59878210D01*
X141992926Y-59878213D01*
X141881432Y-59989707D01*
X141881429Y-59989711D01*
X141793828Y-60120814D01*
X141793821Y-60120827D01*
X141733483Y-60266498D01*
X141733480Y-60266510D01*
X141702719Y-60421153D01*
X130300500Y-60421153D01*
X130300500Y-57503750D01*
X130300726Y-57496263D01*
X130316084Y-57242364D01*
X130317889Y-57227500D01*
X130354053Y-57030160D01*
X130363062Y-56980995D01*
X130366645Y-56966461D01*
X130441202Y-56727202D01*
X130446504Y-56713219D01*
X130549361Y-56484679D01*
X130556320Y-56471421D01*
X130583412Y-56426606D01*
X130685975Y-56256946D01*
X130694462Y-56244650D01*
X130849034Y-56047354D01*
X130858949Y-56036163D01*
X131036163Y-55858949D01*
X131047354Y-55849034D01*
X131244650Y-55694462D01*
X131256946Y-55685975D01*
X131471421Y-55556319D01*
X131484680Y-55549361D01*
X131713219Y-55446504D01*
X131727202Y-55441202D01*
X131966467Y-55366643D01*
X131980995Y-55363062D01*
X132227506Y-55317888D01*
X132242359Y-55316084D01*
X132496264Y-55300726D01*
X132503751Y-55300500D01*
X132547595Y-55300500D01*
X187452405Y-55300500D01*
X187496249Y-55300500D01*
X187503736Y-55300726D01*
G37*
%TD.AperFunction*%
%TD*%
M02*
