%TF.GenerationSoftware,KiCad,Pcbnew,9.0.7*%
%TF.CreationDate,2026-02-17T00:08:55-08:00*%
%TF.ProjectId,servo-dev-board-ch32v006,73657276-6f2d-4646-9576-2d626f617264,rev?*%
%TF.SameCoordinates,Original*%
%TF.FileFunction,Legend,Top*%
%TF.FilePolarity,Positive*%
%FSLAX46Y46*%
G04 Gerber Fmt 4.6, Leading zero omitted, Abs format (unit mm)*
G04 Created by KiCad (PCBNEW 9.0.7) date 2026-02-17 00:08:55*
%MOMM*%
%LPD*%
G01*
G04 APERTURE LIST*
G04 Aperture macros list*
%AMRoundRect*
0 Rectangle with rounded corners*
0 $1 Rounding radius*
0 $2 $3 $4 $5 $6 $7 $8 $9 X,Y pos of 4 corners*
0 Add a 4 corners polygon primitive as box body*
4,1,4,$2,$3,$4,$5,$6,$7,$8,$9,$2,$3,0*
0 Add four circle primitives for the rounded corners*
1,1,$1+$1,$2,$3*
1,1,$1+$1,$4,$5*
1,1,$1+$1,$6,$7*
1,1,$1+$1,$8,$9*
0 Add four rect primitives between the rounded corners*
20,1,$1+$1,$2,$3,$4,$5,0*
20,1,$1+$1,$4,$5,$6,$7,0*
20,1,$1+$1,$6,$7,$8,$9,0*
20,1,$1+$1,$8,$9,$2,$3,0*%
%AMFreePoly0*
4,1,14,0.885355,0.885355,0.900000,0.850000,0.900000,-0.850000,0.885355,-0.885355,0.850000,-0.900000,-0.550000,-0.900000,-0.585355,-0.885355,-0.885355,-0.585355,-0.900000,-0.550000,-0.900000,0.850000,-0.885355,0.885355,-0.850000,0.900000,0.850000,0.900000,0.885355,0.885355,0.885355,0.885355,$1*%
G04 Aperture macros list end*
%ADD10C,0.150000*%
%ADD11C,0.200000*%
%ADD12C,0.120000*%
%ADD13C,0.250000*%
%ADD14C,0.300000*%
%ADD15RoundRect,0.243750X-0.456250X0.243750X-0.456250X-0.243750X0.456250X-0.243750X0.456250X0.243750X0*%
%ADD16RoundRect,0.135000X-0.135000X-0.185000X0.135000X-0.185000X0.135000X0.185000X-0.135000X0.185000X0*%
%ADD17RoundRect,0.250000X-1.450000X-0.650000X1.450000X-0.650000X1.450000X0.650000X-1.450000X0.650000X0*%
%ADD18RoundRect,0.150000X-0.587500X-0.150000X0.587500X-0.150000X0.587500X0.150000X-0.587500X0.150000X0*%
%ADD19R,0.120000X0.500000*%
%ADD20RoundRect,0.250000X0.650000X-1.450000X0.650000X1.450000X-0.650000X1.450000X-0.650000X-1.450000X0*%
%ADD21R,0.800000X0.200000*%
%ADD22R,0.200000X0.800000*%
%ADD23FreePoly0,90.000000*%
%ADD24RoundRect,0.175000X1.175000X-0.175000X1.175000X0.175000X-1.175000X0.175000X-1.175000X-0.175000X0*%
%ADD25RoundRect,0.250000X0.700000X-0.300000X0.700000X0.300000X-0.700000X0.300000X-0.700000X-0.300000X0*%
%ADD26RoundRect,0.250000X-0.650000X1.450000X-0.650000X-1.450000X0.650000X-1.450000X0.650000X1.450000X0*%
%ADD27RoundRect,0.250000X-0.325000X-0.650000X0.325000X-0.650000X0.325000X0.650000X-0.325000X0.650000X0*%
%ADD28R,0.650000X1.050000*%
%ADD29RoundRect,0.250000X-0.625000X0.312500X-0.625000X-0.312500X0.625000X-0.312500X0.625000X0.312500X0*%
%ADD30RoundRect,0.140000X-0.170000X0.140000X-0.170000X-0.140000X0.170000X-0.140000X0.170000X0.140000X0*%
%ADD31RoundRect,0.050000X-0.300000X0.150000X-0.300000X-0.150000X0.300000X-0.150000X0.300000X0.150000X0*%
%ADD32R,1.000000X0.600000*%
%ADD33RoundRect,0.135000X0.135000X0.185000X-0.135000X0.185000X-0.135000X-0.185000X0.135000X-0.185000X0*%
%ADD34RoundRect,0.140000X0.170000X-0.140000X0.170000X0.140000X-0.170000X0.140000X-0.170000X-0.140000X0*%
%ADD35RoundRect,0.175000X-1.675000X0.175000X-1.675000X-0.175000X1.675000X-0.175000X1.675000X0.175000X0*%
%ADD36RoundRect,0.250001X-0.899999X0.499999X-0.899999X-0.499999X0.899999X-0.499999X0.899999X0.499999X0*%
%ADD37C,3.500000*%
%ADD38RoundRect,0.140000X0.140000X0.170000X-0.140000X0.170000X-0.140000X-0.170000X0.140000X-0.170000X0*%
%ADD39RoundRect,0.140000X-0.140000X-0.170000X0.140000X-0.170000X0.140000X0.170000X-0.140000X0.170000X0*%
%ADD40RoundRect,0.135000X0.185000X-0.135000X0.185000X0.135000X-0.185000X0.135000X-0.185000X-0.135000X0*%
%ADD41RoundRect,0.135000X-0.185000X0.135000X-0.185000X-0.135000X0.185000X-0.135000X0.185000X0.135000X0*%
%ADD42RoundRect,0.225000X-0.225000X-0.250000X0.225000X-0.250000X0.225000X0.250000X-0.225000X0.250000X0*%
%ADD43R,1.400000X1.500000*%
%ADD44C,1.400000*%
%ADD45RoundRect,0.218750X0.218750X0.256250X-0.218750X0.256250X-0.218750X-0.256250X0.218750X-0.256250X0*%
%ADD46O,1.700000X1.000000*%
%ADD47R,1.200000X0.700000*%
%ADD48R,1.200000X0.800000*%
%ADD49RoundRect,0.175000X-1.175000X0.175000X-1.175000X-0.175000X1.175000X-0.175000X1.175000X0.175000X0*%
%ADD50RoundRect,0.250000X-0.700000X0.300000X-0.700000X-0.300000X0.700000X-0.300000X0.700000X0.300000X0*%
%ADD51RoundRect,0.150000X0.587500X0.150000X-0.587500X0.150000X-0.587500X-0.150000X0.587500X-0.150000X0*%
%ADD52RoundRect,0.062500X-0.187500X-0.062500X0.187500X-0.062500X0.187500X0.062500X-0.187500X0.062500X0*%
%ADD53R,0.900000X1.600000*%
G04 APERTURE END LIST*
D10*
X160000000Y-65100000D02*
X160000000Y-60800000D01*
X150200000Y-92500000D02*
X145900000Y-92500000D01*
X145600000Y-62500000D02*
X159400000Y-62500000D01*
X135600000Y-62500000D02*
X144400000Y-62500000D01*
X150390000Y-66330000D02*
X161390000Y-66330000D01*
X150390000Y-73330000D02*
G75*
G02*
X148890000Y-71830000I0J1500000D01*
G01*
X135600000Y-107500000D02*
X144400000Y-107500000D01*
X148500000Y-93210000D02*
X148500000Y-101900000D01*
X145600000Y-107500000D02*
X174400000Y-107500000D01*
X148500000Y-73100000D02*
X148500000Y-91900000D01*
X148890000Y-67830000D02*
G75*
G02*
X150390000Y-66330000I1500000J0D01*
G01*
X161390000Y-66330000D02*
G75*
G02*
X162890000Y-67830000I0J-1500000D01*
G01*
X145000000Y-109250000D02*
X145000000Y-104950000D01*
X160600000Y-62500000D02*
X174400000Y-62500000D01*
X162890000Y-67830000D02*
X162890000Y-71830000D01*
X148890000Y-67830000D02*
X148890000Y-71787107D01*
X150390000Y-73330000D02*
X161390000Y-73330000D01*
X162890000Y-71830000D02*
G75*
G02*
X161390000Y-73330000I-1500000J0D01*
G01*
X145000000Y-65100000D02*
X145000000Y-60800000D01*
X155314819Y-82515720D02*
X154314819Y-82515720D01*
X154314819Y-82515720D02*
X154314819Y-82134768D01*
X154314819Y-82134768D02*
X154362438Y-82039530D01*
X154362438Y-82039530D02*
X154410057Y-81991911D01*
X154410057Y-81991911D02*
X154505295Y-81944292D01*
X154505295Y-81944292D02*
X154648152Y-81944292D01*
X154648152Y-81944292D02*
X154743390Y-81991911D01*
X154743390Y-81991911D02*
X154791009Y-82039530D01*
X154791009Y-82039530D02*
X154838628Y-82134768D01*
X154838628Y-82134768D02*
X154838628Y-82515720D01*
X154314819Y-81610958D02*
X155314819Y-81372863D01*
X155314819Y-81372863D02*
X154600533Y-81182387D01*
X154600533Y-81182387D02*
X155314819Y-80991911D01*
X155314819Y-80991911D02*
X154314819Y-80753816D01*
X155314819Y-79801435D02*
X154838628Y-80134768D01*
X155314819Y-80372863D02*
X154314819Y-80372863D01*
X154314819Y-80372863D02*
X154314819Y-79991911D01*
X154314819Y-79991911D02*
X154362438Y-79896673D01*
X154362438Y-79896673D02*
X154410057Y-79849054D01*
X154410057Y-79849054D02*
X154505295Y-79801435D01*
X154505295Y-79801435D02*
X154648152Y-79801435D01*
X154648152Y-79801435D02*
X154743390Y-79849054D01*
X154743390Y-79849054D02*
X154791009Y-79896673D01*
X154791009Y-79896673D02*
X154838628Y-79991911D01*
X154838628Y-79991911D02*
X154838628Y-80372863D01*
X170696553Y-84266819D02*
X170363220Y-83790628D01*
X170125125Y-84266819D02*
X170125125Y-83266819D01*
X170125125Y-83266819D02*
X170506077Y-83266819D01*
X170506077Y-83266819D02*
X170601315Y-83314438D01*
X170601315Y-83314438D02*
X170648934Y-83362057D01*
X170648934Y-83362057D02*
X170696553Y-83457295D01*
X170696553Y-83457295D02*
X170696553Y-83600152D01*
X170696553Y-83600152D02*
X170648934Y-83695390D01*
X170648934Y-83695390D02*
X170601315Y-83743009D01*
X170601315Y-83743009D02*
X170506077Y-83790628D01*
X170506077Y-83790628D02*
X170125125Y-83790628D01*
X171077506Y-84219200D02*
X171220363Y-84266819D01*
X171220363Y-84266819D02*
X171458458Y-84266819D01*
X171458458Y-84266819D02*
X171553696Y-84219200D01*
X171553696Y-84219200D02*
X171601315Y-84171580D01*
X171601315Y-84171580D02*
X171648934Y-84076342D01*
X171648934Y-84076342D02*
X171648934Y-83981104D01*
X171648934Y-83981104D02*
X171601315Y-83885866D01*
X171601315Y-83885866D02*
X171553696Y-83838247D01*
X171553696Y-83838247D02*
X171458458Y-83790628D01*
X171458458Y-83790628D02*
X171267982Y-83743009D01*
X171267982Y-83743009D02*
X171172744Y-83695390D01*
X171172744Y-83695390D02*
X171125125Y-83647771D01*
X171125125Y-83647771D02*
X171077506Y-83552533D01*
X171077506Y-83552533D02*
X171077506Y-83457295D01*
X171077506Y-83457295D02*
X171125125Y-83362057D01*
X171125125Y-83362057D02*
X171172744Y-83314438D01*
X171172744Y-83314438D02*
X171267982Y-83266819D01*
X171267982Y-83266819D02*
X171506077Y-83266819D01*
X171506077Y-83266819D02*
X171648934Y-83314438D01*
X171934649Y-83266819D02*
X172506077Y-83266819D01*
X172220363Y-84266819D02*
X172220363Y-83266819D01*
X171458458Y-81254819D02*
X171125125Y-80778628D01*
X170887030Y-81254819D02*
X170887030Y-80254819D01*
X170887030Y-80254819D02*
X171267982Y-80254819D01*
X171267982Y-80254819D02*
X171363220Y-80302438D01*
X171363220Y-80302438D02*
X171410839Y-80350057D01*
X171410839Y-80350057D02*
X171458458Y-80445295D01*
X171458458Y-80445295D02*
X171458458Y-80588152D01*
X171458458Y-80588152D02*
X171410839Y-80683390D01*
X171410839Y-80683390D02*
X171363220Y-80731009D01*
X171363220Y-80731009D02*
X171267982Y-80778628D01*
X171267982Y-80778628D02*
X170887030Y-80778628D01*
X171791792Y-80254819D02*
X172458458Y-81254819D01*
X172458458Y-80254819D02*
X171791792Y-81254819D01*
X150666667Y-108039819D02*
X151000000Y-109039819D01*
X151000000Y-109039819D02*
X151333333Y-108039819D01*
X151619048Y-108992200D02*
X151761905Y-109039819D01*
X151761905Y-109039819D02*
X152000000Y-109039819D01*
X152000000Y-109039819D02*
X152095238Y-108992200D01*
X152095238Y-108992200D02*
X152142857Y-108944580D01*
X152142857Y-108944580D02*
X152190476Y-108849342D01*
X152190476Y-108849342D02*
X152190476Y-108754104D01*
X152190476Y-108754104D02*
X152142857Y-108658866D01*
X152142857Y-108658866D02*
X152095238Y-108611247D01*
X152095238Y-108611247D02*
X152000000Y-108563628D01*
X152000000Y-108563628D02*
X151809524Y-108516009D01*
X151809524Y-108516009D02*
X151714286Y-108468390D01*
X151714286Y-108468390D02*
X151666667Y-108420771D01*
X151666667Y-108420771D02*
X151619048Y-108325533D01*
X151619048Y-108325533D02*
X151619048Y-108230295D01*
X151619048Y-108230295D02*
X151666667Y-108135057D01*
X151666667Y-108135057D02*
X151714286Y-108087438D01*
X151714286Y-108087438D02*
X151809524Y-108039819D01*
X151809524Y-108039819D02*
X152047619Y-108039819D01*
X152047619Y-108039819D02*
X152190476Y-108087438D01*
X152619048Y-109039819D02*
X152619048Y-108039819D01*
X152619048Y-108039819D02*
X153190476Y-109039819D01*
X153190476Y-109039819D02*
X153190476Y-108039819D01*
X154000000Y-108516009D02*
X154142857Y-108563628D01*
X154142857Y-108563628D02*
X154190476Y-108611247D01*
X154190476Y-108611247D02*
X154238095Y-108706485D01*
X154238095Y-108706485D02*
X154238095Y-108849342D01*
X154238095Y-108849342D02*
X154190476Y-108944580D01*
X154190476Y-108944580D02*
X154142857Y-108992200D01*
X154142857Y-108992200D02*
X154047619Y-109039819D01*
X154047619Y-109039819D02*
X153666667Y-109039819D01*
X153666667Y-109039819D02*
X153666667Y-108039819D01*
X153666667Y-108039819D02*
X154000000Y-108039819D01*
X154000000Y-108039819D02*
X154095238Y-108087438D01*
X154095238Y-108087438D02*
X154142857Y-108135057D01*
X154142857Y-108135057D02*
X154190476Y-108230295D01*
X154190476Y-108230295D02*
X154190476Y-108325533D01*
X154190476Y-108325533D02*
X154142857Y-108420771D01*
X154142857Y-108420771D02*
X154095238Y-108468390D01*
X154095238Y-108468390D02*
X154000000Y-108516009D01*
X154000000Y-108516009D02*
X153666667Y-108516009D01*
X136404762Y-61069819D02*
X136738095Y-62069819D01*
X136738095Y-62069819D02*
X137071428Y-61069819D01*
X137404762Y-62069819D02*
X137404762Y-61069819D01*
X137880952Y-62069819D02*
X137880952Y-61069819D01*
X137880952Y-61069819D02*
X138452380Y-62069819D01*
X138452380Y-62069819D02*
X138452380Y-61069819D01*
X137593922Y-93154819D02*
X137927255Y-94154819D01*
X137927255Y-94154819D02*
X138260588Y-93154819D01*
X141500000Y-109039819D02*
X141500000Y-108039819D01*
X141976190Y-109039819D02*
X141976190Y-108039819D01*
X141976190Y-108039819D02*
X142547618Y-109039819D01*
X142547618Y-109039819D02*
X142547618Y-108039819D01*
X142976190Y-108135057D02*
X143023809Y-108087438D01*
X143023809Y-108087438D02*
X143119047Y-108039819D01*
X143119047Y-108039819D02*
X143357142Y-108039819D01*
X143357142Y-108039819D02*
X143452380Y-108087438D01*
X143452380Y-108087438D02*
X143499999Y-108135057D01*
X143499999Y-108135057D02*
X143547618Y-108230295D01*
X143547618Y-108230295D02*
X143547618Y-108325533D01*
X143547618Y-108325533D02*
X143499999Y-108468390D01*
X143499999Y-108468390D02*
X142928571Y-109039819D01*
X142928571Y-109039819D02*
X143547618Y-109039819D01*
D11*
X130471429Y-89585600D02*
X130642858Y-89642742D01*
X130642858Y-89642742D02*
X130928572Y-89642742D01*
X130928572Y-89642742D02*
X131042858Y-89585600D01*
X131042858Y-89585600D02*
X131100000Y-89528457D01*
X131100000Y-89528457D02*
X131157143Y-89414171D01*
X131157143Y-89414171D02*
X131157143Y-89299885D01*
X131157143Y-89299885D02*
X131100000Y-89185600D01*
X131100000Y-89185600D02*
X131042858Y-89128457D01*
X131042858Y-89128457D02*
X130928572Y-89071314D01*
X130928572Y-89071314D02*
X130700000Y-89014171D01*
X130700000Y-89014171D02*
X130585715Y-88957028D01*
X130585715Y-88957028D02*
X130528572Y-88899885D01*
X130528572Y-88899885D02*
X130471429Y-88785600D01*
X130471429Y-88785600D02*
X130471429Y-88671314D01*
X130471429Y-88671314D02*
X130528572Y-88557028D01*
X130528572Y-88557028D02*
X130585715Y-88499885D01*
X130585715Y-88499885D02*
X130700000Y-88442742D01*
X130700000Y-88442742D02*
X130985715Y-88442742D01*
X130985715Y-88442742D02*
X131157143Y-88499885D01*
X131671429Y-89014171D02*
X132071429Y-89014171D01*
X132242857Y-89642742D02*
X131671429Y-89642742D01*
X131671429Y-89642742D02*
X131671429Y-88442742D01*
X131671429Y-88442742D02*
X132242857Y-88442742D01*
X133442857Y-89642742D02*
X133042857Y-89071314D01*
X132757143Y-89642742D02*
X132757143Y-88442742D01*
X132757143Y-88442742D02*
X133214286Y-88442742D01*
X133214286Y-88442742D02*
X133328571Y-88499885D01*
X133328571Y-88499885D02*
X133385714Y-88557028D01*
X133385714Y-88557028D02*
X133442857Y-88671314D01*
X133442857Y-88671314D02*
X133442857Y-88842742D01*
X133442857Y-88842742D02*
X133385714Y-88957028D01*
X133385714Y-88957028D02*
X133328571Y-89014171D01*
X133328571Y-89014171D02*
X133214286Y-89071314D01*
X133214286Y-89071314D02*
X132757143Y-89071314D01*
X133785714Y-88442742D02*
X134185714Y-89642742D01*
X134185714Y-89642742D02*
X134585714Y-88442742D01*
X135214285Y-88442742D02*
X135442857Y-88442742D01*
X135442857Y-88442742D02*
X135557142Y-88499885D01*
X135557142Y-88499885D02*
X135671428Y-88614171D01*
X135671428Y-88614171D02*
X135728571Y-88842742D01*
X135728571Y-88842742D02*
X135728571Y-89242742D01*
X135728571Y-89242742D02*
X135671428Y-89471314D01*
X135671428Y-89471314D02*
X135557142Y-89585600D01*
X135557142Y-89585600D02*
X135442857Y-89642742D01*
X135442857Y-89642742D02*
X135214285Y-89642742D01*
X135214285Y-89642742D02*
X135100000Y-89585600D01*
X135100000Y-89585600D02*
X134985714Y-89471314D01*
X134985714Y-89471314D02*
X134928571Y-89242742D01*
X134928571Y-89242742D02*
X134928571Y-88842742D01*
X134928571Y-88842742D02*
X134985714Y-88614171D01*
X134985714Y-88614171D02*
X135100000Y-88499885D01*
X135100000Y-88499885D02*
X135214285Y-88442742D01*
D10*
X155666667Y-108039819D02*
X156000000Y-109039819D01*
X156000000Y-109039819D02*
X156333333Y-108039819D01*
X156666667Y-109039819D02*
X156666667Y-108039819D01*
X156666667Y-108039819D02*
X157047619Y-108039819D01*
X157047619Y-108039819D02*
X157142857Y-108087438D01*
X157142857Y-108087438D02*
X157190476Y-108135057D01*
X157190476Y-108135057D02*
X157238095Y-108230295D01*
X157238095Y-108230295D02*
X157238095Y-108373152D01*
X157238095Y-108373152D02*
X157190476Y-108468390D01*
X157190476Y-108468390D02*
X157142857Y-108516009D01*
X157142857Y-108516009D02*
X157047619Y-108563628D01*
X157047619Y-108563628D02*
X156666667Y-108563628D01*
X157857143Y-108039819D02*
X158047619Y-108039819D01*
X158047619Y-108039819D02*
X158142857Y-108087438D01*
X158142857Y-108087438D02*
X158238095Y-108182676D01*
X158238095Y-108182676D02*
X158285714Y-108373152D01*
X158285714Y-108373152D02*
X158285714Y-108706485D01*
X158285714Y-108706485D02*
X158238095Y-108896961D01*
X158238095Y-108896961D02*
X158142857Y-108992200D01*
X158142857Y-108992200D02*
X158047619Y-109039819D01*
X158047619Y-109039819D02*
X157857143Y-109039819D01*
X157857143Y-109039819D02*
X157761905Y-108992200D01*
X157761905Y-108992200D02*
X157666667Y-108896961D01*
X157666667Y-108896961D02*
X157619048Y-108706485D01*
X157619048Y-108706485D02*
X157619048Y-108373152D01*
X157619048Y-108373152D02*
X157666667Y-108182676D01*
X157666667Y-108182676D02*
X157761905Y-108087438D01*
X157761905Y-108087438D02*
X157857143Y-108039819D01*
X158666667Y-108992200D02*
X158809524Y-109039819D01*
X158809524Y-109039819D02*
X159047619Y-109039819D01*
X159047619Y-109039819D02*
X159142857Y-108992200D01*
X159142857Y-108992200D02*
X159190476Y-108944580D01*
X159190476Y-108944580D02*
X159238095Y-108849342D01*
X159238095Y-108849342D02*
X159238095Y-108754104D01*
X159238095Y-108754104D02*
X159190476Y-108658866D01*
X159190476Y-108658866D02*
X159142857Y-108611247D01*
X159142857Y-108611247D02*
X159047619Y-108563628D01*
X159047619Y-108563628D02*
X158857143Y-108516009D01*
X158857143Y-108516009D02*
X158761905Y-108468390D01*
X158761905Y-108468390D02*
X158714286Y-108420771D01*
X158714286Y-108420771D02*
X158666667Y-108325533D01*
X158666667Y-108325533D02*
X158666667Y-108230295D01*
X158666667Y-108230295D02*
X158714286Y-108135057D01*
X158714286Y-108135057D02*
X158761905Y-108087438D01*
X158761905Y-108087438D02*
X158857143Y-108039819D01*
X158857143Y-108039819D02*
X159095238Y-108039819D01*
X159095238Y-108039819D02*
X159238095Y-108087438D01*
D11*
X164254136Y-69714171D02*
X164425564Y-69771314D01*
X164425564Y-69771314D02*
X164482707Y-69828457D01*
X164482707Y-69828457D02*
X164539850Y-69942742D01*
X164539850Y-69942742D02*
X164539850Y-70114171D01*
X164539850Y-70114171D02*
X164482707Y-70228457D01*
X164482707Y-70228457D02*
X164425564Y-70285600D01*
X164425564Y-70285600D02*
X164311279Y-70342742D01*
X164311279Y-70342742D02*
X163854136Y-70342742D01*
X163854136Y-70342742D02*
X163854136Y-69142742D01*
X163854136Y-69142742D02*
X164254136Y-69142742D01*
X164254136Y-69142742D02*
X164368422Y-69199885D01*
X164368422Y-69199885D02*
X164425564Y-69257028D01*
X164425564Y-69257028D02*
X164482707Y-69371314D01*
X164482707Y-69371314D02*
X164482707Y-69485600D01*
X164482707Y-69485600D02*
X164425564Y-69599885D01*
X164425564Y-69599885D02*
X164368422Y-69657028D01*
X164368422Y-69657028D02*
X164254136Y-69714171D01*
X164254136Y-69714171D02*
X163854136Y-69714171D01*
X165054136Y-69142742D02*
X165054136Y-70114171D01*
X165054136Y-70114171D02*
X165111279Y-70228457D01*
X165111279Y-70228457D02*
X165168422Y-70285600D01*
X165168422Y-70285600D02*
X165282707Y-70342742D01*
X165282707Y-70342742D02*
X165511279Y-70342742D01*
X165511279Y-70342742D02*
X165625564Y-70285600D01*
X165625564Y-70285600D02*
X165682707Y-70228457D01*
X165682707Y-70228457D02*
X165739850Y-70114171D01*
X165739850Y-70114171D02*
X165739850Y-69142742D01*
X166254136Y-70285600D02*
X166425565Y-70342742D01*
X166425565Y-70342742D02*
X166711279Y-70342742D01*
X166711279Y-70342742D02*
X166825565Y-70285600D01*
X166825565Y-70285600D02*
X166882707Y-70228457D01*
X166882707Y-70228457D02*
X166939850Y-70114171D01*
X166939850Y-70114171D02*
X166939850Y-69999885D01*
X166939850Y-69999885D02*
X166882707Y-69885600D01*
X166882707Y-69885600D02*
X166825565Y-69828457D01*
X166825565Y-69828457D02*
X166711279Y-69771314D01*
X166711279Y-69771314D02*
X166482707Y-69714171D01*
X166482707Y-69714171D02*
X166368422Y-69657028D01*
X166368422Y-69657028D02*
X166311279Y-69599885D01*
X166311279Y-69599885D02*
X166254136Y-69485600D01*
X166254136Y-69485600D02*
X166254136Y-69371314D01*
X166254136Y-69371314D02*
X166311279Y-69257028D01*
X166311279Y-69257028D02*
X166368422Y-69199885D01*
X166368422Y-69199885D02*
X166482707Y-69142742D01*
X166482707Y-69142742D02*
X166768422Y-69142742D01*
X166768422Y-69142742D02*
X166939850Y-69199885D01*
D10*
X149889819Y-91785713D02*
X148889819Y-91785713D01*
X148889819Y-91785713D02*
X148889819Y-91404761D01*
X148889819Y-91404761D02*
X148937438Y-91309523D01*
X148937438Y-91309523D02*
X148985057Y-91261904D01*
X148985057Y-91261904D02*
X149080295Y-91214285D01*
X149080295Y-91214285D02*
X149223152Y-91214285D01*
X149223152Y-91214285D02*
X149318390Y-91261904D01*
X149318390Y-91261904D02*
X149366009Y-91309523D01*
X149366009Y-91309523D02*
X149413628Y-91404761D01*
X149413628Y-91404761D02*
X149413628Y-91785713D01*
X148937438Y-90261904D02*
X148889819Y-90357142D01*
X148889819Y-90357142D02*
X148889819Y-90499999D01*
X148889819Y-90499999D02*
X148937438Y-90642856D01*
X148937438Y-90642856D02*
X149032676Y-90738094D01*
X149032676Y-90738094D02*
X149127914Y-90785713D01*
X149127914Y-90785713D02*
X149318390Y-90833332D01*
X149318390Y-90833332D02*
X149461247Y-90833332D01*
X149461247Y-90833332D02*
X149651723Y-90785713D01*
X149651723Y-90785713D02*
X149746961Y-90738094D01*
X149746961Y-90738094D02*
X149842200Y-90642856D01*
X149842200Y-90642856D02*
X149889819Y-90499999D01*
X149889819Y-90499999D02*
X149889819Y-90404761D01*
X149889819Y-90404761D02*
X149842200Y-90261904D01*
X149842200Y-90261904D02*
X149794580Y-90214285D01*
X149794580Y-90214285D02*
X149461247Y-90214285D01*
X149461247Y-90214285D02*
X149461247Y-90404761D01*
X149889819Y-89785713D02*
X148889819Y-89785713D01*
X148889819Y-89785713D02*
X149889819Y-89214285D01*
X149889819Y-89214285D02*
X148889819Y-89214285D01*
X149889819Y-88738094D02*
X148889819Y-88738094D01*
X148889819Y-88738094D02*
X148889819Y-88499999D01*
X148889819Y-88499999D02*
X148937438Y-88357142D01*
X148937438Y-88357142D02*
X149032676Y-88261904D01*
X149032676Y-88261904D02*
X149127914Y-88214285D01*
X149127914Y-88214285D02*
X149318390Y-88166666D01*
X149318390Y-88166666D02*
X149461247Y-88166666D01*
X149461247Y-88166666D02*
X149651723Y-88214285D01*
X149651723Y-88214285D02*
X149746961Y-88261904D01*
X149746961Y-88261904D02*
X149842200Y-88357142D01*
X149842200Y-88357142D02*
X149889819Y-88499999D01*
X149889819Y-88499999D02*
X149889819Y-88738094D01*
X156238095Y-62069819D02*
X156238095Y-61069819D01*
X156238095Y-61069819D02*
X156476190Y-61069819D01*
X156476190Y-61069819D02*
X156619047Y-61117438D01*
X156619047Y-61117438D02*
X156714285Y-61212676D01*
X156714285Y-61212676D02*
X156761904Y-61307914D01*
X156761904Y-61307914D02*
X156809523Y-61498390D01*
X156809523Y-61498390D02*
X156809523Y-61641247D01*
X156809523Y-61641247D02*
X156761904Y-61831723D01*
X156761904Y-61831723D02*
X156714285Y-61926961D01*
X156714285Y-61926961D02*
X156619047Y-62022200D01*
X156619047Y-62022200D02*
X156476190Y-62069819D01*
X156476190Y-62069819D02*
X156238095Y-62069819D01*
X157571428Y-61546009D02*
X157714285Y-61593628D01*
X157714285Y-61593628D02*
X157761904Y-61641247D01*
X157761904Y-61641247D02*
X157809523Y-61736485D01*
X157809523Y-61736485D02*
X157809523Y-61879342D01*
X157809523Y-61879342D02*
X157761904Y-61974580D01*
X157761904Y-61974580D02*
X157714285Y-62022200D01*
X157714285Y-62022200D02*
X157619047Y-62069819D01*
X157619047Y-62069819D02*
X157238095Y-62069819D01*
X157238095Y-62069819D02*
X157238095Y-61069819D01*
X157238095Y-61069819D02*
X157571428Y-61069819D01*
X157571428Y-61069819D02*
X157666666Y-61117438D01*
X157666666Y-61117438D02*
X157714285Y-61165057D01*
X157714285Y-61165057D02*
X157761904Y-61260295D01*
X157761904Y-61260295D02*
X157761904Y-61355533D01*
X157761904Y-61355533D02*
X157714285Y-61450771D01*
X157714285Y-61450771D02*
X157666666Y-61498390D01*
X157666666Y-61498390D02*
X157571428Y-61546009D01*
X157571428Y-61546009D02*
X157238095Y-61546009D01*
X158761904Y-61117438D02*
X158666666Y-61069819D01*
X158666666Y-61069819D02*
X158523809Y-61069819D01*
X158523809Y-61069819D02*
X158380952Y-61117438D01*
X158380952Y-61117438D02*
X158285714Y-61212676D01*
X158285714Y-61212676D02*
X158238095Y-61307914D01*
X158238095Y-61307914D02*
X158190476Y-61498390D01*
X158190476Y-61498390D02*
X158190476Y-61641247D01*
X158190476Y-61641247D02*
X158238095Y-61831723D01*
X158238095Y-61831723D02*
X158285714Y-61926961D01*
X158285714Y-61926961D02*
X158380952Y-62022200D01*
X158380952Y-62022200D02*
X158523809Y-62069819D01*
X158523809Y-62069819D02*
X158619047Y-62069819D01*
X158619047Y-62069819D02*
X158761904Y-62022200D01*
X158761904Y-62022200D02*
X158809523Y-61974580D01*
X158809523Y-61974580D02*
X158809523Y-61641247D01*
X158809523Y-61641247D02*
X158619047Y-61641247D01*
X170761905Y-108516009D02*
X171095238Y-108516009D01*
X171238095Y-109039819D02*
X170761905Y-109039819D01*
X170761905Y-109039819D02*
X170761905Y-108039819D01*
X170761905Y-108039819D02*
X171238095Y-108039819D01*
X171666667Y-109039819D02*
X171666667Y-108039819D01*
X171666667Y-108039819D02*
X172238095Y-109039819D01*
X172238095Y-109039819D02*
X172238095Y-108039819D01*
X173285714Y-108944580D02*
X173238095Y-108992200D01*
X173238095Y-108992200D02*
X173095238Y-109039819D01*
X173095238Y-109039819D02*
X173000000Y-109039819D01*
X173000000Y-109039819D02*
X172857143Y-108992200D01*
X172857143Y-108992200D02*
X172761905Y-108896961D01*
X172761905Y-108896961D02*
X172714286Y-108801723D01*
X172714286Y-108801723D02*
X172666667Y-108611247D01*
X172666667Y-108611247D02*
X172666667Y-108468390D01*
X172666667Y-108468390D02*
X172714286Y-108277914D01*
X172714286Y-108277914D02*
X172761905Y-108182676D01*
X172761905Y-108182676D02*
X172857143Y-108087438D01*
X172857143Y-108087438D02*
X173000000Y-108039819D01*
X173000000Y-108039819D02*
X173095238Y-108039819D01*
X173095238Y-108039819D02*
X173238095Y-108087438D01*
X173238095Y-108087438D02*
X173285714Y-108135057D01*
X174047619Y-108516009D02*
X174190476Y-108563628D01*
X174190476Y-108563628D02*
X174238095Y-108611247D01*
X174238095Y-108611247D02*
X174285714Y-108706485D01*
X174285714Y-108706485D02*
X174285714Y-108849342D01*
X174285714Y-108849342D02*
X174238095Y-108944580D01*
X174238095Y-108944580D02*
X174190476Y-108992200D01*
X174190476Y-108992200D02*
X174095238Y-109039819D01*
X174095238Y-109039819D02*
X173714286Y-109039819D01*
X173714286Y-109039819D02*
X173714286Y-108039819D01*
X173714286Y-108039819D02*
X174047619Y-108039819D01*
X174047619Y-108039819D02*
X174142857Y-108087438D01*
X174142857Y-108087438D02*
X174190476Y-108135057D01*
X174190476Y-108135057D02*
X174238095Y-108230295D01*
X174238095Y-108230295D02*
X174238095Y-108325533D01*
X174238095Y-108325533D02*
X174190476Y-108420771D01*
X174190476Y-108420771D02*
X174142857Y-108468390D01*
X174142857Y-108468390D02*
X174047619Y-108516009D01*
X174047619Y-108516009D02*
X173714286Y-108516009D01*
X135510588Y-66002438D02*
X135415350Y-65954819D01*
X135415350Y-65954819D02*
X135272493Y-65954819D01*
X135272493Y-65954819D02*
X135129636Y-66002438D01*
X135129636Y-66002438D02*
X135034398Y-66097676D01*
X135034398Y-66097676D02*
X134986779Y-66192914D01*
X134986779Y-66192914D02*
X134939160Y-66383390D01*
X134939160Y-66383390D02*
X134939160Y-66526247D01*
X134939160Y-66526247D02*
X134986779Y-66716723D01*
X134986779Y-66716723D02*
X135034398Y-66811961D01*
X135034398Y-66811961D02*
X135129636Y-66907200D01*
X135129636Y-66907200D02*
X135272493Y-66954819D01*
X135272493Y-66954819D02*
X135367731Y-66954819D01*
X135367731Y-66954819D02*
X135510588Y-66907200D01*
X135510588Y-66907200D02*
X135558207Y-66859580D01*
X135558207Y-66859580D02*
X135558207Y-66526247D01*
X135558207Y-66526247D02*
X135367731Y-66526247D01*
X135986779Y-66954819D02*
X135986779Y-65954819D01*
X135986779Y-65954819D02*
X136558207Y-66954819D01*
X136558207Y-66954819D02*
X136558207Y-65954819D01*
X137034398Y-66954819D02*
X137034398Y-65954819D01*
X137034398Y-65954819D02*
X137272493Y-65954819D01*
X137272493Y-65954819D02*
X137415350Y-66002438D01*
X137415350Y-66002438D02*
X137510588Y-66097676D01*
X137510588Y-66097676D02*
X137558207Y-66192914D01*
X137558207Y-66192914D02*
X137605826Y-66383390D01*
X137605826Y-66383390D02*
X137605826Y-66526247D01*
X137605826Y-66526247D02*
X137558207Y-66716723D01*
X137558207Y-66716723D02*
X137510588Y-66811961D01*
X137510588Y-66811961D02*
X137415350Y-66907200D01*
X137415350Y-66907200D02*
X137272493Y-66954819D01*
X137272493Y-66954819D02*
X137034398Y-66954819D01*
X138070112Y-98131009D02*
X138212969Y-98178628D01*
X138212969Y-98178628D02*
X138260588Y-98226247D01*
X138260588Y-98226247D02*
X138308207Y-98321485D01*
X138308207Y-98321485D02*
X138308207Y-98464342D01*
X138308207Y-98464342D02*
X138260588Y-98559580D01*
X138260588Y-98559580D02*
X138212969Y-98607200D01*
X138212969Y-98607200D02*
X138117731Y-98654819D01*
X138117731Y-98654819D02*
X137736779Y-98654819D01*
X137736779Y-98654819D02*
X137736779Y-97654819D01*
X137736779Y-97654819D02*
X138070112Y-97654819D01*
X138070112Y-97654819D02*
X138165350Y-97702438D01*
X138165350Y-97702438D02*
X138212969Y-97750057D01*
X138212969Y-97750057D02*
X138260588Y-97845295D01*
X138260588Y-97845295D02*
X138260588Y-97940533D01*
X138260588Y-97940533D02*
X138212969Y-98035771D01*
X138212969Y-98035771D02*
X138165350Y-98083390D01*
X138165350Y-98083390D02*
X138070112Y-98131009D01*
X138070112Y-98131009D02*
X137736779Y-98131009D01*
D11*
X168839849Y-79792742D02*
X168268421Y-79792742D01*
X168268421Y-79792742D02*
X168268421Y-78592742D01*
X169239850Y-79792742D02*
X169239850Y-78592742D01*
X169811279Y-79792742D02*
X169811279Y-78592742D01*
X169811279Y-78592742D02*
X170496993Y-79792742D01*
X170496993Y-79792742D02*
X170496993Y-78592742D01*
X171068422Y-79792742D02*
X171068422Y-78592742D01*
X171754136Y-79792742D02*
X171239850Y-79107028D01*
X171754136Y-78592742D02*
X171068422Y-79278457D01*
X172268422Y-79164171D02*
X172668422Y-79164171D01*
X172839850Y-79792742D02*
X172268422Y-79792742D01*
X172268422Y-79792742D02*
X172268422Y-78592742D01*
X172268422Y-78592742D02*
X172839850Y-78592742D01*
D10*
X172965601Y-103002438D02*
X172870363Y-102954819D01*
X172870363Y-102954819D02*
X172727506Y-102954819D01*
X172727506Y-102954819D02*
X172584649Y-103002438D01*
X172584649Y-103002438D02*
X172489411Y-103097676D01*
X172489411Y-103097676D02*
X172441792Y-103192914D01*
X172441792Y-103192914D02*
X172394173Y-103383390D01*
X172394173Y-103383390D02*
X172394173Y-103526247D01*
X172394173Y-103526247D02*
X172441792Y-103716723D01*
X172441792Y-103716723D02*
X172489411Y-103811961D01*
X172489411Y-103811961D02*
X172584649Y-103907200D01*
X172584649Y-103907200D02*
X172727506Y-103954819D01*
X172727506Y-103954819D02*
X172822744Y-103954819D01*
X172822744Y-103954819D02*
X172965601Y-103907200D01*
X172965601Y-103907200D02*
X173013220Y-103859580D01*
X173013220Y-103859580D02*
X173013220Y-103526247D01*
X173013220Y-103526247D02*
X172822744Y-103526247D01*
X173441792Y-103954819D02*
X173441792Y-102954819D01*
X173441792Y-102954819D02*
X174013220Y-103954819D01*
X174013220Y-103954819D02*
X174013220Y-102954819D01*
X174489411Y-103954819D02*
X174489411Y-102954819D01*
X174489411Y-102954819D02*
X174727506Y-102954819D01*
X174727506Y-102954819D02*
X174870363Y-103002438D01*
X174870363Y-103002438D02*
X174965601Y-103097676D01*
X174965601Y-103097676D02*
X175013220Y-103192914D01*
X175013220Y-103192914D02*
X175060839Y-103383390D01*
X175060839Y-103383390D02*
X175060839Y-103526247D01*
X175060839Y-103526247D02*
X175013220Y-103716723D01*
X175013220Y-103716723D02*
X174965601Y-103811961D01*
X174965601Y-103811961D02*
X174870363Y-103907200D01*
X174870363Y-103907200D02*
X174727506Y-103954819D01*
X174727506Y-103954819D02*
X174489411Y-103954819D01*
X134770363Y-68969819D02*
X135103696Y-69969819D01*
X135103696Y-69969819D02*
X135437029Y-68969819D01*
X136103696Y-69446009D02*
X136246553Y-69493628D01*
X136246553Y-69493628D02*
X136294172Y-69541247D01*
X136294172Y-69541247D02*
X136341791Y-69636485D01*
X136341791Y-69636485D02*
X136341791Y-69779342D01*
X136341791Y-69779342D02*
X136294172Y-69874580D01*
X136294172Y-69874580D02*
X136246553Y-69922200D01*
X136246553Y-69922200D02*
X136151315Y-69969819D01*
X136151315Y-69969819D02*
X135770363Y-69969819D01*
X135770363Y-69969819D02*
X135770363Y-68969819D01*
X135770363Y-68969819D02*
X136103696Y-68969819D01*
X136103696Y-68969819D02*
X136198934Y-69017438D01*
X136198934Y-69017438D02*
X136246553Y-69065057D01*
X136246553Y-69065057D02*
X136294172Y-69160295D01*
X136294172Y-69160295D02*
X136294172Y-69255533D01*
X136294172Y-69255533D02*
X136246553Y-69350771D01*
X136246553Y-69350771D02*
X136198934Y-69398390D01*
X136198934Y-69398390D02*
X136103696Y-69446009D01*
X136103696Y-69446009D02*
X135770363Y-69446009D01*
X136722744Y-69684104D02*
X137198934Y-69684104D01*
X136627506Y-69969819D02*
X136960839Y-68969819D01*
X136960839Y-68969819D02*
X137294172Y-69969819D01*
X137484649Y-68969819D02*
X138056077Y-68969819D01*
X137770363Y-69969819D02*
X137770363Y-68969819D01*
X146761905Y-61546009D02*
X147095238Y-61546009D01*
X147238095Y-62069819D02*
X146761905Y-62069819D01*
X146761905Y-62069819D02*
X146761905Y-61069819D01*
X146761905Y-61069819D02*
X147238095Y-61069819D01*
X147666667Y-62069819D02*
X147666667Y-61069819D01*
X147666667Y-61069819D02*
X148238095Y-62069819D01*
X148238095Y-62069819D02*
X148238095Y-61069819D01*
D11*
X164912707Y-81382742D02*
X164512707Y-80811314D01*
X164226993Y-81382742D02*
X164226993Y-80182742D01*
X164226993Y-80182742D02*
X164684136Y-80182742D01*
X164684136Y-80182742D02*
X164798421Y-80239885D01*
X164798421Y-80239885D02*
X164855564Y-80297028D01*
X164855564Y-80297028D02*
X164912707Y-80411314D01*
X164912707Y-80411314D02*
X164912707Y-80582742D01*
X164912707Y-80582742D02*
X164855564Y-80697028D01*
X164855564Y-80697028D02*
X164798421Y-80754171D01*
X164798421Y-80754171D02*
X164684136Y-80811314D01*
X164684136Y-80811314D02*
X164226993Y-80811314D01*
X165369850Y-81325600D02*
X165541279Y-81382742D01*
X165541279Y-81382742D02*
X165826993Y-81382742D01*
X165826993Y-81382742D02*
X165941279Y-81325600D01*
X165941279Y-81325600D02*
X165998421Y-81268457D01*
X165998421Y-81268457D02*
X166055564Y-81154171D01*
X166055564Y-81154171D02*
X166055564Y-81039885D01*
X166055564Y-81039885D02*
X165998421Y-80925600D01*
X165998421Y-80925600D02*
X165941279Y-80868457D01*
X165941279Y-80868457D02*
X165826993Y-80811314D01*
X165826993Y-80811314D02*
X165598421Y-80754171D01*
X165598421Y-80754171D02*
X165484136Y-80697028D01*
X165484136Y-80697028D02*
X165426993Y-80639885D01*
X165426993Y-80639885D02*
X165369850Y-80525600D01*
X165369850Y-80525600D02*
X165369850Y-80411314D01*
X165369850Y-80411314D02*
X165426993Y-80297028D01*
X165426993Y-80297028D02*
X165484136Y-80239885D01*
X165484136Y-80239885D02*
X165598421Y-80182742D01*
X165598421Y-80182742D02*
X165884136Y-80182742D01*
X165884136Y-80182742D02*
X166055564Y-80239885D01*
X166398421Y-80182742D02*
X167084136Y-80182742D01*
X166741278Y-81382742D02*
X166741278Y-80182742D01*
D10*
X172333333Y-62069819D02*
X172000000Y-61593628D01*
X171761905Y-62069819D02*
X171761905Y-61069819D01*
X171761905Y-61069819D02*
X172142857Y-61069819D01*
X172142857Y-61069819D02*
X172238095Y-61117438D01*
X172238095Y-61117438D02*
X172285714Y-61165057D01*
X172285714Y-61165057D02*
X172333333Y-61260295D01*
X172333333Y-61260295D02*
X172333333Y-61403152D01*
X172333333Y-61403152D02*
X172285714Y-61498390D01*
X172285714Y-61498390D02*
X172238095Y-61546009D01*
X172238095Y-61546009D02*
X172142857Y-61593628D01*
X172142857Y-61593628D02*
X171761905Y-61593628D01*
X172666667Y-61069819D02*
X173333333Y-62069819D01*
X173333333Y-61069819D02*
X172666667Y-62069819D01*
X169982268Y-87784819D02*
X170601315Y-87784819D01*
X170601315Y-87784819D02*
X170267982Y-88165771D01*
X170267982Y-88165771D02*
X170410839Y-88165771D01*
X170410839Y-88165771D02*
X170506077Y-88213390D01*
X170506077Y-88213390D02*
X170553696Y-88261009D01*
X170553696Y-88261009D02*
X170601315Y-88356247D01*
X170601315Y-88356247D02*
X170601315Y-88594342D01*
X170601315Y-88594342D02*
X170553696Y-88689580D01*
X170553696Y-88689580D02*
X170506077Y-88737200D01*
X170506077Y-88737200D02*
X170410839Y-88784819D01*
X170410839Y-88784819D02*
X170125125Y-88784819D01*
X170125125Y-88784819D02*
X170029887Y-88737200D01*
X170029887Y-88737200D02*
X169982268Y-88689580D01*
X170887030Y-87784819D02*
X171220363Y-88784819D01*
X171220363Y-88784819D02*
X171553696Y-87784819D01*
X171791792Y-87784819D02*
X172410839Y-87784819D01*
X172410839Y-87784819D02*
X172077506Y-88165771D01*
X172077506Y-88165771D02*
X172220363Y-88165771D01*
X172220363Y-88165771D02*
X172315601Y-88213390D01*
X172315601Y-88213390D02*
X172363220Y-88261009D01*
X172363220Y-88261009D02*
X172410839Y-88356247D01*
X172410839Y-88356247D02*
X172410839Y-88594342D01*
X172410839Y-88594342D02*
X172363220Y-88689580D01*
X172363220Y-88689580D02*
X172315601Y-88737200D01*
X172315601Y-88737200D02*
X172220363Y-88784819D01*
X172220363Y-88784819D02*
X171934649Y-88784819D01*
X171934649Y-88784819D02*
X171839411Y-88737200D01*
X171839411Y-88737200D02*
X171791792Y-88689580D01*
X169029887Y-95931009D02*
X169363220Y-95931009D01*
X169506077Y-96454819D02*
X169029887Y-96454819D01*
X169029887Y-96454819D02*
X169029887Y-95454819D01*
X169029887Y-95454819D02*
X169506077Y-95454819D01*
X169934649Y-96454819D02*
X169934649Y-95454819D01*
X169934649Y-95454819D02*
X170506077Y-96454819D01*
X170506077Y-96454819D02*
X170506077Y-95454819D01*
X171553696Y-96359580D02*
X171506077Y-96407200D01*
X171506077Y-96407200D02*
X171363220Y-96454819D01*
X171363220Y-96454819D02*
X171267982Y-96454819D01*
X171267982Y-96454819D02*
X171125125Y-96407200D01*
X171125125Y-96407200D02*
X171029887Y-96311961D01*
X171029887Y-96311961D02*
X170982268Y-96216723D01*
X170982268Y-96216723D02*
X170934649Y-96026247D01*
X170934649Y-96026247D02*
X170934649Y-95883390D01*
X170934649Y-95883390D02*
X170982268Y-95692914D01*
X170982268Y-95692914D02*
X171029887Y-95597676D01*
X171029887Y-95597676D02*
X171125125Y-95502438D01*
X171125125Y-95502438D02*
X171267982Y-95454819D01*
X171267982Y-95454819D02*
X171363220Y-95454819D01*
X171363220Y-95454819D02*
X171506077Y-95502438D01*
X171506077Y-95502438D02*
X171553696Y-95550057D01*
X171934649Y-96169104D02*
X172410839Y-96169104D01*
X171839411Y-96454819D02*
X172172744Y-95454819D01*
X172172744Y-95454819D02*
X172506077Y-96454819D01*
X138260588Y-94702438D02*
X138165350Y-94654819D01*
X138165350Y-94654819D02*
X138022493Y-94654819D01*
X138022493Y-94654819D02*
X137879636Y-94702438D01*
X137879636Y-94702438D02*
X137784398Y-94797676D01*
X137784398Y-94797676D02*
X137736779Y-94892914D01*
X137736779Y-94892914D02*
X137689160Y-95083390D01*
X137689160Y-95083390D02*
X137689160Y-95226247D01*
X137689160Y-95226247D02*
X137736779Y-95416723D01*
X137736779Y-95416723D02*
X137784398Y-95511961D01*
X137784398Y-95511961D02*
X137879636Y-95607200D01*
X137879636Y-95607200D02*
X138022493Y-95654819D01*
X138022493Y-95654819D02*
X138117731Y-95654819D01*
X138117731Y-95654819D02*
X138260588Y-95607200D01*
X138260588Y-95607200D02*
X138308207Y-95559580D01*
X138308207Y-95559580D02*
X138308207Y-95226247D01*
X138308207Y-95226247D02*
X138117731Y-95226247D01*
X156234819Y-82615958D02*
X156234819Y-81996911D01*
X156234819Y-81996911D02*
X156615771Y-82330244D01*
X156615771Y-82330244D02*
X156615771Y-82187387D01*
X156615771Y-82187387D02*
X156663390Y-82092149D01*
X156663390Y-82092149D02*
X156711009Y-82044530D01*
X156711009Y-82044530D02*
X156806247Y-81996911D01*
X156806247Y-81996911D02*
X157044342Y-81996911D01*
X157044342Y-81996911D02*
X157139580Y-82044530D01*
X157139580Y-82044530D02*
X157187200Y-82092149D01*
X157187200Y-82092149D02*
X157234819Y-82187387D01*
X157234819Y-82187387D02*
X157234819Y-82473101D01*
X157234819Y-82473101D02*
X157187200Y-82568339D01*
X157187200Y-82568339D02*
X157139580Y-82615958D01*
X156234819Y-81711196D02*
X157234819Y-81377863D01*
X157234819Y-81377863D02*
X156234819Y-81044530D01*
X156234819Y-80806434D02*
X156234819Y-80187387D01*
X156234819Y-80187387D02*
X156615771Y-80520720D01*
X156615771Y-80520720D02*
X156615771Y-80377863D01*
X156615771Y-80377863D02*
X156663390Y-80282625D01*
X156663390Y-80282625D02*
X156711009Y-80235006D01*
X156711009Y-80235006D02*
X156806247Y-80187387D01*
X156806247Y-80187387D02*
X157044342Y-80187387D01*
X157044342Y-80187387D02*
X157139580Y-80235006D01*
X157139580Y-80235006D02*
X157187200Y-80282625D01*
X157187200Y-80282625D02*
X157234819Y-80377863D01*
X157234819Y-80377863D02*
X157234819Y-80663577D01*
X157234819Y-80663577D02*
X157187200Y-80758815D01*
X157187200Y-80758815D02*
X157139580Y-80806434D01*
X172439411Y-74779819D02*
X172439411Y-73779819D01*
X172439411Y-73779819D02*
X172677506Y-73779819D01*
X172677506Y-73779819D02*
X172820363Y-73827438D01*
X172820363Y-73827438D02*
X172915601Y-73922676D01*
X172915601Y-73922676D02*
X172963220Y-74017914D01*
X172963220Y-74017914D02*
X173010839Y-74208390D01*
X173010839Y-74208390D02*
X173010839Y-74351247D01*
X173010839Y-74351247D02*
X172963220Y-74541723D01*
X172963220Y-74541723D02*
X172915601Y-74636961D01*
X172915601Y-74636961D02*
X172820363Y-74732200D01*
X172820363Y-74732200D02*
X172677506Y-74779819D01*
X172677506Y-74779819D02*
X172439411Y-74779819D01*
X165833333Y-108516009D02*
X166166666Y-108516009D01*
X166309523Y-109039819D02*
X165833333Y-109039819D01*
X165833333Y-109039819D02*
X165833333Y-108039819D01*
X165833333Y-108039819D02*
X166309523Y-108039819D01*
X166738095Y-109039819D02*
X166738095Y-108039819D01*
X166738095Y-108039819D02*
X167309523Y-109039819D01*
X167309523Y-109039819D02*
X167309523Y-108039819D01*
X168357142Y-108944580D02*
X168309523Y-108992200D01*
X168309523Y-108992200D02*
X168166666Y-109039819D01*
X168166666Y-109039819D02*
X168071428Y-109039819D01*
X168071428Y-109039819D02*
X167928571Y-108992200D01*
X167928571Y-108992200D02*
X167833333Y-108896961D01*
X167833333Y-108896961D02*
X167785714Y-108801723D01*
X167785714Y-108801723D02*
X167738095Y-108611247D01*
X167738095Y-108611247D02*
X167738095Y-108468390D01*
X167738095Y-108468390D02*
X167785714Y-108277914D01*
X167785714Y-108277914D02*
X167833333Y-108182676D01*
X167833333Y-108182676D02*
X167928571Y-108087438D01*
X167928571Y-108087438D02*
X168071428Y-108039819D01*
X168071428Y-108039819D02*
X168166666Y-108039819D01*
X168166666Y-108039819D02*
X168309523Y-108087438D01*
X168309523Y-108087438D02*
X168357142Y-108135057D01*
X168738095Y-108754104D02*
X169214285Y-108754104D01*
X168642857Y-109039819D02*
X168976190Y-108039819D01*
X168976190Y-108039819D02*
X169309523Y-109039819D01*
X136500000Y-109039819D02*
X136500000Y-108039819D01*
X136976190Y-109039819D02*
X136976190Y-108039819D01*
X136976190Y-108039819D02*
X137547618Y-109039819D01*
X137547618Y-109039819D02*
X137547618Y-108039819D01*
X138547618Y-109039819D02*
X137976190Y-109039819D01*
X138261904Y-109039819D02*
X138261904Y-108039819D01*
X138261904Y-108039819D02*
X138166666Y-108182676D01*
X138166666Y-108182676D02*
X138071428Y-108277914D01*
X138071428Y-108277914D02*
X137976190Y-108325533D01*
D11*
X130857143Y-69314171D02*
X131028571Y-69371314D01*
X131028571Y-69371314D02*
X131085714Y-69428457D01*
X131085714Y-69428457D02*
X131142857Y-69542742D01*
X131142857Y-69542742D02*
X131142857Y-69714171D01*
X131142857Y-69714171D02*
X131085714Y-69828457D01*
X131085714Y-69828457D02*
X131028571Y-69885600D01*
X131028571Y-69885600D02*
X130914286Y-69942742D01*
X130914286Y-69942742D02*
X130457143Y-69942742D01*
X130457143Y-69942742D02*
X130457143Y-68742742D01*
X130457143Y-68742742D02*
X130857143Y-68742742D01*
X130857143Y-68742742D02*
X130971429Y-68799885D01*
X130971429Y-68799885D02*
X131028571Y-68857028D01*
X131028571Y-68857028D02*
X131085714Y-68971314D01*
X131085714Y-68971314D02*
X131085714Y-69085600D01*
X131085714Y-69085600D02*
X131028571Y-69199885D01*
X131028571Y-69199885D02*
X130971429Y-69257028D01*
X130971429Y-69257028D02*
X130857143Y-69314171D01*
X130857143Y-69314171D02*
X130457143Y-69314171D01*
X131600000Y-69599885D02*
X132171429Y-69599885D01*
X131485714Y-69942742D02*
X131885714Y-68742742D01*
X131885714Y-68742742D02*
X132285714Y-69942742D01*
X132514285Y-68742742D02*
X133200000Y-68742742D01*
X132857142Y-69942742D02*
X132857142Y-68742742D01*
X133428571Y-68742742D02*
X134114286Y-68742742D01*
X133771428Y-69942742D02*
X133771428Y-68742742D01*
D10*
X135510588Y-103002438D02*
X135415350Y-102954819D01*
X135415350Y-102954819D02*
X135272493Y-102954819D01*
X135272493Y-102954819D02*
X135129636Y-103002438D01*
X135129636Y-103002438D02*
X135034398Y-103097676D01*
X135034398Y-103097676D02*
X134986779Y-103192914D01*
X134986779Y-103192914D02*
X134939160Y-103383390D01*
X134939160Y-103383390D02*
X134939160Y-103526247D01*
X134939160Y-103526247D02*
X134986779Y-103716723D01*
X134986779Y-103716723D02*
X135034398Y-103811961D01*
X135034398Y-103811961D02*
X135129636Y-103907200D01*
X135129636Y-103907200D02*
X135272493Y-103954819D01*
X135272493Y-103954819D02*
X135367731Y-103954819D01*
X135367731Y-103954819D02*
X135510588Y-103907200D01*
X135510588Y-103907200D02*
X135558207Y-103859580D01*
X135558207Y-103859580D02*
X135558207Y-103526247D01*
X135558207Y-103526247D02*
X135367731Y-103526247D01*
X135986779Y-103954819D02*
X135986779Y-102954819D01*
X135986779Y-102954819D02*
X136558207Y-103954819D01*
X136558207Y-103954819D02*
X136558207Y-102954819D01*
X137034398Y-103954819D02*
X137034398Y-102954819D01*
X137034398Y-102954819D02*
X137272493Y-102954819D01*
X137272493Y-102954819D02*
X137415350Y-103002438D01*
X137415350Y-103002438D02*
X137510588Y-103097676D01*
X137510588Y-103097676D02*
X137558207Y-103192914D01*
X137558207Y-103192914D02*
X137605826Y-103383390D01*
X137605826Y-103383390D02*
X137605826Y-103526247D01*
X137605826Y-103526247D02*
X137558207Y-103716723D01*
X137558207Y-103716723D02*
X137510588Y-103811961D01*
X137510588Y-103811961D02*
X137415350Y-103907200D01*
X137415350Y-103907200D02*
X137272493Y-103954819D01*
X137272493Y-103954819D02*
X137034398Y-103954819D01*
X159107200Y-82560839D02*
X159154819Y-82417982D01*
X159154819Y-82417982D02*
X159154819Y-82179887D01*
X159154819Y-82179887D02*
X159107200Y-82084649D01*
X159107200Y-82084649D02*
X159059580Y-82037030D01*
X159059580Y-82037030D02*
X158964342Y-81989411D01*
X158964342Y-81989411D02*
X158869104Y-81989411D01*
X158869104Y-81989411D02*
X158773866Y-82037030D01*
X158773866Y-82037030D02*
X158726247Y-82084649D01*
X158726247Y-82084649D02*
X158678628Y-82179887D01*
X158678628Y-82179887D02*
X158631009Y-82370363D01*
X158631009Y-82370363D02*
X158583390Y-82465601D01*
X158583390Y-82465601D02*
X158535771Y-82513220D01*
X158535771Y-82513220D02*
X158440533Y-82560839D01*
X158440533Y-82560839D02*
X158345295Y-82560839D01*
X158345295Y-82560839D02*
X158250057Y-82513220D01*
X158250057Y-82513220D02*
X158202438Y-82465601D01*
X158202438Y-82465601D02*
X158154819Y-82370363D01*
X158154819Y-82370363D02*
X158154819Y-82132268D01*
X158154819Y-82132268D02*
X158202438Y-81989411D01*
X158154819Y-81703696D02*
X158154819Y-81132268D01*
X159154819Y-81417982D02*
X158154819Y-81417982D01*
X158869104Y-80846553D02*
X158869104Y-80370363D01*
X159154819Y-80941791D02*
X158154819Y-80608458D01*
X158154819Y-80608458D02*
X159154819Y-80275125D01*
X158154819Y-80084648D02*
X158154819Y-79513220D01*
X159154819Y-79798934D02*
X158154819Y-79798934D01*
X172965601Y-66002438D02*
X172870363Y-65954819D01*
X172870363Y-65954819D02*
X172727506Y-65954819D01*
X172727506Y-65954819D02*
X172584649Y-66002438D01*
X172584649Y-66002438D02*
X172489411Y-66097676D01*
X172489411Y-66097676D02*
X172441792Y-66192914D01*
X172441792Y-66192914D02*
X172394173Y-66383390D01*
X172394173Y-66383390D02*
X172394173Y-66526247D01*
X172394173Y-66526247D02*
X172441792Y-66716723D01*
X172441792Y-66716723D02*
X172489411Y-66811961D01*
X172489411Y-66811961D02*
X172584649Y-66907200D01*
X172584649Y-66907200D02*
X172727506Y-66954819D01*
X172727506Y-66954819D02*
X172822744Y-66954819D01*
X172822744Y-66954819D02*
X172965601Y-66907200D01*
X172965601Y-66907200D02*
X173013220Y-66859580D01*
X173013220Y-66859580D02*
X173013220Y-66526247D01*
X173013220Y-66526247D02*
X172822744Y-66526247D01*
X173441792Y-66954819D02*
X173441792Y-65954819D01*
X173441792Y-65954819D02*
X174013220Y-66954819D01*
X174013220Y-66954819D02*
X174013220Y-65954819D01*
X174489411Y-66954819D02*
X174489411Y-65954819D01*
X174489411Y-65954819D02*
X174727506Y-65954819D01*
X174727506Y-65954819D02*
X174870363Y-66002438D01*
X174870363Y-66002438D02*
X174965601Y-66097676D01*
X174965601Y-66097676D02*
X175013220Y-66192914D01*
X175013220Y-66192914D02*
X175060839Y-66383390D01*
X175060839Y-66383390D02*
X175060839Y-66526247D01*
X175060839Y-66526247D02*
X175013220Y-66716723D01*
X175013220Y-66716723D02*
X174965601Y-66811961D01*
X174965601Y-66811961D02*
X174870363Y-66907200D01*
X174870363Y-66907200D02*
X174727506Y-66954819D01*
X174727506Y-66954819D02*
X174489411Y-66954819D01*
D11*
X166211279Y-101039600D02*
X166382708Y-101096742D01*
X166382708Y-101096742D02*
X166668422Y-101096742D01*
X166668422Y-101096742D02*
X166782708Y-101039600D01*
X166782708Y-101039600D02*
X166839850Y-100982457D01*
X166839850Y-100982457D02*
X166896993Y-100868171D01*
X166896993Y-100868171D02*
X166896993Y-100753885D01*
X166896993Y-100753885D02*
X166839850Y-100639600D01*
X166839850Y-100639600D02*
X166782708Y-100582457D01*
X166782708Y-100582457D02*
X166668422Y-100525314D01*
X166668422Y-100525314D02*
X166439850Y-100468171D01*
X166439850Y-100468171D02*
X166325565Y-100411028D01*
X166325565Y-100411028D02*
X166268422Y-100353885D01*
X166268422Y-100353885D02*
X166211279Y-100239600D01*
X166211279Y-100239600D02*
X166211279Y-100125314D01*
X166211279Y-100125314D02*
X166268422Y-100011028D01*
X166268422Y-100011028D02*
X166325565Y-99953885D01*
X166325565Y-99953885D02*
X166439850Y-99896742D01*
X166439850Y-99896742D02*
X166725565Y-99896742D01*
X166725565Y-99896742D02*
X166896993Y-99953885D01*
X167411279Y-100468171D02*
X167811279Y-100468171D01*
X167982707Y-101096742D02*
X167411279Y-101096742D01*
X167411279Y-101096742D02*
X167411279Y-99896742D01*
X167411279Y-99896742D02*
X167982707Y-99896742D01*
X168496993Y-101096742D02*
X168496993Y-99896742D01*
X168496993Y-99896742D02*
X169182707Y-101096742D01*
X169182707Y-101096742D02*
X169182707Y-99896742D01*
X169696993Y-101039600D02*
X169868422Y-101096742D01*
X169868422Y-101096742D02*
X170154136Y-101096742D01*
X170154136Y-101096742D02*
X170268422Y-101039600D01*
X170268422Y-101039600D02*
X170325564Y-100982457D01*
X170325564Y-100982457D02*
X170382707Y-100868171D01*
X170382707Y-100868171D02*
X170382707Y-100753885D01*
X170382707Y-100753885D02*
X170325564Y-100639600D01*
X170325564Y-100639600D02*
X170268422Y-100582457D01*
X170268422Y-100582457D02*
X170154136Y-100525314D01*
X170154136Y-100525314D02*
X169925564Y-100468171D01*
X169925564Y-100468171D02*
X169811279Y-100411028D01*
X169811279Y-100411028D02*
X169754136Y-100353885D01*
X169754136Y-100353885D02*
X169696993Y-100239600D01*
X169696993Y-100239600D02*
X169696993Y-100125314D01*
X169696993Y-100125314D02*
X169754136Y-100011028D01*
X169754136Y-100011028D02*
X169811279Y-99953885D01*
X169811279Y-99953885D02*
X169925564Y-99896742D01*
X169925564Y-99896742D02*
X170211279Y-99896742D01*
X170211279Y-99896742D02*
X170382707Y-99953885D01*
X171125564Y-99896742D02*
X171354136Y-99896742D01*
X171354136Y-99896742D02*
X171468421Y-99953885D01*
X171468421Y-99953885D02*
X171582707Y-100068171D01*
X171582707Y-100068171D02*
X171639850Y-100296742D01*
X171639850Y-100296742D02*
X171639850Y-100696742D01*
X171639850Y-100696742D02*
X171582707Y-100925314D01*
X171582707Y-100925314D02*
X171468421Y-101039600D01*
X171468421Y-101039600D02*
X171354136Y-101096742D01*
X171354136Y-101096742D02*
X171125564Y-101096742D01*
X171125564Y-101096742D02*
X171011279Y-101039600D01*
X171011279Y-101039600D02*
X170896993Y-100925314D01*
X170896993Y-100925314D02*
X170839850Y-100696742D01*
X170839850Y-100696742D02*
X170839850Y-100296742D01*
X170839850Y-100296742D02*
X170896993Y-100068171D01*
X170896993Y-100068171D02*
X171011279Y-99953885D01*
X171011279Y-99953885D02*
X171125564Y-99896742D01*
X172839850Y-101096742D02*
X172439850Y-100525314D01*
X172154136Y-101096742D02*
X172154136Y-99896742D01*
X172154136Y-99896742D02*
X172611279Y-99896742D01*
X172611279Y-99896742D02*
X172725564Y-99953885D01*
X172725564Y-99953885D02*
X172782707Y-100011028D01*
X172782707Y-100011028D02*
X172839850Y-100125314D01*
X172839850Y-100125314D02*
X172839850Y-100296742D01*
X172839850Y-100296742D02*
X172782707Y-100411028D01*
X172782707Y-100411028D02*
X172725564Y-100468171D01*
X172725564Y-100468171D02*
X172611279Y-100525314D01*
X172611279Y-100525314D02*
X172154136Y-100525314D01*
D10*
X149889819Y-97195237D02*
X148889819Y-97195237D01*
X149842200Y-96766666D02*
X149889819Y-96623809D01*
X149889819Y-96623809D02*
X149889819Y-96385714D01*
X149889819Y-96385714D02*
X149842200Y-96290476D01*
X149842200Y-96290476D02*
X149794580Y-96242857D01*
X149794580Y-96242857D02*
X149699342Y-96195238D01*
X149699342Y-96195238D02*
X149604104Y-96195238D01*
X149604104Y-96195238D02*
X149508866Y-96242857D01*
X149508866Y-96242857D02*
X149461247Y-96290476D01*
X149461247Y-96290476D02*
X149413628Y-96385714D01*
X149413628Y-96385714D02*
X149366009Y-96576190D01*
X149366009Y-96576190D02*
X149318390Y-96671428D01*
X149318390Y-96671428D02*
X149270771Y-96719047D01*
X149270771Y-96719047D02*
X149175533Y-96766666D01*
X149175533Y-96766666D02*
X149080295Y-96766666D01*
X149080295Y-96766666D02*
X148985057Y-96719047D01*
X148985057Y-96719047D02*
X148937438Y-96671428D01*
X148937438Y-96671428D02*
X148889819Y-96576190D01*
X148889819Y-96576190D02*
X148889819Y-96338095D01*
X148889819Y-96338095D02*
X148937438Y-96195238D01*
X149889819Y-95766666D02*
X148889819Y-95766666D01*
X148889819Y-95766666D02*
X149889819Y-95195238D01*
X149889819Y-95195238D02*
X148889819Y-95195238D01*
X149842200Y-94766666D02*
X149889819Y-94623809D01*
X149889819Y-94623809D02*
X149889819Y-94385714D01*
X149889819Y-94385714D02*
X149842200Y-94290476D01*
X149842200Y-94290476D02*
X149794580Y-94242857D01*
X149794580Y-94242857D02*
X149699342Y-94195238D01*
X149699342Y-94195238D02*
X149604104Y-94195238D01*
X149604104Y-94195238D02*
X149508866Y-94242857D01*
X149508866Y-94242857D02*
X149461247Y-94290476D01*
X149461247Y-94290476D02*
X149413628Y-94385714D01*
X149413628Y-94385714D02*
X149366009Y-94576190D01*
X149366009Y-94576190D02*
X149318390Y-94671428D01*
X149318390Y-94671428D02*
X149270771Y-94719047D01*
X149270771Y-94719047D02*
X149175533Y-94766666D01*
X149175533Y-94766666D02*
X149080295Y-94766666D01*
X149080295Y-94766666D02*
X148985057Y-94719047D01*
X148985057Y-94719047D02*
X148937438Y-94671428D01*
X148937438Y-94671428D02*
X148889819Y-94576190D01*
X148889819Y-94576190D02*
X148889819Y-94338095D01*
X148889819Y-94338095D02*
X148937438Y-94195238D01*
X149508866Y-93766666D02*
X149508866Y-93004762D01*
X149889819Y-102095237D02*
X148889819Y-102095237D01*
X149842200Y-101666666D02*
X149889819Y-101523809D01*
X149889819Y-101523809D02*
X149889819Y-101285714D01*
X149889819Y-101285714D02*
X149842200Y-101190476D01*
X149842200Y-101190476D02*
X149794580Y-101142857D01*
X149794580Y-101142857D02*
X149699342Y-101095238D01*
X149699342Y-101095238D02*
X149604104Y-101095238D01*
X149604104Y-101095238D02*
X149508866Y-101142857D01*
X149508866Y-101142857D02*
X149461247Y-101190476D01*
X149461247Y-101190476D02*
X149413628Y-101285714D01*
X149413628Y-101285714D02*
X149366009Y-101476190D01*
X149366009Y-101476190D02*
X149318390Y-101571428D01*
X149318390Y-101571428D02*
X149270771Y-101619047D01*
X149270771Y-101619047D02*
X149175533Y-101666666D01*
X149175533Y-101666666D02*
X149080295Y-101666666D01*
X149080295Y-101666666D02*
X148985057Y-101619047D01*
X148985057Y-101619047D02*
X148937438Y-101571428D01*
X148937438Y-101571428D02*
X148889819Y-101476190D01*
X148889819Y-101476190D02*
X148889819Y-101238095D01*
X148889819Y-101238095D02*
X148937438Y-101095238D01*
X149889819Y-100666666D02*
X148889819Y-100666666D01*
X148889819Y-100666666D02*
X149889819Y-100095238D01*
X149889819Y-100095238D02*
X148889819Y-100095238D01*
X149842200Y-99666666D02*
X149889819Y-99523809D01*
X149889819Y-99523809D02*
X149889819Y-99285714D01*
X149889819Y-99285714D02*
X149842200Y-99190476D01*
X149842200Y-99190476D02*
X149794580Y-99142857D01*
X149794580Y-99142857D02*
X149699342Y-99095238D01*
X149699342Y-99095238D02*
X149604104Y-99095238D01*
X149604104Y-99095238D02*
X149508866Y-99142857D01*
X149508866Y-99142857D02*
X149461247Y-99190476D01*
X149461247Y-99190476D02*
X149413628Y-99285714D01*
X149413628Y-99285714D02*
X149366009Y-99476190D01*
X149366009Y-99476190D02*
X149318390Y-99571428D01*
X149318390Y-99571428D02*
X149270771Y-99619047D01*
X149270771Y-99619047D02*
X149175533Y-99666666D01*
X149175533Y-99666666D02*
X149080295Y-99666666D01*
X149080295Y-99666666D02*
X148985057Y-99619047D01*
X148985057Y-99619047D02*
X148937438Y-99571428D01*
X148937438Y-99571428D02*
X148889819Y-99476190D01*
X148889819Y-99476190D02*
X148889819Y-99238095D01*
X148889819Y-99238095D02*
X148937438Y-99095238D01*
X149508866Y-98666666D02*
X149508866Y-97904762D01*
X149889819Y-98285714D02*
X149127914Y-98285714D01*
X141261905Y-61069819D02*
X141880952Y-61069819D01*
X141880952Y-61069819D02*
X141547619Y-61450771D01*
X141547619Y-61450771D02*
X141690476Y-61450771D01*
X141690476Y-61450771D02*
X141785714Y-61498390D01*
X141785714Y-61498390D02*
X141833333Y-61546009D01*
X141833333Y-61546009D02*
X141880952Y-61641247D01*
X141880952Y-61641247D02*
X141880952Y-61879342D01*
X141880952Y-61879342D02*
X141833333Y-61974580D01*
X141833333Y-61974580D02*
X141785714Y-62022200D01*
X141785714Y-62022200D02*
X141690476Y-62069819D01*
X141690476Y-62069819D02*
X141404762Y-62069819D01*
X141404762Y-62069819D02*
X141309524Y-62022200D01*
X141309524Y-62022200D02*
X141261905Y-61974580D01*
X142166667Y-61069819D02*
X142500000Y-62069819D01*
X142500000Y-62069819D02*
X142833333Y-61069819D01*
X143071429Y-61069819D02*
X143690476Y-61069819D01*
X143690476Y-61069819D02*
X143357143Y-61450771D01*
X143357143Y-61450771D02*
X143500000Y-61450771D01*
X143500000Y-61450771D02*
X143595238Y-61498390D01*
X143595238Y-61498390D02*
X143642857Y-61546009D01*
X143642857Y-61546009D02*
X143690476Y-61641247D01*
X143690476Y-61641247D02*
X143690476Y-61879342D01*
X143690476Y-61879342D02*
X143642857Y-61974580D01*
X143642857Y-61974580D02*
X143595238Y-62022200D01*
X143595238Y-62022200D02*
X143500000Y-62069819D01*
X143500000Y-62069819D02*
X143214286Y-62069819D01*
X143214286Y-62069819D02*
X143119048Y-62022200D01*
X143119048Y-62022200D02*
X143071429Y-61974580D01*
X164963220Y-70877438D02*
X164867982Y-70829819D01*
X164867982Y-70829819D02*
X164725125Y-70829819D01*
X164725125Y-70829819D02*
X164582268Y-70877438D01*
X164582268Y-70877438D02*
X164487030Y-70972676D01*
X164487030Y-70972676D02*
X164439411Y-71067914D01*
X164439411Y-71067914D02*
X164391792Y-71258390D01*
X164391792Y-71258390D02*
X164391792Y-71401247D01*
X164391792Y-71401247D02*
X164439411Y-71591723D01*
X164439411Y-71591723D02*
X164487030Y-71686961D01*
X164487030Y-71686961D02*
X164582268Y-71782200D01*
X164582268Y-71782200D02*
X164725125Y-71829819D01*
X164725125Y-71829819D02*
X164820363Y-71829819D01*
X164820363Y-71829819D02*
X164963220Y-71782200D01*
X164963220Y-71782200D02*
X165010839Y-71734580D01*
X165010839Y-71734580D02*
X165010839Y-71401247D01*
X165010839Y-71401247D02*
X164820363Y-71401247D01*
X148889819Y-76714285D02*
X149889819Y-76380952D01*
X149889819Y-76380952D02*
X148889819Y-76047619D01*
X149842200Y-75761904D02*
X149889819Y-75619047D01*
X149889819Y-75619047D02*
X149889819Y-75380952D01*
X149889819Y-75380952D02*
X149842200Y-75285714D01*
X149842200Y-75285714D02*
X149794580Y-75238095D01*
X149794580Y-75238095D02*
X149699342Y-75190476D01*
X149699342Y-75190476D02*
X149604104Y-75190476D01*
X149604104Y-75190476D02*
X149508866Y-75238095D01*
X149508866Y-75238095D02*
X149461247Y-75285714D01*
X149461247Y-75285714D02*
X149413628Y-75380952D01*
X149413628Y-75380952D02*
X149366009Y-75571428D01*
X149366009Y-75571428D02*
X149318390Y-75666666D01*
X149318390Y-75666666D02*
X149270771Y-75714285D01*
X149270771Y-75714285D02*
X149175533Y-75761904D01*
X149175533Y-75761904D02*
X149080295Y-75761904D01*
X149080295Y-75761904D02*
X148985057Y-75714285D01*
X148985057Y-75714285D02*
X148937438Y-75666666D01*
X148937438Y-75666666D02*
X148889819Y-75571428D01*
X148889819Y-75571428D02*
X148889819Y-75333333D01*
X148889819Y-75333333D02*
X148937438Y-75190476D01*
X149413628Y-74571428D02*
X149889819Y-74571428D01*
X148889819Y-74904761D02*
X149413628Y-74571428D01*
X149413628Y-74571428D02*
X148889819Y-74238095D01*
X149842200Y-73952380D02*
X149889819Y-73809523D01*
X149889819Y-73809523D02*
X149889819Y-73571428D01*
X149889819Y-73571428D02*
X149842200Y-73476190D01*
X149842200Y-73476190D02*
X149794580Y-73428571D01*
X149794580Y-73428571D02*
X149699342Y-73380952D01*
X149699342Y-73380952D02*
X149604104Y-73380952D01*
X149604104Y-73380952D02*
X149508866Y-73428571D01*
X149508866Y-73428571D02*
X149461247Y-73476190D01*
X149461247Y-73476190D02*
X149413628Y-73571428D01*
X149413628Y-73571428D02*
X149366009Y-73761904D01*
X149366009Y-73761904D02*
X149318390Y-73857142D01*
X149318390Y-73857142D02*
X149270771Y-73904761D01*
X149270771Y-73904761D02*
X149175533Y-73952380D01*
X149175533Y-73952380D02*
X149080295Y-73952380D01*
X149080295Y-73952380D02*
X148985057Y-73904761D01*
X148985057Y-73904761D02*
X148937438Y-73857142D01*
X148937438Y-73857142D02*
X148889819Y-73761904D01*
X148889819Y-73761904D02*
X148889819Y-73523809D01*
X148889819Y-73523809D02*
X148937438Y-73380952D01*
X148889819Y-86799999D02*
X148889819Y-86609523D01*
X148889819Y-86609523D02*
X148937438Y-86514285D01*
X148937438Y-86514285D02*
X149032676Y-86419047D01*
X149032676Y-86419047D02*
X149223152Y-86371428D01*
X149223152Y-86371428D02*
X149556485Y-86371428D01*
X149556485Y-86371428D02*
X149746961Y-86419047D01*
X149746961Y-86419047D02*
X149842200Y-86514285D01*
X149842200Y-86514285D02*
X149889819Y-86609523D01*
X149889819Y-86609523D02*
X149889819Y-86799999D01*
X149889819Y-86799999D02*
X149842200Y-86895237D01*
X149842200Y-86895237D02*
X149746961Y-86990475D01*
X149746961Y-86990475D02*
X149556485Y-87038094D01*
X149556485Y-87038094D02*
X149223152Y-87038094D01*
X149223152Y-87038094D02*
X149032676Y-86990475D01*
X149032676Y-86990475D02*
X148937438Y-86895237D01*
X148937438Y-86895237D02*
X148889819Y-86799999D01*
X148889819Y-85942856D02*
X149699342Y-85942856D01*
X149699342Y-85942856D02*
X149794580Y-85895237D01*
X149794580Y-85895237D02*
X149842200Y-85847618D01*
X149842200Y-85847618D02*
X149889819Y-85752380D01*
X149889819Y-85752380D02*
X149889819Y-85561904D01*
X149889819Y-85561904D02*
X149842200Y-85466666D01*
X149842200Y-85466666D02*
X149794580Y-85419047D01*
X149794580Y-85419047D02*
X149699342Y-85371428D01*
X149699342Y-85371428D02*
X148889819Y-85371428D01*
X148889819Y-85038094D02*
X148889819Y-84466666D01*
X149889819Y-84752380D02*
X148889819Y-84752380D01*
X149366009Y-83799999D02*
X149413628Y-83657142D01*
X149413628Y-83657142D02*
X149461247Y-83609523D01*
X149461247Y-83609523D02*
X149556485Y-83561904D01*
X149556485Y-83561904D02*
X149699342Y-83561904D01*
X149699342Y-83561904D02*
X149794580Y-83609523D01*
X149794580Y-83609523D02*
X149842200Y-83657142D01*
X149842200Y-83657142D02*
X149889819Y-83752380D01*
X149889819Y-83752380D02*
X149889819Y-84133332D01*
X149889819Y-84133332D02*
X148889819Y-84133332D01*
X148889819Y-84133332D02*
X148889819Y-83799999D01*
X148889819Y-83799999D02*
X148937438Y-83704761D01*
X148937438Y-83704761D02*
X148985057Y-83657142D01*
X148985057Y-83657142D02*
X149080295Y-83609523D01*
X149080295Y-83609523D02*
X149175533Y-83609523D01*
X149175533Y-83609523D02*
X149270771Y-83657142D01*
X149270771Y-83657142D02*
X149318390Y-83704761D01*
X149318390Y-83704761D02*
X149366009Y-83799999D01*
X149366009Y-83799999D02*
X149366009Y-84133332D01*
X170315601Y-97002438D02*
X170220363Y-96954819D01*
X170220363Y-96954819D02*
X170077506Y-96954819D01*
X170077506Y-96954819D02*
X169934649Y-97002438D01*
X169934649Y-97002438D02*
X169839411Y-97097676D01*
X169839411Y-97097676D02*
X169791792Y-97192914D01*
X169791792Y-97192914D02*
X169744173Y-97383390D01*
X169744173Y-97383390D02*
X169744173Y-97526247D01*
X169744173Y-97526247D02*
X169791792Y-97716723D01*
X169791792Y-97716723D02*
X169839411Y-97811961D01*
X169839411Y-97811961D02*
X169934649Y-97907200D01*
X169934649Y-97907200D02*
X170077506Y-97954819D01*
X170077506Y-97954819D02*
X170172744Y-97954819D01*
X170172744Y-97954819D02*
X170315601Y-97907200D01*
X170315601Y-97907200D02*
X170363220Y-97859580D01*
X170363220Y-97859580D02*
X170363220Y-97526247D01*
X170363220Y-97526247D02*
X170172744Y-97526247D01*
X170791792Y-97954819D02*
X170791792Y-96954819D01*
X170791792Y-96954819D02*
X171363220Y-97954819D01*
X171363220Y-97954819D02*
X171363220Y-96954819D01*
X171839411Y-97954819D02*
X171839411Y-96954819D01*
X171839411Y-96954819D02*
X172077506Y-96954819D01*
X172077506Y-96954819D02*
X172220363Y-97002438D01*
X172220363Y-97002438D02*
X172315601Y-97097676D01*
X172315601Y-97097676D02*
X172363220Y-97192914D01*
X172363220Y-97192914D02*
X172410839Y-97383390D01*
X172410839Y-97383390D02*
X172410839Y-97526247D01*
X172410839Y-97526247D02*
X172363220Y-97716723D01*
X172363220Y-97716723D02*
X172315601Y-97811961D01*
X172315601Y-97811961D02*
X172220363Y-97907200D01*
X172220363Y-97907200D02*
X172077506Y-97954819D01*
X172077506Y-97954819D02*
X171839411Y-97954819D01*
X170315601Y-86326438D02*
X170220363Y-86278819D01*
X170220363Y-86278819D02*
X170077506Y-86278819D01*
X170077506Y-86278819D02*
X169934649Y-86326438D01*
X169934649Y-86326438D02*
X169839411Y-86421676D01*
X169839411Y-86421676D02*
X169791792Y-86516914D01*
X169791792Y-86516914D02*
X169744173Y-86707390D01*
X169744173Y-86707390D02*
X169744173Y-86850247D01*
X169744173Y-86850247D02*
X169791792Y-87040723D01*
X169791792Y-87040723D02*
X169839411Y-87135961D01*
X169839411Y-87135961D02*
X169934649Y-87231200D01*
X169934649Y-87231200D02*
X170077506Y-87278819D01*
X170077506Y-87278819D02*
X170172744Y-87278819D01*
X170172744Y-87278819D02*
X170315601Y-87231200D01*
X170315601Y-87231200D02*
X170363220Y-87183580D01*
X170363220Y-87183580D02*
X170363220Y-86850247D01*
X170363220Y-86850247D02*
X170172744Y-86850247D01*
X170791792Y-87278819D02*
X170791792Y-86278819D01*
X170791792Y-86278819D02*
X171363220Y-87278819D01*
X171363220Y-87278819D02*
X171363220Y-86278819D01*
X171839411Y-87278819D02*
X171839411Y-86278819D01*
X171839411Y-86278819D02*
X172077506Y-86278819D01*
X172077506Y-86278819D02*
X172220363Y-86326438D01*
X172220363Y-86326438D02*
X172315601Y-86421676D01*
X172315601Y-86421676D02*
X172363220Y-86516914D01*
X172363220Y-86516914D02*
X172410839Y-86707390D01*
X172410839Y-86707390D02*
X172410839Y-86850247D01*
X172410839Y-86850247D02*
X172363220Y-87040723D01*
X172363220Y-87040723D02*
X172315601Y-87135961D01*
X172315601Y-87135961D02*
X172220363Y-87231200D01*
X172220363Y-87231200D02*
X172077506Y-87278819D01*
X172077506Y-87278819D02*
X171839411Y-87278819D01*
X166738095Y-61069819D02*
X167309523Y-61069819D01*
X167023809Y-62069819D02*
X167023809Y-61069819D01*
X167547619Y-61069819D02*
X168214285Y-62069819D01*
X168214285Y-61069819D02*
X167547619Y-62069819D01*
X169982268Y-98474819D02*
X170601315Y-98474819D01*
X170601315Y-98474819D02*
X170267982Y-98855771D01*
X170267982Y-98855771D02*
X170410839Y-98855771D01*
X170410839Y-98855771D02*
X170506077Y-98903390D01*
X170506077Y-98903390D02*
X170553696Y-98951009D01*
X170553696Y-98951009D02*
X170601315Y-99046247D01*
X170601315Y-99046247D02*
X170601315Y-99284342D01*
X170601315Y-99284342D02*
X170553696Y-99379580D01*
X170553696Y-99379580D02*
X170506077Y-99427200D01*
X170506077Y-99427200D02*
X170410839Y-99474819D01*
X170410839Y-99474819D02*
X170125125Y-99474819D01*
X170125125Y-99474819D02*
X170029887Y-99427200D01*
X170029887Y-99427200D02*
X169982268Y-99379580D01*
X170887030Y-98474819D02*
X171220363Y-99474819D01*
X171220363Y-99474819D02*
X171553696Y-98474819D01*
X171791792Y-98474819D02*
X172410839Y-98474819D01*
X172410839Y-98474819D02*
X172077506Y-98855771D01*
X172077506Y-98855771D02*
X172220363Y-98855771D01*
X172220363Y-98855771D02*
X172315601Y-98903390D01*
X172315601Y-98903390D02*
X172363220Y-98951009D01*
X172363220Y-98951009D02*
X172410839Y-99046247D01*
X172410839Y-99046247D02*
X172410839Y-99284342D01*
X172410839Y-99284342D02*
X172363220Y-99379580D01*
X172363220Y-99379580D02*
X172315601Y-99427200D01*
X172315601Y-99427200D02*
X172220363Y-99474819D01*
X172220363Y-99474819D02*
X171934649Y-99474819D01*
X171934649Y-99474819D02*
X171839411Y-99427200D01*
X171839411Y-99427200D02*
X171791792Y-99379580D01*
X151023809Y-62022200D02*
X151166666Y-62069819D01*
X151166666Y-62069819D02*
X151404761Y-62069819D01*
X151404761Y-62069819D02*
X151499999Y-62022200D01*
X151499999Y-62022200D02*
X151547618Y-61974580D01*
X151547618Y-61974580D02*
X151595237Y-61879342D01*
X151595237Y-61879342D02*
X151595237Y-61784104D01*
X151595237Y-61784104D02*
X151547618Y-61688866D01*
X151547618Y-61688866D02*
X151499999Y-61641247D01*
X151499999Y-61641247D02*
X151404761Y-61593628D01*
X151404761Y-61593628D02*
X151214285Y-61546009D01*
X151214285Y-61546009D02*
X151119047Y-61498390D01*
X151119047Y-61498390D02*
X151071428Y-61450771D01*
X151071428Y-61450771D02*
X151023809Y-61355533D01*
X151023809Y-61355533D02*
X151023809Y-61260295D01*
X151023809Y-61260295D02*
X151071428Y-61165057D01*
X151071428Y-61165057D02*
X151119047Y-61117438D01*
X151119047Y-61117438D02*
X151214285Y-61069819D01*
X151214285Y-61069819D02*
X151452380Y-61069819D01*
X151452380Y-61069819D02*
X151595237Y-61117438D01*
X151880952Y-61069819D02*
X152452380Y-61069819D01*
X152166666Y-62069819D02*
X152166666Y-61069819D01*
X152738095Y-61784104D02*
X153214285Y-61784104D01*
X152642857Y-62069819D02*
X152976190Y-61069819D01*
X152976190Y-61069819D02*
X153309523Y-62069819D01*
X153500000Y-61069819D02*
X154071428Y-61069819D01*
X153785714Y-62069819D02*
X153785714Y-61069819D01*
X168887030Y-94431009D02*
X169220363Y-94431009D01*
X169363220Y-94954819D02*
X168887030Y-94954819D01*
X168887030Y-94954819D02*
X168887030Y-93954819D01*
X168887030Y-93954819D02*
X169363220Y-93954819D01*
X169791792Y-94954819D02*
X169791792Y-93954819D01*
X169791792Y-93954819D02*
X170363220Y-94954819D01*
X170363220Y-94954819D02*
X170363220Y-93954819D01*
X171410839Y-94859580D02*
X171363220Y-94907200D01*
X171363220Y-94907200D02*
X171220363Y-94954819D01*
X171220363Y-94954819D02*
X171125125Y-94954819D01*
X171125125Y-94954819D02*
X170982268Y-94907200D01*
X170982268Y-94907200D02*
X170887030Y-94811961D01*
X170887030Y-94811961D02*
X170839411Y-94716723D01*
X170839411Y-94716723D02*
X170791792Y-94526247D01*
X170791792Y-94526247D02*
X170791792Y-94383390D01*
X170791792Y-94383390D02*
X170839411Y-94192914D01*
X170839411Y-94192914D02*
X170887030Y-94097676D01*
X170887030Y-94097676D02*
X170982268Y-94002438D01*
X170982268Y-94002438D02*
X171125125Y-93954819D01*
X171125125Y-93954819D02*
X171220363Y-93954819D01*
X171220363Y-93954819D02*
X171363220Y-94002438D01*
X171363220Y-94002438D02*
X171410839Y-94050057D01*
X172172744Y-94431009D02*
X172315601Y-94478628D01*
X172315601Y-94478628D02*
X172363220Y-94526247D01*
X172363220Y-94526247D02*
X172410839Y-94621485D01*
X172410839Y-94621485D02*
X172410839Y-94764342D01*
X172410839Y-94764342D02*
X172363220Y-94859580D01*
X172363220Y-94859580D02*
X172315601Y-94907200D01*
X172315601Y-94907200D02*
X172220363Y-94954819D01*
X172220363Y-94954819D02*
X171839411Y-94954819D01*
X171839411Y-94954819D02*
X171839411Y-93954819D01*
X171839411Y-93954819D02*
X172172744Y-93954819D01*
X172172744Y-93954819D02*
X172267982Y-94002438D01*
X172267982Y-94002438D02*
X172315601Y-94050057D01*
X172315601Y-94050057D02*
X172363220Y-94145295D01*
X172363220Y-94145295D02*
X172363220Y-94240533D01*
X172363220Y-94240533D02*
X172315601Y-94335771D01*
X172315601Y-94335771D02*
X172267982Y-94383390D01*
X172267982Y-94383390D02*
X172172744Y-94431009D01*
X172172744Y-94431009D02*
X171839411Y-94431009D01*
X160761905Y-108039819D02*
X161095238Y-109039819D01*
X161095238Y-109039819D02*
X161428571Y-108039819D01*
X161761905Y-109039819D02*
X161761905Y-108039819D01*
X161761905Y-108039819D02*
X162333333Y-109039819D01*
X162333333Y-109039819D02*
X162333333Y-108039819D01*
X162666667Y-108039819D02*
X163238095Y-108039819D01*
X162952381Y-109039819D02*
X162952381Y-108039819D01*
X164142857Y-108944580D02*
X164095238Y-108992200D01*
X164095238Y-108992200D02*
X163952381Y-109039819D01*
X163952381Y-109039819D02*
X163857143Y-109039819D01*
X163857143Y-109039819D02*
X163714286Y-108992200D01*
X163714286Y-108992200D02*
X163619048Y-108896961D01*
X163619048Y-108896961D02*
X163571429Y-108801723D01*
X163571429Y-108801723D02*
X163523810Y-108611247D01*
X163523810Y-108611247D02*
X163523810Y-108468390D01*
X163523810Y-108468390D02*
X163571429Y-108277914D01*
X163571429Y-108277914D02*
X163619048Y-108182676D01*
X163619048Y-108182676D02*
X163714286Y-108087438D01*
X163714286Y-108087438D02*
X163857143Y-108039819D01*
X163857143Y-108039819D02*
X163952381Y-108039819D01*
X163952381Y-108039819D02*
X164095238Y-108087438D01*
X164095238Y-108087438D02*
X164142857Y-108135057D01*
X161000000Y-62069819D02*
X161000000Y-61069819D01*
X161000000Y-61069819D02*
X161238095Y-61069819D01*
X161238095Y-61069819D02*
X161380952Y-61117438D01*
X161380952Y-61117438D02*
X161476190Y-61212676D01*
X161476190Y-61212676D02*
X161523809Y-61307914D01*
X161523809Y-61307914D02*
X161571428Y-61498390D01*
X161571428Y-61498390D02*
X161571428Y-61641247D01*
X161571428Y-61641247D02*
X161523809Y-61831723D01*
X161523809Y-61831723D02*
X161476190Y-61926961D01*
X161476190Y-61926961D02*
X161380952Y-62022200D01*
X161380952Y-62022200D02*
X161238095Y-62069819D01*
X161238095Y-62069819D02*
X161000000Y-62069819D01*
X161952381Y-61784104D02*
X162428571Y-61784104D01*
X161857143Y-62069819D02*
X162190476Y-61069819D01*
X162190476Y-61069819D02*
X162523809Y-62069819D01*
X162714286Y-61069819D02*
X163285714Y-61069819D01*
X163000000Y-62069819D02*
X163000000Y-61069819D01*
X163571429Y-61784104D02*
X164047619Y-61784104D01*
X163476191Y-62069819D02*
X163809524Y-61069819D01*
X163809524Y-61069819D02*
X164142857Y-62069819D01*
X172963220Y-70877438D02*
X172867982Y-70829819D01*
X172867982Y-70829819D02*
X172725125Y-70829819D01*
X172725125Y-70829819D02*
X172582268Y-70877438D01*
X172582268Y-70877438D02*
X172487030Y-70972676D01*
X172487030Y-70972676D02*
X172439411Y-71067914D01*
X172439411Y-71067914D02*
X172391792Y-71258390D01*
X172391792Y-71258390D02*
X172391792Y-71401247D01*
X172391792Y-71401247D02*
X172439411Y-71591723D01*
X172439411Y-71591723D02*
X172487030Y-71686961D01*
X172487030Y-71686961D02*
X172582268Y-71782200D01*
X172582268Y-71782200D02*
X172725125Y-71829819D01*
X172725125Y-71829819D02*
X172820363Y-71829819D01*
X172820363Y-71829819D02*
X172963220Y-71782200D01*
X172963220Y-71782200D02*
X173010839Y-71734580D01*
X173010839Y-71734580D02*
X173010839Y-71401247D01*
X173010839Y-71401247D02*
X172820363Y-71401247D01*
X169696554Y-85725200D02*
X169839411Y-85772819D01*
X169839411Y-85772819D02*
X170077506Y-85772819D01*
X170077506Y-85772819D02*
X170172744Y-85725200D01*
X170172744Y-85725200D02*
X170220363Y-85677580D01*
X170220363Y-85677580D02*
X170267982Y-85582342D01*
X170267982Y-85582342D02*
X170267982Y-85487104D01*
X170267982Y-85487104D02*
X170220363Y-85391866D01*
X170220363Y-85391866D02*
X170172744Y-85344247D01*
X170172744Y-85344247D02*
X170077506Y-85296628D01*
X170077506Y-85296628D02*
X169887030Y-85249009D01*
X169887030Y-85249009D02*
X169791792Y-85201390D01*
X169791792Y-85201390D02*
X169744173Y-85153771D01*
X169744173Y-85153771D02*
X169696554Y-85058533D01*
X169696554Y-85058533D02*
X169696554Y-84963295D01*
X169696554Y-84963295D02*
X169744173Y-84868057D01*
X169744173Y-84868057D02*
X169791792Y-84820438D01*
X169791792Y-84820438D02*
X169887030Y-84772819D01*
X169887030Y-84772819D02*
X170125125Y-84772819D01*
X170125125Y-84772819D02*
X170267982Y-84820438D01*
X170601316Y-84772819D02*
X170839411Y-85772819D01*
X170839411Y-85772819D02*
X171029887Y-85058533D01*
X171029887Y-85058533D02*
X171220363Y-85772819D01*
X171220363Y-85772819D02*
X171458459Y-84772819D01*
X171839411Y-85772819D02*
X171839411Y-84772819D01*
X171839411Y-84772819D02*
X172077506Y-84772819D01*
X172077506Y-84772819D02*
X172220363Y-84820438D01*
X172220363Y-84820438D02*
X172315601Y-84915676D01*
X172315601Y-84915676D02*
X172363220Y-85010914D01*
X172363220Y-85010914D02*
X172410839Y-85201390D01*
X172410839Y-85201390D02*
X172410839Y-85344247D01*
X172410839Y-85344247D02*
X172363220Y-85534723D01*
X172363220Y-85534723D02*
X172315601Y-85629961D01*
X172315601Y-85629961D02*
X172220363Y-85725200D01*
X172220363Y-85725200D02*
X172077506Y-85772819D01*
X172077506Y-85772819D02*
X171839411Y-85772819D01*
X137689160Y-96869104D02*
X138165350Y-96869104D01*
X137593922Y-97154819D02*
X137927255Y-96154819D01*
X137927255Y-96154819D02*
X138260588Y-97154819D01*
D11*
X149690001Y-67242809D02*
X149918573Y-67242809D01*
X149918573Y-67242809D02*
X150032858Y-67299952D01*
X150032858Y-67299952D02*
X150147144Y-67414238D01*
X150147144Y-67414238D02*
X150204287Y-67642809D01*
X150204287Y-67642809D02*
X150204287Y-68042809D01*
X150204287Y-68042809D02*
X150147144Y-68271381D01*
X150147144Y-68271381D02*
X150032858Y-68385667D01*
X150032858Y-68385667D02*
X149918573Y-68442809D01*
X149918573Y-68442809D02*
X149690001Y-68442809D01*
X149690001Y-68442809D02*
X149575716Y-68385667D01*
X149575716Y-68385667D02*
X149461430Y-68271381D01*
X149461430Y-68271381D02*
X149404287Y-68042809D01*
X149404287Y-68042809D02*
X149404287Y-67642809D01*
X149404287Y-67642809D02*
X149461430Y-67414238D01*
X149461430Y-67414238D02*
X149575716Y-67299952D01*
X149575716Y-67299952D02*
X149690001Y-67242809D01*
X150718573Y-67642809D02*
X150718573Y-68842809D01*
X150718573Y-67699952D02*
X150832859Y-67642809D01*
X150832859Y-67642809D02*
X151061430Y-67642809D01*
X151061430Y-67642809D02*
X151175716Y-67699952D01*
X151175716Y-67699952D02*
X151232859Y-67757095D01*
X151232859Y-67757095D02*
X151290001Y-67871381D01*
X151290001Y-67871381D02*
X151290001Y-68214238D01*
X151290001Y-68214238D02*
X151232859Y-68328524D01*
X151232859Y-68328524D02*
X151175716Y-68385667D01*
X151175716Y-68385667D02*
X151061430Y-68442809D01*
X151061430Y-68442809D02*
X150832859Y-68442809D01*
X150832859Y-68442809D02*
X150718573Y-68385667D01*
X152261430Y-68385667D02*
X152147144Y-68442809D01*
X152147144Y-68442809D02*
X151918573Y-68442809D01*
X151918573Y-68442809D02*
X151804287Y-68385667D01*
X151804287Y-68385667D02*
X151747144Y-68271381D01*
X151747144Y-68271381D02*
X151747144Y-67814238D01*
X151747144Y-67814238D02*
X151804287Y-67699952D01*
X151804287Y-67699952D02*
X151918573Y-67642809D01*
X151918573Y-67642809D02*
X152147144Y-67642809D01*
X152147144Y-67642809D02*
X152261430Y-67699952D01*
X152261430Y-67699952D02*
X152318573Y-67814238D01*
X152318573Y-67814238D02*
X152318573Y-67928524D01*
X152318573Y-67928524D02*
X151747144Y-68042809D01*
X152832858Y-67642809D02*
X152832858Y-68442809D01*
X152832858Y-67757095D02*
X152890001Y-67699952D01*
X152890001Y-67699952D02*
X153004286Y-67642809D01*
X153004286Y-67642809D02*
X153175715Y-67642809D01*
X153175715Y-67642809D02*
X153290001Y-67699952D01*
X153290001Y-67699952D02*
X153347144Y-67814238D01*
X153347144Y-67814238D02*
X153347144Y-68442809D01*
X153861429Y-68385667D02*
X154032858Y-68442809D01*
X154032858Y-68442809D02*
X154318572Y-68442809D01*
X154318572Y-68442809D02*
X154432858Y-68385667D01*
X154432858Y-68385667D02*
X154490000Y-68328524D01*
X154490000Y-68328524D02*
X154547143Y-68214238D01*
X154547143Y-68214238D02*
X154547143Y-68099952D01*
X154547143Y-68099952D02*
X154490000Y-67985667D01*
X154490000Y-67985667D02*
X154432858Y-67928524D01*
X154432858Y-67928524D02*
X154318572Y-67871381D01*
X154318572Y-67871381D02*
X154090000Y-67814238D01*
X154090000Y-67814238D02*
X153975715Y-67757095D01*
X153975715Y-67757095D02*
X153918572Y-67699952D01*
X153918572Y-67699952D02*
X153861429Y-67585667D01*
X153861429Y-67585667D02*
X153861429Y-67471381D01*
X153861429Y-67471381D02*
X153918572Y-67357095D01*
X153918572Y-67357095D02*
X153975715Y-67299952D01*
X153975715Y-67299952D02*
X154090000Y-67242809D01*
X154090000Y-67242809D02*
X154375715Y-67242809D01*
X154375715Y-67242809D02*
X154547143Y-67299952D01*
X155518572Y-68385667D02*
X155404286Y-68442809D01*
X155404286Y-68442809D02*
X155175715Y-68442809D01*
X155175715Y-68442809D02*
X155061429Y-68385667D01*
X155061429Y-68385667D02*
X155004286Y-68271381D01*
X155004286Y-68271381D02*
X155004286Y-67814238D01*
X155004286Y-67814238D02*
X155061429Y-67699952D01*
X155061429Y-67699952D02*
X155175715Y-67642809D01*
X155175715Y-67642809D02*
X155404286Y-67642809D01*
X155404286Y-67642809D02*
X155518572Y-67699952D01*
X155518572Y-67699952D02*
X155575715Y-67814238D01*
X155575715Y-67814238D02*
X155575715Y-67928524D01*
X155575715Y-67928524D02*
X155004286Y-68042809D01*
X156090000Y-68442809D02*
X156090000Y-67642809D01*
X156090000Y-67871381D02*
X156147143Y-67757095D01*
X156147143Y-67757095D02*
X156204286Y-67699952D01*
X156204286Y-67699952D02*
X156318571Y-67642809D01*
X156318571Y-67642809D02*
X156432857Y-67642809D01*
X156718571Y-67642809D02*
X157004285Y-68442809D01*
X157004285Y-68442809D02*
X157290000Y-67642809D01*
X157918571Y-68442809D02*
X157804286Y-68385667D01*
X157804286Y-68385667D02*
X157747143Y-68328524D01*
X157747143Y-68328524D02*
X157690000Y-68214238D01*
X157690000Y-68214238D02*
X157690000Y-67871381D01*
X157690000Y-67871381D02*
X157747143Y-67757095D01*
X157747143Y-67757095D02*
X157804286Y-67699952D01*
X157804286Y-67699952D02*
X157918571Y-67642809D01*
X157918571Y-67642809D02*
X158090000Y-67642809D01*
X158090000Y-67642809D02*
X158204286Y-67699952D01*
X158204286Y-67699952D02*
X158261429Y-67757095D01*
X158261429Y-67757095D02*
X158318571Y-67871381D01*
X158318571Y-67871381D02*
X158318571Y-68214238D01*
X158318571Y-68214238D02*
X158261429Y-68328524D01*
X158261429Y-68328524D02*
X158204286Y-68385667D01*
X158204286Y-68385667D02*
X158090000Y-68442809D01*
X158090000Y-68442809D02*
X157918571Y-68442809D01*
X159518571Y-68328524D02*
X159461428Y-68385667D01*
X159461428Y-68385667D02*
X159290000Y-68442809D01*
X159290000Y-68442809D02*
X159175714Y-68442809D01*
X159175714Y-68442809D02*
X159004285Y-68385667D01*
X159004285Y-68385667D02*
X158890000Y-68271381D01*
X158890000Y-68271381D02*
X158832857Y-68157095D01*
X158832857Y-68157095D02*
X158775714Y-67928524D01*
X158775714Y-67928524D02*
X158775714Y-67757095D01*
X158775714Y-67757095D02*
X158832857Y-67528524D01*
X158832857Y-67528524D02*
X158890000Y-67414238D01*
X158890000Y-67414238D02*
X159004285Y-67299952D01*
X159004285Y-67299952D02*
X159175714Y-67242809D01*
X159175714Y-67242809D02*
X159290000Y-67242809D01*
X159290000Y-67242809D02*
X159461428Y-67299952D01*
X159461428Y-67299952D02*
X159518571Y-67357095D01*
X160204285Y-68442809D02*
X160090000Y-68385667D01*
X160090000Y-68385667D02*
X160032857Y-68328524D01*
X160032857Y-68328524D02*
X159975714Y-68214238D01*
X159975714Y-68214238D02*
X159975714Y-67871381D01*
X159975714Y-67871381D02*
X160032857Y-67757095D01*
X160032857Y-67757095D02*
X160090000Y-67699952D01*
X160090000Y-67699952D02*
X160204285Y-67642809D01*
X160204285Y-67642809D02*
X160375714Y-67642809D01*
X160375714Y-67642809D02*
X160490000Y-67699952D01*
X160490000Y-67699952D02*
X160547143Y-67757095D01*
X160547143Y-67757095D02*
X160604285Y-67871381D01*
X160604285Y-67871381D02*
X160604285Y-68214238D01*
X160604285Y-68214238D02*
X160547143Y-68328524D01*
X160547143Y-68328524D02*
X160490000Y-68385667D01*
X160490000Y-68385667D02*
X160375714Y-68442809D01*
X160375714Y-68442809D02*
X160204285Y-68442809D01*
X161118571Y-68442809D02*
X161118571Y-67642809D01*
X161118571Y-67871381D02*
X161175714Y-67757095D01*
X161175714Y-67757095D02*
X161232857Y-67699952D01*
X161232857Y-67699952D02*
X161347142Y-67642809D01*
X161347142Y-67642809D02*
X161461428Y-67642809D01*
X162318571Y-68385667D02*
X162204285Y-68442809D01*
X162204285Y-68442809D02*
X161975714Y-68442809D01*
X161975714Y-68442809D02*
X161861428Y-68385667D01*
X161861428Y-68385667D02*
X161804285Y-68271381D01*
X161804285Y-68271381D02*
X161804285Y-67814238D01*
X161804285Y-67814238D02*
X161861428Y-67699952D01*
X161861428Y-67699952D02*
X161975714Y-67642809D01*
X161975714Y-67642809D02*
X162204285Y-67642809D01*
X162204285Y-67642809D02*
X162318571Y-67699952D01*
X162318571Y-67699952D02*
X162375714Y-67814238D01*
X162375714Y-67814238D02*
X162375714Y-67928524D01*
X162375714Y-67928524D02*
X161804285Y-68042809D01*
X150004286Y-70374742D02*
X150004286Y-69174742D01*
X150004286Y-69174742D02*
X150290000Y-69174742D01*
X150290000Y-69174742D02*
X150461429Y-69231885D01*
X150461429Y-69231885D02*
X150575714Y-69346171D01*
X150575714Y-69346171D02*
X150632857Y-69460457D01*
X150632857Y-69460457D02*
X150690000Y-69689028D01*
X150690000Y-69689028D02*
X150690000Y-69860457D01*
X150690000Y-69860457D02*
X150632857Y-70089028D01*
X150632857Y-70089028D02*
X150575714Y-70203314D01*
X150575714Y-70203314D02*
X150461429Y-70317600D01*
X150461429Y-70317600D02*
X150290000Y-70374742D01*
X150290000Y-70374742D02*
X150004286Y-70374742D01*
X151661429Y-70317600D02*
X151547143Y-70374742D01*
X151547143Y-70374742D02*
X151318572Y-70374742D01*
X151318572Y-70374742D02*
X151204286Y-70317600D01*
X151204286Y-70317600D02*
X151147143Y-70203314D01*
X151147143Y-70203314D02*
X151147143Y-69746171D01*
X151147143Y-69746171D02*
X151204286Y-69631885D01*
X151204286Y-69631885D02*
X151318572Y-69574742D01*
X151318572Y-69574742D02*
X151547143Y-69574742D01*
X151547143Y-69574742D02*
X151661429Y-69631885D01*
X151661429Y-69631885D02*
X151718572Y-69746171D01*
X151718572Y-69746171D02*
X151718572Y-69860457D01*
X151718572Y-69860457D02*
X151147143Y-69974742D01*
X152118571Y-69574742D02*
X152404285Y-70374742D01*
X152404285Y-70374742D02*
X152690000Y-69574742D01*
X154461429Y-69746171D02*
X154632857Y-69803314D01*
X154632857Y-69803314D02*
X154690000Y-69860457D01*
X154690000Y-69860457D02*
X154747143Y-69974742D01*
X154747143Y-69974742D02*
X154747143Y-70146171D01*
X154747143Y-70146171D02*
X154690000Y-70260457D01*
X154690000Y-70260457D02*
X154632857Y-70317600D01*
X154632857Y-70317600D02*
X154518572Y-70374742D01*
X154518572Y-70374742D02*
X154061429Y-70374742D01*
X154061429Y-70374742D02*
X154061429Y-69174742D01*
X154061429Y-69174742D02*
X154461429Y-69174742D01*
X154461429Y-69174742D02*
X154575715Y-69231885D01*
X154575715Y-69231885D02*
X154632857Y-69289028D01*
X154632857Y-69289028D02*
X154690000Y-69403314D01*
X154690000Y-69403314D02*
X154690000Y-69517600D01*
X154690000Y-69517600D02*
X154632857Y-69631885D01*
X154632857Y-69631885D02*
X154575715Y-69689028D01*
X154575715Y-69689028D02*
X154461429Y-69746171D01*
X154461429Y-69746171D02*
X154061429Y-69746171D01*
X155432857Y-70374742D02*
X155318572Y-70317600D01*
X155318572Y-70317600D02*
X155261429Y-70260457D01*
X155261429Y-70260457D02*
X155204286Y-70146171D01*
X155204286Y-70146171D02*
X155204286Y-69803314D01*
X155204286Y-69803314D02*
X155261429Y-69689028D01*
X155261429Y-69689028D02*
X155318572Y-69631885D01*
X155318572Y-69631885D02*
X155432857Y-69574742D01*
X155432857Y-69574742D02*
X155604286Y-69574742D01*
X155604286Y-69574742D02*
X155718572Y-69631885D01*
X155718572Y-69631885D02*
X155775715Y-69689028D01*
X155775715Y-69689028D02*
X155832857Y-69803314D01*
X155832857Y-69803314D02*
X155832857Y-70146171D01*
X155832857Y-70146171D02*
X155775715Y-70260457D01*
X155775715Y-70260457D02*
X155718572Y-70317600D01*
X155718572Y-70317600D02*
X155604286Y-70374742D01*
X155604286Y-70374742D02*
X155432857Y-70374742D01*
X156861429Y-70374742D02*
X156861429Y-69746171D01*
X156861429Y-69746171D02*
X156804286Y-69631885D01*
X156804286Y-69631885D02*
X156690000Y-69574742D01*
X156690000Y-69574742D02*
X156461429Y-69574742D01*
X156461429Y-69574742D02*
X156347143Y-69631885D01*
X156861429Y-70317600D02*
X156747143Y-70374742D01*
X156747143Y-70374742D02*
X156461429Y-70374742D01*
X156461429Y-70374742D02*
X156347143Y-70317600D01*
X156347143Y-70317600D02*
X156290000Y-70203314D01*
X156290000Y-70203314D02*
X156290000Y-70089028D01*
X156290000Y-70089028D02*
X156347143Y-69974742D01*
X156347143Y-69974742D02*
X156461429Y-69917600D01*
X156461429Y-69917600D02*
X156747143Y-69917600D01*
X156747143Y-69917600D02*
X156861429Y-69860457D01*
X157432857Y-70374742D02*
X157432857Y-69574742D01*
X157432857Y-69803314D02*
X157490000Y-69689028D01*
X157490000Y-69689028D02*
X157547143Y-69631885D01*
X157547143Y-69631885D02*
X157661428Y-69574742D01*
X157661428Y-69574742D02*
X157775714Y-69574742D01*
X158690000Y-70374742D02*
X158690000Y-69174742D01*
X158690000Y-70317600D02*
X158575714Y-70374742D01*
X158575714Y-70374742D02*
X158347142Y-70374742D01*
X158347142Y-70374742D02*
X158232857Y-70317600D01*
X158232857Y-70317600D02*
X158175714Y-70260457D01*
X158175714Y-70260457D02*
X158118571Y-70146171D01*
X158118571Y-70146171D02*
X158118571Y-69803314D01*
X158118571Y-69803314D02*
X158175714Y-69689028D01*
X158175714Y-69689028D02*
X158232857Y-69631885D01*
X158232857Y-69631885D02*
X158347142Y-69574742D01*
X158347142Y-69574742D02*
X158575714Y-69574742D01*
X158575714Y-69574742D02*
X158690000Y-69631885D01*
X160004285Y-69174742D02*
X160404285Y-70374742D01*
X160404285Y-70374742D02*
X160804285Y-69174742D01*
X161832856Y-70374742D02*
X161147142Y-70374742D01*
X161489999Y-70374742D02*
X161489999Y-69174742D01*
X161489999Y-69174742D02*
X161375713Y-69346171D01*
X161375713Y-69346171D02*
X161261428Y-69460457D01*
X161261428Y-69460457D02*
X161147142Y-69517600D01*
X151975715Y-71678104D02*
X151575715Y-71678104D01*
X151575715Y-72306675D02*
X151575715Y-71106675D01*
X151575715Y-71106675D02*
X152147143Y-71106675D01*
X153061429Y-72249533D02*
X152947143Y-72306675D01*
X152947143Y-72306675D02*
X152718572Y-72306675D01*
X152718572Y-72306675D02*
X152604286Y-72249533D01*
X152604286Y-72249533D02*
X152547143Y-72135247D01*
X152547143Y-72135247D02*
X152547143Y-71678104D01*
X152547143Y-71678104D02*
X152604286Y-71563818D01*
X152604286Y-71563818D02*
X152718572Y-71506675D01*
X152718572Y-71506675D02*
X152947143Y-71506675D01*
X152947143Y-71506675D02*
X153061429Y-71563818D01*
X153061429Y-71563818D02*
X153118572Y-71678104D01*
X153118572Y-71678104D02*
X153118572Y-71792390D01*
X153118572Y-71792390D02*
X152547143Y-71906675D01*
X153632857Y-72306675D02*
X153632857Y-71106675D01*
X153632857Y-71563818D02*
X153747143Y-71506675D01*
X153747143Y-71506675D02*
X153975714Y-71506675D01*
X153975714Y-71506675D02*
X154090000Y-71563818D01*
X154090000Y-71563818D02*
X154147143Y-71620961D01*
X154147143Y-71620961D02*
X154204285Y-71735247D01*
X154204285Y-71735247D02*
X154204285Y-72078104D01*
X154204285Y-72078104D02*
X154147143Y-72192390D01*
X154147143Y-72192390D02*
X154090000Y-72249533D01*
X154090000Y-72249533D02*
X153975714Y-72306675D01*
X153975714Y-72306675D02*
X153747143Y-72306675D01*
X153747143Y-72306675D02*
X153632857Y-72249533D01*
X154718571Y-72192390D02*
X154775714Y-72249533D01*
X154775714Y-72249533D02*
X154718571Y-72306675D01*
X154718571Y-72306675D02*
X154661428Y-72249533D01*
X154661428Y-72249533D02*
X154718571Y-72192390D01*
X154718571Y-72192390D02*
X154718571Y-72306675D01*
X156147143Y-71220961D02*
X156204286Y-71163818D01*
X156204286Y-71163818D02*
X156318572Y-71106675D01*
X156318572Y-71106675D02*
X156604286Y-71106675D01*
X156604286Y-71106675D02*
X156718572Y-71163818D01*
X156718572Y-71163818D02*
X156775714Y-71220961D01*
X156775714Y-71220961D02*
X156832857Y-71335247D01*
X156832857Y-71335247D02*
X156832857Y-71449533D01*
X156832857Y-71449533D02*
X156775714Y-71620961D01*
X156775714Y-71620961D02*
X156090000Y-72306675D01*
X156090000Y-72306675D02*
X156832857Y-72306675D01*
X157575714Y-71106675D02*
X157690000Y-71106675D01*
X157690000Y-71106675D02*
X157804286Y-71163818D01*
X157804286Y-71163818D02*
X157861429Y-71220961D01*
X157861429Y-71220961D02*
X157918571Y-71335247D01*
X157918571Y-71335247D02*
X157975714Y-71563818D01*
X157975714Y-71563818D02*
X157975714Y-71849533D01*
X157975714Y-71849533D02*
X157918571Y-72078104D01*
X157918571Y-72078104D02*
X157861429Y-72192390D01*
X157861429Y-72192390D02*
X157804286Y-72249533D01*
X157804286Y-72249533D02*
X157690000Y-72306675D01*
X157690000Y-72306675D02*
X157575714Y-72306675D01*
X157575714Y-72306675D02*
X157461429Y-72249533D01*
X157461429Y-72249533D02*
X157404286Y-72192390D01*
X157404286Y-72192390D02*
X157347143Y-72078104D01*
X157347143Y-72078104D02*
X157290000Y-71849533D01*
X157290000Y-71849533D02*
X157290000Y-71563818D01*
X157290000Y-71563818D02*
X157347143Y-71335247D01*
X157347143Y-71335247D02*
X157404286Y-71220961D01*
X157404286Y-71220961D02*
X157461429Y-71163818D01*
X157461429Y-71163818D02*
X157575714Y-71106675D01*
X158432857Y-71220961D02*
X158490000Y-71163818D01*
X158490000Y-71163818D02*
X158604286Y-71106675D01*
X158604286Y-71106675D02*
X158890000Y-71106675D01*
X158890000Y-71106675D02*
X159004286Y-71163818D01*
X159004286Y-71163818D02*
X159061428Y-71220961D01*
X159061428Y-71220961D02*
X159118571Y-71335247D01*
X159118571Y-71335247D02*
X159118571Y-71449533D01*
X159118571Y-71449533D02*
X159061428Y-71620961D01*
X159061428Y-71620961D02*
X158375714Y-72306675D01*
X158375714Y-72306675D02*
X159118571Y-72306675D01*
X160147143Y-71106675D02*
X159918571Y-71106675D01*
X159918571Y-71106675D02*
X159804285Y-71163818D01*
X159804285Y-71163818D02*
X159747143Y-71220961D01*
X159747143Y-71220961D02*
X159632857Y-71392390D01*
X159632857Y-71392390D02*
X159575714Y-71620961D01*
X159575714Y-71620961D02*
X159575714Y-72078104D01*
X159575714Y-72078104D02*
X159632857Y-72192390D01*
X159632857Y-72192390D02*
X159690000Y-72249533D01*
X159690000Y-72249533D02*
X159804285Y-72306675D01*
X159804285Y-72306675D02*
X160032857Y-72306675D01*
X160032857Y-72306675D02*
X160147143Y-72249533D01*
X160147143Y-72249533D02*
X160204285Y-72192390D01*
X160204285Y-72192390D02*
X160261428Y-72078104D01*
X160261428Y-72078104D02*
X160261428Y-71792390D01*
X160261428Y-71792390D02*
X160204285Y-71678104D01*
X160204285Y-71678104D02*
X160147143Y-71620961D01*
X160147143Y-71620961D02*
X160032857Y-71563818D01*
X160032857Y-71563818D02*
X159804285Y-71563818D01*
X159804285Y-71563818D02*
X159690000Y-71620961D01*
X159690000Y-71620961D02*
X159632857Y-71678104D01*
X159632857Y-71678104D02*
X159575714Y-71792390D01*
X172254136Y-69714171D02*
X172425564Y-69771314D01*
X172425564Y-69771314D02*
X172482707Y-69828457D01*
X172482707Y-69828457D02*
X172539850Y-69942742D01*
X172539850Y-69942742D02*
X172539850Y-70114171D01*
X172539850Y-70114171D02*
X172482707Y-70228457D01*
X172482707Y-70228457D02*
X172425564Y-70285600D01*
X172425564Y-70285600D02*
X172311279Y-70342742D01*
X172311279Y-70342742D02*
X171854136Y-70342742D01*
X171854136Y-70342742D02*
X171854136Y-69142742D01*
X171854136Y-69142742D02*
X172254136Y-69142742D01*
X172254136Y-69142742D02*
X172368422Y-69199885D01*
X172368422Y-69199885D02*
X172425564Y-69257028D01*
X172425564Y-69257028D02*
X172482707Y-69371314D01*
X172482707Y-69371314D02*
X172482707Y-69485600D01*
X172482707Y-69485600D02*
X172425564Y-69599885D01*
X172425564Y-69599885D02*
X172368422Y-69657028D01*
X172368422Y-69657028D02*
X172254136Y-69714171D01*
X172254136Y-69714171D02*
X171854136Y-69714171D01*
X173054136Y-69142742D02*
X173054136Y-70114171D01*
X173054136Y-70114171D02*
X173111279Y-70228457D01*
X173111279Y-70228457D02*
X173168422Y-70285600D01*
X173168422Y-70285600D02*
X173282707Y-70342742D01*
X173282707Y-70342742D02*
X173511279Y-70342742D01*
X173511279Y-70342742D02*
X173625564Y-70285600D01*
X173625564Y-70285600D02*
X173682707Y-70228457D01*
X173682707Y-70228457D02*
X173739850Y-70114171D01*
X173739850Y-70114171D02*
X173739850Y-69142742D01*
X174254136Y-70285600D02*
X174425565Y-70342742D01*
X174425565Y-70342742D02*
X174711279Y-70342742D01*
X174711279Y-70342742D02*
X174825565Y-70285600D01*
X174825565Y-70285600D02*
X174882707Y-70228457D01*
X174882707Y-70228457D02*
X174939850Y-70114171D01*
X174939850Y-70114171D02*
X174939850Y-69999885D01*
X174939850Y-69999885D02*
X174882707Y-69885600D01*
X174882707Y-69885600D02*
X174825565Y-69828457D01*
X174825565Y-69828457D02*
X174711279Y-69771314D01*
X174711279Y-69771314D02*
X174482707Y-69714171D01*
X174482707Y-69714171D02*
X174368422Y-69657028D01*
X174368422Y-69657028D02*
X174311279Y-69599885D01*
X174311279Y-69599885D02*
X174254136Y-69485600D01*
X174254136Y-69485600D02*
X174254136Y-69371314D01*
X174254136Y-69371314D02*
X174311279Y-69257028D01*
X174311279Y-69257028D02*
X174368422Y-69199885D01*
X174368422Y-69199885D02*
X174482707Y-69142742D01*
X174482707Y-69142742D02*
X174768422Y-69142742D01*
X174768422Y-69142742D02*
X174939850Y-69199885D01*
X130485714Y-77042742D02*
X130485714Y-78014171D01*
X130485714Y-78014171D02*
X130542857Y-78128457D01*
X130542857Y-78128457D02*
X130600000Y-78185600D01*
X130600000Y-78185600D02*
X130714285Y-78242742D01*
X130714285Y-78242742D02*
X130942857Y-78242742D01*
X130942857Y-78242742D02*
X131057142Y-78185600D01*
X131057142Y-78185600D02*
X131114285Y-78128457D01*
X131114285Y-78128457D02*
X131171428Y-78014171D01*
X131171428Y-78014171D02*
X131171428Y-77042742D01*
X131685714Y-78185600D02*
X131857143Y-78242742D01*
X131857143Y-78242742D02*
X132142857Y-78242742D01*
X132142857Y-78242742D02*
X132257143Y-78185600D01*
X132257143Y-78185600D02*
X132314285Y-78128457D01*
X132314285Y-78128457D02*
X132371428Y-78014171D01*
X132371428Y-78014171D02*
X132371428Y-77899885D01*
X132371428Y-77899885D02*
X132314285Y-77785600D01*
X132314285Y-77785600D02*
X132257143Y-77728457D01*
X132257143Y-77728457D02*
X132142857Y-77671314D01*
X132142857Y-77671314D02*
X131914285Y-77614171D01*
X131914285Y-77614171D02*
X131800000Y-77557028D01*
X131800000Y-77557028D02*
X131742857Y-77499885D01*
X131742857Y-77499885D02*
X131685714Y-77385600D01*
X131685714Y-77385600D02*
X131685714Y-77271314D01*
X131685714Y-77271314D02*
X131742857Y-77157028D01*
X131742857Y-77157028D02*
X131800000Y-77099885D01*
X131800000Y-77099885D02*
X131914285Y-77042742D01*
X131914285Y-77042742D02*
X132200000Y-77042742D01*
X132200000Y-77042742D02*
X132371428Y-77099885D01*
X133285714Y-77614171D02*
X133457142Y-77671314D01*
X133457142Y-77671314D02*
X133514285Y-77728457D01*
X133514285Y-77728457D02*
X133571428Y-77842742D01*
X133571428Y-77842742D02*
X133571428Y-78014171D01*
X133571428Y-78014171D02*
X133514285Y-78128457D01*
X133514285Y-78128457D02*
X133457142Y-78185600D01*
X133457142Y-78185600D02*
X133342857Y-78242742D01*
X133342857Y-78242742D02*
X132885714Y-78242742D01*
X132885714Y-78242742D02*
X132885714Y-77042742D01*
X132885714Y-77042742D02*
X133285714Y-77042742D01*
X133285714Y-77042742D02*
X133400000Y-77099885D01*
X133400000Y-77099885D02*
X133457142Y-77157028D01*
X133457142Y-77157028D02*
X133514285Y-77271314D01*
X133514285Y-77271314D02*
X133514285Y-77385600D01*
X133514285Y-77385600D02*
X133457142Y-77499885D01*
X133457142Y-77499885D02*
X133400000Y-77557028D01*
X133400000Y-77557028D02*
X133285714Y-77614171D01*
X133285714Y-77614171D02*
X132885714Y-77614171D01*
D10*
X164439411Y-74779819D02*
X164439411Y-73779819D01*
X164439411Y-73779819D02*
X164677506Y-73779819D01*
X164677506Y-73779819D02*
X164820363Y-73827438D01*
X164820363Y-73827438D02*
X164915601Y-73922676D01*
X164915601Y-73922676D02*
X164963220Y-74017914D01*
X164963220Y-74017914D02*
X165010839Y-74208390D01*
X165010839Y-74208390D02*
X165010839Y-74351247D01*
X165010839Y-74351247D02*
X164963220Y-74541723D01*
X164963220Y-74541723D02*
X164915601Y-74636961D01*
X164915601Y-74636961D02*
X164820363Y-74732200D01*
X164820363Y-74732200D02*
X164677506Y-74779819D01*
X164677506Y-74779819D02*
X164439411Y-74779819D01*
X164439411Y-72304819D02*
X164772744Y-73304819D01*
X164772744Y-73304819D02*
X165106077Y-72304819D01*
X148889819Y-81178571D02*
X148889819Y-80988095D01*
X148889819Y-80988095D02*
X148937438Y-80892857D01*
X148937438Y-80892857D02*
X149032676Y-80797619D01*
X149032676Y-80797619D02*
X149223152Y-80750000D01*
X149223152Y-80750000D02*
X149556485Y-80750000D01*
X149556485Y-80750000D02*
X149746961Y-80797619D01*
X149746961Y-80797619D02*
X149842200Y-80892857D01*
X149842200Y-80892857D02*
X149889819Y-80988095D01*
X149889819Y-80988095D02*
X149889819Y-81178571D01*
X149889819Y-81178571D02*
X149842200Y-81273809D01*
X149842200Y-81273809D02*
X149746961Y-81369047D01*
X149746961Y-81369047D02*
X149556485Y-81416666D01*
X149556485Y-81416666D02*
X149223152Y-81416666D01*
X149223152Y-81416666D02*
X149032676Y-81369047D01*
X149032676Y-81369047D02*
X148937438Y-81273809D01*
X148937438Y-81273809D02*
X148889819Y-81178571D01*
X148889819Y-80321428D02*
X149699342Y-80321428D01*
X149699342Y-80321428D02*
X149794580Y-80273809D01*
X149794580Y-80273809D02*
X149842200Y-80226190D01*
X149842200Y-80226190D02*
X149889819Y-80130952D01*
X149889819Y-80130952D02*
X149889819Y-79940476D01*
X149889819Y-79940476D02*
X149842200Y-79845238D01*
X149842200Y-79845238D02*
X149794580Y-79797619D01*
X149794580Y-79797619D02*
X149699342Y-79750000D01*
X149699342Y-79750000D02*
X148889819Y-79750000D01*
X148889819Y-79416666D02*
X148889819Y-78845238D01*
X149889819Y-79130952D02*
X148889819Y-79130952D01*
X149604104Y-78559523D02*
X149604104Y-78083333D01*
X149889819Y-78654761D02*
X148889819Y-78321428D01*
X148889819Y-78321428D02*
X149889819Y-77988095D01*
X145738095Y-108039819D02*
X146071428Y-109039819D01*
X146071428Y-109039819D02*
X146404761Y-108039819D01*
X146690476Y-108992200D02*
X146833333Y-109039819D01*
X146833333Y-109039819D02*
X147071428Y-109039819D01*
X147071428Y-109039819D02*
X147166666Y-108992200D01*
X147166666Y-108992200D02*
X147214285Y-108944580D01*
X147214285Y-108944580D02*
X147261904Y-108849342D01*
X147261904Y-108849342D02*
X147261904Y-108754104D01*
X147261904Y-108754104D02*
X147214285Y-108658866D01*
X147214285Y-108658866D02*
X147166666Y-108611247D01*
X147166666Y-108611247D02*
X147071428Y-108563628D01*
X147071428Y-108563628D02*
X146880952Y-108516009D01*
X146880952Y-108516009D02*
X146785714Y-108468390D01*
X146785714Y-108468390D02*
X146738095Y-108420771D01*
X146738095Y-108420771D02*
X146690476Y-108325533D01*
X146690476Y-108325533D02*
X146690476Y-108230295D01*
X146690476Y-108230295D02*
X146738095Y-108135057D01*
X146738095Y-108135057D02*
X146785714Y-108087438D01*
X146785714Y-108087438D02*
X146880952Y-108039819D01*
X146880952Y-108039819D02*
X147119047Y-108039819D01*
X147119047Y-108039819D02*
X147261904Y-108087438D01*
X147690476Y-109039819D02*
X147690476Y-108039819D01*
X147690476Y-108039819D02*
X148261904Y-109039819D01*
X148261904Y-109039819D02*
X148261904Y-108039819D01*
X148690476Y-108754104D02*
X149166666Y-108754104D01*
X148595238Y-109039819D02*
X148928571Y-108039819D01*
X148928571Y-108039819D02*
X149261904Y-109039819D01*
X137736779Y-92654819D02*
X137736779Y-91654819D01*
X137736779Y-91654819D02*
X138117731Y-91654819D01*
X138117731Y-91654819D02*
X138212969Y-91702438D01*
X138212969Y-91702438D02*
X138260588Y-91750057D01*
X138260588Y-91750057D02*
X138308207Y-91845295D01*
X138308207Y-91845295D02*
X138308207Y-91988152D01*
X138308207Y-91988152D02*
X138260588Y-92083390D01*
X138260588Y-92083390D02*
X138212969Y-92131009D01*
X138212969Y-92131009D02*
X138117731Y-92178628D01*
X138117731Y-92178628D02*
X137736779Y-92178628D01*
X172439411Y-72304819D02*
X172772744Y-73304819D01*
X172772744Y-73304819D02*
X173106077Y-72304819D01*
X135815601Y-76537438D02*
X135720363Y-76489819D01*
X135720363Y-76489819D02*
X135577506Y-76489819D01*
X135577506Y-76489819D02*
X135434649Y-76537438D01*
X135434649Y-76537438D02*
X135339411Y-76632676D01*
X135339411Y-76632676D02*
X135291792Y-76727914D01*
X135291792Y-76727914D02*
X135244173Y-76918390D01*
X135244173Y-76918390D02*
X135244173Y-77061247D01*
X135244173Y-77061247D02*
X135291792Y-77251723D01*
X135291792Y-77251723D02*
X135339411Y-77346961D01*
X135339411Y-77346961D02*
X135434649Y-77442200D01*
X135434649Y-77442200D02*
X135577506Y-77489819D01*
X135577506Y-77489819D02*
X135672744Y-77489819D01*
X135672744Y-77489819D02*
X135815601Y-77442200D01*
X135815601Y-77442200D02*
X135863220Y-77394580D01*
X135863220Y-77394580D02*
X135863220Y-77061247D01*
X135863220Y-77061247D02*
X135672744Y-77061247D01*
X136291792Y-77489819D02*
X136291792Y-76489819D01*
X136291792Y-76489819D02*
X136863220Y-77489819D01*
X136863220Y-77489819D02*
X136863220Y-76489819D01*
X137339411Y-77489819D02*
X137339411Y-76489819D01*
X137339411Y-76489819D02*
X137577506Y-76489819D01*
X137577506Y-76489819D02*
X137720363Y-76537438D01*
X137720363Y-76537438D02*
X137815601Y-76632676D01*
X137815601Y-76632676D02*
X137863220Y-76727914D01*
X137863220Y-76727914D02*
X137910839Y-76918390D01*
X137910839Y-76918390D02*
X137910839Y-77061247D01*
X137910839Y-77061247D02*
X137863220Y-77251723D01*
X137863220Y-77251723D02*
X137815601Y-77346961D01*
X137815601Y-77346961D02*
X137720363Y-77442200D01*
X137720363Y-77442200D02*
X137577506Y-77489819D01*
X137577506Y-77489819D02*
X137339411Y-77489819D01*
X170982268Y-81760819D02*
X171553696Y-81760819D01*
X171267982Y-82760819D02*
X171267982Y-81760819D01*
X171791792Y-81760819D02*
X172458458Y-82760819D01*
X172458458Y-81760819D02*
X171791792Y-82760819D01*
X132104819Y-73583333D02*
X132819104Y-73583333D01*
X132819104Y-73583333D02*
X132961961Y-73630952D01*
X132961961Y-73630952D02*
X133057200Y-73726190D01*
X133057200Y-73726190D02*
X133104819Y-73869047D01*
X133104819Y-73869047D02*
X133104819Y-73964285D01*
X133104819Y-72583333D02*
X133104819Y-73154761D01*
X133104819Y-72869047D02*
X132104819Y-72869047D01*
X132104819Y-72869047D02*
X132247676Y-72964285D01*
X132247676Y-72964285D02*
X132342914Y-73059523D01*
X132342914Y-73059523D02*
X132390533Y-73154761D01*
D12*
%TO.C,LED2*%
X155820000Y-82852500D02*
X155820000Y-85537500D01*
X157740000Y-82852500D02*
X155820000Y-82852500D01*
X157740000Y-85537500D02*
X157740000Y-82852500D01*
%TO.C,R11*%
X154686359Y-86310000D02*
X154993641Y-86310000D01*
X154686359Y-87070000D02*
X154993641Y-87070000D01*
%TO.C,R12*%
X156626359Y-86310000D02*
X156933641Y-86310000D01*
X156626359Y-87070000D02*
X156933641Y-87070000D01*
%TO.C,TP12*%
X135600000Y-62900000D02*
X139400000Y-62900000D01*
X139400000Y-65100000D01*
X135600000Y-65100000D01*
X135600000Y-62900000D01*
%TO.C,Q2*%
X139840000Y-69777500D02*
X141360000Y-69777500D01*
X139840000Y-69827500D02*
X139840000Y-69777500D01*
X139840000Y-71727500D02*
X139840000Y-70947500D01*
X139840000Y-72897500D02*
X139840000Y-72847500D01*
X141360000Y-69777500D02*
X141360000Y-70777500D01*
X141360000Y-71897500D02*
X141360000Y-72897500D01*
X141360000Y-72897500D02*
X139840000Y-72897500D01*
X139540000Y-71287500D02*
X139060000Y-71287500D01*
X139300000Y-70957500D01*
X139540000Y-71287500D01*
G36*
X139540000Y-71287500D02*
G01*
X139060000Y-71287500D01*
X139300000Y-70957500D01*
X139540000Y-71287500D01*
G37*
D10*
%TO.C,U2*%
X161900000Y-86170000D02*
X161900000Y-87170000D01*
X163200000Y-86170000D02*
X163200000Y-87170000D01*
X161830000Y-87460000D02*
G75*
G02*
X161670000Y-87460000I-80000J0D01*
G01*
X161670000Y-87460000D02*
G75*
G02*
X161830000Y-87460000I80000J0D01*
G01*
%TO.C,TP4*%
D12*
X145600000Y-104900000D02*
X149400000Y-104900000D01*
X149400000Y-107100000D01*
X145600000Y-107100000D01*
X145600000Y-104900000D01*
%TO.C,TP25*%
X145900000Y-97000000D02*
X148100000Y-97000000D01*
X148100000Y-93200000D01*
X145900000Y-93200000D01*
X145900000Y-97000000D01*
%TO.C,R18*%
X150986359Y-82580000D02*
X151293641Y-82580000D01*
X150986359Y-83340000D02*
X151293641Y-83340000D01*
D10*
%TO.C,U4*%
X162900000Y-91900000D02*
X163300000Y-91900000D01*
X162900000Y-92300000D02*
X162900000Y-91900000D01*
X162900000Y-94700000D02*
X162900000Y-95100000D01*
X162900000Y-95100000D02*
X163300000Y-95100000D01*
X165700000Y-91900000D02*
X166100000Y-91900000D01*
X166100000Y-91900000D02*
X166100000Y-92300000D01*
X166100000Y-94700000D02*
X166100000Y-95100000D01*
X166100000Y-95100000D02*
X165700000Y-95100000D01*
D11*
X166590000Y-94950000D02*
G75*
G02*
X166390000Y-94950000I-100000J0D01*
G01*
X166390000Y-94950000D02*
G75*
G02*
X166590000Y-94950000I100000J0D01*
G01*
%TO.C,TP18*%
D12*
X165600000Y-62900000D02*
X169400000Y-62900000D01*
X169400000Y-65100000D01*
X165600000Y-65100000D01*
X165600000Y-62900000D01*
%TO.C,J5*%
X173590000Y-92140000D02*
X173590000Y-93890000D01*
X173590000Y-99610000D02*
X172700000Y-99610000D01*
X173590000Y-101360000D02*
X173590000Y-99610000D01*
X176540000Y-92140000D02*
X173590000Y-92140000D01*
X176540000Y-101360000D02*
X173590000Y-101360000D01*
X178960000Y-101360000D02*
X179810000Y-101360000D01*
X179810000Y-92140000D02*
X178960000Y-92140000D01*
X179810000Y-101360000D02*
X179810000Y-92140000D01*
%TO.C,TP26*%
X148100000Y-98100000D02*
X145900000Y-98100000D01*
X145900000Y-101900000D01*
X148100000Y-101900000D01*
X148100000Y-98100000D01*
%TO.C,R15*%
X149126359Y-81640000D02*
X149433641Y-81640000D01*
X149126359Y-82400000D02*
X149433641Y-82400000D01*
%TO.C,C10*%
X140083748Y-91500000D02*
X141506252Y-91500000D01*
X140083748Y-93320000D02*
X141506252Y-93320000D01*
%TO.C,SW1*%
X165955000Y-82195000D02*
X165955000Y-86595000D01*
X165955000Y-86595000D02*
X166075000Y-86595000D01*
X166075000Y-82195000D02*
X165955000Y-82195000D01*
X167085000Y-86595000D02*
X168225000Y-86595000D01*
X168225000Y-82195000D02*
X167085000Y-82195000D01*
X169235000Y-86595000D02*
X169355000Y-86595000D01*
X169355000Y-82195000D02*
X169235000Y-82195000D01*
X169355000Y-86595000D02*
X169355000Y-82195000D01*
%TO.C,RS1*%
X143540000Y-97502936D02*
X143540000Y-98957064D01*
X145360000Y-97502936D02*
X145360000Y-98957064D01*
%TO.C,C7*%
X139040000Y-97102164D02*
X139040000Y-97317836D01*
X139760000Y-97102164D02*
X139760000Y-97317836D01*
%TO.C,TP1*%
X130600000Y-102400000D02*
X134400000Y-102400000D01*
X134400000Y-104600000D01*
X130600000Y-104600000D01*
X130600000Y-102400000D01*
%TO.C,TP6*%
X155600000Y-104900000D02*
X159400000Y-104900000D01*
X159400000Y-107100000D01*
X155600000Y-107100000D01*
X155600000Y-104900000D01*
%TO.C,TP21*%
X145900000Y-76900000D02*
X148100000Y-76900000D01*
X148100000Y-73100000D01*
X145900000Y-73100000D01*
X145900000Y-76900000D01*
%TO.C,R1*%
X140536359Y-77920000D02*
X140843641Y-77920000D01*
X140536359Y-78680000D02*
X140843641Y-78680000D01*
%TO.C,TP22*%
X145900000Y-81900000D02*
X148100000Y-81900000D01*
X148100000Y-78100000D01*
X145900000Y-78100000D01*
X145900000Y-81900000D01*
%TO.C,D1*%
X163230000Y-83675000D02*
X163230000Y-84985000D01*
X164450000Y-83675000D02*
X163230000Y-83675000D01*
X164450000Y-83675000D02*
X164450000Y-84985000D01*
D13*
%TO.C,U1*%
X144240000Y-84110052D02*
X143400000Y-84110052D01*
X144520000Y-81190052D02*
X143120000Y-81190052D01*
X144710000Y-82340052D02*
X144710000Y-83100052D01*
D14*
X141960000Y-81760052D02*
G75*
G02*
X141660000Y-81760052I-150000J0D01*
G01*
X141660000Y-81760052D02*
G75*
G02*
X141960000Y-81760052I150000J0D01*
G01*
D12*
%TO.C,LED1*%
X153900000Y-82852500D02*
X153900000Y-85537500D01*
X155820000Y-82852500D02*
X153900000Y-82852500D01*
X155820000Y-85537500D02*
X155820000Y-82852500D01*
%TO.C,R10*%
X139153641Y-83420000D02*
X138846359Y-83420000D01*
X139153641Y-84180000D02*
X138846359Y-84180000D01*
%TO.C,TP16*%
X155600000Y-62900000D02*
X159400000Y-62900000D01*
X159400000Y-65100000D01*
X155600000Y-65100000D01*
X155600000Y-62900000D01*
%TO.C,C5*%
X136240000Y-102117836D02*
X136240000Y-101902164D01*
X136960000Y-102117836D02*
X136960000Y-101902164D01*
%TO.C,J3*%
X175690000Y-68990000D02*
X175690000Y-70740000D01*
X175690000Y-70740000D02*
X173800000Y-70740000D01*
X175690000Y-76710000D02*
X175690000Y-74960000D01*
X176340000Y-68990000D02*
X175690000Y-68990000D01*
X176340000Y-76710000D02*
X175690000Y-76710000D01*
X179160000Y-68990000D02*
X179610000Y-68990000D01*
X179610000Y-68990000D02*
X179610000Y-76710000D01*
X179610000Y-76710000D02*
X179160000Y-76710000D01*
%TO.C,R9*%
X139163641Y-82420000D02*
X138856359Y-82420000D01*
X139163641Y-83180000D02*
X138856359Y-83180000D01*
%TO.C,C3*%
X144627836Y-80340000D02*
X144412164Y-80340000D01*
X144627836Y-81060000D02*
X144412164Y-81060000D01*
%TO.C,C8*%
X140672164Y-95130000D02*
X140887836Y-95130000D01*
X140672164Y-95850000D02*
X140887836Y-95850000D01*
%TO.C,TP15*%
X150600000Y-62900000D02*
X154400000Y-62900000D01*
X154400000Y-65100000D01*
X150600000Y-65100000D01*
X150600000Y-62900000D01*
%TO.C,TP3*%
X140600000Y-104900000D02*
X144400000Y-104900000D01*
X144400000Y-107100000D01*
X140600000Y-107100000D01*
X140600000Y-104900000D01*
%TO.C,TP9*%
X170600000Y-104900000D02*
X174400000Y-104900000D01*
X174400000Y-107100000D01*
X170600000Y-107100000D01*
X170600000Y-104900000D01*
%TO.C,R6*%
X135220000Y-102143641D02*
X135220000Y-101836359D01*
X135980000Y-102143641D02*
X135980000Y-101836359D01*
%TO.C,C13*%
X168132164Y-80720000D02*
X168347836Y-80720000D01*
X168132164Y-81440000D02*
X168347836Y-81440000D01*
%TO.C,R3*%
X143543641Y-69220000D02*
X143236359Y-69220000D01*
X143543641Y-69980000D02*
X143236359Y-69980000D01*
%TO.C,TH1*%
X165120000Y-100256359D02*
X165120000Y-100563641D01*
X165880000Y-100256359D02*
X165880000Y-100563641D01*
%TO.C,TP13*%
X140600000Y-62900000D02*
X144400000Y-62900000D01*
X144400000Y-65100000D01*
X140600000Y-65100000D01*
X140600000Y-62900000D01*
%TO.C,C6*%
X142707836Y-95130000D02*
X142492164Y-95130000D01*
X142707836Y-95850000D02*
X142492164Y-95850000D01*
%TO.C,R16*%
X150986359Y-81640000D02*
X151293641Y-81640000D01*
X150986359Y-82400000D02*
X151293641Y-82400000D01*
%TO.C,TP24*%
X145900000Y-91900000D02*
X148100000Y-91900000D01*
X148100000Y-88100000D01*
X145900000Y-88100000D01*
X145900000Y-91900000D01*
%TO.C,C14*%
X166924420Y-90170000D02*
X167205580Y-90170000D01*
X166924420Y-91190000D02*
X167205580Y-91190000D01*
%TO.C,R14*%
X164130000Y-100563641D02*
X164130000Y-100256359D01*
X164890000Y-100563641D02*
X164890000Y-100256359D01*
%TO.C,R7*%
X144173641Y-92710000D02*
X143866359Y-92710000D01*
X144173641Y-93470000D02*
X143866359Y-93470000D01*
%TO.C,R8*%
X168066359Y-87330000D02*
X168373641Y-87330000D01*
X168066359Y-88090000D02*
X168373641Y-88090000D01*
%TO.C,C2*%
X141872164Y-84140000D02*
X142087836Y-84140000D01*
X141872164Y-84860000D02*
X142087836Y-84860000D01*
D13*
%TO.C,J1*%
X130450000Y-74250000D02*
X134750000Y-74250000D01*
X130450000Y-76250000D02*
X130450000Y-70250000D01*
X130450000Y-76250000D02*
X138050000Y-76250000D01*
X132650000Y-71250000D02*
X136450000Y-71250000D01*
X132650000Y-71850000D02*
X132650000Y-71250000D01*
X132650000Y-74650000D02*
X136450000Y-74650000D01*
X132650000Y-75250000D02*
X132650000Y-74650000D01*
X134750000Y-72250000D02*
X130550000Y-72250000D01*
X134750000Y-74250000D02*
X134750000Y-72250000D01*
X136450000Y-71270000D02*
X136450000Y-71250000D01*
X136450000Y-71850000D02*
X132650000Y-71850000D01*
X136450000Y-73270000D02*
X136450000Y-73230000D01*
X136450000Y-75250000D02*
X132650000Y-75250000D01*
X136450000Y-75250000D02*
X136450000Y-75230000D01*
X138050000Y-70250000D02*
X130490000Y-70250000D01*
X138050000Y-70250000D02*
X138050000Y-71250000D01*
X138050000Y-71250000D02*
X136450000Y-71250000D01*
X138050000Y-75250000D02*
X136450000Y-75250000D01*
X138050000Y-76250000D02*
X138050000Y-75250000D01*
D12*
%TO.C,C15*%
X167042164Y-91520000D02*
X167257836Y-91520000D01*
X167042164Y-92240000D02*
X167257836Y-92240000D01*
%TO.C,TP11*%
X130600000Y-65400000D02*
X134400000Y-65400000D01*
X134400000Y-67600000D01*
X130600000Y-67600000D01*
X130600000Y-65400000D01*
%TO.C,TP23*%
X145900000Y-86900000D02*
X148100000Y-86900000D01*
X148100000Y-83100000D01*
X145900000Y-83100000D01*
X145900000Y-86900000D01*
%TO.C,C12*%
X140083748Y-86900000D02*
X141506252Y-86900000D01*
X140083748Y-88720000D02*
X141506252Y-88720000D01*
%TO.C,R4*%
X162270000Y-89346359D02*
X162270000Y-89653641D01*
X163030000Y-89346359D02*
X163030000Y-89653641D01*
%TO.C,FB1*%
X143890279Y-93790000D02*
X143564721Y-93790000D01*
X143890279Y-94810000D02*
X143564721Y-94810000D01*
%TO.C,R5*%
X162370000Y-84813641D02*
X162370000Y-84506359D01*
X163130000Y-84813641D02*
X163130000Y-84506359D01*
D13*
%TO.C,USB1*%
X130410000Y-78820000D02*
X130410000Y-87820000D01*
X130410000Y-87820000D02*
X131800000Y-87820000D01*
X131800000Y-78820000D02*
X131830000Y-78820000D01*
X131830000Y-78820000D02*
X130410000Y-78820000D01*
X134210000Y-87820000D02*
X135660000Y-87820000D01*
X135610000Y-78820000D02*
X134160000Y-78820000D01*
X135610000Y-78820000D02*
X135650000Y-78820000D01*
X137210000Y-79780000D02*
X137210000Y-79990000D01*
X137210000Y-79990000D02*
X137210000Y-79990000D01*
X137210000Y-86650000D02*
X137210000Y-86860000D01*
X137210000Y-86650000D02*
X137210000Y-86860000D01*
%TO.C,TP5*%
D12*
X150600000Y-104900000D02*
X154400000Y-104900000D01*
X154400000Y-107100000D01*
X150600000Y-107100000D01*
X150600000Y-104900000D01*
%TO.C,Q1*%
X139957500Y-78990000D02*
X141477500Y-78990000D01*
X139957500Y-79040000D02*
X139957500Y-78990000D01*
X139957500Y-80940000D02*
X139957500Y-80160000D01*
X139957500Y-82110000D02*
X139957500Y-82060000D01*
X141477500Y-78990000D02*
X141477500Y-79990000D01*
X141477500Y-81110000D02*
X141477500Y-82110000D01*
X141477500Y-82110000D02*
X139957500Y-82110000D01*
X139657500Y-80500000D02*
X139177500Y-80500000D01*
X139417500Y-80170000D01*
X139657500Y-80500000D01*
G36*
X139657500Y-80500000D02*
G01*
X139177500Y-80500000D01*
X139417500Y-80170000D01*
X139657500Y-80500000D01*
G37*
%TO.C,J2*%
X167690000Y-68990000D02*
X167690000Y-70740000D01*
X167690000Y-70740000D02*
X165800000Y-70740000D01*
X167690000Y-76710000D02*
X167690000Y-74960000D01*
X168340000Y-68990000D02*
X167690000Y-68990000D01*
X168340000Y-76710000D02*
X167690000Y-76710000D01*
X171160000Y-68990000D02*
X171610000Y-68990000D01*
X171610000Y-68990000D02*
X171610000Y-76710000D01*
X171610000Y-76710000D02*
X171160000Y-76710000D01*
%TO.C,TP14*%
X145600000Y-62900000D02*
X149400000Y-62900000D01*
X149400000Y-65100000D01*
X145600000Y-65100000D01*
X145600000Y-62900000D01*
%TO.C,C11*%
X140083748Y-89200000D02*
X141506252Y-89200000D01*
X140083748Y-91020000D02*
X141506252Y-91020000D01*
%TO.C,TP20*%
X175600000Y-65400000D02*
X179400000Y-65400000D01*
X179400000Y-67600000D01*
X175600000Y-67600000D01*
X175600000Y-65400000D01*
%TO.C,TP8*%
X165600000Y-104900000D02*
X169400000Y-104900000D01*
X169400000Y-107100000D01*
X165600000Y-107100000D01*
X165600000Y-104900000D01*
%TO.C,TP7*%
X160600000Y-104900000D02*
X164400000Y-104900000D01*
X164400000Y-107100000D01*
X160600000Y-107100000D01*
X160600000Y-104900000D01*
%TO.C,J4*%
X130390000Y-89890000D02*
X130390000Y-100610000D01*
X130390000Y-100610000D02*
X131240000Y-100610000D01*
X131240000Y-89890000D02*
X130390000Y-89890000D01*
X133660000Y-89890000D02*
X136610000Y-89890000D01*
X133660000Y-100610000D02*
X136610000Y-100610000D01*
X136610000Y-89890000D02*
X136610000Y-91640000D01*
X136610000Y-91640000D02*
X137500000Y-91640000D01*
X136610000Y-100610000D02*
X136610000Y-98860000D01*
%TO.C,TP17*%
X160600000Y-62900000D02*
X164400000Y-62900000D01*
X164400000Y-65100000D01*
X160600000Y-65100000D01*
X160600000Y-62900000D01*
%TO.C,TP10*%
X175600000Y-102400000D02*
X179400000Y-102400000D01*
X179400000Y-104600000D01*
X175600000Y-104600000D01*
X175600000Y-102400000D01*
%TO.C,R2*%
X140648859Y-68732500D02*
X140956141Y-68732500D01*
X140648859Y-69492500D02*
X140956141Y-69492500D01*
%TO.C,LED3*%
X157740000Y-82850000D02*
X157740000Y-85535000D01*
X159660000Y-82850000D02*
X157740000Y-82850000D01*
X159660000Y-85535000D02*
X159660000Y-82850000D01*
%TO.C,Q3*%
X142602500Y-65865000D02*
X144122500Y-65865000D01*
X142602500Y-66865000D02*
X142602500Y-65865000D01*
X142602500Y-68985000D02*
X142602500Y-67985000D01*
X144122500Y-65865000D02*
X144122500Y-65915000D01*
X144122500Y-67035000D02*
X144122500Y-67815000D01*
X144122500Y-68935000D02*
X144122500Y-68985000D01*
X144122500Y-68985000D02*
X142602500Y-68985000D01*
X144662500Y-67805000D02*
X144422500Y-67475000D01*
X144902500Y-67475000D01*
X144662500Y-67805000D01*
G36*
X144662500Y-67805000D02*
G01*
X144422500Y-67475000D01*
X144902500Y-67475000D01*
X144662500Y-67805000D01*
G37*
%TO.C,U3*%
X140710000Y-96060000D02*
X142710000Y-96060000D01*
X140720000Y-98340000D02*
X142720000Y-98340000D01*
X140350000Y-96130000D02*
X140070000Y-96130000D01*
X140350000Y-95850000D01*
X140350000Y-96130000D01*
G36*
X140350000Y-96130000D02*
G01*
X140070000Y-96130000D01*
X140350000Y-95850000D01*
X140350000Y-96130000D01*
G37*
%TO.C,TP2*%
X135600000Y-104900000D02*
X139400000Y-104900000D01*
X139400000Y-107100000D01*
X135600000Y-107100000D01*
X135600000Y-104900000D01*
%TO.C,C4*%
X160840000Y-86412164D02*
X160840000Y-86627836D01*
X161560000Y-86412164D02*
X161560000Y-86627836D01*
%TO.C,R17*%
X149126359Y-82580000D02*
X149433641Y-82580000D01*
X149126359Y-83340000D02*
X149433641Y-83340000D01*
%TO.C,R13*%
X158556359Y-86300000D02*
X158863641Y-86300000D01*
X158556359Y-87060000D02*
X158863641Y-87060000D01*
%TO.C,C9*%
X140624420Y-93790000D02*
X140905580Y-93790000D01*
X140624420Y-94810000D02*
X140905580Y-94810000D01*
%TO.C,C1*%
X140984420Y-85190000D02*
X141265580Y-85190000D01*
X140984420Y-86210000D02*
X141265580Y-86210000D01*
%TO.C,J6*%
X173590000Y-78440000D02*
X173590000Y-80190000D01*
X173590000Y-88910000D02*
X172700000Y-88910000D01*
X173590000Y-90660000D02*
X173590000Y-88910000D01*
X176540000Y-78440000D02*
X173590000Y-78440000D01*
X176540000Y-90660000D02*
X173590000Y-90660000D01*
X178960000Y-90660000D02*
X179810000Y-90660000D01*
X179810000Y-78440000D02*
X178960000Y-78440000D01*
X179810000Y-90660000D02*
X179810000Y-78440000D01*
%TO.C,TP19*%
X170600000Y-62900000D02*
X174400000Y-62900000D01*
X174400000Y-65100000D01*
X170600000Y-65100000D01*
X170600000Y-62900000D01*
%TD*%
%LPC*%
D15*
%TO.C,LED2*%
X156780000Y-83600000D03*
X156780000Y-85475000D03*
%TD*%
D16*
%TO.C,R11*%
X154330000Y-86690000D03*
X155350000Y-86690000D03*
%TD*%
%TO.C,R12*%
X156270000Y-86690000D03*
X157290000Y-86690000D03*
%TD*%
D17*
%TO.C,TP12*%
X137500000Y-64000000D03*
%TD*%
D18*
%TO.C,Q2*%
X139662500Y-70387500D03*
X139662500Y-72287500D03*
X141537500Y-71337500D03*
%TD*%
D19*
%TO.C,U2*%
X162100000Y-87090000D03*
X162400000Y-87090000D03*
X162700000Y-87090000D03*
X163000000Y-87090000D03*
X163000000Y-86250000D03*
X162700000Y-86250000D03*
X162400000Y-86250000D03*
X162100000Y-86250000D03*
%TD*%
D17*
%TO.C,TP4*%
X147500000Y-106000000D03*
%TD*%
D20*
%TO.C,TP25*%
X147000000Y-95100000D03*
%TD*%
D16*
%TO.C,R18*%
X150630000Y-82960000D03*
X151650000Y-82960000D03*
%TD*%
D21*
%TO.C,U4*%
X166000000Y-94300000D03*
X166000000Y-93900000D03*
X166000000Y-93500000D03*
X166000000Y-93100000D03*
X166000000Y-92700000D03*
D22*
X165300000Y-92000000D03*
X164900000Y-92000000D03*
X164500000Y-92000000D03*
X164100000Y-92000000D03*
X163700000Y-92000000D03*
D21*
X163000000Y-92700000D03*
X163000000Y-93100000D03*
X163000000Y-93500000D03*
X163000000Y-93900000D03*
X163000000Y-94300000D03*
D22*
X163700000Y-95000000D03*
X164100000Y-95000000D03*
X164500000Y-95000000D03*
X164900000Y-95000000D03*
X165300000Y-95000000D03*
D23*
X164500000Y-93500000D03*
%TD*%
D17*
%TO.C,TP18*%
X167500000Y-64000000D03*
%TD*%
D24*
%TO.C,J5*%
X174050000Y-99000000D03*
X174050000Y-97500000D03*
X174050000Y-96000000D03*
X174050000Y-94500000D03*
D25*
X177750000Y-100950000D03*
X177750000Y-92550000D03*
%TD*%
D26*
%TO.C,TP26*%
X147000000Y-100000000D03*
%TD*%
D16*
%TO.C,R15*%
X148770000Y-82020000D03*
X149790000Y-82020000D03*
%TD*%
D27*
%TO.C,C10*%
X139320000Y-92410000D03*
X142270000Y-92410000D03*
%TD*%
D28*
%TO.C,SW1*%
X168730000Y-82320000D03*
X168730000Y-86470000D03*
X166580000Y-82320000D03*
X166580000Y-86470000D03*
%TD*%
D29*
%TO.C,RS1*%
X144450000Y-96767500D03*
X144450000Y-99692500D03*
%TD*%
D30*
%TO.C,C7*%
X139400000Y-96730000D03*
X139400000Y-97690000D03*
%TD*%
D17*
%TO.C,TP1*%
X132500000Y-103500000D03*
%TD*%
%TO.C,TP6*%
X157500000Y-106000000D03*
%TD*%
D20*
%TO.C,TP21*%
X147000000Y-75000000D03*
%TD*%
D16*
%TO.C,R1*%
X140180000Y-78300000D03*
X141200000Y-78300000D03*
%TD*%
D20*
%TO.C,TP22*%
X147000000Y-80000000D03*
%TD*%
D31*
%TO.C,D1*%
X163840000Y-84135000D03*
X163840000Y-84835000D03*
%TD*%
D32*
%TO.C,U1*%
X142720000Y-81770052D03*
X142720000Y-82720052D03*
X142720000Y-83670052D03*
X144920000Y-83670052D03*
X144920000Y-81770052D03*
%TD*%
D15*
%TO.C,LED1*%
X154860000Y-83600000D03*
X154860000Y-85475000D03*
%TD*%
D33*
%TO.C,R10*%
X139510000Y-83800000D03*
X138490000Y-83800000D03*
%TD*%
D17*
%TO.C,TP16*%
X157500000Y-64000000D03*
%TD*%
D34*
%TO.C,C5*%
X136600000Y-102490000D03*
X136600000Y-101530000D03*
%TD*%
D35*
%TO.C,J3*%
X175650000Y-71350000D03*
X175650000Y-72850000D03*
X175650000Y-74350000D03*
D36*
X177750000Y-69300000D03*
X177750000Y-76400000D03*
%TD*%
D37*
%TO.C,H1*%
X132750000Y-62750000D03*
%TD*%
D33*
%TO.C,R9*%
X139520000Y-82800000D03*
X138500000Y-82800000D03*
%TD*%
D38*
%TO.C,C3*%
X145000000Y-80700000D03*
X144040000Y-80700000D03*
%TD*%
D39*
%TO.C,C8*%
X140300000Y-95490000D03*
X141260000Y-95490000D03*
%TD*%
D17*
%TO.C,TP15*%
X152500000Y-64000000D03*
%TD*%
%TO.C,TP3*%
X142500000Y-106000000D03*
%TD*%
%TO.C,TP9*%
X172500000Y-106000000D03*
%TD*%
D40*
%TO.C,R6*%
X135600000Y-102500000D03*
X135600000Y-101480000D03*
%TD*%
D39*
%TO.C,C13*%
X167760000Y-81080000D03*
X168720000Y-81080000D03*
%TD*%
D33*
%TO.C,R3*%
X143900000Y-69600000D03*
X142880000Y-69600000D03*
%TD*%
D41*
%TO.C,TH1*%
X165500000Y-99900000D03*
X165500000Y-100920000D03*
%TD*%
D17*
%TO.C,TP13*%
X142500000Y-64000000D03*
%TD*%
D38*
%TO.C,C6*%
X143080000Y-95490000D03*
X142120000Y-95490000D03*
%TD*%
D16*
%TO.C,R16*%
X150630000Y-82020000D03*
X151650000Y-82020000D03*
%TD*%
D20*
%TO.C,TP24*%
X147000000Y-90000000D03*
%TD*%
D42*
%TO.C,C14*%
X166290000Y-90680000D03*
X167840000Y-90680000D03*
%TD*%
D40*
%TO.C,R14*%
X164510000Y-100920000D03*
X164510000Y-99900000D03*
%TD*%
D37*
%TO.C,H2*%
X177250000Y-62750000D03*
%TD*%
D33*
%TO.C,R7*%
X144530000Y-93090000D03*
X143510000Y-93090000D03*
%TD*%
D16*
%TO.C,R8*%
X167710000Y-87710000D03*
X168730000Y-87710000D03*
%TD*%
D39*
%TO.C,C2*%
X141500000Y-84500000D03*
X142460000Y-84500000D03*
%TD*%
D43*
%TO.C,J1*%
X136650000Y-72250000D03*
D44*
X136650000Y-74250000D03*
%TD*%
D39*
%TO.C,C15*%
X166670000Y-91880000D03*
X167630000Y-91880000D03*
%TD*%
D17*
%TO.C,TP11*%
X132500000Y-66500000D03*
%TD*%
D20*
%TO.C,TP23*%
X147000000Y-85000000D03*
%TD*%
D27*
%TO.C,C12*%
X139320000Y-87810000D03*
X142270000Y-87810000D03*
%TD*%
D41*
%TO.C,R4*%
X162650000Y-88990000D03*
X162650000Y-90010000D03*
%TD*%
D45*
%TO.C,FB1*%
X144515000Y-94300000D03*
X142940000Y-94300000D03*
%TD*%
D40*
%TO.C,R5*%
X162750000Y-85170000D03*
X162750000Y-84150000D03*
%TD*%
D46*
%TO.C,USB1*%
X136810000Y-79000000D03*
X133000000Y-79000000D03*
X136810000Y-87640000D03*
X133000000Y-87640000D03*
D47*
X137260000Y-82820000D03*
X137260000Y-84840000D03*
D48*
X137260000Y-86070000D03*
D47*
X137260000Y-83820000D03*
X137260000Y-81800000D03*
D48*
X137260000Y-80570000D03*
%TD*%
D17*
%TO.C,TP5*%
X152500000Y-106000000D03*
%TD*%
D18*
%TO.C,Q1*%
X139780000Y-79600000D03*
X139780000Y-81500000D03*
X141655000Y-80550000D03*
%TD*%
D35*
%TO.C,J2*%
X167650000Y-71350000D03*
X167650000Y-72850000D03*
X167650000Y-74350000D03*
D36*
X169750000Y-69300000D03*
X169750000Y-76400000D03*
%TD*%
D17*
%TO.C,TP14*%
X147500000Y-64000000D03*
%TD*%
D27*
%TO.C,C11*%
X139320000Y-90110000D03*
X142270000Y-90110000D03*
%TD*%
D17*
%TO.C,TP20*%
X177500000Y-66500000D03*
%TD*%
%TO.C,TP8*%
X167500000Y-106000000D03*
%TD*%
%TO.C,TP7*%
X162500000Y-106000000D03*
%TD*%
D49*
%TO.C,J4*%
X136150000Y-92250000D03*
X136150000Y-93750000D03*
X136150000Y-95250000D03*
X136150000Y-96750000D03*
X136150000Y-98250000D03*
D50*
X132450000Y-90300000D03*
X132450000Y-100200000D03*
%TD*%
D17*
%TO.C,TP17*%
X162500000Y-64000000D03*
%TD*%
%TO.C,TP10*%
X177500000Y-103500000D03*
%TD*%
D16*
%TO.C,R2*%
X140292500Y-69112500D03*
X141312500Y-69112500D03*
%TD*%
D15*
%TO.C,LED3*%
X158700000Y-83597500D03*
X158700000Y-85472500D03*
%TD*%
D37*
%TO.C,H4*%
X132750000Y-107250000D03*
%TD*%
D51*
%TO.C,Q3*%
X144300000Y-68375000D03*
X144300000Y-66475000D03*
X142425000Y-67425000D03*
%TD*%
D52*
%TO.C,U3*%
X140770000Y-96450000D03*
X140770000Y-96950000D03*
X140770000Y-97450000D03*
X140770000Y-97950000D03*
X142670000Y-97950000D03*
X142670000Y-97450000D03*
X142670000Y-96950000D03*
X142670000Y-96450000D03*
D53*
X141720000Y-97200000D03*
%TD*%
D17*
%TO.C,TP2*%
X137500000Y-106000000D03*
%TD*%
D37*
%TO.C,H3*%
X177250000Y-107250000D03*
%TD*%
D30*
%TO.C,C4*%
X161200000Y-86040000D03*
X161200000Y-87000000D03*
%TD*%
D16*
%TO.C,R17*%
X148770000Y-82960000D03*
X149790000Y-82960000D03*
%TD*%
%TO.C,R13*%
X158200000Y-86680000D03*
X159220000Y-86680000D03*
%TD*%
D42*
%TO.C,C9*%
X139990000Y-94300000D03*
X141540000Y-94300000D03*
%TD*%
%TO.C,C1*%
X140350000Y-85700000D03*
X141900000Y-85700000D03*
%TD*%
D24*
%TO.C,J6*%
X174050000Y-88300000D03*
X174050000Y-86800000D03*
X174050000Y-85300000D03*
X174050000Y-83800000D03*
X174050000Y-82300000D03*
X174050000Y-80800000D03*
D25*
X177750000Y-90250000D03*
X177750000Y-78850000D03*
%TD*%
D17*
%TO.C,TP19*%
X172500000Y-64000000D03*
%TD*%
%LPD*%
M02*
