%TF.GenerationSoftware,KiCad,Pcbnew,9.0.7*%
%TF.CreationDate,2026-02-18T10:31:35-08:00*%
%TF.ProjectId,servo-dev-board-ch32v006,73657276-6f2d-4646-9576-2d626f617264,rev?*%
%TF.SameCoordinates,Original*%
%TF.FileFunction,Copper,L3,Inr*%
%TF.FilePolarity,Positive*%
%FSLAX46Y46*%
G04 Gerber Fmt 4.6, Leading zero omitted, Abs format (unit mm)*
G04 Created by KiCad (PCBNEW 9.0.7) date 2026-02-18 10:31:35*
%MOMM*%
%LPD*%
G01*
G04 APERTURE LIST*
%TA.AperFunction,ComponentPad*%
%ADD10C,3.500000*%
%TD*%
%TA.AperFunction,ComponentPad*%
%ADD11R,1.400000X1.500000*%
%TD*%
%TA.AperFunction,ComponentPad*%
%ADD12C,1.400000*%
%TD*%
%TA.AperFunction,ComponentPad*%
%ADD13O,1.700000X1.000000*%
%TD*%
%TA.AperFunction,ViaPad*%
%ADD14C,0.600000*%
%TD*%
%TA.AperFunction,ViaPad*%
%ADD15C,0.450000*%
%TD*%
%TA.AperFunction,ViaPad*%
%ADD16C,1.000000*%
%TD*%
%TA.AperFunction,ViaPad*%
%ADD17C,0.800000*%
%TD*%
G04 APERTURE END LIST*
D10*
%TO.N,GND*%
%TO.C,H1*%
X132750000Y-62750000D03*
%TD*%
%TO.N,GND*%
%TO.C,H2*%
X177250000Y-62750000D03*
%TD*%
D11*
%TO.N,VBAT*%
%TO.C,J1*%
X136650000Y-72250000D03*
D12*
%TO.N,GND*%
X136650000Y-74250000D03*
%TD*%
D13*
%TO.N,GND*%
%TO.C,USB1*%
X136810000Y-79000000D03*
X133000000Y-79000000D03*
X136810000Y-87640000D03*
X133000000Y-87640000D03*
%TD*%
D10*
%TO.N,GND*%
%TO.C,H4*%
X132750000Y-107250000D03*
%TD*%
%TO.N,GND*%
%TO.C,H3*%
X177250000Y-107250000D03*
%TD*%
D14*
%TO.N,GND*%
X135400000Y-99300000D03*
X140000000Y-61500000D03*
X178500000Y-104900000D03*
X176100000Y-76000000D03*
X153500000Y-95210000D03*
X142300000Y-103090000D03*
X177000000Y-68100000D03*
X131500000Y-85000000D03*
X140600000Y-103090000D03*
X161540000Y-86250000D03*
D15*
X157900000Y-94600000D03*
D14*
X131950000Y-101250000D03*
X145600000Y-91300000D03*
X178200000Y-99900000D03*
X131300000Y-104900000D03*
X145000000Y-61500000D03*
D15*
X158500000Y-94000000D03*
D14*
X176200000Y-65100000D03*
D16*
X170100000Y-71350000D03*
D15*
X157900000Y-93425000D03*
D14*
X132500000Y-65100000D03*
X175000000Y-108500000D03*
X163400000Y-89300000D03*
X142850000Y-85700000D03*
X131400000Y-65100000D03*
X146600000Y-99100000D03*
X168100000Y-76800000D03*
X155000000Y-108500000D03*
X160282500Y-98020000D03*
X176400000Y-104900000D03*
X156780000Y-84537500D03*
X160000000Y-61500000D03*
X178500000Y-68100000D03*
X133700000Y-65100000D03*
X133800000Y-104900000D03*
X175900000Y-97500000D03*
X178500000Y-85000000D03*
X131500000Y-75000000D03*
X177500000Y-65100000D03*
X153600000Y-99600000D03*
X177200000Y-79900000D03*
X141440000Y-103090000D03*
X164700000Y-86220000D03*
X178500000Y-77750000D03*
D15*
X158500000Y-94575000D03*
D14*
X131900000Y-91350000D03*
X168100000Y-68900000D03*
X150000000Y-108500000D03*
X135000000Y-108500000D03*
D16*
X178200000Y-71350000D03*
D14*
X150000000Y-61500000D03*
X145200000Y-103500000D03*
X131500000Y-95000000D03*
X145600000Y-93100000D03*
X177200000Y-99900000D03*
X168100000Y-76000000D03*
X177500000Y-104900000D03*
X131500000Y-70000000D03*
X154860000Y-84537500D03*
X132950000Y-101250000D03*
D15*
X158500000Y-93400000D03*
D14*
X176100000Y-76800000D03*
X140050000Y-83300000D03*
X154100000Y-91800000D03*
X160000000Y-108500000D03*
X178200000Y-79900000D03*
X165290000Y-94090000D03*
D15*
X159125000Y-94575000D03*
X159125000Y-94000000D03*
D14*
X133000000Y-91350000D03*
X175900000Y-86800000D03*
X165000000Y-108500000D03*
X161482500Y-99010000D03*
X143250000Y-84500000D03*
X158900000Y-89100000D03*
X178300000Y-89200000D03*
X170000000Y-61500000D03*
X138750000Y-95250000D03*
X132500000Y-104900000D03*
X145000000Y-108500000D03*
X178700000Y-65100000D03*
X160900000Y-82800000D03*
X143750000Y-83000000D03*
X165660000Y-89770000D03*
X170000000Y-108500000D03*
X165000000Y-61500000D03*
X168100000Y-69700000D03*
X166090000Y-91010000D03*
X178500000Y-95000000D03*
X177300000Y-93600000D03*
X177300000Y-89200000D03*
X175000000Y-61500000D03*
X155700000Y-103200000D03*
X131500000Y-80000000D03*
X140000000Y-108500000D03*
D15*
X157900000Y-94025000D03*
D14*
X153505000Y-97595000D03*
X135000000Y-61500000D03*
D15*
X159125000Y-93400000D03*
D14*
X158710000Y-84537500D03*
X178300000Y-93600000D03*
X155000000Y-61500000D03*
X161550000Y-87090000D03*
%TO.N,+3.3V*%
X137800000Y-92900000D03*
X144525000Y-95300000D03*
X156900000Y-87500000D03*
X142500000Y-65300000D03*
X164700000Y-87180000D03*
X166400000Y-95700000D03*
X175900000Y-99000000D03*
X164700000Y-88200000D03*
X162512500Y-96500000D03*
X153482753Y-96765159D03*
D17*
X145000000Y-79800000D03*
D14*
X175900000Y-88300000D03*
%TO.N,PGND*%
X143390000Y-88330000D03*
D15*
X142030000Y-96540000D03*
X141390000Y-97010000D03*
X141390000Y-96540000D03*
X142040000Y-97950000D03*
X141400000Y-97480000D03*
X142030000Y-97010000D03*
D14*
X143410000Y-89710000D03*
X143400000Y-90600000D03*
X143390000Y-91940000D03*
X143400000Y-87290000D03*
D15*
X142040000Y-97480000D03*
X141400000Y-97950000D03*
D14*
%TO.N,/DATA*%
X165300000Y-74350000D03*
X178000000Y-74350000D03*
%TO.N,/OUTA*%
X153410000Y-94300000D03*
X149900000Y-80000000D03*
%TO.N,/OUTB*%
X149800000Y-85000000D03*
X152300000Y-94500000D03*
%TO.N,/SWDIO*%
X175900000Y-85300000D03*
X156100000Y-91200000D03*
%TO.N,/nRST*%
X167420000Y-97240000D03*
X157500000Y-97100000D03*
%TO.N,/VSNA*%
X147500000Y-107350000D03*
X147500000Y-103550000D03*
%TO.N,/VSNB*%
X154700000Y-91050000D03*
X152500000Y-107300000D03*
%TO.N,/DE*%
X159300000Y-98700000D03*
X163800000Y-85200000D03*
%TO.N,/IN1*%
X137500000Y-107350000D03*
X143850000Y-97150000D03*
%TO.N,/IN2*%
X142500000Y-107350000D03*
X145065380Y-97265380D03*
%TO.N,/ISNS-*%
X148500000Y-102200000D03*
X143060000Y-101180000D03*
X157500000Y-101200000D03*
%TO.N,/ISNS+*%
X143060000Y-100200000D03*
X158500000Y-100200000D03*
X147200000Y-95100000D03*
%TO.N,/ENCB*%
X175800000Y-94500000D03*
X160200000Y-92000000D03*
%TO.N,/ENCA*%
X175800000Y-96000000D03*
X156450000Y-92650000D03*
D16*
%TO.N,BUS_VIN*%
X170100000Y-72850000D03*
X145900000Y-66475000D03*
X173200000Y-72850000D03*
%TD*%
%TA.AperFunction,Conductor*%
%TO.N,PGND*%
G36*
X143604736Y-86600942D02*
G01*
X143666975Y-86613322D01*
X143684640Y-86620638D01*
X143733319Y-86653165D01*
X143746834Y-86666680D01*
X143763098Y-86691021D01*
X143779361Y-86715360D01*
X143786677Y-86733023D01*
X143799058Y-86795263D01*
X143800000Y-86804823D01*
X143800000Y-93495176D01*
X143799058Y-93504736D01*
X143786677Y-93566976D01*
X143779361Y-93584639D01*
X143746836Y-93633317D01*
X143733317Y-93646836D01*
X143684639Y-93679361D01*
X143666976Y-93686677D01*
X143619275Y-93696165D01*
X143604734Y-93699058D01*
X143595177Y-93700000D01*
X142300000Y-93700000D01*
X142303325Y-93902848D01*
X142303325Y-93902877D01*
X142350000Y-96750000D01*
X142368173Y-97858579D01*
X142396587Y-99591841D01*
X142395785Y-99601514D01*
X142384179Y-99664572D01*
X142377007Y-99682506D01*
X142344658Y-99732011D01*
X142331112Y-99745781D01*
X142282145Y-99778937D01*
X142264330Y-99786402D01*
X142201474Y-99799039D01*
X142191816Y-99800000D01*
X140704823Y-99800000D01*
X140695265Y-99799058D01*
X140677202Y-99795465D01*
X140633023Y-99786677D01*
X140615360Y-99779361D01*
X140591021Y-99763098D01*
X140566680Y-99746834D01*
X140553165Y-99733319D01*
X140520638Y-99684639D01*
X140513322Y-99666979D01*
X140500940Y-99604726D01*
X140500000Y-99595176D01*
X140500000Y-98004823D01*
X140500939Y-97995274D01*
X140513323Y-97933018D01*
X140520638Y-97915360D01*
X140553167Y-97866677D01*
X140566677Y-97853167D01*
X140615361Y-97820637D01*
X140633018Y-97813323D01*
X140695274Y-97800939D01*
X140704823Y-97800000D01*
X141270000Y-97800000D01*
X141270000Y-95910000D01*
X141126449Y-95910000D01*
X141113767Y-95908330D01*
X141057682Y-95893302D01*
X141035716Y-95880620D01*
X140999379Y-95844283D01*
X140986698Y-95822320D01*
X140971668Y-95766226D01*
X140970000Y-95753550D01*
X140970000Y-86804823D01*
X140970939Y-86795274D01*
X140983323Y-86733018D01*
X140990638Y-86715360D01*
X141023167Y-86666677D01*
X141036677Y-86653167D01*
X141085361Y-86620637D01*
X141103018Y-86613323D01*
X141165274Y-86600939D01*
X141174823Y-86600000D01*
X143595177Y-86600000D01*
X143604736Y-86600942D01*
G37*
%TD.AperFunction*%
%TD*%
%TA.AperFunction,Conductor*%
%TO.N,+3.3V*%
G36*
X176821563Y-60320185D02*
G01*
X176867318Y-60372989D01*
X176877262Y-60442147D01*
X176848237Y-60505703D01*
X176789459Y-60543477D01*
X176786672Y-60544259D01*
X176525048Y-60614361D01*
X176525038Y-60614364D01*
X176252499Y-60727254D01*
X176252489Y-60727258D01*
X175997006Y-60874761D01*
X175803223Y-61023456D01*
X175738054Y-61048650D01*
X175669609Y-61034612D01*
X175624631Y-60993965D01*
X175621787Y-60989708D01*
X175510292Y-60878213D01*
X175510288Y-60878210D01*
X175379185Y-60790609D01*
X175379172Y-60790602D01*
X175233501Y-60730264D01*
X175233489Y-60730261D01*
X175078845Y-60699500D01*
X175078842Y-60699500D01*
X174921158Y-60699500D01*
X174921155Y-60699500D01*
X174766510Y-60730261D01*
X174766498Y-60730264D01*
X174620827Y-60790602D01*
X174620814Y-60790609D01*
X174489711Y-60878210D01*
X174489707Y-60878213D01*
X174378213Y-60989707D01*
X174378210Y-60989711D01*
X174290609Y-61120814D01*
X174290602Y-61120827D01*
X174230264Y-61266498D01*
X174230261Y-61266510D01*
X174199500Y-61421153D01*
X174199500Y-61578846D01*
X174230261Y-61733489D01*
X174230264Y-61733501D01*
X174290602Y-61879172D01*
X174290609Y-61879185D01*
X174378210Y-62010288D01*
X174378213Y-62010292D01*
X174489707Y-62121786D01*
X174489711Y-62121789D01*
X174620814Y-62209390D01*
X174620827Y-62209397D01*
X174766498Y-62269735D01*
X174766503Y-62269737D01*
X174836540Y-62283668D01*
X174922337Y-62300735D01*
X174984248Y-62333120D01*
X175018822Y-62393836D01*
X175021085Y-62438537D01*
X174999501Y-62602483D01*
X174999500Y-62602500D01*
X174999500Y-62897513D01*
X175030305Y-63131488D01*
X175038007Y-63189993D01*
X175052083Y-63242525D01*
X175114361Y-63474951D01*
X175114364Y-63474961D01*
X175227254Y-63747500D01*
X175227258Y-63747510D01*
X175374761Y-64002993D01*
X175554352Y-64237040D01*
X175554358Y-64237047D01*
X175654935Y-64337624D01*
X175688420Y-64398947D01*
X175683436Y-64468639D01*
X175654935Y-64512986D01*
X175578213Y-64589707D01*
X175578210Y-64589711D01*
X175490609Y-64720814D01*
X175490602Y-64720827D01*
X175430264Y-64866498D01*
X175430261Y-64866510D01*
X175399500Y-65021153D01*
X175399500Y-65178846D01*
X175430261Y-65333489D01*
X175430264Y-65333501D01*
X175490602Y-65479172D01*
X175490609Y-65479185D01*
X175578210Y-65610288D01*
X175578213Y-65610292D01*
X175689707Y-65721786D01*
X175689711Y-65721789D01*
X175820814Y-65809390D01*
X175820827Y-65809397D01*
X175966498Y-65869735D01*
X175966503Y-65869737D01*
X176121153Y-65900499D01*
X176121156Y-65900500D01*
X176121158Y-65900500D01*
X176278844Y-65900500D01*
X176278845Y-65900499D01*
X176433497Y-65869737D01*
X176579179Y-65809394D01*
X176710289Y-65721789D01*
X176734218Y-65697860D01*
X176762319Y-65669760D01*
X176823642Y-65636275D01*
X176893334Y-65641259D01*
X176937681Y-65669760D01*
X176989707Y-65721786D01*
X176989711Y-65721789D01*
X177120814Y-65809390D01*
X177120827Y-65809397D01*
X177266498Y-65869735D01*
X177266503Y-65869737D01*
X177421153Y-65900499D01*
X177421156Y-65900500D01*
X177421158Y-65900500D01*
X177578844Y-65900500D01*
X177578845Y-65900499D01*
X177733497Y-65869737D01*
X177879179Y-65809394D01*
X178010289Y-65721789D01*
X178012312Y-65719766D01*
X178013634Y-65719043D01*
X178014999Y-65717924D01*
X178015211Y-65718182D01*
X178073632Y-65686276D01*
X178143324Y-65691255D01*
X178184939Y-65717999D01*
X178185001Y-65717924D01*
X178185648Y-65718454D01*
X178187688Y-65719766D01*
X178189711Y-65721789D01*
X178320814Y-65809390D01*
X178320827Y-65809397D01*
X178466498Y-65869735D01*
X178466503Y-65869737D01*
X178621153Y-65900499D01*
X178621156Y-65900500D01*
X178621158Y-65900500D01*
X178778844Y-65900500D01*
X178778845Y-65900499D01*
X178933497Y-65869737D01*
X179079179Y-65809394D01*
X179210289Y-65721789D01*
X179321789Y-65610289D01*
X179409394Y-65479179D01*
X179460939Y-65354738D01*
X179504779Y-65300334D01*
X179571074Y-65278269D01*
X179638773Y-65295548D01*
X179686384Y-65346685D01*
X179699500Y-65402190D01*
X179699500Y-106754523D01*
X179679815Y-106821562D01*
X179627011Y-106867317D01*
X179557853Y-106877261D01*
X179494297Y-106848236D01*
X179456523Y-106789458D01*
X179455725Y-106786616D01*
X179385639Y-106525048D01*
X179272743Y-106252493D01*
X179125238Y-105997006D01*
X178945647Y-105762959D01*
X178945641Y-105762952D01*
X178933808Y-105751119D01*
X178900323Y-105689796D01*
X178905307Y-105620104D01*
X178947179Y-105564171D01*
X178952584Y-105560345D01*
X179010289Y-105521789D01*
X179121789Y-105410289D01*
X179209394Y-105279179D01*
X179269737Y-105133497D01*
X179300500Y-104978842D01*
X179300500Y-104821158D01*
X179300500Y-104821155D01*
X179300499Y-104821153D01*
X179269738Y-104666510D01*
X179269737Y-104666503D01*
X179260938Y-104645261D01*
X179209397Y-104520827D01*
X179209390Y-104520814D01*
X179121789Y-104389711D01*
X179121786Y-104389707D01*
X179010292Y-104278213D01*
X179010288Y-104278210D01*
X178879185Y-104190609D01*
X178879172Y-104190602D01*
X178733501Y-104130264D01*
X178733489Y-104130261D01*
X178578845Y-104099500D01*
X178578842Y-104099500D01*
X178421158Y-104099500D01*
X178421155Y-104099500D01*
X178266510Y-104130261D01*
X178266498Y-104130264D01*
X178120827Y-104190602D01*
X178120814Y-104190609D01*
X178068891Y-104225304D01*
X178002214Y-104246182D01*
X177934833Y-104227698D01*
X177931109Y-104225304D01*
X177879185Y-104190609D01*
X177879172Y-104190602D01*
X177733501Y-104130264D01*
X177733489Y-104130261D01*
X177578845Y-104099500D01*
X177578842Y-104099500D01*
X177421158Y-104099500D01*
X177421155Y-104099500D01*
X177266510Y-104130261D01*
X177266498Y-104130264D01*
X177120827Y-104190602D01*
X177120814Y-104190609D01*
X177018891Y-104258713D01*
X176952213Y-104279591D01*
X176884833Y-104261107D01*
X176881109Y-104258713D01*
X176779185Y-104190609D01*
X176779172Y-104190602D01*
X176633501Y-104130264D01*
X176633489Y-104130261D01*
X176478845Y-104099500D01*
X176478842Y-104099500D01*
X176321158Y-104099500D01*
X176321155Y-104099500D01*
X176166510Y-104130261D01*
X176166498Y-104130264D01*
X176020827Y-104190602D01*
X176020814Y-104190609D01*
X175889711Y-104278210D01*
X175889707Y-104278213D01*
X175778213Y-104389707D01*
X175778210Y-104389711D01*
X175690609Y-104520814D01*
X175690602Y-104520827D01*
X175630264Y-104666498D01*
X175630261Y-104666510D01*
X175599500Y-104821153D01*
X175599500Y-104978846D01*
X175630261Y-105133489D01*
X175630264Y-105133501D01*
X175690602Y-105279172D01*
X175690609Y-105279184D01*
X175773268Y-105402891D01*
X175794146Y-105469568D01*
X175775662Y-105536948D01*
X175757847Y-105559463D01*
X175554358Y-105762952D01*
X175554352Y-105762959D01*
X175374761Y-105997006D01*
X175227258Y-106252489D01*
X175227254Y-106252499D01*
X175114364Y-106525038D01*
X175114361Y-106525048D01*
X175043447Y-106789707D01*
X175038008Y-106810004D01*
X175038006Y-106810015D01*
X174999500Y-107102486D01*
X174999500Y-107397499D01*
X174999501Y-107397516D01*
X175021085Y-107561462D01*
X175010319Y-107630497D01*
X174963939Y-107682753D01*
X174922338Y-107699264D01*
X174766508Y-107730261D01*
X174766498Y-107730264D01*
X174620827Y-107790602D01*
X174620814Y-107790609D01*
X174489711Y-107878210D01*
X174489707Y-107878213D01*
X174378213Y-107989707D01*
X174378210Y-107989711D01*
X174290609Y-108120814D01*
X174290602Y-108120827D01*
X174230264Y-108266498D01*
X174230261Y-108266510D01*
X174199500Y-108421153D01*
X174199500Y-108578846D01*
X174230261Y-108733489D01*
X174230264Y-108733501D01*
X174290602Y-108879172D01*
X174290609Y-108879185D01*
X174378210Y-109010288D01*
X174378213Y-109010292D01*
X174489707Y-109121786D01*
X174489711Y-109121789D01*
X174620814Y-109209390D01*
X174620827Y-109209397D01*
X174766498Y-109269735D01*
X174766503Y-109269737D01*
X174921153Y-109300499D01*
X174921156Y-109300500D01*
X174921158Y-109300500D01*
X175078844Y-109300500D01*
X175078845Y-109300499D01*
X175233497Y-109269737D01*
X175379179Y-109209394D01*
X175510289Y-109121789D01*
X175621789Y-109010289D01*
X175624633Y-109006031D01*
X175678241Y-108961226D01*
X175747565Y-108952515D01*
X175803224Y-108976543D01*
X175997010Y-109125241D01*
X176252489Y-109272741D01*
X176252490Y-109272741D01*
X176252493Y-109272743D01*
X176525048Y-109385639D01*
X176786619Y-109455726D01*
X176846278Y-109492090D01*
X176876807Y-109554937D01*
X176868512Y-109624312D01*
X176824027Y-109678190D01*
X176757475Y-109699465D01*
X176754524Y-109699500D01*
X133245476Y-109699500D01*
X133178437Y-109679815D01*
X133132682Y-109627011D01*
X133122738Y-109557853D01*
X133151763Y-109494297D01*
X133210541Y-109456523D01*
X133213327Y-109455740D01*
X133474952Y-109385639D01*
X133747507Y-109272743D01*
X134002994Y-109125238D01*
X134196776Y-108976543D01*
X134261943Y-108951349D01*
X134330388Y-108965387D01*
X134375360Y-109006024D01*
X134378207Y-109010284D01*
X134378213Y-109010292D01*
X134489707Y-109121786D01*
X134489711Y-109121789D01*
X134620814Y-109209390D01*
X134620827Y-109209397D01*
X134766498Y-109269735D01*
X134766503Y-109269737D01*
X134921153Y-109300499D01*
X134921156Y-109300500D01*
X134921158Y-109300500D01*
X135078844Y-109300500D01*
X135078845Y-109300499D01*
X135233497Y-109269737D01*
X135379179Y-109209394D01*
X135510289Y-109121789D01*
X135621789Y-109010289D01*
X135709394Y-108879179D01*
X135769737Y-108733497D01*
X135800500Y-108578842D01*
X135800500Y-108421158D01*
X135800500Y-108421155D01*
X135800499Y-108421153D01*
X139199500Y-108421153D01*
X139199500Y-108578846D01*
X139230261Y-108733489D01*
X139230264Y-108733501D01*
X139290602Y-108879172D01*
X139290609Y-108879185D01*
X139378210Y-109010288D01*
X139378213Y-109010292D01*
X139489707Y-109121786D01*
X139489711Y-109121789D01*
X139620814Y-109209390D01*
X139620827Y-109209397D01*
X139766498Y-109269735D01*
X139766503Y-109269737D01*
X139921153Y-109300499D01*
X139921156Y-109300500D01*
X139921158Y-109300500D01*
X140078844Y-109300500D01*
X140078845Y-109300499D01*
X140233497Y-109269737D01*
X140379179Y-109209394D01*
X140510289Y-109121789D01*
X140621789Y-109010289D01*
X140709394Y-108879179D01*
X140769737Y-108733497D01*
X140800500Y-108578842D01*
X140800500Y-108421158D01*
X140800500Y-108421155D01*
X140800499Y-108421153D01*
X144199500Y-108421153D01*
X144199500Y-108578846D01*
X144230261Y-108733489D01*
X144230264Y-108733501D01*
X144290602Y-108879172D01*
X144290609Y-108879185D01*
X144378210Y-109010288D01*
X144378213Y-109010292D01*
X144489707Y-109121786D01*
X144489711Y-109121789D01*
X144620814Y-109209390D01*
X144620827Y-109209397D01*
X144766498Y-109269735D01*
X144766503Y-109269737D01*
X144921153Y-109300499D01*
X144921156Y-109300500D01*
X144921158Y-109300500D01*
X145078844Y-109300500D01*
X145078845Y-109300499D01*
X145233497Y-109269737D01*
X145379179Y-109209394D01*
X145510289Y-109121789D01*
X145621789Y-109010289D01*
X145709394Y-108879179D01*
X145769737Y-108733497D01*
X145800500Y-108578842D01*
X145800500Y-108421158D01*
X145800500Y-108421155D01*
X145800499Y-108421153D01*
X149199500Y-108421153D01*
X149199500Y-108578846D01*
X149230261Y-108733489D01*
X149230264Y-108733501D01*
X149290602Y-108879172D01*
X149290609Y-108879185D01*
X149378210Y-109010288D01*
X149378213Y-109010292D01*
X149489707Y-109121786D01*
X149489711Y-109121789D01*
X149620814Y-109209390D01*
X149620827Y-109209397D01*
X149766498Y-109269735D01*
X149766503Y-109269737D01*
X149921153Y-109300499D01*
X149921156Y-109300500D01*
X149921158Y-109300500D01*
X150078844Y-109300500D01*
X150078845Y-109300499D01*
X150233497Y-109269737D01*
X150379179Y-109209394D01*
X150510289Y-109121789D01*
X150621789Y-109010289D01*
X150709394Y-108879179D01*
X150769737Y-108733497D01*
X150800500Y-108578842D01*
X150800500Y-108421158D01*
X150800500Y-108421155D01*
X150800499Y-108421153D01*
X154199500Y-108421153D01*
X154199500Y-108578846D01*
X154230261Y-108733489D01*
X154230264Y-108733501D01*
X154290602Y-108879172D01*
X154290609Y-108879185D01*
X154378210Y-109010288D01*
X154378213Y-109010292D01*
X154489707Y-109121786D01*
X154489711Y-109121789D01*
X154620814Y-109209390D01*
X154620827Y-109209397D01*
X154766498Y-109269735D01*
X154766503Y-109269737D01*
X154921153Y-109300499D01*
X154921156Y-109300500D01*
X154921158Y-109300500D01*
X155078844Y-109300500D01*
X155078845Y-109300499D01*
X155233497Y-109269737D01*
X155379179Y-109209394D01*
X155510289Y-109121789D01*
X155621789Y-109010289D01*
X155709394Y-108879179D01*
X155769737Y-108733497D01*
X155800500Y-108578842D01*
X155800500Y-108421158D01*
X155800500Y-108421155D01*
X155800499Y-108421153D01*
X159199500Y-108421153D01*
X159199500Y-108578846D01*
X159230261Y-108733489D01*
X159230264Y-108733501D01*
X159290602Y-108879172D01*
X159290609Y-108879185D01*
X159378210Y-109010288D01*
X159378213Y-109010292D01*
X159489707Y-109121786D01*
X159489711Y-109121789D01*
X159620814Y-109209390D01*
X159620827Y-109209397D01*
X159766498Y-109269735D01*
X159766503Y-109269737D01*
X159921153Y-109300499D01*
X159921156Y-109300500D01*
X159921158Y-109300500D01*
X160078844Y-109300500D01*
X160078845Y-109300499D01*
X160233497Y-109269737D01*
X160379179Y-109209394D01*
X160510289Y-109121789D01*
X160621789Y-109010289D01*
X160709394Y-108879179D01*
X160769737Y-108733497D01*
X160800500Y-108578842D01*
X160800500Y-108421158D01*
X160800500Y-108421155D01*
X160800499Y-108421153D01*
X164199500Y-108421153D01*
X164199500Y-108578846D01*
X164230261Y-108733489D01*
X164230264Y-108733501D01*
X164290602Y-108879172D01*
X164290609Y-108879185D01*
X164378210Y-109010288D01*
X164378213Y-109010292D01*
X164489707Y-109121786D01*
X164489711Y-109121789D01*
X164620814Y-109209390D01*
X164620827Y-109209397D01*
X164766498Y-109269735D01*
X164766503Y-109269737D01*
X164921153Y-109300499D01*
X164921156Y-109300500D01*
X164921158Y-109300500D01*
X165078844Y-109300500D01*
X165078845Y-109300499D01*
X165233497Y-109269737D01*
X165379179Y-109209394D01*
X165510289Y-109121789D01*
X165621789Y-109010289D01*
X165709394Y-108879179D01*
X165769737Y-108733497D01*
X165800500Y-108578842D01*
X165800500Y-108421158D01*
X165800500Y-108421155D01*
X165800499Y-108421153D01*
X169199500Y-108421153D01*
X169199500Y-108578846D01*
X169230261Y-108733489D01*
X169230264Y-108733501D01*
X169290602Y-108879172D01*
X169290609Y-108879185D01*
X169378210Y-109010288D01*
X169378213Y-109010292D01*
X169489707Y-109121786D01*
X169489711Y-109121789D01*
X169620814Y-109209390D01*
X169620827Y-109209397D01*
X169766498Y-109269735D01*
X169766503Y-109269737D01*
X169921153Y-109300499D01*
X169921156Y-109300500D01*
X169921158Y-109300500D01*
X170078844Y-109300500D01*
X170078845Y-109300499D01*
X170233497Y-109269737D01*
X170379179Y-109209394D01*
X170510289Y-109121789D01*
X170621789Y-109010289D01*
X170709394Y-108879179D01*
X170769737Y-108733497D01*
X170800500Y-108578842D01*
X170800500Y-108421158D01*
X170800500Y-108421155D01*
X170800499Y-108421153D01*
X170772412Y-108279953D01*
X170769737Y-108266503D01*
X170761866Y-108247500D01*
X170709397Y-108120827D01*
X170709390Y-108120814D01*
X170621789Y-107989711D01*
X170621786Y-107989707D01*
X170510292Y-107878213D01*
X170510288Y-107878210D01*
X170379185Y-107790609D01*
X170379172Y-107790602D01*
X170233501Y-107730264D01*
X170233489Y-107730261D01*
X170078845Y-107699500D01*
X170078842Y-107699500D01*
X169921158Y-107699500D01*
X169921155Y-107699500D01*
X169766510Y-107730261D01*
X169766498Y-107730264D01*
X169620827Y-107790602D01*
X169620814Y-107790609D01*
X169489711Y-107878210D01*
X169489707Y-107878213D01*
X169378213Y-107989707D01*
X169378210Y-107989711D01*
X169290609Y-108120814D01*
X169290602Y-108120827D01*
X169230264Y-108266498D01*
X169230261Y-108266510D01*
X169199500Y-108421153D01*
X165800499Y-108421153D01*
X165772412Y-108279953D01*
X165769737Y-108266503D01*
X165761866Y-108247500D01*
X165709397Y-108120827D01*
X165709390Y-108120814D01*
X165621789Y-107989711D01*
X165621786Y-107989707D01*
X165510292Y-107878213D01*
X165510288Y-107878210D01*
X165379185Y-107790609D01*
X165379172Y-107790602D01*
X165233501Y-107730264D01*
X165233489Y-107730261D01*
X165078845Y-107699500D01*
X165078842Y-107699500D01*
X164921158Y-107699500D01*
X164921155Y-107699500D01*
X164766510Y-107730261D01*
X164766498Y-107730264D01*
X164620827Y-107790602D01*
X164620814Y-107790609D01*
X164489711Y-107878210D01*
X164489707Y-107878213D01*
X164378213Y-107989707D01*
X164378210Y-107989711D01*
X164290609Y-108120814D01*
X164290602Y-108120827D01*
X164230264Y-108266498D01*
X164230261Y-108266510D01*
X164199500Y-108421153D01*
X160800499Y-108421153D01*
X160772412Y-108279953D01*
X160769737Y-108266503D01*
X160761866Y-108247500D01*
X160709397Y-108120827D01*
X160709390Y-108120814D01*
X160621789Y-107989711D01*
X160621786Y-107989707D01*
X160510292Y-107878213D01*
X160510288Y-107878210D01*
X160379185Y-107790609D01*
X160379172Y-107790602D01*
X160233501Y-107730264D01*
X160233489Y-107730261D01*
X160078845Y-107699500D01*
X160078842Y-107699500D01*
X159921158Y-107699500D01*
X159921155Y-107699500D01*
X159766510Y-107730261D01*
X159766498Y-107730264D01*
X159620827Y-107790602D01*
X159620814Y-107790609D01*
X159489711Y-107878210D01*
X159489707Y-107878213D01*
X159378213Y-107989707D01*
X159378210Y-107989711D01*
X159290609Y-108120814D01*
X159290602Y-108120827D01*
X159230264Y-108266498D01*
X159230261Y-108266510D01*
X159199500Y-108421153D01*
X155800499Y-108421153D01*
X155772412Y-108279953D01*
X155769737Y-108266503D01*
X155761866Y-108247500D01*
X155709397Y-108120827D01*
X155709390Y-108120814D01*
X155621789Y-107989711D01*
X155621786Y-107989707D01*
X155510292Y-107878213D01*
X155510288Y-107878210D01*
X155379185Y-107790609D01*
X155379172Y-107790602D01*
X155233501Y-107730264D01*
X155233489Y-107730261D01*
X155078845Y-107699500D01*
X155078842Y-107699500D01*
X154921158Y-107699500D01*
X154921155Y-107699500D01*
X154766510Y-107730261D01*
X154766498Y-107730264D01*
X154620827Y-107790602D01*
X154620814Y-107790609D01*
X154489711Y-107878210D01*
X154489707Y-107878213D01*
X154378213Y-107989707D01*
X154378210Y-107989711D01*
X154290609Y-108120814D01*
X154290602Y-108120827D01*
X154230264Y-108266498D01*
X154230261Y-108266510D01*
X154199500Y-108421153D01*
X150800499Y-108421153D01*
X150772412Y-108279953D01*
X150769737Y-108266503D01*
X150761866Y-108247500D01*
X150709397Y-108120827D01*
X150709390Y-108120814D01*
X150621789Y-107989711D01*
X150621786Y-107989707D01*
X150510292Y-107878213D01*
X150510288Y-107878210D01*
X150379185Y-107790609D01*
X150379172Y-107790602D01*
X150233501Y-107730264D01*
X150233489Y-107730261D01*
X150078845Y-107699500D01*
X150078842Y-107699500D01*
X149921158Y-107699500D01*
X149921155Y-107699500D01*
X149766510Y-107730261D01*
X149766498Y-107730264D01*
X149620827Y-107790602D01*
X149620814Y-107790609D01*
X149489711Y-107878210D01*
X149489707Y-107878213D01*
X149378213Y-107989707D01*
X149378210Y-107989711D01*
X149290609Y-108120814D01*
X149290602Y-108120827D01*
X149230264Y-108266498D01*
X149230261Y-108266510D01*
X149199500Y-108421153D01*
X145800499Y-108421153D01*
X145772412Y-108279953D01*
X145769737Y-108266503D01*
X145761866Y-108247500D01*
X145709397Y-108120827D01*
X145709390Y-108120814D01*
X145621789Y-107989711D01*
X145621786Y-107989707D01*
X145510292Y-107878213D01*
X145510288Y-107878210D01*
X145379185Y-107790609D01*
X145379172Y-107790602D01*
X145233501Y-107730264D01*
X145233489Y-107730261D01*
X145078845Y-107699500D01*
X145078842Y-107699500D01*
X144921158Y-107699500D01*
X144921155Y-107699500D01*
X144766510Y-107730261D01*
X144766498Y-107730264D01*
X144620827Y-107790602D01*
X144620814Y-107790609D01*
X144489711Y-107878210D01*
X144489707Y-107878213D01*
X144378213Y-107989707D01*
X144378210Y-107989711D01*
X144290609Y-108120814D01*
X144290602Y-108120827D01*
X144230264Y-108266498D01*
X144230261Y-108266510D01*
X144199500Y-108421153D01*
X140800499Y-108421153D01*
X140772412Y-108279953D01*
X140769737Y-108266503D01*
X140761866Y-108247500D01*
X140709397Y-108120827D01*
X140709390Y-108120814D01*
X140621789Y-107989711D01*
X140621786Y-107989707D01*
X140510292Y-107878213D01*
X140510288Y-107878210D01*
X140379185Y-107790609D01*
X140379172Y-107790602D01*
X140233501Y-107730264D01*
X140233489Y-107730261D01*
X140078845Y-107699500D01*
X140078842Y-107699500D01*
X139921158Y-107699500D01*
X139921155Y-107699500D01*
X139766510Y-107730261D01*
X139766498Y-107730264D01*
X139620827Y-107790602D01*
X139620814Y-107790609D01*
X139489711Y-107878210D01*
X139489707Y-107878213D01*
X139378213Y-107989707D01*
X139378210Y-107989711D01*
X139290609Y-108120814D01*
X139290602Y-108120827D01*
X139230264Y-108266498D01*
X139230261Y-108266510D01*
X139199500Y-108421153D01*
X135800499Y-108421153D01*
X135772412Y-108279953D01*
X135769737Y-108266503D01*
X135761866Y-108247500D01*
X135709397Y-108120827D01*
X135709390Y-108120814D01*
X135621789Y-107989711D01*
X135621786Y-107989707D01*
X135510292Y-107878213D01*
X135510288Y-107878210D01*
X135379185Y-107790609D01*
X135379172Y-107790602D01*
X135233501Y-107730264D01*
X135233491Y-107730261D01*
X135077661Y-107699264D01*
X135015750Y-107666879D01*
X134981176Y-107606163D01*
X134978914Y-107561464D01*
X135000500Y-107397506D01*
X135000500Y-107271153D01*
X136699500Y-107271153D01*
X136699500Y-107428846D01*
X136730261Y-107583489D01*
X136730264Y-107583501D01*
X136790602Y-107729172D01*
X136790609Y-107729185D01*
X136878210Y-107860288D01*
X136878213Y-107860292D01*
X136989707Y-107971786D01*
X136989711Y-107971789D01*
X137120814Y-108059390D01*
X137120827Y-108059397D01*
X137220060Y-108100500D01*
X137266503Y-108119737D01*
X137421153Y-108150499D01*
X137421156Y-108150500D01*
X137421158Y-108150500D01*
X137578844Y-108150500D01*
X137578845Y-108150499D01*
X137733497Y-108119737D01*
X137879179Y-108059394D01*
X138010289Y-107971789D01*
X138121789Y-107860289D01*
X138209394Y-107729179D01*
X138269737Y-107583497D01*
X138300500Y-107428842D01*
X138300500Y-107271158D01*
X138300500Y-107271155D01*
X138300499Y-107271153D01*
X141699500Y-107271153D01*
X141699500Y-107428846D01*
X141730261Y-107583489D01*
X141730264Y-107583501D01*
X141790602Y-107729172D01*
X141790609Y-107729185D01*
X141878210Y-107860288D01*
X141878213Y-107860292D01*
X141989707Y-107971786D01*
X141989711Y-107971789D01*
X142120814Y-108059390D01*
X142120827Y-108059397D01*
X142220060Y-108100500D01*
X142266503Y-108119737D01*
X142421153Y-108150499D01*
X142421156Y-108150500D01*
X142421158Y-108150500D01*
X142578844Y-108150500D01*
X142578845Y-108150499D01*
X142733497Y-108119737D01*
X142879179Y-108059394D01*
X143010289Y-107971789D01*
X143121789Y-107860289D01*
X143209394Y-107729179D01*
X143269737Y-107583497D01*
X143300500Y-107428842D01*
X143300500Y-107271158D01*
X143300500Y-107271155D01*
X143300499Y-107271153D01*
X146699500Y-107271153D01*
X146699500Y-107428846D01*
X146730261Y-107583489D01*
X146730264Y-107583501D01*
X146790602Y-107729172D01*
X146790609Y-107729185D01*
X146878210Y-107860288D01*
X146878213Y-107860292D01*
X146989707Y-107971786D01*
X146989711Y-107971789D01*
X147120814Y-108059390D01*
X147120827Y-108059397D01*
X147220060Y-108100500D01*
X147266503Y-108119737D01*
X147421153Y-108150499D01*
X147421156Y-108150500D01*
X147421158Y-108150500D01*
X147578844Y-108150500D01*
X147578845Y-108150499D01*
X147733497Y-108119737D01*
X147879179Y-108059394D01*
X148010289Y-107971789D01*
X148121789Y-107860289D01*
X148209394Y-107729179D01*
X148269737Y-107583497D01*
X148300500Y-107428842D01*
X148300500Y-107271158D01*
X148300500Y-107271155D01*
X148294155Y-107239258D01*
X148294155Y-107239257D01*
X148290554Y-107221153D01*
X151699500Y-107221153D01*
X151699500Y-107378846D01*
X151730261Y-107533489D01*
X151730264Y-107533501D01*
X151790602Y-107679172D01*
X151790609Y-107679185D01*
X151878210Y-107810288D01*
X151878213Y-107810292D01*
X151989707Y-107921786D01*
X151989711Y-107921789D01*
X152120814Y-108009390D01*
X152120827Y-108009397D01*
X152266498Y-108069735D01*
X152266503Y-108069737D01*
X152421153Y-108100499D01*
X152421156Y-108100500D01*
X152421158Y-108100500D01*
X152578844Y-108100500D01*
X152578845Y-108100499D01*
X152733497Y-108069737D01*
X152879179Y-108009394D01*
X153010289Y-107921789D01*
X153121789Y-107810289D01*
X153209394Y-107679179D01*
X153269737Y-107533497D01*
X153300500Y-107378842D01*
X153300500Y-107221158D01*
X153300500Y-107221155D01*
X153300499Y-107221153D01*
X153279684Y-107116510D01*
X153269737Y-107066503D01*
X153230102Y-106970814D01*
X153209397Y-106920827D01*
X153209390Y-106920814D01*
X153121789Y-106789711D01*
X153121786Y-106789707D01*
X153010292Y-106678213D01*
X153010288Y-106678210D01*
X152879185Y-106590609D01*
X152879172Y-106590602D01*
X152733501Y-106530264D01*
X152733489Y-106530261D01*
X152578845Y-106499500D01*
X152578842Y-106499500D01*
X152421158Y-106499500D01*
X152421155Y-106499500D01*
X152266510Y-106530261D01*
X152266498Y-106530264D01*
X152120827Y-106590602D01*
X152120814Y-106590609D01*
X151989711Y-106678210D01*
X151989707Y-106678213D01*
X151878213Y-106789707D01*
X151878210Y-106789711D01*
X151790609Y-106920814D01*
X151790602Y-106920827D01*
X151730264Y-107066498D01*
X151730261Y-107066510D01*
X151699500Y-107221153D01*
X148290554Y-107221153D01*
X148269738Y-107116510D01*
X148269737Y-107116503D01*
X148263931Y-107102486D01*
X148209397Y-106970827D01*
X148209390Y-106970814D01*
X148121789Y-106839711D01*
X148121786Y-106839707D01*
X148010292Y-106728213D01*
X148010288Y-106728210D01*
X147879185Y-106640609D01*
X147879172Y-106640602D01*
X147733501Y-106580264D01*
X147733489Y-106580261D01*
X147578845Y-106549500D01*
X147578842Y-106549500D01*
X147421158Y-106549500D01*
X147421155Y-106549500D01*
X147266510Y-106580261D01*
X147266498Y-106580264D01*
X147120827Y-106640602D01*
X147120814Y-106640609D01*
X146989711Y-106728210D01*
X146989707Y-106728213D01*
X146878213Y-106839707D01*
X146878210Y-106839711D01*
X146790609Y-106970814D01*
X146790602Y-106970827D01*
X146730264Y-107116498D01*
X146730261Y-107116510D01*
X146699500Y-107271153D01*
X143300499Y-107271153D01*
X143269738Y-107116510D01*
X143269737Y-107116503D01*
X143263931Y-107102486D01*
X143209397Y-106970827D01*
X143209390Y-106970814D01*
X143121789Y-106839711D01*
X143121786Y-106839707D01*
X143010292Y-106728213D01*
X143010288Y-106728210D01*
X142879185Y-106640609D01*
X142879172Y-106640602D01*
X142733501Y-106580264D01*
X142733489Y-106580261D01*
X142578845Y-106549500D01*
X142578842Y-106549500D01*
X142421158Y-106549500D01*
X142421155Y-106549500D01*
X142266510Y-106580261D01*
X142266498Y-106580264D01*
X142120827Y-106640602D01*
X142120814Y-106640609D01*
X141989711Y-106728210D01*
X141989707Y-106728213D01*
X141878213Y-106839707D01*
X141878210Y-106839711D01*
X141790609Y-106970814D01*
X141790602Y-106970827D01*
X141730264Y-107116498D01*
X141730261Y-107116510D01*
X141699500Y-107271153D01*
X138300499Y-107271153D01*
X138269738Y-107116510D01*
X138269737Y-107116503D01*
X138263931Y-107102486D01*
X138209397Y-106970827D01*
X138209390Y-106970814D01*
X138121789Y-106839711D01*
X138121786Y-106839707D01*
X138010292Y-106728213D01*
X138010288Y-106728210D01*
X137879185Y-106640609D01*
X137879172Y-106640602D01*
X137733501Y-106580264D01*
X137733489Y-106580261D01*
X137578845Y-106549500D01*
X137578842Y-106549500D01*
X137421158Y-106549500D01*
X137421155Y-106549500D01*
X137266510Y-106580261D01*
X137266498Y-106580264D01*
X137120827Y-106640602D01*
X137120814Y-106640609D01*
X136989711Y-106728210D01*
X136989707Y-106728213D01*
X136878213Y-106839707D01*
X136878210Y-106839711D01*
X136790609Y-106970814D01*
X136790602Y-106970827D01*
X136730264Y-107116498D01*
X136730261Y-107116510D01*
X136699500Y-107271153D01*
X135000500Y-107271153D01*
X135000500Y-107102494D01*
X134961993Y-106810007D01*
X134885639Y-106525048D01*
X134772743Y-106252493D01*
X134625238Y-105997006D01*
X134445648Y-105762960D01*
X134419383Y-105736695D01*
X134345062Y-105662374D01*
X134311579Y-105601054D01*
X134316563Y-105531362D01*
X134345062Y-105487015D01*
X134421789Y-105410289D01*
X134509394Y-105279179D01*
X134569737Y-105133497D01*
X134600500Y-104978842D01*
X134600500Y-104821158D01*
X134600500Y-104821155D01*
X134600499Y-104821153D01*
X134569738Y-104666510D01*
X134569737Y-104666503D01*
X134560938Y-104645261D01*
X134509397Y-104520827D01*
X134509390Y-104520814D01*
X134421789Y-104389711D01*
X134421786Y-104389707D01*
X134310292Y-104278213D01*
X134310288Y-104278210D01*
X134179185Y-104190609D01*
X134179172Y-104190602D01*
X134033501Y-104130264D01*
X134033489Y-104130261D01*
X133878845Y-104099500D01*
X133878842Y-104099500D01*
X133721158Y-104099500D01*
X133721155Y-104099500D01*
X133566510Y-104130261D01*
X133566498Y-104130264D01*
X133420827Y-104190602D01*
X133420814Y-104190609D01*
X133289711Y-104278210D01*
X133289707Y-104278213D01*
X133237681Y-104330240D01*
X133176358Y-104363725D01*
X133106666Y-104358741D01*
X133062319Y-104330240D01*
X133010292Y-104278213D01*
X133010288Y-104278210D01*
X132879185Y-104190609D01*
X132879172Y-104190602D01*
X132733501Y-104130264D01*
X132733489Y-104130261D01*
X132578845Y-104099500D01*
X132578842Y-104099500D01*
X132421158Y-104099500D01*
X132421155Y-104099500D01*
X132266510Y-104130261D01*
X132266498Y-104130264D01*
X132120827Y-104190602D01*
X132120814Y-104190609D01*
X131989711Y-104278210D01*
X131989707Y-104278213D01*
X131987681Y-104280240D01*
X131986357Y-104280962D01*
X131985001Y-104282076D01*
X131984789Y-104281818D01*
X131926358Y-104313725D01*
X131856666Y-104308741D01*
X131815060Y-104282001D01*
X131814999Y-104282076D01*
X131814360Y-104281552D01*
X131812319Y-104280240D01*
X131810292Y-104278213D01*
X131810288Y-104278210D01*
X131679185Y-104190609D01*
X131679172Y-104190602D01*
X131533501Y-104130264D01*
X131533489Y-104130261D01*
X131378845Y-104099500D01*
X131378842Y-104099500D01*
X131221158Y-104099500D01*
X131221155Y-104099500D01*
X131066510Y-104130261D01*
X131066498Y-104130264D01*
X130920827Y-104190602D01*
X130920814Y-104190609D01*
X130789711Y-104278210D01*
X130789707Y-104278213D01*
X130678213Y-104389707D01*
X130678210Y-104389711D01*
X130590609Y-104520814D01*
X130590602Y-104520827D01*
X130539061Y-104645261D01*
X130495220Y-104699665D01*
X130428926Y-104721730D01*
X130361227Y-104704451D01*
X130313616Y-104653314D01*
X130300500Y-104597809D01*
X130300500Y-103011153D01*
X139799500Y-103011153D01*
X139799500Y-103168846D01*
X139830261Y-103323489D01*
X139830264Y-103323501D01*
X139890602Y-103469172D01*
X139890609Y-103469185D01*
X139978210Y-103600288D01*
X139978213Y-103600292D01*
X140089707Y-103711786D01*
X140089711Y-103711789D01*
X140220814Y-103799390D01*
X140220827Y-103799397D01*
X140366498Y-103859735D01*
X140366503Y-103859737D01*
X140521153Y-103890499D01*
X140521156Y-103890500D01*
X140521158Y-103890500D01*
X140678844Y-103890500D01*
X140678845Y-103890499D01*
X140833497Y-103859737D01*
X140900331Y-103832053D01*
X140972548Y-103802141D01*
X141042017Y-103794672D01*
X141067452Y-103802141D01*
X141206498Y-103859735D01*
X141206503Y-103859737D01*
X141361153Y-103890499D01*
X141361156Y-103890500D01*
X141361158Y-103890500D01*
X141518844Y-103890500D01*
X141518845Y-103890499D01*
X141673497Y-103859737D01*
X141736026Y-103833836D01*
X141822548Y-103797999D01*
X141892017Y-103790530D01*
X141917452Y-103797999D01*
X142066498Y-103859735D01*
X142066503Y-103859737D01*
X142221153Y-103890499D01*
X142221156Y-103890500D01*
X142221158Y-103890500D01*
X142378844Y-103890500D01*
X142378845Y-103890499D01*
X142533497Y-103859737D01*
X142679179Y-103799394D01*
X142810289Y-103711789D01*
X142921789Y-103600289D01*
X143009394Y-103469179D01*
X143029287Y-103421153D01*
X144399500Y-103421153D01*
X144399500Y-103578846D01*
X144430261Y-103733489D01*
X144430264Y-103733501D01*
X144490602Y-103879172D01*
X144490609Y-103879185D01*
X144578210Y-104010288D01*
X144578213Y-104010292D01*
X144689707Y-104121786D01*
X144689711Y-104121789D01*
X144820814Y-104209390D01*
X144820827Y-104209397D01*
X144945668Y-104261107D01*
X144966503Y-104269737D01*
X145121153Y-104300499D01*
X145121156Y-104300500D01*
X145121158Y-104300500D01*
X145278844Y-104300500D01*
X145278845Y-104300499D01*
X145433497Y-104269737D01*
X145579179Y-104209394D01*
X145710289Y-104121789D01*
X145821789Y-104010289D01*
X145909394Y-103879179D01*
X145969737Y-103733497D01*
X146000500Y-103578842D01*
X146000500Y-103471153D01*
X146699500Y-103471153D01*
X146699500Y-103628846D01*
X146730261Y-103783489D01*
X146730264Y-103783501D01*
X146790602Y-103929172D01*
X146790609Y-103929185D01*
X146878210Y-104060288D01*
X146878213Y-104060292D01*
X146989707Y-104171786D01*
X146989711Y-104171789D01*
X147120814Y-104259390D01*
X147120827Y-104259397D01*
X147262121Y-104317922D01*
X147266503Y-104319737D01*
X147421153Y-104350499D01*
X147421156Y-104350500D01*
X147421158Y-104350500D01*
X147578844Y-104350500D01*
X147578845Y-104350499D01*
X147733497Y-104319737D01*
X147854213Y-104269735D01*
X147879172Y-104259397D01*
X147879172Y-104259396D01*
X147879179Y-104259394D01*
X148010289Y-104171789D01*
X148121789Y-104060289D01*
X148209394Y-103929179D01*
X148269737Y-103783497D01*
X148300500Y-103628842D01*
X148300500Y-103471158D01*
X148300500Y-103471155D01*
X148300499Y-103471153D01*
X148300105Y-103469172D01*
X148269737Y-103316503D01*
X148254138Y-103278844D01*
X148209397Y-103170827D01*
X148206521Y-103165446D01*
X148208731Y-103164264D01*
X148195225Y-103121153D01*
X154899500Y-103121153D01*
X154899500Y-103278846D01*
X154930261Y-103433489D01*
X154930264Y-103433501D01*
X154990602Y-103579172D01*
X154990609Y-103579185D01*
X155078210Y-103710288D01*
X155078213Y-103710292D01*
X155189707Y-103821786D01*
X155189711Y-103821789D01*
X155320814Y-103909390D01*
X155320827Y-103909397D01*
X155466498Y-103969735D01*
X155466503Y-103969737D01*
X155621153Y-104000499D01*
X155621156Y-104000500D01*
X155621158Y-104000500D01*
X155778844Y-104000500D01*
X155778845Y-104000499D01*
X155933497Y-103969737D01*
X156079179Y-103909394D01*
X156210289Y-103821789D01*
X156321789Y-103710289D01*
X156409394Y-103579179D01*
X156469737Y-103433497D01*
X156500500Y-103278842D01*
X156500500Y-103121158D01*
X156500500Y-103121155D01*
X156500499Y-103121153D01*
X156476499Y-103000499D01*
X156469737Y-102966503D01*
X156446080Y-102909390D01*
X156409397Y-102820827D01*
X156409390Y-102820814D01*
X156321789Y-102689711D01*
X156321786Y-102689707D01*
X156210292Y-102578213D01*
X156210288Y-102578210D01*
X156079185Y-102490609D01*
X156079172Y-102490602D01*
X155933501Y-102430264D01*
X155933489Y-102430261D01*
X155778845Y-102399500D01*
X155778842Y-102399500D01*
X155621158Y-102399500D01*
X155621155Y-102399500D01*
X155466510Y-102430261D01*
X155466498Y-102430264D01*
X155320827Y-102490602D01*
X155320814Y-102490609D01*
X155189711Y-102578210D01*
X155189707Y-102578213D01*
X155078213Y-102689707D01*
X155078210Y-102689711D01*
X154990609Y-102820814D01*
X154990602Y-102820827D01*
X154930264Y-102966498D01*
X154930261Y-102966510D01*
X154899500Y-103121153D01*
X148195225Y-103121153D01*
X148191125Y-103108065D01*
X148209600Y-103040683D01*
X148261572Y-102993985D01*
X148330541Y-102982798D01*
X148339297Y-102984217D01*
X148421155Y-103000500D01*
X148421158Y-103000500D01*
X148578844Y-103000500D01*
X148578845Y-103000499D01*
X148589179Y-102998443D01*
X148614287Y-102993450D01*
X148614292Y-102993449D01*
X148699800Y-102976439D01*
X148733497Y-102969737D01*
X148879179Y-102909394D01*
X149010289Y-102821789D01*
X149121789Y-102710289D01*
X149209394Y-102579179D01*
X149269737Y-102433497D01*
X149300500Y-102278842D01*
X149300500Y-102121158D01*
X149300500Y-102121155D01*
X149300499Y-102121153D01*
X149280326Y-102019737D01*
X149269737Y-101966503D01*
X149246080Y-101909390D01*
X149209397Y-101820827D01*
X149209390Y-101820814D01*
X149121789Y-101689711D01*
X149121786Y-101689707D01*
X149010292Y-101578213D01*
X149010288Y-101578210D01*
X148879185Y-101490609D01*
X148879172Y-101490602D01*
X148733501Y-101430264D01*
X148733489Y-101430261D01*
X148578845Y-101399500D01*
X148578842Y-101399500D01*
X148421158Y-101399500D01*
X148421155Y-101399500D01*
X148266510Y-101430261D01*
X148266498Y-101430264D01*
X148120827Y-101490602D01*
X148120814Y-101490609D01*
X147989711Y-101578210D01*
X147989707Y-101578213D01*
X147878213Y-101689707D01*
X147878210Y-101689711D01*
X147790609Y-101820814D01*
X147790602Y-101820827D01*
X147730264Y-101966498D01*
X147730261Y-101966510D01*
X147699500Y-102121153D01*
X147699500Y-102278846D01*
X147730261Y-102433489D01*
X147730264Y-102433501D01*
X147790602Y-102579172D01*
X147793479Y-102584554D01*
X147791272Y-102585733D01*
X147808874Y-102641958D01*
X147790386Y-102709337D01*
X147738405Y-102756025D01*
X147669434Y-102767197D01*
X147660703Y-102765782D01*
X147578846Y-102749500D01*
X147578842Y-102749500D01*
X147421158Y-102749500D01*
X147421155Y-102749500D01*
X147266510Y-102780261D01*
X147266498Y-102780264D01*
X147120827Y-102840602D01*
X147120814Y-102840609D01*
X146989711Y-102928210D01*
X146989707Y-102928213D01*
X146878213Y-103039707D01*
X146878210Y-103039711D01*
X146790609Y-103170814D01*
X146790602Y-103170827D01*
X146730264Y-103316498D01*
X146730261Y-103316510D01*
X146699500Y-103471153D01*
X146000500Y-103471153D01*
X146000500Y-103421158D01*
X146000500Y-103421155D01*
X146000499Y-103421153D01*
X145989849Y-103367613D01*
X145969737Y-103266503D01*
X145930102Y-103170814D01*
X145909397Y-103120827D01*
X145909390Y-103120814D01*
X145821789Y-102989711D01*
X145821786Y-102989707D01*
X145710292Y-102878213D01*
X145710288Y-102878210D01*
X145579185Y-102790609D01*
X145579172Y-102790602D01*
X145433501Y-102730264D01*
X145433489Y-102730261D01*
X145278845Y-102699500D01*
X145278842Y-102699500D01*
X145121158Y-102699500D01*
X145121155Y-102699500D01*
X144966510Y-102730261D01*
X144966498Y-102730264D01*
X144820827Y-102790602D01*
X144820814Y-102790609D01*
X144689711Y-102878210D01*
X144689707Y-102878213D01*
X144578213Y-102989707D01*
X144578210Y-102989711D01*
X144490609Y-103120814D01*
X144490602Y-103120827D01*
X144430264Y-103266498D01*
X144430261Y-103266510D01*
X144399500Y-103421153D01*
X143029287Y-103421153D01*
X143069737Y-103323497D01*
X143100500Y-103168842D01*
X143100500Y-103011158D01*
X143100500Y-103011155D01*
X143100499Y-103011153D01*
X143091619Y-102966510D01*
X143069737Y-102856503D01*
X143032746Y-102767197D01*
X143009397Y-102710827D01*
X143009390Y-102710814D01*
X142921789Y-102579711D01*
X142921786Y-102579707D01*
X142810292Y-102468213D01*
X142810288Y-102468210D01*
X142679185Y-102380609D01*
X142679172Y-102380602D01*
X142533501Y-102320264D01*
X142533489Y-102320261D01*
X142378845Y-102289500D01*
X142378842Y-102289500D01*
X142221158Y-102289500D01*
X142221155Y-102289500D01*
X142066510Y-102320261D01*
X142066498Y-102320264D01*
X141917452Y-102382001D01*
X141847983Y-102389470D01*
X141822548Y-102382001D01*
X141673501Y-102320264D01*
X141673489Y-102320261D01*
X141518845Y-102289500D01*
X141518842Y-102289500D01*
X141361158Y-102289500D01*
X141361155Y-102289500D01*
X141206510Y-102320261D01*
X141206498Y-102320264D01*
X141067452Y-102377859D01*
X140997983Y-102385328D01*
X140972548Y-102377859D01*
X140833501Y-102320264D01*
X140833489Y-102320261D01*
X140678845Y-102289500D01*
X140678842Y-102289500D01*
X140521158Y-102289500D01*
X140521155Y-102289500D01*
X140366510Y-102320261D01*
X140366498Y-102320264D01*
X140220827Y-102380602D01*
X140220814Y-102380609D01*
X140089711Y-102468210D01*
X140089707Y-102468213D01*
X139978213Y-102579707D01*
X139978210Y-102579711D01*
X139890609Y-102710814D01*
X139890602Y-102710827D01*
X139830264Y-102856498D01*
X139830261Y-102856510D01*
X139799500Y-103011153D01*
X130300500Y-103011153D01*
X130300500Y-101171153D01*
X131149500Y-101171153D01*
X131149500Y-101328846D01*
X131180261Y-101483489D01*
X131180264Y-101483501D01*
X131240602Y-101629172D01*
X131240609Y-101629185D01*
X131328210Y-101760288D01*
X131328213Y-101760292D01*
X131439707Y-101871786D01*
X131439711Y-101871789D01*
X131570814Y-101959390D01*
X131570827Y-101959397D01*
X131670060Y-102000500D01*
X131716503Y-102019737D01*
X131871153Y-102050499D01*
X131871156Y-102050500D01*
X131871158Y-102050500D01*
X132028844Y-102050500D01*
X132028845Y-102050499D01*
X132183497Y-102019737D01*
X132329179Y-101959394D01*
X132381110Y-101924694D01*
X132447785Y-101903816D01*
X132515165Y-101922300D01*
X132518863Y-101924676D01*
X132570821Y-101959394D01*
X132570823Y-101959395D01*
X132570825Y-101959396D01*
X132670058Y-102000499D01*
X132716503Y-102019737D01*
X132871153Y-102050499D01*
X132871156Y-102050500D01*
X132871158Y-102050500D01*
X133028844Y-102050500D01*
X133028845Y-102050499D01*
X133183497Y-102019737D01*
X133329179Y-101959394D01*
X133460289Y-101871789D01*
X133571789Y-101760289D01*
X133659394Y-101629179D01*
X133719737Y-101483497D01*
X133750500Y-101328842D01*
X133750500Y-101171158D01*
X133750500Y-101171155D01*
X133750499Y-101171153D01*
X133719738Y-101016510D01*
X133719737Y-101016503D01*
X133717750Y-101011706D01*
X133659397Y-100870827D01*
X133659390Y-100870814D01*
X133571789Y-100739711D01*
X133571786Y-100739707D01*
X133460292Y-100628213D01*
X133460288Y-100628210D01*
X133329185Y-100540609D01*
X133329172Y-100540602D01*
X133183501Y-100480264D01*
X133183489Y-100480261D01*
X133028845Y-100449500D01*
X133028842Y-100449500D01*
X132871158Y-100449500D01*
X132871155Y-100449500D01*
X132716510Y-100480261D01*
X132716498Y-100480264D01*
X132570827Y-100540602D01*
X132570814Y-100540609D01*
X132518891Y-100575304D01*
X132452214Y-100596182D01*
X132384833Y-100577698D01*
X132381109Y-100575304D01*
X132329185Y-100540609D01*
X132329172Y-100540602D01*
X132183501Y-100480264D01*
X132183489Y-100480261D01*
X132028845Y-100449500D01*
X132028842Y-100449500D01*
X131871158Y-100449500D01*
X131871155Y-100449500D01*
X131716510Y-100480261D01*
X131716498Y-100480264D01*
X131570827Y-100540602D01*
X131570814Y-100540609D01*
X131439711Y-100628210D01*
X131439707Y-100628213D01*
X131328213Y-100739707D01*
X131328210Y-100739711D01*
X131240609Y-100870814D01*
X131240602Y-100870827D01*
X131180264Y-101016498D01*
X131180261Y-101016510D01*
X131149500Y-101171153D01*
X130300500Y-101171153D01*
X130300500Y-99221153D01*
X134599500Y-99221153D01*
X134599500Y-99378846D01*
X134630261Y-99533489D01*
X134630264Y-99533501D01*
X134690602Y-99679172D01*
X134690609Y-99679185D01*
X134778210Y-99810288D01*
X134778213Y-99810292D01*
X134889707Y-99921786D01*
X134889711Y-99921789D01*
X135020814Y-100009390D01*
X135020827Y-100009397D01*
X135166498Y-100069735D01*
X135166503Y-100069737D01*
X135321153Y-100100499D01*
X135321156Y-100100500D01*
X135321158Y-100100500D01*
X135478844Y-100100500D01*
X135478845Y-100100499D01*
X135633497Y-100069737D01*
X135779179Y-100009394D01*
X135910289Y-99921789D01*
X136021789Y-99810289D01*
X136109394Y-99679179D01*
X136169737Y-99533497D01*
X136200500Y-99378842D01*
X136200500Y-99221158D01*
X136200500Y-99221155D01*
X136200499Y-99221153D01*
X136194422Y-99190602D01*
X136169737Y-99066503D01*
X136150955Y-99021158D01*
X136109397Y-98920827D01*
X136109390Y-98920814D01*
X136021789Y-98789711D01*
X136021786Y-98789707D01*
X135910292Y-98678213D01*
X135910288Y-98678210D01*
X135779185Y-98590609D01*
X135779172Y-98590602D01*
X135633501Y-98530264D01*
X135633489Y-98530261D01*
X135478845Y-98499500D01*
X135478842Y-98499500D01*
X135321158Y-98499500D01*
X135321155Y-98499500D01*
X135166510Y-98530261D01*
X135166498Y-98530264D01*
X135020827Y-98590602D01*
X135020814Y-98590609D01*
X134889711Y-98678210D01*
X134889707Y-98678213D01*
X134778213Y-98789707D01*
X134778210Y-98789711D01*
X134690609Y-98920814D01*
X134690602Y-98920827D01*
X134630264Y-99066498D01*
X134630261Y-99066510D01*
X134599500Y-99221153D01*
X130300500Y-99221153D01*
X130300500Y-98004811D01*
X139994500Y-98004811D01*
X139994500Y-98004823D01*
X139994500Y-99595176D01*
X139995242Y-99610288D01*
X139996931Y-99644703D01*
X139997871Y-99654245D01*
X139997876Y-99654282D01*
X140005151Y-99703333D01*
X140017534Y-99765590D01*
X140046309Y-99860446D01*
X140046311Y-99860451D01*
X140050158Y-99869738D01*
X140053626Y-99878108D01*
X140076974Y-99921786D01*
X140100325Y-99965471D01*
X140100337Y-99965491D01*
X140132844Y-100014142D01*
X140132852Y-100014153D01*
X140132857Y-100014160D01*
X140195723Y-100090761D01*
X140209238Y-100104276D01*
X140285839Y-100167142D01*
X140334519Y-100199669D01*
X140421919Y-100246384D01*
X140439582Y-100253700D01*
X140534403Y-100282464D01*
X140596645Y-100294845D01*
X140596670Y-100294848D01*
X140596677Y-100294850D01*
X140645240Y-100302055D01*
X140645685Y-100302121D01*
X140655243Y-100303063D01*
X140704823Y-100305500D01*
X140704836Y-100305500D01*
X142163038Y-100305500D01*
X142230077Y-100325185D01*
X142275832Y-100377989D01*
X142284655Y-100405307D01*
X142290261Y-100433492D01*
X142290264Y-100433501D01*
X142350205Y-100578211D01*
X142350606Y-100579179D01*
X142361967Y-100596182D01*
X142378623Y-100621110D01*
X142399500Y-100687788D01*
X142381015Y-100755168D01*
X142378623Y-100758890D01*
X142350604Y-100800824D01*
X142290264Y-100946498D01*
X142290261Y-100946510D01*
X142259500Y-101101153D01*
X142259500Y-101258846D01*
X142290261Y-101413489D01*
X142290264Y-101413501D01*
X142350602Y-101559172D01*
X142350609Y-101559185D01*
X142438210Y-101690288D01*
X142438213Y-101690292D01*
X142549707Y-101801786D01*
X142549711Y-101801789D01*
X142680814Y-101889390D01*
X142680827Y-101889397D01*
X142826498Y-101949735D01*
X142826503Y-101949737D01*
X142981153Y-101980499D01*
X142981156Y-101980500D01*
X142981158Y-101980500D01*
X143138844Y-101980500D01*
X143138845Y-101980499D01*
X143293497Y-101949737D01*
X143439179Y-101889394D01*
X143570289Y-101801789D01*
X143681789Y-101690289D01*
X143769394Y-101559179D01*
X143829737Y-101413497D01*
X143860500Y-101258842D01*
X143860500Y-101121153D01*
X156699500Y-101121153D01*
X156699500Y-101278846D01*
X156730261Y-101433489D01*
X156730264Y-101433501D01*
X156790602Y-101579172D01*
X156790609Y-101579185D01*
X156878210Y-101710288D01*
X156878213Y-101710292D01*
X156989707Y-101821786D01*
X156989711Y-101821789D01*
X157120814Y-101909390D01*
X157120827Y-101909397D01*
X157258683Y-101966498D01*
X157266503Y-101969737D01*
X157421153Y-102000499D01*
X157421156Y-102000500D01*
X157421158Y-102000500D01*
X157578844Y-102000500D01*
X157578845Y-102000499D01*
X157733497Y-101969737D01*
X157879179Y-101909394D01*
X158010289Y-101821789D01*
X158121789Y-101710289D01*
X158209394Y-101579179D01*
X158269737Y-101433497D01*
X158300500Y-101278842D01*
X158300500Y-101124500D01*
X158320185Y-101057461D01*
X158372989Y-101011706D01*
X158424500Y-101000500D01*
X158578844Y-101000500D01*
X158578845Y-101000499D01*
X158733497Y-100969737D01*
X158879179Y-100909394D01*
X159010289Y-100821789D01*
X159121789Y-100710289D01*
X159209394Y-100579179D01*
X159210008Y-100577698D01*
X159230318Y-100528663D01*
X159269737Y-100433497D01*
X159300500Y-100278842D01*
X159300500Y-100121158D01*
X159300500Y-100121155D01*
X159300499Y-100121153D01*
X159290271Y-100069735D01*
X159269737Y-99966503D01*
X159242398Y-99900500D01*
X159209532Y-99821153D01*
X176399500Y-99821153D01*
X176399500Y-99978846D01*
X176430261Y-100133489D01*
X176430264Y-100133501D01*
X176490602Y-100279172D01*
X176490609Y-100279185D01*
X176578210Y-100410288D01*
X176578213Y-100410292D01*
X176689707Y-100521786D01*
X176689711Y-100521789D01*
X176820814Y-100609390D01*
X176820827Y-100609397D01*
X176866254Y-100628213D01*
X176966503Y-100669737D01*
X177079507Y-100692215D01*
X177121153Y-100700499D01*
X177121156Y-100700500D01*
X177121158Y-100700500D01*
X177278844Y-100700500D01*
X177278845Y-100700499D01*
X177433497Y-100669737D01*
X177579179Y-100609394D01*
X177631110Y-100574694D01*
X177697785Y-100553816D01*
X177765165Y-100572300D01*
X177768863Y-100574676D01*
X177820821Y-100609394D01*
X177820823Y-100609395D01*
X177820825Y-100609396D01*
X177866254Y-100628213D01*
X177966503Y-100669737D01*
X178079507Y-100692215D01*
X178121153Y-100700499D01*
X178121156Y-100700500D01*
X178121158Y-100700500D01*
X178278844Y-100700500D01*
X178278845Y-100700499D01*
X178433497Y-100669737D01*
X178579179Y-100609394D01*
X178710289Y-100521789D01*
X178821789Y-100410289D01*
X178909394Y-100279179D01*
X178919949Y-100253698D01*
X178923067Y-100246166D01*
X178969737Y-100133497D01*
X179000500Y-99978842D01*
X179000500Y-99821158D01*
X179000500Y-99821155D01*
X179000499Y-99821153D01*
X178980734Y-99721789D01*
X178969737Y-99666503D01*
X178940188Y-99595164D01*
X178909397Y-99520827D01*
X178909390Y-99520814D01*
X178821789Y-99389711D01*
X178821786Y-99389707D01*
X178710292Y-99278213D01*
X178710288Y-99278210D01*
X178579185Y-99190609D01*
X178579172Y-99190602D01*
X178433501Y-99130264D01*
X178433489Y-99130261D01*
X178278845Y-99099500D01*
X178278842Y-99099500D01*
X178121158Y-99099500D01*
X178121155Y-99099500D01*
X177966510Y-99130261D01*
X177966498Y-99130264D01*
X177820827Y-99190602D01*
X177820814Y-99190609D01*
X177768891Y-99225304D01*
X177702214Y-99246182D01*
X177634833Y-99227698D01*
X177631109Y-99225304D01*
X177579185Y-99190609D01*
X177579172Y-99190602D01*
X177433501Y-99130264D01*
X177433489Y-99130261D01*
X177278845Y-99099500D01*
X177278842Y-99099500D01*
X177121158Y-99099500D01*
X177121155Y-99099500D01*
X176966510Y-99130261D01*
X176966498Y-99130264D01*
X176820827Y-99190602D01*
X176820814Y-99190609D01*
X176689711Y-99278210D01*
X176689707Y-99278213D01*
X176578213Y-99389707D01*
X176578210Y-99389711D01*
X176490609Y-99520814D01*
X176490602Y-99520827D01*
X176430264Y-99666498D01*
X176430261Y-99666510D01*
X176399500Y-99821153D01*
X159209532Y-99821153D01*
X159209397Y-99820827D01*
X159209390Y-99820814D01*
X159124248Y-99693391D01*
X159103370Y-99626714D01*
X159121854Y-99559334D01*
X159173833Y-99512643D01*
X159227350Y-99500500D01*
X159378844Y-99500500D01*
X159378845Y-99500499D01*
X159533497Y-99469737D01*
X159646166Y-99423067D01*
X159679172Y-99409397D01*
X159679172Y-99409396D01*
X159679179Y-99409394D01*
X159810289Y-99321789D01*
X159921789Y-99210289D01*
X160009394Y-99079179D01*
X160069737Y-98933497D01*
X160072428Y-98919964D01*
X160104810Y-98858054D01*
X160165525Y-98823478D01*
X160197566Y-98821330D01*
X160197566Y-98820500D01*
X160361344Y-98820500D01*
X160361345Y-98820499D01*
X160515997Y-98789737D01*
X160516009Y-98789731D01*
X160521824Y-98787969D01*
X160522410Y-98789902D01*
X160582661Y-98783405D01*
X160645151Y-98814659D01*
X160680823Y-98874736D01*
X160682180Y-98925052D01*
X160682597Y-98925093D01*
X160682271Y-98928402D01*
X160682304Y-98929623D01*
X160682000Y-98931148D01*
X160682000Y-99088846D01*
X160712761Y-99243489D01*
X160712764Y-99243501D01*
X160773102Y-99389172D01*
X160773109Y-99389185D01*
X160860710Y-99520288D01*
X160860713Y-99520292D01*
X160972207Y-99631786D01*
X160972211Y-99631789D01*
X161103314Y-99719390D01*
X161103327Y-99719397D01*
X161248998Y-99779735D01*
X161249003Y-99779737D01*
X161398078Y-99809390D01*
X161403653Y-99810499D01*
X161403656Y-99810500D01*
X161403658Y-99810500D01*
X161561344Y-99810500D01*
X161561345Y-99810499D01*
X161715997Y-99779737D01*
X161861679Y-99719394D01*
X161866128Y-99716420D01*
X161872801Y-99711963D01*
X161872801Y-99711962D01*
X161992789Y-99631789D01*
X162104289Y-99520289D01*
X162191894Y-99389179D01*
X162252237Y-99243497D01*
X162283000Y-99088842D01*
X162283000Y-98931158D01*
X162283000Y-98931155D01*
X162282999Y-98931153D01*
X162271777Y-98874736D01*
X162252237Y-98776503D01*
X162232724Y-98729394D01*
X162191897Y-98630827D01*
X162191890Y-98630814D01*
X162104289Y-98499711D01*
X162104286Y-98499707D01*
X161992792Y-98388213D01*
X161992788Y-98388210D01*
X161861685Y-98300609D01*
X161861672Y-98300602D01*
X161716001Y-98240264D01*
X161715989Y-98240261D01*
X161561345Y-98209500D01*
X161561342Y-98209500D01*
X161403658Y-98209500D01*
X161403655Y-98209500D01*
X161249010Y-98240261D01*
X161243176Y-98242031D01*
X161242592Y-98240106D01*
X161182286Y-98246585D01*
X161119810Y-98215304D01*
X161084163Y-98155212D01*
X161082820Y-98104948D01*
X161082403Y-98104907D01*
X161082730Y-98101579D01*
X161082698Y-98100359D01*
X161083000Y-98098842D01*
X161083000Y-97941158D01*
X161083000Y-97941155D01*
X161082999Y-97941153D01*
X161078739Y-97919735D01*
X161052237Y-97786503D01*
X161047751Y-97775672D01*
X160991897Y-97640827D01*
X160991890Y-97640814D01*
X160904289Y-97509711D01*
X160904286Y-97509707D01*
X160792792Y-97398213D01*
X160792788Y-97398210D01*
X160661685Y-97310609D01*
X160661672Y-97310602D01*
X160562747Y-97269627D01*
X160516001Y-97250264D01*
X160515989Y-97250261D01*
X160361345Y-97219500D01*
X160361342Y-97219500D01*
X160203658Y-97219500D01*
X160203655Y-97219500D01*
X160049010Y-97250261D01*
X160048998Y-97250264D01*
X159903327Y-97310602D01*
X159903314Y-97310609D01*
X159772211Y-97398210D01*
X159772207Y-97398213D01*
X159660713Y-97509707D01*
X159660710Y-97509711D01*
X159573109Y-97640814D01*
X159573102Y-97640827D01*
X159512764Y-97786498D01*
X159512762Y-97786505D01*
X159510070Y-97800040D01*
X159477684Y-97861950D01*
X159416967Y-97896523D01*
X159384934Y-97898672D01*
X159384934Y-97899500D01*
X159221155Y-97899500D01*
X159066510Y-97930261D01*
X159066498Y-97930264D01*
X158920827Y-97990602D01*
X158920814Y-97990609D01*
X158789711Y-98078210D01*
X158789707Y-98078213D01*
X158678213Y-98189707D01*
X158678210Y-98189711D01*
X158590609Y-98320814D01*
X158590602Y-98320827D01*
X158530264Y-98466498D01*
X158530261Y-98466510D01*
X158499500Y-98621153D01*
X158499500Y-98778846D01*
X158530261Y-98933489D01*
X158530264Y-98933501D01*
X158590602Y-99079172D01*
X158590609Y-99079185D01*
X158675752Y-99206609D01*
X158696630Y-99273286D01*
X158678146Y-99340666D01*
X158626167Y-99387357D01*
X158572650Y-99399500D01*
X158421155Y-99399500D01*
X158266510Y-99430261D01*
X158266498Y-99430264D01*
X158120827Y-99490602D01*
X158120814Y-99490609D01*
X157989711Y-99578210D01*
X157989707Y-99578213D01*
X157878213Y-99689707D01*
X157878210Y-99689711D01*
X157790609Y-99820814D01*
X157790602Y-99820827D01*
X157730264Y-99966498D01*
X157730261Y-99966510D01*
X157699500Y-100121153D01*
X157699500Y-100275500D01*
X157679815Y-100342539D01*
X157627011Y-100388294D01*
X157575500Y-100399500D01*
X157421155Y-100399500D01*
X157266510Y-100430261D01*
X157266498Y-100430264D01*
X157120827Y-100490602D01*
X157120814Y-100490609D01*
X156989711Y-100578210D01*
X156989707Y-100578213D01*
X156878213Y-100689707D01*
X156878210Y-100689711D01*
X156790609Y-100820814D01*
X156790602Y-100820827D01*
X156730264Y-100966498D01*
X156730261Y-100966510D01*
X156699500Y-101121153D01*
X143860500Y-101121153D01*
X143860500Y-101101158D01*
X143860500Y-101101155D01*
X143860499Y-101101153D01*
X143842707Y-101011706D01*
X143829737Y-100946503D01*
X143814366Y-100909394D01*
X143769396Y-100800825D01*
X143769394Y-100800822D01*
X143769394Y-100800821D01*
X143741376Y-100758890D01*
X143720498Y-100692215D01*
X143738982Y-100624835D01*
X143741376Y-100621110D01*
X143769394Y-100579179D01*
X143829737Y-100433497D01*
X143860500Y-100278842D01*
X143860500Y-100121158D01*
X143860500Y-100121155D01*
X143860499Y-100121153D01*
X143850271Y-100069735D01*
X143829737Y-99966503D01*
X143802398Y-99900500D01*
X143769397Y-99820827D01*
X143769390Y-99820814D01*
X143681789Y-99689711D01*
X143681786Y-99689707D01*
X143570292Y-99578213D01*
X143570288Y-99578210D01*
X143439185Y-99490609D01*
X143439172Y-99490602D01*
X143293501Y-99430264D01*
X143293489Y-99430261D01*
X143138845Y-99399500D01*
X143138842Y-99399500D01*
X143020985Y-99399500D01*
X142953946Y-99379815D01*
X142908191Y-99327011D01*
X142897002Y-99277532D01*
X142892799Y-99021153D01*
X145799500Y-99021153D01*
X145799500Y-99178846D01*
X145830261Y-99333489D01*
X145830264Y-99333501D01*
X145890602Y-99479172D01*
X145890609Y-99479185D01*
X145978210Y-99610288D01*
X145978213Y-99610292D01*
X146089707Y-99721786D01*
X146089711Y-99721789D01*
X146220814Y-99809390D01*
X146220827Y-99809397D01*
X146344072Y-99860446D01*
X146366503Y-99869737D01*
X146521153Y-99900499D01*
X146521156Y-99900500D01*
X146521158Y-99900500D01*
X146678844Y-99900500D01*
X146678845Y-99900499D01*
X146833497Y-99869737D01*
X146951592Y-99820821D01*
X146979172Y-99809397D01*
X146979172Y-99809396D01*
X146979179Y-99809394D01*
X147110289Y-99721789D01*
X147221789Y-99610289D01*
X147281348Y-99521153D01*
X152799500Y-99521153D01*
X152799500Y-99678846D01*
X152830261Y-99833489D01*
X152830264Y-99833501D01*
X152890602Y-99979172D01*
X152890609Y-99979185D01*
X152978210Y-100110288D01*
X152978213Y-100110292D01*
X153089707Y-100221786D01*
X153089711Y-100221789D01*
X153220814Y-100309390D01*
X153220827Y-100309397D01*
X153366498Y-100369735D01*
X153366503Y-100369737D01*
X153516131Y-100399500D01*
X153521153Y-100400499D01*
X153521156Y-100400500D01*
X153521158Y-100400500D01*
X153678844Y-100400500D01*
X153678845Y-100400499D01*
X153833497Y-100369737D01*
X153979179Y-100309394D01*
X154110289Y-100221789D01*
X154221789Y-100110289D01*
X154309394Y-99979179D01*
X154369737Y-99833497D01*
X154400500Y-99678842D01*
X154400500Y-99521158D01*
X154400500Y-99521155D01*
X154400499Y-99521153D01*
X154378269Y-99409397D01*
X154369737Y-99366503D01*
X154351215Y-99321786D01*
X154309397Y-99220827D01*
X154309390Y-99220814D01*
X154221789Y-99089711D01*
X154221786Y-99089707D01*
X154110292Y-98978213D01*
X154110288Y-98978210D01*
X153979185Y-98890609D01*
X153979172Y-98890602D01*
X153833501Y-98830264D01*
X153833489Y-98830261D01*
X153678845Y-98799500D01*
X153678842Y-98799500D01*
X153521158Y-98799500D01*
X153521155Y-98799500D01*
X153366510Y-98830261D01*
X153366498Y-98830264D01*
X153220827Y-98890602D01*
X153220814Y-98890609D01*
X153089711Y-98978210D01*
X153089707Y-98978213D01*
X152978213Y-99089707D01*
X152978210Y-99089711D01*
X152890609Y-99220814D01*
X152890602Y-99220827D01*
X152830264Y-99366498D01*
X152830261Y-99366510D01*
X152799500Y-99521153D01*
X147281348Y-99521153D01*
X147309394Y-99479179D01*
X147369737Y-99333497D01*
X147400500Y-99178842D01*
X147400500Y-99021158D01*
X147400500Y-99021155D01*
X147400499Y-99021153D01*
X147382292Y-98929623D01*
X147369737Y-98866503D01*
X147366237Y-98858054D01*
X147309397Y-98720827D01*
X147309390Y-98720814D01*
X147221789Y-98589711D01*
X147221786Y-98589707D01*
X147110292Y-98478213D01*
X147110288Y-98478210D01*
X146979185Y-98390609D01*
X146979172Y-98390602D01*
X146833501Y-98330264D01*
X146833489Y-98330261D01*
X146678845Y-98299500D01*
X146678842Y-98299500D01*
X146521158Y-98299500D01*
X146521155Y-98299500D01*
X146366510Y-98330261D01*
X146366498Y-98330264D01*
X146220827Y-98390602D01*
X146220814Y-98390609D01*
X146089711Y-98478210D01*
X146089707Y-98478213D01*
X145978213Y-98589707D01*
X145978210Y-98589711D01*
X145890609Y-98720814D01*
X145890602Y-98720827D01*
X145830264Y-98866498D01*
X145830261Y-98866510D01*
X145799500Y-99021153D01*
X142892799Y-99021153D01*
X142892733Y-99017098D01*
X142872934Y-97809390D01*
X142867795Y-97495936D01*
X142886378Y-97428583D01*
X142938425Y-97381969D01*
X143007411Y-97370893D01*
X143071434Y-97398873D01*
X143106339Y-97446452D01*
X143140602Y-97529172D01*
X143140609Y-97529185D01*
X143228210Y-97660288D01*
X143228213Y-97660292D01*
X143339707Y-97771786D01*
X143339711Y-97771789D01*
X143470814Y-97859390D01*
X143470827Y-97859397D01*
X143570060Y-97900500D01*
X143616503Y-97919737D01*
X143747550Y-97945804D01*
X143771153Y-97950499D01*
X143771156Y-97950500D01*
X143771158Y-97950500D01*
X143928844Y-97950500D01*
X143928845Y-97950499D01*
X144083497Y-97919737D01*
X144229179Y-97859394D01*
X144229184Y-97859390D01*
X144229187Y-97859389D01*
X144266594Y-97834394D01*
X144323284Y-97796514D01*
X144389960Y-97775636D01*
X144457341Y-97794120D01*
X144479856Y-97811935D01*
X144555087Y-97887166D01*
X144555091Y-97887169D01*
X144686194Y-97974770D01*
X144686207Y-97974777D01*
X144831878Y-98035115D01*
X144831883Y-98035117D01*
X144986533Y-98065879D01*
X144986536Y-98065880D01*
X144986538Y-98065880D01*
X145144224Y-98065880D01*
X145144225Y-98065879D01*
X145298877Y-98035117D01*
X145444559Y-97974774D01*
X145445441Y-97974185D01*
X145473620Y-97955356D01*
X145575669Y-97887169D01*
X145687169Y-97775669D01*
X145774774Y-97644559D01*
X145827961Y-97516153D01*
X152704500Y-97516153D01*
X152704500Y-97673846D01*
X152735261Y-97828489D01*
X152735264Y-97828501D01*
X152795602Y-97974172D01*
X152795609Y-97974185D01*
X152883210Y-98105288D01*
X152883213Y-98105292D01*
X152994707Y-98216786D01*
X152994711Y-98216789D01*
X153125814Y-98304390D01*
X153125827Y-98304397D01*
X153271498Y-98364735D01*
X153271503Y-98364737D01*
X153426153Y-98395499D01*
X153426156Y-98395500D01*
X153426158Y-98395500D01*
X153583844Y-98395500D01*
X153583845Y-98395499D01*
X153738497Y-98364737D01*
X153884179Y-98304394D01*
X154015289Y-98216789D01*
X154126789Y-98105289D01*
X154214394Y-97974179D01*
X154274737Y-97828497D01*
X154305500Y-97673842D01*
X154305500Y-97516158D01*
X154305500Y-97516155D01*
X154305499Y-97516153D01*
X154299476Y-97485873D01*
X154274737Y-97361503D01*
X154271470Y-97353615D01*
X154214397Y-97215827D01*
X154214390Y-97215814D01*
X154126791Y-97084714D01*
X154126786Y-97084707D01*
X154063232Y-97021153D01*
X156699500Y-97021153D01*
X156699500Y-97178846D01*
X156730261Y-97333489D01*
X156730264Y-97333501D01*
X156790602Y-97479172D01*
X156790609Y-97479185D01*
X156878210Y-97610288D01*
X156878213Y-97610292D01*
X156989707Y-97721786D01*
X156989711Y-97721789D01*
X157120814Y-97809390D01*
X157120827Y-97809397D01*
X157247703Y-97861950D01*
X157266503Y-97869737D01*
X157401793Y-97896648D01*
X157421153Y-97900499D01*
X157421156Y-97900500D01*
X157421158Y-97900500D01*
X157578844Y-97900500D01*
X157578845Y-97900499D01*
X157733497Y-97869737D01*
X157846166Y-97823067D01*
X157879172Y-97809397D01*
X157879172Y-97809396D01*
X157879179Y-97809394D01*
X158010289Y-97721789D01*
X158121789Y-97610289D01*
X158209394Y-97479179D01*
X158269737Y-97333497D01*
X158300500Y-97178842D01*
X158300500Y-97161153D01*
X166619500Y-97161153D01*
X166619500Y-97318846D01*
X166650261Y-97473489D01*
X166650264Y-97473501D01*
X166710602Y-97619172D01*
X166710609Y-97619185D01*
X166798210Y-97750288D01*
X166798213Y-97750292D01*
X166909707Y-97861786D01*
X166909711Y-97861789D01*
X167040814Y-97949390D01*
X167040827Y-97949397D01*
X167174610Y-98004811D01*
X167186503Y-98009737D01*
X167314086Y-98035115D01*
X167341153Y-98040499D01*
X167341156Y-98040500D01*
X167341158Y-98040500D01*
X167498844Y-98040500D01*
X167498845Y-98040499D01*
X167653497Y-98009737D01*
X167799179Y-97949394D01*
X167930289Y-97861789D01*
X168041789Y-97750289D01*
X168129394Y-97619179D01*
X168189737Y-97473497D01*
X168220500Y-97318842D01*
X168220500Y-97161158D01*
X168220500Y-97161155D01*
X168220499Y-97161153D01*
X168205294Y-97084714D01*
X168189737Y-97006503D01*
X168161587Y-96938542D01*
X168129397Y-96860827D01*
X168129390Y-96860814D01*
X168041789Y-96729711D01*
X168041786Y-96729707D01*
X167930292Y-96618213D01*
X167930288Y-96618210D01*
X167799185Y-96530609D01*
X167799172Y-96530602D01*
X167653501Y-96470264D01*
X167653489Y-96470261D01*
X167498845Y-96439500D01*
X167498842Y-96439500D01*
X167341158Y-96439500D01*
X167341155Y-96439500D01*
X167186510Y-96470261D01*
X167186498Y-96470264D01*
X167040827Y-96530602D01*
X167040814Y-96530609D01*
X166909711Y-96618210D01*
X166909707Y-96618213D01*
X166798213Y-96729707D01*
X166798210Y-96729711D01*
X166710609Y-96860814D01*
X166710602Y-96860827D01*
X166650264Y-97006498D01*
X166650261Y-97006510D01*
X166619500Y-97161153D01*
X158300500Y-97161153D01*
X158300500Y-97021158D01*
X158300500Y-97021155D01*
X158300499Y-97021153D01*
X158284067Y-96938545D01*
X158269737Y-96866503D01*
X158267386Y-96860827D01*
X158209397Y-96720827D01*
X158209390Y-96720814D01*
X158121789Y-96589711D01*
X158121786Y-96589707D01*
X158010292Y-96478213D01*
X158010288Y-96478210D01*
X157879185Y-96390609D01*
X157879172Y-96390602D01*
X157733501Y-96330264D01*
X157733489Y-96330261D01*
X157578845Y-96299500D01*
X157578842Y-96299500D01*
X157421158Y-96299500D01*
X157421155Y-96299500D01*
X157266510Y-96330261D01*
X157266498Y-96330264D01*
X157120827Y-96390602D01*
X157120814Y-96390609D01*
X156989711Y-96478210D01*
X156989707Y-96478213D01*
X156878213Y-96589707D01*
X156878210Y-96589711D01*
X156790609Y-96720814D01*
X156790602Y-96720827D01*
X156730264Y-96866498D01*
X156730261Y-96866510D01*
X156699500Y-97021153D01*
X154063232Y-97021153D01*
X154015292Y-96973213D01*
X154015288Y-96973210D01*
X153884185Y-96885609D01*
X153884172Y-96885602D01*
X153738501Y-96825264D01*
X153738489Y-96825261D01*
X153583845Y-96794500D01*
X153583842Y-96794500D01*
X153426158Y-96794500D01*
X153426155Y-96794500D01*
X153271510Y-96825261D01*
X153271498Y-96825264D01*
X153125827Y-96885602D01*
X153125814Y-96885609D01*
X152994711Y-96973210D01*
X152994707Y-96973213D01*
X152883213Y-97084707D01*
X152883210Y-97084711D01*
X152795609Y-97215814D01*
X152795602Y-97215827D01*
X152735264Y-97361498D01*
X152735261Y-97361510D01*
X152704500Y-97516153D01*
X145827961Y-97516153D01*
X145835117Y-97498877D01*
X145865880Y-97344222D01*
X145865880Y-97186538D01*
X145865880Y-97186535D01*
X145865879Y-97186533D01*
X145852808Y-97120821D01*
X145835117Y-97031883D01*
X145817647Y-96989707D01*
X145774777Y-96886207D01*
X145774770Y-96886194D01*
X145687169Y-96755091D01*
X145687166Y-96755087D01*
X145575672Y-96643593D01*
X145575668Y-96643590D01*
X145444565Y-96555989D01*
X145444552Y-96555982D01*
X145298881Y-96495644D01*
X145298869Y-96495641D01*
X145144225Y-96464880D01*
X145144222Y-96464880D01*
X144986538Y-96464880D01*
X144986535Y-96464880D01*
X144831890Y-96495641D01*
X144831878Y-96495644D01*
X144686207Y-96555982D01*
X144686194Y-96555989D01*
X144592095Y-96618865D01*
X144525417Y-96639743D01*
X144458037Y-96621258D01*
X144435523Y-96603444D01*
X144360292Y-96528213D01*
X144360288Y-96528210D01*
X144229185Y-96440609D01*
X144229172Y-96440602D01*
X144083501Y-96380264D01*
X144083489Y-96380261D01*
X143928845Y-96349500D01*
X143928842Y-96349500D01*
X143771158Y-96349500D01*
X143771155Y-96349500D01*
X143616510Y-96380261D01*
X143616498Y-96380264D01*
X143470827Y-96440602D01*
X143470814Y-96440609D01*
X143339711Y-96528210D01*
X143339707Y-96528213D01*
X143228213Y-96639707D01*
X143228210Y-96639711D01*
X143140609Y-96770814D01*
X143140602Y-96770827D01*
X143095493Y-96879733D01*
X143051652Y-96934137D01*
X142985358Y-96956202D01*
X142917659Y-96938923D01*
X142870048Y-96887786D01*
X142856949Y-96834313D01*
X142827225Y-95021153D01*
X146399500Y-95021153D01*
X146399500Y-95178846D01*
X146430261Y-95333489D01*
X146430264Y-95333501D01*
X146490602Y-95479172D01*
X146490609Y-95479185D01*
X146578210Y-95610288D01*
X146578213Y-95610292D01*
X146689707Y-95721786D01*
X146689711Y-95721789D01*
X146820814Y-95809390D01*
X146820827Y-95809397D01*
X146966498Y-95869735D01*
X146966503Y-95869737D01*
X147103779Y-95897043D01*
X147121153Y-95900499D01*
X147121156Y-95900500D01*
X147121158Y-95900500D01*
X147278844Y-95900500D01*
X147278845Y-95900499D01*
X147433497Y-95869737D01*
X147579179Y-95809394D01*
X147710289Y-95721789D01*
X147821789Y-95610289D01*
X147909394Y-95479179D01*
X147969737Y-95333497D01*
X148000500Y-95178842D01*
X148000500Y-95021158D01*
X148000500Y-95021155D01*
X148000499Y-95021153D01*
X147991619Y-94976510D01*
X147969737Y-94866503D01*
X147966935Y-94859738D01*
X147909397Y-94720827D01*
X147909390Y-94720814D01*
X147821789Y-94589711D01*
X147821786Y-94589707D01*
X147710292Y-94478213D01*
X147710288Y-94478210D01*
X147624897Y-94421153D01*
X151499500Y-94421153D01*
X151499500Y-94578846D01*
X151530261Y-94733489D01*
X151530264Y-94733501D01*
X151590602Y-94879172D01*
X151590609Y-94879185D01*
X151678210Y-95010288D01*
X151678213Y-95010292D01*
X151789707Y-95121786D01*
X151789711Y-95121789D01*
X151920814Y-95209390D01*
X151920827Y-95209397D01*
X152015256Y-95248510D01*
X152066503Y-95269737D01*
X152221153Y-95300499D01*
X152221156Y-95300500D01*
X152221158Y-95300500D01*
X152378844Y-95300500D01*
X152378845Y-95300499D01*
X152533497Y-95269737D01*
X152543760Y-95265485D01*
X152613228Y-95258017D01*
X152675707Y-95289291D01*
X152711360Y-95349380D01*
X152712829Y-95355855D01*
X152730261Y-95443491D01*
X152730264Y-95443501D01*
X152790602Y-95589172D01*
X152790609Y-95589185D01*
X152878210Y-95720288D01*
X152878213Y-95720292D01*
X152989707Y-95831786D01*
X152989711Y-95831789D01*
X153120814Y-95919390D01*
X153120827Y-95919397D01*
X153266498Y-95979735D01*
X153266503Y-95979737D01*
X153421153Y-96010499D01*
X153421156Y-96010500D01*
X153421158Y-96010500D01*
X153578844Y-96010500D01*
X153578845Y-96010499D01*
X153733497Y-95979737D01*
X153846166Y-95933067D01*
X153879172Y-95919397D01*
X153879172Y-95919396D01*
X153879179Y-95919394D01*
X154010289Y-95831789D01*
X154121789Y-95720289D01*
X154209394Y-95589179D01*
X154269737Y-95443497D01*
X154300500Y-95288842D01*
X154300500Y-95131158D01*
X154300500Y-95131155D01*
X154300499Y-95131153D01*
X154290094Y-95078844D01*
X154269737Y-94976503D01*
X154246813Y-94921158D01*
X154209397Y-94830827D01*
X154209395Y-94830823D01*
X154209394Y-94830821D01*
X154151882Y-94744749D01*
X154131005Y-94678073D01*
X154140423Y-94628409D01*
X154179737Y-94533497D01*
X154210500Y-94378842D01*
X154210500Y-94221158D01*
X154210500Y-94221155D01*
X154210499Y-94221153D01*
X154200094Y-94168844D01*
X154179737Y-94066503D01*
X154156813Y-94011158D01*
X154119397Y-93920827D01*
X154119390Y-93920814D01*
X154031789Y-93789711D01*
X154031786Y-93789707D01*
X153920292Y-93678213D01*
X153920288Y-93678210D01*
X153789185Y-93590609D01*
X153789172Y-93590602D01*
X153643501Y-93530264D01*
X153643489Y-93530261D01*
X153488845Y-93499500D01*
X153488842Y-93499500D01*
X153331158Y-93499500D01*
X153331155Y-93499500D01*
X153176510Y-93530261D01*
X153176498Y-93530264D01*
X153030827Y-93590602D01*
X153030814Y-93590609D01*
X152899711Y-93678210D01*
X152814229Y-93763692D01*
X152752905Y-93797176D01*
X152683214Y-93792192D01*
X152679096Y-93790571D01*
X152533501Y-93730264D01*
X152533489Y-93730261D01*
X152378845Y-93699500D01*
X152378842Y-93699500D01*
X152221158Y-93699500D01*
X152221155Y-93699500D01*
X152066510Y-93730261D01*
X152066498Y-93730264D01*
X151920827Y-93790602D01*
X151920814Y-93790609D01*
X151789711Y-93878210D01*
X151789707Y-93878213D01*
X151678213Y-93989707D01*
X151678210Y-93989711D01*
X151590609Y-94120814D01*
X151590602Y-94120827D01*
X151530264Y-94266498D01*
X151530261Y-94266510D01*
X151499500Y-94421153D01*
X147624897Y-94421153D01*
X147579185Y-94390609D01*
X147579172Y-94390602D01*
X147433501Y-94330264D01*
X147433489Y-94330261D01*
X147278845Y-94299500D01*
X147278842Y-94299500D01*
X147121158Y-94299500D01*
X147121155Y-94299500D01*
X146966510Y-94330261D01*
X146966498Y-94330264D01*
X146820827Y-94390602D01*
X146820814Y-94390609D01*
X146689711Y-94478210D01*
X146689707Y-94478213D01*
X146578213Y-94589707D01*
X146578210Y-94589711D01*
X146490609Y-94720814D01*
X146490602Y-94720827D01*
X146430264Y-94866498D01*
X146430261Y-94866510D01*
X146399500Y-95021153D01*
X142827225Y-95021153D01*
X142827159Y-95017098D01*
X142819348Y-94540609D01*
X142815920Y-94331532D01*
X142834503Y-94264179D01*
X142886550Y-94217565D01*
X142939903Y-94205500D01*
X143595183Y-94205500D01*
X143633992Y-94203591D01*
X143644762Y-94203062D01*
X143654319Y-94202120D01*
X143654332Y-94202117D01*
X143654341Y-94202117D01*
X143665550Y-94200453D01*
X143703354Y-94194845D01*
X143765596Y-94182464D01*
X143860417Y-94153700D01*
X143878080Y-94146384D01*
X143965476Y-94099671D01*
X144014154Y-94067146D01*
X144090759Y-94004278D01*
X144104278Y-93990759D01*
X144167146Y-93914154D01*
X144199671Y-93865476D01*
X144246384Y-93778080D01*
X144253700Y-93760417D01*
X144282463Y-93665599D01*
X144294844Y-93603359D01*
X144302122Y-93554306D01*
X144303064Y-93544746D01*
X144305500Y-93495176D01*
X144305500Y-91221153D01*
X144799500Y-91221153D01*
X144799500Y-91378846D01*
X144830261Y-91533489D01*
X144830264Y-91533501D01*
X144890602Y-91679172D01*
X144890609Y-91679185D01*
X144978210Y-91810288D01*
X144978213Y-91810292D01*
X145089707Y-91921786D01*
X145089711Y-91921789D01*
X145220814Y-92009390D01*
X145220827Y-92009397D01*
X145366498Y-92069735D01*
X145366503Y-92069737D01*
X145366507Y-92069737D01*
X145366508Y-92069738D01*
X145409967Y-92078383D01*
X145471878Y-92110768D01*
X145506452Y-92171484D01*
X145502712Y-92241253D01*
X145461845Y-92297925D01*
X145409967Y-92321617D01*
X145366508Y-92330261D01*
X145366498Y-92330264D01*
X145220827Y-92390602D01*
X145220814Y-92390609D01*
X145089711Y-92478210D01*
X145089707Y-92478213D01*
X144978213Y-92589707D01*
X144978210Y-92589711D01*
X144890609Y-92720814D01*
X144890602Y-92720827D01*
X144830264Y-92866498D01*
X144830261Y-92866510D01*
X144799500Y-93021153D01*
X144799500Y-93178846D01*
X144830261Y-93333489D01*
X144830264Y-93333501D01*
X144890602Y-93479172D01*
X144890609Y-93479185D01*
X144978210Y-93610288D01*
X144978213Y-93610292D01*
X145089707Y-93721786D01*
X145089711Y-93721789D01*
X145220814Y-93809390D01*
X145220827Y-93809397D01*
X145334541Y-93856498D01*
X145366503Y-93869737D01*
X145493171Y-93894933D01*
X145521153Y-93900499D01*
X145521156Y-93900500D01*
X145521158Y-93900500D01*
X145678844Y-93900500D01*
X145678845Y-93900499D01*
X145833497Y-93869737D01*
X145979179Y-93809394D01*
X146110289Y-93721789D01*
X146221789Y-93610289D01*
X146309394Y-93479179D01*
X146313938Y-93468210D01*
X146350224Y-93380606D01*
X146369737Y-93333497D01*
X146400500Y-93178842D01*
X146400500Y-93021158D01*
X146400500Y-93021155D01*
X146400499Y-93021153D01*
X146383863Y-92937521D01*
X146369737Y-92866503D01*
X146367868Y-92861990D01*
X146309397Y-92720827D01*
X146309390Y-92720814D01*
X146221789Y-92589711D01*
X146221786Y-92589707D01*
X146110292Y-92478213D01*
X146110288Y-92478210D01*
X145979185Y-92390609D01*
X145979172Y-92390602D01*
X145833501Y-92330264D01*
X145833489Y-92330261D01*
X145790033Y-92321617D01*
X145728122Y-92289232D01*
X145693548Y-92228517D01*
X145697287Y-92158747D01*
X145738154Y-92102075D01*
X145790033Y-92078383D01*
X145807940Y-92074820D01*
X145833497Y-92069737D01*
X145979179Y-92009394D01*
X146110289Y-91921789D01*
X146221789Y-91810289D01*
X146281348Y-91721153D01*
X153299500Y-91721153D01*
X153299500Y-91878846D01*
X153330261Y-92033489D01*
X153330264Y-92033501D01*
X153390602Y-92179172D01*
X153390609Y-92179185D01*
X153478210Y-92310288D01*
X153478213Y-92310292D01*
X153589707Y-92421786D01*
X153589711Y-92421789D01*
X153720814Y-92509390D01*
X153720827Y-92509397D01*
X153866498Y-92569735D01*
X153866503Y-92569737D01*
X154021153Y-92600499D01*
X154021156Y-92600500D01*
X154021158Y-92600500D01*
X154178844Y-92600500D01*
X154178845Y-92600499D01*
X154333497Y-92569737D01*
X154479179Y-92509394D01*
X154610289Y-92421789D01*
X154721789Y-92310289D01*
X154809394Y-92179179D01*
X154869737Y-92033497D01*
X154897419Y-91894330D01*
X154929804Y-91832420D01*
X154971584Y-91803961D01*
X155079172Y-91759397D01*
X155079172Y-91759396D01*
X155079179Y-91759394D01*
X155210289Y-91671789D01*
X155248635Y-91633443D01*
X155309957Y-91599957D01*
X155379649Y-91604941D01*
X155435583Y-91646811D01*
X155439405Y-91652212D01*
X155457424Y-91679179D01*
X155478212Y-91710291D01*
X155589707Y-91821786D01*
X155589711Y-91821789D01*
X155720814Y-91909390D01*
X155720821Y-91909394D01*
X155788163Y-91937287D01*
X155842565Y-91981127D01*
X155864631Y-92047420D01*
X155847353Y-92115120D01*
X155831974Y-92134917D01*
X155832076Y-92135001D01*
X155828980Y-92138773D01*
X155828401Y-92139519D01*
X155828218Y-92139701D01*
X155828210Y-92139711D01*
X155740609Y-92270814D01*
X155740602Y-92270827D01*
X155680264Y-92416498D01*
X155680261Y-92416510D01*
X155649500Y-92571153D01*
X155649500Y-92728846D01*
X155680261Y-92883489D01*
X155680264Y-92883501D01*
X155740602Y-93029172D01*
X155740609Y-93029185D01*
X155828210Y-93160288D01*
X155828213Y-93160292D01*
X155939707Y-93271786D01*
X155939711Y-93271789D01*
X156070814Y-93359390D01*
X156070827Y-93359397D01*
X156216498Y-93419735D01*
X156216503Y-93419737D01*
X156371153Y-93450499D01*
X156371156Y-93450500D01*
X156371158Y-93450500D01*
X156528844Y-93450500D01*
X156528845Y-93450499D01*
X156683497Y-93419737D01*
X156829179Y-93359394D01*
X156960289Y-93271789D01*
X156960292Y-93271786D01*
X156962819Y-93269260D01*
X156964468Y-93268359D01*
X156964999Y-93267924D01*
X156965081Y-93268024D01*
X157024142Y-93235775D01*
X157093834Y-93240759D01*
X157149767Y-93282631D01*
X157174184Y-93348095D01*
X157174500Y-93356941D01*
X157174500Y-93496455D01*
X157174500Y-93496457D01*
X157174499Y-93496457D01*
X157202379Y-93636614D01*
X157202381Y-93636619D01*
X157219334Y-93677549D01*
X157226802Y-93747018D01*
X157219334Y-93772451D01*
X157202381Y-93813380D01*
X157202379Y-93813385D01*
X157174500Y-93953542D01*
X157174500Y-93953545D01*
X157174500Y-94096455D01*
X157174500Y-94096457D01*
X157174499Y-94096457D01*
X157202379Y-94236613D01*
X157202380Y-94236616D01*
X157202381Y-94236620D01*
X157214157Y-94265050D01*
X157221625Y-94334518D01*
X157214158Y-94359946D01*
X157206332Y-94378842D01*
X157202380Y-94388383D01*
X157202379Y-94388386D01*
X157174500Y-94528542D01*
X157174500Y-94528545D01*
X157174500Y-94671455D01*
X157174500Y-94671457D01*
X157174499Y-94671457D01*
X157202379Y-94811614D01*
X157202381Y-94811620D01*
X157257069Y-94943650D01*
X157257074Y-94943659D01*
X157336467Y-95062478D01*
X157336470Y-95062482D01*
X157437517Y-95163529D01*
X157437521Y-95163532D01*
X157556340Y-95242925D01*
X157556349Y-95242930D01*
X157573418Y-95250000D01*
X157688380Y-95297619D01*
X157688384Y-95297619D01*
X157688385Y-95297620D01*
X157828542Y-95325500D01*
X157828545Y-95325500D01*
X157971457Y-95325500D01*
X158097141Y-95300499D01*
X158111620Y-95297619D01*
X158182724Y-95268165D01*
X158252193Y-95260697D01*
X158277629Y-95268165D01*
X158288380Y-95272619D01*
X158288384Y-95272619D01*
X158288385Y-95272620D01*
X158428542Y-95300500D01*
X158428545Y-95300500D01*
X158571457Y-95300500D01*
X158665751Y-95281742D01*
X158711620Y-95272619D01*
X158765049Y-95250487D01*
X158834516Y-95243019D01*
X158859944Y-95250485D01*
X158913380Y-95272619D01*
X158913384Y-95272619D01*
X158913385Y-95272620D01*
X159053542Y-95300500D01*
X159053545Y-95300500D01*
X159196457Y-95300500D01*
X159290751Y-95281742D01*
X159336620Y-95272619D01*
X159468653Y-95217929D01*
X159587479Y-95138532D01*
X159688532Y-95037479D01*
X159767929Y-94918653D01*
X159822619Y-94786620D01*
X159835706Y-94720827D01*
X159850500Y-94646457D01*
X159850500Y-94503542D01*
X159822620Y-94363385D01*
X159822619Y-94363384D01*
X159822619Y-94363380D01*
X159810843Y-94334952D01*
X159803374Y-94265486D01*
X159810842Y-94240051D01*
X159822619Y-94211620D01*
X159835595Y-94146386D01*
X159850500Y-94071457D01*
X159850500Y-94011153D01*
X164489500Y-94011153D01*
X164489500Y-94168846D01*
X164520261Y-94323489D01*
X164520264Y-94323501D01*
X164580602Y-94469172D01*
X164580609Y-94469185D01*
X164668210Y-94600288D01*
X164668213Y-94600292D01*
X164779707Y-94711786D01*
X164779711Y-94711789D01*
X164910814Y-94799390D01*
X164910827Y-94799397D01*
X165056498Y-94859735D01*
X165056503Y-94859737D01*
X165211153Y-94890499D01*
X165211156Y-94890500D01*
X165211158Y-94890500D01*
X165368844Y-94890500D01*
X165368845Y-94890499D01*
X165523497Y-94859737D01*
X165669179Y-94799394D01*
X165800289Y-94711789D01*
X165911789Y-94600289D01*
X165999394Y-94469179D01*
X166019287Y-94421153D01*
X174999500Y-94421153D01*
X174999500Y-94578846D01*
X175030261Y-94733489D01*
X175030264Y-94733501D01*
X175090602Y-94879172D01*
X175090609Y-94879185D01*
X175178210Y-95010288D01*
X175178213Y-95010292D01*
X175289707Y-95121786D01*
X175289710Y-95121788D01*
X175289711Y-95121789D01*
X175303725Y-95131153D01*
X175327289Y-95146898D01*
X175372093Y-95200511D01*
X175380800Y-95269836D01*
X175350645Y-95332863D01*
X175327289Y-95353102D01*
X175289707Y-95378213D01*
X175178213Y-95489707D01*
X175178210Y-95489711D01*
X175090609Y-95620814D01*
X175090602Y-95620827D01*
X175030264Y-95766498D01*
X175030261Y-95766510D01*
X174999500Y-95921153D01*
X174999500Y-96078846D01*
X175030261Y-96233489D01*
X175030264Y-96233501D01*
X175090602Y-96379172D01*
X175090609Y-96379185D01*
X175178210Y-96510288D01*
X175178213Y-96510292D01*
X175289710Y-96621789D01*
X175378042Y-96680810D01*
X175422847Y-96734422D01*
X175431554Y-96803747D01*
X175401400Y-96866774D01*
X175393983Y-96873868D01*
X175394018Y-96873903D01*
X175278213Y-96989707D01*
X175278210Y-96989711D01*
X175190609Y-97120814D01*
X175190602Y-97120827D01*
X175130264Y-97266498D01*
X175130261Y-97266510D01*
X175099500Y-97421153D01*
X175099500Y-97578846D01*
X175130261Y-97733489D01*
X175130264Y-97733501D01*
X175190602Y-97879172D01*
X175190609Y-97879185D01*
X175278210Y-98010288D01*
X175278213Y-98010292D01*
X175389707Y-98121786D01*
X175389711Y-98121789D01*
X175520814Y-98209390D01*
X175520827Y-98209397D01*
X175666498Y-98269735D01*
X175666503Y-98269737D01*
X175816131Y-98299500D01*
X175821153Y-98300499D01*
X175821156Y-98300500D01*
X175821158Y-98300500D01*
X175978844Y-98300500D01*
X175978845Y-98300499D01*
X176133497Y-98269737D01*
X176279179Y-98209394D01*
X176410289Y-98121789D01*
X176521789Y-98010289D01*
X176609394Y-97879179D01*
X176669737Y-97733497D01*
X176700500Y-97578842D01*
X176700500Y-97421158D01*
X176700500Y-97421155D01*
X176700499Y-97421153D01*
X176695936Y-97398213D01*
X176669737Y-97266503D01*
X176663010Y-97250263D01*
X176609397Y-97120827D01*
X176609390Y-97120814D01*
X176521789Y-96989711D01*
X176521786Y-96989707D01*
X176410292Y-96878213D01*
X176410288Y-96878210D01*
X176321957Y-96819189D01*
X176277152Y-96765577D01*
X176268445Y-96696252D01*
X176298599Y-96633224D01*
X176306016Y-96626131D01*
X176305982Y-96626097D01*
X176421786Y-96510292D01*
X176421789Y-96510289D01*
X176509394Y-96379179D01*
X176569737Y-96233497D01*
X176600500Y-96078842D01*
X176600500Y-95921158D01*
X176600500Y-95921155D01*
X176600499Y-95921153D01*
X176590271Y-95869735D01*
X176569737Y-95766503D01*
X176564372Y-95753550D01*
X176509397Y-95620827D01*
X176509390Y-95620814D01*
X176421789Y-95489711D01*
X176421786Y-95489707D01*
X176310292Y-95378213D01*
X176310284Y-95378207D01*
X176272712Y-95353102D01*
X176227906Y-95299490D01*
X176219199Y-95230165D01*
X176249353Y-95167138D01*
X176272712Y-95146898D01*
X176299279Y-95129145D01*
X176310289Y-95121789D01*
X176421789Y-95010289D01*
X176509394Y-94879179D01*
X176512854Y-94870827D01*
X176537380Y-94811614D01*
X176569737Y-94733497D01*
X176600500Y-94578842D01*
X176600500Y-94421158D01*
X176600500Y-94421155D01*
X176583762Y-94337012D01*
X176589989Y-94267421D01*
X176632851Y-94212243D01*
X176698741Y-94188998D01*
X176766738Y-94205065D01*
X176784461Y-94218581D01*
X176785001Y-94217924D01*
X176789711Y-94221789D01*
X176920814Y-94309390D01*
X176920827Y-94309397D01*
X177051168Y-94363385D01*
X177066503Y-94369737D01*
X177221153Y-94400499D01*
X177221156Y-94400500D01*
X177221158Y-94400500D01*
X177378844Y-94400500D01*
X177378845Y-94400499D01*
X177533497Y-94369737D01*
X177679179Y-94309394D01*
X177731110Y-94274694D01*
X177750186Y-94268720D01*
X177767197Y-94258214D01*
X177782847Y-94258493D01*
X177797785Y-94253816D01*
X177817064Y-94259104D01*
X177837056Y-94259462D01*
X177862170Y-94271478D01*
X177865165Y-94272300D01*
X177868838Y-94274660D01*
X177877744Y-94280610D01*
X177922546Y-94334222D01*
X177931252Y-94403547D01*
X177901096Y-94466574D01*
X177896532Y-94471388D01*
X177878214Y-94489706D01*
X177878210Y-94489711D01*
X177790609Y-94620814D01*
X177790602Y-94620827D01*
X177730264Y-94766498D01*
X177730261Y-94766510D01*
X177699500Y-94921153D01*
X177699500Y-95078846D01*
X177730261Y-95233489D01*
X177730264Y-95233501D01*
X177790602Y-95379172D01*
X177790609Y-95379185D01*
X177878210Y-95510288D01*
X177878213Y-95510292D01*
X177989707Y-95621786D01*
X177989711Y-95621789D01*
X178120814Y-95709390D01*
X178120827Y-95709397D01*
X178258683Y-95766498D01*
X178266503Y-95769737D01*
X178421153Y-95800499D01*
X178421156Y-95800500D01*
X178421158Y-95800500D01*
X178578844Y-95800500D01*
X178578845Y-95800499D01*
X178733497Y-95769737D01*
X178879179Y-95709394D01*
X179010289Y-95621789D01*
X179121789Y-95510289D01*
X179209394Y-95379179D01*
X179269737Y-95233497D01*
X179300500Y-95078842D01*
X179300500Y-94921158D01*
X179300500Y-94921155D01*
X179300499Y-94921153D01*
X179294402Y-94890500D01*
X179269737Y-94766503D01*
X179260727Y-94744750D01*
X179209397Y-94620827D01*
X179209390Y-94620814D01*
X179121789Y-94489711D01*
X179121786Y-94489707D01*
X179010292Y-94378213D01*
X179010288Y-94378210D01*
X178922260Y-94319391D01*
X178877455Y-94265778D01*
X178868748Y-94196453D01*
X178898903Y-94133426D01*
X178903472Y-94128606D01*
X178921787Y-94110291D01*
X178921789Y-94110289D01*
X179009394Y-93979179D01*
X179069737Y-93833497D01*
X179100500Y-93678842D01*
X179100500Y-93521158D01*
X179100500Y-93521155D01*
X179100499Y-93521153D01*
X179090613Y-93471455D01*
X179069737Y-93366503D01*
X179056062Y-93333489D01*
X179009397Y-93220827D01*
X179009390Y-93220814D01*
X178921789Y-93089711D01*
X178921786Y-93089707D01*
X178810292Y-92978213D01*
X178810288Y-92978210D01*
X178679185Y-92890609D01*
X178679172Y-92890602D01*
X178533501Y-92830264D01*
X178533489Y-92830261D01*
X178378845Y-92799500D01*
X178378842Y-92799500D01*
X178221158Y-92799500D01*
X178221155Y-92799500D01*
X178066510Y-92830261D01*
X178066498Y-92830264D01*
X177920827Y-92890602D01*
X177920814Y-92890609D01*
X177868891Y-92925304D01*
X177802214Y-92946182D01*
X177734833Y-92927698D01*
X177731109Y-92925304D01*
X177679185Y-92890609D01*
X177679172Y-92890602D01*
X177533501Y-92830264D01*
X177533489Y-92830261D01*
X177378845Y-92799500D01*
X177378842Y-92799500D01*
X177221158Y-92799500D01*
X177221155Y-92799500D01*
X177066510Y-92830261D01*
X177066498Y-92830264D01*
X176920827Y-92890602D01*
X176920814Y-92890609D01*
X176789711Y-92978210D01*
X176789707Y-92978213D01*
X176678213Y-93089707D01*
X176678210Y-93089711D01*
X176590609Y-93220814D01*
X176590602Y-93220827D01*
X176530264Y-93366498D01*
X176530261Y-93366510D01*
X176499500Y-93521153D01*
X176499500Y-93678846D01*
X176516237Y-93762988D01*
X176510010Y-93832579D01*
X176467147Y-93887757D01*
X176401257Y-93911001D01*
X176333260Y-93894933D01*
X176315538Y-93881418D01*
X176314999Y-93882076D01*
X176310288Y-93878210D01*
X176179185Y-93790609D01*
X176179172Y-93790602D01*
X176033501Y-93730264D01*
X176033489Y-93730261D01*
X175878845Y-93699500D01*
X175878842Y-93699500D01*
X175721158Y-93699500D01*
X175721155Y-93699500D01*
X175566510Y-93730261D01*
X175566498Y-93730264D01*
X175420827Y-93790602D01*
X175420814Y-93790609D01*
X175289711Y-93878210D01*
X175289707Y-93878213D01*
X175178213Y-93989707D01*
X175178210Y-93989711D01*
X175090609Y-94120814D01*
X175090602Y-94120827D01*
X175030264Y-94266498D01*
X175030261Y-94266510D01*
X174999500Y-94421153D01*
X166019287Y-94421153D01*
X166041464Y-94367613D01*
X166047374Y-94353344D01*
X166059737Y-94323497D01*
X166090500Y-94168842D01*
X166090500Y-94011158D01*
X166090500Y-94011155D01*
X166090499Y-94011153D01*
X166084139Y-93979179D01*
X166059737Y-93856503D01*
X166050208Y-93833497D01*
X165999397Y-93710827D01*
X165999390Y-93710814D01*
X165911789Y-93579711D01*
X165911786Y-93579707D01*
X165800292Y-93468213D01*
X165800288Y-93468210D01*
X165669185Y-93380609D01*
X165669172Y-93380602D01*
X165523501Y-93320264D01*
X165523489Y-93320261D01*
X165368845Y-93289500D01*
X165368842Y-93289500D01*
X165211158Y-93289500D01*
X165211155Y-93289500D01*
X165056510Y-93320261D01*
X165056498Y-93320264D01*
X164910827Y-93380602D01*
X164910814Y-93380609D01*
X164779711Y-93468210D01*
X164779707Y-93468213D01*
X164668213Y-93579707D01*
X164668210Y-93579711D01*
X164580609Y-93710814D01*
X164580602Y-93710827D01*
X164520264Y-93856498D01*
X164520261Y-93856510D01*
X164489500Y-94011153D01*
X159850500Y-94011153D01*
X159850500Y-93928542D01*
X159822620Y-93788385D01*
X159822619Y-93788384D01*
X159822619Y-93788380D01*
X159805665Y-93747452D01*
X159798197Y-93677984D01*
X159805666Y-93652547D01*
X159812263Y-93636620D01*
X159822619Y-93611620D01*
X159840614Y-93521153D01*
X159850500Y-93471457D01*
X159850500Y-93328542D01*
X159822620Y-93188385D01*
X159822619Y-93188384D01*
X159822619Y-93188380D01*
X159767929Y-93056347D01*
X159767928Y-93056346D01*
X159767925Y-93056340D01*
X159688532Y-92937521D01*
X159688529Y-92937517D01*
X159630526Y-92879514D01*
X159630521Y-92879510D01*
X159587479Y-92836468D01*
X159492228Y-92772823D01*
X159492216Y-92772814D01*
X159468659Y-92757074D01*
X159468650Y-92757069D01*
X159336620Y-92702381D01*
X159336614Y-92702379D01*
X159196457Y-92674500D01*
X159196455Y-92674500D01*
X159053545Y-92674500D01*
X159053543Y-92674500D01*
X158913386Y-92702379D01*
X158913383Y-92702380D01*
X158913381Y-92702380D01*
X158913380Y-92702381D01*
X158859949Y-92724512D01*
X158790482Y-92731980D01*
X158765052Y-92724513D01*
X158711620Y-92702381D01*
X158711616Y-92702380D01*
X158711613Y-92702379D01*
X158571457Y-92674500D01*
X158571455Y-92674500D01*
X158428545Y-92674500D01*
X158428543Y-92674500D01*
X158288385Y-92702379D01*
X158288384Y-92702380D01*
X158288383Y-92702380D01*
X158288380Y-92702381D01*
X158217274Y-92731834D01*
X158147804Y-92739302D01*
X158122373Y-92731834D01*
X158111628Y-92727383D01*
X158111614Y-92727379D01*
X157971457Y-92699500D01*
X157971455Y-92699500D01*
X157828545Y-92699500D01*
X157828543Y-92699500D01*
X157688385Y-92727379D01*
X157688379Y-92727381D01*
X157556349Y-92782069D01*
X157556342Y-92782073D01*
X157440318Y-92859598D01*
X157373641Y-92880475D01*
X157306261Y-92861990D01*
X157259571Y-92810011D01*
X157248395Y-92741041D01*
X157249808Y-92732316D01*
X157250500Y-92728842D01*
X157250500Y-92571158D01*
X157250500Y-92571155D01*
X157250499Y-92571153D01*
X157232012Y-92478213D01*
X157219737Y-92416503D01*
X157219735Y-92416498D01*
X157159397Y-92270827D01*
X157159390Y-92270814D01*
X157071789Y-92139711D01*
X157071786Y-92139707D01*
X156960292Y-92028213D01*
X156960288Y-92028210D01*
X156829185Y-91940609D01*
X156829172Y-91940602D01*
X156782216Y-91921153D01*
X159399500Y-91921153D01*
X159399500Y-92078846D01*
X159430261Y-92233489D01*
X159430264Y-92233501D01*
X159490602Y-92379172D01*
X159490609Y-92379185D01*
X159578210Y-92510288D01*
X159578213Y-92510292D01*
X159646663Y-92578742D01*
X159646667Y-92578745D01*
X159689711Y-92621789D01*
X159784964Y-92685435D01*
X159784973Y-92685442D01*
X159820814Y-92709390D01*
X159820827Y-92709397D01*
X159966498Y-92769735D01*
X159966503Y-92769737D01*
X160116131Y-92799500D01*
X160121153Y-92800499D01*
X160121156Y-92800500D01*
X160121158Y-92800500D01*
X160278844Y-92800500D01*
X160278845Y-92800499D01*
X160433497Y-92769737D01*
X160551592Y-92720821D01*
X160579172Y-92709397D01*
X160579172Y-92709396D01*
X160579179Y-92709394D01*
X160710289Y-92621789D01*
X160821789Y-92510289D01*
X160909394Y-92379179D01*
X160969737Y-92233497D01*
X161000500Y-92078842D01*
X161000500Y-91921158D01*
X161000500Y-91921155D01*
X161000499Y-91921153D01*
X160992365Y-91880263D01*
X160969737Y-91766503D01*
X160956638Y-91734878D01*
X160909397Y-91620827D01*
X160909390Y-91620814D01*
X160821789Y-91489711D01*
X160821786Y-91489707D01*
X160710292Y-91378213D01*
X160710288Y-91378210D01*
X160579185Y-91290609D01*
X160579172Y-91290602D01*
X160433501Y-91230264D01*
X160433489Y-91230261D01*
X160278845Y-91199500D01*
X160278842Y-91199500D01*
X160121158Y-91199500D01*
X160121155Y-91199500D01*
X159966510Y-91230261D01*
X159966498Y-91230264D01*
X159820827Y-91290602D01*
X159820814Y-91290609D01*
X159689711Y-91378210D01*
X159689707Y-91378213D01*
X159578213Y-91489707D01*
X159578210Y-91489711D01*
X159490609Y-91620814D01*
X159490602Y-91620827D01*
X159430264Y-91766498D01*
X159430261Y-91766510D01*
X159399500Y-91921153D01*
X156782216Y-91921153D01*
X156761837Y-91912712D01*
X156707433Y-91868872D01*
X156685368Y-91802578D01*
X156702647Y-91734878D01*
X156718026Y-91715082D01*
X156717924Y-91714999D01*
X156721067Y-91711168D01*
X156721618Y-91710460D01*
X156721789Y-91710289D01*
X156809394Y-91579179D01*
X156869737Y-91433497D01*
X156900500Y-91278842D01*
X156900500Y-91121158D01*
X156900500Y-91121155D01*
X156900499Y-91121153D01*
X156889627Y-91066498D01*
X156869737Y-90966503D01*
X156869735Y-90966498D01*
X156809397Y-90820827D01*
X156809390Y-90820814D01*
X156721789Y-90689711D01*
X156721786Y-90689707D01*
X156610292Y-90578213D01*
X156610288Y-90578210D01*
X156479185Y-90490609D01*
X156479172Y-90490602D01*
X156333501Y-90430264D01*
X156333489Y-90430261D01*
X156178845Y-90399500D01*
X156178842Y-90399500D01*
X156021158Y-90399500D01*
X156021155Y-90399500D01*
X155866510Y-90430261D01*
X155866498Y-90430264D01*
X155720827Y-90490602D01*
X155720814Y-90490609D01*
X155589711Y-90578210D01*
X155589706Y-90578214D01*
X155551363Y-90616557D01*
X155490040Y-90650042D01*
X155420348Y-90645056D01*
X155364415Y-90603184D01*
X155360581Y-90597766D01*
X155321789Y-90539711D01*
X155321786Y-90539707D01*
X155210292Y-90428213D01*
X155210288Y-90428210D01*
X155079185Y-90340609D01*
X155079172Y-90340602D01*
X154933501Y-90280264D01*
X154933489Y-90280261D01*
X154778845Y-90249500D01*
X154778842Y-90249500D01*
X154621158Y-90249500D01*
X154621155Y-90249500D01*
X154466510Y-90280261D01*
X154466498Y-90280264D01*
X154320827Y-90340602D01*
X154320814Y-90340609D01*
X154189711Y-90428210D01*
X154189707Y-90428213D01*
X154078213Y-90539707D01*
X154078210Y-90539711D01*
X153990609Y-90670814D01*
X153990602Y-90670827D01*
X153930264Y-90816498D01*
X153930261Y-90816508D01*
X153902580Y-90955669D01*
X153870195Y-91017580D01*
X153828416Y-91046038D01*
X153720824Y-91090604D01*
X153720814Y-91090609D01*
X153589711Y-91178210D01*
X153589707Y-91178213D01*
X153478213Y-91289707D01*
X153478210Y-91289711D01*
X153390609Y-91420814D01*
X153390602Y-91420827D01*
X153330264Y-91566498D01*
X153330261Y-91566510D01*
X153299500Y-91721153D01*
X146281348Y-91721153D01*
X146309394Y-91679179D01*
X146369737Y-91533497D01*
X146400500Y-91378842D01*
X146400500Y-91221158D01*
X146400500Y-91221155D01*
X146400499Y-91221153D01*
X146391957Y-91178210D01*
X146369737Y-91066503D01*
X146328314Y-90966498D01*
X146309397Y-90920827D01*
X146309390Y-90920814D01*
X146221789Y-90789711D01*
X146221786Y-90789707D01*
X146110292Y-90678213D01*
X146110288Y-90678210D01*
X145979185Y-90590609D01*
X145979172Y-90590602D01*
X145833501Y-90530264D01*
X145833489Y-90530261D01*
X145678845Y-90499500D01*
X145678842Y-90499500D01*
X145521158Y-90499500D01*
X145521155Y-90499500D01*
X145366510Y-90530261D01*
X145366498Y-90530264D01*
X145220827Y-90590602D01*
X145220814Y-90590609D01*
X145089711Y-90678210D01*
X145089707Y-90678213D01*
X144978213Y-90789707D01*
X144978210Y-90789711D01*
X144890609Y-90920814D01*
X144890602Y-90920827D01*
X144830264Y-91066498D01*
X144830261Y-91066510D01*
X144799500Y-91221153D01*
X144305500Y-91221153D01*
X144305500Y-89021153D01*
X158099500Y-89021153D01*
X158099500Y-89178846D01*
X158130261Y-89333489D01*
X158130264Y-89333501D01*
X158190602Y-89479172D01*
X158190609Y-89479185D01*
X158278210Y-89610288D01*
X158278213Y-89610292D01*
X158389707Y-89721786D01*
X158389711Y-89721789D01*
X158520814Y-89809390D01*
X158520827Y-89809397D01*
X158616062Y-89848844D01*
X158666503Y-89869737D01*
X158821153Y-89900499D01*
X158821156Y-89900500D01*
X158821158Y-89900500D01*
X158978844Y-89900500D01*
X158978845Y-89900499D01*
X159133497Y-89869737D01*
X159279179Y-89809394D01*
X159410289Y-89721789D01*
X159521789Y-89610289D01*
X159609394Y-89479179D01*
X159669737Y-89333497D01*
X159692083Y-89221158D01*
X159692084Y-89221153D01*
X162599500Y-89221153D01*
X162599500Y-89378846D01*
X162630261Y-89533489D01*
X162630264Y-89533501D01*
X162690602Y-89679172D01*
X162690609Y-89679185D01*
X162778210Y-89810288D01*
X162778213Y-89810292D01*
X162889707Y-89921786D01*
X162889711Y-89921789D01*
X163020814Y-90009390D01*
X163020827Y-90009397D01*
X163166498Y-90069735D01*
X163166503Y-90069737D01*
X163321153Y-90100499D01*
X163321156Y-90100500D01*
X163321158Y-90100500D01*
X163478844Y-90100500D01*
X163478845Y-90100499D01*
X163633497Y-90069737D01*
X163779179Y-90009394D01*
X163910289Y-89921789D01*
X164021789Y-89810289D01*
X164101393Y-89691153D01*
X164859500Y-89691153D01*
X164859500Y-89848846D01*
X164890261Y-90003489D01*
X164890264Y-90003501D01*
X164950602Y-90149172D01*
X164950609Y-90149185D01*
X165038210Y-90280288D01*
X165038213Y-90280292D01*
X165149707Y-90391786D01*
X165149711Y-90391789D01*
X165280814Y-90479390D01*
X165280821Y-90479394D01*
X165304968Y-90489396D01*
X165359371Y-90533235D01*
X165381437Y-90599529D01*
X165372077Y-90651409D01*
X165320264Y-90776498D01*
X165320261Y-90776510D01*
X165289500Y-90931153D01*
X165289500Y-91088846D01*
X165320261Y-91243489D01*
X165320264Y-91243501D01*
X165380602Y-91389172D01*
X165380609Y-91389185D01*
X165468210Y-91520288D01*
X165468213Y-91520292D01*
X165579707Y-91631786D01*
X165579711Y-91631789D01*
X165710814Y-91719390D01*
X165710827Y-91719397D01*
X165824541Y-91766498D01*
X165856503Y-91779737D01*
X166010092Y-91810288D01*
X166011153Y-91810499D01*
X166011156Y-91810500D01*
X166011158Y-91810500D01*
X166168844Y-91810500D01*
X166168845Y-91810499D01*
X166323497Y-91779737D01*
X166445573Y-91729172D01*
X166469172Y-91719397D01*
X166469172Y-91719396D01*
X166469179Y-91719394D01*
X166600289Y-91631789D01*
X166711789Y-91520289D01*
X166799394Y-91389179D01*
X166803938Y-91378210D01*
X166840224Y-91290606D01*
X166859737Y-91243497D01*
X166890500Y-91088842D01*
X166890500Y-90931158D01*
X166890500Y-90931155D01*
X166890499Y-90931153D01*
X166872309Y-90839707D01*
X166859737Y-90776503D01*
X166839734Y-90728210D01*
X166799397Y-90630827D01*
X166799390Y-90630814D01*
X166711789Y-90499711D01*
X166711786Y-90499707D01*
X166600292Y-90388213D01*
X166600288Y-90388210D01*
X166469185Y-90300609D01*
X166469176Y-90300604D01*
X166445030Y-90290603D01*
X166390627Y-90246762D01*
X166368562Y-90180468D01*
X166377921Y-90128591D01*
X166429737Y-90003497D01*
X166460500Y-89848842D01*
X166460500Y-89691158D01*
X166460500Y-89691155D01*
X166460499Y-89691153D01*
X166449849Y-89637614D01*
X166429737Y-89536503D01*
X166428489Y-89533489D01*
X166369397Y-89390827D01*
X166369390Y-89390814D01*
X166281789Y-89259711D01*
X166281786Y-89259707D01*
X166170292Y-89148213D01*
X166170288Y-89148210D01*
X166129795Y-89121153D01*
X176499500Y-89121153D01*
X176499500Y-89278846D01*
X176530261Y-89433489D01*
X176530264Y-89433501D01*
X176590602Y-89579172D01*
X176590609Y-89579185D01*
X176678210Y-89710288D01*
X176678213Y-89710292D01*
X176789707Y-89821786D01*
X176789711Y-89821789D01*
X176920814Y-89909390D01*
X176920827Y-89909397D01*
X177066498Y-89969735D01*
X177066503Y-89969737D01*
X177221153Y-90000499D01*
X177221156Y-90000500D01*
X177221158Y-90000500D01*
X177378844Y-90000500D01*
X177378845Y-90000499D01*
X177533497Y-89969737D01*
X177679179Y-89909394D01*
X177731110Y-89874694D01*
X177797785Y-89853816D01*
X177865165Y-89872300D01*
X177868863Y-89874676D01*
X177920821Y-89909394D01*
X177920823Y-89909395D01*
X177920825Y-89909396D01*
X177950745Y-89921789D01*
X178066503Y-89969737D01*
X178221153Y-90000499D01*
X178221156Y-90000500D01*
X178221158Y-90000500D01*
X178378844Y-90000500D01*
X178378845Y-90000499D01*
X178533497Y-89969737D01*
X178679179Y-89909394D01*
X178810289Y-89821789D01*
X178921789Y-89710289D01*
X179009394Y-89579179D01*
X179069737Y-89433497D01*
X179100500Y-89278842D01*
X179100500Y-89121158D01*
X179100500Y-89121155D01*
X179100499Y-89121153D01*
X179088455Y-89060606D01*
X179069737Y-88966503D01*
X179028314Y-88866498D01*
X179009397Y-88820827D01*
X179009390Y-88820814D01*
X178921789Y-88689711D01*
X178921786Y-88689707D01*
X178810292Y-88578213D01*
X178810288Y-88578210D01*
X178679185Y-88490609D01*
X178679172Y-88490602D01*
X178533501Y-88430264D01*
X178533489Y-88430261D01*
X178378845Y-88399500D01*
X178378842Y-88399500D01*
X178221158Y-88399500D01*
X178221155Y-88399500D01*
X178066510Y-88430261D01*
X178066498Y-88430264D01*
X177920827Y-88490602D01*
X177920814Y-88490609D01*
X177868891Y-88525304D01*
X177802214Y-88546182D01*
X177734833Y-88527698D01*
X177731109Y-88525304D01*
X177679185Y-88490609D01*
X177679172Y-88490602D01*
X177533501Y-88430264D01*
X177533489Y-88430261D01*
X177378845Y-88399500D01*
X177378842Y-88399500D01*
X177221158Y-88399500D01*
X177221155Y-88399500D01*
X177066510Y-88430261D01*
X177066498Y-88430264D01*
X176920827Y-88490602D01*
X176920814Y-88490609D01*
X176789711Y-88578210D01*
X176789707Y-88578213D01*
X176678213Y-88689707D01*
X176678210Y-88689711D01*
X176590609Y-88820814D01*
X176590602Y-88820827D01*
X176530264Y-88966498D01*
X176530261Y-88966510D01*
X176499500Y-89121153D01*
X166129795Y-89121153D01*
X166039185Y-89060609D01*
X166039172Y-89060602D01*
X165893501Y-89000264D01*
X165893489Y-89000261D01*
X165738845Y-88969500D01*
X165738842Y-88969500D01*
X165581158Y-88969500D01*
X165581155Y-88969500D01*
X165426510Y-89000261D01*
X165426498Y-89000264D01*
X165280827Y-89060602D01*
X165280814Y-89060609D01*
X165149711Y-89148210D01*
X165149707Y-89148213D01*
X165038213Y-89259707D01*
X165038210Y-89259711D01*
X164950609Y-89390814D01*
X164950602Y-89390827D01*
X164890264Y-89536498D01*
X164890261Y-89536510D01*
X164859500Y-89691153D01*
X164101393Y-89691153D01*
X164109394Y-89679179D01*
X164137930Y-89610288D01*
X164169735Y-89533501D01*
X164169737Y-89533497D01*
X164200500Y-89378842D01*
X164200500Y-89221158D01*
X164200500Y-89221155D01*
X164200499Y-89221153D01*
X164194476Y-89190874D01*
X164169737Y-89066503D01*
X164150955Y-89021158D01*
X164109397Y-88920827D01*
X164109390Y-88920814D01*
X164021789Y-88789711D01*
X164021786Y-88789707D01*
X163910292Y-88678213D01*
X163910288Y-88678210D01*
X163779185Y-88590609D01*
X163779172Y-88590602D01*
X163633501Y-88530264D01*
X163633489Y-88530261D01*
X163478845Y-88499500D01*
X163478842Y-88499500D01*
X163321158Y-88499500D01*
X163321155Y-88499500D01*
X163166510Y-88530261D01*
X163166498Y-88530264D01*
X163020827Y-88590602D01*
X163020814Y-88590609D01*
X162889711Y-88678210D01*
X162889707Y-88678213D01*
X162778213Y-88789707D01*
X162778210Y-88789711D01*
X162690609Y-88920814D01*
X162690602Y-88920827D01*
X162630264Y-89066498D01*
X162630261Y-89066510D01*
X162599500Y-89221153D01*
X159692084Y-89221153D01*
X159698107Y-89190875D01*
X159698107Y-89190874D01*
X159700500Y-89178844D01*
X159700500Y-89021155D01*
X159700499Y-89021153D01*
X159696343Y-89000261D01*
X159669737Y-88866503D01*
X159637929Y-88789711D01*
X159609397Y-88720827D01*
X159609390Y-88720814D01*
X159521789Y-88589711D01*
X159521786Y-88589707D01*
X159410292Y-88478213D01*
X159410288Y-88478210D01*
X159279185Y-88390609D01*
X159279172Y-88390602D01*
X159133501Y-88330264D01*
X159133489Y-88330261D01*
X158978845Y-88299500D01*
X158978842Y-88299500D01*
X158821158Y-88299500D01*
X158821155Y-88299500D01*
X158666510Y-88330261D01*
X158666498Y-88330264D01*
X158520827Y-88390602D01*
X158520814Y-88390609D01*
X158389711Y-88478210D01*
X158389707Y-88478213D01*
X158278213Y-88589707D01*
X158278210Y-88589711D01*
X158190609Y-88720814D01*
X158190602Y-88720827D01*
X158130264Y-88866498D01*
X158130261Y-88866510D01*
X158099500Y-89021153D01*
X144305500Y-89021153D01*
X144305500Y-86804823D01*
X144303064Y-86755253D01*
X144302122Y-86745693D01*
X144302120Y-86745682D01*
X144302119Y-86745669D01*
X144295949Y-86704088D01*
X144294844Y-86696640D01*
X144282463Y-86634400D01*
X144253700Y-86539582D01*
X144246384Y-86521919D01*
X144199669Y-86434519D01*
X144167142Y-86385839D01*
X144104276Y-86309238D01*
X144090761Y-86295723D01*
X144048350Y-86260916D01*
X144014175Y-86232868D01*
X144014165Y-86232861D01*
X144014164Y-86232860D01*
X143965485Y-86200333D01*
X143965473Y-86200327D01*
X143965469Y-86200324D01*
X143910891Y-86171153D01*
X160739500Y-86171153D01*
X160739500Y-86328846D01*
X160770261Y-86483489D01*
X160770264Y-86483501D01*
X160832859Y-86634619D01*
X160840328Y-86704088D01*
X160832859Y-86729523D01*
X160780264Y-86856498D01*
X160780261Y-86856510D01*
X160749500Y-87011153D01*
X160749500Y-87168846D01*
X160780261Y-87323489D01*
X160780264Y-87323501D01*
X160840602Y-87469172D01*
X160840609Y-87469185D01*
X160928210Y-87600288D01*
X160928213Y-87600292D01*
X161039707Y-87711786D01*
X161039711Y-87711789D01*
X161170814Y-87799390D01*
X161170827Y-87799397D01*
X161316498Y-87859735D01*
X161316503Y-87859737D01*
X161471153Y-87890499D01*
X161471156Y-87890500D01*
X161471158Y-87890500D01*
X161628844Y-87890500D01*
X161628845Y-87890499D01*
X161783497Y-87859737D01*
X161929179Y-87799394D01*
X162060289Y-87711789D01*
X162171789Y-87600289D01*
X162259394Y-87469179D01*
X162319737Y-87323497D01*
X162350500Y-87168842D01*
X162350500Y-87011158D01*
X162350500Y-87011155D01*
X162350499Y-87011153D01*
X162346239Y-86989735D01*
X162319737Y-86856503D01*
X162259394Y-86710821D01*
X162259391Y-86710816D01*
X162257140Y-86705382D01*
X162249671Y-86635913D01*
X162257137Y-86610484D01*
X162309737Y-86483497D01*
X162340500Y-86328842D01*
X162340500Y-86171158D01*
X162340500Y-86171155D01*
X162340499Y-86171153D01*
X162333637Y-86136658D01*
X162309737Y-86016503D01*
X162303113Y-86000511D01*
X162249397Y-85870827D01*
X162249390Y-85870814D01*
X162161789Y-85739711D01*
X162161786Y-85739707D01*
X162050292Y-85628213D01*
X162050288Y-85628210D01*
X161919185Y-85540609D01*
X161919172Y-85540602D01*
X161773501Y-85480264D01*
X161773489Y-85480261D01*
X161618845Y-85449500D01*
X161618842Y-85449500D01*
X161461158Y-85449500D01*
X161461155Y-85449500D01*
X161306510Y-85480261D01*
X161306498Y-85480264D01*
X161160827Y-85540602D01*
X161160814Y-85540609D01*
X161029711Y-85628210D01*
X161029707Y-85628213D01*
X160918213Y-85739707D01*
X160918210Y-85739711D01*
X160830609Y-85870814D01*
X160830602Y-85870827D01*
X160770264Y-86016498D01*
X160770261Y-86016510D01*
X160739500Y-86171153D01*
X143910891Y-86171153D01*
X143878074Y-86153613D01*
X143878060Y-86153606D01*
X143860396Y-86146290D01*
X143765590Y-86117534D01*
X143708601Y-86106198D01*
X143646690Y-86073813D01*
X143612116Y-86013097D01*
X143615856Y-85943328D01*
X143618218Y-85937162D01*
X143619737Y-85933497D01*
X143650500Y-85778842D01*
X143650500Y-85621158D01*
X143650500Y-85621155D01*
X143650499Y-85621153D01*
X143645936Y-85598213D01*
X143619737Y-85466503D01*
X143613010Y-85450263D01*
X143577264Y-85363962D01*
X143569795Y-85294493D01*
X143601071Y-85232014D01*
X143624781Y-85213779D01*
X143624113Y-85212779D01*
X143760289Y-85121789D01*
X143871786Y-85010292D01*
X143871789Y-85010289D01*
X143931348Y-84921153D01*
X148999500Y-84921153D01*
X148999500Y-85078846D01*
X149030261Y-85233489D01*
X149030264Y-85233501D01*
X149090602Y-85379172D01*
X149090609Y-85379185D01*
X149178210Y-85510288D01*
X149178213Y-85510292D01*
X149289707Y-85621786D01*
X149289711Y-85621789D01*
X149420814Y-85709390D01*
X149420827Y-85709397D01*
X149494013Y-85739711D01*
X149566503Y-85769737D01*
X149721153Y-85800499D01*
X149721156Y-85800500D01*
X149721158Y-85800500D01*
X149878844Y-85800500D01*
X149878845Y-85800499D01*
X150033497Y-85769737D01*
X150178414Y-85709711D01*
X150179172Y-85709397D01*
X150179172Y-85709396D01*
X150179179Y-85709394D01*
X150310289Y-85621789D01*
X150421789Y-85510289D01*
X150509394Y-85379179D01*
X150569737Y-85233497D01*
X150600500Y-85078842D01*
X150600500Y-84921158D01*
X150600500Y-84921155D01*
X150600499Y-84921153D01*
X150580543Y-84820827D01*
X150569737Y-84766503D01*
X150537929Y-84689711D01*
X150509397Y-84620827D01*
X150509395Y-84620823D01*
X150509394Y-84620821D01*
X150421789Y-84489711D01*
X150421787Y-84489708D01*
X150390732Y-84458653D01*
X154059500Y-84458653D01*
X154059500Y-84616346D01*
X154090261Y-84770989D01*
X154090264Y-84771001D01*
X154150602Y-84916672D01*
X154150609Y-84916685D01*
X154238210Y-85047788D01*
X154238213Y-85047792D01*
X154349707Y-85159286D01*
X154349711Y-85159289D01*
X154480814Y-85246890D01*
X154480827Y-85246897D01*
X154626498Y-85307235D01*
X154626503Y-85307237D01*
X154769475Y-85335676D01*
X154781153Y-85337999D01*
X154781156Y-85338000D01*
X154781158Y-85338000D01*
X154938844Y-85338000D01*
X154938845Y-85337999D01*
X155093497Y-85307237D01*
X155239179Y-85246894D01*
X155370289Y-85159289D01*
X155481789Y-85047789D01*
X155569394Y-84916679D01*
X155629737Y-84770997D01*
X155660500Y-84616342D01*
X155660500Y-84458658D01*
X155660500Y-84458655D01*
X155660499Y-84458653D01*
X155979500Y-84458653D01*
X155979500Y-84616346D01*
X156010261Y-84770989D01*
X156010264Y-84771001D01*
X156070602Y-84916672D01*
X156070609Y-84916685D01*
X156158210Y-85047788D01*
X156158213Y-85047792D01*
X156269707Y-85159286D01*
X156269711Y-85159289D01*
X156400814Y-85246890D01*
X156400827Y-85246897D01*
X156546498Y-85307235D01*
X156546503Y-85307237D01*
X156689475Y-85335676D01*
X156701153Y-85337999D01*
X156701156Y-85338000D01*
X156701158Y-85338000D01*
X156858844Y-85338000D01*
X156858845Y-85337999D01*
X157013497Y-85307237D01*
X157159179Y-85246894D01*
X157290289Y-85159289D01*
X157401789Y-85047789D01*
X157489394Y-84916679D01*
X157549737Y-84770997D01*
X157580500Y-84616342D01*
X157580500Y-84458658D01*
X157580500Y-84458655D01*
X157580499Y-84458653D01*
X157909500Y-84458653D01*
X157909500Y-84616346D01*
X157940261Y-84770989D01*
X157940264Y-84771001D01*
X158000602Y-84916672D01*
X158000609Y-84916685D01*
X158088210Y-85047788D01*
X158088213Y-85047792D01*
X158199707Y-85159286D01*
X158199711Y-85159289D01*
X158330814Y-85246890D01*
X158330827Y-85246897D01*
X158476498Y-85307235D01*
X158476503Y-85307237D01*
X158619475Y-85335676D01*
X158631153Y-85337999D01*
X158631156Y-85338000D01*
X158631158Y-85338000D01*
X158788844Y-85338000D01*
X158788845Y-85337999D01*
X158943497Y-85307237D01*
X159089179Y-85246894D01*
X159220289Y-85159289D01*
X159258425Y-85121153D01*
X162999500Y-85121153D01*
X162999500Y-85278846D01*
X163030261Y-85433489D01*
X163030264Y-85433501D01*
X163090602Y-85579172D01*
X163090609Y-85579185D01*
X163178210Y-85710288D01*
X163178213Y-85710292D01*
X163289707Y-85821786D01*
X163289711Y-85821789D01*
X163420814Y-85909390D01*
X163420827Y-85909397D01*
X163511364Y-85946898D01*
X163566503Y-85969737D01*
X163721153Y-86000499D01*
X163721156Y-86000500D01*
X163776541Y-86000500D01*
X163843580Y-86020185D01*
X163889335Y-86072989D01*
X163899944Y-86136658D01*
X163899501Y-86141152D01*
X163899500Y-86141158D01*
X163899500Y-86141164D01*
X163899500Y-86298846D01*
X163930261Y-86453489D01*
X163930264Y-86453501D01*
X163990602Y-86599172D01*
X163990609Y-86599185D01*
X164078210Y-86730288D01*
X164078213Y-86730292D01*
X164189707Y-86841786D01*
X164189711Y-86841789D01*
X164320814Y-86929390D01*
X164320827Y-86929397D01*
X164466498Y-86989735D01*
X164466503Y-86989737D01*
X164621153Y-87020499D01*
X164621156Y-87020500D01*
X164621158Y-87020500D01*
X164778844Y-87020500D01*
X164778845Y-87020499D01*
X164933497Y-86989737D01*
X165079179Y-86929394D01*
X165210289Y-86841789D01*
X165321789Y-86730289D01*
X165409394Y-86599179D01*
X165469737Y-86453497D01*
X165500500Y-86298842D01*
X165500500Y-86141158D01*
X165500500Y-86141155D01*
X165500499Y-86141153D01*
X165493339Y-86105156D01*
X165469737Y-85986503D01*
X165453332Y-85946898D01*
X165409397Y-85840827D01*
X165409390Y-85840814D01*
X165321789Y-85709711D01*
X165321786Y-85709707D01*
X165210292Y-85598213D01*
X165210288Y-85598210D01*
X165079185Y-85510609D01*
X165079172Y-85510602D01*
X164933501Y-85450264D01*
X164933489Y-85450261D01*
X164778845Y-85419500D01*
X164778842Y-85419500D01*
X164723460Y-85419500D01*
X164714001Y-85416722D01*
X164704228Y-85417999D01*
X164681033Y-85407042D01*
X164656421Y-85399815D01*
X164649966Y-85392366D01*
X164641052Y-85388155D01*
X164627460Y-85366393D01*
X164610666Y-85347011D01*
X164608276Y-85335676D01*
X164604041Y-85328894D01*
X164602049Y-85306133D01*
X164599470Y-85293897D01*
X164599606Y-85283333D01*
X164600500Y-85278842D01*
X164600500Y-85221153D01*
X175099500Y-85221153D01*
X175099500Y-85378846D01*
X175130261Y-85533489D01*
X175130264Y-85533501D01*
X175190602Y-85679172D01*
X175190609Y-85679185D01*
X175278210Y-85810288D01*
X175278213Y-85810292D01*
X175389707Y-85921786D01*
X175389710Y-85921788D01*
X175389711Y-85921789D01*
X175412655Y-85937120D01*
X175427289Y-85946898D01*
X175472093Y-86000511D01*
X175480800Y-86069836D01*
X175450645Y-86132863D01*
X175427289Y-86153102D01*
X175389707Y-86178213D01*
X175278213Y-86289707D01*
X175278210Y-86289711D01*
X175190609Y-86420814D01*
X175190602Y-86420827D01*
X175130264Y-86566498D01*
X175130261Y-86566510D01*
X175099500Y-86721153D01*
X175099500Y-86878846D01*
X175130261Y-87033489D01*
X175130264Y-87033501D01*
X175190602Y-87179172D01*
X175190609Y-87179185D01*
X175278210Y-87310288D01*
X175278213Y-87310292D01*
X175389707Y-87421786D01*
X175389711Y-87421789D01*
X175520814Y-87509390D01*
X175520827Y-87509397D01*
X175598233Y-87541459D01*
X175666503Y-87569737D01*
X175820092Y-87600288D01*
X175821153Y-87600499D01*
X175821156Y-87600500D01*
X175821158Y-87600500D01*
X175978844Y-87600500D01*
X175978845Y-87600499D01*
X176133497Y-87569737D01*
X176279179Y-87509394D01*
X176410289Y-87421789D01*
X176521789Y-87310289D01*
X176609394Y-87179179D01*
X176669737Y-87033497D01*
X176700500Y-86878842D01*
X176700500Y-86721158D01*
X176700500Y-86721155D01*
X176700499Y-86721153D01*
X176697362Y-86705382D01*
X176669737Y-86566503D01*
X176658574Y-86539553D01*
X176609397Y-86420827D01*
X176609390Y-86420814D01*
X176521789Y-86289711D01*
X176521786Y-86289707D01*
X176410292Y-86178213D01*
X176410284Y-86178207D01*
X176372712Y-86153102D01*
X176327906Y-86099490D01*
X176319199Y-86030165D01*
X176349353Y-85967138D01*
X176372712Y-85946898D01*
X176399279Y-85929145D01*
X176410289Y-85921789D01*
X176521789Y-85810289D01*
X176609394Y-85679179D01*
X176669737Y-85533497D01*
X176700500Y-85378842D01*
X176700500Y-85221158D01*
X176700500Y-85221155D01*
X176700499Y-85221153D01*
X176680734Y-85121789D01*
X176669737Y-85066503D01*
X176661986Y-85047790D01*
X176626666Y-84962518D01*
X176609532Y-84921153D01*
X177699500Y-84921153D01*
X177699500Y-85078846D01*
X177730261Y-85233489D01*
X177730264Y-85233501D01*
X177790602Y-85379172D01*
X177790609Y-85379185D01*
X177878210Y-85510288D01*
X177878213Y-85510292D01*
X177989707Y-85621786D01*
X177989711Y-85621789D01*
X178120814Y-85709390D01*
X178120827Y-85709397D01*
X178194013Y-85739711D01*
X178266503Y-85769737D01*
X178421153Y-85800499D01*
X178421156Y-85800500D01*
X178421158Y-85800500D01*
X178578844Y-85800500D01*
X178578845Y-85800499D01*
X178733497Y-85769737D01*
X178878414Y-85709711D01*
X178879172Y-85709397D01*
X178879172Y-85709396D01*
X178879179Y-85709394D01*
X179010289Y-85621789D01*
X179121789Y-85510289D01*
X179209394Y-85379179D01*
X179269737Y-85233497D01*
X179300500Y-85078842D01*
X179300500Y-84921158D01*
X179300500Y-84921155D01*
X179300499Y-84921153D01*
X179280543Y-84820827D01*
X179269737Y-84766503D01*
X179237929Y-84689711D01*
X179209397Y-84620827D01*
X179209390Y-84620814D01*
X179121789Y-84489711D01*
X179121786Y-84489707D01*
X179010292Y-84378213D01*
X179010288Y-84378210D01*
X178879185Y-84290609D01*
X178879172Y-84290602D01*
X178733501Y-84230264D01*
X178733489Y-84230261D01*
X178578845Y-84199500D01*
X178578842Y-84199500D01*
X178421158Y-84199500D01*
X178421155Y-84199500D01*
X178266510Y-84230261D01*
X178266498Y-84230264D01*
X178120827Y-84290602D01*
X178120814Y-84290609D01*
X177989711Y-84378210D01*
X177989707Y-84378213D01*
X177878213Y-84489707D01*
X177878210Y-84489711D01*
X177790609Y-84620814D01*
X177790602Y-84620827D01*
X177730264Y-84766498D01*
X177730261Y-84766510D01*
X177699500Y-84921153D01*
X176609532Y-84921153D01*
X176609395Y-84920823D01*
X176609390Y-84920814D01*
X176521789Y-84789711D01*
X176521786Y-84789707D01*
X176410292Y-84678213D01*
X176410288Y-84678210D01*
X176279185Y-84590609D01*
X176279172Y-84590602D01*
X176133501Y-84530264D01*
X176133489Y-84530261D01*
X175978845Y-84499500D01*
X175978842Y-84499500D01*
X175821158Y-84499500D01*
X175821155Y-84499500D01*
X175666510Y-84530261D01*
X175666498Y-84530264D01*
X175520827Y-84590602D01*
X175520814Y-84590609D01*
X175389711Y-84678210D01*
X175389707Y-84678213D01*
X175278213Y-84789707D01*
X175278210Y-84789711D01*
X175190609Y-84920814D01*
X175190602Y-84920827D01*
X175130264Y-85066498D01*
X175130261Y-85066510D01*
X175099500Y-85221153D01*
X164600500Y-85221153D01*
X164600500Y-85121158D01*
X164600500Y-85121155D01*
X164600499Y-85121153D01*
X164569737Y-84966503D01*
X164550955Y-84921158D01*
X164509397Y-84820827D01*
X164509390Y-84820814D01*
X164421789Y-84689711D01*
X164421786Y-84689707D01*
X164310292Y-84578213D01*
X164310288Y-84578210D01*
X164179185Y-84490609D01*
X164179172Y-84490602D01*
X164033501Y-84430264D01*
X164033489Y-84430261D01*
X163878845Y-84399500D01*
X163878842Y-84399500D01*
X163721158Y-84399500D01*
X163721155Y-84399500D01*
X163566510Y-84430261D01*
X163566498Y-84430264D01*
X163420827Y-84490602D01*
X163420814Y-84490609D01*
X163289711Y-84578210D01*
X163289707Y-84578213D01*
X163178213Y-84689707D01*
X163178210Y-84689711D01*
X163090609Y-84820814D01*
X163090602Y-84820827D01*
X163030264Y-84966498D01*
X163030261Y-84966510D01*
X162999500Y-85121153D01*
X159258425Y-85121153D01*
X159331789Y-85047789D01*
X159419394Y-84916679D01*
X159479737Y-84770997D01*
X159510500Y-84616342D01*
X159510500Y-84458658D01*
X159510500Y-84458655D01*
X159510499Y-84458653D01*
X159479738Y-84304010D01*
X159479737Y-84304003D01*
X159449193Y-84230263D01*
X159419397Y-84158327D01*
X159419390Y-84158314D01*
X159331789Y-84027211D01*
X159331786Y-84027207D01*
X159220292Y-83915713D01*
X159220288Y-83915710D01*
X159089185Y-83828109D01*
X159089172Y-83828102D01*
X158943501Y-83767764D01*
X158943489Y-83767761D01*
X158788845Y-83737000D01*
X158788842Y-83737000D01*
X158631158Y-83737000D01*
X158631155Y-83737000D01*
X158476510Y-83767761D01*
X158476498Y-83767764D01*
X158330827Y-83828102D01*
X158330814Y-83828109D01*
X158199711Y-83915710D01*
X158199707Y-83915713D01*
X158088213Y-84027207D01*
X158088210Y-84027211D01*
X158000609Y-84158314D01*
X158000602Y-84158327D01*
X157940264Y-84303998D01*
X157940261Y-84304010D01*
X157909500Y-84458653D01*
X157580499Y-84458653D01*
X157549738Y-84304010D01*
X157549737Y-84304003D01*
X157519193Y-84230263D01*
X157489397Y-84158327D01*
X157489390Y-84158314D01*
X157401789Y-84027211D01*
X157401786Y-84027207D01*
X157290292Y-83915713D01*
X157290288Y-83915710D01*
X157159185Y-83828109D01*
X157159172Y-83828102D01*
X157013501Y-83767764D01*
X157013489Y-83767761D01*
X156858845Y-83737000D01*
X156858842Y-83737000D01*
X156701158Y-83737000D01*
X156701155Y-83737000D01*
X156546510Y-83767761D01*
X156546498Y-83767764D01*
X156400827Y-83828102D01*
X156400814Y-83828109D01*
X156269711Y-83915710D01*
X156269707Y-83915713D01*
X156158213Y-84027207D01*
X156158210Y-84027211D01*
X156070609Y-84158314D01*
X156070602Y-84158327D01*
X156010264Y-84303998D01*
X156010261Y-84304010D01*
X155979500Y-84458653D01*
X155660499Y-84458653D01*
X155629738Y-84304010D01*
X155629737Y-84304003D01*
X155599193Y-84230263D01*
X155569397Y-84158327D01*
X155569390Y-84158314D01*
X155481789Y-84027211D01*
X155481786Y-84027207D01*
X155370292Y-83915713D01*
X155370288Y-83915710D01*
X155239185Y-83828109D01*
X155239172Y-83828102D01*
X155093501Y-83767764D01*
X155093489Y-83767761D01*
X154938845Y-83737000D01*
X154938842Y-83737000D01*
X154781158Y-83737000D01*
X154781155Y-83737000D01*
X154626510Y-83767761D01*
X154626498Y-83767764D01*
X154480827Y-83828102D01*
X154480814Y-83828109D01*
X154349711Y-83915710D01*
X154349707Y-83915713D01*
X154238213Y-84027207D01*
X154238210Y-84027211D01*
X154150609Y-84158314D01*
X154150602Y-84158327D01*
X154090264Y-84303998D01*
X154090261Y-84304010D01*
X154059500Y-84458653D01*
X150390732Y-84458653D01*
X150310292Y-84378213D01*
X150310288Y-84378210D01*
X150179185Y-84290609D01*
X150179172Y-84290602D01*
X150033501Y-84230264D01*
X150033489Y-84230261D01*
X149878845Y-84199500D01*
X149878842Y-84199500D01*
X149721158Y-84199500D01*
X149721155Y-84199500D01*
X149566510Y-84230261D01*
X149566498Y-84230264D01*
X149420827Y-84290602D01*
X149420814Y-84290609D01*
X149289711Y-84378210D01*
X149289707Y-84378213D01*
X149178213Y-84489707D01*
X149178210Y-84489711D01*
X149090609Y-84620814D01*
X149090602Y-84620827D01*
X149030264Y-84766498D01*
X149030261Y-84766510D01*
X148999500Y-84921153D01*
X143931348Y-84921153D01*
X143959394Y-84879179D01*
X144019737Y-84733497D01*
X144050500Y-84578842D01*
X144050500Y-84421158D01*
X144050500Y-84421155D01*
X144050499Y-84421153D01*
X144041957Y-84378210D01*
X144019737Y-84266503D01*
X144019735Y-84266498D01*
X143959397Y-84120827D01*
X143959390Y-84120814D01*
X143871789Y-83989711D01*
X143871786Y-83989707D01*
X143870885Y-83988806D01*
X143870563Y-83988217D01*
X143867924Y-83985001D01*
X143868533Y-83984500D01*
X143837400Y-83927483D01*
X143842384Y-83857791D01*
X143884256Y-83801858D01*
X143934372Y-83779508D01*
X143983497Y-83769737D01*
X144129179Y-83709394D01*
X144260289Y-83621789D01*
X144371789Y-83510289D01*
X144459394Y-83379179D01*
X144519737Y-83233497D01*
X144550500Y-83078842D01*
X144550500Y-82921158D01*
X144550500Y-82921155D01*
X144550499Y-82921153D01*
X144550432Y-82920814D01*
X144519737Y-82766503D01*
X144500955Y-82721158D01*
X144500953Y-82721153D01*
X160099500Y-82721153D01*
X160099500Y-82878846D01*
X160130261Y-83033489D01*
X160130264Y-83033501D01*
X160190602Y-83179172D01*
X160190609Y-83179185D01*
X160278210Y-83310288D01*
X160278213Y-83310292D01*
X160389707Y-83421786D01*
X160389711Y-83421789D01*
X160520814Y-83509390D01*
X160520827Y-83509397D01*
X160666498Y-83569735D01*
X160666503Y-83569737D01*
X160821153Y-83600499D01*
X160821156Y-83600500D01*
X160821158Y-83600500D01*
X160978844Y-83600500D01*
X160978845Y-83600499D01*
X161133497Y-83569737D01*
X161279179Y-83509394D01*
X161410289Y-83421789D01*
X161521789Y-83310289D01*
X161609394Y-83179179D01*
X161669737Y-83033497D01*
X161700500Y-82878842D01*
X161700500Y-82721158D01*
X161700500Y-82721155D01*
X161700499Y-82721153D01*
X161680543Y-82620827D01*
X161669737Y-82566503D01*
X161669735Y-82566498D01*
X161609397Y-82420827D01*
X161609390Y-82420814D01*
X161521789Y-82289711D01*
X161521786Y-82289707D01*
X161410292Y-82178213D01*
X161410288Y-82178210D01*
X161279185Y-82090609D01*
X161279172Y-82090602D01*
X161133501Y-82030264D01*
X161133489Y-82030261D01*
X160978845Y-81999500D01*
X160978842Y-81999500D01*
X160821158Y-81999500D01*
X160821155Y-81999500D01*
X160666510Y-82030261D01*
X160666498Y-82030264D01*
X160520827Y-82090602D01*
X160520814Y-82090609D01*
X160389711Y-82178210D01*
X160389707Y-82178213D01*
X160278213Y-82289707D01*
X160278210Y-82289711D01*
X160190609Y-82420814D01*
X160190602Y-82420827D01*
X160130264Y-82566498D01*
X160130261Y-82566510D01*
X160099500Y-82721153D01*
X144500953Y-82721153D01*
X144459397Y-82620827D01*
X144459390Y-82620814D01*
X144371789Y-82489711D01*
X144371786Y-82489707D01*
X144260292Y-82378213D01*
X144260288Y-82378210D01*
X144129185Y-82290609D01*
X144129172Y-82290602D01*
X143983501Y-82230264D01*
X143983489Y-82230261D01*
X143828845Y-82199500D01*
X143828842Y-82199500D01*
X143671158Y-82199500D01*
X143671155Y-82199500D01*
X143516510Y-82230261D01*
X143516498Y-82230264D01*
X143370827Y-82290602D01*
X143370814Y-82290609D01*
X143239711Y-82378210D01*
X143239707Y-82378213D01*
X143128213Y-82489707D01*
X143128210Y-82489711D01*
X143040609Y-82620814D01*
X143040602Y-82620827D01*
X142980264Y-82766498D01*
X142980261Y-82766510D01*
X142949500Y-82921153D01*
X142949500Y-83078846D01*
X142980261Y-83233489D01*
X142980264Y-83233501D01*
X143040602Y-83379172D01*
X143040609Y-83379185D01*
X143128210Y-83510288D01*
X143128213Y-83510292D01*
X143129114Y-83511193D01*
X143129435Y-83511780D01*
X143132076Y-83514999D01*
X143131465Y-83515499D01*
X143162599Y-83572516D01*
X143157615Y-83642208D01*
X143115743Y-83698141D01*
X143065626Y-83720491D01*
X143016507Y-83730261D01*
X143016498Y-83730264D01*
X142870827Y-83790602D01*
X142870814Y-83790609D01*
X142739711Y-83878210D01*
X142739707Y-83878213D01*
X142628213Y-83989707D01*
X142628210Y-83989711D01*
X142540609Y-84120814D01*
X142540602Y-84120827D01*
X142480264Y-84266498D01*
X142480261Y-84266510D01*
X142449500Y-84421153D01*
X142449500Y-84578846D01*
X142480261Y-84733489D01*
X142480264Y-84733501D01*
X142522735Y-84836036D01*
X142530204Y-84905505D01*
X142498928Y-84967984D01*
X142475228Y-84986236D01*
X142475886Y-84987221D01*
X142339711Y-85078210D01*
X142339707Y-85078213D01*
X142228213Y-85189707D01*
X142228210Y-85189711D01*
X142140609Y-85320814D01*
X142140602Y-85320827D01*
X142080264Y-85466498D01*
X142080261Y-85466510D01*
X142049500Y-85621153D01*
X142049500Y-85778846D01*
X142080260Y-85933487D01*
X142080569Y-85934504D01*
X142080573Y-85935062D01*
X142081451Y-85939472D01*
X142080614Y-85939638D01*
X142081192Y-86004371D01*
X142043944Y-86063484D01*
X141980650Y-86093075D01*
X141961908Y-86094500D01*
X141174812Y-86094500D01*
X141125356Y-86096925D01*
X141115804Y-86097864D01*
X141080864Y-86103045D01*
X141066652Y-86105153D01*
X141066641Y-86105155D01*
X141066636Y-86105156D01*
X141004392Y-86117537D01*
X140909569Y-86146302D01*
X140891914Y-86153615D01*
X140804520Y-86200329D01*
X140755842Y-86232855D01*
X140755829Y-86232865D01*
X140679236Y-86295724D01*
X140665725Y-86309235D01*
X140602855Y-86385841D01*
X140602846Y-86385853D01*
X140570331Y-86434515D01*
X140570330Y-86434517D01*
X140523629Y-86521885D01*
X140523624Y-86521898D01*
X140516310Y-86539553D01*
X140487537Y-86634394D01*
X140487536Y-86634397D01*
X140478873Y-86677949D01*
X140475153Y-86696652D01*
X140473859Y-86705382D01*
X140467864Y-86745804D01*
X140466925Y-86755356D01*
X140464500Y-86804811D01*
X140464500Y-86804823D01*
X140464500Y-95753550D01*
X140468158Y-95809390D01*
X140468820Y-95819500D01*
X140468820Y-95819503D01*
X140470488Y-95832174D01*
X140470491Y-95832193D01*
X140483389Y-95897043D01*
X140483392Y-95897056D01*
X140498422Y-95953150D01*
X140522044Y-96010178D01*
X140548927Y-96075079D01*
X140548931Y-96075087D01*
X140551102Y-96078846D01*
X140561609Y-96097043D01*
X140561614Y-96097049D01*
X140561619Y-96097057D01*
X140641928Y-96201715D01*
X140641938Y-96201726D01*
X140658158Y-96217946D01*
X140691643Y-96279269D01*
X140692094Y-96329818D01*
X140664500Y-96468540D01*
X140664500Y-96468545D01*
X140664500Y-96611455D01*
X140664500Y-96611457D01*
X140664499Y-96611457D01*
X140692219Y-96750808D01*
X140692219Y-96799192D01*
X140664500Y-96938542D01*
X140664500Y-96938545D01*
X140664500Y-97081455D01*
X140664500Y-97081457D01*
X140664499Y-97081457D01*
X140680529Y-97162039D01*
X140674302Y-97231631D01*
X140631439Y-97286808D01*
X140583104Y-97307848D01*
X140534392Y-97317537D01*
X140439569Y-97346302D01*
X140421914Y-97353615D01*
X140334520Y-97400329D01*
X140285842Y-97432855D01*
X140285829Y-97432865D01*
X140209236Y-97495724D01*
X140195725Y-97509235D01*
X140132855Y-97585841D01*
X140132846Y-97585853D01*
X140100331Y-97634515D01*
X140100330Y-97634517D01*
X140053629Y-97721885D01*
X140053624Y-97721898D01*
X140046310Y-97739553D01*
X140017537Y-97834394D01*
X140017536Y-97834397D01*
X140005156Y-97896636D01*
X140005153Y-97896652D01*
X140003045Y-97910864D01*
X139997864Y-97945804D01*
X139996925Y-97955356D01*
X139994500Y-98004811D01*
X130300500Y-98004811D01*
X130300500Y-94921153D01*
X130699500Y-94921153D01*
X130699500Y-95078846D01*
X130730261Y-95233489D01*
X130730264Y-95233501D01*
X130790602Y-95379172D01*
X130790609Y-95379185D01*
X130878210Y-95510288D01*
X130878213Y-95510292D01*
X130989707Y-95621786D01*
X130989711Y-95621789D01*
X131120814Y-95709390D01*
X131120827Y-95709397D01*
X131258683Y-95766498D01*
X131266503Y-95769737D01*
X131421153Y-95800499D01*
X131421156Y-95800500D01*
X131421158Y-95800500D01*
X131578844Y-95800500D01*
X131578845Y-95800499D01*
X131733497Y-95769737D01*
X131879179Y-95709394D01*
X132010289Y-95621789D01*
X132121789Y-95510289D01*
X132209394Y-95379179D01*
X132269737Y-95233497D01*
X132282138Y-95171153D01*
X137949500Y-95171153D01*
X137949500Y-95328846D01*
X137980261Y-95483489D01*
X137980264Y-95483501D01*
X138040602Y-95629172D01*
X138040609Y-95629185D01*
X138128210Y-95760288D01*
X138128213Y-95760292D01*
X138239707Y-95871786D01*
X138239711Y-95871789D01*
X138370814Y-95959390D01*
X138370827Y-95959397D01*
X138516498Y-96019735D01*
X138516503Y-96019737D01*
X138671153Y-96050499D01*
X138671156Y-96050500D01*
X138671158Y-96050500D01*
X138828844Y-96050500D01*
X138828845Y-96050499D01*
X138983497Y-96019737D01*
X139129179Y-95959394D01*
X139260289Y-95871789D01*
X139371789Y-95760289D01*
X139459394Y-95629179D01*
X139462854Y-95620827D01*
X139517163Y-95489711D01*
X139519737Y-95483497D01*
X139550500Y-95328842D01*
X139550500Y-95171158D01*
X139550500Y-95171155D01*
X139550499Y-95171153D01*
X139519738Y-95016510D01*
X139519737Y-95016503D01*
X139517163Y-95010288D01*
X139459397Y-94870827D01*
X139459390Y-94870814D01*
X139371789Y-94739711D01*
X139371786Y-94739707D01*
X139260292Y-94628213D01*
X139260288Y-94628210D01*
X139129185Y-94540609D01*
X139129172Y-94540602D01*
X138983501Y-94480264D01*
X138983489Y-94480261D01*
X138828845Y-94449500D01*
X138828842Y-94449500D01*
X138671158Y-94449500D01*
X138671155Y-94449500D01*
X138516510Y-94480261D01*
X138516498Y-94480264D01*
X138370827Y-94540602D01*
X138370814Y-94540609D01*
X138239711Y-94628210D01*
X138239707Y-94628213D01*
X138128213Y-94739707D01*
X138128210Y-94739711D01*
X138040609Y-94870814D01*
X138040602Y-94870827D01*
X137980264Y-95016498D01*
X137980261Y-95016510D01*
X137949500Y-95171153D01*
X132282138Y-95171153D01*
X132291958Y-95121786D01*
X132300500Y-95078844D01*
X132300500Y-94921155D01*
X132300499Y-94921153D01*
X132294402Y-94890500D01*
X132269737Y-94766503D01*
X132260727Y-94744750D01*
X132209397Y-94620827D01*
X132209390Y-94620814D01*
X132121789Y-94489711D01*
X132121786Y-94489707D01*
X132010292Y-94378213D01*
X132010288Y-94378210D01*
X131879185Y-94290609D01*
X131879172Y-94290602D01*
X131733501Y-94230264D01*
X131733489Y-94230261D01*
X131578845Y-94199500D01*
X131578842Y-94199500D01*
X131421158Y-94199500D01*
X131421155Y-94199500D01*
X131266510Y-94230261D01*
X131266498Y-94230264D01*
X131120827Y-94290602D01*
X131120814Y-94290609D01*
X130989711Y-94378210D01*
X130989707Y-94378213D01*
X130878213Y-94489707D01*
X130878210Y-94489711D01*
X130790609Y-94620814D01*
X130790602Y-94620827D01*
X130730264Y-94766498D01*
X130730261Y-94766510D01*
X130699500Y-94921153D01*
X130300500Y-94921153D01*
X130300500Y-91271153D01*
X131099500Y-91271153D01*
X131099500Y-91428846D01*
X131130261Y-91583489D01*
X131130264Y-91583501D01*
X131190602Y-91729172D01*
X131190609Y-91729185D01*
X131278210Y-91860288D01*
X131278213Y-91860292D01*
X131389707Y-91971786D01*
X131389711Y-91971789D01*
X131520814Y-92059390D01*
X131520827Y-92059397D01*
X131655356Y-92115120D01*
X131666503Y-92119737D01*
X131821153Y-92150499D01*
X131821156Y-92150500D01*
X131821158Y-92150500D01*
X131978844Y-92150500D01*
X131978845Y-92150499D01*
X132133497Y-92119737D01*
X132279179Y-92059394D01*
X132381111Y-91991284D01*
X132447786Y-91970408D01*
X132515166Y-91988892D01*
X132518847Y-91991257D01*
X132620821Y-92059394D01*
X132620823Y-92059395D01*
X132620827Y-92059397D01*
X132755356Y-92115120D01*
X132766503Y-92119737D01*
X132921153Y-92150499D01*
X132921156Y-92150500D01*
X132921158Y-92150500D01*
X133078844Y-92150500D01*
X133078845Y-92150499D01*
X133233497Y-92119737D01*
X133379179Y-92059394D01*
X133510289Y-91971789D01*
X133621789Y-91860289D01*
X133709394Y-91729179D01*
X133712719Y-91721153D01*
X133730102Y-91679185D01*
X133769737Y-91583497D01*
X133800500Y-91428842D01*
X133800500Y-91271158D01*
X133800500Y-91271155D01*
X133800499Y-91271153D01*
X133782012Y-91178213D01*
X133769737Y-91116503D01*
X133769735Y-91116498D01*
X133709397Y-90970827D01*
X133709390Y-90970814D01*
X133621789Y-90839711D01*
X133621786Y-90839707D01*
X133510292Y-90728213D01*
X133510288Y-90728210D01*
X133379185Y-90640609D01*
X133379172Y-90640602D01*
X133233501Y-90580264D01*
X133233489Y-90580261D01*
X133078845Y-90549500D01*
X133078842Y-90549500D01*
X132921158Y-90549500D01*
X132921155Y-90549500D01*
X132766510Y-90580261D01*
X132766498Y-90580264D01*
X132620827Y-90640602D01*
X132620814Y-90640609D01*
X132518891Y-90708713D01*
X132452213Y-90729591D01*
X132384833Y-90711107D01*
X132381109Y-90708713D01*
X132279185Y-90640609D01*
X132279172Y-90640602D01*
X132133501Y-90580264D01*
X132133489Y-90580261D01*
X131978845Y-90549500D01*
X131978842Y-90549500D01*
X131821158Y-90549500D01*
X131821155Y-90549500D01*
X131666510Y-90580261D01*
X131666498Y-90580264D01*
X131520827Y-90640602D01*
X131520814Y-90640609D01*
X131389711Y-90728210D01*
X131389707Y-90728213D01*
X131278213Y-90839707D01*
X131278210Y-90839711D01*
X131190609Y-90970814D01*
X131190602Y-90970827D01*
X131130264Y-91116498D01*
X131130261Y-91116510D01*
X131099500Y-91271153D01*
X130300500Y-91271153D01*
X130300500Y-87738543D01*
X131649499Y-87738543D01*
X131687947Y-87931829D01*
X131687950Y-87931839D01*
X131763364Y-88113907D01*
X131763371Y-88113920D01*
X131872860Y-88277781D01*
X131872863Y-88277785D01*
X132012214Y-88417136D01*
X132012218Y-88417139D01*
X132176079Y-88526628D01*
X132176092Y-88526635D01*
X132328373Y-88589711D01*
X132358165Y-88602051D01*
X132358169Y-88602051D01*
X132358170Y-88602052D01*
X132551456Y-88640500D01*
X132551459Y-88640500D01*
X133448543Y-88640500D01*
X133578582Y-88614632D01*
X133641835Y-88602051D01*
X133815153Y-88530261D01*
X133823907Y-88526635D01*
X133823907Y-88526634D01*
X133823914Y-88526632D01*
X133987782Y-88417139D01*
X134127139Y-88277782D01*
X134236632Y-88113914D01*
X134312051Y-87931835D01*
X134338395Y-87799397D01*
X134350500Y-87738543D01*
X135459499Y-87738543D01*
X135497947Y-87931829D01*
X135497950Y-87931839D01*
X135573364Y-88113907D01*
X135573371Y-88113920D01*
X135682860Y-88277781D01*
X135682863Y-88277785D01*
X135822214Y-88417136D01*
X135822218Y-88417139D01*
X135986079Y-88526628D01*
X135986092Y-88526635D01*
X136138373Y-88589711D01*
X136168165Y-88602051D01*
X136168169Y-88602051D01*
X136168170Y-88602052D01*
X136361456Y-88640500D01*
X136361459Y-88640500D01*
X137258543Y-88640500D01*
X137388582Y-88614632D01*
X137451835Y-88602051D01*
X137625153Y-88530261D01*
X137633907Y-88526635D01*
X137633907Y-88526634D01*
X137633914Y-88526632D01*
X137797782Y-88417139D01*
X137937139Y-88277782D01*
X138046632Y-88113914D01*
X138122051Y-87931835D01*
X138148395Y-87799397D01*
X138160500Y-87738543D01*
X138160500Y-87541456D01*
X138122052Y-87348170D01*
X138122051Y-87348169D01*
X138122051Y-87348165D01*
X138106364Y-87310292D01*
X138046635Y-87166092D01*
X138046628Y-87166079D01*
X137937139Y-87002218D01*
X137937136Y-87002214D01*
X137797785Y-86862863D01*
X137797781Y-86862860D01*
X137633920Y-86753371D01*
X137633907Y-86753364D01*
X137451839Y-86677950D01*
X137451829Y-86677947D01*
X137258543Y-86639500D01*
X137258541Y-86639500D01*
X136361459Y-86639500D01*
X136361457Y-86639500D01*
X136168170Y-86677947D01*
X136168160Y-86677950D01*
X135986092Y-86753364D01*
X135986079Y-86753371D01*
X135822218Y-86862860D01*
X135822214Y-86862863D01*
X135682863Y-87002214D01*
X135682860Y-87002218D01*
X135573371Y-87166079D01*
X135573364Y-87166092D01*
X135497950Y-87348160D01*
X135497947Y-87348170D01*
X135459500Y-87541456D01*
X135459500Y-87541459D01*
X135459500Y-87738541D01*
X135459500Y-87738543D01*
X135459499Y-87738543D01*
X134350500Y-87738543D01*
X134350500Y-87541456D01*
X134312052Y-87348170D01*
X134312051Y-87348169D01*
X134312051Y-87348165D01*
X134296364Y-87310292D01*
X134236635Y-87166092D01*
X134236628Y-87166079D01*
X134127139Y-87002218D01*
X134127136Y-87002214D01*
X133987785Y-86862863D01*
X133987781Y-86862860D01*
X133823920Y-86753371D01*
X133823907Y-86753364D01*
X133641839Y-86677950D01*
X133641829Y-86677947D01*
X133448543Y-86639500D01*
X133448541Y-86639500D01*
X132551459Y-86639500D01*
X132551457Y-86639500D01*
X132358170Y-86677947D01*
X132358160Y-86677950D01*
X132176092Y-86753364D01*
X132176079Y-86753371D01*
X132012218Y-86862860D01*
X132012214Y-86862863D01*
X131872863Y-87002214D01*
X131872860Y-87002218D01*
X131763371Y-87166079D01*
X131763364Y-87166092D01*
X131687950Y-87348160D01*
X131687947Y-87348170D01*
X131649500Y-87541456D01*
X131649500Y-87541459D01*
X131649500Y-87738541D01*
X131649500Y-87738543D01*
X131649499Y-87738543D01*
X130300500Y-87738543D01*
X130300500Y-84921153D01*
X130699500Y-84921153D01*
X130699500Y-85078846D01*
X130730261Y-85233489D01*
X130730264Y-85233501D01*
X130790602Y-85379172D01*
X130790609Y-85379185D01*
X130878210Y-85510288D01*
X130878213Y-85510292D01*
X130989707Y-85621786D01*
X130989711Y-85621789D01*
X131120814Y-85709390D01*
X131120827Y-85709397D01*
X131194013Y-85739711D01*
X131266503Y-85769737D01*
X131421153Y-85800499D01*
X131421156Y-85800500D01*
X131421158Y-85800500D01*
X131578844Y-85800500D01*
X131578845Y-85800499D01*
X131733497Y-85769737D01*
X131878414Y-85709711D01*
X131879172Y-85709397D01*
X131879172Y-85709396D01*
X131879179Y-85709394D01*
X132010289Y-85621789D01*
X132121789Y-85510289D01*
X132209394Y-85379179D01*
X132269737Y-85233497D01*
X132300500Y-85078842D01*
X132300500Y-84921158D01*
X132300500Y-84921155D01*
X132300499Y-84921153D01*
X132280543Y-84820827D01*
X132269737Y-84766503D01*
X132237929Y-84689711D01*
X132209397Y-84620827D01*
X132209390Y-84620814D01*
X132121789Y-84489711D01*
X132121786Y-84489707D01*
X132010292Y-84378213D01*
X132010288Y-84378210D01*
X131879185Y-84290609D01*
X131879172Y-84290602D01*
X131733501Y-84230264D01*
X131733489Y-84230261D01*
X131578845Y-84199500D01*
X131578842Y-84199500D01*
X131421158Y-84199500D01*
X131421155Y-84199500D01*
X131266510Y-84230261D01*
X131266498Y-84230264D01*
X131120827Y-84290602D01*
X131120814Y-84290609D01*
X130989711Y-84378210D01*
X130989707Y-84378213D01*
X130878213Y-84489707D01*
X130878210Y-84489711D01*
X130790609Y-84620814D01*
X130790602Y-84620827D01*
X130730264Y-84766498D01*
X130730261Y-84766510D01*
X130699500Y-84921153D01*
X130300500Y-84921153D01*
X130300500Y-83221153D01*
X139249500Y-83221153D01*
X139249500Y-83378846D01*
X139280261Y-83533489D01*
X139280264Y-83533501D01*
X139340602Y-83679172D01*
X139340609Y-83679185D01*
X139428210Y-83810288D01*
X139428213Y-83810292D01*
X139539707Y-83921786D01*
X139539711Y-83921789D01*
X139670814Y-84009390D01*
X139670827Y-84009397D01*
X139816498Y-84069735D01*
X139816503Y-84069737D01*
X139971153Y-84100499D01*
X139971156Y-84100500D01*
X139971158Y-84100500D01*
X140128844Y-84100500D01*
X140128845Y-84100499D01*
X140283497Y-84069737D01*
X140429179Y-84009394D01*
X140560289Y-83921789D01*
X140671789Y-83810289D01*
X140759394Y-83679179D01*
X140819737Y-83533497D01*
X140850500Y-83378842D01*
X140850500Y-83221158D01*
X140850500Y-83221155D01*
X140850499Y-83221153D01*
X140822192Y-83078846D01*
X140819737Y-83066503D01*
X140759534Y-82921158D01*
X140759397Y-82920827D01*
X140759390Y-82920814D01*
X140671789Y-82789711D01*
X140671786Y-82789707D01*
X140560292Y-82678213D01*
X140560288Y-82678210D01*
X140429185Y-82590609D01*
X140429172Y-82590602D01*
X140283501Y-82530264D01*
X140283489Y-82530261D01*
X140128845Y-82499500D01*
X140128842Y-82499500D01*
X139971158Y-82499500D01*
X139971155Y-82499500D01*
X139816510Y-82530261D01*
X139816498Y-82530264D01*
X139670827Y-82590602D01*
X139670814Y-82590609D01*
X139539711Y-82678210D01*
X139539707Y-82678213D01*
X139428213Y-82789707D01*
X139428210Y-82789711D01*
X139340609Y-82920814D01*
X139340602Y-82920827D01*
X139280264Y-83066498D01*
X139280261Y-83066510D01*
X139249500Y-83221153D01*
X130300500Y-83221153D01*
X130300500Y-79921153D01*
X130699500Y-79921153D01*
X130699500Y-80078846D01*
X130730261Y-80233489D01*
X130730264Y-80233501D01*
X130790602Y-80379172D01*
X130790609Y-80379185D01*
X130878210Y-80510288D01*
X130878213Y-80510292D01*
X130989707Y-80621786D01*
X130989711Y-80621789D01*
X131120814Y-80709390D01*
X131120827Y-80709397D01*
X131266498Y-80769735D01*
X131266503Y-80769737D01*
X131421153Y-80800499D01*
X131421156Y-80800500D01*
X131421158Y-80800500D01*
X131578844Y-80800500D01*
X131578845Y-80800499D01*
X131733497Y-80769737D01*
X131879179Y-80709394D01*
X132010289Y-80621789D01*
X132121789Y-80510289D01*
X132209394Y-80379179D01*
X132269737Y-80233497D01*
X132289630Y-80133489D01*
X132300851Y-80077080D01*
X132333236Y-80015169D01*
X132393952Y-79980595D01*
X132446660Y-79979654D01*
X132551456Y-80000500D01*
X132551459Y-80000500D01*
X133448543Y-80000500D01*
X133578582Y-79974632D01*
X133641835Y-79962051D01*
X133823914Y-79886632D01*
X133987782Y-79777139D01*
X134127139Y-79637782D01*
X134236632Y-79473914D01*
X134312051Y-79291835D01*
X134344190Y-79130263D01*
X134350500Y-79098543D01*
X135459499Y-79098543D01*
X135497947Y-79291829D01*
X135497950Y-79291839D01*
X135573364Y-79473907D01*
X135573371Y-79473920D01*
X135682860Y-79637781D01*
X135682863Y-79637785D01*
X135822214Y-79777136D01*
X135822218Y-79777139D01*
X135986079Y-79886628D01*
X135986092Y-79886635D01*
X136168160Y-79962049D01*
X136168165Y-79962051D01*
X136168169Y-79962051D01*
X136168170Y-79962052D01*
X136361456Y-80000500D01*
X136361459Y-80000500D01*
X137258543Y-80000500D01*
X137388582Y-79974632D01*
X137451835Y-79962051D01*
X137550572Y-79921153D01*
X149099500Y-79921153D01*
X149099500Y-80078846D01*
X149130261Y-80233489D01*
X149130264Y-80233501D01*
X149190602Y-80379172D01*
X149190609Y-80379185D01*
X149278210Y-80510288D01*
X149278213Y-80510292D01*
X149389707Y-80621786D01*
X149389711Y-80621789D01*
X149520814Y-80709390D01*
X149520827Y-80709397D01*
X149666498Y-80769735D01*
X149666503Y-80769737D01*
X149821153Y-80800499D01*
X149821156Y-80800500D01*
X149821158Y-80800500D01*
X149978844Y-80800500D01*
X149978845Y-80800499D01*
X150133497Y-80769737D01*
X150279179Y-80709394D01*
X150410289Y-80621789D01*
X150521789Y-80510289D01*
X150609394Y-80379179D01*
X150669737Y-80233497D01*
X150700500Y-80078842D01*
X150700500Y-79921158D01*
X150700500Y-79921155D01*
X150684209Y-79839258D01*
X150684209Y-79839257D01*
X150680608Y-79821153D01*
X176399500Y-79821153D01*
X176399500Y-79978846D01*
X176430261Y-80133489D01*
X176430264Y-80133501D01*
X176490602Y-80279172D01*
X176490609Y-80279185D01*
X176578210Y-80410288D01*
X176578213Y-80410292D01*
X176689707Y-80521786D01*
X176689711Y-80521789D01*
X176820814Y-80609390D01*
X176820827Y-80609397D01*
X176966498Y-80669735D01*
X176966503Y-80669737D01*
X177121153Y-80700499D01*
X177121156Y-80700500D01*
X177121158Y-80700500D01*
X177278844Y-80700500D01*
X177278845Y-80700499D01*
X177433497Y-80669737D01*
X177579179Y-80609394D01*
X177631110Y-80574694D01*
X177697785Y-80553816D01*
X177765165Y-80572300D01*
X177768863Y-80574676D01*
X177820821Y-80609394D01*
X177820823Y-80609395D01*
X177820825Y-80609396D01*
X177850745Y-80621789D01*
X177966503Y-80669737D01*
X178121153Y-80700499D01*
X178121156Y-80700500D01*
X178121158Y-80700500D01*
X178278844Y-80700500D01*
X178278845Y-80700499D01*
X178433497Y-80669737D01*
X178579179Y-80609394D01*
X178710289Y-80521789D01*
X178821789Y-80410289D01*
X178909394Y-80279179D01*
X178969737Y-80133497D01*
X179000500Y-79978842D01*
X179000500Y-79821158D01*
X179000500Y-79821155D01*
X179000499Y-79821153D01*
X178969738Y-79666510D01*
X178969737Y-79666503D01*
X178957842Y-79637785D01*
X178909397Y-79520827D01*
X178909390Y-79520814D01*
X178821789Y-79389711D01*
X178821786Y-79389707D01*
X178710292Y-79278213D01*
X178710288Y-79278210D01*
X178579185Y-79190609D01*
X178579172Y-79190602D01*
X178433501Y-79130264D01*
X178433489Y-79130261D01*
X178278845Y-79099500D01*
X178278842Y-79099500D01*
X178121158Y-79099500D01*
X178121155Y-79099500D01*
X177966510Y-79130261D01*
X177966498Y-79130264D01*
X177820827Y-79190602D01*
X177820814Y-79190609D01*
X177768891Y-79225304D01*
X177702214Y-79246182D01*
X177634833Y-79227698D01*
X177631109Y-79225304D01*
X177579185Y-79190609D01*
X177579172Y-79190602D01*
X177433501Y-79130264D01*
X177433489Y-79130261D01*
X177278845Y-79099500D01*
X177278842Y-79099500D01*
X177121158Y-79099500D01*
X177121155Y-79099500D01*
X176966510Y-79130261D01*
X176966498Y-79130264D01*
X176820827Y-79190602D01*
X176820814Y-79190609D01*
X176689711Y-79278210D01*
X176689707Y-79278213D01*
X176578213Y-79389707D01*
X176578210Y-79389711D01*
X176490609Y-79520814D01*
X176490602Y-79520827D01*
X176430264Y-79666498D01*
X176430261Y-79666510D01*
X176399500Y-79821153D01*
X150680608Y-79821153D01*
X150678780Y-79811964D01*
X150669737Y-79766503D01*
X150616421Y-79637785D01*
X150609397Y-79620827D01*
X150609390Y-79620814D01*
X150521789Y-79489711D01*
X150521786Y-79489707D01*
X150410292Y-79378213D01*
X150410288Y-79378210D01*
X150279185Y-79290609D01*
X150279172Y-79290602D01*
X150133501Y-79230264D01*
X150133489Y-79230261D01*
X149978845Y-79199500D01*
X149978842Y-79199500D01*
X149821158Y-79199500D01*
X149821155Y-79199500D01*
X149666510Y-79230261D01*
X149666498Y-79230264D01*
X149520827Y-79290602D01*
X149520814Y-79290609D01*
X149389711Y-79378210D01*
X149389707Y-79378213D01*
X149278213Y-79489707D01*
X149278210Y-79489711D01*
X149190609Y-79620814D01*
X149190602Y-79620827D01*
X149130264Y-79766498D01*
X149130261Y-79766510D01*
X149099500Y-79921153D01*
X137550572Y-79921153D01*
X137633914Y-79886632D01*
X137731903Y-79821158D01*
X137745663Y-79811964D01*
X137797782Y-79777139D01*
X137937136Y-79637785D01*
X137937139Y-79637782D01*
X138046632Y-79473914D01*
X138122051Y-79291835D01*
X138154190Y-79130263D01*
X138160500Y-79098543D01*
X138160500Y-78901456D01*
X138122052Y-78708170D01*
X138122051Y-78708169D01*
X138122051Y-78708165D01*
X138056745Y-78550500D01*
X138046635Y-78526092D01*
X138046628Y-78526079D01*
X137937139Y-78362218D01*
X137937136Y-78362214D01*
X137797785Y-78222863D01*
X137797781Y-78222860D01*
X137633920Y-78113371D01*
X137633907Y-78113364D01*
X137451839Y-78037950D01*
X137451829Y-78037947D01*
X137258543Y-77999500D01*
X137258541Y-77999500D01*
X136361459Y-77999500D01*
X136361457Y-77999500D01*
X136168170Y-78037947D01*
X136168160Y-78037950D01*
X135986092Y-78113364D01*
X135986079Y-78113371D01*
X135822218Y-78222860D01*
X135822214Y-78222863D01*
X135682863Y-78362214D01*
X135682860Y-78362218D01*
X135573371Y-78526079D01*
X135573364Y-78526092D01*
X135497950Y-78708160D01*
X135497947Y-78708170D01*
X135459500Y-78901456D01*
X135459500Y-78901459D01*
X135459500Y-79098541D01*
X135459500Y-79098543D01*
X135459499Y-79098543D01*
X134350500Y-79098543D01*
X134350500Y-78901456D01*
X134312052Y-78708170D01*
X134312051Y-78708169D01*
X134312051Y-78708165D01*
X134246745Y-78550500D01*
X134236635Y-78526092D01*
X134236628Y-78526079D01*
X134127139Y-78362218D01*
X134127136Y-78362214D01*
X133987785Y-78222863D01*
X133987781Y-78222860D01*
X133823920Y-78113371D01*
X133823907Y-78113364D01*
X133641839Y-78037950D01*
X133641829Y-78037947D01*
X133448543Y-77999500D01*
X133448541Y-77999500D01*
X132551459Y-77999500D01*
X132551457Y-77999500D01*
X132358170Y-78037947D01*
X132358160Y-78037950D01*
X132176092Y-78113364D01*
X132176079Y-78113371D01*
X132012218Y-78222860D01*
X132012214Y-78222863D01*
X131872863Y-78362214D01*
X131872860Y-78362218D01*
X131763371Y-78526079D01*
X131763364Y-78526092D01*
X131687950Y-78708160D01*
X131687947Y-78708170D01*
X131649500Y-78901456D01*
X131649500Y-79075500D01*
X131629815Y-79142539D01*
X131577011Y-79188294D01*
X131525500Y-79199500D01*
X131421155Y-79199500D01*
X131266510Y-79230261D01*
X131266498Y-79230264D01*
X131120827Y-79290602D01*
X131120814Y-79290609D01*
X130989711Y-79378210D01*
X130989707Y-79378213D01*
X130878213Y-79489707D01*
X130878210Y-79489711D01*
X130790609Y-79620814D01*
X130790602Y-79620827D01*
X130730264Y-79766498D01*
X130730261Y-79766510D01*
X130699500Y-79921153D01*
X130300500Y-79921153D01*
X130300500Y-77671153D01*
X177699500Y-77671153D01*
X177699500Y-77828846D01*
X177730261Y-77983489D01*
X177730264Y-77983501D01*
X177790602Y-78129172D01*
X177790609Y-78129185D01*
X177878210Y-78260288D01*
X177878213Y-78260292D01*
X177989707Y-78371786D01*
X177989711Y-78371789D01*
X178120814Y-78459390D01*
X178120827Y-78459397D01*
X178266498Y-78519735D01*
X178266503Y-78519737D01*
X178421153Y-78550499D01*
X178421156Y-78550500D01*
X178421158Y-78550500D01*
X178578844Y-78550500D01*
X178578845Y-78550499D01*
X178733497Y-78519737D01*
X178879179Y-78459394D01*
X179010289Y-78371789D01*
X179121789Y-78260289D01*
X179209394Y-78129179D01*
X179269737Y-77983497D01*
X179300500Y-77828842D01*
X179300500Y-77671158D01*
X179300500Y-77671155D01*
X179300499Y-77671153D01*
X179280326Y-77569736D01*
X179269737Y-77516503D01*
X179266791Y-77509390D01*
X179209397Y-77370827D01*
X179209390Y-77370814D01*
X179121789Y-77239711D01*
X179121786Y-77239707D01*
X179010292Y-77128213D01*
X179010288Y-77128210D01*
X178879185Y-77040609D01*
X178879172Y-77040602D01*
X178733501Y-76980264D01*
X178733489Y-76980261D01*
X178578845Y-76949500D01*
X178578842Y-76949500D01*
X178421158Y-76949500D01*
X178421155Y-76949500D01*
X178266510Y-76980261D01*
X178266498Y-76980264D01*
X178120827Y-77040602D01*
X178120814Y-77040609D01*
X177989711Y-77128210D01*
X177989707Y-77128213D01*
X177878213Y-77239707D01*
X177878210Y-77239711D01*
X177790609Y-77370814D01*
X177790602Y-77370827D01*
X177730264Y-77516498D01*
X177730261Y-77516510D01*
X177699500Y-77671153D01*
X130300500Y-77671153D01*
X130300500Y-75921153D01*
X167299500Y-75921153D01*
X167299500Y-76078846D01*
X167330261Y-76233489D01*
X167330264Y-76233501D01*
X167379574Y-76352548D01*
X167387043Y-76422018D01*
X167379574Y-76447452D01*
X167330264Y-76566498D01*
X167330261Y-76566510D01*
X167299500Y-76721153D01*
X167299500Y-76878846D01*
X167330261Y-77033489D01*
X167330264Y-77033501D01*
X167390602Y-77179172D01*
X167390609Y-77179185D01*
X167478210Y-77310288D01*
X167478213Y-77310292D01*
X167589707Y-77421786D01*
X167589711Y-77421789D01*
X167720814Y-77509390D01*
X167720827Y-77509397D01*
X167820070Y-77550504D01*
X167866503Y-77569737D01*
X168021153Y-77600499D01*
X168021156Y-77600500D01*
X168021158Y-77600500D01*
X168178844Y-77600500D01*
X168178845Y-77600499D01*
X168333497Y-77569737D01*
X168479179Y-77509394D01*
X168610289Y-77421789D01*
X168721789Y-77310289D01*
X168809394Y-77179179D01*
X168869737Y-77033497D01*
X168900500Y-76878842D01*
X168900500Y-76721158D01*
X168900500Y-76721155D01*
X168900499Y-76721153D01*
X168869738Y-76566510D01*
X168869737Y-76566503D01*
X168820425Y-76447452D01*
X168812956Y-76377983D01*
X168820425Y-76352548D01*
X168869735Y-76233501D01*
X168869737Y-76233497D01*
X168900500Y-76078842D01*
X168900500Y-75921158D01*
X168900500Y-75921155D01*
X168900499Y-75921153D01*
X175299500Y-75921153D01*
X175299500Y-76078846D01*
X175330261Y-76233489D01*
X175330264Y-76233501D01*
X175379574Y-76352548D01*
X175387043Y-76422018D01*
X175379574Y-76447452D01*
X175330264Y-76566498D01*
X175330261Y-76566510D01*
X175299500Y-76721153D01*
X175299500Y-76878846D01*
X175330261Y-77033489D01*
X175330264Y-77033501D01*
X175390602Y-77179172D01*
X175390609Y-77179185D01*
X175478210Y-77310288D01*
X175478213Y-77310292D01*
X175589707Y-77421786D01*
X175589711Y-77421789D01*
X175720814Y-77509390D01*
X175720827Y-77509397D01*
X175820070Y-77550504D01*
X175866503Y-77569737D01*
X176021153Y-77600499D01*
X176021156Y-77600500D01*
X176021158Y-77600500D01*
X176178844Y-77600500D01*
X176178845Y-77600499D01*
X176333497Y-77569737D01*
X176479179Y-77509394D01*
X176610289Y-77421789D01*
X176721789Y-77310289D01*
X176809394Y-77179179D01*
X176869737Y-77033497D01*
X176900500Y-76878842D01*
X176900500Y-76721158D01*
X176900500Y-76721155D01*
X176900499Y-76721153D01*
X176869738Y-76566510D01*
X176869737Y-76566503D01*
X176820425Y-76447452D01*
X176812956Y-76377983D01*
X176820425Y-76352548D01*
X176869735Y-76233501D01*
X176869737Y-76233497D01*
X176900500Y-76078842D01*
X176900500Y-75921158D01*
X176900500Y-75921155D01*
X176900499Y-75921153D01*
X176869738Y-75766510D01*
X176869737Y-75766503D01*
X176809794Y-75621786D01*
X176809397Y-75620827D01*
X176809390Y-75620814D01*
X176721789Y-75489711D01*
X176721786Y-75489707D01*
X176610292Y-75378213D01*
X176610288Y-75378210D01*
X176479185Y-75290609D01*
X176479172Y-75290602D01*
X176333501Y-75230264D01*
X176333489Y-75230261D01*
X176178845Y-75199500D01*
X176178842Y-75199500D01*
X176021158Y-75199500D01*
X176021155Y-75199500D01*
X175866510Y-75230261D01*
X175866498Y-75230264D01*
X175720827Y-75290602D01*
X175720814Y-75290609D01*
X175589711Y-75378210D01*
X175589707Y-75378213D01*
X175478213Y-75489707D01*
X175478210Y-75489711D01*
X175390609Y-75620814D01*
X175390602Y-75620827D01*
X175330264Y-75766498D01*
X175330261Y-75766510D01*
X175299500Y-75921153D01*
X168900499Y-75921153D01*
X168869738Y-75766510D01*
X168869737Y-75766503D01*
X168809794Y-75621786D01*
X168809397Y-75620827D01*
X168809390Y-75620814D01*
X168721789Y-75489711D01*
X168721786Y-75489707D01*
X168610292Y-75378213D01*
X168610288Y-75378210D01*
X168479185Y-75290609D01*
X168479172Y-75290602D01*
X168333501Y-75230264D01*
X168333489Y-75230261D01*
X168178845Y-75199500D01*
X168178842Y-75199500D01*
X168021158Y-75199500D01*
X168021155Y-75199500D01*
X167866510Y-75230261D01*
X167866498Y-75230264D01*
X167720827Y-75290602D01*
X167720814Y-75290609D01*
X167589711Y-75378210D01*
X167589707Y-75378213D01*
X167478213Y-75489707D01*
X167478210Y-75489711D01*
X167390609Y-75620814D01*
X167390602Y-75620827D01*
X167330264Y-75766498D01*
X167330261Y-75766510D01*
X167299500Y-75921153D01*
X130300500Y-75921153D01*
X130300500Y-74921153D01*
X130699500Y-74921153D01*
X130699500Y-75078846D01*
X130730261Y-75233489D01*
X130730264Y-75233501D01*
X130790602Y-75379172D01*
X130790609Y-75379185D01*
X130878210Y-75510288D01*
X130878213Y-75510292D01*
X130989707Y-75621786D01*
X130989711Y-75621789D01*
X131120814Y-75709390D01*
X131120827Y-75709397D01*
X131258683Y-75766498D01*
X131266503Y-75769737D01*
X131421153Y-75800499D01*
X131421156Y-75800500D01*
X131421158Y-75800500D01*
X131578844Y-75800500D01*
X131578845Y-75800499D01*
X131589179Y-75798443D01*
X131614287Y-75793450D01*
X131614292Y-75793449D01*
X131699800Y-75776439D01*
X131733497Y-75769737D01*
X131879179Y-75709394D01*
X132010289Y-75621789D01*
X132121789Y-75510289D01*
X132209394Y-75379179D01*
X132269737Y-75233497D01*
X132300500Y-75078842D01*
X132300500Y-74921158D01*
X132300500Y-74921155D01*
X132300499Y-74921153D01*
X132269738Y-74766510D01*
X132269737Y-74766503D01*
X132269735Y-74766498D01*
X132209397Y-74620827D01*
X132209390Y-74620814D01*
X132121789Y-74489711D01*
X132121786Y-74489707D01*
X132010292Y-74378213D01*
X132010288Y-74378210D01*
X131879185Y-74290609D01*
X131879172Y-74290602D01*
X131733501Y-74230264D01*
X131733489Y-74230261D01*
X131578845Y-74199500D01*
X131578842Y-74199500D01*
X131421158Y-74199500D01*
X131421155Y-74199500D01*
X131266510Y-74230261D01*
X131266498Y-74230264D01*
X131120827Y-74290602D01*
X131120814Y-74290609D01*
X130989711Y-74378210D01*
X130989707Y-74378213D01*
X130878213Y-74489707D01*
X130878210Y-74489711D01*
X130790609Y-74620814D01*
X130790602Y-74620827D01*
X130730264Y-74766498D01*
X130730261Y-74766510D01*
X130699500Y-74921153D01*
X130300500Y-74921153D01*
X130300500Y-71452135D01*
X135449500Y-71452135D01*
X135449500Y-73047870D01*
X135449501Y-73047876D01*
X135455908Y-73107483D01*
X135506202Y-73242328D01*
X135506206Y-73242335D01*
X135592452Y-73357544D01*
X135592453Y-73357544D01*
X135592454Y-73357546D01*
X135620045Y-73378200D01*
X135638422Y-73391958D01*
X135680292Y-73447892D01*
X135685276Y-73517584D01*
X135664428Y-73564109D01*
X135623242Y-73620796D01*
X135537454Y-73789163D01*
X135479059Y-73968881D01*
X135449500Y-74155513D01*
X135449500Y-74344486D01*
X135479059Y-74531118D01*
X135537454Y-74710836D01*
X135565822Y-74766510D01*
X135623240Y-74879199D01*
X135734310Y-75032073D01*
X135867927Y-75165690D01*
X136020801Y-75276760D01*
X136100347Y-75317290D01*
X136189163Y-75362545D01*
X136189165Y-75362545D01*
X136189168Y-75362547D01*
X136285497Y-75393846D01*
X136368881Y-75420940D01*
X136555514Y-75450500D01*
X136555519Y-75450500D01*
X136744486Y-75450500D01*
X136931118Y-75420940D01*
X137110832Y-75362547D01*
X137279199Y-75276760D01*
X137432073Y-75165690D01*
X137565690Y-75032073D01*
X137676760Y-74879199D01*
X137762547Y-74710832D01*
X137820940Y-74531118D01*
X137827499Y-74489707D01*
X137850500Y-74344486D01*
X137850500Y-74271153D01*
X164499500Y-74271153D01*
X164499500Y-74428846D01*
X164530261Y-74583489D01*
X164530264Y-74583501D01*
X164590602Y-74729172D01*
X164590609Y-74729185D01*
X164678210Y-74860288D01*
X164678213Y-74860292D01*
X164789707Y-74971786D01*
X164789711Y-74971789D01*
X164920814Y-75059390D01*
X164920827Y-75059397D01*
X165066498Y-75119735D01*
X165066503Y-75119737D01*
X165221153Y-75150499D01*
X165221156Y-75150500D01*
X165221158Y-75150500D01*
X165378844Y-75150500D01*
X165378845Y-75150499D01*
X165533497Y-75119737D01*
X165679179Y-75059394D01*
X165810289Y-74971789D01*
X165921789Y-74860289D01*
X166009394Y-74729179D01*
X166069737Y-74583497D01*
X166100500Y-74428842D01*
X166100500Y-74271158D01*
X166100500Y-74271155D01*
X166100499Y-74271153D01*
X177199500Y-74271153D01*
X177199500Y-74428846D01*
X177230261Y-74583489D01*
X177230264Y-74583501D01*
X177290602Y-74729172D01*
X177290609Y-74729185D01*
X177378210Y-74860288D01*
X177378213Y-74860292D01*
X177489707Y-74971786D01*
X177489711Y-74971789D01*
X177620814Y-75059390D01*
X177620827Y-75059397D01*
X177766498Y-75119735D01*
X177766503Y-75119737D01*
X177921153Y-75150499D01*
X177921156Y-75150500D01*
X177921158Y-75150500D01*
X178078844Y-75150500D01*
X178078845Y-75150499D01*
X178233497Y-75119737D01*
X178379179Y-75059394D01*
X178510289Y-74971789D01*
X178621789Y-74860289D01*
X178709394Y-74729179D01*
X178769737Y-74583497D01*
X178800500Y-74428842D01*
X178800500Y-74271158D01*
X178800500Y-74271155D01*
X178800499Y-74271153D01*
X178777498Y-74155519D01*
X178769737Y-74116503D01*
X178769735Y-74116498D01*
X178709397Y-73970827D01*
X178709390Y-73970814D01*
X178621789Y-73839711D01*
X178621786Y-73839707D01*
X178510292Y-73728213D01*
X178510288Y-73728210D01*
X178379185Y-73640609D01*
X178379172Y-73640602D01*
X178233501Y-73580264D01*
X178233489Y-73580261D01*
X178078845Y-73549500D01*
X178078842Y-73549500D01*
X177921158Y-73549500D01*
X177921155Y-73549500D01*
X177766510Y-73580261D01*
X177766498Y-73580264D01*
X177620827Y-73640602D01*
X177620814Y-73640609D01*
X177489711Y-73728210D01*
X177489707Y-73728213D01*
X177378213Y-73839707D01*
X177378210Y-73839711D01*
X177290609Y-73970814D01*
X177290602Y-73970827D01*
X177230264Y-74116498D01*
X177230261Y-74116510D01*
X177199500Y-74271153D01*
X166100499Y-74271153D01*
X166077498Y-74155519D01*
X166069737Y-74116503D01*
X166069735Y-74116498D01*
X166009397Y-73970827D01*
X166009390Y-73970814D01*
X165921789Y-73839711D01*
X165921786Y-73839707D01*
X165810292Y-73728213D01*
X165810288Y-73728210D01*
X165679185Y-73640609D01*
X165679172Y-73640602D01*
X165533501Y-73580264D01*
X165533489Y-73580261D01*
X165378845Y-73549500D01*
X165378842Y-73549500D01*
X165221158Y-73549500D01*
X165221155Y-73549500D01*
X165066510Y-73580261D01*
X165066498Y-73580264D01*
X164920827Y-73640602D01*
X164920814Y-73640609D01*
X164789711Y-73728210D01*
X164789707Y-73728213D01*
X164678213Y-73839707D01*
X164678210Y-73839711D01*
X164590609Y-73970814D01*
X164590602Y-73970827D01*
X164530264Y-74116498D01*
X164530261Y-74116510D01*
X164499500Y-74271153D01*
X137850500Y-74271153D01*
X137850500Y-74155513D01*
X137820940Y-73968881D01*
X137782475Y-73850500D01*
X137762547Y-73789168D01*
X137762545Y-73789165D01*
X137762545Y-73789163D01*
X137717290Y-73700347D01*
X137676760Y-73620801D01*
X137635570Y-73564108D01*
X137612091Y-73498304D01*
X137627916Y-73430250D01*
X137661576Y-73391958D01*
X137707546Y-73357546D01*
X137793796Y-73242331D01*
X137844091Y-73107483D01*
X137850500Y-73047873D01*
X137850499Y-71452128D01*
X137850114Y-71448543D01*
X169099499Y-71448543D01*
X169137947Y-71641829D01*
X169137950Y-71641839D01*
X169213364Y-71823907D01*
X169213371Y-71823920D01*
X169322860Y-71987781D01*
X169322863Y-71987785D01*
X169347397Y-72012319D01*
X169380882Y-72073642D01*
X169375898Y-72143334D01*
X169347397Y-72187681D01*
X169322863Y-72212214D01*
X169322860Y-72212218D01*
X169213371Y-72376079D01*
X169213364Y-72376092D01*
X169137950Y-72558160D01*
X169137947Y-72558170D01*
X169099500Y-72751456D01*
X169099500Y-72751459D01*
X169099500Y-72948541D01*
X169099500Y-72948543D01*
X169099499Y-72948543D01*
X169137947Y-73141829D01*
X169137950Y-73141839D01*
X169213364Y-73323907D01*
X169213371Y-73323920D01*
X169322860Y-73487781D01*
X169322863Y-73487785D01*
X169462214Y-73627136D01*
X169462218Y-73627139D01*
X169626079Y-73736628D01*
X169626092Y-73736635D01*
X169752908Y-73789163D01*
X169808165Y-73812051D01*
X169808169Y-73812051D01*
X169808170Y-73812052D01*
X170001456Y-73850500D01*
X170001459Y-73850500D01*
X170198543Y-73850500D01*
X170328582Y-73824632D01*
X170391835Y-73812051D01*
X170573914Y-73736632D01*
X170737782Y-73627139D01*
X170877139Y-73487782D01*
X170986632Y-73323914D01*
X171062051Y-73141835D01*
X171074632Y-73078582D01*
X171100500Y-72948543D01*
X172199499Y-72948543D01*
X172237947Y-73141829D01*
X172237950Y-73141839D01*
X172313364Y-73323907D01*
X172313371Y-73323920D01*
X172422860Y-73487781D01*
X172422863Y-73487785D01*
X172562214Y-73627136D01*
X172562218Y-73627139D01*
X172726079Y-73736628D01*
X172726092Y-73736635D01*
X172852908Y-73789163D01*
X172908165Y-73812051D01*
X172908169Y-73812051D01*
X172908170Y-73812052D01*
X173101456Y-73850500D01*
X173101459Y-73850500D01*
X173298543Y-73850500D01*
X173428582Y-73824632D01*
X173491835Y-73812051D01*
X173673914Y-73736632D01*
X173837782Y-73627139D01*
X173977139Y-73487782D01*
X174086632Y-73323914D01*
X174162051Y-73141835D01*
X174174632Y-73078582D01*
X174200500Y-72948543D01*
X174200500Y-72751456D01*
X174162052Y-72558170D01*
X174162051Y-72558169D01*
X174162051Y-72558165D01*
X174162049Y-72558160D01*
X174086635Y-72376092D01*
X174086628Y-72376079D01*
X173977139Y-72212218D01*
X173977136Y-72212214D01*
X173837785Y-72072863D01*
X173837781Y-72072860D01*
X173673920Y-71963371D01*
X173673907Y-71963364D01*
X173491839Y-71887950D01*
X173491829Y-71887947D01*
X173298543Y-71849500D01*
X173298541Y-71849500D01*
X173101459Y-71849500D01*
X173101457Y-71849500D01*
X172908170Y-71887947D01*
X172908160Y-71887950D01*
X172726092Y-71963364D01*
X172726079Y-71963371D01*
X172562218Y-72072860D01*
X172562214Y-72072863D01*
X172422863Y-72212214D01*
X172422860Y-72212218D01*
X172313371Y-72376079D01*
X172313364Y-72376092D01*
X172237950Y-72558160D01*
X172237947Y-72558170D01*
X172199500Y-72751456D01*
X172199500Y-72751459D01*
X172199500Y-72948541D01*
X172199500Y-72948543D01*
X172199499Y-72948543D01*
X171100500Y-72948543D01*
X171100500Y-72751456D01*
X171062052Y-72558170D01*
X171062051Y-72558169D01*
X171062051Y-72558165D01*
X171062049Y-72558160D01*
X170986635Y-72376092D01*
X170986628Y-72376079D01*
X170877140Y-72212219D01*
X170877135Y-72212214D01*
X170852601Y-72187680D01*
X170819117Y-72126360D01*
X170824100Y-72056668D01*
X170852601Y-72012319D01*
X170877139Y-71987782D01*
X170986632Y-71823914D01*
X171062051Y-71641835D01*
X171099785Y-71452135D01*
X171100500Y-71448543D01*
X177199499Y-71448543D01*
X177237947Y-71641829D01*
X177237950Y-71641839D01*
X177313364Y-71823907D01*
X177313371Y-71823920D01*
X177422860Y-71987781D01*
X177422863Y-71987785D01*
X177562214Y-72127136D01*
X177562218Y-72127139D01*
X177726079Y-72236628D01*
X177726092Y-72236635D01*
X177908160Y-72312049D01*
X177908165Y-72312051D01*
X177908169Y-72312051D01*
X177908170Y-72312052D01*
X178101456Y-72350500D01*
X178101459Y-72350500D01*
X178298543Y-72350500D01*
X178428582Y-72324632D01*
X178491835Y-72312051D01*
X178673914Y-72236632D01*
X178837782Y-72127139D01*
X178977139Y-71987782D01*
X179086632Y-71823914D01*
X179162051Y-71641835D01*
X179199785Y-71452135D01*
X179200500Y-71448543D01*
X179200500Y-71251456D01*
X179162052Y-71058170D01*
X179162051Y-71058169D01*
X179162051Y-71058165D01*
X179137752Y-70999501D01*
X179086635Y-70876092D01*
X179086628Y-70876079D01*
X178977139Y-70712218D01*
X178977136Y-70712214D01*
X178837785Y-70572863D01*
X178837781Y-70572860D01*
X178673920Y-70463371D01*
X178673907Y-70463364D01*
X178491839Y-70387950D01*
X178491829Y-70387947D01*
X178298543Y-70349500D01*
X178298541Y-70349500D01*
X178101459Y-70349500D01*
X178101457Y-70349500D01*
X177908170Y-70387947D01*
X177908160Y-70387950D01*
X177726092Y-70463364D01*
X177726079Y-70463371D01*
X177562218Y-70572860D01*
X177562214Y-70572863D01*
X177422863Y-70712214D01*
X177422860Y-70712218D01*
X177313371Y-70876079D01*
X177313364Y-70876092D01*
X177237950Y-71058160D01*
X177237947Y-71058170D01*
X177199500Y-71251456D01*
X177199500Y-71251459D01*
X177199500Y-71448541D01*
X177199500Y-71448543D01*
X177199499Y-71448543D01*
X171100500Y-71448543D01*
X171100500Y-71251456D01*
X171062052Y-71058170D01*
X171062051Y-71058169D01*
X171062051Y-71058165D01*
X171037752Y-70999501D01*
X170986635Y-70876092D01*
X170986628Y-70876079D01*
X170877139Y-70712218D01*
X170877136Y-70712214D01*
X170737785Y-70572863D01*
X170737781Y-70572860D01*
X170573920Y-70463371D01*
X170573907Y-70463364D01*
X170391839Y-70387950D01*
X170391829Y-70387947D01*
X170198543Y-70349500D01*
X170198541Y-70349500D01*
X170001459Y-70349500D01*
X170001457Y-70349500D01*
X169808170Y-70387947D01*
X169808160Y-70387950D01*
X169626092Y-70463364D01*
X169626079Y-70463371D01*
X169462218Y-70572860D01*
X169462214Y-70572863D01*
X169322863Y-70712214D01*
X169322860Y-70712218D01*
X169213371Y-70876079D01*
X169213364Y-70876092D01*
X169137950Y-71058160D01*
X169137947Y-71058170D01*
X169099500Y-71251456D01*
X169099500Y-71251459D01*
X169099500Y-71448541D01*
X169099500Y-71448543D01*
X169099499Y-71448543D01*
X137850114Y-71448543D01*
X137844091Y-71392517D01*
X137804206Y-71285581D01*
X137793798Y-71257673D01*
X137793793Y-71257664D01*
X137707547Y-71142455D01*
X137707544Y-71142452D01*
X137592335Y-71056206D01*
X137592328Y-71056202D01*
X137457482Y-71005908D01*
X137457483Y-71005908D01*
X137397883Y-70999501D01*
X137397881Y-70999500D01*
X137397873Y-70999500D01*
X137397864Y-70999500D01*
X135902129Y-70999500D01*
X135902123Y-70999501D01*
X135842516Y-71005908D01*
X135707671Y-71056202D01*
X135707664Y-71056206D01*
X135592455Y-71142452D01*
X135592452Y-71142455D01*
X135506206Y-71257664D01*
X135506202Y-71257671D01*
X135455908Y-71392517D01*
X135449885Y-71448543D01*
X135449501Y-71452123D01*
X135449500Y-71452135D01*
X130300500Y-71452135D01*
X130300500Y-69921153D01*
X130699500Y-69921153D01*
X130699500Y-70078846D01*
X130730261Y-70233489D01*
X130730264Y-70233501D01*
X130790602Y-70379172D01*
X130790609Y-70379185D01*
X130878210Y-70510288D01*
X130878213Y-70510292D01*
X130989707Y-70621786D01*
X130989711Y-70621789D01*
X131120814Y-70709390D01*
X131120827Y-70709397D01*
X131266498Y-70769735D01*
X131266503Y-70769737D01*
X131421153Y-70800499D01*
X131421156Y-70800500D01*
X131421158Y-70800500D01*
X131578844Y-70800500D01*
X131578845Y-70800499D01*
X131733497Y-70769737D01*
X131879179Y-70709394D01*
X132010289Y-70621789D01*
X132121789Y-70510289D01*
X132209394Y-70379179D01*
X132269737Y-70233497D01*
X132300500Y-70078842D01*
X132300500Y-69921158D01*
X132300500Y-69921155D01*
X132300499Y-69921153D01*
X132272192Y-69778846D01*
X132269737Y-69766503D01*
X132209534Y-69621158D01*
X132209397Y-69620827D01*
X132209390Y-69620814D01*
X132121789Y-69489711D01*
X132121786Y-69489707D01*
X132010292Y-69378213D01*
X132010288Y-69378210D01*
X131879185Y-69290609D01*
X131879172Y-69290602D01*
X131733501Y-69230264D01*
X131733489Y-69230261D01*
X131578845Y-69199500D01*
X131578842Y-69199500D01*
X131421158Y-69199500D01*
X131421155Y-69199500D01*
X131266510Y-69230261D01*
X131266498Y-69230264D01*
X131120827Y-69290602D01*
X131120814Y-69290609D01*
X130989711Y-69378210D01*
X130989707Y-69378213D01*
X130878213Y-69489707D01*
X130878210Y-69489711D01*
X130790609Y-69620814D01*
X130790602Y-69620827D01*
X130730264Y-69766498D01*
X130730261Y-69766510D01*
X130699500Y-69921153D01*
X130300500Y-69921153D01*
X130300500Y-68821153D01*
X167299500Y-68821153D01*
X167299500Y-68978846D01*
X167330261Y-69133489D01*
X167330264Y-69133501D01*
X167379574Y-69252548D01*
X167387043Y-69322018D01*
X167379574Y-69347452D01*
X167330264Y-69466498D01*
X167330261Y-69466510D01*
X167299500Y-69621153D01*
X167299500Y-69778846D01*
X167330261Y-69933489D01*
X167330264Y-69933501D01*
X167390602Y-70079172D01*
X167390609Y-70079185D01*
X167478210Y-70210288D01*
X167478213Y-70210292D01*
X167589707Y-70321786D01*
X167589711Y-70321789D01*
X167720814Y-70409390D01*
X167720827Y-70409397D01*
X167851134Y-70463371D01*
X167866503Y-70469737D01*
X168021153Y-70500499D01*
X168021156Y-70500500D01*
X168021158Y-70500500D01*
X168178844Y-70500500D01*
X168178845Y-70500499D01*
X168333497Y-70469737D01*
X168479179Y-70409394D01*
X168610289Y-70321789D01*
X168721789Y-70210289D01*
X168809394Y-70079179D01*
X168869737Y-69933497D01*
X168900500Y-69778842D01*
X168900500Y-69621158D01*
X168900500Y-69621155D01*
X168900499Y-69621153D01*
X168874353Y-69489711D01*
X168869737Y-69466503D01*
X168869735Y-69466498D01*
X168820425Y-69347452D01*
X168812956Y-69277983D01*
X168820425Y-69252548D01*
X168869735Y-69133501D01*
X168869737Y-69133497D01*
X168900500Y-68978842D01*
X168900500Y-68821158D01*
X168900500Y-68821155D01*
X168900499Y-68821153D01*
X168880734Y-68721789D01*
X168869737Y-68666503D01*
X168830888Y-68572712D01*
X168809397Y-68520827D01*
X168809390Y-68520814D01*
X168721789Y-68389711D01*
X168721786Y-68389707D01*
X168610292Y-68278213D01*
X168610288Y-68278210D01*
X168479185Y-68190609D01*
X168479172Y-68190602D01*
X168333501Y-68130264D01*
X168333489Y-68130261D01*
X168178845Y-68099500D01*
X168178842Y-68099500D01*
X168021158Y-68099500D01*
X168021155Y-68099500D01*
X167866510Y-68130261D01*
X167866498Y-68130264D01*
X167720827Y-68190602D01*
X167720814Y-68190609D01*
X167589711Y-68278210D01*
X167589707Y-68278213D01*
X167478213Y-68389707D01*
X167478210Y-68389711D01*
X167390609Y-68520814D01*
X167390602Y-68520827D01*
X167330264Y-68666498D01*
X167330261Y-68666510D01*
X167299500Y-68821153D01*
X130300500Y-68821153D01*
X130300500Y-68021153D01*
X176199500Y-68021153D01*
X176199500Y-68178846D01*
X176230261Y-68333489D01*
X176230264Y-68333501D01*
X176290602Y-68479172D01*
X176290609Y-68479185D01*
X176378210Y-68610288D01*
X176378213Y-68610292D01*
X176489707Y-68721786D01*
X176489711Y-68721789D01*
X176620814Y-68809390D01*
X176620827Y-68809397D01*
X176766498Y-68869735D01*
X176766503Y-68869737D01*
X176921153Y-68900499D01*
X176921156Y-68900500D01*
X176921158Y-68900500D01*
X177078844Y-68900500D01*
X177078845Y-68900499D01*
X177233497Y-68869737D01*
X177379179Y-68809394D01*
X177510289Y-68721789D01*
X177621789Y-68610289D01*
X177629145Y-68599279D01*
X177646898Y-68572712D01*
X177700510Y-68527906D01*
X177769835Y-68519199D01*
X177832862Y-68549353D01*
X177853102Y-68572712D01*
X177878207Y-68610284D01*
X177878213Y-68610292D01*
X177989707Y-68721786D01*
X177989711Y-68721789D01*
X178120814Y-68809390D01*
X178120827Y-68809397D01*
X178266498Y-68869735D01*
X178266503Y-68869737D01*
X178421153Y-68900499D01*
X178421156Y-68900500D01*
X178421158Y-68900500D01*
X178578844Y-68900500D01*
X178578845Y-68900499D01*
X178733497Y-68869737D01*
X178879179Y-68809394D01*
X179010289Y-68721789D01*
X179121789Y-68610289D01*
X179209394Y-68479179D01*
X179269737Y-68333497D01*
X179300500Y-68178842D01*
X179300500Y-68021158D01*
X179300500Y-68021155D01*
X179300499Y-68021153D01*
X179269738Y-67866510D01*
X179269737Y-67866503D01*
X179250000Y-67818853D01*
X179209397Y-67720827D01*
X179209390Y-67720814D01*
X179121789Y-67589711D01*
X179121786Y-67589707D01*
X179010292Y-67478213D01*
X179010288Y-67478210D01*
X178879185Y-67390609D01*
X178879172Y-67390602D01*
X178733501Y-67330264D01*
X178733489Y-67330261D01*
X178578845Y-67299500D01*
X178578842Y-67299500D01*
X178421158Y-67299500D01*
X178421155Y-67299500D01*
X178266510Y-67330261D01*
X178266498Y-67330264D01*
X178120827Y-67390602D01*
X178120814Y-67390609D01*
X177989711Y-67478210D01*
X177989707Y-67478213D01*
X177878213Y-67589707D01*
X177853102Y-67627289D01*
X177799489Y-67672093D01*
X177730164Y-67680800D01*
X177667137Y-67650645D01*
X177646898Y-67627289D01*
X177621786Y-67589707D01*
X177510292Y-67478213D01*
X177510288Y-67478210D01*
X177379185Y-67390609D01*
X177379172Y-67390602D01*
X177233501Y-67330264D01*
X177233489Y-67330261D01*
X177078845Y-67299500D01*
X177078842Y-67299500D01*
X176921158Y-67299500D01*
X176921155Y-67299500D01*
X176766510Y-67330261D01*
X176766498Y-67330264D01*
X176620827Y-67390602D01*
X176620814Y-67390609D01*
X176489711Y-67478210D01*
X176489707Y-67478213D01*
X176378213Y-67589707D01*
X176378210Y-67589711D01*
X176290609Y-67720814D01*
X176290602Y-67720827D01*
X176230264Y-67866498D01*
X176230261Y-67866510D01*
X176199500Y-68021153D01*
X130300500Y-68021153D01*
X130300500Y-66573543D01*
X144899499Y-66573543D01*
X144937947Y-66766829D01*
X144937950Y-66766839D01*
X145013364Y-66948907D01*
X145013371Y-66948920D01*
X145122860Y-67112781D01*
X145122863Y-67112785D01*
X145262214Y-67252136D01*
X145262218Y-67252139D01*
X145426079Y-67361628D01*
X145426092Y-67361635D01*
X145608160Y-67437049D01*
X145608165Y-67437051D01*
X145608169Y-67437051D01*
X145608170Y-67437052D01*
X145801456Y-67475500D01*
X145801459Y-67475500D01*
X145998543Y-67475500D01*
X146128582Y-67449632D01*
X146191835Y-67437051D01*
X146373914Y-67361632D01*
X146537782Y-67252139D01*
X146677139Y-67112782D01*
X146786632Y-66948914D01*
X146862051Y-66766835D01*
X146900500Y-66573541D01*
X146900500Y-66376459D01*
X146900500Y-66376456D01*
X146862052Y-66183170D01*
X146862051Y-66183169D01*
X146862051Y-66183165D01*
X146862049Y-66183160D01*
X146786635Y-66001092D01*
X146786628Y-66001079D01*
X146677139Y-65837218D01*
X146677136Y-65837214D01*
X146537785Y-65697863D01*
X146537781Y-65697860D01*
X146373920Y-65588371D01*
X146373907Y-65588364D01*
X146191839Y-65512950D01*
X146191829Y-65512947D01*
X145998543Y-65474500D01*
X145998541Y-65474500D01*
X145801459Y-65474500D01*
X145801457Y-65474500D01*
X145608170Y-65512947D01*
X145608160Y-65512950D01*
X145426092Y-65588364D01*
X145426079Y-65588371D01*
X145262218Y-65697860D01*
X145262214Y-65697863D01*
X145122863Y-65837214D01*
X145122860Y-65837218D01*
X145013371Y-66001079D01*
X145013364Y-66001092D01*
X144937950Y-66183160D01*
X144937947Y-66183170D01*
X144899500Y-66376456D01*
X144899500Y-66376459D01*
X144899500Y-66573541D01*
X144899500Y-66573543D01*
X144899499Y-66573543D01*
X130300500Y-66573543D01*
X130300500Y-63245476D01*
X130320185Y-63178437D01*
X130372989Y-63132682D01*
X130442147Y-63122738D01*
X130505703Y-63151763D01*
X130543477Y-63210541D01*
X130544259Y-63213327D01*
X130552083Y-63242525D01*
X130614361Y-63474951D01*
X130614364Y-63474961D01*
X130727254Y-63747500D01*
X130727258Y-63747510D01*
X130874761Y-64002993D01*
X131040287Y-64218711D01*
X131065481Y-64283880D01*
X131051443Y-64352325D01*
X131010802Y-64397299D01*
X130889711Y-64478210D01*
X130889707Y-64478213D01*
X130778213Y-64589707D01*
X130778210Y-64589711D01*
X130690609Y-64720814D01*
X130690602Y-64720827D01*
X130630264Y-64866498D01*
X130630261Y-64866510D01*
X130599500Y-65021153D01*
X130599500Y-65178846D01*
X130630261Y-65333489D01*
X130630264Y-65333501D01*
X130690602Y-65479172D01*
X130690609Y-65479185D01*
X130778210Y-65610288D01*
X130778213Y-65610292D01*
X130889707Y-65721786D01*
X130889711Y-65721789D01*
X131020814Y-65809390D01*
X131020827Y-65809397D01*
X131166498Y-65869735D01*
X131166503Y-65869737D01*
X131321153Y-65900499D01*
X131321156Y-65900500D01*
X131321158Y-65900500D01*
X131478844Y-65900500D01*
X131478845Y-65900499D01*
X131633497Y-65869737D01*
X131779179Y-65809394D01*
X131881111Y-65741284D01*
X131947786Y-65720408D01*
X132015166Y-65738892D01*
X132018847Y-65741257D01*
X132120821Y-65809394D01*
X132120823Y-65809395D01*
X132120827Y-65809397D01*
X132266498Y-65869735D01*
X132266503Y-65869737D01*
X132421153Y-65900499D01*
X132421156Y-65900500D01*
X132421158Y-65900500D01*
X132578844Y-65900500D01*
X132578845Y-65900499D01*
X132733497Y-65869737D01*
X132879179Y-65809394D01*
X133010289Y-65721789D01*
X133012312Y-65719766D01*
X133013634Y-65719043D01*
X133014999Y-65717924D01*
X133015211Y-65718182D01*
X133073632Y-65686276D01*
X133143324Y-65691255D01*
X133184939Y-65717999D01*
X133185001Y-65717924D01*
X133185648Y-65718454D01*
X133187688Y-65719766D01*
X133189711Y-65721789D01*
X133320814Y-65809390D01*
X133320827Y-65809397D01*
X133466498Y-65869735D01*
X133466503Y-65869737D01*
X133621153Y-65900499D01*
X133621156Y-65900500D01*
X133621158Y-65900500D01*
X133778844Y-65900500D01*
X133778845Y-65900499D01*
X133933497Y-65869737D01*
X134079179Y-65809394D01*
X134210289Y-65721789D01*
X134321789Y-65610289D01*
X134409394Y-65479179D01*
X134469737Y-65333497D01*
X134500500Y-65178842D01*
X134500500Y-65021158D01*
X134500500Y-65021155D01*
X134500499Y-65021153D01*
X134478509Y-64910603D01*
X134469737Y-64866503D01*
X134469735Y-64866498D01*
X134409397Y-64720827D01*
X134409390Y-64720814D01*
X134321790Y-64589712D01*
X134321785Y-64589707D01*
X134295063Y-64562985D01*
X134261579Y-64501665D01*
X134266563Y-64431973D01*
X134295062Y-64387625D01*
X134445646Y-64237042D01*
X134625238Y-64002994D01*
X134772743Y-63747507D01*
X134885639Y-63474952D01*
X134961993Y-63189993D01*
X135000500Y-62897506D01*
X135000500Y-62602494D01*
X134978914Y-62438535D01*
X134989679Y-62369503D01*
X135036059Y-62317247D01*
X135077662Y-62300735D01*
X135127958Y-62290730D01*
X135233497Y-62269737D01*
X135379179Y-62209394D01*
X135510289Y-62121789D01*
X135621789Y-62010289D01*
X135709394Y-61879179D01*
X135769737Y-61733497D01*
X135800500Y-61578842D01*
X135800500Y-61421158D01*
X135800500Y-61421155D01*
X135800499Y-61421153D01*
X139199500Y-61421153D01*
X139199500Y-61578846D01*
X139230261Y-61733489D01*
X139230264Y-61733501D01*
X139290602Y-61879172D01*
X139290609Y-61879185D01*
X139378210Y-62010288D01*
X139378213Y-62010292D01*
X139489707Y-62121786D01*
X139489711Y-62121789D01*
X139620814Y-62209390D01*
X139620827Y-62209397D01*
X139766498Y-62269735D01*
X139766503Y-62269737D01*
X139921153Y-62300499D01*
X139921156Y-62300500D01*
X139921158Y-62300500D01*
X140078844Y-62300500D01*
X140078845Y-62300499D01*
X140233497Y-62269737D01*
X140379179Y-62209394D01*
X140510289Y-62121789D01*
X140621789Y-62010289D01*
X140709394Y-61879179D01*
X140769737Y-61733497D01*
X140800500Y-61578842D01*
X140800500Y-61421158D01*
X140800500Y-61421155D01*
X140800499Y-61421153D01*
X144199500Y-61421153D01*
X144199500Y-61578846D01*
X144230261Y-61733489D01*
X144230264Y-61733501D01*
X144290602Y-61879172D01*
X144290609Y-61879185D01*
X144378210Y-62010288D01*
X144378213Y-62010292D01*
X144489707Y-62121786D01*
X144489711Y-62121789D01*
X144620814Y-62209390D01*
X144620827Y-62209397D01*
X144766498Y-62269735D01*
X144766503Y-62269737D01*
X144921153Y-62300499D01*
X144921156Y-62300500D01*
X144921158Y-62300500D01*
X145078844Y-62300500D01*
X145078845Y-62300499D01*
X145233497Y-62269737D01*
X145379179Y-62209394D01*
X145510289Y-62121789D01*
X145621789Y-62010289D01*
X145709394Y-61879179D01*
X145769737Y-61733497D01*
X145800500Y-61578842D01*
X145800500Y-61421158D01*
X145800500Y-61421155D01*
X145800499Y-61421153D01*
X149199500Y-61421153D01*
X149199500Y-61578846D01*
X149230261Y-61733489D01*
X149230264Y-61733501D01*
X149290602Y-61879172D01*
X149290609Y-61879185D01*
X149378210Y-62010288D01*
X149378213Y-62010292D01*
X149489707Y-62121786D01*
X149489711Y-62121789D01*
X149620814Y-62209390D01*
X149620827Y-62209397D01*
X149766498Y-62269735D01*
X149766503Y-62269737D01*
X149921153Y-62300499D01*
X149921156Y-62300500D01*
X149921158Y-62300500D01*
X150078844Y-62300500D01*
X150078845Y-62300499D01*
X150233497Y-62269737D01*
X150379179Y-62209394D01*
X150510289Y-62121789D01*
X150621789Y-62010289D01*
X150709394Y-61879179D01*
X150769737Y-61733497D01*
X150800500Y-61578842D01*
X150800500Y-61421158D01*
X150800500Y-61421155D01*
X150800499Y-61421153D01*
X154199500Y-61421153D01*
X154199500Y-61578846D01*
X154230261Y-61733489D01*
X154230264Y-61733501D01*
X154290602Y-61879172D01*
X154290609Y-61879185D01*
X154378210Y-62010288D01*
X154378213Y-62010292D01*
X154489707Y-62121786D01*
X154489711Y-62121789D01*
X154620814Y-62209390D01*
X154620827Y-62209397D01*
X154766498Y-62269735D01*
X154766503Y-62269737D01*
X154921153Y-62300499D01*
X154921156Y-62300500D01*
X154921158Y-62300500D01*
X155078844Y-62300500D01*
X155078845Y-62300499D01*
X155233497Y-62269737D01*
X155379179Y-62209394D01*
X155510289Y-62121789D01*
X155621789Y-62010289D01*
X155709394Y-61879179D01*
X155769737Y-61733497D01*
X155800500Y-61578842D01*
X155800500Y-61421158D01*
X155800500Y-61421155D01*
X155800499Y-61421153D01*
X159199500Y-61421153D01*
X159199500Y-61578846D01*
X159230261Y-61733489D01*
X159230264Y-61733501D01*
X159290602Y-61879172D01*
X159290609Y-61879185D01*
X159378210Y-62010288D01*
X159378213Y-62010292D01*
X159489707Y-62121786D01*
X159489711Y-62121789D01*
X159620814Y-62209390D01*
X159620827Y-62209397D01*
X159766498Y-62269735D01*
X159766503Y-62269737D01*
X159921153Y-62300499D01*
X159921156Y-62300500D01*
X159921158Y-62300500D01*
X160078844Y-62300500D01*
X160078845Y-62300499D01*
X160233497Y-62269737D01*
X160379179Y-62209394D01*
X160510289Y-62121789D01*
X160621789Y-62010289D01*
X160709394Y-61879179D01*
X160769737Y-61733497D01*
X160800500Y-61578842D01*
X160800500Y-61421158D01*
X160800500Y-61421155D01*
X160800499Y-61421153D01*
X164199500Y-61421153D01*
X164199500Y-61578846D01*
X164230261Y-61733489D01*
X164230264Y-61733501D01*
X164290602Y-61879172D01*
X164290609Y-61879185D01*
X164378210Y-62010288D01*
X164378213Y-62010292D01*
X164489707Y-62121786D01*
X164489711Y-62121789D01*
X164620814Y-62209390D01*
X164620827Y-62209397D01*
X164766498Y-62269735D01*
X164766503Y-62269737D01*
X164921153Y-62300499D01*
X164921156Y-62300500D01*
X164921158Y-62300500D01*
X165078844Y-62300500D01*
X165078845Y-62300499D01*
X165233497Y-62269737D01*
X165379179Y-62209394D01*
X165510289Y-62121789D01*
X165621789Y-62010289D01*
X165709394Y-61879179D01*
X165769737Y-61733497D01*
X165800500Y-61578842D01*
X165800500Y-61421158D01*
X165800500Y-61421155D01*
X165800499Y-61421153D01*
X169199500Y-61421153D01*
X169199500Y-61578846D01*
X169230261Y-61733489D01*
X169230264Y-61733501D01*
X169290602Y-61879172D01*
X169290609Y-61879185D01*
X169378210Y-62010288D01*
X169378213Y-62010292D01*
X169489707Y-62121786D01*
X169489711Y-62121789D01*
X169620814Y-62209390D01*
X169620827Y-62209397D01*
X169766498Y-62269735D01*
X169766503Y-62269737D01*
X169921153Y-62300499D01*
X169921156Y-62300500D01*
X169921158Y-62300500D01*
X170078844Y-62300500D01*
X170078845Y-62300499D01*
X170233497Y-62269737D01*
X170379179Y-62209394D01*
X170510289Y-62121789D01*
X170621789Y-62010289D01*
X170709394Y-61879179D01*
X170769737Y-61733497D01*
X170800500Y-61578842D01*
X170800500Y-61421158D01*
X170800500Y-61421155D01*
X170800499Y-61421153D01*
X170769738Y-61266510D01*
X170769737Y-61266503D01*
X170760680Y-61244637D01*
X170709397Y-61120827D01*
X170709390Y-61120814D01*
X170621789Y-60989711D01*
X170621786Y-60989707D01*
X170510292Y-60878213D01*
X170510288Y-60878210D01*
X170379185Y-60790609D01*
X170379172Y-60790602D01*
X170233501Y-60730264D01*
X170233489Y-60730261D01*
X170078845Y-60699500D01*
X170078842Y-60699500D01*
X169921158Y-60699500D01*
X169921155Y-60699500D01*
X169766510Y-60730261D01*
X169766498Y-60730264D01*
X169620827Y-60790602D01*
X169620814Y-60790609D01*
X169489711Y-60878210D01*
X169489707Y-60878213D01*
X169378213Y-60989707D01*
X169378210Y-60989711D01*
X169290609Y-61120814D01*
X169290602Y-61120827D01*
X169230264Y-61266498D01*
X169230261Y-61266510D01*
X169199500Y-61421153D01*
X165800499Y-61421153D01*
X165769738Y-61266510D01*
X165769737Y-61266503D01*
X165760680Y-61244637D01*
X165709397Y-61120827D01*
X165709390Y-61120814D01*
X165621789Y-60989711D01*
X165621786Y-60989707D01*
X165510292Y-60878213D01*
X165510288Y-60878210D01*
X165379185Y-60790609D01*
X165379172Y-60790602D01*
X165233501Y-60730264D01*
X165233489Y-60730261D01*
X165078845Y-60699500D01*
X165078842Y-60699500D01*
X164921158Y-60699500D01*
X164921155Y-60699500D01*
X164766510Y-60730261D01*
X164766498Y-60730264D01*
X164620827Y-60790602D01*
X164620814Y-60790609D01*
X164489711Y-60878210D01*
X164489707Y-60878213D01*
X164378213Y-60989707D01*
X164378210Y-60989711D01*
X164290609Y-61120814D01*
X164290602Y-61120827D01*
X164230264Y-61266498D01*
X164230261Y-61266510D01*
X164199500Y-61421153D01*
X160800499Y-61421153D01*
X160769738Y-61266510D01*
X160769737Y-61266503D01*
X160760680Y-61244637D01*
X160709397Y-61120827D01*
X160709390Y-61120814D01*
X160621789Y-60989711D01*
X160621786Y-60989707D01*
X160510292Y-60878213D01*
X160510288Y-60878210D01*
X160379185Y-60790609D01*
X160379172Y-60790602D01*
X160233501Y-60730264D01*
X160233489Y-60730261D01*
X160078845Y-60699500D01*
X160078842Y-60699500D01*
X159921158Y-60699500D01*
X159921155Y-60699500D01*
X159766510Y-60730261D01*
X159766498Y-60730264D01*
X159620827Y-60790602D01*
X159620814Y-60790609D01*
X159489711Y-60878210D01*
X159489707Y-60878213D01*
X159378213Y-60989707D01*
X159378210Y-60989711D01*
X159290609Y-61120814D01*
X159290602Y-61120827D01*
X159230264Y-61266498D01*
X159230261Y-61266510D01*
X159199500Y-61421153D01*
X155800499Y-61421153D01*
X155769738Y-61266510D01*
X155769737Y-61266503D01*
X155760680Y-61244637D01*
X155709397Y-61120827D01*
X155709390Y-61120814D01*
X155621789Y-60989711D01*
X155621786Y-60989707D01*
X155510292Y-60878213D01*
X155510288Y-60878210D01*
X155379185Y-60790609D01*
X155379172Y-60790602D01*
X155233501Y-60730264D01*
X155233489Y-60730261D01*
X155078845Y-60699500D01*
X155078842Y-60699500D01*
X154921158Y-60699500D01*
X154921155Y-60699500D01*
X154766510Y-60730261D01*
X154766498Y-60730264D01*
X154620827Y-60790602D01*
X154620814Y-60790609D01*
X154489711Y-60878210D01*
X154489707Y-60878213D01*
X154378213Y-60989707D01*
X154378210Y-60989711D01*
X154290609Y-61120814D01*
X154290602Y-61120827D01*
X154230264Y-61266498D01*
X154230261Y-61266510D01*
X154199500Y-61421153D01*
X150800499Y-61421153D01*
X150769738Y-61266510D01*
X150769737Y-61266503D01*
X150760680Y-61244637D01*
X150709397Y-61120827D01*
X150709390Y-61120814D01*
X150621789Y-60989711D01*
X150621786Y-60989707D01*
X150510292Y-60878213D01*
X150510288Y-60878210D01*
X150379185Y-60790609D01*
X150379172Y-60790602D01*
X150233501Y-60730264D01*
X150233489Y-60730261D01*
X150078845Y-60699500D01*
X150078842Y-60699500D01*
X149921158Y-60699500D01*
X149921155Y-60699500D01*
X149766510Y-60730261D01*
X149766498Y-60730264D01*
X149620827Y-60790602D01*
X149620814Y-60790609D01*
X149489711Y-60878210D01*
X149489707Y-60878213D01*
X149378213Y-60989707D01*
X149378210Y-60989711D01*
X149290609Y-61120814D01*
X149290602Y-61120827D01*
X149230264Y-61266498D01*
X149230261Y-61266510D01*
X149199500Y-61421153D01*
X145800499Y-61421153D01*
X145769738Y-61266510D01*
X145769737Y-61266503D01*
X145760680Y-61244637D01*
X145709397Y-61120827D01*
X145709390Y-61120814D01*
X145621789Y-60989711D01*
X145621786Y-60989707D01*
X145510292Y-60878213D01*
X145510288Y-60878210D01*
X145379185Y-60790609D01*
X145379172Y-60790602D01*
X145233501Y-60730264D01*
X145233489Y-60730261D01*
X145078845Y-60699500D01*
X145078842Y-60699500D01*
X144921158Y-60699500D01*
X144921155Y-60699500D01*
X144766510Y-60730261D01*
X144766498Y-60730264D01*
X144620827Y-60790602D01*
X144620814Y-60790609D01*
X144489711Y-60878210D01*
X144489707Y-60878213D01*
X144378213Y-60989707D01*
X144378210Y-60989711D01*
X144290609Y-61120814D01*
X144290602Y-61120827D01*
X144230264Y-61266498D01*
X144230261Y-61266510D01*
X144199500Y-61421153D01*
X140800499Y-61421153D01*
X140769738Y-61266510D01*
X140769737Y-61266503D01*
X140760680Y-61244637D01*
X140709397Y-61120827D01*
X140709390Y-61120814D01*
X140621789Y-60989711D01*
X140621786Y-60989707D01*
X140510292Y-60878213D01*
X140510288Y-60878210D01*
X140379185Y-60790609D01*
X140379172Y-60790602D01*
X140233501Y-60730264D01*
X140233489Y-60730261D01*
X140078845Y-60699500D01*
X140078842Y-60699500D01*
X139921158Y-60699500D01*
X139921155Y-60699500D01*
X139766510Y-60730261D01*
X139766498Y-60730264D01*
X139620827Y-60790602D01*
X139620814Y-60790609D01*
X139489711Y-60878210D01*
X139489707Y-60878213D01*
X139378213Y-60989707D01*
X139378210Y-60989711D01*
X139290609Y-61120814D01*
X139290602Y-61120827D01*
X139230264Y-61266498D01*
X139230261Y-61266510D01*
X139199500Y-61421153D01*
X135800499Y-61421153D01*
X135769738Y-61266510D01*
X135769737Y-61266503D01*
X135760680Y-61244637D01*
X135709397Y-61120827D01*
X135709390Y-61120814D01*
X135621789Y-60989711D01*
X135621786Y-60989707D01*
X135510292Y-60878213D01*
X135510288Y-60878210D01*
X135379185Y-60790609D01*
X135379172Y-60790602D01*
X135233501Y-60730264D01*
X135233489Y-60730261D01*
X135078845Y-60699500D01*
X135078842Y-60699500D01*
X134921158Y-60699500D01*
X134921155Y-60699500D01*
X134766510Y-60730261D01*
X134766498Y-60730264D01*
X134620827Y-60790602D01*
X134620814Y-60790609D01*
X134489711Y-60878210D01*
X134489707Y-60878213D01*
X134378213Y-60989707D01*
X134378208Y-60989714D01*
X134375363Y-60993972D01*
X134321750Y-61038777D01*
X134252425Y-61047483D01*
X134196776Y-61023456D01*
X134002993Y-60874761D01*
X133747510Y-60727258D01*
X133747500Y-60727254D01*
X133474961Y-60614364D01*
X133474954Y-60614362D01*
X133474952Y-60614361D01*
X133213380Y-60544273D01*
X133153722Y-60507910D01*
X133123193Y-60445063D01*
X133131488Y-60375688D01*
X133175973Y-60321810D01*
X133242525Y-60300535D01*
X133245476Y-60300500D01*
X176754524Y-60300500D01*
X176821563Y-60320185D01*
G37*
%TD.AperFunction*%
%TD*%
M02*
