%TF.GenerationSoftware,KiCad,Pcbnew,9.0.7*%
%TF.CreationDate,2026-02-18T10:31:35-08:00*%
%TF.ProjectId,servo-dev-board-ch32v006,73657276-6f2d-4646-9576-2d626f617264,rev?*%
%TF.SameCoordinates,Original*%
%TF.FileFunction,Copper,L4,Bot*%
%TF.FilePolarity,Positive*%
%FSLAX46Y46*%
G04 Gerber Fmt 4.6, Leading zero omitted, Abs format (unit mm)*
G04 Created by KiCad (PCBNEW 9.0.7) date 2026-02-18 10:31:35*
%MOMM*%
%LPD*%
G01*
G04 APERTURE LIST*
%TA.AperFunction,ComponentPad*%
%ADD10C,3.500000*%
%TD*%
%TA.AperFunction,ComponentPad*%
%ADD11R,1.400000X1.500000*%
%TD*%
%TA.AperFunction,ComponentPad*%
%ADD12C,1.400000*%
%TD*%
%TA.AperFunction,ComponentPad*%
%ADD13O,1.700000X1.000000*%
%TD*%
%TA.AperFunction,ViaPad*%
%ADD14C,0.600000*%
%TD*%
%TA.AperFunction,ViaPad*%
%ADD15C,0.450000*%
%TD*%
%TA.AperFunction,ViaPad*%
%ADD16C,1.000000*%
%TD*%
%TA.AperFunction,ViaPad*%
%ADD17C,0.800000*%
%TD*%
%TA.AperFunction,Conductor*%
%ADD18C,0.200000*%
%TD*%
%TA.AperFunction,Conductor*%
%ADD19C,0.150000*%
%TD*%
%TA.AperFunction,Conductor*%
%ADD20C,1.000000*%
%TD*%
G04 APERTURE END LIST*
D10*
%TO.P,H1,1,1*%
%TO.N,GND*%
X132750000Y-62750000D03*
%TD*%
%TO.P,H2,1,1*%
%TO.N,GND*%
X177250000Y-62750000D03*
%TD*%
D11*
%TO.P,J1,1,1*%
%TO.N,VBAT*%
X136650000Y-72250000D03*
D12*
%TO.P,J1,2,2*%
%TO.N,GND*%
X136650000Y-74250000D03*
%TD*%
D13*
%TO.P,USB1,7,EH*%
%TO.N,GND*%
X136810000Y-79000000D03*
X133000000Y-79000000D03*
X136810000Y-87640000D03*
X133000000Y-87640000D03*
%TD*%
D10*
%TO.P,H4,1,1*%
%TO.N,GND*%
X132750000Y-107250000D03*
%TD*%
%TO.P,H3,1,1*%
%TO.N,GND*%
X177250000Y-107250000D03*
%TD*%
D14*
%TO.N,GND*%
X135400000Y-99300000D03*
X140000000Y-61500000D03*
X178500000Y-104900000D03*
X176100000Y-76000000D03*
X153500000Y-95210000D03*
X142300000Y-103090000D03*
X177000000Y-68100000D03*
X131500000Y-85000000D03*
X140600000Y-103090000D03*
X161540000Y-86250000D03*
D15*
X157900000Y-94600000D03*
D14*
X131950000Y-101250000D03*
X145600000Y-91300000D03*
X178200000Y-99900000D03*
X131300000Y-104900000D03*
X145000000Y-61500000D03*
D15*
X158500000Y-94000000D03*
D14*
X176200000Y-65100000D03*
D16*
X170100000Y-71350000D03*
D15*
X157900000Y-93425000D03*
D14*
X132500000Y-65100000D03*
X175000000Y-108500000D03*
X163400000Y-89300000D03*
X142850000Y-85700000D03*
X131400000Y-65100000D03*
X146600000Y-99100000D03*
X168100000Y-76800000D03*
X155000000Y-108500000D03*
X160282500Y-98020000D03*
X176400000Y-104900000D03*
X156780000Y-84537500D03*
X160000000Y-61500000D03*
X178500000Y-68100000D03*
X133700000Y-65100000D03*
X133800000Y-104900000D03*
X175900000Y-97500000D03*
X178500000Y-85000000D03*
X131500000Y-75000000D03*
X177500000Y-65100000D03*
X153600000Y-99600000D03*
X177200000Y-79900000D03*
X141440000Y-103090000D03*
X164700000Y-86220000D03*
X178500000Y-77750000D03*
D15*
X158500000Y-94575000D03*
D14*
X131900000Y-91350000D03*
X168100000Y-68900000D03*
X150000000Y-108500000D03*
X135000000Y-108500000D03*
D16*
X178200000Y-71350000D03*
D14*
X150000000Y-61500000D03*
X145200000Y-103500000D03*
X131500000Y-95000000D03*
X145600000Y-93100000D03*
X177200000Y-99900000D03*
X168100000Y-76000000D03*
X177500000Y-104900000D03*
X131500000Y-70000000D03*
X154860000Y-84537500D03*
X132950000Y-101250000D03*
D15*
X158500000Y-93400000D03*
D14*
X176100000Y-76800000D03*
X140050000Y-83300000D03*
X154100000Y-91800000D03*
X160000000Y-108500000D03*
X178200000Y-79900000D03*
X165290000Y-94090000D03*
D15*
X159125000Y-94575000D03*
X159125000Y-94000000D03*
D14*
X133000000Y-91350000D03*
X175900000Y-86800000D03*
X165000000Y-108500000D03*
X161482500Y-99010000D03*
X143250000Y-84500000D03*
X158900000Y-89100000D03*
X178300000Y-89200000D03*
X170000000Y-61500000D03*
X138750000Y-95250000D03*
X132500000Y-104900000D03*
X145000000Y-108500000D03*
X178700000Y-65100000D03*
X160900000Y-82800000D03*
X143750000Y-83000000D03*
X165660000Y-89770000D03*
X170000000Y-108500000D03*
X165000000Y-61500000D03*
X168100000Y-69700000D03*
X166090000Y-91010000D03*
X178500000Y-95000000D03*
X177300000Y-93600000D03*
X177300000Y-89200000D03*
X175000000Y-61500000D03*
X155700000Y-103200000D03*
X131500000Y-80000000D03*
X140000000Y-108500000D03*
D15*
X157900000Y-94025000D03*
D14*
X153505000Y-97595000D03*
X135000000Y-61500000D03*
D15*
X159125000Y-93400000D03*
D14*
X158710000Y-84537500D03*
X178300000Y-93600000D03*
X155000000Y-61500000D03*
X161550000Y-87090000D03*
%TO.N,+3.3V*%
X137800000Y-92900000D03*
X144525000Y-95300000D03*
X156900000Y-87500000D03*
X142500000Y-65300000D03*
X164700000Y-87180000D03*
X166400000Y-95700000D03*
X175900000Y-99000000D03*
X164700000Y-88200000D03*
X162512500Y-96500000D03*
X153482753Y-96765159D03*
D17*
X145000000Y-79800000D03*
D14*
X175900000Y-88300000D03*
%TO.N,PGND*%
X143390000Y-88330000D03*
D15*
X142030000Y-96540000D03*
X141390000Y-97010000D03*
X141390000Y-96540000D03*
X142040000Y-97950000D03*
X141400000Y-97480000D03*
X142030000Y-97010000D03*
D14*
X143410000Y-89710000D03*
X143400000Y-90600000D03*
X143390000Y-91940000D03*
X143400000Y-87290000D03*
D15*
X142040000Y-97480000D03*
X141400000Y-97950000D03*
D14*
%TO.N,/DATA*%
X165300000Y-74350000D03*
X178000000Y-74350000D03*
%TO.N,/OUTA*%
X153410000Y-94300000D03*
X149900000Y-80000000D03*
%TO.N,/OUTB*%
X149800000Y-85000000D03*
X152300000Y-94500000D03*
%TO.N,/SWDIO*%
X175900000Y-85300000D03*
X156100000Y-91200000D03*
%TO.N,/nRST*%
X167420000Y-97240000D03*
X157500000Y-97100000D03*
%TO.N,/VSNA*%
X147500000Y-107350000D03*
X147500000Y-103550000D03*
%TO.N,/VSNB*%
X154700000Y-91050000D03*
X152500000Y-107300000D03*
%TO.N,/DE*%
X159300000Y-98700000D03*
X163800000Y-85200000D03*
%TO.N,/IN1*%
X137500000Y-107350000D03*
X143850000Y-97150000D03*
%TO.N,/IN2*%
X142500000Y-107350000D03*
X145065380Y-97265380D03*
%TO.N,/ISNS-*%
X148500000Y-102200000D03*
X143060000Y-101180000D03*
X157500000Y-101200000D03*
%TO.N,/ISNS+*%
X143060000Y-100200000D03*
X158500000Y-100200000D03*
X147200000Y-95100000D03*
%TO.N,/ENCB*%
X175800000Y-94500000D03*
X160200000Y-92000000D03*
%TO.N,/ENCA*%
X175800000Y-96000000D03*
X156450000Y-92650000D03*
D16*
%TO.N,BUS_VIN*%
X170100000Y-72850000D03*
X145900000Y-66475000D03*
X173200000Y-72850000D03*
%TD*%
D18*
%TO.N,/DATA*%
X165300000Y-74350000D02*
X178000000Y-74350000D01*
%TO.N,/OUTA*%
X149900000Y-80000000D02*
X153410000Y-83510000D01*
X153410000Y-83510000D02*
X153410000Y-94300000D01*
%TO.N,/OUTB*%
X152300000Y-87500000D02*
X152300000Y-94500000D01*
X149800000Y-85000000D02*
X152300000Y-87500000D01*
%TO.N,/SWDIO*%
X156891000Y-90409000D02*
X156100000Y-91200000D01*
X170791000Y-90409000D02*
X156891000Y-90409000D01*
X175900000Y-85300000D02*
X170791000Y-90409000D01*
%TO.N,/nRST*%
X157640000Y-97240000D02*
X167420000Y-97240000D01*
X157500000Y-97100000D02*
X157640000Y-97240000D01*
D19*
%TO.N,/VSNA*%
X147500000Y-107350000D02*
X147500000Y-103550000D01*
%TO.N,/VSNB*%
X160000000Y-105700000D02*
X160000000Y-100885412D01*
X158414588Y-99300000D02*
X154900000Y-99300000D01*
X158400000Y-107300000D02*
X160000000Y-105700000D01*
X154700000Y-99100000D02*
X154700000Y-91050000D01*
X160000000Y-100885412D02*
X158414588Y-99300000D01*
X152500000Y-107300000D02*
X158400000Y-107300000D01*
X154900000Y-99300000D02*
X154700000Y-99100000D01*
D18*
%TO.N,/DE*%
X155450000Y-97050000D02*
X155450000Y-90550000D01*
X155450000Y-90550000D02*
X160800000Y-85200000D01*
X159300000Y-98700000D02*
X157100000Y-98700000D01*
X160800000Y-85200000D02*
X163800000Y-85200000D01*
X157100000Y-98700000D02*
X155450000Y-97050000D01*
D19*
%TO.N,/IN1*%
X138800000Y-102200000D02*
X138800000Y-106050000D01*
X138800000Y-106050000D02*
X137500000Y-107350000D01*
X143850000Y-97150000D02*
X138800000Y-102200000D01*
%TO.N,/IN2*%
X139900000Y-104750000D02*
X142500000Y-107350000D01*
X139900000Y-102430760D02*
X139900000Y-104750000D01*
X145065380Y-97265380D02*
X139900000Y-102430760D01*
%TO.N,/ISNS-*%
X143060000Y-101660000D02*
X143060000Y-101180000D01*
D18*
X157480000Y-101180000D02*
X157500000Y-101200000D01*
X143060000Y-101180000D02*
X157480000Y-101180000D01*
D19*
X143600000Y-102200000D02*
X143060000Y-101660000D01*
X148500000Y-102200000D02*
X143600000Y-102200000D01*
%TO.N,/ISNS+*%
X147200000Y-95100000D02*
X147200000Y-96100000D01*
X147200000Y-96100000D02*
X143100000Y-100200000D01*
D18*
X143060000Y-100200000D02*
X158500000Y-100200000D01*
D19*
X143100000Y-100200000D02*
X143060000Y-100200000D01*
D18*
%TO.N,/ENCB*%
X160200000Y-92000000D02*
X173300000Y-92000000D01*
X173300000Y-92000000D02*
X175800000Y-94500000D01*
%TO.N,/ENCA*%
X172550000Y-92650000D02*
X175800000Y-95900000D01*
X175800000Y-95900000D02*
X175800000Y-96000000D01*
X156450000Y-92650000D02*
X172550000Y-92650000D01*
D20*
%TO.N,BUS_VIN*%
X160175000Y-66475000D02*
X145900000Y-66475000D01*
X173200000Y-72850000D02*
X166550000Y-72850000D01*
X166550000Y-72850000D02*
X160175000Y-66475000D01*
%TD*%
%TA.AperFunction,Conductor*%
%TO.N,GND*%
G36*
X177501470Y-60300589D02*
G01*
X177542117Y-60303047D01*
X177762175Y-60316358D01*
X177768034Y-60317071D01*
X178023461Y-60363879D01*
X178029199Y-60365293D01*
X178167979Y-60408539D01*
X178277123Y-60442550D01*
X178282654Y-60444647D01*
X178519461Y-60551225D01*
X178524688Y-60553967D01*
X178652041Y-60630956D01*
X178746922Y-60688314D01*
X178751791Y-60691675D01*
X178956205Y-60851823D01*
X178960634Y-60855747D01*
X179144252Y-61039365D01*
X179148176Y-61043794D01*
X179308324Y-61248208D01*
X179311685Y-61253077D01*
X179446028Y-61475305D01*
X179448778Y-61480545D01*
X179555351Y-61717344D01*
X179557449Y-61722876D01*
X179634705Y-61970796D01*
X179636121Y-61976542D01*
X179682927Y-62231957D01*
X179683641Y-62237830D01*
X179699411Y-62498528D01*
X179699500Y-62501487D01*
X179699500Y-107498512D01*
X179699411Y-107501471D01*
X179683641Y-107762169D01*
X179682927Y-107768042D01*
X179636121Y-108023457D01*
X179634705Y-108029203D01*
X179557449Y-108277123D01*
X179555351Y-108282655D01*
X179448778Y-108519454D01*
X179446028Y-108524694D01*
X179311685Y-108746922D01*
X179308324Y-108751791D01*
X179148176Y-108956205D01*
X179144252Y-108960634D01*
X178960634Y-109144252D01*
X178956205Y-109148176D01*
X178751791Y-109308324D01*
X178746922Y-109311685D01*
X178524694Y-109446028D01*
X178519454Y-109448778D01*
X178282655Y-109555351D01*
X178277123Y-109557449D01*
X178029203Y-109634705D01*
X178023457Y-109636121D01*
X177768042Y-109682927D01*
X177762169Y-109683641D01*
X177501471Y-109699411D01*
X177498512Y-109699500D01*
X132501488Y-109699500D01*
X132498529Y-109699411D01*
X132237830Y-109683641D01*
X132231957Y-109682927D01*
X131976542Y-109636121D01*
X131970796Y-109634705D01*
X131722876Y-109557449D01*
X131717344Y-109555351D01*
X131480545Y-109448778D01*
X131475305Y-109446028D01*
X131253077Y-109311685D01*
X131248208Y-109308324D01*
X131043794Y-109148176D01*
X131039365Y-109144252D01*
X130855747Y-108960634D01*
X130851823Y-108956205D01*
X130691675Y-108751791D01*
X130688314Y-108746922D01*
X130553971Y-108524694D01*
X130551225Y-108519461D01*
X130444647Y-108282654D01*
X130442550Y-108277123D01*
X130365294Y-108029203D01*
X130363878Y-108023457D01*
X130317071Y-107768034D01*
X130316358Y-107762168D01*
X130315652Y-107750500D01*
X130300589Y-107501470D01*
X130300500Y-107498512D01*
X130300500Y-107284104D01*
X136999500Y-107284104D01*
X136999500Y-107415895D01*
X137033607Y-107543184D01*
X137033608Y-107543188D01*
X137099476Y-107657273D01*
X137099500Y-107657314D01*
X137192686Y-107750500D01*
X137218009Y-107765120D01*
X137306811Y-107816391D01*
X137306813Y-107816391D01*
X137306814Y-107816392D01*
X137407207Y-107843292D01*
X137434104Y-107850499D01*
X137434105Y-107850500D01*
X137434108Y-107850500D01*
X137565895Y-107850500D01*
X137565895Y-107850499D01*
X137693186Y-107816392D01*
X137807314Y-107750500D01*
X137900500Y-107657314D01*
X137966392Y-107543186D01*
X138000499Y-107415895D01*
X138000500Y-107415895D01*
X138000500Y-107284111D01*
X138000500Y-107284108D01*
X137998313Y-107275948D01*
X138003206Y-107238768D01*
X138010991Y-107228622D01*
X139033558Y-106206058D01*
X139075500Y-106104800D01*
X139075500Y-105995200D01*
X139075500Y-102334410D01*
X139089851Y-102299763D01*
X141465010Y-99924603D01*
X141499657Y-99910252D01*
X141534305Y-99924604D01*
X141540399Y-99932029D01*
X141563306Y-99966312D01*
X141601450Y-99991799D01*
X141646196Y-100021698D01*
X141646197Y-100021698D01*
X141646198Y-100021699D01*
X141679243Y-100035387D01*
X141680248Y-100035845D01*
X141680843Y-100036049D01*
X141680844Y-100036050D01*
X141680846Y-100036051D01*
X141777978Y-100055371D01*
X141809160Y-100076207D01*
X141816477Y-100112989D01*
X141803066Y-100138078D01*
X139743942Y-102197203D01*
X139666444Y-102274699D01*
X139666444Y-102274700D01*
X139624500Y-102375958D01*
X139624500Y-102375960D01*
X139624500Y-104804800D01*
X139666443Y-104906058D01*
X139666444Y-104906059D01*
X139666445Y-104906061D01*
X141989003Y-107228619D01*
X142003355Y-107263267D01*
X142001686Y-107275947D01*
X141999500Y-107284107D01*
X141999500Y-107415895D01*
X142033607Y-107543184D01*
X142033608Y-107543188D01*
X142099476Y-107657273D01*
X142099500Y-107657314D01*
X142192686Y-107750500D01*
X142218009Y-107765120D01*
X142306811Y-107816391D01*
X142306813Y-107816391D01*
X142306814Y-107816392D01*
X142407207Y-107843292D01*
X142434104Y-107850499D01*
X142434105Y-107850500D01*
X142434108Y-107850500D01*
X142565895Y-107850500D01*
X142565895Y-107850499D01*
X142693186Y-107816392D01*
X142807314Y-107750500D01*
X142900500Y-107657314D01*
X142966392Y-107543186D01*
X143000499Y-107415895D01*
X143000500Y-107415895D01*
X143000500Y-107284105D01*
X143000499Y-107284104D01*
X142966392Y-107156815D01*
X142966391Y-107156811D01*
X142900499Y-107042685D01*
X142807314Y-106949500D01*
X142693188Y-106883608D01*
X142693184Y-106883607D01*
X142565895Y-106849500D01*
X142565892Y-106849500D01*
X142434108Y-106849500D01*
X142434107Y-106849500D01*
X142425947Y-106851686D01*
X142388765Y-106846789D01*
X142378619Y-106839003D01*
X140189852Y-104650236D01*
X140175500Y-104615588D01*
X140175500Y-103484104D01*
X146999500Y-103484104D01*
X146999500Y-103615895D01*
X147033607Y-103743184D01*
X147033608Y-103743188D01*
X147099500Y-103857314D01*
X147192686Y-103950500D01*
X147192687Y-103950501D01*
X147192689Y-103950502D01*
X147199999Y-103954722D01*
X147222830Y-103984475D01*
X147224500Y-103997158D01*
X147224500Y-106902842D01*
X147210148Y-106937490D01*
X147200002Y-106945276D01*
X147192685Y-106949500D01*
X147192685Y-106949501D01*
X147099501Y-107042685D01*
X147099500Y-107042685D01*
X147033608Y-107156811D01*
X147033607Y-107156815D01*
X146999500Y-107284104D01*
X146999500Y-107415895D01*
X147033607Y-107543184D01*
X147033608Y-107543188D01*
X147099476Y-107657273D01*
X147099500Y-107657314D01*
X147192686Y-107750500D01*
X147218009Y-107765120D01*
X147306811Y-107816391D01*
X147306813Y-107816391D01*
X147306814Y-107816392D01*
X147407207Y-107843292D01*
X147434104Y-107850499D01*
X147434105Y-107850500D01*
X147434108Y-107850500D01*
X147565895Y-107850500D01*
X147565895Y-107850499D01*
X147693186Y-107816392D01*
X147807314Y-107750500D01*
X147900500Y-107657314D01*
X147966392Y-107543186D01*
X148000499Y-107415895D01*
X148000500Y-107415895D01*
X148000500Y-107284105D01*
X148000499Y-107284104D01*
X147966392Y-107156815D01*
X147966391Y-107156811D01*
X147900499Y-107042685D01*
X147807314Y-106949500D01*
X147799998Y-106945276D01*
X147777169Y-106915522D01*
X147775500Y-106902842D01*
X147775500Y-103997158D01*
X147789852Y-103962510D01*
X147800001Y-103954722D01*
X147800573Y-103954391D01*
X147807314Y-103950500D01*
X147900500Y-103857314D01*
X147966392Y-103743186D01*
X148000499Y-103615895D01*
X148000500Y-103615895D01*
X148000500Y-103484105D01*
X148000499Y-103484104D01*
X147966392Y-103356815D01*
X147966391Y-103356811D01*
X147900499Y-103242685D01*
X147807314Y-103149500D01*
X147693188Y-103083608D01*
X147693184Y-103083607D01*
X147565895Y-103049500D01*
X147565892Y-103049500D01*
X147434108Y-103049500D01*
X147434105Y-103049500D01*
X147306815Y-103083607D01*
X147306811Y-103083608D01*
X147192685Y-103149500D01*
X147192685Y-103149501D01*
X147099501Y-103242685D01*
X147099500Y-103242685D01*
X147033608Y-103356811D01*
X147033607Y-103356815D01*
X146999500Y-103484104D01*
X140175500Y-103484104D01*
X140175500Y-102565171D01*
X140189852Y-102530523D01*
X141327191Y-101393184D01*
X142477295Y-100243079D01*
X142511942Y-100228728D01*
X142546590Y-100243080D01*
X142559272Y-100265046D01*
X142593607Y-100393184D01*
X142593608Y-100393188D01*
X142655566Y-100500500D01*
X142659500Y-100507314D01*
X142752686Y-100600500D01*
X142792605Y-100623547D01*
X142834204Y-100647565D01*
X142857034Y-100677318D01*
X142852139Y-100714500D01*
X142834204Y-100732435D01*
X142752685Y-100779500D01*
X142752685Y-100779501D01*
X142659501Y-100872685D01*
X142659500Y-100872685D01*
X142593608Y-100986811D01*
X142593607Y-100986815D01*
X142559500Y-101114104D01*
X142559500Y-101245895D01*
X142593607Y-101373184D01*
X142593608Y-101373188D01*
X142655566Y-101480500D01*
X142659500Y-101487314D01*
X142752686Y-101580500D01*
X142752687Y-101580501D01*
X142752689Y-101580502D01*
X142759999Y-101584722D01*
X142782830Y-101614475D01*
X142784500Y-101627158D01*
X142784500Y-101714801D01*
X142801874Y-101756744D01*
X142826443Y-101816058D01*
X142826444Y-101816059D01*
X142826445Y-101816061D01*
X143443937Y-102433554D01*
X143443940Y-102433556D01*
X143443941Y-102433557D01*
X143473597Y-102445840D01*
X143473598Y-102445841D01*
X143473599Y-102445841D01*
X143545200Y-102475500D01*
X148052842Y-102475500D01*
X148087490Y-102489852D01*
X148095276Y-102499998D01*
X148099500Y-102507314D01*
X148192686Y-102600500D01*
X148234457Y-102624617D01*
X148306811Y-102666391D01*
X148306813Y-102666391D01*
X148306814Y-102666392D01*
X148407207Y-102693292D01*
X148434104Y-102700499D01*
X148434105Y-102700500D01*
X148434108Y-102700500D01*
X148565895Y-102700500D01*
X148565895Y-102700499D01*
X148693186Y-102666392D01*
X148807314Y-102600500D01*
X148900500Y-102507314D01*
X148966392Y-102393186D01*
X149000499Y-102265895D01*
X149000500Y-102265895D01*
X149000500Y-102134105D01*
X149000499Y-102134104D01*
X148976340Y-102043940D01*
X148966392Y-102006814D01*
X148966391Y-102006813D01*
X148966391Y-102006811D01*
X148917904Y-101922831D01*
X148900500Y-101892686D01*
X148807314Y-101799500D01*
X148693188Y-101733608D01*
X148693184Y-101733607D01*
X148565895Y-101699500D01*
X148565892Y-101699500D01*
X148434108Y-101699500D01*
X148434105Y-101699500D01*
X148306815Y-101733607D01*
X148306811Y-101733608D01*
X148192685Y-101799500D01*
X148192685Y-101799501D01*
X148099501Y-101892685D01*
X148099500Y-101892685D01*
X148095276Y-101900002D01*
X148065522Y-101922831D01*
X148052842Y-101924500D01*
X143734412Y-101924500D01*
X143699764Y-101910148D01*
X143403362Y-101613747D01*
X143403360Y-101613745D01*
X143389010Y-101579099D01*
X143403361Y-101544452D01*
X143452963Y-101494850D01*
X143487610Y-101480500D01*
X157055729Y-101480500D01*
X157090377Y-101494852D01*
X157098160Y-101504993D01*
X157099500Y-101507314D01*
X157192686Y-101600500D01*
X157234457Y-101624617D01*
X157306811Y-101666391D01*
X157306813Y-101666391D01*
X157306814Y-101666392D01*
X157407207Y-101693292D01*
X157434104Y-101700499D01*
X157434105Y-101700500D01*
X157434108Y-101700500D01*
X157565895Y-101700500D01*
X157565895Y-101700499D01*
X157693186Y-101666392D01*
X157807314Y-101600500D01*
X157900500Y-101507314D01*
X157966392Y-101393186D01*
X158000499Y-101265895D01*
X158000500Y-101265895D01*
X158000500Y-101134105D01*
X158000499Y-101134104D01*
X157993292Y-101107207D01*
X157966392Y-101006814D01*
X157966391Y-101006813D01*
X157966391Y-101006811D01*
X157900499Y-100892685D01*
X157807314Y-100799500D01*
X157693188Y-100733608D01*
X157693184Y-100733607D01*
X157565895Y-100699500D01*
X157565892Y-100699500D01*
X157434108Y-100699500D01*
X157434105Y-100699500D01*
X157306815Y-100733607D01*
X157306811Y-100733608D01*
X157192685Y-100799500D01*
X157192685Y-100799501D01*
X157127038Y-100865148D01*
X157092390Y-100879500D01*
X143487610Y-100879500D01*
X143452962Y-100865148D01*
X143367314Y-100779500D01*
X143285795Y-100732435D01*
X143262965Y-100702682D01*
X143267860Y-100665500D01*
X143285795Y-100647565D01*
X143367314Y-100600500D01*
X143452962Y-100514852D01*
X143487610Y-100500500D01*
X158072390Y-100500500D01*
X158107038Y-100514852D01*
X158192686Y-100600500D01*
X158234457Y-100624617D01*
X158306811Y-100666391D01*
X158306813Y-100666391D01*
X158306814Y-100666392D01*
X158347591Y-100677318D01*
X158434104Y-100700499D01*
X158434105Y-100700500D01*
X158434108Y-100700500D01*
X158565895Y-100700500D01*
X158565895Y-100700499D01*
X158693186Y-100666392D01*
X158807314Y-100600500D01*
X158900500Y-100507314D01*
X158966392Y-100393186D01*
X158976498Y-100355466D01*
X158999326Y-100325717D01*
X159036508Y-100320820D01*
X159058475Y-100333503D01*
X159710148Y-100985175D01*
X159724500Y-101019823D01*
X159724500Y-105565588D01*
X159710148Y-105600236D01*
X158300237Y-107010148D01*
X158265589Y-107024500D01*
X152947158Y-107024500D01*
X152912510Y-107010148D01*
X152904724Y-107000002D01*
X152900499Y-106992685D01*
X152807314Y-106899500D01*
X152693188Y-106833608D01*
X152693184Y-106833607D01*
X152565895Y-106799500D01*
X152565892Y-106799500D01*
X152434108Y-106799500D01*
X152434105Y-106799500D01*
X152306815Y-106833607D01*
X152306811Y-106833608D01*
X152192685Y-106899500D01*
X152192685Y-106899501D01*
X152099501Y-106992685D01*
X152099500Y-106992685D01*
X152033608Y-107106811D01*
X152033607Y-107106815D01*
X151999500Y-107234104D01*
X151999500Y-107365895D01*
X152033607Y-107493184D01*
X152033608Y-107493188D01*
X152095276Y-107599998D01*
X152099500Y-107607314D01*
X152192686Y-107700500D01*
X152234457Y-107724617D01*
X152306811Y-107766391D01*
X152306813Y-107766391D01*
X152306814Y-107766392D01*
X152407207Y-107793292D01*
X152434104Y-107800499D01*
X152434105Y-107800500D01*
X152434108Y-107800500D01*
X152565895Y-107800500D01*
X152565895Y-107800499D01*
X152693186Y-107766392D01*
X152700501Y-107762169D01*
X152708478Y-107757563D01*
X152807314Y-107700500D01*
X152900500Y-107607314D01*
X152904724Y-107599998D01*
X152934478Y-107577169D01*
X152947158Y-107575500D01*
X158454798Y-107575500D01*
X158454800Y-107575500D01*
X158556058Y-107533557D01*
X158633557Y-107456058D01*
X158633556Y-107456058D01*
X160233558Y-105856058D01*
X160275500Y-105754800D01*
X160275500Y-105645200D01*
X160275500Y-100830612D01*
X160233557Y-100729354D01*
X160233557Y-100729353D01*
X158588350Y-99084147D01*
X158573999Y-99049500D01*
X158588351Y-99014852D01*
X158622999Y-99000500D01*
X158872390Y-99000500D01*
X158907038Y-99014852D01*
X158992686Y-99100500D01*
X159034457Y-99124617D01*
X159106811Y-99166391D01*
X159106813Y-99166391D01*
X159106814Y-99166392D01*
X159171256Y-99183659D01*
X159234104Y-99200499D01*
X159234105Y-99200500D01*
X159234108Y-99200500D01*
X159365895Y-99200500D01*
X159365895Y-99200499D01*
X159493186Y-99166392D01*
X159607314Y-99100500D01*
X159700500Y-99007314D01*
X159742768Y-98934104D01*
X175399500Y-98934104D01*
X175399500Y-99065895D01*
X175433607Y-99193184D01*
X175433608Y-99193188D01*
X175491759Y-99293907D01*
X175499500Y-99307314D01*
X175592686Y-99400500D01*
X175634457Y-99424617D01*
X175706811Y-99466391D01*
X175706813Y-99466391D01*
X175706814Y-99466392D01*
X175807207Y-99493292D01*
X175834104Y-99500499D01*
X175834105Y-99500500D01*
X175834108Y-99500500D01*
X175965895Y-99500500D01*
X175965895Y-99500499D01*
X176093186Y-99466392D01*
X176207314Y-99400500D01*
X176300500Y-99307314D01*
X176366392Y-99193186D01*
X176400499Y-99065895D01*
X176400500Y-99065895D01*
X176400500Y-98934105D01*
X176400499Y-98934104D01*
X176366392Y-98806815D01*
X176366391Y-98806811D01*
X176300499Y-98692685D01*
X176207314Y-98599500D01*
X176093188Y-98533608D01*
X176093184Y-98533607D01*
X175965895Y-98499500D01*
X175965892Y-98499500D01*
X175834108Y-98499500D01*
X175834105Y-98499500D01*
X175706815Y-98533607D01*
X175706811Y-98533608D01*
X175592685Y-98599500D01*
X175592685Y-98599501D01*
X175499501Y-98692685D01*
X175499500Y-98692685D01*
X175433608Y-98806811D01*
X175433607Y-98806815D01*
X175399500Y-98934104D01*
X159742768Y-98934104D01*
X159766392Y-98893186D01*
X159800499Y-98765895D01*
X159800500Y-98765895D01*
X159800500Y-98634105D01*
X159800499Y-98634104D01*
X159766392Y-98506815D01*
X159766391Y-98506811D01*
X159700499Y-98392685D01*
X159607314Y-98299500D01*
X159493188Y-98233608D01*
X159493184Y-98233607D01*
X159365895Y-98199500D01*
X159365892Y-98199500D01*
X159234108Y-98199500D01*
X159234105Y-98199500D01*
X159106815Y-98233607D01*
X159106811Y-98233608D01*
X158992685Y-98299500D01*
X158992685Y-98299501D01*
X158907038Y-98385148D01*
X158872390Y-98399500D01*
X157244767Y-98399500D01*
X157210119Y-98385148D01*
X155859075Y-97034104D01*
X156999500Y-97034104D01*
X156999500Y-97165895D01*
X157033607Y-97293184D01*
X157033608Y-97293188D01*
X157099500Y-97407314D01*
X157192686Y-97500500D01*
X157234457Y-97524617D01*
X157306811Y-97566391D01*
X157306813Y-97566391D01*
X157306814Y-97566392D01*
X157407207Y-97593292D01*
X157434104Y-97600499D01*
X157434105Y-97600500D01*
X157434108Y-97600500D01*
X157565895Y-97600500D01*
X157565895Y-97600499D01*
X157693186Y-97566392D01*
X157726662Y-97547064D01*
X157751161Y-97540500D01*
X166992390Y-97540500D01*
X167027038Y-97554852D01*
X167112686Y-97640500D01*
X167148186Y-97660996D01*
X167226811Y-97706391D01*
X167226813Y-97706391D01*
X167226814Y-97706392D01*
X167295257Y-97724731D01*
X167354104Y-97740499D01*
X167354105Y-97740500D01*
X167354108Y-97740500D01*
X167485895Y-97740500D01*
X167485895Y-97740499D01*
X167613186Y-97706392D01*
X167727314Y-97640500D01*
X167820500Y-97547314D01*
X167886392Y-97433186D01*
X167920499Y-97305895D01*
X167920500Y-97305895D01*
X167920500Y-97174105D01*
X167920499Y-97174104D01*
X167893302Y-97072602D01*
X167886392Y-97046814D01*
X167886391Y-97046813D01*
X167886391Y-97046811D01*
X167835153Y-96958066D01*
X167820500Y-96932686D01*
X167727314Y-96839500D01*
X167704735Y-96826464D01*
X167613188Y-96773608D01*
X167613184Y-96773607D01*
X167485895Y-96739500D01*
X167485892Y-96739500D01*
X167354108Y-96739500D01*
X167354105Y-96739500D01*
X167226815Y-96773607D01*
X167226811Y-96773608D01*
X167112685Y-96839500D01*
X167112685Y-96839501D01*
X167027038Y-96925148D01*
X166992390Y-96939500D01*
X162899110Y-96939500D01*
X162864462Y-96925148D01*
X162850110Y-96890500D01*
X162864462Y-96855852D01*
X162912999Y-96807315D01*
X162913000Y-96807314D01*
X162975383Y-96699264D01*
X162978891Y-96693188D01*
X162978891Y-96693187D01*
X162978892Y-96693186D01*
X163012999Y-96565895D01*
X163013000Y-96565895D01*
X163013000Y-96434105D01*
X163012999Y-96434104D01*
X162992196Y-96356466D01*
X162978892Y-96306814D01*
X162978891Y-96306813D01*
X162978891Y-96306811D01*
X162937117Y-96234457D01*
X162913000Y-96192686D01*
X162819814Y-96099500D01*
X162705688Y-96033608D01*
X162705684Y-96033607D01*
X162578395Y-95999500D01*
X162578392Y-95999500D01*
X162446608Y-95999500D01*
X162446605Y-95999500D01*
X162319315Y-96033607D01*
X162319311Y-96033608D01*
X162205185Y-96099500D01*
X162205185Y-96099501D01*
X162112001Y-96192685D01*
X162112000Y-96192685D01*
X162046108Y-96306811D01*
X162046107Y-96306815D01*
X162012000Y-96434104D01*
X162012000Y-96565895D01*
X162046107Y-96693184D01*
X162046108Y-96693188D01*
X162112000Y-96807314D01*
X162160538Y-96855852D01*
X162174890Y-96890500D01*
X162160538Y-96925148D01*
X162125890Y-96939500D01*
X158012671Y-96939500D01*
X157978023Y-96925148D01*
X157967398Y-96909246D01*
X157966394Y-96906822D01*
X157966392Y-96906814D01*
X157900500Y-96792686D01*
X157807314Y-96699500D01*
X157806904Y-96699263D01*
X157693188Y-96633608D01*
X157693184Y-96633607D01*
X157565895Y-96599500D01*
X157565892Y-96599500D01*
X157434108Y-96599500D01*
X157434105Y-96599500D01*
X157306815Y-96633607D01*
X157306811Y-96633608D01*
X157192685Y-96699500D01*
X157192685Y-96699501D01*
X157099501Y-96792685D01*
X157099500Y-96792685D01*
X157033608Y-96906811D01*
X157033607Y-96906815D01*
X156999500Y-97034104D01*
X155859075Y-97034104D01*
X155764852Y-96939881D01*
X155750500Y-96905233D01*
X155750500Y-95634104D01*
X165899500Y-95634104D01*
X165899500Y-95765895D01*
X165933607Y-95893184D01*
X165933608Y-95893188D01*
X165995413Y-96000235D01*
X165999500Y-96007314D01*
X166092686Y-96100500D01*
X166134457Y-96124617D01*
X166206811Y-96166391D01*
X166206813Y-96166391D01*
X166206814Y-96166392D01*
X166306804Y-96193184D01*
X166334104Y-96200499D01*
X166334105Y-96200500D01*
X166334108Y-96200500D01*
X166465895Y-96200500D01*
X166465895Y-96200499D01*
X166593186Y-96166392D01*
X166707314Y-96100500D01*
X166800500Y-96007314D01*
X166866392Y-95893186D01*
X166900499Y-95765895D01*
X166900500Y-95765895D01*
X166900500Y-95634105D01*
X166900499Y-95634104D01*
X166877202Y-95547158D01*
X166866392Y-95506814D01*
X166866391Y-95506813D01*
X166866391Y-95506811D01*
X166808946Y-95407315D01*
X166800500Y-95392686D01*
X166707314Y-95299500D01*
X166593188Y-95233608D01*
X166593184Y-95233607D01*
X166465895Y-95199500D01*
X166465892Y-95199500D01*
X166334108Y-95199500D01*
X166334105Y-95199500D01*
X166206815Y-95233607D01*
X166206811Y-95233608D01*
X166092685Y-95299500D01*
X166092685Y-95299501D01*
X165999501Y-95392685D01*
X165999500Y-95392685D01*
X165933608Y-95506811D01*
X165933607Y-95506815D01*
X165899500Y-95634104D01*
X155750500Y-95634104D01*
X155750500Y-92584104D01*
X155949500Y-92584104D01*
X155949500Y-92715895D01*
X155983607Y-92843184D01*
X155983608Y-92843188D01*
X156045566Y-92950500D01*
X156049500Y-92957314D01*
X156142686Y-93050500D01*
X156184457Y-93074617D01*
X156256811Y-93116391D01*
X156256813Y-93116391D01*
X156256814Y-93116392D01*
X156357207Y-93143292D01*
X156384104Y-93150499D01*
X156384105Y-93150500D01*
X156384108Y-93150500D01*
X156515895Y-93150500D01*
X156515895Y-93150499D01*
X156643186Y-93116392D01*
X156757314Y-93050500D01*
X156842962Y-92964852D01*
X156877610Y-92950500D01*
X172405233Y-92950500D01*
X172439881Y-92964852D01*
X175302663Y-95827634D01*
X175317015Y-95862282D01*
X175315346Y-95874963D01*
X175299500Y-95934108D01*
X175299500Y-96065895D01*
X175333607Y-96193184D01*
X175333608Y-96193188D01*
X175374873Y-96264659D01*
X175399500Y-96307314D01*
X175492686Y-96400500D01*
X175534457Y-96424617D01*
X175606811Y-96466391D01*
X175606813Y-96466391D01*
X175606814Y-96466392D01*
X175707207Y-96493292D01*
X175734104Y-96500499D01*
X175734105Y-96500500D01*
X175734108Y-96500500D01*
X175865895Y-96500500D01*
X175865895Y-96500499D01*
X175993186Y-96466392D01*
X176107314Y-96400500D01*
X176200500Y-96307314D01*
X176266392Y-96193186D01*
X176300499Y-96065895D01*
X176300500Y-96065895D01*
X176300500Y-95934105D01*
X176300499Y-95934104D01*
X176273235Y-95832353D01*
X176266392Y-95806814D01*
X176266391Y-95806813D01*
X176266391Y-95806811D01*
X176200499Y-95692685D01*
X176107314Y-95599500D01*
X175993188Y-95533608D01*
X175993184Y-95533607D01*
X175865895Y-95499500D01*
X175865892Y-95499500D01*
X175844767Y-95499500D01*
X175810119Y-95485148D01*
X172734513Y-92409542D01*
X172734507Y-92409537D01*
X172723722Y-92403311D01*
X172717121Y-92399500D01*
X172704017Y-92391934D01*
X172681188Y-92362182D01*
X172686083Y-92325000D01*
X172715836Y-92302170D01*
X172728518Y-92300500D01*
X173155233Y-92300500D01*
X173189881Y-92314852D01*
X175285148Y-94410119D01*
X175299500Y-94444767D01*
X175299500Y-94565895D01*
X175333607Y-94693184D01*
X175333608Y-94693188D01*
X175399500Y-94807314D01*
X175492686Y-94900500D01*
X175503624Y-94906815D01*
X175606811Y-94966391D01*
X175606813Y-94966391D01*
X175606814Y-94966392D01*
X175707207Y-94993292D01*
X175734104Y-95000499D01*
X175734105Y-95000500D01*
X175734108Y-95000500D01*
X175865895Y-95000500D01*
X175865895Y-95000499D01*
X175993186Y-94966392D01*
X176107314Y-94900500D01*
X176200500Y-94807314D01*
X176266392Y-94693186D01*
X176300499Y-94565895D01*
X176300500Y-94565895D01*
X176300500Y-94434105D01*
X176300499Y-94434104D01*
X176266392Y-94306815D01*
X176266391Y-94306811D01*
X176200499Y-94192685D01*
X176107314Y-94099500D01*
X175993188Y-94033608D01*
X175993184Y-94033607D01*
X175865895Y-93999500D01*
X175865892Y-93999500D01*
X175744767Y-93999500D01*
X175710119Y-93985148D01*
X173484513Y-91759542D01*
X173484511Y-91759540D01*
X173470812Y-91751631D01*
X173415991Y-91719979D01*
X173415987Y-91719978D01*
X173339564Y-91699500D01*
X173339562Y-91699500D01*
X160627610Y-91699500D01*
X160592962Y-91685148D01*
X160507314Y-91599500D01*
X160393188Y-91533608D01*
X160393184Y-91533607D01*
X160265895Y-91499500D01*
X160265892Y-91499500D01*
X160134108Y-91499500D01*
X160134105Y-91499500D01*
X160006815Y-91533607D01*
X160006811Y-91533608D01*
X159892685Y-91599500D01*
X159892685Y-91599501D01*
X159799501Y-91692685D01*
X159799500Y-91692685D01*
X159733608Y-91806811D01*
X159733607Y-91806815D01*
X159699500Y-91934104D01*
X159699500Y-92065895D01*
X159733607Y-92193184D01*
X159733608Y-92193188D01*
X159781421Y-92276000D01*
X159786316Y-92313182D01*
X159763486Y-92342935D01*
X159738986Y-92349500D01*
X156877610Y-92349500D01*
X156842962Y-92335148D01*
X156757314Y-92249500D01*
X156643188Y-92183608D01*
X156643184Y-92183607D01*
X156515895Y-92149500D01*
X156515892Y-92149500D01*
X156384108Y-92149500D01*
X156384105Y-92149500D01*
X156256815Y-92183607D01*
X156256811Y-92183608D01*
X156142685Y-92249500D01*
X156142685Y-92249501D01*
X156049501Y-92342685D01*
X156049500Y-92342685D01*
X155983608Y-92456811D01*
X155983607Y-92456815D01*
X155949500Y-92584104D01*
X155750500Y-92584104D01*
X155750500Y-91661014D01*
X155764852Y-91626366D01*
X155799500Y-91612014D01*
X155824000Y-91618579D01*
X155906811Y-91666391D01*
X155906813Y-91666391D01*
X155906814Y-91666392D01*
X156007207Y-91693292D01*
X156034104Y-91700499D01*
X156034105Y-91700500D01*
X156034108Y-91700500D01*
X156165895Y-91700500D01*
X156165895Y-91700499D01*
X156293186Y-91666392D01*
X156407314Y-91600500D01*
X156500500Y-91507314D01*
X156566392Y-91393186D01*
X156600499Y-91265895D01*
X156600500Y-91265895D01*
X156600500Y-91144766D01*
X156614852Y-91110118D01*
X157001119Y-90723852D01*
X157035767Y-90709500D01*
X170830564Y-90709500D01*
X170860283Y-90701536D01*
X170906989Y-90689021D01*
X170975511Y-90649460D01*
X171031460Y-90593511D01*
X173390866Y-88234104D01*
X175399500Y-88234104D01*
X175399500Y-88365895D01*
X175433607Y-88493184D01*
X175433608Y-88493188D01*
X175495565Y-88600499D01*
X175499500Y-88607314D01*
X175592686Y-88700500D01*
X175634457Y-88724617D01*
X175706811Y-88766391D01*
X175706813Y-88766391D01*
X175706814Y-88766392D01*
X175807207Y-88793292D01*
X175834104Y-88800499D01*
X175834105Y-88800500D01*
X175834108Y-88800500D01*
X175965895Y-88800500D01*
X175965895Y-88800499D01*
X176093186Y-88766392D01*
X176207314Y-88700500D01*
X176300500Y-88607314D01*
X176366392Y-88493186D01*
X176400499Y-88365895D01*
X176400500Y-88365895D01*
X176400500Y-88234105D01*
X176400499Y-88234104D01*
X176373705Y-88134108D01*
X176366392Y-88106814D01*
X176366391Y-88106813D01*
X176366391Y-88106811D01*
X176300499Y-87992685D01*
X176207314Y-87899500D01*
X176093188Y-87833608D01*
X176093184Y-87833607D01*
X175965895Y-87799500D01*
X175965892Y-87799500D01*
X175834108Y-87799500D01*
X175834105Y-87799500D01*
X175706815Y-87833607D01*
X175706811Y-87833608D01*
X175592685Y-87899500D01*
X175592685Y-87899501D01*
X175499501Y-87992685D01*
X175499500Y-87992685D01*
X175433608Y-88106811D01*
X175433607Y-88106815D01*
X175399500Y-88234104D01*
X173390866Y-88234104D01*
X175810118Y-85814851D01*
X175844766Y-85800500D01*
X175965895Y-85800500D01*
X175965895Y-85800499D01*
X176093186Y-85766392D01*
X176207314Y-85700500D01*
X176300500Y-85607314D01*
X176366392Y-85493186D01*
X176400499Y-85365895D01*
X176400500Y-85365895D01*
X176400500Y-85234105D01*
X176400499Y-85234104D01*
X176373705Y-85134108D01*
X176366392Y-85106814D01*
X176366391Y-85106813D01*
X176366391Y-85106811D01*
X176300499Y-84992685D01*
X176207314Y-84899500D01*
X176093188Y-84833608D01*
X176093184Y-84833607D01*
X175965895Y-84799500D01*
X175965892Y-84799500D01*
X175834108Y-84799500D01*
X175834105Y-84799500D01*
X175706815Y-84833607D01*
X175706811Y-84833608D01*
X175592685Y-84899500D01*
X175499501Y-84992685D01*
X175499500Y-84992685D01*
X175433608Y-85106811D01*
X175433607Y-85106815D01*
X175399500Y-85234104D01*
X175399500Y-85355232D01*
X175385148Y-85389880D01*
X170680881Y-90094148D01*
X170646233Y-90108500D01*
X156851436Y-90108500D01*
X156775010Y-90128979D01*
X156775008Y-90128979D01*
X156706488Y-90168540D01*
X156189880Y-90685148D01*
X156155232Y-90699500D01*
X156034105Y-90699500D01*
X155906815Y-90733607D01*
X155906811Y-90733608D01*
X155824000Y-90781420D01*
X155811318Y-90783089D01*
X155799500Y-90787985D01*
X155793382Y-90785450D01*
X155786818Y-90786315D01*
X155776670Y-90778528D01*
X155764852Y-90773633D01*
X155762318Y-90767515D01*
X155757065Y-90763485D01*
X155750500Y-90738985D01*
X155750500Y-90694767D01*
X155764852Y-90660119D01*
X159310867Y-87114104D01*
X164199500Y-87114104D01*
X164199500Y-87245895D01*
X164233607Y-87373184D01*
X164233608Y-87373188D01*
X164268781Y-87434108D01*
X164299500Y-87487314D01*
X164392686Y-87580500D01*
X164452465Y-87615013D01*
X164508845Y-87647565D01*
X164531675Y-87677318D01*
X164526780Y-87714500D01*
X164508845Y-87732435D01*
X164392685Y-87799500D01*
X164299501Y-87892685D01*
X164299500Y-87892685D01*
X164233608Y-88006811D01*
X164233607Y-88006815D01*
X164199500Y-88134104D01*
X164199500Y-88265895D01*
X164233607Y-88393184D01*
X164233608Y-88393188D01*
X164247214Y-88416753D01*
X164299500Y-88507314D01*
X164392686Y-88600500D01*
X164404490Y-88607315D01*
X164506811Y-88666391D01*
X164506813Y-88666391D01*
X164506814Y-88666392D01*
X164607207Y-88693292D01*
X164634104Y-88700499D01*
X164634105Y-88700500D01*
X164634108Y-88700500D01*
X164765895Y-88700500D01*
X164765895Y-88700499D01*
X164893186Y-88666392D01*
X165007314Y-88600500D01*
X165100500Y-88507314D01*
X165166392Y-88393186D01*
X165200499Y-88265895D01*
X165200500Y-88265895D01*
X165200500Y-88134105D01*
X165200499Y-88134104D01*
X165166392Y-88006815D01*
X165166391Y-88006811D01*
X165105011Y-87900499D01*
X165100500Y-87892686D01*
X165007314Y-87799500D01*
X164893186Y-87733608D01*
X164893185Y-87733607D01*
X164891154Y-87732435D01*
X164868324Y-87702682D01*
X164873219Y-87665500D01*
X164891154Y-87647565D01*
X164893186Y-87646392D01*
X165007314Y-87580500D01*
X165100500Y-87487314D01*
X165166392Y-87373186D01*
X165200499Y-87245895D01*
X165200500Y-87245895D01*
X165200500Y-87114105D01*
X165200499Y-87114104D01*
X165166392Y-86986815D01*
X165166391Y-86986811D01*
X165100499Y-86872685D01*
X165007314Y-86779500D01*
X164893188Y-86713608D01*
X164893184Y-86713607D01*
X164765895Y-86679500D01*
X164765892Y-86679500D01*
X164634108Y-86679500D01*
X164634105Y-86679500D01*
X164506815Y-86713607D01*
X164506811Y-86713608D01*
X164392685Y-86779500D01*
X164392685Y-86779501D01*
X164299501Y-86872685D01*
X164299500Y-86872685D01*
X164233608Y-86986811D01*
X164233607Y-86986815D01*
X164199500Y-87114104D01*
X159310867Y-87114104D01*
X160910119Y-85514852D01*
X160944767Y-85500500D01*
X163372390Y-85500500D01*
X163407038Y-85514852D01*
X163492686Y-85600500D01*
X163504490Y-85607315D01*
X163606811Y-85666391D01*
X163606813Y-85666391D01*
X163606814Y-85666392D01*
X163707207Y-85693292D01*
X163734104Y-85700499D01*
X163734105Y-85700500D01*
X163734108Y-85700500D01*
X163865895Y-85700500D01*
X163865895Y-85700499D01*
X163993186Y-85666392D01*
X164107314Y-85600500D01*
X164200500Y-85507314D01*
X164266392Y-85393186D01*
X164300499Y-85265895D01*
X164300500Y-85265895D01*
X164300500Y-85134105D01*
X164300499Y-85134104D01*
X164283100Y-85069170D01*
X164266392Y-85006814D01*
X164266391Y-85006813D01*
X164266391Y-85006811D01*
X164216257Y-84919978D01*
X164200500Y-84892686D01*
X164107314Y-84799500D01*
X163993188Y-84733608D01*
X163993184Y-84733607D01*
X163865895Y-84699500D01*
X163865892Y-84699500D01*
X163734108Y-84699500D01*
X163734105Y-84699500D01*
X163606815Y-84733607D01*
X163606811Y-84733608D01*
X163492685Y-84799500D01*
X163407038Y-84885148D01*
X163372390Y-84899500D01*
X160760435Y-84899500D01*
X160684013Y-84919977D01*
X160684010Y-84919978D01*
X160615488Y-84959540D01*
X160615488Y-84959541D01*
X155209541Y-90365488D01*
X155209540Y-90365488D01*
X155169979Y-90434008D01*
X155169979Y-90434010D01*
X155149500Y-90510436D01*
X155149500Y-90673390D01*
X155135148Y-90708038D01*
X155100500Y-90722390D01*
X155065852Y-90708038D01*
X155007314Y-90649500D01*
X154893188Y-90583608D01*
X154893184Y-90583607D01*
X154765895Y-90549500D01*
X154765892Y-90549500D01*
X154634108Y-90549500D01*
X154634105Y-90549500D01*
X154506815Y-90583607D01*
X154506811Y-90583608D01*
X154392685Y-90649500D01*
X154392685Y-90649501D01*
X154299501Y-90742685D01*
X154299500Y-90742685D01*
X154233608Y-90856811D01*
X154233607Y-90856815D01*
X154199500Y-90984104D01*
X154199500Y-91115895D01*
X154233607Y-91243184D01*
X154233608Y-91243188D01*
X154299500Y-91357314D01*
X154392686Y-91450500D01*
X154392687Y-91450501D01*
X154392689Y-91450502D01*
X154399999Y-91454722D01*
X154422830Y-91484475D01*
X154424500Y-91497158D01*
X154424500Y-99154801D01*
X154463258Y-99248369D01*
X154466443Y-99256059D01*
X154743939Y-99533556D01*
X154743941Y-99533557D01*
X154743942Y-99533558D01*
X154845200Y-99575500D01*
X154954800Y-99575500D01*
X158280177Y-99575500D01*
X158314824Y-99589851D01*
X158366496Y-99641523D01*
X158380848Y-99676171D01*
X158366496Y-99710819D01*
X158344531Y-99723501D01*
X158306813Y-99733608D01*
X158306811Y-99733608D01*
X158192685Y-99799500D01*
X158192685Y-99799501D01*
X158107038Y-99885148D01*
X158072390Y-99899500D01*
X143908411Y-99899500D01*
X143873763Y-99885148D01*
X143859411Y-99850500D01*
X143873763Y-99815852D01*
X146990354Y-96699263D01*
X152982253Y-96699263D01*
X152982253Y-96831054D01*
X153016360Y-96958343D01*
X153016361Y-96958347D01*
X153067439Y-97046815D01*
X153082253Y-97072473D01*
X153175439Y-97165659D01*
X153217210Y-97189776D01*
X153289564Y-97231550D01*
X153289566Y-97231550D01*
X153289567Y-97231551D01*
X153363556Y-97251376D01*
X153416857Y-97265658D01*
X153416858Y-97265659D01*
X153416861Y-97265659D01*
X153548648Y-97265659D01*
X153548648Y-97265658D01*
X153675939Y-97231551D01*
X153790067Y-97165659D01*
X153883253Y-97072473D01*
X153949145Y-96958345D01*
X153983252Y-96831054D01*
X153983253Y-96831054D01*
X153983253Y-96699264D01*
X153983252Y-96699263D01*
X153957352Y-96602602D01*
X153949145Y-96571973D01*
X153949144Y-96571972D01*
X153949144Y-96571970D01*
X153907370Y-96499616D01*
X153883253Y-96457845D01*
X153790067Y-96364659D01*
X153675941Y-96298767D01*
X153675937Y-96298766D01*
X153548648Y-96264659D01*
X153548645Y-96264659D01*
X153416861Y-96264659D01*
X153416858Y-96264659D01*
X153289568Y-96298766D01*
X153289564Y-96298767D01*
X153175438Y-96364659D01*
X153175438Y-96364660D01*
X153082254Y-96457844D01*
X153082253Y-96457844D01*
X153016361Y-96571970D01*
X153016360Y-96571974D01*
X152982253Y-96699263D01*
X146990354Y-96699263D01*
X147028210Y-96661407D01*
X147433556Y-96256061D01*
X147433556Y-96256059D01*
X147433558Y-96256058D01*
X147475500Y-96154800D01*
X147475500Y-96045200D01*
X147475500Y-95547158D01*
X147489852Y-95512510D01*
X147500001Y-95504722D01*
X147500573Y-95504391D01*
X147507314Y-95500500D01*
X147600500Y-95407314D01*
X147666392Y-95293186D01*
X147700499Y-95165895D01*
X147700500Y-95165895D01*
X147700500Y-95034105D01*
X147700499Y-95034104D01*
X147666392Y-94906815D01*
X147666391Y-94906811D01*
X147612219Y-94812984D01*
X147600500Y-94792686D01*
X147507314Y-94699500D01*
X147393188Y-94633608D01*
X147393184Y-94633607D01*
X147265895Y-94599500D01*
X147265892Y-94599500D01*
X147134108Y-94599500D01*
X147134105Y-94599500D01*
X147006815Y-94633607D01*
X147006811Y-94633608D01*
X146892685Y-94699500D01*
X146892685Y-94699501D01*
X146799501Y-94792685D01*
X146799500Y-94792685D01*
X146733608Y-94906811D01*
X146733607Y-94906815D01*
X146699500Y-95034104D01*
X146699500Y-95165895D01*
X146733607Y-95293184D01*
X146733608Y-95293188D01*
X146791054Y-95392685D01*
X146799500Y-95407314D01*
X146892686Y-95500500D01*
X146892687Y-95500501D01*
X146892689Y-95500502D01*
X146899999Y-95504722D01*
X146922830Y-95534475D01*
X146924500Y-95547158D01*
X146924500Y-95965587D01*
X146910148Y-96000235D01*
X145649528Y-97260855D01*
X145614880Y-97275207D01*
X145580232Y-97260855D01*
X145565880Y-97226207D01*
X145565880Y-97199485D01*
X145565879Y-97199484D01*
X145536426Y-97089563D01*
X145531772Y-97072194D01*
X145531771Y-97072193D01*
X145531771Y-97072191D01*
X145465879Y-96958065D01*
X145372694Y-96864880D01*
X145258568Y-96798988D01*
X145258564Y-96798987D01*
X145131275Y-96764880D01*
X145131272Y-96764880D01*
X144999488Y-96764880D01*
X144999485Y-96764880D01*
X144872195Y-96798987D01*
X144872191Y-96798988D01*
X144758065Y-96864880D01*
X144758065Y-96864881D01*
X144664881Y-96958065D01*
X144664880Y-96958065D01*
X144598988Y-97072191D01*
X144598987Y-97072195D01*
X144564880Y-97199484D01*
X144564880Y-97331274D01*
X144567065Y-97339429D01*
X144562170Y-97376611D01*
X144554383Y-97386759D01*
X142728724Y-99212419D01*
X142694076Y-99226771D01*
X142659428Y-99212419D01*
X142646619Y-99185816D01*
X142645919Y-99185965D01*
X142634695Y-99132960D01*
X142625206Y-99088141D01*
X142610861Y-99054296D01*
X142556286Y-98973338D01*
X142556284Y-98973337D01*
X142556284Y-98973336D01*
X142522000Y-98950427D01*
X142501165Y-98919244D01*
X142508483Y-98882462D01*
X142514571Y-98875043D01*
X143728619Y-97660995D01*
X143763266Y-97646644D01*
X143775950Y-97648314D01*
X143784107Y-97650500D01*
X143784108Y-97650500D01*
X143915895Y-97650500D01*
X143915895Y-97650499D01*
X144043186Y-97616392D01*
X144157314Y-97550500D01*
X144250500Y-97457314D01*
X144316392Y-97343186D01*
X144350499Y-97215895D01*
X144350500Y-97215895D01*
X144350500Y-97084105D01*
X144350499Y-97084104D01*
X144337102Y-97034104D01*
X144316392Y-96956814D01*
X144316391Y-96956813D01*
X144316391Y-96956811D01*
X144250499Y-96842685D01*
X144157314Y-96749500D01*
X144043188Y-96683608D01*
X144043184Y-96683607D01*
X143915895Y-96649500D01*
X143915892Y-96649500D01*
X143784108Y-96649500D01*
X143784105Y-96649500D01*
X143656815Y-96683607D01*
X143656811Y-96683608D01*
X143542685Y-96749500D01*
X143542685Y-96749501D01*
X143449501Y-96842685D01*
X143449500Y-96842685D01*
X143383608Y-96956811D01*
X143383607Y-96956815D01*
X143349500Y-97084104D01*
X143349500Y-97215894D01*
X143351685Y-97224049D01*
X143346790Y-97261231D01*
X143339003Y-97271379D01*
X142707519Y-97902863D01*
X142672871Y-97917215D01*
X142638223Y-97902863D01*
X142623878Y-97869017D01*
X142623639Y-97854392D01*
X142623639Y-97854391D01*
X142580683Y-95234104D01*
X144024500Y-95234104D01*
X144024500Y-95365895D01*
X144058607Y-95493184D01*
X144058608Y-95493188D01*
X144124500Y-95607314D01*
X144217686Y-95700500D01*
X144259457Y-95724617D01*
X144331811Y-95766391D01*
X144331813Y-95766391D01*
X144331814Y-95766392D01*
X144408288Y-95786883D01*
X144459104Y-95800499D01*
X144459105Y-95800500D01*
X144459108Y-95800500D01*
X144590895Y-95800500D01*
X144590895Y-95800499D01*
X144718186Y-95766392D01*
X144832314Y-95700500D01*
X144925500Y-95607314D01*
X144991392Y-95493186D01*
X145025499Y-95365895D01*
X145025500Y-95365895D01*
X145025500Y-95234105D01*
X145025499Y-95234104D01*
X145016227Y-95199500D01*
X144991392Y-95106814D01*
X144991391Y-95106813D01*
X144991391Y-95106811D01*
X144937219Y-95012984D01*
X144925500Y-94992686D01*
X144832314Y-94899500D01*
X144718188Y-94833608D01*
X144718184Y-94833607D01*
X144590895Y-94799500D01*
X144590892Y-94799500D01*
X144459108Y-94799500D01*
X144459105Y-94799500D01*
X144331815Y-94833607D01*
X144331811Y-94833608D01*
X144217685Y-94899500D01*
X144124501Y-94992685D01*
X144124500Y-94992685D01*
X144058608Y-95106811D01*
X144058607Y-95106815D01*
X144024500Y-95234104D01*
X142580683Y-95234104D01*
X142560538Y-94005301D01*
X142574319Y-93970424D01*
X142608728Y-93955507D01*
X142609531Y-93955500D01*
X143595159Y-93955500D01*
X143595177Y-93955500D01*
X143620239Y-93954268D01*
X143629796Y-93953326D01*
X143654581Y-93949648D01*
X143716823Y-93937267D01*
X143764749Y-93922729D01*
X143782412Y-93915413D01*
X143826585Y-93891803D01*
X143875263Y-93859278D01*
X143913983Y-93827502D01*
X143927502Y-93813983D01*
X143959278Y-93775263D01*
X143991803Y-93726585D01*
X144015413Y-93682412D01*
X144022729Y-93664749D01*
X144037267Y-93616824D01*
X144037269Y-93616810D01*
X144037272Y-93616802D01*
X144049640Y-93554624D01*
X144049648Y-93554584D01*
X144053327Y-93529791D01*
X144054269Y-93520231D01*
X144055500Y-93495176D01*
X144055500Y-86804823D01*
X144054269Y-86779768D01*
X144053327Y-86770208D01*
X144049648Y-86745415D01*
X144043321Y-86713607D01*
X144037272Y-86683196D01*
X144037268Y-86683184D01*
X144037267Y-86683175D01*
X144022729Y-86635250D01*
X144015413Y-86617587D01*
X143991801Y-86573412D01*
X143959274Y-86524732D01*
X143959271Y-86524728D01*
X143959268Y-86524724D01*
X143927506Y-86486020D01*
X143927495Y-86486008D01*
X143913990Y-86472503D01*
X143913987Y-86472501D01*
X143913985Y-86472499D01*
X143875269Y-86440726D01*
X143826590Y-86408199D01*
X143826589Y-86408198D01*
X143826584Y-86408195D01*
X143782403Y-86384582D01*
X143764738Y-86377266D01*
X143764735Y-86377265D01*
X143764730Y-86377263D01*
X143732165Y-86367385D01*
X143716820Y-86362731D01*
X143716805Y-86362728D01*
X143716793Y-86362725D01*
X143654623Y-86350358D01*
X143654565Y-86350348D01*
X143629810Y-86346675D01*
X143620244Y-86345733D01*
X143620239Y-86345732D01*
X143606313Y-86345047D01*
X143595177Y-86344500D01*
X141174823Y-86344500D01*
X141174795Y-86344500D01*
X141149825Y-86345725D01*
X141140270Y-86346665D01*
X141115428Y-86350348D01*
X141115425Y-86350348D01*
X141053191Y-86362728D01*
X141053165Y-86362734D01*
X141005246Y-86377270D01*
X141005237Y-86377273D01*
X140987589Y-86384583D01*
X140943410Y-86408198D01*
X140894730Y-86440725D01*
X140894718Y-86440733D01*
X140856014Y-86472497D01*
X140855999Y-86472511D01*
X140842505Y-86486005D01*
X140842494Y-86486017D01*
X140810732Y-86524721D01*
X140810725Y-86524731D01*
X140778194Y-86573417D01*
X140754598Y-86617559D01*
X140754591Y-86617574D01*
X140747280Y-86635220D01*
X140732730Y-86683179D01*
X140732729Y-86683184D01*
X140720348Y-86745425D01*
X140720348Y-86745428D01*
X140716665Y-86770270D01*
X140715725Y-86779825D01*
X140714500Y-86804795D01*
X140714500Y-95753558D01*
X140716683Y-95786885D01*
X140718348Y-95799540D01*
X140724876Y-95832364D01*
X140739901Y-95888439D01*
X140739907Y-95888455D01*
X140765430Y-95950073D01*
X140778111Y-95972037D01*
X140818704Y-96024939D01*
X140818708Y-96024943D01*
X140818713Y-96024949D01*
X140855050Y-96061286D01*
X140907967Y-96101890D01*
X140929933Y-96114572D01*
X140984251Y-96137071D01*
X140991143Y-96143963D01*
X141000148Y-96147693D01*
X141003877Y-96156696D01*
X141010770Y-96163589D01*
X141014500Y-96182341D01*
X141014500Y-96226254D01*
X141007936Y-96250753D01*
X140946905Y-96356464D01*
X140946904Y-96356466D01*
X140914500Y-96477397D01*
X140914500Y-96602602D01*
X140946904Y-96723533D01*
X140946906Y-96723539D01*
X140962472Y-96750502D01*
X140967366Y-96787684D01*
X140962472Y-96799498D01*
X140946906Y-96826460D01*
X140946904Y-96826466D01*
X140914500Y-96947397D01*
X140914500Y-97072602D01*
X140939524Y-97165991D01*
X140946905Y-97193536D01*
X140967473Y-97229161D01*
X140972367Y-97266343D01*
X140967473Y-97278158D01*
X140956906Y-97296460D01*
X140956904Y-97296466D01*
X140924500Y-97417397D01*
X140924500Y-97495500D01*
X140910148Y-97530148D01*
X140875500Y-97544500D01*
X140704795Y-97544500D01*
X140679825Y-97545725D01*
X140670270Y-97546665D01*
X140645428Y-97550348D01*
X140645425Y-97550348D01*
X140583191Y-97562728D01*
X140583165Y-97562734D01*
X140535246Y-97577270D01*
X140535237Y-97577273D01*
X140517589Y-97584583D01*
X140473410Y-97608198D01*
X140424730Y-97640725D01*
X140424718Y-97640733D01*
X140386014Y-97672497D01*
X140385999Y-97672511D01*
X140372505Y-97686005D01*
X140372494Y-97686017D01*
X140340732Y-97724721D01*
X140340725Y-97724731D01*
X140308194Y-97773417D01*
X140284598Y-97817559D01*
X140284591Y-97817574D01*
X140277280Y-97835220D01*
X140262730Y-97883179D01*
X140262729Y-97883184D01*
X140250348Y-97945425D01*
X140250348Y-97945428D01*
X140246665Y-97970270D01*
X140245725Y-97979825D01*
X140244500Y-98004795D01*
X140244500Y-99595198D01*
X140245727Y-99620172D01*
X140245730Y-99620218D01*
X140246668Y-99629743D01*
X140246670Y-99629766D01*
X140250346Y-99654553D01*
X140262731Y-99716821D01*
X140262733Y-99716828D01*
X140277273Y-99764762D01*
X140284591Y-99782426D01*
X140308196Y-99826584D01*
X140340723Y-99875264D01*
X140340730Y-99875274D01*
X140372492Y-99913978D01*
X140372503Y-99913990D01*
X140386008Y-99927495D01*
X140386020Y-99927506D01*
X140424724Y-99959268D01*
X140424728Y-99959271D01*
X140424732Y-99959274D01*
X140473412Y-99991801D01*
X140509749Y-100011223D01*
X140533540Y-100040211D01*
X140529865Y-100077533D01*
X140521298Y-100089084D01*
X138643942Y-101966443D01*
X138566444Y-102043939D01*
X138566444Y-102043940D01*
X138524500Y-102145198D01*
X138524500Y-105915588D01*
X138510148Y-105950236D01*
X137621380Y-106839003D01*
X137586732Y-106853355D01*
X137574050Y-106851685D01*
X137565895Y-106849500D01*
X137565892Y-106849500D01*
X137434108Y-106849500D01*
X137434105Y-106849500D01*
X137306815Y-106883607D01*
X137306811Y-106883608D01*
X137192685Y-106949500D01*
X137192685Y-106949501D01*
X137099501Y-107042685D01*
X137099500Y-107042685D01*
X137033608Y-107156811D01*
X137033607Y-107156815D01*
X136999500Y-107284104D01*
X130300500Y-107284104D01*
X130300500Y-92834104D01*
X137299500Y-92834104D01*
X137299500Y-92965895D01*
X137333607Y-93093184D01*
X137333608Y-93093188D01*
X137366698Y-93150500D01*
X137399500Y-93207314D01*
X137492686Y-93300500D01*
X137534457Y-93324617D01*
X137606811Y-93366391D01*
X137606813Y-93366391D01*
X137606814Y-93366392D01*
X137707207Y-93393292D01*
X137734104Y-93400499D01*
X137734105Y-93400500D01*
X137734108Y-93400500D01*
X137865895Y-93400500D01*
X137865895Y-93400499D01*
X137993186Y-93366392D01*
X138107314Y-93300500D01*
X138200500Y-93207314D01*
X138266392Y-93093186D01*
X138300499Y-92965895D01*
X138300500Y-92965895D01*
X138300500Y-92834105D01*
X138300499Y-92834104D01*
X138266392Y-92706815D01*
X138266391Y-92706811D01*
X138200499Y-92592685D01*
X138107314Y-92499500D01*
X137993188Y-92433608D01*
X137993184Y-92433607D01*
X137865895Y-92399500D01*
X137865892Y-92399500D01*
X137734108Y-92399500D01*
X137734105Y-92399500D01*
X137606815Y-92433607D01*
X137606811Y-92433608D01*
X137492685Y-92499500D01*
X137492685Y-92499501D01*
X137399501Y-92592685D01*
X137399500Y-92592685D01*
X137333608Y-92706811D01*
X137333607Y-92706815D01*
X137299500Y-92834104D01*
X130300500Y-92834104D01*
X130300500Y-87390000D01*
X131680137Y-87390000D01*
X132600254Y-87390000D01*
X132508393Y-87428050D01*
X132438063Y-87498380D01*
X132400001Y-87590270D01*
X132400001Y-87689730D01*
X132438063Y-87781620D01*
X132508393Y-87851950D01*
X132600254Y-87890000D01*
X131680137Y-87890000D01*
X131688429Y-87931689D01*
X131688429Y-87931690D01*
X131763809Y-88113674D01*
X131873246Y-88277460D01*
X132012539Y-88416753D01*
X132176325Y-88526190D01*
X132358310Y-88601570D01*
X132551512Y-88640000D01*
X132750000Y-88640000D01*
X132750000Y-87890012D01*
X133250000Y-87890012D01*
X133250000Y-88640000D01*
X133448488Y-88640000D01*
X133641689Y-88601570D01*
X133641690Y-88601570D01*
X133823674Y-88526190D01*
X133987460Y-88416753D01*
X134126753Y-88277460D01*
X134236190Y-88113674D01*
X134311570Y-87931690D01*
X134311570Y-87931689D01*
X134319863Y-87890000D01*
X133399746Y-87890000D01*
X133491607Y-87851950D01*
X133561937Y-87781620D01*
X133599999Y-87689730D01*
X133599999Y-87590270D01*
X133561937Y-87498380D01*
X133491607Y-87428050D01*
X133399746Y-87390000D01*
X134319862Y-87390000D01*
X135490137Y-87390000D01*
X136410254Y-87390000D01*
X136318393Y-87428050D01*
X136248063Y-87498380D01*
X136210001Y-87590270D01*
X136210001Y-87689730D01*
X136248063Y-87781620D01*
X136318393Y-87851950D01*
X136410254Y-87890000D01*
X135490137Y-87890000D01*
X135498429Y-87931689D01*
X135498429Y-87931690D01*
X135573809Y-88113674D01*
X135683246Y-88277460D01*
X135822539Y-88416753D01*
X135986325Y-88526190D01*
X136168310Y-88601570D01*
X136361512Y-88640000D01*
X136560000Y-88640000D01*
X136560000Y-87890012D01*
X137060000Y-87890012D01*
X137060000Y-88640000D01*
X137258488Y-88640000D01*
X137451689Y-88601570D01*
X137451690Y-88601570D01*
X137633674Y-88526190D01*
X137797460Y-88416753D01*
X137936753Y-88277460D01*
X138046190Y-88113674D01*
X138121570Y-87931690D01*
X138121570Y-87931689D01*
X138129863Y-87890000D01*
X137209746Y-87890000D01*
X137301607Y-87851950D01*
X137371937Y-87781620D01*
X137409999Y-87689730D01*
X137409999Y-87590270D01*
X137371937Y-87498380D01*
X137301607Y-87428050D01*
X137209746Y-87390000D01*
X138129862Y-87390000D01*
X138121570Y-87348310D01*
X138121570Y-87348309D01*
X138046190Y-87166325D01*
X137936753Y-87002539D01*
X137797460Y-86863246D01*
X137633674Y-86753809D01*
X137451689Y-86678429D01*
X137258488Y-86640000D01*
X137060000Y-86640000D01*
X137060000Y-87389988D01*
X136560000Y-87389988D01*
X136560000Y-86640000D01*
X136361512Y-86640000D01*
X136168310Y-86678429D01*
X136168309Y-86678429D01*
X135986325Y-86753809D01*
X135822539Y-86863246D01*
X135683246Y-87002539D01*
X135573809Y-87166325D01*
X135498429Y-87348309D01*
X135498429Y-87348310D01*
X135490137Y-87390000D01*
X134319862Y-87390000D01*
X134311570Y-87348310D01*
X134311570Y-87348309D01*
X134236190Y-87166325D01*
X134126753Y-87002539D01*
X133987460Y-86863246D01*
X133823674Y-86753809D01*
X133641689Y-86678429D01*
X133448488Y-86640000D01*
X133250000Y-86640000D01*
X133250000Y-87389988D01*
X132750000Y-87389988D01*
X132750000Y-86640000D01*
X132551512Y-86640000D01*
X132358310Y-86678429D01*
X132358309Y-86678429D01*
X132176325Y-86753809D01*
X132012539Y-86863246D01*
X131873246Y-87002539D01*
X131763809Y-87166325D01*
X131688429Y-87348309D01*
X131688429Y-87348310D01*
X131680137Y-87390000D01*
X130300500Y-87390000D01*
X130300500Y-84927522D01*
X149249500Y-84927522D01*
X149249500Y-85072477D01*
X149287015Y-85212483D01*
X149287016Y-85212487D01*
X149317852Y-85265895D01*
X149359491Y-85338015D01*
X149461985Y-85440509D01*
X149507930Y-85467035D01*
X149587512Y-85512983D01*
X149587514Y-85512983D01*
X149587515Y-85512984D01*
X149622517Y-85522363D01*
X149727522Y-85550500D01*
X149727525Y-85550500D01*
X149834522Y-85550500D01*
X149869170Y-85564852D01*
X151935148Y-87630830D01*
X151949500Y-87665478D01*
X151949500Y-94051680D01*
X151935148Y-94086328D01*
X151859492Y-94161984D01*
X151859491Y-94161984D01*
X151787016Y-94287512D01*
X151787015Y-94287516D01*
X151749500Y-94427522D01*
X151749500Y-94572477D01*
X151787015Y-94712483D01*
X151787016Y-94712487D01*
X151845039Y-94812984D01*
X151859491Y-94838015D01*
X151961985Y-94940509D01*
X152006814Y-94966391D01*
X152087512Y-95012983D01*
X152087514Y-95012983D01*
X152087515Y-95012984D01*
X152122517Y-95022363D01*
X152227522Y-95050500D01*
X152227525Y-95050500D01*
X152372477Y-95050500D01*
X152442480Y-95031742D01*
X152512485Y-95012984D01*
X152638015Y-94940509D01*
X152740509Y-94838015D01*
X152812984Y-94712485D01*
X152845607Y-94590737D01*
X152868437Y-94560984D01*
X152905619Y-94556089D01*
X152935371Y-94578918D01*
X152969491Y-94638015D01*
X153071985Y-94740509D01*
X153117930Y-94767035D01*
X153197512Y-94812983D01*
X153197514Y-94812983D01*
X153197515Y-94812984D01*
X153232517Y-94822363D01*
X153337522Y-94850500D01*
X153337525Y-94850500D01*
X153482477Y-94850500D01*
X153552480Y-94831742D01*
X153622485Y-94812984D01*
X153748015Y-94740509D01*
X153850509Y-94638015D01*
X153922984Y-94512485D01*
X153950413Y-94410119D01*
X153960500Y-94372477D01*
X153960500Y-94227522D01*
X153922984Y-94087516D01*
X153922983Y-94087512D01*
X153850508Y-93961984D01*
X153774852Y-93886328D01*
X153760500Y-93851680D01*
X153760500Y-87434104D01*
X156399500Y-87434104D01*
X156399500Y-87565895D01*
X156433607Y-87693184D01*
X156433608Y-87693188D01*
X156499500Y-87807314D01*
X156592686Y-87900500D01*
X156634457Y-87924617D01*
X156706811Y-87966391D01*
X156706813Y-87966391D01*
X156706814Y-87966392D01*
X156807207Y-87993292D01*
X156834104Y-88000499D01*
X156834105Y-88000500D01*
X156834108Y-88000500D01*
X156965895Y-88000500D01*
X156965895Y-88000499D01*
X157093186Y-87966392D01*
X157207314Y-87900500D01*
X157300500Y-87807314D01*
X157357563Y-87708478D01*
X157366391Y-87693188D01*
X157366391Y-87693187D01*
X157366392Y-87693186D01*
X157400499Y-87565895D01*
X157400500Y-87565895D01*
X157400500Y-87434105D01*
X157400499Y-87434104D01*
X157381906Y-87364713D01*
X157366392Y-87306814D01*
X157366391Y-87306813D01*
X157366391Y-87306811D01*
X157300499Y-87192685D01*
X157207314Y-87099500D01*
X157093188Y-87033608D01*
X157093184Y-87033607D01*
X156965895Y-86999500D01*
X156965892Y-86999500D01*
X156834108Y-86999500D01*
X156834105Y-86999500D01*
X156706815Y-87033607D01*
X156706811Y-87033608D01*
X156592685Y-87099500D01*
X156592685Y-87099501D01*
X156499501Y-87192685D01*
X156499500Y-87192685D01*
X156433608Y-87306811D01*
X156433607Y-87306815D01*
X156399500Y-87434104D01*
X153760500Y-87434104D01*
X153760500Y-83463853D01*
X153736614Y-83374713D01*
X153736613Y-83374709D01*
X153690469Y-83294787D01*
X150464852Y-80069170D01*
X150450500Y-80034522D01*
X150450500Y-79927522D01*
X150412984Y-79787516D01*
X150412983Y-79787512D01*
X150340508Y-79661984D01*
X150238015Y-79559491D01*
X150112487Y-79487016D01*
X150112483Y-79487015D01*
X149972478Y-79449500D01*
X149972475Y-79449500D01*
X149827525Y-79449500D01*
X149827522Y-79449500D01*
X149687516Y-79487015D01*
X149687512Y-79487016D01*
X149561984Y-79559491D01*
X149561984Y-79559492D01*
X149459492Y-79661984D01*
X149459491Y-79661984D01*
X149387016Y-79787512D01*
X149387015Y-79787516D01*
X149349500Y-79927522D01*
X149349500Y-80072477D01*
X149387015Y-80212483D01*
X149387016Y-80212487D01*
X149426294Y-80280517D01*
X149459491Y-80338015D01*
X149561985Y-80440509D01*
X149607930Y-80467035D01*
X149687512Y-80512983D01*
X149687514Y-80512983D01*
X149687515Y-80512984D01*
X149722517Y-80522363D01*
X149827522Y-80550500D01*
X149827525Y-80550500D01*
X149934522Y-80550500D01*
X149969170Y-80564852D01*
X153045148Y-83640830D01*
X153059500Y-83675478D01*
X153059500Y-93851680D01*
X153045148Y-93886328D01*
X152969492Y-93961984D01*
X152969491Y-93961984D01*
X152897016Y-94087512D01*
X152897016Y-94087514D01*
X152864392Y-94209263D01*
X152841561Y-94239016D01*
X152804379Y-94243910D01*
X152774628Y-94221080D01*
X152740509Y-94161985D01*
X152664852Y-94086328D01*
X152650500Y-94051680D01*
X152650500Y-87453853D01*
X152628885Y-87373188D01*
X152626614Y-87364712D01*
X152614580Y-87343869D01*
X152580470Y-87284788D01*
X150364852Y-85069170D01*
X150350500Y-85034522D01*
X150350500Y-84927522D01*
X150312984Y-84787516D01*
X150312983Y-84787512D01*
X150240508Y-84661984D01*
X150138015Y-84559491D01*
X150012487Y-84487016D01*
X150012483Y-84487015D01*
X149872478Y-84449500D01*
X149872475Y-84449500D01*
X149727525Y-84449500D01*
X149727522Y-84449500D01*
X149587516Y-84487015D01*
X149587512Y-84487016D01*
X149461984Y-84559491D01*
X149461984Y-84559492D01*
X149359492Y-84661984D01*
X149359491Y-84661984D01*
X149287016Y-84787512D01*
X149287015Y-84787516D01*
X149249500Y-84927522D01*
X130300500Y-84927522D01*
X130300500Y-78750000D01*
X131680137Y-78750000D01*
X132600254Y-78750000D01*
X132508393Y-78788050D01*
X132438063Y-78858380D01*
X132400001Y-78950270D01*
X132400001Y-79049730D01*
X132438063Y-79141620D01*
X132508393Y-79211950D01*
X132600254Y-79250000D01*
X131680137Y-79250000D01*
X131688429Y-79291689D01*
X131688429Y-79291690D01*
X131763809Y-79473674D01*
X131873246Y-79637460D01*
X132012539Y-79776753D01*
X132176325Y-79886190D01*
X132358310Y-79961570D01*
X132551512Y-80000000D01*
X132750000Y-80000000D01*
X132750000Y-79250012D01*
X133250000Y-79250012D01*
X133250000Y-80000000D01*
X133448488Y-80000000D01*
X133641689Y-79961570D01*
X133641690Y-79961570D01*
X133823674Y-79886190D01*
X133987460Y-79776753D01*
X134126753Y-79637460D01*
X134236190Y-79473674D01*
X134311570Y-79291690D01*
X134311570Y-79291689D01*
X134319863Y-79250000D01*
X133399746Y-79250000D01*
X133491607Y-79211950D01*
X133561937Y-79141620D01*
X133599999Y-79049730D01*
X133599999Y-78950270D01*
X133561937Y-78858380D01*
X133491607Y-78788050D01*
X133399746Y-78750000D01*
X134319862Y-78750000D01*
X135490137Y-78750000D01*
X136410254Y-78750000D01*
X136318393Y-78788050D01*
X136248063Y-78858380D01*
X136210001Y-78950270D01*
X136210001Y-79049730D01*
X136248063Y-79141620D01*
X136318393Y-79211950D01*
X136410254Y-79250000D01*
X135490137Y-79250000D01*
X135498429Y-79291689D01*
X135498429Y-79291690D01*
X135573809Y-79473674D01*
X135683246Y-79637460D01*
X135822539Y-79776753D01*
X135986325Y-79886190D01*
X136168310Y-79961570D01*
X136361512Y-80000000D01*
X136560000Y-80000000D01*
X136560000Y-79250012D01*
X137060000Y-79250012D01*
X137060000Y-80000000D01*
X137258488Y-80000000D01*
X137451689Y-79961570D01*
X137451690Y-79961570D01*
X137633674Y-79886190D01*
X137797460Y-79776753D01*
X137797461Y-79776752D01*
X137853275Y-79720939D01*
X144399500Y-79720939D01*
X144399500Y-79879060D01*
X144440422Y-80031782D01*
X144440423Y-80031786D01*
X144519475Y-80168709D01*
X144519478Y-80168713D01*
X144519480Y-80168716D01*
X144631284Y-80280520D01*
X144631287Y-80280521D01*
X144631290Y-80280524D01*
X144768213Y-80359576D01*
X144768215Y-80359576D01*
X144768216Y-80359577D01*
X144888665Y-80391851D01*
X144920939Y-80400499D01*
X144920940Y-80400500D01*
X144920943Y-80400500D01*
X145079060Y-80400500D01*
X145079060Y-80400499D01*
X145231784Y-80359577D01*
X145368716Y-80280520D01*
X145480520Y-80168716D01*
X145537992Y-80069170D01*
X145559576Y-80031786D01*
X145559576Y-80031785D01*
X145559577Y-80031784D01*
X145600499Y-79879060D01*
X145600500Y-79879060D01*
X145600500Y-79720940D01*
X145600499Y-79720939D01*
X145559577Y-79568217D01*
X145559576Y-79568213D01*
X145480524Y-79431290D01*
X145480521Y-79431287D01*
X145480520Y-79431284D01*
X145368716Y-79319480D01*
X145368713Y-79319478D01*
X145368709Y-79319475D01*
X145231786Y-79240423D01*
X145231782Y-79240422D01*
X145079060Y-79199500D01*
X145079057Y-79199500D01*
X144920943Y-79199500D01*
X144920940Y-79199500D01*
X144768217Y-79240422D01*
X144768213Y-79240423D01*
X144631290Y-79319475D01*
X144631281Y-79319482D01*
X144519482Y-79431281D01*
X144519475Y-79431290D01*
X144440423Y-79568213D01*
X144440422Y-79568217D01*
X144399500Y-79720939D01*
X137853275Y-79720939D01*
X137891131Y-79683083D01*
X137936752Y-79637461D01*
X137936753Y-79637460D01*
X138046190Y-79473674D01*
X138121570Y-79291690D01*
X138121570Y-79291689D01*
X138129863Y-79250000D01*
X137209746Y-79250000D01*
X137301607Y-79211950D01*
X137371937Y-79141620D01*
X137409999Y-79049730D01*
X137409999Y-78950270D01*
X137371937Y-78858380D01*
X137301607Y-78788050D01*
X137209746Y-78750000D01*
X138129862Y-78750000D01*
X138121570Y-78708310D01*
X138121570Y-78708309D01*
X138046190Y-78526325D01*
X137936753Y-78362539D01*
X137797460Y-78223246D01*
X137633674Y-78113809D01*
X137451689Y-78038429D01*
X137258488Y-78000000D01*
X137060000Y-78000000D01*
X137060000Y-78749988D01*
X136560000Y-78749988D01*
X136560000Y-78000000D01*
X136361512Y-78000000D01*
X136168310Y-78038429D01*
X136168309Y-78038429D01*
X135986325Y-78113809D01*
X135822539Y-78223246D01*
X135683246Y-78362539D01*
X135573809Y-78526325D01*
X135498429Y-78708309D01*
X135498429Y-78708310D01*
X135490137Y-78750000D01*
X134319862Y-78750000D01*
X134311570Y-78708310D01*
X134311570Y-78708309D01*
X134236190Y-78526325D01*
X134126753Y-78362539D01*
X133987460Y-78223246D01*
X133823674Y-78113809D01*
X133641689Y-78038429D01*
X133448488Y-78000000D01*
X133250000Y-78000000D01*
X133250000Y-78749988D01*
X132750000Y-78749988D01*
X132750000Y-78000000D01*
X132551512Y-78000000D01*
X132358310Y-78038429D01*
X132358309Y-78038429D01*
X132176325Y-78113809D01*
X132012539Y-78223246D01*
X131873246Y-78362539D01*
X131763809Y-78526325D01*
X131688429Y-78708309D01*
X131688429Y-78708310D01*
X131680137Y-78750000D01*
X130300500Y-78750000D01*
X130300500Y-74155558D01*
X135450000Y-74155558D01*
X135450000Y-74344441D01*
X135479547Y-74530998D01*
X135479548Y-74531001D01*
X135537915Y-74710638D01*
X135623669Y-74878939D01*
X135623671Y-74878943D01*
X135642115Y-74904328D01*
X135642116Y-74904328D01*
X136228279Y-74318165D01*
X136253970Y-74414041D01*
X136309921Y-74510952D01*
X136389048Y-74590079D01*
X136485959Y-74646030D01*
X136581833Y-74671719D01*
X135995669Y-75257883D01*
X136021063Y-75276331D01*
X136189361Y-75362084D01*
X136368998Y-75420451D01*
X136369001Y-75420452D01*
X136555559Y-75450000D01*
X136744441Y-75450000D01*
X136930998Y-75420452D01*
X136931001Y-75420451D01*
X137110638Y-75362084D01*
X137278933Y-75276333D01*
X137304328Y-75257882D01*
X136718165Y-74671719D01*
X136814041Y-74646030D01*
X136910952Y-74590079D01*
X136990079Y-74510952D01*
X137046030Y-74414041D01*
X137071719Y-74318165D01*
X137657882Y-74904328D01*
X137676333Y-74878933D01*
X137762084Y-74710638D01*
X137820451Y-74531001D01*
X137820452Y-74530998D01*
X137850000Y-74344441D01*
X137850000Y-74284104D01*
X164799500Y-74284104D01*
X164799500Y-74415895D01*
X164833607Y-74543184D01*
X164833608Y-74543188D01*
X164892985Y-74646030D01*
X164899500Y-74657314D01*
X164992686Y-74750500D01*
X165034457Y-74774617D01*
X165106811Y-74816391D01*
X165106813Y-74816391D01*
X165106814Y-74816392D01*
X165207207Y-74843292D01*
X165234104Y-74850499D01*
X165234105Y-74850500D01*
X165234108Y-74850500D01*
X165365895Y-74850500D01*
X165365895Y-74850499D01*
X165493186Y-74816392D01*
X165607314Y-74750500D01*
X165692962Y-74664852D01*
X165727610Y-74650500D01*
X177572390Y-74650500D01*
X177607038Y-74664852D01*
X177692686Y-74750500D01*
X177734457Y-74774617D01*
X177806811Y-74816391D01*
X177806813Y-74816391D01*
X177806814Y-74816392D01*
X177907207Y-74843292D01*
X177934104Y-74850499D01*
X177934105Y-74850500D01*
X177934108Y-74850500D01*
X178065895Y-74850500D01*
X178065895Y-74850499D01*
X178193186Y-74816392D01*
X178307314Y-74750500D01*
X178400500Y-74657314D01*
X178466392Y-74543186D01*
X178500499Y-74415895D01*
X178500500Y-74415895D01*
X178500500Y-74284105D01*
X178500499Y-74284104D01*
X178466392Y-74156815D01*
X178466391Y-74156811D01*
X178400499Y-74042685D01*
X178307314Y-73949500D01*
X178193188Y-73883608D01*
X178193184Y-73883607D01*
X178065895Y-73849500D01*
X178065892Y-73849500D01*
X177934108Y-73849500D01*
X177934105Y-73849500D01*
X177806815Y-73883607D01*
X177806811Y-73883608D01*
X177692685Y-73949500D01*
X177692685Y-73949501D01*
X177607038Y-74035148D01*
X177572390Y-74049500D01*
X165727610Y-74049500D01*
X165692962Y-74035148D01*
X165607314Y-73949500D01*
X165493188Y-73883608D01*
X165493184Y-73883607D01*
X165365895Y-73849500D01*
X165365892Y-73849500D01*
X165234108Y-73849500D01*
X165234105Y-73849500D01*
X165106815Y-73883607D01*
X165106811Y-73883608D01*
X164992685Y-73949500D01*
X164992685Y-73949501D01*
X164899501Y-74042685D01*
X164899500Y-74042685D01*
X164833608Y-74156811D01*
X164833607Y-74156815D01*
X164799500Y-74284104D01*
X137850000Y-74284104D01*
X137850000Y-74155558D01*
X137820452Y-73969001D01*
X137820451Y-73968998D01*
X137762084Y-73789361D01*
X137676331Y-73621063D01*
X137657883Y-73595669D01*
X137071719Y-74181833D01*
X137046030Y-74085959D01*
X136990079Y-73989048D01*
X136910952Y-73909921D01*
X136814041Y-73853970D01*
X136718165Y-73828280D01*
X137281594Y-73264852D01*
X137316242Y-73250500D01*
X137374674Y-73250500D01*
X137447740Y-73235966D01*
X137530601Y-73180601D01*
X137585966Y-73097740D01*
X137600500Y-73024674D01*
X137600500Y-71475326D01*
X137585966Y-71402260D01*
X137530601Y-71319398D01*
X137447739Y-71264033D01*
X137374677Y-71249500D01*
X137374674Y-71249500D01*
X135925326Y-71249500D01*
X135925322Y-71249500D01*
X135852260Y-71264033D01*
X135769398Y-71319398D01*
X135714033Y-71402260D01*
X135699500Y-71475322D01*
X135699500Y-73024677D01*
X135714033Y-73097739D01*
X135769398Y-73180601D01*
X135806650Y-73205491D01*
X135852260Y-73235966D01*
X135925326Y-73250500D01*
X135983758Y-73250500D01*
X136018406Y-73264852D01*
X136581834Y-73828280D01*
X136485959Y-73853970D01*
X136389048Y-73909921D01*
X136309921Y-73989048D01*
X136253970Y-74085959D01*
X136228280Y-74181833D01*
X135642117Y-73595670D01*
X135623666Y-73621066D01*
X135537915Y-73789361D01*
X135479548Y-73968998D01*
X135479547Y-73969001D01*
X135450000Y-74155558D01*
X130300500Y-74155558D01*
X130300500Y-66401078D01*
X145149500Y-66401078D01*
X145149500Y-66548921D01*
X145178340Y-66693906D01*
X145178342Y-66693915D01*
X145234914Y-66830491D01*
X145234916Y-66830495D01*
X145317049Y-66953416D01*
X145421584Y-67057951D01*
X145544505Y-67140084D01*
X145612796Y-67168371D01*
X145681084Y-67196657D01*
X145681085Y-67196657D01*
X145681087Y-67196658D01*
X145826082Y-67225500D01*
X159843836Y-67225500D01*
X159878484Y-67239852D01*
X165967048Y-73328415D01*
X165967049Y-73328416D01*
X166071584Y-73432951D01*
X166194505Y-73515084D01*
X166262796Y-73543371D01*
X166331084Y-73571657D01*
X166331085Y-73571657D01*
X166331087Y-73571658D01*
X166476082Y-73600500D01*
X173273918Y-73600500D01*
X173418913Y-73571658D01*
X173555495Y-73515084D01*
X173678416Y-73432951D01*
X173782951Y-73328416D01*
X173865084Y-73205495D01*
X173921658Y-73068913D01*
X173950500Y-72923918D01*
X173950500Y-72776082D01*
X173921658Y-72631087D01*
X173865084Y-72494505D01*
X173782951Y-72371584D01*
X173678416Y-72267049D01*
X173555495Y-72184916D01*
X173555492Y-72184914D01*
X173555491Y-72184914D01*
X173418915Y-72128342D01*
X173418906Y-72128340D01*
X173273921Y-72099500D01*
X173273918Y-72099500D01*
X166881163Y-72099500D01*
X166846515Y-72085148D01*
X160653416Y-65892048D01*
X160579729Y-65842813D01*
X160530495Y-65809916D01*
X160530492Y-65809914D01*
X160393915Y-65753342D01*
X160393906Y-65753340D01*
X160248921Y-65724500D01*
X160248918Y-65724500D01*
X145826082Y-65724500D01*
X145826078Y-65724500D01*
X145681093Y-65753340D01*
X145681084Y-65753342D01*
X145544508Y-65809914D01*
X145421584Y-65892048D01*
X145317048Y-65996584D01*
X145234914Y-66119508D01*
X145178342Y-66256084D01*
X145178340Y-66256093D01*
X145149500Y-66401078D01*
X130300500Y-66401078D01*
X130300500Y-65234104D01*
X141999500Y-65234104D01*
X141999500Y-65365895D01*
X142033607Y-65493184D01*
X142033608Y-65493188D01*
X142099500Y-65607314D01*
X142192686Y-65700500D01*
X142234255Y-65724500D01*
X142306811Y-65766391D01*
X142306813Y-65766391D01*
X142306814Y-65766392D01*
X142407207Y-65793292D01*
X142434104Y-65800499D01*
X142434105Y-65800500D01*
X142434108Y-65800500D01*
X142565895Y-65800500D01*
X142565895Y-65800499D01*
X142693186Y-65766392D01*
X142807314Y-65700500D01*
X142900500Y-65607314D01*
X142966392Y-65493186D01*
X143000499Y-65365895D01*
X143000500Y-65365895D01*
X143000500Y-65234105D01*
X143000499Y-65234104D01*
X142966392Y-65106815D01*
X142966391Y-65106811D01*
X142900499Y-64992685D01*
X142807314Y-64899500D01*
X142693188Y-64833608D01*
X142693184Y-64833607D01*
X142565895Y-64799500D01*
X142565892Y-64799500D01*
X142434108Y-64799500D01*
X142434105Y-64799500D01*
X142306815Y-64833607D01*
X142306811Y-64833608D01*
X142192685Y-64899500D01*
X142192685Y-64899501D01*
X142099501Y-64992685D01*
X142099500Y-64992685D01*
X142033608Y-65106811D01*
X142033607Y-65106815D01*
X141999500Y-65234104D01*
X130300500Y-65234104D01*
X130300500Y-62501487D01*
X130300589Y-62498529D01*
X130316358Y-62237831D01*
X130316359Y-62237830D01*
X130316358Y-62237822D01*
X130317070Y-62231967D01*
X130363879Y-61976534D01*
X130365291Y-61970804D01*
X130442552Y-61722869D01*
X130444645Y-61717351D01*
X130551228Y-61480531D01*
X130553963Y-61475318D01*
X130688318Y-61253070D01*
X130691670Y-61248214D01*
X130851831Y-61043784D01*
X130855739Y-61039373D01*
X131039373Y-60855739D01*
X131043784Y-60851831D01*
X131248214Y-60691670D01*
X131253070Y-60688318D01*
X131475318Y-60553963D01*
X131480531Y-60551228D01*
X131717351Y-60444645D01*
X131722869Y-60442552D01*
X131970804Y-60365291D01*
X131976534Y-60363879D01*
X132231967Y-60317070D01*
X132237822Y-60316358D01*
X132462154Y-60302789D01*
X132498530Y-60300589D01*
X132501488Y-60300500D01*
X132547595Y-60300500D01*
X177452405Y-60300500D01*
X177498512Y-60300500D01*
X177501470Y-60300589D01*
G37*
%TD.AperFunction*%
%TD*%
%TA.AperFunction,Conductor*%
%TO.N,PGND*%
G36*
X143604736Y-86600942D02*
G01*
X143666975Y-86613322D01*
X143684640Y-86620638D01*
X143733319Y-86653165D01*
X143746834Y-86666680D01*
X143763098Y-86691021D01*
X143779361Y-86715360D01*
X143786677Y-86733023D01*
X143799058Y-86795263D01*
X143800000Y-86804823D01*
X143800000Y-93495176D01*
X143799058Y-93504736D01*
X143786677Y-93566976D01*
X143779361Y-93584639D01*
X143746836Y-93633317D01*
X143733317Y-93646836D01*
X143684639Y-93679361D01*
X143666976Y-93686677D01*
X143619275Y-93696165D01*
X143604734Y-93699058D01*
X143595177Y-93700000D01*
X142300000Y-93700000D01*
X142303325Y-93902848D01*
X142303325Y-93902877D01*
X142350000Y-96750000D01*
X142368173Y-97858579D01*
X142372879Y-98145685D01*
X142359097Y-98180564D01*
X142358534Y-98181136D01*
X141400022Y-99139650D01*
X140934947Y-99604726D01*
X140754025Y-99785648D01*
X140719377Y-99800000D01*
X140704823Y-99800000D01*
X140695265Y-99799058D01*
X140677202Y-99795465D01*
X140633023Y-99786677D01*
X140615360Y-99779361D01*
X140591021Y-99763098D01*
X140566680Y-99746834D01*
X140553165Y-99733319D01*
X140520638Y-99684639D01*
X140513322Y-99666979D01*
X140500940Y-99604726D01*
X140500000Y-99595176D01*
X140500000Y-98004823D01*
X140500939Y-97995274D01*
X140513323Y-97933018D01*
X140520638Y-97915360D01*
X140553167Y-97866677D01*
X140566677Y-97853167D01*
X140615361Y-97820637D01*
X140633018Y-97813323D01*
X140695274Y-97800939D01*
X140704823Y-97800000D01*
X141270000Y-97800000D01*
X141270000Y-95910000D01*
X141126449Y-95910000D01*
X141113767Y-95908330D01*
X141057682Y-95893302D01*
X141035716Y-95880620D01*
X140999379Y-95844283D01*
X140986698Y-95822320D01*
X140971668Y-95766226D01*
X140970000Y-95753550D01*
X140970000Y-86804823D01*
X140970939Y-86795274D01*
X140983323Y-86733018D01*
X140990638Y-86715360D01*
X141023167Y-86666677D01*
X141036677Y-86653167D01*
X141085361Y-86620637D01*
X141103018Y-86613323D01*
X141165274Y-86600939D01*
X141174823Y-86600000D01*
X143595177Y-86600000D01*
X143604736Y-86600942D01*
G37*
%TD.AperFunction*%
%TD*%
M02*
