%TF.GenerationSoftware,KiCad,Pcbnew,9.0.7*%
%TF.CreationDate,2026-02-18T10:31:35-08:00*%
%TF.ProjectId,servo-dev-board-ch32v006,73657276-6f2d-4646-9576-2d626f617264,rev?*%
%TF.SameCoordinates,Original*%
%TF.FileFunction,Copper,L2,Inr*%
%TF.FilePolarity,Positive*%
%FSLAX46Y46*%
G04 Gerber Fmt 4.6, Leading zero omitted, Abs format (unit mm)*
G04 Created by KiCad (PCBNEW 9.0.7) date 2026-02-18 10:31:35*
%MOMM*%
%LPD*%
G01*
G04 APERTURE LIST*
%TA.AperFunction,ComponentPad*%
%ADD10C,3.500000*%
%TD*%
%TA.AperFunction,ComponentPad*%
%ADD11R,1.400000X1.500000*%
%TD*%
%TA.AperFunction,ComponentPad*%
%ADD12C,1.400000*%
%TD*%
%TA.AperFunction,ComponentPad*%
%ADD13O,1.700000X1.000000*%
%TD*%
%TA.AperFunction,ViaPad*%
%ADD14C,0.600000*%
%TD*%
%TA.AperFunction,ViaPad*%
%ADD15C,0.450000*%
%TD*%
%TA.AperFunction,ViaPad*%
%ADD16C,1.000000*%
%TD*%
%TA.AperFunction,ViaPad*%
%ADD17C,0.800000*%
%TD*%
G04 APERTURE END LIST*
D10*
%TO.N,GND*%
%TO.C,H1*%
X132750000Y-62750000D03*
%TD*%
%TO.N,GND*%
%TO.C,H2*%
X177250000Y-62750000D03*
%TD*%
D11*
%TO.N,VBAT*%
%TO.C,J1*%
X136650000Y-72250000D03*
D12*
%TO.N,GND*%
X136650000Y-74250000D03*
%TD*%
D13*
%TO.N,GND*%
%TO.C,USB1*%
X136810000Y-79000000D03*
X133000000Y-79000000D03*
X136810000Y-87640000D03*
X133000000Y-87640000D03*
%TD*%
D10*
%TO.N,GND*%
%TO.C,H4*%
X132750000Y-107250000D03*
%TD*%
%TO.N,GND*%
%TO.C,H3*%
X177250000Y-107250000D03*
%TD*%
D14*
%TO.N,GND*%
X135400000Y-99300000D03*
X140000000Y-61500000D03*
X178500000Y-104900000D03*
X176100000Y-76000000D03*
X153500000Y-95210000D03*
X142300000Y-103090000D03*
X177000000Y-68100000D03*
X131500000Y-85000000D03*
X140600000Y-103090000D03*
X161540000Y-86250000D03*
D15*
X157900000Y-94600000D03*
D14*
X131950000Y-101250000D03*
X145600000Y-91300000D03*
X178200000Y-99900000D03*
X131300000Y-104900000D03*
X145000000Y-61500000D03*
D15*
X158500000Y-94000000D03*
D14*
X176200000Y-65100000D03*
D16*
X170100000Y-71350000D03*
D15*
X157900000Y-93425000D03*
D14*
X132500000Y-65100000D03*
X175000000Y-108500000D03*
X163400000Y-89300000D03*
X142850000Y-85700000D03*
X131400000Y-65100000D03*
X146600000Y-99100000D03*
X168100000Y-76800000D03*
X155000000Y-108500000D03*
X160282500Y-98020000D03*
X176400000Y-104900000D03*
X156780000Y-84537500D03*
X160000000Y-61500000D03*
X178500000Y-68100000D03*
X133700000Y-65100000D03*
X133800000Y-104900000D03*
X175900000Y-97500000D03*
X178500000Y-85000000D03*
X131500000Y-75000000D03*
X177500000Y-65100000D03*
X153600000Y-99600000D03*
X177200000Y-79900000D03*
X141440000Y-103090000D03*
X164700000Y-86220000D03*
X178500000Y-77750000D03*
D15*
X158500000Y-94575000D03*
D14*
X131900000Y-91350000D03*
X168100000Y-68900000D03*
X150000000Y-108500000D03*
X135000000Y-108500000D03*
D16*
X178200000Y-71350000D03*
D14*
X150000000Y-61500000D03*
X145200000Y-103500000D03*
X131500000Y-95000000D03*
X145600000Y-93100000D03*
X177200000Y-99900000D03*
X168100000Y-76000000D03*
X177500000Y-104900000D03*
X131500000Y-70000000D03*
X154860000Y-84537500D03*
X132950000Y-101250000D03*
D15*
X158500000Y-93400000D03*
D14*
X176100000Y-76800000D03*
X140050000Y-83300000D03*
X154100000Y-91800000D03*
X160000000Y-108500000D03*
X178200000Y-79900000D03*
X165290000Y-94090000D03*
D15*
X159125000Y-94575000D03*
X159125000Y-94000000D03*
D14*
X133000000Y-91350000D03*
X175900000Y-86800000D03*
X165000000Y-108500000D03*
X161482500Y-99010000D03*
X143250000Y-84500000D03*
X158900000Y-89100000D03*
X178300000Y-89200000D03*
X170000000Y-61500000D03*
X138750000Y-95250000D03*
X132500000Y-104900000D03*
X145000000Y-108500000D03*
X178700000Y-65100000D03*
X160900000Y-82800000D03*
X143750000Y-83000000D03*
X165660000Y-89770000D03*
X170000000Y-108500000D03*
X165000000Y-61500000D03*
X168100000Y-69700000D03*
X166090000Y-91010000D03*
X178500000Y-95000000D03*
X177300000Y-93600000D03*
X177300000Y-89200000D03*
X175000000Y-61500000D03*
X155700000Y-103200000D03*
X131500000Y-80000000D03*
X140000000Y-108500000D03*
D15*
X157900000Y-94025000D03*
D14*
X153505000Y-97595000D03*
X135000000Y-61500000D03*
D15*
X159125000Y-93400000D03*
D14*
X158710000Y-84537500D03*
X178300000Y-93600000D03*
X155000000Y-61500000D03*
X161550000Y-87090000D03*
%TO.N,+3.3V*%
X137800000Y-92900000D03*
X144525000Y-95300000D03*
X156900000Y-87500000D03*
X142500000Y-65300000D03*
X164700000Y-87180000D03*
X166400000Y-95700000D03*
X175900000Y-99000000D03*
X164700000Y-88200000D03*
X162512500Y-96500000D03*
X153482753Y-96765159D03*
D17*
X145000000Y-79800000D03*
D14*
X175900000Y-88300000D03*
%TO.N,PGND*%
X143390000Y-88330000D03*
D15*
X142030000Y-96540000D03*
X141390000Y-97010000D03*
X141390000Y-96540000D03*
X142040000Y-97950000D03*
X141400000Y-97480000D03*
X142030000Y-97010000D03*
D14*
X143410000Y-89710000D03*
X143400000Y-90600000D03*
X143390000Y-91940000D03*
X143400000Y-87290000D03*
D15*
X142040000Y-97480000D03*
X141400000Y-97950000D03*
D14*
%TO.N,/DATA*%
X165300000Y-74350000D03*
X178000000Y-74350000D03*
%TO.N,/OUTA*%
X153410000Y-94300000D03*
X149900000Y-80000000D03*
%TO.N,/OUTB*%
X149800000Y-85000000D03*
X152300000Y-94500000D03*
%TO.N,/SWDIO*%
X175900000Y-85300000D03*
X156100000Y-91200000D03*
%TO.N,/nRST*%
X167420000Y-97240000D03*
X157500000Y-97100000D03*
%TO.N,/VSNA*%
X147500000Y-107350000D03*
X147500000Y-103550000D03*
%TO.N,/VSNB*%
X154700000Y-91050000D03*
X152500000Y-107300000D03*
%TO.N,/DE*%
X159300000Y-98700000D03*
X163800000Y-85200000D03*
%TO.N,/IN1*%
X137500000Y-107350000D03*
X143850000Y-97150000D03*
%TO.N,/IN2*%
X142500000Y-107350000D03*
X145065380Y-97265380D03*
%TO.N,/ISNS-*%
X148500000Y-102200000D03*
X143060000Y-101180000D03*
X157500000Y-101200000D03*
%TO.N,/ISNS+*%
X143060000Y-100200000D03*
X158500000Y-100200000D03*
X147200000Y-95100000D03*
%TO.N,/ENCB*%
X175800000Y-94500000D03*
X160200000Y-92000000D03*
%TO.N,/ENCA*%
X175800000Y-96000000D03*
X156450000Y-92650000D03*
D16*
%TO.N,BUS_VIN*%
X170100000Y-72850000D03*
X145900000Y-66475000D03*
X173200000Y-72850000D03*
%TD*%
%TA.AperFunction,Conductor*%
%TO.N,PGND*%
G36*
X143604736Y-86600942D02*
G01*
X143666975Y-86613322D01*
X143684640Y-86620638D01*
X143733319Y-86653165D01*
X143746834Y-86666680D01*
X143763098Y-86691021D01*
X143779361Y-86715360D01*
X143786677Y-86733023D01*
X143799058Y-86795263D01*
X143800000Y-86804823D01*
X143800000Y-93495176D01*
X143799058Y-93504736D01*
X143786677Y-93566976D01*
X143779361Y-93584639D01*
X143746836Y-93633317D01*
X143733317Y-93646836D01*
X143684639Y-93679361D01*
X143666976Y-93686677D01*
X143619275Y-93696165D01*
X143604734Y-93699058D01*
X143595177Y-93700000D01*
X142300000Y-93700000D01*
X142303325Y-93902848D01*
X142303325Y-93902877D01*
X142350000Y-96750000D01*
X142368173Y-97858579D01*
X142396587Y-99591841D01*
X142395785Y-99601514D01*
X142384179Y-99664572D01*
X142377007Y-99682506D01*
X142344658Y-99732011D01*
X142331112Y-99745781D01*
X142282145Y-99778937D01*
X142264330Y-99786402D01*
X142201474Y-99799039D01*
X142191816Y-99800000D01*
X140704823Y-99800000D01*
X140695265Y-99799058D01*
X140677202Y-99795465D01*
X140633023Y-99786677D01*
X140615360Y-99779361D01*
X140591021Y-99763098D01*
X140566680Y-99746834D01*
X140553165Y-99733319D01*
X140520638Y-99684639D01*
X140513322Y-99666979D01*
X140500940Y-99604726D01*
X140500000Y-99595176D01*
X140500000Y-98004823D01*
X140500939Y-97995274D01*
X140513323Y-97933018D01*
X140520638Y-97915360D01*
X140553167Y-97866677D01*
X140566677Y-97853167D01*
X140615361Y-97820637D01*
X140633018Y-97813323D01*
X140695274Y-97800939D01*
X140704823Y-97800000D01*
X141270000Y-97800000D01*
X141270000Y-95910000D01*
X141126449Y-95910000D01*
X141113767Y-95908330D01*
X141057682Y-95893302D01*
X141035716Y-95880620D01*
X140999379Y-95844283D01*
X140986698Y-95822320D01*
X140971668Y-95766226D01*
X140970000Y-95753550D01*
X140970000Y-86804823D01*
X140970939Y-86795274D01*
X140983323Y-86733018D01*
X140990638Y-86715360D01*
X141023167Y-86666677D01*
X141036677Y-86653167D01*
X141085361Y-86620637D01*
X141103018Y-86613323D01*
X141165274Y-86600939D01*
X141174823Y-86600000D01*
X143595177Y-86600000D01*
X143604736Y-86600942D01*
G37*
%TD.AperFunction*%
%TD*%
%TA.AperFunction,Conductor*%
%TO.N,GND*%
G36*
X177503736Y-60300726D02*
G01*
X177757638Y-60316084D01*
X177772495Y-60317888D01*
X178019000Y-60363061D01*
X178033536Y-60366644D01*
X178272791Y-60441200D01*
X178286788Y-60446508D01*
X178515319Y-60549361D01*
X178528578Y-60556320D01*
X178635808Y-60621143D01*
X178743045Y-60685970D01*
X178755356Y-60694468D01*
X178952636Y-60849027D01*
X178963844Y-60858957D01*
X179141042Y-61036155D01*
X179150972Y-61047363D01*
X179305527Y-61244637D01*
X179314033Y-61256960D01*
X179443679Y-61471421D01*
X179450638Y-61484680D01*
X179553491Y-61713211D01*
X179558800Y-61727211D01*
X179633354Y-61966461D01*
X179636938Y-61981001D01*
X179682110Y-62227500D01*
X179683915Y-62242364D01*
X179699274Y-62496263D01*
X179699500Y-62503750D01*
X179699500Y-107496249D01*
X179699274Y-107503736D01*
X179683915Y-107757635D01*
X179682110Y-107772499D01*
X179636938Y-108018998D01*
X179633354Y-108033538D01*
X179558800Y-108272788D01*
X179553491Y-108286788D01*
X179450638Y-108515319D01*
X179443679Y-108528578D01*
X179314033Y-108743039D01*
X179305527Y-108755362D01*
X179150972Y-108952636D01*
X179141042Y-108963844D01*
X178963844Y-109141042D01*
X178952636Y-109150972D01*
X178755362Y-109305527D01*
X178743039Y-109314033D01*
X178528578Y-109443679D01*
X178515319Y-109450638D01*
X178286788Y-109553491D01*
X178272788Y-109558800D01*
X178033538Y-109633354D01*
X178018998Y-109636938D01*
X177772499Y-109682110D01*
X177757635Y-109683915D01*
X177503736Y-109699274D01*
X177496249Y-109699500D01*
X132503751Y-109699500D01*
X132496264Y-109699274D01*
X132242364Y-109683915D01*
X132227500Y-109682110D01*
X131981001Y-109636938D01*
X131966461Y-109633354D01*
X131727211Y-109558800D01*
X131713211Y-109553491D01*
X131484680Y-109450638D01*
X131471421Y-109443679D01*
X131256960Y-109314033D01*
X131244637Y-109305527D01*
X131047363Y-109150972D01*
X131036155Y-109141042D01*
X130858957Y-108963844D01*
X130849027Y-108952636D01*
X130694468Y-108755356D01*
X130685970Y-108743045D01*
X130583412Y-108573394D01*
X130556320Y-108528578D01*
X130549361Y-108515319D01*
X130446508Y-108286788D01*
X130441199Y-108272788D01*
X130387511Y-108100500D01*
X130366644Y-108033536D01*
X130363061Y-108018998D01*
X130345247Y-107921789D01*
X130317888Y-107772495D01*
X130316084Y-107757635D01*
X130314362Y-107729172D01*
X130300726Y-107503736D01*
X130300500Y-107496249D01*
X130300500Y-107271153D01*
X136699500Y-107271153D01*
X136699500Y-107428846D01*
X136730261Y-107583489D01*
X136730264Y-107583501D01*
X136790602Y-107729172D01*
X136790609Y-107729185D01*
X136878210Y-107860288D01*
X136878213Y-107860292D01*
X136989707Y-107971786D01*
X136989711Y-107971789D01*
X137120814Y-108059390D01*
X137120827Y-108059397D01*
X137220060Y-108100500D01*
X137266503Y-108119737D01*
X137421153Y-108150499D01*
X137421156Y-108150500D01*
X137421158Y-108150500D01*
X137578844Y-108150500D01*
X137578845Y-108150499D01*
X137733497Y-108119737D01*
X137879179Y-108059394D01*
X138010289Y-107971789D01*
X138121789Y-107860289D01*
X138209394Y-107729179D01*
X138269737Y-107583497D01*
X138300500Y-107428842D01*
X138300500Y-107271158D01*
X138300500Y-107271155D01*
X138300499Y-107271153D01*
X141699500Y-107271153D01*
X141699500Y-107428846D01*
X141730261Y-107583489D01*
X141730264Y-107583501D01*
X141790602Y-107729172D01*
X141790609Y-107729185D01*
X141878210Y-107860288D01*
X141878213Y-107860292D01*
X141989707Y-107971786D01*
X141989711Y-107971789D01*
X142120814Y-108059390D01*
X142120827Y-108059397D01*
X142220060Y-108100500D01*
X142266503Y-108119737D01*
X142421153Y-108150499D01*
X142421156Y-108150500D01*
X142421158Y-108150500D01*
X142578844Y-108150500D01*
X142578845Y-108150499D01*
X142733497Y-108119737D01*
X142879179Y-108059394D01*
X143010289Y-107971789D01*
X143121789Y-107860289D01*
X143209394Y-107729179D01*
X143269737Y-107583497D01*
X143300500Y-107428842D01*
X143300500Y-107271158D01*
X143300500Y-107271155D01*
X143300499Y-107271153D01*
X146699500Y-107271153D01*
X146699500Y-107428846D01*
X146730261Y-107583489D01*
X146730264Y-107583501D01*
X146790602Y-107729172D01*
X146790609Y-107729185D01*
X146878210Y-107860288D01*
X146878213Y-107860292D01*
X146989707Y-107971786D01*
X146989711Y-107971789D01*
X147120814Y-108059390D01*
X147120827Y-108059397D01*
X147220060Y-108100500D01*
X147266503Y-108119737D01*
X147421153Y-108150499D01*
X147421156Y-108150500D01*
X147421158Y-108150500D01*
X147578844Y-108150500D01*
X147578845Y-108150499D01*
X147733497Y-108119737D01*
X147879179Y-108059394D01*
X148010289Y-107971789D01*
X148121789Y-107860289D01*
X148209394Y-107729179D01*
X148269737Y-107583497D01*
X148300500Y-107428842D01*
X148300500Y-107271158D01*
X148300500Y-107271155D01*
X148294155Y-107239258D01*
X148294155Y-107239257D01*
X148290554Y-107221153D01*
X151699500Y-107221153D01*
X151699500Y-107378846D01*
X151730261Y-107533489D01*
X151730264Y-107533501D01*
X151790602Y-107679172D01*
X151790609Y-107679185D01*
X151878210Y-107810288D01*
X151878213Y-107810292D01*
X151989707Y-107921786D01*
X151989711Y-107921789D01*
X152120814Y-108009390D01*
X152120827Y-108009397D01*
X152266498Y-108069735D01*
X152266503Y-108069737D01*
X152421153Y-108100499D01*
X152421156Y-108100500D01*
X152421158Y-108100500D01*
X152578844Y-108100500D01*
X152578845Y-108100499D01*
X152733497Y-108069737D01*
X152879179Y-108009394D01*
X153010289Y-107921789D01*
X153121789Y-107810289D01*
X153209394Y-107679179D01*
X153269737Y-107533497D01*
X153300500Y-107378842D01*
X153300500Y-107221158D01*
X153300500Y-107221155D01*
X153300499Y-107221153D01*
X153279684Y-107116510D01*
X153269737Y-107066503D01*
X153230102Y-106970814D01*
X153209397Y-106920827D01*
X153209390Y-106920814D01*
X153121789Y-106789711D01*
X153121786Y-106789707D01*
X153010292Y-106678213D01*
X153010288Y-106678210D01*
X152879185Y-106590609D01*
X152879172Y-106590602D01*
X152733501Y-106530264D01*
X152733489Y-106530261D01*
X152578845Y-106499500D01*
X152578842Y-106499500D01*
X152421158Y-106499500D01*
X152421155Y-106499500D01*
X152266510Y-106530261D01*
X152266498Y-106530264D01*
X152120827Y-106590602D01*
X152120814Y-106590609D01*
X151989711Y-106678210D01*
X151989707Y-106678213D01*
X151878213Y-106789707D01*
X151878210Y-106789711D01*
X151790609Y-106920814D01*
X151790602Y-106920827D01*
X151730264Y-107066498D01*
X151730261Y-107066510D01*
X151699500Y-107221153D01*
X148290554Y-107221153D01*
X148269738Y-107116510D01*
X148269737Y-107116503D01*
X148269735Y-107116498D01*
X148209397Y-106970827D01*
X148209390Y-106970814D01*
X148121789Y-106839711D01*
X148121786Y-106839707D01*
X148010292Y-106728213D01*
X148010288Y-106728210D01*
X147879185Y-106640609D01*
X147879172Y-106640602D01*
X147733501Y-106580264D01*
X147733489Y-106580261D01*
X147578845Y-106549500D01*
X147578842Y-106549500D01*
X147421158Y-106549500D01*
X147421155Y-106549500D01*
X147266510Y-106580261D01*
X147266498Y-106580264D01*
X147120827Y-106640602D01*
X147120814Y-106640609D01*
X146989711Y-106728210D01*
X146989707Y-106728213D01*
X146878213Y-106839707D01*
X146878210Y-106839711D01*
X146790609Y-106970814D01*
X146790602Y-106970827D01*
X146730264Y-107116498D01*
X146730261Y-107116510D01*
X146699500Y-107271153D01*
X143300499Y-107271153D01*
X143269738Y-107116510D01*
X143269737Y-107116503D01*
X143269735Y-107116498D01*
X143209397Y-106970827D01*
X143209390Y-106970814D01*
X143121789Y-106839711D01*
X143121786Y-106839707D01*
X143010292Y-106728213D01*
X143010288Y-106728210D01*
X142879185Y-106640609D01*
X142879172Y-106640602D01*
X142733501Y-106580264D01*
X142733489Y-106580261D01*
X142578845Y-106549500D01*
X142578842Y-106549500D01*
X142421158Y-106549500D01*
X142421155Y-106549500D01*
X142266510Y-106580261D01*
X142266498Y-106580264D01*
X142120827Y-106640602D01*
X142120814Y-106640609D01*
X141989711Y-106728210D01*
X141989707Y-106728213D01*
X141878213Y-106839707D01*
X141878210Y-106839711D01*
X141790609Y-106970814D01*
X141790602Y-106970827D01*
X141730264Y-107116498D01*
X141730261Y-107116510D01*
X141699500Y-107271153D01*
X138300499Y-107271153D01*
X138269738Y-107116510D01*
X138269737Y-107116503D01*
X138269735Y-107116498D01*
X138209397Y-106970827D01*
X138209390Y-106970814D01*
X138121789Y-106839711D01*
X138121786Y-106839707D01*
X138010292Y-106728213D01*
X138010288Y-106728210D01*
X137879185Y-106640609D01*
X137879172Y-106640602D01*
X137733501Y-106580264D01*
X137733489Y-106580261D01*
X137578845Y-106549500D01*
X137578842Y-106549500D01*
X137421158Y-106549500D01*
X137421155Y-106549500D01*
X137266510Y-106580261D01*
X137266498Y-106580264D01*
X137120827Y-106640602D01*
X137120814Y-106640609D01*
X136989711Y-106728210D01*
X136989707Y-106728213D01*
X136878213Y-106839707D01*
X136878210Y-106839711D01*
X136790609Y-106970814D01*
X136790602Y-106970827D01*
X136730264Y-107116498D01*
X136730261Y-107116510D01*
X136699500Y-107271153D01*
X130300500Y-107271153D01*
X130300500Y-103471153D01*
X146699500Y-103471153D01*
X146699500Y-103628846D01*
X146730261Y-103783489D01*
X146730264Y-103783501D01*
X146790602Y-103929172D01*
X146790609Y-103929185D01*
X146878210Y-104060288D01*
X146878213Y-104060292D01*
X146989707Y-104171786D01*
X146989711Y-104171789D01*
X147120814Y-104259390D01*
X147120827Y-104259397D01*
X147266498Y-104319735D01*
X147266503Y-104319737D01*
X147421153Y-104350499D01*
X147421156Y-104350500D01*
X147421158Y-104350500D01*
X147578844Y-104350500D01*
X147578845Y-104350499D01*
X147733497Y-104319737D01*
X147879179Y-104259394D01*
X148010289Y-104171789D01*
X148121789Y-104060289D01*
X148209394Y-103929179D01*
X148269737Y-103783497D01*
X148300500Y-103628842D01*
X148300500Y-103471158D01*
X148300500Y-103471155D01*
X148300499Y-103471153D01*
X148269738Y-103316510D01*
X148269737Y-103316503D01*
X148269735Y-103316498D01*
X148209397Y-103170827D01*
X148206521Y-103165446D01*
X148208731Y-103164264D01*
X148191125Y-103108065D01*
X148209600Y-103040683D01*
X148261572Y-102993985D01*
X148330541Y-102982798D01*
X148339297Y-102984217D01*
X148421155Y-103000500D01*
X148421158Y-103000500D01*
X148578844Y-103000500D01*
X148578845Y-103000499D01*
X148733497Y-102969737D01*
X148879179Y-102909394D01*
X149010289Y-102821789D01*
X149121789Y-102710289D01*
X149209394Y-102579179D01*
X149269737Y-102433497D01*
X149300500Y-102278842D01*
X149300500Y-102121158D01*
X149300500Y-102121155D01*
X149300499Y-102121153D01*
X149269738Y-101966510D01*
X149269737Y-101966503D01*
X149209794Y-101821786D01*
X149209397Y-101820827D01*
X149209390Y-101820814D01*
X149121789Y-101689711D01*
X149121786Y-101689707D01*
X149010292Y-101578213D01*
X149010288Y-101578210D01*
X148879185Y-101490609D01*
X148879172Y-101490602D01*
X148733501Y-101430264D01*
X148733489Y-101430261D01*
X148578845Y-101399500D01*
X148578842Y-101399500D01*
X148421158Y-101399500D01*
X148421155Y-101399500D01*
X148266510Y-101430261D01*
X148266498Y-101430264D01*
X148120827Y-101490602D01*
X148120814Y-101490609D01*
X147989711Y-101578210D01*
X147989707Y-101578213D01*
X147878213Y-101689707D01*
X147878210Y-101689711D01*
X147790609Y-101820814D01*
X147790602Y-101820827D01*
X147730264Y-101966498D01*
X147730261Y-101966510D01*
X147699500Y-102121153D01*
X147699500Y-102278846D01*
X147730261Y-102433489D01*
X147730264Y-102433501D01*
X147790602Y-102579172D01*
X147793479Y-102584554D01*
X147791272Y-102585733D01*
X147808874Y-102641958D01*
X147790386Y-102709337D01*
X147738405Y-102756025D01*
X147669434Y-102767197D01*
X147660703Y-102765782D01*
X147578846Y-102749500D01*
X147578842Y-102749500D01*
X147421158Y-102749500D01*
X147421155Y-102749500D01*
X147266510Y-102780261D01*
X147266498Y-102780264D01*
X147120827Y-102840602D01*
X147120814Y-102840609D01*
X146989711Y-102928210D01*
X146989707Y-102928213D01*
X146878213Y-103039707D01*
X146878210Y-103039711D01*
X146790609Y-103170814D01*
X146790602Y-103170827D01*
X146730264Y-103316498D01*
X146730261Y-103316510D01*
X146699500Y-103471153D01*
X130300500Y-103471153D01*
X130300500Y-98004811D01*
X139994500Y-98004811D01*
X139994500Y-98004823D01*
X139994500Y-99595176D01*
X139995806Y-99621786D01*
X139996931Y-99644703D01*
X139997871Y-99654245D01*
X139997876Y-99654282D01*
X140005151Y-99703333D01*
X140017534Y-99765590D01*
X140034290Y-99820827D01*
X140046310Y-99860448D01*
X140053626Y-99878108D01*
X140053627Y-99878109D01*
X140100325Y-99965471D01*
X140100337Y-99965491D01*
X140132844Y-100014142D01*
X140132852Y-100014153D01*
X140132857Y-100014160D01*
X140195723Y-100090761D01*
X140209238Y-100104276D01*
X140285839Y-100167142D01*
X140334519Y-100199669D01*
X140421919Y-100246384D01*
X140439582Y-100253700D01*
X140534403Y-100282464D01*
X140596645Y-100294845D01*
X140596670Y-100294848D01*
X140596677Y-100294850D01*
X140645240Y-100302055D01*
X140645685Y-100302121D01*
X140655243Y-100303063D01*
X140704823Y-100305500D01*
X140704836Y-100305500D01*
X142163038Y-100305500D01*
X142230077Y-100325185D01*
X142275832Y-100377989D01*
X142284655Y-100405307D01*
X142290261Y-100433492D01*
X142290264Y-100433501D01*
X142350205Y-100578211D01*
X142350606Y-100579179D01*
X142369718Y-100607782D01*
X142378623Y-100621110D01*
X142399500Y-100687788D01*
X142381015Y-100755168D01*
X142378623Y-100758890D01*
X142350604Y-100800824D01*
X142290264Y-100946498D01*
X142290261Y-100946510D01*
X142259500Y-101101153D01*
X142259500Y-101258846D01*
X142290261Y-101413489D01*
X142290264Y-101413501D01*
X142350602Y-101559172D01*
X142350609Y-101559185D01*
X142438210Y-101690288D01*
X142438213Y-101690292D01*
X142549707Y-101801786D01*
X142549711Y-101801789D01*
X142680814Y-101889390D01*
X142680827Y-101889397D01*
X142826498Y-101949735D01*
X142826503Y-101949737D01*
X142981153Y-101980499D01*
X142981156Y-101980500D01*
X142981158Y-101980500D01*
X143138844Y-101980500D01*
X143138845Y-101980499D01*
X143293497Y-101949737D01*
X143439179Y-101889394D01*
X143570289Y-101801789D01*
X143681789Y-101690289D01*
X143769394Y-101559179D01*
X143829737Y-101413497D01*
X143860500Y-101258842D01*
X143860500Y-101121153D01*
X156699500Y-101121153D01*
X156699500Y-101278846D01*
X156730261Y-101433489D01*
X156730264Y-101433501D01*
X156790602Y-101579172D01*
X156790609Y-101579185D01*
X156878210Y-101710288D01*
X156878213Y-101710292D01*
X156989707Y-101821786D01*
X156989711Y-101821789D01*
X157120814Y-101909390D01*
X157120827Y-101909397D01*
X157258683Y-101966498D01*
X157266503Y-101969737D01*
X157421153Y-102000499D01*
X157421156Y-102000500D01*
X157421158Y-102000500D01*
X157578844Y-102000500D01*
X157578845Y-102000499D01*
X157733497Y-101969737D01*
X157879179Y-101909394D01*
X158010289Y-101821789D01*
X158121789Y-101710289D01*
X158209394Y-101579179D01*
X158269737Y-101433497D01*
X158300500Y-101278842D01*
X158300500Y-101124500D01*
X158320185Y-101057461D01*
X158372989Y-101011706D01*
X158424500Y-101000500D01*
X158578844Y-101000500D01*
X158578845Y-101000499D01*
X158733497Y-100969737D01*
X158879179Y-100909394D01*
X159010289Y-100821789D01*
X159121789Y-100710289D01*
X159209394Y-100579179D01*
X159269737Y-100433497D01*
X159300500Y-100278842D01*
X159300500Y-100121158D01*
X159300500Y-100121155D01*
X159300499Y-100121153D01*
X159294454Y-100090761D01*
X159269737Y-99966503D01*
X159269310Y-99965471D01*
X159209397Y-99820827D01*
X159209390Y-99820814D01*
X159124248Y-99693391D01*
X159103370Y-99626714D01*
X159121854Y-99559334D01*
X159173833Y-99512643D01*
X159227350Y-99500500D01*
X159378844Y-99500500D01*
X159378845Y-99500499D01*
X159533497Y-99469737D01*
X159646166Y-99423067D01*
X159679172Y-99409397D01*
X159679172Y-99409396D01*
X159679179Y-99409394D01*
X159810289Y-99321789D01*
X159921789Y-99210289D01*
X160009394Y-99079179D01*
X160069737Y-98933497D01*
X160072192Y-98921153D01*
X175099500Y-98921153D01*
X175099500Y-99078846D01*
X175130261Y-99233489D01*
X175130264Y-99233501D01*
X175190602Y-99379172D01*
X175190609Y-99379185D01*
X175278210Y-99510288D01*
X175278213Y-99510292D01*
X175389707Y-99621786D01*
X175389711Y-99621789D01*
X175520814Y-99709390D01*
X175520827Y-99709397D01*
X175656491Y-99765590D01*
X175666503Y-99769737D01*
X175821153Y-99800499D01*
X175821156Y-99800500D01*
X175821158Y-99800500D01*
X175978844Y-99800500D01*
X175978845Y-99800499D01*
X176133497Y-99769737D01*
X176279179Y-99709394D01*
X176410289Y-99621789D01*
X176521789Y-99510289D01*
X176609394Y-99379179D01*
X176669737Y-99233497D01*
X176700500Y-99078842D01*
X176700500Y-98921158D01*
X176700500Y-98921155D01*
X176700499Y-98921153D01*
X176672192Y-98778846D01*
X176669737Y-98766503D01*
X176609534Y-98621158D01*
X176609397Y-98620827D01*
X176609390Y-98620814D01*
X176521789Y-98489711D01*
X176521786Y-98489707D01*
X176410292Y-98378213D01*
X176410288Y-98378210D01*
X176279185Y-98290609D01*
X176279172Y-98290602D01*
X176133501Y-98230264D01*
X176133489Y-98230261D01*
X175978845Y-98199500D01*
X175978842Y-98199500D01*
X175821158Y-98199500D01*
X175821155Y-98199500D01*
X175666510Y-98230261D01*
X175666498Y-98230264D01*
X175520827Y-98290602D01*
X175520814Y-98290609D01*
X175389711Y-98378210D01*
X175389707Y-98378213D01*
X175278213Y-98489707D01*
X175278210Y-98489711D01*
X175190609Y-98620814D01*
X175190602Y-98620827D01*
X175130264Y-98766498D01*
X175130261Y-98766510D01*
X175099500Y-98921153D01*
X160072192Y-98921153D01*
X160078216Y-98890874D01*
X160078216Y-98890873D01*
X160100499Y-98778846D01*
X160100500Y-98778844D01*
X160100500Y-98621155D01*
X160100499Y-98621153D01*
X160074353Y-98489711D01*
X160069737Y-98466503D01*
X160069735Y-98466498D01*
X160009397Y-98320827D01*
X160009390Y-98320814D01*
X159921789Y-98189711D01*
X159921786Y-98189707D01*
X159810292Y-98078213D01*
X159810288Y-98078210D01*
X159679185Y-97990609D01*
X159679172Y-97990602D01*
X159533501Y-97930264D01*
X159533489Y-97930261D01*
X159378845Y-97899500D01*
X159378842Y-97899500D01*
X159221158Y-97899500D01*
X159221155Y-97899500D01*
X159066510Y-97930261D01*
X159066498Y-97930264D01*
X158920827Y-97990602D01*
X158920814Y-97990609D01*
X158789711Y-98078210D01*
X158789707Y-98078213D01*
X158678213Y-98189707D01*
X158678210Y-98189711D01*
X158590609Y-98320814D01*
X158590602Y-98320827D01*
X158530264Y-98466498D01*
X158530261Y-98466510D01*
X158499500Y-98621153D01*
X158499500Y-98778846D01*
X158530261Y-98933489D01*
X158530264Y-98933501D01*
X158590602Y-99079172D01*
X158590609Y-99079185D01*
X158675752Y-99206609D01*
X158696630Y-99273286D01*
X158678146Y-99340666D01*
X158626167Y-99387357D01*
X158572650Y-99399500D01*
X158421155Y-99399500D01*
X158266510Y-99430261D01*
X158266498Y-99430264D01*
X158120827Y-99490602D01*
X158120814Y-99490609D01*
X157989711Y-99578210D01*
X157989707Y-99578213D01*
X157878213Y-99689707D01*
X157878210Y-99689711D01*
X157790609Y-99820814D01*
X157790602Y-99820827D01*
X157730264Y-99966498D01*
X157730261Y-99966510D01*
X157699500Y-100121153D01*
X157699500Y-100275500D01*
X157679815Y-100342539D01*
X157627011Y-100388294D01*
X157575500Y-100399500D01*
X157421155Y-100399500D01*
X157266510Y-100430261D01*
X157266498Y-100430264D01*
X157120827Y-100490602D01*
X157120814Y-100490609D01*
X156989711Y-100578210D01*
X156989707Y-100578213D01*
X156878213Y-100689707D01*
X156878210Y-100689711D01*
X156790609Y-100820814D01*
X156790602Y-100820827D01*
X156730264Y-100966498D01*
X156730261Y-100966510D01*
X156699500Y-101121153D01*
X143860500Y-101121153D01*
X143860500Y-101101158D01*
X143860500Y-101101155D01*
X143860499Y-101101153D01*
X143842707Y-101011706D01*
X143829737Y-100946503D01*
X143814366Y-100909394D01*
X143769396Y-100800825D01*
X143769394Y-100800822D01*
X143769394Y-100800821D01*
X143741376Y-100758890D01*
X143720498Y-100692215D01*
X143738982Y-100624835D01*
X143741376Y-100621110D01*
X143769394Y-100579179D01*
X143829737Y-100433497D01*
X143860500Y-100278842D01*
X143860500Y-100121158D01*
X143860500Y-100121155D01*
X143860499Y-100121153D01*
X143854454Y-100090761D01*
X143829737Y-99966503D01*
X143829310Y-99965471D01*
X143769397Y-99820827D01*
X143769390Y-99820814D01*
X143681789Y-99689711D01*
X143681786Y-99689707D01*
X143570292Y-99578213D01*
X143570288Y-99578210D01*
X143439185Y-99490609D01*
X143439172Y-99490602D01*
X143293501Y-99430264D01*
X143293489Y-99430261D01*
X143138845Y-99399500D01*
X143138842Y-99399500D01*
X143020985Y-99399500D01*
X142953946Y-99379815D01*
X142908191Y-99327011D01*
X142897002Y-99277533D01*
X142877341Y-98078210D01*
X142867795Y-97495936D01*
X142886378Y-97428583D01*
X142938425Y-97381969D01*
X143007411Y-97370893D01*
X143071434Y-97398873D01*
X143106339Y-97446452D01*
X143140602Y-97529172D01*
X143140609Y-97529185D01*
X143228210Y-97660288D01*
X143228213Y-97660292D01*
X143339707Y-97771786D01*
X143339711Y-97771789D01*
X143470814Y-97859390D01*
X143470827Y-97859397D01*
X143570060Y-97900500D01*
X143616503Y-97919737D01*
X143747550Y-97945804D01*
X143771153Y-97950499D01*
X143771156Y-97950500D01*
X143771158Y-97950500D01*
X143928844Y-97950500D01*
X143928845Y-97950499D01*
X144083497Y-97919737D01*
X144229179Y-97859394D01*
X144229184Y-97859390D01*
X144229187Y-97859389D01*
X144300206Y-97811935D01*
X144323284Y-97796514D01*
X144389960Y-97775636D01*
X144457341Y-97794120D01*
X144479856Y-97811935D01*
X144555087Y-97887166D01*
X144555091Y-97887169D01*
X144686194Y-97974770D01*
X144686207Y-97974777D01*
X144770612Y-98009738D01*
X144831883Y-98035117D01*
X144986533Y-98065879D01*
X144986536Y-98065880D01*
X144986538Y-98065880D01*
X145144224Y-98065880D01*
X145144225Y-98065879D01*
X145298877Y-98035117D01*
X145444559Y-97974774D01*
X145575669Y-97887169D01*
X145687169Y-97775669D01*
X145774774Y-97644559D01*
X145835117Y-97498877D01*
X145865880Y-97344222D01*
X145865880Y-97186538D01*
X145865880Y-97186535D01*
X145865879Y-97186533D01*
X145857484Y-97144331D01*
X145835117Y-97031883D01*
X145796612Y-96938923D01*
X145774777Y-96886207D01*
X145774770Y-96886194D01*
X145687170Y-96755093D01*
X145687169Y-96755091D01*
X145687167Y-96755089D01*
X145687164Y-96755085D01*
X145618391Y-96686312D01*
X152682253Y-96686312D01*
X152682253Y-96844005D01*
X152713014Y-96998648D01*
X152713017Y-96998660D01*
X152773355Y-97144331D01*
X152773362Y-97144344D01*
X152860963Y-97275447D01*
X152860966Y-97275451D01*
X152972460Y-97386945D01*
X152972464Y-97386948D01*
X153103567Y-97474549D01*
X153103580Y-97474556D01*
X153162307Y-97498881D01*
X153249256Y-97534896D01*
X153403906Y-97565658D01*
X153403909Y-97565659D01*
X153403911Y-97565659D01*
X153561597Y-97565659D01*
X153561598Y-97565658D01*
X153716250Y-97534896D01*
X153861932Y-97474553D01*
X153993042Y-97386948D01*
X154104542Y-97275448D01*
X154192147Y-97144338D01*
X154243172Y-97021153D01*
X156699500Y-97021153D01*
X156699500Y-97178846D01*
X156730261Y-97333489D01*
X156730264Y-97333501D01*
X156790602Y-97479172D01*
X156790609Y-97479185D01*
X156878210Y-97610288D01*
X156878213Y-97610292D01*
X156989707Y-97721786D01*
X156989711Y-97721789D01*
X157120814Y-97809390D01*
X157120827Y-97809397D01*
X157266498Y-97869735D01*
X157266503Y-97869737D01*
X157401793Y-97896648D01*
X157421153Y-97900499D01*
X157421156Y-97900500D01*
X157421158Y-97900500D01*
X157578844Y-97900500D01*
X157578845Y-97900499D01*
X157733497Y-97869737D01*
X157846166Y-97823067D01*
X157879172Y-97809397D01*
X157879172Y-97809396D01*
X157879179Y-97809394D01*
X158010289Y-97721789D01*
X158121789Y-97610289D01*
X158209394Y-97479179D01*
X158269737Y-97333497D01*
X158300500Y-97178842D01*
X158300500Y-97021158D01*
X158300500Y-97021155D01*
X158300499Y-97021153D01*
X158284067Y-96938545D01*
X158269737Y-96866503D01*
X158267386Y-96860827D01*
X158209397Y-96720827D01*
X158209390Y-96720814D01*
X158121789Y-96589711D01*
X158121786Y-96589707D01*
X158010292Y-96478213D01*
X158010288Y-96478210D01*
X157924897Y-96421153D01*
X161712000Y-96421153D01*
X161712000Y-96578846D01*
X161742761Y-96733489D01*
X161742764Y-96733501D01*
X161803102Y-96879172D01*
X161803109Y-96879185D01*
X161890710Y-97010288D01*
X161890713Y-97010292D01*
X162002207Y-97121786D01*
X162002211Y-97121789D01*
X162133314Y-97209390D01*
X162133327Y-97209397D01*
X162248424Y-97257071D01*
X162279003Y-97269737D01*
X162420411Y-97297865D01*
X162433653Y-97300499D01*
X162433656Y-97300500D01*
X162433658Y-97300500D01*
X162591344Y-97300500D01*
X162591345Y-97300499D01*
X162745997Y-97269737D01*
X162891679Y-97209394D01*
X162963877Y-97161153D01*
X166619500Y-97161153D01*
X166619500Y-97318846D01*
X166650261Y-97473489D01*
X166650264Y-97473501D01*
X166710602Y-97619172D01*
X166710609Y-97619185D01*
X166798210Y-97750288D01*
X166798213Y-97750292D01*
X166909707Y-97861786D01*
X166909711Y-97861789D01*
X167040814Y-97949390D01*
X167040827Y-97949397D01*
X167174610Y-98004811D01*
X167186503Y-98009737D01*
X167314086Y-98035115D01*
X167341153Y-98040499D01*
X167341156Y-98040500D01*
X167341158Y-98040500D01*
X167498844Y-98040500D01*
X167498845Y-98040499D01*
X167653497Y-98009737D01*
X167799179Y-97949394D01*
X167930289Y-97861789D01*
X168041789Y-97750289D01*
X168129394Y-97619179D01*
X168189737Y-97473497D01*
X168220500Y-97318842D01*
X168220500Y-97161158D01*
X168220500Y-97161155D01*
X168220499Y-97161153D01*
X168202598Y-97071158D01*
X168189737Y-97006503D01*
X168161587Y-96938542D01*
X168129397Y-96860827D01*
X168129390Y-96860814D01*
X168041789Y-96729711D01*
X168041786Y-96729707D01*
X167930292Y-96618213D01*
X167930288Y-96618210D01*
X167799185Y-96530609D01*
X167799172Y-96530602D01*
X167653501Y-96470264D01*
X167653489Y-96470261D01*
X167498845Y-96439500D01*
X167498842Y-96439500D01*
X167341158Y-96439500D01*
X167341155Y-96439500D01*
X167186510Y-96470261D01*
X167186498Y-96470264D01*
X167046876Y-96528096D01*
X167046868Y-96528101D01*
X167040821Y-96530606D01*
X166909711Y-96618211D01*
X166907675Y-96620246D01*
X166907670Y-96620250D01*
X166798213Y-96729707D01*
X166798210Y-96729711D01*
X166710609Y-96860814D01*
X166710602Y-96860827D01*
X166650264Y-97006498D01*
X166650261Y-97006510D01*
X166619500Y-97161153D01*
X162963877Y-97161153D01*
X163022789Y-97121789D01*
X163134289Y-97010289D01*
X163221894Y-96879179D01*
X163282237Y-96733497D01*
X163313000Y-96578842D01*
X163313000Y-96421158D01*
X163313000Y-96421155D01*
X163312999Y-96421153D01*
X163293234Y-96321789D01*
X163282237Y-96266503D01*
X163282235Y-96266498D01*
X163221897Y-96120827D01*
X163221890Y-96120814D01*
X163134289Y-95989711D01*
X163134286Y-95989707D01*
X163022792Y-95878213D01*
X163022788Y-95878210D01*
X162891685Y-95790609D01*
X162891672Y-95790602D01*
X162746001Y-95730264D01*
X162745989Y-95730261D01*
X162591345Y-95699500D01*
X162591342Y-95699500D01*
X162433658Y-95699500D01*
X162433655Y-95699500D01*
X162279010Y-95730261D01*
X162278998Y-95730264D01*
X162133327Y-95790602D01*
X162133314Y-95790609D01*
X162002211Y-95878210D01*
X162002207Y-95878213D01*
X161890713Y-95989707D01*
X161890710Y-95989711D01*
X161803109Y-96120814D01*
X161803102Y-96120827D01*
X161742764Y-96266498D01*
X161742761Y-96266510D01*
X161712000Y-96421153D01*
X157924897Y-96421153D01*
X157879185Y-96390609D01*
X157879172Y-96390602D01*
X157733501Y-96330264D01*
X157733489Y-96330261D01*
X157578845Y-96299500D01*
X157578842Y-96299500D01*
X157421158Y-96299500D01*
X157421155Y-96299500D01*
X157266510Y-96330261D01*
X157266498Y-96330264D01*
X157120827Y-96390602D01*
X157120814Y-96390609D01*
X156989711Y-96478210D01*
X156989707Y-96478213D01*
X156878213Y-96589707D01*
X156878210Y-96589711D01*
X156790609Y-96720814D01*
X156790602Y-96720827D01*
X156730264Y-96866498D01*
X156730261Y-96866510D01*
X156699500Y-97021153D01*
X154243172Y-97021153D01*
X154252490Y-96998656D01*
X154264447Y-96938545D01*
X154283253Y-96844003D01*
X154283253Y-96686314D01*
X154283252Y-96686312D01*
X154252490Y-96531662D01*
X154243637Y-96510288D01*
X154192150Y-96385986D01*
X154192143Y-96385973D01*
X154104542Y-96254870D01*
X154104539Y-96254866D01*
X153993045Y-96143372D01*
X153993041Y-96143369D01*
X153861938Y-96055768D01*
X153861925Y-96055761D01*
X153716254Y-95995423D01*
X153716242Y-95995420D01*
X153561598Y-95964659D01*
X153561595Y-95964659D01*
X153403911Y-95964659D01*
X153403908Y-95964659D01*
X153249263Y-95995420D01*
X153249251Y-95995423D01*
X153103580Y-96055761D01*
X153103567Y-96055768D01*
X152972464Y-96143369D01*
X152972460Y-96143372D01*
X152860966Y-96254866D01*
X152860963Y-96254870D01*
X152773362Y-96385973D01*
X152773355Y-96385986D01*
X152713017Y-96531657D01*
X152713014Y-96531669D01*
X152682253Y-96686312D01*
X145618391Y-96686312D01*
X145575672Y-96643593D01*
X145575668Y-96643590D01*
X145444565Y-96555989D01*
X145444552Y-96555982D01*
X145298881Y-96495644D01*
X145298869Y-96495641D01*
X145144225Y-96464880D01*
X145144222Y-96464880D01*
X144986538Y-96464880D01*
X144986535Y-96464880D01*
X144831890Y-96495641D01*
X144831878Y-96495644D01*
X144686207Y-96555982D01*
X144686194Y-96555989D01*
X144592095Y-96618865D01*
X144525417Y-96639743D01*
X144458037Y-96621258D01*
X144435523Y-96603444D01*
X144360292Y-96528213D01*
X144360288Y-96528210D01*
X144229185Y-96440609D01*
X144229172Y-96440602D01*
X144083501Y-96380264D01*
X144083489Y-96380261D01*
X143928845Y-96349500D01*
X143928842Y-96349500D01*
X143771158Y-96349500D01*
X143771155Y-96349500D01*
X143616510Y-96380261D01*
X143616498Y-96380264D01*
X143470827Y-96440602D01*
X143470814Y-96440609D01*
X143339711Y-96528210D01*
X143339707Y-96528213D01*
X143228213Y-96639707D01*
X143228210Y-96639711D01*
X143140609Y-96770814D01*
X143140602Y-96770827D01*
X143095493Y-96879733D01*
X143051652Y-96934137D01*
X142985358Y-96956202D01*
X142917659Y-96938923D01*
X142870048Y-96887786D01*
X142856949Y-96834314D01*
X142855089Y-96720827D01*
X142830504Y-95221153D01*
X143724500Y-95221153D01*
X143724500Y-95378846D01*
X143755261Y-95533489D01*
X143755264Y-95533501D01*
X143815602Y-95679172D01*
X143815609Y-95679185D01*
X143903210Y-95810288D01*
X143903213Y-95810292D01*
X144014707Y-95921786D01*
X144014711Y-95921789D01*
X144145814Y-96009390D01*
X144145827Y-96009397D01*
X144291498Y-96069735D01*
X144291503Y-96069737D01*
X144428779Y-96097043D01*
X144446153Y-96100499D01*
X144446156Y-96100500D01*
X144446158Y-96100500D01*
X144603844Y-96100500D01*
X144603845Y-96100499D01*
X144758497Y-96069737D01*
X144904179Y-96009394D01*
X145035289Y-95921789D01*
X145146789Y-95810289D01*
X145234394Y-95679179D01*
X145294737Y-95533497D01*
X145325500Y-95378842D01*
X145325500Y-95221158D01*
X145325500Y-95221155D01*
X145325499Y-95221153D01*
X145319244Y-95189707D01*
X145294737Y-95066503D01*
X145275955Y-95021158D01*
X145275953Y-95021153D01*
X146399500Y-95021153D01*
X146399500Y-95178846D01*
X146430261Y-95333489D01*
X146430264Y-95333501D01*
X146490602Y-95479172D01*
X146490609Y-95479185D01*
X146578210Y-95610288D01*
X146578213Y-95610292D01*
X146689707Y-95721786D01*
X146689711Y-95721789D01*
X146820814Y-95809390D01*
X146820827Y-95809397D01*
X146966498Y-95869735D01*
X146966503Y-95869737D01*
X147103779Y-95897043D01*
X147121153Y-95900499D01*
X147121156Y-95900500D01*
X147121158Y-95900500D01*
X147278844Y-95900500D01*
X147278845Y-95900499D01*
X147433497Y-95869737D01*
X147579179Y-95809394D01*
X147710289Y-95721789D01*
X147810925Y-95621153D01*
X165599500Y-95621153D01*
X165599500Y-95778846D01*
X165630261Y-95933489D01*
X165630264Y-95933501D01*
X165690602Y-96079172D01*
X165690609Y-96079185D01*
X165778210Y-96210288D01*
X165778213Y-96210292D01*
X165889707Y-96321786D01*
X165889711Y-96321789D01*
X166020814Y-96409390D01*
X166020827Y-96409397D01*
X166096181Y-96440609D01*
X166166503Y-96469737D01*
X166321153Y-96500499D01*
X166321156Y-96500500D01*
X166321158Y-96500500D01*
X166478844Y-96500500D01*
X166478845Y-96500499D01*
X166633497Y-96469737D01*
X166779179Y-96409394D01*
X166910289Y-96321789D01*
X167021789Y-96210289D01*
X167109394Y-96079179D01*
X167169737Y-95933497D01*
X167200500Y-95778842D01*
X167200500Y-95621158D01*
X167200500Y-95621155D01*
X167200499Y-95621153D01*
X167174353Y-95489711D01*
X167169737Y-95466503D01*
X167133427Y-95378842D01*
X167109397Y-95320827D01*
X167109390Y-95320814D01*
X167021789Y-95189711D01*
X167021786Y-95189707D01*
X166910292Y-95078213D01*
X166910288Y-95078210D01*
X166779185Y-94990609D01*
X166779172Y-94990602D01*
X166633501Y-94930264D01*
X166633489Y-94930261D01*
X166478845Y-94899500D01*
X166478842Y-94899500D01*
X166321158Y-94899500D01*
X166321155Y-94899500D01*
X166166510Y-94930261D01*
X166166498Y-94930264D01*
X166020827Y-94990602D01*
X166020814Y-94990609D01*
X165889711Y-95078210D01*
X165889707Y-95078213D01*
X165778213Y-95189707D01*
X165778210Y-95189711D01*
X165690609Y-95320814D01*
X165690602Y-95320827D01*
X165630264Y-95466498D01*
X165630261Y-95466510D01*
X165599500Y-95621153D01*
X147810925Y-95621153D01*
X147821789Y-95610289D01*
X147909394Y-95479179D01*
X147969737Y-95333497D01*
X148000500Y-95178842D01*
X148000500Y-95021158D01*
X148000500Y-95021155D01*
X148000499Y-95021153D01*
X147980734Y-94921789D01*
X147969737Y-94866503D01*
X147937929Y-94789711D01*
X147909397Y-94720827D01*
X147909390Y-94720814D01*
X147821789Y-94589711D01*
X147821786Y-94589707D01*
X147710292Y-94478213D01*
X147710288Y-94478210D01*
X147624897Y-94421153D01*
X151499500Y-94421153D01*
X151499500Y-94578846D01*
X151530261Y-94733489D01*
X151530264Y-94733501D01*
X151590602Y-94879172D01*
X151590609Y-94879185D01*
X151678210Y-95010288D01*
X151678213Y-95010292D01*
X151789707Y-95121786D01*
X151789711Y-95121789D01*
X151920814Y-95209390D01*
X151920827Y-95209397D01*
X152018853Y-95250000D01*
X152066503Y-95269737D01*
X152221153Y-95300499D01*
X152221156Y-95300500D01*
X152221158Y-95300500D01*
X152378844Y-95300500D01*
X152378845Y-95300499D01*
X152533497Y-95269737D01*
X152679179Y-95209394D01*
X152810289Y-95121789D01*
X152895771Y-95036306D01*
X152957092Y-95002823D01*
X153026784Y-95007807D01*
X153030885Y-95009420D01*
X153176503Y-95069737D01*
X153331153Y-95100499D01*
X153331156Y-95100500D01*
X153331158Y-95100500D01*
X153488844Y-95100500D01*
X153488845Y-95100499D01*
X153643497Y-95069737D01*
X153789179Y-95009394D01*
X153920289Y-94921789D01*
X154031789Y-94810289D01*
X154119394Y-94679179D01*
X154179737Y-94533497D01*
X154202083Y-94421158D01*
X154202084Y-94421153D01*
X174999500Y-94421153D01*
X174999500Y-94578846D01*
X175030261Y-94733489D01*
X175030264Y-94733501D01*
X175090602Y-94879172D01*
X175090609Y-94879185D01*
X175178210Y-95010288D01*
X175178213Y-95010292D01*
X175289707Y-95121786D01*
X175289710Y-95121788D01*
X175289711Y-95121789D01*
X175315219Y-95138833D01*
X175327289Y-95146898D01*
X175372093Y-95200511D01*
X175380800Y-95269836D01*
X175350645Y-95332863D01*
X175327289Y-95353102D01*
X175289707Y-95378213D01*
X175178213Y-95489707D01*
X175178210Y-95489711D01*
X175090609Y-95620814D01*
X175090602Y-95620827D01*
X175030264Y-95766498D01*
X175030261Y-95766510D01*
X174999500Y-95921153D01*
X174999500Y-96078846D01*
X175030261Y-96233489D01*
X175030264Y-96233501D01*
X175090602Y-96379172D01*
X175090609Y-96379185D01*
X175178210Y-96510288D01*
X175178213Y-96510292D01*
X175289707Y-96621786D01*
X175289711Y-96621789D01*
X175420814Y-96709390D01*
X175420827Y-96709397D01*
X175531144Y-96755091D01*
X175566503Y-96769737D01*
X175710500Y-96798380D01*
X175721153Y-96800499D01*
X175721156Y-96800500D01*
X175721158Y-96800500D01*
X175878844Y-96800500D01*
X175878845Y-96800499D01*
X176033497Y-96769737D01*
X176151592Y-96720821D01*
X176179172Y-96709397D01*
X176179172Y-96709396D01*
X176179179Y-96709394D01*
X176310289Y-96621789D01*
X176421789Y-96510289D01*
X176509394Y-96379179D01*
X176569737Y-96233497D01*
X176600500Y-96078842D01*
X176600500Y-95921158D01*
X176600500Y-95921155D01*
X176600499Y-95921153D01*
X176590271Y-95869735D01*
X176569737Y-95766503D01*
X176564372Y-95753550D01*
X176509397Y-95620827D01*
X176509390Y-95620814D01*
X176421789Y-95489711D01*
X176421786Y-95489707D01*
X176310292Y-95378213D01*
X176310284Y-95378207D01*
X176272712Y-95353102D01*
X176227906Y-95299490D01*
X176219199Y-95230165D01*
X176249353Y-95167138D01*
X176272712Y-95146898D01*
X176299279Y-95129145D01*
X176310289Y-95121789D01*
X176421789Y-95010289D01*
X176509394Y-94879179D01*
X176569737Y-94733497D01*
X176600500Y-94578842D01*
X176600500Y-94421158D01*
X176600500Y-94421155D01*
X176600499Y-94421153D01*
X176582419Y-94330261D01*
X176569737Y-94266503D01*
X176550955Y-94221158D01*
X176509397Y-94120827D01*
X176509390Y-94120814D01*
X176421789Y-93989711D01*
X176421786Y-93989707D01*
X176310292Y-93878213D01*
X176310288Y-93878210D01*
X176179185Y-93790609D01*
X176179172Y-93790602D01*
X176033501Y-93730264D01*
X176033489Y-93730261D01*
X175878845Y-93699500D01*
X175878842Y-93699500D01*
X175721158Y-93699500D01*
X175721155Y-93699500D01*
X175566510Y-93730261D01*
X175566498Y-93730264D01*
X175420827Y-93790602D01*
X175420814Y-93790609D01*
X175289711Y-93878210D01*
X175289707Y-93878213D01*
X175178213Y-93989707D01*
X175178210Y-93989711D01*
X175090609Y-94120814D01*
X175090602Y-94120827D01*
X175030264Y-94266498D01*
X175030261Y-94266510D01*
X174999500Y-94421153D01*
X154202084Y-94421153D01*
X154208107Y-94390875D01*
X154208107Y-94390874D01*
X154210500Y-94378844D01*
X154210500Y-94221155D01*
X154210499Y-94221153D01*
X154202802Y-94182459D01*
X154179737Y-94066503D01*
X154147929Y-93989711D01*
X154119397Y-93920827D01*
X154119390Y-93920814D01*
X154031789Y-93789711D01*
X154031786Y-93789707D01*
X153920292Y-93678213D01*
X153920288Y-93678210D01*
X153789185Y-93590609D01*
X153789172Y-93590602D01*
X153643501Y-93530264D01*
X153643489Y-93530261D01*
X153488845Y-93499500D01*
X153488842Y-93499500D01*
X153331158Y-93499500D01*
X153331155Y-93499500D01*
X153176510Y-93530261D01*
X153176498Y-93530264D01*
X153030827Y-93590602D01*
X153030814Y-93590609D01*
X152899711Y-93678210D01*
X152814229Y-93763692D01*
X152752905Y-93797176D01*
X152683214Y-93792192D01*
X152679096Y-93790571D01*
X152533501Y-93730264D01*
X152533489Y-93730261D01*
X152378845Y-93699500D01*
X152378842Y-93699500D01*
X152221158Y-93699500D01*
X152221155Y-93699500D01*
X152066510Y-93730261D01*
X152066498Y-93730264D01*
X151920827Y-93790602D01*
X151920814Y-93790609D01*
X151789711Y-93878210D01*
X151789707Y-93878213D01*
X151678213Y-93989707D01*
X151678210Y-93989711D01*
X151590609Y-94120814D01*
X151590602Y-94120827D01*
X151530264Y-94266498D01*
X151530261Y-94266510D01*
X151499500Y-94421153D01*
X147624897Y-94421153D01*
X147579185Y-94390609D01*
X147579172Y-94390602D01*
X147433501Y-94330264D01*
X147433489Y-94330261D01*
X147278845Y-94299500D01*
X147278842Y-94299500D01*
X147121158Y-94299500D01*
X147121155Y-94299500D01*
X146966510Y-94330261D01*
X146966498Y-94330264D01*
X146820827Y-94390602D01*
X146820814Y-94390609D01*
X146689711Y-94478210D01*
X146689707Y-94478213D01*
X146578213Y-94589707D01*
X146578210Y-94589711D01*
X146490609Y-94720814D01*
X146490602Y-94720827D01*
X146430264Y-94866498D01*
X146430261Y-94866510D01*
X146399500Y-95021153D01*
X145275953Y-95021153D01*
X145234397Y-94920827D01*
X145234390Y-94920814D01*
X145146789Y-94789711D01*
X145146786Y-94789707D01*
X145035292Y-94678213D01*
X145035288Y-94678210D01*
X144904185Y-94590609D01*
X144904172Y-94590602D01*
X144758501Y-94530264D01*
X144758489Y-94530261D01*
X144603845Y-94499500D01*
X144603842Y-94499500D01*
X144446158Y-94499500D01*
X144446155Y-94499500D01*
X144291510Y-94530261D01*
X144291498Y-94530264D01*
X144145827Y-94590602D01*
X144145814Y-94590609D01*
X144014711Y-94678210D01*
X144014707Y-94678213D01*
X143903213Y-94789707D01*
X143903210Y-94789711D01*
X143815609Y-94920814D01*
X143815602Y-94920827D01*
X143755264Y-95066498D01*
X143755261Y-95066510D01*
X143724500Y-95221153D01*
X142830504Y-95221153D01*
X142815920Y-94331531D01*
X142834503Y-94264179D01*
X142886550Y-94217565D01*
X142939903Y-94205500D01*
X143595183Y-94205500D01*
X143633992Y-94203591D01*
X143644762Y-94203062D01*
X143654319Y-94202120D01*
X143654332Y-94202117D01*
X143654341Y-94202117D01*
X143665550Y-94200453D01*
X143703354Y-94194845D01*
X143765596Y-94182464D01*
X143860417Y-94153700D01*
X143878080Y-94146384D01*
X143965476Y-94099671D01*
X144014154Y-94067146D01*
X144090759Y-94004278D01*
X144104278Y-93990759D01*
X144167146Y-93914154D01*
X144199671Y-93865476D01*
X144246384Y-93778080D01*
X144253700Y-93760417D01*
X144282463Y-93665599D01*
X144294844Y-93603359D01*
X144302122Y-93554306D01*
X144303064Y-93544746D01*
X144305500Y-93495176D01*
X144305500Y-90971153D01*
X153899500Y-90971153D01*
X153899500Y-91128846D01*
X153930261Y-91283489D01*
X153930264Y-91283501D01*
X153990602Y-91429172D01*
X153990609Y-91429185D01*
X154078210Y-91560288D01*
X154078213Y-91560292D01*
X154189707Y-91671786D01*
X154189711Y-91671789D01*
X154320814Y-91759390D01*
X154320827Y-91759397D01*
X154387422Y-91786981D01*
X154466503Y-91819737D01*
X154621153Y-91850499D01*
X154621156Y-91850500D01*
X154621158Y-91850500D01*
X154778844Y-91850500D01*
X154778845Y-91850499D01*
X154933497Y-91819737D01*
X155062028Y-91766498D01*
X155079172Y-91759397D01*
X155079172Y-91759396D01*
X155079179Y-91759394D01*
X155210289Y-91671789D01*
X155248635Y-91633443D01*
X155309957Y-91599957D01*
X155379649Y-91604941D01*
X155435583Y-91646811D01*
X155439405Y-91652212D01*
X155466954Y-91693443D01*
X155478212Y-91710291D01*
X155589707Y-91821786D01*
X155589711Y-91821789D01*
X155720814Y-91909390D01*
X155720821Y-91909394D01*
X155788163Y-91937287D01*
X155842565Y-91981127D01*
X155864631Y-92047420D01*
X155847353Y-92115120D01*
X155831974Y-92134917D01*
X155832076Y-92135001D01*
X155828980Y-92138773D01*
X155828401Y-92139519D01*
X155828218Y-92139701D01*
X155828210Y-92139711D01*
X155740609Y-92270814D01*
X155740602Y-92270827D01*
X155680264Y-92416498D01*
X155680261Y-92416510D01*
X155649500Y-92571153D01*
X155649500Y-92728846D01*
X155680261Y-92883489D01*
X155680264Y-92883501D01*
X155740602Y-93029172D01*
X155740609Y-93029185D01*
X155828210Y-93160288D01*
X155828213Y-93160292D01*
X155939707Y-93271786D01*
X155939711Y-93271789D01*
X156070814Y-93359390D01*
X156070827Y-93359397D01*
X156216498Y-93419735D01*
X156216503Y-93419737D01*
X156371153Y-93450499D01*
X156371156Y-93450500D01*
X156371158Y-93450500D01*
X156528844Y-93450500D01*
X156528845Y-93450499D01*
X156683497Y-93419737D01*
X156829179Y-93359394D01*
X156960289Y-93271789D01*
X157071789Y-93160289D01*
X157159394Y-93029179D01*
X157219737Y-92883497D01*
X157250500Y-92728842D01*
X157250500Y-92571158D01*
X157250500Y-92571155D01*
X157250499Y-92571153D01*
X157219738Y-92416510D01*
X157219737Y-92416503D01*
X157219735Y-92416498D01*
X157159397Y-92270827D01*
X157159390Y-92270814D01*
X157071789Y-92139711D01*
X157071786Y-92139707D01*
X156960289Y-92028210D01*
X156948893Y-92020596D01*
X156948888Y-92020593D01*
X156829179Y-91940606D01*
X156782216Y-91921153D01*
X159399500Y-91921153D01*
X159399500Y-92078846D01*
X159430261Y-92233489D01*
X159430264Y-92233501D01*
X159490602Y-92379172D01*
X159490609Y-92379185D01*
X159578210Y-92510288D01*
X159578213Y-92510292D01*
X159689707Y-92621786D01*
X159689711Y-92621789D01*
X159820814Y-92709390D01*
X159820827Y-92709397D01*
X159966498Y-92769735D01*
X159966503Y-92769737D01*
X160121153Y-92800499D01*
X160121156Y-92800500D01*
X160121158Y-92800500D01*
X160278844Y-92800500D01*
X160278845Y-92800499D01*
X160433497Y-92769737D01*
X160579179Y-92709394D01*
X160710289Y-92621789D01*
X160821789Y-92510289D01*
X160909394Y-92379179D01*
X160969737Y-92233497D01*
X161000500Y-92078842D01*
X161000500Y-91921158D01*
X161000500Y-91921155D01*
X161000499Y-91921153D01*
X160992365Y-91880263D01*
X160969737Y-91766503D01*
X160956638Y-91734878D01*
X160909397Y-91620827D01*
X160909390Y-91620814D01*
X160821789Y-91489711D01*
X160821786Y-91489707D01*
X160710292Y-91378213D01*
X160710288Y-91378210D01*
X160579185Y-91290609D01*
X160579172Y-91290602D01*
X160433501Y-91230264D01*
X160433489Y-91230261D01*
X160278845Y-91199500D01*
X160278842Y-91199500D01*
X160121158Y-91199500D01*
X160121155Y-91199500D01*
X159966510Y-91230261D01*
X159966498Y-91230264D01*
X159820827Y-91290602D01*
X159820814Y-91290609D01*
X159689711Y-91378210D01*
X159689707Y-91378213D01*
X159578213Y-91489707D01*
X159578210Y-91489711D01*
X159490609Y-91620814D01*
X159490602Y-91620827D01*
X159430264Y-91766498D01*
X159430261Y-91766510D01*
X159399500Y-91921153D01*
X156782216Y-91921153D01*
X156754614Y-91909720D01*
X156747827Y-91905847D01*
X156728797Y-91886087D01*
X156707433Y-91868872D01*
X156704906Y-91861281D01*
X156699359Y-91855521D01*
X156694032Y-91828611D01*
X156685368Y-91802578D01*
X156687346Y-91794827D01*
X156685793Y-91786981D01*
X156695863Y-91761457D01*
X156702647Y-91734878D01*
X156710170Y-91725194D01*
X156711436Y-91721987D01*
X156714217Y-91719985D01*
X156718026Y-91715082D01*
X156717924Y-91714999D01*
X156721067Y-91711168D01*
X156721618Y-91710460D01*
X156721789Y-91710289D01*
X156809394Y-91579179D01*
X156869737Y-91433497D01*
X156900500Y-91278842D01*
X156900500Y-91121158D01*
X156900500Y-91121155D01*
X156900499Y-91121153D01*
X156869738Y-90966510D01*
X156869737Y-90966503D01*
X156869735Y-90966498D01*
X156809397Y-90820827D01*
X156809390Y-90820814D01*
X156721789Y-90689711D01*
X156721786Y-90689707D01*
X156610292Y-90578213D01*
X156610288Y-90578210D01*
X156479185Y-90490609D01*
X156479172Y-90490602D01*
X156333501Y-90430264D01*
X156333489Y-90430261D01*
X156178845Y-90399500D01*
X156178842Y-90399500D01*
X156021158Y-90399500D01*
X156021155Y-90399500D01*
X155866510Y-90430261D01*
X155866498Y-90430264D01*
X155720827Y-90490602D01*
X155720814Y-90490609D01*
X155589711Y-90578210D01*
X155589706Y-90578214D01*
X155551363Y-90616557D01*
X155490040Y-90650042D01*
X155420348Y-90645056D01*
X155364415Y-90603184D01*
X155360581Y-90597766D01*
X155321789Y-90539711D01*
X155321786Y-90539707D01*
X155210292Y-90428213D01*
X155210288Y-90428210D01*
X155079185Y-90340609D01*
X155079172Y-90340602D01*
X154933501Y-90280264D01*
X154933489Y-90280261D01*
X154778845Y-90249500D01*
X154778842Y-90249500D01*
X154621158Y-90249500D01*
X154621155Y-90249500D01*
X154466510Y-90280261D01*
X154466498Y-90280264D01*
X154320827Y-90340602D01*
X154320814Y-90340609D01*
X154189711Y-90428210D01*
X154189707Y-90428213D01*
X154078213Y-90539707D01*
X154078210Y-90539711D01*
X153990609Y-90670814D01*
X153990602Y-90670827D01*
X153930264Y-90816498D01*
X153930261Y-90816510D01*
X153899500Y-90971153D01*
X144305500Y-90971153D01*
X144305500Y-87421153D01*
X156099500Y-87421153D01*
X156099500Y-87578846D01*
X156130261Y-87733489D01*
X156130264Y-87733501D01*
X156190602Y-87879172D01*
X156190609Y-87879185D01*
X156278210Y-88010288D01*
X156278213Y-88010292D01*
X156389707Y-88121786D01*
X156389711Y-88121789D01*
X156520814Y-88209390D01*
X156520827Y-88209397D01*
X156666498Y-88269735D01*
X156666503Y-88269737D01*
X156821153Y-88300499D01*
X156821156Y-88300500D01*
X156821158Y-88300500D01*
X156978844Y-88300500D01*
X156978845Y-88300499D01*
X157133497Y-88269737D01*
X157279179Y-88209394D01*
X157410289Y-88121789D01*
X157521789Y-88010289D01*
X157609394Y-87879179D01*
X157669737Y-87733497D01*
X157700500Y-87578842D01*
X157700500Y-87421158D01*
X157700500Y-87421155D01*
X157700499Y-87421153D01*
X157669738Y-87266510D01*
X157669737Y-87266503D01*
X157669735Y-87266498D01*
X157618382Y-87142518D01*
X157609395Y-87120824D01*
X157609394Y-87120821D01*
X157609392Y-87120818D01*
X157609390Y-87120814D01*
X157596253Y-87101153D01*
X163899500Y-87101153D01*
X163899500Y-87258846D01*
X163930261Y-87413489D01*
X163930264Y-87413501D01*
X163990602Y-87559171D01*
X163990603Y-87559172D01*
X163990606Y-87559179D01*
X163990609Y-87559183D01*
X163990611Y-87559187D01*
X164031986Y-87621111D01*
X164052863Y-87687788D01*
X164034378Y-87755168D01*
X164031986Y-87758889D01*
X163990611Y-87820812D01*
X163990602Y-87820828D01*
X163930264Y-87966498D01*
X163930261Y-87966510D01*
X163899500Y-88121153D01*
X163899500Y-88278846D01*
X163930261Y-88433489D01*
X163930264Y-88433501D01*
X163990602Y-88579172D01*
X163990609Y-88579185D01*
X164078210Y-88710288D01*
X164078213Y-88710292D01*
X164189707Y-88821786D01*
X164189711Y-88821789D01*
X164320814Y-88909390D01*
X164320827Y-88909397D01*
X164466498Y-88969735D01*
X164466503Y-88969737D01*
X164621153Y-89000499D01*
X164621156Y-89000500D01*
X164621158Y-89000500D01*
X164778844Y-89000500D01*
X164778845Y-89000499D01*
X164933497Y-88969737D01*
X165079179Y-88909394D01*
X165210289Y-88821789D01*
X165321789Y-88710289D01*
X165409394Y-88579179D01*
X165469737Y-88433497D01*
X165500500Y-88278842D01*
X165500500Y-88221153D01*
X175099500Y-88221153D01*
X175099500Y-88378846D01*
X175130261Y-88533489D01*
X175130264Y-88533501D01*
X175190602Y-88679172D01*
X175190609Y-88679185D01*
X175278210Y-88810288D01*
X175278213Y-88810292D01*
X175389707Y-88921786D01*
X175389711Y-88921789D01*
X175520814Y-89009390D01*
X175520827Y-89009397D01*
X175666498Y-89069735D01*
X175666503Y-89069737D01*
X175821153Y-89100499D01*
X175821156Y-89100500D01*
X175821158Y-89100500D01*
X175978844Y-89100500D01*
X175978845Y-89100499D01*
X176133497Y-89069737D01*
X176279179Y-89009394D01*
X176410289Y-88921789D01*
X176521789Y-88810289D01*
X176609394Y-88679179D01*
X176669737Y-88533497D01*
X176700500Y-88378842D01*
X176700500Y-88221158D01*
X176700500Y-88221155D01*
X176700499Y-88221153D01*
X176680734Y-88121789D01*
X176669737Y-88066503D01*
X176613897Y-87931692D01*
X176609397Y-87920827D01*
X176609390Y-87920814D01*
X176521789Y-87789711D01*
X176521786Y-87789707D01*
X176410292Y-87678213D01*
X176410288Y-87678210D01*
X176279185Y-87590609D01*
X176279172Y-87590602D01*
X176133501Y-87530264D01*
X176133489Y-87530261D01*
X175978845Y-87499500D01*
X175978842Y-87499500D01*
X175821158Y-87499500D01*
X175821155Y-87499500D01*
X175666510Y-87530261D01*
X175666498Y-87530264D01*
X175520827Y-87590602D01*
X175520814Y-87590609D01*
X175389711Y-87678210D01*
X175389707Y-87678213D01*
X175278213Y-87789707D01*
X175278210Y-87789711D01*
X175190609Y-87920814D01*
X175190602Y-87920827D01*
X175130264Y-88066498D01*
X175130261Y-88066510D01*
X175099500Y-88221153D01*
X165500500Y-88221153D01*
X165500500Y-88121158D01*
X165500500Y-88121155D01*
X165500499Y-88121153D01*
X165478447Y-88010292D01*
X165469737Y-87966503D01*
X165433569Y-87879185D01*
X165409397Y-87820827D01*
X165409389Y-87820813D01*
X165368014Y-87758892D01*
X165347135Y-87692215D01*
X165365619Y-87624835D01*
X165368014Y-87621108D01*
X165388395Y-87590606D01*
X165409394Y-87559179D01*
X165469737Y-87413497D01*
X165500500Y-87258842D01*
X165500500Y-87101158D01*
X165500500Y-87101155D01*
X165500499Y-87101153D01*
X165480882Y-87002533D01*
X165469737Y-86946503D01*
X165441450Y-86878211D01*
X165409397Y-86800827D01*
X165409390Y-86800814D01*
X165321789Y-86669711D01*
X165321786Y-86669707D01*
X165210292Y-86558213D01*
X165210288Y-86558210D01*
X165079185Y-86470609D01*
X165079172Y-86470602D01*
X164933501Y-86410264D01*
X164933489Y-86410261D01*
X164778845Y-86379500D01*
X164778842Y-86379500D01*
X164621158Y-86379500D01*
X164621155Y-86379500D01*
X164466510Y-86410261D01*
X164466498Y-86410264D01*
X164320827Y-86470602D01*
X164320814Y-86470609D01*
X164189711Y-86558210D01*
X164189707Y-86558213D01*
X164078213Y-86669707D01*
X164078210Y-86669711D01*
X163990609Y-86800814D01*
X163990602Y-86800827D01*
X163930264Y-86946498D01*
X163930261Y-86946510D01*
X163899500Y-87101153D01*
X157596253Y-87101153D01*
X157521789Y-86989711D01*
X157521786Y-86989707D01*
X157410292Y-86878213D01*
X157410288Y-86878210D01*
X157279185Y-86790609D01*
X157279172Y-86790602D01*
X157133501Y-86730264D01*
X157133489Y-86730261D01*
X156978845Y-86699500D01*
X156978842Y-86699500D01*
X156821158Y-86699500D01*
X156821155Y-86699500D01*
X156666510Y-86730261D01*
X156666498Y-86730264D01*
X156520827Y-86790602D01*
X156520814Y-86790609D01*
X156389711Y-86878210D01*
X156389707Y-86878213D01*
X156278213Y-86989707D01*
X156278210Y-86989711D01*
X156190609Y-87120814D01*
X156190602Y-87120827D01*
X156130264Y-87266498D01*
X156130261Y-87266510D01*
X156099500Y-87421153D01*
X144305500Y-87421153D01*
X144305500Y-86804823D01*
X144303064Y-86755253D01*
X144302122Y-86745693D01*
X144302120Y-86745682D01*
X144302119Y-86745669D01*
X144295268Y-86699500D01*
X144294844Y-86696640D01*
X144282463Y-86634400D01*
X144253700Y-86539582D01*
X144246384Y-86521919D01*
X144199669Y-86434519D01*
X144167142Y-86385839D01*
X144104276Y-86309238D01*
X144090761Y-86295723D01*
X144090760Y-86295722D01*
X144014175Y-86232868D01*
X144014165Y-86232861D01*
X144014164Y-86232860D01*
X143965485Y-86200333D01*
X143965473Y-86200327D01*
X143965469Y-86200324D01*
X143878074Y-86153613D01*
X143878060Y-86153606D01*
X143860396Y-86146290D01*
X143765596Y-86117536D01*
X143765593Y-86117535D01*
X143765592Y-86117535D01*
X143703353Y-86105155D01*
X143703330Y-86105151D01*
X143654330Y-86097881D01*
X143654313Y-86097879D01*
X143654311Y-86097879D01*
X143651988Y-86097650D01*
X143644756Y-86096937D01*
X143633735Y-86096395D01*
X143595177Y-86094500D01*
X141174823Y-86094500D01*
X141174812Y-86094500D01*
X141125356Y-86096925D01*
X141115804Y-86097864D01*
X141080864Y-86103045D01*
X141066652Y-86105153D01*
X141066641Y-86105155D01*
X141066636Y-86105156D01*
X141004392Y-86117537D01*
X140909569Y-86146302D01*
X140891914Y-86153615D01*
X140804520Y-86200329D01*
X140755842Y-86232855D01*
X140755829Y-86232865D01*
X140679236Y-86295724D01*
X140665725Y-86309235D01*
X140602855Y-86385841D01*
X140602846Y-86385853D01*
X140570331Y-86434515D01*
X140570330Y-86434517D01*
X140523629Y-86521885D01*
X140523624Y-86521898D01*
X140516310Y-86539553D01*
X140487537Y-86634394D01*
X140487536Y-86634397D01*
X140475156Y-86696636D01*
X140475154Y-86696648D01*
X140467864Y-86745804D01*
X140466925Y-86755356D01*
X140464500Y-86804811D01*
X140464500Y-86804823D01*
X140464500Y-95753550D01*
X140466928Y-95790609D01*
X140468820Y-95819500D01*
X140468820Y-95819503D01*
X140470488Y-95832174D01*
X140470491Y-95832193D01*
X140479644Y-95878211D01*
X140483392Y-95897056D01*
X140498422Y-95953150D01*
X140521718Y-96009390D01*
X140548927Y-96075079D01*
X140548931Y-96075087D01*
X140558703Y-96092010D01*
X140561609Y-96097043D01*
X140561614Y-96097049D01*
X140561619Y-96097057D01*
X140641928Y-96201715D01*
X140641938Y-96201726D01*
X140658158Y-96217946D01*
X140691643Y-96279269D01*
X140692094Y-96329818D01*
X140664500Y-96468540D01*
X140664500Y-96468545D01*
X140664500Y-96611455D01*
X140664500Y-96611457D01*
X140664499Y-96611457D01*
X140692219Y-96750808D01*
X140692219Y-96799192D01*
X140664500Y-96938542D01*
X140664500Y-96938545D01*
X140664500Y-97081455D01*
X140664500Y-97081457D01*
X140664499Y-97081457D01*
X140680529Y-97162039D01*
X140674302Y-97231631D01*
X140631439Y-97286808D01*
X140583104Y-97307848D01*
X140534392Y-97317537D01*
X140439569Y-97346302D01*
X140421914Y-97353615D01*
X140334520Y-97400329D01*
X140285842Y-97432855D01*
X140285829Y-97432865D01*
X140209236Y-97495724D01*
X140195725Y-97509235D01*
X140132855Y-97585841D01*
X140132846Y-97585853D01*
X140100331Y-97634515D01*
X140100330Y-97634517D01*
X140053629Y-97721885D01*
X140053624Y-97721898D01*
X140046310Y-97739553D01*
X140017537Y-97834394D01*
X140017536Y-97834397D01*
X140007040Y-97887166D01*
X140005153Y-97896652D01*
X140003045Y-97910864D01*
X139997864Y-97945804D01*
X139996925Y-97955356D01*
X139994500Y-98004811D01*
X130300500Y-98004811D01*
X130300500Y-92821153D01*
X136999500Y-92821153D01*
X136999500Y-92978846D01*
X137030261Y-93133489D01*
X137030264Y-93133501D01*
X137090602Y-93279172D01*
X137090609Y-93279185D01*
X137178210Y-93410288D01*
X137178213Y-93410292D01*
X137289707Y-93521786D01*
X137289711Y-93521789D01*
X137420814Y-93609390D01*
X137420827Y-93609397D01*
X137556501Y-93665594D01*
X137566503Y-93669737D01*
X137716131Y-93699500D01*
X137721153Y-93700499D01*
X137721156Y-93700500D01*
X137721158Y-93700500D01*
X137878844Y-93700500D01*
X137878845Y-93700499D01*
X138033497Y-93669737D01*
X138179179Y-93609394D01*
X138310289Y-93521789D01*
X138421789Y-93410289D01*
X138509394Y-93279179D01*
X138569737Y-93133497D01*
X138600500Y-92978842D01*
X138600500Y-92821158D01*
X138600500Y-92821155D01*
X138600499Y-92821153D01*
X138578269Y-92709397D01*
X138569737Y-92666503D01*
X138530242Y-92571153D01*
X138509397Y-92520827D01*
X138509390Y-92520814D01*
X138421789Y-92389711D01*
X138421786Y-92389707D01*
X138310292Y-92278213D01*
X138310288Y-92278210D01*
X138179185Y-92190609D01*
X138179172Y-92190602D01*
X138033501Y-92130264D01*
X138033489Y-92130261D01*
X137878845Y-92099500D01*
X137878842Y-92099500D01*
X137721158Y-92099500D01*
X137721155Y-92099500D01*
X137566510Y-92130261D01*
X137566498Y-92130264D01*
X137420827Y-92190602D01*
X137420814Y-92190609D01*
X137289711Y-92278210D01*
X137289707Y-92278213D01*
X137178213Y-92389707D01*
X137178210Y-92389711D01*
X137090609Y-92520814D01*
X137090602Y-92520827D01*
X137030264Y-92666498D01*
X137030261Y-92666510D01*
X136999500Y-92821153D01*
X130300500Y-92821153D01*
X130300500Y-87390000D01*
X131680138Y-87390000D01*
X132600254Y-87390000D01*
X132508393Y-87428050D01*
X132438063Y-87498380D01*
X132400001Y-87590270D01*
X132400001Y-87689730D01*
X132438063Y-87781620D01*
X132508393Y-87851950D01*
X132600254Y-87890000D01*
X131680138Y-87890000D01*
X131688430Y-87931690D01*
X131688430Y-87931692D01*
X131763807Y-88113671D01*
X131763814Y-88113684D01*
X131873248Y-88277462D01*
X131873251Y-88277466D01*
X132012533Y-88416748D01*
X132012537Y-88416751D01*
X132176315Y-88526185D01*
X132176328Y-88526192D01*
X132358306Y-88601569D01*
X132358318Y-88601572D01*
X132551504Y-88639999D01*
X132551508Y-88640000D01*
X132750000Y-88640000D01*
X132750000Y-87890012D01*
X133250000Y-87890012D01*
X133250000Y-88640000D01*
X133448492Y-88640000D01*
X133448495Y-88639999D01*
X133641681Y-88601572D01*
X133641693Y-88601569D01*
X133823671Y-88526192D01*
X133823684Y-88526185D01*
X133987462Y-88416751D01*
X133987466Y-88416748D01*
X134126748Y-88277466D01*
X134126751Y-88277462D01*
X134236185Y-88113684D01*
X134236192Y-88113671D01*
X134311569Y-87931692D01*
X134311569Y-87931690D01*
X134319862Y-87890000D01*
X133399746Y-87890000D01*
X133491607Y-87851950D01*
X133561937Y-87781620D01*
X133599999Y-87689730D01*
X133599999Y-87590270D01*
X133561937Y-87498380D01*
X133491607Y-87428050D01*
X133399746Y-87390000D01*
X134319862Y-87390000D01*
X135490138Y-87390000D01*
X136410254Y-87390000D01*
X136318393Y-87428050D01*
X136248063Y-87498380D01*
X136210001Y-87590270D01*
X136210001Y-87689730D01*
X136248063Y-87781620D01*
X136318393Y-87851950D01*
X136410254Y-87890000D01*
X135490138Y-87890000D01*
X135498430Y-87931690D01*
X135498430Y-87931692D01*
X135573807Y-88113671D01*
X135573814Y-88113684D01*
X135683248Y-88277462D01*
X135683251Y-88277466D01*
X135822533Y-88416748D01*
X135822537Y-88416751D01*
X135986315Y-88526185D01*
X135986328Y-88526192D01*
X136168306Y-88601569D01*
X136168318Y-88601572D01*
X136361504Y-88639999D01*
X136361508Y-88640000D01*
X136560000Y-88640000D01*
X136560000Y-87890012D01*
X137060000Y-87890012D01*
X137060000Y-88640000D01*
X137258492Y-88640000D01*
X137258495Y-88639999D01*
X137451681Y-88601572D01*
X137451693Y-88601569D01*
X137633671Y-88526192D01*
X137633684Y-88526185D01*
X137797462Y-88416751D01*
X137797466Y-88416748D01*
X137936748Y-88277466D01*
X137936751Y-88277462D01*
X138046185Y-88113684D01*
X138046192Y-88113671D01*
X138121569Y-87931692D01*
X138121569Y-87931690D01*
X138129862Y-87890000D01*
X137209746Y-87890000D01*
X137301607Y-87851950D01*
X137371937Y-87781620D01*
X137409999Y-87689730D01*
X137409999Y-87590270D01*
X137371937Y-87498380D01*
X137301607Y-87428050D01*
X137209746Y-87390000D01*
X138129862Y-87390000D01*
X138121569Y-87348309D01*
X138121569Y-87348307D01*
X138046192Y-87166328D01*
X138046185Y-87166315D01*
X137936751Y-87002537D01*
X137936748Y-87002533D01*
X137797466Y-86863251D01*
X137797462Y-86863248D01*
X137633684Y-86753814D01*
X137633671Y-86753807D01*
X137451693Y-86678430D01*
X137451681Y-86678427D01*
X137258495Y-86640000D01*
X137060000Y-86640000D01*
X137060000Y-87389988D01*
X136560000Y-87389988D01*
X136560000Y-86640000D01*
X136361504Y-86640000D01*
X136168318Y-86678427D01*
X136168306Y-86678430D01*
X135986328Y-86753807D01*
X135986315Y-86753814D01*
X135822537Y-86863248D01*
X135822533Y-86863251D01*
X135683251Y-87002533D01*
X135683248Y-87002537D01*
X135573814Y-87166315D01*
X135573807Y-87166328D01*
X135498430Y-87348307D01*
X135498430Y-87348309D01*
X135490138Y-87390000D01*
X134319862Y-87390000D01*
X134311569Y-87348309D01*
X134311569Y-87348307D01*
X134236192Y-87166328D01*
X134236185Y-87166315D01*
X134126751Y-87002537D01*
X134126748Y-87002533D01*
X133987466Y-86863251D01*
X133987462Y-86863248D01*
X133823684Y-86753814D01*
X133823671Y-86753807D01*
X133641693Y-86678430D01*
X133641681Y-86678427D01*
X133448495Y-86640000D01*
X133250000Y-86640000D01*
X133250000Y-87389988D01*
X132750000Y-87389988D01*
X132750000Y-86640000D01*
X132551504Y-86640000D01*
X132358318Y-86678427D01*
X132358306Y-86678430D01*
X132176328Y-86753807D01*
X132176315Y-86753814D01*
X132012537Y-86863248D01*
X132012533Y-86863251D01*
X131873251Y-87002533D01*
X131873248Y-87002537D01*
X131763814Y-87166315D01*
X131763807Y-87166328D01*
X131688430Y-87348307D01*
X131688430Y-87348309D01*
X131680138Y-87390000D01*
X130300500Y-87390000D01*
X130300500Y-84921153D01*
X148999500Y-84921153D01*
X148999500Y-85078846D01*
X149030261Y-85233489D01*
X149030264Y-85233501D01*
X149090602Y-85379172D01*
X149090609Y-85379185D01*
X149178210Y-85510288D01*
X149178213Y-85510292D01*
X149289707Y-85621786D01*
X149289711Y-85621789D01*
X149420814Y-85709390D01*
X149420827Y-85709397D01*
X149566498Y-85769735D01*
X149566503Y-85769737D01*
X149721153Y-85800499D01*
X149721156Y-85800500D01*
X149721158Y-85800500D01*
X149878844Y-85800500D01*
X149878845Y-85800499D01*
X150033497Y-85769737D01*
X150179179Y-85709394D01*
X150310289Y-85621789D01*
X150421789Y-85510289D01*
X150509394Y-85379179D01*
X150569737Y-85233497D01*
X150592083Y-85121158D01*
X150592084Y-85121153D01*
X162999500Y-85121153D01*
X162999500Y-85278846D01*
X163030261Y-85433489D01*
X163030264Y-85433501D01*
X163090602Y-85579172D01*
X163090609Y-85579185D01*
X163178210Y-85710288D01*
X163178213Y-85710292D01*
X163289707Y-85821786D01*
X163289711Y-85821789D01*
X163420814Y-85909390D01*
X163420827Y-85909397D01*
X163566498Y-85969735D01*
X163566503Y-85969737D01*
X163721153Y-86000499D01*
X163721156Y-86000500D01*
X163721158Y-86000500D01*
X163878844Y-86000500D01*
X163878845Y-86000499D01*
X164033497Y-85969737D01*
X164179179Y-85909394D01*
X164310289Y-85821789D01*
X164421789Y-85710289D01*
X164509394Y-85579179D01*
X164569737Y-85433497D01*
X164600500Y-85278842D01*
X164600500Y-85221153D01*
X175099500Y-85221153D01*
X175099500Y-85378846D01*
X175130261Y-85533489D01*
X175130264Y-85533501D01*
X175190602Y-85679172D01*
X175190609Y-85679185D01*
X175278210Y-85810288D01*
X175278213Y-85810292D01*
X175389707Y-85921786D01*
X175389711Y-85921789D01*
X175520814Y-86009390D01*
X175520827Y-86009397D01*
X175666498Y-86069735D01*
X175666503Y-86069737D01*
X175821153Y-86100499D01*
X175821156Y-86100500D01*
X175821158Y-86100500D01*
X175978844Y-86100500D01*
X175978845Y-86100499D01*
X176133497Y-86069737D01*
X176279179Y-86009394D01*
X176410289Y-85921789D01*
X176521789Y-85810289D01*
X176609394Y-85679179D01*
X176669737Y-85533497D01*
X176700500Y-85378842D01*
X176700500Y-85221158D01*
X176700500Y-85221155D01*
X176700499Y-85221153D01*
X176669737Y-85066503D01*
X176609534Y-84921158D01*
X176609397Y-84920827D01*
X176609390Y-84920814D01*
X176521789Y-84789711D01*
X176521786Y-84789707D01*
X176410292Y-84678213D01*
X176410288Y-84678210D01*
X176279185Y-84590609D01*
X176279172Y-84590602D01*
X176133501Y-84530264D01*
X176133489Y-84530261D01*
X175978845Y-84499500D01*
X175978842Y-84499500D01*
X175821158Y-84499500D01*
X175821155Y-84499500D01*
X175666510Y-84530261D01*
X175666498Y-84530264D01*
X175520827Y-84590602D01*
X175520814Y-84590609D01*
X175389711Y-84678210D01*
X175389707Y-84678213D01*
X175278213Y-84789707D01*
X175278210Y-84789711D01*
X175190609Y-84920814D01*
X175190602Y-84920827D01*
X175130264Y-85066498D01*
X175130261Y-85066510D01*
X175099500Y-85221153D01*
X164600500Y-85221153D01*
X164600500Y-85121158D01*
X164600500Y-85121155D01*
X164600499Y-85121153D01*
X164594476Y-85090874D01*
X164569737Y-84966503D01*
X164550955Y-84921158D01*
X164509397Y-84820827D01*
X164509390Y-84820814D01*
X164421789Y-84689711D01*
X164421786Y-84689707D01*
X164310292Y-84578213D01*
X164310288Y-84578210D01*
X164179185Y-84490609D01*
X164179172Y-84490602D01*
X164033501Y-84430264D01*
X164033489Y-84430261D01*
X163878845Y-84399500D01*
X163878842Y-84399500D01*
X163721158Y-84399500D01*
X163721155Y-84399500D01*
X163566510Y-84430261D01*
X163566498Y-84430264D01*
X163420827Y-84490602D01*
X163420814Y-84490609D01*
X163289711Y-84578210D01*
X163289707Y-84578213D01*
X163178213Y-84689707D01*
X163178210Y-84689711D01*
X163090609Y-84820814D01*
X163090602Y-84820827D01*
X163030264Y-84966498D01*
X163030261Y-84966510D01*
X162999500Y-85121153D01*
X150592084Y-85121153D01*
X150598107Y-85090875D01*
X150598107Y-85090874D01*
X150600500Y-85078844D01*
X150600500Y-84921155D01*
X150600499Y-84921153D01*
X150580543Y-84820827D01*
X150569737Y-84766503D01*
X150537929Y-84689711D01*
X150509397Y-84620827D01*
X150509390Y-84620814D01*
X150421789Y-84489711D01*
X150421786Y-84489707D01*
X150310292Y-84378213D01*
X150310288Y-84378210D01*
X150179185Y-84290609D01*
X150179172Y-84290602D01*
X150033501Y-84230264D01*
X150033489Y-84230261D01*
X149878845Y-84199500D01*
X149878842Y-84199500D01*
X149721158Y-84199500D01*
X149721155Y-84199500D01*
X149566510Y-84230261D01*
X149566498Y-84230264D01*
X149420827Y-84290602D01*
X149420814Y-84290609D01*
X149289711Y-84378210D01*
X149289707Y-84378213D01*
X149178213Y-84489707D01*
X149178210Y-84489711D01*
X149090609Y-84620814D01*
X149090602Y-84620827D01*
X149030264Y-84766498D01*
X149030261Y-84766510D01*
X148999500Y-84921153D01*
X130300500Y-84921153D01*
X130300500Y-78750000D01*
X131680138Y-78750000D01*
X132600254Y-78750000D01*
X132508393Y-78788050D01*
X132438063Y-78858380D01*
X132400001Y-78950270D01*
X132400001Y-79049730D01*
X132438063Y-79141620D01*
X132508393Y-79211950D01*
X132600254Y-79250000D01*
X131680138Y-79250000D01*
X131688430Y-79291690D01*
X131688430Y-79291692D01*
X131763807Y-79473671D01*
X131763814Y-79473684D01*
X131873248Y-79637462D01*
X131873251Y-79637466D01*
X132012533Y-79776748D01*
X132012537Y-79776751D01*
X132176315Y-79886185D01*
X132176328Y-79886192D01*
X132358306Y-79961569D01*
X132358318Y-79961572D01*
X132551504Y-79999999D01*
X132551508Y-80000000D01*
X132750000Y-80000000D01*
X132750000Y-79250012D01*
X133250000Y-79250012D01*
X133250000Y-80000000D01*
X133448492Y-80000000D01*
X133448495Y-79999999D01*
X133641681Y-79961572D01*
X133641693Y-79961569D01*
X133823671Y-79886192D01*
X133823684Y-79886185D01*
X133987462Y-79776751D01*
X133987466Y-79776748D01*
X134126748Y-79637466D01*
X134126751Y-79637462D01*
X134236185Y-79473684D01*
X134236192Y-79473671D01*
X134311569Y-79291692D01*
X134311569Y-79291690D01*
X134319862Y-79250000D01*
X133399746Y-79250000D01*
X133491607Y-79211950D01*
X133561937Y-79141620D01*
X133599999Y-79049730D01*
X133599999Y-78950270D01*
X133561937Y-78858380D01*
X133491607Y-78788050D01*
X133399746Y-78750000D01*
X134319862Y-78750000D01*
X135490138Y-78750000D01*
X136410254Y-78750000D01*
X136318393Y-78788050D01*
X136248063Y-78858380D01*
X136210001Y-78950270D01*
X136210001Y-79049730D01*
X136248063Y-79141620D01*
X136318393Y-79211950D01*
X136410254Y-79250000D01*
X135490138Y-79250000D01*
X135498430Y-79291690D01*
X135498430Y-79291692D01*
X135573807Y-79473671D01*
X135573814Y-79473684D01*
X135683248Y-79637462D01*
X135683251Y-79637466D01*
X135822533Y-79776748D01*
X135822537Y-79776751D01*
X135986315Y-79886185D01*
X135986328Y-79886192D01*
X136168306Y-79961569D01*
X136168318Y-79961572D01*
X136361504Y-79999999D01*
X136361508Y-80000000D01*
X136560000Y-80000000D01*
X136560000Y-79250012D01*
X137060000Y-79250012D01*
X137060000Y-80000000D01*
X137258492Y-80000000D01*
X137258495Y-79999999D01*
X137451681Y-79961572D01*
X137451693Y-79961569D01*
X137633671Y-79886192D01*
X137633684Y-79886185D01*
X137797462Y-79776751D01*
X137797466Y-79776748D01*
X137862910Y-79711304D01*
X144099500Y-79711304D01*
X144099500Y-79888695D01*
X144134103Y-80062658D01*
X144134106Y-80062667D01*
X144201983Y-80226540D01*
X144201990Y-80226553D01*
X144300535Y-80374034D01*
X144300538Y-80374038D01*
X144425961Y-80499461D01*
X144425965Y-80499464D01*
X144573446Y-80598009D01*
X144573459Y-80598016D01*
X144696363Y-80648923D01*
X144737334Y-80665894D01*
X144737336Y-80665894D01*
X144737341Y-80665896D01*
X144911304Y-80700499D01*
X144911307Y-80700500D01*
X144911309Y-80700500D01*
X145088693Y-80700500D01*
X145088694Y-80700499D01*
X145146682Y-80688964D01*
X145262658Y-80665896D01*
X145262661Y-80665894D01*
X145262666Y-80665894D01*
X145426547Y-80598013D01*
X145574035Y-80499464D01*
X145699464Y-80374035D01*
X145798013Y-80226547D01*
X145865894Y-80062666D01*
X145878360Y-79999999D01*
X145894043Y-79921153D01*
X149099500Y-79921153D01*
X149099500Y-80078846D01*
X149130261Y-80233489D01*
X149130264Y-80233501D01*
X149190602Y-80379172D01*
X149190609Y-80379185D01*
X149278210Y-80510288D01*
X149278213Y-80510292D01*
X149389707Y-80621786D01*
X149389711Y-80621789D01*
X149520814Y-80709390D01*
X149520827Y-80709397D01*
X149666498Y-80769735D01*
X149666503Y-80769737D01*
X149821153Y-80800499D01*
X149821156Y-80800500D01*
X149821158Y-80800500D01*
X149978844Y-80800500D01*
X149978845Y-80800499D01*
X150133497Y-80769737D01*
X150279179Y-80709394D01*
X150410289Y-80621789D01*
X150521789Y-80510289D01*
X150609394Y-80379179D01*
X150611524Y-80374038D01*
X150669735Y-80233501D01*
X150669737Y-80233497D01*
X150700500Y-80078842D01*
X150700500Y-79921158D01*
X150700500Y-79921155D01*
X150700499Y-79921153D01*
X150694481Y-79890899D01*
X150669737Y-79766503D01*
X150616289Y-79637466D01*
X150609397Y-79620827D01*
X150609390Y-79620814D01*
X150521789Y-79489711D01*
X150521786Y-79489707D01*
X150410292Y-79378213D01*
X150410288Y-79378210D01*
X150279185Y-79290609D01*
X150279172Y-79290602D01*
X150133501Y-79230264D01*
X150133489Y-79230261D01*
X149978845Y-79199500D01*
X149978842Y-79199500D01*
X149821158Y-79199500D01*
X149821155Y-79199500D01*
X149666510Y-79230261D01*
X149666498Y-79230264D01*
X149520827Y-79290602D01*
X149520814Y-79290609D01*
X149389711Y-79378210D01*
X149389707Y-79378213D01*
X149278213Y-79489707D01*
X149278210Y-79489711D01*
X149190609Y-79620814D01*
X149190602Y-79620827D01*
X149130264Y-79766498D01*
X149130261Y-79766510D01*
X149099500Y-79921153D01*
X145894043Y-79921153D01*
X145900061Y-79890899D01*
X145900066Y-79890871D01*
X145900500Y-79888689D01*
X145900500Y-79711306D01*
X145900499Y-79711304D01*
X145865896Y-79537341D01*
X145865893Y-79537332D01*
X145798016Y-79373459D01*
X145798009Y-79373446D01*
X145699464Y-79225965D01*
X145699461Y-79225961D01*
X145574038Y-79100538D01*
X145574034Y-79100535D01*
X145426553Y-79001990D01*
X145426540Y-79001983D01*
X145262667Y-78934106D01*
X145262658Y-78934103D01*
X145088694Y-78899500D01*
X145088691Y-78899500D01*
X144911309Y-78899500D01*
X144911306Y-78899500D01*
X144737341Y-78934103D01*
X144737332Y-78934106D01*
X144573459Y-79001983D01*
X144573446Y-79001990D01*
X144425965Y-79100535D01*
X144425961Y-79100538D01*
X144300538Y-79225961D01*
X144300535Y-79225965D01*
X144201990Y-79373446D01*
X144201983Y-79373459D01*
X144134106Y-79537332D01*
X144134103Y-79537341D01*
X144099500Y-79711304D01*
X137862910Y-79711304D01*
X137936749Y-79637465D01*
X137937510Y-79636327D01*
X137937510Y-79636326D01*
X138046185Y-79473684D01*
X138046192Y-79473671D01*
X138121569Y-79291692D01*
X138121569Y-79291690D01*
X138129862Y-79250000D01*
X137209746Y-79250000D01*
X137301607Y-79211950D01*
X137371937Y-79141620D01*
X137409999Y-79049730D01*
X137409999Y-78950270D01*
X137371937Y-78858380D01*
X137301607Y-78788050D01*
X137209746Y-78750000D01*
X138129862Y-78750000D01*
X138121569Y-78708309D01*
X138121569Y-78708307D01*
X138046192Y-78526328D01*
X138046185Y-78526315D01*
X137936751Y-78362537D01*
X137936748Y-78362533D01*
X137797466Y-78223251D01*
X137797462Y-78223248D01*
X137633684Y-78113814D01*
X137633671Y-78113807D01*
X137451693Y-78038430D01*
X137451681Y-78038427D01*
X137258495Y-78000000D01*
X137060000Y-78000000D01*
X137060000Y-78749988D01*
X136560000Y-78749988D01*
X136560000Y-78000000D01*
X136361504Y-78000000D01*
X136168318Y-78038427D01*
X136168306Y-78038430D01*
X135986328Y-78113807D01*
X135986315Y-78113814D01*
X135822537Y-78223248D01*
X135822533Y-78223251D01*
X135683251Y-78362533D01*
X135683248Y-78362537D01*
X135573814Y-78526315D01*
X135573807Y-78526328D01*
X135498430Y-78708307D01*
X135498430Y-78708309D01*
X135490138Y-78750000D01*
X134319862Y-78750000D01*
X134311569Y-78708309D01*
X134311569Y-78708307D01*
X134236192Y-78526328D01*
X134236185Y-78526315D01*
X134126751Y-78362537D01*
X134126748Y-78362533D01*
X133987466Y-78223251D01*
X133987462Y-78223248D01*
X133823684Y-78113814D01*
X133823671Y-78113807D01*
X133641693Y-78038430D01*
X133641681Y-78038427D01*
X133448495Y-78000000D01*
X133250000Y-78000000D01*
X133250000Y-78749988D01*
X132750000Y-78749988D01*
X132750000Y-78000000D01*
X132551504Y-78000000D01*
X132358318Y-78038427D01*
X132358306Y-78038430D01*
X132176328Y-78113807D01*
X132176315Y-78113814D01*
X132012537Y-78223248D01*
X132012533Y-78223251D01*
X131873251Y-78362533D01*
X131873248Y-78362537D01*
X131763814Y-78526315D01*
X131763807Y-78526328D01*
X131688430Y-78708307D01*
X131688430Y-78708309D01*
X131680138Y-78750000D01*
X130300500Y-78750000D01*
X130300500Y-71452135D01*
X135449500Y-71452135D01*
X135449500Y-73047870D01*
X135449501Y-73047876D01*
X135455908Y-73107483D01*
X135506202Y-73242328D01*
X135506206Y-73242335D01*
X135592451Y-73357543D01*
X135592452Y-73357544D01*
X135592454Y-73357546D01*
X135638823Y-73392258D01*
X135680693Y-73448190D01*
X135685677Y-73517881D01*
X135664830Y-73564408D01*
X135623667Y-73621063D01*
X135537914Y-73789362D01*
X135479548Y-73968997D01*
X135450000Y-74155552D01*
X135450000Y-74344447D01*
X135479548Y-74531002D01*
X135537914Y-74710637D01*
X135623666Y-74878933D01*
X135642116Y-74904328D01*
X136228279Y-74318164D01*
X136253970Y-74414041D01*
X136309921Y-74510952D01*
X136389048Y-74590079D01*
X136485959Y-74646030D01*
X136581833Y-74671719D01*
X135995669Y-75257882D01*
X135995670Y-75257883D01*
X136021059Y-75276329D01*
X136189362Y-75362085D01*
X136368997Y-75420451D01*
X136555553Y-75450000D01*
X136744447Y-75450000D01*
X136931002Y-75420451D01*
X137110637Y-75362085D01*
X137278937Y-75276331D01*
X137304328Y-75257883D01*
X137304328Y-75257882D01*
X136718166Y-74671719D01*
X136814041Y-74646030D01*
X136910952Y-74590079D01*
X136990079Y-74510952D01*
X137046030Y-74414041D01*
X137071719Y-74318165D01*
X137657882Y-74904328D01*
X137657883Y-74904328D01*
X137676331Y-74878937D01*
X137762085Y-74710637D01*
X137820451Y-74531002D01*
X137850000Y-74344447D01*
X137850000Y-74271153D01*
X164499500Y-74271153D01*
X164499500Y-74428846D01*
X164530261Y-74583489D01*
X164530264Y-74583501D01*
X164590602Y-74729172D01*
X164590609Y-74729185D01*
X164678210Y-74860288D01*
X164678213Y-74860292D01*
X164789707Y-74971786D01*
X164789711Y-74971789D01*
X164920814Y-75059390D01*
X164920827Y-75059397D01*
X165066498Y-75119735D01*
X165066503Y-75119737D01*
X165221153Y-75150499D01*
X165221156Y-75150500D01*
X165221158Y-75150500D01*
X165378844Y-75150500D01*
X165378845Y-75150499D01*
X165533497Y-75119737D01*
X165679179Y-75059394D01*
X165810289Y-74971789D01*
X165921789Y-74860289D01*
X166009394Y-74729179D01*
X166069737Y-74583497D01*
X166100500Y-74428842D01*
X166100500Y-74271158D01*
X166100500Y-74271155D01*
X166100499Y-74271153D01*
X177199500Y-74271153D01*
X177199500Y-74428846D01*
X177230261Y-74583489D01*
X177230264Y-74583501D01*
X177290602Y-74729172D01*
X177290609Y-74729185D01*
X177378210Y-74860288D01*
X177378213Y-74860292D01*
X177489707Y-74971786D01*
X177489711Y-74971789D01*
X177620814Y-75059390D01*
X177620827Y-75059397D01*
X177766498Y-75119735D01*
X177766503Y-75119737D01*
X177921153Y-75150499D01*
X177921156Y-75150500D01*
X177921158Y-75150500D01*
X178078844Y-75150500D01*
X178078845Y-75150499D01*
X178233497Y-75119737D01*
X178379179Y-75059394D01*
X178510289Y-74971789D01*
X178621789Y-74860289D01*
X178709394Y-74729179D01*
X178769737Y-74583497D01*
X178800500Y-74428842D01*
X178800500Y-74271158D01*
X178800500Y-74271155D01*
X178800499Y-74271153D01*
X178778569Y-74160904D01*
X178769737Y-74116503D01*
X178769735Y-74116498D01*
X178709397Y-73970827D01*
X178709390Y-73970814D01*
X178621789Y-73839711D01*
X178621786Y-73839707D01*
X178510292Y-73728213D01*
X178510288Y-73728210D01*
X178379185Y-73640609D01*
X178379172Y-73640602D01*
X178233501Y-73580264D01*
X178233489Y-73580261D01*
X178078845Y-73549500D01*
X178078842Y-73549500D01*
X177921158Y-73549500D01*
X177921155Y-73549500D01*
X177766510Y-73580261D01*
X177766498Y-73580264D01*
X177620827Y-73640602D01*
X177620814Y-73640609D01*
X177489711Y-73728210D01*
X177489707Y-73728213D01*
X177378213Y-73839707D01*
X177378210Y-73839711D01*
X177290609Y-73970814D01*
X177290602Y-73970827D01*
X177230264Y-74116498D01*
X177230261Y-74116510D01*
X177199500Y-74271153D01*
X166100499Y-74271153D01*
X166078569Y-74160904D01*
X166069737Y-74116503D01*
X166069735Y-74116498D01*
X166009397Y-73970827D01*
X166009390Y-73970814D01*
X165921789Y-73839711D01*
X165921786Y-73839707D01*
X165810292Y-73728213D01*
X165810288Y-73728210D01*
X165679185Y-73640609D01*
X165679172Y-73640602D01*
X165533501Y-73580264D01*
X165533489Y-73580261D01*
X165378845Y-73549500D01*
X165378842Y-73549500D01*
X165221158Y-73549500D01*
X165221155Y-73549500D01*
X165066510Y-73580261D01*
X165066498Y-73580264D01*
X164920827Y-73640602D01*
X164920814Y-73640609D01*
X164789711Y-73728210D01*
X164789707Y-73728213D01*
X164678213Y-73839707D01*
X164678210Y-73839711D01*
X164590609Y-73970814D01*
X164590602Y-73970827D01*
X164530264Y-74116498D01*
X164530261Y-74116510D01*
X164499500Y-74271153D01*
X137850000Y-74271153D01*
X137850000Y-74155552D01*
X137820451Y-73968997D01*
X137762085Y-73789362D01*
X137676332Y-73621063D01*
X137635170Y-73564408D01*
X137611691Y-73498601D01*
X137627517Y-73430547D01*
X137661175Y-73392259D01*
X137707546Y-73357546D01*
X137793796Y-73242331D01*
X137844091Y-73107483D01*
X137850500Y-73047873D01*
X137850500Y-72948543D01*
X169099499Y-72948543D01*
X169137947Y-73141829D01*
X169137950Y-73141839D01*
X169213364Y-73323907D01*
X169213371Y-73323920D01*
X169322860Y-73487781D01*
X169322863Y-73487785D01*
X169462214Y-73627136D01*
X169462218Y-73627139D01*
X169626079Y-73736628D01*
X169626092Y-73736635D01*
X169753388Y-73789362D01*
X169808165Y-73812051D01*
X169808169Y-73812051D01*
X169808170Y-73812052D01*
X170001456Y-73850500D01*
X170001459Y-73850500D01*
X170198543Y-73850500D01*
X170328582Y-73824632D01*
X170391835Y-73812051D01*
X170573914Y-73736632D01*
X170737782Y-73627139D01*
X170877139Y-73487782D01*
X170986632Y-73323914D01*
X171062051Y-73141835D01*
X171074632Y-73078582D01*
X171100500Y-72948543D01*
X172199499Y-72948543D01*
X172237947Y-73141829D01*
X172237950Y-73141839D01*
X172313364Y-73323907D01*
X172313371Y-73323920D01*
X172422860Y-73487781D01*
X172422863Y-73487785D01*
X172562214Y-73627136D01*
X172562218Y-73627139D01*
X172726079Y-73736628D01*
X172726092Y-73736635D01*
X172853388Y-73789362D01*
X172908165Y-73812051D01*
X172908169Y-73812051D01*
X172908170Y-73812052D01*
X173101456Y-73850500D01*
X173101459Y-73850500D01*
X173298543Y-73850500D01*
X173428582Y-73824632D01*
X173491835Y-73812051D01*
X173673914Y-73736632D01*
X173837782Y-73627139D01*
X173977139Y-73487782D01*
X174086632Y-73323914D01*
X174162051Y-73141835D01*
X174174632Y-73078582D01*
X174200500Y-72948543D01*
X174200500Y-72751456D01*
X174162052Y-72558170D01*
X174162051Y-72558169D01*
X174162051Y-72558165D01*
X174162049Y-72558160D01*
X174086635Y-72376092D01*
X174086628Y-72376079D01*
X173977139Y-72212218D01*
X173977136Y-72212214D01*
X173837785Y-72072863D01*
X173837781Y-72072860D01*
X173673920Y-71963371D01*
X173673907Y-71963364D01*
X173491839Y-71887950D01*
X173491829Y-71887947D01*
X173298543Y-71849500D01*
X173298541Y-71849500D01*
X173101459Y-71849500D01*
X173101457Y-71849500D01*
X172908170Y-71887947D01*
X172908160Y-71887950D01*
X172726092Y-71963364D01*
X172726079Y-71963371D01*
X172562218Y-72072860D01*
X172562214Y-72072863D01*
X172422863Y-72212214D01*
X172422860Y-72212218D01*
X172313371Y-72376079D01*
X172313364Y-72376092D01*
X172237950Y-72558160D01*
X172237947Y-72558170D01*
X172199500Y-72751456D01*
X172199500Y-72751459D01*
X172199500Y-72948541D01*
X172199500Y-72948543D01*
X172199499Y-72948543D01*
X171100500Y-72948543D01*
X171100500Y-72751456D01*
X171062052Y-72558170D01*
X171062051Y-72558169D01*
X171062051Y-72558165D01*
X171062049Y-72558160D01*
X170986635Y-72376092D01*
X170986628Y-72376079D01*
X170877139Y-72212218D01*
X170877136Y-72212214D01*
X170737785Y-72072863D01*
X170737781Y-72072860D01*
X170573920Y-71963371D01*
X170573907Y-71963364D01*
X170391839Y-71887950D01*
X170391829Y-71887947D01*
X170198543Y-71849500D01*
X170198541Y-71849500D01*
X170001459Y-71849500D01*
X170001457Y-71849500D01*
X169808170Y-71887947D01*
X169808160Y-71887950D01*
X169626092Y-71963364D01*
X169626079Y-71963371D01*
X169462218Y-72072860D01*
X169462214Y-72072863D01*
X169322863Y-72212214D01*
X169322860Y-72212218D01*
X169213371Y-72376079D01*
X169213364Y-72376092D01*
X169137950Y-72558160D01*
X169137947Y-72558170D01*
X169099500Y-72751456D01*
X169099500Y-72751459D01*
X169099500Y-72948541D01*
X169099500Y-72948543D01*
X169099499Y-72948543D01*
X137850500Y-72948543D01*
X137850499Y-72212218D01*
X137850499Y-71452129D01*
X137850498Y-71452123D01*
X137850497Y-71452116D01*
X137844091Y-71392517D01*
X137793796Y-71257669D01*
X137793795Y-71257668D01*
X137793793Y-71257664D01*
X137707547Y-71142455D01*
X137707544Y-71142452D01*
X137592335Y-71056206D01*
X137592328Y-71056202D01*
X137457482Y-71005908D01*
X137457483Y-71005908D01*
X137397883Y-70999501D01*
X137397881Y-70999500D01*
X137397873Y-70999500D01*
X137397864Y-70999500D01*
X135902129Y-70999500D01*
X135902123Y-70999501D01*
X135842516Y-71005908D01*
X135707671Y-71056202D01*
X135707664Y-71056206D01*
X135592455Y-71142452D01*
X135592452Y-71142455D01*
X135506206Y-71257664D01*
X135506202Y-71257671D01*
X135455908Y-71392517D01*
X135449501Y-71452116D01*
X135449501Y-71452123D01*
X135449500Y-71452135D01*
X130300500Y-71452135D01*
X130300500Y-66573543D01*
X144899499Y-66573543D01*
X144937947Y-66766829D01*
X144937950Y-66766839D01*
X145013364Y-66948907D01*
X145013371Y-66948920D01*
X145122860Y-67112781D01*
X145122863Y-67112785D01*
X145262214Y-67252136D01*
X145262218Y-67252139D01*
X145426079Y-67361628D01*
X145426092Y-67361635D01*
X145608160Y-67437049D01*
X145608165Y-67437051D01*
X145608169Y-67437051D01*
X145608170Y-67437052D01*
X145801456Y-67475500D01*
X145801459Y-67475500D01*
X145998543Y-67475500D01*
X146128582Y-67449632D01*
X146191835Y-67437051D01*
X146373914Y-67361632D01*
X146537782Y-67252139D01*
X146677139Y-67112782D01*
X146786632Y-66948914D01*
X146862051Y-66766835D01*
X146900500Y-66573541D01*
X146900500Y-66376459D01*
X146900500Y-66376456D01*
X146862052Y-66183170D01*
X146862051Y-66183169D01*
X146862051Y-66183165D01*
X146862049Y-66183160D01*
X146786635Y-66001092D01*
X146786628Y-66001079D01*
X146677139Y-65837218D01*
X146677136Y-65837214D01*
X146537785Y-65697863D01*
X146537781Y-65697860D01*
X146373920Y-65588371D01*
X146373907Y-65588364D01*
X146191839Y-65512950D01*
X146191829Y-65512947D01*
X145998543Y-65474500D01*
X145998541Y-65474500D01*
X145801459Y-65474500D01*
X145801457Y-65474500D01*
X145608170Y-65512947D01*
X145608160Y-65512950D01*
X145426092Y-65588364D01*
X145426079Y-65588371D01*
X145262218Y-65697860D01*
X145262214Y-65697863D01*
X145122863Y-65837214D01*
X145122860Y-65837218D01*
X145013371Y-66001079D01*
X145013364Y-66001092D01*
X144937950Y-66183160D01*
X144937947Y-66183170D01*
X144899500Y-66376456D01*
X144899500Y-66376459D01*
X144899500Y-66573541D01*
X144899500Y-66573543D01*
X144899499Y-66573543D01*
X130300500Y-66573543D01*
X130300500Y-65221153D01*
X141699500Y-65221153D01*
X141699500Y-65378846D01*
X141730261Y-65533489D01*
X141730264Y-65533501D01*
X141790602Y-65679172D01*
X141790609Y-65679185D01*
X141878210Y-65810288D01*
X141878213Y-65810292D01*
X141989707Y-65921786D01*
X141989711Y-65921789D01*
X142120814Y-66009390D01*
X142120827Y-66009397D01*
X142266498Y-66069735D01*
X142266503Y-66069737D01*
X142421153Y-66100499D01*
X142421156Y-66100500D01*
X142421158Y-66100500D01*
X142578844Y-66100500D01*
X142578845Y-66100499D01*
X142733497Y-66069737D01*
X142879179Y-66009394D01*
X143010289Y-65921789D01*
X143121789Y-65810289D01*
X143209394Y-65679179D01*
X143269737Y-65533497D01*
X143300500Y-65378842D01*
X143300500Y-65221158D01*
X143300500Y-65221155D01*
X143300499Y-65221153D01*
X143269738Y-65066510D01*
X143269737Y-65066503D01*
X143269735Y-65066498D01*
X143209397Y-64920827D01*
X143209390Y-64920814D01*
X143121789Y-64789711D01*
X143121786Y-64789707D01*
X143010292Y-64678213D01*
X143010288Y-64678210D01*
X142879185Y-64590609D01*
X142879172Y-64590602D01*
X142733501Y-64530264D01*
X142733489Y-64530261D01*
X142578845Y-64499500D01*
X142578842Y-64499500D01*
X142421158Y-64499500D01*
X142421155Y-64499500D01*
X142266510Y-64530261D01*
X142266498Y-64530264D01*
X142120827Y-64590602D01*
X142120814Y-64590609D01*
X141989711Y-64678210D01*
X141989707Y-64678213D01*
X141878213Y-64789707D01*
X141878210Y-64789711D01*
X141790609Y-64920814D01*
X141790602Y-64920827D01*
X141730264Y-65066498D01*
X141730261Y-65066510D01*
X141699500Y-65221153D01*
X130300500Y-65221153D01*
X130300500Y-62503750D01*
X130300726Y-62496263D01*
X130316084Y-62242364D01*
X130317889Y-62227500D01*
X130354053Y-62030160D01*
X130363062Y-61980995D01*
X130366645Y-61966461D01*
X130441202Y-61727202D01*
X130446504Y-61713219D01*
X130549361Y-61484679D01*
X130556320Y-61471421D01*
X130583412Y-61426606D01*
X130685975Y-61256946D01*
X130694462Y-61244650D01*
X130849034Y-61047354D01*
X130858949Y-61036163D01*
X131036163Y-60858949D01*
X131047354Y-60849034D01*
X131244650Y-60694462D01*
X131256946Y-60685975D01*
X131471421Y-60556319D01*
X131484680Y-60549361D01*
X131713219Y-60446504D01*
X131727202Y-60441202D01*
X131966467Y-60366643D01*
X131980995Y-60363062D01*
X132227506Y-60317888D01*
X132242359Y-60316084D01*
X132496264Y-60300726D01*
X132503751Y-60300500D01*
X132547595Y-60300500D01*
X177452405Y-60300500D01*
X177496249Y-60300500D01*
X177503736Y-60300726D01*
G37*
%TD.AperFunction*%
%TD*%
M02*
